<svg width="2066" height="966" viewBox="0 0 2066 966" fill="none" xmlns="http://www.w3.org/2000/svg">
<rect x="615" width="645" height="966" fill="#C4C4C4" fill-opacity="0.05"/>
<line y1="164" x2="1907" y2="164" stroke="url(#paint0_linear)" stroke-width="80"/>
<line y1="603" x2="1907" y2="603" stroke="url(#paint1_linear)" stroke-width="80"/>
<path d="M51.7148 179H48.3945V153.395H39.3516V150.445H60.7578V153.395H51.7148V179ZM74.5469 179.391C73.1536 179.391 71.8776 179.137 70.7188 178.629C69.5729 178.108 68.6094 177.314 67.8281 176.246H67.5938C67.75 177.496 67.8281 178.681 67.8281 179.801V188.609H64.5859V157.594H67.2227L67.6719 160.523H67.8281C68.6615 159.352 69.6315 158.505 70.7383 157.984C71.8451 157.464 73.1146 157.203 74.5469 157.203C77.3854 157.203 79.5729 158.173 81.1094 160.113C82.6589 162.053 83.4336 164.775 83.4336 168.277C83.4336 171.793 82.6458 174.527 81.0703 176.48C79.5078 178.421 77.3333 179.391 74.5469 179.391ZM74.0781 159.957C71.8906 159.957 70.3086 160.562 69.332 161.773C68.3555 162.984 67.8542 164.911 67.8281 167.555V168.277C67.8281 171.285 68.3294 173.44 69.332 174.742C70.3346 176.031 71.9427 176.676 74.1562 176.676C76.0052 176.676 77.4505 175.927 78.4922 174.43C79.5469 172.932 80.0742 170.868 80.0742 168.238C80.0742 165.569 79.5469 163.525 78.4922 162.105C77.4505 160.673 75.9792 159.957 74.0781 159.957ZM85.7188 157.594H89.1953L93.8828 169.801C94.9115 172.587 95.5495 174.599 95.7969 175.836H95.9531C96.1224 175.172 96.474 174.039 97.0078 172.438C97.5547 170.823 99.3255 165.875 102.32 157.594H105.797L96.5977 181.969C95.6862 184.378 94.6185 186.083 93.3945 187.086C92.1836 188.102 90.6927 188.609 88.9219 188.609C87.9323 188.609 86.9557 188.499 85.9922 188.277V185.68C86.7083 185.836 87.5091 185.914 88.3945 185.914C90.6211 185.914 92.2096 184.664 93.1602 182.164L94.3516 179.117L85.7188 157.594ZM127.867 186.402H124.723V179H109.762V186.402H106.637V176.207H108.316C110.061 173.837 111.428 171.057 112.418 167.867C113.408 164.677 113.922 161.253 113.961 157.594H124.801V176.207H127.867V186.402ZM121.676 176.207V160.152H116.871C116.702 163.043 116.142 165.973 115.191 168.941C114.254 171.897 113.082 174.319 111.676 176.207H121.676ZM150.641 168.277C150.641 171.767 149.762 174.495 148.004 176.461C146.246 178.414 143.818 179.391 140.719 179.391C138.805 179.391 137.105 178.941 135.621 178.043C134.137 177.145 132.991 175.855 132.184 174.176C131.376 172.496 130.973 170.53 130.973 168.277C130.973 164.788 131.845 162.073 133.59 160.133C135.335 158.18 137.757 157.203 140.855 157.203C143.85 157.203 146.227 158.199 147.984 160.191C149.755 162.184 150.641 164.879 150.641 168.277ZM134.332 168.277C134.332 171.012 134.879 173.095 135.973 174.527C137.066 175.96 138.674 176.676 140.797 176.676C142.919 176.676 144.527 175.966 145.621 174.547C146.728 173.115 147.281 171.025 147.281 168.277C147.281 165.556 146.728 163.492 145.621 162.086C144.527 160.667 142.906 159.957 140.758 159.957C138.635 159.957 137.034 160.654 135.953 162.047C134.872 163.44 134.332 165.517 134.332 168.277ZM164.898 179.391C161.799 179.391 159.397 178.44 157.691 176.539C155.999 174.625 155.152 171.923 155.152 168.434C155.152 164.853 156.012 162.086 157.73 160.133C159.462 158.18 161.923 157.203 165.113 157.203C166.142 157.203 167.171 157.314 168.199 157.535C169.228 157.757 170.035 158.017 170.621 158.316L169.625 161.07C168.909 160.784 168.128 160.549 167.281 160.367C166.435 160.172 165.686 160.074 165.035 160.074C160.686 160.074 158.512 162.848 158.512 168.395C158.512 171.025 159.039 173.043 160.094 174.449C161.161 175.855 162.737 176.559 164.82 176.559C166.604 176.559 168.434 176.174 170.309 175.406V178.277C168.876 179.02 167.073 179.391 164.898 179.391ZM178.648 179H175.406V157.594H193.375V179H190.094V160.406H178.648V179ZM218.727 168.277C218.727 171.767 217.848 174.495 216.09 176.461C214.332 178.414 211.904 179.391 208.805 179.391C206.891 179.391 205.191 178.941 203.707 178.043C202.223 177.145 201.077 175.855 200.27 174.176C199.462 172.496 199.059 170.53 199.059 168.277C199.059 164.788 199.931 162.073 201.676 160.133C203.421 158.18 205.842 157.203 208.941 157.203C211.936 157.203 214.312 158.199 216.07 160.191C217.841 162.184 218.727 164.879 218.727 168.277ZM202.418 168.277C202.418 171.012 202.965 173.095 204.059 174.527C205.152 175.96 206.76 176.676 208.883 176.676C211.005 176.676 212.613 175.966 213.707 174.547C214.814 173.115 215.367 171.025 215.367 168.277C215.367 165.556 214.814 163.492 213.707 162.086C212.613 160.667 210.992 159.957 208.844 159.957C206.721 159.957 205.12 160.654 204.039 162.047C202.958 163.44 202.418 165.517 202.418 168.277ZM232.984 179.391C229.885 179.391 227.483 178.44 225.777 176.539C224.085 174.625 223.238 171.923 223.238 168.434C223.238 164.853 224.098 162.086 225.816 160.133C227.548 158.18 230.009 157.203 233.199 157.203C234.228 157.203 235.257 157.314 236.285 157.535C237.314 157.757 238.121 158.017 238.707 158.316L237.711 161.07C236.995 160.784 236.214 160.549 235.367 160.367C234.521 160.172 233.772 160.074 233.121 160.074C228.772 160.074 226.598 162.848 226.598 168.395C226.598 171.025 227.125 173.043 228.18 174.449C229.247 175.855 230.823 176.559 232.906 176.559C234.69 176.559 236.52 176.174 238.395 175.406V178.277C236.962 179.02 235.159 179.391 232.984 179.391ZM261.969 168.277C261.969 171.767 261.09 174.495 259.332 176.461C257.574 178.414 255.146 179.391 252.047 179.391C250.133 179.391 248.434 178.941 246.949 178.043C245.465 177.145 244.319 175.855 243.512 174.176C242.704 172.496 242.301 170.53 242.301 168.277C242.301 164.788 243.173 162.073 244.918 160.133C246.663 158.18 249.085 157.203 252.184 157.203C255.178 157.203 257.555 158.199 259.312 160.191C261.083 162.184 261.969 164.879 261.969 168.277ZM245.66 168.277C245.66 171.012 246.207 173.095 247.301 174.527C248.395 175.96 250.003 176.676 252.125 176.676C254.247 176.676 255.855 175.966 256.949 174.547C258.056 173.115 258.609 171.025 258.609 168.277C258.609 165.556 258.056 163.492 256.949 162.086C255.855 160.667 254.234 159.957 252.086 159.957C249.964 159.957 248.362 160.654 247.281 162.047C246.201 163.44 245.66 165.517 245.66 168.277ZM266.559 166.168C266.559 161.48 267.249 157.828 268.629 155.211C270.009 152.581 272.197 150.94 275.191 150.289C278.915 149.495 282.197 148.85 285.035 148.355L285.641 151.207C281.122 151.962 277.893 152.561 275.953 153.004C274.065 153.434 272.646 154.449 271.695 156.051C270.758 157.652 270.243 159.833 270.152 162.594H270.387C271.194 161.5 272.236 160.641 273.512 160.016C274.788 159.391 276.122 159.078 277.516 159.078C280.146 159.078 282.197 159.931 283.668 161.637C285.139 163.342 285.875 165.706 285.875 168.727C285.875 172.073 285.022 174.69 283.316 176.578C281.611 178.453 279.234 179.391 276.188 179.391C273.18 179.391 270.823 178.238 269.117 175.934C267.411 173.629 266.559 170.374 266.559 166.168ZM276.48 176.676C280.452 176.676 282.438 174.143 282.438 169.078C282.438 164.247 280.634 161.832 277.027 161.832C276.038 161.832 275.081 162.04 274.156 162.457C273.245 162.861 272.405 163.401 271.637 164.078C270.882 164.755 270.296 165.452 269.879 166.168C269.879 169.592 270.419 172.203 271.5 174C272.581 175.784 274.241 176.676 276.48 176.676ZM294.781 157.594V166.559H306.773V157.594H310.016V179H306.773V169.352H294.781V179H291.539V157.594H294.781ZM335.367 168.277C335.367 171.767 334.488 174.495 332.73 176.461C330.973 178.414 328.544 179.391 325.445 179.391C323.531 179.391 321.832 178.941 320.348 178.043C318.863 177.145 317.717 175.855 316.91 174.176C316.103 172.496 315.699 170.53 315.699 168.277C315.699 164.788 316.572 162.073 318.316 160.133C320.061 158.18 322.483 157.203 325.582 157.203C328.577 157.203 330.953 158.199 332.711 160.191C334.482 162.184 335.367 164.879 335.367 168.277ZM319.059 168.277C319.059 171.012 319.605 173.095 320.699 174.527C321.793 175.96 323.401 176.676 325.523 176.676C327.646 176.676 329.254 175.966 330.348 174.547C331.454 173.115 332.008 171.025 332.008 168.277C332.008 165.556 331.454 163.492 330.348 162.086C329.254 160.667 327.633 159.957 325.484 159.957C323.362 159.957 321.76 160.654 320.68 162.047C319.599 163.44 319.059 165.517 319.059 168.277ZM350.113 179.391C346.949 179.391 344.449 178.427 342.613 176.5C340.79 174.573 339.879 171.897 339.879 168.473C339.879 165.022 340.725 162.281 342.418 160.25C344.124 158.219 346.409 157.203 349.273 157.203C351.956 157.203 354.078 158.089 355.641 159.859C357.203 161.617 357.984 163.941 357.984 166.832V168.883H343.238C343.303 171.396 343.935 173.303 345.133 174.605C346.344 175.908 348.043 176.559 350.23 176.559C352.535 176.559 354.814 176.077 357.066 175.113V178.004C355.921 178.499 354.833 178.85 353.805 179.059C352.789 179.28 351.559 179.391 350.113 179.391ZM349.234 159.918C347.516 159.918 346.142 160.478 345.113 161.598C344.098 162.717 343.499 164.267 343.316 166.246H354.508C354.508 164.202 354.052 162.639 353.141 161.559C352.229 160.465 350.927 159.918 349.234 159.918ZM377.164 157.594V166.559H389.156V157.594H392.398V179H389.156V169.352H377.164V179H373.922V157.594H377.164ZM412.438 179L411.793 175.953H411.637C410.569 177.294 409.501 178.206 408.434 178.688C407.379 179.156 406.057 179.391 404.469 179.391C402.346 179.391 400.68 178.844 399.469 177.75C398.271 176.656 397.672 175.1 397.672 173.082C397.672 168.759 401.129 166.493 408.043 166.285L411.676 166.168V164.84C411.676 163.16 411.311 161.923 410.582 161.129C409.866 160.322 408.714 159.918 407.125 159.918C405.341 159.918 403.323 160.465 401.07 161.559L400.074 159.078C401.129 158.505 402.281 158.056 403.531 157.73C404.794 157.405 406.057 157.242 407.32 157.242C409.872 157.242 411.76 157.809 412.984 158.941C414.221 160.074 414.84 161.891 414.84 164.391V179H412.438ZM405.113 176.715C407.132 176.715 408.714 176.161 409.859 175.055C411.018 173.948 411.598 172.398 411.598 170.406V168.473L408.355 168.609C405.777 168.701 403.915 169.104 402.77 169.82C401.637 170.523 401.07 171.624 401.07 173.121C401.07 174.293 401.422 175.185 402.125 175.797C402.841 176.409 403.837 176.715 405.113 176.715ZM430.094 179.391C426.995 179.391 424.592 178.44 422.887 176.539C421.194 174.625 420.348 171.923 420.348 168.434C420.348 164.853 421.207 162.086 422.926 160.133C424.658 158.18 427.118 157.203 430.309 157.203C431.337 157.203 432.366 157.314 433.395 157.535C434.423 157.757 435.23 158.017 435.816 158.316L434.82 161.07C434.104 160.784 433.323 160.549 432.477 160.367C431.63 160.172 430.882 160.074 430.23 160.074C425.882 160.074 423.707 162.848 423.707 168.395C423.707 171.025 424.234 173.043 425.289 174.449C426.357 175.855 427.932 176.559 430.016 176.559C431.799 176.559 433.629 176.174 435.504 175.406V178.277C434.072 179.02 432.268 179.391 430.094 179.391ZM449.645 179.391C446.48 179.391 443.98 178.427 442.145 176.5C440.322 174.573 439.41 171.897 439.41 168.473C439.41 165.022 440.257 162.281 441.949 160.25C443.655 158.219 445.94 157.203 448.805 157.203C451.487 157.203 453.609 158.089 455.172 159.859C456.734 161.617 457.516 163.941 457.516 166.832V168.883H442.77C442.835 171.396 443.466 173.303 444.664 174.605C445.875 175.908 447.574 176.559 449.762 176.559C452.066 176.559 454.345 176.077 456.598 175.113V178.004C455.452 178.499 454.365 178.85 453.336 179.059C452.32 179.28 451.09 179.391 449.645 179.391ZM448.766 159.918C447.047 159.918 445.673 160.478 444.645 161.598C443.629 162.717 443.03 164.267 442.848 166.246H454.039C454.039 164.202 453.583 162.639 452.672 161.559C451.76 160.465 450.458 159.918 448.766 159.918ZM479.02 179H475.738V160.367H469.312C468.961 165.003 468.473 168.681 467.848 171.402C467.223 174.124 466.409 176.116 465.406 177.379C464.417 178.642 463.154 179.273 461.617 179.273C460.914 179.273 460.354 179.195 459.938 179.039V176.637C460.224 176.715 460.549 176.754 460.914 176.754C462.411 176.754 463.603 175.172 464.488 172.008C465.374 168.844 466.044 164.039 466.5 157.594H479.02V179ZM494.957 179.391C491.793 179.391 489.293 178.427 487.457 176.5C485.634 174.573 484.723 171.897 484.723 168.473C484.723 165.022 485.569 162.281 487.262 160.25C488.967 158.219 491.253 157.203 494.117 157.203C496.799 157.203 498.922 158.089 500.484 159.859C502.047 161.617 502.828 163.941 502.828 166.832V168.883H488.082C488.147 171.396 488.779 173.303 489.977 174.605C491.188 175.908 492.887 176.559 495.074 176.559C497.379 176.559 499.658 176.077 501.91 175.113V178.004C500.764 178.499 499.677 178.85 498.648 179.059C497.633 179.28 496.402 179.391 494.957 179.391ZM494.078 159.918C492.359 159.918 490.986 160.478 489.957 161.598C488.941 162.717 488.342 164.267 488.16 166.246H499.352C499.352 164.202 498.896 162.639 497.984 161.559C497.073 160.465 495.771 159.918 494.078 159.918ZM511.617 157.594V166.559H523.609V157.594H526.852V179H523.609V169.352H511.617V179H508.375V157.594H511.617ZM536.773 157.594V171.168L536.637 174.723L536.578 175.836L548.16 157.594H552.203V179H549.176V165.914L549.234 163.336L549.332 160.797L537.77 179H533.727V157.594H536.773ZM568.121 179.391C564.957 179.391 562.457 178.427 560.621 176.5C558.798 174.573 557.887 171.897 557.887 168.473C557.887 165.022 558.733 162.281 560.426 160.25C562.132 158.219 564.417 157.203 567.281 157.203C569.964 157.203 572.086 158.089 573.648 159.859C575.211 161.617 575.992 163.941 575.992 166.832V168.883H561.246C561.311 171.396 561.943 173.303 563.141 174.605C564.352 175.908 566.051 176.559 568.238 176.559C570.543 176.559 572.822 176.077 575.074 175.113V178.004C573.928 178.499 572.841 178.85 571.812 179.059C570.797 179.28 569.566 179.391 568.121 179.391ZM567.242 159.918C565.523 159.918 564.15 160.478 563.121 161.598C562.105 162.717 561.507 164.267 561.324 166.246H572.516C572.516 164.202 572.06 162.639 571.148 161.559C570.237 160.465 568.935 159.918 567.242 159.918ZM584.938 174.352L585.23 174.801C584.892 176.103 584.404 177.613 583.766 179.332C583.128 181.064 582.464 182.672 581.773 184.156H579.332C579.684 182.802 580.068 181.129 580.484 179.137C580.914 177.145 581.214 175.549 581.383 174.352H584.938ZM620.211 168.277C620.211 171.767 619.332 174.495 617.574 176.461C615.816 178.414 613.388 179.391 610.289 179.391C608.375 179.391 606.676 178.941 605.191 178.043C603.707 177.145 602.561 175.855 601.754 174.176C600.947 172.496 600.543 170.53 600.543 168.277C600.543 164.788 601.415 162.073 603.16 160.133C604.905 158.18 607.327 157.203 610.426 157.203C613.421 157.203 615.797 158.199 617.555 160.191C619.326 162.184 620.211 164.879 620.211 168.277ZM603.902 168.277C603.902 171.012 604.449 173.095 605.543 174.527C606.637 175.96 608.245 176.676 610.367 176.676C612.49 176.676 614.098 175.966 615.191 174.547C616.298 173.115 616.852 171.025 616.852 168.277C616.852 165.556 616.298 163.492 615.191 162.086C614.098 160.667 612.477 159.957 610.328 159.957C608.206 159.957 606.604 160.654 605.523 162.047C604.443 163.44 603.902 165.517 603.902 168.277ZM624.801 166.168C624.801 161.48 625.491 157.828 626.871 155.211C628.251 152.581 630.439 150.94 633.434 150.289C637.158 149.495 640.439 148.85 643.277 148.355L643.883 151.207C639.365 151.962 636.135 152.561 634.195 153.004C632.307 153.434 630.888 154.449 629.938 156.051C629 157.652 628.486 159.833 628.395 162.594H628.629C629.436 161.5 630.478 160.641 631.754 160.016C633.03 159.391 634.365 159.078 635.758 159.078C638.388 159.078 640.439 159.931 641.91 161.637C643.382 163.342 644.117 165.706 644.117 168.727C644.117 172.073 643.264 174.69 641.559 176.578C639.853 178.453 637.477 179.391 634.43 179.391C631.422 179.391 629.065 178.238 627.359 175.934C625.654 173.629 624.801 170.374 624.801 166.168ZM634.723 176.676C638.694 176.676 640.68 174.143 640.68 169.078C640.68 164.247 638.876 161.832 635.27 161.832C634.28 161.832 633.323 162.04 632.398 162.457C631.487 162.861 630.647 163.401 629.879 164.078C629.124 164.755 628.538 165.452 628.121 166.168C628.121 169.592 628.661 172.203 629.742 174C630.823 175.784 632.483 176.676 634.723 176.676ZM662.945 179L662.301 175.953H662.145C661.077 177.294 660.009 178.206 658.941 178.688C657.887 179.156 656.565 179.391 654.977 179.391C652.854 179.391 651.188 178.844 649.977 177.75C648.779 176.656 648.18 175.1 648.18 173.082C648.18 168.759 651.637 166.493 658.551 166.285L662.184 166.168V164.84C662.184 163.16 661.819 161.923 661.09 161.129C660.374 160.322 659.221 159.918 657.633 159.918C655.849 159.918 653.831 160.465 651.578 161.559L650.582 159.078C651.637 158.505 652.789 158.056 654.039 157.73C655.302 157.405 656.565 157.242 657.828 157.242C660.38 157.242 662.268 157.809 663.492 158.941C664.729 160.074 665.348 161.891 665.348 164.391V179H662.945ZM655.621 176.715C657.639 176.715 659.221 176.161 660.367 175.055C661.526 173.948 662.105 172.398 662.105 170.406V168.473L658.863 168.609C656.285 168.701 654.423 169.104 653.277 169.82C652.145 170.523 651.578 171.624 651.578 173.121C651.578 174.293 651.93 175.185 652.633 175.797C653.349 176.409 654.345 176.715 655.621 176.715ZM685.68 179H682.438V157.594H700.406V179H697.125V160.406H685.68V179ZM725.758 168.277C725.758 171.767 724.879 174.495 723.121 176.461C721.363 178.414 718.935 179.391 715.836 179.391C713.922 179.391 712.223 178.941 710.738 178.043C709.254 177.145 708.108 175.855 707.301 174.176C706.493 172.496 706.09 170.53 706.09 168.277C706.09 164.788 706.962 162.073 708.707 160.133C710.452 158.18 712.874 157.203 715.973 157.203C718.967 157.203 721.344 158.199 723.102 160.191C724.872 162.184 725.758 164.879 725.758 168.277ZM709.449 168.277C709.449 171.012 709.996 173.095 711.09 174.527C712.184 175.96 713.792 176.676 715.914 176.676C718.036 176.676 719.645 175.966 720.738 174.547C721.845 173.115 722.398 171.025 722.398 168.277C722.398 165.556 721.845 163.492 720.738 162.086C719.645 160.667 718.023 159.957 715.875 159.957C713.753 159.957 712.151 160.654 711.07 162.047C709.99 163.44 709.449 165.517 709.449 168.277ZM747.418 179H744.137V160.367H737.711C737.359 165.003 736.871 168.681 736.246 171.402C735.621 174.124 734.807 176.116 733.805 177.379C732.815 178.642 731.552 179.273 730.016 179.273C729.312 179.273 728.753 179.195 728.336 179.039V176.637C728.622 176.715 728.948 176.754 729.312 176.754C730.81 176.754 732.001 175.172 732.887 172.008C733.772 168.844 734.443 164.039 734.898 157.594H747.418V179ZM767.477 179L766.832 175.953H766.676C765.608 177.294 764.54 178.206 763.473 178.688C762.418 179.156 761.096 179.391 759.508 179.391C757.385 179.391 755.719 178.844 754.508 177.75C753.31 176.656 752.711 175.1 752.711 173.082C752.711 168.759 756.168 166.493 763.082 166.285L766.715 166.168V164.84C766.715 163.16 766.35 161.923 765.621 161.129C764.905 160.322 763.753 159.918 762.164 159.918C760.38 159.918 758.362 160.465 756.109 161.559L755.113 159.078C756.168 158.505 757.32 158.056 758.57 157.73C759.833 157.405 761.096 157.242 762.359 157.242C764.911 157.242 766.799 157.809 768.023 158.941C769.26 160.074 769.879 161.891 769.879 164.391V179H767.477ZM760.152 176.715C762.171 176.715 763.753 176.161 764.898 175.055C766.057 173.948 766.637 172.398 766.637 170.406V168.473L763.395 168.609C760.816 168.701 758.954 169.104 757.809 169.82C756.676 170.523 756.109 171.624 756.109 173.121C756.109 174.293 756.461 175.185 757.164 175.797C757.88 176.409 758.876 176.715 760.152 176.715Z" fill="white"/>
<path d="M55.1523 592.004C52.0143 592.004 49.5339 593.052 47.7109 595.148C45.901 597.232 44.9961 600.09 44.9961 603.723C44.9961 607.46 45.8685 610.35 47.6133 612.395C49.3711 614.426 51.8711 615.441 55.1133 615.441C57.1055 615.441 59.3776 615.083 61.9297 614.367V617.277C59.9505 618.02 57.5091 618.391 54.6055 618.391C50.3997 618.391 47.151 617.115 44.8594 614.562C42.5807 612.01 41.4414 608.384 41.4414 603.684C41.4414 600.741 41.9883 598.163 43.082 595.949C44.1888 593.736 45.7773 592.03 47.8477 590.832C49.931 589.634 52.3789 589.035 55.1914 589.035C58.1862 589.035 60.8034 589.582 63.043 590.676L61.6367 593.527C59.4753 592.512 57.3138 592.004 55.1523 592.004ZM82.1055 599.367H75.1523V618H71.9102V599.367H65.0352V596.594H82.1055V599.367ZM99.5078 618L98.8633 614.953H98.707C97.6393 616.294 96.5716 617.206 95.5039 617.688C94.4492 618.156 93.1276 618.391 91.5391 618.391C89.4167 618.391 87.75 617.844 86.5391 616.75C85.3411 615.656 84.7422 614.1 84.7422 612.082C84.7422 607.759 88.1992 605.493 95.1133 605.285L98.7461 605.168V603.84C98.7461 602.16 98.3815 600.923 97.6523 600.129C96.9362 599.322 95.7839 598.918 94.1953 598.918C92.4115 598.918 90.3932 599.465 88.1406 600.559L87.1445 598.078C88.1992 597.505 89.3516 597.056 90.6016 596.73C91.8646 596.405 93.1276 596.242 94.3906 596.242C96.9427 596.242 98.8307 596.809 100.055 597.941C101.292 599.074 101.91 600.891 101.91 603.391V618H99.5078ZM92.1836 615.715C94.2018 615.715 95.7839 615.161 96.9297 614.055C98.0885 612.948 98.668 611.398 98.668 609.406V607.473L95.4258 607.609C92.8477 607.701 90.9857 608.104 89.8398 608.82C88.707 609.523 88.1406 610.624 88.1406 612.121C88.1406 613.293 88.4922 614.185 89.1953 614.797C89.9115 615.409 90.9076 615.715 92.1836 615.715ZM118.57 618.391C117.177 618.391 115.901 618.137 114.742 617.629C113.596 617.108 112.633 616.314 111.852 615.246H111.617C111.773 616.496 111.852 617.681 111.852 618.801V627.609H108.609V596.594H111.246L111.695 599.523H111.852C112.685 598.352 113.655 597.505 114.762 596.984C115.868 596.464 117.138 596.203 118.57 596.203C121.409 596.203 123.596 597.173 125.133 599.113C126.682 601.053 127.457 603.775 127.457 607.277C127.457 610.793 126.669 613.527 125.094 615.48C123.531 617.421 121.357 618.391 118.57 618.391ZM118.102 598.957C115.914 598.957 114.332 599.562 113.355 600.773C112.379 601.984 111.878 603.911 111.852 606.555V607.277C111.852 610.285 112.353 612.44 113.355 613.742C114.358 615.031 115.966 615.676 118.18 615.676C120.029 615.676 121.474 614.927 122.516 613.43C123.57 611.932 124.098 609.868 124.098 607.238C124.098 604.569 123.57 602.525 122.516 601.105C121.474 599.673 120.003 598.957 118.102 598.957ZM149.098 615.207H158.59V596.594H161.871V618H133.141V596.594H136.383V615.207H145.855V596.594H149.098V615.207ZM177.809 618.391C174.645 618.391 172.145 617.427 170.309 615.5C168.486 613.573 167.574 610.897 167.574 607.473C167.574 604.022 168.421 601.281 170.113 599.25C171.819 597.219 174.104 596.203 176.969 596.203C179.651 596.203 181.773 597.089 183.336 598.859C184.898 600.617 185.68 602.941 185.68 605.832V607.883H170.934C170.999 610.396 171.63 612.303 172.828 613.605C174.039 614.908 175.738 615.559 177.926 615.559C180.23 615.559 182.509 615.077 184.762 614.113V617.004C183.616 617.499 182.529 617.85 181.5 618.059C180.484 618.28 179.254 618.391 177.809 618.391ZM176.93 598.918C175.211 598.918 173.837 599.478 172.809 600.598C171.793 601.717 171.194 603.267 171.012 605.246H182.203C182.203 603.202 181.747 601.639 180.836 600.559C179.924 599.465 178.622 598.918 176.93 598.918ZM216.051 599.367H209.098V618H205.855V599.367H198.98V596.594H216.051V599.367ZM230.25 618.391C228.857 618.391 227.581 618.137 226.422 617.629C225.276 617.108 224.312 616.314 223.531 615.246H223.297C223.453 616.496 223.531 617.681 223.531 618.801V627.609H220.289V596.594H222.926L223.375 599.523H223.531C224.365 598.352 225.335 597.505 226.441 596.984C227.548 596.464 228.818 596.203 230.25 596.203C233.089 596.203 235.276 597.173 236.812 599.113C238.362 601.053 239.137 603.775 239.137 607.277C239.137 610.793 238.349 613.527 236.773 615.48C235.211 617.421 233.036 618.391 230.25 618.391ZM229.781 598.957C227.594 598.957 226.012 599.562 225.035 600.773C224.059 601.984 223.557 603.911 223.531 606.555V607.277C223.531 610.285 224.033 612.44 225.035 613.742C226.038 615.031 227.646 615.676 229.859 615.676C231.708 615.676 233.154 614.927 234.195 613.43C235.25 611.932 235.777 609.868 235.777 607.238C235.777 604.569 235.25 602.525 234.195 601.105C233.154 599.673 231.682 598.957 229.781 598.957ZM241.422 596.594H244.898L249.586 608.801C250.615 611.587 251.253 613.599 251.5 614.836H251.656C251.826 614.172 252.177 613.039 252.711 611.438C253.258 609.823 255.029 604.875 258.023 596.594H261.5L252.301 620.969C251.389 623.378 250.322 625.083 249.098 626.086C247.887 627.102 246.396 627.609 244.625 627.609C243.635 627.609 242.659 627.499 241.695 627.277V624.68C242.411 624.836 243.212 624.914 244.098 624.914C246.324 624.914 247.913 623.664 248.863 621.164L250.055 618.117L241.422 596.594ZM283.57 625.402H280.426V618H265.465V625.402H262.34V615.207H264.02C265.764 612.837 267.132 610.057 268.121 606.867C269.111 603.677 269.625 600.253 269.664 596.594H280.504V615.207H283.57V625.402ZM277.379 615.207V599.152H272.574C272.405 602.043 271.845 604.973 270.895 607.941C269.957 610.897 268.785 613.319 267.379 615.207H277.379ZM306.344 607.277C306.344 610.767 305.465 613.495 303.707 615.461C301.949 617.414 299.521 618.391 296.422 618.391C294.508 618.391 292.809 617.941 291.324 617.043C289.84 616.145 288.694 614.855 287.887 613.176C287.079 611.496 286.676 609.53 286.676 607.277C286.676 603.788 287.548 601.073 289.293 599.133C291.038 597.18 293.46 596.203 296.559 596.203C299.553 596.203 301.93 597.199 303.688 599.191C305.458 601.184 306.344 603.879 306.344 607.277ZM290.035 607.277C290.035 610.012 290.582 612.095 291.676 613.527C292.77 614.96 294.378 615.676 296.5 615.676C298.622 615.676 300.23 614.966 301.324 613.547C302.431 612.115 302.984 610.025 302.984 607.277C302.984 604.556 302.431 602.492 301.324 601.086C300.23 599.667 298.609 598.957 296.461 598.957C294.339 598.957 292.737 599.654 291.656 601.047C290.576 602.44 290.035 604.517 290.035 607.277ZM320.602 618.391C317.503 618.391 315.1 617.44 313.395 615.539C311.702 613.625 310.855 610.923 310.855 607.434C310.855 603.853 311.715 601.086 313.434 599.133C315.165 597.18 317.626 596.203 320.816 596.203C321.845 596.203 322.874 596.314 323.902 596.535C324.931 596.757 325.738 597.017 326.324 597.316L325.328 600.07C324.612 599.784 323.831 599.549 322.984 599.367C322.138 599.172 321.389 599.074 320.738 599.074C316.389 599.074 314.215 601.848 314.215 607.395C314.215 610.025 314.742 612.043 315.797 613.449C316.865 614.855 318.44 615.559 320.523 615.559C322.307 615.559 324.137 615.174 326.012 614.406V617.277C324.579 618.02 322.776 618.391 320.602 618.391ZM334.352 618H331.109V596.594H349.078V618H345.797V599.406H334.352V618ZM374.43 607.277C374.43 610.767 373.551 613.495 371.793 615.461C370.035 617.414 367.607 618.391 364.508 618.391C362.594 618.391 360.895 617.941 359.41 617.043C357.926 616.145 356.78 614.855 355.973 613.176C355.165 611.496 354.762 609.53 354.762 607.277C354.762 603.788 355.634 601.073 357.379 599.133C359.124 597.18 361.546 596.203 364.645 596.203C367.639 596.203 370.016 597.199 371.773 599.191C373.544 601.184 374.43 603.879 374.43 607.277ZM358.121 607.277C358.121 610.012 358.668 612.095 359.762 613.527C360.855 614.96 362.464 615.676 364.586 615.676C366.708 615.676 368.316 614.966 369.41 613.547C370.517 612.115 371.07 610.025 371.07 607.277C371.07 604.556 370.517 602.492 369.41 601.086C368.316 599.667 366.695 598.957 364.547 598.957C362.424 598.957 360.823 599.654 359.742 601.047C358.661 602.44 358.121 604.517 358.121 607.277ZM388.688 618.391C385.589 618.391 383.186 617.44 381.48 615.539C379.788 613.625 378.941 610.923 378.941 607.434C378.941 603.853 379.801 601.086 381.52 599.133C383.251 597.18 385.712 596.203 388.902 596.203C389.931 596.203 390.96 596.314 391.988 596.535C393.017 596.757 393.824 597.017 394.41 597.316L393.414 600.07C392.698 599.784 391.917 599.549 391.07 599.367C390.224 599.172 389.475 599.074 388.824 599.074C384.475 599.074 382.301 601.848 382.301 607.395C382.301 610.025 382.828 612.043 383.883 613.449C384.951 614.855 386.526 615.559 388.609 615.559C390.393 615.559 392.223 615.174 394.098 614.406V617.277C392.665 618.02 390.862 618.391 388.688 618.391ZM417.672 607.277C417.672 610.767 416.793 613.495 415.035 615.461C413.277 617.414 410.849 618.391 407.75 618.391C405.836 618.391 404.137 617.941 402.652 617.043C401.168 616.145 400.022 614.855 399.215 613.176C398.408 611.496 398.004 609.53 398.004 607.277C398.004 603.788 398.876 601.073 400.621 599.133C402.366 597.18 404.788 596.203 407.887 596.203C410.882 596.203 413.258 597.199 415.016 599.191C416.786 601.184 417.672 603.879 417.672 607.277ZM401.363 607.277C401.363 610.012 401.91 612.095 403.004 613.527C404.098 614.96 405.706 615.676 407.828 615.676C409.951 615.676 411.559 614.966 412.652 613.547C413.759 612.115 414.312 610.025 414.312 607.277C414.312 604.556 413.759 602.492 412.652 601.086C411.559 599.667 409.938 598.957 407.789 598.957C405.667 598.957 404.065 599.654 402.984 601.047C401.904 602.44 401.363 604.517 401.363 607.277ZM422.262 605.168C422.262 600.48 422.952 596.828 424.332 594.211C425.712 591.581 427.9 589.94 430.895 589.289C434.618 588.495 437.9 587.85 440.738 587.355L441.344 590.207C436.826 590.962 433.596 591.561 431.656 592.004C429.768 592.434 428.349 593.449 427.398 595.051C426.461 596.652 425.947 598.833 425.855 601.594H426.09C426.897 600.5 427.939 599.641 429.215 599.016C430.491 598.391 431.826 598.078 433.219 598.078C435.849 598.078 437.9 598.931 439.371 600.637C440.842 602.342 441.578 604.706 441.578 607.727C441.578 611.073 440.725 613.69 439.02 615.578C437.314 617.453 434.938 618.391 431.891 618.391C428.883 618.391 426.526 617.238 424.82 614.934C423.115 612.629 422.262 609.374 422.262 605.168ZM432.184 615.676C436.155 615.676 438.141 613.143 438.141 608.078C438.141 603.247 436.337 600.832 432.73 600.832C431.741 600.832 430.784 601.04 429.859 601.457C428.948 601.861 428.108 602.401 427.34 603.078C426.585 603.755 425.999 604.452 425.582 605.168C425.582 608.592 426.122 611.203 427.203 613C428.284 614.784 429.944 615.676 432.184 615.676ZM450.484 596.594V605.559H462.477V596.594H465.719V618H462.477V608.352H450.484V618H447.242V596.594H450.484ZM491.07 607.277C491.07 610.767 490.191 613.495 488.434 615.461C486.676 617.414 484.247 618.391 481.148 618.391C479.234 618.391 477.535 617.941 476.051 617.043C474.566 616.145 473.421 614.855 472.613 613.176C471.806 611.496 471.402 609.53 471.402 607.277C471.402 603.788 472.275 601.073 474.02 599.133C475.764 597.18 478.186 596.203 481.285 596.203C484.28 596.203 486.656 597.199 488.414 599.191C490.185 601.184 491.07 603.879 491.07 607.277ZM474.762 607.277C474.762 610.012 475.309 612.095 476.402 613.527C477.496 614.96 479.104 615.676 481.227 615.676C483.349 615.676 484.957 614.966 486.051 613.547C487.158 612.115 487.711 610.025 487.711 607.277C487.711 604.556 487.158 602.492 486.051 601.086C484.957 599.667 483.336 598.957 481.188 598.957C479.065 598.957 477.464 599.654 476.383 601.047C475.302 602.44 474.762 604.517 474.762 607.277ZM509.664 599.367H500.016V618H496.773V596.594H509.664V599.367ZM532.398 607.277C532.398 610.767 531.52 613.495 529.762 615.461C528.004 617.414 525.576 618.391 522.477 618.391C520.562 618.391 518.863 617.941 517.379 617.043C515.895 616.145 514.749 614.855 513.941 613.176C513.134 611.496 512.73 609.53 512.73 607.277C512.73 603.788 513.603 601.073 515.348 599.133C517.092 597.18 519.514 596.203 522.613 596.203C525.608 596.203 527.984 597.199 529.742 599.191C531.513 601.184 532.398 603.879 532.398 607.277ZM516.09 607.277C516.09 610.012 516.637 612.095 517.73 613.527C518.824 614.96 520.432 615.676 522.555 615.676C524.677 615.676 526.285 614.966 527.379 613.547C528.486 612.115 529.039 610.025 529.039 607.277C529.039 604.556 528.486 602.492 527.379 601.086C526.285 599.667 524.664 598.957 522.516 598.957C520.393 598.957 518.792 599.654 517.711 601.047C516.63 602.44 516.09 604.517 516.09 607.277ZM551.734 596.594V605.559H563.727V596.594H566.969V618H563.727V608.352H551.734V618H548.492V596.594H551.734ZM587.008 618L586.363 614.953H586.207C585.139 616.294 584.072 617.206 583.004 617.688C581.949 618.156 580.628 618.391 579.039 618.391C576.917 618.391 575.25 617.844 574.039 616.75C572.841 615.656 572.242 614.1 572.242 612.082C572.242 607.759 575.699 605.493 582.613 605.285L586.246 605.168V603.84C586.246 602.16 585.882 600.923 585.152 600.129C584.436 599.322 583.284 598.918 581.695 598.918C579.911 598.918 577.893 599.465 575.641 600.559L574.645 598.078C575.699 597.505 576.852 597.056 578.102 596.73C579.365 596.405 580.628 596.242 581.891 596.242C584.443 596.242 586.331 596.809 587.555 597.941C588.792 599.074 589.41 600.891 589.41 603.391V618H587.008ZM579.684 615.715C581.702 615.715 583.284 615.161 584.43 614.055C585.589 612.948 586.168 611.398 586.168 609.406V607.473L582.926 607.609C580.348 607.701 578.486 608.104 577.34 608.82C576.207 609.523 575.641 610.624 575.641 612.121C575.641 613.293 575.992 614.185 576.695 614.797C577.411 615.409 578.408 615.715 579.684 615.715ZM604.664 618.391C601.565 618.391 599.163 617.44 597.457 615.539C595.764 613.625 594.918 610.923 594.918 607.434C594.918 603.853 595.777 601.086 597.496 599.133C599.228 597.18 601.689 596.203 604.879 596.203C605.908 596.203 606.936 596.314 607.965 596.535C608.993 596.757 609.801 597.017 610.387 597.316L609.391 600.07C608.674 599.784 607.893 599.549 607.047 599.367C606.201 599.172 605.452 599.074 604.801 599.074C600.452 599.074 598.277 601.848 598.277 607.395C598.277 610.025 598.805 612.043 599.859 613.449C600.927 614.855 602.503 615.559 604.586 615.559C606.37 615.559 608.199 615.174 610.074 614.406V617.277C608.642 618.02 606.839 618.391 604.664 618.391ZM624.215 618.391C621.051 618.391 618.551 617.427 616.715 615.5C614.892 613.573 613.98 610.897 613.98 607.473C613.98 604.022 614.827 601.281 616.52 599.25C618.225 597.219 620.51 596.203 623.375 596.203C626.057 596.203 628.18 597.089 629.742 598.859C631.305 600.617 632.086 602.941 632.086 605.832V607.883H617.34C617.405 610.396 618.036 612.303 619.234 613.605C620.445 614.908 622.145 615.559 624.332 615.559C626.637 615.559 628.915 615.077 631.168 614.113V617.004C630.022 617.499 628.935 617.85 627.906 618.059C626.891 618.28 625.66 618.391 624.215 618.391ZM623.336 598.918C621.617 598.918 620.243 599.478 619.215 600.598C618.199 601.717 617.6 603.267 617.418 605.246H628.609C628.609 603.202 628.154 601.639 627.242 600.559C626.331 599.465 625.029 598.918 623.336 598.918ZM653.59 618H650.309V599.367H643.883C643.531 604.003 643.043 607.681 642.418 610.402C641.793 613.124 640.979 615.116 639.977 616.379C638.987 617.642 637.724 618.273 636.188 618.273C635.484 618.273 634.924 618.195 634.508 618.039V615.637C634.794 615.715 635.12 615.754 635.484 615.754C636.982 615.754 638.173 614.172 639.059 611.008C639.944 607.844 640.615 603.039 641.07 596.594H653.59V618ZM669.527 618.391C666.363 618.391 663.863 617.427 662.027 615.5C660.204 613.573 659.293 610.897 659.293 607.473C659.293 604.022 660.139 601.281 661.832 599.25C663.538 597.219 665.823 596.203 668.688 596.203C671.37 596.203 673.492 597.089 675.055 598.859C676.617 600.617 677.398 602.941 677.398 605.832V607.883H662.652C662.717 610.396 663.349 612.303 664.547 613.605C665.758 614.908 667.457 615.559 669.645 615.559C671.949 615.559 674.228 615.077 676.48 614.113V617.004C675.335 617.499 674.247 617.85 673.219 618.059C672.203 618.28 670.973 618.391 669.527 618.391ZM668.648 598.918C666.93 598.918 665.556 599.478 664.527 600.598C663.512 601.717 662.913 603.267 662.73 605.246H673.922C673.922 603.202 673.466 601.639 672.555 600.559C671.643 599.465 670.341 598.918 668.648 598.918ZM686.188 596.594V605.559H698.18V596.594H701.422V618H698.18V608.352H686.188V618H682.945V596.594H686.188ZM711.344 596.594V610.168L711.207 613.723L711.148 614.836L722.73 596.594H726.773V618H723.746V604.914L723.805 602.336L723.902 599.797L712.34 618H708.297V596.594H711.344ZM734.723 618H730.934L737.086 608.957C735.432 608.592 734.163 607.889 733.277 606.848C732.405 605.793 731.969 604.471 731.969 602.883C731.969 600.93 732.626 599.393 733.941 598.273C735.257 597.154 737.092 596.594 739.449 596.594H748.98V618H745.738V609.445H740.328L734.723 618ZM735.133 602.922C735.133 605.396 736.93 606.633 740.523 606.633H745.738V599.406H739.859C736.708 599.406 735.133 600.578 735.133 602.922ZM759.273 613.352L759.566 613.801C759.228 615.103 758.74 616.613 758.102 618.332C757.464 620.064 756.799 621.672 756.109 623.156H753.668C754.02 621.802 754.404 620.129 754.82 618.137C755.25 616.145 755.549 614.549 755.719 613.352H759.273ZM794.547 607.277C794.547 610.767 793.668 613.495 791.91 615.461C790.152 617.414 787.724 618.391 784.625 618.391C782.711 618.391 781.012 617.941 779.527 617.043C778.043 616.145 776.897 614.855 776.09 613.176C775.283 611.496 774.879 609.53 774.879 607.277C774.879 603.788 775.751 601.073 777.496 599.133C779.241 597.18 781.663 596.203 784.762 596.203C787.757 596.203 790.133 597.199 791.891 599.191C793.661 601.184 794.547 603.879 794.547 607.277ZM778.238 607.277C778.238 610.012 778.785 612.095 779.879 613.527C780.973 614.96 782.581 615.676 784.703 615.676C786.826 615.676 788.434 614.966 789.527 613.547C790.634 612.115 791.188 610.025 791.188 607.277C791.188 604.556 790.634 602.492 789.527 601.086C788.434 599.667 786.812 598.957 784.664 598.957C782.542 598.957 780.94 599.654 779.859 601.047C778.779 602.44 778.238 604.517 778.238 607.277ZM799.137 605.168C799.137 600.48 799.827 596.828 801.207 594.211C802.587 591.581 804.775 589.94 807.77 589.289C811.493 588.495 814.775 587.85 817.613 587.355L818.219 590.207C813.701 590.962 810.471 591.561 808.531 592.004C806.643 592.434 805.224 593.449 804.273 595.051C803.336 596.652 802.822 598.833 802.73 601.594H802.965C803.772 600.5 804.814 599.641 806.09 599.016C807.366 598.391 808.701 598.078 810.094 598.078C812.724 598.078 814.775 598.931 816.246 600.637C817.717 602.342 818.453 604.706 818.453 607.727C818.453 611.073 817.6 613.69 815.895 615.578C814.189 617.453 811.812 618.391 808.766 618.391C805.758 618.391 803.401 617.238 801.695 614.934C799.99 612.629 799.137 609.374 799.137 605.168ZM809.059 615.676C813.03 615.676 815.016 613.143 815.016 608.078C815.016 603.247 813.212 600.832 809.605 600.832C808.616 600.832 807.659 601.04 806.734 601.457C805.823 601.861 804.983 602.401 804.215 603.078C803.46 603.755 802.874 604.452 802.457 605.168C802.457 608.592 802.997 611.203 804.078 613C805.159 614.784 806.819 615.676 809.059 615.676ZM837.281 618L836.637 614.953H836.48C835.413 616.294 834.345 617.206 833.277 617.688C832.223 618.156 830.901 618.391 829.312 618.391C827.19 618.391 825.523 617.844 824.312 616.75C823.115 615.656 822.516 614.1 822.516 612.082C822.516 607.759 825.973 605.493 832.887 605.285L836.52 605.168V603.84C836.52 602.16 836.155 600.923 835.426 600.129C834.71 599.322 833.557 598.918 831.969 598.918C830.185 598.918 828.167 599.465 825.914 600.559L824.918 598.078C825.973 597.505 827.125 597.056 828.375 596.73C829.638 596.405 830.901 596.242 832.164 596.242C834.716 596.242 836.604 596.809 837.828 597.941C839.065 599.074 839.684 600.891 839.684 603.391V618H837.281ZM829.957 615.715C831.975 615.715 833.557 615.161 834.703 614.055C835.862 612.948 836.441 611.398 836.441 609.406V607.473L833.199 607.609C830.621 607.701 828.759 608.104 827.613 608.82C826.48 609.523 825.914 610.624 825.914 612.121C825.914 613.293 826.266 614.185 826.969 614.797C827.685 615.409 828.681 615.715 829.957 615.715ZM860.016 618H856.773V596.594H874.742V618H871.461V599.406H860.016V618ZM900.094 607.277C900.094 610.767 899.215 613.495 897.457 615.461C895.699 617.414 893.271 618.391 890.172 618.391C888.258 618.391 886.559 617.941 885.074 617.043C883.59 616.145 882.444 614.855 881.637 613.176C880.829 611.496 880.426 609.53 880.426 607.277C880.426 603.788 881.298 601.073 883.043 599.133C884.788 597.18 887.21 596.203 890.309 596.203C893.303 596.203 895.68 597.199 897.438 599.191C899.208 601.184 900.094 603.879 900.094 607.277ZM883.785 607.277C883.785 610.012 884.332 612.095 885.426 613.527C886.52 614.96 888.128 615.676 890.25 615.676C892.372 615.676 893.98 614.966 895.074 613.547C896.181 612.115 896.734 610.025 896.734 607.277C896.734 604.556 896.181 602.492 895.074 601.086C893.98 599.667 892.359 598.957 890.211 598.957C888.089 598.957 886.487 599.654 885.406 601.047C884.326 602.44 883.785 604.517 883.785 607.277ZM921.754 618H918.473V599.367H912.047C911.695 604.003 911.207 607.681 910.582 610.402C909.957 613.124 909.143 615.116 908.141 616.379C907.151 617.642 905.888 618.273 904.352 618.273C903.648 618.273 903.089 618.195 902.672 618.039V615.637C902.958 615.715 903.284 615.754 903.648 615.754C905.146 615.754 906.337 614.172 907.223 611.008C908.108 607.844 908.779 603.039 909.234 596.594H921.754V618ZM941.812 618L941.168 614.953H941.012C939.944 616.294 938.876 617.206 937.809 617.688C936.754 618.156 935.432 618.391 933.844 618.391C931.721 618.391 930.055 617.844 928.844 616.75C927.646 615.656 927.047 614.1 927.047 612.082C927.047 607.759 930.504 605.493 937.418 605.285L941.051 605.168V603.84C941.051 602.16 940.686 600.923 939.957 600.129C939.241 599.322 938.089 598.918 936.5 598.918C934.716 598.918 932.698 599.465 930.445 600.559L929.449 598.078C930.504 597.505 931.656 597.056 932.906 596.73C934.169 596.405 935.432 596.242 936.695 596.242C939.247 596.242 941.135 596.809 942.359 597.941C943.596 599.074 944.215 600.891 944.215 603.391V618H941.812ZM934.488 615.715C936.507 615.715 938.089 615.161 939.234 614.055C940.393 612.948 940.973 611.398 940.973 609.406V607.473L937.73 607.609C935.152 607.701 933.29 608.104 932.145 608.82C931.012 609.523 930.445 610.624 930.445 612.121C930.445 613.293 930.797 614.185 931.5 614.797C932.216 615.409 933.212 615.715 934.488 615.715Z" fill="white"/>
<path d="M26.9531 74H2.00195V68.751L10.9619 59.6934C13.6149 56.9753 15.3483 55.0954 16.1621 54.0537C16.9759 52.9958 17.5618 52.0192 17.9199 51.124C18.278 50.2288 18.457 49.3011 18.457 48.3408C18.457 46.9085 18.0583 45.8424 17.2607 45.1426C16.4795 44.4427 15.4297 44.0928 14.1113 44.0928C12.7279 44.0928 11.3851 44.4102 10.083 45.0449C8.78092 45.6797 7.42188 46.583 6.00586 47.7549L1.9043 42.8965C3.66211 41.3991 5.11882 40.3411 6.27441 39.7227C7.43001 39.1042 8.69141 38.6322 10.0586 38.3066C11.4258 37.9648 12.9557 37.7939 14.6484 37.7939C16.8783 37.7939 18.8477 38.2008 20.5566 39.0146C22.2656 39.8285 23.5921 40.9678 24.5361 42.4326C25.4801 43.8975 25.9521 45.5739 25.9521 47.4619C25.9521 49.1058 25.6592 50.652 25.0732 52.1006C24.5036 53.5329 23.6084 55.0059 22.3877 56.5195C21.1833 58.0332 19.0511 60.1898 15.9912 62.9893L11.4014 67.3105V67.6523H26.9531V74ZM55.3223 56.1533C55.3223 62.387 54.2969 67.0013 52.2461 69.9961C50.2116 72.9909 47.0703 74.4883 42.8223 74.4883C38.7044 74.4883 35.5957 72.9421 33.4961 69.8496C31.4128 66.7572 30.3711 62.1917 30.3711 56.1533C30.3711 49.8545 31.3883 45.2158 33.4229 42.2373C35.4574 39.2425 38.5905 37.7451 42.8223 37.7451C46.9401 37.7451 50.0488 39.3076 52.1484 42.4326C54.2643 45.5576 55.3223 50.1312 55.3223 56.1533ZM37.8662 56.1533C37.8662 60.5316 38.2406 63.6729 38.9893 65.5771C39.7542 67.4652 41.0319 68.4092 42.8223 68.4092C44.5801 68.4092 45.8496 67.4489 46.6309 65.5283C47.4121 63.6077 47.8027 60.4827 47.8027 56.1533C47.8027 51.7751 47.404 48.6338 46.6064 46.7295C45.8252 44.8089 44.5638 43.8486 42.8223 43.8486C41.0482 43.8486 39.7786 44.8089 39.0137 46.7295C38.2487 48.6338 37.8662 51.7751 37.8662 56.1533ZM77.7832 74H70.2393V53.3457L70.3125 49.9521L70.4346 46.2412C69.1813 47.4945 68.3105 48.3164 67.8223 48.707L63.7207 52.0029L60.083 47.4619L71.582 38.3066H77.7832V74ZM100 37.8428C103.418 37.8428 106.169 38.624 108.252 40.1865C110.352 41.7327 111.401 43.8242 111.401 46.4609C111.401 48.2839 110.897 49.9115 109.888 51.3438C108.879 52.7598 107.251 54.0293 105.005 55.1523C107.674 56.5846 109.587 58.082 110.742 59.6445C111.914 61.1908 112.5 62.8916 112.5 64.7471C112.5 67.6768 111.353 70.0368 109.058 71.8271C106.763 73.6012 103.743 74.4883 100 74.4883C96.0938 74.4883 93.0257 73.6582 90.7959 71.998C88.5661 70.3379 87.4512 67.986 87.4512 64.9424C87.4512 62.9079 87.9883 61.1012 89.0625 59.5225C90.153 57.9437 91.8945 56.5521 94.2871 55.3477C92.2526 54.0618 90.7878 52.6865 89.8926 51.2217C88.9974 49.7568 88.5498 48.1536 88.5498 46.4121C88.5498 43.8568 89.6077 41.7897 91.7236 40.2109C93.8395 38.6322 96.5983 37.8428 100 37.8428ZM94.4336 64.5029C94.4336 65.9027 94.9219 66.9932 95.8984 67.7744C96.875 68.5557 98.2096 68.9463 99.9023 68.9463C101.774 68.9463 103.174 68.5475 104.102 67.75C105.029 66.9362 105.493 65.8701 105.493 64.5518C105.493 63.4613 105.029 62.444 104.102 61.5C103.19 60.5397 101.701 59.5225 99.6338 58.4482C96.167 60.0433 94.4336 62.0615 94.4336 64.5029ZM99.9512 43.3604C98.6654 43.3604 97.6237 43.694 96.8262 44.3613C96.0449 45.0124 95.6543 45.8913 95.6543 46.998C95.6543 47.9746 95.9635 48.8535 96.582 49.6348C97.2168 50.3997 98.3561 51.1891 100 52.0029C101.595 51.2542 102.71 50.4893 103.345 49.708C103.979 48.9268 104.297 48.0234 104.297 46.998C104.297 45.875 103.89 44.988 103.076 44.3369C102.262 43.6859 101.221 43.3604 99.9512 43.3604Z" fill="white"/>
<path d="M671.953 74H647.002V68.751L655.962 59.6934C658.615 56.9753 660.348 55.0954 661.162 54.0537C661.976 52.9958 662.562 52.0192 662.92 51.124C663.278 50.2288 663.457 49.3011 663.457 48.3408C663.457 46.9085 663.058 45.8424 662.261 45.1426C661.479 44.4427 660.43 44.0928 659.111 44.0928C657.728 44.0928 656.385 44.4102 655.083 45.0449C653.781 45.6797 652.422 46.583 651.006 47.7549L646.904 42.8965C648.662 41.3991 650.119 40.3411 651.274 39.7227C652.43 39.1042 653.691 38.6322 655.059 38.3066C656.426 37.9648 657.956 37.7939 659.648 37.7939C661.878 37.7939 663.848 38.2008 665.557 39.0146C667.266 39.8285 668.592 40.9678 669.536 42.4326C670.48 43.8975 670.952 45.5739 670.952 47.4619C670.952 49.1058 670.659 50.652 670.073 52.1006C669.504 53.5329 668.608 55.0059 667.388 56.5195C666.183 58.0332 664.051 60.1898 660.991 62.9893L656.401 67.3105V67.6523H671.953V74ZM700.322 56.1533C700.322 62.387 699.297 67.0013 697.246 69.9961C695.212 72.9909 692.07 74.4883 687.822 74.4883C683.704 74.4883 680.596 72.9421 678.496 69.8496C676.413 66.7572 675.371 62.1917 675.371 56.1533C675.371 49.8545 676.388 45.2158 678.423 42.2373C680.457 39.2425 683.59 37.7451 687.822 37.7451C691.94 37.7451 695.049 39.3076 697.148 42.4326C699.264 45.5576 700.322 50.1312 700.322 56.1533ZM682.866 56.1533C682.866 60.5316 683.241 63.6729 683.989 65.5771C684.754 67.4652 686.032 68.4092 687.822 68.4092C689.58 68.4092 690.85 67.4489 691.631 65.5283C692.412 63.6077 692.803 60.4827 692.803 56.1533C692.803 51.7751 692.404 48.6338 691.606 46.7295C690.825 44.8089 689.564 43.8486 687.822 43.8486C686.048 43.8486 684.779 44.8089 684.014 46.7295C683.249 48.6338 682.866 51.7751 682.866 56.1533ZM722.783 74H715.239V53.3457L715.312 49.9521L715.435 46.2412C714.181 47.4945 713.311 48.3164 712.822 48.707L708.721 52.0029L705.083 47.4619L716.582 38.3066H722.783V74ZM757.5 53.541C757.5 60.5723 756.019 65.8213 753.057 69.2881C750.094 72.7549 745.61 74.4883 739.604 74.4883C737.489 74.4883 735.885 74.3743 734.795 74.1465V68.0918C736.162 68.4336 737.594 68.6045 739.092 68.6045C741.615 68.6045 743.69 68.2383 745.317 67.5059C746.945 66.7572 748.19 65.5934 749.053 64.0146C749.915 62.4196 750.412 60.2305 750.542 57.4473H750.249C749.305 58.9772 748.215 60.0514 746.978 60.6699C745.741 61.2884 744.194 61.5977 742.339 61.5977C739.23 61.5977 736.781 60.6048 734.99 58.6191C733.2 56.6172 732.305 53.8421 732.305 50.2939C732.305 46.4691 733.387 43.4499 735.552 41.2363C737.733 39.0065 740.695 37.8916 744.438 37.8916C747.075 37.8916 749.378 38.5101 751.348 39.7471C753.333 40.984 754.855 42.7826 755.913 45.1426C756.971 47.4863 757.5 50.2858 757.5 53.541ZM744.585 43.9463C743.022 43.9463 741.802 44.4834 740.923 45.5576C740.044 46.6318 739.604 48.1781 739.604 50.1963C739.604 51.9215 740.003 53.2887 740.801 54.2979C741.598 55.307 742.811 55.8115 744.438 55.8115C745.968 55.8115 747.279 55.3151 748.369 54.3223C749.46 53.3132 750.005 52.1576 750.005 50.8555C750.005 48.9186 749.492 47.2829 748.467 45.9482C747.458 44.6136 746.164 43.9463 744.585 43.9463Z" fill="white"/>
<path d="M1316.95 74H1292V68.751L1300.96 59.6934C1303.61 56.9753 1305.35 55.0954 1306.16 54.0537C1306.98 52.9958 1307.56 52.0192 1307.92 51.124C1308.28 50.2288 1308.46 49.3011 1308.46 48.3408C1308.46 46.9085 1308.06 45.8424 1307.26 45.1426C1306.48 44.4427 1305.43 44.0928 1304.11 44.0928C1302.73 44.0928 1301.39 44.4102 1300.08 45.0449C1298.78 45.6797 1297.42 46.583 1296.01 47.7549L1291.9 42.8965C1293.66 41.3991 1295.12 40.3411 1296.27 39.7227C1297.43 39.1042 1298.69 38.6322 1300.06 38.3066C1301.43 37.9648 1302.96 37.7939 1304.65 37.7939C1306.88 37.7939 1308.85 38.2008 1310.56 39.0146C1312.27 39.8285 1313.59 40.9678 1314.54 42.4326C1315.48 43.8975 1315.95 45.5739 1315.95 47.4619C1315.95 49.1058 1315.66 50.652 1315.07 52.1006C1314.5 53.5329 1313.61 55.0059 1312.39 56.5195C1311.18 58.0332 1309.05 60.1898 1305.99 62.9893L1301.4 67.3105V67.6523H1316.95V74ZM1345.32 56.1533C1345.32 62.387 1344.3 67.0013 1342.25 69.9961C1340.21 72.9909 1337.07 74.4883 1332.82 74.4883C1328.7 74.4883 1325.6 72.9421 1323.5 69.8496C1321.41 66.7572 1320.37 62.1917 1320.37 56.1533C1320.37 49.8545 1321.39 45.2158 1323.42 42.2373C1325.46 39.2425 1328.59 37.7451 1332.82 37.7451C1336.94 37.7451 1340.05 39.3076 1342.15 42.4326C1344.26 45.5576 1345.32 50.1312 1345.32 56.1533ZM1327.87 56.1533C1327.87 60.5316 1328.24 63.6729 1328.99 65.5771C1329.75 67.4652 1331.03 68.4092 1332.82 68.4092C1334.58 68.4092 1335.85 67.4489 1336.63 65.5283C1337.41 63.6077 1337.8 60.4827 1337.8 56.1533C1337.8 51.7751 1337.4 48.6338 1336.61 46.7295C1335.83 44.8089 1334.56 43.8486 1332.82 43.8486C1331.05 43.8486 1329.78 44.8089 1329.01 46.7295C1328.25 48.6338 1327.87 51.7751 1327.87 56.1533ZM1374.08 74H1349.13V68.751L1358.09 59.6934C1360.74 56.9753 1362.48 55.0954 1363.29 54.0537C1364.1 52.9958 1364.69 52.0192 1365.05 51.124C1365.41 50.2288 1365.59 49.3011 1365.59 48.3408C1365.59 46.9085 1365.19 45.8424 1364.39 45.1426C1363.61 44.4427 1362.56 44.0928 1361.24 44.0928C1359.86 44.0928 1358.51 44.4102 1357.21 45.0449C1355.91 45.6797 1354.55 46.583 1353.13 47.7549L1349.03 42.8965C1350.79 41.3991 1352.25 40.3411 1353.4 39.7227C1354.56 39.1042 1355.82 38.6322 1357.19 38.3066C1358.55 37.9648 1360.08 37.7939 1361.78 37.7939C1364.01 37.7939 1365.98 38.2008 1367.69 39.0146C1369.39 39.8285 1370.72 40.9678 1371.67 42.4326C1372.61 43.8975 1373.08 45.5739 1373.08 47.4619C1373.08 49.1058 1372.79 50.652 1372.2 52.1006C1371.63 53.5329 1370.74 55.0059 1369.52 56.5195C1368.31 58.0332 1366.18 60.1898 1363.12 62.9893L1358.53 67.3105V67.6523H1374.08V74ZM1402.45 56.1533C1402.45 62.387 1401.43 67.0013 1399.38 69.9961C1397.34 72.9909 1394.2 74.4883 1389.95 74.4883C1385.83 74.4883 1382.72 72.9421 1380.62 69.8496C1378.54 66.7572 1377.5 62.1917 1377.5 56.1533C1377.5 49.8545 1378.52 45.2158 1380.55 42.2373C1382.59 39.2425 1385.72 37.7451 1389.95 37.7451C1394.07 37.7451 1397.18 39.3076 1399.28 42.4326C1401.39 45.5576 1402.45 50.1312 1402.45 56.1533ZM1385 56.1533C1385 60.5316 1385.37 63.6729 1386.12 65.5771C1386.88 67.4652 1388.16 68.4092 1389.95 68.4092C1391.71 68.4092 1392.98 67.4489 1393.76 65.5283C1394.54 63.6077 1394.93 60.4827 1394.93 56.1533C1394.93 51.7751 1394.53 48.6338 1393.74 46.7295C1392.95 44.8089 1391.69 43.8486 1389.95 43.8486C1388.18 43.8486 1386.91 44.8089 1386.14 46.7295C1385.38 48.6338 1385 51.7751 1385 56.1533Z" fill="white"/>
<path d="M59.2969 401H4.4043V389.452L24.1162 369.525C29.9528 363.546 33.7663 359.41 35.5566 357.118C37.347 354.791 38.6361 352.642 39.4238 350.673C40.2116 348.703 40.6055 346.662 40.6055 344.55C40.6055 341.399 39.7282 339.053 37.9736 337.514C36.2549 335.974 33.9453 335.204 31.0449 335.204C28.0013 335.204 25.0472 335.902 22.1826 337.299C19.318 338.695 16.3281 340.683 13.2129 343.261L4.18945 332.572C8.05664 329.278 11.2614 326.951 13.8037 325.59C16.346 324.229 19.1211 323.191 22.1289 322.475C25.1367 321.723 28.5026 321.347 32.2266 321.347C37.1322 321.347 41.4648 322.242 45.2246 324.032C48.9844 325.823 51.9027 328.329 53.9795 331.552C56.0563 334.774 57.0947 338.463 57.0947 342.616C57.0947 346.233 56.4502 349.634 55.1611 352.821C53.9079 355.972 51.9385 359.213 49.2529 362.543C46.6032 365.873 41.9124 370.618 35.1807 376.776L25.083 386.283V387.035H59.2969V401ZM150.713 401H95.8203V389.452L115.532 369.525C121.369 363.546 125.182 359.41 126.973 357.118C128.763 354.791 130.052 352.642 130.84 350.673C131.628 348.703 132.021 346.662 132.021 344.55C132.021 341.399 131.144 339.053 129.39 337.514C127.671 335.974 125.361 335.204 122.461 335.204C119.417 335.204 116.463 335.902 113.599 337.299C110.734 338.695 107.744 340.683 104.629 343.261L95.6055 332.572C99.4727 329.278 102.677 326.951 105.22 325.59C107.762 324.229 110.537 323.191 113.545 322.475C116.553 321.723 119.919 321.347 123.643 321.347C128.548 321.347 132.881 322.242 136.641 324.032C140.4 325.823 143.319 328.329 145.396 331.552C147.472 334.774 148.511 338.463 148.511 342.616C148.511 346.233 147.866 349.634 146.577 352.821C145.324 355.972 143.354 359.213 140.669 362.543C138.019 365.873 133.328 370.618 126.597 376.776L116.499 386.283V387.035H150.713V401ZM213.555 401H158.662V389.452L178.374 369.525C184.211 363.546 188.024 359.41 189.814 357.118C191.605 354.791 192.894 352.642 193.682 350.673C194.469 348.703 194.863 346.662 194.863 344.55C194.863 341.399 193.986 339.053 192.231 337.514C190.513 335.974 188.203 335.204 185.303 335.204C182.259 335.204 179.305 335.902 176.44 337.299C173.576 338.695 170.586 340.683 167.471 343.261L158.447 332.572C162.314 329.278 165.519 326.951 168.062 325.59C170.604 324.229 173.379 323.191 176.387 322.475C179.395 321.723 182.76 321.347 186.484 321.347C191.39 321.347 195.723 322.242 199.482 324.032C203.242 325.823 206.16 328.329 208.237 331.552C210.314 334.774 211.353 338.463 211.353 342.616C211.353 346.233 210.708 349.634 209.419 352.821C208.166 355.972 206.196 359.213 203.511 362.543C200.861 365.873 196.17 370.618 189.438 376.776L179.341 386.283V387.035H213.555V401ZM250.078 350.834C257.669 350.834 263.703 352.965 268.179 357.226C272.69 361.487 274.946 367.323 274.946 374.735C274.946 383.508 272.243 390.258 266.836 394.984C261.429 399.711 253.695 402.074 243.633 402.074C234.896 402.074 227.842 400.66 222.471 397.831V383.49C225.299 384.994 228.594 386.229 232.354 387.196C236.113 388.127 239.676 388.593 243.042 388.593C253.175 388.593 258.242 384.439 258.242 376.132C258.242 368.218 252.996 364.262 242.505 364.262C240.607 364.262 238.512 364.459 236.221 364.853C233.929 365.211 232.067 365.604 230.635 366.034L224.028 362.489L226.982 322.475H269.575V336.547H241.538L240.088 351.962L241.968 351.586C244.152 351.085 246.855 350.834 250.078 350.834ZM353.955 401H337.358V355.561L337.52 348.095L337.788 339.931C335.031 342.688 333.115 344.496 332.041 345.355L323.018 352.606L315.015 342.616L340.312 322.475H353.955V401ZM430.332 355.99C430.332 371.459 427.074 383.007 420.557 390.634C414.04 398.261 404.175 402.074 390.962 402.074C386.307 402.074 382.78 401.824 380.381 401.322V388.002C383.389 388.754 386.54 389.13 389.834 389.13C395.384 389.13 399.95 388.324 403.53 386.713C407.111 385.066 409.85 382.506 411.748 379.032C413.646 375.523 414.738 370.707 415.024 364.584H414.38C412.303 367.95 409.904 370.313 407.183 371.674C404.461 373.035 401.06 373.715 396.978 373.715C390.138 373.715 384.749 371.531 380.811 367.162C376.872 362.758 374.902 356.653 374.902 348.847C374.902 340.432 377.284 333.79 382.046 328.92C386.844 324.014 393.361 321.562 401.597 321.562C407.397 321.562 412.464 322.922 416.797 325.644C421.165 328.365 424.513 332.322 426.841 337.514C429.168 342.67 430.332 348.829 430.332 355.99ZM401.919 334.882C398.481 334.882 395.796 336.063 393.862 338.427C391.929 340.79 390.962 344.192 390.962 348.632C390.962 352.427 391.839 355.435 393.594 357.655C395.348 359.875 398.016 360.985 401.597 360.985C404.963 360.985 407.845 359.893 410.244 357.709C412.643 355.489 413.843 352.947 413.843 350.082C413.843 345.821 412.715 342.222 410.459 339.286C408.239 336.35 405.392 334.882 401.919 334.882ZM493.174 355.99C493.174 371.459 489.915 383.007 483.398 390.634C476.882 398.261 467.017 402.074 453.804 402.074C449.149 402.074 445.622 401.824 443.223 401.322V388.002C446.23 388.754 449.382 389.13 452.676 389.13C458.226 389.13 462.791 388.324 466.372 386.713C469.953 385.066 472.692 382.506 474.59 379.032C476.488 375.523 477.58 370.707 477.866 364.584H477.222C475.145 367.95 472.746 370.313 470.024 371.674C467.303 373.035 463.901 373.715 459.819 373.715C452.98 373.715 447.591 371.531 443.652 367.162C439.714 362.758 437.744 356.653 437.744 348.847C437.744 340.432 440.125 333.79 444.888 328.92C449.686 324.014 456.203 321.562 464.438 321.562C470.239 321.562 475.306 322.922 479.639 325.644C484.007 328.365 487.355 332.322 489.683 337.514C492.01 342.67 493.174 348.829 493.174 355.99ZM464.761 334.882C461.323 334.882 458.638 336.063 456.704 338.427C454.771 340.79 453.804 344.192 453.804 348.632C453.804 352.427 454.681 355.435 456.436 357.655C458.19 359.875 460.858 360.985 464.438 360.985C467.804 360.985 470.687 359.893 473.086 357.709C475.485 355.489 476.685 352.947 476.685 350.082C476.685 345.821 475.557 342.222 473.301 339.286C471.081 336.35 468.234 334.882 464.761 334.882Z" fill="#01F859"/>
<path d="M58.9746 794.99C58.9746 810.459 55.7161 822.007 49.1992 829.634C42.6823 837.261 32.8174 841.074 19.6045 841.074C14.9495 841.074 11.4225 840.824 9.02344 840.322V827.002C12.0312 827.754 15.1823 828.13 18.4766 828.13C24.0267 828.13 28.5921 827.324 32.1729 825.713C35.7536 824.066 38.4928 821.506 40.3906 818.032C42.2884 814.523 43.3805 809.707 43.667 803.584H43.0225C40.9456 806.95 38.5465 809.313 35.8252 810.674C33.1038 812.035 29.7021 812.715 25.6201 812.715C18.7809 812.715 13.3919 810.531 9.45312 806.162C5.51432 801.758 3.54492 795.653 3.54492 787.847C3.54492 779.432 5.92611 772.79 10.6885 767.92C15.4867 763.014 22.0036 760.562 30.2393 760.562C36.04 760.562 41.1068 761.922 45.4395 764.644C49.8079 767.365 53.1559 771.322 55.4834 776.514C57.8109 781.67 58.9746 787.829 58.9746 794.99ZM30.5615 773.882C27.124 773.882 24.4385 775.063 22.5049 777.427C20.5713 779.79 19.6045 783.192 19.6045 787.632C19.6045 791.427 20.4818 794.435 22.2363 796.655C23.9909 798.875 26.6585 799.985 30.2393 799.985C33.6051 799.985 36.4876 798.893 38.8867 796.709C41.2858 794.489 42.4854 791.947 42.4854 789.082C42.4854 784.821 41.3574 781.222 39.1016 778.286C36.8815 775.35 34.0348 773.882 30.5615 773.882ZM121.816 794.99C121.816 810.459 118.558 822.007 112.041 829.634C105.524 837.261 95.6592 841.074 82.4463 841.074C77.7913 841.074 74.2643 840.824 71.8652 840.322V827.002C74.873 827.754 78.0241 828.13 81.3184 828.13C86.8685 828.13 91.4339 827.324 95.0146 825.713C98.5954 824.066 101.335 821.506 103.232 818.032C105.13 814.523 106.222 809.707 106.509 803.584H105.864C103.787 806.95 101.388 809.313 98.667 810.674C95.9456 812.035 92.5439 812.715 88.4619 812.715C81.6227 812.715 76.2337 810.531 72.2949 806.162C68.3561 801.758 66.3867 795.653 66.3867 787.847C66.3867 779.432 68.7679 772.79 73.5303 767.92C78.3285 763.014 84.8454 760.562 93.0811 760.562C98.8818 760.562 103.949 761.922 108.281 764.644C112.65 767.365 115.998 771.322 118.325 776.514C120.653 781.67 121.816 787.829 121.816 794.99ZM93.4033 773.882C89.9658 773.882 87.2803 775.063 85.3467 777.427C83.4131 779.79 82.4463 783.192 82.4463 787.632C82.4463 791.427 83.3236 794.435 85.0781 796.655C86.8327 798.875 89.5003 799.985 93.0811 799.985C96.4469 799.985 99.3294 798.893 101.729 796.709C104.128 794.489 105.327 791.947 105.327 789.082C105.327 784.821 104.199 781.222 101.943 778.286C99.7233 775.35 96.8766 773.882 93.4033 773.882ZM137.876 840L167.363 775.547H128.638V761.582H184.98V772.002L155.278 840H137.876ZM275.967 800.737C275.967 814.451 273.711 824.603 269.199 831.191C264.723 837.78 257.812 841.074 248.467 841.074C239.408 841.074 232.568 837.673 227.949 830.869C223.366 824.066 221.074 814.022 221.074 800.737C221.074 786.88 223.312 776.675 227.788 770.122C232.264 763.534 239.157 760.239 248.467 760.239C257.526 760.239 264.365 763.677 268.984 770.552C273.639 777.427 275.967 787.489 275.967 800.737ZM237.563 800.737C237.563 810.369 238.387 817.28 240.034 821.47C241.717 825.623 244.528 827.7 248.467 827.7C252.334 827.7 255.127 825.588 256.846 821.362C258.564 817.137 259.424 810.262 259.424 800.737C259.424 791.105 258.547 784.194 256.792 780.005C255.073 775.78 252.298 773.667 248.467 773.667C244.564 773.667 241.771 775.78 240.088 780.005C238.405 784.194 237.563 791.105 237.563 800.737ZM341.011 823.726H331.558V840H315.337V823.726H281.821V812.178L316.25 761.475H331.558V810.835H341.011V823.726ZM315.337 810.835V797.515C315.337 795.295 315.426 792.072 315.605 787.847C315.785 783.621 315.928 781.169 316.035 780.488H315.605C314.281 783.424 312.687 786.289 310.825 789.082L296.431 810.835H315.337ZM346.65 806.646C346.65 791.105 349.927 779.539 356.479 771.948C363.068 764.357 372.915 760.562 386.021 760.562C390.496 760.562 394.006 760.83 396.548 761.367V774.634C393.361 773.918 390.21 773.56 387.095 773.56C381.401 773.56 376.746 774.419 373.13 776.138C369.549 777.856 366.864 780.399 365.073 783.765C363.283 787.131 362.227 791.911 361.904 798.105H362.603C366.147 792.018 371.823 788.975 379.629 788.975C386.647 788.975 392.144 791.177 396.118 795.581C400.093 799.985 402.08 806.073 402.08 813.843C402.08 822.222 399.717 828.864 394.99 833.77C390.264 838.639 383.711 841.074 375.332 841.074C369.531 841.074 364.465 839.731 360.132 837.046C355.835 834.36 352.505 830.439 350.142 825.283C347.814 820.127 346.65 813.914 346.65 806.646ZM375.01 827.808C378.555 827.808 381.276 826.626 383.174 824.263C385.072 821.864 386.021 818.462 386.021 814.058C386.021 810.226 385.125 807.218 383.335 805.034C381.58 802.814 378.913 801.704 375.332 801.704C371.966 801.704 369.084 802.796 366.685 804.98C364.321 807.165 363.14 809.707 363.14 812.607C363.14 816.868 364.25 820.467 366.47 823.403C368.726 826.34 371.572 827.808 375.01 827.808Z" fill="#FF0000"/>
<path d="M704.297 401H649.404V389.452L669.116 369.525C674.953 363.546 678.766 359.41 680.557 357.118C682.347 354.791 683.636 352.642 684.424 350.673C685.212 348.703 685.605 346.662 685.605 344.55C685.605 341.399 684.728 339.053 682.974 337.514C681.255 335.974 678.945 335.204 676.045 335.204C673.001 335.204 670.047 335.902 667.183 337.299C664.318 338.695 661.328 340.683 658.213 343.261L649.189 332.572C653.057 329.278 656.261 326.951 658.804 325.59C661.346 324.229 664.121 323.191 667.129 322.475C670.137 321.723 673.503 321.347 677.227 321.347C682.132 321.347 686.465 322.242 690.225 324.032C693.984 325.823 696.903 328.329 698.979 331.552C701.056 334.774 702.095 338.463 702.095 342.616C702.095 346.233 701.45 349.634 700.161 352.821C698.908 355.972 696.938 359.213 694.253 362.543C691.603 365.873 686.912 370.618 680.181 376.776L670.083 386.283V387.035H704.297V401ZM781.855 401H765.259V355.561L765.42 348.095L765.688 339.931C762.931 342.688 761.016 344.496 759.941 345.355L750.918 352.606L742.915 342.616L768.213 322.475H781.855V401ZM858.232 355.99C858.232 371.459 854.974 383.007 848.457 390.634C841.94 398.261 832.075 402.074 818.862 402.074C814.207 402.074 810.68 401.824 808.281 401.322V388.002C811.289 388.754 814.44 389.13 817.734 389.13C823.285 389.13 827.85 388.324 831.431 386.713C835.011 385.066 837.751 382.506 839.648 379.032C841.546 375.523 842.638 370.707 842.925 364.584H842.28C840.203 367.95 837.804 370.313 835.083 371.674C832.362 373.035 828.96 373.715 824.878 373.715C818.039 373.715 812.65 371.531 808.711 367.162C804.772 362.758 802.803 356.653 802.803 348.847C802.803 340.432 805.184 333.79 809.946 328.92C814.744 324.014 821.261 321.562 829.497 321.562C835.298 321.562 840.365 322.922 844.697 325.644C849.066 328.365 852.414 332.322 854.741 337.514C857.069 342.67 858.232 348.829 858.232 355.99ZM829.819 334.882C826.382 334.882 823.696 336.063 821.763 338.427C819.829 340.79 818.862 344.192 818.862 348.632C818.862 352.427 819.74 355.435 821.494 357.655C823.249 359.875 825.916 360.985 829.497 360.985C832.863 360.985 835.745 359.893 838.145 357.709C840.544 355.489 841.743 352.947 841.743 350.082C841.743 345.821 840.615 342.222 838.359 339.286C836.139 336.35 833.293 334.882 829.819 334.882ZM923.169 384.726H913.716V401H897.495V384.726H863.979V373.178L898.408 322.475H913.716V371.835H923.169V384.726ZM897.495 371.835V358.515C897.495 356.295 897.585 353.072 897.764 348.847C897.943 344.621 898.086 342.169 898.193 341.488H897.764C896.439 344.424 894.845 347.289 892.983 350.082L878.589 371.835H897.495ZM1014.58 384.726H1005.13V401H988.911V384.726H955.396V373.178L989.824 322.475H1005.13V371.835H1014.58V384.726ZM988.911 371.835V358.515C988.911 356.295 989.001 353.072 989.18 348.847C989.359 344.621 989.502 342.169 989.609 341.488H989.18C987.855 344.424 986.261 347.289 984.399 350.082L970.005 371.835H988.911ZM1072.59 340.038C1072.59 344.944 1071.11 349.115 1068.13 352.553C1065.16 355.99 1060.99 358.354 1055.62 359.643V359.965C1061.96 360.753 1066.76 362.686 1070.01 365.766C1073.27 368.809 1074.9 372.927 1074.9 378.119C1074.9 385.674 1072.16 391.565 1066.68 395.79C1061.21 399.979 1053.38 402.074 1043.21 402.074C1034.69 402.074 1027.14 400.66 1020.55 397.831V383.705C1023.59 385.245 1026.94 386.498 1030.59 387.465C1034.24 388.432 1037.86 388.915 1041.44 388.915C1046.92 388.915 1050.97 387.984 1053.58 386.122C1056.19 384.26 1057.5 381.27 1057.5 377.152C1057.5 373.464 1056 370.85 1052.99 369.311C1049.98 367.771 1045.18 367.001 1038.59 367.001H1032.63V354.271H1038.7C1044.79 354.271 1049.23 353.484 1052.02 351.908C1054.85 350.297 1056.26 347.558 1056.26 343.69C1056.26 337.746 1052.54 334.774 1045.09 334.774C1042.51 334.774 1039.88 335.204 1037.2 336.063C1034.55 336.923 1031.59 338.409 1028.33 340.521L1020.65 329.081C1027.82 323.925 1036.36 321.347 1046.27 321.347C1054.4 321.347 1060.81 322.994 1065.5 326.288C1070.23 329.582 1072.59 334.166 1072.59 340.038ZM1138.17 355.99C1138.17 371.459 1134.92 383.007 1128.4 390.634C1121.88 398.261 1112.02 402.074 1098.8 402.074C1094.15 402.074 1090.62 401.824 1088.22 401.322V388.002C1091.23 388.754 1094.38 389.13 1097.68 389.13C1103.23 389.13 1107.79 388.324 1111.37 386.713C1114.95 385.066 1117.69 382.506 1119.59 379.032C1121.49 375.523 1122.58 370.707 1122.87 364.584H1122.22C1120.14 367.95 1117.75 370.313 1115.02 371.674C1112.3 373.035 1108.9 373.715 1104.82 373.715C1097.98 373.715 1092.59 371.531 1088.65 367.162C1084.71 362.758 1082.74 356.653 1082.74 348.847C1082.74 340.432 1085.13 333.79 1089.89 328.92C1094.69 324.014 1101.2 321.562 1109.44 321.562C1115.24 321.562 1120.31 322.922 1124.64 325.644C1129.01 328.365 1132.36 332.322 1134.68 337.514C1137.01 342.67 1138.17 348.829 1138.17 355.99ZM1109.76 334.882C1106.32 334.882 1103.64 336.063 1101.7 338.427C1099.77 340.79 1098.8 344.192 1098.8 348.632C1098.8 352.427 1099.68 355.435 1101.44 357.655C1103.19 359.875 1105.86 360.985 1109.44 360.985C1112.8 360.985 1115.69 359.893 1118.09 357.709C1120.49 355.489 1121.68 352.947 1121.68 350.082C1121.68 345.821 1120.56 342.222 1118.3 339.286C1116.08 336.35 1113.23 334.882 1109.76 334.882Z" fill="#01F859"/>
<path d="M690.439 840H673.843V794.561L674.004 787.095L674.272 778.931C671.515 781.688 669.6 783.496 668.525 784.355L659.502 791.606L651.499 781.616L676.797 761.475H690.439V840ZM795.283 800.737C795.283 814.451 793.027 824.603 788.516 831.191C784.04 837.78 777.129 841.074 767.783 841.074C758.724 841.074 751.885 837.673 747.266 830.869C742.682 824.066 740.391 814.022 740.391 800.737C740.391 786.88 742.629 776.675 747.104 770.122C751.58 763.534 758.473 760.239 767.783 760.239C776.842 760.239 783.682 763.677 788.301 770.552C792.956 777.427 795.283 787.489 795.283 800.737ZM756.88 800.737C756.88 810.369 757.703 817.28 759.351 821.47C761.034 825.623 763.844 827.7 767.783 827.7C771.65 827.7 774.443 825.588 776.162 821.362C777.881 817.137 778.74 810.262 778.74 800.737C778.74 791.105 777.863 784.194 776.108 780.005C774.39 775.78 771.615 773.667 767.783 773.667C763.88 773.667 761.087 775.78 759.404 780.005C757.721 784.194 756.88 791.105 756.88 800.737ZM844.697 840H828.101V794.561L828.262 787.095L828.53 778.931C825.773 781.688 823.857 783.496 822.783 784.355L813.76 791.606L805.757 781.616L831.055 761.475H844.697V840ZM921.074 794.99C921.074 810.459 917.816 822.007 911.299 829.634C904.782 837.261 894.917 841.074 881.704 841.074C877.049 841.074 873.522 840.824 871.123 840.322V827.002C874.131 827.754 877.282 828.13 880.576 828.13C886.126 828.13 890.692 827.324 894.272 825.713C897.853 824.066 900.592 821.506 902.49 818.032C904.388 814.523 905.48 809.707 905.767 803.584H905.122C903.045 806.95 900.646 809.313 897.925 810.674C895.203 812.035 891.802 812.715 887.72 812.715C880.881 812.715 875.492 810.531 871.553 806.162C867.614 801.758 865.645 795.653 865.645 787.847C865.645 779.432 868.026 772.79 872.788 767.92C877.586 763.014 884.103 760.562 892.339 760.562C898.14 760.562 903.206 761.922 907.539 764.644C911.908 767.365 915.256 771.322 917.583 776.514C919.91 781.67 921.074 787.829 921.074 794.99ZM892.661 773.882C889.224 773.882 886.538 775.063 884.604 777.427C882.671 779.79 881.704 783.192 881.704 787.632C881.704 791.427 882.581 794.435 884.336 796.655C886.09 798.875 888.758 799.985 892.339 799.985C895.705 799.985 898.587 798.893 900.986 796.709C903.385 794.489 904.585 791.947 904.585 789.082C904.585 784.821 903.457 781.222 901.201 778.286C898.981 775.35 896.134 773.882 892.661 773.882ZM1012.38 800.737C1012.38 814.451 1010.13 824.603 1005.62 831.191C1001.14 837.78 994.229 841.074 984.883 841.074C975.824 841.074 968.984 837.673 964.365 830.869C959.782 824.066 957.49 814.022 957.49 800.737C957.49 786.88 959.728 776.675 964.204 770.122C968.68 763.534 975.573 760.239 984.883 760.239C993.942 760.239 1000.78 763.677 1005.4 770.552C1010.06 777.427 1012.38 787.489 1012.38 800.737ZM973.979 800.737C973.979 810.369 974.803 817.28 976.45 821.47C978.133 825.623 980.944 827.7 984.883 827.7C988.75 827.7 991.543 825.588 993.262 821.362C994.98 817.137 995.84 810.262 995.84 800.737C995.84 791.105 994.963 784.194 993.208 780.005C991.489 775.78 988.714 773.667 984.883 773.667C980.98 773.667 978.187 775.78 976.504 780.005C974.821 784.194 973.979 791.105 973.979 800.737ZM1077.43 823.726H1067.97V840H1051.75V823.726H1018.24V812.178L1052.67 761.475H1067.97V810.835H1077.43V823.726ZM1051.75 810.835V797.515C1051.75 795.295 1051.84 792.072 1052.02 787.847C1052.2 783.621 1052.34 781.169 1052.45 780.488H1052.02C1050.7 783.424 1049.1 786.289 1047.24 789.082L1032.85 810.835H1051.75ZM1091.39 840L1120.88 775.547H1082.15V761.582H1138.5V772.002L1108.79 840H1091.39Z" fill="#FF0000"/>
<path d="M1349.3 401H1294.4V389.452L1314.12 369.525C1319.95 363.546 1323.77 359.41 1325.56 357.118C1327.35 354.791 1328.64 352.642 1329.42 350.673C1330.21 348.703 1330.61 346.662 1330.61 344.55C1330.61 341.399 1329.73 339.053 1327.97 337.514C1326.25 335.974 1323.95 335.204 1321.04 335.204C1318 335.204 1315.05 335.902 1312.18 337.299C1309.32 338.695 1306.33 340.683 1303.21 343.261L1294.19 332.572C1298.06 329.278 1301.26 326.951 1303.8 325.59C1306.35 324.229 1309.12 323.191 1312.13 322.475C1315.14 321.723 1318.5 321.347 1322.23 321.347C1327.13 321.347 1331.46 322.242 1335.22 324.032C1338.98 325.823 1341.9 328.329 1343.98 331.552C1346.06 334.774 1347.09 338.463 1347.09 342.616C1347.09 346.233 1346.45 349.634 1345.16 352.821C1343.91 355.972 1341.94 359.213 1339.25 362.543C1336.6 365.873 1331.91 370.618 1325.18 376.776L1315.08 386.283V387.035H1349.3V401ZM1440.71 401H1385.82V389.452L1405.53 369.525C1411.37 363.546 1415.18 359.41 1416.97 357.118C1418.76 354.791 1420.05 352.642 1420.84 350.673C1421.63 348.703 1422.02 346.662 1422.02 344.55C1422.02 341.399 1421.14 339.053 1419.39 337.514C1417.67 335.974 1415.36 335.204 1412.46 335.204C1409.42 335.204 1406.46 335.902 1403.6 337.299C1400.73 338.695 1397.74 340.683 1394.63 343.261L1385.61 332.572C1389.47 329.278 1392.68 326.951 1395.22 325.59C1397.76 324.229 1400.54 323.191 1403.54 322.475C1406.55 321.723 1409.92 321.347 1413.64 321.347C1418.55 321.347 1422.88 322.242 1426.64 324.032C1430.4 325.823 1433.32 328.329 1435.4 331.552C1437.47 334.774 1438.51 338.463 1438.51 342.616C1438.51 346.233 1437.87 349.634 1436.58 352.821C1435.32 355.972 1433.35 359.213 1430.67 362.543C1428.02 365.873 1423.33 370.618 1416.6 376.776L1406.5 386.283V387.035H1440.71V401ZM1503.55 401H1448.66V389.452L1468.37 369.525C1474.21 363.546 1478.02 359.41 1479.81 357.118C1481.6 354.791 1482.89 352.642 1483.68 350.673C1484.47 348.703 1484.86 346.662 1484.86 344.55C1484.86 341.399 1483.99 339.053 1482.23 337.514C1480.51 335.974 1478.2 335.204 1475.3 335.204C1472.26 335.204 1469.31 335.902 1466.44 337.299C1463.58 338.695 1460.59 340.683 1457.47 343.261L1448.45 332.572C1452.31 329.278 1455.52 326.951 1458.06 325.59C1460.6 324.229 1463.38 323.191 1466.39 322.475C1469.39 321.723 1472.76 321.347 1476.48 321.347C1481.39 321.347 1485.72 322.242 1489.48 324.032C1493.24 325.823 1496.16 328.329 1498.24 331.552C1500.31 334.774 1501.35 338.463 1501.35 342.616C1501.35 346.233 1500.71 349.634 1499.42 352.821C1498.17 355.972 1496.2 359.213 1493.51 362.543C1490.86 365.873 1486.17 370.618 1479.44 376.776L1469.34 386.283V387.035H1503.55V401ZM1566.4 401H1511.5V389.452L1531.22 369.525C1537.05 363.546 1540.87 359.41 1542.66 357.118C1544.45 354.791 1545.74 352.642 1546.52 350.673C1547.31 348.703 1547.71 346.662 1547.71 344.55C1547.71 341.399 1546.83 339.053 1545.07 337.514C1543.35 335.974 1541.04 335.204 1538.14 335.204C1535.1 335.204 1532.15 335.902 1529.28 337.299C1526.42 338.695 1523.43 340.683 1520.31 343.261L1511.29 332.572C1515.16 329.278 1518.36 326.951 1520.9 325.59C1523.45 324.229 1526.22 323.191 1529.23 322.475C1532.24 321.723 1535.6 321.347 1539.33 321.347C1544.23 321.347 1548.56 322.242 1552.32 324.032C1556.08 325.823 1559 328.329 1561.08 331.552C1563.16 334.774 1564.19 338.463 1564.19 342.616C1564.19 346.233 1563.55 349.634 1562.26 352.821C1561.01 355.972 1559.04 359.213 1556.35 362.543C1553.7 365.873 1549.01 370.618 1542.28 376.776L1532.18 386.283V387.035H1566.4V401ZM1657.38 361.737C1657.38 375.451 1655.13 385.603 1650.62 392.191C1646.14 398.78 1639.23 402.074 1629.88 402.074C1620.82 402.074 1613.98 398.673 1609.37 391.869C1604.78 385.066 1602.49 375.022 1602.49 361.737C1602.49 347.88 1604.73 337.675 1609.2 331.122C1613.68 324.534 1620.57 321.239 1629.88 321.239C1638.94 321.239 1645.78 324.677 1650.4 331.552C1655.06 338.427 1657.38 348.489 1657.38 361.737ZM1618.98 361.737C1618.98 371.369 1619.8 378.28 1621.45 382.47C1623.13 386.623 1625.94 388.7 1629.88 388.7C1633.75 388.7 1636.54 386.588 1638.26 382.362C1639.98 378.137 1640.84 371.262 1640.84 361.737C1640.84 352.105 1639.96 345.194 1638.21 341.005C1636.49 336.78 1633.71 334.667 1629.88 334.667C1625.98 334.667 1623.19 336.78 1621.5 341.005C1619.82 345.194 1618.98 352.105 1618.98 361.737ZM1720.22 361.737C1720.22 375.451 1717.97 385.603 1713.46 392.191C1708.98 398.78 1702.07 402.074 1692.72 402.074C1683.67 402.074 1676.83 398.673 1672.21 391.869C1667.62 385.066 1665.33 375.022 1665.33 361.737C1665.33 347.88 1667.57 337.675 1672.05 331.122C1676.52 324.534 1683.41 321.239 1692.72 321.239C1701.78 321.239 1708.62 324.677 1713.24 331.552C1717.9 338.427 1720.22 348.489 1720.22 361.737ZM1681.82 361.737C1681.82 371.369 1682.64 378.28 1684.29 382.47C1685.97 386.623 1688.79 388.7 1692.72 388.7C1696.59 388.7 1699.38 386.588 1701.1 382.362C1702.82 378.137 1703.68 371.262 1703.68 361.737C1703.68 352.105 1702.8 345.194 1701.05 341.005C1699.33 336.78 1696.56 334.667 1692.72 334.667C1688.82 334.667 1686.03 336.78 1684.35 341.005C1682.66 345.194 1681.82 352.105 1681.82 361.737ZM1783.07 361.737C1783.07 375.451 1780.81 385.603 1776.3 392.191C1771.82 398.78 1764.91 402.074 1755.57 402.074C1746.51 402.074 1739.67 398.673 1735.05 391.869C1730.47 385.066 1728.17 375.022 1728.17 361.737C1728.17 347.88 1730.41 337.675 1734.89 331.122C1739.36 324.534 1746.26 321.239 1755.57 321.239C1764.63 321.239 1771.46 324.677 1776.08 331.552C1780.74 338.427 1783.07 348.489 1783.07 361.737ZM1744.66 361.737C1744.66 371.369 1745.49 378.28 1747.13 382.47C1748.82 386.623 1751.63 388.7 1755.57 388.7C1759.43 388.7 1762.23 386.588 1763.95 382.362C1765.66 378.137 1766.52 371.262 1766.52 361.737C1766.52 352.105 1765.65 345.194 1763.89 341.005C1762.17 336.78 1759.4 334.667 1755.57 334.667C1751.66 334.667 1748.87 336.78 1747.19 341.005C1745.5 345.194 1744.66 352.105 1744.66 361.737Z" fill="#01F859"/>
<path d="M1348.97 794.99C1348.97 810.459 1345.72 822.007 1339.2 829.634C1332.68 837.261 1322.82 841.074 1309.6 841.074C1304.95 841.074 1301.42 840.824 1299.02 840.322V827.002C1302.03 827.754 1305.18 828.13 1308.48 828.13C1314.03 828.13 1318.59 827.324 1322.17 825.713C1325.75 824.066 1328.49 821.506 1330.39 818.032C1332.29 814.523 1333.38 809.707 1333.67 803.584H1333.02C1330.95 806.95 1328.55 809.313 1325.83 810.674C1323.1 812.035 1319.7 812.715 1315.62 812.715C1308.78 812.715 1303.39 810.531 1299.45 806.162C1295.51 801.758 1293.54 795.653 1293.54 787.847C1293.54 779.432 1295.93 772.79 1300.69 767.92C1305.49 763.014 1312 760.562 1320.24 760.562C1326.04 760.562 1331.11 761.922 1335.44 764.644C1339.81 767.365 1343.16 771.322 1345.48 776.514C1347.81 781.67 1348.97 787.829 1348.97 794.99ZM1320.56 773.882C1317.12 773.882 1314.44 775.063 1312.5 777.427C1310.57 779.79 1309.6 783.192 1309.6 787.632C1309.6 791.427 1310.48 794.435 1312.24 796.655C1313.99 798.875 1316.66 799.985 1320.24 799.985C1323.61 799.985 1326.49 798.893 1328.89 796.709C1331.29 794.489 1332.49 791.947 1332.49 789.082C1332.49 784.821 1331.36 781.222 1329.1 778.286C1326.88 775.35 1324.03 773.882 1320.56 773.882ZM1365.03 840L1394.52 775.547H1355.8V761.582H1412.14V772.002L1382.44 840H1365.03ZM1461.12 840H1444.53V794.561L1444.69 787.095L1444.96 778.931C1442.2 781.688 1440.28 783.496 1439.21 784.355L1430.19 791.606L1422.18 781.616L1447.48 761.475H1461.12V840ZM1540.08 789.834C1547.67 789.834 1553.7 791.965 1558.18 796.226C1562.69 800.487 1564.95 806.323 1564.95 813.735C1564.95 822.508 1562.24 829.258 1556.84 833.984C1551.43 838.711 1543.69 841.074 1533.63 841.074C1524.9 841.074 1517.84 839.66 1512.47 836.831V822.49C1515.3 823.994 1518.59 825.229 1522.35 826.196C1526.11 827.127 1529.68 827.593 1533.04 827.593C1543.18 827.593 1548.24 823.439 1548.24 815.132C1548.24 807.218 1543 803.262 1532.5 803.262C1530.61 803.262 1528.51 803.459 1526.22 803.853C1523.93 804.211 1522.07 804.604 1520.63 805.034L1514.03 801.489L1516.98 761.475H1559.58V775.547H1531.54L1530.09 790.962L1531.97 790.586C1534.15 790.085 1536.86 789.834 1540.08 789.834ZM1628.81 800.737C1628.81 814.451 1626.55 824.603 1622.04 831.191C1617.57 837.78 1610.65 841.074 1601.31 841.074C1592.25 841.074 1585.41 837.673 1580.79 830.869C1576.21 824.066 1573.92 814.022 1573.92 800.737C1573.92 786.88 1576.15 776.675 1580.63 770.122C1585.11 763.534 1592 760.239 1601.31 760.239C1610.37 760.239 1617.21 763.677 1621.83 770.552C1626.48 777.427 1628.81 787.489 1628.81 800.737ZM1590.41 800.737C1590.41 810.369 1591.23 817.28 1592.88 821.47C1594.56 825.623 1597.37 827.7 1601.31 827.7C1605.18 827.7 1607.97 825.588 1609.69 821.362C1611.41 817.137 1612.27 810.262 1612.27 800.737C1612.27 791.105 1611.39 784.194 1609.63 780.005C1607.92 775.78 1605.14 773.667 1601.31 773.667C1597.41 773.667 1594.61 775.78 1592.93 780.005C1591.25 784.194 1590.41 791.105 1590.41 800.737ZM1691.65 800.737C1691.65 814.451 1689.39 824.603 1684.88 831.191C1680.41 837.78 1673.5 841.074 1664.15 841.074C1655.09 841.074 1648.25 837.673 1643.63 830.869C1639.05 824.066 1636.76 814.022 1636.76 800.737C1636.76 786.88 1639 776.675 1643.47 770.122C1647.95 763.534 1654.84 760.239 1664.15 760.239C1673.21 760.239 1680.05 763.677 1684.67 770.552C1689.32 777.427 1691.65 787.489 1691.65 800.737ZM1653.25 800.737C1653.25 810.369 1654.07 817.28 1655.72 821.47C1657.4 825.623 1660.21 827.7 1664.15 827.7C1668.02 827.7 1670.81 825.588 1672.53 821.362C1674.25 817.137 1675.11 810.262 1675.11 800.737C1675.11 791.105 1674.23 784.194 1672.48 780.005C1670.76 775.78 1667.98 773.667 1664.15 773.667C1660.25 773.667 1657.45 775.78 1655.77 780.005C1654.09 784.194 1653.25 791.105 1653.25 800.737Z" fill="#FF0000"/>
<g clip-path="url(#clip0)">
<path d="M1962.51 307.288C1961.99 305.845 1960.54 305.04 1959.09 305.04C1958.35 305.04 1958.3 305.068 1957.86 305.068H1944.88C1943.21 305.068 1942.01 305.873 1941.46 307.316L1935.19 326.662C1934.59 328.3 1935.41 330.104 1937 330.742C1938.59 331.353 1940.37 330.52 1940.97 328.883L1942.64 324.331C1942.64 324.331 1942.75 323.859 1942.75 325.885V352.753C1942.75 355.113 1944.61 357 1946.91 357C1949.21 357 1951.07 355.085 1951.07 352.753V335.183C1951.07 335.183 1951.04 335.017 1951.21 335.017H1952.77C1952.93 335.017 1952.9 335.183 1952.9 335.183V352.753C1952.9 355.113 1954.77 357 1957.06 357C1959.36 357 1961.23 355.085 1961.23 352.753V325.885C1961.23 323.859 1961.39 324.497 1961.39 324.497L1963.01 328.911C1963.61 330.548 1965.39 331.381 1966.97 330.77C1968.56 330.16 1969.38 328.328 1968.78 326.69L1962.51 307.288Z" fill="#2B3658"/>
<path d="M1961.01 293.965C1961.01 298.906 1957.01 302.931 1952.08 302.931C1947.15 302.931 1943.16 298.934 1943.16 293.965C1943.16 288.997 1947.15 285 1952.08 285C1957.01 285 1961.01 288.997 1961.01 293.965Z" fill="#2B3658"/>
</g>
<g clip-path="url(#clip1)">
<path d="M1962.51 746.288C1961.99 744.845 1960.54 744.04 1959.09 744.04C1958.35 744.04 1958.3 744.068 1957.86 744.068H1944.88C1943.21 744.068 1942.01 744.873 1941.46 746.316L1935.19 765.662C1934.59 767.3 1935.41 769.104 1937 769.742C1938.59 770.353 1940.37 769.52 1940.97 767.883L1942.64 763.331C1942.64 763.331 1942.75 762.859 1942.75 764.885V791.753C1942.75 794.113 1944.61 796 1946.91 796C1949.21 796 1951.07 794.085 1951.07 791.753V774.183C1951.07 774.183 1951.04 774.017 1951.21 774.017H1952.77C1952.93 774.017 1952.9 774.183 1952.9 774.183V791.753C1952.9 794.113 1954.77 796 1957.06 796C1959.36 796 1961.23 794.085 1961.23 791.753V764.885C1961.23 762.859 1961.39 763.497 1961.39 763.497L1963.01 767.911C1963.61 769.548 1965.39 770.381 1966.97 769.77C1968.56 769.16 1969.38 767.328 1968.78 765.69L1962.51 746.288Z" fill="#2B3658"/>
<path d="M1961.01 732.965C1961.01 737.906 1957.01 741.931 1952.08 741.931C1947.15 741.931 1943.16 737.934 1943.16 732.965C1943.16 727.997 1947.15 724 1952.08 724C1957.01 724 1961.01 727.997 1961.01 732.965Z" fill="#2B3658"/>
</g>
<path d="M1961.94 394.014C1961.94 398.991 1957.89 403.028 1952.89 403.028C1947.89 403.028 1943.83 398.991 1943.83 394.014C1943.83 389.037 1947.89 385 1952.89 385C1957.89 385 1961.94 389.037 1961.94 394.014Z" fill="#2B3658"/>
<path d="M1970.69 425.94L1962.97 407.221C1962.53 406.281 1962.14 405.009 1960.33 405.009H1946.61C1944.81 405.009 1943.86 406.171 1943.33 407.249L1935.33 425.802C1934.56 427.35 1935.19 429.258 1936.75 430.005C1938.31 430.779 1940.17 430.115 1940.94 428.567L1941.56 427.323C1941.56 427.323 1941.75 426.991 1941.67 427.35C1941.22 429.645 1940.03 436.53 1940.03 436.53C1939.72 437.968 1940.69 439.129 1942.17 439.129H1945.67C1945.92 439.129 1945.86 439.323 1945.86 439.323V453.175C1945.86 455.498 1947.31 456.714 1949.11 456.714C1950.89 456.714 1952.36 455.498 1952.36 453.175V439.267C1952.36 439.267 1952.36 439.129 1952.5 439.129C1952.69 439.129 1953.17 439.129 1953.39 439.129C1953.5 439.129 1953.5 439.267 1953.5 439.267V453.148C1953.5 455.47 1954.94 456.687 1956.75 456.687C1958.53 456.687 1960 455.47 1960 453.148V439.35C1960 439.35 1959.97 439.129 1960.25 439.129H1964C1965.47 439.129 1966.44 437.94 1966.19 436.502C1966.19 436.502 1964.97 429.12 1964.67 427.101C1964.58 426.521 1965.53 428.567 1965.53 428.567C1966.28 430.143 1967.69 430.807 1969.25 430.06C1970.75 429.369 1971.44 427.516 1970.69 425.94Z" fill="#2B3658"/>
<path d="M1961.94 833.014C1961.94 837.991 1957.89 842.028 1952.89 842.028C1947.89 842.028 1943.83 837.991 1943.83 833.014C1943.83 828.037 1947.89 824 1952.89 824C1957.89 824 1961.94 828.037 1961.94 833.014Z" fill="#2B3658"/>
<path d="M1970.69 864.94L1962.97 846.221C1962.53 845.281 1962.14 844.009 1960.33 844.009H1946.61C1944.81 844.009 1943.86 845.171 1943.33 846.249L1935.33 864.802C1934.56 866.35 1935.19 868.258 1936.75 869.005C1938.31 869.779 1940.17 869.115 1940.94 867.567L1941.56 866.323C1941.56 866.323 1941.75 865.991 1941.67 866.35C1941.22 868.645 1940.03 875.53 1940.03 875.53C1939.72 876.968 1940.69 878.129 1942.17 878.129H1945.67C1945.92 878.129 1945.86 878.323 1945.86 878.323V892.175C1945.86 894.498 1947.31 895.714 1949.11 895.714C1950.89 895.714 1952.36 894.498 1952.36 892.175V878.267C1952.36 878.267 1952.36 878.129 1952.5 878.129C1952.69 878.129 1953.17 878.129 1953.39 878.129C1953.5 878.129 1953.5 878.267 1953.5 878.267V892.148C1953.5 894.47 1954.94 895.687 1956.75 895.687C1958.53 895.687 1960 894.47 1960 892.148V878.35C1960 878.35 1959.97 878.129 1960.25 878.129H1964C1965.47 878.129 1966.44 876.94 1966.19 875.502C1966.19 875.502 1964.97 868.12 1964.67 866.101C1964.58 865.521 1965.53 867.567 1965.53 867.567C1966.28 869.143 1967.69 869.807 1969.25 869.06C1970.75 868.369 1971.44 866.516 1970.69 864.94Z" fill="#2B3658"/>
<path d="M1996.39 337H1991.87V324.607L1991.91 322.571L1991.98 320.345C1991.23 321.097 1990.71 321.59 1990.42 321.824L1987.96 323.802L1985.77 321.077L1992.67 315.584H1996.39V337ZM2002.19 327.903C2002.19 323.665 2003.09 320.511 2004.87 318.44C2006.67 316.37 2009.36 315.335 2012.93 315.335C2014.15 315.335 2015.11 315.408 2015.8 315.555V319.173C2014.93 318.978 2014.07 318.88 2013.22 318.88C2011.67 318.88 2010.4 319.114 2009.42 319.583C2008.44 320.052 2007.71 320.745 2007.22 321.663C2006.73 322.581 2006.44 323.885 2006.35 325.574H2006.54C2007.51 323.914 2009.06 323.084 2011.19 323.084C2013.1 323.084 2014.6 323.685 2015.68 324.886C2016.77 326.087 2017.31 327.747 2017.31 329.866C2017.31 332.151 2016.67 333.963 2015.38 335.301C2014.09 336.629 2012.3 337.293 2010.02 337.293C2008.43 337.293 2007.05 336.927 2005.87 336.194C2004.7 335.462 2003.79 334.393 2003.15 332.986C2002.51 331.58 2002.19 329.886 2002.19 327.903ZM2009.93 333.675C2010.89 333.675 2011.64 333.353 2012.15 332.708C2012.67 332.054 2012.93 331.126 2012.93 329.925C2012.93 328.88 2012.69 328.06 2012.2 327.464C2011.72 326.858 2010.99 326.556 2010.02 326.556C2009.1 326.556 2008.31 326.854 2007.66 327.449C2007.01 328.045 2006.69 328.738 2006.69 329.529C2006.69 330.691 2006.99 331.673 2007.6 332.474C2008.21 333.274 2008.99 333.675 2009.93 333.675ZM2019.17 330.789V327.127H2027.04V330.789H2019.17ZM2036.94 323.318C2039.01 323.318 2040.66 323.899 2041.88 325.062C2043.11 326.224 2043.72 327.815 2043.72 329.837C2043.72 332.229 2042.98 334.07 2041.51 335.359C2040.04 336.648 2037.93 337.293 2035.18 337.293C2032.8 337.293 2030.88 336.907 2029.41 336.136V332.225C2030.18 332.635 2031.08 332.972 2032.11 333.235C2033.13 333.489 2034.1 333.616 2035.02 333.616C2037.78 333.616 2039.17 332.483 2039.17 330.218C2039.17 328.06 2037.74 326.98 2034.87 326.98C2034.36 326.98 2033.79 327.034 2033.16 327.142C2032.54 327.239 2032.03 327.347 2031.64 327.464L2029.83 326.497L2030.64 315.584H2042.26V319.422H2034.61L2034.21 323.626L2034.73 323.523C2035.32 323.387 2036.06 323.318 2036.94 323.318ZM2061.17 324.725C2061.17 328.943 2060.28 332.093 2058.5 334.173C2056.72 336.253 2054.03 337.293 2050.43 337.293C2049.16 337.293 2048.2 337.225 2047.54 337.088V333.455C2048.37 333.66 2049.22 333.763 2050.12 333.763C2051.64 333.763 2052.88 333.543 2053.86 333.104C2054.83 332.654 2055.58 331.956 2056.1 331.009C2056.62 330.052 2056.92 328.738 2056.99 327.068H2056.82C2056.25 327.986 2055.6 328.631 2054.85 329.002C2054.11 329.373 2053.18 329.559 2052.07 329.559C2050.21 329.559 2048.74 328.963 2047.66 327.771C2046.59 326.57 2046.05 324.905 2046.05 322.776C2046.05 320.481 2046.7 318.67 2048 317.342C2049.31 316.004 2051.08 315.335 2053.33 315.335C2054.91 315.335 2056.29 315.706 2057.48 316.448C2058.67 317.19 2059.58 318.27 2060.22 319.686C2060.85 321.092 2061.17 322.771 2061.17 324.725ZM2053.42 318.968C2052.48 318.968 2051.75 319.29 2051.22 319.935C2050.69 320.579 2050.43 321.507 2050.43 322.718C2050.43 323.753 2050.67 324.573 2051.15 325.179C2051.63 325.784 2052.35 326.087 2053.33 326.087C2054.25 326.087 2055.04 325.789 2055.69 325.193C2056.34 324.588 2056.67 323.895 2056.67 323.113C2056.67 321.951 2056.36 320.97 2055.75 320.169C2055.14 319.368 2054.37 318.968 2053.42 318.968Z" fill="white"/>
<path d="M1985.05 766.903C1985.05 762.665 1985.95 759.511 1987.74 757.44C1989.53 755.37 1992.22 754.335 1995.79 754.335C1997.01 754.335 1997.97 754.408 1998.66 754.555V758.173C1997.79 757.978 1996.93 757.88 1996.08 757.88C1994.53 757.88 1993.26 758.114 1992.28 758.583C1991.3 759.052 1990.57 759.745 1990.08 760.663C1989.59 761.581 1989.3 762.885 1989.21 764.574H1989.41C1990.37 762.914 1991.92 762.084 1994.05 762.084C1995.96 762.084 1997.46 762.685 1998.55 763.886C1999.63 765.087 2000.17 766.747 2000.17 768.866C2000.17 771.151 1999.53 772.963 1998.24 774.301C1996.95 775.629 1995.16 776.293 1992.88 776.293C1991.29 776.293 1989.91 775.927 1988.73 775.194C1987.56 774.462 1986.65 773.393 1986.01 771.986C1985.37 770.58 1985.05 768.886 1985.05 766.903ZM1992.79 772.675C1993.76 772.675 1994.5 772.353 1995.02 771.708C1995.53 771.054 1995.79 770.126 1995.79 768.925C1995.79 767.88 1995.55 767.06 1995.06 766.464C1994.58 765.858 1993.85 765.556 1992.88 765.556C1991.96 765.556 1991.17 765.854 1990.52 766.449C1989.87 767.045 1989.55 767.738 1989.55 768.529C1989.55 769.691 1989.85 770.673 1990.46 771.474C1991.08 772.274 1991.85 772.675 1992.79 772.675ZM2017.19 765.292C2017.19 769.032 2016.58 771.801 2015.35 773.598C2014.13 775.395 2012.24 776.293 2009.69 776.293C2007.22 776.293 2005.36 775.365 2004.1 773.51C2002.85 771.654 2002.22 768.915 2002.22 765.292C2002.22 761.513 2002.83 758.729 2004.05 756.942C2005.27 755.146 2007.15 754.247 2009.69 754.247C2012.16 754.247 2014.03 755.185 2015.29 757.06C2016.56 758.935 2017.19 761.679 2017.19 765.292ZM2006.72 765.292C2006.72 767.919 2006.94 769.804 2007.39 770.946C2007.85 772.079 2008.62 772.646 2009.69 772.646C2010.75 772.646 2011.51 772.069 2011.98 770.917C2012.45 769.765 2012.68 767.89 2012.68 765.292C2012.68 762.665 2012.44 760.78 2011.96 759.638C2011.5 758.485 2010.74 757.909 2009.69 757.909C2008.63 757.909 2007.87 758.485 2007.41 759.638C2006.95 760.78 2006.72 762.665 2006.72 765.292ZM2025.24 767.035H2019.57V763.827H2025.24V758.114H2028.44V763.827H2034.11V767.035H2028.44V772.675H2025.24V767.035Z" fill="white"/>
<path d="M1996.39 435H1991.87V422.607L1991.91 420.571L1991.98 418.345C1991.23 419.097 1990.71 419.59 1990.42 419.824L1987.96 421.802L1985.77 419.077L1992.67 413.584H1996.39V435ZM2002.19 425.903C2002.19 421.665 2003.09 418.511 2004.87 416.44C2006.67 414.37 2009.36 413.335 2012.93 413.335C2014.15 413.335 2015.11 413.408 2015.8 413.555V417.173C2014.93 416.978 2014.07 416.88 2013.22 416.88C2011.67 416.88 2010.4 417.114 2009.42 417.583C2008.44 418.052 2007.71 418.745 2007.22 419.663C2006.73 420.581 2006.44 421.885 2006.35 423.574H2006.54C2007.51 421.914 2009.06 421.084 2011.19 421.084C2013.1 421.084 2014.6 421.685 2015.68 422.886C2016.77 424.087 2017.31 425.747 2017.31 427.866C2017.31 430.151 2016.67 431.963 2015.38 433.301C2014.09 434.629 2012.3 435.293 2010.02 435.293C2008.43 435.293 2007.05 434.927 2005.87 434.194C2004.7 433.462 2003.79 432.393 2003.15 430.986C2002.51 429.58 2002.19 427.886 2002.19 425.903ZM2009.93 431.675C2010.89 431.675 2011.64 431.353 2012.15 430.708C2012.67 430.054 2012.93 429.126 2012.93 427.925C2012.93 426.88 2012.69 426.06 2012.2 425.464C2011.72 424.858 2010.99 424.556 2010.02 424.556C2009.1 424.556 2008.31 424.854 2007.66 425.449C2007.01 426.045 2006.69 426.738 2006.69 427.529C2006.69 428.691 2006.99 429.673 2007.6 430.474C2008.21 431.274 2008.99 431.675 2009.93 431.675ZM2019.17 428.789V425.127H2027.04V428.789H2019.17ZM2036.94 421.318C2039.01 421.318 2040.66 421.899 2041.88 423.062C2043.11 424.224 2043.72 425.815 2043.72 427.837C2043.72 430.229 2042.98 432.07 2041.51 433.359C2040.04 434.648 2037.93 435.293 2035.18 435.293C2032.8 435.293 2030.88 434.907 2029.41 434.136V430.225C2030.18 430.635 2031.08 430.972 2032.11 431.235C2033.13 431.489 2034.1 431.616 2035.02 431.616C2037.78 431.616 2039.17 430.483 2039.17 428.218C2039.17 426.06 2037.74 424.98 2034.87 424.98C2034.36 424.98 2033.79 425.034 2033.16 425.142C2032.54 425.239 2032.03 425.347 2031.64 425.464L2029.83 424.497L2030.64 413.584H2042.26V417.422H2034.61L2034.21 421.626L2034.73 421.523C2035.32 421.387 2036.06 421.318 2036.94 421.318ZM2061.74 430.562H2059.16V435H2054.74V430.562H2045.6V427.412L2054.99 413.584H2059.16V427.046H2061.74V430.562ZM2054.74 427.046V423.413C2054.74 422.808 2054.76 421.929 2054.81 420.776C2054.86 419.624 2054.9 418.955 2054.93 418.77H2054.81C2054.45 419.57 2054.01 420.352 2053.51 421.113L2049.58 427.046H2054.74Z" fill="white"/>
<path d="M1992.99 860.318C1995.06 860.318 1996.71 860.899 1997.93 862.062C1999.16 863.224 1999.78 864.815 1999.78 866.837C1999.78 869.229 1999.04 871.07 1997.56 872.359C1996.09 873.648 1993.98 874.293 1991.24 874.293C1988.85 874.293 1986.93 873.907 1985.46 873.136V869.225C1986.24 869.635 1987.13 869.972 1988.16 870.235C1989.19 870.489 1990.16 870.616 1991.08 870.616C1993.84 870.616 1995.22 869.483 1995.22 867.218C1995.22 865.06 1993.79 863.98 1990.93 863.98C1990.41 863.98 1989.84 864.034 1989.21 864.142C1988.59 864.239 1988.08 864.347 1987.69 864.464L1985.89 863.497L1986.7 852.584H1998.31V856.422H1990.67L1990.27 860.626L1990.78 860.523C1991.38 860.387 1992.12 860.318 1992.99 860.318ZM2010.13 860.318C2012.2 860.318 2013.85 860.899 2015.07 862.062C2016.3 863.224 2016.92 864.815 2016.92 866.837C2016.92 869.229 2016.18 871.07 2014.7 872.359C2013.23 873.648 2011.12 874.293 2008.38 874.293C2005.99 874.293 2004.07 873.907 2002.6 873.136V869.225C2003.38 869.635 2004.27 869.972 2005.3 870.235C2006.32 870.489 2007.3 870.616 2008.21 870.616C2010.98 870.616 2012.36 869.483 2012.36 867.218C2012.36 865.06 2010.93 863.98 2008.07 863.98C2007.55 863.98 2006.98 864.034 2006.35 864.142C2005.73 864.239 2005.22 864.347 2004.83 864.464L2003.03 863.497L2003.83 852.584H2015.45V856.422H2007.8L2007.41 860.626L2007.92 860.523C2008.52 860.387 2009.25 860.318 2010.13 860.318ZM2025.24 865.035H2019.57V861.827H2025.24V856.114H2028.44V861.827H2034.11V865.035H2028.44V870.675H2025.24V865.035Z" fill="white"/>
<defs>
<linearGradient id="paint0_linear" x1="1907" y1="203.977" x2="-1.81823e-08" y2="203.998" gradientUnits="userSpaceOnUse">
<stop stop-color="#00CD77"/>
<stop offset="0.410127" stop-color="#6A7186"/>
</linearGradient>
<linearGradient id="paint1_linear" x1="1907" y1="642.977" x2="-1.81823e-08" y2="642.998" gradientUnits="userSpaceOnUse">
<stop stop-color="#F30101"/>
<stop offset="0.410127" stop-color="#6A7186"/>
</linearGradient>
<clipPath id="clip0">
<rect width="34" height="72" fill="white" transform="translate(1935 285)"/>
</clipPath>
<clipPath id="clip1">
<rect width="34" height="72" fill="white" transform="translate(1935 724)"/>
</clipPath>
</defs>
</svg>
