<svg width="222" height="42" viewBox="0 0 222 42" fill="none" xmlns="http://www.w3.org/2000/svg">
<rect width="74" height="42" fill="#01F859"/>
<rect x="74" width="74" height="42" fill="#FFE607"/>
<rect x="148" width="74" height="42" fill="#E20C0C"/>
<path d="M19.4951 31L14.3193 16.0952H14.2217C14.36 18.3088 14.4292 20.384 14.4292 22.3208V31H11.7803V13.1533H15.894L20.8501 27.3501H20.9233L26.0259 13.1533H30.1519V31H27.3442V22.1743C27.3442 21.2873 27.3646 20.1317 27.4053 18.7075C27.4541 17.2834 27.4948 16.4207 27.5273 16.1196H27.4297L22.0708 31H19.4951ZM45.9233 31L44.1411 26.0439H37.3174L35.5718 31H32.4956L39.1729 13.0801H42.3467L49.0239 31H45.9233ZM43.3721 23.5293L41.6997 18.6709C41.5776 18.3454 41.4067 17.8327 41.187 17.1328C40.9754 16.4329 40.8289 15.9202 40.7476 15.5947C40.5278 16.5957 40.2064 17.6903 39.7832 18.8784L38.1719 23.5293H43.3721ZM64.5269 31H61.1699L56.7021 23.7002L52.1978 31H49.0728L54.9932 21.7471L49.4512 13.1533H52.6982L56.8242 19.9038L60.9502 13.1533H64.0996L58.521 21.7959L64.5269 31Z" fill="#081136"/>
<path d="M96.5347 30L91.3589 15.0952H91.2612C91.3996 17.3088 91.4688 19.384 91.4688 21.3208V30H88.8198V12.1533H92.9336L97.8896 26.3501H97.9629L103.065 12.1533H107.191V30H104.384V21.1743C104.384 20.2873 104.404 19.1317 104.445 17.7075C104.494 16.2834 104.534 15.4207 104.567 15.1196H104.469L99.1104 30H96.5347ZM111.891 30V12.1533H114.809V30H111.891ZM134.047 20.9058C134.047 23.8517 133.229 26.106 131.593 27.6685C129.958 29.2228 127.602 30 124.525 30H119.533V12.1533H125.05C127.89 12.1533 130.1 12.9183 131.679 14.4482C133.257 15.9782 134.047 18.1307 134.047 20.9058ZM130.971 21.0034C130.971 16.731 128.973 14.5947 124.977 14.5947H122.45V27.5464H124.525C128.822 27.5464 130.971 25.3654 130.971 21.0034Z" fill="#081136"/>
<path d="M169.924 30L164.749 15.0952H164.651C164.789 17.3088 164.858 19.384 164.858 21.3208V30H162.209V12.1533H166.323L171.279 26.3501H171.353L176.455 12.1533H180.581V30H177.773V21.1743C177.773 20.2873 177.794 19.1317 177.834 17.7075C177.883 16.2834 177.924 15.4207 177.957 15.1196H177.859L172.5 30H169.924ZM185.281 30V12.1533H188.198V30H185.281ZM207.791 30H204.214L195.437 15.7788H195.339L195.4 16.5723C195.514 18.0859 195.571 19.4694 195.571 20.7227V30H192.922V12.1533H196.462L205.215 26.3013H205.288C205.272 26.1141 205.239 25.4346 205.19 24.2627C205.142 23.0827 205.117 22.1631 205.117 21.5039V12.1533H207.791V30Z" fill="#081136"/>
</svg>
