<svg width="110" height="128" viewBox="0 0 110 128" fill="none" xmlns="http://www.w3.org/2000/svg">
<path d="M110 95.4675L110 31.8052L55.0259 -2.40299e-06L-1.39025e-06 31.8052L-4.17302e-06 95.4675L55.0259 127.273L110 95.4675Z" fill="#01F859"/>
<path d="M76 38H34C30.1391 38 27 41.1391 27 45V76.5C27 80.3609 30.1391 83.5 34 83.5H37.5V92.25C37.5 92.9281 37.8937 93.5516 38.5062 93.8359C38.7359 93.9453 38.9984 94 39.25 94C39.6547 94 40.0484 93.8578 40.3656 93.5953L52.4844 83.5H76C79.8609 83.5 83 80.3609 83 76.5V45C83 41.1391 79.8609 38 76 38ZM56.75 66H42.75C41.7875 66 41 65.2125 41 64.25C41 63.2875 41.7875 62.5 42.75 62.5H56.75C57.7125 62.5 58.5 63.2875 58.5 64.25C58.5 65.2125 57.7125 66 56.75 66ZM67.25 55.5H42.75C41.7875 55.5 41 54.7125 41 53.75C41 52.7875 41.7875 52 42.75 52H67.25C68.2125 52 69 52.7875 69 53.75C69 54.7125 68.2125 55.5 67.25 55.5Z" fill="#081136"/>
</svg>
