<svg width="1938" height="1295" viewBox="0 0 1938 1295" fill="none" xmlns="http://www.w3.org/2000/svg">
<rect x="616" width="642" height="1188" fill="#C4C4C4" fill-opacity="0.05"/>
<path d="M26.9531 74H2.00195V68.751L10.9619 59.6934C13.6149 56.9753 15.3483 55.0954 16.1621 54.0537C16.9759 52.9958 17.5618 52.0192 17.9199 51.124C18.278 50.2288 18.457 49.3011 18.457 48.3408C18.457 46.9085 18.0583 45.8424 17.2607 45.1426C16.4795 44.4427 15.4297 44.0928 14.1113 44.0928C12.7279 44.0928 11.3851 44.4102 10.083 45.0449C8.78092 45.6797 7.42188 46.583 6.00586 47.7549L1.9043 42.8965C3.66211 41.3991 5.11882 40.3411 6.27441 39.7227C7.43001 39.1042 8.69141 38.6322 10.0586 38.3066C11.4258 37.9648 12.9557 37.7939 14.6484 37.7939C16.8783 37.7939 18.8477 38.2008 20.5566 39.0146C22.2656 39.8285 23.5921 40.9678 24.5361 42.4326C25.4801 43.8975 25.9521 45.5739 25.9521 47.4619C25.9521 49.1058 25.6592 50.652 25.0732 52.1006C24.5036 53.5329 23.6084 55.0059 22.3877 56.5195C21.1833 58.0332 19.0511 60.1898 15.9912 62.9893L11.4014 67.3105V67.6523H26.9531V74ZM55.3223 56.1533C55.3223 62.387 54.2969 67.0013 52.2461 69.9961C50.2116 72.9909 47.0703 74.4883 42.8223 74.4883C38.7044 74.4883 35.5957 72.9421 33.4961 69.8496C31.4128 66.7572 30.3711 62.1917 30.3711 56.1533C30.3711 49.8545 31.3883 45.2158 33.4229 42.2373C35.4574 39.2425 38.5905 37.7451 42.8223 37.7451C46.9401 37.7451 50.0488 39.3076 52.1484 42.4326C54.2643 45.5576 55.3223 50.1312 55.3223 56.1533ZM37.8662 56.1533C37.8662 60.5316 38.2406 63.6729 38.9893 65.5771C39.7542 67.4652 41.0319 68.4092 42.8223 68.4092C44.5801 68.4092 45.8496 67.4489 46.6309 65.5283C47.4121 63.6077 47.8027 60.4827 47.8027 56.1533C47.8027 51.7751 47.404 48.6338 46.6064 46.7295C45.8252 44.8089 44.5638 43.8486 42.8223 43.8486C41.0482 43.8486 39.7786 44.8089 39.0137 46.7295C38.2487 48.6338 37.8662 51.7751 37.8662 56.1533ZM77.7832 74H70.2393V53.3457L70.3125 49.9521L70.4346 46.2412C69.1813 47.4945 68.3105 48.3164 67.8223 48.707L63.7207 52.0029L60.083 47.4619L71.582 38.3066H77.7832V74ZM100 37.8428C103.418 37.8428 106.169 38.624 108.252 40.1865C110.352 41.7327 111.401 43.8242 111.401 46.4609C111.401 48.2839 110.897 49.9115 109.888 51.3438C108.879 52.7598 107.251 54.0293 105.005 55.1523C107.674 56.5846 109.587 58.082 110.742 59.6445C111.914 61.1908 112.5 62.8916 112.5 64.7471C112.5 67.6768 111.353 70.0368 109.058 71.8271C106.763 73.6012 103.743 74.4883 100 74.4883C96.0938 74.4883 93.0257 73.6582 90.7959 71.998C88.5661 70.3379 87.4512 67.986 87.4512 64.9424C87.4512 62.9079 87.9883 61.1012 89.0625 59.5225C90.153 57.9437 91.8945 56.5521 94.2871 55.3477C92.2526 54.0618 90.7878 52.6865 89.8926 51.2217C88.9974 49.7568 88.5498 48.1536 88.5498 46.4121C88.5498 43.8568 89.6077 41.7897 91.7236 40.2109C93.8395 38.6322 96.5983 37.8428 100 37.8428ZM94.4336 64.5029C94.4336 65.9027 94.9219 66.9932 95.8984 67.7744C96.875 68.5557 98.2096 68.9463 99.9023 68.9463C101.774 68.9463 103.174 68.5475 104.102 67.75C105.029 66.9362 105.493 65.8701 105.493 64.5518C105.493 63.4613 105.029 62.444 104.102 61.5C103.19 60.5397 101.701 59.5225 99.6338 58.4482C96.167 60.0433 94.4336 62.0615 94.4336 64.5029ZM99.9512 43.3604C98.6654 43.3604 97.6237 43.694 96.8262 44.3613C96.0449 45.0124 95.6543 45.8913 95.6543 46.998C95.6543 47.9746 95.9635 48.8535 96.582 49.6348C97.2168 50.3997 98.3561 51.1891 100 52.0029C101.595 51.2542 102.71 50.4893 103.345 49.708C103.979 48.9268 104.297 48.0234 104.297 46.998C104.297 45.875 103.89 44.988 103.076 44.3369C102.262 43.6859 101.221 43.3604 99.9512 43.3604Z" fill="white"/>
<path d="M671.953 74H647.002V68.751L655.962 59.6934C658.615 56.9753 660.348 55.0954 661.162 54.0537C661.976 52.9958 662.562 52.0192 662.92 51.124C663.278 50.2288 663.457 49.3011 663.457 48.3408C663.457 46.9085 663.058 45.8424 662.261 45.1426C661.479 44.4427 660.43 44.0928 659.111 44.0928C657.728 44.0928 656.385 44.4102 655.083 45.0449C653.781 45.6797 652.422 46.583 651.006 47.7549L646.904 42.8965C648.662 41.3991 650.119 40.3411 651.274 39.7227C652.43 39.1042 653.691 38.6322 655.059 38.3066C656.426 37.9648 657.956 37.7939 659.648 37.7939C661.878 37.7939 663.848 38.2008 665.557 39.0146C667.266 39.8285 668.592 40.9678 669.536 42.4326C670.48 43.8975 670.952 45.5739 670.952 47.4619C670.952 49.1058 670.659 50.652 670.073 52.1006C669.504 53.5329 668.608 55.0059 667.388 56.5195C666.183 58.0332 664.051 60.1898 660.991 62.9893L656.401 67.3105V67.6523H671.953V74ZM700.322 56.1533C700.322 62.387 699.297 67.0013 697.246 69.9961C695.212 72.9909 692.07 74.4883 687.822 74.4883C683.704 74.4883 680.596 72.9421 678.496 69.8496C676.413 66.7572 675.371 62.1917 675.371 56.1533C675.371 49.8545 676.388 45.2158 678.423 42.2373C680.457 39.2425 683.59 37.7451 687.822 37.7451C691.94 37.7451 695.049 39.3076 697.148 42.4326C699.264 45.5576 700.322 50.1312 700.322 56.1533ZM682.866 56.1533C682.866 60.5316 683.241 63.6729 683.989 65.5771C684.754 67.4652 686.032 68.4092 687.822 68.4092C689.58 68.4092 690.85 67.4489 691.631 65.5283C692.412 63.6077 692.803 60.4827 692.803 56.1533C692.803 51.7751 692.404 48.6338 691.606 46.7295C690.825 44.8089 689.564 43.8486 687.822 43.8486C686.048 43.8486 684.779 44.8089 684.014 46.7295C683.249 48.6338 682.866 51.7751 682.866 56.1533ZM722.783 74H715.239V53.3457L715.312 49.9521L715.435 46.2412C714.181 47.4945 713.311 48.3164 712.822 48.707L708.721 52.0029L705.083 47.4619L716.582 38.3066H722.783V74ZM757.5 53.541C757.5 60.5723 756.019 65.8213 753.057 69.2881C750.094 72.7549 745.61 74.4883 739.604 74.4883C737.489 74.4883 735.885 74.3743 734.795 74.1465V68.0918C736.162 68.4336 737.594 68.6045 739.092 68.6045C741.615 68.6045 743.69 68.2383 745.317 67.5059C746.945 66.7572 748.19 65.5934 749.053 64.0146C749.915 62.4196 750.412 60.2305 750.542 57.4473H750.249C749.305 58.9772 748.215 60.0514 746.978 60.6699C745.741 61.2884 744.194 61.5977 742.339 61.5977C739.23 61.5977 736.781 60.6048 734.99 58.6191C733.2 56.6172 732.305 53.8421 732.305 50.2939C732.305 46.4691 733.387 43.4499 735.552 41.2363C737.733 39.0065 740.695 37.8916 744.438 37.8916C747.075 37.8916 749.378 38.5101 751.348 39.7471C753.333 40.984 754.855 42.7826 755.913 45.1426C756.971 47.4863 757.5 50.2858 757.5 53.541ZM744.585 43.9463C743.022 43.9463 741.802 44.4834 740.923 45.5576C740.044 46.6318 739.604 48.1781 739.604 50.1963C739.604 51.9215 740.003 53.2887 740.801 54.2979C741.598 55.307 742.811 55.8115 744.438 55.8115C745.968 55.8115 747.279 55.3151 748.369 54.3223C749.46 53.3132 750.005 52.1576 750.005 50.8555C750.005 48.9186 749.492 47.2829 748.467 45.9482C747.458 44.6136 746.164 43.9463 744.585 43.9463Z" fill="white"/>
<path d="M1316.95 74H1292V68.751L1300.96 59.6934C1303.61 56.9753 1305.35 55.0954 1306.16 54.0537C1306.98 52.9958 1307.56 52.0192 1307.92 51.124C1308.28 50.2288 1308.46 49.3011 1308.46 48.3408C1308.46 46.9085 1308.06 45.8424 1307.26 45.1426C1306.48 44.4427 1305.43 44.0928 1304.11 44.0928C1302.73 44.0928 1301.39 44.4102 1300.08 45.0449C1298.78 45.6797 1297.42 46.583 1296.01 47.7549L1291.9 42.8965C1293.66 41.3991 1295.12 40.3411 1296.27 39.7227C1297.43 39.1042 1298.69 38.6322 1300.06 38.3066C1301.43 37.9648 1302.96 37.7939 1304.65 37.7939C1306.88 37.7939 1308.85 38.2008 1310.56 39.0146C1312.27 39.8285 1313.59 40.9678 1314.54 42.4326C1315.48 43.8975 1315.95 45.5739 1315.95 47.4619C1315.95 49.1058 1315.66 50.652 1315.07 52.1006C1314.5 53.5329 1313.61 55.0059 1312.39 56.5195C1311.18 58.0332 1309.05 60.1898 1305.99 62.9893L1301.4 67.3105V67.6523H1316.95V74ZM1345.32 56.1533C1345.32 62.387 1344.3 67.0013 1342.25 69.9961C1340.21 72.9909 1337.07 74.4883 1332.82 74.4883C1328.7 74.4883 1325.6 72.9421 1323.5 69.8496C1321.41 66.7572 1320.37 62.1917 1320.37 56.1533C1320.37 49.8545 1321.39 45.2158 1323.42 42.2373C1325.46 39.2425 1328.59 37.7451 1332.82 37.7451C1336.94 37.7451 1340.05 39.3076 1342.15 42.4326C1344.26 45.5576 1345.32 50.1312 1345.32 56.1533ZM1327.87 56.1533C1327.87 60.5316 1328.24 63.6729 1328.99 65.5771C1329.75 67.4652 1331.03 68.4092 1332.82 68.4092C1334.58 68.4092 1335.85 67.4489 1336.63 65.5283C1337.41 63.6077 1337.8 60.4827 1337.8 56.1533C1337.8 51.7751 1337.4 48.6338 1336.61 46.7295C1335.83 44.8089 1334.56 43.8486 1332.82 43.8486C1331.05 43.8486 1329.78 44.8089 1329.01 46.7295C1328.25 48.6338 1327.87 51.7751 1327.87 56.1533ZM1374.08 74H1349.13V68.751L1358.09 59.6934C1360.74 56.9753 1362.48 55.0954 1363.29 54.0537C1364.1 52.9958 1364.69 52.0192 1365.05 51.124C1365.41 50.2288 1365.59 49.3011 1365.59 48.3408C1365.59 46.9085 1365.19 45.8424 1364.39 45.1426C1363.61 44.4427 1362.56 44.0928 1361.24 44.0928C1359.86 44.0928 1358.51 44.4102 1357.21 45.0449C1355.91 45.6797 1354.55 46.583 1353.13 47.7549L1349.03 42.8965C1350.79 41.3991 1352.25 40.3411 1353.4 39.7227C1354.56 39.1042 1355.82 38.6322 1357.19 38.3066C1358.55 37.9648 1360.08 37.7939 1361.78 37.7939C1364.01 37.7939 1365.98 38.2008 1367.69 39.0146C1369.39 39.8285 1370.72 40.9678 1371.67 42.4326C1372.61 43.8975 1373.08 45.5739 1373.08 47.4619C1373.08 49.1058 1372.79 50.652 1372.2 52.1006C1371.63 53.5329 1370.74 55.0059 1369.52 56.5195C1368.31 58.0332 1366.18 60.1898 1363.12 62.9893L1358.53 67.3105V67.6523H1374.08V74ZM1402.45 56.1533C1402.45 62.387 1401.43 67.0013 1399.38 69.9961C1397.34 72.9909 1394.2 74.4883 1389.95 74.4883C1385.83 74.4883 1382.72 72.9421 1380.62 69.8496C1378.54 66.7572 1377.5 62.1917 1377.5 56.1533C1377.5 49.8545 1378.52 45.2158 1380.55 42.2373C1382.59 39.2425 1385.72 37.7451 1389.95 37.7451C1394.07 37.7451 1397.18 39.3076 1399.28 42.4326C1401.39 45.5576 1402.45 50.1312 1402.45 56.1533ZM1385 56.1533C1385 60.5316 1385.37 63.6729 1386.12 65.5771C1386.88 67.4652 1388.16 68.4092 1389.95 68.4092C1391.71 68.4092 1392.98 67.4489 1393.76 65.5283C1394.54 63.6077 1394.93 60.4827 1394.93 56.1533C1394.93 51.7751 1394.53 48.6338 1393.74 46.7295C1392.95 44.8089 1391.69 43.8486 1389.95 43.8486C1388.18 43.8486 1386.91 44.8089 1386.14 46.7295C1385.38 48.6338 1385 51.7751 1385 56.1533Z" fill="white"/>
<line x1="1" y1="148" x2="1908" y2="148" stroke="url(#paint0_linear)" stroke-width="80"/>
<circle cx="273.28" cy="746.431" r="175.431" stroke="#0FDF49" stroke-width="176.233"/>
<circle cx="926.28" cy="746.431" r="175.431" stroke="#0FDF49" stroke-width="176.233"/>
<circle cx="1568.43" cy="750.431" r="175.431" stroke="#2A3254" stroke-width="176.233"/>
<path d="M448.712 746.431C448.712 649.543 370.168 571 273.28 571" stroke="#FF4D00" stroke-width="176.233"/>
<path d="M1101.71 746.431C1101.71 649.543 1023.17 571 926.28 571" stroke="#FF4D00" stroke-width="176.233"/>
<path d="M273.28 571C176.392 571 97.8486 649.543 97.8486 746.431C97.8486 843.32 176.392 921.863 273.28 921.863C285.636 921.863 297.693 920.586 309.328 918.156" stroke="#01AEF8" stroke-width="176.233"/>
<path d="M926.28 571C829.392 571 750.849 649.543 750.849 746.431C750.849 843.32 829.392 921.863 926.28 921.863C938.636 921.863 950.693 920.586 962.328 918.156" stroke="#01AEF8" stroke-width="176.233"/>
<path d="M69.8867 163H66.5664V151.203C64.6263 151.893 63.0117 152.368 61.7227 152.629C60.4336 152.876 59.099 153 57.7188 153C55.0234 153 52.9466 152.382 51.4883 151.145C50.043 149.908 49.3203 148.124 49.3203 145.793V134.445H52.6406V145.402C52.6406 146.978 53.0508 148.143 53.8711 148.898C54.7044 149.654 56.0521 150.031 57.9141 150.031C59.1771 150.031 60.3815 149.94 61.5273 149.758C62.6862 149.562 64.3659 149.107 66.5664 148.391V134.445H69.8867V163ZM80.2969 141.594V155.168L80.1602 158.723L80.1016 159.836L91.6836 141.594H95.7266V163H92.6992V149.914L92.7578 147.336L92.8555 144.797L81.293 163H77.25V141.594H80.2969ZM111.156 163.391C108.057 163.391 105.655 162.44 103.949 160.539C102.257 158.625 101.41 155.923 101.41 152.434C101.41 148.853 102.27 146.086 103.988 144.133C105.72 142.18 108.181 141.203 111.371 141.203C112.4 141.203 113.428 141.314 114.457 141.535C115.486 141.757 116.293 142.017 116.879 142.316L115.883 145.07C115.167 144.784 114.385 144.549 113.539 144.367C112.693 144.172 111.944 144.074 111.293 144.074C106.944 144.074 104.77 146.848 104.77 152.395C104.77 155.025 105.297 157.043 106.352 158.449C107.419 159.855 108.995 160.559 111.078 160.559C112.862 160.559 114.691 160.174 116.566 159.406V162.277C115.134 163.02 113.331 163.391 111.156 163.391ZM137.621 163H134.34V144.367H127.914C127.562 149.003 127.074 152.681 126.449 155.402C125.824 158.124 125.01 160.116 124.008 161.379C123.018 162.642 121.755 163.273 120.219 163.273C119.516 163.273 118.956 163.195 118.539 163.039V160.637C118.826 160.715 119.151 160.754 119.516 160.754C121.013 160.754 122.204 159.172 123.09 156.008C123.975 152.844 124.646 148.039 125.102 141.594H137.621V163ZM162.992 152.277C162.992 155.767 162.113 158.495 160.355 160.461C158.598 162.414 156.169 163.391 153.07 163.391C151.156 163.391 149.457 162.941 147.973 162.043C146.488 161.145 145.342 159.855 144.535 158.176C143.728 156.496 143.324 154.53 143.324 152.277C143.324 148.788 144.197 146.073 145.941 144.133C147.686 142.18 150.108 141.203 153.207 141.203C156.202 141.203 158.578 142.199 160.336 144.191C162.107 146.184 162.992 148.879 162.992 152.277ZM146.684 152.277C146.684 155.012 147.23 157.095 148.324 158.527C149.418 159.96 151.026 160.676 153.148 160.676C155.271 160.676 156.879 159.966 157.973 158.547C159.079 157.115 159.633 155.025 159.633 152.277C159.633 149.556 159.079 147.492 157.973 146.086C156.879 144.667 155.258 143.957 153.109 143.957C150.987 143.957 149.385 144.654 148.305 146.047C147.224 147.44 146.684 149.517 146.684 152.277ZM196.449 146.965C196.449 148.358 196.046 149.419 195.238 150.148C194.444 150.865 193.324 151.346 191.879 151.594V151.77C193.702 152.017 195.03 152.551 195.863 153.371C196.71 154.191 197.133 155.324 197.133 156.77C197.133 158.762 196.397 160.298 194.926 161.379C193.467 162.46 191.332 163 188.52 163H179.086V141.594H188.48C193.793 141.594 196.449 143.384 196.449 146.965ZM193.891 156.555C193.891 155.396 193.448 154.556 192.562 154.035C191.69 153.501 190.238 153.234 188.207 153.234H182.328V160.285H188.285C192.022 160.285 193.891 159.042 193.891 156.555ZM193.285 147.277C193.285 146.236 192.882 145.5 192.074 145.07C191.28 144.628 190.069 144.406 188.441 144.406H182.328V150.441H187.816C189.822 150.441 191.234 150.194 192.055 149.699C192.875 149.204 193.285 148.397 193.285 147.277ZM205.102 150.441H210.941C213.663 150.441 215.674 150.949 216.977 151.965C218.292 152.967 218.949 154.471 218.949 156.477C218.949 158.625 218.253 160.253 216.859 161.359C215.479 162.453 213.441 163 210.746 163H201.859V141.594H205.102V150.441ZM225.785 163H222.543V141.594H225.785V163ZM205.102 153.234V160.285H210.59C214.027 160.285 215.746 159.081 215.746 156.672C215.746 155.474 215.349 154.602 214.555 154.055C213.76 153.508 212.406 153.234 210.492 153.234H205.102ZM231.566 150.168C231.566 145.48 232.257 141.828 233.637 139.211C235.017 136.581 237.204 134.94 240.199 134.289C243.923 133.495 247.204 132.85 250.043 132.355L250.648 135.207C246.13 135.962 242.901 136.561 240.961 137.004C239.073 137.434 237.654 138.449 236.703 140.051C235.766 141.652 235.251 143.833 235.16 146.594H235.395C236.202 145.5 237.243 144.641 238.52 144.016C239.796 143.391 241.13 143.078 242.523 143.078C245.154 143.078 247.204 143.931 248.676 145.637C250.147 147.342 250.883 149.706 250.883 152.727C250.883 156.073 250.03 158.69 248.324 160.578C246.618 162.453 244.242 163.391 241.195 163.391C238.188 163.391 235.831 162.238 234.125 159.934C232.419 157.629 231.566 154.374 231.566 150.168ZM241.488 160.676C245.46 160.676 247.445 158.143 247.445 153.078C247.445 148.247 245.642 145.832 242.035 145.832C241.046 145.832 240.089 146.04 239.164 146.457C238.253 146.861 237.413 147.401 236.645 148.078C235.889 148.755 235.303 149.452 234.887 150.168C234.887 153.592 235.427 156.203 236.508 158C237.589 159.784 239.249 160.676 241.488 160.676ZM259.789 150.441H265.629C268.35 150.441 270.362 150.949 271.664 151.965C272.979 152.967 273.637 154.471 273.637 156.477C273.637 158.625 272.94 160.253 271.547 161.359C270.167 162.453 268.129 163 265.434 163H256.547V141.594H259.789V150.441ZM280.473 163H277.23V141.594H280.473V163ZM259.789 153.234V160.285H265.277C268.715 160.285 270.434 159.081 270.434 156.672C270.434 155.474 270.036 154.602 269.242 154.055C268.448 153.508 267.094 153.234 265.18 153.234H259.789ZM304.73 146.965C304.73 148.358 304.327 149.419 303.52 150.148C302.725 150.865 301.605 151.346 300.16 151.594V151.77C301.983 152.017 303.311 152.551 304.145 153.371C304.991 154.191 305.414 155.324 305.414 156.77C305.414 158.762 304.678 160.298 303.207 161.379C301.749 162.46 299.613 163 296.801 163H287.367V141.594H296.762C302.074 141.594 304.73 143.384 304.73 146.965ZM302.172 156.555C302.172 155.396 301.729 154.556 300.844 154.035C299.971 153.501 298.52 153.234 296.488 153.234H290.609V160.285H296.566C300.303 160.285 302.172 159.042 302.172 156.555ZM301.566 147.277C301.566 146.236 301.163 145.5 300.355 145.07C299.561 144.628 298.35 144.406 296.723 144.406H290.609V150.441H296.098C298.103 150.441 299.516 150.194 300.336 149.699C301.156 149.204 301.566 148.397 301.566 147.277ZM326.098 160.207H335.59V141.594H338.871V163H310.141V141.594H313.383V160.207H322.855V141.594H326.098V160.207ZM348.812 141.594V155.168L348.676 158.723L348.617 159.836L360.199 141.594H364.242V163H361.215V149.914L361.273 147.336L361.371 144.797L349.809 163H345.766V141.594H348.812ZM376.273 152.043L368.832 141.594H372.523L378.168 149.797L383.793 141.594H387.445L380.004 152.043L387.836 163H384.164L378.168 154.328L372.113 163H368.441L376.273 152.043Z" fill="white"/>
<path d="M46.4395 322H29.8428V276.561L30.0039 269.095L30.2725 260.931C27.5153 263.688 25.5996 265.496 24.5254 266.355L15.502 273.606L7.49902 263.616L32.7969 243.475H46.4395V322ZM96.8203 271.834C104.411 271.834 110.445 273.965 114.921 278.226C119.433 282.487 121.688 288.323 121.688 295.735C121.688 304.508 118.985 311.258 113.578 315.984C108.171 320.711 100.437 323.074 90.375 323.074C81.638 323.074 74.584 321.66 69.2129 318.831V304.49C72.0417 305.994 75.3359 307.229 79.0957 308.196C82.8555 309.127 86.4183 309.593 89.7842 309.593C99.9176 309.593 104.984 305.439 104.984 297.132C104.984 289.218 99.7386 285.262 89.2471 285.262C87.3493 285.262 85.2546 285.459 82.9629 285.853C80.6712 286.211 78.8092 286.604 77.377 287.034L70.7705 283.489L73.7246 243.475H116.317V257.547H88.2803L86.8301 272.962L88.71 272.586C90.8942 272.085 93.5977 271.834 96.8203 271.834ZM182.919 261.038C182.919 265.944 181.433 270.115 178.461 273.553C175.489 276.99 171.317 279.354 165.946 280.643V280.965C172.284 281.753 177.082 283.686 180.341 286.766C183.599 289.809 185.229 293.927 185.229 299.119C185.229 306.674 182.489 312.565 177.011 316.79C171.532 320.979 163.708 323.074 153.539 323.074C145.017 323.074 137.462 321.66 130.873 318.831V304.705C133.917 306.245 137.265 307.498 140.917 308.465C144.569 309.432 148.186 309.915 151.767 309.915C157.245 309.915 161.291 308.984 163.905 307.122C166.519 305.26 167.826 302.27 167.826 298.152C167.826 294.464 166.322 291.85 163.314 290.311C160.307 288.771 155.508 288.001 148.92 288.001H142.958V275.271H149.027C155.115 275.271 159.555 274.484 162.348 272.908C165.176 271.297 166.591 268.558 166.591 264.69C166.591 258.746 162.867 255.774 155.419 255.774C152.841 255.774 150.209 256.204 147.523 257.063C144.874 257.923 141.92 259.409 138.661 261.521L130.98 250.081C138.142 244.925 146.682 242.347 156.601 242.347C164.729 242.347 171.138 243.994 175.829 247.288C180.556 250.582 182.919 255.166 182.919 261.038ZM274.335 261.038C274.335 265.944 272.849 270.115 269.877 273.553C266.905 276.99 262.733 279.354 257.362 280.643V280.965C263.7 281.753 268.498 283.686 271.757 286.766C275.015 289.809 276.645 293.927 276.645 299.119C276.645 306.674 273.905 312.565 268.427 316.79C262.948 320.979 255.124 323.074 244.955 323.074C236.433 323.074 228.878 321.66 222.289 318.831V304.705C225.333 306.245 228.681 307.498 232.333 308.465C235.985 309.432 239.602 309.915 243.183 309.915C248.661 309.915 252.707 308.984 255.321 307.122C257.935 305.26 259.242 302.27 259.242 298.152C259.242 294.464 257.738 291.85 254.73 290.311C251.723 288.771 246.924 288.001 240.336 288.001H234.374V275.271H240.443C246.531 275.271 250.971 274.484 253.764 272.908C256.592 271.297 258.007 268.558 258.007 264.69C258.007 258.746 254.283 255.774 246.835 255.774C244.257 255.774 241.625 256.204 238.939 257.063C236.29 257.923 233.336 259.409 230.077 261.521L222.396 250.081C229.558 244.925 238.098 242.347 248.017 242.347C256.145 242.347 262.554 243.994 267.245 247.288C271.972 250.582 274.335 255.166 274.335 261.038ZM339.809 282.737C339.809 296.451 337.553 306.603 333.041 313.191C328.565 319.78 321.654 323.074 312.309 323.074C303.249 323.074 296.41 319.673 291.791 312.869C287.208 306.066 284.916 296.022 284.916 282.737C284.916 268.88 287.154 258.675 291.63 252.122C296.106 245.534 302.999 242.239 312.309 242.239C321.368 242.239 328.207 245.677 332.826 252.552C337.481 259.427 339.809 269.489 339.809 282.737ZM301.405 282.737C301.405 292.369 302.229 299.28 303.876 303.47C305.559 307.623 308.37 309.7 312.309 309.7C316.176 309.7 318.969 307.588 320.688 303.362C322.406 299.137 323.266 292.262 323.266 282.737C323.266 273.105 322.388 266.194 320.634 262.005C318.915 257.78 316.14 255.667 312.309 255.667C308.406 255.667 305.613 257.78 303.93 262.005C302.247 266.194 301.405 273.105 301.405 282.737ZM403.08 322H348.188V310.452L367.899 290.525C373.736 284.546 377.549 280.41 379.34 278.118C381.13 275.791 382.419 273.642 383.207 271.673C383.995 269.703 384.389 267.662 384.389 265.55C384.389 262.399 383.511 260.053 381.757 258.514C380.038 256.974 377.729 256.204 374.828 256.204C371.785 256.204 368.83 256.902 365.966 258.299C363.101 259.695 360.111 261.683 356.996 264.261L347.973 253.572C351.84 250.278 355.045 247.951 357.587 246.59C360.129 245.229 362.904 244.191 365.912 243.475C368.92 242.723 372.286 242.347 376.01 242.347C380.915 242.347 385.248 243.242 389.008 245.032C392.768 246.823 395.686 249.329 397.763 252.552C399.84 255.774 400.878 259.463 400.878 263.616C400.878 267.233 400.233 270.634 398.944 273.821C397.691 276.972 395.722 280.213 393.036 283.543C390.386 286.873 385.696 291.618 378.964 297.776L368.866 307.283V308.035H403.08V322Z" fill="#FF0000"/>
<path d="M3.08496 407.508V398.963H21.4395V407.508H3.08496ZM61.7715 371.38C66.5566 371.38 70.4076 372.474 73.3242 374.661C76.2637 376.826 77.7334 379.754 77.7334 383.445C77.7334 385.997 77.027 388.276 75.6143 390.281C74.2015 392.264 71.9229 394.041 68.7783 395.613C72.5153 397.618 75.1927 399.715 76.8105 401.902C78.4512 404.067 79.2715 406.448 79.2715 409.046C79.2715 413.147 77.665 416.451 74.4521 418.958C71.2393 421.442 67.0124 422.684 61.7715 422.684C56.3027 422.684 52.0075 421.521 48.8857 419.197C45.764 416.873 44.2031 413.58 44.2031 409.319C44.2031 406.471 44.9551 403.942 46.459 401.731C47.9857 399.521 50.4238 397.573 53.7734 395.887C50.9251 394.087 48.8743 392.161 47.6211 390.11C46.3678 388.06 45.7412 385.815 45.7412 383.377C45.7412 379.799 47.2223 376.906 50.1846 374.695C53.1468 372.485 57.0091 371.38 61.7715 371.38ZM53.9785 408.704C53.9785 410.664 54.6621 412.19 56.0293 413.284C57.3965 414.378 59.265 414.925 61.6348 414.925C64.2552 414.925 66.2148 414.367 67.5137 413.25C68.8125 412.111 69.4619 410.618 69.4619 408.772C69.4619 407.246 68.8125 405.822 67.5137 404.5C66.2376 403.156 64.1527 401.731 61.2588 400.228C56.4053 402.461 53.9785 405.286 53.9785 408.704ZM61.7031 379.104C59.903 379.104 58.4447 379.572 57.3281 380.506C56.2344 381.417 55.6875 382.648 55.6875 384.197C55.6875 385.564 56.1204 386.795 56.9863 387.889C57.875 388.96 59.4701 390.065 61.7715 391.204C64.0046 390.156 65.5654 389.085 66.4541 387.991C67.3428 386.897 67.7871 385.633 67.7871 384.197C67.7871 382.625 67.2174 381.383 66.0781 380.472C64.9388 379.56 63.4805 379.104 61.7031 379.104ZM119.945 371.38C124.73 371.38 128.581 372.474 131.498 374.661C134.438 376.826 135.907 379.754 135.907 383.445C135.907 385.997 135.201 388.276 133.788 390.281C132.375 392.264 130.097 394.041 126.952 395.613C130.689 397.618 133.367 399.715 134.984 401.902C136.625 404.067 137.445 406.448 137.445 409.046C137.445 413.147 135.839 416.451 132.626 418.958C129.413 421.442 125.186 422.684 119.945 422.684C114.477 422.684 110.181 421.521 107.06 419.197C103.938 416.873 102.377 413.58 102.377 409.319C102.377 406.471 103.129 403.942 104.633 401.731C106.16 399.521 108.598 397.573 111.947 395.887C109.099 394.087 107.048 392.161 105.795 390.11C104.542 388.06 103.915 385.815 103.915 383.377C103.915 379.799 105.396 376.906 108.358 374.695C111.321 372.485 115.183 371.38 119.945 371.38ZM112.152 408.704C112.152 410.664 112.836 412.19 114.203 413.284C115.57 414.378 117.439 414.925 119.809 414.925C122.429 414.925 124.389 414.367 125.688 413.25C126.986 412.111 127.636 410.618 127.636 408.772C127.636 407.246 126.986 405.822 125.688 404.5C124.411 403.156 122.326 401.731 119.433 400.228C114.579 402.461 112.152 405.286 112.152 408.704ZM119.877 379.104C118.077 379.104 116.618 379.572 115.502 380.506C114.408 381.417 113.861 382.648 113.861 384.197C113.861 385.564 114.294 386.795 115.16 387.889C116.049 388.96 117.644 390.065 119.945 391.204C122.178 390.156 123.739 389.085 124.628 387.991C125.517 386.897 125.961 385.633 125.961 384.197C125.961 382.625 125.391 381.383 124.252 380.472C123.113 379.56 121.654 379.104 119.877 379.104ZM160.893 390.076C165.723 390.076 169.563 391.432 172.411 394.144C175.282 396.855 176.718 400.569 176.718 405.286C176.718 410.869 174.997 415.164 171.557 418.172C168.116 421.18 163.194 422.684 156.791 422.684C151.231 422.684 146.742 421.784 143.324 419.983V410.857C145.124 411.814 147.221 412.601 149.613 413.216C152.006 413.808 154.273 414.104 156.415 414.104C162.864 414.104 166.088 411.461 166.088 406.175C166.088 401.139 162.75 398.621 156.073 398.621C154.866 398.621 153.533 398.746 152.074 398.997C150.616 399.225 149.431 399.476 148.52 399.749L144.315 397.493L146.195 372.029H173.3V380.984H155.458L154.535 390.794L155.731 390.555C157.121 390.236 158.842 390.076 160.893 390.076ZM199.926 371.38C204.711 371.38 208.562 372.474 211.479 374.661C214.418 376.826 215.888 379.754 215.888 383.445C215.888 385.997 215.181 388.276 213.769 390.281C212.356 392.264 210.077 394.041 206.933 395.613C210.67 397.618 213.347 399.715 214.965 401.902C216.605 404.067 217.426 406.448 217.426 409.046C217.426 413.147 215.819 416.451 212.606 418.958C209.394 421.442 205.167 422.684 199.926 422.684C194.457 422.684 190.162 421.521 187.04 419.197C183.918 416.873 182.357 413.58 182.357 409.319C182.357 406.471 183.109 403.942 184.613 401.731C186.14 399.521 188.578 397.573 191.928 395.887C189.079 394.087 187.029 392.161 185.775 390.11C184.522 388.06 183.896 385.815 183.896 383.377C183.896 379.799 185.377 376.906 188.339 374.695C191.301 372.485 195.163 371.38 199.926 371.38ZM192.133 408.704C192.133 410.664 192.816 412.19 194.184 413.284C195.551 414.378 197.419 414.925 199.789 414.925C202.41 414.925 204.369 414.367 205.668 413.25C206.967 412.111 207.616 410.618 207.616 408.772C207.616 407.246 206.967 405.822 205.668 404.5C204.392 403.156 202.307 401.731 199.413 400.228C194.56 402.461 192.133 405.286 192.133 408.704ZM199.857 379.104C198.057 379.104 196.599 379.572 195.482 380.506C194.389 381.417 193.842 382.648 193.842 384.197C193.842 385.564 194.275 386.795 195.141 387.889C196.029 388.96 197.624 390.065 199.926 391.204C202.159 390.156 203.72 389.085 204.608 387.991C205.497 386.897 205.941 385.633 205.941 384.197C205.941 382.625 205.372 381.383 204.232 380.472C203.093 379.56 201.635 379.104 199.857 379.104Z" fill="white"/>
<path d="M655.085 407.508V398.963H673.439V407.508H655.085ZM714.729 390.076C719.559 390.076 723.399 391.432 726.247 394.144C729.118 396.855 730.554 400.569 730.554 405.286C730.554 410.869 728.833 415.164 725.393 418.172C721.952 421.18 717.03 422.684 710.627 422.684C705.067 422.684 700.578 421.784 697.16 419.983V410.857C698.96 411.814 701.057 412.601 703.449 413.216C705.842 413.808 708.109 414.104 710.251 414.104C716.7 414.104 719.924 411.461 719.924 406.175C719.924 401.139 716.586 398.621 709.909 398.621C708.701 398.621 707.368 398.746 705.91 398.997C704.452 399.225 703.267 399.476 702.355 399.749L698.151 397.493L700.031 372.029H727.136V380.984H709.294L708.371 390.794L709.567 390.555C710.957 390.236 712.678 390.076 714.729 390.076ZM772.902 390.076C777.733 390.076 781.573 391.432 784.421 394.144C787.292 396.855 788.728 400.569 788.728 405.286C788.728 410.869 787.007 415.164 783.566 418.172C780.126 421.18 775.204 422.684 768.801 422.684C763.241 422.684 758.752 421.784 755.334 419.983V410.857C757.134 411.814 759.23 412.601 761.623 413.216C764.016 413.808 766.283 414.104 768.425 414.104C774.873 414.104 778.098 411.461 778.098 406.175C778.098 401.139 774.759 398.621 768.083 398.621C766.875 398.621 765.542 398.746 764.084 398.997C762.626 399.225 761.441 399.476 760.529 399.749L756.325 397.493L758.205 372.029H785.31V380.984H767.468L766.545 390.794L767.741 390.555C769.131 390.236 770.852 390.076 772.902 390.076ZM829.367 397.015C829.367 405.742 827.932 412.202 825.061 416.395C822.212 420.587 817.814 422.684 811.867 422.684C806.102 422.684 801.75 420.519 798.811 416.189C795.894 411.86 794.436 405.468 794.436 397.015C794.436 388.196 795.86 381.702 798.708 377.532C801.556 373.34 805.943 371.243 811.867 371.243C817.632 371.243 821.984 373.431 824.924 377.806C827.886 382.181 829.367 388.584 829.367 397.015ZM804.929 397.015C804.929 403.144 805.453 407.542 806.501 410.208C807.572 412.851 809.361 414.173 811.867 414.173C814.328 414.173 816.105 412.828 817.199 410.14C818.293 407.451 818.84 403.076 818.84 397.015C818.84 390.885 818.282 386.487 817.165 383.821C816.071 381.132 814.305 379.788 811.867 379.788C809.383 379.788 807.606 381.132 806.535 383.821C805.464 386.487 804.929 390.885 804.929 397.015ZM834.357 400.774C834.357 390.885 836.442 383.525 840.612 378.694C844.805 373.864 851.071 371.448 859.411 371.448C862.259 371.448 864.493 371.619 866.11 371.961V380.403C864.082 379.948 862.077 379.72 860.095 379.72C856.472 379.72 853.509 380.267 851.208 381.36C848.929 382.454 847.22 384.072 846.081 386.214C844.942 388.356 844.27 391.398 844.064 395.34H844.509C846.765 391.466 850.376 389.529 855.344 389.529C859.81 389.529 863.308 390.931 865.837 393.733C868.366 396.536 869.631 400.41 869.631 405.354C869.631 410.687 868.127 414.913 865.119 418.035C862.111 421.134 857.941 422.684 852.609 422.684C848.918 422.684 845.694 421.829 842.937 420.12C840.202 418.411 838.083 415.916 836.579 412.635C835.098 409.354 834.357 405.4 834.357 400.774ZM852.404 414.241C854.66 414.241 856.392 413.489 857.6 411.985C858.807 410.459 859.411 408.294 859.411 405.491C859.411 403.053 858.841 401.139 857.702 399.749C856.586 398.336 854.888 397.63 852.609 397.63C850.467 397.63 848.633 398.325 847.106 399.715C845.603 401.105 844.851 402.723 844.851 404.568C844.851 407.28 845.557 409.57 846.97 411.438C848.405 413.307 850.217 414.241 852.404 414.241Z" fill="white"/>
<path d="M1313.08 407.508V398.963H1331.44V407.508H1313.08ZM1390.6 411.644H1384.59V422H1374.27V411.644H1352.94V404.295L1374.85 372.029H1384.59V403.44H1390.6V411.644ZM1374.27 403.44V394.964C1374.27 393.551 1374.32 391.5 1374.44 388.812C1374.55 386.123 1374.64 384.562 1374.71 384.129H1374.44C1373.59 385.997 1372.58 387.82 1371.4 389.598L1362.24 403.44H1374.27ZM1447.45 393.357C1447.45 403.201 1445.37 410.55 1441.22 415.403C1437.08 420.257 1430.8 422.684 1422.39 422.684C1419.43 422.684 1417.18 422.524 1415.66 422.205V413.729C1417.57 414.207 1419.58 414.446 1421.67 414.446C1425.21 414.446 1428.11 413.934 1430.39 412.908C1432.67 411.86 1434.41 410.231 1435.62 408.021C1436.83 405.787 1437.52 402.723 1437.7 398.826H1437.29C1435.97 400.968 1434.45 402.472 1432.71 403.338C1430.98 404.204 1428.82 404.637 1426.22 404.637C1421.87 404.637 1418.44 403.247 1415.93 400.467C1413.43 397.664 1412.17 393.779 1412.17 388.812C1412.17 383.457 1413.69 379.23 1416.72 376.131C1419.77 373.009 1423.92 371.448 1429.16 371.448C1432.85 371.448 1436.07 372.314 1438.83 374.046C1441.61 375.778 1443.74 378.296 1445.22 381.6C1446.7 384.881 1447.45 388.8 1447.45 393.357ZM1429.36 379.925C1427.18 379.925 1425.47 380.677 1424.24 382.181C1423.01 383.685 1422.39 385.849 1422.39 388.675C1422.39 391.09 1422.95 393.004 1424.07 394.417C1425.18 395.83 1426.88 396.536 1429.16 396.536C1431.3 396.536 1433.14 395.841 1434.66 394.451C1436.19 393.038 1436.95 391.421 1436.95 389.598C1436.95 386.886 1436.23 384.596 1434.8 382.728C1433.39 380.859 1431.57 379.925 1429.36 379.925ZM1470.89 390.076C1475.72 390.076 1479.56 391.432 1482.41 394.144C1485.28 396.855 1486.72 400.569 1486.72 405.286C1486.72 410.869 1485 415.164 1481.56 418.172C1478.12 421.18 1473.19 422.684 1466.79 422.684C1461.23 422.684 1456.74 421.784 1453.32 419.983V410.857C1455.12 411.814 1457.22 412.601 1459.61 413.216C1462.01 413.808 1464.27 414.104 1466.42 414.104C1472.86 414.104 1476.09 411.461 1476.09 406.175C1476.09 401.139 1472.75 398.621 1466.07 398.621C1464.87 398.621 1463.53 398.746 1462.07 398.997C1460.62 399.225 1459.43 399.476 1458.52 399.749L1454.32 397.493L1456.2 372.029H1483.3V380.984H1465.46L1464.54 390.794L1465.73 390.555C1467.12 390.236 1468.84 390.076 1470.89 390.076ZM1492.36 400.774C1492.36 390.885 1494.44 383.525 1498.61 378.694C1502.81 373.864 1509.07 371.448 1517.41 371.448C1520.26 371.448 1522.49 371.619 1524.11 371.961V380.403C1522.08 379.948 1520.08 379.72 1518.09 379.72C1514.47 379.72 1511.51 380.267 1509.21 381.36C1506.93 382.454 1505.22 384.072 1504.08 386.214C1502.94 388.356 1502.27 391.398 1502.06 395.34H1502.51C1504.76 391.466 1508.38 389.529 1513.34 389.529C1517.81 389.529 1521.31 390.931 1523.84 393.733C1526.37 396.536 1527.63 400.41 1527.63 405.354C1527.63 410.687 1526.13 414.913 1523.12 418.035C1520.11 421.134 1515.94 422.684 1510.61 422.684C1506.92 422.684 1503.69 421.829 1500.94 420.12C1498.2 418.411 1496.08 415.916 1494.58 412.635C1493.1 409.354 1492.36 405.4 1492.36 400.774ZM1510.4 414.241C1512.66 414.241 1514.39 413.489 1515.6 411.985C1516.81 410.459 1517.41 408.294 1517.41 405.491C1517.41 403.053 1516.84 401.139 1515.7 399.749C1514.59 398.336 1512.89 397.63 1510.61 397.63C1508.47 397.63 1506.63 398.325 1505.11 399.715C1503.6 401.105 1502.85 402.723 1502.85 404.568C1502.85 407.28 1503.56 409.57 1504.97 411.438C1506.41 413.307 1508.22 414.241 1510.4 414.241Z" fill="white"/>
<path d="M692.439 322H675.843V276.561L676.004 269.095L676.272 260.931C673.515 263.688 671.6 265.496 670.525 266.355L661.502 273.606L653.499 263.616L678.797 243.475H692.439V322ZM770.911 305.726H761.458V322H745.237V305.726H711.722V294.178L746.15 243.475H761.458V292.835H770.911V305.726ZM745.237 292.835V279.515C745.237 277.295 745.327 274.072 745.506 269.847C745.685 265.621 745.828 263.169 745.936 262.488H745.506C744.181 265.424 742.588 268.289 740.726 271.082L726.331 292.835H745.237ZM833.753 305.726H824.3V322H808.079V305.726H774.563V294.178L808.992 243.475H824.3V292.835H833.753V305.726ZM808.079 292.835V279.515C808.079 277.295 808.169 274.072 808.348 269.847C808.527 265.621 808.67 263.169 808.777 262.488H808.348C807.023 265.424 805.429 268.289 803.567 271.082L789.173 292.835H808.079ZM876.292 322L905.779 257.547H867.054V243.582H923.396V254.002L893.694 322H876.292ZM959.92 271.834C967.511 271.834 973.545 273.965 978.021 278.226C982.532 282.487 984.788 288.323 984.788 295.735C984.788 304.508 982.085 311.258 976.678 315.984C971.271 320.711 963.536 323.074 953.475 323.074C944.738 323.074 937.684 321.66 932.312 318.831V304.49C935.141 305.994 938.436 307.229 942.195 308.196C945.955 309.127 949.518 309.593 952.884 309.593C963.017 309.593 968.084 305.439 968.084 297.132C968.084 289.218 962.838 285.262 952.347 285.262C950.449 285.262 948.354 285.459 946.062 285.853C943.771 286.211 941.909 286.604 940.477 287.034L933.87 283.489L936.824 243.475H979.417V257.547H951.38L949.93 272.962L951.81 272.586C953.994 272.085 956.697 271.834 959.92 271.834ZM1021.26 242.454C1028.78 242.454 1034.83 244.173 1039.41 247.61C1044.03 251.012 1046.34 255.613 1046.34 261.414C1046.34 265.424 1045.23 269.005 1043.01 272.156C1040.79 275.271 1037.21 278.064 1032.27 280.535C1038.14 283.686 1042.35 286.98 1044.89 290.418C1047.47 293.82 1048.76 297.562 1048.76 301.644C1048.76 308.089 1046.23 313.281 1041.18 317.22C1036.14 321.123 1029.49 323.074 1021.26 323.074C1012.66 323.074 1005.91 321.248 1001.01 317.596C996.103 313.943 993.65 308.769 993.65 302.073C993.65 297.597 994.832 293.623 997.195 290.149C999.594 286.676 1003.43 283.615 1008.69 280.965C1004.21 278.136 1000.99 275.11 999.021 271.888C997.052 268.665 996.067 265.138 996.067 261.307C996.067 255.685 998.395 251.137 1003.05 247.664C1007.7 244.191 1013.77 242.454 1021.26 242.454ZM1009.01 301.106C1009.01 304.186 1010.09 306.585 1012.23 308.304C1014.38 310.022 1017.32 310.882 1021.04 310.882C1025.16 310.882 1028.24 310.005 1030.28 308.25C1032.32 306.46 1033.34 304.114 1033.34 301.214C1033.34 298.815 1032.32 296.577 1030.28 294.5C1028.28 292.387 1025 290.149 1020.45 287.786C1012.83 291.295 1009.01 295.735 1009.01 301.106ZM1021.15 254.593C1018.32 254.593 1016.03 255.327 1014.28 256.795C1012.56 258.227 1011.7 260.161 1011.7 262.596C1011.7 264.744 1012.38 266.678 1013.74 268.396C1015.13 270.079 1017.64 271.816 1021.26 273.606C1024.77 271.959 1027.22 270.276 1028.62 268.558C1030.01 266.839 1030.71 264.852 1030.71 262.596C1030.71 260.125 1029.82 258.174 1028.03 256.741C1026.24 255.309 1023.94 254.593 1021.15 254.593Z" fill="#FF0000"/>
<path d="M1338.44 322H1321.84V276.561L1322 269.095L1322.27 260.931C1319.52 263.688 1317.6 265.496 1316.53 266.355L1307.5 273.606L1299.5 263.616L1324.8 243.475H1338.44V322ZM1415.14 322H1360.25V310.452L1379.96 290.525C1385.79 284.546 1389.61 280.41 1391.4 278.118C1393.19 275.791 1394.48 273.642 1395.27 271.673C1396.05 269.703 1396.45 267.662 1396.45 265.55C1396.45 262.399 1395.57 260.053 1393.82 258.514C1392.1 256.974 1389.79 256.204 1386.89 256.204C1383.84 256.204 1380.89 256.902 1378.02 258.299C1375.16 259.695 1372.17 261.683 1369.05 264.261L1360.03 253.572C1363.9 250.278 1367.1 247.951 1369.65 246.59C1372.19 245.229 1374.96 244.191 1377.97 243.475C1380.98 242.723 1384.34 242.347 1388.07 242.347C1392.97 242.347 1397.31 243.242 1401.07 245.032C1404.83 246.823 1407.74 249.329 1409.82 252.552C1411.9 255.774 1412.94 259.463 1412.94 263.616C1412.94 267.233 1412.29 270.634 1411 273.821C1409.75 276.972 1407.78 280.213 1405.09 283.543C1402.44 286.873 1397.75 291.618 1391.02 297.776L1380.92 307.283V308.035H1415.14V322ZM1451.66 271.834C1459.25 271.834 1465.29 273.965 1469.76 278.226C1474.27 282.487 1476.53 288.323 1476.53 295.735C1476.53 304.508 1473.83 311.258 1468.42 315.984C1463.01 320.711 1455.28 323.074 1445.22 323.074C1436.48 323.074 1429.43 321.66 1424.05 318.831V304.49C1426.88 305.994 1430.18 307.229 1433.94 308.196C1437.7 309.127 1441.26 309.593 1444.63 309.593C1454.76 309.593 1459.83 305.439 1459.83 297.132C1459.83 289.218 1454.58 285.262 1444.09 285.262C1442.19 285.262 1440.1 285.459 1437.8 285.853C1435.51 286.211 1433.65 286.604 1432.22 287.034L1425.61 283.489L1428.57 243.475H1471.16V257.547H1443.12L1441.67 272.962L1443.55 272.586C1445.74 272.085 1448.44 271.834 1451.66 271.834ZM1555.54 322H1538.94V276.561L1539.1 269.095L1539.37 260.931C1536.61 263.688 1534.7 265.496 1533.62 266.355L1524.6 273.606L1516.6 263.616L1541.9 243.475H1555.54V322ZM1618.38 322H1601.78V276.561L1601.95 269.095L1602.21 260.931C1599.46 263.688 1597.54 265.496 1596.47 266.355L1587.44 273.606L1579.44 263.616L1604.74 243.475H1618.38V322ZM1667.26 242.454C1674.78 242.454 1680.83 244.173 1685.41 247.61C1690.03 251.012 1692.34 255.613 1692.34 261.414C1692.34 265.424 1691.23 269.005 1689.01 272.156C1686.79 275.271 1683.21 278.064 1678.27 280.535C1684.14 283.686 1688.35 286.98 1690.89 290.418C1693.47 293.82 1694.76 297.562 1694.76 301.644C1694.76 308.089 1692.23 313.281 1687.18 317.22C1682.14 321.123 1675.49 323.074 1667.26 323.074C1658.66 323.074 1651.91 321.248 1647.01 317.596C1642.1 313.943 1639.65 308.769 1639.65 302.073C1639.65 297.597 1640.83 293.623 1643.2 290.149C1645.59 286.676 1649.43 283.615 1654.69 280.965C1650.21 278.136 1646.99 275.11 1645.02 271.888C1643.05 268.665 1642.07 265.138 1642.07 261.307C1642.07 255.685 1644.39 251.137 1649.05 247.664C1653.7 244.191 1659.77 242.454 1667.26 242.454ZM1655.01 301.106C1655.01 304.186 1656.09 306.585 1658.23 308.304C1660.38 310.022 1663.32 310.882 1667.04 310.882C1671.16 310.882 1674.24 310.005 1676.28 308.25C1678.32 306.46 1679.34 304.114 1679.34 301.214C1679.34 298.815 1678.32 296.577 1676.28 294.5C1674.28 292.387 1671 290.149 1666.45 287.786C1658.83 291.295 1655.01 295.735 1655.01 301.106ZM1667.15 254.593C1664.32 254.593 1662.03 255.327 1660.28 256.795C1658.56 258.227 1657.7 260.161 1657.7 262.596C1657.7 264.744 1658.38 266.678 1659.74 268.396C1661.13 270.079 1663.64 271.816 1667.26 273.606C1670.77 271.959 1673.22 270.276 1674.62 268.558C1676.01 266.839 1676.71 264.852 1676.71 262.596C1676.71 260.125 1675.82 258.174 1674.03 256.741C1672.24 255.309 1669.94 254.593 1667.15 254.593Z" fill="#FF0000"/>
<path d="M72.9902 751.807C76.4408 751.807 79.1833 752.775 81.2178 754.712C83.2686 756.649 84.2939 759.302 84.2939 762.671C84.2939 766.659 83.0651 769.727 80.6074 771.875C78.1497 774.023 74.6341 775.098 70.0605 775.098C66.0892 775.098 62.8828 774.455 60.4414 773.169V766.65C61.7272 767.334 63.2246 767.896 64.9336 768.335C66.6426 768.758 68.262 768.97 69.792 768.97C74.3981 768.97 76.7012 767.082 76.7012 763.306C76.7012 759.709 74.3167 757.91 69.5479 757.91C68.6852 757.91 67.7331 758 66.6914 758.179C65.6497 758.341 64.8034 758.521 64.1523 758.716L61.1494 757.104L62.4922 738.916H81.8525V745.312H69.1084L68.4492 752.319L69.3037 752.148C70.2965 751.921 71.5254 751.807 72.9902 751.807ZM100.871 738.452C104.289 738.452 107.04 739.233 109.123 740.796C111.223 742.342 112.272 744.434 112.272 747.07C112.272 748.893 111.768 750.521 110.759 751.953C109.75 753.369 108.122 754.639 105.876 755.762C108.545 757.194 110.458 758.691 111.613 760.254C112.785 761.8 113.371 763.501 113.371 765.356C113.371 768.286 112.224 770.646 109.929 772.437C107.634 774.211 104.615 775.098 100.871 775.098C96.9648 775.098 93.8968 774.268 91.667 772.607C89.4372 770.947 88.3223 768.595 88.3223 765.552C88.3223 763.517 88.8594 761.711 89.9336 760.132C91.0241 758.553 92.7656 757.161 95.1582 755.957C93.1237 754.671 91.6589 753.296 90.7637 751.831C89.8685 750.366 89.4209 748.763 89.4209 747.021C89.4209 744.466 90.4788 742.399 92.5947 740.82C94.7106 739.242 97.4694 738.452 100.871 738.452ZM95.3047 765.112C95.3047 766.512 95.793 767.603 96.7695 768.384C97.7461 769.165 99.0807 769.556 100.773 769.556C102.645 769.556 104.045 769.157 104.973 768.359C105.9 767.546 106.364 766.479 106.364 765.161C106.364 764.071 105.9 763.053 104.973 762.109C104.061 761.149 102.572 760.132 100.505 759.058C97.0381 760.653 95.3047 762.671 95.3047 765.112ZM100.822 743.97C99.5365 743.97 98.4948 744.303 97.6973 744.971C96.916 745.622 96.5254 746.501 96.5254 747.607C96.5254 748.584 96.8346 749.463 97.4531 750.244C98.0879 751.009 99.2272 751.799 100.871 752.612C102.466 751.864 103.581 751.099 104.216 750.317C104.851 749.536 105.168 748.633 105.168 747.607C105.168 746.484 104.761 745.597 103.947 744.946C103.133 744.295 102.092 743.97 100.822 743.97ZM122.819 749.609C122.819 751.676 122.998 753.223 123.356 754.248C123.731 755.257 124.325 755.762 125.139 755.762C126.701 755.762 127.482 753.711 127.482 749.609C127.482 745.54 126.701 743.506 125.139 743.506C124.325 743.506 123.731 744.01 123.356 745.02C122.998 746.012 122.819 747.542 122.819 749.609ZM133.635 749.561C133.635 753.304 132.91 756.12 131.462 758.008C130.013 759.88 127.889 760.815 125.09 760.815C122.404 760.815 120.329 759.855 118.864 757.935C117.399 755.998 116.667 753.206 116.667 749.561C116.667 742.122 119.475 738.403 125.09 738.403C127.84 738.403 129.948 739.372 131.413 741.309C132.894 743.229 133.635 745.98 133.635 749.561ZM150.432 738.916L130.632 774.609H124.772L144.572 738.916H150.432ZM147.819 763.867C147.819 765.934 147.998 767.48 148.356 768.506C148.731 769.515 149.325 770.02 150.139 770.02C151.701 770.02 152.482 767.969 152.482 763.867C152.482 759.798 151.701 757.764 150.139 757.764C149.325 757.764 148.731 758.268 148.356 759.277C147.998 760.27 147.819 761.8 147.819 763.867ZM158.635 763.818C158.635 767.546 157.91 770.353 156.462 772.241C155.013 774.113 152.889 775.049 150.09 775.049C147.404 775.049 145.329 774.089 143.864 772.168C142.399 770.231 141.667 767.448 141.667 763.818C141.667 756.38 144.475 752.661 150.09 752.661C152.84 752.661 154.948 753.63 156.413 755.566C157.894 757.487 158.635 760.238 158.635 763.818Z" fill="white"/>
<path d="M725.99 751.807C729.441 751.807 732.183 752.775 734.218 754.712C736.269 756.649 737.294 759.302 737.294 762.671C737.294 766.659 736.065 769.727 733.607 771.875C731.15 774.023 727.634 775.098 723.061 775.098C719.089 775.098 715.883 774.455 713.441 773.169V766.65C714.727 767.334 716.225 767.896 717.934 768.335C719.643 768.758 721.262 768.97 722.792 768.97C727.398 768.97 729.701 767.082 729.701 763.306C729.701 759.709 727.317 757.91 722.548 757.91C721.685 757.91 720.733 758 719.691 758.179C718.65 758.341 717.803 758.521 717.152 758.716L714.149 757.104L715.492 738.916H734.853V745.312H722.108L721.449 752.319L722.304 752.148C723.297 751.921 724.525 751.807 725.99 751.807ZM745.106 774.609L758.51 745.312H740.907V738.965H766.518V743.701L753.017 774.609H745.106ZM775.819 749.609C775.819 751.676 775.998 753.223 776.356 754.248C776.731 755.257 777.325 755.762 778.139 755.762C779.701 755.762 780.482 753.711 780.482 749.609C780.482 745.54 779.701 743.506 778.139 743.506C777.325 743.506 776.731 744.01 776.356 745.02C775.998 746.012 775.819 747.542 775.819 749.609ZM786.635 749.561C786.635 753.304 785.91 756.12 784.462 758.008C783.013 759.88 780.889 760.815 778.09 760.815C775.404 760.815 773.329 759.855 771.864 757.935C770.399 755.998 769.667 753.206 769.667 749.561C769.667 742.122 772.475 738.403 778.09 738.403C780.84 738.403 782.948 739.372 784.413 741.309C785.894 743.229 786.635 745.98 786.635 749.561ZM803.432 738.916L783.632 774.609H777.772L797.572 738.916H803.432ZM800.819 763.867C800.819 765.934 800.998 767.48 801.356 768.506C801.731 769.515 802.325 770.02 803.139 770.02C804.701 770.02 805.482 767.969 805.482 763.867C805.482 759.798 804.701 757.764 803.139 757.764C802.325 757.764 801.731 758.268 801.356 759.277C800.998 760.27 800.819 761.8 800.819 763.867ZM811.635 763.818C811.635 767.546 810.91 770.353 809.462 772.241C808.013 774.113 805.889 775.049 803.09 775.049C800.404 775.049 798.329 774.089 796.864 772.168C795.399 770.231 794.667 767.448 794.667 763.818C794.667 756.38 797.475 752.661 803.09 752.661C805.84 752.661 807.948 753.63 809.413 755.566C810.894 757.487 811.635 760.238 811.635 763.818Z" fill="white"/>
<path d="M376.538 644.838H351.587V639.589L360.547 630.531C363.2 627.813 364.933 625.933 365.747 624.892C366.561 623.834 367.147 622.857 367.505 621.962C367.863 621.067 368.042 620.139 368.042 619.179C368.042 617.747 367.643 616.68 366.846 615.981C366.064 615.281 365.015 614.931 363.696 614.931C362.313 614.931 360.97 615.248 359.668 615.883C358.366 616.518 357.007 617.421 355.591 618.593L351.489 613.734C353.247 612.237 354.704 611.179 355.859 610.561C357.015 609.942 358.276 609.47 359.644 609.145C361.011 608.803 362.541 608.632 364.233 608.632C366.463 608.632 368.433 609.039 370.142 609.853C371.851 610.666 373.177 611.806 374.121 613.271C375.065 614.735 375.537 616.412 375.537 618.3C375.537 619.944 375.244 621.49 374.658 622.939C374.089 624.371 373.193 625.844 371.973 627.358C370.768 628.871 368.636 631.028 365.576 633.827L360.986 638.149V638.49H376.538V644.838ZM405.908 637.441H401.611V644.838H394.238V637.441H379.004V632.192L394.653 609.145H401.611V631.581H405.908V637.441ZM394.238 631.581V625.526C394.238 624.517 394.279 623.053 394.36 621.132C394.442 619.211 394.507 618.096 394.556 617.787H394.36C393.758 619.122 393.034 620.424 392.188 621.693L385.645 631.581H394.238ZM414.404 619.838C414.404 621.905 414.583 623.451 414.941 624.477C415.316 625.486 415.91 625.99 416.724 625.99C418.286 625.99 419.067 623.94 419.067 619.838C419.067 615.769 418.286 613.734 416.724 613.734C415.91 613.734 415.316 614.239 414.941 615.248C414.583 616.241 414.404 617.771 414.404 619.838ZM425.22 619.789C425.22 623.533 424.495 626.348 423.047 628.236C421.598 630.108 419.474 631.044 416.675 631.044C413.989 631.044 411.914 630.084 410.449 628.163C408.984 626.226 408.252 623.435 408.252 619.789C408.252 612.351 411.06 608.632 416.675 608.632C419.425 608.632 421.533 609.6 422.998 611.537C424.479 613.458 425.22 616.208 425.22 619.789ZM442.017 609.145L422.217 644.838H416.357L436.157 609.145H442.017ZM439.404 634.096C439.404 636.163 439.583 637.709 439.941 638.734C440.316 639.744 440.91 640.248 441.724 640.248C443.286 640.248 444.067 638.197 444.067 634.096C444.067 630.027 443.286 627.992 441.724 627.992C440.91 627.992 440.316 628.497 439.941 629.506C439.583 630.499 439.404 632.029 439.404 634.096ZM450.22 634.047C450.22 637.774 449.495 640.582 448.047 642.47C446.598 644.342 444.474 645.277 441.675 645.277C438.989 645.277 436.914 644.317 435.449 642.397C433.984 640.46 433.252 637.677 433.252 634.047C433.252 626.609 436.06 622.89 441.675 622.89C444.425 622.89 446.533 623.858 447.998 625.795C449.479 627.716 450.22 630.466 450.22 634.047Z" fill="white"/>
<path d="M1029.54 644.838H1004.59V639.589L1013.55 630.531C1016.2 627.813 1017.93 625.933 1018.75 624.892C1019.56 623.834 1020.15 622.857 1020.5 621.962C1020.86 621.067 1021.04 620.139 1021.04 619.179C1021.04 617.747 1020.64 616.68 1019.85 615.981C1019.06 615.281 1018.01 614.931 1016.7 614.931C1015.31 614.931 1013.97 615.248 1012.67 615.883C1011.37 616.518 1010.01 617.421 1008.59 618.593L1004.49 613.734C1006.25 612.237 1007.7 611.179 1008.86 610.561C1010.01 609.942 1011.28 609.47 1012.64 609.145C1014.01 608.803 1015.54 608.632 1017.23 608.632C1019.46 608.632 1021.43 609.039 1023.14 609.853C1024.85 610.666 1026.18 611.806 1027.12 613.271C1028.07 614.735 1028.54 616.412 1028.54 618.3C1028.54 619.944 1028.24 621.49 1027.66 622.939C1027.09 624.371 1026.19 625.844 1024.97 627.358C1023.77 628.871 1021.64 631.028 1018.58 633.827L1013.99 638.149V638.49H1029.54V644.838ZM1058.91 637.441H1054.61V644.838H1047.24V637.441H1032V632.192L1047.65 609.145H1054.61V631.581H1058.91V637.441ZM1047.24 631.581V625.526C1047.24 624.517 1047.28 623.053 1047.36 621.132C1047.44 619.211 1047.51 618.096 1047.56 617.787H1047.36C1046.76 619.122 1046.03 620.424 1045.19 621.693L1038.64 631.581H1047.24ZM1067.4 619.838C1067.4 621.905 1067.58 623.451 1067.94 624.477C1068.32 625.486 1068.91 625.99 1069.72 625.99C1071.29 625.99 1072.07 623.94 1072.07 619.838C1072.07 615.769 1071.29 613.734 1069.72 613.734C1068.91 613.734 1068.32 614.239 1067.94 615.248C1067.58 616.241 1067.4 617.771 1067.4 619.838ZM1078.22 619.789C1078.22 623.533 1077.5 626.348 1076.05 628.236C1074.6 630.108 1072.47 631.044 1069.67 631.044C1066.99 631.044 1064.91 630.084 1063.45 628.163C1061.98 626.226 1061.25 623.435 1061.25 619.789C1061.25 612.351 1064.06 608.632 1069.67 608.632C1072.43 608.632 1074.53 609.6 1076 611.537C1077.48 613.458 1078.22 616.208 1078.22 619.789ZM1095.02 609.145L1075.22 644.838H1069.36L1089.16 609.145H1095.02ZM1092.4 634.096C1092.4 636.163 1092.58 637.709 1092.94 638.734C1093.32 639.744 1093.91 640.248 1094.72 640.248C1096.29 640.248 1097.07 638.197 1097.07 634.096C1097.07 630.027 1096.29 627.992 1094.72 627.992C1093.91 627.992 1093.32 628.497 1092.94 629.506C1092.58 630.499 1092.4 632.029 1092.4 634.096ZM1103.22 634.047C1103.22 637.774 1102.5 640.582 1101.05 642.47C1099.6 644.342 1097.47 645.277 1094.67 645.277C1091.99 645.277 1089.91 644.317 1088.45 642.397C1086.98 640.46 1086.25 637.677 1086.25 634.047C1086.25 626.609 1089.06 622.89 1094.67 622.89C1097.43 622.89 1099.53 623.858 1101 625.795C1102.48 627.716 1103.22 630.466 1103.22 634.047Z" fill="white"/>
<path d="M373.443 857.919H365.899V837.265L365.973 833.871L366.095 830.16C364.841 831.414 363.971 832.236 363.482 832.626L359.381 835.922L355.743 831.381L367.242 822.226H373.443V857.919ZM395.66 821.762C399.078 821.762 401.829 822.543 403.912 824.106C406.012 825.652 407.062 827.743 407.062 830.38C407.062 832.203 406.557 833.831 405.548 835.263C404.539 836.679 402.911 837.948 400.665 839.072C403.334 840.504 405.247 842.001 406.402 843.564C407.574 845.11 408.16 846.811 408.16 848.666C408.16 851.596 407.013 853.956 404.718 855.746C402.423 857.52 399.404 858.407 395.66 858.407C391.754 858.407 388.686 857.577 386.456 855.917C384.226 854.257 383.111 851.905 383.111 848.862C383.111 846.827 383.648 845.02 384.723 843.442C385.813 841.863 387.555 840.471 389.947 839.267C387.913 837.981 386.448 836.606 385.553 835.141C384.658 833.676 384.21 832.073 384.21 830.331C384.21 827.776 385.268 825.709 387.384 824.13C389.5 822.551 392.258 821.762 395.66 821.762ZM390.094 848.422C390.094 849.822 390.582 850.912 391.559 851.694C392.535 852.475 393.87 852.865 395.562 852.865C397.434 852.865 398.834 852.467 399.762 851.669C400.689 850.855 401.153 849.789 401.153 848.471C401.153 847.38 400.689 846.363 399.762 845.419C398.85 844.459 397.361 843.442 395.294 842.367C391.827 843.962 390.094 845.981 390.094 848.422ZM395.611 827.28C394.326 827.28 393.284 827.613 392.486 828.281C391.705 828.932 391.314 829.81 391.314 830.917C391.314 831.894 391.624 832.773 392.242 833.554C392.877 834.319 394.016 835.108 395.66 835.922C397.255 835.173 398.37 834.408 399.005 833.627C399.64 832.846 399.957 831.943 399.957 830.917C399.957 829.794 399.55 828.907 398.736 828.256C397.923 827.605 396.881 827.28 395.611 827.28ZM417.608 832.919C417.608 834.986 417.787 836.532 418.146 837.558C418.52 838.567 419.114 839.072 419.928 839.072C421.49 839.072 422.271 837.021 422.271 832.919C422.271 828.85 421.49 826.816 419.928 826.816C419.114 826.816 418.52 827.32 418.146 828.329C417.787 829.322 417.608 830.852 417.608 832.919ZM428.424 832.87C428.424 836.614 427.7 839.43 426.251 841.318C424.802 843.189 422.678 844.125 419.879 844.125C417.193 844.125 415.118 843.165 413.653 841.244C412.188 839.308 411.456 836.516 411.456 832.87C411.456 825.432 414.264 821.713 419.879 821.713C422.63 821.713 424.737 822.682 426.202 824.618C427.683 826.539 428.424 829.29 428.424 832.87ZM445.221 822.226L425.421 857.919H419.562L439.361 822.226H445.221ZM442.608 847.177C442.608 849.244 442.787 850.79 443.146 851.816C443.52 852.825 444.114 853.329 444.928 853.329C446.49 853.329 447.271 851.279 447.271 847.177C447.271 843.108 446.49 841.073 444.928 841.073C444.114 841.073 443.52 841.578 443.146 842.587C442.787 843.58 442.608 845.11 442.608 847.177ZM453.424 847.128C453.424 850.855 452.7 853.663 451.251 855.551C449.802 857.423 447.678 858.359 444.879 858.359C442.193 858.359 440.118 857.398 438.653 855.478C437.188 853.541 436.456 850.758 436.456 847.128C436.456 839.69 439.264 835.971 444.879 835.971C447.63 835.971 449.737 836.939 451.202 838.876C452.683 840.797 453.424 843.547 453.424 847.128Z" fill="white"/>
<path d="M1026.44 857.919H1018.9V837.265L1018.97 833.871L1019.09 830.16C1017.84 831.414 1016.97 832.236 1016.48 832.626L1012.38 835.922L1008.74 831.381L1020.24 822.226H1026.44V857.919ZM1061.16 837.46C1061.16 844.491 1059.68 849.74 1056.72 853.207C1053.75 856.674 1049.27 858.407 1043.26 858.407C1041.15 858.407 1039.55 858.294 1038.46 858.066V852.011C1039.82 852.353 1041.25 852.524 1042.75 852.524C1045.27 852.524 1047.35 852.157 1048.98 851.425C1050.61 850.676 1051.85 849.513 1052.71 847.934C1053.58 846.339 1054.07 844.15 1054.2 841.366H1053.91C1052.97 842.896 1051.87 843.971 1050.64 844.589C1049.4 845.208 1047.85 845.517 1046 845.517C1042.89 845.517 1040.44 844.524 1038.65 842.538C1036.86 840.536 1035.96 837.761 1035.96 834.213C1035.96 830.388 1037.05 827.369 1039.21 825.156C1041.39 822.926 1044.36 821.811 1048.1 821.811C1050.74 821.811 1053.04 822.429 1055.01 823.666C1056.99 824.903 1058.52 826.702 1059.57 829.062C1060.63 831.406 1061.16 834.205 1061.16 837.46ZM1048.25 827.865C1046.68 827.865 1045.46 828.403 1044.58 829.477C1043.7 830.551 1043.26 832.097 1043.26 834.115C1043.26 835.841 1043.66 837.208 1044.46 838.217C1045.26 839.226 1046.47 839.731 1048.1 839.731C1049.63 839.731 1050.94 839.234 1052.03 838.241C1053.12 837.232 1053.67 836.077 1053.67 834.775C1053.67 832.838 1053.15 831.202 1052.13 829.867C1051.12 828.533 1049.82 827.865 1048.25 827.865ZM1070.61 832.919C1070.61 834.986 1070.79 836.532 1071.15 837.558C1071.52 838.567 1072.11 839.072 1072.93 839.072C1074.49 839.072 1075.27 837.021 1075.27 832.919C1075.27 828.85 1074.49 826.816 1072.93 826.816C1072.11 826.816 1071.52 827.32 1071.15 828.329C1070.79 829.322 1070.61 830.852 1070.61 832.919ZM1081.42 832.87C1081.42 836.614 1080.7 839.43 1079.25 841.318C1077.8 843.189 1075.68 844.125 1072.88 844.125C1070.19 844.125 1068.12 843.165 1066.65 841.244C1065.19 839.308 1064.46 836.516 1064.46 832.87C1064.46 825.432 1067.26 821.713 1072.88 821.713C1075.63 821.713 1077.74 822.682 1079.2 824.618C1080.68 826.539 1081.42 829.29 1081.42 832.87ZM1098.22 822.226L1078.42 857.919H1072.56L1092.36 822.226H1098.22ZM1095.61 847.177C1095.61 849.244 1095.79 850.79 1096.15 851.816C1096.52 852.825 1097.11 853.329 1097.93 853.329C1099.49 853.329 1100.27 851.279 1100.27 847.177C1100.27 843.108 1099.49 841.073 1097.93 841.073C1097.11 841.073 1096.52 841.578 1096.15 842.587C1095.79 843.58 1095.61 845.11 1095.61 847.177ZM1106.42 847.128C1106.42 850.855 1105.7 853.663 1104.25 855.551C1102.8 857.423 1100.68 858.359 1097.88 858.359C1095.19 858.359 1093.12 857.398 1091.65 855.478C1090.19 853.541 1089.46 850.758 1089.46 847.128C1089.46 839.69 1092.26 835.971 1097.88 835.971C1100.63 835.971 1102.74 836.939 1104.2 838.876C1105.68 840.797 1106.42 843.547 1106.42 847.128Z" fill="white"/>
<path d="M62.5234 1100H56.4883V1083.48L56.5469 1080.76L56.6445 1077.79C55.6419 1078.8 54.9453 1079.45 54.5547 1079.77L51.2734 1082.4L48.3633 1078.77L57.5625 1071.45H62.5234V1100ZM90.4141 1100H70.4531V1095.8L77.6211 1088.55C79.7435 1086.38 81.1302 1084.88 81.7812 1084.04C82.4323 1083.2 82.901 1082.42 83.1875 1081.7C83.474 1080.98 83.6172 1080.24 83.6172 1079.47C83.6172 1078.33 83.2982 1077.47 82.6602 1076.91C82.0352 1076.35 81.1953 1076.07 80.1406 1076.07C79.0339 1076.07 77.9596 1076.33 76.918 1076.84C75.8763 1077.34 74.7891 1078.07 73.6562 1079L70.375 1075.12C71.7812 1073.92 72.9466 1073.07 73.8711 1072.58C74.7956 1072.08 75.8047 1071.71 76.8984 1071.45C77.9922 1071.17 79.2161 1071.04 80.5703 1071.04C82.3542 1071.04 83.9297 1071.36 85.2969 1072.01C86.6641 1072.66 87.7253 1073.57 88.4805 1074.75C89.2357 1075.92 89.6133 1077.26 89.6133 1078.77C89.6133 1080.08 89.3789 1081.32 88.9102 1082.48C88.4544 1083.63 87.7383 1084.8 86.7617 1086.02C85.7982 1087.23 84.0924 1088.95 81.6445 1091.19L77.9727 1094.65V1094.92H90.4141V1100ZM96.1367 1100L106.859 1076.56H92.7773V1071.48H113.266V1075.27L102.465 1100H96.1367ZM145.395 1077.83C145.395 1079.62 144.854 1081.13 143.773 1082.38C142.693 1083.63 141.176 1084.49 139.223 1084.96V1085.08C141.527 1085.36 143.272 1086.07 144.457 1087.19C145.642 1088.29 146.234 1089.79 146.234 1091.68C146.234 1094.43 145.238 1096.57 143.246 1098.11C141.254 1099.63 138.409 1100.39 134.711 1100.39C131.612 1100.39 128.865 1099.88 126.469 1098.85V1093.71C127.576 1094.27 128.793 1094.73 130.121 1095.08C131.449 1095.43 132.764 1095.61 134.066 1095.61C136.059 1095.61 137.53 1095.27 138.48 1094.59C139.431 1093.91 139.906 1092.83 139.906 1091.33C139.906 1089.99 139.359 1089.04 138.266 1088.48C137.172 1087.92 135.427 1087.64 133.031 1087.64H130.863V1083.01H133.07C135.284 1083.01 136.898 1082.72 137.914 1082.15C138.943 1081.56 139.457 1080.57 139.457 1079.16C139.457 1077 138.103 1075.92 135.395 1075.92C134.457 1075.92 133.5 1076.07 132.523 1076.39C131.56 1076.7 130.486 1077.24 129.301 1078.01L126.508 1073.85C129.112 1071.97 132.217 1071.04 135.824 1071.04C138.78 1071.04 141.111 1071.63 142.816 1072.83C144.535 1074.03 145.395 1075.7 145.395 1077.83ZM159.789 1081.76C162.549 1081.76 164.743 1082.53 166.371 1084.08C168.012 1085.63 168.832 1087.75 168.832 1090.45C168.832 1093.64 167.849 1096.09 165.883 1097.81C163.917 1099.53 161.104 1100.39 157.445 1100.39C154.268 1100.39 151.703 1099.88 149.75 1098.85V1093.63C150.779 1094.18 151.977 1094.63 153.344 1094.98C154.711 1095.32 156.007 1095.49 157.23 1095.49C160.915 1095.49 162.758 1093.98 162.758 1090.96C162.758 1088.08 160.85 1086.64 157.035 1086.64C156.345 1086.64 155.583 1086.71 154.75 1086.86C153.917 1086.99 153.24 1087.13 152.719 1087.29L150.316 1086L151.391 1071.45H166.879V1076.56H156.684L156.156 1082.17L156.84 1082.03C157.634 1081.85 158.617 1081.76 159.789 1081.76ZM192.211 1100H172.25V1095.8L179.418 1088.55C181.54 1086.38 182.927 1084.88 183.578 1084.04C184.229 1083.2 184.698 1082.42 184.984 1081.7C185.271 1080.98 185.414 1080.24 185.414 1079.47C185.414 1078.33 185.095 1077.47 184.457 1076.91C183.832 1076.35 182.992 1076.07 181.938 1076.07C180.831 1076.07 179.757 1076.33 178.715 1076.84C177.673 1077.34 176.586 1078.07 175.453 1079L172.172 1075.12C173.578 1073.92 174.743 1073.07 175.668 1072.58C176.592 1072.08 177.602 1071.71 178.695 1071.45C179.789 1071.17 181.013 1071.04 182.367 1071.04C184.151 1071.04 185.727 1071.36 187.094 1072.01C188.461 1072.66 189.522 1073.57 190.277 1074.75C191.033 1075.92 191.41 1077.26 191.41 1078.77C191.41 1080.08 191.176 1081.32 190.707 1082.48C190.251 1083.63 189.535 1084.8 188.559 1086.02C187.595 1087.23 185.889 1088.95 183.441 1091.19L179.77 1094.65V1094.92H192.211V1100ZM57.9922 1140.39C54.8932 1140.39 52.4909 1139.44 50.7852 1137.54C49.0924 1135.62 48.2461 1132.92 48.2461 1129.43C48.2461 1125.85 49.1055 1123.09 50.8242 1121.13C52.556 1119.18 55.0169 1118.2 58.207 1118.2C59.2357 1118.2 60.2643 1118.31 61.293 1118.54C62.3216 1118.76 63.1289 1119.02 63.7148 1119.32L62.7188 1122.07C62.0026 1121.78 61.2214 1121.55 60.375 1121.37C59.5286 1121.17 58.7799 1121.07 58.1289 1121.07C53.7799 1121.07 51.6055 1123.85 51.6055 1129.39C51.6055 1132.02 52.1328 1134.04 53.1875 1135.45C54.2552 1136.86 55.8307 1137.56 57.9141 1137.56C59.6979 1137.56 61.5273 1137.17 63.4023 1136.41V1139.28C61.9701 1140.02 60.1667 1140.39 57.9922 1140.39ZM82.9336 1121.37H75.9805V1140H72.7383V1121.37H65.8633V1118.59H82.9336V1121.37ZM100.336 1140L99.6914 1136.95H99.5352C98.4674 1138.29 97.3997 1139.21 96.332 1139.69C95.2773 1140.16 93.9557 1140.39 92.3672 1140.39C90.2448 1140.39 88.5781 1139.84 87.3672 1138.75C86.1693 1137.66 85.5703 1136.1 85.5703 1134.08C85.5703 1129.76 89.0273 1127.49 95.9414 1127.29L99.5742 1127.17V1125.84C99.5742 1124.16 99.2096 1122.92 98.4805 1122.13C97.7643 1121.32 96.612 1120.92 95.0234 1120.92C93.2396 1120.92 91.2214 1121.46 88.9688 1122.56L87.9727 1120.08C89.0273 1119.51 90.1797 1119.06 91.4297 1118.73C92.6927 1118.4 93.9557 1118.24 95.2188 1118.24C97.7708 1118.24 99.6589 1118.81 100.883 1119.94C102.12 1121.07 102.738 1122.89 102.738 1125.39V1140H100.336ZM93.0117 1137.71C95.0299 1137.71 96.612 1137.16 97.7578 1136.05C98.9167 1134.95 99.4961 1133.4 99.4961 1131.41V1129.47L96.2539 1129.61C93.6758 1129.7 91.8138 1130.1 90.668 1130.82C89.5352 1131.52 88.9688 1132.62 88.9688 1134.12C88.9688 1135.29 89.3203 1136.18 90.0234 1136.8C90.7396 1137.41 91.7357 1137.71 93.0117 1137.71ZM119.398 1140.39C118.005 1140.39 116.729 1140.14 115.57 1139.63C114.424 1139.11 113.461 1138.31 112.68 1137.25H112.445C112.602 1138.5 112.68 1139.68 112.68 1140.8V1149.61H109.438V1118.59H112.074L112.523 1121.52H112.68C113.513 1120.35 114.483 1119.51 115.59 1118.98C116.697 1118.46 117.966 1118.2 119.398 1118.2C122.237 1118.2 124.424 1119.17 125.961 1121.11C127.51 1123.05 128.285 1125.77 128.285 1129.28C128.285 1132.79 127.497 1135.53 125.922 1137.48C124.359 1139.42 122.185 1140.39 119.398 1140.39ZM118.93 1120.96C116.742 1120.96 115.16 1121.56 114.184 1122.77C113.207 1123.98 112.706 1125.91 112.68 1128.55V1129.28C112.68 1132.29 113.181 1134.44 114.184 1135.74C115.186 1137.03 116.794 1137.68 119.008 1137.68C120.857 1137.68 122.302 1136.93 123.344 1135.43C124.398 1133.93 124.926 1131.87 124.926 1129.24C124.926 1126.57 124.398 1124.52 123.344 1123.11C122.302 1121.67 120.831 1120.96 118.93 1120.96ZM149.926 1137.21H159.418V1118.59H162.699V1140H133.969V1118.59H137.211V1137.21H146.684V1118.59H149.926V1137.21ZM178.637 1140.39C175.473 1140.39 172.973 1139.43 171.137 1137.5C169.314 1135.57 168.402 1132.9 168.402 1129.47C168.402 1126.02 169.249 1123.28 170.941 1121.25C172.647 1119.22 174.932 1118.2 177.797 1118.2C180.479 1118.2 182.602 1119.09 184.164 1120.86C185.727 1122.62 186.508 1124.94 186.508 1127.83V1129.88H171.762C171.827 1132.4 172.458 1134.3 173.656 1135.61C174.867 1136.91 176.566 1137.56 178.754 1137.56C181.059 1137.56 183.337 1137.08 185.59 1136.11V1139C184.444 1139.5 183.357 1139.85 182.328 1140.06C181.312 1140.28 180.082 1140.39 178.637 1140.39ZM177.758 1120.92C176.039 1120.92 174.665 1121.48 173.637 1122.6C172.621 1123.72 172.022 1125.27 171.84 1127.25H183.031C183.031 1125.2 182.576 1123.64 181.664 1122.56C180.753 1121.46 179.451 1120.92 177.758 1120.92ZM212.973 1140H209.809V1119.65C209.809 1117.96 209.861 1116.35 209.965 1114.84C209.691 1115.12 209.385 1115.4 209.047 1115.7C208.708 1116 207.159 1117.27 204.398 1119.51L202.68 1117.29L210.238 1111.45H212.973V1140ZM243.969 1133.44H239.73V1140H236.625V1133.44H222.738V1130.61L236.293 1111.29H239.73V1130.49H243.969V1133.44ZM236.625 1130.49V1121C236.625 1119.13 236.69 1117.03 236.82 1114.69H236.664C236.039 1115.94 235.453 1116.97 234.906 1117.79L225.98 1130.49H236.625ZM274.574 1140H271.293V1121.37H264.867C264.516 1126 264.027 1129.68 263.402 1132.4C262.777 1135.12 261.964 1137.12 260.961 1138.38C259.971 1139.64 258.708 1140.27 257.172 1140.27C256.469 1140.27 255.909 1140.2 255.492 1140.04V1137.64C255.779 1137.71 256.104 1137.75 256.469 1137.75C257.966 1137.75 259.158 1136.17 260.043 1133.01C260.928 1129.84 261.599 1125.04 262.055 1118.59H274.574V1140ZM290.512 1140.39C287.348 1140.39 284.848 1139.43 283.012 1137.5C281.189 1135.57 280.277 1132.9 280.277 1129.47C280.277 1126.02 281.124 1123.28 282.816 1121.25C284.522 1119.22 286.807 1118.2 289.672 1118.2C292.354 1118.2 294.477 1119.09 296.039 1120.86C297.602 1122.62 298.383 1124.94 298.383 1127.83V1129.88H283.637C283.702 1132.4 284.333 1134.3 285.531 1135.61C286.742 1136.91 288.441 1137.56 290.629 1137.56C292.934 1137.56 295.212 1137.08 297.465 1136.11V1139C296.319 1139.5 295.232 1139.85 294.203 1140.06C293.188 1140.28 291.957 1140.39 290.512 1140.39ZM289.633 1120.92C287.914 1120.92 286.54 1121.48 285.512 1122.6C284.496 1123.72 283.897 1125.27 283.715 1127.25H294.906C294.906 1125.2 294.451 1123.64 293.539 1122.56C292.628 1121.46 291.326 1120.92 289.633 1120.92ZM318.363 1121.37H311.41V1140H308.168V1121.37H301.293V1118.59H318.363V1121.37Z" fill="white"/>
<path d="M669.523 1100H663.488V1083.48L663.547 1080.76L663.645 1077.79C662.642 1078.8 661.945 1079.45 661.555 1079.77L658.273 1082.4L655.363 1078.77L664.562 1071.45H669.523V1100ZM692.375 1100H686.34V1083.48L686.398 1080.76L686.496 1077.79C685.493 1078.8 684.797 1079.45 684.406 1079.77L681.125 1082.4L678.215 1078.77L687.414 1071.45H692.375V1100ZM710.148 1071.07C712.883 1071.07 715.083 1071.7 716.75 1072.95C718.43 1074.19 719.27 1075.86 719.27 1077.97C719.27 1079.43 718.866 1080.73 718.059 1081.88C717.251 1083.01 715.949 1084.02 714.152 1084.92C716.288 1086.07 717.818 1087.27 718.742 1088.52C719.68 1089.75 720.148 1091.11 720.148 1092.6C720.148 1094.94 719.23 1096.83 717.395 1098.26C715.559 1099.68 713.143 1100.39 710.148 1100.39C707.023 1100.39 704.569 1099.73 702.785 1098.4C701.001 1097.07 700.109 1095.19 700.109 1092.75C700.109 1091.13 700.539 1089.68 701.398 1088.42C702.271 1087.15 703.664 1086.04 705.578 1085.08C703.951 1084.05 702.779 1082.95 702.062 1081.78C701.346 1080.61 700.988 1079.32 700.988 1077.93C700.988 1075.89 701.835 1074.23 703.527 1072.97C705.22 1071.71 707.427 1071.07 710.148 1071.07ZM705.695 1092.4C705.695 1093.52 706.086 1094.39 706.867 1095.02C707.648 1095.64 708.716 1095.96 710.07 1095.96C711.568 1095.96 712.688 1095.64 713.43 1095C714.172 1094.35 714.543 1093.5 714.543 1092.44C714.543 1091.57 714.172 1090.76 713.43 1090C712.701 1089.23 711.509 1088.42 709.855 1087.56C707.082 1088.83 705.695 1090.45 705.695 1092.4ZM710.109 1075.49C709.081 1075.49 708.247 1075.76 707.609 1076.29C706.984 1076.81 706.672 1077.51 706.672 1078.4C706.672 1079.18 706.919 1079.88 707.414 1080.51C707.922 1081.12 708.833 1081.75 710.148 1082.4C711.424 1081.8 712.316 1081.19 712.824 1080.57C713.332 1079.94 713.586 1079.22 713.586 1078.4C713.586 1077.5 713.26 1076.79 712.609 1076.27C711.958 1075.75 711.125 1075.49 710.109 1075.49ZM748.469 1100H742.434V1083.48L742.492 1080.76L742.59 1077.79C741.587 1078.8 740.891 1079.45 740.5 1079.77L737.219 1082.4L734.309 1078.77L743.508 1071.45H748.469V1100ZM766.242 1071.07C768.977 1071.07 771.177 1071.7 772.844 1072.95C774.523 1074.19 775.363 1075.86 775.363 1077.97C775.363 1079.43 774.96 1080.73 774.152 1081.88C773.345 1083.01 772.043 1084.02 770.246 1084.92C772.382 1086.07 773.911 1087.27 774.836 1088.52C775.773 1089.75 776.242 1091.11 776.242 1092.6C776.242 1094.94 775.324 1096.83 773.488 1098.26C771.652 1099.68 769.237 1100.39 766.242 1100.39C763.117 1100.39 760.663 1099.73 758.879 1098.4C757.095 1097.07 756.203 1095.19 756.203 1092.75C756.203 1091.13 756.633 1089.68 757.492 1088.42C758.365 1087.15 759.758 1086.04 761.672 1085.08C760.044 1084.05 758.872 1082.95 758.156 1081.78C757.44 1080.61 757.082 1079.32 757.082 1077.93C757.082 1075.89 757.928 1074.23 759.621 1072.97C761.314 1071.71 763.521 1071.07 766.242 1071.07ZM761.789 1092.4C761.789 1093.52 762.18 1094.39 762.961 1095.02C763.742 1095.64 764.81 1095.96 766.164 1095.96C767.661 1095.96 768.781 1095.64 769.523 1095C770.266 1094.35 770.637 1093.5 770.637 1092.44C770.637 1091.57 770.266 1090.76 769.523 1090C768.794 1089.23 767.603 1088.42 765.949 1087.56C763.176 1088.83 761.789 1090.45 761.789 1092.4ZM766.203 1075.49C765.174 1075.49 764.341 1075.76 763.703 1076.29C763.078 1076.81 762.766 1077.51 762.766 1078.4C762.766 1079.18 763.013 1079.88 763.508 1080.51C764.016 1081.12 764.927 1081.75 766.242 1082.4C767.518 1081.8 768.41 1081.19 768.918 1080.57C769.426 1079.94 769.68 1079.22 769.68 1078.4C769.68 1077.5 769.354 1076.79 768.703 1076.27C768.052 1075.75 767.219 1075.49 766.203 1075.49ZM799.211 1100H779.25V1095.8L786.418 1088.55C788.54 1086.38 789.927 1084.88 790.578 1084.04C791.229 1083.2 791.698 1082.42 791.984 1081.7C792.271 1080.98 792.414 1080.24 792.414 1079.47C792.414 1078.33 792.095 1077.47 791.457 1076.91C790.832 1076.35 789.992 1076.07 788.938 1076.07C787.831 1076.07 786.757 1076.33 785.715 1076.84C784.673 1077.34 783.586 1078.07 782.453 1079L779.172 1075.12C780.578 1073.92 781.743 1073.07 782.668 1072.58C783.592 1072.08 784.602 1071.71 785.695 1071.45C786.789 1071.17 788.013 1071.04 789.367 1071.04C791.151 1071.04 792.727 1071.36 794.094 1072.01C795.461 1072.66 796.522 1073.57 797.277 1074.75C798.033 1075.92 798.41 1077.26 798.41 1078.77C798.41 1080.08 798.176 1081.32 797.707 1082.48C797.251 1083.63 796.535 1084.8 795.559 1086.02C794.595 1087.23 792.889 1088.95 790.441 1091.19L786.77 1094.65V1094.92H799.211V1100ZM664.992 1140.39C661.893 1140.39 659.491 1139.44 657.785 1137.54C656.092 1135.62 655.246 1132.92 655.246 1129.43C655.246 1125.85 656.105 1123.09 657.824 1121.13C659.556 1119.18 662.017 1118.2 665.207 1118.2C666.236 1118.2 667.264 1118.31 668.293 1118.54C669.322 1118.76 670.129 1119.02 670.715 1119.32L669.719 1122.07C669.003 1121.78 668.221 1121.55 667.375 1121.37C666.529 1121.17 665.78 1121.07 665.129 1121.07C660.78 1121.07 658.605 1123.85 658.605 1129.39C658.605 1132.02 659.133 1134.04 660.188 1135.45C661.255 1136.86 662.831 1137.56 664.914 1137.56C666.698 1137.56 668.527 1137.17 670.402 1136.41V1139.28C668.97 1140.02 667.167 1140.39 664.992 1140.39ZM689.934 1121.37H682.98V1140H679.738V1121.37H672.863V1118.59H689.934V1121.37ZM707.336 1140L706.691 1136.95H706.535C705.467 1138.29 704.4 1139.21 703.332 1139.69C702.277 1140.16 700.956 1140.39 699.367 1140.39C697.245 1140.39 695.578 1139.84 694.367 1138.75C693.169 1137.66 692.57 1136.1 692.57 1134.08C692.57 1129.76 696.027 1127.49 702.941 1127.29L706.574 1127.17V1125.84C706.574 1124.16 706.21 1122.92 705.48 1122.13C704.764 1121.32 703.612 1120.92 702.023 1120.92C700.24 1120.92 698.221 1121.46 695.969 1122.56L694.973 1120.08C696.027 1119.51 697.18 1119.06 698.43 1118.73C699.693 1118.4 700.956 1118.24 702.219 1118.24C704.771 1118.24 706.659 1118.81 707.883 1119.94C709.12 1121.07 709.738 1122.89 709.738 1125.39V1140H707.336ZM700.012 1137.71C702.03 1137.71 703.612 1137.16 704.758 1136.05C705.917 1134.95 706.496 1133.4 706.496 1131.41V1129.47L703.254 1129.61C700.676 1129.7 698.814 1130.1 697.668 1130.82C696.535 1131.52 695.969 1132.62 695.969 1134.12C695.969 1135.29 696.32 1136.18 697.023 1136.8C697.74 1137.41 698.736 1137.71 700.012 1137.71ZM726.398 1140.39C725.005 1140.39 723.729 1140.14 722.57 1139.63C721.424 1139.11 720.461 1138.31 719.68 1137.25H719.445C719.602 1138.5 719.68 1139.68 719.68 1140.8V1149.61H716.438V1118.59H719.074L719.523 1121.52H719.68C720.513 1120.35 721.483 1119.51 722.59 1118.98C723.697 1118.46 724.966 1118.2 726.398 1118.2C729.237 1118.2 731.424 1119.17 732.961 1121.11C734.51 1123.05 735.285 1125.77 735.285 1129.28C735.285 1132.79 734.497 1135.53 732.922 1137.48C731.359 1139.42 729.185 1140.39 726.398 1140.39ZM725.93 1120.96C723.742 1120.96 722.16 1121.56 721.184 1122.77C720.207 1123.98 719.706 1125.91 719.68 1128.55V1129.28C719.68 1132.29 720.181 1134.44 721.184 1135.74C722.186 1137.03 723.794 1137.68 726.008 1137.68C727.857 1137.68 729.302 1136.93 730.344 1135.43C731.398 1133.93 731.926 1131.87 731.926 1129.24C731.926 1126.57 731.398 1124.52 730.344 1123.11C729.302 1121.67 727.831 1120.96 725.93 1120.96ZM756.926 1137.21H766.418V1118.59H769.699V1140H740.969V1118.59H744.211V1137.21H753.684V1118.59H756.926V1137.21ZM785.637 1140.39C782.473 1140.39 779.973 1139.43 778.137 1137.5C776.314 1135.57 775.402 1132.9 775.402 1129.47C775.402 1126.02 776.249 1123.28 777.941 1121.25C779.647 1119.22 781.932 1118.2 784.797 1118.2C787.479 1118.2 789.602 1119.09 791.164 1120.86C792.727 1122.62 793.508 1124.94 793.508 1127.83V1129.88H778.762C778.827 1132.4 779.458 1134.3 780.656 1135.61C781.867 1136.91 783.566 1137.56 785.754 1137.56C788.059 1137.56 790.337 1137.08 792.59 1136.11V1139C791.444 1139.5 790.357 1139.85 789.328 1140.06C788.312 1140.28 787.082 1140.39 785.637 1140.39ZM784.758 1120.92C783.039 1120.92 781.665 1121.48 780.637 1122.6C779.621 1123.72 779.022 1125.27 778.84 1127.25H790.031C790.031 1125.2 789.576 1123.64 788.664 1122.56C787.753 1121.46 786.451 1120.92 784.758 1120.92ZM819.973 1140H816.809V1119.65C816.809 1117.96 816.861 1116.35 816.965 1114.84C816.691 1115.12 816.385 1115.4 816.047 1115.7C815.708 1116 814.159 1117.27 811.398 1119.51L809.68 1117.29L817.238 1111.45H819.973V1140ZM850.969 1133.44H846.73V1140H843.625V1133.44H829.738V1130.61L843.293 1111.29H846.73V1130.49H850.969V1133.44ZM843.625 1130.49V1121C843.625 1119.13 843.69 1117.03 843.82 1114.69H843.664C843.039 1115.94 842.453 1116.97 841.906 1117.79L832.98 1130.49H843.625ZM881.574 1140H878.293V1121.37H871.867C871.516 1126 871.027 1129.68 870.402 1132.4C869.777 1135.12 868.964 1137.12 867.961 1138.38C866.971 1139.64 865.708 1140.27 864.172 1140.27C863.469 1140.27 862.909 1140.2 862.492 1140.04V1137.64C862.779 1137.71 863.104 1137.75 863.469 1137.75C864.966 1137.75 866.158 1136.17 867.043 1133.01C867.928 1129.84 868.599 1125.04 869.055 1118.59H881.574V1140ZM897.512 1140.39C894.348 1140.39 891.848 1139.43 890.012 1137.5C888.189 1135.57 887.277 1132.9 887.277 1129.47C887.277 1126.02 888.124 1123.28 889.816 1121.25C891.522 1119.22 893.807 1118.2 896.672 1118.2C899.354 1118.2 901.477 1119.09 903.039 1120.86C904.602 1122.62 905.383 1124.94 905.383 1127.83V1129.88H890.637C890.702 1132.4 891.333 1134.3 892.531 1135.61C893.742 1136.91 895.441 1137.56 897.629 1137.56C899.934 1137.56 902.212 1137.08 904.465 1136.11V1139C903.319 1139.5 902.232 1139.85 901.203 1140.06C900.188 1140.28 898.957 1140.39 897.512 1140.39ZM896.633 1120.92C894.914 1120.92 893.54 1121.48 892.512 1122.6C891.496 1123.72 890.897 1125.27 890.715 1127.25H901.906C901.906 1125.2 901.451 1123.64 900.539 1122.56C899.628 1121.46 898.326 1120.92 896.633 1120.92ZM925.363 1121.37H918.41V1140H915.168V1121.37H908.293V1118.59H925.363V1121.37Z" fill="white"/>
<path d="M701.697 1267H700.057V1257.68H696.844C696.668 1260 696.424 1261.84 696.111 1263.2C695.799 1264.56 695.392 1265.56 694.891 1266.19C694.396 1266.82 693.764 1267.14 692.996 1267.14C692.645 1267.14 692.365 1267.1 692.156 1267.02V1265.82C692.299 1265.86 692.462 1265.88 692.645 1265.88C693.393 1265.88 693.989 1265.09 694.432 1263.5C694.874 1261.92 695.21 1259.52 695.438 1256.3H701.697V1267ZM706.668 1256.3V1263.08L706.6 1264.86L706.57 1265.42L712.361 1256.3H714.383V1267H712.869V1260.46L712.898 1259.17L712.947 1257.9L707.166 1267H705.145V1256.3H706.668ZM719.246 1256.3V1260.2C719.246 1261.45 719.959 1262.08 721.385 1262.08C721.977 1262.08 722.544 1261.99 723.084 1261.8C723.624 1261.62 724.236 1261.31 724.92 1260.88V1256.3H726.541V1267H724.92V1262.16C724.236 1262.62 723.602 1262.96 723.016 1263.15C722.436 1263.34 721.779 1263.44 721.043 1263.44C719.975 1263.44 719.139 1263.16 718.533 1262.6C717.928 1262.04 717.625 1261.28 717.625 1260.32V1256.3H719.246ZM731.609 1256.3V1260.78H737.605V1256.3H739.227V1267H737.605V1262.18H731.609V1267H729.988V1256.3H731.609ZM744.285 1260.72H747.205C748.566 1260.72 749.572 1260.97 750.223 1261.48C750.88 1261.98 751.209 1262.74 751.209 1263.74C751.209 1264.81 750.861 1265.63 750.164 1266.18C749.474 1266.73 748.455 1267 747.107 1267H742.664V1256.3H744.285V1260.72ZM754.627 1267H753.006V1256.3H754.627V1267ZM744.285 1262.12V1265.64H747.029C748.748 1265.64 749.607 1265.04 749.607 1263.84C749.607 1263.24 749.409 1262.8 749.012 1262.53C748.615 1262.25 747.938 1262.12 746.98 1262.12H744.285ZM762.596 1267.2C761.014 1267.2 759.764 1266.71 758.846 1265.75C757.934 1264.79 757.479 1263.45 757.479 1261.74C757.479 1260.01 757.902 1258.64 758.748 1257.62C759.601 1256.61 760.743 1256.1 762.176 1256.1C763.517 1256.1 764.578 1256.54 765.359 1257.43C766.141 1258.31 766.531 1259.47 766.531 1260.92V1261.94H759.158C759.191 1263.2 759.507 1264.15 760.105 1264.8C760.711 1265.45 761.561 1265.78 762.654 1265.78C763.807 1265.78 764.946 1265.54 766.072 1265.06V1266.5C765.499 1266.75 764.956 1266.93 764.441 1267.03C763.934 1267.14 763.318 1267.2 762.596 1267.2ZM762.156 1257.46C761.297 1257.46 760.61 1257.74 760.096 1258.3C759.588 1258.86 759.288 1259.63 759.197 1260.62H764.793C764.793 1259.6 764.565 1258.82 764.109 1258.28C763.654 1257.73 763.003 1257.46 762.156 1257.46ZM695.34 1287H693.719V1276.3H702.703V1287H701.062V1277.7H695.34V1287ZM711.121 1287.2C710.424 1287.2 709.786 1287.07 709.207 1286.81C708.634 1286.55 708.152 1286.16 707.762 1285.62H707.645C707.723 1286.25 707.762 1286.84 707.762 1287.4V1291.8H706.141V1276.3H707.459L707.684 1277.76H707.762C708.178 1277.18 708.663 1276.75 709.217 1276.49C709.77 1276.23 710.405 1276.1 711.121 1276.1C712.54 1276.1 713.634 1276.59 714.402 1277.56C715.177 1278.53 715.564 1279.89 715.564 1281.64C715.564 1283.4 715.171 1284.76 714.383 1285.74C713.602 1286.71 712.514 1287.2 711.121 1287.2ZM710.887 1277.48C709.793 1277.48 709.002 1277.78 708.514 1278.39C708.025 1278.99 707.775 1279.96 707.762 1281.28V1281.64C707.762 1283.14 708.012 1284.22 708.514 1284.87C709.015 1285.52 709.819 1285.84 710.926 1285.84C711.85 1285.84 712.573 1285.46 713.094 1284.71C713.621 1283.97 713.885 1282.93 713.885 1281.62C713.885 1280.28 713.621 1279.26 713.094 1278.55C712.573 1277.84 711.837 1277.48 710.887 1277.48ZM719.93 1276.3V1283.08L719.861 1284.86L719.832 1285.42L725.623 1276.3H727.645V1287H726.131V1280.46L726.16 1279.17L726.209 1277.9L720.428 1287H718.406V1276.3H719.93ZM732.508 1276.3V1280.2C732.508 1281.45 733.221 1282.08 734.646 1282.08C735.239 1282.08 735.805 1281.99 736.346 1281.8C736.886 1281.62 737.498 1281.31 738.182 1280.88V1276.3H739.803V1287H738.182V1282.16C737.498 1282.62 736.863 1282.96 736.277 1283.15C735.698 1283.34 735.04 1283.44 734.305 1283.44C733.237 1283.44 732.4 1283.16 731.795 1282.6C731.189 1282.04 730.887 1281.28 730.887 1280.32V1276.3H732.508ZM744.773 1276.3V1283.08L744.705 1284.86L744.676 1285.42L750.467 1276.3H752.488V1287H750.975V1280.46L751.004 1279.17L751.053 1277.9L745.271 1287H743.25V1276.3H744.773ZM757.547 1276.3V1280.78H763.543V1276.3H765.164V1287H763.543V1282.18H757.547V1287H755.926V1276.3H757.547ZM770.223 1280.72H773.143C774.503 1280.72 775.509 1280.97 776.16 1281.48C776.818 1281.98 777.146 1282.74 777.146 1283.74C777.146 1284.81 776.798 1285.63 776.102 1286.18C775.411 1286.73 774.393 1287 773.045 1287H768.602V1276.3H770.223V1280.72ZM780.564 1287H778.943V1276.3H780.564V1287ZM770.223 1282.12V1285.64H772.967C774.686 1285.64 775.545 1285.04 775.545 1283.84C775.545 1283.24 775.346 1282.8 774.949 1282.53C774.552 1282.25 773.875 1282.12 772.918 1282.12H770.223Z" fill="white"/>
<path d="M945.022 1265.69H947.021L949.717 1272.71C950.308 1274.31 950.675 1275.47 950.817 1276.18H950.907C951.005 1275.8 951.207 1275.15 951.514 1274.23C951.828 1273.3 952.846 1270.45 954.568 1265.69H956.567L951.278 1279.71C950.754 1281.09 950.14 1282.07 949.436 1282.65C948.74 1283.23 947.882 1283.53 946.864 1283.53C946.295 1283.53 945.734 1283.46 945.18 1283.33V1281.84C945.591 1281.93 946.052 1281.98 946.561 1281.98C947.841 1281.98 948.755 1281.26 949.301 1279.82L949.986 1278.07L945.022 1265.69ZM960.206 1265.69V1270.18C960.206 1271.62 961.026 1272.34 962.666 1272.34C963.347 1272.34 963.998 1272.24 964.62 1272.03C965.241 1271.82 965.945 1271.46 966.731 1270.96V1265.69H968.595V1278H966.731V1272.43C965.945 1272.97 965.215 1273.35 964.541 1273.58C963.875 1273.79 963.118 1273.9 962.272 1273.9C961.045 1273.9 960.083 1273.58 959.386 1272.94C958.69 1272.29 958.342 1271.42 958.342 1270.32V1265.69H960.206ZM977.759 1278.22C975.94 1278.22 974.502 1277.67 973.447 1276.56C972.399 1275.45 971.875 1273.92 971.875 1271.95C971.875 1269.96 972.361 1268.39 973.334 1267.22C974.315 1266.05 975.629 1265.47 977.276 1265.47C978.819 1265.47 980.039 1265.98 980.938 1266.99C981.836 1268 982.285 1269.34 982.285 1271V1272.18H973.806C973.844 1273.63 974.207 1274.72 974.896 1275.47C975.592 1276.22 976.569 1276.6 977.827 1276.6C979.152 1276.6 980.462 1276.32 981.757 1275.77V1277.43C981.098 1277.71 980.473 1277.91 979.882 1278.03C979.298 1278.16 978.59 1278.22 977.759 1278.22ZM977.254 1267.03C976.266 1267.03 975.476 1267.35 974.884 1267.99C974.3 1268.64 973.956 1269.53 973.851 1270.67H980.286C980.286 1269.49 980.024 1268.59 979.5 1267.97C978.976 1267.34 978.227 1267.03 977.254 1267.03ZM974.143 1262.36C974.143 1261.97 974.24 1261.69 974.435 1261.51C974.637 1261.34 974.877 1261.26 975.154 1261.26C975.438 1261.26 975.682 1261.34 975.884 1261.51C976.093 1261.69 976.198 1261.97 976.198 1262.36C976.198 1262.73 976.093 1263.01 975.884 1263.2C975.682 1263.38 975.438 1263.47 975.154 1263.47C974.877 1263.47 974.637 1263.38 974.435 1263.2C974.24 1263.01 974.143 1262.73 974.143 1262.36ZM978.422 1262.36C978.422 1261.97 978.519 1261.69 978.714 1261.51C978.916 1261.34 979.156 1261.26 979.433 1261.26C979.71 1261.26 979.949 1261.34 980.151 1261.51C980.361 1261.69 980.466 1261.97 980.466 1262.36C980.466 1262.73 980.361 1263.01 980.151 1263.2C979.949 1263.38 979.71 1263.47 979.433 1263.47C979.156 1263.47 978.916 1263.38 978.714 1263.2C978.519 1263.01 978.422 1262.73 978.422 1262.36ZM984.834 1270.62C984.834 1267.93 985.231 1265.83 986.025 1264.32C986.819 1262.81 988.076 1261.87 989.798 1261.49C991.94 1261.03 993.826 1260.66 995.458 1260.38L995.807 1262.02C993.209 1262.45 991.352 1262.8 990.236 1263.05C989.151 1263.3 988.335 1263.88 987.788 1264.8C987.249 1265.73 986.953 1266.98 986.901 1268.57H987.036C987.5 1267.94 988.099 1267.44 988.833 1267.08C989.566 1266.72 990.334 1266.54 991.135 1266.54C992.647 1266.54 993.826 1267.04 994.672 1268.02C995.518 1269 995.941 1270.36 995.941 1272.09C995.941 1274.02 995.451 1275.52 994.47 1276.61C993.489 1277.69 992.123 1278.22 990.371 1278.22C988.642 1278.22 987.286 1277.56 986.306 1276.24C985.325 1274.91 984.834 1273.04 984.834 1270.62ZM990.54 1276.66C992.823 1276.66 993.965 1275.21 993.965 1272.29C993.965 1269.52 992.928 1268.13 990.854 1268.13C990.285 1268.13 989.735 1268.25 989.203 1268.49C988.679 1268.72 988.196 1269.03 987.754 1269.42C987.32 1269.81 986.983 1270.21 986.744 1270.62C986.744 1272.59 987.054 1274.09 987.676 1275.12C988.297 1276.15 989.252 1276.66 990.54 1276.66ZM1006.77 1278L1006.4 1276.25H1006.31C1005.69 1277.02 1005.08 1277.54 1004.47 1277.82C1003.86 1278.09 1003.1 1278.22 1002.19 1278.22C1000.97 1278.22 1000.01 1277.91 999.311 1277.28C998.622 1276.65 998.277 1275.76 998.277 1274.6C998.277 1272.11 1000.27 1270.81 1004.24 1270.69L1006.33 1270.62V1269.86C1006.33 1268.89 1006.12 1268.18 1005.7 1267.72C1005.29 1267.26 1004.63 1267.03 1003.71 1267.03C1002.69 1267.03 1001.53 1267.34 1000.23 1267.97L999.659 1266.54C1000.27 1266.22 1000.93 1265.96 1001.65 1265.77C1002.37 1265.58 1003.1 1265.49 1003.83 1265.49C1005.29 1265.49 1006.38 1265.81 1007.08 1266.47C1007.79 1267.12 1008.15 1268.16 1008.15 1269.6V1278H1006.77ZM1002.56 1276.69C1003.72 1276.69 1004.63 1276.37 1005.29 1275.73C1005.95 1275.1 1006.28 1274.2 1006.28 1273.06V1271.95L1004.42 1272.03C1002.94 1272.08 1001.87 1272.31 1001.21 1272.72C1000.56 1273.13 1000.23 1273.76 1000.23 1274.62C1000.23 1275.29 1000.43 1275.81 1000.84 1276.16C1001.25 1276.51 1001.82 1276.69 1002.56 1276.69Z" fill="white"/>
<path d="M1170.7 1277.22C1169.9 1277.22 1169.17 1277.08 1168.5 1276.79C1167.84 1276.49 1167.29 1276.03 1166.84 1275.42H1166.71C1166.8 1276.14 1166.84 1276.82 1166.84 1277.46V1282.53H1164.98V1264.69H1166.49L1166.75 1266.38H1166.84C1167.32 1265.7 1167.88 1265.22 1168.51 1264.92C1169.15 1264.62 1169.88 1264.47 1170.7 1264.47C1172.34 1264.47 1173.59 1265.02 1174.48 1266.14C1175.37 1267.26 1175.81 1268.82 1175.81 1270.83C1175.81 1272.86 1175.36 1274.43 1174.46 1275.55C1173.56 1276.67 1172.31 1277.22 1170.7 1277.22ZM1170.43 1266.05C1169.18 1266.05 1168.27 1266.4 1167.71 1267.09C1167.14 1267.79 1166.86 1268.9 1166.84 1270.42V1270.83C1166.84 1272.56 1167.13 1273.8 1167.71 1274.55C1168.28 1275.29 1169.21 1275.66 1170.48 1275.66C1171.54 1275.66 1172.37 1275.23 1172.97 1274.37C1173.58 1273.51 1173.88 1272.32 1173.88 1270.81C1173.88 1269.28 1173.58 1268.1 1172.97 1267.29C1172.37 1266.46 1171.53 1266.05 1170.43 1266.05ZM1186.65 1277L1186.28 1275.25H1186.19C1185.58 1276.02 1184.96 1276.54 1184.35 1276.82C1183.74 1277.09 1182.98 1277.22 1182.07 1277.22C1180.85 1277.22 1179.89 1276.91 1179.19 1276.28C1178.51 1275.65 1178.16 1274.76 1178.16 1273.6C1178.16 1271.11 1180.15 1269.81 1184.12 1269.69L1186.21 1269.62V1268.86C1186.21 1267.89 1186 1267.18 1185.58 1266.72C1185.17 1266.26 1184.51 1266.03 1183.6 1266.03C1182.57 1266.03 1181.41 1266.34 1180.12 1266.97L1179.54 1265.54C1180.15 1265.22 1180.81 1264.96 1181.53 1264.77C1182.26 1264.58 1182.98 1264.49 1183.71 1264.49C1185.18 1264.49 1186.26 1264.81 1186.97 1265.47C1187.68 1266.12 1188.03 1267.16 1188.03 1268.6V1277H1186.65ZM1182.44 1275.69C1183.6 1275.69 1184.51 1275.37 1185.17 1274.73C1185.84 1274.1 1186.17 1273.2 1186.17 1272.06V1270.95L1184.3 1271.03C1182.82 1271.08 1181.75 1271.31 1181.09 1271.72C1180.44 1272.13 1180.12 1272.76 1180.12 1273.62C1180.12 1274.29 1180.32 1274.81 1180.72 1275.16C1181.13 1275.51 1181.71 1275.69 1182.44 1275.69ZM1191.24 1269.62C1191.24 1266.93 1191.64 1264.83 1192.44 1263.32C1193.23 1261.81 1194.49 1260.87 1196.21 1260.49C1198.35 1260.03 1200.24 1259.66 1201.87 1259.38L1202.22 1261.02C1199.62 1261.45 1197.76 1261.8 1196.65 1262.05C1195.56 1262.3 1194.74 1262.88 1194.2 1263.8C1193.66 1264.73 1193.36 1265.98 1193.31 1267.57H1193.45C1193.91 1266.94 1194.51 1266.44 1195.24 1266.08C1195.98 1265.72 1196.74 1265.54 1197.54 1265.54C1199.06 1265.54 1200.24 1266.04 1201.08 1267.02C1201.93 1268 1202.35 1269.36 1202.35 1271.09C1202.35 1273.02 1201.86 1274.52 1200.88 1275.61C1199.9 1276.69 1198.53 1277.22 1196.78 1277.22C1195.05 1277.22 1193.7 1276.56 1192.72 1275.24C1191.74 1273.91 1191.24 1272.04 1191.24 1269.62ZM1196.95 1275.66C1199.23 1275.66 1200.38 1274.21 1200.38 1271.29C1200.38 1268.52 1199.34 1267.13 1197.26 1267.13C1196.7 1267.13 1196.14 1267.25 1195.61 1267.49C1195.09 1267.72 1194.61 1268.03 1194.16 1268.42C1193.73 1268.81 1193.39 1269.21 1193.15 1269.62C1193.15 1271.59 1193.46 1273.09 1194.09 1274.12C1194.71 1275.15 1195.66 1275.66 1196.95 1275.66ZM1216.23 1270.83C1216.23 1272.84 1215.73 1274.41 1214.72 1275.54C1213.71 1276.66 1212.31 1277.22 1210.53 1277.22C1209.43 1277.22 1208.45 1276.97 1207.6 1276.45C1206.74 1275.93 1206.08 1275.19 1205.62 1274.23C1205.16 1273.26 1204.92 1272.13 1204.92 1270.83C1204.92 1268.83 1205.42 1267.27 1206.43 1266.15C1207.43 1265.03 1208.82 1264.47 1210.61 1264.47C1212.33 1264.47 1213.69 1265.04 1214.71 1266.19C1215.72 1267.33 1216.23 1268.88 1216.23 1270.83ZM1206.85 1270.83C1206.85 1272.41 1207.17 1273.6 1207.8 1274.43C1208.43 1275.25 1209.35 1275.66 1210.57 1275.66C1211.79 1275.66 1212.72 1275.26 1213.35 1274.44C1213.98 1273.62 1214.3 1272.41 1214.3 1270.83C1214.3 1269.27 1213.98 1268.08 1213.35 1267.27C1212.72 1266.46 1211.79 1266.05 1210.55 1266.05C1209.33 1266.05 1208.41 1266.45 1207.79 1267.25C1207.17 1268.05 1206.85 1269.25 1206.85 1270.83ZM1227.81 1266.29H1223.81V1277H1221.95V1266.29H1218V1264.69H1227.81V1266.29ZM1237.82 1277L1237.45 1275.25H1237.36C1236.74 1276.02 1236.13 1276.54 1235.52 1276.82C1234.91 1277.09 1234.15 1277.22 1233.24 1277.22C1232.01 1277.22 1231.06 1276.91 1230.36 1276.28C1229.67 1275.65 1229.33 1274.76 1229.33 1273.6C1229.33 1271.11 1231.31 1269.81 1235.29 1269.69L1237.38 1269.62V1268.86C1237.38 1267.89 1237.17 1267.18 1236.75 1266.72C1236.34 1266.26 1235.68 1266.03 1234.76 1266.03C1233.74 1266.03 1232.58 1266.34 1231.28 1266.97L1230.71 1265.54C1231.31 1265.22 1231.98 1264.96 1232.7 1264.77C1233.42 1264.58 1234.15 1264.49 1234.88 1264.49C1236.34 1264.49 1237.43 1264.81 1238.13 1265.47C1238.84 1266.12 1239.2 1267.16 1239.2 1268.6V1277H1237.82ZM1233.61 1275.69C1234.77 1275.69 1235.68 1275.37 1236.33 1274.73C1237 1274.1 1237.33 1273.2 1237.33 1272.06V1270.95L1235.47 1271.03C1233.99 1271.08 1232.92 1271.31 1232.26 1271.72C1231.61 1272.13 1231.28 1272.76 1231.28 1273.62C1231.28 1274.29 1231.48 1274.81 1231.89 1275.16C1232.3 1275.51 1232.87 1275.69 1233.61 1275.69Z" fill="white"/>
<rect x="616" y="1245" width="50" height="50" fill="#01CCF8"/>
<rect x="866" y="1245" width="50" height="50" fill="#FF4C00"/>
<rect x="1091" y="1245" width="50" height="50" fill="#01F859"/>
<defs>
<linearGradient id="paint0_linear" x1="1908" y1="187.977" x2="1" y2="187.998" gradientUnits="userSpaceOnUse">
<stop stop-color="#F30101"/>
<stop offset="0.410127" stop-color="#6A7186"/>
</linearGradient>
</defs>
</svg>
