<svg width="53" height="53" viewBox="0 0 53 53" fill="none" xmlns="http://www.w3.org/2000/svg">
<path d="M31.8635 33.978C30.225 35.1832 28.2073 35.8874 26.0135 35.8874C20.5427 35.8874 16.101 31.4457 16.101 25.9749C16.101 21.0186 19.7302 16.9155 24.4833 16.1842V0.00195312C10.8469 0.78737 0 12.1217 0 25.9749C0 40.3426 11.6594 52.002 26.0271 52.002C32.6625 52.002 38.7156 49.5103 43.3198 45.4207L31.8635 33.978Z" fill="white"/>
<path d="M35.8188 27.5059C35.575 29.1038 34.9385 30.5798 34.0312 31.8256L45.474 43.2684C49.2521 39.0298 51.6625 33.5319 52.0146 27.5059H35.8188Z" fill="white"/>
<path d="M27.543 16.1842C31.795 16.8342 35.1534 20.2061 35.8169 24.4582H51.9992C51.2409 11.3092 40.6919 0.760286 27.543 0.00195312V16.1842Z" fill="white"/>
</svg>
