<svg width="70" height="92" viewBox="0 0 70 92" fill="none" xmlns="http://www.w3.org/2000/svg">
<g clip-path="url(#clip0)">
<path d="M68.2953 23.9151C65.0654 13.4393 56.5419 4.9221 46.0984 1.66975C35.0269 -1.76228 23.2376 0.142407 14.2476 6.79085C5.3294 13.3674 0 23.9151 0 35.0018C0 42.6565 2.42246 49.9159 6.98026 56.0073L35.009 91.9987L63.0197 56.0252C69.8565 46.8971 71.7765 35.1815 68.2953 23.9151ZM35.009 53.8869C24.6193 53.8869 16.1677 45.4237 16.1677 35.0198C16.1677 24.6158 24.6193 16.1526 35.009 16.1526C45.3986 16.1526 53.8503 24.6158 53.8503 35.0198C53.8503 45.4237 45.3986 53.8869 35.009 53.8869Z" fill="#00092E"/>
<path d="M34.6567 15.1045C23.4814 15.1045 14.4116 24.1632 14.4116 35.3312C14.4116 46.4991 23.5084 55.6119 34.6567 55.6119C45.805 55.6119 54.9018 46.4991 54.9018 35.3312C54.9018 24.1632 45.805 15.1045 34.6567 15.1045Z" fill="#01F859"/>
</g>
<defs>
<clipPath id="clip0">
<rect width="70" height="92" fill="white"/>
</clipPath>
</defs>
</svg>
