<svg width="70" height="92" viewBox="0 0 70 92" fill="none" xmlns="http://www.w3.org/2000/svg">
<g clip-path="url(#clip0)">
<circle cx="35.5" cy="35.5" r="23.5" fill="#00092E"/>
<path d="M68.2953 23.9151C65.0654 13.4393 56.5419 4.9221 46.0984 1.66975C35.0269 -1.76228 23.2376 0.142407 14.2476 6.79085C5.3294 13.3674 0 23.9151 0 35.0018C0 42.6565 2.42246 49.9159 6.98026 56.0073L35.009 91.9987L63.0197 56.0252C69.8565 46.8971 71.7765 35.1815 68.2953 23.9151ZM35.009 53.8869C24.6193 53.8869 16.1677 45.4237 16.1677 35.0198C16.1677 24.6158 24.6193 16.1526 35.009 16.1526C45.3986 16.1526 53.8503 24.6158 53.8503 35.0198C53.8503 45.4237 45.3986 53.8869 35.009 53.8869Z" fill="#00092E"/>
<path d="M35 13L54.0526 46H15.9474L35 13Z" fill="#FAFF00"/>
</g>
<defs>
<clipPath id="clip0">
<rect width="70" height="92" fill="white"/>
</clipPath>
</defs>
</svg>
