<svg width="1974" height="1552" viewBox="0 0 1974 1552" fill="none" xmlns="http://www.w3.org/2000/svg">
<rect x="615" width="645" height="608" fill="#C4C4C4" fill-opacity="0.05"/>
<path d="M26.9531 74H2.00195V68.751L10.9619 59.6934C13.6149 56.9753 15.3483 55.0954 16.1621 54.0537C16.9759 52.9958 17.5618 52.0192 17.9199 51.124C18.278 50.2288 18.457 49.3011 18.457 48.3408C18.457 46.9085 18.0583 45.8424 17.2607 45.1426C16.4795 44.4427 15.4297 44.0928 14.1113 44.0928C12.7279 44.0928 11.3851 44.4102 10.083 45.0449C8.78092 45.6797 7.42188 46.583 6.00586 47.7549L1.9043 42.8965C3.66211 41.3991 5.11882 40.3411 6.27441 39.7227C7.43001 39.1042 8.69141 38.6322 10.0586 38.3066C11.4258 37.9648 12.9557 37.7939 14.6484 37.7939C16.8783 37.7939 18.8477 38.2008 20.5566 39.0146C22.2656 39.8285 23.5921 40.9678 24.5361 42.4326C25.4801 43.8975 25.9521 45.5739 25.9521 47.4619C25.9521 49.1058 25.6592 50.652 25.0732 52.1006C24.5036 53.5329 23.6084 55.0059 22.3877 56.5195C21.1833 58.0332 19.0511 60.1898 15.9912 62.9893L11.4014 67.3105V67.6523H26.9531V74ZM55.3223 56.1533C55.3223 62.387 54.2969 67.0013 52.2461 69.9961C50.2116 72.9909 47.0703 74.4883 42.8223 74.4883C38.7044 74.4883 35.5957 72.9421 33.4961 69.8496C31.4128 66.7572 30.3711 62.1917 30.3711 56.1533C30.3711 49.8545 31.3883 45.2158 33.4229 42.2373C35.4574 39.2425 38.5905 37.7451 42.8223 37.7451C46.9401 37.7451 50.0488 39.3076 52.1484 42.4326C54.2643 45.5576 55.3223 50.1312 55.3223 56.1533ZM37.8662 56.1533C37.8662 60.5316 38.2406 63.6729 38.9893 65.5771C39.7542 67.4652 41.0319 68.4092 42.8223 68.4092C44.5801 68.4092 45.8496 67.4489 46.6309 65.5283C47.4121 63.6077 47.8027 60.4827 47.8027 56.1533C47.8027 51.7751 47.404 48.6338 46.6064 46.7295C45.8252 44.8089 44.5638 43.8486 42.8223 43.8486C41.0482 43.8486 39.7786 44.8089 39.0137 46.7295C38.2487 48.6338 37.8662 51.7751 37.8662 56.1533ZM77.7832 74H70.2393V53.3457L70.3125 49.9521L70.4346 46.2412C69.1813 47.4945 68.3105 48.3164 67.8223 48.707L63.7207 52.0029L60.083 47.4619L71.582 38.3066H77.7832V74ZM100 37.8428C103.418 37.8428 106.169 38.624 108.252 40.1865C110.352 41.7327 111.401 43.8242 111.401 46.4609C111.401 48.2839 110.897 49.9115 109.888 51.3438C108.879 52.7598 107.251 54.0293 105.005 55.1523C107.674 56.5846 109.587 58.082 110.742 59.6445C111.914 61.1908 112.5 62.8916 112.5 64.7471C112.5 67.6768 111.353 70.0368 109.058 71.8271C106.763 73.6012 103.743 74.4883 100 74.4883C96.0938 74.4883 93.0257 73.6582 90.7959 71.998C88.5661 70.3379 87.4512 67.986 87.4512 64.9424C87.4512 62.9079 87.9883 61.1012 89.0625 59.5225C90.153 57.9437 91.8945 56.5521 94.2871 55.3477C92.2526 54.0618 90.7878 52.6865 89.8926 51.2217C88.9974 49.7568 88.5498 48.1536 88.5498 46.4121C88.5498 43.8568 89.6077 41.7897 91.7236 40.2109C93.8395 38.6322 96.5983 37.8428 100 37.8428ZM94.4336 64.5029C94.4336 65.9027 94.9219 66.9932 95.8984 67.7744C96.875 68.5557 98.2096 68.9463 99.9023 68.9463C101.774 68.9463 103.174 68.5475 104.102 67.75C105.029 66.9362 105.493 65.8701 105.493 64.5518C105.493 63.4613 105.029 62.444 104.102 61.5C103.19 60.5397 101.701 59.5225 99.6338 58.4482C96.167 60.0433 94.4336 62.0615 94.4336 64.5029ZM99.9512 43.3604C98.6654 43.3604 97.6237 43.694 96.8262 44.3613C96.0449 45.0124 95.6543 45.8913 95.6543 46.998C95.6543 47.9746 95.9635 48.8535 96.582 49.6348C97.2168 50.3997 98.3561 51.1891 100 52.0029C101.595 51.2542 102.71 50.4893 103.345 49.708C103.979 48.9268 104.297 48.0234 104.297 46.998C104.297 45.875 103.89 44.988 103.076 44.3369C102.262 43.6859 101.221 43.3604 99.9512 43.3604Z" fill="white"/>
<path d="M671.953 74H647.002V68.751L655.962 59.6934C658.615 56.9753 660.348 55.0954 661.162 54.0537C661.976 52.9958 662.562 52.0192 662.92 51.124C663.278 50.2288 663.457 49.3011 663.457 48.3408C663.457 46.9085 663.058 45.8424 662.261 45.1426C661.479 44.4427 660.43 44.0928 659.111 44.0928C657.728 44.0928 656.385 44.4102 655.083 45.0449C653.781 45.6797 652.422 46.583 651.006 47.7549L646.904 42.8965C648.662 41.3991 650.119 40.3411 651.274 39.7227C652.43 39.1042 653.691 38.6322 655.059 38.3066C656.426 37.9648 657.956 37.7939 659.648 37.7939C661.878 37.7939 663.848 38.2008 665.557 39.0146C667.266 39.8285 668.592 40.9678 669.536 42.4326C670.48 43.8975 670.952 45.5739 670.952 47.4619C670.952 49.1058 670.659 50.652 670.073 52.1006C669.504 53.5329 668.608 55.0059 667.388 56.5195C666.183 58.0332 664.051 60.1898 660.991 62.9893L656.401 67.3105V67.6523H671.953V74ZM700.322 56.1533C700.322 62.387 699.297 67.0013 697.246 69.9961C695.212 72.9909 692.07 74.4883 687.822 74.4883C683.704 74.4883 680.596 72.9421 678.496 69.8496C676.413 66.7572 675.371 62.1917 675.371 56.1533C675.371 49.8545 676.388 45.2158 678.423 42.2373C680.457 39.2425 683.59 37.7451 687.822 37.7451C691.94 37.7451 695.049 39.3076 697.148 42.4326C699.264 45.5576 700.322 50.1312 700.322 56.1533ZM682.866 56.1533C682.866 60.5316 683.241 63.6729 683.989 65.5771C684.754 67.4652 686.032 68.4092 687.822 68.4092C689.58 68.4092 690.85 67.4489 691.631 65.5283C692.412 63.6077 692.803 60.4827 692.803 56.1533C692.803 51.7751 692.404 48.6338 691.606 46.7295C690.825 44.8089 689.564 43.8486 687.822 43.8486C686.048 43.8486 684.779 44.8089 684.014 46.7295C683.249 48.6338 682.866 51.7751 682.866 56.1533ZM722.783 74H715.239V53.3457L715.312 49.9521L715.435 46.2412C714.181 47.4945 713.311 48.3164 712.822 48.707L708.721 52.0029L705.083 47.4619L716.582 38.3066H722.783V74ZM757.5 53.541C757.5 60.5723 756.019 65.8213 753.057 69.2881C750.094 72.7549 745.61 74.4883 739.604 74.4883C737.489 74.4883 735.885 74.3743 734.795 74.1465V68.0918C736.162 68.4336 737.594 68.6045 739.092 68.6045C741.615 68.6045 743.69 68.2383 745.317 67.5059C746.945 66.7572 748.19 65.5934 749.053 64.0146C749.915 62.4196 750.412 60.2305 750.542 57.4473H750.249C749.305 58.9772 748.215 60.0514 746.978 60.6699C745.741 61.2884 744.194 61.5977 742.339 61.5977C739.23 61.5977 736.781 60.6048 734.99 58.6191C733.2 56.6172 732.305 53.8421 732.305 50.2939C732.305 46.4691 733.387 43.4499 735.552 41.2363C737.733 39.0065 740.695 37.8916 744.438 37.8916C747.075 37.8916 749.378 38.5101 751.348 39.7471C753.333 40.984 754.855 42.7826 755.913 45.1426C756.971 47.4863 757.5 50.2858 757.5 53.541ZM744.585 43.9463C743.022 43.9463 741.802 44.4834 740.923 45.5576C740.044 46.6318 739.604 48.1781 739.604 50.1963C739.604 51.9215 740.003 53.2887 740.801 54.2979C741.598 55.307 742.811 55.8115 744.438 55.8115C745.968 55.8115 747.279 55.3151 748.369 54.3223C749.46 53.3132 750.005 52.1576 750.005 50.8555C750.005 48.9186 749.492 47.2829 748.467 45.9482C747.458 44.6136 746.164 43.9463 744.585 43.9463Z" fill="white"/>
<path d="M1316.95 74H1292V68.751L1300.96 59.6934C1303.61 56.9753 1305.35 55.0954 1306.16 54.0537C1306.98 52.9958 1307.56 52.0192 1307.92 51.124C1308.28 50.2288 1308.46 49.3011 1308.46 48.3408C1308.46 46.9085 1308.06 45.8424 1307.26 45.1426C1306.48 44.4427 1305.43 44.0928 1304.11 44.0928C1302.73 44.0928 1301.39 44.4102 1300.08 45.0449C1298.78 45.6797 1297.42 46.583 1296.01 47.7549L1291.9 42.8965C1293.66 41.3991 1295.12 40.3411 1296.27 39.7227C1297.43 39.1042 1298.69 38.6322 1300.06 38.3066C1301.43 37.9648 1302.96 37.7939 1304.65 37.7939C1306.88 37.7939 1308.85 38.2008 1310.56 39.0146C1312.27 39.8285 1313.59 40.9678 1314.54 42.4326C1315.48 43.8975 1315.95 45.5739 1315.95 47.4619C1315.95 49.1058 1315.66 50.652 1315.07 52.1006C1314.5 53.5329 1313.61 55.0059 1312.39 56.5195C1311.18 58.0332 1309.05 60.1898 1305.99 62.9893L1301.4 67.3105V67.6523H1316.95V74ZM1345.32 56.1533C1345.32 62.387 1344.3 67.0013 1342.25 69.9961C1340.21 72.9909 1337.07 74.4883 1332.82 74.4883C1328.7 74.4883 1325.6 72.9421 1323.5 69.8496C1321.41 66.7572 1320.37 62.1917 1320.37 56.1533C1320.37 49.8545 1321.39 45.2158 1323.42 42.2373C1325.46 39.2425 1328.59 37.7451 1332.82 37.7451C1336.94 37.7451 1340.05 39.3076 1342.15 42.4326C1344.26 45.5576 1345.32 50.1312 1345.32 56.1533ZM1327.87 56.1533C1327.87 60.5316 1328.24 63.6729 1328.99 65.5771C1329.75 67.4652 1331.03 68.4092 1332.82 68.4092C1334.58 68.4092 1335.85 67.4489 1336.63 65.5283C1337.41 63.6077 1337.8 60.4827 1337.8 56.1533C1337.8 51.7751 1337.4 48.6338 1336.61 46.7295C1335.83 44.8089 1334.56 43.8486 1332.82 43.8486C1331.05 43.8486 1329.78 44.8089 1329.01 46.7295C1328.25 48.6338 1327.87 51.7751 1327.87 56.1533ZM1374.08 74H1349.13V68.751L1358.09 59.6934C1360.74 56.9753 1362.48 55.0954 1363.29 54.0537C1364.1 52.9958 1364.69 52.0192 1365.05 51.124C1365.41 50.2288 1365.59 49.3011 1365.59 48.3408C1365.59 46.9085 1365.19 45.8424 1364.39 45.1426C1363.61 44.4427 1362.56 44.0928 1361.24 44.0928C1359.86 44.0928 1358.51 44.4102 1357.21 45.0449C1355.91 45.6797 1354.55 46.583 1353.13 47.7549L1349.03 42.8965C1350.79 41.3991 1352.25 40.3411 1353.4 39.7227C1354.56 39.1042 1355.82 38.6322 1357.19 38.3066C1358.55 37.9648 1360.08 37.7939 1361.78 37.7939C1364.01 37.7939 1365.98 38.2008 1367.69 39.0146C1369.39 39.8285 1370.72 40.9678 1371.67 42.4326C1372.61 43.8975 1373.08 45.5739 1373.08 47.4619C1373.08 49.1058 1372.79 50.652 1372.2 52.1006C1371.63 53.5329 1370.74 55.0059 1369.52 56.5195C1368.31 58.0332 1366.18 60.1898 1363.12 62.9893L1358.53 67.3105V67.6523H1374.08V74ZM1402.45 56.1533C1402.45 62.387 1401.43 67.0013 1399.38 69.9961C1397.34 72.9909 1394.2 74.4883 1389.95 74.4883C1385.83 74.4883 1382.72 72.9421 1380.62 69.8496C1378.54 66.7572 1377.5 62.1917 1377.5 56.1533C1377.5 49.8545 1378.52 45.2158 1380.55 42.2373C1382.59 39.2425 1385.72 37.7451 1389.95 37.7451C1394.07 37.7451 1397.18 39.3076 1399.28 42.4326C1401.39 45.5576 1402.45 50.1312 1402.45 56.1533ZM1385 56.1533C1385 60.5316 1385.37 63.6729 1386.12 65.5771C1386.88 67.4652 1388.16 68.4092 1389.95 68.4092C1391.71 68.4092 1392.98 67.4489 1393.76 65.5283C1394.54 63.6077 1394.93 60.4827 1394.93 56.1533C1394.93 51.7751 1394.53 48.6338 1393.74 46.7295C1392.95 44.8089 1391.69 43.8486 1389.95 43.8486C1388.18 43.8486 1386.91 44.8089 1386.14 46.7295C1385.38 48.6338 1385 51.7751 1385 56.1533Z" fill="white"/>
<line y1="106" x2="1974" y2="106" stroke="#6A7186" stroke-width="4"/>
<path d="M1294.51 189H1292.32V174.551H1304.45V189H1302.23V176.449H1294.51V189ZM1319.86 189H1317.65V176.423H1313.31C1313.07 179.552 1312.74 182.035 1312.32 183.872C1311.9 185.708 1311.35 187.053 1310.67 187.906C1310 188.758 1309.15 189.185 1308.11 189.185C1307.64 189.185 1307.26 189.132 1306.98 189.026V187.405C1307.17 187.458 1307.39 187.484 1307.64 187.484C1308.65 187.484 1309.45 186.416 1310.05 184.28C1310.65 182.145 1311.1 178.901 1311.41 174.551H1319.86V189ZM1333.4 189L1332.97 186.943H1332.86C1332.14 187.849 1331.42 188.464 1330.7 188.789C1329.99 189.105 1329.09 189.264 1328.02 189.264C1326.59 189.264 1325.46 188.895 1324.65 188.156C1323.84 187.418 1323.43 186.368 1323.43 185.005C1323.43 182.087 1325.77 180.558 1330.43 180.417L1332.89 180.338V179.442C1332.89 178.308 1332.64 177.473 1332.15 176.937C1331.66 176.392 1330.89 176.12 1329.81 176.12C1328.61 176.12 1327.25 176.489 1325.73 177.227L1325.06 175.553C1325.77 175.166 1326.54 174.863 1327.39 174.643C1328.24 174.423 1329.09 174.313 1329.95 174.313C1331.67 174.313 1332.94 174.696 1333.77 175.46C1334.6 176.225 1335.02 177.451 1335.02 179.139V189H1333.4ZM1328.46 187.458C1329.82 187.458 1330.89 187.084 1331.66 186.337C1332.44 185.59 1332.83 184.544 1332.83 183.199V181.894L1330.65 181.986C1328.9 182.048 1327.65 182.32 1326.87 182.804C1326.11 183.278 1325.73 184.021 1325.73 185.032C1325.73 185.823 1325.96 186.425 1326.44 186.838C1326.92 187.251 1327.6 187.458 1328.46 187.458ZM1341.73 174.551V180.602H1349.83V174.551H1352.02V189H1349.83V182.487H1341.73V189H1339.54V174.551H1341.73Z" fill="white"/>
<path d="M649.509 199H647.32V184.551H659.449V199H657.234V186.449H649.509V199ZM674.861 199H672.646V186.423H668.309C668.071 189.552 667.742 192.035 667.32 193.872C666.898 195.708 666.349 197.053 665.672 197.906C665.004 198.758 664.151 199.185 663.114 199.185C662.64 199.185 662.262 199.132 661.98 199.026V197.405C662.174 197.458 662.394 197.484 662.64 197.484C663.65 197.484 664.455 196.416 665.052 194.28C665.65 192.145 666.103 188.901 666.41 184.551H674.861V199ZM688.4 199L687.965 196.943H687.86C687.139 197.849 686.418 198.464 685.698 198.789C684.986 199.105 684.094 199.264 683.021 199.264C681.589 199.264 680.464 198.895 679.646 198.156C678.838 197.418 678.434 196.368 678.434 195.005C678.434 192.087 680.767 190.558 685.434 190.417L687.886 190.338V189.442C687.886 188.308 687.64 187.473 687.148 186.937C686.665 186.392 685.887 186.12 684.814 186.12C683.61 186.12 682.248 186.489 680.728 187.227L680.055 185.553C680.767 185.166 681.545 184.863 682.389 184.643C683.241 184.423 684.094 184.313 684.946 184.313C686.669 184.313 687.943 184.696 688.77 185.46C689.604 186.225 690.022 187.451 690.022 189.139V199H688.4ZM683.457 197.458C684.819 197.458 685.887 197.084 686.66 196.337C687.442 195.59 687.833 194.544 687.833 193.199V191.894L685.645 191.986C683.905 192.048 682.648 192.32 681.875 192.804C681.11 193.278 680.728 194.021 680.728 195.032C680.728 195.823 680.965 196.425 681.439 196.838C681.923 197.251 682.595 197.458 683.457 197.458ZM696.732 184.551V190.602H704.827V184.551H707.016V199H704.827V192.487H696.732V199H694.544V184.551H696.732Z" fill="white"/>
<path d="M1307.8 377.762C1307.8 379.951 1307.17 381.695 1305.93 382.996C1304.69 384.288 1302.95 385.026 1300.72 385.211V391.486H1298.56V385.211C1296.38 385.044 1294.65 384.297 1293.39 382.97C1292.12 381.643 1291.49 379.907 1291.49 377.762C1291.49 375.574 1292.12 373.833 1293.38 372.542C1294.64 371.25 1296.39 370.516 1298.64 370.34V364.486H1300.72V370.34C1302.92 370.542 1304.66 371.302 1305.91 372.621C1307.17 373.939 1307.8 375.653 1307.8 377.762ZM1293.78 377.762C1293.78 379.45 1294.17 380.772 1294.94 381.73C1295.72 382.688 1296.95 383.247 1298.64 383.405V372.172C1297.01 372.322 1295.79 372.854 1294.98 373.768C1294.18 374.673 1293.78 376.004 1293.78 377.762ZM1305.53 377.762C1305.53 374.396 1303.93 372.542 1300.72 372.199V383.405C1302.39 383.238 1303.61 382.675 1304.37 381.717C1305.14 380.759 1305.53 379.441 1305.53 377.762ZM1320.51 385L1320.07 382.943H1319.97C1319.25 383.849 1318.52 384.464 1317.8 384.789C1317.09 385.105 1316.2 385.264 1315.13 385.264C1313.7 385.264 1312.57 384.895 1311.75 384.156C1310.94 383.418 1310.54 382.368 1310.54 381.005C1310.54 378.087 1312.87 376.558 1317.54 376.417L1319.99 376.338V375.442C1319.99 374.308 1319.75 373.473 1319.25 372.937C1318.77 372.392 1317.99 372.12 1316.92 372.12C1315.72 372.12 1314.35 372.489 1312.83 373.227L1312.16 371.553C1312.87 371.166 1313.65 370.863 1314.5 370.643C1315.35 370.423 1316.2 370.313 1317.05 370.313C1318.78 370.313 1320.05 370.696 1320.88 371.46C1321.71 372.225 1322.13 373.451 1322.13 375.139V385H1320.51ZM1315.56 383.458C1316.93 383.458 1317.99 383.084 1318.77 382.337C1319.55 381.59 1319.94 380.544 1319.94 379.199V377.894L1317.75 377.986C1316.01 378.048 1314.75 378.32 1313.98 378.804C1313.22 379.278 1312.83 380.021 1312.83 381.032C1312.83 381.823 1313.07 382.425 1313.55 382.838C1314.03 383.251 1314.7 383.458 1315.56 383.458ZM1335.07 370.551H1337.47L1331.24 377.525L1337.99 385H1335.43L1328.84 377.683V385H1326.65V370.551H1328.84V377.578L1335.07 370.551ZM1350.42 372.423H1345.73V385H1343.54V372.423H1338.9V370.551H1350.42V372.423Z" fill="white"/>
<path d="M671.798 377.762C671.798 379.951 671.174 381.695 669.926 382.996C668.687 384.288 666.951 385.026 664.718 385.211V391.486H662.556V385.211C660.376 385.044 658.654 384.297 657.388 382.97C656.123 381.643 655.49 379.907 655.49 377.762C655.49 375.574 656.118 373.833 657.375 372.542C658.641 371.25 660.394 370.516 662.635 370.34V364.486H664.718V370.34C666.924 370.542 668.656 371.302 669.913 372.621C671.169 373.939 671.798 375.653 671.798 377.762ZM657.784 377.762C657.784 379.45 658.17 380.772 658.944 381.73C659.717 382.688 660.948 383.247 662.635 383.405V372.172C661.009 372.322 659.792 372.854 658.983 373.768C658.184 374.673 657.784 376.004 657.784 377.762ZM669.53 377.762C669.53 374.396 667.926 372.542 664.718 372.199V383.405C666.388 383.238 667.605 382.675 668.37 381.717C669.144 380.759 669.53 379.441 669.53 377.762ZM684.507 385L684.072 382.943H683.966C683.246 383.849 682.525 384.464 681.804 384.789C681.092 385.105 680.2 385.264 679.128 385.264C677.695 385.264 676.57 384.895 675.753 384.156C674.944 383.418 674.54 382.368 674.54 381.005C674.54 378.087 676.874 376.558 681.541 376.417L683.993 376.338V375.442C683.993 374.308 683.747 373.473 683.254 372.937C682.771 372.392 681.993 372.12 680.921 372.12C679.717 372.12 678.354 372.489 676.834 373.227L676.162 371.553C676.874 371.166 677.651 370.863 678.495 370.643C679.348 370.423 680.2 370.313 681.053 370.313C682.775 370.313 684.05 370.696 684.876 371.46C685.711 372.225 686.128 373.451 686.128 375.139V385H684.507ZM679.563 383.458C680.925 383.458 681.993 383.084 682.767 382.337C683.549 381.59 683.94 380.544 683.94 379.199V377.894L681.751 377.986C680.011 378.048 678.754 378.32 677.981 378.804C677.216 379.278 676.834 380.021 676.834 381.032C676.834 381.823 677.071 382.425 677.546 382.838C678.029 383.251 678.702 383.458 679.563 383.458ZM699.075 370.551H701.474L695.238 377.525L701.988 385H699.431L692.839 377.683V385H690.65V370.551H692.839V377.578L699.075 370.551ZM714.42 372.423H709.727V385H707.539V372.423H702.898V370.551H714.42V372.423Z" fill="white"/>
<path d="M648.867 268.646C648.867 253.105 652.144 241.539 658.696 233.948C665.285 226.357 675.132 222.562 688.237 222.562C692.713 222.562 696.222 222.83 698.765 223.367V236.634C695.578 235.918 692.427 235.56 689.312 235.56C683.618 235.56 678.963 236.419 675.347 238.138C671.766 239.856 669.08 242.399 667.29 245.765C665.5 249.131 664.443 253.911 664.121 260.105H664.819C668.364 254.018 674.04 250.975 681.846 250.975C688.864 250.975 694.36 253.177 698.335 257.581C702.31 261.985 704.297 268.073 704.297 275.843C704.297 284.222 701.934 290.864 697.207 295.77C692.48 300.639 685.928 303.074 677.549 303.074C671.748 303.074 666.681 301.731 662.349 299.046C658.052 296.36 654.722 292.439 652.358 287.283C650.031 282.127 648.867 275.914 648.867 268.646ZM677.227 289.808C680.771 289.808 683.493 288.626 685.391 286.263C687.288 283.864 688.237 280.462 688.237 276.058C688.237 272.226 687.342 269.218 685.552 267.034C683.797 264.814 681.13 263.704 677.549 263.704C674.183 263.704 671.3 264.796 668.901 266.98C666.538 269.165 665.356 271.707 665.356 274.607C665.356 278.868 666.466 282.467 668.687 285.403C670.942 288.34 673.789 289.808 677.227 289.808ZM764.077 241.038C764.077 245.944 762.591 250.115 759.619 253.553C756.647 256.99 752.476 259.354 747.104 260.643V260.965C753.442 261.753 758.241 263.686 761.499 266.766C764.757 269.809 766.387 273.927 766.387 279.119C766.387 286.674 763.647 292.565 758.169 296.79C752.69 300.979 744.867 303.074 734.697 303.074C726.175 303.074 718.62 301.66 712.031 298.831V284.705C715.075 286.245 718.423 287.498 722.075 288.465C725.728 289.432 729.344 289.915 732.925 289.915C738.403 289.915 742.45 288.984 745.063 287.122C747.677 285.26 748.984 282.27 748.984 278.152C748.984 274.464 747.48 271.85 744.473 270.311C741.465 268.771 736.667 268.001 730.078 268.001H724.116V255.271H730.186C736.273 255.271 740.713 254.484 743.506 252.908C746.335 251.297 747.749 248.558 747.749 244.69C747.749 238.746 744.025 235.774 736.577 235.774C733.999 235.774 731.367 236.204 728.682 237.063C726.032 237.923 723.078 239.409 719.819 241.521L712.139 230.081C719.3 224.925 727.84 222.347 737.759 222.347C745.887 222.347 752.297 223.994 756.987 227.288C761.714 230.582 764.077 235.166 764.077 241.038ZM795.337 290.452C793.475 297.685 790.324 306.261 785.884 316.18H774.067C776.395 306.655 778.203 297.667 779.492 289.217H794.531L795.337 290.452ZM806.455 268.646C806.455 253.105 809.731 241.539 816.284 233.948C822.873 226.357 832.72 222.562 845.825 222.562C850.301 222.562 853.81 222.83 856.353 223.367V236.634C853.166 235.918 850.015 235.56 846.899 235.56C841.206 235.56 836.551 236.419 832.935 238.138C829.354 239.856 826.668 242.399 824.878 245.765C823.088 249.131 822.031 253.911 821.709 260.105H822.407C825.952 254.018 831.628 250.975 839.434 250.975C846.452 250.975 851.948 253.177 855.923 257.581C859.897 261.985 861.885 268.073 861.885 275.843C861.885 284.222 859.521 290.864 854.795 295.77C850.068 300.639 843.516 303.074 835.137 303.074C829.336 303.074 824.269 301.731 819.937 299.046C815.64 296.36 812.31 292.439 809.946 287.283C807.619 282.127 806.455 275.914 806.455 268.646ZM834.814 289.808C838.359 289.808 841.081 288.626 842.979 286.263C844.876 283.864 845.825 280.462 845.825 276.058C845.825 272.226 844.93 269.218 843.14 267.034C841.385 264.814 838.717 263.704 835.137 263.704C831.771 263.704 828.888 264.796 826.489 266.98C824.126 269.165 822.944 271.707 822.944 274.607C822.944 278.868 824.054 282.467 826.274 285.403C828.53 288.34 831.377 289.808 834.814 289.808ZM926.499 285.726H917.046V302H900.825V285.726H867.31V274.178L901.738 223.475H917.046V272.835H926.499V285.726ZM900.825 272.835V259.515C900.825 257.295 900.915 254.072 901.094 249.847C901.273 245.621 901.416 243.169 901.523 242.488H901.094C899.769 245.424 898.175 248.289 896.313 251.082L881.919 272.835H900.825ZM945.19 247C945.19 251.548 945.584 254.949 946.372 257.205C947.196 259.425 948.503 260.535 950.293 260.535C953.73 260.535 955.449 256.023 955.449 247C955.449 238.048 953.73 233.572 950.293 233.572C948.503 233.572 947.196 234.682 946.372 236.902C945.584 239.087 945.19 242.452 945.19 247ZM968.984 246.893C968.984 255.128 967.391 261.323 964.204 265.477C961.017 269.594 956.344 271.653 950.186 271.653C944.277 271.653 939.712 269.541 936.489 265.315C933.267 261.054 931.655 254.913 931.655 246.893C931.655 230.529 937.832 222.347 950.186 222.347C956.237 222.347 960.874 224.477 964.097 228.738C967.355 232.964 968.984 239.015 968.984 246.893ZM1005.94 223.475L962.378 302H949.487L993.047 223.475H1005.94ZM1000.19 278.367C1000.19 282.915 1000.58 286.316 1001.37 288.572C1002.2 290.792 1003.5 291.902 1005.29 291.902C1008.73 291.902 1010.45 287.391 1010.45 278.367C1010.45 269.415 1008.73 264.939 1005.29 264.939C1003.5 264.939 1002.2 266.049 1001.37 268.27C1000.58 270.454 1000.19 273.82 1000.19 278.367ZM1023.98 278.26C1023.98 286.46 1022.39 292.636 1019.2 296.79C1016.02 300.908 1011.34 302.967 1005.19 302.967C999.277 302.967 994.712 300.854 991.489 296.629C988.267 292.368 986.655 286.245 986.655 278.26C986.655 261.896 992.832 253.714 1005.19 253.714C1011.24 253.714 1015.87 255.844 1019.1 260.105C1022.36 264.331 1023.98 270.382 1023.98 278.26Z" fill="white"/>
<path d="M3.86719 268.646C3.86719 253.105 7.14355 241.539 13.6963 233.948C20.2848 226.357 30.1318 222.562 43.2373 222.562C47.7132 222.562 51.2223 222.83 53.7646 223.367V236.634C50.5778 235.918 47.4268 235.56 44.3115 235.56C38.6182 235.56 33.9632 236.419 30.3467 238.138C26.766 239.856 24.0804 242.399 22.29 245.765C20.4997 249.131 19.4434 253.911 19.1211 260.105H19.8193C23.3643 254.018 29.0397 250.975 36.8457 250.975C43.8639 250.975 49.3604 253.177 53.335 257.581C57.3096 261.985 59.2969 268.073 59.2969 275.843C59.2969 284.222 56.9336 290.864 52.207 295.77C47.4805 300.639 40.9277 303.074 32.5488 303.074C26.748 303.074 21.6813 301.731 17.3486 299.046C13.0518 296.36 9.72168 292.439 7.3584 287.283C5.03092 282.127 3.86719 275.914 3.86719 268.646ZM32.2266 289.808C35.7715 289.808 38.4928 288.626 40.3906 286.263C42.2884 283.864 43.2373 280.462 43.2373 276.058C43.2373 272.226 42.3421 269.218 40.5518 267.034C38.7972 264.814 36.1296 263.704 32.5488 263.704C29.1829 263.704 26.3005 264.796 23.9014 266.98C21.5381 269.165 20.3564 271.707 20.3564 274.607C20.3564 278.868 21.4665 282.467 23.6865 285.403C25.9424 288.34 28.7891 289.808 32.2266 289.808ZM123.911 285.726H114.458V302H98.2373V285.726H64.7217V274.178L99.1504 223.475H114.458V272.835H123.911V285.726ZM98.2373 272.835V259.515C98.2373 257.295 98.3268 254.072 98.5059 249.847C98.6849 245.621 98.8281 243.169 98.9355 242.488H98.5059C97.181 245.424 95.5876 248.289 93.7256 251.082L79.3311 272.835H98.2373ZM150.337 290.452C148.475 297.685 145.324 306.261 140.884 316.18H129.067C131.395 306.655 133.203 297.667 134.492 289.217H149.531L150.337 290.452ZM190.566 251.834C198.158 251.834 204.191 253.965 208.667 258.226C213.179 262.487 215.435 268.323 215.435 275.735C215.435 284.508 212.731 291.258 207.324 295.984C201.917 300.711 194.183 303.074 184.121 303.074C175.384 303.074 168.33 301.66 162.959 298.831V284.49C165.788 285.994 169.082 287.229 172.842 288.196C176.602 289.127 180.164 289.593 183.53 289.593C193.664 289.593 198.73 285.439 198.73 277.132C198.73 269.218 193.485 265.262 182.993 265.262C181.095 265.262 179.001 265.459 176.709 265.853C174.417 266.211 172.555 266.604 171.123 267.034L164.517 263.489L167.471 223.475H210.063V237.547H182.026L180.576 252.962L182.456 252.586C184.64 252.085 187.344 251.834 190.566 251.834ZM237.349 247C237.349 251.548 237.743 254.949 238.53 257.205C239.354 259.425 240.661 260.535 242.451 260.535C245.889 260.535 247.607 256.023 247.607 247C247.607 238.048 245.889 233.572 242.451 233.572C240.661 233.572 239.354 234.682 238.53 236.902C237.743 239.087 237.349 242.452 237.349 247ZM261.143 246.893C261.143 255.128 259.549 261.323 256.362 265.477C253.175 269.594 248.503 271.653 242.344 271.653C236.436 271.653 231.87 269.541 228.647 265.315C225.425 261.054 223.813 254.913 223.813 246.893C223.813 230.529 229.99 222.347 242.344 222.347C248.395 222.347 253.032 224.477 256.255 228.738C259.513 232.964 261.143 239.015 261.143 246.893ZM298.096 223.475L254.536 302H241.646L285.205 223.475H298.096ZM292.349 278.367C292.349 282.915 292.743 286.316 293.53 288.572C294.354 290.792 295.661 291.902 297.451 291.902C300.889 291.902 302.607 287.391 302.607 278.367C302.607 269.415 300.889 264.939 297.451 264.939C295.661 264.939 294.354 266.049 293.53 268.27C292.743 270.454 292.349 273.82 292.349 278.367ZM316.143 278.26C316.143 286.46 314.549 292.636 311.362 296.79C308.175 300.908 303.503 302.967 297.344 302.967C291.436 302.967 286.87 300.854 283.647 296.629C280.425 292.368 278.813 286.245 278.813 278.26C278.813 261.896 284.99 253.714 297.344 253.714C303.395 253.714 308.032 255.844 311.255 260.105C314.513 264.331 316.143 270.382 316.143 278.26Z" fill="white"/>
<path d="M1293.87 464.646C1293.87 449.105 1297.14 437.539 1303.7 429.948C1310.28 422.357 1320.13 418.562 1333.24 418.562C1337.71 418.562 1341.22 418.83 1343.76 419.367V432.634C1340.58 431.918 1337.43 431.56 1334.31 431.56C1328.62 431.56 1323.96 432.419 1320.35 434.138C1316.77 435.856 1314.08 438.399 1312.29 441.765C1310.5 445.131 1309.44 449.911 1309.12 456.105H1309.82C1313.36 450.018 1319.04 446.975 1326.85 446.975C1333.86 446.975 1339.36 449.177 1343.33 453.581C1347.31 457.985 1349.3 464.073 1349.3 471.843C1349.3 480.222 1346.93 486.864 1342.21 491.77C1337.48 496.639 1330.93 499.074 1322.55 499.074C1316.75 499.074 1311.68 497.731 1307.35 495.046C1303.05 492.36 1299.72 488.439 1297.36 483.283C1295.03 478.127 1293.87 471.914 1293.87 464.646ZM1322.23 485.808C1325.77 485.808 1328.49 484.626 1330.39 482.263C1332.29 479.864 1333.24 476.462 1333.24 472.058C1333.24 468.226 1332.34 465.218 1330.55 463.034C1328.8 460.814 1326.13 459.704 1322.55 459.704C1319.18 459.704 1316.3 460.796 1313.9 462.98C1311.54 465.165 1310.36 467.707 1310.36 470.607C1310.36 474.868 1311.47 478.467 1313.69 481.403C1315.94 484.34 1318.79 485.808 1322.23 485.808ZM1413.91 481.726H1404.46V498H1388.24V481.726H1354.72V470.178L1389.15 419.475H1404.46V468.835H1413.91V481.726ZM1388.24 468.835V455.515C1388.24 453.295 1388.33 450.072 1388.51 445.847C1388.68 441.621 1388.83 439.169 1388.94 438.488H1388.51C1387.18 441.424 1385.59 444.289 1383.73 447.082L1369.33 468.835H1388.24ZM1440.34 486.452C1438.47 493.685 1435.32 502.261 1430.88 512.18H1419.07C1421.39 502.655 1423.2 493.667 1424.49 485.217H1439.53L1440.34 486.452ZM1506.56 452.99C1506.56 468.459 1503.3 480.007 1496.79 487.634C1490.27 495.261 1480.41 499.074 1467.19 499.074C1462.54 499.074 1459.01 498.824 1456.61 498.322V485.002C1459.62 485.754 1462.77 486.13 1466.06 486.13C1471.61 486.13 1476.18 485.324 1479.76 483.713C1483.34 482.066 1486.08 479.506 1487.98 476.032C1489.88 472.523 1490.97 467.707 1491.25 461.584H1490.61C1488.53 464.95 1486.13 467.313 1483.41 468.674C1480.69 470.035 1477.29 470.715 1473.21 470.715C1466.37 470.715 1460.98 468.531 1457.04 464.162C1453.1 459.758 1451.13 453.653 1451.13 445.847C1451.13 437.432 1453.51 430.79 1458.28 425.92C1463.07 421.014 1469.59 418.562 1477.83 418.562C1483.63 418.562 1488.69 419.922 1493.03 422.644C1497.4 425.365 1500.74 429.322 1503.07 434.514C1505.4 439.67 1506.56 445.829 1506.56 452.99ZM1478.15 431.882C1474.71 431.882 1472.03 433.063 1470.09 435.427C1468.16 437.79 1467.19 441.192 1467.19 445.632C1467.19 449.427 1468.07 452.435 1469.82 454.655C1471.58 456.875 1474.25 457.985 1477.83 457.985C1481.19 457.985 1484.08 456.893 1486.47 454.709C1488.87 452.489 1490.07 449.947 1490.07 447.082C1490.07 442.821 1488.95 439.222 1486.69 436.286C1484.47 433.35 1481.62 431.882 1478.15 431.882ZM1555.87 498H1539.27V452.561L1539.43 445.095L1539.7 436.931C1536.94 439.688 1535.03 441.496 1533.96 442.355L1524.93 449.606L1516.93 439.616L1542.23 419.475H1555.87V498ZM1590.19 443C1590.19 447.548 1590.58 450.949 1591.37 453.205C1592.2 455.425 1593.5 456.535 1595.29 456.535C1598.73 456.535 1600.45 452.023 1600.45 443C1600.45 434.048 1598.73 429.572 1595.29 429.572C1593.5 429.572 1592.2 430.682 1591.37 432.902C1590.58 435.087 1590.19 438.452 1590.19 443ZM1613.98 442.893C1613.98 451.128 1612.39 457.323 1609.2 461.477C1606.02 465.594 1601.34 467.653 1595.19 467.653C1589.28 467.653 1584.71 465.541 1581.49 461.315C1578.27 457.054 1576.66 450.913 1576.66 442.893C1576.66 426.529 1582.83 418.347 1595.19 418.347C1601.24 418.347 1605.87 420.477 1609.1 424.738C1612.36 428.964 1613.98 435.015 1613.98 442.893ZM1650.94 419.475L1607.38 498H1594.49L1638.05 419.475H1650.94ZM1645.19 474.367C1645.19 478.915 1645.58 482.316 1646.37 484.572C1647.2 486.792 1648.5 487.902 1650.29 487.902C1653.73 487.902 1655.45 483.391 1655.45 474.367C1655.45 465.415 1653.73 460.939 1650.29 460.939C1648.5 460.939 1647.2 462.049 1646.37 464.27C1645.58 466.454 1645.19 469.82 1645.19 474.367ZM1668.98 474.26C1668.98 482.46 1667.39 488.636 1664.2 492.79C1661.02 496.908 1656.34 498.967 1650.19 498.967C1644.28 498.967 1639.71 496.854 1636.49 492.629C1633.27 488.368 1631.66 482.245 1631.66 474.26C1631.66 457.896 1637.83 449.714 1650.19 449.714C1656.24 449.714 1660.87 451.844 1664.1 456.105C1667.36 460.331 1668.98 466.382 1668.98 474.26Z" fill="#01F859"/>
<path d="M657.867 465.646C657.867 450.105 661.144 438.539 667.696 430.948C674.285 423.357 684.132 419.562 697.237 419.562C701.713 419.562 705.222 419.83 707.765 420.367V433.634C704.578 432.918 701.427 432.56 698.312 432.56C692.618 432.56 687.963 433.419 684.347 435.138C680.766 436.856 678.08 439.399 676.29 442.765C674.5 446.131 673.443 450.911 673.121 457.105H673.819C677.364 451.018 683.04 447.975 690.846 447.975C697.864 447.975 703.36 450.177 707.335 454.581C711.31 458.985 713.297 465.073 713.297 472.843C713.297 481.222 710.934 487.864 706.207 492.77C701.48 497.639 694.928 500.074 686.549 500.074C680.748 500.074 675.681 498.731 671.349 496.046C667.052 493.36 663.722 489.439 661.358 484.283C659.031 479.127 657.867 472.914 657.867 465.646ZM686.227 486.808C689.771 486.808 692.493 485.626 694.391 483.263C696.288 480.864 697.237 477.462 697.237 473.058C697.237 469.226 696.342 466.218 694.552 464.034C692.797 461.814 690.13 460.704 686.549 460.704C683.183 460.704 680.3 461.796 677.901 463.98C675.538 466.165 674.356 468.707 674.356 471.607C674.356 475.868 675.466 479.467 677.687 482.403C679.942 485.34 682.789 486.808 686.227 486.808ZM777.911 482.726H768.458V499H752.237V482.726H718.722V471.178L753.15 420.475H768.458V469.835H777.911V482.726ZM752.237 469.835V456.515C752.237 454.295 752.327 451.072 752.506 446.847C752.685 442.621 752.828 440.169 752.936 439.488H752.506C751.181 442.424 749.588 445.289 747.726 448.082L733.331 469.835H752.237ZM804.337 487.452C802.475 494.685 799.324 503.261 794.884 513.18H783.067C785.395 503.655 787.203 494.667 788.492 486.217H803.531L804.337 487.452ZM870.562 453.99C870.562 469.459 867.304 481.007 860.787 488.634C854.27 496.261 844.405 500.074 831.192 500.074C826.537 500.074 823.01 499.824 820.611 499.322V486.002C823.619 486.754 826.77 487.13 830.064 487.13C835.615 487.13 840.18 486.324 843.761 484.713C847.341 483.066 850.081 480.506 851.979 477.032C853.876 473.523 854.968 468.707 855.255 462.584H854.61C852.534 465.95 850.134 468.313 847.413 469.674C844.692 471.035 841.29 471.715 837.208 471.715C830.369 471.715 824.98 469.531 821.041 465.162C817.102 460.758 815.133 454.653 815.133 446.847C815.133 438.432 817.514 431.79 822.276 426.92C827.075 422.014 833.591 419.562 841.827 419.562C847.628 419.562 852.695 420.922 857.027 423.644C861.396 426.365 864.744 430.322 867.071 435.514C869.399 440.67 870.562 446.829 870.562 453.99ZM842.149 432.882C838.712 432.882 836.026 434.063 834.093 436.427C832.159 438.79 831.192 442.192 831.192 446.632C831.192 450.427 832.07 453.435 833.824 455.655C835.579 457.875 838.246 458.985 841.827 458.985C845.193 458.985 848.076 457.893 850.475 455.709C852.874 453.489 854.073 450.947 854.073 448.082C854.073 443.821 852.945 440.222 850.689 437.286C848.469 434.35 845.623 432.882 842.149 432.882ZM919.869 499H903.272V453.561L903.434 446.095L903.702 437.931C900.945 440.688 899.029 442.496 897.955 443.355L888.932 450.606L880.929 440.616L906.227 420.475H919.869V499ZM954.19 444C954.19 448.548 954.584 451.949 955.372 454.205C956.196 456.425 957.503 457.535 959.293 457.535C962.73 457.535 964.449 453.023 964.449 444C964.449 435.048 962.73 430.572 959.293 430.572C957.503 430.572 956.196 431.682 955.372 433.902C954.584 436.087 954.19 439.452 954.19 444ZM977.984 443.893C977.984 452.128 976.391 458.323 973.204 462.477C970.017 466.594 965.344 468.653 959.186 468.653C953.277 468.653 948.712 466.541 945.489 462.315C942.267 458.054 940.655 451.913 940.655 443.893C940.655 427.529 946.832 419.347 959.186 419.347C965.237 419.347 969.874 421.477 973.097 425.738C976.355 429.964 977.984 436.015 977.984 443.893ZM1014.94 420.475L971.378 499H958.487L1002.05 420.475H1014.94ZM1009.19 475.367C1009.19 479.915 1009.58 483.316 1010.37 485.572C1011.2 487.792 1012.5 488.902 1014.29 488.902C1017.73 488.902 1019.45 484.391 1019.45 475.367C1019.45 466.415 1017.73 461.939 1014.29 461.939C1012.5 461.939 1011.2 463.049 1010.37 465.27C1009.58 467.454 1009.19 470.82 1009.19 475.367ZM1032.98 475.26C1032.98 483.46 1031.39 489.636 1028.2 493.79C1025.02 497.908 1020.34 499.967 1014.19 499.967C1008.28 499.967 1003.71 497.854 1000.49 493.629C997.267 489.368 995.655 483.245 995.655 475.26C995.655 458.896 1001.83 450.714 1014.19 450.714C1020.24 450.714 1024.87 452.844 1028.1 457.105C1031.36 461.331 1032.98 467.382 1032.98 475.26Z" fill="#01F859"/>
<path d="M1293.87 248.646C1293.87 233.105 1297.14 221.539 1303.7 213.948C1310.28 206.357 1320.13 202.562 1333.24 202.562C1337.71 202.562 1341.22 202.83 1343.76 203.367V216.634C1340.58 215.918 1337.43 215.56 1334.31 215.56C1328.62 215.56 1323.96 216.419 1320.35 218.138C1316.77 219.856 1314.08 222.399 1312.29 225.765C1310.5 229.131 1309.44 233.911 1309.12 240.105H1309.82C1313.36 234.018 1319.04 230.975 1326.85 230.975C1333.86 230.975 1339.36 233.177 1343.33 237.581C1347.31 241.985 1349.3 248.073 1349.3 255.843C1349.3 264.222 1346.93 270.864 1342.21 275.77C1337.48 280.639 1330.93 283.074 1322.55 283.074C1316.75 283.074 1311.68 281.731 1307.35 279.046C1303.05 276.36 1299.72 272.439 1297.36 267.283C1295.03 262.127 1293.87 255.914 1293.87 248.646ZM1322.23 269.808C1325.77 269.808 1328.49 268.626 1330.39 266.263C1332.29 263.864 1333.24 260.462 1333.24 256.058C1333.24 252.226 1332.34 249.218 1330.55 247.034C1328.8 244.814 1326.13 243.704 1322.55 243.704C1319.18 243.704 1316.3 244.796 1313.9 246.98C1311.54 249.165 1310.36 251.707 1310.36 254.607C1310.36 258.868 1311.47 262.467 1313.69 265.403C1315.94 268.34 1318.79 269.808 1322.23 269.808ZM1409.08 221.038C1409.08 225.944 1407.59 230.115 1404.62 233.553C1401.65 236.99 1397.48 239.354 1392.1 240.643V240.965C1398.44 241.753 1403.24 243.686 1406.5 246.766C1409.76 249.809 1411.39 253.927 1411.39 259.119C1411.39 266.674 1408.65 272.565 1403.17 276.79C1397.69 280.979 1389.87 283.074 1379.7 283.074C1371.18 283.074 1363.62 281.66 1357.03 278.831V264.705C1360.07 266.245 1363.42 267.498 1367.08 268.465C1370.73 269.432 1374.34 269.915 1377.92 269.915C1383.4 269.915 1387.45 268.984 1390.06 267.122C1392.68 265.26 1393.98 262.27 1393.98 258.152C1393.98 254.464 1392.48 251.85 1389.47 250.311C1386.46 248.771 1381.67 248.001 1375.08 248.001H1369.12V235.271H1375.19C1381.27 235.271 1385.71 234.484 1388.51 232.908C1391.33 231.297 1392.75 228.558 1392.75 224.69C1392.75 218.746 1389.03 215.774 1381.58 215.774C1379 215.774 1376.37 216.204 1373.68 217.063C1371.03 217.923 1368.08 219.409 1364.82 221.521L1357.14 210.081C1364.3 204.925 1372.84 202.347 1382.76 202.347C1390.89 202.347 1397.3 203.994 1401.99 207.288C1406.71 210.582 1409.08 215.166 1409.08 221.038ZM1440.34 270.452C1438.47 277.685 1435.32 286.261 1430.88 296.18H1419.07C1421.39 286.655 1423.2 277.667 1424.49 269.217H1439.53L1440.34 270.452ZM1506.56 236.99C1506.56 252.459 1503.3 264.007 1496.79 271.634C1490.27 279.261 1480.41 283.074 1467.19 283.074C1462.54 283.074 1459.01 282.824 1456.61 282.322V269.002C1459.62 269.754 1462.77 270.13 1466.06 270.13C1471.61 270.13 1476.18 269.324 1479.76 267.713C1483.34 266.066 1486.08 263.506 1487.98 260.032C1489.88 256.523 1490.97 251.707 1491.25 245.584H1490.61C1488.53 248.95 1486.13 251.313 1483.41 252.674C1480.69 254.035 1477.29 254.715 1473.21 254.715C1466.37 254.715 1460.98 252.531 1457.04 248.162C1453.1 243.758 1451.13 237.653 1451.13 229.847C1451.13 221.432 1453.51 214.79 1458.28 209.92C1463.07 205.014 1469.59 202.562 1477.83 202.562C1483.63 202.562 1488.69 203.922 1493.03 206.644C1497.4 209.365 1500.74 213.322 1503.07 218.514C1505.4 223.67 1506.56 229.829 1506.56 236.99ZM1478.15 215.882C1474.71 215.882 1472.03 217.063 1470.09 219.427C1468.16 221.79 1467.19 225.192 1467.19 229.632C1467.19 233.427 1468.07 236.435 1469.82 238.655C1471.58 240.875 1474.25 241.985 1477.83 241.985C1481.19 241.985 1484.08 240.893 1486.47 238.709C1488.87 236.489 1490.07 233.947 1490.07 231.082C1490.07 226.821 1488.95 223.222 1486.69 220.286C1484.47 217.35 1481.62 215.882 1478.15 215.882ZM1569.4 236.99C1569.4 252.459 1566.15 264.007 1559.63 271.634C1553.11 279.261 1543.25 283.074 1530.03 283.074C1525.38 283.074 1521.85 282.824 1519.45 282.322V269.002C1522.46 269.754 1525.61 270.13 1528.91 270.13C1534.46 270.13 1539.02 269.324 1542.6 267.713C1546.18 266.066 1548.92 263.506 1550.82 260.032C1552.72 256.523 1553.81 251.707 1554.1 245.584H1553.45C1551.38 248.95 1548.98 251.313 1546.25 252.674C1543.53 254.035 1540.13 254.715 1536.05 254.715C1529.21 254.715 1523.82 252.531 1519.88 248.162C1515.94 243.758 1513.97 237.653 1513.97 229.847C1513.97 221.432 1516.36 214.79 1521.12 209.92C1525.92 205.014 1532.43 202.562 1540.67 202.562C1546.47 202.562 1551.54 203.922 1555.87 206.644C1560.24 209.365 1563.59 213.322 1565.91 218.514C1568.24 223.67 1569.4 229.829 1569.4 236.99ZM1540.99 215.882C1537.55 215.882 1534.87 217.063 1532.93 219.427C1531 221.79 1530.03 225.192 1530.03 229.632C1530.03 233.427 1530.91 236.435 1532.67 238.655C1534.42 240.875 1537.09 241.985 1540.67 241.985C1544.03 241.985 1546.92 240.893 1549.32 238.709C1551.72 236.489 1552.92 233.947 1552.92 231.082C1552.92 226.821 1551.79 223.222 1549.53 220.286C1547.31 217.35 1544.46 215.882 1540.99 215.882ZM1590.19 227C1590.19 231.548 1590.58 234.949 1591.37 237.205C1592.2 239.425 1593.5 240.535 1595.29 240.535C1598.73 240.535 1600.45 236.023 1600.45 227C1600.45 218.048 1598.73 213.572 1595.29 213.572C1593.5 213.572 1592.2 214.682 1591.37 216.902C1590.58 219.087 1590.19 222.452 1590.19 227ZM1613.98 226.893C1613.98 235.128 1612.39 241.323 1609.2 245.477C1606.02 249.594 1601.34 251.653 1595.19 251.653C1589.28 251.653 1584.71 249.541 1581.49 245.315C1578.27 241.054 1576.66 234.913 1576.66 226.893C1576.66 210.529 1582.83 202.347 1595.19 202.347C1601.24 202.347 1605.87 204.477 1609.1 208.738C1612.36 212.964 1613.98 219.015 1613.98 226.893ZM1650.94 203.475L1607.38 282H1594.49L1638.05 203.475H1650.94ZM1645.19 258.367C1645.19 262.915 1645.58 266.316 1646.37 268.572C1647.2 270.792 1648.5 271.902 1650.29 271.902C1653.73 271.902 1655.45 267.391 1655.45 258.367C1655.45 249.415 1653.73 244.939 1650.29 244.939C1648.5 244.939 1647.2 246.049 1646.37 248.27C1645.58 250.454 1645.19 253.82 1645.19 258.367ZM1668.98 258.26C1668.98 266.46 1667.39 272.636 1664.2 276.79C1661.02 280.908 1656.34 282.967 1650.19 282.967C1644.28 282.967 1639.71 280.854 1636.49 276.629C1633.27 272.368 1631.66 266.245 1631.66 258.26C1631.66 241.896 1637.83 233.714 1650.19 233.714C1656.24 233.714 1660.87 235.844 1664.1 240.105C1667.36 244.331 1668.98 250.382 1668.98 258.26Z" fill="white"/>
<circle cx="1140.5" cy="459.5" r="38.5" fill="#212B4B"/>
<path d="M1122 457L1137.5 473.5H1139.5L1161 443" stroke="#01F859" stroke-width="7"/>
<circle cx="1781.5" cy="460.5" r="38.5" fill="#212B4B"/>
<path d="M1763 458L1778.5 474.5H1780.5L1802 444" stroke="#01F859" stroke-width="7"/>
<circle cx="995" cy="1159" r="300" stroke="#2A3254" stroke-width="184.709"/>
<path d="M995 859C829.315 859 695 993.315 695 1159C695 1324.69 829.315 1459 995 1459C1089.18 1459 1173.22 1415.6 1228.22 1347.72" stroke="#00F957" stroke-width="184.709"/>
<path d="M843.219 1165.71C843.219 1153 845.899 1143.53 851.261 1137.32C856.651 1131.11 864.708 1128 875.431 1128C879.093 1128 881.964 1128.22 884.044 1128.66V1139.52C881.437 1138.93 878.858 1138.64 876.31 1138.64C871.651 1138.64 867.843 1139.34 864.884 1140.75C861.954 1142.16 859.757 1144.24 858.292 1146.99C856.827 1149.74 855.963 1153.65 855.699 1158.72H856.271C859.171 1153.74 863.814 1151.25 870.201 1151.25C875.943 1151.25 880.44 1153.05 883.692 1156.66C886.944 1160.26 888.57 1165.24 888.57 1171.6C888.57 1178.45 886.637 1183.89 882.77 1187.9C878.902 1191.89 873.541 1193.88 866.686 1193.88C861.939 1193.88 857.794 1192.78 854.249 1190.58C850.733 1188.39 848.009 1185.18 846.075 1180.96C844.171 1176.74 843.219 1171.66 843.219 1165.71ZM866.422 1183.02C869.322 1183.02 871.549 1182.06 873.102 1180.12C874.654 1178.16 875.431 1175.38 875.431 1171.77C875.431 1168.64 874.698 1166.18 873.233 1164.39C871.798 1162.58 869.615 1161.67 866.686 1161.67C863.932 1161.67 861.573 1162.56 859.61 1164.35C857.677 1166.13 856.71 1168.21 856.71 1170.59C856.71 1174.07 857.618 1177.02 859.435 1179.42C861.28 1181.82 863.609 1183.02 866.422 1183.02ZM941.437 1179.68H933.702V1193H920.431V1179.68H893.009V1170.24L921.178 1128.75H933.702V1169.14H941.437V1179.68ZM920.431 1169.14V1158.24C920.431 1156.42 920.504 1153.79 920.65 1150.33C920.797 1146.87 920.914 1144.87 921.002 1144.31H920.65C919.566 1146.71 918.263 1149.05 916.739 1151.34L904.962 1169.14H920.431ZM963.058 1183.55C961.534 1189.47 958.956 1196.49 955.323 1204.6H945.655C947.56 1196.81 949.039 1189.46 950.094 1182.54H962.398L963.058 1183.55ZM1017.24 1156.17C1017.24 1168.83 1014.58 1178.28 1009.24 1184.52C1003.91 1190.76 995.841 1193.88 985.03 1193.88C981.222 1193.88 978.336 1193.67 976.373 1193.26V1182.37C978.834 1182.98 981.412 1183.29 984.107 1183.29C988.648 1183.29 992.384 1182.63 995.313 1181.31C998.243 1179.96 1000.48 1177.87 1002.04 1175.03C1003.59 1172.16 1004.48 1168.21 1004.72 1163.21H1004.19C1002.49 1165.96 1000.53 1167.89 998.302 1169.01C996.075 1170.12 993.292 1170.68 989.952 1170.68C984.356 1170.68 979.947 1168.89 976.725 1165.31C973.502 1161.71 971.891 1156.72 971.891 1150.33C971.891 1143.44 973.839 1138.01 977.735 1134.03C981.661 1130.01 986.993 1128 993.731 1128C998.478 1128 1002.62 1129.12 1006.17 1131.34C1009.74 1133.57 1012.48 1136.81 1014.39 1141.06C1016.29 1145.28 1017.24 1150.31 1017.24 1156.17ZM993.995 1138.9C991.183 1138.9 988.985 1139.87 987.403 1141.8C985.821 1143.74 985.03 1146.52 985.03 1150.15C985.03 1153.26 985.748 1155.72 987.184 1157.54C988.619 1159.35 990.802 1160.26 993.731 1160.26C996.485 1160.26 998.844 1159.37 1000.81 1157.58C1002.77 1155.76 1003.75 1153.68 1003.75 1151.34C1003.75 1147.85 1002.83 1144.91 1000.98 1142.51C999.166 1140.1 996.837 1138.9 993.995 1138.9ZM1057.58 1193H1044V1155.82L1044.14 1149.71L1044.36 1143.03C1042.1 1145.29 1040.53 1146.77 1039.65 1147.47L1032.27 1153.41L1025.72 1145.23L1046.42 1128.75H1057.58V1193ZM1085.67 1148C1085.67 1151.72 1085.99 1154.5 1086.63 1156.35C1087.31 1158.17 1088.38 1159.07 1089.84 1159.07C1092.65 1159.07 1094.06 1155.38 1094.06 1148C1094.06 1140.68 1092.65 1137.01 1089.84 1137.01C1088.38 1137.01 1087.31 1137.92 1086.63 1139.74C1085.99 1141.53 1085.67 1144.28 1085.67 1148ZM1105.13 1147.91C1105.13 1154.65 1103.83 1159.72 1101.22 1163.12C1098.61 1166.49 1094.79 1168.17 1089.75 1168.17C1084.92 1168.17 1081.18 1166.44 1078.55 1162.99C1075.91 1159.5 1074.59 1154.47 1074.59 1147.91C1074.59 1134.52 1079.64 1127.83 1089.75 1127.83C1094.7 1127.83 1098.5 1129.57 1101.13 1133.06C1103.8 1136.52 1105.13 1141.47 1105.13 1147.91ZM1135.37 1128.75L1099.73 1193H1089.18L1124.82 1128.75H1135.37ZM1130.67 1173.66C1130.67 1177.38 1130.99 1180.17 1131.63 1182.01C1132.31 1183.83 1133.38 1184.74 1134.84 1184.74C1137.65 1184.74 1139.06 1181.05 1139.06 1173.66C1139.06 1166.34 1137.65 1162.68 1134.84 1162.68C1133.38 1162.68 1132.31 1163.59 1131.63 1165.4C1130.99 1167.19 1130.67 1169.94 1130.67 1173.66ZM1150.13 1173.58C1150.13 1180.29 1148.83 1185.34 1146.22 1188.74C1143.61 1192.11 1139.79 1193.79 1134.75 1193.79C1129.92 1193.79 1126.18 1192.06 1123.55 1188.61C1120.91 1185.12 1119.59 1180.11 1119.59 1173.58C1119.59 1160.19 1124.64 1153.49 1134.75 1153.49C1139.7 1153.49 1143.5 1155.24 1146.13 1158.72C1148.8 1162.18 1150.13 1167.13 1150.13 1173.58Z" fill="white"/>
</svg>
