<svg width="1976" height="1286" viewBox="0 0 1976 1286" fill="none" xmlns="http://www.w3.org/2000/svg">
<path d="M161.84 143.246C161.84 185.434 152.953 216.928 135.18 237.729C117.406 258.529 90.502 268.93 54.4668 268.93C41.7715 268.93 32.1523 268.246 25.6094 266.879V230.551C33.8125 232.602 42.4062 233.627 51.3906 233.627C66.5273 233.627 78.9785 231.43 88.7441 227.035C98.5098 222.543 105.98 215.561 111.156 206.088C116.332 196.518 119.311 183.383 120.092 166.684H118.334C112.67 175.863 106.127 182.309 98.7051 186.02C91.2832 189.73 82.0059 191.586 70.873 191.586C52.2207 191.586 37.5234 185.629 26.7812 173.715C16.0391 161.703 10.668 145.053 10.668 123.764C10.668 100.814 17.1621 82.6992 30.1504 69.418C43.2363 56.0391 61.0098 49.3496 83.4707 49.3496C99.291 49.3496 113.109 53.0605 124.926 60.4824C136.84 67.9043 145.971 78.6953 152.318 92.8555C158.666 106.918 161.84 123.715 161.84 143.246ZM84.3496 85.6777C74.9746 85.6777 67.6504 88.9004 62.377 95.3457C57.1035 101.791 54.4668 111.068 54.4668 123.178C54.4668 133.529 56.8594 141.732 61.6445 147.787C66.4297 153.842 73.7051 156.869 83.4707 156.869C92.6504 156.869 100.512 153.891 107.055 147.934C113.598 141.879 116.869 134.945 116.869 127.133C116.869 115.512 113.793 105.697 107.641 97.6895C101.586 89.6816 93.8223 85.6777 84.3496 85.6777ZM338.939 221.615H313.158V266H268.92V221.615H177.514V190.121L271.41 51.8398H313.158V186.459H338.939V221.615ZM268.92 186.459V150.131C268.92 144.076 269.164 135.287 269.652 123.764C270.141 112.24 270.531 105.551 270.824 103.695H269.652C266.039 111.703 261.693 119.516 256.615 127.133L217.357 186.459H268.92ZM411.01 234.506C405.932 254.232 397.338 277.621 385.229 304.672H353.002C359.35 278.695 364.281 254.184 367.797 231.137H408.812L411.01 234.506ZM591.625 143.246C591.625 185.434 582.738 216.928 564.965 237.729C547.191 258.529 520.287 268.93 484.252 268.93C471.557 268.93 461.938 268.246 455.395 266.879V230.551C463.598 232.602 472.191 233.627 481.176 233.627C496.312 233.627 508.764 231.43 518.529 227.035C528.295 222.543 535.766 215.561 540.941 206.088C546.117 196.518 549.096 183.383 549.877 166.684H548.119C542.455 175.863 535.912 182.309 528.49 186.02C521.068 189.73 511.791 191.586 500.658 191.586C482.006 191.586 467.309 185.629 456.566 173.715C445.824 161.703 440.453 145.053 440.453 123.764C440.453 100.814 446.947 82.6992 459.936 69.418C473.021 56.0391 490.795 49.3496 513.256 49.3496C529.076 49.3496 542.895 53.0605 554.711 60.4824C566.625 67.9043 575.756 78.6953 582.104 92.8555C588.451 106.918 591.625 123.715 591.625 143.246ZM514.135 85.6777C504.76 85.6777 497.436 88.9004 492.162 95.3457C486.889 101.791 484.252 111.068 484.252 123.178C484.252 133.529 486.645 141.732 491.43 147.787C496.215 153.842 503.49 156.869 513.256 156.869C522.436 156.869 530.297 153.891 536.84 147.934C543.383 141.879 546.654 134.945 546.654 127.133C546.654 115.512 543.578 105.697 537.426 97.6895C531.371 89.6816 523.607 85.6777 514.135 85.6777ZM648.314 116C648.314 128.402 649.389 137.68 651.537 143.832C653.783 149.887 657.348 152.914 662.23 152.914C671.605 152.914 676.293 140.609 676.293 116C676.293 91.5859 671.605 79.3789 662.23 79.3789C657.348 79.3789 653.783 82.4063 651.537 88.4609C649.389 94.418 648.314 103.598 648.314 116ZM713.207 115.707C713.207 138.168 708.861 155.062 700.17 166.391C691.479 177.621 678.734 183.236 661.938 183.236C645.824 183.236 633.373 177.475 624.584 165.951C615.795 154.33 611.4 137.582 611.4 115.707C611.4 71.0781 628.246 48.7637 661.938 48.7637C678.441 48.7637 691.088 54.5742 699.877 66.1953C708.764 77.7188 713.207 94.2227 713.207 115.707ZM813.988 51.8398L695.189 266H660.033L778.832 51.8398H813.988ZM798.314 201.547C798.314 213.949 799.389 223.227 801.537 229.379C803.783 235.434 807.348 238.461 812.23 238.461C821.605 238.461 826.293 226.156 826.293 201.547C826.293 177.133 821.605 164.926 812.23 164.926C807.348 164.926 803.783 167.953 801.537 174.008C799.389 179.965 798.314 189.145 798.314 201.547ZM863.207 201.254C863.207 223.617 858.861 240.463 850.17 251.791C841.479 263.021 828.734 268.637 811.938 268.637C795.824 268.637 783.373 262.875 774.584 251.352C765.795 239.73 761.4 223.031 761.4 201.254C761.4 156.625 778.246 134.311 811.938 134.311C828.441 134.311 841.088 140.121 849.877 151.742C858.764 163.266 863.207 179.77 863.207 201.254Z" fill="#01F859"/>
<rect x="616" y="416" width="645" height="870" fill="#C4C4C4" fill-opacity="0.05"/>
<path d="M27.9531 490H3.00195V484.751L11.9619 475.693C14.6149 472.975 16.3483 471.095 17.1621 470.054C17.9759 468.996 18.5618 468.019 18.9199 467.124C19.278 466.229 19.457 465.301 19.457 464.341C19.457 462.909 19.0583 461.842 18.2607 461.143C17.4795 460.443 16.4297 460.093 15.1113 460.093C13.7279 460.093 12.3851 460.41 11.083 461.045C9.78092 461.68 8.42188 462.583 7.00586 463.755L2.9043 458.896C4.66211 457.399 6.11882 456.341 7.27441 455.723C8.43001 455.104 9.69141 454.632 11.0586 454.307C12.4258 453.965 13.9557 453.794 15.6484 453.794C17.8783 453.794 19.8477 454.201 21.5566 455.015C23.2656 455.828 24.5921 456.968 25.5361 458.433C26.4801 459.897 26.9521 461.574 26.9521 463.462C26.9521 465.106 26.6592 466.652 26.0732 468.101C25.5036 469.533 24.6084 471.006 23.3877 472.52C22.1833 474.033 20.0511 476.19 16.9912 478.989L12.4014 483.311V483.652H27.9531V490ZM56.3223 472.153C56.3223 478.387 55.2969 483.001 53.2461 485.996C51.2116 488.991 48.0703 490.488 43.8223 490.488C39.7044 490.488 36.5957 488.942 34.4961 485.85C32.4128 482.757 31.3711 478.192 31.3711 472.153C31.3711 465.854 32.3883 461.216 34.4229 458.237C36.4574 455.243 39.5905 453.745 43.8223 453.745C47.9401 453.745 51.0488 455.308 53.1484 458.433C55.2643 461.558 56.3223 466.131 56.3223 472.153ZM38.8662 472.153C38.8662 476.532 39.2406 479.673 39.9893 481.577C40.7542 483.465 42.0319 484.409 43.8223 484.409C45.5801 484.409 46.8496 483.449 47.6309 481.528C48.4121 479.608 48.8027 476.483 48.8027 472.153C48.8027 467.775 48.404 464.634 47.6064 462.729C46.8252 460.809 45.5638 459.849 43.8223 459.849C42.0482 459.849 40.7786 460.809 40.0137 462.729C39.2487 464.634 38.8662 467.775 38.8662 472.153ZM78.7832 490H71.2393V469.346L71.3125 465.952L71.4346 462.241C70.1813 463.494 69.3105 464.316 68.8223 464.707L64.7207 468.003L61.083 463.462L72.582 454.307H78.7832V490ZM113.5 469.541C113.5 476.572 112.019 481.821 109.057 485.288C106.094 488.755 101.61 490.488 95.6045 490.488C93.4886 490.488 91.8854 490.374 90.7949 490.146V484.092C92.1621 484.434 93.5944 484.604 95.0918 484.604C97.6146 484.604 99.6898 484.238 101.317 483.506C102.945 482.757 104.19 481.593 105.053 480.015C105.915 478.42 106.412 476.23 106.542 473.447H106.249C105.305 474.977 104.215 476.051 102.978 476.67C101.741 477.288 100.194 477.598 98.3389 477.598C95.2301 477.598 92.7806 476.605 90.9902 474.619C89.1999 472.617 88.3047 469.842 88.3047 466.294C88.3047 462.469 89.387 459.45 91.5518 457.236C93.7327 455.007 96.695 453.892 100.438 453.892C103.075 453.892 105.378 454.51 107.348 455.747C109.333 456.984 110.855 458.783 111.913 461.143C112.971 463.486 113.5 466.286 113.5 469.541ZM100.585 459.946C99.0225 459.946 97.8018 460.483 96.9229 461.558C96.0439 462.632 95.6045 464.178 95.6045 466.196C95.6045 467.922 96.0033 469.289 96.8008 470.298C97.5983 471.307 98.8109 471.812 100.438 471.812C101.968 471.812 103.279 471.315 104.369 470.322C105.46 469.313 106.005 468.158 106.005 466.855C106.005 464.919 105.492 463.283 104.467 461.948C103.458 460.614 102.164 459.946 100.585 459.946Z" fill="white"/>
<path d="M672.953 490H648.002V484.751L656.962 475.693C659.615 472.975 661.348 471.095 662.162 470.054C662.976 468.996 663.562 468.019 663.92 467.124C664.278 466.229 664.457 465.301 664.457 464.341C664.457 462.909 664.058 461.842 663.261 461.143C662.479 460.443 661.43 460.093 660.111 460.093C658.728 460.093 657.385 460.41 656.083 461.045C654.781 461.68 653.422 462.583 652.006 463.755L647.904 458.896C649.662 457.399 651.119 456.341 652.274 455.723C653.43 455.104 654.691 454.632 656.059 454.307C657.426 453.965 658.956 453.794 660.648 453.794C662.878 453.794 664.848 454.201 666.557 455.015C668.266 455.828 669.592 456.968 670.536 458.433C671.48 459.897 671.952 461.574 671.952 463.462C671.952 465.106 671.659 466.652 671.073 468.101C670.504 469.533 669.608 471.006 668.388 472.52C667.183 474.033 665.051 476.19 661.991 478.989L657.401 483.311V483.652H672.953V490ZM701.322 472.153C701.322 478.387 700.297 483.001 698.246 485.996C696.212 488.991 693.07 490.488 688.822 490.488C684.704 490.488 681.596 488.942 679.496 485.85C677.413 482.757 676.371 478.192 676.371 472.153C676.371 465.854 677.388 461.216 679.423 458.237C681.457 455.243 684.59 453.745 688.822 453.745C692.94 453.745 696.049 455.308 698.148 458.433C700.264 461.558 701.322 466.131 701.322 472.153ZM683.866 472.153C683.866 476.532 684.241 479.673 684.989 481.577C685.754 483.465 687.032 484.409 688.822 484.409C690.58 484.409 691.85 483.449 692.631 481.528C693.412 479.608 693.803 476.483 693.803 472.153C693.803 467.775 693.404 464.634 692.606 462.729C691.825 460.809 690.564 459.849 688.822 459.849C687.048 459.849 685.779 460.809 685.014 462.729C684.249 464.634 683.866 467.775 683.866 472.153ZM730.082 490H705.131V484.751L714.091 475.693C716.744 472.975 718.477 471.095 719.291 470.054C720.105 468.996 720.691 468.019 721.049 467.124C721.407 466.229 721.586 465.301 721.586 464.341C721.586 462.909 721.187 461.842 720.39 461.143C719.608 460.443 718.559 460.093 717.24 460.093C715.857 460.093 714.514 460.41 713.212 461.045C711.91 461.68 710.551 462.583 709.135 463.755L705.033 458.896C706.791 457.399 708.248 456.341 709.403 455.723C710.559 455.104 711.82 454.632 713.188 454.307C714.555 453.965 716.085 453.794 717.777 453.794C720.007 453.794 721.977 454.201 723.686 455.015C725.395 455.828 726.721 456.968 727.665 458.433C728.609 459.897 729.081 461.574 729.081 463.462C729.081 465.106 728.788 466.652 728.202 468.101C727.632 469.533 726.737 471.006 725.517 472.52C724.312 474.033 722.18 476.19 719.12 478.989L714.53 483.311V483.652H730.082V490ZM758.451 472.153C758.451 478.387 757.426 483.001 755.375 485.996C753.34 488.991 750.199 490.488 745.951 490.488C741.833 490.488 738.725 488.942 736.625 485.85C734.542 482.757 733.5 478.192 733.5 472.153C733.5 465.854 734.517 461.216 736.552 458.237C738.586 455.243 741.719 453.745 745.951 453.745C750.069 453.745 753.178 455.308 755.277 458.433C757.393 461.558 758.451 466.131 758.451 472.153ZM740.995 472.153C740.995 476.532 741.369 479.673 742.118 481.577C742.883 483.465 744.161 484.409 745.951 484.409C747.709 484.409 748.979 483.449 749.76 481.528C750.541 479.608 750.932 476.483 750.932 472.153C750.932 467.775 750.533 464.634 749.735 462.729C748.954 460.809 747.693 459.849 745.951 459.849C744.177 459.849 742.908 460.809 742.143 462.729C741.378 464.634 740.995 467.775 740.995 472.153Z" fill="white"/>
<path d="M1317.95 490H1293V484.751L1301.96 475.693C1304.61 472.975 1306.35 471.095 1307.16 470.054C1307.98 468.996 1308.56 468.019 1308.92 467.124C1309.28 466.229 1309.46 465.301 1309.46 464.341C1309.46 462.909 1309.06 461.842 1308.26 461.143C1307.48 460.443 1306.43 460.093 1305.11 460.093C1303.73 460.093 1302.39 460.41 1301.08 461.045C1299.78 461.68 1298.42 462.583 1297.01 463.755L1292.9 458.896C1294.66 457.399 1296.12 456.341 1297.27 455.723C1298.43 455.104 1299.69 454.632 1301.06 454.307C1302.43 453.965 1303.96 453.794 1305.65 453.794C1307.88 453.794 1309.85 454.201 1311.56 455.015C1313.27 455.828 1314.59 456.968 1315.54 458.433C1316.48 459.897 1316.95 461.574 1316.95 463.462C1316.95 465.106 1316.66 466.652 1316.07 468.101C1315.5 469.533 1314.61 471.006 1313.39 472.52C1312.18 474.033 1310.05 476.19 1306.99 478.989L1302.4 483.311V483.652H1317.95V490ZM1346.32 472.153C1346.32 478.387 1345.3 483.001 1343.25 485.996C1341.21 488.991 1338.07 490.488 1333.82 490.488C1329.7 490.488 1326.6 488.942 1324.5 485.85C1322.41 482.757 1321.37 478.192 1321.37 472.153C1321.37 465.854 1322.39 461.216 1324.42 458.237C1326.46 455.243 1329.59 453.745 1333.82 453.745C1337.94 453.745 1341.05 455.308 1343.15 458.433C1345.26 461.558 1346.32 466.131 1346.32 472.153ZM1328.87 472.153C1328.87 476.532 1329.24 479.673 1329.99 481.577C1330.75 483.465 1332.03 484.409 1333.82 484.409C1335.58 484.409 1336.85 483.449 1337.63 481.528C1338.41 479.608 1338.8 476.483 1338.8 472.153C1338.8 467.775 1338.4 464.634 1337.61 462.729C1336.83 460.809 1335.56 459.849 1333.82 459.849C1332.05 459.849 1330.78 460.809 1330.01 462.729C1329.25 464.634 1328.87 467.775 1328.87 472.153ZM1375.08 490H1350.13V484.751L1359.09 475.693C1361.74 472.975 1363.48 471.095 1364.29 470.054C1365.1 468.996 1365.69 468.019 1366.05 467.124C1366.41 466.229 1366.59 465.301 1366.59 464.341C1366.59 462.909 1366.19 461.842 1365.39 461.143C1364.61 460.443 1363.56 460.093 1362.24 460.093C1360.86 460.093 1359.51 460.41 1358.21 461.045C1356.91 461.68 1355.55 462.583 1354.13 463.755L1350.03 458.896C1351.79 457.399 1353.25 456.341 1354.4 455.723C1355.56 455.104 1356.82 454.632 1358.19 454.307C1359.55 453.965 1361.08 453.794 1362.78 453.794C1365.01 453.794 1366.98 454.201 1368.69 455.015C1370.39 455.828 1371.72 456.968 1372.67 458.433C1373.61 459.897 1374.08 461.574 1374.08 463.462C1374.08 465.106 1373.79 466.652 1373.2 468.101C1372.63 469.533 1371.74 471.006 1370.52 472.52C1369.31 474.033 1367.18 476.19 1364.12 478.989L1359.53 483.311V483.652H1375.08V490ZM1397.35 490H1389.8V469.346L1389.88 465.952L1390 462.241C1388.75 463.494 1387.88 464.316 1387.39 464.707L1383.29 468.003L1379.65 463.462L1391.15 454.307H1397.35V490Z" fill="white"/>
<line x1="1" y1="522" x2="1975" y2="522" stroke="#6A7186" stroke-width="4"/>
<line x1="0.999997" y1="975" x2="1976" y2="975" stroke="url(#paint0_linear)" stroke-width="80"/>
<line x1="0.999997" y1="561" x2="1976" y2="561" stroke="url(#paint1_linear)" stroke-width="80"/>
<path d="M47.1523 960.004C44.0143 960.004 41.5339 961.052 39.7109 963.148C37.901 965.232 36.9961 968.09 36.9961 971.723C36.9961 975.46 37.8685 978.35 39.6133 980.395C41.3711 982.426 43.8711 983.441 47.1133 983.441C49.1055 983.441 51.3776 983.083 53.9297 982.367V985.277C51.9505 986.02 49.5091 986.391 46.6055 986.391C42.3997 986.391 39.151 985.115 36.8594 982.562C34.5807 980.01 33.4414 976.384 33.4414 971.684C33.4414 968.741 33.9883 966.163 35.082 963.949C36.1888 961.736 37.7773 960.03 39.8477 958.832C41.931 957.634 44.3789 957.035 47.1914 957.035C50.1862 957.035 52.8034 957.582 55.043 958.676L53.6367 961.527C51.4753 960.512 49.3138 960.004 47.1523 960.004ZM69.6328 986.391C68.2396 986.391 66.9635 986.137 65.8047 985.629C64.6589 985.108 63.6953 984.314 62.9141 983.246H62.6797C62.8359 984.496 62.9141 985.681 62.9141 986.801V995.609H59.6719V964.594H62.3086L62.7578 967.523H62.9141C63.7474 966.352 64.7174 965.505 65.8242 964.984C66.931 964.464 68.2005 964.203 69.6328 964.203C72.4714 964.203 74.6589 965.173 76.1953 967.113C77.7448 969.053 78.5195 971.775 78.5195 975.277C78.5195 978.793 77.7318 981.527 76.1562 983.48C74.5938 985.421 72.4193 986.391 69.6328 986.391ZM69.1641 966.957C66.9766 966.957 65.3945 967.562 64.418 968.773C63.4414 969.984 62.9401 971.911 62.9141 974.555V975.277C62.9141 978.285 63.4154 980.44 64.418 981.742C65.4206 983.031 67.0286 983.676 69.2422 983.676C71.0911 983.676 72.5365 982.927 73.5781 981.43C74.6328 979.932 75.1602 977.868 75.1602 975.238C75.1602 972.569 74.6328 970.525 73.5781 969.105C72.5365 967.673 71.0651 966.957 69.1641 966.957ZM93.2461 986.391C90.082 986.391 87.582 985.427 85.7461 983.5C83.9232 981.573 83.0117 978.897 83.0117 975.473C83.0117 972.022 83.8581 969.281 85.5508 967.25C87.2565 965.219 89.5417 964.203 92.4062 964.203C95.0885 964.203 97.2109 965.089 98.7734 966.859C100.336 968.617 101.117 970.941 101.117 973.832V975.883H86.3711C86.4362 978.396 87.0677 980.303 88.2656 981.605C89.4766 982.908 91.1758 983.559 93.3633 983.559C95.668 983.559 97.9466 983.077 100.199 982.113V985.004C99.0534 985.499 97.9661 985.85 96.9375 986.059C95.9219 986.28 94.6914 986.391 93.2461 986.391ZM92.3672 966.918C90.6484 966.918 89.2747 967.478 88.2461 968.598C87.2305 969.717 86.6315 971.267 86.4492 973.246H97.6406C97.6406 971.202 97.1849 969.639 96.2734 968.559C95.362 967.465 94.0599 966.918 92.3672 966.918ZM125.258 993.402H122.113V986H107.152V993.402H104.027V983.207H105.707C107.452 980.837 108.819 978.057 109.809 974.867C110.798 971.677 111.312 968.253 111.352 964.594H122.191V983.207H125.258V993.402ZM119.066 983.207V967.152H114.262C114.092 970.043 113.533 972.973 112.582 975.941C111.645 978.897 110.473 981.319 109.066 983.207H119.066ZM132.797 964.594V973.559H144.789V964.594H148.031V986H144.789V976.352H132.797V986H129.555V964.594H132.797ZM163.949 986.391C160.785 986.391 158.285 985.427 156.449 983.5C154.626 981.573 153.715 978.897 153.715 975.473C153.715 972.022 154.561 969.281 156.254 967.25C157.96 965.219 160.245 964.203 163.109 964.203C165.792 964.203 167.914 965.089 169.477 966.859C171.039 968.617 171.82 970.941 171.82 973.832V975.883H157.074C157.139 978.396 157.771 980.303 158.969 981.605C160.18 982.908 161.879 983.559 164.066 983.559C166.371 983.559 168.65 983.077 170.902 982.113V985.004C169.757 985.499 168.669 985.85 167.641 986.059C166.625 986.28 165.395 986.391 163.949 986.391ZM163.07 966.918C161.352 966.918 159.978 967.478 158.949 968.598C157.934 969.717 157.335 971.267 157.152 973.246H168.344C168.344 971.202 167.888 969.639 166.977 968.559C166.065 967.465 164.763 966.918 163.07 966.918ZM188.48 982.875L189.086 981.059L189.926 978.754L195.727 964.633H199.848V986H196.977V968.324L196.586 969.457L195.453 972.445L189.926 986H187.211L181.684 972.406C180.993 970.661 180.518 969.301 180.258 968.324V986H177.367V964.633H181.332L186.938 978.207C187.497 979.639 188.012 981.195 188.48 982.875ZM215.824 986.391C212.66 986.391 210.16 985.427 208.324 983.5C206.501 981.573 205.59 978.897 205.59 975.473C205.59 972.022 206.436 969.281 208.129 967.25C209.835 965.219 212.12 964.203 214.984 964.203C217.667 964.203 219.789 965.089 221.352 966.859C222.914 968.617 223.695 970.941 223.695 973.832V975.883H208.949C209.014 978.396 209.646 980.303 210.844 981.605C212.055 982.908 213.754 983.559 215.941 983.559C218.246 983.559 220.525 983.077 222.777 982.113V985.004C221.632 985.499 220.544 985.85 219.516 986.059C218.5 986.28 217.27 986.391 215.824 986.391ZM214.945 966.918C213.227 966.918 211.853 967.478 210.824 968.598C209.809 969.717 209.21 971.267 209.027 973.246H220.219C220.219 971.202 219.763 969.639 218.852 968.559C217.94 967.465 216.638 966.918 214.945 966.918ZM237.797 986.391C234.698 986.391 232.296 985.44 230.59 983.539C228.897 981.625 228.051 978.923 228.051 975.434C228.051 971.853 228.91 969.086 230.629 967.133C232.361 965.18 234.822 964.203 238.012 964.203C239.04 964.203 240.069 964.314 241.098 964.535C242.126 964.757 242.934 965.017 243.52 965.316L242.523 968.07C241.807 967.784 241.026 967.549 240.18 967.367C239.333 967.172 238.585 967.074 237.934 967.074C233.585 967.074 231.41 969.848 231.41 975.395C231.41 978.025 231.938 980.043 232.992 981.449C234.06 982.855 235.635 983.559 237.719 983.559C239.503 983.559 241.332 983.174 243.207 982.406V985.277C241.775 986.02 239.971 986.391 237.797 986.391ZM249.379 986H245.59L251.742 976.957C250.089 976.592 248.819 975.889 247.934 974.848C247.061 973.793 246.625 972.471 246.625 970.883C246.625 968.93 247.283 967.393 248.598 966.273C249.913 965.154 251.749 964.594 254.105 964.594H263.637V986H260.395V977.445H254.984L249.379 986ZM249.789 970.922C249.789 973.396 251.586 974.633 255.18 974.633H260.395V967.406H254.516C251.365 967.406 249.789 968.578 249.789 970.922ZM273.383 964.594V972.406C273.383 974.906 274.809 976.156 277.66 976.156C278.845 976.156 279.978 975.974 281.059 975.609C282.139 975.245 283.363 974.626 284.73 973.754V964.594H287.973V986H284.73V976.312C283.363 977.25 282.094 977.914 280.922 978.305C279.763 978.682 278.448 978.871 276.977 978.871C274.841 978.871 273.168 978.311 271.957 977.191C270.746 976.072 270.141 974.555 270.141 972.641V964.594H273.383ZM298.109 964.594V973.559H310.102V964.594H313.344V986H310.102V976.352H298.109V986H294.867V964.594H298.109ZM333.383 986L332.738 982.953H332.582C331.514 984.294 330.447 985.206 329.379 985.688C328.324 986.156 327.003 986.391 325.414 986.391C323.292 986.391 321.625 985.844 320.414 984.75C319.216 983.656 318.617 982.1 318.617 980.082C318.617 975.759 322.074 973.493 328.988 973.285L332.621 973.168V971.84C332.621 970.16 332.257 968.923 331.527 968.129C330.811 967.322 329.659 966.918 328.07 966.918C326.286 966.918 324.268 967.465 322.016 968.559L321.02 966.078C322.074 965.505 323.227 965.056 324.477 964.73C325.74 964.405 327.003 964.242 328.266 964.242C330.818 964.242 332.706 964.809 333.93 965.941C335.167 967.074 335.785 968.891 335.785 971.391V986H333.383ZM326.059 983.715C328.077 983.715 329.659 983.161 330.805 982.055C331.964 980.948 332.543 979.398 332.543 977.406V975.473L329.301 975.609C326.723 975.701 324.861 976.104 323.715 976.82C322.582 977.523 322.016 978.624 322.016 980.121C322.016 981.293 322.367 982.185 323.07 982.797C323.786 983.409 324.783 983.715 326.059 983.715ZM343.559 986H339.77L345.922 976.957C344.268 976.592 342.999 975.889 342.113 974.848C341.241 973.793 340.805 972.471 340.805 970.883C340.805 968.93 341.462 967.393 342.777 966.273C344.092 965.154 345.928 964.594 348.285 964.594H357.816V986H354.574V977.445H349.164L343.559 986ZM343.969 970.922C343.969 973.396 345.766 974.633 349.359 974.633H354.574V967.406H348.695C345.544 967.406 343.969 968.578 343.969 970.922ZM378.344 964.594V973.559H390.336V964.594H393.578V986H390.336V976.352H378.344V986H375.102V964.594H378.344ZM413.617 986L412.973 982.953H412.816C411.749 984.294 410.681 985.206 409.613 985.688C408.559 986.156 407.237 986.391 405.648 986.391C403.526 986.391 401.859 985.844 400.648 984.75C399.451 983.656 398.852 982.1 398.852 980.082C398.852 975.759 402.309 973.493 409.223 973.285L412.855 973.168V971.84C412.855 970.16 412.491 968.923 411.762 968.129C411.046 967.322 409.893 966.918 408.305 966.918C406.521 966.918 404.503 967.465 402.25 968.559L401.254 966.078C402.309 965.505 403.461 965.056 404.711 964.73C405.974 964.405 407.237 964.242 408.5 964.242C411.052 964.242 412.94 964.809 414.164 965.941C415.401 967.074 416.02 968.891 416.02 971.391V986H413.617ZM406.293 983.715C408.311 983.715 409.893 983.161 411.039 982.055C412.198 980.948 412.777 979.398 412.777 977.406V975.473L409.535 975.609C406.957 975.701 405.095 976.104 403.949 976.82C402.816 977.523 402.25 978.624 402.25 980.121C402.25 981.293 402.602 982.185 403.305 982.797C404.021 983.409 405.017 983.715 406.293 983.715ZM425.57 964.594V972.406C425.57 974.906 426.996 976.156 429.848 976.156C431.033 976.156 432.165 975.974 433.246 975.609C434.327 975.245 435.551 974.626 436.918 973.754V964.594H440.16V986H436.918V976.312C435.551 977.25 434.281 977.914 433.109 978.305C431.951 978.682 430.635 978.871 429.164 978.871C427.029 978.871 425.355 978.311 424.145 977.191C422.934 976.072 422.328 974.555 422.328 972.641V964.594H425.57ZM450.102 964.594V978.168L449.965 981.723L449.906 982.836L461.488 964.594H465.531V986H462.504V972.914L462.562 970.336L462.66 967.797L451.098 986H447.055V964.594H450.102ZM480.961 986.391C477.862 986.391 475.46 985.44 473.754 983.539C472.061 981.625 471.215 978.923 471.215 975.434C471.215 971.853 472.074 969.086 473.793 967.133C475.525 965.18 477.986 964.203 481.176 964.203C482.204 964.203 483.233 964.314 484.262 964.535C485.29 964.757 486.098 965.017 486.684 965.316L485.688 968.07C484.971 967.784 484.19 967.549 483.344 967.367C482.497 967.172 481.749 967.074 481.098 967.074C476.749 967.074 474.574 969.848 474.574 975.395C474.574 978.025 475.102 980.043 476.156 981.449C477.224 982.855 478.799 983.559 480.883 983.559C482.667 983.559 484.496 983.174 486.371 982.406V985.277C484.939 986.02 483.135 986.391 480.961 986.391ZM507.426 986H504.145V967.367H497.719C497.367 972.003 496.879 975.681 496.254 978.402C495.629 981.124 494.815 983.116 493.812 984.379C492.823 985.642 491.56 986.273 490.023 986.273C489.32 986.273 488.76 986.195 488.344 986.039V983.637C488.63 983.715 488.956 983.754 489.32 983.754C490.818 983.754 492.009 982.172 492.895 979.008C493.78 975.844 494.451 971.039 494.906 964.594H507.426V986ZM523.363 986.391C520.199 986.391 517.699 985.427 515.863 983.5C514.04 981.573 513.129 978.897 513.129 975.473C513.129 972.022 513.975 969.281 515.668 967.25C517.374 965.219 519.659 964.203 522.523 964.203C525.206 964.203 527.328 965.089 528.891 966.859C530.453 968.617 531.234 970.941 531.234 973.832V975.883H516.488C516.553 978.396 517.185 980.303 518.383 981.605C519.594 982.908 521.293 983.559 523.48 983.559C525.785 983.559 528.064 983.077 530.316 982.113V985.004C529.171 985.499 528.083 985.85 527.055 986.059C526.039 986.28 524.809 986.391 523.363 986.391ZM522.484 966.918C520.766 966.918 519.392 967.478 518.363 968.598C517.348 969.717 516.749 971.267 516.566 973.246H527.758C527.758 971.202 527.302 969.639 526.391 968.559C525.479 967.465 524.177 966.918 522.484 966.918ZM540.023 964.594V973.559H552.016V964.594H555.258V986H552.016V976.352H540.023V986H536.781V964.594H540.023ZM565.375 964.594V973.559H577.367V964.594H580.609V986H577.367V976.352H565.375V986H562.133V964.594H565.375ZM600.648 986L600.004 982.953H599.848C598.78 984.294 597.712 985.206 596.645 985.688C595.59 986.156 594.268 986.391 592.68 986.391C590.557 986.391 588.891 985.844 587.68 984.75C586.482 983.656 585.883 982.1 585.883 980.082C585.883 975.759 589.34 973.493 596.254 973.285L599.887 973.168V971.84C599.887 970.16 599.522 968.923 598.793 968.129C598.077 967.322 596.924 966.918 595.336 966.918C593.552 966.918 591.534 967.465 589.281 968.559L588.285 966.078C589.34 965.505 590.492 965.056 591.742 964.73C593.005 964.405 594.268 964.242 595.531 964.242C598.083 964.242 599.971 964.809 601.195 965.941C602.432 967.074 603.051 968.891 603.051 971.391V986H600.648ZM593.324 983.715C595.342 983.715 596.924 983.161 598.07 982.055C599.229 980.948 599.809 979.398 599.809 977.406V975.473L596.566 975.609C593.988 975.701 592.126 976.104 590.98 976.82C589.848 977.523 589.281 978.624 589.281 980.121C589.281 981.293 589.633 982.185 590.336 982.797C591.052 983.409 592.048 983.715 593.324 983.715ZM610.824 986H607.035L613.188 976.957C611.534 976.592 610.264 975.889 609.379 974.848C608.507 973.793 608.07 972.471 608.07 970.883C608.07 968.93 608.728 967.393 610.043 966.273C611.358 965.154 613.194 964.594 615.551 964.594H625.082V986H621.84V977.445H616.43L610.824 986ZM611.234 970.922C611.234 973.396 613.031 974.633 616.625 974.633H621.84V967.406H615.961C612.81 967.406 611.234 968.578 611.234 970.922ZM646.449 973.48C650.499 973.48 652.523 972.361 652.523 970.121C652.523 968.012 650.883 966.957 647.602 966.957C646.599 966.957 645.688 967.048 644.867 967.23C644.047 967.413 642.973 967.777 641.645 968.324L640.492 965.688C642.706 964.698 645.121 964.203 647.738 964.203C650.199 964.203 652.139 964.711 653.559 965.727C654.978 966.729 655.688 968.103 655.688 969.848C655.688 972.243 654.353 973.812 651.684 974.555V974.711C653.324 975.193 654.522 975.883 655.277 976.781C656.033 977.667 656.41 978.78 656.41 980.121C656.41 982.1 655.609 983.643 654.008 984.75C652.419 985.844 650.219 986.391 647.406 986.391C644.32 986.391 641.938 985.928 640.258 985.004V982.035C642.641 983.155 645.049 983.715 647.484 983.715C649.359 983.715 650.772 983.396 651.723 982.758C652.686 982.107 653.168 981.176 653.168 979.965C653.168 977.478 651.143 976.234 647.094 976.234H644.125V973.48H646.449ZM674.867 986L674.223 982.953H674.066C672.999 984.294 671.931 985.206 670.863 985.688C669.809 986.156 668.487 986.391 666.898 986.391C664.776 986.391 663.109 985.844 661.898 984.75C660.701 983.656 660.102 982.1 660.102 980.082C660.102 975.759 663.559 973.493 670.473 973.285L674.105 973.168V971.84C674.105 970.16 673.741 968.923 673.012 968.129C672.296 967.322 671.143 966.918 669.555 966.918C667.771 966.918 665.753 967.465 663.5 968.559L662.504 966.078C663.559 965.505 664.711 965.056 665.961 964.73C667.224 964.405 668.487 964.242 669.75 964.242C672.302 964.242 674.19 964.809 675.414 965.941C676.651 967.074 677.27 968.891 677.27 971.391V986H674.867ZM667.543 983.715C669.561 983.715 671.143 983.161 672.289 982.055C673.448 980.948 674.027 979.398 674.027 977.406V975.473L670.785 975.609C668.207 975.701 666.345 976.104 665.199 976.82C664.066 977.523 663.5 978.624 663.5 980.121C663.5 981.293 663.852 982.185 664.555 982.797C665.271 983.409 666.267 983.715 667.543 983.715ZM693.93 986.391C692.536 986.391 691.26 986.137 690.102 985.629C688.956 985.108 687.992 984.314 687.211 983.246H686.977C687.133 984.496 687.211 985.681 687.211 986.801V995.609H683.969V964.594H686.605L687.055 967.523H687.211C688.044 966.352 689.014 965.505 690.121 964.984C691.228 964.464 692.497 964.203 693.93 964.203C696.768 964.203 698.956 965.173 700.492 967.113C702.042 969.053 702.816 971.775 702.816 975.277C702.816 978.793 702.029 981.527 700.453 983.48C698.891 985.421 696.716 986.391 693.93 986.391ZM693.461 966.957C691.273 966.957 689.691 967.562 688.715 968.773C687.738 969.984 687.237 971.911 687.211 974.555V975.277C687.211 978.285 687.712 980.44 688.715 981.742C689.717 983.031 691.326 983.676 693.539 983.676C695.388 983.676 696.833 982.927 697.875 981.43C698.93 979.932 699.457 977.868 699.457 975.238C699.457 972.569 698.93 970.525 697.875 969.105C696.833 967.673 695.362 966.957 693.461 966.957ZM721.664 986L721.02 982.953H720.863C719.796 984.294 718.728 985.206 717.66 985.688C716.605 986.156 715.284 986.391 713.695 986.391C711.573 986.391 709.906 985.844 708.695 984.75C707.497 983.656 706.898 982.1 706.898 980.082C706.898 975.759 710.355 973.493 717.27 973.285L720.902 973.168V971.84C720.902 970.16 720.538 968.923 719.809 968.129C719.092 967.322 717.94 966.918 716.352 966.918C714.568 966.918 712.549 967.465 710.297 968.559L709.301 966.078C710.355 965.505 711.508 965.056 712.758 964.73C714.021 964.405 715.284 964.242 716.547 964.242C719.099 964.242 720.987 964.809 722.211 965.941C723.448 967.074 724.066 968.891 724.066 971.391V986H721.664ZM714.34 983.715C716.358 983.715 717.94 983.161 719.086 982.055C720.245 980.948 720.824 979.398 720.824 977.406V975.473L717.582 975.609C715.004 975.701 713.142 976.104 711.996 976.82C710.863 977.523 710.297 978.624 710.297 980.121C710.297 981.293 710.648 982.185 711.352 982.797C712.068 983.409 713.064 983.715 714.34 983.715ZM729.652 973.168C729.652 968.48 730.342 964.828 731.723 962.211C733.103 959.581 735.29 957.94 738.285 957.289C742.009 956.495 745.29 955.85 748.129 955.355L748.734 958.207C744.216 958.962 740.987 959.561 739.047 960.004C737.159 960.434 735.74 961.449 734.789 963.051C733.852 964.652 733.337 966.833 733.246 969.594H733.48C734.288 968.5 735.329 967.641 736.605 967.016C737.882 966.391 739.216 966.078 740.609 966.078C743.24 966.078 745.29 966.931 746.762 968.637C748.233 970.342 748.969 972.706 748.969 975.727C748.969 979.073 748.116 981.69 746.41 983.578C744.704 985.453 742.328 986.391 739.281 986.391C736.273 986.391 733.917 985.238 732.211 982.934C730.505 980.629 729.652 977.374 729.652 973.168ZM739.574 983.676C743.546 983.676 745.531 981.143 745.531 976.078C745.531 971.247 743.728 968.832 740.121 968.832C739.132 968.832 738.174 969.04 737.25 969.457C736.339 969.861 735.499 970.401 734.73 971.078C733.975 971.755 733.389 972.452 732.973 973.168C732.973 976.592 733.513 979.203 734.594 981C735.674 982.784 737.335 983.676 739.574 983.676ZM773.109 975.277C773.109 978.767 772.23 981.495 770.473 983.461C768.715 985.414 766.286 986.391 763.188 986.391C761.273 986.391 759.574 985.941 758.09 985.043C756.605 984.145 755.46 982.855 754.652 981.176C753.845 979.496 753.441 977.53 753.441 975.277C753.441 971.788 754.314 969.073 756.059 967.133C757.803 965.18 760.225 964.203 763.324 964.203C766.319 964.203 768.695 965.199 770.453 967.191C772.224 969.184 773.109 971.879 773.109 975.277ZM756.801 975.277C756.801 978.012 757.348 980.095 758.441 981.527C759.535 982.96 761.143 983.676 763.266 983.676C765.388 983.676 766.996 982.966 768.09 981.547C769.197 980.115 769.75 978.025 769.75 975.277C769.75 972.556 769.197 970.492 768.09 969.086C766.996 967.667 765.375 966.957 763.227 966.957C761.104 966.957 759.503 967.654 758.422 969.047C757.341 970.44 756.801 972.517 756.801 975.277ZM793.246 967.367H786.293V986H783.051V967.367H776.176V964.594H793.246V967.367ZM800.727 964.594V973.559H812.719V964.594H815.961V986H812.719V976.352H800.727V986H797.484V964.594H800.727ZM836 986L835.355 982.953H835.199C834.132 984.294 833.064 985.206 831.996 985.688C830.941 986.156 829.62 986.391 828.031 986.391C825.909 986.391 824.242 985.844 823.031 984.75C821.833 983.656 821.234 982.1 821.234 980.082C821.234 975.759 824.691 973.493 831.605 973.285L835.238 973.168V971.84C835.238 970.16 834.874 968.923 834.145 968.129C833.428 967.322 832.276 966.918 830.688 966.918C828.904 966.918 826.885 967.465 824.633 968.559L823.637 966.078C824.691 965.505 825.844 965.056 827.094 964.73C828.357 964.405 829.62 964.242 830.883 964.242C833.435 964.242 835.323 964.809 836.547 965.941C837.784 967.074 838.402 968.891 838.402 971.391V986H836ZM828.676 983.715C830.694 983.715 832.276 983.161 833.422 982.055C834.581 980.948 835.16 979.398 835.16 977.406V975.473L831.918 975.609C829.34 975.701 827.478 976.104 826.332 976.82C825.199 977.523 824.633 978.624 824.633 980.121C824.633 981.293 824.984 982.185 825.688 982.797C826.404 983.409 827.4 983.715 828.676 983.715ZM846.176 986H842.387L848.539 976.957C846.885 976.592 845.616 975.889 844.73 974.848C843.858 973.793 843.422 972.471 843.422 970.883C843.422 968.93 844.079 967.393 845.395 966.273C846.71 965.154 848.546 964.594 850.902 964.594H860.434V986H857.191V977.445H851.781L846.176 986ZM846.586 970.922C846.586 973.396 848.383 974.633 851.977 974.633H857.191V967.406H851.312C848.161 967.406 846.586 968.578 846.586 970.922ZM880.961 986H877.719V964.594H895.688V986H892.406V967.406H880.961V986ZM918.52 986H915.238V967.367H908.812C908.461 972.003 907.973 975.681 907.348 978.402C906.723 981.124 905.909 983.116 904.906 984.379C903.917 985.642 902.654 986.273 901.117 986.273C900.414 986.273 899.854 986.195 899.438 986.039V983.637C899.724 983.715 900.049 983.754 900.414 983.754C901.911 983.754 903.103 982.172 903.988 979.008C904.874 975.844 905.544 971.039 906 964.594H918.52V986ZM938.578 986L937.934 982.953H937.777C936.71 984.294 935.642 985.206 934.574 985.688C933.52 986.156 932.198 986.391 930.609 986.391C928.487 986.391 926.82 985.844 925.609 984.75C924.411 983.656 923.812 982.1 923.812 980.082C923.812 975.759 927.27 973.493 934.184 973.285L937.816 973.168V971.84C937.816 970.16 937.452 968.923 936.723 968.129C936.007 967.322 934.854 966.918 933.266 966.918C931.482 966.918 929.464 967.465 927.211 968.559L926.215 966.078C927.27 965.505 928.422 965.056 929.672 964.73C930.935 964.405 932.198 964.242 933.461 964.242C936.013 964.242 937.901 964.809 939.125 965.941C940.362 967.074 940.98 968.891 940.98 971.391V986H938.578ZM931.254 983.715C933.272 983.715 934.854 983.161 936 982.055C937.159 980.948 937.738 979.398 937.738 977.406V975.473L934.496 975.609C931.918 975.701 930.056 976.104 928.91 976.82C927.777 977.523 927.211 978.624 927.211 980.121C927.211 981.293 927.562 982.185 928.266 982.797C928.982 983.409 929.978 983.715 931.254 983.715ZM962.113 967.367H955.16V986H951.918V967.367H945.043V964.594H962.113V967.367ZM979.516 986L978.871 982.953H978.715C977.647 984.294 976.579 985.206 975.512 985.688C974.457 986.156 973.135 986.391 971.547 986.391C969.424 986.391 967.758 985.844 966.547 984.75C965.349 983.656 964.75 982.1 964.75 980.082C964.75 975.759 968.207 973.493 975.121 973.285L978.754 973.168V971.84C978.754 970.16 978.389 968.923 977.66 968.129C976.944 967.322 975.792 966.918 974.203 966.918C972.419 966.918 970.401 967.465 968.148 968.559L967.152 966.078C968.207 965.505 969.359 965.056 970.609 964.73C971.872 964.405 973.135 964.242 974.398 964.242C976.951 964.242 978.839 964.809 980.062 965.941C981.299 967.074 981.918 968.891 981.918 971.391V986H979.516ZM972.191 983.715C974.21 983.715 975.792 983.161 976.938 982.055C978.096 980.948 978.676 979.398 978.676 977.406V975.473L975.434 975.609C972.855 975.701 970.993 976.104 969.848 976.82C968.715 977.523 968.148 978.624 968.148 980.121C968.148 981.293 968.5 982.185 969.203 982.797C969.919 983.409 970.915 983.715 972.191 983.715Z" fill="white"/>
<path d="M47.1523 546.004C44.0143 546.004 41.5339 547.052 39.7109 549.148C37.901 551.232 36.9961 554.09 36.9961 557.723C36.9961 561.46 37.8685 564.35 39.6133 566.395C41.3711 568.426 43.8711 569.441 47.1133 569.441C49.1055 569.441 51.3776 569.083 53.9297 568.367V571.277C51.9505 572.02 49.5091 572.391 46.6055 572.391C42.3997 572.391 39.151 571.115 36.8594 568.562C34.5807 566.01 33.4414 562.384 33.4414 557.684C33.4414 554.741 33.9883 552.163 35.082 549.949C36.1888 547.736 37.7773 546.03 39.8477 544.832C41.931 543.634 44.3789 543.035 47.1914 543.035C50.1862 543.035 52.8034 543.582 55.043 544.676L53.6367 547.527C51.4753 546.512 49.3138 546.004 47.1523 546.004ZM69.6328 572.391C68.2396 572.391 66.9635 572.137 65.8047 571.629C64.6589 571.108 63.6953 570.314 62.9141 569.246H62.6797C62.8359 570.496 62.9141 571.681 62.9141 572.801V581.609H59.6719V550.594H62.3086L62.7578 553.523H62.9141C63.7474 552.352 64.7174 551.505 65.8242 550.984C66.931 550.464 68.2005 550.203 69.6328 550.203C72.4714 550.203 74.6589 551.173 76.1953 553.113C77.7448 555.053 78.5195 557.775 78.5195 561.277C78.5195 564.793 77.7318 567.527 76.1562 569.48C74.5938 571.421 72.4193 572.391 69.6328 572.391ZM69.1641 552.957C66.9766 552.957 65.3945 553.562 64.418 554.773C63.4414 555.984 62.9401 557.911 62.9141 560.555V561.277C62.9141 564.285 63.4154 566.44 64.418 567.742C65.4206 569.031 67.0286 569.676 69.2422 569.676C71.0911 569.676 72.5365 568.927 73.5781 567.43C74.6328 565.932 75.1602 563.868 75.1602 561.238C75.1602 558.569 74.6328 556.525 73.5781 555.105C72.5365 553.673 71.0651 552.957 69.1641 552.957ZM93.2461 572.391C90.082 572.391 87.582 571.427 85.7461 569.5C83.9232 567.573 83.0117 564.897 83.0117 561.473C83.0117 558.022 83.8581 555.281 85.5508 553.25C87.2565 551.219 89.5417 550.203 92.4062 550.203C95.0885 550.203 97.2109 551.089 98.7734 552.859C100.336 554.617 101.117 556.941 101.117 559.832V561.883H86.3711C86.4362 564.396 87.0677 566.303 88.2656 567.605C89.4766 568.908 91.1758 569.559 93.3633 569.559C95.668 569.559 97.9466 569.077 100.199 568.113V571.004C99.0534 571.499 97.9661 571.85 96.9375 572.059C95.9219 572.28 94.6914 572.391 93.2461 572.391ZM92.3672 552.918C90.6484 552.918 89.2747 553.478 88.2461 554.598C87.2305 555.717 86.6315 557.267 86.4492 559.246H97.6406C97.6406 557.202 97.1849 555.639 96.2734 554.559C95.362 553.465 94.0599 552.918 92.3672 552.918ZM125.258 579.402H122.113V572H107.152V579.402H104.027V569.207H105.707C107.452 566.837 108.819 564.057 109.809 560.867C110.798 557.677 111.312 554.253 111.352 550.594H122.191V569.207H125.258V579.402ZM119.066 569.207V553.152H114.262C114.092 556.043 113.533 558.973 112.582 561.941C111.645 564.897 110.473 567.319 109.066 569.207H119.066ZM132.797 550.594V559.559H144.789V550.594H148.031V572H144.789V562.352H132.797V572H129.555V550.594H132.797ZM163.949 572.391C160.785 572.391 158.285 571.427 156.449 569.5C154.626 567.573 153.715 564.897 153.715 561.473C153.715 558.022 154.561 555.281 156.254 553.25C157.96 551.219 160.245 550.203 163.109 550.203C165.792 550.203 167.914 551.089 169.477 552.859C171.039 554.617 171.82 556.941 171.82 559.832V561.883H157.074C157.139 564.396 157.771 566.303 158.969 567.605C160.18 568.908 161.879 569.559 164.066 569.559C166.371 569.559 168.65 569.077 170.902 568.113V571.004C169.757 571.499 168.669 571.85 167.641 572.059C166.625 572.28 165.395 572.391 163.949 572.391ZM163.07 552.918C161.352 552.918 159.978 553.478 158.949 554.598C157.934 555.717 157.335 557.267 157.152 559.246H168.344C168.344 557.202 167.888 555.639 166.977 554.559C166.065 553.465 164.763 552.918 163.07 552.918ZM195.961 579.402H192.816V572H177.855V579.402H174.73V569.207H176.41C178.155 566.837 179.522 564.057 180.512 560.867C181.501 557.677 182.016 554.253 182.055 550.594H192.895V569.207H195.961V579.402ZM189.77 569.207V553.152H184.965C184.796 556.043 184.236 558.973 183.285 561.941C182.348 564.897 181.176 567.319 179.77 569.207H189.77ZM196.859 550.594H200.336L205.023 562.801C206.052 565.587 206.69 567.599 206.938 568.836H207.094C207.263 568.172 207.615 567.039 208.148 565.438C208.695 563.823 210.466 558.875 213.461 550.594H216.938L207.738 574.969C206.827 577.378 205.759 579.083 204.535 580.086C203.324 581.102 201.833 581.609 200.062 581.609C199.073 581.609 198.096 581.499 197.133 581.277V578.68C197.849 578.836 198.65 578.914 199.535 578.914C201.762 578.914 203.35 577.664 204.301 575.164L205.492 572.117L196.859 550.594ZM236.371 569.207H245.863V550.594H249.145V572H220.414V550.594H223.656V569.207H233.129V550.594H236.371V569.207ZM265.082 572.391C261.918 572.391 259.418 571.427 257.582 569.5C255.759 567.573 254.848 564.897 254.848 561.473C254.848 558.022 255.694 555.281 257.387 553.25C259.092 551.219 261.378 550.203 264.242 550.203C266.924 550.203 269.047 551.089 270.609 552.859C272.172 554.617 272.953 556.941 272.953 559.832V561.883H258.207C258.272 564.396 258.904 566.303 260.102 567.605C261.312 568.908 263.012 569.559 265.199 569.559C267.504 569.559 269.783 569.077 272.035 568.113V571.004C270.889 571.499 269.802 571.85 268.773 572.059C267.758 572.28 266.527 572.391 265.082 572.391ZM264.203 552.918C262.484 552.918 261.111 553.478 260.082 554.598C259.066 555.717 258.467 557.267 258.285 559.246H269.477C269.477 557.202 269.021 555.639 268.109 554.559C267.198 553.465 265.896 552.918 264.203 552.918ZM295.863 555.965C295.863 557.358 295.46 558.419 294.652 559.148C293.858 559.865 292.738 560.346 291.293 560.594V560.77C293.116 561.017 294.444 561.551 295.277 562.371C296.124 563.191 296.547 564.324 296.547 565.77C296.547 567.762 295.811 569.298 294.34 570.379C292.882 571.46 290.746 572 287.934 572H278.5V550.594H287.895C293.207 550.594 295.863 552.384 295.863 555.965ZM293.305 565.555C293.305 564.396 292.862 563.556 291.977 563.035C291.104 562.501 289.652 562.234 287.621 562.234H281.742V569.285H287.699C291.436 569.285 293.305 568.042 293.305 565.555ZM292.699 556.277C292.699 555.236 292.296 554.5 291.488 554.07C290.694 553.628 289.483 553.406 287.855 553.406H281.742V559.441H287.23C289.236 559.441 290.648 559.194 291.469 558.699C292.289 558.204 292.699 557.397 292.699 556.277ZM319.75 561.277C319.75 564.767 318.871 567.495 317.113 569.461C315.355 571.414 312.927 572.391 309.828 572.391C307.914 572.391 306.215 571.941 304.73 571.043C303.246 570.145 302.1 568.855 301.293 567.176C300.486 565.496 300.082 563.53 300.082 561.277C300.082 557.788 300.954 555.073 302.699 553.133C304.444 551.18 306.866 550.203 309.965 550.203C312.96 550.203 315.336 551.199 317.094 553.191C318.865 555.184 319.75 557.879 319.75 561.277ZM303.441 561.277C303.441 564.012 303.988 566.095 305.082 567.527C306.176 568.96 307.784 569.676 309.906 569.676C312.029 569.676 313.637 568.966 314.73 567.547C315.837 566.115 316.391 564.025 316.391 561.277C316.391 558.556 315.837 556.492 314.73 555.086C313.637 553.667 312.016 552.957 309.867 552.957C307.745 552.957 306.143 553.654 305.062 555.047C303.982 556.44 303.441 558.517 303.441 561.277ZM328.5 550.594V564.168L328.363 567.723L328.305 568.836L339.887 550.594H343.93V572H340.902V558.914L340.961 556.336L341.059 553.797L329.496 572H325.453V550.594H328.5ZM334.613 547.762C332.204 547.762 330.447 547.299 329.34 546.375C328.233 545.438 327.615 543.901 327.484 541.766H330.531C330.648 543.12 331 544.064 331.586 544.598C332.185 545.132 333.22 545.398 334.691 545.398C336.033 545.398 337.022 545.112 337.66 544.539C338.311 543.966 338.708 543.042 338.852 541.766H341.918C341.762 543.823 341.104 545.34 339.945 546.316C338.786 547.28 337.009 547.762 334.613 547.762ZM379.789 579.402H376.645V572H361.684V579.402H358.559V569.207H360.238C361.983 566.837 363.35 564.057 364.34 560.867C365.329 557.677 365.844 554.253 365.883 550.594H376.723V569.207H379.789V579.402ZM373.598 569.207V553.152H368.793C368.624 556.043 368.064 558.973 367.113 561.941C366.176 564.897 365.004 567.319 363.598 569.207H373.598ZM393.129 572.391C389.965 572.391 387.465 571.427 385.629 569.5C383.806 567.573 382.895 564.897 382.895 561.473C382.895 558.022 383.741 555.281 385.434 553.25C387.139 551.219 389.424 550.203 392.289 550.203C394.971 550.203 397.094 551.089 398.656 552.859C400.219 554.617 401 556.941 401 559.832V561.883H386.254C386.319 564.396 386.951 566.303 388.148 567.605C389.359 568.908 391.059 569.559 393.246 569.559C395.551 569.559 397.829 569.077 400.082 568.113V571.004C398.936 571.499 397.849 571.85 396.82 572.059C395.805 572.28 394.574 572.391 393.129 572.391ZM392.25 552.918C390.531 552.918 389.158 553.478 388.129 554.598C387.113 555.717 386.514 557.267 386.332 559.246H397.523C397.523 557.202 397.068 555.639 396.156 554.559C395.245 553.465 393.943 552.918 392.25 552.918ZM409.789 550.594V559.559H421.781V550.594H425.023V572H421.781V562.352H409.789V572H406.547V550.594H409.789ZM440.941 572.391C437.777 572.391 435.277 571.427 433.441 569.5C431.618 567.573 430.707 564.897 430.707 561.473C430.707 558.022 431.553 555.281 433.246 553.25C434.952 551.219 437.237 550.203 440.102 550.203C442.784 550.203 444.906 551.089 446.469 552.859C448.031 554.617 448.812 556.941 448.812 559.832V561.883H434.066C434.132 564.396 434.763 566.303 435.961 567.605C437.172 568.908 438.871 569.559 441.059 569.559C443.363 569.559 445.642 569.077 447.895 568.113V571.004C446.749 571.499 445.661 571.85 444.633 572.059C443.617 572.28 442.387 572.391 440.941 572.391ZM440.062 552.918C438.344 552.918 436.97 553.478 435.941 554.598C434.926 555.717 434.327 557.267 434.145 559.246H445.336C445.336 557.202 444.88 555.639 443.969 554.559C443.057 553.465 441.755 552.918 440.062 552.918ZM464.125 550.633H467.113V561.004L475.961 550.633H479.516L470.57 561.004L480.277 572H476.527L467.113 561.16V572H464.125V561.16L454.73 572H451L460.688 561.004L451.762 550.633H455.316L464.125 561.004V550.633ZM487.055 550.594V559.559H499.047V550.594H502.289V572H499.047V562.352H487.055V572H483.812V550.594H487.055ZM512.406 559.441H518.246C520.967 559.441 522.979 559.949 524.281 560.965C525.596 561.967 526.254 563.471 526.254 565.477C526.254 567.625 525.557 569.253 524.164 570.359C522.784 571.453 520.746 572 518.051 572H509.164V550.594H512.406V559.441ZM533.09 572H529.848V550.594H533.09V572ZM512.406 562.234V569.285H517.895C521.332 569.285 523.051 568.081 523.051 565.672C523.051 564.474 522.654 563.602 521.859 563.055C521.065 562.508 519.711 562.234 517.797 562.234H512.406ZM543.031 550.594V564.168L542.895 567.723L542.836 568.836L554.418 550.594H558.461V572H555.434V558.914L555.492 556.336L555.59 553.797L544.027 572H539.984V550.594H543.031ZM549.145 547.762C546.736 547.762 544.978 547.299 543.871 546.375C542.764 545.438 542.146 543.901 542.016 541.766H545.062C545.18 543.12 545.531 544.064 546.117 544.598C546.716 545.132 547.751 545.398 549.223 545.398C550.564 545.398 551.553 545.112 552.191 544.539C552.842 543.966 553.24 543.042 553.383 541.766H556.449C556.293 543.823 555.635 545.34 554.477 546.316C553.318 547.28 551.54 547.762 549.145 547.762ZM594.32 579.402H591.176V572H576.215V579.402H573.09V569.207H574.77C576.514 566.837 577.882 564.057 578.871 560.867C579.861 557.677 580.375 554.253 580.414 550.594H591.254V569.207H594.32V579.402ZM588.129 569.207V553.152H583.324C583.155 556.043 582.595 558.973 581.645 561.941C580.707 564.897 579.535 567.319 578.129 569.207H588.129ZM617.094 561.277C617.094 564.767 616.215 567.495 614.457 569.461C612.699 571.414 610.271 572.391 607.172 572.391C605.258 572.391 603.559 571.941 602.074 571.043C600.59 570.145 599.444 568.855 598.637 567.176C597.829 565.496 597.426 563.53 597.426 561.277C597.426 557.788 598.298 555.073 600.043 553.133C601.788 551.18 604.21 550.203 607.309 550.203C610.303 550.203 612.68 551.199 614.438 553.191C616.208 555.184 617.094 557.879 617.094 561.277ZM600.785 561.277C600.785 564.012 601.332 566.095 602.426 567.527C603.52 568.96 605.128 569.676 607.25 569.676C609.372 569.676 610.98 568.966 612.074 567.547C613.181 566.115 613.734 564.025 613.734 561.277C613.734 558.556 613.181 556.492 612.074 555.086C610.98 553.667 609.359 552.957 607.211 552.957C605.089 552.957 603.487 553.654 602.406 555.047C601.326 556.44 600.785 558.517 600.785 561.277ZM627.953 561.043L620.512 550.594H624.203L629.848 558.797L635.473 550.594H639.125L631.684 561.043L639.516 572H635.844L629.848 563.328L623.793 572H620.121L627.953 561.043ZM662.25 561.277C662.25 564.767 661.371 567.495 659.613 569.461C657.855 571.414 655.427 572.391 652.328 572.391C650.414 572.391 648.715 571.941 647.23 571.043C645.746 570.145 644.6 568.855 643.793 567.176C642.986 565.496 642.582 563.53 642.582 561.277C642.582 557.788 643.454 555.073 645.199 553.133C646.944 551.18 649.366 550.203 652.465 550.203C655.46 550.203 657.836 551.199 659.594 553.191C661.365 555.184 662.25 557.879 662.25 561.277ZM645.941 561.277C645.941 564.012 646.488 566.095 647.582 567.527C648.676 568.96 650.284 569.676 652.406 569.676C654.529 569.676 656.137 568.966 657.23 567.547C658.337 566.115 658.891 564.025 658.891 561.277C658.891 558.556 658.337 556.492 657.23 555.086C656.137 553.667 654.516 552.957 652.367 552.957C650.245 552.957 648.643 553.654 647.562 555.047C646.482 556.44 645.941 558.517 645.941 561.277ZM686.547 579.402H683.402V572H668.441V579.402H665.316V569.207H666.996C668.741 566.837 670.108 564.057 671.098 560.867C672.087 557.677 672.602 554.253 672.641 550.594H683.48V569.207H686.547V579.402ZM680.355 569.207V553.152H675.551C675.382 556.043 674.822 558.973 673.871 561.941C672.934 564.897 671.762 567.319 670.355 569.207H680.355ZM704.477 550.594V559.559H716.469V550.594H719.711V572H716.469V562.352H704.477V572H701.234V550.594H704.477ZM739.75 572L739.105 568.953H738.949C737.882 570.294 736.814 571.206 735.746 571.688C734.691 572.156 733.37 572.391 731.781 572.391C729.659 572.391 727.992 571.844 726.781 570.75C725.583 569.656 724.984 568.1 724.984 566.082C724.984 561.759 728.441 559.493 735.355 559.285L738.988 559.168V557.84C738.988 556.16 738.624 554.923 737.895 554.129C737.178 553.322 736.026 552.918 734.438 552.918C732.654 552.918 730.635 553.465 728.383 554.559L727.387 552.078C728.441 551.505 729.594 551.056 730.844 550.73C732.107 550.405 733.37 550.242 734.633 550.242C737.185 550.242 739.073 550.809 740.297 551.941C741.534 553.074 742.152 554.891 742.152 557.391V572H739.75ZM732.426 569.715C734.444 569.715 736.026 569.161 737.172 568.055C738.331 566.948 738.91 565.398 738.91 563.406V561.473L735.668 561.609C733.09 561.701 731.228 562.104 730.082 562.82C728.949 563.523 728.383 564.624 728.383 566.121C728.383 567.293 728.734 568.185 729.438 568.797C730.154 569.409 731.15 569.715 732.426 569.715ZM757.406 572.391C754.307 572.391 751.905 571.44 750.199 569.539C748.507 567.625 747.66 564.923 747.66 561.434C747.66 557.853 748.52 555.086 750.238 553.133C751.97 551.18 754.431 550.203 757.621 550.203C758.65 550.203 759.678 550.314 760.707 550.535C761.736 550.757 762.543 551.017 763.129 551.316L762.133 554.07C761.417 553.784 760.635 553.549 759.789 553.367C758.943 553.172 758.194 553.074 757.543 553.074C753.194 553.074 751.02 555.848 751.02 561.395C751.02 564.025 751.547 566.043 752.602 567.449C753.669 568.855 755.245 569.559 757.328 569.559C759.112 569.559 760.941 569.174 762.816 568.406V571.277C761.384 572.02 759.581 572.391 757.406 572.391ZM776.957 572.391C773.793 572.391 771.293 571.427 769.457 569.5C767.634 567.573 766.723 564.897 766.723 561.473C766.723 558.022 767.569 555.281 769.262 553.25C770.967 551.219 773.253 550.203 776.117 550.203C778.799 550.203 780.922 551.089 782.484 552.859C784.047 554.617 784.828 556.941 784.828 559.832V561.883H770.082C770.147 564.396 770.779 566.303 771.977 567.605C773.188 568.908 774.887 569.559 777.074 569.559C779.379 569.559 781.658 569.077 783.91 568.113V571.004C782.764 571.499 781.677 571.85 780.648 572.059C779.633 572.28 778.402 572.391 776.957 572.391ZM776.078 552.918C774.359 552.918 772.986 553.478 771.957 554.598C770.941 555.717 770.342 557.267 770.16 559.246H781.352C781.352 557.202 780.896 555.639 779.984 554.559C779.073 553.465 777.771 552.918 776.078 552.918ZM806.332 572H803.051V553.367H796.625C796.273 558.003 795.785 561.681 795.16 564.402C794.535 567.124 793.721 569.116 792.719 570.379C791.729 571.642 790.466 572.273 788.93 572.273C788.227 572.273 787.667 572.195 787.25 572.039V569.637C787.536 569.715 787.862 569.754 788.227 569.754C789.724 569.754 790.915 568.172 791.801 565.008C792.686 561.844 793.357 557.039 793.812 550.594H806.332V572ZM822.27 572.391C819.105 572.391 816.605 571.427 814.77 569.5C812.947 567.573 812.035 564.897 812.035 561.473C812.035 558.022 812.882 555.281 814.574 553.25C816.28 551.219 818.565 550.203 821.43 550.203C824.112 550.203 826.234 551.089 827.797 552.859C829.359 554.617 830.141 556.941 830.141 559.832V561.883H815.395C815.46 564.396 816.091 566.303 817.289 567.605C818.5 568.908 820.199 569.559 822.387 569.559C824.691 569.559 826.97 569.077 829.223 568.113V571.004C828.077 571.499 826.99 571.85 825.961 572.059C824.945 572.28 823.715 572.391 822.27 572.391ZM821.391 552.918C819.672 552.918 818.298 553.478 817.27 554.598C816.254 555.717 815.655 557.267 815.473 559.246H826.664C826.664 557.202 826.208 555.639 825.297 554.559C824.385 553.465 823.083 552.918 821.391 552.918ZM838.93 550.594V559.559H850.922V550.594H854.164V572H850.922V562.352H838.93V572H835.688V550.594H838.93ZM864.086 550.594V564.168L863.949 567.723L863.891 568.836L875.473 550.594H879.516V572H876.488V558.914L876.547 556.336L876.645 553.797L865.082 572H861.039V550.594H864.086ZM887.465 572H883.676L889.828 562.957C888.174 562.592 886.905 561.889 886.02 560.848C885.147 559.793 884.711 558.471 884.711 556.883C884.711 554.93 885.368 553.393 886.684 552.273C887.999 551.154 889.835 550.594 892.191 550.594H901.723V572H898.48V563.445H893.07L887.465 572ZM887.875 556.922C887.875 559.396 889.672 560.633 893.266 560.633H898.48V553.406H892.602C889.451 553.406 887.875 554.578 887.875 556.922ZM923.09 559.48C927.139 559.48 929.164 558.361 929.164 556.121C929.164 554.012 927.523 552.957 924.242 552.957C923.24 552.957 922.328 553.048 921.508 553.23C920.688 553.413 919.613 553.777 918.285 554.324L917.133 551.688C919.346 550.698 921.762 550.203 924.379 550.203C926.84 550.203 928.78 550.711 930.199 551.727C931.618 552.729 932.328 554.103 932.328 555.848C932.328 558.243 930.993 559.812 928.324 560.555V560.711C929.965 561.193 931.163 561.883 931.918 562.781C932.673 563.667 933.051 564.78 933.051 566.121C933.051 568.1 932.25 569.643 930.648 570.75C929.06 571.844 926.859 572.391 924.047 572.391C920.961 572.391 918.578 571.928 916.898 571.004V568.035C919.281 569.155 921.69 569.715 924.125 569.715C926 569.715 927.413 569.396 928.363 568.758C929.327 568.107 929.809 567.176 929.809 565.965C929.809 563.478 927.784 562.234 923.734 562.234H920.766V559.48H923.09ZM951.508 572L950.863 568.953H950.707C949.639 570.294 948.572 571.206 947.504 571.688C946.449 572.156 945.128 572.391 943.539 572.391C941.417 572.391 939.75 571.844 938.539 570.75C937.341 569.656 936.742 568.1 936.742 566.082C936.742 561.759 940.199 559.493 947.113 559.285L950.746 559.168V557.84C950.746 556.16 950.382 554.923 949.652 554.129C948.936 553.322 947.784 552.918 946.195 552.918C944.411 552.918 942.393 553.465 940.141 554.559L939.145 552.078C940.199 551.505 941.352 551.056 942.602 550.73C943.865 550.405 945.128 550.242 946.391 550.242C948.943 550.242 950.831 550.809 952.055 551.941C953.292 553.074 953.91 554.891 953.91 557.391V572H951.508ZM944.184 569.715C946.202 569.715 947.784 569.161 948.93 568.055C950.089 566.948 950.668 565.398 950.668 563.406V561.473L947.426 561.609C944.848 561.701 942.986 562.104 941.84 562.82C940.707 563.523 940.141 564.624 940.141 566.121C940.141 567.293 940.492 568.185 941.195 568.797C941.911 569.409 942.908 569.715 944.184 569.715ZM989.477 561.277C989.477 564.767 988.598 567.495 986.84 569.461C985.082 571.414 982.654 572.391 979.555 572.391C977.641 572.391 975.941 571.941 974.457 571.043C972.973 570.145 971.827 568.855 971.02 567.176C970.212 565.496 969.809 563.53 969.809 561.277C969.809 557.788 970.681 555.073 972.426 553.133C974.171 551.18 976.592 550.203 979.691 550.203C982.686 550.203 985.062 551.199 986.82 553.191C988.591 555.184 989.477 557.879 989.477 561.277ZM973.168 561.277C973.168 564.012 973.715 566.095 974.809 567.527C975.902 568.96 977.51 569.676 979.633 569.676C981.755 569.676 983.363 568.966 984.457 567.547C985.564 566.115 986.117 564.025 986.117 561.277C986.117 558.556 985.564 556.492 984.457 555.086C983.363 553.667 981.742 552.957 979.594 552.957C977.471 552.957 975.87 553.654 974.789 555.047C973.708 556.44 973.168 558.517 973.168 561.277ZM1009.61 553.367H1002.66V572H999.418V553.367H992.543V550.594H1009.61V553.367ZM1016.7 550.594V558.406C1016.7 560.906 1018.13 562.156 1020.98 562.156C1022.17 562.156 1023.3 561.974 1024.38 561.609C1025.46 561.245 1026.68 560.626 1028.05 559.754V550.594H1031.29V572H1028.05V562.312C1026.68 563.25 1025.41 563.914 1024.24 564.305C1023.08 564.682 1021.77 564.871 1020.3 564.871C1018.16 564.871 1016.49 564.311 1015.28 563.191C1014.07 562.072 1013.46 560.555 1013.46 558.641V550.594H1016.7ZM1047.23 572.391C1044.07 572.391 1041.57 571.427 1039.73 569.5C1037.91 567.573 1037 564.897 1037 561.473C1037 558.022 1037.84 555.281 1039.54 553.25C1041.24 551.219 1043.53 550.203 1046.39 550.203C1049.07 550.203 1051.2 551.089 1052.76 552.859C1054.32 554.617 1055.1 556.941 1055.1 559.832V561.883H1040.36C1040.42 564.396 1041.05 566.303 1042.25 567.605C1043.46 568.908 1045.16 569.559 1047.35 569.559C1049.65 569.559 1051.93 569.077 1054.18 568.113V571.004C1053.04 571.499 1051.95 571.85 1050.92 572.059C1049.91 572.28 1048.68 572.391 1047.23 572.391ZM1046.35 552.918C1044.63 552.918 1043.26 553.478 1042.23 554.598C1041.21 555.717 1040.62 557.267 1040.43 559.246H1051.62C1051.62 557.202 1051.17 555.639 1050.26 554.559C1049.35 553.465 1048.04 552.918 1046.35 552.918ZM1075.08 553.367H1068.13V572H1064.89V553.367H1058.01V550.594H1075.08V553.367ZM1082.56 550.594V559.559H1094.55V550.594H1097.8V572H1094.55V562.352H1082.56V572H1079.32V550.594H1082.56ZM1107.91 559.441H1113.75C1116.48 559.441 1118.49 559.949 1119.79 560.965C1121.1 561.967 1121.76 563.471 1121.76 565.477C1121.76 567.625 1121.07 569.253 1119.67 570.359C1118.29 571.453 1116.25 572 1113.56 572H1104.67V550.594H1107.91V559.441ZM1128.6 572H1125.36V550.594H1128.6V572ZM1107.91 562.234V569.285H1113.4C1116.84 569.285 1118.56 568.081 1118.56 565.672C1118.56 564.474 1118.16 563.602 1117.37 563.055C1116.57 562.508 1115.22 562.234 1113.3 562.234H1107.91ZM1138.54 550.594V564.168L1138.4 567.723L1138.34 568.836L1149.93 550.594H1153.97V572H1150.94V558.914L1151 556.336L1151.1 553.797L1139.54 572H1135.49V550.594H1138.54ZM1144.65 547.762C1142.24 547.762 1140.49 547.299 1139.38 546.375C1138.27 545.438 1137.65 543.901 1137.52 541.766H1140.57C1140.69 543.12 1141.04 544.064 1141.62 544.598C1142.22 545.132 1143.26 545.398 1144.73 545.398C1146.07 545.398 1147.06 545.112 1147.7 544.539C1148.35 543.966 1148.75 543.042 1148.89 541.766H1151.96C1151.8 543.823 1151.14 545.34 1149.98 546.316C1148.83 547.28 1147.05 547.762 1144.65 547.762ZM1184.12 553.367H1174.48V572H1171.23V550.594H1184.12V553.367ZM1206.86 561.277C1206.86 564.767 1205.98 567.495 1204.22 569.461C1202.46 571.414 1200.04 572.391 1196.94 572.391C1195.02 572.391 1193.32 571.941 1191.84 571.043C1190.36 570.145 1189.21 568.855 1188.4 567.176C1187.6 565.496 1187.19 563.53 1187.19 561.277C1187.19 557.788 1188.06 555.073 1189.81 553.133C1191.55 551.18 1193.98 550.203 1197.07 550.203C1200.07 550.203 1202.45 551.199 1204.2 553.191C1205.97 555.184 1206.86 557.879 1206.86 561.277ZM1190.55 561.277C1190.55 564.012 1191.1 566.095 1192.19 567.527C1193.29 568.96 1194.89 569.676 1197.02 569.676C1199.14 569.676 1200.75 568.966 1201.84 567.547C1202.95 566.115 1203.5 564.025 1203.5 561.277C1203.5 558.556 1202.95 556.492 1201.84 555.086C1200.75 553.667 1199.12 552.957 1196.98 552.957C1194.85 552.957 1193.25 553.654 1192.17 555.047C1191.09 556.44 1190.55 558.517 1190.55 561.277ZM1231.16 579.402H1228.01V572H1213.05V579.402H1209.93V569.207H1211.61C1213.35 566.837 1214.72 564.057 1215.71 560.867C1216.7 557.677 1217.21 554.253 1217.25 550.594H1228.09V569.207H1231.16V579.402ZM1224.96 569.207V553.152H1220.16C1219.99 556.043 1219.43 558.973 1218.48 561.941C1217.54 564.897 1216.37 567.319 1214.96 569.207H1224.96Z" fill="white"/>
<path d="M57.2354 717.038C57.2354 721.944 55.7493 726.115 52.7773 729.553C49.8053 732.99 45.6338 735.354 40.2627 736.643V736.965C46.6006 737.753 51.3988 739.686 54.6572 742.766C57.9157 745.809 59.5449 749.927 59.5449 755.119C59.5449 762.674 56.8057 768.565 51.3271 772.79C45.8486 776.979 38.0247 779.074 27.8555 779.074C19.3333 779.074 11.778 777.66 5.18945 774.831V760.705C8.23307 762.245 11.5811 763.498 15.2334 764.465C18.8857 765.432 22.5023 765.915 26.083 765.915C31.5615 765.915 35.6077 764.984 38.2217 763.122C40.8356 761.26 42.1426 758.27 42.1426 754.152C42.1426 750.464 40.6387 747.85 37.6309 746.311C34.623 744.771 29.8249 744.001 23.2363 744.001H17.2744V731.271H23.3438C29.431 731.271 33.8711 730.484 36.6641 728.908C39.4928 727.297 40.9072 724.558 40.9072 720.69C40.9072 714.746 37.1833 711.774 29.7354 711.774C27.1572 711.774 24.5254 712.204 21.8398 713.063C19.1901 713.923 16.236 715.409 12.9775 717.521L5.29688 706.081C12.4583 700.925 20.9984 698.347 30.917 698.347C39.0452 698.347 45.4548 699.994 50.1455 703.288C54.8721 706.582 57.2354 711.166 57.2354 717.038ZM122.709 738.737C122.709 752.451 120.453 762.603 115.941 769.191C111.465 775.78 104.555 779.074 95.209 779.074C86.1497 779.074 79.3105 775.673 74.6914 768.869C70.1081 762.066 67.8164 752.022 67.8164 738.737C67.8164 724.88 70.0544 714.675 74.5303 708.122C79.0062 701.534 85.8991 698.239 95.209 698.239C104.268 698.239 111.107 701.677 115.727 708.552C120.382 715.427 122.709 725.489 122.709 738.737ZM84.3057 738.737C84.3057 748.369 85.1292 755.28 86.7764 759.47C88.4593 763.623 91.2702 765.7 95.209 765.7C99.0762 765.7 101.869 763.588 103.588 759.362C105.307 755.137 106.166 748.262 106.166 738.737C106.166 729.105 105.289 722.194 103.534 718.005C101.815 713.78 99.0404 711.667 95.209 711.667C91.306 711.667 88.513 713.78 86.8301 718.005C85.1471 722.194 84.3057 729.105 84.3057 738.737ZM188.236 727.834C195.827 727.834 201.861 729.965 206.337 734.226C210.849 738.487 213.104 744.323 213.104 751.735C213.104 760.508 210.401 767.258 204.994 771.984C199.587 776.711 191.853 779.074 181.791 779.074C173.054 779.074 166 777.66 160.629 774.831V760.49C163.458 761.994 166.752 763.229 170.512 764.196C174.271 765.127 177.834 765.593 181.2 765.593C191.334 765.593 196.4 761.439 196.4 753.132C196.4 745.218 191.155 741.262 180.663 741.262C178.765 741.262 176.671 741.459 174.379 741.853C172.087 742.211 170.225 742.604 168.793 743.034L162.187 739.489L165.141 699.475H207.733V713.547H179.696L178.246 728.962L180.126 728.586C182.31 728.085 185.014 727.834 188.236 727.834ZM263.539 778H246.942V732.561L247.104 725.095L247.372 716.931C244.615 719.688 242.699 721.496 241.625 722.355L232.602 729.606L224.599 719.616L249.896 699.475H263.539V778ZM293.134 778L322.621 713.547H283.896V699.582H340.238V710.002L310.536 778H293.134ZM368.437 766.452C366.575 773.685 363.424 782.261 358.983 792.18H347.167C349.494 782.655 351.303 773.667 352.592 765.217H367.631L368.437 766.452ZM408.666 727.834C416.257 727.834 422.291 729.965 426.767 734.226C431.278 738.487 433.534 744.323 433.534 751.735C433.534 760.508 430.831 767.258 425.424 771.984C420.017 776.711 412.283 779.074 402.221 779.074C393.484 779.074 386.43 777.66 381.059 774.831V760.49C383.887 761.994 387.182 763.229 390.941 764.196C394.701 765.127 398.264 765.593 401.63 765.593C411.763 765.593 416.83 761.439 416.83 753.132C416.83 745.218 411.584 741.262 401.093 741.262C399.195 741.262 397.1 741.459 394.809 741.853C392.517 742.211 390.655 742.604 389.223 743.034L382.616 739.489L385.57 699.475H428.163V713.547H400.126L398.676 728.962L400.556 728.586C402.74 728.085 405.443 727.834 408.666 727.834ZM477.004 778V766.23H468.204V755.56H477.004V746.98H468.204V733.34H477.004V699.46H502.084C512.204 699.46 519.574 701.513 524.194 705.62C528.887 709.727 531.234 715.373 531.234 722.56C531.234 726.813 530.28 730.81 528.374 734.55C526.467 738.29 523.277 741.297 518.804 743.57C514.404 745.843 508.39 746.98 500.764 746.98H493.614V755.56H510.554V766.23H493.614V778H477.004ZM499.114 733.34C503.807 733.34 507.51 732.533 510.224 730.92C513.01 729.307 514.404 726.703 514.404 723.11C514.404 716.437 510.004 713.1 501.204 713.1H493.614V733.34H499.114Z" fill="white"/>
<path d="M711.235 1093.04C711.235 1097.94 709.749 1102.12 706.777 1105.55C703.805 1108.99 699.634 1111.35 694.263 1112.64V1112.96C700.601 1113.75 705.399 1115.69 708.657 1118.77C711.916 1121.81 713.545 1125.93 713.545 1131.12C713.545 1138.67 710.806 1144.56 705.327 1148.79C699.849 1152.98 692.025 1155.07 681.855 1155.07C673.333 1155.07 665.778 1153.66 659.189 1150.83V1136.71C662.233 1138.24 665.581 1139.5 669.233 1140.46C672.886 1141.43 676.502 1141.92 680.083 1141.92C685.562 1141.92 689.608 1140.98 692.222 1139.12C694.836 1137.26 696.143 1134.27 696.143 1130.15C696.143 1126.46 694.639 1123.85 691.631 1122.31C688.623 1120.77 683.825 1120 677.236 1120H671.274V1107.27H677.344C683.431 1107.27 687.871 1106.48 690.664 1104.91C693.493 1103.3 694.907 1100.56 694.907 1096.69C694.907 1090.75 691.183 1087.77 683.735 1087.77C681.157 1087.77 678.525 1088.2 675.84 1089.06C673.19 1089.92 670.236 1091.41 666.978 1093.52L659.297 1082.08C666.458 1076.92 674.998 1074.35 684.917 1074.35C693.045 1074.35 699.455 1075.99 704.146 1079.29C708.872 1082.58 711.235 1087.17 711.235 1093.04ZM749.316 1074.45C756.836 1074.45 762.887 1076.17 767.471 1079.61C772.09 1083.01 774.399 1087.61 774.399 1093.41C774.399 1097.42 773.289 1101.01 771.069 1104.16C768.849 1107.27 765.269 1110.06 760.327 1112.54C766.2 1115.69 770.407 1118.98 772.949 1122.42C775.527 1125.82 776.816 1129.56 776.816 1133.64C776.816 1140.09 774.292 1145.28 769.243 1149.22C764.194 1153.12 757.552 1155.07 749.316 1155.07C740.723 1155.07 733.973 1153.25 729.067 1149.6C724.162 1145.94 721.709 1140.77 721.709 1134.07C721.709 1129.6 722.891 1125.62 725.254 1122.15C727.653 1118.68 731.484 1115.61 736.748 1112.96C732.272 1110.14 729.049 1107.11 727.08 1103.89C725.111 1100.67 724.126 1097.14 724.126 1093.31C724.126 1087.68 726.453 1083.14 731.108 1079.66C735.763 1076.19 741.833 1074.45 749.316 1074.45ZM737.07 1133.11C737.07 1136.19 738.145 1138.58 740.293 1140.3C742.441 1142.02 745.378 1142.88 749.102 1142.88C753.219 1142.88 756.299 1142 758.34 1140.25C760.381 1138.46 761.401 1136.11 761.401 1133.21C761.401 1130.81 760.381 1128.58 758.34 1126.5C756.335 1124.39 753.058 1122.15 748.511 1119.79C740.884 1123.3 737.07 1127.74 737.07 1133.11ZM749.209 1086.59C746.38 1086.59 744.089 1087.33 742.334 1088.79C740.615 1090.23 739.756 1092.16 739.756 1094.6C739.756 1096.74 740.436 1098.68 741.797 1100.4C743.193 1102.08 745.7 1103.82 749.316 1105.61C752.826 1103.96 755.278 1102.28 756.675 1100.56C758.071 1098.84 758.77 1096.85 758.77 1094.6C758.77 1092.12 757.874 1090.17 756.084 1088.74C754.294 1087.31 752.002 1086.59 749.209 1086.59ZM821.45 1154L850.938 1089.55H812.212V1075.58H868.555V1086L838.853 1154H821.45ZM930.967 1114.74C930.967 1128.45 928.711 1138.6 924.199 1145.19C919.723 1151.78 912.812 1155.07 903.467 1155.07C894.408 1155.07 887.568 1151.67 882.949 1144.87C878.366 1138.07 876.074 1128.02 876.074 1114.74C876.074 1100.88 878.312 1090.67 882.788 1084.12C887.264 1077.53 894.157 1074.24 903.467 1074.24C912.526 1074.24 919.365 1077.68 923.984 1084.55C928.639 1091.43 930.967 1101.49 930.967 1114.74ZM892.563 1114.74C892.563 1124.37 893.387 1131.28 895.034 1135.47C896.717 1139.62 899.528 1141.7 903.467 1141.7C907.334 1141.7 910.127 1139.59 911.846 1135.36C913.564 1131.14 914.424 1124.26 914.424 1114.74C914.424 1105.11 913.547 1098.19 911.792 1094C910.073 1089.78 907.298 1087.67 903.467 1087.67C899.564 1087.67 896.771 1089.78 895.088 1094C893.405 1098.19 892.563 1105.11 892.563 1114.74ZM938.809 1120.65C938.809 1105.11 942.085 1093.54 948.638 1085.95C955.226 1078.36 965.073 1074.56 978.179 1074.56C982.655 1074.56 986.164 1074.83 988.706 1075.37V1088.63C985.519 1087.92 982.368 1087.56 979.253 1087.56C973.56 1087.56 968.905 1088.42 965.288 1090.14C961.707 1091.86 959.022 1094.4 957.231 1097.76C955.441 1101.13 954.385 1105.91 954.062 1112.11H954.761C958.306 1106.02 963.981 1102.97 971.787 1102.97C978.805 1102.97 984.302 1105.18 988.276 1109.58C992.251 1113.99 994.238 1120.07 994.238 1127.84C994.238 1136.22 991.875 1142.86 987.148 1147.77C982.422 1152.64 975.869 1155.07 967.49 1155.07C961.689 1155.07 956.623 1153.73 952.29 1151.05C947.993 1148.36 944.663 1144.44 942.3 1139.28C939.972 1134.13 938.809 1127.91 938.809 1120.65ZM967.168 1141.81C970.713 1141.81 973.434 1140.63 975.332 1138.26C977.23 1135.86 978.179 1132.46 978.179 1128.06C978.179 1124.23 977.284 1121.22 975.493 1119.03C973.739 1116.81 971.071 1115.7 967.49 1115.7C964.124 1115.7 961.242 1116.8 958.843 1118.98C956.479 1121.16 955.298 1123.71 955.298 1126.61C955.298 1130.87 956.408 1134.47 958.628 1137.4C960.884 1140.34 963.73 1141.81 967.168 1141.81ZM1036.26 1154V1142.23H1027.46V1131.56H1036.26V1122.98H1027.46V1109.34H1036.26V1075.46H1061.34C1071.46 1075.46 1078.83 1077.51 1083.45 1081.62C1088.14 1085.73 1090.49 1091.37 1090.49 1098.56C1090.49 1102.81 1089.53 1106.81 1087.63 1110.55C1085.72 1114.29 1082.53 1117.3 1078.06 1119.57C1073.66 1121.84 1067.64 1122.98 1060.02 1122.98H1052.87V1131.56H1069.81V1142.23H1052.87V1154H1036.26ZM1058.37 1109.34C1063.06 1109.34 1066.76 1108.53 1069.48 1106.92C1072.26 1105.31 1073.66 1102.7 1073.66 1099.11C1073.66 1092.44 1069.26 1089.1 1060.46 1089.1H1052.87V1109.34H1058.37Z" fill="white"/>
<path d="M711.235 717.038C711.235 721.944 709.749 726.115 706.777 729.553C703.805 732.99 699.634 735.354 694.263 736.643V736.965C700.601 737.753 705.399 739.686 708.657 742.766C711.916 745.809 713.545 749.927 713.545 755.119C713.545 762.674 710.806 768.565 705.327 772.79C699.849 776.979 692.025 779.074 681.855 779.074C673.333 779.074 665.778 777.66 659.189 774.831V760.705C662.233 762.245 665.581 763.498 669.233 764.465C672.886 765.432 676.502 765.915 680.083 765.915C685.562 765.915 689.608 764.984 692.222 763.122C694.836 761.26 696.143 758.27 696.143 754.152C696.143 750.464 694.639 747.85 691.631 746.311C688.623 744.771 683.825 744.001 677.236 744.001H671.274V731.271H677.344C683.431 731.271 687.871 730.484 690.664 728.908C693.493 727.297 694.907 724.558 694.907 720.69C694.907 714.746 691.183 711.774 683.735 711.774C681.157 711.774 678.525 712.204 675.84 713.063C673.19 713.923 670.236 715.409 666.978 717.521L659.297 706.081C666.458 700.925 674.998 698.347 684.917 698.347C693.045 698.347 699.455 699.994 704.146 703.288C708.872 706.582 711.235 711.166 711.235 717.038ZM776.709 738.737C776.709 752.451 774.453 762.603 769.941 769.191C765.465 775.78 758.555 779.074 749.209 779.074C740.15 779.074 733.311 775.673 728.691 768.869C724.108 762.066 721.816 752.022 721.816 738.737C721.816 724.88 724.054 714.675 728.53 708.122C733.006 701.534 739.899 698.239 749.209 698.239C758.268 698.239 765.107 701.677 769.727 708.552C774.382 715.427 776.709 725.489 776.709 738.737ZM738.306 738.737C738.306 748.369 739.129 755.28 740.776 759.47C742.459 763.623 745.27 765.7 749.209 765.7C753.076 765.7 755.869 763.588 757.588 759.362C759.307 755.137 760.166 748.262 760.166 738.737C760.166 729.105 759.289 722.194 757.534 718.005C755.815 713.78 753.04 711.667 749.209 711.667C745.306 711.667 742.513 713.78 740.83 718.005C739.147 722.194 738.306 729.105 738.306 738.737ZM868.125 738.737C868.125 752.451 865.869 762.603 861.357 769.191C856.882 775.78 849.971 779.074 840.625 779.074C831.566 779.074 824.727 775.673 820.107 768.869C815.524 762.066 813.232 752.022 813.232 738.737C813.232 724.88 815.47 714.675 819.946 708.122C824.422 701.534 831.315 698.239 840.625 698.239C849.684 698.239 856.523 701.677 861.143 708.552C865.798 715.427 868.125 725.489 868.125 738.737ZM829.722 738.737C829.722 748.369 830.545 755.28 832.192 759.47C833.875 763.623 836.686 765.7 840.625 765.7C844.492 765.7 847.285 763.588 849.004 759.362C850.723 755.137 851.582 748.262 851.582 738.737C851.582 729.105 850.705 722.194 848.95 718.005C847.231 713.78 844.456 711.667 840.625 711.667C836.722 711.667 833.929 713.78 832.246 718.005C830.563 722.194 829.722 729.105 829.722 738.737ZM928.335 717.038C928.335 721.944 926.849 726.115 923.877 729.553C920.905 732.99 916.733 735.354 911.362 736.643V736.965C917.7 737.753 922.498 739.686 925.757 742.766C929.015 745.809 930.645 749.927 930.645 755.119C930.645 762.674 927.905 768.565 922.427 772.79C916.948 776.979 909.124 779.074 898.955 779.074C890.433 779.074 882.878 777.66 876.289 774.831V760.705C879.333 762.245 882.681 763.498 886.333 764.465C889.985 765.432 893.602 765.915 897.183 765.915C902.661 765.915 906.707 764.984 909.321 763.122C911.935 761.26 913.242 758.27 913.242 754.152C913.242 750.464 911.738 747.85 908.73 746.311C905.723 744.771 900.924 744.001 894.336 744.001H888.374V731.271H894.443C900.531 731.271 904.971 730.484 907.764 728.908C910.592 727.297 912.007 724.558 912.007 720.69C912.007 714.746 908.283 711.774 900.835 711.774C898.257 711.774 895.625 712.204 892.939 713.063C890.29 713.923 887.336 715.409 884.077 717.521L876.396 706.081C883.558 700.925 892.098 698.347 902.017 698.347C910.145 698.347 916.554 699.994 921.245 703.288C925.972 706.582 928.335 711.166 928.335 717.038ZM967.92 727.834C975.511 727.834 981.545 729.965 986.021 734.226C990.532 738.487 992.788 744.323 992.788 751.735C992.788 760.508 990.085 767.258 984.678 771.984C979.271 776.711 971.536 779.074 961.475 779.074C952.738 779.074 945.684 777.66 940.312 774.831V760.49C943.141 761.994 946.436 763.229 950.195 764.196C953.955 765.127 957.518 765.593 960.884 765.593C971.017 765.593 976.084 761.439 976.084 753.132C976.084 745.218 970.838 741.262 960.347 741.262C958.449 741.262 956.354 741.459 954.062 741.853C951.771 742.211 949.909 742.604 948.477 743.034L941.87 739.489L944.824 699.475H987.417V713.547H959.38L957.93 728.962L959.81 728.586C961.994 728.085 964.697 727.834 967.92 727.834ZM1036.26 778V766.23H1027.46V755.56H1036.26V746.98H1027.46V733.34H1036.26V699.46H1061.34C1071.46 699.46 1078.83 701.513 1083.45 705.62C1088.14 709.727 1090.49 715.373 1090.49 722.56C1090.49 726.813 1089.53 730.81 1087.63 734.55C1085.72 738.29 1082.53 741.297 1078.06 743.57C1073.66 745.843 1067.64 746.98 1060.02 746.98H1052.87V755.56H1069.81V766.23H1052.87V778H1036.26ZM1058.37 733.34C1063.06 733.34 1066.76 732.533 1069.48 730.92C1072.26 729.307 1073.66 726.703 1073.66 723.11C1073.66 716.437 1069.26 713.1 1060.46 713.1H1052.87V733.34H1058.37Z" fill="white"/>
<path d="M1365.24 1093.04C1365.24 1097.94 1363.75 1102.12 1360.78 1105.55C1357.81 1108.99 1353.63 1111.35 1348.26 1112.64V1112.96C1354.6 1113.75 1359.4 1115.69 1362.66 1118.77C1365.92 1121.81 1367.54 1125.93 1367.54 1131.12C1367.54 1138.67 1364.81 1144.56 1359.33 1148.79C1353.85 1152.98 1346.02 1155.07 1335.86 1155.07C1327.33 1155.07 1319.78 1153.66 1313.19 1150.83V1136.71C1316.23 1138.24 1319.58 1139.5 1323.23 1140.46C1326.89 1141.43 1330.5 1141.92 1334.08 1141.92C1339.56 1141.92 1343.61 1140.98 1346.22 1139.12C1348.84 1137.26 1350.14 1134.27 1350.14 1130.15C1350.14 1126.46 1348.64 1123.85 1345.63 1122.31C1342.62 1120.77 1337.82 1120 1331.24 1120H1325.27V1107.27H1331.34C1337.43 1107.27 1341.87 1106.48 1344.66 1104.91C1347.49 1103.3 1348.91 1100.56 1348.91 1096.69C1348.91 1090.75 1345.18 1087.77 1337.74 1087.77C1335.16 1087.77 1332.53 1088.2 1329.84 1089.06C1327.19 1089.92 1324.24 1091.41 1320.98 1093.52L1313.3 1082.08C1320.46 1076.92 1329 1074.35 1338.92 1074.35C1347.05 1074.35 1353.45 1075.99 1358.15 1079.29C1362.87 1082.58 1365.24 1087.17 1365.24 1093.04ZM1384.03 1154L1413.52 1089.55H1374.8V1075.58H1431.14V1086L1401.44 1154H1384.03ZM1524.33 1137.73H1514.87V1154H1498.65V1137.73H1465.14V1126.18L1499.57 1075.47H1514.87V1124.83H1524.33V1137.73ZM1498.65 1124.83V1111.51C1498.65 1109.29 1498.74 1106.07 1498.92 1101.85C1499.1 1097.62 1499.24 1095.17 1499.35 1094.49H1498.92C1497.6 1097.42 1496 1100.29 1494.14 1103.08L1479.75 1124.83H1498.65ZM1587.17 1137.73H1577.72V1154H1561.5V1137.73H1527.98V1126.18L1562.41 1075.47H1577.72V1124.83H1587.17V1137.73ZM1561.5 1124.83V1111.51C1561.5 1109.29 1561.58 1106.07 1561.76 1101.85C1561.94 1097.62 1562.09 1095.17 1562.19 1094.49H1561.76C1560.44 1097.42 1558.85 1100.29 1556.98 1103.08L1542.59 1124.83H1561.5ZM1601.13 1154L1630.62 1089.55H1591.9V1075.58H1648.24V1086L1618.54 1154H1601.13ZM1676.44 1142.45C1674.57 1149.69 1671.42 1158.26 1666.98 1168.18H1655.17C1657.49 1158.65 1659.3 1149.67 1660.59 1141.22H1675.63L1676.44 1142.45ZM1716.67 1103.83C1724.26 1103.83 1730.29 1105.96 1734.77 1110.23C1739.28 1114.49 1741.53 1120.32 1741.53 1127.74C1741.53 1136.51 1738.83 1143.26 1733.42 1147.98C1728.02 1152.71 1720.28 1155.07 1710.22 1155.07C1701.48 1155.07 1694.43 1153.66 1689.06 1150.83V1136.49C1691.89 1137.99 1695.18 1139.23 1698.94 1140.2C1702.7 1141.13 1706.26 1141.59 1709.63 1141.59C1719.76 1141.59 1724.83 1137.44 1724.83 1129.13C1724.83 1121.22 1719.58 1117.26 1709.09 1117.26C1707.19 1117.26 1705.1 1117.46 1702.81 1117.85C1700.52 1118.21 1698.65 1118.6 1697.22 1119.03L1690.62 1115.49L1693.57 1075.47H1736.16V1089.55H1708.13L1706.68 1104.96L1708.56 1104.59C1710.74 1104.08 1713.44 1103.83 1716.67 1103.83ZM1813.58 1154V1142.23H1804.78V1131.56H1813.58V1122.98H1804.78V1109.34H1813.58V1075.46H1838.66C1848.78 1075.46 1856.15 1077.51 1860.77 1081.62C1865.46 1085.73 1867.81 1091.37 1867.81 1098.56C1867.81 1102.81 1866.85 1106.81 1864.95 1110.55C1863.04 1114.29 1859.85 1117.3 1855.38 1119.57C1850.98 1121.84 1844.96 1122.98 1837.34 1122.98H1830.19V1131.56H1847.13V1142.23H1830.19V1154H1813.58ZM1835.69 1109.34C1840.38 1109.34 1844.08 1108.53 1846.8 1106.92C1849.58 1105.31 1850.98 1102.7 1850.98 1099.11C1850.98 1092.44 1846.58 1089.1 1837.78 1089.1H1830.19V1109.34H1835.69Z" fill="#FF4D00"/>
<path d="M1941.5 1154L1925.48 1126.25L1957.52 1126.25L1941.5 1154Z" fill="white"/>
<path d="M1306.28 753.227V739.799H1335.12V753.227H1306.28Z" fill="white"/>
<path d="M3.27637 1131.23V1117.8H32.1191V1131.23H3.27637Z" fill="white"/>
<defs>
<linearGradient id="paint0_linear" x1="1976" y1="1014.98" x2="1" y2="1015" gradientUnits="userSpaceOnUse">
<stop stop-color="#00CD77"/>
<stop offset="0.410127" stop-color="#6A7186"/>
</linearGradient>
<linearGradient id="paint1_linear" x1="1976" y1="600.976" x2="1" y2="601" gradientUnits="userSpaceOnUse">
<stop stop-color="#00CD77"/>
<stop offset="0.410127" stop-color="#6A7186"/>
</linearGradient>
</defs>
</svg>
