<svg width="1905" height="1113" viewBox="0 0 1905 1113" fill="none" xmlns="http://www.w3.org/2000/svg">
<rect y="138" width="292" height="812" fill="#01F859" fill-opacity="0.8"/>
<path d="M26.9531 1024H2.00195V1018.75L10.9619 1009.69C13.6149 1006.98 15.3483 1005.1 16.1621 1004.05C16.9759 1003 17.5618 1002.02 17.9199 1001.12C18.278 1000.23 18.457 999.301 18.457 998.341C18.457 996.909 18.0583 995.842 17.2607 995.143C16.4795 994.443 15.4297 994.093 14.1113 994.093C12.7279 994.093 11.3851 994.41 10.083 995.045C8.78092 995.68 7.42188 996.583 6.00586 997.755L1.9043 992.896C3.66211 991.399 5.11882 990.341 6.27441 989.723C7.43001 989.104 8.69141 988.632 10.0586 988.307C11.4258 987.965 12.9557 987.794 14.6484 987.794C16.8783 987.794 18.8477 988.201 20.5566 989.015C22.2656 989.828 23.5921 990.968 24.5361 992.433C25.4801 993.897 25.9521 995.574 25.9521 997.462C25.9521 999.106 25.6592 1000.65 25.0732 1002.1C24.5036 1003.53 23.6084 1005.01 22.3877 1006.52C21.1833 1008.03 19.0511 1010.19 15.9912 1012.99L11.4014 1017.31V1017.65H26.9531V1024ZM55.3223 1006.15C55.3223 1012.39 54.2969 1017 52.2461 1020C50.2116 1022.99 47.0703 1024.49 42.8223 1024.49C38.7044 1024.49 35.5957 1022.94 33.4961 1019.85C31.4128 1016.76 30.3711 1012.19 30.3711 1006.15C30.3711 999.854 31.3883 995.216 33.4229 992.237C35.4574 989.243 38.5905 987.745 42.8223 987.745C46.9401 987.745 50.0488 989.308 52.1484 992.433C54.2643 995.558 55.3223 1000.13 55.3223 1006.15ZM37.8662 1006.15C37.8662 1010.53 38.2406 1013.67 38.9893 1015.58C39.7542 1017.47 41.0319 1018.41 42.8223 1018.41C44.5801 1018.41 45.8496 1017.45 46.6309 1015.53C47.4121 1013.61 47.8027 1010.48 47.8027 1006.15C47.8027 1001.78 47.404 998.634 46.6064 996.729C45.8252 994.809 44.5638 993.849 42.8223 993.849C41.0482 993.849 39.7786 994.809 39.0137 996.729C38.2487 998.634 37.8662 1001.78 37.8662 1006.15ZM77.7832 1024H70.2393V1003.35L70.3125 999.952L70.4346 996.241C69.1813 997.494 68.3105 998.316 67.8223 998.707L63.7207 1002L60.083 997.462L71.582 988.307H77.7832V1024ZM100 987.843C103.418 987.843 106.169 988.624 108.252 990.187C110.352 991.733 111.401 993.824 111.401 996.461C111.401 998.284 110.897 999.911 109.888 1001.34C108.879 1002.76 107.251 1004.03 105.005 1005.15C107.674 1006.58 109.587 1008.08 110.742 1009.64C111.914 1011.19 112.5 1012.89 112.5 1014.75C112.5 1017.68 111.353 1020.04 109.058 1021.83C106.763 1023.6 103.743 1024.49 100 1024.49C96.0938 1024.49 93.0257 1023.66 90.7959 1022C88.5661 1020.34 87.4512 1017.99 87.4512 1014.94C87.4512 1012.91 87.9883 1011.1 89.0625 1009.52C90.153 1007.94 91.8945 1006.55 94.2871 1005.35C92.2526 1004.06 90.7878 1002.69 89.8926 1001.22C88.9974 999.757 88.5498 998.154 88.5498 996.412C88.5498 993.857 89.6077 991.79 91.7236 990.211C93.8395 988.632 96.5983 987.843 100 987.843ZM94.4336 1014.5C94.4336 1015.9 94.9219 1016.99 95.8984 1017.77C96.875 1018.56 98.2096 1018.95 99.9023 1018.95C101.774 1018.95 103.174 1018.55 104.102 1017.75C105.029 1016.94 105.493 1015.87 105.493 1014.55C105.493 1013.46 105.029 1012.44 104.102 1011.5C103.19 1010.54 101.701 1009.52 99.6338 1008.45C96.167 1010.04 94.4336 1012.06 94.4336 1014.5ZM99.9512 993.36C98.6654 993.36 97.6237 993.694 96.8262 994.361C96.0449 995.012 95.6543 995.891 95.6543 996.998C95.6543 997.975 95.9635 998.854 96.582 999.635C97.2168 1000.4 98.3561 1001.19 100 1002C101.595 1001.25 102.71 1000.49 103.345 999.708C103.979 998.927 104.297 998.023 104.297 996.998C104.297 995.875 103.89 994.988 103.076 994.337C102.262 993.686 101.221 993.36 99.9512 993.36Z" fill="white"/>
<path d="M671.953 1024H647.002V1018.75L655.962 1009.69C658.615 1006.98 660.348 1005.1 661.162 1004.05C661.976 1003 662.562 1002.02 662.92 1001.12C663.278 1000.23 663.457 999.301 663.457 998.341C663.457 996.909 663.058 995.842 662.261 995.143C661.479 994.443 660.43 994.093 659.111 994.093C657.728 994.093 656.385 994.41 655.083 995.045C653.781 995.68 652.422 996.583 651.006 997.755L646.904 992.896C648.662 991.399 650.119 990.341 651.274 989.723C652.43 989.104 653.691 988.632 655.059 988.307C656.426 987.965 657.956 987.794 659.648 987.794C661.878 987.794 663.848 988.201 665.557 989.015C667.266 989.828 668.592 990.968 669.536 992.433C670.48 993.897 670.952 995.574 670.952 997.462C670.952 999.106 670.659 1000.65 670.073 1002.1C669.504 1003.53 668.608 1005.01 667.388 1006.52C666.183 1008.03 664.051 1010.19 660.991 1012.99L656.401 1017.31V1017.65H671.953V1024ZM700.322 1006.15C700.322 1012.39 699.297 1017 697.246 1020C695.212 1022.99 692.07 1024.49 687.822 1024.49C683.704 1024.49 680.596 1022.94 678.496 1019.85C676.413 1016.76 675.371 1012.19 675.371 1006.15C675.371 999.854 676.388 995.216 678.423 992.237C680.457 989.243 683.59 987.745 687.822 987.745C691.94 987.745 695.049 989.308 697.148 992.433C699.264 995.558 700.322 1000.13 700.322 1006.15ZM682.866 1006.15C682.866 1010.53 683.241 1013.67 683.989 1015.58C684.754 1017.47 686.032 1018.41 687.822 1018.41C689.58 1018.41 690.85 1017.45 691.631 1015.53C692.412 1013.61 692.803 1010.48 692.803 1006.15C692.803 1001.78 692.404 998.634 691.606 996.729C690.825 994.809 689.564 993.849 687.822 993.849C686.048 993.849 684.779 994.809 684.014 996.729C683.249 998.634 682.866 1001.78 682.866 1006.15ZM722.783 1024H715.239V1003.35L715.312 999.952L715.435 996.241C714.181 997.494 713.311 998.316 712.822 998.707L708.721 1002L705.083 997.462L716.582 988.307H722.783V1024ZM757.5 1003.54C757.5 1010.57 756.019 1015.82 753.057 1019.29C750.094 1022.75 745.61 1024.49 739.604 1024.49C737.489 1024.49 735.885 1024.37 734.795 1024.15V1018.09C736.162 1018.43 737.594 1018.6 739.092 1018.6C741.615 1018.6 743.69 1018.24 745.317 1017.51C746.945 1016.76 748.19 1015.59 749.053 1014.01C749.915 1012.42 750.412 1010.23 750.542 1007.45H750.249C749.305 1008.98 748.215 1010.05 746.978 1010.67C745.741 1011.29 744.194 1011.6 742.339 1011.6C739.23 1011.6 736.781 1010.6 734.99 1008.62C733.2 1006.62 732.305 1003.84 732.305 1000.29C732.305 996.469 733.387 993.45 735.552 991.236C737.733 989.007 740.695 987.892 744.438 987.892C747.075 987.892 749.378 988.51 751.348 989.747C753.333 990.984 754.855 992.783 755.913 995.143C756.971 997.486 757.5 1000.29 757.5 1003.54ZM744.585 993.946C743.022 993.946 741.802 994.483 740.923 995.558C740.044 996.632 739.604 998.178 739.604 1000.2C739.604 1001.92 740.003 1003.29 740.801 1004.3C741.598 1005.31 742.811 1005.81 744.438 1005.81C745.968 1005.81 747.279 1005.32 748.369 1004.32C749.46 1003.31 750.005 1002.16 750.005 1000.86C750.005 998.919 749.492 997.283 748.467 995.948C747.458 994.614 746.164 993.946 744.585 993.946Z" fill="white"/>
<path d="M1316.95 1024H1292V1018.75L1300.96 1009.69C1303.61 1006.98 1305.35 1005.1 1306.16 1004.05C1306.98 1003 1307.56 1002.02 1307.92 1001.12C1308.28 1000.23 1308.46 999.301 1308.46 998.341C1308.46 996.909 1308.06 995.842 1307.26 995.143C1306.48 994.443 1305.43 994.093 1304.11 994.093C1302.73 994.093 1301.39 994.41 1300.08 995.045C1298.78 995.68 1297.42 996.583 1296.01 997.755L1291.9 992.896C1293.66 991.399 1295.12 990.341 1296.27 989.723C1297.43 989.104 1298.69 988.632 1300.06 988.307C1301.43 987.965 1302.96 987.794 1304.65 987.794C1306.88 987.794 1308.85 988.201 1310.56 989.015C1312.27 989.828 1313.59 990.968 1314.54 992.433C1315.48 993.897 1315.95 995.574 1315.95 997.462C1315.95 999.106 1315.66 1000.65 1315.07 1002.1C1314.5 1003.53 1313.61 1005.01 1312.39 1006.52C1311.18 1008.03 1309.05 1010.19 1305.99 1012.99L1301.4 1017.31V1017.65H1316.95V1024ZM1345.32 1006.15C1345.32 1012.39 1344.3 1017 1342.25 1020C1340.21 1022.99 1337.07 1024.49 1332.82 1024.49C1328.7 1024.49 1325.6 1022.94 1323.5 1019.85C1321.41 1016.76 1320.37 1012.19 1320.37 1006.15C1320.37 999.854 1321.39 995.216 1323.42 992.237C1325.46 989.243 1328.59 987.745 1332.82 987.745C1336.94 987.745 1340.05 989.308 1342.15 992.433C1344.26 995.558 1345.32 1000.13 1345.32 1006.15ZM1327.87 1006.15C1327.87 1010.53 1328.24 1013.67 1328.99 1015.58C1329.75 1017.47 1331.03 1018.41 1332.82 1018.41C1334.58 1018.41 1335.85 1017.45 1336.63 1015.53C1337.41 1013.61 1337.8 1010.48 1337.8 1006.15C1337.8 1001.78 1337.4 998.634 1336.61 996.729C1335.83 994.809 1334.56 993.849 1332.82 993.849C1331.05 993.849 1329.78 994.809 1329.01 996.729C1328.25 998.634 1327.87 1001.78 1327.87 1006.15ZM1374.08 1024H1349.13V1018.75L1358.09 1009.69C1360.74 1006.98 1362.48 1005.1 1363.29 1004.05C1364.1 1003 1364.69 1002.02 1365.05 1001.12C1365.41 1000.23 1365.59 999.301 1365.59 998.341C1365.59 996.909 1365.19 995.842 1364.39 995.143C1363.61 994.443 1362.56 994.093 1361.24 994.093C1359.86 994.093 1358.51 994.41 1357.21 995.045C1355.91 995.68 1354.55 996.583 1353.13 997.755L1349.03 992.896C1350.79 991.399 1352.25 990.341 1353.4 989.723C1354.56 989.104 1355.82 988.632 1357.19 988.307C1358.55 987.965 1360.08 987.794 1361.78 987.794C1364.01 987.794 1365.98 988.201 1367.69 989.015C1369.39 989.828 1370.72 990.968 1371.67 992.433C1372.61 993.897 1373.08 995.574 1373.08 997.462C1373.08 999.106 1372.79 1000.65 1372.2 1002.1C1371.63 1003.53 1370.74 1005.01 1369.52 1006.52C1368.31 1008.03 1366.18 1010.19 1363.12 1012.99L1358.53 1017.31V1017.65H1374.08V1024ZM1402.45 1006.15C1402.45 1012.39 1401.43 1017 1399.38 1020C1397.34 1022.99 1394.2 1024.49 1389.95 1024.49C1385.83 1024.49 1382.72 1022.94 1380.62 1019.85C1378.54 1016.76 1377.5 1012.19 1377.5 1006.15C1377.5 999.854 1378.52 995.216 1380.55 992.237C1382.59 989.243 1385.72 987.745 1389.95 987.745C1394.07 987.745 1397.18 989.308 1399.28 992.433C1401.39 995.558 1402.45 1000.13 1402.45 1006.15ZM1385 1006.15C1385 1010.53 1385.37 1013.67 1386.12 1015.58C1386.88 1017.47 1388.16 1018.41 1389.95 1018.41C1391.71 1018.41 1392.98 1017.45 1393.76 1015.53C1394.54 1013.61 1394.93 1010.48 1394.93 1006.15C1394.93 1001.78 1394.53 998.634 1393.74 996.729C1392.95 994.809 1391.69 993.849 1389.95 993.849C1388.18 993.849 1386.91 994.809 1386.14 996.729C1385.38 998.634 1385 1001.78 1385 1006.15Z" fill="white"/>
<rect x="1290" width="292" height="950" fill="#01F859"/>
<rect x="645" y="76" width="292" height="874" fill="#01F859" fill-opacity="0.9"/>
<path d="M190.038 852.765C194.944 852.765 199.115 854.251 202.553 857.223C205.99 860.195 208.354 864.366 209.643 869.737L209.965 869.737C210.753 863.399 212.686 858.601 215.766 855.343C218.809 852.084 222.927 850.455 228.119 850.455C235.674 850.455 241.565 853.194 245.79 858.673C249.979 864.151 252.074 871.975 252.074 882.145C252.074 890.667 250.66 898.222 247.831 904.811L233.705 904.811C235.245 901.767 236.498 898.419 237.465 894.767C238.432 891.114 238.915 887.498 238.915 883.917C238.915 878.438 237.984 874.392 236.122 871.778C234.26 869.164 231.27 867.857 227.152 867.857C223.464 867.857 220.85 869.361 219.311 872.369C217.771 875.377 217.001 880.175 217.001 886.764L217.001 892.726L204.271 892.726L204.271 886.656C204.271 880.569 203.484 876.129 201.908 873.336C200.297 870.507 197.558 869.093 193.69 869.093C187.746 869.093 184.774 872.817 184.774 880.265C184.774 882.843 185.204 885.475 186.063 888.16C186.923 890.81 188.409 893.764 190.521 897.022L179.081 904.703C173.925 897.542 171.347 889.002 171.347 879.083C171.347 870.955 172.994 864.545 176.288 859.854C179.582 855.128 184.166 852.765 190.038 852.765ZM190.038 789.923C194.944 789.923 199.115 791.409 202.553 794.381C205.99 797.353 208.354 801.524 209.643 806.896L209.965 806.896C210.753 800.558 212.686 795.759 215.766 792.501C218.809 789.243 222.927 787.613 228.119 787.613C235.674 787.613 241.565 790.353 245.79 795.831C249.979 801.31 252.074 809.133 252.074 819.303C252.074 827.825 250.66 835.38 247.831 841.969L233.705 841.969C235.245 838.925 236.498 835.577 237.465 831.925C238.432 828.272 238.915 824.656 238.915 821.075C238.915 815.597 237.984 811.55 236.122 808.937C234.26 806.323 231.27 805.016 227.152 805.016C223.464 805.016 220.85 806.52 219.311 809.527C217.771 812.535 217.001 817.333 217.001 823.922L217.001 829.884L204.271 829.884L204.271 823.814C204.271 817.727 203.484 813.287 201.908 810.494C200.297 807.665 197.558 806.251 193.69 806.251C187.746 806.251 184.774 809.975 184.774 817.423C184.774 820.001 185.204 822.633 186.063 825.318C186.923 827.968 188.409 830.922 190.521 834.181L179.081 841.861C173.925 834.7 171.347 826.16 171.347 816.241C171.347 808.113 172.994 801.703 176.288 797.013C179.582 792.286 184.166 789.923 190.038 789.923ZM251 742.55L186.547 713.062L186.547 751.788L172.582 751.788L172.582 695.445L183.002 695.445L251 725.147L251 742.55ZM200.834 658.922C200.834 651.331 202.965 645.297 207.226 640.821C211.487 636.31 217.323 634.054 224.735 634.054C233.508 634.054 240.258 636.757 244.984 642.164C249.711 647.571 252.074 655.305 252.074 665.367C252.074 674.104 250.66 681.158 247.831 686.529L233.49 686.529C234.994 683.701 236.229 680.406 237.196 676.646C238.127 672.887 238.593 669.324 238.593 665.958C238.593 655.825 234.439 650.758 226.132 650.758C218.218 650.758 214.262 656.004 214.262 666.495C214.262 668.393 214.459 670.488 214.853 672.779C215.211 675.071 215.604 676.933 216.034 678.365L212.489 684.972L172.475 682.018L172.475 639.425L186.547 639.425L186.547 667.462L201.962 668.912L201.586 667.032C201.085 664.848 200.834 662.145 200.834 658.922ZM251 569.762L251 624.654L239.452 624.654L219.525 604.942C213.546 599.106 209.41 595.292 207.118 593.502C204.791 591.712 202.642 590.423 200.673 589.635C198.703 588.847 196.662 588.453 194.55 588.453C191.399 588.453 189.053 589.33 187.514 591.085C185.974 592.804 185.204 595.113 185.204 598.014C185.204 601.057 185.902 604.011 187.299 606.876C188.695 609.741 190.683 612.73 193.261 615.846L182.572 624.869C179.278 621.002 176.951 617.797 175.59 615.255C174.229 612.713 173.191 609.937 172.475 606.93C171.723 603.922 171.347 600.556 171.347 596.832C171.347 591.926 172.242 587.594 174.032 583.834C175.823 580.074 178.329 577.156 181.552 575.079C184.774 573.002 188.463 571.964 192.616 571.964C196.233 571.964 199.634 572.608 202.821 573.897C205.972 575.151 209.213 577.12 212.543 579.806C215.873 582.455 220.617 587.146 226.776 593.878L236.283 603.976L237.035 603.976L237.035 569.762L251 569.762ZM239.452 541.563C246.685 543.425 255.261 546.576 265.18 551.017L265.18 562.833C255.655 560.506 246.667 558.697 238.217 557.408L238.217 542.369L239.452 541.563ZM171.454 502.838C171.454 495.318 173.173 489.267 176.61 484.684C180.012 480.064 184.613 477.755 190.414 477.755C194.424 477.755 198.005 478.865 201.156 481.085C204.271 483.305 207.064 486.886 209.535 491.827C212.686 485.955 215.98 481.747 219.418 479.205C222.82 476.627 226.562 475.338 230.644 475.338C237.089 475.338 242.281 477.862 246.22 482.911C250.123 487.96 252.074 494.602 252.074 502.838C252.074 511.432 250.248 518.181 246.596 523.087C242.943 527.993 237.769 530.445 231.073 530.445C226.597 530.445 222.623 529.264 219.149 526.9C215.676 524.501 212.615 520.67 209.965 515.406C207.136 519.882 204.11 523.105 200.888 525.074C197.665 527.044 194.138 528.028 190.307 528.028C184.685 528.028 180.137 525.701 176.664 521.046C173.191 516.391 171.454 510.322 171.454 502.838ZM230.106 515.084C233.186 515.084 235.585 514.01 237.304 511.861C239.022 509.713 239.882 506.777 239.882 503.053C239.882 498.935 239.005 495.855 237.25 493.814C235.46 491.773 233.114 490.753 230.214 490.753C227.815 490.753 225.577 491.773 223.5 493.814C221.387 495.82 219.149 499.096 216.786 503.644C220.295 511.271 224.735 515.084 230.106 515.084ZM183.593 502.945C183.593 505.774 184.327 508.066 185.795 509.82C187.227 511.539 189.161 512.398 191.596 512.398C193.744 512.398 195.678 511.718 197.396 510.357C199.079 508.961 200.816 506.454 202.606 502.838C200.959 499.329 199.276 496.876 197.558 495.479C195.839 494.083 193.852 493.385 191.596 493.385C189.125 493.385 187.173 494.28 185.741 496.07C184.309 497.861 183.593 500.152 183.593 502.945ZM251 432.996L239.23 432.996L239.23 441.796L228.56 441.796L228.56 432.996L219.98 432.996L219.98 441.796L206.34 441.796L206.34 432.996L172.46 432.996L172.46 407.916C172.46 397.796 174.513 390.426 178.62 385.806C182.727 381.113 188.373 378.766 195.56 378.766C199.813 378.766 203.81 379.72 207.55 381.626C211.29 383.533 214.297 386.723 216.57 391.196C218.843 395.596 219.98 401.61 219.98 409.236L219.98 416.386L228.56 416.386L228.56 399.446L239.23 399.446L239.23 416.386L251 416.386L251 432.996ZM206.34 410.886C206.34 406.193 205.533 402.49 203.92 399.776C202.307 396.99 199.703 395.596 196.11 395.596C189.437 395.596 186.1 399.996 186.1 408.796L186.1 416.386L206.34 416.386L206.34 410.886Z" fill="#141B32"/>
<path d="M833.038 851.765C837.944 851.765 842.115 853.251 845.553 856.223C848.99 859.195 851.354 863.366 852.643 868.737L852.965 868.737C853.753 862.399 855.686 857.601 858.766 854.343C861.809 851.084 865.927 849.455 871.119 849.455C878.674 849.455 884.565 852.194 888.79 857.673C892.979 863.151 895.074 870.975 895.074 881.145C895.074 889.667 893.66 897.222 890.831 903.811L876.705 903.811C878.245 900.767 879.498 897.419 880.465 893.767C881.432 890.114 881.915 886.498 881.915 882.917C881.915 877.438 880.984 873.392 879.122 870.778C877.26 868.164 874.27 866.857 870.152 866.857C866.464 866.857 863.85 868.361 862.311 871.369C860.771 874.377 860.001 879.175 860.001 885.764L860.001 891.726L847.271 891.726L847.271 885.656C847.271 879.569 846.484 875.129 844.908 872.336C843.297 869.507 840.558 868.093 836.69 868.093C830.746 868.093 827.774 871.817 827.774 879.265C827.774 881.843 828.204 884.475 829.063 887.16C829.923 889.81 831.409 892.764 833.521 896.022L822.081 903.703C816.925 896.542 814.347 888.002 814.347 878.083C814.347 869.955 815.994 863.545 819.288 858.854C822.582 854.128 827.166 851.765 833.038 851.765ZM860.646 841.291C845.105 841.291 833.539 838.015 825.948 831.462C818.357 824.873 814.562 815.026 814.562 801.921C814.562 797.445 814.83 793.936 815.367 791.394L828.634 791.394C827.918 794.58 827.56 797.731 827.56 800.847C827.56 806.54 828.419 811.195 830.138 814.812C831.856 818.392 834.399 821.078 837.765 822.868C841.131 824.659 845.911 825.715 852.105 826.037L852.105 825.339C846.018 821.794 842.975 816.118 842.975 808.312C842.975 801.294 845.177 795.798 849.581 791.823C853.985 787.849 860.073 785.861 867.843 785.861C876.222 785.861 882.864 788.225 887.77 792.951C892.639 797.678 895.074 804.23 895.074 812.609C895.074 818.41 893.731 823.477 891.046 827.81C888.36 832.106 884.439 835.437 879.283 837.8C874.127 840.127 867.914 841.291 860.646 841.291ZM881.808 812.932C881.808 809.387 880.626 806.665 878.263 804.768C875.864 802.87 872.462 801.921 868.058 801.921C864.226 801.921 861.218 802.816 859.034 804.606C856.814 806.361 855.704 809.029 855.704 812.609C855.704 815.975 856.796 818.858 858.98 821.257C861.165 823.62 863.707 824.802 866.607 824.802C870.868 824.802 874.467 823.692 877.403 821.472C880.34 819.216 881.808 816.369 881.808 812.932ZM877.726 692.673L877.726 702.126L894 702.126L894 718.347L877.726 718.347L877.726 751.862L866.178 751.862L815.475 717.434L815.475 702.126L864.835 702.126L864.835 692.673L877.726 692.673ZM864.835 718.347L851.515 718.347C849.295 718.347 846.072 718.257 841.847 718.078C837.621 717.899 835.169 717.756 834.488 717.648L834.488 718.078C837.424 719.403 840.289 720.996 843.082 722.858L864.835 737.253L864.835 718.347ZM848.99 631.926C864.459 631.926 876.007 635.184 883.634 641.701C891.261 648.218 895.074 658.083 895.074 671.296C895.074 675.951 894.824 679.478 894.322 681.877L881.002 681.877C881.754 678.869 882.13 675.718 882.13 672.424C882.13 666.874 881.324 662.308 879.713 658.728C878.066 655.147 875.506 652.408 872.032 650.51C868.523 648.612 863.707 647.52 857.584 647.233L857.584 647.878C860.95 649.955 863.313 652.354 864.674 655.075C866.034 657.797 866.715 661.198 866.715 665.28C866.715 672.119 864.531 677.508 860.162 681.447C855.758 685.386 849.653 687.355 841.847 687.355C833.432 687.355 826.79 684.974 821.92 680.212C817.014 675.414 814.562 668.897 814.562 660.661C814.562 654.86 815.922 649.794 818.644 645.461C821.365 641.092 825.322 637.744 830.514 635.417C835.67 633.09 841.829 631.926 848.99 631.926ZM827.882 660.339C827.882 663.776 829.063 666.462 831.427 668.396C833.79 670.329 837.192 671.296 841.632 671.296C845.427 671.296 848.435 670.419 850.655 668.664C852.875 666.91 853.985 664.242 853.985 660.661C853.985 657.295 852.893 654.413 850.709 652.014C848.489 649.615 845.947 648.415 843.082 648.415C838.821 648.415 835.222 649.543 832.286 651.799C829.35 654.019 827.882 656.866 827.882 660.339ZM877.726 566.989L877.726 576.442L894 576.442L894 592.663L877.726 592.663L877.726 626.179L866.178 626.179L815.475 591.75L815.475 576.442L864.835 576.442L864.835 566.989L877.726 566.989ZM864.835 592.663L851.515 592.663C849.295 592.663 846.072 592.574 841.847 592.395C837.621 592.215 835.169 592.072 834.488 591.965L834.488 592.395C837.424 593.719 840.289 595.313 843.082 597.175L864.835 611.569L864.835 592.663ZM882.452 540.563C889.685 542.425 898.261 545.576 908.18 550.017L908.18 561.833C898.655 559.506 889.667 557.697 881.217 556.408L881.217 541.369L882.452 540.563ZM848.99 474.338C864.459 474.338 876.007 477.596 883.634 484.113C891.261 490.63 895.074 500.495 895.074 513.708C895.074 518.363 894.824 521.89 894.322 524.289L881.002 524.289C881.754 521.281 882.13 518.13 882.13 514.836C882.13 509.286 881.324 504.72 879.713 501.14C878.066 497.559 875.506 494.82 872.032 492.922C868.523 491.024 863.707 489.932 857.584 489.646L857.584 490.29C860.95 492.367 863.313 494.766 864.674 497.487C866.034 500.209 866.715 503.61 866.715 507.692C866.715 514.532 864.531 519.921 860.162 523.859C855.758 527.798 849.653 529.768 841.847 529.768C833.432 529.768 826.79 527.386 821.92 522.624C817.014 517.826 814.562 511.309 814.562 503.073C814.562 497.272 815.922 492.206 818.644 487.873C821.365 483.505 825.322 480.157 830.514 477.829C835.67 475.502 841.829 474.338 848.99 474.338ZM827.882 502.751C827.882 506.188 829.063 508.874 831.427 510.808C833.79 512.741 837.192 513.708 841.632 513.708C845.427 513.708 848.435 512.831 850.655 511.076C852.875 509.322 853.985 506.654 853.985 503.073C853.985 499.707 852.893 496.825 850.709 494.426C848.489 492.027 845.947 490.827 843.082 490.827C838.821 490.827 835.222 491.955 832.286 494.211C829.35 496.431 827.882 499.278 827.882 502.751ZM894 431.996L882.23 431.996L882.23 440.796L871.56 440.796L871.56 431.996L862.98 431.996L862.98 440.796L849.34 440.796L849.34 431.996L815.46 431.996L815.46 406.916C815.46 396.796 817.513 389.426 821.62 384.806C825.727 380.113 831.373 377.766 838.56 377.766C842.813 377.766 846.81 378.72 850.55 380.626C854.29 382.533 857.297 385.723 859.57 390.196C861.843 394.596 862.98 400.61 862.98 408.236L862.98 415.386L871.56 415.386L871.56 398.446L882.23 398.446L882.23 415.386L894 415.386L894 431.996ZM849.34 409.886C849.34 405.193 848.533 401.49 846.92 398.776C845.307 395.99 842.703 394.596 839.11 394.596C832.437 394.596 829.1 398.996 829.1 407.796L829.1 415.386L849.34 415.386L849.34 409.886Z" fill="#141B32"/>
<path d="M1480.04 853.765C1484.94 853.765 1489.12 855.251 1492.55 858.223C1495.99 861.195 1498.35 865.366 1499.64 870.737L1499.96 870.737C1500.75 864.399 1502.69 859.601 1505.77 856.343C1508.81 853.084 1512.93 851.455 1518.12 851.455C1525.67 851.455 1531.56 854.194 1535.79 859.673C1539.98 865.151 1542.07 872.975 1542.07 883.145C1542.07 891.667 1540.66 899.222 1537.83 905.811L1523.71 905.811C1525.24 902.767 1526.5 899.419 1527.46 895.767C1528.43 892.114 1528.92 888.498 1528.92 884.917C1528.92 879.438 1527.98 875.392 1526.12 872.778C1524.26 870.164 1521.27 868.857 1517.15 868.857C1513.46 868.857 1510.85 870.361 1509.31 873.369C1507.77 876.377 1507 881.175 1507 887.764L1507 893.726L1494.27 893.726L1494.27 887.656C1494.27 881.569 1493.48 877.129 1491.91 874.336C1490.3 871.507 1487.56 870.093 1483.69 870.093C1477.75 870.093 1474.77 873.817 1474.77 881.265C1474.77 883.843 1475.2 886.475 1476.06 889.16C1476.92 891.81 1478.41 894.764 1480.52 898.022L1469.08 905.703C1463.92 898.542 1461.35 890.002 1461.35 880.083C1461.35 871.955 1462.99 865.545 1466.29 860.854C1469.58 856.128 1474.17 853.765 1480.04 853.765ZM1461.45 815.684C1461.45 808.164 1463.17 802.113 1466.61 797.529C1470.01 792.91 1474.61 790.601 1480.41 790.601C1484.42 790.601 1488.01 791.711 1491.16 793.931C1494.27 796.151 1497.06 799.731 1499.54 804.673C1502.69 798.8 1505.98 794.593 1509.42 792.051C1512.82 789.473 1516.56 788.184 1520.64 788.184C1527.09 788.184 1532.28 790.708 1536.22 795.757C1540.12 800.806 1542.07 807.448 1542.07 815.684C1542.07 824.277 1540.25 831.027 1536.6 835.933C1532.94 840.838 1527.77 843.291 1521.07 843.291C1516.6 843.291 1512.62 842.109 1509.15 839.746C1505.68 837.347 1502.61 833.516 1499.96 828.252C1497.14 832.728 1494.11 835.951 1490.89 837.92C1487.67 839.889 1484.14 840.874 1480.31 840.874C1474.68 840.874 1470.14 838.547 1466.66 833.892C1463.19 829.237 1461.45 823.167 1461.45 815.684ZM1520.11 827.93C1523.19 827.93 1525.58 826.855 1527.3 824.707C1529.02 822.559 1529.88 819.622 1529.88 815.898C1529.88 811.781 1529 808.701 1527.25 806.66C1525.46 804.619 1523.11 803.599 1520.21 803.599C1517.81 803.599 1515.58 804.619 1513.5 806.66C1511.39 808.665 1509.15 811.942 1506.79 816.489C1510.3 824.116 1514.74 827.93 1520.11 827.93ZM1473.59 815.791C1473.59 818.62 1474.33 820.911 1475.79 822.666C1477.23 824.385 1479.16 825.244 1481.6 825.244C1483.74 825.244 1485.68 824.564 1487.4 823.203C1489.08 821.807 1490.82 819.3 1492.61 815.684C1490.96 812.174 1489.28 809.722 1487.56 808.325C1485.84 806.929 1483.85 806.23 1481.6 806.23C1479.12 806.23 1477.17 807.126 1475.74 808.916C1474.31 810.706 1473.59 812.998 1473.59 815.791ZM1541 743.55L1476.55 714.062L1476.55 752.788L1462.58 752.788L1462.58 696.445L1473 696.445L1541 726.147L1541 743.55ZM1501.74 634.033C1515.45 634.033 1525.6 636.289 1532.19 640.801C1538.78 645.277 1542.07 652.187 1542.07 661.533C1542.07 670.592 1538.67 677.432 1531.87 682.051C1525.07 686.634 1515.02 688.926 1501.74 688.926C1487.88 688.926 1477.67 686.688 1471.12 682.212C1464.53 677.736 1461.24 670.843 1461.24 661.533C1461.24 652.474 1464.68 645.635 1471.55 641.016C1478.43 636.361 1488.49 634.033 1501.74 634.033ZM1501.74 672.437C1511.37 672.437 1518.28 671.613 1522.47 669.966C1526.62 668.283 1528.7 665.472 1528.7 661.533C1528.7 657.666 1526.59 654.873 1522.36 653.154C1518.14 651.436 1511.26 650.576 1501.74 650.576C1492.11 650.576 1485.19 651.453 1481 653.208C1476.78 654.927 1474.67 657.702 1474.67 661.533C1474.67 665.436 1476.78 668.229 1481 669.912C1485.19 671.595 1492.11 672.437 1501.74 672.437ZM1507.65 626.191C1492.11 626.191 1480.54 622.915 1472.95 616.362C1465.36 609.774 1461.56 599.927 1461.56 586.821C1461.56 582.345 1461.83 578.836 1462.37 576.294L1475.63 576.294C1474.92 579.481 1474.56 582.632 1474.56 585.747C1474.56 591.44 1475.42 596.095 1477.14 599.712C1478.86 603.293 1481.4 605.978 1484.76 607.769C1488.13 609.559 1492.91 610.615 1499.11 610.937L1499.11 610.239C1493.02 606.694 1489.97 601.019 1489.97 593.213C1489.97 586.195 1492.18 580.698 1496.58 576.724C1500.99 572.749 1507.07 570.762 1514.84 570.762C1523.22 570.762 1529.86 573.125 1534.77 577.852C1539.64 582.578 1542.07 589.131 1542.07 597.51C1542.07 603.311 1540.73 608.377 1538.05 612.71C1535.36 617.007 1531.44 620.337 1526.28 622.7C1521.13 625.028 1514.91 626.191 1507.65 626.191ZM1528.81 597.832C1528.81 594.287 1527.63 591.566 1525.26 589.668C1522.86 587.77 1519.46 586.821 1515.06 586.821C1511.23 586.821 1508.22 587.716 1506.03 589.507C1503.81 591.261 1502.7 593.929 1502.7 597.51C1502.7 600.876 1503.8 603.758 1505.98 606.157C1508.16 608.521 1510.71 609.702 1513.61 609.702C1517.87 609.702 1521.47 608.592 1524.4 606.372C1527.34 604.116 1528.81 601.27 1528.81 597.832ZM1529.45 542.563C1536.69 544.425 1545.26 547.576 1555.18 552.017L1555.18 563.833C1545.65 561.506 1536.67 559.697 1528.22 558.408L1528.22 543.369L1529.45 542.563ZM1480.04 479.077C1484.94 479.077 1489.12 480.563 1492.55 483.535C1495.99 486.507 1498.35 490.679 1499.64 496.05L1499.96 496.05C1500.75 489.712 1502.69 484.914 1505.77 481.655C1508.81 478.397 1512.93 476.768 1518.12 476.768C1525.67 476.768 1531.56 479.507 1535.79 484.985C1539.98 490.464 1542.07 498.288 1542.07 508.457C1542.07 516.979 1540.66 524.535 1537.83 531.123L1523.71 531.123C1525.24 528.079 1526.5 524.731 1527.46 521.079C1528.43 517.427 1528.92 513.81 1528.92 510.229C1528.92 504.751 1527.98 500.705 1526.12 498.091C1524.26 495.477 1521.27 494.17 1517.15 494.17C1513.46 494.17 1510.85 495.674 1509.31 498.682C1507.77 501.689 1507 506.488 1507 513.076L1507 519.038L1494.27 519.038L1494.27 512.969C1494.27 506.882 1493.48 502.441 1491.91 499.648C1490.3 496.82 1487.56 495.405 1483.69 495.405C1477.75 495.405 1474.77 499.129 1474.77 506.577C1474.77 509.155 1475.2 511.787 1476.06 514.473C1476.92 517.122 1478.41 520.076 1480.52 523.335L1469.08 531.016C1463.92 523.854 1461.35 515.314 1461.35 505.396C1461.35 497.267 1462.99 490.858 1466.29 486.167C1469.58 481.44 1474.17 479.077 1480.04 479.077ZM1541 433.996L1529.23 433.996L1529.23 442.796L1518.56 442.796L1518.56 433.996L1509.98 433.996L1509.98 442.796L1496.34 442.796L1496.34 433.996L1462.46 433.996L1462.46 408.916C1462.46 398.796 1464.51 391.426 1468.62 386.806C1472.73 382.113 1478.37 379.766 1485.56 379.766C1489.81 379.766 1493.81 380.72 1497.55 382.626C1501.29 384.533 1504.3 387.723 1506.57 392.196C1508.84 396.596 1509.98 402.61 1509.98 410.236L1509.98 417.386L1518.56 417.386L1518.56 400.446L1529.23 400.446L1529.23 417.386L1541 417.386L1541 433.996ZM1496.34 411.886C1496.34 407.193 1495.53 403.49 1493.92 400.776C1492.31 397.99 1489.7 396.596 1486.11 396.596C1479.44 396.596 1476.1 400.996 1476.1 409.796L1476.1 417.386L1496.34 417.386L1496.34 411.886Z" fill="#141B32"/>
<line y1="948" x2="1905" y2="948" stroke="#6A7186" stroke-width="4"/>
</svg>
