<svg width="1927" height="988" viewBox="0 0 1927 988" fill="none" xmlns="http://www.w3.org/2000/svg">
<rect x="615" width="645" height="988" fill="#C4C4C4" fill-opacity="0.05"/>
<path d="M26.9531 74H2.00195V68.751L10.9619 59.6934C13.6149 56.9753 15.3483 55.0954 16.1621 54.0537C16.9759 52.9958 17.5618 52.0192 17.9199 51.124C18.278 50.2288 18.457 49.3011 18.457 48.3408C18.457 46.9085 18.0583 45.8424 17.2607 45.1426C16.4795 44.4427 15.4297 44.0928 14.1113 44.0928C12.7279 44.0928 11.3851 44.4102 10.083 45.0449C8.78092 45.6797 7.42188 46.583 6.00586 47.7549L1.9043 42.8965C3.66211 41.3991 5.11882 40.3411 6.27441 39.7227C7.43001 39.1042 8.69141 38.6322 10.0586 38.3066C11.4258 37.9648 12.9557 37.7939 14.6484 37.7939C16.8783 37.7939 18.8477 38.2008 20.5566 39.0146C22.2656 39.8285 23.5921 40.9678 24.5361 42.4326C25.4801 43.8975 25.9521 45.5739 25.9521 47.4619C25.9521 49.1058 25.6592 50.652 25.0732 52.1006C24.5036 53.5329 23.6084 55.0059 22.3877 56.5195C21.1833 58.0332 19.0511 60.1898 15.9912 62.9893L11.4014 67.3105V67.6523H26.9531V74ZM55.3223 56.1533C55.3223 62.387 54.2969 67.0013 52.2461 69.9961C50.2116 72.9909 47.0703 74.4883 42.8223 74.4883C38.7044 74.4883 35.5957 72.9421 33.4961 69.8496C31.4128 66.7572 30.3711 62.1917 30.3711 56.1533C30.3711 49.8545 31.3883 45.2158 33.4229 42.2373C35.4574 39.2425 38.5905 37.7451 42.8223 37.7451C46.9401 37.7451 50.0488 39.3076 52.1484 42.4326C54.2643 45.5576 55.3223 50.1312 55.3223 56.1533ZM37.8662 56.1533C37.8662 60.5316 38.2406 63.6729 38.9893 65.5771C39.7542 67.4652 41.0319 68.4092 42.8223 68.4092C44.5801 68.4092 45.8496 67.4489 46.6309 65.5283C47.4121 63.6077 47.8027 60.4827 47.8027 56.1533C47.8027 51.7751 47.404 48.6338 46.6064 46.7295C45.8252 44.8089 44.5638 43.8486 42.8223 43.8486C41.0482 43.8486 39.7786 44.8089 39.0137 46.7295C38.2487 48.6338 37.8662 51.7751 37.8662 56.1533ZM77.7832 74H70.2393V53.3457L70.3125 49.9521L70.4346 46.2412C69.1813 47.4945 68.3105 48.3164 67.8223 48.707L63.7207 52.0029L60.083 47.4619L71.582 38.3066H77.7832V74ZM100 37.8428C103.418 37.8428 106.169 38.624 108.252 40.1865C110.352 41.7327 111.401 43.8242 111.401 46.4609C111.401 48.2839 110.897 49.9115 109.888 51.3438C108.879 52.7598 107.251 54.0293 105.005 55.1523C107.674 56.5846 109.587 58.082 110.742 59.6445C111.914 61.1908 112.5 62.8916 112.5 64.7471C112.5 67.6768 111.353 70.0368 109.058 71.8271C106.763 73.6012 103.743 74.4883 100 74.4883C96.0938 74.4883 93.0257 73.6582 90.7959 71.998C88.5661 70.3379 87.4512 67.986 87.4512 64.9424C87.4512 62.9079 87.9883 61.1012 89.0625 59.5225C90.153 57.9437 91.8945 56.5521 94.2871 55.3477C92.2526 54.0618 90.7878 52.6865 89.8926 51.2217C88.9974 49.7568 88.5498 48.1536 88.5498 46.4121C88.5498 43.8568 89.6077 41.7897 91.7236 40.2109C93.8395 38.6322 96.5983 37.8428 100 37.8428ZM94.4336 64.5029C94.4336 65.9027 94.9219 66.9932 95.8984 67.7744C96.875 68.5557 98.2096 68.9463 99.9023 68.9463C101.774 68.9463 103.174 68.5475 104.102 67.75C105.029 66.9362 105.493 65.8701 105.493 64.5518C105.493 63.4613 105.029 62.444 104.102 61.5C103.19 60.5397 101.701 59.5225 99.6338 58.4482C96.167 60.0433 94.4336 62.0615 94.4336 64.5029ZM99.9512 43.3604C98.6654 43.3604 97.6237 43.694 96.8262 44.3613C96.0449 45.0124 95.6543 45.8913 95.6543 46.998C95.6543 47.9746 95.9635 48.8535 96.582 49.6348C97.2168 50.3997 98.3561 51.1891 100 52.0029C101.595 51.2542 102.71 50.4893 103.345 49.708C103.979 48.9268 104.297 48.0234 104.297 46.998C104.297 45.875 103.89 44.988 103.076 44.3369C102.262 43.6859 101.221 43.3604 99.9512 43.3604Z" fill="white"/>
<path d="M671.953 74H647.002V68.751L655.962 59.6934C658.615 56.9753 660.348 55.0954 661.162 54.0537C661.976 52.9958 662.562 52.0192 662.92 51.124C663.278 50.2288 663.457 49.3011 663.457 48.3408C663.457 46.9085 663.058 45.8424 662.261 45.1426C661.479 44.4427 660.43 44.0928 659.111 44.0928C657.728 44.0928 656.385 44.4102 655.083 45.0449C653.781 45.6797 652.422 46.583 651.006 47.7549L646.904 42.8965C648.662 41.3991 650.119 40.3411 651.274 39.7227C652.43 39.1042 653.691 38.6322 655.059 38.3066C656.426 37.9648 657.956 37.7939 659.648 37.7939C661.878 37.7939 663.848 38.2008 665.557 39.0146C667.266 39.8285 668.592 40.9678 669.536 42.4326C670.48 43.8975 670.952 45.5739 670.952 47.4619C670.952 49.1058 670.659 50.652 670.073 52.1006C669.504 53.5329 668.608 55.0059 667.388 56.5195C666.183 58.0332 664.051 60.1898 660.991 62.9893L656.401 67.3105V67.6523H671.953V74ZM700.322 56.1533C700.322 62.387 699.297 67.0013 697.246 69.9961C695.212 72.9909 692.07 74.4883 687.822 74.4883C683.704 74.4883 680.596 72.9421 678.496 69.8496C676.413 66.7572 675.371 62.1917 675.371 56.1533C675.371 49.8545 676.388 45.2158 678.423 42.2373C680.457 39.2425 683.59 37.7451 687.822 37.7451C691.94 37.7451 695.049 39.3076 697.148 42.4326C699.264 45.5576 700.322 50.1312 700.322 56.1533ZM682.866 56.1533C682.866 60.5316 683.241 63.6729 683.989 65.5771C684.754 67.4652 686.032 68.4092 687.822 68.4092C689.58 68.4092 690.85 67.4489 691.631 65.5283C692.412 63.6077 692.803 60.4827 692.803 56.1533C692.803 51.7751 692.404 48.6338 691.606 46.7295C690.825 44.8089 689.564 43.8486 687.822 43.8486C686.048 43.8486 684.779 44.8089 684.014 46.7295C683.249 48.6338 682.866 51.7751 682.866 56.1533ZM722.783 74H715.239V53.3457L715.312 49.9521L715.435 46.2412C714.181 47.4945 713.311 48.3164 712.822 48.707L708.721 52.0029L705.083 47.4619L716.582 38.3066H722.783V74ZM757.5 53.541C757.5 60.5723 756.019 65.8213 753.057 69.2881C750.094 72.7549 745.61 74.4883 739.604 74.4883C737.489 74.4883 735.885 74.3743 734.795 74.1465V68.0918C736.162 68.4336 737.594 68.6045 739.092 68.6045C741.615 68.6045 743.69 68.2383 745.317 67.5059C746.945 66.7572 748.19 65.5934 749.053 64.0146C749.915 62.4196 750.412 60.2305 750.542 57.4473H750.249C749.305 58.9772 748.215 60.0514 746.978 60.6699C745.741 61.2884 744.194 61.5977 742.339 61.5977C739.23 61.5977 736.781 60.6048 734.99 58.6191C733.2 56.6172 732.305 53.8421 732.305 50.2939C732.305 46.4691 733.387 43.4499 735.552 41.2363C737.733 39.0065 740.695 37.8916 744.438 37.8916C747.075 37.8916 749.378 38.5101 751.348 39.7471C753.333 40.984 754.855 42.7826 755.913 45.1426C756.971 47.4863 757.5 50.2858 757.5 53.541ZM744.585 43.9463C743.022 43.9463 741.802 44.4834 740.923 45.5576C740.044 46.6318 739.604 48.1781 739.604 50.1963C739.604 51.9215 740.003 53.2887 740.801 54.2979C741.598 55.307 742.811 55.8115 744.438 55.8115C745.968 55.8115 747.279 55.3151 748.369 54.3223C749.46 53.3132 750.005 52.1576 750.005 50.8555C750.005 48.9186 749.492 47.2829 748.467 45.9482C747.458 44.6136 746.164 43.9463 744.585 43.9463Z" fill="white"/>
<path d="M1316.95 74H1292V68.751L1300.96 59.6934C1303.61 56.9753 1305.35 55.0954 1306.16 54.0537C1306.98 52.9958 1307.56 52.0192 1307.92 51.124C1308.28 50.2288 1308.46 49.3011 1308.46 48.3408C1308.46 46.9085 1308.06 45.8424 1307.26 45.1426C1306.48 44.4427 1305.43 44.0928 1304.11 44.0928C1302.73 44.0928 1301.39 44.4102 1300.08 45.0449C1298.78 45.6797 1297.42 46.583 1296.01 47.7549L1291.9 42.8965C1293.66 41.3991 1295.12 40.3411 1296.27 39.7227C1297.43 39.1042 1298.69 38.6322 1300.06 38.3066C1301.43 37.9648 1302.96 37.7939 1304.65 37.7939C1306.88 37.7939 1308.85 38.2008 1310.56 39.0146C1312.27 39.8285 1313.59 40.9678 1314.54 42.4326C1315.48 43.8975 1315.95 45.5739 1315.95 47.4619C1315.95 49.1058 1315.66 50.652 1315.07 52.1006C1314.5 53.5329 1313.61 55.0059 1312.39 56.5195C1311.18 58.0332 1309.05 60.1898 1305.99 62.9893L1301.4 67.3105V67.6523H1316.95V74ZM1345.32 56.1533C1345.32 62.387 1344.3 67.0013 1342.25 69.9961C1340.21 72.9909 1337.07 74.4883 1332.82 74.4883C1328.7 74.4883 1325.6 72.9421 1323.5 69.8496C1321.41 66.7572 1320.37 62.1917 1320.37 56.1533C1320.37 49.8545 1321.39 45.2158 1323.42 42.2373C1325.46 39.2425 1328.59 37.7451 1332.82 37.7451C1336.94 37.7451 1340.05 39.3076 1342.15 42.4326C1344.26 45.5576 1345.32 50.1312 1345.32 56.1533ZM1327.87 56.1533C1327.87 60.5316 1328.24 63.6729 1328.99 65.5771C1329.75 67.4652 1331.03 68.4092 1332.82 68.4092C1334.58 68.4092 1335.85 67.4489 1336.63 65.5283C1337.41 63.6077 1337.8 60.4827 1337.8 56.1533C1337.8 51.7751 1337.4 48.6338 1336.61 46.7295C1335.83 44.8089 1334.56 43.8486 1332.82 43.8486C1331.05 43.8486 1329.78 44.8089 1329.01 46.7295C1328.25 48.6338 1327.87 51.7751 1327.87 56.1533ZM1374.08 74H1349.13V68.751L1358.09 59.6934C1360.74 56.9753 1362.48 55.0954 1363.29 54.0537C1364.1 52.9958 1364.69 52.0192 1365.05 51.124C1365.41 50.2288 1365.59 49.3011 1365.59 48.3408C1365.59 46.9085 1365.19 45.8424 1364.39 45.1426C1363.61 44.4427 1362.56 44.0928 1361.24 44.0928C1359.86 44.0928 1358.51 44.4102 1357.21 45.0449C1355.91 45.6797 1354.55 46.583 1353.13 47.7549L1349.03 42.8965C1350.79 41.3991 1352.25 40.3411 1353.4 39.7227C1354.56 39.1042 1355.82 38.6322 1357.19 38.3066C1358.55 37.9648 1360.08 37.7939 1361.78 37.7939C1364.01 37.7939 1365.98 38.2008 1367.69 39.0146C1369.39 39.8285 1370.72 40.9678 1371.67 42.4326C1372.61 43.8975 1373.08 45.5739 1373.08 47.4619C1373.08 49.1058 1372.79 50.652 1372.2 52.1006C1371.63 53.5329 1370.74 55.0059 1369.52 56.5195C1368.31 58.0332 1366.18 60.1898 1363.12 62.9893L1358.53 67.3105V67.6523H1374.08V74ZM1402.45 56.1533C1402.45 62.387 1401.43 67.0013 1399.38 69.9961C1397.34 72.9909 1394.2 74.4883 1389.95 74.4883C1385.83 74.4883 1382.72 72.9421 1380.62 69.8496C1378.54 66.7572 1377.5 62.1917 1377.5 56.1533C1377.5 49.8545 1378.52 45.2158 1380.55 42.2373C1382.59 39.2425 1385.72 37.7451 1389.95 37.7451C1394.07 37.7451 1397.18 39.3076 1399.28 42.4326C1401.39 45.5576 1402.45 50.1312 1402.45 56.1533ZM1385 56.1533C1385 60.5316 1385.37 63.6729 1386.12 65.5771C1386.88 67.4652 1388.16 68.4092 1389.95 68.4092C1391.71 68.4092 1392.98 67.4489 1393.76 65.5283C1394.54 63.6077 1394.93 60.4827 1394.93 56.1533C1394.93 51.7751 1394.53 48.6338 1393.74 46.7295C1392.95 44.8089 1391.69 43.8486 1389.95 43.8486C1388.18 43.8486 1386.91 44.8089 1386.14 46.7295C1385.38 48.6338 1385 51.7751 1385 56.1533Z" fill="white"/>
<path d="M45.4395 299H28.8428V253.561L29.0039 246.095L29.2725 237.931C26.5153 240.688 24.5996 242.496 23.5254 243.355L14.502 250.606L6.49902 240.616L31.7969 220.475H45.4395V299ZM121.709 259.737C121.709 273.451 119.453 283.603 114.941 290.191C110.465 296.78 103.555 300.074 94.209 300.074C85.1497 300.074 78.3105 296.673 73.6914 289.869C69.1081 283.066 66.8164 273.022 66.8164 259.737C66.8164 245.88 69.0544 235.675 73.5303 229.122C78.0062 222.534 84.8991 219.239 94.209 219.239C103.268 219.239 110.107 222.677 114.727 229.552C119.382 236.427 121.709 246.489 121.709 259.737ZM83.3057 259.737C83.3057 269.369 84.1292 276.28 85.7764 280.47C87.4593 284.623 90.2702 286.7 94.209 286.7C98.0762 286.7 100.869 284.588 102.588 280.362C104.307 276.137 105.166 269.262 105.166 259.737C105.166 250.105 104.289 243.194 102.534 239.005C100.815 234.78 98.0404 232.667 94.209 232.667C90.306 232.667 87.513 234.78 85.8301 239.005C84.1471 243.194 83.3057 250.105 83.3057 259.737ZM157.158 219.454C164.678 219.454 170.729 221.173 175.312 224.61C179.932 228.012 182.241 232.613 182.241 238.414C182.241 242.424 181.131 246.005 178.911 249.156C176.691 252.271 173.11 255.064 168.169 257.535C174.041 260.686 178.249 263.98 180.791 267.418C183.369 270.82 184.658 274.562 184.658 278.644C184.658 285.089 182.134 290.281 177.085 294.22C172.036 298.123 165.394 300.074 157.158 300.074C148.564 300.074 141.815 298.248 136.909 294.596C132.004 290.943 129.551 285.769 129.551 279.073C129.551 274.597 130.732 270.623 133.096 267.149C135.495 263.676 139.326 260.615 144.59 257.965C140.114 255.136 136.891 252.11 134.922 248.888C132.952 245.665 131.968 242.138 131.968 238.307C131.968 232.685 134.295 228.137 138.95 224.664C143.605 221.191 149.674 219.454 157.158 219.454ZM144.912 278.106C144.912 281.186 145.986 283.585 148.135 285.304C150.283 287.022 153.219 287.882 156.943 287.882C161.061 287.882 164.141 287.005 166.182 285.25C168.223 283.46 169.243 281.114 169.243 278.214C169.243 275.815 168.223 273.577 166.182 271.5C164.176 269.387 160.9 267.149 156.353 264.786C148.726 268.295 144.912 272.735 144.912 278.106ZM157.051 231.593C154.222 231.593 151.93 232.327 150.176 233.795C148.457 235.227 147.598 237.161 147.598 239.596C147.598 241.744 148.278 243.678 149.639 245.396C151.035 247.079 153.542 248.816 157.158 250.606C160.667 248.959 163.12 247.276 164.517 245.558C165.913 243.839 166.611 241.852 166.611 239.596C166.611 237.125 165.716 235.174 163.926 233.741C162.135 232.309 159.844 231.593 157.051 231.593ZM213.179 287.452C211.317 294.685 208.166 303.261 203.726 313.18H191.909C194.237 303.655 196.045 294.667 197.334 286.217H212.373L213.179 287.452ZM232.622 299L262.109 234.547H223.384V220.582H279.727V231.002L250.024 299H232.622ZM300.19 244C300.19 248.548 300.584 251.949 301.372 254.205C302.196 256.425 303.503 257.535 305.293 257.535C308.73 257.535 310.449 253.023 310.449 244C310.449 235.048 308.73 230.572 305.293 230.572C303.503 230.572 302.196 231.682 301.372 233.902C300.584 236.087 300.19 239.452 300.19 244ZM323.984 243.893C323.984 252.128 322.391 258.323 319.204 262.477C316.017 266.594 311.344 268.653 305.186 268.653C299.277 268.653 294.712 266.541 291.489 262.315C288.267 258.054 286.655 251.913 286.655 243.893C286.655 227.529 292.832 219.347 305.186 219.347C311.237 219.347 315.874 221.477 319.097 225.738C322.355 229.964 323.984 236.015 323.984 243.893ZM360.938 220.475L317.378 299H304.487L348.047 220.475H360.938ZM355.19 275.367C355.19 279.915 355.584 283.316 356.372 285.572C357.196 287.792 358.503 288.902 360.293 288.902C363.73 288.902 365.449 284.391 365.449 275.367C365.449 266.415 363.73 261.939 360.293 261.939C358.503 261.939 357.196 263.049 356.372 265.27C355.584 267.454 355.19 270.82 355.19 275.367ZM378.984 275.26C378.984 283.46 377.391 289.636 374.204 293.79C371.017 297.908 366.344 299.967 360.186 299.967C354.277 299.967 349.712 297.854 346.489 293.629C343.267 289.368 341.655 283.245 341.655 275.26C341.655 258.896 347.832 250.714 360.186 250.714C366.237 250.714 370.874 252.844 374.097 257.105C377.355 261.331 378.984 267.382 378.984 275.26Z" fill="#FF0000"/>
<path d="M656.509 189H654.32V174.551H666.449V189H664.234V176.449H656.509V189ZM681.861 189H679.646V176.423H675.309C675.071 179.552 674.742 182.035 674.32 183.872C673.898 185.708 673.349 187.053 672.672 187.906C672.004 188.758 671.151 189.185 670.114 189.185C669.64 189.185 669.262 189.132 668.98 189.026V187.405C669.174 187.458 669.394 187.484 669.64 187.484C670.65 187.484 671.455 186.416 672.052 184.28C672.65 182.145 673.103 178.901 673.41 174.551H681.861V189ZM695.4 189L694.965 186.943H694.86C694.139 187.849 693.418 188.464 692.698 188.789C691.986 189.105 691.094 189.264 690.021 189.264C688.589 189.264 687.464 188.895 686.646 188.156C685.838 187.418 685.434 186.368 685.434 185.005C685.434 182.087 687.767 180.558 692.434 180.417L694.886 180.338V179.442C694.886 178.308 694.64 177.473 694.148 176.937C693.665 176.392 692.887 176.12 691.814 176.12C690.61 176.12 689.248 176.489 687.728 177.227L687.055 175.553C687.767 175.166 688.545 174.863 689.389 174.643C690.241 174.423 691.094 174.313 691.946 174.313C693.669 174.313 694.943 174.696 695.77 175.46C696.604 176.225 697.022 177.451 697.022 179.139V189H695.4ZM690.457 187.458C691.819 187.458 692.887 187.084 693.66 186.337C694.442 185.59 694.833 184.544 694.833 183.199V181.894L692.645 181.986C690.905 182.048 689.648 182.32 688.875 182.804C688.11 183.278 687.728 184.021 687.728 185.032C687.728 185.823 687.965 186.425 688.439 186.838C688.923 187.251 689.595 187.458 690.457 187.458ZM703.732 174.551V180.602H711.827V174.551H714.016V189H711.827V182.487H703.732V189H701.544V174.551H703.732Z" fill="white"/>
<path d="M1294.51 189H1292.32V174.551H1304.45V189H1302.23V176.449H1294.51V189ZM1319.86 189H1317.65V176.423H1313.31C1313.07 179.552 1312.74 182.035 1312.32 183.872C1311.9 185.708 1311.35 187.053 1310.67 187.906C1310 188.758 1309.15 189.185 1308.11 189.185C1307.64 189.185 1307.26 189.132 1306.98 189.026V187.405C1307.17 187.458 1307.39 187.484 1307.64 187.484C1308.65 187.484 1309.45 186.416 1310.05 184.28C1310.65 182.145 1311.1 178.901 1311.41 174.551H1319.86V189ZM1333.4 189L1332.97 186.943H1332.86C1332.14 187.849 1331.42 188.464 1330.7 188.789C1329.99 189.105 1329.09 189.264 1328.02 189.264C1326.59 189.264 1325.46 188.895 1324.65 188.156C1323.84 187.418 1323.43 186.368 1323.43 185.005C1323.43 182.087 1325.77 180.558 1330.43 180.417L1332.89 180.338V179.442C1332.89 178.308 1332.64 177.473 1332.15 176.937C1331.66 176.392 1330.89 176.12 1329.81 176.12C1328.61 176.12 1327.25 176.489 1325.73 177.227L1325.06 175.553C1325.77 175.166 1326.54 174.863 1327.39 174.643C1328.24 174.423 1329.09 174.313 1329.95 174.313C1331.67 174.313 1332.94 174.696 1333.77 175.46C1334.6 176.225 1335.02 177.451 1335.02 179.139V189H1333.4ZM1328.46 187.458C1329.82 187.458 1330.89 187.084 1331.66 186.337C1332.44 185.59 1332.83 184.544 1332.83 183.199V181.894L1330.65 181.986C1328.9 182.048 1327.65 182.32 1326.87 182.804C1326.11 183.278 1325.73 184.021 1325.73 185.032C1325.73 185.823 1325.96 186.425 1326.44 186.838C1326.92 187.251 1327.6 187.458 1328.46 187.458ZM1341.73 174.551V180.602H1349.83V174.551H1352.02V189H1349.83V182.487H1341.73V189H1339.54V174.551H1341.73Z" fill="white"/>
<path d="M1307.8 368.762C1307.8 370.951 1307.17 372.695 1305.93 373.996C1304.69 375.288 1302.95 376.026 1300.72 376.211V382.486H1298.56V376.211C1296.38 376.044 1294.65 375.297 1293.39 373.97C1292.12 372.643 1291.49 370.907 1291.49 368.762C1291.49 366.574 1292.12 364.833 1293.38 363.542C1294.64 362.25 1296.39 361.516 1298.64 361.34V355.486H1300.72V361.34C1302.92 361.542 1304.66 362.302 1305.91 363.621C1307.17 364.939 1307.8 366.653 1307.8 368.762ZM1293.78 368.762C1293.78 370.45 1294.17 371.772 1294.94 372.73C1295.72 373.688 1296.95 374.247 1298.64 374.405V363.172C1297.01 363.322 1295.79 363.854 1294.98 364.768C1294.18 365.673 1293.78 367.004 1293.78 368.762ZM1305.53 368.762C1305.53 365.396 1303.93 363.542 1300.72 363.199V374.405C1302.39 374.238 1303.61 373.675 1304.37 372.717C1305.14 371.759 1305.53 370.441 1305.53 368.762ZM1320.51 376L1320.07 373.943H1319.97C1319.25 374.849 1318.52 375.464 1317.8 375.789C1317.09 376.105 1316.2 376.264 1315.13 376.264C1313.7 376.264 1312.57 375.895 1311.75 375.156C1310.94 374.418 1310.54 373.368 1310.54 372.005C1310.54 369.087 1312.87 367.558 1317.54 367.417L1319.99 367.338V366.442C1319.99 365.308 1319.75 364.473 1319.25 363.937C1318.77 363.392 1317.99 363.12 1316.92 363.12C1315.72 363.12 1314.35 363.489 1312.83 364.227L1312.16 362.553C1312.87 362.166 1313.65 361.863 1314.5 361.643C1315.35 361.423 1316.2 361.313 1317.05 361.313C1318.78 361.313 1320.05 361.696 1320.88 362.46C1321.71 363.225 1322.13 364.451 1322.13 366.139V376H1320.51ZM1315.56 374.458C1316.93 374.458 1317.99 374.084 1318.77 373.337C1319.55 372.59 1319.94 371.544 1319.94 370.199V368.894L1317.75 368.986C1316.01 369.048 1314.75 369.32 1313.98 369.804C1313.22 370.278 1312.83 371.021 1312.83 372.032C1312.83 372.823 1313.07 373.425 1313.55 373.838C1314.03 374.251 1314.7 374.458 1315.56 374.458ZM1335.07 361.551H1337.47L1331.24 368.525L1337.99 376H1335.43L1328.84 368.683V376H1326.65V361.551H1328.84V368.578L1335.07 361.551ZM1350.42 363.423H1345.73V376H1343.54V363.423H1338.9V361.551H1350.42V363.423Z" fill="white"/>
<path d="M669.798 368.762C669.798 370.951 669.174 372.695 667.926 373.996C666.687 375.288 664.951 376.026 662.718 376.211V382.486H660.556V376.211C658.376 376.044 656.654 375.297 655.388 373.97C654.123 372.643 653.49 370.907 653.49 368.762C653.49 366.574 654.118 364.833 655.375 363.542C656.641 362.25 658.394 361.516 660.635 361.34V355.486H662.718V361.34C664.924 361.542 666.656 362.302 667.913 363.621C669.169 364.939 669.798 366.653 669.798 368.762ZM655.784 368.762C655.784 370.45 656.17 371.772 656.944 372.73C657.717 373.688 658.948 374.247 660.635 374.405V363.172C659.009 363.322 657.792 363.854 656.983 364.768C656.184 365.673 655.784 367.004 655.784 368.762ZM667.53 368.762C667.53 365.396 665.926 363.542 662.718 363.199V374.405C664.388 374.238 665.605 373.675 666.37 372.717C667.144 371.759 667.53 370.441 667.53 368.762ZM682.507 376L682.072 373.943H681.966C681.246 374.849 680.525 375.464 679.804 375.789C679.092 376.105 678.2 376.264 677.128 376.264C675.695 376.264 674.57 375.895 673.753 375.156C672.944 374.418 672.54 373.368 672.54 372.005C672.54 369.087 674.874 367.558 679.541 367.417L681.993 367.338V366.442C681.993 365.308 681.747 364.473 681.254 363.937C680.771 363.392 679.993 363.12 678.921 363.12C677.717 363.12 676.354 363.489 674.834 364.227L674.162 362.553C674.874 362.166 675.651 361.863 676.495 361.643C677.348 361.423 678.2 361.313 679.053 361.313C680.775 361.313 682.05 361.696 682.876 362.46C683.711 363.225 684.128 364.451 684.128 366.139V376H682.507ZM677.563 374.458C678.925 374.458 679.993 374.084 680.767 373.337C681.549 372.59 681.94 371.544 681.94 370.199V368.894L679.751 368.986C678.011 369.048 676.754 369.32 675.981 369.804C675.216 370.278 674.834 371.021 674.834 372.032C674.834 372.823 675.071 373.425 675.546 373.838C676.029 374.251 676.702 374.458 677.563 374.458ZM697.075 361.551H699.474L693.238 368.525L699.988 376H697.431L690.839 368.683V376H688.65V361.551H690.839V368.578L697.075 361.551ZM712.42 363.423H707.727V376H705.539V363.423H700.898V361.551H712.42V363.423Z" fill="white"/>
<path d="M690.439 299H673.843V253.561L674.004 246.095L674.272 237.931C671.515 240.688 669.6 242.496 668.525 243.355L659.502 250.606L651.499 240.616L676.797 220.475H690.439V299ZM753.281 299H736.685V253.561L736.846 246.095L737.114 237.931C734.357 240.688 732.441 242.496 731.367 243.355L722.344 250.606L714.341 240.616L739.639 220.475H753.281V299ZM829.551 259.737C829.551 273.451 827.295 283.603 822.783 290.191C818.307 296.78 811.396 300.074 802.051 300.074C792.992 300.074 786.152 296.673 781.533 289.869C776.95 283.066 774.658 273.022 774.658 259.737C774.658 245.88 776.896 235.675 781.372 229.122C785.848 222.534 792.741 219.239 802.051 219.239C811.11 219.239 817.949 222.677 822.568 229.552C827.223 236.427 829.551 246.489 829.551 259.737ZM791.147 259.737C791.147 269.369 791.971 276.28 793.618 280.47C795.301 284.623 798.112 286.7 802.051 286.7C805.918 286.7 808.711 284.588 810.43 280.362C812.148 276.137 813.008 269.262 813.008 259.737C813.008 250.105 812.131 243.194 810.376 239.005C808.657 234.78 805.882 232.667 802.051 232.667C798.148 232.667 795.355 234.78 793.672 239.005C791.989 243.194 791.147 250.105 791.147 259.737ZM858.179 287.452C856.317 294.685 853.166 303.261 848.726 313.18H836.909C839.237 303.655 841.045 294.667 842.334 286.217H857.373L858.179 287.452ZM926.499 282.726H917.046V299H900.825V282.726H867.31V271.178L901.738 220.475H917.046V269.835H926.499V282.726ZM900.825 269.835V256.515C900.825 254.295 900.915 251.072 901.094 246.847C901.273 242.621 901.416 240.169 901.523 239.488H901.094C899.769 242.424 898.175 245.289 896.313 248.082L881.919 269.835H900.825ZM945.19 244C945.19 248.548 945.584 251.949 946.372 254.205C947.196 256.425 948.503 257.535 950.293 257.535C953.73 257.535 955.449 253.023 955.449 244C955.449 235.048 953.73 230.572 950.293 230.572C948.503 230.572 947.196 231.682 946.372 233.902C945.584 236.087 945.19 239.452 945.19 244ZM968.984 243.893C968.984 252.128 967.391 258.323 964.204 262.477C961.017 266.594 956.344 268.653 950.186 268.653C944.277 268.653 939.712 266.541 936.489 262.315C933.267 258.054 931.655 251.913 931.655 243.893C931.655 227.529 937.832 219.347 950.186 219.347C956.237 219.347 960.874 221.477 964.097 225.738C967.355 229.964 968.984 236.015 968.984 243.893ZM1005.94 220.475L962.378 299H949.487L993.047 220.475H1005.94ZM1000.19 275.367C1000.19 279.915 1000.58 283.316 1001.37 285.572C1002.2 287.792 1003.5 288.902 1005.29 288.902C1008.73 288.902 1010.45 284.391 1010.45 275.367C1010.45 266.415 1008.73 261.939 1005.29 261.939C1003.5 261.939 1002.2 263.049 1001.37 265.27C1000.58 267.454 1000.19 270.82 1000.19 275.367ZM1023.98 275.26C1023.98 283.46 1022.39 289.636 1019.2 293.79C1016.02 297.908 1011.34 299.967 1005.19 299.967C999.277 299.967 994.712 297.854 991.489 293.629C988.267 289.368 986.655 283.245 986.655 275.26C986.655 258.896 992.832 250.714 1005.19 250.714C1011.24 250.714 1015.87 252.844 1019.1 257.105C1022.36 261.331 1023.98 267.382 1023.98 275.26Z" fill="#FF0000"/>
<path d="M690.439 489H673.843V443.561L674.004 436.095L674.272 427.931C671.515 430.688 669.6 432.496 668.525 433.355L659.502 440.606L651.499 430.616L676.797 410.475H690.439V489ZM753.281 489H736.685V443.561L736.846 436.095L737.114 427.931C734.357 430.688 732.441 432.496 731.367 433.355L722.344 440.606L714.341 430.616L739.639 410.475H753.281V489ZM816.123 489H799.526V443.561L799.688 436.095L799.956 427.931C797.199 430.688 795.283 432.496 794.209 433.355L785.186 440.606L777.183 430.616L802.48 410.475H816.123V489ZM858.179 477.452C856.317 484.685 853.166 493.261 848.726 503.18H836.909C839.237 493.655 841.045 484.667 842.334 476.217H857.373L858.179 477.452ZM924.404 443.99C924.404 459.459 921.146 471.007 914.629 478.634C908.112 486.261 898.247 490.074 885.034 490.074C880.379 490.074 876.852 489.824 874.453 489.322V476.002C877.461 476.754 880.612 477.13 883.906 477.13C889.456 477.13 894.022 476.324 897.603 474.713C901.183 473.066 903.923 470.506 905.82 467.032C907.718 463.523 908.81 458.707 909.097 452.584H908.452C906.375 455.95 903.976 458.313 901.255 459.674C898.534 461.035 895.132 461.715 891.05 461.715C884.211 461.715 878.822 459.531 874.883 455.162C870.944 450.758 868.975 444.653 868.975 436.847C868.975 428.432 871.356 421.79 876.118 416.92C880.916 412.014 887.433 409.562 895.669 409.562C901.47 409.562 906.536 410.922 910.869 413.644C915.238 416.365 918.586 420.322 920.913 425.514C923.241 430.67 924.404 436.829 924.404 443.99ZM895.991 422.882C892.554 422.882 889.868 424.063 887.935 426.427C886.001 428.79 885.034 432.192 885.034 436.632C885.034 440.427 885.911 443.435 887.666 445.655C889.421 447.875 892.088 448.985 895.669 448.985C899.035 448.985 901.917 447.893 904.316 445.709C906.715 443.489 907.915 440.947 907.915 438.082C907.915 433.821 906.787 430.222 904.531 427.286C902.311 424.35 899.465 422.882 895.991 422.882ZM945.19 434C945.19 438.548 945.584 441.949 946.372 444.205C947.196 446.425 948.503 447.535 950.293 447.535C953.73 447.535 955.449 443.023 955.449 434C955.449 425.048 953.73 420.572 950.293 420.572C948.503 420.572 947.196 421.682 946.372 423.902C945.584 426.087 945.19 429.452 945.19 434ZM968.984 433.893C968.984 442.128 967.391 448.323 964.204 452.477C961.017 456.594 956.344 458.653 950.186 458.653C944.277 458.653 939.712 456.541 936.489 452.315C933.267 448.054 931.655 441.913 931.655 433.893C931.655 417.529 937.832 409.347 950.186 409.347C956.237 409.347 960.874 411.477 964.097 415.738C967.355 419.964 968.984 426.015 968.984 433.893ZM1005.94 410.475L962.378 489H949.487L993.047 410.475H1005.94ZM1000.19 465.367C1000.19 469.915 1000.58 473.316 1001.37 475.572C1002.2 477.792 1003.5 478.902 1005.29 478.902C1008.73 478.902 1010.45 474.391 1010.45 465.367C1010.45 456.415 1008.73 451.939 1005.29 451.939C1003.5 451.939 1002.2 453.049 1001.37 455.27C1000.58 457.454 1000.19 460.82 1000.19 465.367ZM1023.98 465.26C1023.98 473.46 1022.39 479.636 1019.2 483.79C1016.02 487.908 1011.34 489.967 1005.19 489.967C999.277 489.967 994.712 487.854 991.489 483.629C988.267 479.368 986.655 473.245 986.655 465.26C986.655 448.896 992.832 440.714 1005.19 440.714C1011.24 440.714 1015.87 442.844 1019.1 447.105C1022.36 451.331 1023.98 457.382 1023.98 465.26Z" fill="#01F859"/>
<circle cx="1102.5" cy="450.5" r="38.5" fill="#212B4B"/>
<path d="M1084 448L1099.5 464.5H1101.5L1123 434" stroke="#01F859" stroke-width="7"/>
<circle cx="1761.5" cy="450.5" r="38.5" fill="#212B4B"/>
<path d="M1743 448L1758.5 464.5H1760.5L1782 434" stroke="#01F859" stroke-width="7"/>
<path d="M1340.44 489H1323.84V443.561L1324 436.095L1324.27 427.931C1321.52 430.688 1319.6 432.496 1318.53 433.355L1309.5 440.606L1301.5 430.616L1326.8 410.475H1340.44V489ZM1403.28 489H1386.68V443.561L1386.85 436.095L1387.11 427.931C1384.36 430.688 1382.44 432.496 1381.37 433.355L1372.34 440.606L1364.34 430.616L1389.64 410.475H1403.28V489ZM1481.75 472.726H1472.3V489H1456.08V472.726H1422.56V461.178L1456.99 410.475H1472.3V459.835H1481.75V472.726ZM1456.08 459.835V446.515C1456.08 444.295 1456.17 441.072 1456.35 436.847C1456.53 432.621 1456.67 430.169 1456.78 429.488H1456.35C1455.02 432.424 1453.43 435.289 1451.57 438.082L1437.17 459.835H1456.08ZM1508.18 477.452C1506.32 484.685 1503.17 493.261 1498.73 503.18H1486.91C1489.24 493.655 1491.04 484.667 1492.33 476.217H1507.37L1508.18 477.452ZM1574.73 489H1519.83V477.452L1539.55 457.525C1545.38 451.546 1549.2 447.41 1550.99 445.118C1552.78 442.791 1554.07 440.642 1554.85 438.673C1555.64 436.703 1556.04 434.662 1556.04 432.55C1556.04 429.399 1555.16 427.053 1553.4 425.514C1551.68 423.974 1549.38 423.204 1546.47 423.204C1543.43 423.204 1540.48 423.902 1537.61 425.299C1534.75 426.695 1531.76 428.683 1528.64 431.261L1519.62 420.572C1523.49 417.278 1526.69 414.951 1529.23 413.59C1531.78 412.229 1534.55 411.191 1537.56 410.475C1540.57 409.723 1543.93 409.347 1547.66 409.347C1552.56 409.347 1556.89 410.242 1560.65 412.032C1564.41 413.823 1567.33 416.329 1569.41 419.552C1571.49 422.774 1572.52 426.463 1572.52 430.616C1572.52 434.233 1571.88 437.634 1570.59 440.821C1569.34 443.972 1567.37 447.213 1564.68 450.543C1562.03 453.873 1557.34 458.618 1550.61 464.776L1540.51 474.283V475.035H1574.73V489ZM1595.19 434C1595.19 438.548 1595.58 441.949 1596.37 444.205C1597.2 446.425 1598.5 447.535 1600.29 447.535C1603.73 447.535 1605.45 443.023 1605.45 434C1605.45 425.048 1603.73 420.572 1600.29 420.572C1598.5 420.572 1597.2 421.682 1596.37 423.902C1595.58 426.087 1595.19 429.452 1595.19 434ZM1618.98 433.893C1618.98 442.128 1617.39 448.323 1614.2 452.477C1611.02 456.594 1606.34 458.653 1600.19 458.653C1594.28 458.653 1589.71 456.541 1586.49 452.315C1583.27 448.054 1581.66 441.913 1581.66 433.893C1581.66 417.529 1587.83 409.347 1600.19 409.347C1606.24 409.347 1610.87 411.477 1614.1 415.738C1617.36 419.964 1618.98 426.015 1618.98 433.893ZM1655.94 410.475L1612.38 489H1599.49L1643.05 410.475H1655.94ZM1650.19 465.367C1650.19 469.915 1650.58 473.316 1651.37 475.572C1652.2 477.792 1653.5 478.902 1655.29 478.902C1658.73 478.902 1660.45 474.391 1660.45 465.367C1660.45 456.415 1658.73 451.939 1655.29 451.939C1653.5 451.939 1652.2 453.049 1651.37 455.27C1650.58 457.454 1650.19 460.82 1650.19 465.367ZM1673.98 465.26C1673.98 473.46 1672.39 479.636 1669.2 483.79C1666.02 487.908 1661.34 489.967 1655.19 489.967C1649.28 489.967 1644.71 487.854 1641.49 483.629C1638.27 479.368 1636.66 473.245 1636.66 465.26C1636.66 448.896 1642.83 440.714 1655.19 440.714C1661.24 440.714 1665.87 442.844 1669.1 447.105C1672.36 451.331 1673.98 457.382 1673.98 465.26Z" fill="#01F859"/>
<path d="M1335.44 299H1318.84V253.561L1319 246.095L1319.27 237.931C1316.52 240.688 1314.6 242.496 1313.53 243.355L1304.5 250.606L1296.5 240.616L1321.8 220.475H1335.44V299ZM1398.28 299H1381.68V253.561L1381.85 246.095L1382.11 237.931C1379.36 240.688 1377.44 242.496 1376.37 243.355L1367.34 250.606L1359.34 240.616L1384.64 220.475H1398.28V299ZM1471.92 238.038C1471.92 242.944 1470.43 247.115 1467.46 250.553C1464.49 253.99 1460.32 256.354 1454.95 257.643V257.965C1461.28 258.753 1466.08 260.686 1469.34 263.766C1472.6 266.809 1474.23 270.927 1474.23 276.119C1474.23 283.674 1471.49 289.565 1466.01 293.79C1460.53 297.979 1452.71 300.074 1442.54 300.074C1434.02 300.074 1426.46 298.66 1419.87 295.831V281.705C1422.92 283.245 1426.26 284.498 1429.92 285.465C1433.57 286.432 1437.19 286.915 1440.77 286.915C1446.25 286.915 1450.29 285.984 1452.91 284.122C1455.52 282.26 1456.83 279.27 1456.83 275.152C1456.83 271.464 1455.32 268.85 1452.31 267.311C1449.31 265.771 1444.51 265.001 1437.92 265.001H1431.96V252.271H1438.03C1444.11 252.271 1448.55 251.484 1451.35 249.908C1454.18 248.297 1455.59 245.558 1455.59 241.69C1455.59 235.746 1451.87 232.774 1444.42 232.774C1441.84 232.774 1439.21 233.204 1436.52 234.063C1433.87 234.923 1430.92 236.409 1427.66 238.521L1419.98 227.081C1427.14 221.925 1435.68 219.347 1445.6 219.347C1453.73 219.347 1460.14 220.994 1464.83 224.288C1469.56 227.582 1471.92 232.166 1471.92 238.038ZM1503.18 287.452C1501.32 294.685 1498.17 303.261 1493.73 313.18H1481.91C1484.24 303.655 1486.04 294.667 1487.33 286.217H1502.37L1503.18 287.452ZM1569.73 299H1514.83V287.452L1534.55 267.525C1540.38 261.546 1544.2 257.41 1545.99 255.118C1547.78 252.791 1549.07 250.642 1549.85 248.673C1550.64 246.703 1551.04 244.662 1551.04 242.55C1551.04 239.399 1550.16 237.053 1548.4 235.514C1546.68 233.974 1544.38 233.204 1541.47 233.204C1538.43 233.204 1535.48 233.902 1532.61 235.299C1529.75 236.695 1526.76 238.683 1523.64 241.261L1514.62 230.572C1518.49 227.278 1521.69 224.951 1524.23 223.59C1526.78 222.229 1529.55 221.191 1532.56 220.475C1535.57 219.723 1538.93 219.347 1542.66 219.347C1547.56 219.347 1551.89 220.242 1555.65 222.032C1559.41 223.823 1562.33 226.329 1564.41 229.552C1566.49 232.774 1567.52 236.463 1567.52 240.616C1567.52 244.233 1566.88 247.634 1565.59 250.821C1564.34 253.972 1562.37 257.213 1559.68 260.543C1557.03 263.873 1552.34 268.618 1545.61 274.776L1535.51 284.283V285.035H1569.73V299ZM1590.19 244C1590.19 248.548 1590.58 251.949 1591.37 254.205C1592.2 256.425 1593.5 257.535 1595.29 257.535C1598.73 257.535 1600.45 253.023 1600.45 244C1600.45 235.048 1598.73 230.572 1595.29 230.572C1593.5 230.572 1592.2 231.682 1591.37 233.902C1590.58 236.087 1590.19 239.452 1590.19 244ZM1613.98 243.893C1613.98 252.128 1612.39 258.323 1609.2 262.477C1606.02 266.594 1601.34 268.653 1595.19 268.653C1589.28 268.653 1584.71 266.541 1581.49 262.315C1578.27 258.054 1576.66 251.913 1576.66 243.893C1576.66 227.529 1582.83 219.347 1595.19 219.347C1601.24 219.347 1605.87 221.477 1609.1 225.738C1612.36 229.964 1613.98 236.015 1613.98 243.893ZM1650.94 220.475L1607.38 299H1594.49L1638.05 220.475H1650.94ZM1645.19 275.367C1645.19 279.915 1645.58 283.316 1646.37 285.572C1647.2 287.792 1648.5 288.902 1650.29 288.902C1653.73 288.902 1655.45 284.391 1655.45 275.367C1655.45 266.415 1653.73 261.939 1650.29 261.939C1648.5 261.939 1647.2 263.049 1646.37 265.27C1645.58 267.454 1645.19 270.82 1645.19 275.367ZM1668.98 275.26C1668.98 283.46 1667.39 289.636 1664.2 293.79C1661.02 297.908 1656.34 299.967 1650.19 299.967C1644.28 299.967 1639.71 297.854 1636.49 293.629C1633.27 289.368 1631.66 283.245 1631.66 275.26C1631.66 258.896 1637.83 250.714 1650.19 250.714C1656.24 250.714 1660.87 252.844 1664.1 257.105C1667.36 261.331 1668.98 267.382 1668.98 275.26Z" fill="#FF0000"/>
<line y1="106" x2="1905" y2="106" stroke="#6A7186" stroke-width="4"/>
<path d="M51.4395 887H34.8428V841.561L35.0039 834.095L35.2725 825.931C32.5153 828.688 30.5996 830.496 29.5254 831.355L20.502 838.606L12.499 828.616L37.7969 808.475H51.4395V887ZM127.709 847.737C127.709 861.451 125.453 871.603 120.941 878.191C116.465 884.78 109.555 888.074 100.209 888.074C91.1497 888.074 84.3105 884.673 79.6914 877.869C75.1081 871.066 72.8164 861.022 72.8164 847.737C72.8164 833.88 75.0544 823.675 79.5303 817.122C84.0062 810.534 90.8991 807.239 100.209 807.239C109.268 807.239 116.107 810.677 120.727 817.552C125.382 824.427 127.709 834.489 127.709 847.737ZM89.3057 847.737C89.3057 857.369 90.1292 864.28 91.7764 868.47C93.4593 872.623 96.2702 874.7 100.209 874.7C104.076 874.7 106.869 872.588 108.588 868.362C110.307 864.137 111.166 857.262 111.166 847.737C111.166 838.105 110.289 831.194 108.534 827.005C106.815 822.78 104.04 820.667 100.209 820.667C96.306 820.667 93.513 822.78 91.8301 827.005C90.1471 831.194 89.3057 838.105 89.3057 847.737ZM177.123 887H160.526V841.561L160.688 834.095L160.956 825.931C158.199 828.688 156.283 830.496 155.209 831.355L146.186 838.606L138.183 828.616L163.48 808.475H177.123V887ZM219.179 875.452C217.317 882.685 214.166 891.261 209.726 901.18H197.909C200.237 891.655 202.045 882.667 203.334 874.217H218.373L219.179 875.452ZM257.904 807.454C265.424 807.454 271.475 809.173 276.059 812.61C280.678 816.012 282.987 820.613 282.987 826.414C282.987 830.424 281.877 834.005 279.657 837.156C277.437 840.271 273.856 843.064 268.915 845.535C274.787 848.686 278.995 851.98 281.537 855.418C284.115 858.82 285.404 862.562 285.404 866.644C285.404 873.089 282.88 878.281 277.831 882.22C272.782 886.123 266.14 888.074 257.904 888.074C249.311 888.074 242.561 886.248 237.655 882.596C232.75 878.943 230.297 873.769 230.297 867.073C230.297 862.597 231.479 858.623 233.842 855.149C236.241 851.676 240.072 848.615 245.336 845.965C240.86 843.136 237.637 840.11 235.668 836.888C233.699 833.665 232.714 830.138 232.714 826.307C232.714 820.685 235.041 816.137 239.696 812.664C244.351 809.191 250.421 807.454 257.904 807.454ZM245.658 866.106C245.658 869.186 246.732 871.585 248.881 873.304C251.029 875.022 253.965 875.882 257.689 875.882C261.807 875.882 264.887 875.005 266.928 873.25C268.969 871.46 269.989 869.114 269.989 866.214C269.989 863.815 268.969 861.577 266.928 859.5C264.923 857.387 261.646 855.149 257.099 852.786C249.472 856.295 245.658 860.735 245.658 866.106ZM257.797 819.593C254.968 819.593 252.676 820.327 250.922 821.795C249.203 823.227 248.344 825.161 248.344 827.596C248.344 829.744 249.024 831.678 250.385 833.396C251.781 835.079 254.288 836.816 257.904 838.606C261.413 836.959 263.866 835.276 265.263 833.558C266.659 831.839 267.357 829.852 267.357 827.596C267.357 825.125 266.462 823.174 264.672 821.741C262.882 820.309 260.59 819.593 257.797 819.593ZM345.507 826.038C345.507 830.944 344.021 835.115 341.049 838.553C338.077 841.99 333.905 844.354 328.534 845.643V845.965C334.872 846.753 339.67 848.686 342.929 851.766C346.187 854.809 347.816 858.927 347.816 864.119C347.816 871.674 345.077 877.565 339.599 881.79C334.12 885.979 326.296 888.074 316.127 888.074C307.605 888.074 300.049 886.66 293.461 883.831V869.705C296.505 871.245 299.853 872.498 303.505 873.465C307.157 874.432 310.774 874.915 314.354 874.915C319.833 874.915 323.879 873.984 326.493 872.122C329.107 870.26 330.414 867.27 330.414 863.152C330.414 859.464 328.91 856.85 325.902 855.311C322.895 853.771 318.096 853.001 311.508 853.001H305.546V840.271H311.615C317.702 840.271 322.143 839.484 324.936 837.908C327.764 836.297 329.179 833.558 329.179 829.69C329.179 823.746 325.455 820.774 318.007 820.774C315.429 820.774 312.797 821.204 310.111 822.063C307.462 822.923 304.507 824.409 301.249 826.521L293.568 815.081C300.73 809.925 309.27 807.347 319.188 807.347C327.317 807.347 333.726 808.994 338.417 812.288C343.144 815.582 345.507 820.166 345.507 826.038ZM369.032 832C369.032 836.548 369.426 839.949 370.214 842.205C371.037 844.425 372.344 845.535 374.135 845.535C377.572 845.535 379.291 841.023 379.291 832C379.291 823.048 377.572 818.572 374.135 818.572C372.344 818.572 371.037 819.682 370.214 821.902C369.426 824.087 369.032 827.452 369.032 832ZM392.826 831.893C392.826 840.128 391.233 846.323 388.046 850.477C384.859 854.594 380.186 856.653 374.027 856.653C368.119 856.653 363.554 854.541 360.331 850.315C357.108 846.054 355.497 839.913 355.497 831.893C355.497 815.529 361.674 807.347 374.027 807.347C380.079 807.347 384.716 809.477 387.938 813.738C391.197 817.964 392.826 824.015 392.826 831.893ZM429.779 808.475L386.22 887H373.329L416.889 808.475H429.779ZM424.032 863.367C424.032 867.915 424.426 871.316 425.214 873.572C426.037 875.792 427.344 876.902 429.135 876.902C432.572 876.902 434.291 872.391 434.291 863.367C434.291 854.415 432.572 849.939 429.135 849.939C427.344 849.939 426.037 851.049 425.214 853.27C424.426 855.454 424.032 858.82 424.032 863.367ZM447.826 863.26C447.826 871.46 446.233 877.636 443.046 881.79C439.859 885.908 435.186 887.967 429.027 887.967C423.119 887.967 418.554 885.854 415.331 881.629C412.108 877.368 410.497 871.245 410.497 863.26C410.497 846.896 416.674 838.714 429.027 838.714C435.079 838.714 439.716 840.844 442.938 845.105C446.197 849.331 447.826 855.382 447.826 863.26Z" fill="#01F859"/>
<path d="M696.439 887H679.843V841.561L680.004 834.095L680.272 825.931C677.515 828.688 675.6 830.496 674.525 831.355L665.502 838.606L657.499 828.616L682.797 808.475H696.439V887ZM772.709 847.737C772.709 861.451 770.453 871.603 765.941 878.191C761.465 884.78 754.555 888.074 745.209 888.074C736.15 888.074 729.311 884.673 724.691 877.869C720.108 871.066 717.816 861.022 717.816 847.737C717.816 833.88 720.054 823.675 724.53 817.122C729.006 810.534 735.899 807.239 745.209 807.239C754.268 807.239 761.107 810.677 765.727 817.552C770.382 824.427 772.709 834.489 772.709 847.737ZM734.306 847.737C734.306 857.369 735.129 864.28 736.776 868.47C738.459 872.623 741.27 874.7 745.209 874.7C749.076 874.7 751.869 872.588 753.588 868.362C755.307 864.137 756.166 857.262 756.166 847.737C756.166 838.105 755.289 831.194 753.534 827.005C751.815 822.78 749.04 820.667 745.209 820.667C741.306 820.667 738.513 822.78 736.83 827.005C735.147 831.194 734.306 838.105 734.306 847.737ZM835.98 887H781.088V875.452L800.8 855.525C806.636 849.546 810.45 845.41 812.24 843.118C814.031 840.791 815.32 838.642 816.107 836.673C816.895 834.703 817.289 832.662 817.289 830.55C817.289 827.399 816.412 825.053 814.657 823.514C812.938 821.974 810.629 821.204 807.729 821.204C804.685 821.204 801.731 821.902 798.866 823.299C796.002 824.695 793.012 826.683 789.896 829.261L780.873 818.572C784.74 815.278 787.945 812.951 790.487 811.59C793.03 810.229 795.805 809.191 798.812 808.475C801.82 807.723 805.186 807.347 808.91 807.347C813.816 807.347 818.148 808.242 821.908 810.032C825.668 811.823 828.586 814.329 830.663 817.552C832.74 820.774 833.778 824.463 833.778 828.616C833.778 832.233 833.134 835.634 831.845 838.821C830.591 841.972 828.622 845.213 825.937 848.543C823.287 851.873 818.596 856.618 811.864 862.776L801.767 872.283V873.035H835.98V887ZM864.179 875.452C862.317 882.685 859.166 891.261 854.726 901.18H842.909C845.237 891.655 847.045 882.667 848.334 874.217H863.373L864.179 875.452ZM916.869 887H900.272V841.561L900.434 834.095L900.702 825.931C897.945 828.688 896.029 830.496 894.955 831.355L885.932 838.606L877.929 828.616L903.227 808.475H916.869V887ZM967.25 836.834C974.841 836.834 980.875 838.965 985.351 843.226C989.862 847.487 992.118 853.323 992.118 860.735C992.118 869.508 989.415 876.258 984.008 880.984C978.601 885.711 970.867 888.074 960.805 888.074C952.068 888.074 945.014 886.66 939.643 883.831V869.49C942.471 870.994 945.766 872.229 949.525 873.196C953.285 874.127 956.848 874.593 960.214 874.593C970.347 874.593 975.414 870.439 975.414 862.132C975.414 854.218 970.168 850.262 959.677 850.262C957.779 850.262 955.684 850.459 953.393 850.853C951.101 851.211 949.239 851.604 947.807 852.034L941.2 848.489L944.154 808.475H986.747V822.547H958.71L957.26 837.962L959.14 837.586C961.324 837.085 964.027 836.834 967.25 836.834ZM1014.03 832C1014.03 836.548 1014.43 839.949 1015.21 842.205C1016.04 844.425 1017.34 845.535 1019.13 845.535C1022.57 845.535 1024.29 841.023 1024.29 832C1024.29 823.048 1022.57 818.572 1019.13 818.572C1017.34 818.572 1016.04 819.682 1015.21 821.902C1014.43 824.087 1014.03 827.452 1014.03 832ZM1037.83 831.893C1037.83 840.128 1036.23 846.323 1033.05 850.477C1029.86 854.594 1025.19 856.653 1019.03 856.653C1013.12 856.653 1008.55 854.541 1005.33 850.315C1002.11 846.054 1000.5 839.913 1000.5 831.893C1000.5 815.529 1006.67 807.347 1019.03 807.347C1025.08 807.347 1029.72 809.477 1032.94 813.738C1036.2 817.964 1037.83 824.015 1037.83 831.893ZM1074.78 808.475L1031.22 887H1018.33L1061.89 808.475H1074.78ZM1069.03 863.367C1069.03 867.915 1069.43 871.316 1070.21 873.572C1071.04 875.792 1072.34 876.902 1074.13 876.902C1077.57 876.902 1079.29 872.391 1079.29 863.367C1079.29 854.415 1077.57 849.939 1074.13 849.939C1072.34 849.939 1071.04 851.049 1070.21 853.27C1069.43 855.454 1069.03 858.82 1069.03 863.367ZM1092.83 863.26C1092.83 871.46 1091.23 877.636 1088.05 881.79C1084.86 885.908 1080.19 887.967 1074.03 887.967C1068.12 887.967 1063.55 885.854 1060.33 881.629C1057.11 877.368 1055.5 871.245 1055.5 863.26C1055.5 846.896 1061.67 838.714 1074.03 838.714C1080.08 838.714 1084.72 840.844 1087.94 845.105C1091.2 849.331 1092.83 855.382 1092.83 863.26Z" fill="#01F859"/>
<path d="M1341.44 887H1324.84V841.561L1325 834.095L1325.27 825.931C1322.52 828.688 1320.6 830.496 1319.53 831.355L1310.5 838.606L1302.5 828.616L1327.8 808.475H1341.44V887ZM1417.71 847.737C1417.71 861.451 1415.45 871.603 1410.94 878.191C1406.47 884.78 1399.55 888.074 1390.21 888.074C1381.15 888.074 1374.31 884.673 1369.69 877.869C1365.11 871.066 1362.82 861.022 1362.82 847.737C1362.82 833.88 1365.05 823.675 1369.53 817.122C1374.01 810.534 1380.9 807.239 1390.21 807.239C1399.27 807.239 1406.11 810.677 1410.73 817.552C1415.38 824.427 1417.71 834.489 1417.71 847.737ZM1379.31 847.737C1379.31 857.369 1380.13 864.28 1381.78 868.47C1383.46 872.623 1386.27 874.7 1390.21 874.7C1394.08 874.7 1396.87 872.588 1398.59 868.362C1400.31 864.137 1401.17 857.262 1401.17 847.737C1401.17 838.105 1400.29 831.194 1398.53 827.005C1396.82 822.78 1394.04 820.667 1390.21 820.667C1386.31 820.667 1383.51 822.78 1381.83 827.005C1380.15 831.194 1379.31 838.105 1379.31 847.737ZM1480.98 887H1426.09V875.452L1445.8 855.525C1451.64 849.546 1455.45 845.41 1457.24 843.118C1459.03 840.791 1460.32 838.642 1461.11 836.673C1461.9 834.703 1462.29 832.662 1462.29 830.55C1462.29 827.399 1461.41 825.053 1459.66 823.514C1457.94 821.974 1455.63 821.204 1452.73 821.204C1449.68 821.204 1446.73 821.902 1443.87 823.299C1441 824.695 1438.01 826.683 1434.9 829.261L1425.87 818.572C1429.74 815.278 1432.94 812.951 1435.49 811.59C1438.03 810.229 1440.8 809.191 1443.81 808.475C1446.82 807.723 1450.19 807.347 1453.91 807.347C1458.82 807.347 1463.15 808.242 1466.91 810.032C1470.67 811.823 1473.59 814.329 1475.66 817.552C1477.74 820.774 1478.78 824.463 1478.78 828.616C1478.78 832.233 1478.13 835.634 1476.84 838.821C1475.59 841.972 1473.62 845.213 1470.94 848.543C1468.29 851.873 1463.6 856.618 1456.86 862.776L1446.77 872.283V873.035H1480.98V887ZM1509.18 875.452C1507.32 882.685 1504.17 891.261 1499.73 901.18H1487.91C1490.24 891.655 1492.04 882.667 1493.33 874.217H1508.37L1509.18 875.452ZM1547.9 807.454C1555.42 807.454 1561.48 809.173 1566.06 812.61C1570.68 816.012 1572.99 820.613 1572.99 826.414C1572.99 830.424 1571.88 834.005 1569.66 837.156C1567.44 840.271 1563.86 843.064 1558.92 845.535C1564.79 848.686 1568.99 851.98 1571.54 855.418C1574.12 858.82 1575.4 862.562 1575.4 866.644C1575.4 873.089 1572.88 878.281 1567.83 882.22C1562.78 886.123 1556.14 888.074 1547.9 888.074C1539.31 888.074 1532.56 886.248 1527.66 882.596C1522.75 878.943 1520.3 873.769 1520.3 867.073C1520.3 862.597 1521.48 858.623 1523.84 855.149C1526.24 851.676 1530.07 848.615 1535.34 845.965C1530.86 843.136 1527.64 840.11 1525.67 836.888C1523.7 833.665 1522.71 830.138 1522.71 826.307C1522.71 820.685 1525.04 816.137 1529.7 812.664C1534.35 809.191 1540.42 807.454 1547.9 807.454ZM1535.66 866.106C1535.66 869.186 1536.73 871.585 1538.88 873.304C1541.03 875.022 1543.97 875.882 1547.69 875.882C1551.81 875.882 1554.89 875.005 1556.93 873.25C1558.97 871.46 1559.99 869.114 1559.99 866.214C1559.99 863.815 1558.97 861.577 1556.93 859.5C1554.92 857.387 1551.65 855.149 1547.1 852.786C1539.47 856.295 1535.66 860.735 1535.66 866.106ZM1547.8 819.593C1544.97 819.593 1542.68 820.327 1540.92 821.795C1539.2 823.227 1538.34 825.161 1538.34 827.596C1538.34 829.744 1539.02 831.678 1540.38 833.396C1541.78 835.079 1544.29 836.816 1547.9 838.606C1551.41 836.959 1553.87 835.276 1555.26 833.558C1556.66 831.839 1557.36 829.852 1557.36 827.596C1557.36 825.125 1556.46 823.174 1554.67 821.741C1552.88 820.309 1550.59 819.593 1547.8 819.593ZM1596.19 832C1596.19 836.548 1596.58 839.949 1597.37 842.205C1598.2 844.425 1599.5 845.535 1601.29 845.535C1604.73 845.535 1606.45 841.023 1606.45 832C1606.45 823.048 1604.73 818.572 1601.29 818.572C1599.5 818.572 1598.2 819.682 1597.37 821.902C1596.58 824.087 1596.19 827.452 1596.19 832ZM1619.98 831.893C1619.98 840.128 1618.39 846.323 1615.2 850.477C1612.02 854.594 1607.34 856.653 1601.19 856.653C1595.28 856.653 1590.71 854.541 1587.49 850.315C1584.27 846.054 1582.66 839.913 1582.66 831.893C1582.66 815.529 1588.83 807.347 1601.19 807.347C1607.24 807.347 1611.87 809.477 1615.1 813.738C1618.36 817.964 1619.98 824.015 1619.98 831.893ZM1656.94 808.475L1613.38 887H1600.49L1644.05 808.475H1656.94ZM1651.19 863.367C1651.19 867.915 1651.58 871.316 1652.37 873.572C1653.2 875.792 1654.5 876.902 1656.29 876.902C1659.73 876.902 1661.45 872.391 1661.45 863.367C1661.45 854.415 1659.73 849.939 1656.29 849.939C1654.5 849.939 1653.2 851.049 1652.37 853.27C1651.58 855.454 1651.19 858.82 1651.19 863.367ZM1674.98 863.26C1674.98 871.46 1673.39 877.636 1670.2 881.79C1667.02 885.908 1662.34 887.967 1656.19 887.967C1650.28 887.967 1645.71 885.854 1642.49 881.629C1639.27 877.368 1637.66 871.245 1637.66 863.26C1637.66 846.896 1643.83 838.714 1656.19 838.714C1662.24 838.714 1666.87 840.844 1670.1 845.105C1673.36 849.331 1674.98 855.382 1674.98 863.26Z" fill="#01F859"/>
<path d="M5 680L1911 680" stroke="url(#paint0_linear)" stroke-width="80"/>
<path d="M38.9648 663.445H42.0703V679.324C42.0703 682.254 41.9792 684.904 41.7969 687.273H41.9531L57.9688 663.445H61.6016V692H58.4766V676.277C58.4766 673.66 58.5872 670.913 58.8086 668.035H58.6328L42.5977 692H38.9648V663.445ZM72.1875 670.594V679.559H84.1797V670.594H87.4219V692H84.1797V682.352H72.1875V692H68.9453V670.594H72.1875ZM112.891 699.402H109.746V692H94.7852V699.402H91.6602V689.207H93.3398C95.0846 686.837 96.4518 684.057 97.4414 680.867C98.431 677.677 98.9453 674.253 98.9844 670.594H109.824V689.207H112.891V699.402ZM106.699 689.207V673.152H101.895C101.725 676.043 101.165 678.973 100.215 681.941C99.2773 684.897 98.1055 687.319 96.6992 689.207H106.699ZM126.23 692.391C123.066 692.391 120.566 691.427 118.73 689.5C116.908 687.573 115.996 684.897 115.996 681.473C115.996 678.022 116.842 675.281 118.535 673.25C120.241 671.219 122.526 670.203 125.391 670.203C128.073 670.203 130.195 671.089 131.758 672.859C133.32 674.617 134.102 676.941 134.102 679.832V681.883H119.355C119.421 684.396 120.052 686.303 121.25 687.605C122.461 688.908 124.16 689.559 126.348 689.559C128.652 689.559 130.931 689.077 133.184 688.113V691.004C132.038 691.499 130.951 691.85 129.922 692.059C128.906 692.28 127.676 692.391 126.23 692.391ZM125.352 672.918C123.633 672.918 122.259 673.478 121.23 674.598C120.215 675.717 119.616 677.267 119.434 679.246H130.625C130.625 677.202 130.169 675.639 129.258 674.559C128.346 673.465 127.044 672.918 125.352 672.918ZM152.129 670.594H155.684L146.445 680.926L156.445 692H152.656L142.891 681.16V692H139.648V670.594H142.891V681.004L152.129 670.594ZM168.984 692.391C165.885 692.391 163.483 691.44 161.777 689.539C160.085 687.625 159.238 684.923 159.238 681.434C159.238 677.853 160.098 675.086 161.816 673.133C163.548 671.18 166.009 670.203 169.199 670.203C170.228 670.203 171.257 670.314 172.285 670.535C173.314 670.757 174.121 671.017 174.707 671.316L173.711 674.07C172.995 673.784 172.214 673.549 171.367 673.367C170.521 673.172 169.772 673.074 169.121 673.074C164.772 673.074 162.598 675.848 162.598 681.395C162.598 684.025 163.125 686.043 164.18 687.449C165.247 688.855 166.823 689.559 168.906 689.559C170.69 689.559 172.52 689.174 174.395 688.406V691.277C172.962 692.02 171.159 692.391 168.984 692.391ZM193.125 692H189.883V670.594H207.852V692H204.57V673.406H193.125V692ZM233.203 681.277C233.203 684.767 232.324 687.495 230.566 689.461C228.809 691.414 226.38 692.391 223.281 692.391C221.367 692.391 219.668 691.941 218.184 691.043C216.699 690.145 215.553 688.855 214.746 687.176C213.939 685.496 213.535 683.53 213.535 681.277C213.535 677.788 214.408 675.073 216.152 673.133C217.897 671.18 220.319 670.203 223.418 670.203C226.413 670.203 228.789 671.199 230.547 673.191C232.318 675.184 233.203 677.879 233.203 681.277ZM216.895 681.277C216.895 684.012 217.441 686.095 218.535 687.527C219.629 688.96 221.237 689.676 223.359 689.676C225.482 689.676 227.09 688.966 228.184 687.547C229.29 686.115 229.844 684.025 229.844 681.277C229.844 678.556 229.29 676.492 228.184 675.086C227.09 673.667 225.469 672.957 223.32 672.957C221.198 672.957 219.596 673.654 218.516 675.047C217.435 676.44 216.895 678.517 216.895 681.277ZM253.34 673.367H246.387V692H243.145V673.367H236.27V670.594H253.34V673.367ZM267.539 692.391C266.146 692.391 264.87 692.137 263.711 691.629C262.565 691.108 261.602 690.314 260.82 689.246H260.586C260.742 690.496 260.82 691.681 260.82 692.801V701.609H257.578V670.594H260.215L260.664 673.523H260.82C261.654 672.352 262.624 671.505 263.73 670.984C264.837 670.464 266.107 670.203 267.539 670.203C270.378 670.203 272.565 671.173 274.102 673.113C275.651 675.053 276.426 677.775 276.426 681.277C276.426 684.793 275.638 687.527 274.062 689.48C272.5 691.421 270.326 692.391 267.539 692.391ZM267.07 672.957C264.883 672.957 263.301 673.562 262.324 674.773C261.348 675.984 260.846 677.911 260.82 680.555V681.277C260.82 684.285 261.322 686.44 262.324 687.742C263.327 689.031 264.935 689.676 267.148 689.676C268.997 689.676 270.443 688.927 271.484 687.43C272.539 685.932 273.066 683.868 273.066 681.238C273.066 678.569 272.539 676.525 271.484 675.105C270.443 673.673 268.971 672.957 267.07 672.957ZM291.152 692.391C287.988 692.391 285.488 691.427 283.652 689.5C281.829 687.573 280.918 684.897 280.918 681.473C280.918 678.022 281.764 675.281 283.457 673.25C285.163 671.219 287.448 670.203 290.312 670.203C292.995 670.203 295.117 671.089 296.68 672.859C298.242 674.617 299.023 676.941 299.023 679.832V681.883H284.277C284.342 684.396 284.974 686.303 286.172 687.605C287.383 688.908 289.082 689.559 291.27 689.559C293.574 689.559 295.853 689.077 298.105 688.113V691.004C296.96 691.499 295.872 691.85 294.844 692.059C293.828 692.28 292.598 692.391 291.152 692.391ZM290.273 672.918C288.555 672.918 287.181 673.478 286.152 674.598C285.137 675.717 284.538 677.267 284.355 679.246H295.547C295.547 677.202 295.091 675.639 294.18 674.559C293.268 673.465 291.966 672.918 290.273 672.918ZM303.457 679.168C303.457 674.48 304.147 670.828 305.527 668.211C306.908 665.581 309.095 663.94 312.09 663.289C315.814 662.495 319.095 661.85 321.934 661.355L322.539 664.207C318.021 664.962 314.792 665.561 312.852 666.004C310.964 666.434 309.544 667.449 308.594 669.051C307.656 670.652 307.142 672.833 307.051 675.594H307.285C308.092 674.5 309.134 673.641 310.41 673.016C311.686 672.391 313.021 672.078 314.414 672.078C317.044 672.078 319.095 672.931 320.566 674.637C322.038 676.342 322.773 678.706 322.773 681.727C322.773 685.073 321.921 687.69 320.215 689.578C318.509 691.453 316.133 692.391 313.086 692.391C310.078 692.391 307.721 691.238 306.016 688.934C304.31 686.629 303.457 683.374 303.457 679.168ZM313.379 689.676C317.35 689.676 319.336 687.143 319.336 682.078C319.336 677.247 317.533 674.832 313.926 674.832C312.936 674.832 311.979 675.04 311.055 675.457C310.143 675.861 309.303 676.401 308.535 677.078C307.78 677.755 307.194 678.452 306.777 679.168C306.777 682.592 307.318 685.203 308.398 687C309.479 688.784 311.139 689.676 313.379 689.676ZM331.484 670.594V684.168L331.348 687.723L331.289 688.836L342.871 670.594H346.914V692H343.887V678.914L343.945 676.336L344.043 673.797L332.48 692H328.438V670.594H331.484ZM368.223 673.367H361.27V692H358.027V673.367H351.152V670.594H368.223V673.367ZM381.504 692.391C378.34 692.391 375.84 691.427 374.004 689.5C372.181 687.573 371.27 684.897 371.27 681.473C371.27 678.022 372.116 675.281 373.809 673.25C375.514 671.219 377.799 670.203 380.664 670.203C383.346 670.203 385.469 671.089 387.031 672.859C388.594 674.617 389.375 676.941 389.375 679.832V681.883H374.629C374.694 684.396 375.326 686.303 376.523 687.605C377.734 688.908 379.434 689.559 381.621 689.559C383.926 689.559 386.204 689.077 388.457 688.113V691.004C387.311 691.499 386.224 691.85 385.195 692.059C384.18 692.28 382.949 692.391 381.504 692.391ZM380.625 672.918C378.906 672.918 377.533 673.478 376.504 674.598C375.488 675.717 374.889 677.267 374.707 679.246H385.898C385.898 677.202 385.443 675.639 384.531 674.559C383.62 673.465 382.318 672.918 380.625 672.918ZM410.879 692H407.598V673.367H401.172C400.82 678.003 400.332 681.681 399.707 684.402C399.082 687.124 398.268 689.116 397.266 690.379C396.276 691.642 395.013 692.273 393.477 692.273C392.773 692.273 392.214 692.195 391.797 692.039V689.637C392.083 689.715 392.409 689.754 392.773 689.754C394.271 689.754 395.462 688.172 396.348 685.008C397.233 681.844 397.904 677.039 398.359 670.594H410.879V692ZM421.016 679.441H427.617C433.086 679.441 435.82 681.453 435.82 685.477C435.82 687.586 435.104 689.201 433.672 690.32C432.253 691.44 430.169 692 427.422 692H417.773V670.594H421.016V679.441ZM421.016 682.234V689.285H427.266C428.984 689.285 430.299 688.986 431.211 688.387C432.122 687.788 432.578 686.883 432.578 685.672C432.578 684.487 432.155 683.621 431.309 683.074C430.475 682.514 429.095 682.234 427.168 682.234H421.016ZM450 692.391C446.901 692.391 444.499 691.44 442.793 689.539C441.1 687.625 440.254 684.923 440.254 681.434C440.254 677.853 441.113 675.086 442.832 673.133C444.564 671.18 447.025 670.203 450.215 670.203C451.243 670.203 452.272 670.314 453.301 670.535C454.329 670.757 455.137 671.017 455.723 671.316L454.727 674.07C454.01 673.784 453.229 673.549 452.383 673.367C451.536 673.172 450.788 673.074 450.137 673.074C445.788 673.074 443.613 675.848 443.613 681.395C443.613 684.025 444.141 686.043 445.195 687.449C446.263 688.855 447.839 689.559 449.922 689.559C451.706 689.559 453.535 689.174 455.41 688.406V691.277C453.978 692.02 452.174 692.391 450 692.391ZM472.988 670.594H476.543L467.305 680.926L477.305 692H473.516L463.75 681.16V692H460.508V670.594H463.75V681.004L472.988 670.594ZM484.336 670.594V684.168L484.199 687.723L484.141 688.836L495.723 670.594H499.766V692H496.738V678.914L496.797 676.336L496.895 673.797L485.332 692H481.289V670.594H484.336ZM511.797 681.043L504.355 670.594H508.047L513.691 678.797L519.316 670.594H522.969L515.527 681.043L523.359 692H519.688L513.691 683.328L507.637 692H503.965L511.797 681.043ZM558.887 699.402H555.645V692H538.008V670.594H541.25V689.207H552.617V670.594H555.859V689.207H558.887V699.402ZM572.09 692.391C568.926 692.391 566.426 691.427 564.59 689.5C562.767 687.573 561.855 684.897 561.855 681.473C561.855 678.022 562.702 675.281 564.395 673.25C566.1 671.219 568.385 670.203 571.25 670.203C573.932 670.203 576.055 671.089 577.617 672.859C579.18 674.617 579.961 676.941 579.961 679.832V681.883H565.215C565.28 684.396 565.911 686.303 567.109 687.605C568.32 688.908 570.02 689.559 572.207 689.559C574.512 689.559 576.79 689.077 579.043 688.113V691.004C577.897 691.499 576.81 691.85 575.781 692.059C574.766 692.28 573.535 692.391 572.09 692.391ZM571.211 672.918C569.492 672.918 568.118 673.478 567.09 674.598C566.074 675.717 565.475 677.267 565.293 679.246H576.484C576.484 677.202 576.029 675.639 575.117 674.559C574.206 673.465 572.904 672.918 571.211 672.918ZM588.75 670.594V679.559H600.742V670.594H603.984V692H600.742V682.352H588.75V692H585.508V670.594H588.75ZM624.492 670.594V679.559H636.484V670.594H639.727V692H636.484V682.352H624.492V692H621.25V670.594H624.492ZM659.766 692L659.121 688.953H658.965C657.897 690.294 656.829 691.206 655.762 691.688C654.707 692.156 653.385 692.391 651.797 692.391C649.674 692.391 648.008 691.844 646.797 690.75C645.599 689.656 645 688.1 645 686.082C645 681.759 648.457 679.493 655.371 679.285L659.004 679.168V677.84C659.004 676.16 658.639 674.923 657.91 674.129C657.194 673.322 656.042 672.918 654.453 672.918C652.669 672.918 650.651 673.465 648.398 674.559L647.402 672.078C648.457 671.505 649.609 671.056 650.859 670.73C652.122 670.405 653.385 670.242 654.648 670.242C657.201 670.242 659.089 670.809 660.312 671.941C661.549 673.074 662.168 674.891 662.168 677.391V692H659.766ZM652.441 689.715C654.46 689.715 656.042 689.161 657.188 688.055C658.346 686.948 658.926 685.398 658.926 683.406V681.473L655.684 681.609C653.105 681.701 651.243 682.104 650.098 682.82C648.965 683.523 648.398 684.624 648.398 686.121C648.398 687.293 648.75 688.185 649.453 688.797C650.169 689.409 651.165 689.715 652.441 689.715ZM693.691 673.367H686.738V692H683.496V673.367H676.621V670.594H693.691V673.367ZM716.406 681.277C716.406 684.767 715.527 687.495 713.77 689.461C712.012 691.414 709.583 692.391 706.484 692.391C704.57 692.391 702.871 691.941 701.387 691.043C699.902 690.145 698.757 688.855 697.949 687.176C697.142 685.496 696.738 683.53 696.738 681.277C696.738 677.788 697.611 675.073 699.355 673.133C701.1 671.18 703.522 670.203 706.621 670.203C709.616 670.203 711.992 671.199 713.75 673.191C715.521 675.184 716.406 677.879 716.406 681.277ZM700.098 681.277C700.098 684.012 700.645 686.095 701.738 687.527C702.832 688.96 704.44 689.676 706.562 689.676C708.685 689.676 710.293 688.966 711.387 687.547C712.493 686.115 713.047 684.025 713.047 681.277C713.047 678.556 712.493 676.492 711.387 675.086C710.293 673.667 708.672 672.957 706.523 672.957C704.401 672.957 702.799 673.654 701.719 675.047C700.638 676.44 700.098 678.517 700.098 681.277ZM739.473 675.965C739.473 677.358 739.069 678.419 738.262 679.148C737.467 679.865 736.348 680.346 734.902 680.594V680.77C736.725 681.017 738.053 681.551 738.887 682.371C739.733 683.191 740.156 684.324 740.156 685.77C740.156 687.762 739.421 689.298 737.949 690.379C736.491 691.46 734.355 692 731.543 692H722.109V670.594H731.504C736.816 670.594 739.473 672.384 739.473 675.965ZM736.914 685.555C736.914 684.396 736.471 683.556 735.586 683.035C734.714 682.501 733.262 682.234 731.23 682.234H725.352V689.285H731.309C735.046 689.285 736.914 688.042 736.914 685.555ZM736.309 676.277C736.309 675.236 735.905 674.5 735.098 674.07C734.303 673.628 733.092 673.406 731.465 673.406H725.352V679.441H730.84C732.845 679.441 734.258 679.194 735.078 678.699C735.898 678.204 736.309 677.397 736.309 676.277ZM758.047 692L757.402 688.953H757.246C756.178 690.294 755.111 691.206 754.043 691.688C752.988 692.156 751.667 692.391 750.078 692.391C747.956 692.391 746.289 691.844 745.078 690.75C743.88 689.656 743.281 688.1 743.281 686.082C743.281 681.759 746.738 679.493 753.652 679.285L757.285 679.168V677.84C757.285 676.16 756.921 674.923 756.191 674.129C755.475 673.322 754.323 672.918 752.734 672.918C750.951 672.918 748.932 673.465 746.68 674.559L745.684 672.078C746.738 671.505 747.891 671.056 749.141 670.73C750.404 670.405 751.667 670.242 752.93 670.242C755.482 670.242 757.37 670.809 758.594 671.941C759.831 673.074 760.449 674.891 760.449 677.391V692H758.047ZM750.723 689.715C752.741 689.715 754.323 689.161 755.469 688.055C756.628 686.948 757.207 685.398 757.207 683.406V681.473L753.965 681.609C751.387 681.701 749.525 682.104 748.379 682.82C747.246 683.523 746.68 684.624 746.68 686.121C746.68 687.293 747.031 688.185 747.734 688.797C748.451 689.409 749.447 689.715 750.723 689.715ZM777.109 692.391C775.716 692.391 774.44 692.137 773.281 691.629C772.135 691.108 771.172 690.314 770.391 689.246H770.156C770.312 690.496 770.391 691.681 770.391 692.801V701.609H767.148V670.594H769.785L770.234 673.523H770.391C771.224 672.352 772.194 671.505 773.301 670.984C774.408 670.464 775.677 670.203 777.109 670.203C779.948 670.203 782.135 671.173 783.672 673.113C785.221 675.053 785.996 677.775 785.996 681.277C785.996 684.793 785.208 687.527 783.633 689.48C782.07 691.421 779.896 692.391 777.109 692.391ZM776.641 672.957C774.453 672.957 772.871 673.562 771.895 674.773C770.918 675.984 770.417 677.911 770.391 680.555V681.277C770.391 684.285 770.892 686.44 771.895 687.742C772.897 689.031 774.505 689.676 776.719 689.676C778.568 689.676 780.013 688.927 781.055 687.43C782.109 685.932 782.637 683.868 782.637 681.238C782.637 678.569 782.109 676.525 781.055 675.105C780.013 673.673 778.542 672.957 776.641 672.957ZM794.922 679.441H800.762C803.483 679.441 805.495 679.949 806.797 680.965C808.112 681.967 808.77 683.471 808.77 685.477C808.77 687.625 808.073 689.253 806.68 690.359C805.299 691.453 803.262 692 800.566 692H791.68V670.594H794.922V679.441ZM815.605 692H812.363V670.594H815.605V692ZM794.922 682.234V689.285H800.41C803.848 689.285 805.566 688.081 805.566 685.672C805.566 684.474 805.169 683.602 804.375 683.055C803.581 682.508 802.227 682.234 800.312 682.234H794.922ZM835.938 670.594V684.168L835.801 687.723L835.742 688.836L847.324 670.594H851.367V692H848.34V678.914L848.398 676.336L848.496 673.797L836.934 692H832.891V670.594H835.938ZM865.234 670.594H868.711L873.398 682.801C874.427 685.587 875.065 687.599 875.312 688.836H875.469C875.638 688.172 875.99 687.039 876.523 685.438C877.07 683.823 878.841 678.875 881.836 670.594H885.312L876.113 694.969C875.202 697.378 874.134 699.083 872.91 700.086C871.699 701.102 870.208 701.609 868.438 701.609C867.448 701.609 866.471 701.499 865.508 701.277V698.68C866.224 698.836 867.025 698.914 867.91 698.914C870.137 698.914 871.725 697.664 872.676 695.164L873.867 692.117L865.234 670.594ZM897.344 692.391C894.245 692.391 891.842 691.44 890.137 689.539C888.444 687.625 887.598 684.923 887.598 681.434C887.598 677.853 888.457 675.086 890.176 673.133C891.908 671.18 894.368 670.203 897.559 670.203C898.587 670.203 899.616 670.314 900.645 670.535C901.673 670.757 902.48 671.017 903.066 671.316L902.07 674.07C901.354 673.784 900.573 673.549 899.727 673.367C898.88 673.172 898.132 673.074 897.48 673.074C893.132 673.074 890.957 675.848 890.957 681.395C890.957 684.025 891.484 686.043 892.539 687.449C893.607 688.855 895.182 689.559 897.266 689.559C899.049 689.559 900.879 689.174 902.754 688.406V691.277C901.322 692.02 899.518 692.391 897.344 692.391ZM923.809 692H920.527V673.367H914.102C913.75 678.003 913.262 681.681 912.637 684.402C912.012 687.124 911.198 689.116 910.195 690.379C909.206 691.642 907.943 692.273 906.406 692.273C905.703 692.273 905.143 692.195 904.727 692.039V689.637C905.013 689.715 905.339 689.754 905.703 689.754C907.201 689.754 908.392 688.172 909.277 685.008C910.163 681.844 910.833 677.039 911.289 670.594H923.809V692ZM927.305 670.594H930.781L935.469 682.801C936.497 685.587 937.135 687.599 937.383 688.836H937.539C937.708 688.172 938.06 687.039 938.594 685.438C939.141 683.823 940.911 678.875 943.906 670.594H947.383L938.184 694.969C937.272 697.378 936.204 699.083 934.98 700.086C933.77 701.102 932.279 701.609 930.508 701.609C929.518 701.609 928.542 701.499 927.578 701.277V698.68C928.294 698.836 929.095 698.914 929.98 698.914C932.207 698.914 933.796 697.664 934.746 695.164L935.938 692.117L927.305 670.594ZM963.75 673.367H954.102V692H950.859V670.594H963.75V673.367ZM971.055 670.594V684.168L970.918 687.723L970.859 688.836L982.441 670.594H986.484V692H983.457V678.914L983.516 676.336L983.613 673.797L972.051 692H968.008V670.594H971.055Z" fill="white"/>
<path d="M1147.5 853L1166.99 886.75H1128.01L1147.5 853Z" fill="white"/>
<path d="M1735.5 853L1754.99 886.75H1716.01L1735.5 853Z" fill="white"/>
<defs>
<linearGradient id="paint0_linear" x1="1911" y1="679.976" x2="5" y2="679.998" gradientUnits="userSpaceOnUse">
<stop stop-color="#F30101"/>
<stop offset="0.410127" stop-color="#6A7186"/>
</linearGradient>
</defs>
</svg>
