<svg width="243" height="220" viewBox="0 0 243 220" fill="none" xmlns="http://www.w3.org/2000/svg">
<path d="M222.516 188.75C234.493 184.375 242.687 173.125 242.687 160.625C242.687 146.25 225.037 128.75 219.364 123.125C215.582 119.375 209.279 119.375 205.496 123.125C199.823 128.125 182.173 146.25 182.173 160.625C182.173 173.125 190.368 185 202.345 188.75V200H192.259V194.375C179.652 187.5 172.087 173.75 172.087 160C172.087 146.25 182.804 131.875 192.259 121.875V10C192.259 4.375 187.846 0 182.173 0H60.5143C54.8411 0 50.4286 4.375 50.4286 10V121.875C59.8839 131.875 70.6 146.25 70.6 160C70.6 174.375 63.0357 187.5 50.4286 194.375V200H40.3429V188.125C52.3196 183.75 60.5143 172.5 60.5143 160C60.5143 145.625 42.8643 128.125 37.1911 122.5C33.4089 118.75 27.1054 118.75 23.3232 122.5C17.65 127.5 0 145.625 0 160C0 172.5 8.19464 184.375 20.1714 188.125V200H0V220H242.687V200H222.516V188.75ZM141.2 30H161.371V60H141.2V30ZM141.2 80H161.371V110H141.2V80ZM141.2 130H161.371V160H141.2V130ZM110.943 30H131.114V60H110.943V30ZM110.943 80H131.114V110H110.943V80ZM110.943 130H131.114V160H110.943V130ZM80.6857 30H100.857V60H80.6857V30ZM80.6857 80H100.857V110H80.6857V80ZM80.6857 130H100.857V160H80.6857V130ZM110.943 200V180H131.114V200H110.943Z" fill="white"/>
</svg>
