<svg width="264" height="220" viewBox="0 0 264 220" fill="none" xmlns="http://www.w3.org/2000/svg">
<path d="M262.2 23.7994C261.623 22.6385 260.469 22.058 259.316 22.058C247.778 25.5408 222.972 25.5408 194.127 20.3166C165.86 15.0923 142.207 6.96568 132.4 0C131.247 0 130.093 0 128.939 0.580474C127.785 1.16095 127.208 2.32189 127.208 3.48284L123.747 44.6965C124.901 44.6965 126.055 44.116 126.632 44.116C131.247 44.116 135.285 45.2769 139.323 48.1793C143.361 51.0817 145.669 54.5645 147.399 59.2083C150.284 57.4669 154.322 55.7255 158.36 55.7255C166.437 55.145 173.359 58.6278 173.359 63.2716C173.359 67.9154 167.014 71.9787 158.937 71.9787C154.899 71.9787 151.438 71.3983 149.13 70.2373L154.899 112.031C161.245 105.646 170.475 102.744 179.705 104.485C194.127 106.807 203.934 119.578 203.358 133.509C203.358 133.509 203.358 133.509 203.358 134.089C203.358 134.089 203.358 134.089 202.781 134.089L156.63 125.963L160.091 152.084C160.668 154.406 160.668 156.728 160.668 159.63C163.552 160.791 166.437 161.372 169.898 161.952C201.05 167.176 231.048 148.021 239.125 117.836L262.777 27.2823C263.354 26.1213 262.777 24.9604 262.2 23.7994ZM226.433 78.9444C224.702 83.0077 217.203 84.1687 209.703 81.2663C202.204 78.3639 197.589 71.9787 199.319 67.9154C201.05 63.8521 208.55 62.6911 216.049 65.5935C223.549 68.4959 228.164 74.8811 226.433 78.9444Z" fill="white"/>
<path d="M128.069 65.5942C128.069 64.4332 127.492 63.2723 126.338 62.6918C125.762 62.1113 124.608 62.1113 124.031 62.1113C123.454 62.1113 123.454 62.1113 122.877 62.1113C114.224 69.6575 92.302 78.3646 65.1883 84.1693C47.3048 88.2326 31.1519 89.9741 19.0373 89.9741C12.6915 89.9741 7.49954 89.3936 3.46133 88.2326C2.30755 88.2326 1.15378 89.3936 0.576888 90.5545C0 91.7155 0 92.8764 0 94.0374L26.5368 179.367C34.6133 203.747 57.1119 220 81.918 220C85.9563 220 89.9945 219.42 94.6096 218.839C124.031 212.454 143.645 184.591 140.184 154.987L128.069 65.5942ZM35.767 135.251C35.767 130.607 42.1128 127.124 49.6123 127.124C57.1119 127.124 63.4576 130.607 63.4576 135.251C63.4576 139.895 57.1119 143.378 49.6123 143.378C42.1128 143.378 35.767 139.895 35.767 135.251ZM88.2638 192.137C75.5723 195.04 62.8808 188.074 57.6888 176.465C57.6888 175.884 57.6888 175.304 57.6888 175.304C57.6888 174.723 58.2657 174.723 58.8425 174.723L107.878 163.694C108.455 163.694 109.032 163.694 109.032 164.275C109.609 164.855 109.609 164.855 109.609 165.436C110.186 177.626 101.532 189.235 88.2638 192.137ZM103.263 131.188C96.3402 134.09 88.8407 133.51 87.11 130.027C85.3794 125.963 89.4176 120.159 96.3402 116.676C103.263 113.193 110.762 114.354 112.493 117.837C114.801 122.481 110.762 128.285 103.263 131.188Z" fill="white"/>
</svg>
