<svg width="262" height="220" viewBox="0 0 262 220" fill="none" xmlns="http://www.w3.org/2000/svg">
<path d="M261.034 96.25C261.034 105.13 258.459 113.079 253.31 120.098C248.16 127.116 241.509 132.057 233.355 134.922L233.463 135.889L233.57 137.5C233.57 145.091 230.888 151.572 225.524 156.943C220.16 162.314 213.687 165 206.106 165V206.25C206.106 209.974 204.747 213.197 202.029 215.918C199.311 218.639 196.093 220 192.374 220H164.91C161.047 220 157.793 218.639 155.147 215.918C152.501 213.197 151.177 209.974 151.177 206.25V165C143.596 165 137.123 162.314 131.759 156.943C126.395 151.572 123.713 145.091 123.713 137.5C116.132 137.5 109.659 134.814 104.295 129.443C98.9311 124.072 96.249 117.591 96.249 110C96.249 104.844 97.5722 100.153 100.218 95.9277C102.865 91.7025 106.334 88.3724 110.625 85.9375C101.041 77.7734 96.249 67.4609 96.249 55C96.249 43.5417 100.254 33.8021 108.265 25.7812C116.275 17.7604 126.002 13.75 137.445 13.75C137.874 13.75 138.411 13.7858 139.055 13.8574C139.698 13.929 140.163 13.9648 140.449 13.9648C152.036 4.65495 164.766 0 178.642 0C193.089 0 206.249 5.01302 218.121 15.0391C221.268 14.1797 224.129 13.75 226.704 13.75C236.145 13.75 244.227 17.1159 250.95 23.8477C257.673 30.5794 261.034 38.6719 261.034 48.125C261.034 56.7188 258.102 64.3099 252.237 70.8984C258.102 78.3464 261.034 86.7969 261.034 96.25Z" fill="white"/>
<path d="M132.701 178.75V165C125.12 165 118.647 162.314 113.283 156.943C107.919 151.572 105.237 145.091 105.237 137.5C97.6554 137.5 91.1827 134.814 85.8186 129.443C80.4545 124.072 77.7725 117.591 77.7725 110C77.7725 104.844 79.0956 100.153 81.7419 95.9277C84.3882 91.7025 87.857 88.3724 92.1483 85.9375C82.5644 77.7734 77.7725 67.4609 77.7725 55C77.7725 43.5417 81.7777 33.8021 89.7881 25.7812C96.6829 18.8774 104.849 14.9448 114.288 13.9833L108.378 6.875L106.122 4.61914L104.94 3.54492L103.543 2.4707L102.039 1.50391L100.319 0.644531L98.4929 0.214844L96.3439 0L94.195 0.214844L92.3684 0.644531L90.6492 1.50391L89.1449 2.4707L87.7481 3.54492L86.5662 4.61914L85.3842 5.80078C84.8112 6.3737 84.5247 6.73177 84.5247 6.875L15.758 89.5898C13.7523 92.8841 13.2509 96.3216 14.2538 99.9023C15.2566 103.483 17.4056 106.204 20.7006 108.066C22.5631 109.212 24.8553 109.714 27.5773 109.57V110H34.0242L2.00472 158.34C-0.000976562 161.634 -0.5024 165.072 0.500447 168.652C1.50329 172.233 3.65225 174.954 6.94732 176.816C8.80975 177.819 11.0303 178.392 13.6091 178.535C13.7523 178.535 13.824 178.607 13.824 178.75H68.8373V206.25C68.8373 209.974 70.1983 213.197 72.9203 215.918C75.6423 218.639 78.8657 220 82.5906 220H110.097C113.965 220 117.225 218.639 119.875 215.918C122.525 213.197 123.851 209.974 123.851 206.25V178.75H132.701Z" fill="white"/>
<path d="M187.629 175.558V165C189.382 165 191.075 164.857 192.708 164.57C192.748 165.909 192.575 167.27 192.187 168.652C191.391 171.496 189.872 173.798 187.629 175.558Z" fill="white"/>
</svg>
