<svg width="220" height="220" viewBox="0 0 220 220" fill="none" xmlns="http://www.w3.org/2000/svg">
<path d="M123.32 0C119.758 0 116.875 2.88277 116.875 6.44531V97.1094C116.875 100.672 119.758 103.555 123.32 103.555H213.555C217.117 103.555 220 100.672 220 97.1094C220 43.7972 176.633 0 123.32 0Z" fill="white"/>
<path d="M135.26 205.548L103.984 121.72V32.6562C103.984 29.0937 101.102 26.2109 97.5391 26.2109C44.2269 26.2109 0 69.5784 0 122.891C0 176.203 44.2269 220 97.5391 220C109.209 220 120.633 217.929 131.49 213.85C134.82 212.598 136.507 208.884 135.26 205.548Z" fill="white"/>
<path d="M213.555 116.445H123.32C121.205 116.445 119.229 117.484 118.021 119.221C116.818 120.958 116.542 123.174 117.284 125.156L148.969 210.08C149.573 211.679 150.782 212.975 152.343 213.681C153.905 214.391 155.665 214.451 157.278 213.844C194.792 199.726 220 162.922 220 122.891C220 119.328 217.117 116.445 213.555 116.445Z" fill="white"/>
</svg>
