<svg width="215" height="220" viewBox="0 0 215 220" fill="none" xmlns="http://www.w3.org/2000/svg">
<path d="M214.956 214.09L177.918 3.9403C177.256 1.97015 175.272 0 173.288 0H123.683C122.36 0 121.037 0.656716 120.376 1.31343C119.714 1.97015 119.053 3.28358 119.053 4.59701L120.376 55.1642H95.9037L97.2265 4.59701C97.2265 3.28358 96.5651 1.97015 95.9037 1.31343C94.5808 0.656716 93.258 0 91.9352 0H42.3299C39.6843 0 37.7001 1.97015 37.7001 3.9403L0 214.09C0 215.403 0 216.716 1.32281 218.03C1.98421 219.343 3.30702 220 5.29124 220H87.3054C89.951 220 91.9352 218.03 91.9352 215.403L92.5966 164.179H122.36L123.683 214.746C123.683 217.373 125.667 219.343 128.312 219.343H210.327C211.649 219.343 212.972 218.687 214.295 217.373C214.956 216.716 214.956 215.403 214.956 214.09ZM93.258 147.761L95.2422 72.2388H120.376L122.36 147.761H93.258Z" fill="white"/>
</svg>
