<svg width="198" height="220" viewBox="0 0 198 220" fill="none" xmlns="http://www.w3.org/2000/svg">
<path d="M172.572 220L119.085 206.626L124.283 191.03L177.771 204.404L172.572 220ZM172.184 195.163L133.204 185.42V175.068C133.204 164.089 137.984 153.691 146.323 146.544L158.517 136.093C159.084 135.609 159.495 134.966 159.7 134.251L165.512 113.905C166.106 111.823 168.031 110.369 170.197 110.369C172.884 110.369 175.068 112.554 175.068 115.241C175.068 116.748 174.882 118.251 174.517 119.716L167.571 147.506L174.954 149.349L181.9 121.562C182.417 119.496 182.68 117.372 182.68 115.241C182.68 111.343 180.846 107.899 178.037 105.608L175.323 78.4649C175.152 76.7827 175.068 75.0701 175.068 73.3765C175.068 70.6895 177.253 68.505 179.94 68.505C182.102 68.505 184.031 69.9588 184.625 72.0368L195.323 109.49C197.036 115.48 197.903 121.672 197.903 127.899C197.903 138.251 195.456 148.614 190.828 157.874L172.184 195.163Z" fill="white"/>
<path d="M7.07505 157.874C2.44715 148.618 0 138.251 0 127.899C0 121.669 0.86773 115.477 2.58036 109.486L13.2786 72.0368C13.8723 69.9588 15.798 68.505 17.9635 68.505C20.6505 68.505 22.835 70.6895 22.835 73.3765C22.835 75.0663 22.7513 76.7827 22.58 78.4649L19.8665 105.608C17.0577 107.899 15.2233 111.343 15.2233 115.241C15.2233 117.372 15.4859 119.496 16.0035 121.558L22.9492 149.349L30.3325 147.506L23.3869 119.712C23.0215 118.251 22.835 116.752 22.835 115.241C22.835 112.554 25.0196 110.369 27.7065 110.369C29.8682 110.369 31.7977 111.823 32.3915 113.901L38.203 134.251C38.4085 134.966 38.8195 135.609 39.3866 136.093L51.5805 146.544C59.919 153.691 64.6992 164.089 64.6992 175.068V185.42L25.7198 195.163L7.07505 157.874ZM25.3316 220L20.1329 204.404L73.62 191.03L78.8188 206.626L25.3316 220Z" fill="white"/>
<path d="M98.9517 112.858L79.9225 95.7319V87.5342C79.9225 77.0415 88.459 68.505 98.9517 68.505C109.444 68.505 117.981 77.0415 117.981 87.5342V95.7319L98.9517 112.858ZM87.5342 49.4758C87.5342 43.181 92.6568 38.0583 98.9517 38.0583C105.247 38.0583 110.369 43.181 110.369 49.4758C110.369 55.7707 105.247 60.8933 98.9517 60.8933C92.6568 60.8933 87.5342 55.7707 87.5342 49.4758ZM125.593 88.8814V87.5342C125.593 77.266 119.743 68.3528 111.21 63.9076C115.317 60.4138 117.981 55.2759 117.981 49.4758C117.981 38.9832 109.444 30.4467 98.9517 30.4467C88.459 30.4467 79.9225 38.9832 79.9225 49.4758C79.9225 55.2759 82.5866 60.4138 86.6931 63.9076C78.1604 68.3528 72.3108 77.266 72.3108 87.5342V88.8814L37.5826 57.6241C30.6294 51.3673 26.6408 42.416 26.6408 33.0575C26.6408 14.8275 41.4684 0 59.6983 0C69.2662 0 78.267 3.72591 85.0376 10.4965L96.261 21.7199C97.749 23.208 100.154 23.208 101.642 21.7199L112.866 10.4965C119.636 3.72591 128.637 0 138.205 0C156.435 0 171.263 14.8275 171.263 33.0575C171.263 42.416 167.274 51.3711 160.321 57.6279L125.593 88.8814Z" fill="white"/>
</svg>
