<svg width="186" height="220" viewBox="0 0 186 220" fill="none" xmlns="http://www.w3.org/2000/svg">
<path d="M0 161.877V46.1728C0 36.3951 2.26337 28.3374 6.79012 22C11.3169 15.6626 18.1975 10.9547 27.4321 7.87654C36.6667 4.79835 46.2634 2.71605 56.2222 1.62963C66.1811 0.54321 78.3128 0 92.6173 0C106.922 0 119.054 0.54321 129.012 1.62963C138.971 2.71605 148.568 4.79835 157.802 7.87654C167.037 10.9547 173.918 15.6626 178.444 22C182.971 28.3374 185.235 36.3951 185.235 46.1728V161.877C185.235 172.016 181.432 180.708 173.827 187.951V208.593C173.827 211.49 172.65 214.115 170.296 216.469C167.942 218.823 165.317 220 162.42 220H150.469C147.572 220 144.947 218.823 142.593 216.469C140.239 214.115 139.062 211.49 139.062 208.593V196.642H46.1728V208.593C46.1728 211.49 45.0864 214.115 42.9136 216.469C40.7407 218.823 38.0247 220 34.7654 220H23.358C20.0988 220 17.2922 218.823 14.9383 216.469C12.5844 214.115 11.4074 211.49 11.4074 208.593V187.951C3.80247 180.708 0 172.016 0 161.877ZM40.4691 173.827C45.358 173.827 49.5226 172.107 52.963 168.667C56.4033 165.226 58.1235 161.062 58.1235 156.173C58.1235 151.284 56.4033 147.21 52.963 143.951C49.5226 140.691 45.358 139.062 40.4691 139.062C35.5802 139.062 31.5062 140.691 28.2469 143.951C24.9877 147.21 23.358 151.284 23.358 156.173C23.358 161.062 24.9877 165.226 28.2469 168.667C31.5062 172.107 35.5802 173.827 40.4691 173.827ZM144.765 173.827C149.654 173.827 153.819 172.107 157.259 168.667C160.7 165.226 162.42 161.062 162.42 156.173C162.42 151.284 160.7 147.21 157.259 143.951C153.819 140.691 149.654 139.062 144.765 139.062C139.877 139.062 135.802 140.691 132.543 143.951C129.284 147.21 127.654 151.284 127.654 156.173C127.654 161.062 129.284 165.226 132.543 168.667C135.802 172.107 139.877 173.827 144.765 173.827ZM162.42 104.296V46.1728H23.358V104.296H162.42Z" fill="white"/>
</svg>
