<svg width="231" height="220" viewBox="0 0 231 220" fill="none" xmlns="http://www.w3.org/2000/svg">
<path d="M30.1433 0C22.1488 0 14.4817 3.18705 8.82877 8.86002C3.1758 14.533 0 22.2272 0 30.25V123.75C0 131.773 3.1758 139.467 8.82877 145.14C14.4817 150.813 22.1488 154 30.1433 154H137.015V121C137.015 112.002 141.323 104.016 147.976 99V88C147.976 80.7065 150.863 73.7118 156.002 68.5546C161.141 63.3973 168.111 60.5 175.379 60.5H208.263C212.165 60.5 215.87 61.314 219.224 62.788V30.25C219.224 22.2272 216.048 14.533 210.395 8.86002C204.742 3.18705 197.075 0 189.081 0H30.1433ZM41.1045 170.5H139.766C140.27 171.545 140.84 172.557 141.487 173.536L150.256 187H41.1045C38.9242 187 36.8332 186.131 35.2914 184.584C33.7497 183.036 32.8836 180.938 32.8836 178.75C32.8836 176.562 33.7497 174.464 35.2914 172.916C36.8332 171.369 38.9242 170.5 41.1045 170.5ZM169.899 187L155.243 164.505C154.078 162.716 153.457 160.625 153.457 158.488V121C153.457 118.083 154.612 115.285 156.667 113.222C158.723 111.159 161.511 110 164.418 110V88C164.418 85.0826 165.573 82.2847 167.628 80.2218C169.684 78.1589 172.472 77 175.379 77H208.263C211.17 77 213.958 78.1589 216.014 80.2218C218.069 82.2847 219.224 85.0826 219.224 88V110C222.131 110 224.919 111.159 226.975 113.222C229.03 115.285 230.185 118.083 230.185 121V158.84C230.187 161.008 229.55 163.128 228.355 164.934L213.743 187V209C213.743 211.917 212.589 214.715 210.533 216.778C208.477 218.841 205.689 220 202.782 220H180.86C177.953 220 175.165 218.841 173.109 216.778C171.053 214.715 169.899 211.917 169.899 209V187ZM180.86 93.5V110H202.782V93.5H180.86Z" fill="white"/>
</svg>
