<svg width="193" height="240" viewBox="0 0 193 240" fill="none" xmlns="http://www.w3.org/2000/svg">
<path d="M78.4605 131.273H66.4284C56.4418 131.273 48.3803 123.179 48.3803 113.152C48.3803 103.125 56.4418 95.0307 66.4284 95.0307H78.4605V82.9499C78.4605 72.9229 86.522 64.8288 96.5086 64.8288C106.495 64.8288 114.557 72.9229 114.557 82.9499V95.0307H126.589C136.575 95.0307 144.637 103.125 144.637 113.152C144.637 123.179 136.575 131.273 126.589 131.273H114.557V143.354C114.557 153.381 106.495 161.475 96.5086 161.475C86.522 161.475 78.4605 153.381 78.4605 143.354V131.273ZM88.0862 1.52552L15.8937 28.7073C6.50864 32.3315 0.251953 41.2713 0.251953 51.4191V108.199C0.251953 169.207 41.2814 226.107 96.5086 240C151.736 226.107 192.765 169.207 192.765 108.199V51.4191C192.757 46.503 191.255 41.7064 188.46 37.6698C185.665 33.6332 181.71 30.5487 177.124 28.8281L104.931 1.64633C99.5167 -0.52821 93.5006 -0.52821 88.0862 1.52552Z" fill="white"/>
</svg>
