<svg width="237" height="220" viewBox="0 0 237 220" fill="none" xmlns="http://www.w3.org/2000/svg">
<path d="M232.294 99.4199L196.488 63.6136V22.2513C196.488 14.7724 190.427 8.7114 182.937 8.7114C175.464 8.7114 169.404 14.7724 169.404 22.2513V36.5304L142.743 9.86885C129.562 -3.30527 106.644 -3.2819 93.4929 9.8927L3.96383 99.4199C-1.32128 104.715 -1.32128 113.284 3.96383 118.572C9.25131 123.866 17.8366 123.866 23.1222 118.572L112.643 29.042C115.559 26.141 120.699 26.141 123.6 29.0334L213.136 118.572C215.791 121.219 219.252 122.536 222.713 122.536C226.18 122.536 229.647 121.217 232.294 118.572C237.581 113.285 237.581 104.716 232.294 99.4199Z" fill="white"/>
<path d="M122.833 54.744C120.232 52.1444 116.02 52.1444 113.427 54.744L34.6767 133.471C33.4334 134.713 32.7286 136.41 32.7286 138.181V195.601C32.7286 209.075 43.6536 220 57.1272 220H96.1164V159.619H140.135V220H179.124C192.597 220 203.522 209.075 203.522 195.602V138.181C203.522 136.41 202.824 134.713 201.574 133.471L122.833 54.744Z" fill="white"/>
</svg>
