<svg width="56" height="43" viewBox="0 0 56 43" fill="none" xmlns="http://www.w3.org/2000/svg">
<g clip-path="url(#clip0)">
<path d="M8.56461 0C8.03755 0 7.51049 0.264615 7.11519 0.529231C6.7199 0.926154 6.58813 1.45538 6.58813 1.98462V32.1508C6.58813 33.2092 7.51049 34.1354 8.56461 34.1354C13.1764 34.1354 21.0823 35.1938 26.4846 40.7508V9.26154C26.4846 8.86462 26.3528 8.46769 26.2211 8.20308C21.7411 1.05846 13.3081 0 8.56461 0Z" fill="#8A0000"/>
<path d="M49.5436 32.2831V1.98462C49.5436 1.45538 49.2801 0.926154 49.0166 0.529231C48.4895 0.264615 47.9624 0 47.4354 0C42.8236 0 34.2589 1.05846 29.7789 8.33539C29.6471 8.6 29.5154 8.99692 29.5154 9.39385V41.0154C34.9177 35.3262 42.6919 34.4 47.4354 34.4C48.6213 34.2677 49.5436 33.3415 49.5436 32.2831Z" fill="#8A0000"/>
<path d="M54.0236 7.01233H52.5742V32.2831C52.5742 35.0616 50.3342 37.4431 47.4354 37.4431C43.4825 37.4431 36.8942 38.2369 32.2825 42.6031C40.3201 40.6185 48.7531 41.9416 53.4966 43C54.0236 43.1323 54.6825 43 55.2095 42.6031C55.7366 42.2062 56.0001 41.6769 56.0001 41.0154V8.99694C56.1319 7.80618 55.2095 7.01233 54.0236 7.01233Z" fill="#8A0000"/>
<path d="M3.42588 32.2831V7.01233H1.97647C0.922353 7.01233 0 7.80618 0 8.99694V41.0154C0 41.6769 0.263529 42.2062 0.790588 42.6031C1.31765 43 1.84471 43.1323 2.50353 43C7.37882 41.9416 15.68 40.6185 23.7176 42.6031C19.1059 38.2369 12.5176 37.4431 8.56471 37.4431C5.79765 37.3108 3.42588 35.0616 3.42588 32.2831Z" fill="#8A0000"/>
</g>
<defs>
<clipPath id="clip0">
<rect width="56" height="43" fill="white"/>
</clipPath>
</defs>
</svg>
