<svg width="59" height="50" viewBox="0 0 59 50" fill="none" xmlns="http://www.w3.org/2000/svg">
<path d="M58.8689 5.54094C58.7378 5.27709 58.4756 5.14517 58.2133 5.14517C55.5911 5.93672 49.9533 5.93672 43.3978 4.74939C36.9733 3.56205 31.5978 1.71509 29.3689 0.131973C29.1067 0.131973 28.8444 0.131973 28.5822 0.263899C28.32 0.395826 28.1889 0.659678 28.1889 0.92353L27.4022 10.2903C27.6644 10.2903 27.9267 10.1584 28.0578 10.1584C29.1067 10.1584 30.0244 10.4222 30.9422 11.0818C31.86 11.7415 32.3844 12.533 32.7778 13.5884C33.4333 13.1927 34.3511 12.7969 35.2689 12.7969C37.1044 12.665 38.6778 13.4565 38.6778 14.5119C38.6778 15.5673 37.2356 16.4908 35.4 16.4908C34.4822 16.4908 33.6956 16.3589 33.1711 16.095L34.4822 25.5937C35.9244 24.1425 38.0222 23.4829 40.12 23.8787C43.3978 24.4064 45.6267 27.3088 45.4956 30.475C45.4956 30.475 45.4956 30.475 45.4956 30.6069C45.4956 30.6069 45.4956 30.6069 45.3644 30.6069L34.8756 28.7599L35.6622 34.6966C35.7933 35.2243 35.7933 35.752 35.7933 36.4117C36.4489 36.6755 37.1044 36.8074 37.8911 36.9394C44.9711 38.1267 51.7889 33.7731 53.6244 26.913L59 6.3325C59.1311 6.06865 59 5.8048 58.8689 5.54094ZM50.74 18.0739C50.3467 18.9974 48.6422 19.2613 46.9378 18.6016C45.2333 17.942 44.1844 16.4908 44.5778 15.5673C44.9711 14.6438 46.6756 14.38 48.38 15.0396C50.0844 15.6993 51.1333 17.1504 50.74 18.0739Z" fill="#8A0000"/>
<path d="M29.1067 15.0396C29.1067 14.7758 28.9756 14.5119 28.7133 14.38C28.5822 14.248 28.32 14.248 28.1889 14.248C28.0578 14.248 28.0578 14.248 27.9267 14.248C25.96 15.9631 20.9778 17.942 14.8156 19.2612C10.7511 20.1847 7.08 20.5805 4.32667 20.5805C2.88444 20.5805 1.70444 20.4486 0.786667 20.1847C0.524444 20.1847 0.262222 20.4486 0.131111 20.7124C0 20.9763 0 21.2401 0 21.504L6.03111 40.8971C7.86667 46.438 12.98 50.132 18.6178 50.132C19.5356 50.132 20.4533 50 21.5022 49.8681C28.1889 48.4169 32.6467 42.0845 31.86 35.3562L29.1067 15.0396ZM8.12889 30.8707C8.12889 29.8153 9.57111 29.0238 11.2756 29.0238C12.98 29.0238 14.4222 29.8153 14.4222 30.8707C14.4222 31.9261 12.98 32.7177 11.2756 32.7177C9.57111 32.7177 8.12889 31.9261 8.12889 30.8707ZM20.06 43.7995C17.1756 44.4591 14.2911 42.876 13.1111 40.2375C13.1111 40.1056 13.1111 39.9736 13.1111 39.9736C13.1111 39.8417 13.2422 39.8417 13.3733 39.8417L24.5178 37.3351C24.6489 37.3351 24.78 37.3351 24.78 37.467C24.9111 37.599 24.9111 37.599 24.9111 37.7309C25.0422 40.5013 23.0756 43.1399 20.06 43.7995ZM23.4689 29.9473C21.8956 30.6069 20.1911 30.475 19.7978 29.6834C19.4044 28.7599 20.3222 27.4407 21.8956 26.6491C23.4689 25.8575 25.1733 26.1214 25.5667 26.913C26.0911 27.9684 25.1733 29.2876 23.4689 29.9473Z" fill="#8A0000"/>
</svg>
