<svg width="27" height="33" viewBox="0 0 27 33" fill="none" xmlns="http://www.w3.org/2000/svg">
<g clip-path="url(#clip0)">
<path d="M13.2989 15.8958C15.4403 15.8958 17.2972 15.1143 18.8143 13.5674C20.3314 12.0205 21.0979 10.1353 21.0979 7.94385C21.0979 5.7605 20.3314 3.86719 18.8143 2.32031C17.2972 0.781494 15.4403 0 13.2989 0C11.1576 0 9.3007 0.781494 7.78358 2.32837C6.26646 3.87524 5.5 5.7605 5.5 7.94385C5.5 10.1272 6.26646 12.0205 7.78358 13.5674C9.3007 15.1143 11.1576 15.8958 13.2989 15.8958Z" fill="#01F859"/>
<path d="M26.9368 25.3784C26.8894 24.7339 26.8025 24.033 26.676 23.2917C26.5417 22.5425 26.3758 21.8416 26.1703 21.197C25.9649 20.5283 25.6804 19.8757 25.3248 19.2393C24.9614 18.5867 24.5347 18.0146 24.0527 17.5474C23.547 17.0559 22.9306 16.6611 22.2195 16.3711C21.5083 16.0811 20.7261 15.936 19.8806 15.936C19.5487 15.936 19.2327 16.073 18.6163 16.4839C18.237 16.7336 17.7946 17.0317 17.2968 17.354C16.8701 17.6279 16.3011 17.8857 15.59 18.1194C14.8946 18.345 14.1914 18.4658 13.504 18.4658C12.8086 18.4658 12.1054 18.353 11.4179 18.1194C10.7068 17.8857 10.1378 17.6279 9.71115 17.354C9.22125 17.0317 8.77875 16.7417 8.39157 16.4839C7.77524 16.073 7.45917 15.936 7.1273 15.936C6.28183 15.936 5.49956 16.0811 4.78841 16.3711C4.07726 16.6611 3.46093 17.0559 2.95522 17.5474C2.47322 18.0146 2.04653 18.5867 1.68306 19.2393C1.33538 19.8677 1.05092 20.5283 0.837577 21.197C0.632133 21.8416 0.466198 22.5505 0.33187 23.2917C0.197542 24.033 0.110623 24.7339 0.0632133 25.3784C0.023705 26.0068 0 26.6675 0 27.3281C0 29.0522 0.537314 30.446 1.59614 31.4773C2.63916 32.4924 4.02985 33.0081 5.71291 33.0081H21.295C22.9781 33.0081 24.3608 32.4924 25.4118 31.4773C26.4706 30.446 27.0079 29.0522 27.0079 27.3281C27 26.6594 26.9763 26.0068 26.9368 25.3784Z" fill="#01F859"/>
</g>
<defs>
<clipPath id="clip0">
<rect width="27" height="33" fill="white"/>
</clipPath>
</defs>
</svg>
