<svg width="46" height="50" viewBox="0 0 46 50" fill="none" xmlns="http://www.w3.org/2000/svg">
<path d="M22.2657 49.9999H18.3594C16.4063 49.9999 14.8438 48.4374 14.8438 46.4843V22.2655C14.8438 20.3124 16.4063 18.7499 18.3594 18.7499H22.2657C24.2188 18.7499 25.7813 20.3124 25.7813 22.2655V46.4843C25.7813 48.4374 24.2188 49.9999 22.2657 49.9999Z" fill="#8A0000"/>
<path d="M7.42194 49.9999H3.51569C1.56256 49.9999 6.10352e-05 48.4374 6.10352e-05 46.4843V30.078C6.10352e-05 28.1249 1.56256 26.5624 3.51569 26.5624H7.42194C9.37506 26.5624 10.9376 28.1249 10.9376 30.078V46.4843C10.9376 48.4374 9.37506 49.9999 7.42194 49.9999Z" fill="#8A0000"/>
<path d="M37.1094 50H33.2032C31.2501 50 29.6875 48.4375 29.6875 46.4844V14.0625H27.6042C26.5626 14.0625 25.7813 13.5417 25.2605 12.6302C24.7396 11.7188 25.0001 10.6771 25.6511 9.89586L33.9844 0.520864C34.2448 0.130239 34.6355 3.05176e-05 35.1563 3.05176e-05C35.5469 3.05176e-05 36.0678 0.130239 36.3282 0.520864L44.6615 9.89586C45.3125 10.6771 45.4428 11.7188 45.0521 12.6302C44.6615 13.5417 43.75 14.0625 42.7084 14.0625H40.6251V46.4844C40.6251 48.4375 39.0625 50 37.1094 50Z" fill="#8A0000"/>
</svg>
