<svg width="50" height="50" viewBox="0 0 50 50" fill="none" xmlns="http://www.w3.org/2000/svg">
<path d="M45.6806 17.5853H4.4502V22.0473H45.6806V17.5853Z" fill="#8A0000"/>
<path d="M50 45.5381H0V50H50V45.5381Z" fill="#8A0000"/>
<path d="M10.3402 24.9343H4.4502V35.3018H10.3402V24.9343Z" fill="#8A0000"/>
<path d="M10.3402 38.1891H4.4502V42.651H10.3402V38.1891Z" fill="#8A0000"/>
<path d="M22.1205 38.1891H16.2305V42.651H22.1205V38.1891Z" fill="#8A0000"/>
<path d="M22.1205 24.9343H16.2305V35.3018H22.1205V24.9343Z" fill="#8A0000"/>
<path d="M33.7697 38.1891H27.8796V42.651H33.7697V38.1891Z" fill="#8A0000"/>
<path d="M33.7697 24.9343H27.8796V35.3018H33.7697V24.9343Z" fill="#8A0000"/>
<path d="M45.5497 38.1891H39.6597V42.651H45.5497V38.1891Z" fill="#8A0000"/>
<path d="M45.5497 24.9343H39.6597V35.3018H45.5497V24.9343Z" fill="#8A0000"/>
<path d="M25 0L0 10.6299V14.5669H50V10.6299L25 0ZM26.4398 10.105H23.5602V7.21785H26.4398V10.105Z" fill="#8A0000"/>
</svg>
