<svg width="55" height="50" viewBox="0 0 55 50" fill="none" xmlns="http://www.w3.org/2000/svg">
<path d="M50.4286 42.7762C53.1429 41.7847 55.0001 39.2351 55.0001 36.4023C55.0001 33.1445 51.0001 29.1785 49.7143 27.9037C48.8572 27.0538 47.4286 27.0538 46.5715 27.9037C45.2858 29.0368 41.2858 33.1445 41.2858 36.4023C41.2858 39.2351 43.1429 41.9263 45.8572 42.7762V45.3258H43.5715V44.051C40.7143 42.4929 39.0001 39.3768 39.0001 36.2606C39.0001 33.1445 41.4286 29.8867 43.5715 27.6204V2.26629C43.5715 0.991502 42.5715 0 41.2858 0H13.7143C12.4286 0 11.4286 0.991502 11.4286 2.26629V27.6204C13.5715 29.8867 16.0001 33.1445 16.0001 36.2606C16.0001 39.5184 14.2858 42.4929 11.4286 44.051V45.3258H9.14292V42.6346C11.8572 41.6431 13.7143 39.0935 13.7143 36.2606C13.7143 33.0028 9.71435 29.0368 8.42863 27.762C7.57149 26.9122 6.14292 26.9122 5.28578 27.762C4.00006 28.8952 6.10352e-05 33.0028 6.10352e-05 36.2606C6.10352e-05 39.0935 1.8572 41.7847 4.57149 42.6346V45.3258H6.10352e-05V49.8584H55.0001V45.3258H50.4286V42.7762ZM32.0001 6.79887H36.5715V13.5977H32.0001V6.79887ZM32.0001 18.1303H36.5715V24.9292H32.0001V18.1303ZM32.0001 29.4618H36.5715V36.2606H32.0001V29.4618ZM25.1429 6.79887H29.7143V13.5977H25.1429V6.79887ZM25.1429 18.1303H29.7143V24.9292H25.1429V18.1303ZM25.1429 29.4618H29.7143V36.2606H25.1429V29.4618ZM18.2858 6.79887H22.8572V13.5977H18.2858V6.79887ZM18.2858 18.1303H22.8572V24.9292H18.2858V18.1303ZM18.2858 29.4618H22.8572V36.2606H18.2858V29.4618ZM25.1429 45.3258V40.7932H29.7143V45.3258H25.1429Z" fill="#8A0000"/>
</svg>
