<svg width="60" height="51" viewBox="0 0 60 51" fill="none" xmlns="http://www.w3.org/2000/svg">
<path d="M8.62859 27.8831H13.1782C12.7076 29.1409 12.5507 30.556 12.5507 31.9711V49.1094C12.5507 49.7383 12.5507 50.3673 12.8644 50.839H5.17716C2.35325 50.839 0 48.4805 0 45.8075V36.3736C0 31.6566 3.92209 27.8831 8.62859 27.8831Z" fill="#8A0000"/>
<path d="M47.2219 49.1094V31.9711C47.2219 30.556 46.9082 29.1409 46.4375 27.8831H50.9871C55.6936 27.8831 59.6157 31.6566 59.6157 36.3736V45.8075C59.6157 48.6377 57.2625 50.839 54.4386 50.839H46.7513C47.065 50.3673 47.2219 49.7383 47.2219 49.1094Z" fill="#8A0000"/>
<path d="M42.0449 50.8388H17.7279C16.7866 50.8388 16.0022 50.0526 16.0022 49.1092V31.9709C16.0022 27.2539 19.9243 23.4803 24.6308 23.4803H35.142C39.8485 23.4803 43.7706 27.2539 43.7706 31.9709V49.1092C43.7706 50.0526 42.9862 50.8388 42.0449 50.8388Z" fill="#8A0000"/>
<path d="M24.7877 20.0215C21.65 18.2919 19.4536 14.99 19.4536 11.0592C19.4536 5.39885 24.1601 0.839111 29.8079 0.839111C35.4557 0.839111 40.1622 5.39885 40.1622 11.0592C40.1622 14.8328 37.9659 18.1347 34.8282 20.0215C33.2594 20.8076 31.5336 21.2793 29.8079 21.2793C28.0822 21.4365 26.1996 20.9649 24.7877 20.0215Z" fill="#8A0000"/>
<path d="M41.2604 21.7511C40.6329 20.6505 40.3191 19.3927 40.3191 18.1348C40.3191 13.8895 43.7705 10.4304 48.0064 10.4304C52.2422 10.4304 55.6937 13.8895 55.6937 18.1348C55.6937 22.3801 52.2422 25.8392 48.0064 25.8392C46.9082 25.8392 45.81 25.682 45.0256 25.2103C43.2999 24.4241 42.0448 23.1662 41.2604 21.7511Z" fill="#8A0000"/>
<path d="M14.7472 25.2103C13.8059 25.682 12.7077 25.8392 11.7664 25.8392C7.53054 25.8392 4.0791 22.3801 4.0791 18.1348C4.0791 13.8895 7.37366 10.4304 11.6095 10.4304C15.8454 10.4304 19.2968 13.8895 19.2968 18.1348C19.2968 19.3927 18.983 20.6505 18.3555 21.7511C17.728 23.1662 16.316 24.4241 14.7472 25.2103Z" fill="#8A0000"/>
</svg>
