<svg width="49" height="51" viewBox="0 0 49 51" fill="none" xmlns="http://www.w3.org/2000/svg">
<path d="M49.0001 48.8024L40.557 0.898204C40.4062 0.449102 39.9539 0 39.5016 0H28.1939C27.8924 0 27.5908 0.149701 27.4401 0.299401C27.2893 0.449102 27.1385 0.748503 27.1385 1.0479L27.4401 12.5748H21.8616L22.1631 1.0479C22.1631 0.748503 22.0124 0.449102 21.8616 0.299401C21.5601 0.149701 21.2585 0 20.957 0H9.64929C9.04622 0 8.59391 0.449102 8.59391 0.898204L6.10352e-05 48.8024C6.10352e-05 49.1018 6.10352e-05 49.4012 0.3016 49.7006C0.452369 50 0.753907 50.1497 1.20621 50.1497H19.9016C20.5047 50.1497 20.957 49.7006 20.957 49.1018L21.1078 37.4251H27.8924L28.1939 48.9521C28.1939 49.5509 28.6462 50 29.2493 50H47.9447C48.2462 50 48.5478 49.8503 48.8493 49.5509C49.0001 49.4012 49.0001 49.1018 49.0001 48.8024ZM21.2585 33.6826L21.7108 16.4671H27.4401L27.8924 33.6826H21.2585Z" fill="#8A0000"/>
</svg>
