<svg width="50" height="50" viewBox="0 0 50 50" fill="none" xmlns="http://www.w3.org/2000/svg">
<g clip-path="url(#clip0)">
<path d="M37.1795 11.6411C37.1795 12.4103 36.5385 13.0513 35.7693 13.0513C35 13.0513 34.359 12.4103 34.359 11.6411C34.359 10.8719 35 10.2308 35.7693 10.2308C36.5385 10.2308 37.1795 10.8719 37.1795 11.6411Z" fill="#8A0000"/>
<path d="M40.6411 -1.05125C40.6411 -0.282017 40 0.35901 39.2308 0.35901C38.4616 0.35901 37.8206 -0.282017 37.8206 -1.05125C37.8206 -1.82048 38.4616 -2.4615 39.2308 -2.4615C40 -2.58971 40.6411 -1.82048 40.6411 -1.05125Z" fill="#8A0000"/>
<path d="M15.7692 11.6411C15.7692 12.4103 15.1282 13.0513 14.359 13.0513C13.5898 13.0513 12.9487 12.4103 12.9487 11.6411C12.9487 10.8719 13.5898 10.2308 14.359 10.2308C15.1282 10.2308 15.7692 10.8719 15.7692 11.6411Z" fill="#8A0000"/>
<path d="M12.3077 -1.05117C12.3077 -0.281939 11.6667 0.359087 10.8975 0.359087C10.1282 0.359087 9.35901 -0.281939 9.35901 -1.05117C9.35901 -1.8204 10 -2.46143 10.7693 -2.46143C11.5385 -2.46143 12.3077 -1.8204 12.3077 -1.05117Z" fill="#8A0000"/>
<path d="M47.1795 0.102661C44.7436 0.102661 42.6923 1.89753 42.1795 4.20522L40.3846 14.4616C41.6667 14.718 42.8205 15.3591 43.7179 16.2565C46.282 18.8206 46.282 23.0514 43.7179 25.6155L36.9231 32.4104C36.4102 32.9232 35.3846 32.9232 34.8718 32.4104C34.359 31.8975 34.359 30.8719 34.8718 30.3591L41.6667 23.5642C43.0769 22.1539 43.0769 19.8463 41.6667 18.436C41.1538 17.9232 40.5128 17.6668 39.8718 17.4104C38.7179 17.1539 37.4359 17.4104 36.4102 18.436L29.2308 25.6155C27.4359 27.4104 26.5385 29.718 26.5385 32.1539V44.5898C26.5385 45.3591 27.1795 46.0001 27.9487 46.0001H40.641C41.4102 46.0001 42.0513 45.3591 42.0513 44.5898V34.077L47.6923 28.436C49.1026 27.0257 49.8718 25.2309 49.8718 23.3078V2.92317C50 1.38471 48.7179 0.102661 47.1795 0.102661Z" fill="#8A0000"/>
<path d="M20.7692 25.6155L13.5897 18.436C12.6923 17.5386 11.4103 17.1539 10.1282 17.4104C9.48718 17.5386 8.84615 17.9232 8.33333 18.436C6.92308 19.8463 6.92308 22.1539 8.33333 23.5642L15.1282 30.3591C15.641 30.8719 15.641 31.8975 15.1282 32.4104C14.6154 32.9232 13.5897 32.9232 13.0769 32.4104L6.28205 25.6155C3.71795 23.0514 3.71795 18.8206 6.28205 16.2565C7.17949 15.3591 8.33333 14.718 9.61539 14.4616L7.82051 4.20523C7.4359 1.89753 5.38462 0.102661 2.82051 0.102661C1.28205 0.102661 0 1.38471 0 2.92317V23.1796C0 25.1027 0.769231 27.0257 2.17949 28.3078L7.82051 33.9488V44.4616C7.82051 45.2309 8.46154 45.8719 9.23077 45.8719H21.9231C22.6923 45.8719 23.3333 45.2309 23.3333 44.4616V32.0257C23.4615 29.718 22.4359 27.4104 20.7692 25.6155Z" fill="#8A0000"/>
<path d="M31.0257 17.5385C30.7693 17.5385 30.5129 17.5385 30.3847 17.4103L25.0001 14.5897L19.6154 17.4103C19.1026 17.6667 18.4616 17.6667 18.077 17.2821C17.5642 16.8974 17.4359 16.3846 17.4359 15.8718L18.4616 9.84615L14.1026 5.61538C13.718 5.23077 13.5898 4.58974 13.718 4.07692C13.8462 3.5641 14.359 3.17949 14.8718 3.05128L20.8975 2.15385L23.5898 -3.23077C23.8462 -3.74359 24.359 -4 24.8718 -4C25.3847 -4 25.8975 -3.74359 26.1539 -3.23077L28.8462 2.15385L34.8718 3.05128C35.3847 3.17949 35.8975 3.5641 36.0257 4.07692C36.1539 4.58974 36.0257 5.23077 35.6411 5.61538L31.2821 9.84615L32.3077 15.8718C32.4359 16.3846 32.1795 17.0256 31.6667 17.2821C31.6667 17.4103 31.4103 17.5385 31.0257 17.5385Z" fill="#8A0000"/>
<path d="M26.5384 20.4872C26.5384 21.2564 25.8974 21.8974 25.1282 21.8974C24.3589 21.8974 23.7179 21.2564 23.7179 20.4872C23.7179 19.7179 24.3589 19.0769 25.1282 19.0769C25.8974 19.0769 26.5384 19.5897 26.5384 20.4872Z" fill="#8A0000"/>
</g>
<defs>
<clipPath id="clip0">
<rect width="50" height="50" fill="white"/>
</clipPath>
</defs>
</svg>
