<svg width="49" height="46" viewBox="0 0 49 46" fill="none" xmlns="http://www.w3.org/2000/svg">
<path d="M38.0427 15.5918H44.5679V40.306H38.0427V15.5918Z" fill="#6AA3C2"/>
<path d="M29.6709 15.5918H36.0729V40.306H29.6709V15.5918Z" fill="#6AA3C2"/>
<path d="M48.0152 9.78878L24.8079 0L1.60059 9.78878V13.6655H48.0152V9.78878ZM24.7709 11.1456C22.678 11.1456 20.979 9.47379 20.979 7.41427C20.979 5.35475 22.678 3.68291 24.7709 3.68291C26.8639 3.68291 28.5629 5.35475 28.5629 7.41427C28.5752 9.47379 26.8762 11.1456 24.7709 11.1456Z" fill="#6AA3C2"/>
<path d="M24.771 9.20708C25.7773 9.20708 26.5931 8.40433 26.5931 7.41409C26.5931 6.42384 25.7773 5.62109 24.771 5.62109C23.7646 5.62109 22.9489 6.42384 22.9489 7.41409C22.9489 8.40433 23.7646 9.20708 24.771 9.20708Z" fill="#6AA3C2"/>
<path d="M0 42.2441H49V45.9997H0V42.2441Z" fill="#6AA3C2"/>
<path d="M5.04773 15.5918H10.9573V40.306H5.04773V15.5918Z" fill="#6AA3C2"/>
<path d="M12.9271 15.5918H19.3291V40.306H12.9271V15.5918Z" fill="#6AA3C2"/>
<path d="M21.299 15.5918H27.701V40.306H21.299V15.5918Z" fill="#6AA3C2"/>
</svg>
