<svg width="51" height="57" viewBox="0 0 51 57" fill="none" xmlns="http://www.w3.org/2000/svg">
<path d="M49.0297 1.76736C46.3756 -0.589118 42.1161 -0.589118 39.462 1.76736L30.9921 9.33442C28.8132 11.2811 28.4363 14.2523 29.878 16.5502L25.127 20.7948C24.783 21.1022 24.5864 21.5266 24.5864 21.9657V28.5228C22.2764 30.6305 23.5051 29.5181 19.8517 32.7821C19.4913 33.1041 19.0162 33.2651 18.5411 33.2651C16.9192 33.2651 16.0672 31.4941 17.2304 30.4549L21.9815 26.2103L16.9028 21.673C15.9526 20.8241 14.3634 21.1314 13.8883 22.2438L0.126666 53.9611C-0.446736 55.293 1.02773 56.6103 2.51857 56.0834L37.9057 43.6862C39.1344 43.2472 39.4784 41.8274 38.5282 40.9931L28.2561 31.8161V22.639L32.4665 18.8774C35.0387 20.1654 38.348 19.8288 40.5433 17.8821L49.0133 10.3151C51.6673 7.94395 51.6509 4.12383 49.0297 1.76736Z" fill="#6AA3C2"/>
</svg>
