<svg width="61" height="41" viewBox="0 0 61 41" fill="none" xmlns="http://www.w3.org/2000/svg">
<path fill-rule="evenodd" clip-rule="evenodd" d="M60.2816 10.0638L53.7501 3.28063L56.5857 1.47391L56.745 0.0633939L55.4387 0L52.0136 2.44066H47.7442L45.1316 0.855818L44.1917 1.046L44.2076 2.07615L45.8963 3.93042L45.6732 4.89718L25.8714 7.03672L5.33677 6.46618L3.12241 7.38539L1.49748 9.44569L0.653157 14.2636L0.509781 17.7344L0 20.9675L0.143376 24.1848L0.71688 24.2957L1.54527 23.3923L2.21436 20.3653L1.67272 16.1654L1.86389 16.1337L3.15427 22.5207L2.27809 28.0518L3.07462 39.114L3.15427 40.3344L3.93488 41H7.3759L8.49105 40.6672L5.4005 35.6749L6.92984 29.3355H7.72637L10.5302 37.7669L11.9799 39.9382L12.6967 40.3661H16.5042L16.998 39.7638L13.7004 37.7511L11.4701 30.9045L12.0277 29.7951L13.334 29.9219L14.1624 31.9347L15.3572 29.9853L16.5201 31.9505L17.4919 29.811L20.3753 27.608L30.5869 26.6254L32.3074 28.7174L33.7571 38.9239L34.5218 40.3978H38.0106L38.3929 39.8431L36.2741 36.9111L36.0192 31.3166L37.1662 31.9505L38.377 35.6591L39.9063 40.477L40.5913 41H43.7137L43.9686 40.3027L43.0606 39.4627L40.0975 33.7572L40.7825 27.7665L44.0802 25.3417L48.8753 16.4666L54.4032 13.9308L59.4851 13.3603L59.9152 12.8848L60.6321 10.8879L60.2816 10.0638Z" fill="#6AA3C2"/>
</svg>
