<svg width="43" height="54" viewBox="0 0 43 54" fill="none" xmlns="http://www.w3.org/2000/svg">
<path d="M38.8654 6.75H29.7692V5.0625C29.7692 2.26406 27.5503 0 24.8077 0H18.1923C15.4497 0 13.2308 2.26406 13.2308 5.0625V6.75H4.13462C1.84679 6.75 0 8.63438 0 10.9688V14.3438C0 15.2719 0.744231 16.0313 1.65385 16.0313H41.3462C42.2558 16.0313 43 15.2719 43 14.3438V10.9688C43 8.63438 41.1532 6.75 38.8654 6.75ZM16.5385 5.0625C16.5385 4.13438 17.2827 3.375 18.1923 3.375H24.8077C25.7173 3.375 26.4615 4.13438 26.4615 5.0625V6.75H16.5385V5.0625Z" fill="#6AA3C2"/>
<path d="M3.14211 19.4062C2.85268 19.4062 2.61839 19.6594 2.63217 19.9547L3.99659 49.1766C4.12063 51.8766 6.2982 54 8.95813 54H34.069C36.7152 54 38.8927 51.8766 39.0306 49.1766L40.395 19.9547C40.4088 19.6594 40.1745 19.4062 39.8851 19.4062H3.14211ZM28.1152 23.625C28.1152 22.6969 28.8594 21.9375 29.769 21.9375C30.6786 21.9375 31.4229 22.6969 31.4229 23.625V45.5625C31.4229 46.4906 30.6786 47.25 29.769 47.25C28.8594 47.25 28.1152 46.4906 28.1152 45.5625V23.625ZM19.846 23.625C19.846 22.6969 20.5902 21.9375 21.4998 21.9375C22.4094 21.9375 23.1536 22.6969 23.1536 23.625V45.5625C23.1536 46.4906 22.4094 47.25 21.4998 47.25C20.5902 47.25 19.846 46.4906 19.846 45.5625V23.625ZM11.5767 23.625C11.5767 22.6969 12.321 21.9375 13.2306 21.9375C14.1402 21.9375 14.8844 22.6969 14.8844 23.625V45.5625C14.8844 46.4906 14.1402 47.25 13.2306 47.25C12.321 47.25 11.5767 46.4906 11.5767 45.5625V23.625Z" fill="#6AA3C2"/>
</svg>
