<svg width="45" height="44" viewBox="0 0 45 44" fill="none" xmlns="http://www.w3.org/2000/svg">
<path d="M36.2873 14.96H30.4108V21.6628H23.6528V27.4914H30.4108V34.1942H36.2873V27.4914H43.0453V21.6628H36.2873V14.96Z" fill="#6AA3C2"/>
<path d="M20.7147 18.7486H27.4727V12.0457H39.2257V18.7486H42.6292C43.8535 16.8057 44.5636 14.6078 44.5636 12.1914C44.5636 5.45214 39.0666 0 32.2841 0C28.1583 0 24.51 2.01571 22.2818 5.1C20.0536 2.00357 16.4053 0 12.2795 0C5.49699 0 0 5.45214 0 12.1914C0 15.1178 1.04063 17.8014 2.76686 19.9021L22.2818 43.3257L27.4727 37.0964V30.4057H20.7147V18.7486Z" fill="#6AA3C2"/>
</svg>
