<svg width="50" height="42" viewBox="0 0 50 42" fill="none" xmlns="http://www.w3.org/2000/svg">
<path d="M7.14112 22.3818H10.9064C10.5169 23.4229 10.3871 24.594 10.3871 25.7651V39.949C10.3871 40.4695 10.3871 40.99 10.6468 41.3804H4.28467C1.94758 41.3804 0 39.4285 0 37.2163V29.4087C0 25.5049 3.24597 22.3818 7.14112 22.3818Z" fill="#6AA3C2"/>
<path d="M39.0814 39.949V25.7651C39.0814 24.594 38.8218 23.4229 38.4323 22.3818H42.1976C46.0927 22.3818 49.3387 25.5049 49.3387 29.4087V37.2163C49.3387 39.5586 47.3911 41.3804 45.054 41.3804H38.6919C38.9516 40.99 39.0814 40.4695 39.0814 39.949Z" fill="#6AA3C2"/>
<path d="M34.7966 41.3804H14.6716C13.8926 41.3804 13.2434 40.7298 13.2434 39.949V25.7652C13.2434 21.8613 16.4894 18.7383 20.3845 18.7383H29.0837C32.9789 18.7383 36.2248 21.8613 36.2248 25.7652V39.949C36.2248 40.7298 35.5756 41.3804 34.7966 41.3804Z" fill="#6AA3C2"/>
<path d="M20.5146 15.8755C17.9178 14.4441 16.1001 11.7115 16.1001 8.45828C16.1001 3.77369 19.9953 0 24.6694 0C29.3436 0 33.2388 3.77369 33.2388 8.45828C33.2388 11.5813 31.4211 14.314 28.8243 15.8755C27.5259 16.5262 26.0977 16.9166 24.6694 16.9166C23.2412 17.0467 21.6832 16.6563 20.5146 15.8755Z" fill="#6AA3C2"/>
<path d="M34.1477 17.3076C33.6284 16.3968 33.3687 15.3557 33.3687 14.3147C33.3687 10.8013 36.2252 7.93848 39.7308 7.93848C43.2364 7.93848 46.0929 10.8013 46.0929 14.3147C46.0929 17.8282 43.2364 20.691 39.7308 20.691C38.8219 20.691 37.9131 20.5608 37.2639 20.1704C35.8356 19.5198 34.7969 18.4788 34.1477 17.3076Z" fill="#6AA3C2"/>
<path d="M12.2049 20.1704C11.4258 20.5608 10.517 20.691 9.73795 20.691C6.2323 20.691 3.37585 17.8282 3.37585 14.3147C3.37585 10.8013 6.10247 7.93848 9.60811 7.93848C13.1138 7.93848 15.9702 10.8013 15.9702 14.3147C15.9702 15.3557 15.7105 16.3968 15.1912 17.3076C14.6718 18.4788 13.5033 19.5198 12.2049 20.1704Z" fill="#6AA3C2"/>
</svg>
