<svg width="46" height="47" viewBox="0 0 46 47" fill="none" xmlns="http://www.w3.org/2000/svg">
<path d="M20.1523 34.6919C20.1907 34.4104 20.4016 34.1891 20.6891 34.1891H25.348C25.6164 34.1891 25.8464 34.4104 25.8848 34.6919L27.1885 47H42.6604C43.3506 47 44.0216 46.6782 44.4626 46.1352C44.9227 45.5721 45.1144 44.8481 44.9994 44.1241L38.7109 2.11168C38.5384 0.905006 37.5223 0 36.3528 0H23.9676L24.351 6.75738C24.351 6.91827 24.3127 7.05905 24.1976 7.17972C24.1018 7.30039 23.9484 7.36072 23.8142 7.36072H22.1462C21.9928 7.36072 21.8586 7.30039 21.7628 7.17972C21.6669 7.05905 21.6094 6.91827 21.6286 6.75738L22.012 0H9.646C8.4765 0 7.47955 0.905006 7.28783 2.11168L1.01855 44.1241C0.903514 44.8481 1.11441 45.5721 1.55537 46.1352C2.0155 46.6983 2.66735 47 3.35755 47H18.8103L20.1523 34.6919ZM21.5519 12.2679C21.5711 11.9863 21.8011 11.7651 22.0887 11.7651H23.9101C24.1785 11.7651 24.4085 11.9863 24.4469 12.2679L25.7506 28.7792C25.7698 28.9401 25.7122 29.0809 25.6164 29.2015C25.5205 29.3222 25.3671 29.3825 25.2329 29.3825H20.785C20.6316 29.3825 20.4974 29.3222 20.4016 29.2015C20.3057 29.0809 20.2482 28.9401 20.2674 28.7792L21.5519 12.2679Z" fill="#6AA3C2"/>
</svg>
