<svg width="55" height="49" viewBox="0 0 55 49" fill="none" xmlns="http://www.w3.org/2000/svg">
<path d="M54.9999 27.3636L47.4311 9.54545C47.5573 9.16364 47.6834 8.65455 47.6834 8.27273C47.6834 6.23636 46.0435 4.58182 44.0252 4.58182C42.7637 4.58182 41.7545 5.21818 40.9976 6.10909H32.5458C31.9151 4.45455 30.4013 3.30909 28.6353 2.92727V0H26.2385V2.92727C24.4724 3.30909 23.0848 4.58182 22.3279 6.23636H13.8761C13.2453 5.34545 12.11 4.70909 10.8486 4.70909C8.8302 4.70909 7.19029 6.36364 7.19029 8.4C7.19029 8.90909 7.31644 9.29091 7.44259 9.67273L-0.126221 27.4909C-0.126221 33.3455 4.79351 37.9273 10.8486 37.9273C16.9036 37.9273 21.8233 33.2182 21.8233 27.4909L14.7591 10.4364H22.4541C22.8325 11.4545 23.5894 12.3455 24.4724 12.8545V40.3455H13.4976V49H19.6788H35.5733H41.6284V40.3455H30.6536V12.8545C31.5366 12.2182 32.2935 11.4545 32.6719 10.4364H40.3669L33.1765 27.3636C33.1765 33.0909 38.0963 37.8 44.1513 37.8C50.0802 37.9273 54.9999 33.2182 54.9999 27.3636ZM18.6697 27.3636H3.27974L9.96552 11.8364C10.344 11.9636 10.5963 11.9636 10.9747 11.9636C11.3531 11.9636 11.7316 11.9636 11.9839 11.8364L18.6697 27.3636ZM36.3302 27.3636L42.8898 11.8364C43.2683 11.9636 43.5206 11.9636 43.899 11.9636C44.2775 11.9636 44.6559 11.9636 44.9082 11.8364L51.7201 27.3636H36.3302Z" fill="#6AA3C2"/>
</svg>
