<svg width="48" height="37" viewBox="0 0 48 37" fill="none" xmlns="http://www.w3.org/2000/svg">
<path d="M35.1633 32.4965C29.7669 32.4965 25.3652 28.064 25.3652 22.6019C25.3652 17.1397 29.7545 12.7072 35.1633 12.7072H44.9613V8.47564C29.3193 8.47564 18.5017 8.47564 2.80992 8.47564C1.79033 8.47564 0.832914 8.17428 0.0122681 7.68457V29.6587C0.0122681 33.5513 3.14564 36.7281 7.00019 36.7281H44.9613V32.484H35.1633V32.4965Z" fill="#6AA3C2"/>
<path d="M35.1634 15.5449C31.3089 15.5449 28.1631 18.7092 28.1631 22.6143C28.1631 26.5194 31.2965 29.6837 35.1634 29.6837H47.7467V15.5449H35.1634ZM36.5561 24.0207H33.7584V21.1954H36.5561V24.0207Z" fill="#6AA3C2"/>
<path d="M2.79766 5.65049C1.25584 5.65049 0 4.38227 0 2.82525C0 1.26822 1.25584 0 2.79766 0H39.3537V5.65049H2.79766Z" fill="#6AA3C2"/>
</svg>
