<svg width="1841" height="537" viewBox="0 0 1841 537" fill="none" xmlns="http://www.w3.org/2000/svg">
<path d="M258.14 529H148.149V227.86L149.217 178.382L150.997 124.277C132.724 142.549 120.028 154.533 112.909 160.229L53.1084 208.283L0.0708008 142.075L167.727 8.59082H258.14V529ZM763.599 268.795C763.599 359.683 748.648 426.959 718.748 470.623C689.085 514.287 643.285 536.119 581.349 536.119C521.311 536.119 475.985 513.575 445.373 468.487C414.998 423.399 399.811 356.835 399.811 268.795C399.811 176.958 414.642 109.327 444.305 65.8999C473.968 22.2358 519.649 0.403809 581.349 0.403809C641.387 0.403809 686.712 23.1851 717.324 68.7476C748.174 114.31 763.599 180.993 763.599 268.795ZM509.089 268.795C509.089 332.63 514.547 378.43 525.463 406.195C536.617 433.722 555.245 447.486 581.349 447.486C606.978 447.486 625.487 433.485 636.878 405.483C648.269 377.481 653.964 331.918 653.964 268.795C653.964 204.96 648.15 159.161 636.522 131.396C625.131 103.394 606.74 89.3931 581.349 89.3931C555.482 89.3931 536.973 103.394 525.819 131.396C514.666 159.161 509.089 204.96 509.089 268.795ZM1180.07 268.795C1180.07 359.683 1165.12 426.959 1135.22 470.623C1105.55 514.287 1059.75 536.119 997.818 536.119C937.78 536.119 892.455 513.575 861.843 468.487C831.468 423.399 816.28 356.835 816.28 268.795C816.28 176.958 831.112 109.327 860.775 65.8999C890.438 22.2358 936.119 0.403809 997.818 0.403809C1057.86 0.403809 1103.18 23.1851 1133.79 68.7476C1164.64 114.31 1180.07 180.993 1180.07 268.795ZM925.559 268.795C925.559 332.63 931.017 378.43 941.933 406.195C953.086 433.722 971.715 447.486 997.818 447.486C1023.45 447.486 1041.96 433.485 1053.35 405.483C1064.74 377.481 1070.43 331.918 1070.43 268.795C1070.43 204.96 1064.62 159.161 1052.99 131.396C1041.6 103.394 1023.21 89.3931 997.818 89.3931C971.952 89.3931 953.442 103.394 942.289 131.396C931.136 159.161 925.559 204.96 925.559 268.795ZM1318.54 164.5C1318.54 194.638 1321.15 217.182 1326.37 232.132C1331.82 246.845 1340.49 254.201 1352.35 254.201C1375.13 254.201 1386.52 224.301 1386.52 164.5C1386.52 105.174 1375.13 75.5107 1352.35 75.5107C1340.49 75.5107 1331.82 82.8672 1326.37 97.5801C1321.15 112.056 1318.54 134.362 1318.54 164.5ZM1476.22 163.788C1476.22 218.368 1465.66 259.422 1444.54 286.949C1423.42 314.239 1392.46 327.884 1351.64 327.884C1312.48 327.884 1282.23 313.883 1260.87 285.881C1239.51 257.642 1228.83 216.944 1228.83 163.788C1228.83 55.3398 1269.77 1.11572 1351.64 1.11572C1391.74 1.11572 1422.48 15.2354 1443.83 43.4746C1465.43 71.4766 1476.22 111.581 1476.22 163.788ZM1721.12 8.59082L1432.44 529H1347.01L1635.69 8.59082H1721.12ZM1683.04 372.379C1683.04 402.517 1685.65 425.061 1690.87 440.011C1696.32 454.724 1704.99 462.08 1716.85 462.08C1739.63 462.08 1751.02 432.18 1751.02 372.379C1751.02 313.053 1739.63 283.39 1716.85 283.39C1704.99 283.39 1696.32 290.746 1690.87 305.459C1685.65 319.935 1683.04 342.241 1683.04 372.379ZM1840.72 371.667C1840.72 426.01 1830.16 466.945 1809.04 494.472C1787.92 521.762 1756.96 535.407 1716.14 535.407C1676.98 535.407 1646.73 521.406 1625.37 493.404C1604.01 465.165 1593.33 424.586 1593.33 371.667C1593.33 263.219 1634.27 208.995 1716.14 208.995C1756.24 208.995 1786.98 223.114 1808.33 251.354C1829.93 279.355 1840.72 319.46 1840.72 371.667Z" fill="#01F859"/>
</svg>
