<svg width="220" height="220" viewBox="0 0 220 220" fill="none" xmlns="http://www.w3.org/2000/svg">
<path d="M122.159 164.999L167.317 119.841C149.948 109.42 130.264 103.631 110.001 103.631C103.054 103.631 95.5276 104.21 88.5803 105.947V138.946C88.5803 144.157 86.2645 149.367 82.7909 153.42L61.9489 173.683C59.0542 176.578 59.0542 181.209 61.9489 184.104L97.8434 219.999H148.791L122.159 193.367C114.054 185.262 114.054 172.525 122.159 164.999Z" fill="white"/>
<path d="M53.2629 164.995L74.1049 144.153C75.2627 142.996 76.4206 140.68 76.4206 138.943V108.838C35.8945 122.154 0 160.364 0 213.627C0 217.1 2.89472 219.995 6.36839 219.995H79.8943L53.2629 193.364C45.1576 185.837 45.1576 172.522 53.2629 164.995Z" fill="white"/>
<path d="M89.1527 68.3154H103.626V90.8942C105.942 90.8942 107.679 90.8942 109.995 90.8942C112.311 90.8942 114.047 90.8942 116.363 90.8942V68.3154H130.837C164.994 68.3154 192.784 40.5261 192.784 6.36838C192.784 2.89472 189.889 0 186.415 0H165.573C141.258 0 120.416 13.8947 110.574 34.1577C100.153 13.8947 78.7317 0 54.995 0H34.1531C30.6794 0 27.7847 2.89472 27.7847 6.36838C27.7847 40.5261 55.574 68.3154 89.1527 68.3154Z" fill="white"/>
<path d="M178.315 127.367L131.421 173.683C128.526 176.577 128.526 181.209 131.421 184.104L167.315 219.998H213.631C217.104 219.998 219.999 217.104 219.999 213.63C219.999 180.051 204.368 148.209 178.315 127.367Z" fill="white"/>
</svg>
