<svg width="285" height="220" viewBox="0 0 285 220" fill="none" xmlns="http://www.w3.org/2000/svg">
<path d="M43.4919 0C40.8154 0 38.1389 1.35228 36.1316 2.70455C34.1242 4.73297 33.4551 7.43752 33.4551 10.1421V164.302C33.4551 169.711 38.1389 174.444 43.4919 174.444C66.911 174.444 107.058 179.853 134.492 208.25V47.3297C134.492 45.3012 133.823 43.2728 133.154 41.9206C110.404 5.4091 67.5802 0 43.4919 0Z" fill="white"/>
<path d="M251.59 164.978V10.1421C251.59 7.43752 250.252 4.73297 248.913 2.70455C246.237 1.35228 243.561 0 240.884 0C217.465 0 173.972 5.4091 151.222 42.5967C150.553 43.949 149.884 45.9774 149.884 48.0058V209.603C177.318 180.529 216.796 175.796 240.884 175.796C246.906 175.12 251.59 170.387 251.59 164.978Z" fill="white"/>
<path d="M274.338 35.8379H266.978V164.98C266.978 179.179 255.603 191.35 240.882 191.35C220.809 191.35 187.353 195.406 163.934 217.719C204.75 207.577 247.573 214.338 271.662 219.747C274.338 220.424 277.684 219.747 280.36 217.719C283.037 215.691 284.375 212.986 284.375 209.605V45.98C285.044 39.8947 280.36 35.8379 274.338 35.8379Z" fill="white"/>
<path d="M17.3971 164.98V35.8379H10.0368C4.68383 35.8379 0 39.8947 0 45.98V209.605C0 212.986 1.33824 215.691 4.01472 217.719C6.69119 219.747 9.36767 220.424 12.7133 219.747C37.4707 214.338 79.6252 207.577 120.441 217.719C97.0223 195.406 63.5663 191.35 43.4928 191.35C29.4412 190.673 17.3971 179.179 17.3971 164.98Z" fill="white"/>
</svg>
