<svg width="120" height="120" viewBox="0 0 120 120" fill="none" xmlns="http://www.w3.org/2000/svg">
<path d="M60 0C26.8661 0 0 26.8661 0 60C0 93.1339 26.8661 120 60 120C93.1339 120 120 93.1339 120 60C120 26.8661 93.1339 0 60 0ZM79.2991 60.9241L50.0491 82.2054C49.8887 82.3206 49.6997 82.3894 49.5028 82.4042C49.3059 82.419 49.1087 82.3792 48.9329 82.2892C48.7572 82.1993 48.6096 82.0626 48.5064 81.8942C48.4033 81.7258 48.3485 81.5323 48.3482 81.3348V38.7991C48.3476 38.6012 48.4017 38.4071 48.5047 38.2381C48.6076 38.0691 48.7554 37.932 48.9315 37.8418C49.1076 37.7517 49.3053 37.7121 49.5025 37.7274C49.6998 37.7427 49.889 37.8123 50.0491 37.9286L79.2991 59.1964C79.4373 59.2942 79.55 59.4236 79.6278 59.5739C79.7056 59.7242 79.7462 59.891 79.7462 60.0603C79.7462 60.2295 79.7056 60.3963 79.6278 60.5466C79.55 60.6969 79.4373 60.8264 79.2991 60.9241Z" fill="#02DD75"/>
</svg>
