<svg width="220" height="220" viewBox="0 0 220 220" fill="none" xmlns="http://www.w3.org/2000/svg">
<path d="M105.49 184.112L95.022 164.987H125.085L114.617 184.112L125.569 220H220C220 155.8 146.72 174.173 137.54 146.667V128.347C141.674 126.305 153.431 112.23 154.666 101.27C157.887 101.001 162.987 98.0464 164.49 86.2808C165.295 79.9414 162.074 76.3956 160.142 75.3211C160.142 75.3211 164.973 66.1343 164.973 55.0134C164.973 32.7717 156.223 13.7534 137.487 13.7534C137.487 13.7534 130.991 0 110 0C71.1323 0 55.0268 24.928 55.0268 55.0134C55.0268 65.1135 59.8585 75.3211 59.8585 75.3211C57.9258 76.4493 54.7047 79.9951 55.51 86.2808C57.0132 98.0464 62.1132 101.001 65.3343 101.27C66.5691 112.23 78.3797 126.305 82.4597 128.347V146.667C73.2796 174.173 0 155.853 0 220H94.4314L105.49 184.112Z" fill="white"/>
<path d="M151.284 164.987H128.36V146.667H136.52C140.01 146.667 143.177 148.654 144.734 151.77L151.284 164.987Z" fill="white"/>
<path d="M68.8238 164.987H91.7472V146.667H83.5871C80.0976 146.667 76.9302 148.654 75.3734 151.77L68.8238 164.987Z" fill="white"/>
</svg>
