<svg width="250" height="200" viewBox="0 0 250 200" fill="none" xmlns="http://www.w3.org/2000/svg">
<path d="M241.003 133.979C250.465 112.366 252.392 97.8921 247.071 88.4281C245.02 84.7811 239.881 78.6639 228.514 78.6639H212.344V43.0956C212.344 34.0714 217.045 32.4871 217.527 32.3489C219.014 32.0923 219.94 30.7677 219.823 29.2575L218.925 17.5603C218.865 16.7852 218.5 16.064 217.91 15.5582C217.318 15.0518 216.55 14.8031 215.775 14.8607C208.501 15.4193 194.746 22.04 194.746 43.0956V78.6639H145.358L134.876 7.51649C134.24 3.19874 130.535 0 126.171 0H38.2617C33.4024 0 29.4631 3.93929 29.4631 8.79865V26.0054C29.4631 30.3989 32.6837 34.041 36.8934 34.6985V92.3164C15.3969 99.9439 0 120.456 0 144.567C0 175.183 24.8178 200 55.4327 200C78.8707 200 98.911 185.455 107.019 164.898H176.568C176.567 164.964 176.563 165.031 176.563 165.098C176.563 184.374 192.189 200 211.464 200C230.74 200 246.366 184.374 246.366 165.098C246.366 156.121 242.974 147.938 237.406 141.754C238.606 139.285 239.823 136.675 241.003 133.979ZM55.4321 170.672C41.0389 170.672 29.329 158.962 29.329 144.57C29.329 130.177 41.0389 118.466 55.4321 118.466C69.8252 118.466 81.5351 130.177 81.5351 144.57C81.5351 158.963 69.8258 170.672 55.4321 170.672ZM62.6738 78.2848V30.5584H111.832L118.983 78.2848H62.6738ZM211.464 176.538C205.157 176.538 200.026 171.407 200.026 165.1C200.026 158.794 205.157 153.662 211.464 153.662C217.771 153.662 222.902 158.794 222.902 165.1C222.902 171.407 217.771 176.538 211.464 176.538Z" fill="white"/>
</svg>
