<svg width="234" height="220" viewBox="0 0 234 220" fill="none" xmlns="http://www.w3.org/2000/svg">
<path d="M229.644 45.1981L229.091 44.6535C223.557 39.208 214.704 39.208 209.723 44.6535L188.142 65.3466C187.036 66.4357 185.375 66.4357 184.269 65.3466L154.941 38.6634C152.174 35.9407 148.3 34.8516 144.427 34.8516H100.711C99.6048 34.8516 98.498 35.3961 97.9447 35.9407L60.8696 70.2476C55.336 75.6931 54.7826 84.406 60.3162 89.307C63.083 92.0298 66.4032 93.6634 70.2767 93.6634C74.1502 93.6634 78.0237 92.0298 80.2372 89.307L106.245 62.0793H115.652L54.2293 129.059H16.6008C7.74704 129.059 0.55336 135.594 0 143.762C0 148.119 1.10672 152.475 4.42688 155.198C7.19368 158.465 11.6206 160.099 16.0474 160.099H72.4901C73.5968 160.099 74.7036 159.555 75.2569 159.01L104.032 129.059L128.379 154.109L121.186 199.852C119.526 207.475 122.846 215.099 130.04 218.366C132.253 219.456 134.466 220 136.68 220C138.893 220 141.66 219.456 143.874 218.366C148.3 216.188 151.067 212.376 152.174 207.475L164.901 141.584C164.901 140.495 164.901 138.861 163.794 138.317L130.593 105.644L157.154 79.505L175.415 97.4753C180.395 102.376 189.802 102.376 194.783 97.4753L229.644 63.7129C232.411 60.9902 233.518 57.7229 233.518 54.4555C233.518 51.1882 231.858 47.9209 229.644 45.1981Z" fill="white"/>
<path d="M184.823 46.8317C198.104 46.8317 209.171 36.4852 209.171 23.4158C209.171 10.3465 198.104 0 184.823 0C171.543 0 160.476 10.3465 160.476 23.4158C161.029 35.9406 171.543 46.8317 184.823 46.8317Z" fill="white"/>
</svg>
