<svg width="220" height="220" viewBox="0 0 220 220" fill="none" xmlns="http://www.w3.org/2000/svg">
<path d="M214.634 45.9079L77.5069 0.596207L76.3145 0H55.4472L4.17345 45.9079H0V80.4879H29.8103V45.9079H23.2521L60.2169 13.1166V35.1762H38.7534V78.1031H94.7969V35.1762H73.3334V13.1166H73.9296L173.496 45.9079H103.144V71.5448H220V45.9079H214.634Z" fill="white"/>
<path d="M220 165.149H113.279V190.786H220V165.149Z" fill="white"/>
<path d="M152.033 156.206L166.938 144.878L181.843 156.206H202.71L178.266 137.724C182.439 134.147 185.42 128.781 185.42 122.819H172.304C172.304 125.8 169.919 128.781 166.342 128.781C162.764 128.781 160.379 126.396 160.379 122.819C160.379 119.838 162.764 116.857 166.342 116.857H172.9V101.355H173.496L186.016 88.8349V79.8918H147.263V89.4311L159.783 101.951H160.379V105.529C153.225 107.914 147.859 115.068 147.859 122.819C147.859 128.781 150.84 134.147 155.014 137.724L130.569 156.206H152.033Z" fill="white"/>
<path d="M51.8704 112.087V91.2193H38.7539V220H94.7973V91.2193H72.7377L51.8704 112.087ZM51.8704 134.146H72.7377L51.8704 155.013V134.146ZM51.8704 177.073H72.7377L51.8704 197.94V177.073ZM81.6808 206.883H60.8135L81.6808 186.016V206.883ZM81.6808 163.957H60.8135L81.6808 143.089V163.957ZM81.6808 121.03H60.8135L81.6808 100.162V121.03Z" fill="white"/>
</svg>
