<svg width="1590" height="961" viewBox="0 0 1590 961" fill="none" xmlns="http://www.w3.org/2000/svg">
<path d="M692.305 162.451H673.398V195H640.957V162.451H573.926V139.355L642.783 37.9492H673.398V136.67H692.305V162.451ZM640.957 136.67V110.029C640.957 105.589 641.136 99.1439 641.494 90.6934C641.852 82.2428 642.139 77.3372 642.354 75.9766H641.494C638.844 81.849 635.658 87.5781 631.934 93.1641L603.145 136.67H640.957ZM813.584 116.475C813.584 143.903 809.072 164.206 800.049 177.383C791.097 190.56 777.275 197.148 758.584 197.148C740.465 197.148 726.787 190.345 717.549 176.738C708.382 163.132 703.799 143.044 703.799 116.475C703.799 88.7598 708.275 68.3496 717.227 55.2441C726.178 42.0671 739.964 35.4785 758.584 35.4785C776.702 35.4785 790.381 42.3535 799.619 56.1035C808.929 69.8535 813.584 89.9772 813.584 116.475ZM736.777 116.475C736.777 135.739 738.424 149.561 741.719 157.939C745.085 166.247 750.706 170.4 758.584 170.4C766.318 170.4 771.904 166.175 775.342 157.725C778.779 149.274 780.498 135.524 780.498 116.475C780.498 97.2103 778.743 83.3887 775.234 75.0098C771.797 66.5592 766.247 62.334 758.584 62.334C750.778 62.334 745.192 66.5592 741.826 75.0098C738.46 83.3887 736.777 97.2103 736.777 116.475ZM855.371 85C855.371 94.0951 856.159 100.898 857.734 105.41C859.382 109.85 861.995 112.07 865.576 112.07C872.451 112.07 875.889 103.047 875.889 85C875.889 67.0964 872.451 58.1445 865.576 58.1445C861.995 58.1445 859.382 60.3646 857.734 64.8047C856.159 69.1732 855.371 75.9049 855.371 85ZM902.959 84.7852C902.959 101.257 899.772 113.646 893.398 121.953C887.025 130.189 877.679 134.307 865.361 134.307C853.545 134.307 844.414 130.081 837.969 121.631C831.523 113.109 828.301 100.827 828.301 84.7852C828.301 52.0573 840.654 35.6934 865.361 35.6934C877.464 35.6934 886.738 39.9544 893.184 48.4766C899.701 56.9271 902.959 69.0299 902.959 84.7852ZM976.865 37.9492L889.746 195H863.965L951.084 37.9492H976.865ZM965.371 147.734C965.371 156.829 966.159 163.633 967.734 168.145C969.382 172.585 971.995 174.805 975.576 174.805C982.451 174.805 985.889 165.781 985.889 147.734C985.889 129.831 982.451 120.879 975.576 120.879C971.995 120.879 969.382 123.099 967.734 127.539C966.159 131.908 965.371 138.639 965.371 147.734ZM1012.96 147.52C1012.96 163.919 1009.77 176.273 1003.4 184.58C997.025 192.816 987.679 196.934 975.361 196.934C963.545 196.934 954.414 192.708 947.969 184.258C941.523 175.736 938.301 163.49 938.301 147.52C938.301 114.792 950.654 98.4277 975.361 98.4277C987.464 98.4277 996.738 102.689 1003.18 111.211C1009.7 119.661 1012.96 131.764 1012.96 147.52Z" fill="white"/>
<path d="M999.096 939.188L999.641 937.553L1000.4 935.479L1005.62 922.77H1009.33V942H1006.74V926.092L1006.39 927.111L1005.37 929.801L1000.4 942H997.953L992.979 929.766C992.357 928.195 991.93 926.971 991.695 926.092V942H989.094V922.77H992.662L997.707 934.986C998.211 936.275 998.674 937.676 999.096 939.188ZM1029.93 942H1026.97V925.23H1021.19C1020.88 929.402 1020.44 932.713 1019.87 935.162C1019.31 937.611 1018.58 939.404 1017.68 940.541C1016.79 941.678 1015.65 942.246 1014.27 942.246C1013.63 942.246 1013.13 942.176 1012.75 942.035V939.873C1013.01 939.943 1013.3 939.979 1013.63 939.979C1014.98 939.979 1016.05 938.555 1016.85 935.707C1017.65 932.859 1018.25 928.535 1018.66 922.734H1029.93V942ZM1039.05 922.734V930.803H1049.84V922.734H1052.76V942H1049.84V933.316H1039.05V942H1036.13V922.734H1039.05Z" fill="white"/>
<path d="M656.508 783H649.266V754.781H636.656V783H629.391V748.734H656.508V783ZM670.289 769.852C670.289 772.445 670.711 774.406 671.555 775.734C672.414 777.062 673.805 777.727 675.727 777.727C677.633 777.727 679 777.07 679.828 775.758C680.672 774.43 681.094 772.461 681.094 769.852C681.094 767.258 680.672 765.312 679.828 764.016C678.984 762.719 677.602 762.07 675.68 762.07C673.773 762.07 672.398 762.719 671.555 764.016C670.711 765.297 670.289 767.242 670.289 769.852ZM688.406 769.852C688.406 774.117 687.281 777.453 685.031 779.859C682.781 782.266 679.648 783.469 675.633 783.469C673.117 783.469 670.898 782.922 668.977 781.828C667.055 780.719 665.578 779.133 664.547 777.07C663.516 775.008 663 772.602 663 769.852C663 765.57 664.117 762.242 666.352 759.867C668.586 757.492 671.727 756.305 675.773 756.305C678.289 756.305 680.508 756.852 682.43 757.945C684.352 759.039 685.828 760.609 686.859 762.656C687.891 764.703 688.406 767.102 688.406 769.852ZM705.164 761.391C703.648 761.391 702.461 761.875 701.602 762.844C700.742 763.797 700.25 765.156 700.125 766.922H710.156C710.125 765.156 709.664 763.797 708.773 762.844C707.883 761.875 706.68 761.391 705.164 761.391ZM706.172 783.469C701.953 783.469 698.656 782.305 696.281 779.977C693.906 777.648 692.719 774.352 692.719 770.086C692.719 765.695 693.812 762.305 696 759.914C698.203 757.508 701.242 756.305 705.117 756.305C708.82 756.305 711.703 757.359 713.766 759.469C715.828 761.578 716.859 764.492 716.859 768.211V771.68H699.961C700.039 773.711 700.641 775.297 701.766 776.438C702.891 777.578 704.469 778.148 706.5 778.148C708.078 778.148 709.57 777.984 710.977 777.656C712.383 777.328 713.852 776.805 715.383 776.086V781.617C714.133 782.242 712.797 782.703 711.375 783C709.953 783.312 708.219 783.469 706.172 783.469ZM729.188 766.875C731.891 766.875 733.805 766.656 734.93 766.219C736.07 765.781 736.641 765.086 736.641 764.133C736.641 763.289 736.227 762.656 735.398 762.234C734.57 761.812 733.203 761.602 731.297 761.602C730.094 761.602 728.727 761.75 727.195 762.047C725.68 762.344 724.297 762.75 723.047 763.266L720.938 758.273C722.797 757.57 724.602 757.07 726.352 756.773C728.102 756.461 730.055 756.305 732.211 756.305C735.477 756.305 738.094 756.93 740.062 758.18C742.031 759.43 743.016 761.125 743.016 763.266C743.016 766.219 741.273 768.141 737.789 769.031V769.266C739.93 769.797 741.453 770.555 742.359 771.539C743.281 772.508 743.742 773.781 743.742 775.359C743.742 776.953 743.227 778.367 742.195 779.602C741.164 780.836 739.672 781.789 737.719 782.461C735.766 783.133 733.469 783.469 730.828 783.469C726.453 783.469 723.094 782.93 720.75 781.852V775.945C722.094 776.57 723.562 777.062 725.156 777.422C726.766 777.781 728.32 777.961 729.82 777.961C732.148 777.961 733.891 777.703 735.047 777.188C736.203 776.656 736.781 775.906 736.781 774.938C736.781 773.875 736.172 773.094 734.953 772.594C733.734 772.078 731.859 771.82 729.328 771.82H726.562V766.875H729.188ZM765.75 777.773V762.164H760.383C759.992 765.07 759.453 767.828 758.766 770.438C758.094 773.047 757.156 775.492 755.953 777.773H765.75ZM776.742 792.398H770.32V783H752.695V792.398H746.273V777.773H748.477C749.977 775.445 751.234 772.508 752.25 768.961C753.266 765.414 753.977 761.359 754.383 756.797H772.898V777.773H776.742V792.398ZM786.914 769.852C786.914 772.445 787.336 774.406 788.18 775.734C789.039 777.062 790.43 777.727 792.352 777.727C794.258 777.727 795.625 777.07 796.453 775.758C797.297 774.43 797.719 772.461 797.719 769.852C797.719 767.258 797.297 765.312 796.453 764.016C795.609 762.719 794.227 762.07 792.305 762.07C790.398 762.07 789.023 762.719 788.18 764.016C787.336 765.297 786.914 767.242 786.914 769.852ZM805.031 769.852C805.031 774.117 803.906 777.453 801.656 779.859C799.406 782.266 796.273 783.469 792.258 783.469C789.742 783.469 787.523 782.922 785.602 781.828C783.68 780.719 782.203 779.133 781.172 777.07C780.141 775.008 779.625 772.602 779.625 769.852C779.625 765.57 780.742 762.242 782.977 759.867C785.211 757.492 788.352 756.305 792.398 756.305C794.914 756.305 797.133 756.852 799.055 757.945C800.977 759.039 802.453 760.609 803.484 762.656C804.516 764.703 805.031 767.102 805.031 769.852ZM828.117 756.797H835.992L825.609 769.359L836.906 783H828.797L818.086 769.711V783H810.938V756.797H818.086V769.523L828.117 756.797ZM876.938 756.797V783H869.766V762.164H860.273V783H853.125V756.797H876.938ZM890.133 769.852C890.133 772.445 890.555 774.406 891.398 775.734C892.258 777.062 893.648 777.727 895.57 777.727C897.477 777.727 898.844 777.07 899.672 775.758C900.516 774.43 900.938 772.461 900.938 769.852C900.938 767.258 900.516 765.312 899.672 764.016C898.828 762.719 897.445 762.07 895.523 762.07C893.617 762.07 892.242 762.719 891.398 764.016C890.555 765.297 890.133 767.242 890.133 769.852ZM908.25 769.852C908.25 774.117 907.125 777.453 904.875 779.859C902.625 782.266 899.492 783.469 895.477 783.469C892.961 783.469 890.742 782.922 888.82 781.828C886.898 780.719 885.422 779.133 884.391 777.07C883.359 775.008 882.844 772.602 882.844 769.852C882.844 765.57 883.961 762.242 886.195 759.867C888.43 757.492 891.57 756.305 895.617 756.305C898.133 756.305 900.352 756.852 902.273 757.945C904.195 759.039 905.672 760.609 906.703 762.656C907.734 764.703 908.25 767.102 908.25 769.852ZM943.805 756.797H951.68L941.297 769.359L952.594 783H944.484L933.773 769.711V783H926.625V756.797H933.773V769.523L943.805 756.797ZM972.984 783L971.602 779.438H971.414C970.211 780.953 968.969 782.008 967.688 782.602C966.422 783.18 964.766 783.469 962.719 783.469C960.203 783.469 958.219 782.75 956.766 781.312C955.328 779.875 954.609 777.828 954.609 775.172C954.609 772.391 955.578 770.344 957.516 769.031C959.469 767.703 962.406 766.969 966.328 766.828L970.875 766.688V765.539C970.875 762.883 969.516 761.555 966.797 761.555C964.703 761.555 962.242 762.188 959.414 763.453L957.047 758.625C960.062 757.047 963.406 756.258 967.078 756.258C970.594 756.258 973.289 757.023 975.164 758.555C977.039 760.086 977.977 762.414 977.977 765.539V783H972.984ZM970.875 770.859L968.109 770.953C966.031 771.016 964.484 771.391 963.469 772.078C962.453 772.766 961.945 773.812 961.945 775.219C961.945 777.234 963.102 778.242 965.414 778.242C967.07 778.242 968.391 777.766 969.375 776.812C970.375 775.859 970.875 774.594 970.875 773.016V770.859ZM999.75 783.469C996.672 783.469 994.258 782.352 992.508 780.117H992.133C992.383 782.305 992.508 783.57 992.508 783.914V794.531H985.359V756.797H991.172L992.18 760.195H992.508C994.18 757.602 996.656 756.305 999.938 756.305C1003.03 756.305 1005.45 757.5 1007.2 759.891C1008.95 762.281 1009.83 765.602 1009.83 769.852C1009.83 772.648 1009.41 775.078 1008.59 777.141C1007.77 779.203 1006.61 780.773 1005.09 781.852C1003.58 782.93 1001.8 783.469 999.75 783.469ZM997.641 762.023C995.875 762.023 994.586 762.57 993.773 763.664C992.961 764.742 992.539 766.531 992.508 769.031V769.805C992.508 772.617 992.922 774.633 993.75 775.852C994.594 777.07 995.922 777.68 997.734 777.68C1000.94 777.68 1002.54 775.039 1002.54 769.758C1002.54 767.18 1002.14 765.25 1001.34 763.969C1000.56 762.672 999.328 762.023 997.641 762.023ZM1037.41 756.797V762.164H1028.84V783H1021.69V762.164H1013.09V756.797H1037.41ZM1053.16 761.391C1051.65 761.391 1050.46 761.875 1049.6 762.844C1048.74 763.797 1048.25 765.156 1048.12 766.922H1058.16C1058.12 765.156 1057.66 763.797 1056.77 762.844C1055.88 761.875 1054.68 761.391 1053.16 761.391ZM1054.17 783.469C1049.95 783.469 1046.66 782.305 1044.28 779.977C1041.91 777.648 1040.72 774.352 1040.72 770.086C1040.72 765.695 1041.81 762.305 1044 759.914C1046.2 757.508 1049.24 756.305 1053.12 756.305C1056.82 756.305 1059.7 757.359 1061.77 759.469C1063.83 761.578 1064.86 764.492 1064.86 768.211V771.68H1047.96C1048.04 773.711 1048.64 775.297 1049.77 776.438C1050.89 777.578 1052.47 778.148 1054.5 778.148C1056.08 778.148 1057.57 777.984 1058.98 777.656C1060.38 777.328 1061.85 776.805 1063.38 776.086V781.617C1062.13 782.242 1060.8 782.703 1059.38 783C1057.95 783.312 1056.22 783.469 1054.17 783.469Z" fill="white"/>
<path d="M526.673 741H575.443C577.319 741 579.702 742.132 580.875 743.528L588.3 752.623C589.277 753.792 591.27 755.34 592.676 755.981L597.874 758.283C599.632 759.075 601 761.151 601 763V776.283C601 778.245 599.359 779.83 597.327 779.83H595.685C594.435 783.981 590.488 787 585.799 787C581.109 787 577.162 783.981 575.912 779.83H553.911C552.66 783.981 548.713 787 544.024 787C539.335 787 535.388 783.981 534.137 779.83H526.673C524.641 779.83 523 778.245 523 776.283V744.547C523 742.585 524.641 741 526.673 741ZM585.799 782.019C588.612 782.019 590.918 779.792 590.918 777.075C590.918 774.358 588.612 772.132 585.799 772.132C582.985 772.132 580.679 774.358 580.679 777.075C580.679 779.792 582.946 782.019 585.799 782.019ZM564.54 755.679C564.54 756.66 565.4 757.491 566.416 757.453L582.985 757.226C584.001 757.226 584.353 756.547 583.727 755.755L576.928 747.302C576.303 746.509 574.935 745.868 573.919 745.868H566.416C565.4 745.868 564.54 746.698 564.54 747.679V755.679ZM559.108 757.491C560.124 757.491 560.984 756.66 560.984 755.679V747.717C560.984 746.736 560.124 745.906 559.108 745.906H548.088C547.072 745.906 546.212 746.736 546.212 747.717V755.679C546.212 756.66 547.072 757.491 548.088 757.491H559.108ZM544.024 782.019C546.838 782.019 549.143 779.792 549.143 777.075C549.143 774.358 546.838 772.132 544.024 772.132C541.21 772.132 538.905 774.358 538.905 777.075C538.905 779.792 541.171 782.019 544.024 782.019ZM528.236 755.679C528.236 756.66 529.096 757.491 530.112 757.491H541.132C542.148 757.491 543.008 756.66 543.008 755.679V747.717C543.008 746.736 542.148 745.906 541.132 745.906H530.112C529.096 745.906 528.236 746.736 528.236 747.717V755.679Z" fill="white"/>
<path d="M629.754 942L667.283 859.969H617.996V842.195H689.705V855.457L651.902 942H629.754ZM765.789 864.412C765.789 870.656 763.898 875.965 760.115 880.34C756.333 884.715 751.023 887.723 744.188 889.363V889.773C752.254 890.776 758.361 893.237 762.508 897.156C766.655 901.03 768.729 906.271 768.729 912.879C768.729 922.495 765.242 929.992 758.27 935.369C751.297 940.701 741.339 943.367 728.396 943.367C717.55 943.367 707.934 941.567 699.549 937.967V919.988C703.423 921.948 707.684 923.543 712.332 924.773C716.98 926.004 721.583 926.619 726.141 926.619C733.113 926.619 738.263 925.434 741.59 923.064C744.917 920.695 746.58 916.889 746.58 911.648C746.58 906.954 744.666 903.628 740.838 901.668C737.01 899.708 730.903 898.729 722.518 898.729H714.93V882.527H722.654C730.402 882.527 736.053 881.525 739.607 879.52C743.208 877.469 745.008 873.982 745.008 869.061C745.008 861.495 740.268 857.713 730.789 857.713C727.508 857.713 724.158 858.26 720.74 859.354C717.368 860.447 713.608 862.339 709.461 865.027L699.686 850.467C708.8 843.904 719.669 840.623 732.293 840.623C742.638 840.623 750.796 842.719 756.766 846.912C762.781 851.105 765.789 856.938 765.789 864.412ZM849.666 942H779.803V927.303L804.891 901.941C812.319 894.331 817.173 889.067 819.451 886.15C821.73 883.188 823.37 880.454 824.373 877.947C825.376 875.441 825.877 872.843 825.877 870.154C825.877 866.144 824.76 863.159 822.527 861.199C820.34 859.24 817.4 858.26 813.709 858.26C809.835 858.26 806.076 859.148 802.43 860.926C798.784 862.703 794.979 865.232 791.014 868.514L779.529 854.91C784.451 850.717 788.53 847.755 791.766 846.023C795.001 844.292 798.533 842.97 802.361 842.059C806.189 841.102 810.473 840.623 815.213 840.623C821.456 840.623 826.971 841.762 831.756 844.041C836.541 846.32 840.255 849.51 842.898 853.611C845.542 857.713 846.863 862.407 846.863 867.693C846.863 872.296 846.043 876.626 844.402 880.682C842.807 884.692 840.301 888.816 836.883 893.055C833.51 897.293 827.54 903.331 818.973 911.17L806.121 923.27V924.227H849.666V942ZM885.555 927.303C883.185 936.508 879.174 947.423 873.523 960.047H858.484C861.447 947.924 863.748 936.486 865.389 925.73H884.529L885.555 927.303ZM969.842 884.715C969.842 904.402 965.695 919.1 957.4 928.807C949.106 938.514 936.551 943.367 919.734 943.367C913.81 943.367 909.321 943.048 906.268 942.41V925.457C910.096 926.414 914.106 926.893 918.299 926.893C925.363 926.893 931.173 925.867 935.73 923.816C940.288 921.72 943.774 918.462 946.189 914.041C948.605 909.575 949.995 903.445 950.359 895.652H949.539C946.896 899.936 943.842 902.944 940.379 904.676C936.915 906.408 932.586 907.273 927.391 907.273C918.686 907.273 911.827 904.493 906.814 898.934C901.801 893.328 899.295 885.558 899.295 875.623C899.295 864.913 902.326 856.46 908.387 850.262C914.493 844.018 922.788 840.896 933.27 840.896C940.652 840.896 947.101 842.628 952.615 846.092C958.175 849.555 962.436 854.591 965.398 861.199C968.361 867.762 969.842 875.6 969.842 884.715ZM933.68 857.85C929.305 857.85 925.887 859.354 923.426 862.361C920.965 865.369 919.734 869.699 919.734 875.35C919.734 880.18 920.851 884.008 923.084 886.834C925.317 889.66 928.712 891.072 933.27 891.072C937.553 891.072 941.222 889.682 944.275 886.902C947.329 884.077 948.855 880.841 948.855 877.195C948.855 871.772 947.42 867.192 944.549 863.455C941.723 859.718 938.1 857.85 933.68 857.85Z" fill="white"/>
<path d="M149.854 365.584H156.519C159.556 365.584 161.758 366.019 163.125 366.888C164.502 367.747 165.19 369.119 165.19 371.004C165.19 372.283 164.888 373.333 164.282 374.153C163.687 374.974 162.891 375.467 161.895 375.633V375.779C163.252 376.082 164.229 376.648 164.824 377.479C165.43 378.309 165.732 379.412 165.732 380.789C165.732 382.742 165.024 384.266 163.608 385.359C162.202 386.453 160.288 387 157.866 387H149.854V365.584ZM154.395 374.065H157.031C158.262 374.065 159.15 373.875 159.697 373.494C160.254 373.113 160.532 372.483 160.532 371.604C160.532 370.784 160.229 370.198 159.624 369.847C159.028 369.485 158.081 369.305 156.782 369.305H154.395V374.065ZM154.395 377.669V383.25H157.354C158.604 383.25 159.526 383.011 160.122 382.532C160.718 382.054 161.016 381.321 161.016 380.335C161.016 378.558 159.746 377.669 157.207 377.669H154.395ZM174.126 376.951H176.279C178.779 376.951 180.63 377.352 181.831 378.152C183.032 378.953 183.633 380.164 183.633 381.785C183.633 383.514 183.032 384.817 181.831 385.696C180.63 386.565 178.833 387 176.44 387H169.658V370.623H174.126V376.951ZM179.165 381.844C179.165 381.209 178.911 380.75 178.403 380.467C177.896 380.184 177.139 380.042 176.133 380.042H174.126V383.909H176.191C178.174 383.909 179.165 383.221 179.165 381.844ZM190.474 387H186.006V370.623H190.474V387ZM205.43 383.733V373.978H202.075C201.831 375.794 201.494 377.518 201.064 379.148C200.645 380.779 200.059 382.308 199.307 383.733H205.43ZM212.3 392.874H208.286V387H197.271V392.874H193.257V383.733H194.634C195.571 382.278 196.357 380.442 196.992 378.226C197.627 376.009 198.071 373.475 198.325 370.623H209.897V383.733H212.3V392.874ZM225.498 387L224.634 384.773H224.517C223.765 385.721 222.988 386.38 222.188 386.751C221.396 387.112 220.361 387.293 219.082 387.293C217.51 387.293 216.27 386.844 215.361 385.945C214.463 385.047 214.014 383.768 214.014 382.107C214.014 380.369 214.619 379.09 215.83 378.27C217.051 377.439 218.887 376.98 221.338 376.893L224.18 376.805V376.087C224.18 374.427 223.33 373.597 221.631 373.597C220.322 373.597 218.784 373.992 217.017 374.783L215.537 371.766C217.422 370.779 219.512 370.286 221.807 370.286C224.004 370.286 225.688 370.765 226.86 371.722C228.032 372.679 228.618 374.134 228.618 376.087V387H225.498ZM224.18 379.412L222.451 379.471C221.152 379.51 220.186 379.744 219.551 380.174C218.916 380.604 218.599 381.258 218.599 382.137C218.599 383.396 219.321 384.026 220.767 384.026C221.802 384.026 222.627 383.729 223.242 383.133C223.867 382.537 224.18 381.746 224.18 380.76V379.412ZM237.7 370.623V376.922H243.94V370.623H248.408V387H243.94V380.247H237.7V387H233.232V370.623H237.7ZM256.655 378.782C256.655 380.403 256.919 381.629 257.446 382.459C257.983 383.289 258.853 383.704 260.054 383.704C261.245 383.704 262.1 383.294 262.617 382.474C263.145 381.644 263.408 380.413 263.408 378.782C263.408 377.161 263.145 375.945 262.617 375.135C262.09 374.324 261.226 373.919 260.024 373.919C258.833 373.919 257.974 374.324 257.446 375.135C256.919 375.936 256.655 377.151 256.655 378.782ZM267.979 378.782C267.979 381.448 267.275 383.533 265.869 385.037C264.463 386.541 262.505 387.293 259.995 387.293C258.423 387.293 257.036 386.951 255.835 386.268C254.634 385.574 253.711 384.583 253.066 383.294C252.422 382.005 252.1 380.501 252.1 378.782C252.1 376.106 252.798 374.026 254.194 372.542C255.591 371.058 257.554 370.315 260.083 370.315C261.655 370.315 263.042 370.657 264.243 371.341C265.444 372.024 266.367 373.006 267.012 374.285C267.656 375.564 267.979 377.063 267.979 378.782ZM290.2 370.623H295.122L288.633 378.475L295.693 387H290.625L283.931 378.694V387H279.463V370.623H283.931V378.577L290.2 370.623ZM308.438 387L307.573 384.773H307.456C306.704 385.721 305.928 386.38 305.127 386.751C304.336 387.112 303.301 387.293 302.021 387.293C300.449 387.293 299.209 386.844 298.301 385.945C297.402 385.047 296.953 383.768 296.953 382.107C296.953 380.369 297.559 379.09 298.77 378.27C299.99 377.439 301.826 376.98 304.277 376.893L307.119 376.805V376.087C307.119 374.427 306.27 373.597 304.57 373.597C303.262 373.597 301.724 373.992 299.956 374.783L298.477 371.766C300.361 370.779 302.451 370.286 304.746 370.286C306.943 370.286 308.628 370.765 309.8 371.722C310.972 372.679 311.558 374.134 311.558 376.087V387H308.438ZM307.119 379.412L305.391 379.471C304.092 379.51 303.125 379.744 302.49 380.174C301.855 380.604 301.538 381.258 301.538 382.137C301.538 383.396 302.261 384.026 303.706 384.026C304.741 384.026 305.566 383.729 306.182 383.133C306.807 382.537 307.119 381.746 307.119 380.76V379.412ZM325.166 387.293C323.242 387.293 321.733 386.595 320.64 385.198H320.405C320.562 386.565 320.64 387.356 320.64 387.571V394.207H316.172V370.623H319.805L320.435 372.747H320.64C321.685 371.126 323.232 370.315 325.283 370.315C327.217 370.315 328.73 371.062 329.824 372.557C330.918 374.051 331.465 376.126 331.465 378.782C331.465 380.53 331.206 382.049 330.688 383.338C330.181 384.627 329.453 385.608 328.506 386.282C327.559 386.956 326.445 387.293 325.166 387.293ZM323.848 373.89C322.744 373.89 321.938 374.231 321.431 374.915C320.923 375.589 320.659 376.707 320.64 378.27V378.753C320.64 380.511 320.898 381.771 321.416 382.532C321.943 383.294 322.773 383.675 323.906 383.675C325.908 383.675 326.909 382.024 326.909 378.724C326.909 377.112 326.66 375.906 326.162 375.105C325.674 374.295 324.902 373.89 323.848 373.89ZM348.706 370.623V373.978H343.345V387H338.877V373.978H333.501V370.623H348.706ZM373.022 387L371.47 381.902H363.662L362.109 387H357.217L364.775 365.496H370.327L377.915 387H373.022ZM370.386 378.094C368.95 373.475 368.14 370.862 367.954 370.257C367.778 369.651 367.651 369.173 367.573 368.821C367.251 370.071 366.328 373.162 364.805 378.094H370.386ZM397.573 387H393.047V369.363H387.803L387.568 371.326C386.963 376.316 386.426 379.822 385.957 381.844C385.498 383.855 384.824 385.271 383.936 386.092C383.047 386.912 381.846 387.312 380.332 387.293C379.512 387.293 378.789 387.186 378.164 386.971V383.25C378.73 383.445 379.263 383.543 379.761 383.543C380.278 383.543 380.688 383.309 380.991 382.84C381.294 382.361 381.577 381.482 381.841 380.203C382.114 378.914 382.471 376.81 382.91 373.89C383.359 370.96 383.74 368.191 384.053 365.584H397.573V387ZM416.514 365.584V369.334H407.52V387H402.979V365.584H416.514ZM432.935 387L431.382 381.902H423.574L422.021 387H417.129L424.688 365.496H430.239L437.827 387H432.935ZM430.298 378.094C428.862 373.475 428.052 370.862 427.866 370.257C427.69 369.651 427.563 369.173 427.485 368.821C427.163 370.071 426.24 373.162 424.717 378.094H430.298Z" fill="white"/>
<path d="M72.3182 376.894H74.972L74.5592 372.376L72.3182 376.894Z" fill="white"/>
<path d="M107.23 376.894H109.884L109.483 372.376L107.23 376.894Z" fill="white"/>
<path d="M115.664 355H65.3244C61.2789 355 58 358.271 58 362.306V387.706C58 391.729 61.2789 395 65.3244 395H115.676C119.721 395 123 391.729 123 387.694V362.306C122.988 358.271 119.709 355 115.664 355ZM91.9095 382.047H88.088L90.0931 371.729H87.2978C86.2952 376.094 85.3163 378.906 83.6296 380.471C82.2851 381.718 80.622 382.047 78.9 382.047H75.4088L75.1847 379.424H71.033L69.771 382.047H65.9967L73.1325 369.106H77.4847L79.1123 379.012C81.5892 378.988 82.6625 376.918 84.184 369.106H94.8109L92.0864 374.694H93.3248L91.9095 382.047ZM98.7149 376.518L97.6416 382.047H93.8438L95.2709 374.694H96.5093L95.9432 369.106H106.664L105.214 371.729H99.6349L99.057 374.682H101.687L100.685 376.518H98.7149ZM110.333 382.047L110.109 379.424H105.957L104.695 382.047H100.909L108.044 369.106H112.397L114.531 382.047H110.333Z" fill="white"/>
<path d="M111.965 500.91C124.387 500.91 134.26 504.396 141.584 511.369C148.967 518.342 152.658 527.893 152.658 540.021C152.658 554.377 148.234 565.422 139.387 573.156C130.539 580.891 117.883 584.758 101.418 584.758C87.1211 584.758 75.5781 582.443 66.7891 577.814V554.348C71.418 556.809 76.8086 558.83 82.9609 560.412C89.1133 561.936 94.9434 562.697 100.451 562.697C117.033 562.697 125.324 555.9 125.324 542.307C125.324 529.357 116.74 522.883 99.5723 522.883C96.4668 522.883 93.0391 523.205 89.2891 523.85C85.5391 524.436 82.4922 525.08 80.1484 525.783L69.3379 519.982L74.1719 454.504H143.869V477.531H97.9902L95.6172 502.756L98.6934 502.141C102.268 501.32 106.691 500.91 111.965 500.91ZM257.863 583H168.039V564.104L200.295 531.496C209.846 521.711 216.086 514.943 219.016 511.193C221.945 507.385 224.055 503.869 225.344 500.646C226.633 497.424 227.277 494.084 227.277 490.627C227.277 485.471 225.842 481.633 222.971 479.113C220.158 476.594 216.379 475.334 211.633 475.334C206.652 475.334 201.818 476.477 197.131 478.762C192.443 481.047 187.551 484.299 182.453 488.518L167.688 471.027C174.016 465.637 179.26 461.828 183.42 459.602C187.58 457.375 192.121 455.676 197.043 454.504C201.965 453.273 207.473 452.658 213.566 452.658C221.594 452.658 228.684 454.123 234.836 457.053C240.988 459.982 245.764 464.084 249.162 469.357C252.561 474.631 254.26 480.666 254.26 487.463C254.26 493.381 253.205 498.947 251.096 504.162C249.045 509.318 245.822 514.621 241.428 520.07C237.092 525.52 229.416 533.283 218.4 543.361L201.877 558.918V560.148H257.863V583ZM269.992 528.42C269.992 502.99 275.354 484.064 286.076 471.643C296.857 459.221 312.971 453.01 334.416 453.01C341.74 453.01 347.482 453.449 351.643 454.328V476.037C346.428 474.865 341.271 474.279 336.174 474.279C326.857 474.279 319.24 475.686 313.322 478.498C307.463 481.311 303.068 485.471 300.139 490.979C297.209 496.486 295.48 504.309 294.953 514.445H296.096C301.896 504.484 311.184 499.504 323.957 499.504C335.441 499.504 344.436 503.107 350.939 510.314C357.443 517.521 360.695 527.482 360.695 540.197C360.695 553.908 356.828 564.777 349.094 572.805C341.359 580.773 330.637 584.758 316.926 584.758C307.434 584.758 299.143 582.561 292.053 578.166C285.021 573.771 279.572 567.355 275.705 558.918C271.896 550.48 269.992 540.314 269.992 528.42ZM316.398 563.049C322.199 563.049 326.652 561.115 329.758 557.248C332.863 553.322 334.416 547.756 334.416 540.549C334.416 534.279 332.951 529.357 330.021 525.783C327.15 522.15 322.785 520.334 316.926 520.334C311.418 520.334 306.701 522.121 302.775 525.695C298.908 529.27 296.975 533.43 296.975 538.176C296.975 545.148 298.791 551.037 302.424 555.842C306.115 560.646 310.773 563.049 316.398 563.049ZM505.275 483.244C505.275 491.271 502.844 498.098 497.98 503.723C493.117 509.348 486.291 513.215 477.502 515.324V515.852C487.873 517.141 495.725 520.305 501.057 525.344C506.389 530.324 509.055 537.062 509.055 545.559C509.055 557.922 504.572 567.561 495.607 574.475C486.643 581.33 473.84 584.758 457.199 584.758C443.254 584.758 430.891 582.443 420.109 577.814V554.699C425.09 557.219 430.568 559.27 436.545 560.852C442.521 562.434 448.439 563.225 454.299 563.225C463.264 563.225 469.885 561.701 474.162 558.654C478.439 555.607 480.578 550.715 480.578 543.977C480.578 537.941 478.117 533.664 473.195 531.145C468.273 528.625 460.422 527.365 449.641 527.365H439.885V506.535H449.816C459.777 506.535 467.043 505.246 471.613 502.668C476.242 500.031 478.557 495.549 478.557 489.221C478.557 479.494 472.463 474.631 460.275 474.631C456.057 474.631 451.75 475.334 447.355 476.74C443.02 478.146 438.186 480.578 432.854 484.035L420.285 465.314C432.004 456.877 445.979 452.658 462.209 452.658C475.51 452.658 485.998 455.354 493.674 460.744C501.408 466.135 505.275 473.635 505.275 483.244ZM567.59 452.834C579.895 452.834 589.797 455.646 597.297 461.271C604.855 466.838 608.635 474.367 608.635 483.859C608.635 490.422 606.818 496.281 603.186 501.438C599.553 506.535 593.693 511.105 585.607 515.148C595.217 520.305 602.102 525.695 606.262 531.32C610.48 536.887 612.59 543.01 612.59 549.689C612.59 560.236 608.459 568.732 600.197 575.178C591.936 581.564 581.066 584.758 567.59 584.758C553.527 584.758 542.482 581.77 534.455 575.793C526.428 569.816 522.414 561.35 522.414 550.393C522.414 543.068 524.348 536.564 528.215 530.881C532.141 525.197 538.41 520.188 547.023 515.852C539.699 511.223 534.426 506.271 531.203 500.998C527.98 495.725 526.369 489.953 526.369 483.684C526.369 474.484 530.178 467.043 537.795 461.359C545.412 455.676 555.344 452.834 567.59 452.834ZM547.551 548.811C547.551 553.85 549.309 557.775 552.824 560.588C556.34 563.4 561.145 564.807 567.238 564.807C573.977 564.807 579.016 563.371 582.355 560.5C585.695 557.57 587.365 553.732 587.365 548.986C587.365 545.061 585.695 541.398 582.355 538C579.074 534.543 573.713 530.881 566.271 527.014C553.791 532.756 547.551 540.021 547.551 548.811ZM567.414 472.697C562.785 472.697 559.035 473.898 556.164 476.301C553.352 478.645 551.945 481.809 551.945 485.793C551.945 489.309 553.059 492.473 555.285 495.285C557.57 498.039 561.672 500.881 567.59 503.811C573.332 501.115 577.346 498.361 579.631 495.549C581.916 492.736 583.059 489.484 583.059 485.793C583.059 481.75 581.594 478.557 578.664 476.213C575.734 473.869 571.984 472.697 567.414 472.697ZM718.85 556.369H703.381V583H676.838V556.369H621.994V537.473L678.332 454.504H703.381V535.275H718.85V556.369ZM676.838 535.275V513.479C676.838 509.846 676.984 504.572 677.277 497.658C677.57 490.744 677.805 486.73 677.98 485.617H677.277C675.109 490.422 672.502 495.109 669.455 499.68L645.9 535.275H676.838Z" fill="#01F859"/>
<path d="M926.695 365.584H933.36C936.397 365.584 938.6 366.019 939.967 366.888C941.344 367.747 942.032 369.119 942.032 371.004C942.032 372.283 941.729 373.333 941.124 374.153C940.528 374.974 939.732 375.467 938.736 375.633V375.779C940.094 376.082 941.07 376.648 941.666 377.479C942.271 378.309 942.574 379.412 942.574 380.789C942.574 382.742 941.866 384.266 940.45 385.359C939.044 386.453 937.13 387 934.708 387H926.695V365.584ZM931.236 374.065H933.873C935.104 374.065 935.992 373.875 936.539 373.494C937.096 373.113 937.374 372.483 937.374 371.604C937.374 370.784 937.071 370.198 936.466 369.847C935.87 369.485 934.923 369.305 933.624 369.305H931.236V374.065ZM931.236 377.669V383.25H934.195C935.445 383.25 936.368 383.011 936.964 382.532C937.56 382.054 937.857 381.321 937.857 380.335C937.857 378.558 936.588 377.669 934.049 377.669H931.236ZM950.968 376.951H953.121C955.621 376.951 957.472 377.352 958.673 378.152C959.874 378.953 960.475 380.164 960.475 381.785C960.475 383.514 959.874 384.817 958.673 385.696C957.472 386.565 955.675 387 953.282 387H946.5V370.623H950.968V376.951ZM956.007 381.844C956.007 381.209 955.753 380.75 955.245 380.467C954.737 380.184 953.98 380.042 952.975 380.042H950.968V383.909H953.033C955.016 383.909 956.007 383.221 956.007 381.844ZM967.315 387H962.848V370.623H967.315V387ZM982.271 383.733V373.978H978.917C978.673 375.794 978.336 377.518 977.906 379.148C977.486 380.779 976.9 382.308 976.148 383.733H982.271ZM989.142 392.874H985.128V387H974.112V392.874H970.099V383.733H971.476C972.413 382.278 973.199 380.442 973.834 378.226C974.469 376.009 974.913 373.475 975.167 370.623H986.739V383.733H989.142V392.874ZM1002.34 387L1001.48 384.773H1001.36C1000.61 385.721 999.83 386.38 999.029 386.751C998.238 387.112 997.203 387.293 995.924 387.293C994.352 387.293 993.111 386.844 992.203 385.945C991.305 385.047 990.855 383.768 990.855 382.107C990.855 380.369 991.461 379.09 992.672 378.27C993.893 377.439 995.729 376.98 998.18 376.893L1001.02 376.805V376.087C1001.02 374.427 1000.17 373.597 998.473 373.597C997.164 373.597 995.626 373.992 993.858 374.783L992.379 371.766C994.264 370.779 996.354 370.286 998.648 370.286C1000.85 370.286 1002.53 370.765 1003.7 371.722C1004.87 372.679 1005.46 374.134 1005.46 376.087V387H1002.34ZM1001.02 379.412L999.293 379.471C997.994 379.51 997.027 379.744 996.393 380.174C995.758 380.604 995.44 381.258 995.44 382.137C995.44 383.396 996.163 384.026 997.608 384.026C998.644 384.026 999.469 383.729 1000.08 383.133C1000.71 382.537 1001.02 381.746 1001.02 380.76V379.412ZM1014.54 370.623V376.922H1020.78V370.623H1025.25V387H1020.78V380.247H1014.54V387H1010.07V370.623H1014.54ZM1033.5 378.782C1033.5 380.403 1033.76 381.629 1034.29 382.459C1034.83 383.289 1035.69 383.704 1036.9 383.704C1038.09 383.704 1038.94 383.294 1039.46 382.474C1039.99 381.644 1040.25 380.413 1040.25 378.782C1040.25 377.161 1039.99 375.945 1039.46 375.135C1038.93 374.324 1038.07 373.919 1036.87 373.919C1035.67 373.919 1034.82 374.324 1034.29 375.135C1033.76 375.936 1033.5 377.151 1033.5 378.782ZM1044.82 378.782C1044.82 381.448 1044.12 383.533 1042.71 385.037C1041.3 386.541 1039.35 387.293 1036.84 387.293C1035.26 387.293 1033.88 386.951 1032.68 386.268C1031.48 385.574 1030.55 384.583 1029.91 383.294C1029.26 382.005 1028.94 380.501 1028.94 378.782C1028.94 376.106 1029.64 374.026 1031.04 372.542C1032.43 371.058 1034.4 370.315 1036.92 370.315C1038.5 370.315 1039.88 370.657 1041.08 371.341C1042.29 372.024 1043.21 373.006 1043.85 374.285C1044.5 375.564 1044.82 377.063 1044.82 378.782ZM1067.04 370.623H1071.96L1065.47 378.475L1072.54 387H1067.47L1060.77 378.694V387H1056.3V370.623H1060.77V378.577L1067.04 370.623ZM1085.28 387L1084.42 384.773H1084.3C1083.55 385.721 1082.77 386.38 1081.97 386.751C1081.18 387.112 1080.14 387.293 1078.86 387.293C1077.29 387.293 1076.05 386.844 1075.14 385.945C1074.24 385.047 1073.79 383.768 1073.79 382.107C1073.79 380.369 1074.4 379.09 1075.61 378.27C1076.83 377.439 1078.67 376.98 1081.12 376.893L1083.96 376.805V376.087C1083.96 374.427 1083.11 373.597 1081.41 373.597C1080.1 373.597 1078.57 373.992 1076.8 374.783L1075.32 371.766C1077.2 370.779 1079.29 370.286 1081.59 370.286C1083.79 370.286 1085.47 370.765 1086.64 371.722C1087.81 372.679 1088.4 374.134 1088.4 376.087V387H1085.28ZM1083.96 379.412L1082.23 379.471C1080.93 379.51 1079.97 379.744 1079.33 380.174C1078.7 380.604 1078.38 381.258 1078.38 382.137C1078.38 383.396 1079.1 384.026 1080.55 384.026C1081.58 384.026 1082.41 383.729 1083.02 383.133C1083.65 382.537 1083.96 381.746 1083.96 380.76V379.412ZM1102.01 387.293C1100.08 387.293 1098.58 386.595 1097.48 385.198H1097.25C1097.4 386.565 1097.48 387.356 1097.48 387.571V394.207H1093.01V370.623H1096.65L1097.28 372.747H1097.48C1098.53 371.126 1100.07 370.315 1102.12 370.315C1104.06 370.315 1105.57 371.062 1106.67 372.557C1107.76 374.051 1108.31 376.126 1108.31 378.782C1108.31 380.53 1108.05 382.049 1107.53 383.338C1107.02 384.627 1106.29 385.608 1105.35 386.282C1104.4 386.956 1103.29 387.293 1102.01 387.293ZM1100.69 373.89C1099.59 373.89 1098.78 374.231 1098.27 374.915C1097.76 375.589 1097.5 376.707 1097.48 378.27V378.753C1097.48 380.511 1097.74 381.771 1098.26 382.532C1098.79 383.294 1099.62 383.675 1100.75 383.675C1102.75 383.675 1103.75 382.024 1103.75 378.724C1103.75 377.112 1103.5 375.906 1103 375.105C1102.52 374.295 1101.74 373.89 1100.69 373.89ZM1125.55 370.623V373.978H1120.19V387H1115.72V373.978H1110.34V370.623H1125.55ZM1149.86 387L1148.31 381.902H1140.5L1138.95 387H1134.06L1141.62 365.496H1147.17L1154.76 387H1149.86ZM1147.23 378.094C1145.79 373.475 1144.98 370.862 1144.8 370.257C1144.62 369.651 1144.49 369.173 1144.42 368.821C1144.09 370.071 1143.17 373.162 1141.65 378.094H1147.23ZM1174.42 387H1169.89V369.363H1164.64L1164.41 371.326C1163.8 376.316 1163.27 379.822 1162.8 381.844C1162.34 383.855 1161.67 385.271 1160.78 386.092C1159.89 386.912 1158.69 387.312 1157.17 387.293C1156.35 387.293 1155.63 387.186 1155.01 386.971V383.25C1155.57 383.445 1156.1 383.543 1156.6 383.543C1157.12 383.543 1157.53 383.309 1157.83 382.84C1158.14 382.361 1158.42 381.482 1158.68 380.203C1158.96 378.914 1159.31 376.81 1159.75 373.89C1160.2 370.96 1160.58 368.191 1160.89 365.584H1174.42V387ZM1193.36 365.584V369.334H1184.36V387H1179.82V365.584H1193.36ZM1209.78 387L1208.22 381.902H1200.42L1198.86 387H1193.97L1201.53 365.496H1207.08L1214.67 387H1209.78ZM1207.14 378.094C1205.7 373.475 1204.89 370.862 1204.71 370.257C1204.53 369.651 1204.41 369.173 1204.33 368.821C1204 370.071 1203.08 373.162 1201.56 378.094H1207.14ZM1249.21 387H1224.82V370.623H1229.29V383.646H1234.78V370.623H1239.25V383.646H1244.74V370.623H1249.21V387ZM1264.65 370.623H1269.57L1263.08 378.475L1270.14 387H1265.07L1258.38 378.694V387H1253.91V370.623H1258.38V378.577L1264.65 370.623ZM1276.05 378.782C1276.05 380.403 1276.31 381.629 1276.84 382.459C1277.37 383.289 1278.24 383.704 1279.44 383.704C1280.64 383.704 1281.49 383.294 1282.01 382.474C1282.54 381.644 1282.8 380.413 1282.8 378.782C1282.8 377.161 1282.54 375.945 1282.01 375.135C1281.48 374.324 1280.62 373.919 1279.42 373.919C1278.22 373.919 1277.36 374.324 1276.84 375.135C1276.31 375.936 1276.05 377.151 1276.05 378.782ZM1287.37 378.782C1287.37 381.448 1286.67 383.533 1285.26 385.037C1283.85 386.541 1281.9 387.293 1279.39 387.293C1277.81 387.293 1276.43 386.951 1275.23 386.268C1274.02 385.574 1273.1 384.583 1272.46 383.294C1271.81 382.005 1271.49 380.501 1271.49 378.782C1271.49 376.106 1272.19 374.026 1273.58 372.542C1274.98 371.058 1276.94 370.315 1279.47 370.315C1281.05 370.315 1282.43 370.657 1283.63 371.341C1284.83 372.024 1285.76 373.006 1286.4 374.285C1287.05 375.564 1287.37 377.063 1287.37 378.782ZM1305.72 387H1301.26V373.978H1297.14C1296.83 377.64 1296.45 380.374 1296 382.181C1295.55 383.978 1294.95 385.281 1294.2 386.092C1293.45 386.893 1292.48 387.293 1291.27 387.293C1290.23 387.293 1289.38 387.137 1288.72 386.824V383.25C1289.2 383.445 1289.67 383.543 1290.15 383.543C1290.71 383.543 1291.17 383.143 1291.54 382.342C1291.92 381.541 1292.26 380.208 1292.55 378.343C1292.86 376.468 1293.12 373.895 1293.33 370.623H1305.72V387ZM1314.89 376.951H1318.04C1320.56 376.951 1322.43 377.352 1323.64 378.152C1324.85 378.953 1325.46 380.164 1325.46 381.785C1325.46 385.262 1323.04 387 1318.22 387H1310.43V370.623H1314.89V376.951ZM1320.99 381.844C1320.99 381.209 1320.73 380.75 1320.23 380.467C1319.72 380.184 1318.96 380.042 1317.96 380.042H1314.89V383.909H1318.01C1320 383.909 1320.99 383.221 1320.99 381.844ZM1333.32 370.623V376.922H1339.56V370.623H1344.03V387H1339.56V380.247H1333.32V387H1328.85V370.623H1333.32ZM1353.04 370.623V377.098C1353.04 377.781 1352.93 379.451 1352.7 382.107L1360.26 370.623H1365.64V387H1361.31V380.467C1361.31 379.305 1361.41 377.664 1361.61 375.545L1354.08 387H1348.72V370.623H1353.04ZM1381.08 370.623H1386L1379.51 378.475L1386.57 387H1381.5L1374.81 378.694V387H1370.34V370.623H1374.81V378.577L1381.08 370.623ZM1399.31 387L1398.45 384.773H1398.33C1397.58 385.721 1396.8 386.38 1396 386.751C1395.21 387.112 1394.18 387.293 1392.9 387.293C1391.32 387.293 1390.08 386.844 1389.18 385.945C1388.28 385.047 1387.83 383.768 1387.83 382.107C1387.83 380.369 1388.43 379.09 1389.64 378.27C1390.87 377.439 1392.7 376.98 1395.15 376.893L1397.99 376.805V376.087C1397.99 374.427 1397.14 373.597 1395.45 373.597C1394.14 373.597 1392.6 373.992 1390.83 374.783L1389.35 371.766C1391.24 370.779 1393.33 370.286 1395.62 370.286C1397.82 370.286 1399.5 370.765 1400.67 371.722C1401.85 372.679 1402.43 374.134 1402.43 376.087V387H1399.31ZM1397.99 379.412L1396.27 379.471C1394.97 379.51 1394 379.744 1393.37 380.174C1392.73 380.604 1392.41 381.258 1392.41 382.137C1392.41 383.396 1393.14 384.026 1394.58 384.026C1395.62 384.026 1396.44 383.729 1397.06 383.133C1397.68 382.537 1397.99 381.746 1397.99 380.76V379.412Z" fill="white"/>
<path d="M900 383.095C900 380.454 898.119 378.244 895.628 377.736V371.829C895.628 371.291 895.364 370.787 894.922 370.48C894.48 370.174 893.916 370.103 893.413 370.292L890.283 371.467C888.229 369.329 885.731 367.719 882.994 366.73C885.683 364.736 887.43 361.537 887.43 357.938C887.43 351.907 882.527 347 876.5 347C870.473 347 865.57 351.907 865.57 357.938C865.57 361.537 867.317 364.736 870.006 366.73C867.269 367.719 864.771 369.329 862.717 371.467L859.587 370.292C859.084 370.103 858.52 370.174 858.078 370.48C857.636 370.787 857.372 371.291 857.372 371.829V377.736C854.881 378.244 853 380.453 853 383.095C853 385.736 854.881 387.945 857.372 388.453V394.798C857.372 395.482 857.796 396.094 858.436 396.334L875.924 402.897C876.293 403.034 876.707 403.034 877.076 402.897L894.564 396.334C895.204 396.094 895.628 395.482 895.628 394.798V388.453C898.119 387.945 900 385.736 900 383.095ZM868.849 357.938C868.849 353.716 872.281 350.281 876.5 350.281C880.719 350.281 884.151 353.716 884.151 357.938C884.151 362.159 880.719 365.594 876.5 365.594C872.281 365.594 868.849 362.159 868.849 357.938ZM876.5 368.875C880.341 368.875 884.01 370.265 886.873 372.747L876.5 376.639L866.127 372.747C868.99 370.265 872.659 368.875 876.5 368.875ZM856.279 383.095C856.279 381.888 857.26 380.907 858.465 380.907H859.558V385.282H858.465C857.26 385.282 856.279 384.301 856.279 383.095ZM894.535 385.282H893.442V380.907H894.535C895.74 380.907 896.721 381.888 896.721 383.095C896.721 384.301 895.74 385.282 894.535 385.282Z" fill="white"/>
<path d="M952.932 556.369H937.463V583H910.92V556.369H856.076V537.473L912.414 454.504H937.463V535.275H952.932V556.369ZM910.92 535.275V513.479C910.92 509.846 911.066 504.572 911.359 497.658C911.652 490.744 911.887 486.73 912.062 485.617H911.359C909.191 490.422 906.584 495.109 903.537 499.68L879.982 535.275H910.92ZM1052.16 518.752C1052.16 541.193 1048.47 557.805 1041.09 568.586C1033.76 579.367 1022.45 584.758 1007.16 584.758C992.336 584.758 981.145 579.191 973.586 568.059C966.086 556.926 962.336 540.49 962.336 518.752C962.336 496.076 965.998 479.377 973.322 468.654C980.646 457.873 991.926 452.482 1007.16 452.482C1021.98 452.482 1033.18 458.107 1040.73 469.357C1048.35 480.607 1052.16 497.072 1052.16 518.752ZM989.318 518.752C989.318 534.514 990.666 545.822 993.361 552.678C996.115 559.475 1000.71 562.873 1007.16 562.873C1013.49 562.873 1018.06 559.416 1020.87 552.502C1023.68 545.588 1025.09 534.338 1025.09 518.752C1025.09 502.99 1023.65 491.682 1020.78 484.826C1017.97 477.912 1013.43 474.455 1007.16 474.455C1000.77 474.455 996.203 477.912 993.449 484.826C990.695 491.682 989.318 502.99 989.318 518.752ZM1155.7 583H1065.87V564.104L1098.13 531.496C1107.68 521.711 1113.92 514.943 1116.85 511.193C1119.78 507.385 1121.89 503.869 1123.18 500.646C1124.46 497.424 1125.11 494.084 1125.11 490.627C1125.11 485.471 1123.67 481.633 1120.8 479.113C1117.99 476.594 1114.21 475.334 1109.46 475.334C1104.48 475.334 1099.65 476.477 1094.96 478.762C1090.28 481.047 1085.38 484.299 1080.29 488.518L1065.52 471.027C1071.85 465.637 1077.09 461.828 1081.25 459.602C1085.41 457.375 1089.95 455.676 1094.88 454.504C1099.8 453.273 1105.3 452.658 1111.4 452.658C1119.43 452.658 1126.52 454.123 1132.67 457.053C1138.82 459.982 1143.6 464.084 1146.99 469.357C1150.39 474.631 1152.09 480.666 1152.09 487.463C1152.09 493.381 1151.04 498.947 1148.93 504.162C1146.88 509.318 1143.65 514.621 1139.26 520.07C1134.92 525.52 1127.25 533.283 1116.23 543.361L1099.71 558.918V560.148H1155.7V583ZM1305.29 583H1215.46V564.104L1247.72 531.496C1257.27 521.711 1263.51 514.943 1266.44 511.193C1269.37 507.385 1271.48 503.869 1272.77 500.646C1274.05 497.424 1274.7 494.084 1274.7 490.627C1274.7 485.471 1273.26 481.633 1270.39 479.113C1267.58 476.594 1263.8 475.334 1259.05 475.334C1254.07 475.334 1249.24 476.477 1244.55 478.762C1239.87 481.047 1234.97 484.299 1229.88 488.518L1215.11 471.027C1221.44 465.637 1226.68 461.828 1230.84 459.602C1235 457.375 1239.54 455.676 1244.46 454.504C1249.39 453.273 1254.89 452.658 1260.99 452.658C1269.02 452.658 1276.11 454.123 1282.26 457.053C1288.41 459.982 1293.19 464.084 1296.58 469.357C1299.98 474.631 1301.68 480.666 1301.68 487.463C1301.68 493.381 1300.63 498.947 1298.52 504.162C1296.47 509.318 1293.24 514.621 1288.85 520.07C1284.51 525.52 1276.84 533.283 1265.82 543.361L1249.3 558.918V560.148H1305.29V583ZM1407.59 509.348C1407.59 534.66 1402.26 553.557 1391.59 566.037C1380.93 578.518 1364.79 584.758 1343.17 584.758C1335.55 584.758 1329.78 584.348 1325.85 583.527V561.73C1330.77 562.961 1335.93 563.576 1341.32 563.576C1350.4 563.576 1357.87 562.258 1363.73 559.621C1369.59 556.926 1374.07 552.736 1377.18 547.053C1380.29 541.311 1382.07 533.43 1382.54 523.41H1381.49C1378.09 528.918 1374.16 532.785 1369.71 535.012C1365.26 537.238 1359.69 538.352 1353.01 538.352C1341.82 538.352 1333 534.777 1326.55 527.629C1320.11 520.422 1316.89 510.432 1316.89 497.658C1316.89 483.889 1320.78 473.02 1328.58 465.051C1336.43 457.023 1347.09 453.01 1360.57 453.01C1370.06 453.01 1378.35 455.236 1385.44 459.689C1392.59 464.143 1398.07 470.617 1401.88 479.113C1405.69 487.551 1407.59 497.629 1407.59 509.348ZM1361.1 474.807C1355.47 474.807 1351.08 476.74 1347.91 480.607C1344.75 484.475 1343.17 490.041 1343.17 497.307C1343.17 503.518 1344.6 508.439 1347.47 512.072C1350.34 515.705 1354.71 517.521 1360.57 517.521C1366.08 517.521 1370.79 515.734 1374.72 512.16C1378.64 508.527 1380.61 504.367 1380.61 499.68C1380.61 492.707 1378.76 486.818 1375.07 482.014C1371.44 477.209 1366.78 474.807 1361.1 474.807ZM1488.27 583H1461.12V508.645L1461.38 496.428L1461.82 483.068C1457.31 487.58 1454.17 490.539 1452.41 491.945L1437.65 503.811L1424.55 487.463L1465.95 454.504H1488.27V583Z" fill="#01F859"/>
<path d="M1590 279.999C986.751 279.999 603.249 280 0 280" stroke="#275D81" stroke-width="2"/>
<path d="M794.001 680C794.001 -86.1883 794 1046.19 794 280" stroke="#275D81" stroke-width="2"/>
</svg>
