<svg width="1591" height="931" viewBox="0 0 1591 931" fill="none" xmlns="http://www.w3.org/2000/svg">
<path d="M769.531 323H763L753.166 309.251V323H747.414V295.873H753.166V309.01L762.889 295.873H769.012L759.122 308.898L769.531 323ZM769.531 302.256H775.729L779.644 313.927C779.978 314.941 780.206 316.141 780.33 317.526H780.441C780.577 316.252 780.843 315.052 781.239 313.927L785.08 302.256H791.147L782.371 325.653C781.567 327.818 780.417 329.438 778.92 330.515C777.436 331.591 775.698 332.129 773.706 332.129C772.729 332.129 771.77 332.024 770.83 331.813V327.323C771.51 327.484 772.253 327.564 773.057 327.564C774.059 327.564 774.931 327.255 775.673 326.637C776.427 326.031 777.015 325.109 777.436 323.872L777.77 322.852L769.531 302.256ZM812.708 323H807.049V306.505H801.835C801.439 311.144 800.957 314.607 800.388 316.896C799.819 319.172 799.058 320.823 798.105 321.85C797.165 322.864 795.928 323.371 794.395 323.371C793.083 323.371 792.007 323.173 791.166 322.777V318.25C791.772 318.497 792.378 318.621 792.984 318.621C793.689 318.621 794.277 318.114 794.747 317.1C795.229 316.085 795.656 314.397 796.027 312.034C796.411 309.659 796.739 306.4 797.011 302.256H812.708V323ZM824.323 310.271H828.312C831.504 310.271 833.867 310.779 835.4 311.793C836.934 312.807 837.701 314.341 837.701 316.395C837.701 320.798 834.646 323 828.535 323H818.664V302.256H824.323V310.271ZM832.042 316.469C832.042 315.665 831.72 315.083 831.077 314.725C830.434 314.366 829.475 314.187 828.201 314.187H824.323V319.085H828.275C830.786 319.085 832.042 318.213 832.042 316.469ZM859.169 302.256V306.505H852.378V323H846.719V306.505H839.909V302.256H859.169ZM860.078 302.256H866.275L870.19 313.927C870.524 314.941 870.753 316.141 870.877 317.526H870.988C871.124 316.252 871.39 315.052 871.786 313.927L875.627 302.256H881.694L872.918 325.653C872.114 327.818 870.964 329.438 869.467 330.515C867.982 331.591 866.244 332.129 864.253 332.129C863.276 332.129 862.317 332.024 861.377 331.813V327.323C862.057 327.484 862.799 327.564 863.604 327.564C864.605 327.564 865.478 327.255 866.22 326.637C866.974 326.031 867.562 325.109 867.982 323.872L868.316 322.852L860.078 302.256ZM896.074 323.371C893.637 323.371 891.726 322.487 890.341 320.718H890.044C890.242 322.45 890.341 323.451 890.341 323.724V332.129H884.682V302.256H889.283L890.081 304.946H890.341C891.664 302.893 893.625 301.866 896.223 301.866C898.672 301.866 900.589 302.812 901.975 304.705C903.36 306.598 904.053 309.226 904.053 312.591C904.053 314.805 903.725 316.729 903.069 318.361C902.426 319.994 901.505 321.237 900.305 322.091C899.105 322.944 897.695 323.371 896.074 323.371ZM894.404 306.394C893.007 306.394 891.986 306.826 891.343 307.692C890.7 308.546 890.366 309.962 890.341 311.941V312.554C890.341 314.78 890.669 316.376 891.324 317.341C891.992 318.306 893.044 318.788 894.479 318.788C897.014 318.788 898.282 316.698 898.282 312.517C898.282 310.476 897.967 308.948 897.336 307.934C896.717 306.907 895.74 306.394 894.404 306.394ZM921.902 323L920.808 320.18H920.659C919.707 321.38 918.723 322.215 917.709 322.685C916.707 323.142 915.396 323.371 913.775 323.371C911.784 323.371 910.213 322.802 909.062 321.664C907.924 320.526 907.355 318.906 907.355 316.803C907.355 314.601 908.122 312.98 909.656 311.941C911.202 310.89 913.528 310.309 916.633 310.197L920.232 310.086V309.177C920.232 307.074 919.156 306.022 917.004 306.022C915.346 306.022 913.398 306.523 911.159 307.525L909.285 303.703C911.673 302.454 914.32 301.829 917.227 301.829C920.01 301.829 922.144 302.435 923.628 303.647C925.112 304.86 925.854 306.703 925.854 309.177V323H921.902ZM920.232 313.389L918.043 313.463C916.398 313.512 915.173 313.809 914.369 314.354C913.565 314.898 913.163 315.727 913.163 316.84C913.163 318.436 914.078 319.233 915.909 319.233C917.22 319.233 918.266 318.856 919.045 318.102C919.837 317.347 920.232 316.345 920.232 315.096V313.389Z" fill="white"/>
<path d="M719.065 290.363C718.489 290.05 717.785 290.082 717.239 290.44C717.189 290.474 711.935 293.8 702.174 293.708L702.187 308.001C702.187 310.557 701.715 312.999 700.893 315.274C701.315 315.197 701.745 315.143 702.187 315.143C706.122 315.143 709.312 318.341 709.312 322.286H696.7C694.703 324.517 692.257 326.328 689.491 327.566C692.782 330.987 697.307 333 702.187 333C712.008 333 720 324.988 720 315.143V291.93C720 291.275 719.638 290.674 719.065 290.363ZM705.75 308.001C705.75 306.029 707.346 304.429 709.312 304.429C711.281 304.429 712.875 306.029 712.875 308.001H705.75Z" fill="white"/>
<path d="M698.625 308V284.786C698.625 284.13 698.263 283.53 697.69 283.219C697.113 282.908 696.412 282.938 695.864 283.295C695.812 283.329 690.736 286.572 680.813 286.572C670.944 286.572 665.871 283.365 665.764 283.298C665.212 282.934 664.516 282.901 663.941 283.213C663.362 283.523 663 284.127 663 284.786V308C663 317.845 670.992 325.857 680.813 325.857C690.633 325.857 698.625 317.846 698.625 308ZM673.688 297.286C675.654 297.286 677.25 298.886 677.25 300.857H670.125C670.125 298.886 671.721 297.286 673.688 297.286ZM680.813 315.143C676.878 315.143 673.688 311.945 673.688 308H687.938C687.938 311.945 684.748 315.143 680.813 315.143ZM684.375 300.857C684.375 298.886 685.971 297.286 687.938 297.286C689.904 297.286 691.5 298.886 691.5 300.857H684.375Z" fill="white"/>
<path d="M733.578 457.164H724.25V452.992H733.578V443.43H737.797V452.992H747.148V457.164H737.797V466.68H733.578V457.164ZM755.422 472L768.969 442.633H751.156V437.781H774.852V441.625L761.375 472H755.422ZM790.578 450.602C794.031 450.602 796.766 451.516 798.781 453.344C800.797 455.172 801.805 457.664 801.805 460.82C801.805 464.477 800.656 467.336 798.359 469.398C796.078 471.445 792.828 472.469 788.609 472.469C784.781 472.469 781.773 471.852 779.586 470.617V465.625C780.852 466.344 782.305 466.898 783.945 467.289C785.586 467.68 787.109 467.875 788.516 467.875C791 467.875 792.891 467.32 794.188 466.211C795.484 465.102 796.133 463.477 796.133 461.336C796.133 457.242 793.523 455.195 788.305 455.195C787.57 455.195 786.664 455.273 785.586 455.43C784.508 455.57 783.562 455.734 782.75 455.922L780.289 454.469L781.602 437.734H799.414V442.633H786.453L785.68 451.117C786.227 451.023 786.891 450.914 787.672 450.789C788.469 450.664 789.438 450.602 790.578 450.602ZM813.922 466.961C813.172 469.867 811.797 473.609 809.797 478.188H805.742C806.82 473.969 807.625 470.047 808.156 466.422H813.57L813.922 466.961ZM830.844 450.602C834.297 450.602 837.031 451.516 839.047 453.344C841.062 455.172 842.07 457.664 842.07 460.82C842.07 464.477 840.922 467.336 838.625 469.398C836.344 471.445 833.094 472.469 828.875 472.469C825.047 472.469 822.039 471.852 819.852 470.617V465.625C821.117 466.344 822.57 466.898 824.211 467.289C825.852 467.68 827.375 467.875 828.781 467.875C831.266 467.875 833.156 467.32 834.453 466.211C835.75 465.102 836.398 463.477 836.398 461.336C836.398 457.242 833.789 455.195 828.57 455.195C827.836 455.195 826.93 455.273 825.852 455.43C824.773 455.57 823.828 455.734 823.016 455.922L820.555 454.469L821.867 437.734H839.68V442.633H826.719L825.945 451.117C826.492 451.023 827.156 450.914 827.938 450.789C828.734 450.664 829.703 450.602 830.844 450.602ZM846.734 457.398C846.734 443.992 852.195 437.289 863.117 437.289C864.836 437.289 866.289 437.422 867.477 437.688V442.281C866.289 441.938 864.914 441.766 863.352 441.766C859.68 441.766 856.922 442.75 855.078 444.719C853.234 446.688 852.234 449.844 852.078 454.188H852.359C853.094 452.922 854.125 451.945 855.453 451.258C856.781 450.555 858.344 450.203 860.141 450.203C863.25 450.203 865.672 451.156 867.406 453.062C869.141 454.969 870.008 457.555 870.008 460.82C870.008 464.414 869 467.258 866.984 469.352C864.984 471.43 862.25 472.469 858.781 472.469C856.328 472.469 854.195 471.883 852.383 470.711C850.57 469.523 849.172 467.805 848.188 465.555C847.219 463.289 846.734 460.57 846.734 457.398ZM858.688 467.922C860.578 467.922 862.031 467.312 863.047 466.094C864.078 464.875 864.594 463.133 864.594 460.867C864.594 458.898 864.109 457.352 863.141 456.227C862.188 455.102 860.75 454.539 858.828 454.539C857.641 454.539 856.547 454.797 855.547 455.312C854.547 455.812 853.758 456.508 853.18 457.398C852.602 458.273 852.312 459.172 852.312 460.094C852.312 462.297 852.906 464.156 854.094 465.672C855.297 467.172 856.828 467.922 858.688 467.922ZM878.492 448C878.492 450.328 878.719 452.062 879.172 453.203C879.625 454.344 880.367 454.914 881.398 454.914C883.461 454.914 884.492 452.609 884.492 448C884.492 443.391 883.461 441.086 881.398 441.086C880.367 441.086 879.625 441.656 879.172 442.797C878.719 443.938 878.492 445.672 878.492 448ZM889.039 447.953C889.039 451.547 888.391 454.25 887.094 456.062C885.812 457.859 883.914 458.758 881.398 458.758C879.023 458.758 877.18 457.828 875.867 455.969C874.57 454.094 873.922 451.422 873.922 447.953C873.922 440.812 876.414 437.242 881.398 437.242C883.852 437.242 885.734 438.172 887.047 440.031C888.375 441.875 889.039 444.516 889.039 447.953ZM900.805 461.688C900.805 464.016 901.031 465.758 901.484 466.914C901.953 468.07 902.703 468.648 903.734 468.648C905.781 468.648 906.805 466.328 906.805 461.688C906.805 457.109 905.781 454.82 903.734 454.82C902.703 454.82 901.953 455.383 901.484 456.508C901.031 457.633 900.805 459.359 900.805 461.688ZM911.352 461.688C911.352 465.281 910.703 467.977 909.406 469.773C908.109 471.57 906.219 472.469 903.734 472.469C901.359 472.469 899.516 471.547 898.203 469.703C896.891 467.844 896.234 465.172 896.234 461.688C896.234 454.547 898.734 450.977 903.734 450.977C906.141 450.977 908.008 451.898 909.336 453.742C910.68 455.586 911.352 458.234 911.352 461.688ZM904.391 437.734L885.383 472H880.836L899.844 437.734H904.391Z" fill="#01F859"/>
<path d="M691.5 448L706 472H677L691.5 448Z" fill="#01F859"/>
<path d="M691.947 927H675.055V924.486L681.822 917.684C683.885 915.598 685.244 914.109 685.9 913.219C686.557 912.328 687.049 911.461 687.377 910.617C687.705 909.773 687.869 908.865 687.869 907.893C687.869 906.521 687.453 905.438 686.621 904.641C685.789 903.832 684.635 903.428 683.158 903.428C682.092 903.428 681.078 903.604 680.117 903.955C679.168 904.307 678.107 904.945 676.936 905.871L675.389 903.885C677.756 901.916 680.334 900.932 683.123 900.932C685.537 900.932 687.43 901.553 688.801 902.795C690.172 904.025 690.857 905.684 690.857 907.77C690.857 909.398 690.4 911.01 689.486 912.604C688.572 914.197 686.861 916.213 684.354 918.65L678.729 924.152V924.293H691.947V927ZM712.689 914.115C712.689 918.557 711.986 921.873 710.58 924.064C709.186 926.256 707.047 927.352 704.164 927.352C701.398 927.352 699.295 926.232 697.854 923.994C696.412 921.744 695.691 918.451 695.691 914.115C695.691 909.639 696.389 906.316 697.783 904.148C699.178 901.98 701.305 900.896 704.164 900.896C706.953 900.896 709.068 902.027 710.51 904.289C711.963 906.551 712.689 909.826 712.689 914.115ZM698.645 914.115C698.645 917.854 699.084 920.578 699.963 922.289C700.842 923.988 702.242 924.838 704.164 924.838C706.109 924.838 707.516 923.977 708.383 922.254C709.262 920.52 709.701 917.807 709.701 914.115C709.701 910.424 709.262 907.723 708.383 906.012C707.516 904.289 706.109 903.428 704.164 903.428C702.242 903.428 700.842 904.277 699.963 905.977C699.084 907.664 698.645 910.377 698.645 914.115ZM727.068 927H724.221V908.684C724.221 907.16 724.268 905.719 724.361 904.359C724.115 904.605 723.84 904.863 723.535 905.133C723.23 905.402 721.836 906.545 719.352 908.561L717.805 906.557L724.607 901.301H727.068V927ZM753.752 912.27C753.752 922.324 749.861 927.352 742.08 927.352C740.721 927.352 739.643 927.234 738.846 927V924.486C739.783 924.791 740.85 924.943 742.045 924.943C744.857 924.943 746.979 924.076 748.408 922.342C749.85 920.596 750.635 917.924 750.764 914.326H750.553C749.908 915.299 749.053 916.043 747.986 916.559C746.92 917.062 745.719 917.314 744.383 917.314C742.109 917.314 740.305 916.635 738.969 915.275C737.633 913.916 736.965 912.018 736.965 909.58C736.965 906.908 737.709 904.799 739.197 903.252C740.697 901.705 742.666 900.932 745.104 900.932C746.85 900.932 748.373 901.383 749.674 902.285C750.986 903.176 751.994 904.482 752.697 906.205C753.4 907.916 753.752 909.938 753.752 912.27ZM745.104 903.428C743.428 903.428 742.133 903.967 741.219 905.045C740.305 906.123 739.848 907.623 739.848 909.545C739.848 911.232 740.27 912.562 741.113 913.535C741.957 914.496 743.24 914.977 744.963 914.977C746.029 914.977 747.008 914.76 747.898 914.326C748.801 913.893 749.51 913.301 750.025 912.551C750.541 911.801 750.799 911.016 750.799 910.195C750.799 908.965 750.559 907.828 750.078 906.785C749.598 905.742 748.924 904.922 748.057 904.324C747.201 903.727 746.217 903.428 745.104 903.428Z" fill="white"/>
<path d="M854.947 927H838.055V924.486L844.822 917.684C846.885 915.598 848.244 914.109 848.9 913.219C849.557 912.328 850.049 911.461 850.377 910.617C850.705 909.773 850.869 908.865 850.869 907.893C850.869 906.521 850.453 905.438 849.621 904.641C848.789 903.832 847.635 903.428 846.158 903.428C845.092 903.428 844.078 903.604 843.117 903.955C842.168 904.307 841.107 904.945 839.936 905.871L838.389 903.885C840.756 901.916 843.334 900.932 846.123 900.932C848.537 900.932 850.43 901.553 851.801 902.795C853.172 904.025 853.857 905.684 853.857 907.77C853.857 909.398 853.4 911.01 852.486 912.604C851.572 914.197 849.861 916.213 847.354 918.65L841.729 924.152V924.293H854.947V927ZM875.689 914.115C875.689 918.557 874.986 921.873 873.58 924.064C872.186 926.256 870.047 927.352 867.164 927.352C864.398 927.352 862.295 926.232 860.854 923.994C859.412 921.744 858.691 918.451 858.691 914.115C858.691 909.639 859.389 906.316 860.783 904.148C862.178 901.98 864.305 900.896 867.164 900.896C869.953 900.896 872.068 902.027 873.51 904.289C874.963 906.551 875.689 909.826 875.689 914.115ZM861.645 914.115C861.645 917.854 862.084 920.578 862.963 922.289C863.842 923.988 865.242 924.838 867.164 924.838C869.109 924.838 870.516 923.977 871.383 922.254C872.262 920.52 872.701 917.807 872.701 914.115C872.701 910.424 872.262 907.723 871.383 906.012C870.516 904.289 869.109 903.428 867.164 903.428C865.242 903.428 863.842 904.277 862.963 905.977C862.084 907.664 861.645 910.377 861.645 914.115ZM896.15 927H879.258V924.486L886.025 917.684C888.088 915.598 889.447 914.109 890.104 913.219C890.76 912.328 891.252 911.461 891.58 910.617C891.908 909.773 892.072 908.865 892.072 907.893C892.072 906.521 891.656 905.438 890.824 904.641C889.992 903.832 888.838 903.428 887.361 903.428C886.295 903.428 885.281 903.604 884.32 903.955C883.371 904.307 882.311 904.945 881.139 905.871L879.592 903.885C881.959 901.916 884.537 900.932 887.326 900.932C889.74 900.932 891.633 901.553 893.004 902.795C894.375 904.025 895.061 905.684 895.061 907.77C895.061 909.398 894.604 911.01 893.689 912.604C892.775 914.197 891.064 916.213 888.557 918.65L882.932 924.152V924.293H896.15V927ZM916.893 914.115C916.893 918.557 916.189 921.873 914.783 924.064C913.389 926.256 911.25 927.352 908.367 927.352C905.602 927.352 903.498 926.232 902.057 923.994C900.615 921.744 899.895 918.451 899.895 914.115C899.895 909.639 900.592 906.316 901.986 904.148C903.381 901.98 905.508 900.896 908.367 900.896C911.156 900.896 913.271 902.027 914.713 904.289C916.166 906.551 916.893 909.826 916.893 914.115ZM902.848 914.115C902.848 917.854 903.287 920.578 904.166 922.289C905.045 923.988 906.445 924.838 908.367 924.838C910.312 924.838 911.719 923.977 912.586 922.254C913.465 920.52 913.904 917.807 913.904 914.115C913.904 910.424 913.465 907.723 912.586 906.012C911.719 904.289 910.312 903.428 908.367 903.428C906.445 903.428 905.045 904.277 904.166 905.977C903.287 907.664 902.848 910.377 902.848 914.115Z" fill="white"/>
<rect x="632" y="660" width="164" height="205" fill="#01F859"/>
<path d="M713.555 832.523H708.938V840H703.57V832.523H687.914V828.281L703.57 805.641H708.938V827.953H713.555V832.523ZM703.57 827.953V819.352C703.57 816.289 703.648 813.781 703.805 811.828H703.617C703.18 812.859 702.492 814.109 701.555 815.578L693.047 827.953H703.57ZM728.156 818.602C731.609 818.602 734.344 819.516 736.359 821.344C738.375 823.172 739.383 825.664 739.383 828.82C739.383 832.477 738.234 835.336 735.938 837.398C733.656 839.445 730.406 840.469 726.188 840.469C722.359 840.469 719.352 839.852 717.164 838.617V833.625C718.43 834.344 719.883 834.898 721.523 835.289C723.164 835.68 724.688 835.875 726.094 835.875C728.578 835.875 730.469 835.32 731.766 834.211C733.062 833.102 733.711 831.477 733.711 829.336C733.711 825.242 731.102 823.195 725.883 823.195C725.148 823.195 724.242 823.273 723.164 823.43C722.086 823.57 721.141 823.734 720.328 823.922L717.867 822.469L719.18 805.734H736.992V810.633H724.031L723.258 819.117C723.805 819.023 724.469 818.914 725.25 818.789C726.047 818.664 727.016 818.602 728.156 818.602Z" fill="#019535"/>
<rect x="796" y="719" width="163" height="146" fill="#D40000"/>
<path d="M874.047 813.609C874.047 815.781 873.414 817.594 872.148 819.047C870.883 820.484 869.102 821.453 866.805 821.953V822.141C869.555 822.484 871.617 823.344 872.992 824.719C874.367 826.078 875.055 827.891 875.055 830.156C875.055 833.453 873.891 836 871.562 837.797C869.234 839.578 865.922 840.469 861.625 840.469C857.828 840.469 854.625 839.852 852.016 838.617V833.719C853.469 834.438 855.008 834.992 856.633 835.383C858.258 835.773 859.82 835.969 861.32 835.969C863.977 835.969 865.961 835.477 867.273 834.492C868.586 833.508 869.242 831.984 869.242 829.922C869.242 828.094 868.516 826.75 867.062 825.891C865.609 825.031 863.328 824.602 860.219 824.602H857.242V820.125H860.266C865.734 820.125 868.469 818.234 868.469 814.453C868.469 812.984 867.992 811.852 867.039 811.055C866.086 810.258 864.68 809.859 862.82 809.859C861.523 809.859 860.273 810.047 859.07 810.422C857.867 810.781 856.445 811.492 854.805 812.555L852.109 808.711C855.25 806.398 858.898 805.242 863.055 805.242C866.508 805.242 869.203 805.984 871.141 807.469C873.078 808.953 874.047 811 874.047 813.609ZM903.977 832.523H899.359V840H893.992V832.523H878.336V828.281L893.992 805.641H899.359V827.953H903.977V832.523ZM893.992 827.953V819.352C893.992 816.289 894.07 813.781 894.227 811.828H894.039C893.602 812.859 892.914 814.109 891.977 815.578L883.469 827.953H893.992Z" fill="#7A0101"/>
<path d="M1315.88 327H1310.15V304.66H1300.17V327H1294.41V299.873H1315.88V327ZM1333.68 327.371C1331.24 327.371 1329.33 326.487 1327.94 324.718H1327.65C1327.84 326.45 1327.94 327.451 1327.94 327.724V336.129H1322.28V306.256H1326.88L1327.68 308.946H1327.94C1329.27 306.893 1331.23 305.866 1333.82 305.866C1336.27 305.866 1338.19 306.812 1339.58 308.705C1340.96 310.598 1341.65 313.226 1341.65 316.591C1341.65 318.805 1341.33 320.729 1340.67 322.361C1340.03 323.994 1339.11 325.237 1337.91 326.091C1336.71 326.944 1335.3 327.371 1333.68 327.371ZM1332.01 310.394C1330.61 310.394 1329.59 310.826 1328.94 311.692C1328.3 312.546 1327.97 313.962 1327.94 315.941V316.554C1327.94 318.78 1328.27 320.376 1328.93 321.341C1329.59 322.306 1330.65 322.788 1332.08 322.788C1334.62 322.788 1335.88 320.698 1335.88 316.517C1335.88 314.476 1335.57 312.948 1334.94 311.934C1334.32 310.907 1333.34 310.394 1332.01 310.394ZM1350.84 316.591C1350.84 318.644 1351.17 320.197 1351.84 321.248C1352.52 322.299 1353.62 322.825 1355.14 322.825C1356.65 322.825 1357.74 322.306 1358.39 321.267C1359.06 320.215 1359.39 318.657 1359.39 316.591C1359.39 314.537 1359.06 312.997 1358.39 311.971C1357.72 310.944 1356.63 310.431 1355.11 310.431C1353.6 310.431 1352.51 310.944 1351.84 311.971C1351.17 312.985 1350.84 314.525 1350.84 316.591ZM1365.18 316.591C1365.18 319.968 1364.29 322.609 1362.51 324.514C1360.73 326.419 1358.25 327.371 1355.07 327.371C1353.08 327.371 1351.32 326.938 1349.8 326.072C1348.28 325.194 1347.11 323.938 1346.29 322.306C1345.48 320.673 1345.07 318.768 1345.07 316.591C1345.07 313.201 1345.95 310.567 1347.72 308.687C1349.49 306.806 1351.98 305.866 1355.18 305.866C1357.17 305.866 1358.93 306.299 1360.45 307.165C1361.97 308.031 1363.14 309.274 1363.96 310.895C1364.77 312.515 1365.18 314.414 1365.18 316.591ZM1374.83 306.256V313.845C1374.83 315.651 1375.67 316.554 1377.33 316.554C1378.42 316.554 1379.43 316.43 1380.36 316.183C1381.3 315.935 1382.25 315.614 1383.2 315.218V306.256H1388.86V327H1383.2V318.762C1381.89 319.454 1380.67 319.943 1379.54 320.228C1378.42 320.512 1377.33 320.654 1376.28 320.654C1374.01 320.654 1372.26 320.079 1371.03 318.929C1369.79 317.766 1369.17 316.115 1369.17 313.975V306.256H1374.83ZM1400.27 306.256V314.457C1400.27 315.323 1400.13 317.438 1399.84 320.803L1409.42 306.256H1416.23V327H1410.75V318.725C1410.75 317.253 1410.88 315.174 1411.12 312.49L1401.59 327H1394.79V306.256H1400.27ZM1430.77 309.893C1429.57 309.893 1428.63 310.276 1427.95 311.043C1427.27 311.798 1426.88 312.874 1426.78 314.271H1434.72C1434.7 312.874 1434.33 311.798 1433.63 311.043C1432.92 310.276 1431.97 309.893 1430.77 309.893ZM1431.57 327.371C1428.23 327.371 1425.62 326.45 1423.74 324.606C1421.86 322.763 1420.92 320.153 1420.92 316.776C1420.92 313.3 1421.79 310.616 1423.52 308.724C1425.26 306.819 1427.67 305.866 1430.74 305.866C1433.67 305.866 1435.95 306.701 1437.58 308.371C1439.21 310.041 1440.03 312.348 1440.03 315.292V318.038H1426.65C1426.72 319.646 1427.19 320.902 1428.08 321.805C1428.97 322.708 1430.22 323.159 1431.83 323.159C1433.08 323.159 1434.26 323.029 1435.37 322.77C1436.49 322.51 1437.65 322.095 1438.86 321.526V325.905C1437.87 326.4 1436.82 326.765 1435.69 327C1434.56 327.247 1433.19 327.371 1431.57 327.371ZM1462.93 327.371C1456.47 327.371 1453.24 323.827 1453.24 316.739C1453.24 313.214 1454.12 310.523 1455.88 308.668C1457.63 306.8 1460.15 305.866 1463.43 305.866C1465.83 305.866 1467.98 306.336 1469.89 307.276L1468.22 311.655C1467.33 311.297 1466.5 311.006 1465.73 310.783C1464.96 310.548 1464.2 310.431 1463.43 310.431C1460.48 310.431 1459.01 312.521 1459.01 316.702C1459.01 320.759 1460.48 322.788 1463.43 322.788C1464.52 322.788 1465.53 322.646 1466.45 322.361C1467.38 322.064 1468.31 321.607 1469.24 320.988V325.831C1468.32 326.412 1467.39 326.814 1466.45 327.037C1465.53 327.26 1464.35 327.371 1462.93 327.371ZM1489.22 306.145C1492.68 306.429 1495.4 307.499 1497.37 309.354C1499.33 311.21 1500.32 313.634 1500.32 316.628C1500.32 319.683 1499.34 322.132 1497.4 323.976C1495.46 325.806 1492.73 326.864 1489.22 327.148V336.129H1483.97V327.148C1480.47 326.827 1477.73 325.732 1475.75 323.864C1473.78 321.984 1472.8 319.572 1472.8 316.628C1472.8 313.498 1473.75 311.031 1475.66 309.225C1477.56 307.406 1480.33 306.38 1483.97 306.145V298.129H1489.22V306.145ZM1478.62 316.628C1478.62 318.372 1479.1 319.795 1480.05 320.896C1481.01 321.984 1482.31 322.64 1483.97 322.862V310.394C1482.37 310.604 1481.08 311.278 1480.09 312.416C1479.11 313.554 1478.62 314.958 1478.62 316.628ZM1494.51 316.628C1494.51 314.995 1494.04 313.622 1493.12 312.509C1492.19 311.383 1490.89 310.703 1489.22 310.468V322.862C1490.86 322.64 1492.16 321.978 1493.1 320.877C1494.04 319.776 1494.51 318.36 1494.51 316.628ZM1513.6 309.893C1512.4 309.893 1511.46 310.276 1510.78 311.043C1510.1 311.798 1509.71 312.874 1509.61 314.271H1517.55C1517.53 312.874 1517.16 311.798 1516.46 311.043C1515.75 310.276 1514.8 309.893 1513.6 309.893ZM1514.4 327.371C1511.06 327.371 1508.45 326.45 1506.57 324.606C1504.69 322.763 1503.75 320.153 1503.75 316.776C1503.75 313.3 1504.61 310.616 1506.35 308.724C1508.09 306.819 1510.5 305.866 1513.56 305.866C1516.5 305.866 1518.78 306.701 1520.41 308.371C1522.04 310.041 1522.86 312.348 1522.86 315.292V318.038H1509.48C1509.54 319.646 1510.02 320.902 1510.91 321.805C1511.8 322.708 1513.05 323.159 1514.66 323.159C1515.91 323.159 1517.09 323.029 1518.2 322.77C1519.32 322.51 1520.48 322.095 1521.69 321.526V325.905C1520.7 326.4 1519.64 326.765 1518.52 327C1517.39 327.247 1516.02 327.371 1514.4 327.371ZM1538.85 327.371C1536.42 327.371 1534.51 326.487 1533.12 324.718H1532.82C1533.02 326.45 1533.12 327.451 1533.12 327.724V336.129H1527.46V306.256H1532.06L1532.86 308.946H1533.12C1534.44 306.893 1536.4 305.866 1539 305.866C1541.45 305.866 1543.37 306.812 1544.75 308.705C1546.14 310.598 1546.83 313.226 1546.83 316.591C1546.83 318.805 1546.5 320.729 1545.85 322.361C1545.21 323.994 1544.28 325.237 1543.08 326.091C1541.88 326.944 1540.47 327.371 1538.85 327.371ZM1537.18 310.394C1535.79 310.394 1534.77 310.826 1534.12 311.692C1533.48 312.546 1533.14 313.962 1533.12 315.941V316.554C1533.12 318.78 1533.45 320.376 1534.1 321.341C1534.77 322.306 1535.82 322.788 1537.26 322.788C1539.79 322.788 1541.06 320.698 1541.06 316.517C1541.06 314.476 1540.75 312.948 1540.12 311.934C1539.5 310.907 1538.52 310.394 1537.18 310.394ZM1557.17 314.271H1559.89C1563.06 314.271 1565.41 314.779 1566.93 315.793C1568.45 316.807 1569.21 318.341 1569.21 320.395C1569.21 322.584 1568.45 324.235 1566.93 325.349C1565.41 326.45 1563.13 327 1560.1 327H1551.51V306.256H1557.17V314.271ZM1563.55 320.469C1563.55 319.665 1563.23 319.083 1562.58 318.725C1561.94 318.366 1560.98 318.187 1559.71 318.187H1557.17V323.085H1559.78C1562.29 323.085 1563.55 322.213 1563.55 320.469ZM1577.87 327H1572.21V306.256H1577.87V327Z" fill="white"/>
<path fill-rule="evenodd" clip-rule="evenodd" d="M1242.5 289.909C1241.15 289.909 1240.05 291.008 1240.05 292.364C1240.05 293.719 1241.15 294.818 1242.5 294.818C1243.85 294.818 1244.95 293.719 1244.95 292.364C1244.95 291.008 1243.85 289.909 1242.5 289.909ZM1248.87 296.042C1249.49 294.96 1249.85 293.703 1249.85 292.364C1249.85 288.297 1246.56 285 1242.5 285C1238.44 285 1235.15 288.297 1235.15 292.364C1235.15 293.703 1235.51 294.96 1236.13 296.042C1234.55 296.677 1233.08 297.542 1231.77 298.595C1230.51 296.342 1228.11 294.818 1225.35 294.818C1221.29 294.818 1218 298.115 1218 302.182C1218 306.248 1221.29 309.545 1225.35 309.545C1225.41 309.545 1225.47 309.544 1225.52 309.543C1225.41 310.345 1225.35 311.166 1225.35 312C1225.35 312.834 1225.41 313.654 1225.52 314.456C1225.47 314.455 1225.41 314.454 1225.35 314.454C1221.29 314.454 1218 317.751 1218 321.818C1218 325.885 1221.29 329.181 1225.35 329.181C1228.11 329.181 1230.51 327.658 1231.77 325.404C1232.45 325.948 1233.17 326.442 1233.92 326.88L1230.43 335.633C1229.92 336.892 1230.53 338.32 1231.79 338.824C1233.05 339.327 1234.47 338.715 1234.97 337.456L1238.47 328.704C1239.76 329.016 1241.11 329.181 1242.5 329.181C1243.89 329.181 1245.24 329.016 1246.53 328.704L1250.03 337.456C1250.53 338.715 1251.95 339.327 1253.21 338.824C1254.47 338.32 1255.08 336.892 1254.57 335.633L1251.08 326.88C1251.83 326.442 1252.55 325.948 1253.23 325.404C1254.49 327.658 1256.89 329.181 1259.65 329.181C1263.71 329.181 1267 325.885 1267 321.818C1267 317.751 1263.71 314.454 1259.65 314.454C1259.59 314.454 1259.53 314.455 1259.48 314.456C1259.59 313.654 1259.65 312.834 1259.65 312C1259.65 311.166 1259.59 310.345 1259.48 309.543C1259.53 309.544 1259.59 309.545 1259.65 309.545C1263.71 309.545 1267 306.248 1267 302.182C1267 298.115 1263.71 294.818 1259.65 294.818C1256.89 294.818 1254.49 296.342 1253.23 298.595C1251.92 297.542 1250.45 296.677 1248.87 296.042ZM1249.23 322.254C1252.56 320.059 1254.75 316.286 1254.75 312C1254.75 305.222 1249.27 299.727 1242.5 299.727C1235.73 299.727 1230.25 305.222 1230.25 312C1230.25 316.286 1232.44 320.059 1235.77 322.254L1240.23 311.088C1240.6 310.156 1241.5 309.545 1242.5 309.545C1243.5 309.545 1244.4 310.156 1244.77 311.088L1249.23 322.254ZM1240.32 324.078C1241.02 324.206 1241.75 324.272 1242.5 324.272C1243.25 324.272 1243.98 324.206 1244.68 324.078L1242.5 318.609L1240.32 324.078ZM1225.35 299.727C1224 299.727 1222.9 300.826 1222.9 302.182C1222.9 303.537 1224 304.636 1225.35 304.636C1226.7 304.636 1227.8 303.537 1227.8 302.182C1227.8 300.826 1226.7 299.727 1225.35 299.727ZM1259.65 299.727C1258.3 299.727 1257.2 300.826 1257.2 302.182C1257.2 303.537 1258.3 304.636 1259.65 304.636C1261 304.636 1262.1 303.537 1262.1 302.182C1262.1 300.826 1261 299.727 1259.65 299.727ZM1225.35 319.363C1224 319.363 1222.9 320.462 1222.9 321.818C1222.9 323.173 1224 324.272 1225.35 324.272C1226.7 324.272 1227.8 323.173 1227.8 321.818C1227.8 320.462 1226.7 319.363 1225.35 319.363ZM1259.65 319.363C1258.3 319.363 1257.2 320.462 1257.2 321.818C1257.2 323.173 1258.3 324.272 1259.65 324.272C1261 324.272 1262.1 323.173 1262.1 321.818C1262.1 320.462 1261 319.363 1259.65 319.363Z" fill="white"/>
<path d="M1337.58 457.164H1328.25V452.992H1337.58V443.43H1341.8V452.992H1351.15V457.164H1341.8V466.68H1337.58V457.164ZM1359.42 472L1372.97 442.633H1355.16V437.781H1378.85V441.625L1365.38 472H1359.42ZM1394.58 450.602C1398.03 450.602 1400.77 451.516 1402.78 453.344C1404.8 455.172 1405.8 457.664 1405.8 460.82C1405.8 464.477 1404.66 467.336 1402.36 469.398C1400.08 471.445 1396.83 472.469 1392.61 472.469C1388.78 472.469 1385.77 471.852 1383.59 470.617V465.625C1384.85 466.344 1386.3 466.898 1387.95 467.289C1389.59 467.68 1391.11 467.875 1392.52 467.875C1395 467.875 1396.89 467.32 1398.19 466.211C1399.48 465.102 1400.13 463.477 1400.13 461.336C1400.13 457.242 1397.52 455.195 1392.3 455.195C1391.57 455.195 1390.66 455.273 1389.59 455.43C1388.51 455.57 1387.56 455.734 1386.75 455.922L1384.29 454.469L1385.6 437.734H1403.41V442.633H1390.45L1389.68 451.117C1390.23 451.023 1390.89 450.914 1391.67 450.789C1392.47 450.664 1393.44 450.602 1394.58 450.602ZM1417.92 466.961C1417.17 469.867 1415.8 473.609 1413.8 478.188H1409.74C1410.82 473.969 1411.62 470.047 1412.16 466.422H1417.57L1417.92 466.961ZM1446.45 472H1423.22V467.828L1432.05 458.945C1434.66 456.273 1436.39 454.383 1437.23 453.273C1438.09 452.148 1438.72 451.094 1439.11 450.109C1439.5 449.125 1439.7 448.07 1439.7 446.945C1439.7 445.398 1439.23 444.18 1438.29 443.289C1437.37 442.398 1436.09 441.953 1434.45 441.953C1433.13 441.953 1431.86 442.195 1430.62 442.68C1429.41 443.164 1427.99 444.039 1426.38 445.305L1423.41 441.672C1425.31 440.062 1427.16 438.922 1428.96 438.25C1430.76 437.578 1432.67 437.242 1434.7 437.242C1437.89 437.242 1440.45 438.078 1442.37 439.75C1444.29 441.406 1445.25 443.641 1445.25 446.453C1445.25 448 1444.97 449.469 1444.41 450.859C1443.86 452.25 1443.01 453.688 1441.85 455.172C1440.71 456.641 1438.8 458.633 1436.13 461.148L1430.18 466.914V467.148H1446.45V472ZM1475.09 464.523H1470.47V472H1465.1V464.523H1449.45V460.281L1465.1 437.641H1470.47V459.953H1475.09V464.523ZM1465.1 459.953V451.352C1465.1 448.289 1465.18 445.781 1465.34 443.828H1465.15C1464.71 444.859 1464.02 446.109 1463.09 447.578L1454.58 459.953H1465.1ZM1482.49 448C1482.49 450.328 1482.72 452.062 1483.17 453.203C1483.62 454.344 1484.37 454.914 1485.4 454.914C1487.46 454.914 1488.49 452.609 1488.49 448C1488.49 443.391 1487.46 441.086 1485.4 441.086C1484.37 441.086 1483.62 441.656 1483.17 442.797C1482.72 443.938 1482.49 445.672 1482.49 448ZM1493.04 447.953C1493.04 451.547 1492.39 454.25 1491.09 456.062C1489.81 457.859 1487.91 458.758 1485.4 458.758C1483.02 458.758 1481.18 457.828 1479.87 455.969C1478.57 454.094 1477.92 451.422 1477.92 447.953C1477.92 440.812 1480.41 437.242 1485.4 437.242C1487.85 437.242 1489.73 438.172 1491.05 440.031C1492.38 441.875 1493.04 444.516 1493.04 447.953ZM1504.8 461.688C1504.8 464.016 1505.03 465.758 1505.48 466.914C1505.95 468.07 1506.7 468.648 1507.73 468.648C1509.78 468.648 1510.8 466.328 1510.8 461.688C1510.8 457.109 1509.78 454.82 1507.73 454.82C1506.7 454.82 1505.95 455.383 1505.48 456.508C1505.03 457.633 1504.8 459.359 1504.8 461.688ZM1515.35 461.688C1515.35 465.281 1514.7 467.977 1513.41 469.773C1512.11 471.57 1510.22 472.469 1507.73 472.469C1505.36 472.469 1503.52 471.547 1502.2 469.703C1500.89 467.844 1500.23 465.172 1500.23 461.688C1500.23 454.547 1502.73 450.977 1507.73 450.977C1510.14 450.977 1512.01 451.898 1513.34 453.742C1514.68 455.586 1515.35 458.234 1515.35 461.688ZM1508.39 437.734L1489.38 472H1484.84L1503.84 437.734H1508.39Z" fill="#01F859"/>
<path d="M1295.5 448L1310 472H1281L1295.5 448Z" fill="#01F859"/>
<path d="M1295.95 927H1279.05V924.486L1285.82 917.684C1287.88 915.598 1289.24 914.109 1289.9 913.219C1290.56 912.328 1291.05 911.461 1291.38 910.617C1291.71 909.773 1291.87 908.865 1291.87 907.893C1291.87 906.521 1291.45 905.438 1290.62 904.641C1289.79 903.832 1288.63 903.428 1287.16 903.428C1286.09 903.428 1285.08 903.604 1284.12 903.955C1283.17 904.307 1282.11 904.945 1280.94 905.871L1279.39 903.885C1281.76 901.916 1284.33 900.932 1287.12 900.932C1289.54 900.932 1291.43 901.553 1292.8 902.795C1294.17 904.025 1294.86 905.684 1294.86 907.77C1294.86 909.398 1294.4 911.01 1293.49 912.604C1292.57 914.197 1290.86 916.213 1288.35 918.65L1282.73 924.152V924.293H1295.95V927ZM1316.69 914.115C1316.69 918.557 1315.99 921.873 1314.58 924.064C1313.19 926.256 1311.05 927.352 1308.16 927.352C1305.4 927.352 1303.29 926.232 1301.85 923.994C1300.41 921.744 1299.69 918.451 1299.69 914.115C1299.69 909.639 1300.39 906.316 1301.78 904.148C1303.18 901.98 1305.3 900.896 1308.16 900.896C1310.95 900.896 1313.07 902.027 1314.51 904.289C1315.96 906.551 1316.69 909.826 1316.69 914.115ZM1302.64 914.115C1302.64 917.854 1303.08 920.578 1303.96 922.289C1304.84 923.988 1306.24 924.838 1308.16 924.838C1310.11 924.838 1311.52 923.977 1312.38 922.254C1313.26 920.52 1313.7 917.807 1313.7 914.115C1313.7 910.424 1313.26 907.723 1312.38 906.012C1311.52 904.289 1310.11 903.428 1308.16 903.428C1306.24 903.428 1304.84 904.277 1303.96 905.977C1303.08 907.664 1302.64 910.377 1302.64 914.115ZM1331.07 927H1328.22V908.684C1328.22 907.16 1328.27 905.719 1328.36 904.359C1328.12 904.605 1327.84 904.863 1327.54 905.133C1327.23 905.402 1325.84 906.545 1323.35 908.561L1321.8 906.557L1328.61 901.301H1331.07V927ZM1357.75 912.27C1357.75 922.324 1353.86 927.352 1346.08 927.352C1344.72 927.352 1343.64 927.234 1342.85 927V924.486C1343.78 924.791 1344.85 924.943 1346.04 924.943C1348.86 924.943 1350.98 924.076 1352.41 922.342C1353.85 920.596 1354.63 917.924 1354.76 914.326H1354.55C1353.91 915.299 1353.05 916.043 1351.99 916.559C1350.92 917.062 1349.72 917.314 1348.38 917.314C1346.11 917.314 1344.3 916.635 1342.97 915.275C1341.63 913.916 1340.96 912.018 1340.96 909.58C1340.96 906.908 1341.71 904.799 1343.2 903.252C1344.7 901.705 1346.67 900.932 1349.1 900.932C1350.85 900.932 1352.37 901.383 1353.67 902.285C1354.99 903.176 1355.99 904.482 1356.7 906.205C1357.4 907.916 1357.75 909.938 1357.75 912.27ZM1349.1 903.428C1347.43 903.428 1346.13 903.967 1345.22 905.045C1344.3 906.123 1343.85 907.623 1343.85 909.545C1343.85 911.232 1344.27 912.562 1345.11 913.535C1345.96 914.496 1347.24 914.977 1348.96 914.977C1350.03 914.977 1351.01 914.76 1351.9 914.326C1352.8 913.893 1353.51 913.301 1354.03 912.551C1354.54 911.801 1354.8 911.016 1354.8 910.195C1354.8 908.965 1354.56 907.828 1354.08 906.785C1353.6 905.742 1352.92 904.922 1352.06 904.324C1351.2 903.727 1350.22 903.428 1349.1 903.428Z" fill="white"/>
<path d="M1458.95 927H1442.05V924.486L1448.82 917.684C1450.88 915.598 1452.24 914.109 1452.9 913.219C1453.56 912.328 1454.05 911.461 1454.38 910.617C1454.71 909.773 1454.87 908.865 1454.87 907.893C1454.87 906.521 1454.45 905.438 1453.62 904.641C1452.79 903.832 1451.63 903.428 1450.16 903.428C1449.09 903.428 1448.08 903.604 1447.12 903.955C1446.17 904.307 1445.11 904.945 1443.94 905.871L1442.39 903.885C1444.76 901.916 1447.33 900.932 1450.12 900.932C1452.54 900.932 1454.43 901.553 1455.8 902.795C1457.17 904.025 1457.86 905.684 1457.86 907.77C1457.86 909.398 1457.4 911.01 1456.49 912.604C1455.57 914.197 1453.86 916.213 1451.35 918.65L1445.73 924.152V924.293H1458.95V927ZM1479.69 914.115C1479.69 918.557 1478.99 921.873 1477.58 924.064C1476.19 926.256 1474.05 927.352 1471.16 927.352C1468.4 927.352 1466.29 926.232 1464.85 923.994C1463.41 921.744 1462.69 918.451 1462.69 914.115C1462.69 909.639 1463.39 906.316 1464.78 904.148C1466.18 901.98 1468.3 900.896 1471.16 900.896C1473.95 900.896 1476.07 902.027 1477.51 904.289C1478.96 906.551 1479.69 909.826 1479.69 914.115ZM1465.64 914.115C1465.64 917.854 1466.08 920.578 1466.96 922.289C1467.84 923.988 1469.24 924.838 1471.16 924.838C1473.11 924.838 1474.52 923.977 1475.38 922.254C1476.26 920.52 1476.7 917.807 1476.7 914.115C1476.7 910.424 1476.26 907.723 1475.38 906.012C1474.52 904.289 1473.11 903.428 1471.16 903.428C1469.24 903.428 1467.84 904.277 1466.96 905.977C1466.08 907.664 1465.64 910.377 1465.64 914.115ZM1500.15 927H1483.26V924.486L1490.03 917.684C1492.09 915.598 1493.45 914.109 1494.1 913.219C1494.76 912.328 1495.25 911.461 1495.58 910.617C1495.91 909.773 1496.07 908.865 1496.07 907.893C1496.07 906.521 1495.66 905.438 1494.82 904.641C1493.99 903.832 1492.84 903.428 1491.36 903.428C1490.29 903.428 1489.28 903.604 1488.32 903.955C1487.37 904.307 1486.31 904.945 1485.14 905.871L1483.59 903.885C1485.96 901.916 1488.54 900.932 1491.33 900.932C1493.74 900.932 1495.63 901.553 1497 902.795C1498.38 904.025 1499.06 905.684 1499.06 907.77C1499.06 909.398 1498.6 911.01 1497.69 912.604C1496.78 914.197 1495.06 916.213 1492.56 918.65L1486.93 924.152V924.293H1500.15V927ZM1520.89 914.115C1520.89 918.557 1520.19 921.873 1518.78 924.064C1517.39 926.256 1515.25 927.352 1512.37 927.352C1509.6 927.352 1507.5 926.232 1506.06 923.994C1504.62 921.744 1503.89 918.451 1503.89 914.115C1503.89 909.639 1504.59 906.316 1505.99 904.148C1507.38 901.98 1509.51 900.896 1512.37 900.896C1515.16 900.896 1517.27 902.027 1518.71 904.289C1520.17 906.551 1520.89 909.826 1520.89 914.115ZM1506.85 914.115C1506.85 917.854 1507.29 920.578 1508.17 922.289C1509.04 923.988 1510.45 924.838 1512.37 924.838C1514.31 924.838 1515.72 923.977 1516.59 922.254C1517.46 920.52 1517.9 917.807 1517.9 914.115C1517.9 910.424 1517.46 907.723 1516.59 906.012C1515.72 904.289 1514.31 903.428 1512.37 903.428C1510.45 903.428 1509.04 904.277 1508.17 905.977C1507.29 907.664 1506.85 910.377 1506.85 914.115Z" fill="white"/>
<rect x="1236" y="545" width="164" height="320" fill="#01F859"/>
<rect x="1400" y="632" width="163" height="233" fill="#D40000"/>
<path d="M1460 840L1473.55 810.633H1455.73V805.781H1479.43V809.625L1465.95 840H1460ZM1506.71 820.359C1506.71 827.109 1505.35 832.148 1502.63 835.477C1499.91 838.805 1495.82 840.469 1490.35 840.469C1488.27 840.469 1486.78 840.344 1485.88 840.094V835.477C1487.27 835.867 1488.66 836.062 1490.07 836.062C1493.79 836.062 1496.56 835.062 1498.39 833.062C1500.22 831.062 1501.22 827.922 1501.39 823.641H1501.11C1500.19 825.047 1499.07 826.062 1497.76 826.688C1496.46 827.312 1494.94 827.625 1493.19 827.625C1490.16 827.625 1487.77 826.68 1486.04 824.789C1484.3 822.898 1483.44 820.305 1483.44 817.008C1483.44 813.43 1484.44 810.586 1486.44 808.477C1488.45 806.352 1491.2 805.289 1494.66 805.289C1497.1 805.289 1499.23 805.883 1501.04 807.07C1502.85 808.258 1504.25 809.984 1505.23 812.25C1506.22 814.5 1506.71 817.203 1506.71 820.359ZM1494.76 809.859C1492.85 809.859 1491.39 810.484 1490.38 811.734C1489.36 812.969 1488.85 814.711 1488.85 816.961C1488.85 818.914 1489.32 820.453 1490.26 821.578C1491.21 822.688 1492.65 823.242 1494.57 823.242C1496.43 823.242 1497.99 822.688 1499.26 821.578C1500.52 820.469 1501.16 819.172 1501.16 817.688C1501.16 816.297 1500.88 815 1500.34 813.797C1499.8 812.578 1499.05 811.617 1498.09 810.914C1497.12 810.211 1496.01 809.859 1494.76 809.859Z" fill="#7A0101"/>
<path d="M1295.28 840H1289.77V817.875C1289.77 815.234 1289.84 813.141 1289.96 811.594C1289.6 811.969 1289.16 812.383 1288.62 812.836C1288.11 813.289 1286.36 814.727 1283.38 817.148L1280.61 813.656L1290.69 805.734H1295.28V840ZM1329.76 822.867C1329.76 828.82 1328.8 833.242 1326.88 836.133C1324.97 839.023 1322.05 840.469 1318.11 840.469C1314.3 840.469 1311.41 838.977 1309.44 835.992C1307.47 833.008 1306.48 828.633 1306.48 822.867C1306.48 816.82 1307.44 812.367 1309.34 809.508C1311.27 806.633 1314.19 805.195 1318.11 805.195C1321.94 805.195 1324.84 806.695 1326.8 809.695C1328.77 812.695 1329.76 817.086 1329.76 822.867ZM1312.06 822.867C1312.06 827.539 1312.54 830.875 1313.49 832.875C1314.46 834.875 1316 835.875 1318.11 835.875C1320.22 835.875 1321.76 834.859 1322.73 832.828C1323.71 830.797 1324.2 827.477 1324.2 822.867C1324.2 818.273 1323.71 814.953 1322.73 812.906C1321.76 810.844 1320.22 809.812 1318.11 809.812C1316 809.812 1314.46 810.82 1313.49 812.836C1312.54 814.852 1312.06 818.195 1312.06 822.867ZM1345.58 818.602C1349.03 818.602 1351.77 819.516 1353.78 821.344C1355.8 823.172 1356.8 825.664 1356.8 828.82C1356.8 832.477 1355.66 835.336 1353.36 837.398C1351.08 839.445 1347.83 840.469 1343.61 840.469C1339.78 840.469 1336.77 839.852 1334.59 838.617V833.625C1335.85 834.344 1337.3 834.898 1338.95 835.289C1340.59 835.68 1342.11 835.875 1343.52 835.875C1346 835.875 1347.89 835.32 1349.19 834.211C1350.48 833.102 1351.13 831.477 1351.13 829.336C1351.13 825.242 1348.52 823.195 1343.3 823.195C1342.57 823.195 1341.66 823.273 1340.59 823.43C1339.51 823.57 1338.56 823.734 1337.75 823.922L1335.29 822.469L1336.6 805.734H1354.41V810.633H1341.45L1340.68 819.117C1341.23 819.023 1341.89 818.914 1342.67 818.789C1343.47 818.664 1344.44 818.602 1345.58 818.602Z" fill="#019535"/>
<path d="M196.578 457.164H187.25V452.992H196.578V443.43H200.797V452.992H210.148V457.164H200.797V466.68H196.578V457.164ZM237.711 452.359C237.711 459.109 236.352 464.148 233.633 467.477C230.914 470.805 226.82 472.469 221.352 472.469C219.273 472.469 217.781 472.344 216.875 472.094V467.477C218.266 467.867 219.664 468.062 221.07 468.062C224.789 468.062 227.562 467.062 229.391 465.062C231.219 463.062 232.219 459.922 232.391 455.641H232.109C231.188 457.047 230.07 458.062 228.758 458.688C227.461 459.312 225.938 459.625 224.188 459.625C221.156 459.625 218.773 458.68 217.039 456.789C215.305 454.898 214.438 452.305 214.438 449.008C214.438 445.43 215.438 442.586 217.438 440.477C219.453 438.352 222.195 437.289 225.664 437.289C228.102 437.289 230.227 437.883 232.039 439.07C233.852 440.258 235.25 441.984 236.234 444.25C237.219 446.5 237.711 449.203 237.711 452.359ZM225.758 441.859C223.852 441.859 222.391 442.484 221.375 443.734C220.359 444.969 219.852 446.711 219.852 448.961C219.852 450.914 220.32 452.453 221.258 453.578C222.211 454.688 223.648 455.242 225.57 455.242C227.43 455.242 228.992 454.688 230.258 453.578C231.523 452.469 232.156 451.172 232.156 449.688C232.156 448.297 231.883 447 231.336 445.797C230.805 444.578 230.055 443.617 229.086 442.914C228.117 442.211 227.008 441.859 225.758 441.859ZM258.125 472H252.617V449.875C252.617 447.234 252.68 445.141 252.805 443.594C252.445 443.969 252 444.383 251.469 444.836C250.953 445.289 249.203 446.727 246.219 449.148L243.453 445.656L253.531 437.734H258.125V472ZM276.922 466.961C276.172 469.867 274.797 473.609 272.797 478.188H268.742C269.82 473.969 270.625 470.047 271.156 466.422H276.57L276.922 466.961ZM305.398 452.359C305.398 459.109 304.039 464.148 301.32 467.477C298.602 470.805 294.508 472.469 289.039 472.469C286.961 472.469 285.469 472.344 284.562 472.094V467.477C285.953 467.867 287.352 468.062 288.758 468.062C292.477 468.062 295.25 467.062 297.078 465.062C298.906 463.062 299.906 459.922 300.078 455.641H299.797C298.875 457.047 297.758 458.062 296.445 458.688C295.148 459.312 293.625 459.625 291.875 459.625C288.844 459.625 286.461 458.68 284.727 456.789C282.992 454.898 282.125 452.305 282.125 449.008C282.125 445.43 283.125 442.586 285.125 440.477C287.141 438.352 289.883 437.289 293.352 437.289C295.789 437.289 297.914 437.883 299.727 439.07C301.539 440.258 302.938 441.984 303.922 444.25C304.906 446.5 305.398 449.203 305.398 452.359ZM293.445 441.859C291.539 441.859 290.078 442.484 289.062 443.734C288.047 444.969 287.539 446.711 287.539 448.961C287.539 450.914 288.008 452.453 288.945 453.578C289.898 454.688 291.336 455.242 293.258 455.242C295.117 455.242 296.68 454.688 297.945 453.578C299.211 452.469 299.844 451.172 299.844 449.688C299.844 448.297 299.57 447 299.023 445.797C298.492 444.578 297.742 443.617 296.773 442.914C295.805 442.211 294.695 441.859 293.445 441.859ZM334.086 464.523H329.469V472H324.102V464.523H308.445V460.281L324.102 437.641H329.469V459.953H334.086V464.523ZM324.102 459.953V451.352C324.102 448.289 324.18 445.781 324.336 443.828H324.148C323.711 444.859 323.023 446.109 322.086 447.578L313.578 459.953H324.102ZM341.492 448C341.492 450.328 341.719 452.062 342.172 453.203C342.625 454.344 343.367 454.914 344.398 454.914C346.461 454.914 347.492 452.609 347.492 448C347.492 443.391 346.461 441.086 344.398 441.086C343.367 441.086 342.625 441.656 342.172 442.797C341.719 443.938 341.492 445.672 341.492 448ZM352.039 447.953C352.039 451.547 351.391 454.25 350.094 456.062C348.812 457.859 346.914 458.758 344.398 458.758C342.023 458.758 340.18 457.828 338.867 455.969C337.57 454.094 336.922 451.422 336.922 447.953C336.922 440.812 339.414 437.242 344.398 437.242C346.852 437.242 348.734 438.172 350.047 440.031C351.375 441.875 352.039 444.516 352.039 447.953ZM363.805 461.688C363.805 464.016 364.031 465.758 364.484 466.914C364.953 468.07 365.703 468.648 366.734 468.648C368.781 468.648 369.805 466.328 369.805 461.688C369.805 457.109 368.781 454.82 366.734 454.82C365.703 454.82 364.953 455.383 364.484 456.508C364.031 457.633 363.805 459.359 363.805 461.688ZM374.352 461.688C374.352 465.281 373.703 467.977 372.406 469.773C371.109 471.57 369.219 472.469 366.734 472.469C364.359 472.469 362.516 471.547 361.203 469.703C359.891 467.844 359.234 465.172 359.234 461.688C359.234 454.547 361.734 450.977 366.734 450.977C369.141 450.977 371.008 451.898 372.336 453.742C373.68 455.586 374.352 458.234 374.352 461.688ZM367.391 437.734L348.383 472H343.836L362.844 437.734H367.391Z" fill="#01F859"/>
<path d="M154.5 448L169 472H140L154.5 448Z" fill="#01F859"/>
<path d="M154.947 927H138.055V924.486L144.822 917.684C146.885 915.598 148.244 914.109 148.9 913.219C149.557 912.328 150.049 911.461 150.377 910.617C150.705 909.773 150.869 908.865 150.869 907.893C150.869 906.521 150.453 905.438 149.621 904.641C148.789 903.832 147.635 903.428 146.158 903.428C145.092 903.428 144.078 903.604 143.117 903.955C142.168 904.307 141.107 904.945 139.936 905.871L138.389 903.885C140.756 901.916 143.334 900.932 146.123 900.932C148.537 900.932 150.43 901.553 151.801 902.795C153.172 904.025 153.857 905.684 153.857 907.77C153.857 909.398 153.4 911.01 152.486 912.604C151.572 914.197 149.861 916.213 147.354 918.65L141.729 924.152V924.293H154.947V927ZM175.689 914.115C175.689 918.557 174.986 921.873 173.58 924.064C172.186 926.256 170.047 927.352 167.164 927.352C164.398 927.352 162.295 926.232 160.854 923.994C159.412 921.744 158.691 918.451 158.691 914.115C158.691 909.639 159.389 906.316 160.783 904.148C162.178 901.98 164.305 900.896 167.164 900.896C169.953 900.896 172.068 902.027 173.51 904.289C174.963 906.551 175.689 909.826 175.689 914.115ZM161.645 914.115C161.645 917.854 162.084 920.578 162.963 922.289C163.842 923.988 165.242 924.838 167.164 924.838C169.109 924.838 170.516 923.977 171.383 922.254C172.262 920.52 172.701 917.807 172.701 914.115C172.701 910.424 172.262 907.723 171.383 906.012C170.516 904.289 169.109 903.428 167.164 903.428C165.242 903.428 163.842 904.277 162.963 905.977C162.084 907.664 161.645 910.377 161.645 914.115ZM190.068 927H187.221V908.684C187.221 907.16 187.268 905.719 187.361 904.359C187.115 904.605 186.84 904.863 186.535 905.133C186.23 905.402 184.836 906.545 182.352 908.561L180.805 906.557L187.607 901.301H190.068V927ZM216.752 912.27C216.752 922.324 212.861 927.352 205.08 927.352C203.721 927.352 202.643 927.234 201.846 927V924.486C202.783 924.791 203.85 924.943 205.045 924.943C207.857 924.943 209.979 924.076 211.408 922.342C212.85 920.596 213.635 917.924 213.764 914.326H213.553C212.908 915.299 212.053 916.043 210.986 916.559C209.92 917.062 208.719 917.314 207.383 917.314C205.109 917.314 203.305 916.635 201.969 915.275C200.633 913.916 199.965 912.018 199.965 909.58C199.965 906.908 200.709 904.799 202.197 903.252C203.697 901.705 205.666 900.932 208.104 900.932C209.85 900.932 211.373 901.383 212.674 902.285C213.986 903.176 214.994 904.482 215.697 906.205C216.4 907.916 216.752 909.938 216.752 912.27ZM208.104 903.428C206.428 903.428 205.133 903.967 204.219 905.045C203.305 906.123 202.848 907.623 202.848 909.545C202.848 911.232 203.27 912.562 204.113 913.535C204.957 914.496 206.24 914.977 207.963 914.977C209.029 914.977 210.008 914.76 210.898 914.326C211.801 913.893 212.51 913.301 213.025 912.551C213.541 911.801 213.799 911.016 213.799 910.195C213.799 908.965 213.559 907.828 213.078 906.785C212.598 905.742 211.924 904.922 211.057 904.324C210.201 903.727 209.217 903.428 208.104 903.428Z" fill="white"/>
<path d="M317.947 927H301.055V924.486L307.822 917.684C309.885 915.598 311.244 914.109 311.9 913.219C312.557 912.328 313.049 911.461 313.377 910.617C313.705 909.773 313.869 908.865 313.869 907.893C313.869 906.521 313.453 905.438 312.621 904.641C311.789 903.832 310.635 903.428 309.158 903.428C308.092 903.428 307.078 903.604 306.117 903.955C305.168 904.307 304.107 904.945 302.936 905.871L301.389 903.885C303.756 901.916 306.334 900.932 309.123 900.932C311.537 900.932 313.43 901.553 314.801 902.795C316.172 904.025 316.857 905.684 316.857 907.77C316.857 909.398 316.4 911.01 315.486 912.604C314.572 914.197 312.861 916.213 310.354 918.65L304.729 924.152V924.293H317.947V927ZM338.689 914.115C338.689 918.557 337.986 921.873 336.58 924.064C335.186 926.256 333.047 927.352 330.164 927.352C327.398 927.352 325.295 926.232 323.854 923.994C322.412 921.744 321.691 918.451 321.691 914.115C321.691 909.639 322.389 906.316 323.783 904.148C325.178 901.98 327.305 900.896 330.164 900.896C332.953 900.896 335.068 902.027 336.51 904.289C337.963 906.551 338.689 909.826 338.689 914.115ZM324.645 914.115C324.645 917.854 325.084 920.578 325.963 922.289C326.842 923.988 328.242 924.838 330.164 924.838C332.109 924.838 333.516 923.977 334.383 922.254C335.262 920.52 335.701 917.807 335.701 914.115C335.701 910.424 335.262 907.723 334.383 906.012C333.516 904.289 332.109 903.428 330.164 903.428C328.242 903.428 326.842 904.277 325.963 905.977C325.084 907.664 324.645 910.377 324.645 914.115ZM359.15 927H342.258V924.486L349.025 917.684C351.088 915.598 352.447 914.109 353.104 913.219C353.76 912.328 354.252 911.461 354.58 910.617C354.908 909.773 355.072 908.865 355.072 907.893C355.072 906.521 354.656 905.438 353.824 904.641C352.992 903.832 351.838 903.428 350.361 903.428C349.295 903.428 348.281 903.604 347.32 903.955C346.371 904.307 345.311 904.945 344.139 905.871L342.592 903.885C344.959 901.916 347.537 900.932 350.326 900.932C352.74 900.932 354.633 901.553 356.004 902.795C357.375 904.025 358.061 905.684 358.061 907.77C358.061 909.398 357.604 911.01 356.689 912.604C355.775 914.197 354.064 916.213 351.557 918.65L345.932 924.152V924.293H359.15V927ZM379.893 914.115C379.893 918.557 379.189 921.873 377.783 924.064C376.389 926.256 374.25 927.352 371.367 927.352C368.602 927.352 366.498 926.232 365.057 923.994C363.615 921.744 362.895 918.451 362.895 914.115C362.895 909.639 363.592 906.316 364.986 904.148C366.381 901.98 368.508 900.896 371.367 900.896C374.156 900.896 376.271 902.027 377.713 904.289C379.166 906.551 379.893 909.826 379.893 914.115ZM365.848 914.115C365.848 917.854 366.287 920.578 367.166 922.289C368.045 923.988 369.445 924.838 371.367 924.838C373.312 924.838 374.719 923.977 375.586 922.254C376.465 920.52 376.904 917.807 376.904 914.115C376.904 910.424 376.465 907.723 375.586 906.012C374.719 904.289 373.312 903.428 371.367 903.428C369.445 903.428 368.045 904.277 367.166 905.977C366.287 907.664 365.848 910.377 365.848 914.115Z" fill="white"/>
<rect x="95" y="545" width="164" height="320" fill="#01F859"/>
<path d="M133.281 840H127.773V817.875C127.773 815.234 127.836 813.141 127.961 811.594C127.602 811.969 127.156 812.383 126.625 812.836C126.109 813.289 124.359 814.727 121.375 817.148L118.609 813.656L128.688 805.734H133.281V840ZM181.445 832.523H176.828V840H171.461V832.523H155.805V828.281L171.461 805.641H176.828V827.953H181.445V832.523ZM171.461 827.953V819.352C171.461 816.289 171.539 813.781 171.695 811.828H171.508C171.07 812.859 170.383 814.109 169.445 815.578L160.938 827.953H171.461ZM207.648 840H184.422V835.828L193.258 826.945C195.867 824.273 197.594 822.383 198.438 821.273C199.297 820.148 199.922 819.094 200.312 818.109C200.703 817.125 200.898 816.07 200.898 814.945C200.898 813.398 200.43 812.18 199.492 811.289C198.57 810.398 197.289 809.953 195.648 809.953C194.336 809.953 193.062 810.195 191.828 810.68C190.609 811.164 189.195 812.039 187.586 813.305L184.609 809.672C186.516 808.062 188.367 806.922 190.164 806.25C191.961 805.578 193.875 805.242 195.906 805.242C199.094 805.242 201.648 806.078 203.57 807.75C205.492 809.406 206.453 811.641 206.453 814.453C206.453 816 206.172 817.469 205.609 818.859C205.062 820.25 204.211 821.688 203.055 823.172C201.914 824.641 200.008 826.633 197.336 829.148L191.383 834.914V835.148H207.648V840ZM211.938 825.398C211.938 811.992 217.398 805.289 228.32 805.289C230.039 805.289 231.492 805.422 232.68 805.688V810.281C231.492 809.938 230.117 809.766 228.555 809.766C224.883 809.766 222.125 810.75 220.281 812.719C218.438 814.688 217.438 817.844 217.281 822.188H217.562C218.297 820.922 219.328 819.945 220.656 819.258C221.984 818.555 223.547 818.203 225.344 818.203C228.453 818.203 230.875 819.156 232.609 821.062C234.344 822.969 235.211 825.555 235.211 828.82C235.211 832.414 234.203 835.258 232.188 837.352C230.188 839.43 227.453 840.469 223.984 840.469C221.531 840.469 219.398 839.883 217.586 838.711C215.773 837.523 214.375 835.805 213.391 833.555C212.422 831.289 211.938 828.57 211.938 825.398ZM223.891 835.922C225.781 835.922 227.234 835.312 228.25 834.094C229.281 832.875 229.797 831.133 229.797 828.867C229.797 826.898 229.312 825.352 228.344 824.227C227.391 823.102 225.953 822.539 224.031 822.539C222.844 822.539 221.75 822.797 220.75 823.312C219.75 823.812 218.961 824.508 218.383 825.398C217.805 826.273 217.516 827.172 217.516 828.094C217.516 830.297 218.109 832.156 219.297 833.672C220.5 835.172 222.031 835.922 223.891 835.922Z" fill="#019535"/>
<rect x="259" y="622" width="163" height="243" fill="#D40000"/>
<path d="M297.281 840H291.773V817.875C291.773 815.234 291.836 813.141 291.961 811.594C291.602 811.969 291.156 812.383 290.625 812.836C290.109 813.289 288.359 814.727 285.375 817.148L282.609 813.656L292.688 805.734H297.281V840ZM342.938 813.609C342.938 815.781 342.305 817.594 341.039 819.047C339.773 820.484 337.992 821.453 335.695 821.953V822.141C338.445 822.484 340.508 823.344 341.883 824.719C343.258 826.078 343.945 827.891 343.945 830.156C343.945 833.453 342.781 836 340.453 837.797C338.125 839.578 334.812 840.469 330.516 840.469C326.719 840.469 323.516 839.852 320.906 838.617V833.719C322.359 834.438 323.898 834.992 325.523 835.383C327.148 835.773 328.711 835.969 330.211 835.969C332.867 835.969 334.852 835.477 336.164 834.492C337.477 833.508 338.133 831.984 338.133 829.922C338.133 828.094 337.406 826.75 335.953 825.891C334.5 825.031 332.219 824.602 329.109 824.602H326.133V820.125H329.156C334.625 820.125 337.359 818.234 337.359 814.453C337.359 812.984 336.883 811.852 335.93 811.055C334.977 810.258 333.57 809.859 331.711 809.859C330.414 809.859 329.164 810.047 327.961 810.422C326.758 810.781 325.336 811.492 323.695 812.555L321 808.711C324.141 806.398 327.789 805.242 331.945 805.242C335.398 805.242 338.094 805.984 340.031 807.469C341.969 808.953 342.938 811 342.938 813.609ZM364.594 840H359.086V817.875C359.086 815.234 359.148 813.141 359.273 811.594C358.914 811.969 358.469 812.383 357.938 812.836C357.422 813.289 355.672 814.727 352.688 817.148L349.922 813.656L360 805.734H364.594V840ZM392.016 840H386.508V817.875C386.508 815.234 386.57 813.141 386.695 811.594C386.336 811.969 385.891 812.383 385.359 812.836C384.844 813.289 383.094 814.727 380.109 817.148L377.344 813.656L387.422 805.734H392.016V840Z" fill="#7A0101"/>
<path d="M83.4141 291.873H88.5908V304.973L88.5166 308.479L88.3311 312.469H88.4424L100.967 291.873H107.851V319H102.729V305.975C102.729 304.23 102.841 301.645 103.063 298.219H102.915L90.335 319H83.4141V291.873ZM119.911 298.256V306.234H127.815V298.256H133.475V319H127.815V310.446H119.911V319H114.252V298.256H119.911ZM150.396 308.331V298.256H155.666V308.331L163.051 298.256H168.896L161.251 308.201L169.619 319H163.57L155.666 308.479V319H150.396V308.479L142.492 319H136.443L144.812 308.201L137.167 298.256H143.012L150.396 308.331ZM181.179 301.893C179.979 301.893 179.039 302.276 178.358 303.043C177.678 303.798 177.288 304.874 177.189 306.271H185.131C185.106 304.874 184.741 303.798 184.036 303.043C183.331 302.276 182.379 301.893 181.179 301.893ZM181.977 319.371C178.637 319.371 176.027 318.45 174.146 316.606C172.266 314.763 171.326 312.153 171.326 308.776C171.326 305.3 172.192 302.616 173.924 300.724C175.668 298.819 178.074 297.866 181.142 297.866C184.073 297.866 186.355 298.701 187.988 300.371C189.621 302.041 190.438 304.348 190.438 307.292V310.038H177.06C177.121 311.646 177.598 312.902 178.488 313.805C179.379 314.708 180.628 315.159 182.236 315.159C183.486 315.159 184.667 315.029 185.78 314.77C186.894 314.51 188.056 314.095 189.269 313.526V317.905C188.279 318.4 187.221 318.765 186.096 319C184.97 319.247 183.597 319.371 181.977 319.371ZM200.698 298.256V306.234H208.603V298.256H214.262V319H208.603V310.446H200.698V319H195.039V298.256H200.698ZM228.79 301.893C227.59 301.893 226.65 302.276 225.97 303.043C225.289 303.798 224.9 304.874 224.801 306.271H232.742C232.717 304.874 232.353 303.798 231.647 303.043C230.942 302.276 229.99 301.893 228.79 301.893ZM229.588 319.371C226.248 319.371 223.638 318.45 221.758 316.606C219.878 314.763 218.938 312.153 218.938 308.776C218.938 305.3 219.803 302.616 221.535 300.724C223.279 298.819 225.685 297.866 228.753 297.866C231.685 297.866 233.967 298.701 235.6 300.371C237.232 302.041 238.049 304.348 238.049 307.292V310.038H224.671C224.733 311.646 225.209 312.902 226.1 313.805C226.99 314.708 228.24 315.159 229.848 315.159C231.097 315.159 232.278 315.029 233.392 314.77C234.505 314.51 235.668 314.095 236.88 313.526V317.905C235.89 318.4 234.833 318.765 233.707 319C232.581 319.247 231.208 319.371 229.588 319.371ZM254.043 319.371C251.606 319.371 249.695 318.487 248.31 316.718H248.013C248.211 318.45 248.31 319.451 248.31 319.724V328.129H242.65V298.256H247.252L248.05 300.946H248.31C249.633 298.893 251.594 297.866 254.191 297.866C256.641 297.866 258.558 298.812 259.943 300.705C261.329 302.598 262.021 305.226 262.021 308.591C262.021 310.805 261.694 312.729 261.038 314.361C260.395 315.994 259.473 317.237 258.273 318.091C257.074 318.944 255.663 319.371 254.043 319.371ZM252.373 302.394C250.975 302.394 249.955 302.826 249.312 303.692C248.668 304.546 248.334 305.962 248.31 307.941V308.554C248.31 310.78 248.637 312.376 249.293 313.341C249.961 314.306 251.012 314.788 252.447 314.788C254.983 314.788 256.251 312.698 256.251 308.517C256.251 306.476 255.936 304.948 255.305 303.934C254.686 302.907 253.709 302.394 252.373 302.394ZM272.356 298.256V306.234H280.261V298.256H285.92V319H280.261V310.446H272.356V319H266.697V298.256H272.356ZM296.366 308.591C296.366 310.644 296.7 312.197 297.368 313.248C298.049 314.299 299.149 314.825 300.671 314.825C302.18 314.825 303.262 314.306 303.918 313.267C304.586 312.215 304.92 310.657 304.92 308.591C304.92 306.537 304.586 304.997 303.918 303.971C303.25 302.944 302.155 302.431 300.634 302.431C299.125 302.431 298.036 302.944 297.368 303.971C296.7 304.985 296.366 306.525 296.366 308.591ZM310.709 308.591C310.709 311.968 309.818 314.609 308.037 316.514C306.256 318.419 303.776 319.371 300.597 319.371C298.605 319.371 296.849 318.938 295.327 318.072C293.806 317.194 292.637 315.938 291.82 314.306C291.004 312.673 290.596 310.768 290.596 308.591C290.596 305.201 291.48 302.567 293.249 300.687C295.018 298.806 297.504 297.866 300.708 297.866C302.7 297.866 304.456 298.299 305.978 299.165C307.499 300.031 308.668 301.274 309.484 302.895C310.301 304.515 310.709 306.414 310.709 308.591ZM313.548 311.133V306.494H323.512V311.133H313.548ZM96.5693 336.256H102.804L94.584 346.201L103.527 357H97.1074L88.6279 346.479V357H82.9688V336.256H88.6279V346.331L96.5693 336.256ZM111.005 346.591C111.005 348.644 111.339 350.197 112.007 351.248C112.687 352.299 113.788 352.825 115.31 352.825C116.819 352.825 117.901 352.306 118.557 351.267C119.225 350.215 119.559 348.657 119.559 346.591C119.559 344.537 119.225 342.997 118.557 341.971C117.889 340.944 116.794 340.431 115.272 340.431C113.763 340.431 112.675 340.944 112.007 341.971C111.339 342.985 111.005 344.525 111.005 346.591ZM125.348 346.591C125.348 349.968 124.457 352.609 122.676 354.514C120.895 356.419 118.414 357.371 115.235 357.371C113.244 357.371 111.487 356.938 109.966 356.072C108.444 355.194 107.275 353.938 106.459 352.306C105.643 350.673 105.234 348.768 105.234 346.591C105.234 343.201 106.119 340.567 107.888 338.687C109.657 336.806 112.143 335.866 115.347 335.866C117.338 335.866 119.095 336.299 120.616 337.165C122.138 338.031 123.307 339.274 124.123 340.895C124.939 342.515 125.348 344.414 125.348 346.591ZM156.167 357H150.879V340.653L150.582 341.804C149.914 344.414 149.314 346.387 148.782 347.723L145.108 357H141.082L137.353 347.648C136.821 346.288 136.252 344.377 135.646 341.915L135.293 340.653V357H130.023V336.256H137.816L141.379 345.106C141.75 346.059 142.09 347.154 142.399 348.391C142.721 349.628 142.938 350.685 143.049 351.563C143.457 349.708 143.772 348.378 143.995 347.574C144.23 346.758 144.484 346.009 144.756 345.329C145.028 344.649 146.259 341.624 148.448 336.256H156.167V357ZM188.267 357H182.979V340.653L182.682 341.804C182.014 344.414 181.414 346.387 180.882 347.723L177.208 357H173.182L169.452 347.648C168.92 346.288 168.351 344.377 167.745 341.915L167.393 340.653V357H162.123V336.256H169.916L173.479 345.106C173.85 346.059 174.19 347.154 174.499 348.391C174.821 349.628 175.037 350.685 175.148 351.563C175.557 349.708 175.872 348.378 176.095 347.574C176.33 346.758 176.583 346.009 176.855 345.329C177.128 344.649 178.358 341.624 180.548 336.256H188.267V357ZM191.254 336.256H197.451L201.366 347.927C201.7 348.941 201.929 350.141 202.053 351.526H202.164C202.3 350.252 202.566 349.052 202.962 347.927L206.803 336.256H212.87L204.094 359.653C203.29 361.818 202.139 363.438 200.643 364.515C199.158 365.591 197.42 366.129 195.429 366.129C194.451 366.129 193.493 366.024 192.553 365.813V361.323C193.233 361.484 193.975 361.564 194.779 361.564C195.781 361.564 196.653 361.255 197.396 360.637C198.15 360.031 198.738 359.109 199.158 357.872L199.492 356.852L191.254 336.256ZM221.517 336.256V344.234H229.421V336.256H235.08V357H229.421V348.446H221.517V357H215.857V336.256H221.517ZM246.491 336.256V344.457C246.491 345.323 246.349 347.438 246.064 350.803L255.639 336.256H262.448V357H256.975V348.725C256.975 347.253 257.098 345.174 257.346 342.49L247.809 357H241.018V336.256H246.491ZM282.005 336.256H288.239L280.02 346.201L288.963 357H282.543L274.063 346.479V357H268.404V336.256H274.063V346.331L282.005 336.256ZM305.105 357L304.011 354.18H303.862C302.91 355.38 301.926 356.215 300.912 356.685C299.91 357.142 298.599 357.371 296.979 357.371C294.987 357.371 293.416 356.802 292.266 355.664C291.128 354.526 290.559 352.906 290.559 350.803C290.559 348.601 291.326 346.98 292.859 345.941C294.406 344.89 296.731 344.309 299.836 344.197L303.436 344.086V343.177C303.436 341.074 302.359 340.022 300.207 340.022C298.549 340.022 296.601 340.523 294.362 341.525L292.488 337.703C294.876 336.454 297.523 335.829 300.43 335.829C303.213 335.829 305.347 336.435 306.831 337.647C308.315 338.86 309.058 340.703 309.058 343.177V357H305.105ZM303.436 347.389L301.246 347.463C299.601 347.512 298.376 347.809 297.572 348.354C296.768 348.898 296.366 349.727 296.366 350.84C296.366 352.436 297.282 353.233 299.112 353.233C300.424 353.233 301.469 352.856 302.248 352.102C303.04 351.347 303.436 350.345 303.436 349.096V347.389ZM334.515 352.862H337.539V364.44H332.455V357H314.902V336.256H320.562V352.751H328.837V336.256H334.515V352.862ZM346.538 336.256V344.457C346.538 345.323 346.396 347.438 346.111 350.803L355.686 336.256H362.495V357H357.021V348.725C357.021 347.253 357.145 345.174 357.393 342.49L347.855 357H341.064V336.256H346.538ZM372.96 346.591C372.96 348.644 373.294 350.197 373.962 351.248C374.642 352.299 375.743 352.825 377.265 352.825C378.774 352.825 379.856 352.306 380.512 351.267C381.18 350.215 381.514 348.657 381.514 346.591C381.514 344.537 381.18 342.997 380.512 341.971C379.844 340.944 378.749 340.431 377.228 340.431C375.718 340.431 374.63 340.944 373.962 341.971C373.294 342.985 372.96 344.525 372.96 346.591ZM387.303 346.591C387.303 349.968 386.412 352.609 384.631 354.514C382.85 356.419 380.369 357.371 377.19 357.371C375.199 357.371 373.442 356.938 371.921 356.072C370.399 355.194 369.23 353.938 368.414 352.306C367.598 350.673 367.189 348.768 367.189 346.591C367.189 343.201 368.074 340.567 369.843 338.687C371.612 336.806 374.098 335.866 377.302 335.866C379.293 335.866 381.05 336.299 382.571 337.165C384.093 338.031 385.262 339.274 386.078 340.895C386.895 342.515 387.303 344.414 387.303 346.591ZM397.638 336.256V344.234H405.542V336.256H411.201V357H405.542V348.446H397.638V357H391.979V336.256H397.638ZM422.798 336.256V344.234H430.702V336.256H436.361V357H430.702V348.446H422.798V357H417.139V336.256H422.798ZM455.473 357L454.378 354.18H454.229C453.277 355.38 452.294 356.215 451.279 356.685C450.277 357.142 448.966 357.371 447.346 357.371C445.354 357.371 443.783 356.802 442.633 355.664C441.495 354.526 440.926 352.906 440.926 350.803C440.926 348.601 441.693 346.98 443.227 345.941C444.773 344.89 447.098 344.309 450.203 344.197L453.803 344.086V343.177C453.803 341.074 452.727 340.022 450.574 340.022C448.917 340.022 446.968 340.523 444.729 341.525L442.855 337.703C445.243 336.454 447.89 335.829 450.797 335.829C453.58 335.829 455.714 336.435 457.198 337.647C458.683 338.86 459.425 340.703 459.425 343.177V357H455.473ZM453.803 347.389L451.613 347.463C449.968 347.512 448.743 347.809 447.939 348.354C447.135 348.898 446.733 349.727 446.733 350.84C446.733 352.436 447.649 353.233 449.479 353.233C450.791 353.233 451.836 352.856 452.615 352.102C453.407 351.347 453.803 350.345 453.803 349.096V347.389ZM468.424 357H462.301L467.886 348.799C466.55 348.242 465.535 347.438 464.843 346.387C464.162 345.335 463.822 344.098 463.822 342.676C463.822 340.672 464.571 339.101 466.067 337.963C467.576 336.825 469.63 336.256 472.228 336.256H481.876V357H476.217V349.281H473.1L468.424 357ZM469.37 342.713C469.37 343.579 469.71 344.259 470.391 344.754C471.071 345.236 471.962 345.478 473.062 345.478H476.217V340.245H472.339C471.411 340.245 470.681 340.474 470.149 340.932C469.63 341.377 469.37 341.971 469.37 342.713ZM88.4424 374.256V382.457C88.4424 383.323 88.3001 385.438 88.0156 388.803L97.5898 374.256H104.399V395H98.9258V386.725C98.9258 385.253 99.0495 383.174 99.2969 380.49L89.7598 395H82.9688V374.256H88.4424ZM116.015 374.256V382.234H123.919V374.256H129.578V395H123.919V386.446H116.015V395H110.355V374.256H116.015ZM150.675 374.145C154.138 374.429 156.854 375.499 158.82 377.354C160.787 379.21 161.771 381.634 161.771 384.628C161.771 387.683 160.799 390.132 158.857 391.976C156.915 393.806 154.188 394.864 150.675 395.148V404.129H145.424V395.148C141.923 394.827 139.183 393.732 137.204 391.864C135.237 389.984 134.254 387.572 134.254 384.628C134.254 381.498 135.206 379.031 137.111 377.225C139.016 375.406 141.787 374.38 145.424 374.145V366.129H150.675V374.145ZM140.08 384.628C140.08 386.372 140.556 387.795 141.509 388.896C142.461 389.984 143.766 390.64 145.424 390.862V378.394C143.828 378.604 142.535 379.278 141.546 380.416C140.569 381.554 140.08 382.958 140.08 384.628ZM155.963 384.628C155.963 382.995 155.499 381.622 154.571 380.509C153.644 379.383 152.345 378.703 150.675 378.468V390.862C152.32 390.64 153.613 389.978 154.553 388.877C155.493 387.776 155.963 386.36 155.963 384.628ZM177.857 395.371C175.421 395.371 173.509 394.487 172.124 392.718H171.827C172.025 394.45 172.124 395.451 172.124 395.724V404.129H166.465V374.256H171.066L171.864 376.946H172.124C173.448 374.893 175.408 373.866 178.006 373.866C180.455 373.866 182.372 374.812 183.758 376.705C185.143 378.598 185.836 381.226 185.836 384.591C185.836 386.805 185.508 388.729 184.853 390.361C184.209 391.994 183.288 393.237 182.088 394.091C180.888 394.944 179.478 395.371 177.857 395.371ZM176.188 378.394C174.79 378.394 173.769 378.826 173.126 379.692C172.483 380.546 172.149 381.962 172.124 383.941V384.554C172.124 386.78 172.452 388.376 173.107 389.341C173.775 390.306 174.827 390.788 176.262 390.788C178.798 390.788 180.065 388.698 180.065 384.517C180.065 382.476 179.75 380.948 179.119 379.934C178.501 378.907 177.523 378.394 176.188 378.394ZM203.686 395L202.591 392.18H202.442C201.49 393.38 200.507 394.215 199.492 394.685C198.49 395.142 197.179 395.371 195.559 395.371C193.567 395.371 191.996 394.802 190.846 393.664C189.708 392.526 189.139 390.906 189.139 388.803C189.139 386.601 189.906 384.98 191.439 383.941C192.986 382.89 195.311 382.309 198.416 382.197L202.016 382.086V381.177C202.016 379.074 200.939 378.022 198.787 378.022C197.13 378.022 195.181 378.523 192.942 379.525L191.068 375.703C193.456 374.454 196.103 373.829 199.01 373.829C201.793 373.829 203.927 374.435 205.411 375.647C206.896 376.86 207.638 378.703 207.638 381.177V395H203.686ZM202.016 385.389L199.826 385.463C198.181 385.512 196.956 385.809 196.152 386.354C195.348 386.898 194.946 387.727 194.946 388.84C194.946 390.436 195.862 391.233 197.692 391.233C199.004 391.233 200.049 390.856 200.828 390.102C201.62 389.347 202.016 388.345 202.016 387.096V385.389ZM221.906 395.371C215.449 395.371 212.221 391.827 212.221 384.739C212.221 381.214 213.099 378.523 214.855 376.668C216.612 374.8 219.129 373.866 222.407 373.866C224.807 373.866 226.959 374.336 228.864 375.276L227.194 379.655C226.304 379.297 225.475 379.006 224.708 378.783C223.941 378.548 223.174 378.431 222.407 378.431C219.463 378.431 217.991 380.521 217.991 384.702C217.991 388.759 219.463 390.788 222.407 390.788C223.496 390.788 224.504 390.646 225.432 390.361C226.359 390.064 227.287 389.607 228.215 388.988V393.831C227.299 394.412 226.372 394.814 225.432 395.037C224.504 395.26 223.329 395.371 221.906 395.371ZM250.202 374.256V378.505H243.411V395H237.752V378.505H230.942V374.256H250.202ZM265.473 395.371C263.036 395.371 261.125 394.487 259.739 392.718H259.442C259.64 394.45 259.739 395.451 259.739 395.724V404.129H254.08V374.256H258.682L259.479 376.946H259.739C261.063 374.893 263.023 373.866 265.621 373.866C268.07 373.866 269.988 374.812 271.373 376.705C272.758 378.598 273.451 381.226 273.451 384.591C273.451 386.805 273.123 388.729 272.468 390.361C271.825 391.994 270.903 393.237 269.703 394.091C268.503 394.944 267.093 395.371 265.473 395.371ZM263.803 378.394C262.405 378.394 261.384 378.826 260.741 379.692C260.098 380.546 259.764 381.962 259.739 383.941V384.554C259.739 386.78 260.067 388.376 260.723 389.341C261.391 390.306 262.442 390.788 263.877 390.788C266.413 390.788 267.681 388.698 267.681 384.517C267.681 382.476 267.365 380.948 266.734 379.934C266.116 378.907 265.139 378.394 263.803 378.394ZM275.158 374.256H281.355L285.271 385.927C285.604 386.941 285.833 388.141 285.957 389.526H286.068C286.204 388.252 286.47 387.052 286.866 385.927L290.707 374.256H296.774L287.998 397.653C287.194 399.818 286.044 401.438 284.547 402.515C283.062 403.591 281.325 404.129 279.333 404.129C278.356 404.129 277.397 404.024 276.457 403.813V399.323C277.137 399.484 277.88 399.564 278.684 399.564C279.686 399.564 280.558 399.255 281.3 398.637C282.054 398.031 282.642 397.109 283.062 395.872L283.396 394.852L275.158 374.256ZM313.362 374.256H319.597L311.377 384.201L320.32 395H313.9L305.421 384.479V395H299.762V374.256H305.421V384.331L313.362 374.256ZM340.452 374.256V378.505H333.661V395H328.002V378.505H321.192V374.256H340.452ZM341.361 374.256H347.559L351.474 385.927C351.808 386.941 352.036 388.141 352.16 389.526H352.271C352.408 388.252 352.674 387.052 353.069 385.927L356.91 374.256H362.978L354.201 397.653C353.397 399.818 352.247 401.438 350.75 402.515C349.266 403.591 347.528 404.129 345.536 404.129C344.559 404.129 343.6 404.024 342.66 403.813V399.323C343.34 399.484 344.083 399.564 344.887 399.564C345.889 399.564 346.761 399.255 347.503 398.637C348.257 398.031 348.845 397.109 349.266 395.872L349.6 394.852L341.361 374.256ZM377.357 395.371C374.921 395.371 373.009 394.487 371.624 392.718H371.327C371.525 394.45 371.624 395.451 371.624 395.724V404.129H365.965V374.256H370.566L371.364 376.946H371.624C372.948 374.893 374.908 373.866 377.506 373.866C379.955 373.866 381.872 374.812 383.258 376.705C384.643 378.598 385.336 381.226 385.336 384.591C385.336 386.805 385.008 388.729 384.353 390.361C383.709 391.994 382.788 393.237 381.588 394.091C380.388 394.944 378.978 395.371 377.357 395.371ZM375.688 378.394C374.29 378.394 373.269 378.826 372.626 379.692C371.983 380.546 371.649 381.962 371.624 383.941V384.554C371.624 386.78 371.952 388.376 372.607 389.341C373.275 390.306 374.327 390.788 375.762 390.788C378.298 390.788 379.565 388.698 379.565 384.517C379.565 382.476 379.25 380.948 378.619 379.934C378.001 378.907 377.023 378.394 375.688 378.394ZM403.186 395L402.091 392.18H401.942C400.99 393.38 400.007 394.215 398.992 394.685C397.99 395.142 396.679 395.371 395.059 395.371C393.067 395.371 391.496 394.802 390.346 393.664C389.208 392.526 388.639 390.906 388.639 388.803C388.639 386.601 389.406 384.98 390.939 383.941C392.486 382.89 394.811 382.309 397.916 382.197L401.516 382.086V381.177C401.516 379.074 400.439 378.022 398.287 378.022C396.63 378.022 394.681 378.523 392.442 379.525L390.568 375.703C392.956 374.454 395.603 373.829 398.51 373.829C401.293 373.829 403.427 374.435 404.911 375.647C406.396 376.86 407.138 378.703 407.138 381.177V395H403.186ZM401.516 385.389L399.326 385.463C397.681 385.512 396.456 385.809 395.652 386.354C394.848 386.898 394.446 387.727 394.446 388.84C394.446 390.436 395.362 391.233 397.192 391.233C398.504 391.233 399.549 390.856 400.328 390.102C401.12 389.347 401.516 388.345 401.516 387.096V385.389Z" fill="white"/>
<path d="M21.2255 327.767H14.5203C14.1002 327.768 13.6927 327.624 13.3653 327.361C13.038 327.099 12.8105 326.732 12.7206 326.322L11.9709 322.859C10.9707 322.422 10.0224 321.875 9.14325 321.228L5.75933 322.304C5.35879 322.431 4.92661 322.418 4.53456 322.267C4.14251 322.115 3.81418 321.834 3.60409 321.471L0.244116 315.678C0.0362273 315.315 -0.0418089 314.891 0.0227745 314.477C0.0873579 314.064 0.290737 313.684 0.599639 313.401L3.22461 311.011C3.10524 309.928 3.10524 308.836 3.22461 307.753L0.599639 305.369C0.290299 305.085 0.0866438 304.705 0.0220499 304.291C-0.0425441 303.877 0.0357556 303.453 0.244116 303.089L3.59672 297.293C3.80681 296.929 4.13514 296.649 4.52719 296.497C4.91924 296.346 5.35142 296.332 5.75196 296.46L9.13588 297.535C9.58535 297.205 10.0532 296.896 10.5359 296.616C11.0019 296.355 11.4809 296.118 11.9709 295.907L12.7224 292.447C12.8119 292.037 13.039 291.67 13.366 291.407C13.6929 291.144 14.1002 291 14.5203 291H21.2255C21.6456 291 22.0529 291.144 22.3799 291.407C22.7069 291.67 22.9339 292.037 23.0234 292.447L23.7823 295.908C24.2981 296.136 24.8028 296.392 25.291 296.677C25.746 296.94 26.1863 297.228 26.6099 297.539L29.9957 296.464C30.396 296.337 30.8277 296.35 31.2194 296.501C31.6111 296.653 31.9391 296.933 32.1491 297.296L35.5017 303.093C35.9291 303.841 35.7817 304.788 35.1462 305.371L32.5212 307.76C32.6406 308.843 32.6406 309.935 32.5212 311.018L35.1462 313.408C35.7817 313.993 35.9291 314.937 35.5017 315.686L32.1491 321.482C31.939 321.845 31.6107 322.126 31.2186 322.278C30.8266 322.429 30.3944 322.442 29.9938 322.315L26.6099 321.239C25.7315 321.885 24.7837 322.432 23.7842 322.868L23.0234 326.322C22.9335 326.732 22.7063 327.098 22.3794 327.361C22.0524 327.624 21.6453 327.767 21.2255 327.767ZM17.8655 302.03C15.9113 302.03 14.0372 302.805 12.6553 304.184C11.2735 305.563 10.4972 307.433 10.4972 309.384C10.4972 311.334 11.2735 313.204 12.6553 314.583C14.0372 315.962 15.9113 316.737 17.8655 316.737C19.8197 316.737 21.6939 315.962 23.0758 314.583C24.4576 313.204 25.2339 311.334 25.2339 309.384C25.2339 307.433 24.4576 305.563 23.0758 304.184C21.6939 302.805 19.8197 302.03 17.8655 302.03Z" fill="white"/>
<path d="M48.8556 340.811L44.5299 341.959C44.2588 342.031 43.971 342.008 43.714 341.895C43.457 341.782 43.2464 341.585 43.117 341.336L42.0297 339.234C41.3083 339.124 40.6011 338.934 39.9213 338.668L37.9257 339.94C37.6895 340.09 37.4084 340.156 37.1291 340.125C36.8498 340.095 36.589 339.97 36.3902 339.772L33.213 336.617C33.0155 336.418 32.8914 336.159 32.8609 335.882C32.8305 335.604 32.8955 335.325 33.0454 335.089L34.3223 333.101C34.0567 332.424 33.8663 331.721 33.7546 331.003L31.6456 329.917C31.3967 329.787 31.1991 329.578 31.0852 329.322C30.9713 329.066 30.948 328.78 31.019 328.51L32.1717 324.203C32.2439 323.933 32.4068 323.696 32.6333 323.532C32.8598 323.367 33.1363 323.285 33.417 323.298L35.7874 323.412C36.0197 323.122 36.2678 322.843 36.5304 322.58C36.7856 322.332 37.0532 322.098 37.3325 321.878L37.2144 319.521C37.2007 319.242 37.2833 318.967 37.4484 318.741C37.6135 318.516 37.8512 318.354 38.1221 318.282L42.4478 317.134C42.7189 317.062 43.0067 317.085 43.2635 317.199C43.5203 317.312 43.7307 317.509 43.8598 317.758L44.9528 319.857C45.3252 319.916 45.6954 319.994 46.06 320.094C46.3993 320.185 46.7336 320.296 47.0611 320.423L49.0579 319.151C49.294 319.001 49.5749 318.936 49.854 318.966C50.133 318.997 50.3935 319.121 50.5923 319.319L53.7653 322.478C54.1714 322.887 54.2414 323.522 53.9329 324.006L52.656 325.994C52.9217 326.671 53.112 327.374 53.2237 328.092L55.3337 329.181C55.8455 329.449 56.1053 330.032 55.96 330.587L54.8073 334.894C54.7351 335.164 54.5722 335.401 54.3457 335.566C54.1192 335.73 53.8426 335.813 53.562 335.799L51.1915 335.686C50.7374 336.252 50.2212 336.766 49.6524 337.218L49.7636 339.573C49.777 339.852 49.6942 340.127 49.5291 340.352C49.364 340.577 49.1263 340.739 48.8556 340.811ZM42.2025 324.812C40.9418 325.147 39.8678 325.966 39.2166 327.091C38.5655 328.215 38.3907 329.553 38.7306 330.809C39.0704 332.065 39.8972 333.136 41.029 333.788C42.1608 334.439 43.5049 334.617 44.7656 334.283C46.0264 333.949 47.1004 333.129 47.7515 332.004C48.4027 330.88 48.5775 329.542 48.2376 328.286C47.8977 327.031 47.071 325.959 45.9392 325.307C44.8074 324.656 43.4633 324.478 42.2025 324.812Z" fill="white"/>
<path d="M40.6172 314.443L38.4008 312.238C38.2619 312.1 38.1768 311.917 38.1595 311.718C38.1423 311.52 38.1939 311.319 38.306 311.149L39.2568 309.709C39.0775 309.23 38.9533 308.73 38.8864 308.218L37.3957 307.475C37.2192 307.387 37.0808 307.241 37.0037 307.06C36.9265 306.878 36.9151 306.674 36.9715 306.48L37.8655 303.38C37.9227 303.186 38.0434 303.015 38.208 302.893C38.3725 302.772 38.5711 302.708 38.7713 302.712L40.4661 302.753C40.8013 302.341 41.1794 301.965 41.5935 301.631L41.551 299.947C41.5468 299.747 41.611 299.549 41.733 299.386C41.855 299.222 42.0275 299.101 42.2223 299.045L45.3365 298.151C45.5318 298.095 45.7375 298.107 45.9195 298.183C46.1015 298.26 46.2489 298.398 46.3372 298.573L47.0835 300.057C47.3466 300.091 47.6082 300.138 47.8644 300.201C48.1088 300.264 48.3492 300.34 48.5843 300.428L50.0301 299.484C50.2015 299.373 50.4034 299.321 50.6026 299.338C50.8018 299.355 50.9861 299.439 51.1251 299.577L53.3415 301.783C53.4802 301.921 53.5651 302.104 53.5822 302.303C53.5992 302.501 53.5473 302.702 53.4351 302.872L52.488 304.314C52.5796 304.562 52.658 304.816 52.7207 305.075C52.7802 305.315 52.8258 305.559 52.8583 305.805L54.3497 306.549C54.526 306.636 54.6641 306.783 54.7411 306.964C54.8182 307.145 54.8295 307.349 54.7733 307.544L53.8755 310.642C53.7578 311.04 53.3815 311.318 52.9697 311.31L51.275 311.269C50.9397 311.681 50.5617 312.057 50.1476 312.391L50.1882 314.077C50.1959 314.488 49.9176 314.861 49.5174 314.979L46.4032 315.872C46.208 315.928 46.0023 315.917 45.8203 315.84C45.6383 315.763 45.4909 315.625 45.4026 315.45L44.6562 313.966C44.1423 313.9 43.64 313.776 43.1585 313.598L41.7116 314.537C41.5402 314.649 41.3383 314.7 41.1393 314.683C40.9403 314.666 40.7561 314.581 40.6172 314.443ZM48.4136 304.476C47.7676 303.833 46.88 303.483 45.946 303.504C45.0119 303.524 44.108 303.913 43.4331 304.584C42.7582 305.256 42.3675 306.155 42.347 307.085C42.3265 308.014 42.6779 308.897 43.3239 309.54C43.9698 310.183 44.8575 310.532 45.7915 310.512C46.7255 310.492 47.6294 310.103 48.3043 309.431C48.9793 308.76 49.37 307.86 49.3905 306.931C49.4109 306.002 49.0596 305.119 48.4136 304.476Z" fill="white"/>
<path d="M1590 244.999C986.751 244.999 603.249 245 0 245" stroke="#275D81" stroke-width="2"/>
<path d="M638.319 191H531.029V168.429L569.557 129.481C580.965 117.794 588.419 109.71 591.918 105.231C595.417 100.682 597.937 96.4826 599.477 92.6333C601.016 88.784 601.786 84.7948 601.786 80.6655C601.786 74.5067 600.071 69.9225 596.642 66.9131C593.283 63.9036 588.769 62.3989 583.1 62.3989C577.151 62.3989 571.377 63.7637 565.778 66.4932C560.179 69.2227 554.335 73.1069 548.246 78.146L530.609 57.2549C538.168 50.8161 544.432 46.2669 549.401 43.6074C554.37 40.9479 559.794 38.9183 565.673 37.5186C571.552 36.0488 578.131 35.314 585.409 35.314C594.997 35.314 603.466 37.0636 610.814 40.563C618.163 44.0623 623.867 48.9614 627.926 55.2603C631.986 61.5591 634.015 68.7677 634.015 76.8862C634.015 83.9549 632.755 90.6037 630.236 96.8325C627.786 102.991 623.937 109.325 618.688 115.834C613.509 122.343 604.341 131.616 591.183 143.654L571.447 162.235V163.705H638.319V191ZM816.156 114.259C816.156 141.064 811.747 160.906 802.929 173.783C794.18 186.661 780.673 193.1 762.406 193.1C744.7 193.1 731.332 186.451 722.304 173.153C713.345 159.856 708.866 140.224 708.866 114.259C708.866 87.1743 713.24 67.228 721.989 54.4204C730.737 41.5428 744.21 35.104 762.406 35.104C780.113 35.104 793.48 41.8228 802.509 55.2603C811.607 68.6978 816.156 88.3641 816.156 114.259ZM741.095 114.259C741.095 133.086 742.705 146.593 745.924 154.782C749.214 162.9 754.708 166.959 762.406 166.959C769.965 166.959 775.424 162.83 778.783 154.572C782.143 146.313 783.822 132.876 783.822 114.259C783.822 95.4328 782.108 81.9253 778.678 73.7368C775.319 65.4784 769.895 61.3491 762.406 61.3491C754.778 61.3491 749.319 65.4784 746.029 73.7368C742.74 81.9253 741.095 95.4328 741.095 114.259ZM847.755 191L905.39 65.0234H829.699V37.7285H939.823V58.0947L881.769 191H847.755ZM1011.21 92.9482C1026.05 92.9482 1037.84 97.1125 1046.59 105.441C1055.41 113.769 1059.82 125.177 1059.82 139.665C1059.82 156.811 1054.53 170.004 1043.96 179.242C1033.4 188.48 1018.28 193.1 998.612 193.1C981.535 193.1 967.748 190.335 957.25 184.806V156.776C962.779 159.716 969.218 162.13 976.566 164.02C983.915 165.84 990.879 166.75 997.458 166.75C1017.26 166.75 1027.17 158.631 1027.17 142.394C1027.17 126.927 1016.91 119.193 996.408 119.193C992.698 119.193 988.604 119.578 984.125 120.348C979.646 121.048 976.007 121.818 973.207 122.658L960.294 115.729L966.068 37.5186H1049.32V65.0234H994.518L991.684 95.1528L995.358 94.418C999.627 93.4382 1004.91 92.9482 1011.21 92.9482Z" fill="#FF0000"/>
</svg>
