<svg width="1591" height="940" viewBox="0 0 1591 940" fill="none" xmlns="http://www.w3.org/2000/svg">
<path d="M1590 244.999C986.751 244.999 603.249 245 0 245" stroke="#275D81" stroke-width="2"/>
<path d="M638.319 191H531.029V168.429L569.557 129.481C580.965 117.794 588.419 109.71 591.918 105.231C595.417 100.682 597.937 96.4826 599.477 92.6333C601.016 88.784 601.786 84.7948 601.786 80.6655C601.786 74.5067 600.071 69.9225 596.642 66.9131C593.283 63.9036 588.769 62.3989 583.1 62.3989C577.151 62.3989 571.377 63.7637 565.778 66.4932C560.179 69.2227 554.335 73.1069 548.246 78.146L530.609 57.2549C538.168 50.8161 544.432 46.2669 549.401 43.6074C554.37 40.9479 559.794 38.9183 565.673 37.5186C571.552 36.0488 578.131 35.314 585.409 35.314C594.997 35.314 603.466 37.0636 610.814 40.563C618.163 44.0623 623.867 48.9614 627.926 55.2603C631.986 61.5591 634.015 68.7677 634.015 76.8862C634.015 83.9549 632.755 90.6037 630.236 96.8325C627.786 102.991 623.937 109.325 618.688 115.834C613.509 122.343 604.341 131.616 591.183 143.654L571.447 162.235V163.705H638.319V191ZM816.156 114.259C816.156 141.064 811.747 160.906 802.929 173.783C794.18 186.661 780.673 193.1 762.406 193.1C744.7 193.1 731.332 186.451 722.304 173.153C713.345 159.856 708.866 140.224 708.866 114.259C708.866 87.1743 713.24 67.228 721.989 54.4204C730.737 41.5428 744.21 35.104 762.406 35.104C780.113 35.104 793.48 41.8228 802.509 55.2603C811.607 68.6978 816.156 88.3641 816.156 114.259ZM741.095 114.259C741.095 133.086 742.705 146.593 745.924 154.782C749.214 162.9 754.708 166.959 762.406 166.959C769.965 166.959 775.424 162.83 778.783 154.572C782.143 146.313 783.822 132.876 783.822 114.259C783.822 95.4328 782.108 81.9253 778.678 73.7368C775.319 65.4784 769.895 61.3491 762.406 61.3491C754.778 61.3491 749.319 65.4784 746.029 73.7368C742.74 81.9253 741.095 95.4328 741.095 114.259ZM847.755 191L905.39 65.0234H829.699V37.7285H939.823V58.0947L881.769 191H847.755ZM1011.21 92.9482C1026.05 92.9482 1037.84 97.1125 1046.59 105.441C1055.41 113.769 1059.82 125.177 1059.82 139.665C1059.82 156.811 1054.53 170.004 1043.96 179.242C1033.4 188.48 1018.28 193.1 998.612 193.1C981.535 193.1 967.748 190.335 957.25 184.806V156.776C962.779 159.716 969.218 162.13 976.566 164.02C983.915 165.84 990.879 166.75 997.458 166.75C1017.26 166.75 1027.17 158.631 1027.17 142.394C1027.17 126.927 1016.91 119.193 996.408 119.193C992.698 119.193 988.604 119.578 984.125 120.348C979.646 121.048 976.007 121.818 973.207 122.658L960.294 115.729L966.068 37.5186H1049.32V65.0234H994.518L991.684 95.1528L995.358 94.418C999.627 93.4382 1004.91 92.9482 1011.21 92.9482Z" fill="#FF0000"/>
<path d="M601.166 306.282H603.43C606.967 306.282 609.701 307 611.631 308.435C613.561 309.869 614.525 311.898 614.525 314.521C614.525 320.174 610.79 323 603.318 323H595.414V295.873H612.559V300.623H601.166V306.282ZM601.166 318.287H603.096C605.038 318.287 606.46 317.978 607.363 317.359C608.266 316.729 608.718 315.782 608.718 314.521C608.718 313.271 608.26 312.374 607.345 311.83C606.429 311.273 604.858 310.995 602.632 310.995H601.166V318.287ZM637.812 323H632.152V306.505H626.938C626.543 311.144 626.06 314.607 625.491 316.896C624.922 319.172 624.161 320.823 623.209 321.85C622.269 322.864 621.032 323.371 619.498 323.371C618.187 323.371 617.111 323.173 616.27 322.777V318.25C616.876 318.497 617.482 318.621 618.088 318.621C618.793 318.621 619.381 318.114 619.851 317.1C620.333 316.085 620.76 314.397 621.131 312.034C621.514 309.659 621.842 306.4 622.114 302.256H637.812V323ZM656.941 323L655.847 320.18H655.698C654.746 321.38 653.762 322.215 652.748 322.685C651.746 323.142 650.435 323.371 648.814 323.371C646.823 323.371 645.252 322.802 644.102 321.664C642.964 320.526 642.395 318.906 642.395 316.803C642.395 314.601 643.161 312.98 644.695 311.941C646.242 310.89 648.567 310.309 651.672 310.197L655.271 310.086V309.177C655.271 307.074 654.195 306.022 652.043 306.022C650.385 306.022 648.437 306.523 646.198 307.525L644.324 303.703C646.712 302.454 649.359 301.829 652.266 301.829C655.049 301.829 657.183 302.435 658.667 303.647C660.151 304.86 660.894 306.703 660.894 309.177V323H656.941ZM655.271 313.389L653.082 313.463C651.437 313.512 650.212 313.809 649.408 314.354C648.604 314.898 648.202 315.727 648.202 316.84C648.202 318.436 649.118 319.233 650.948 319.233C652.259 319.233 653.305 318.856 654.084 318.102C654.876 317.347 655.271 316.345 655.271 315.096V313.389ZM681.062 302.256V306.505H672.397V323H666.738V302.256H681.062ZM689.431 312.591C689.431 314.644 689.765 316.197 690.433 317.248C691.113 318.299 692.214 318.825 693.735 318.825C695.244 318.825 696.327 318.306 696.982 317.267C697.65 316.215 697.984 314.657 697.984 312.591C697.984 310.537 697.65 308.997 696.982 307.971C696.314 306.944 695.22 306.431 693.698 306.431C692.189 306.431 691.101 306.944 690.433 307.971C689.765 308.985 689.431 310.525 689.431 312.591ZM703.773 312.591C703.773 315.968 702.883 318.609 701.102 320.514C699.32 322.419 696.84 323.371 693.661 323.371C691.67 323.371 689.913 322.938 688.392 322.072C686.87 321.194 685.701 319.938 684.885 318.306C684.068 316.673 683.66 314.768 683.66 312.591C683.66 309.201 684.545 306.567 686.313 304.687C688.082 302.806 690.569 301.866 693.772 301.866C695.764 301.866 697.521 302.299 699.042 303.165C700.563 304.031 701.732 305.274 702.549 306.895C703.365 308.515 703.773 310.414 703.773 312.591ZM705.48 302.256H711.678L715.593 313.927C715.927 314.941 716.156 316.141 716.279 317.526H716.391C716.527 316.252 716.793 315.052 717.188 313.927L721.029 302.256H727.097L718.32 325.653C717.516 327.818 716.366 329.438 714.869 330.515C713.385 331.591 711.647 332.129 709.655 332.129C708.678 332.129 707.719 332.024 706.779 331.813V327.323C707.46 327.484 708.202 327.564 709.006 327.564C710.008 327.564 710.88 327.255 711.622 326.637C712.377 326.031 712.964 325.109 713.385 323.872L713.719 322.852L705.48 302.256ZM738.508 323.371C732.051 323.371 728.822 319.827 728.822 312.739C728.822 309.214 729.701 306.523 731.457 304.668C733.214 302.8 735.731 301.866 739.009 301.866C741.409 301.866 743.561 302.336 745.466 303.276L743.796 307.655C742.905 307.297 742.076 307.006 741.31 306.783C740.543 306.548 739.776 306.431 739.009 306.431C736.065 306.431 734.593 308.521 734.593 312.702C734.593 316.759 736.065 318.788 739.009 318.788C740.097 318.788 741.105 318.646 742.033 318.361C742.961 318.064 743.889 317.607 744.816 316.988V321.831C743.901 322.412 742.973 322.814 742.033 323.037C741.105 323.26 739.93 323.371 738.508 323.371ZM766.804 302.256V306.505H760.013V323H754.354V306.505H747.544V302.256H766.804ZM782.074 323.371C779.637 323.371 777.726 322.487 776.341 320.718H776.044C776.242 322.45 776.341 323.451 776.341 323.724V332.129H770.682V302.256H775.283L776.081 304.946H776.341C777.664 302.893 779.625 301.866 782.223 301.866C784.672 301.866 786.589 302.812 787.975 304.705C789.36 306.598 790.053 309.226 790.053 312.591C790.053 314.805 789.725 316.729 789.069 318.361C788.426 319.994 787.505 321.237 786.305 322.091C785.105 322.944 783.695 323.371 782.074 323.371ZM780.404 306.394C779.007 306.394 777.986 306.826 777.343 307.692C776.7 308.546 776.366 309.962 776.341 311.941V312.554C776.341 314.78 776.669 316.376 777.324 317.341C777.992 318.306 779.044 318.788 780.479 318.788C783.014 318.788 784.282 316.698 784.282 312.517C784.282 310.476 783.967 308.948 783.336 307.934C782.717 306.907 781.74 306.394 780.404 306.394ZM799.237 312.591C799.237 314.644 799.571 316.197 800.239 317.248C800.92 318.299 802.021 318.825 803.542 318.825C805.051 318.825 806.133 318.306 806.789 317.267C807.457 316.215 807.791 314.657 807.791 312.591C807.791 310.537 807.457 308.997 806.789 307.971C806.121 306.944 805.026 306.431 803.505 306.431C801.996 306.431 800.907 306.944 800.239 307.971C799.571 308.985 799.237 310.525 799.237 312.591ZM813.58 312.591C813.58 315.968 812.689 318.609 810.908 320.514C809.127 322.419 806.647 323.371 803.468 323.371C801.476 323.371 799.72 322.938 798.198 322.072C796.677 321.194 795.508 319.938 794.691 318.306C793.875 316.673 793.467 314.768 793.467 312.591C793.467 309.201 794.351 306.567 796.12 304.687C797.889 302.806 800.375 301.866 803.579 301.866C805.571 301.866 807.327 302.299 808.849 303.165C810.37 304.031 811.539 305.274 812.355 306.895C813.172 308.515 813.58 310.414 813.58 312.591ZM823.729 302.256V310.457C823.729 311.323 823.587 313.438 823.303 316.803L832.877 302.256H839.687V323H834.213V314.725C834.213 313.253 834.337 311.174 834.584 308.49L825.047 323H818.256V302.256H823.729ZM838.017 293.331C837.782 295.644 836.91 297.333 835.4 298.396C833.891 299.448 831.714 299.974 828.869 299.974C825.938 299.974 823.767 299.466 822.356 298.452C820.959 297.438 820.173 295.731 820 293.331H825.065C825.152 294.605 825.467 295.502 826.012 296.021C826.568 296.529 827.558 296.782 828.98 296.782C830.23 296.782 831.158 296.504 831.764 295.947C832.382 295.378 832.759 294.506 832.896 293.331H838.017ZM854.066 323.371C847.609 323.371 844.381 319.827 844.381 312.739C844.381 309.214 845.259 306.523 847.016 304.668C848.772 302.8 851.289 301.866 854.567 301.866C856.967 301.866 859.119 302.336 861.024 303.276L859.354 307.655C858.464 307.297 857.635 307.006 856.868 306.783C856.101 306.548 855.334 306.431 854.567 306.431C851.623 306.431 850.151 308.521 850.151 312.702C850.151 316.759 851.623 318.788 854.567 318.788C855.656 318.788 856.664 318.646 857.592 318.361C858.52 318.064 859.447 317.607 860.375 316.988V321.831C859.46 322.412 858.532 322.814 857.592 323.037C856.664 323.26 855.489 323.371 854.066 323.371ZM882.362 302.256V306.505H875.571V323H869.912V306.505H863.103V302.256H882.362ZM905.389 307.692C905.389 308.806 905.036 309.758 904.331 310.55C903.638 311.329 902.612 311.83 901.251 312.053V312.201C902.723 312.374 903.886 312.882 904.739 313.723C905.605 314.551 906.038 315.578 906.038 316.803C906.038 318.819 905.246 320.359 903.663 321.423C902.08 322.474 899.816 323 896.872 323H886.24V302.256H896.872C899.717 302.256 901.845 302.72 903.255 303.647C904.677 304.563 905.389 305.911 905.389 307.692ZM900.175 316.506C900.175 315.689 899.859 315.102 899.229 314.743C898.598 314.372 897.651 314.187 896.39 314.187H891.899V319.085H896.501C897.701 319.085 898.61 318.862 899.229 318.417C899.859 317.959 900.175 317.322 900.175 316.506ZM899.655 308.138C899.655 306.876 898.653 306.245 896.649 306.245H891.899V310.346H896C897.2 310.346 898.109 310.173 898.728 309.826C899.346 309.48 899.655 308.917 899.655 308.138ZM915.056 312.591C915.056 314.644 915.39 316.197 916.058 317.248C916.738 318.299 917.839 318.825 919.36 318.825C920.869 318.825 921.952 318.306 922.607 317.267C923.275 316.215 923.609 314.657 923.609 312.591C923.609 310.537 923.275 308.997 922.607 307.971C921.939 306.944 920.845 306.431 919.323 306.431C917.814 306.431 916.726 306.944 916.058 307.971C915.39 308.985 915.056 310.525 915.056 312.591ZM929.398 312.591C929.398 315.968 928.508 318.609 926.727 320.514C924.945 322.419 922.465 323.371 919.286 323.371C917.295 323.371 915.538 322.938 914.017 322.072C912.495 321.194 911.326 319.938 910.51 318.306C909.693 316.673 909.285 314.768 909.285 312.591C909.285 309.201 910.17 306.567 911.938 304.687C913.707 302.806 916.194 301.866 919.397 301.866C921.389 301.866 923.146 302.299 924.667 303.165C926.188 304.031 927.357 305.274 928.174 306.895C928.99 308.515 929.398 310.414 929.398 312.591ZM600.442 348.256V356.457C600.442 357.323 600.3 359.438 600.016 362.803L609.59 348.256H616.399V369H610.926V360.725C610.926 359.253 611.049 357.174 611.297 354.49L601.76 369H594.969V348.256H600.442ZM646.551 348.256V352.505H637.886V369H632.227V348.256H646.551ZM654.919 358.591C654.919 360.644 655.253 362.197 655.921 363.248C656.601 364.299 657.702 364.825 659.224 364.825C660.733 364.825 661.815 364.306 662.471 363.267C663.139 362.215 663.473 360.657 663.473 358.591C663.473 356.537 663.139 354.997 662.471 353.971C661.803 352.944 660.708 352.431 659.187 352.431C657.677 352.431 656.589 352.944 655.921 353.971C655.253 354.985 654.919 356.525 654.919 358.591ZM669.262 358.591C669.262 361.968 668.371 364.609 666.59 366.514C664.809 368.419 662.328 369.371 659.149 369.371C657.158 369.371 655.401 368.938 653.88 368.072C652.358 367.194 651.189 365.938 650.373 364.306C649.557 362.673 649.148 360.768 649.148 358.591C649.148 355.201 650.033 352.567 651.802 350.687C653.571 348.806 656.057 347.866 659.261 347.866C661.252 347.866 663.009 348.299 664.53 349.165C666.052 350.031 667.221 351.274 668.037 352.895C668.854 354.515 669.262 356.414 669.262 358.591ZM685.33 369.371C682.893 369.371 680.982 368.487 679.597 366.718H679.3C679.498 368.45 679.597 369.451 679.597 369.724V378.129H673.938V348.256H678.539L679.337 350.946H679.597C680.92 348.893 682.881 347.866 685.479 347.866C687.928 347.866 689.845 348.812 691.23 350.705C692.616 352.598 693.309 355.226 693.309 358.591C693.309 360.805 692.981 362.729 692.325 364.361C691.682 365.994 690.76 367.237 689.561 368.091C688.361 368.944 686.951 369.371 685.33 369.371ZM683.66 352.394C682.262 352.394 681.242 352.826 680.599 353.692C679.955 354.546 679.621 355.962 679.597 357.941V358.554C679.597 360.78 679.924 362.376 680.58 363.341C681.248 364.306 682.299 364.788 683.734 364.788C686.27 364.788 687.538 362.698 687.538 358.517C687.538 356.476 687.223 354.948 686.592 353.934C685.973 352.907 684.996 352.394 683.66 352.394ZM702.493 358.591C702.493 360.644 702.827 362.197 703.495 363.248C704.175 364.299 705.276 364.825 706.798 364.825C708.307 364.825 709.389 364.306 710.045 363.267C710.713 362.215 711.047 360.657 711.047 358.591C711.047 356.537 710.713 354.997 710.045 353.971C709.377 352.944 708.282 352.431 706.761 352.431C705.252 352.431 704.163 352.944 703.495 353.971C702.827 354.985 702.493 356.525 702.493 358.591ZM716.836 358.591C716.836 361.968 715.945 364.609 714.164 366.514C712.383 368.419 709.903 369.371 706.724 369.371C704.732 369.371 702.976 368.938 701.454 368.072C699.933 367.194 698.764 365.938 697.947 364.306C697.131 362.673 696.723 360.768 696.723 358.591C696.723 355.201 697.607 352.567 699.376 350.687C701.145 348.806 703.631 347.866 706.835 347.866C708.826 347.866 710.583 348.299 712.104 349.165C713.626 350.031 714.795 351.274 715.611 352.895C716.428 354.515 716.836 356.414 716.836 358.591ZM734.5 364.862V352.505H730.251C729.942 354.806 729.515 356.989 728.971 359.055C728.439 361.12 727.697 363.056 726.744 364.862H734.5ZM743.202 376.44H738.118V369H724.165V376.44H719.081V364.862H720.825C722.013 363.019 723.008 360.694 723.812 357.886C724.617 355.078 725.179 351.868 725.501 348.256H740.159V364.862H743.202V376.44ZM755.17 369.371C748.713 369.371 745.484 365.827 745.484 358.739C745.484 355.214 746.363 352.523 748.119 350.668C749.876 348.8 752.393 347.866 755.671 347.866C758.071 347.866 760.223 348.336 762.128 349.276L760.458 353.655C759.567 353.297 758.739 353.006 757.972 352.783C757.205 352.548 756.438 352.431 755.671 352.431C752.727 352.431 751.255 354.521 751.255 358.702C751.255 362.759 752.727 364.788 755.671 364.788C756.759 364.788 757.768 364.646 758.695 364.361C759.623 364.064 760.551 363.607 761.479 362.988V367.831C760.563 368.412 759.635 368.814 758.695 369.037C757.768 369.26 756.592 369.371 755.17 369.371ZM779.903 348.256H786.138L777.918 358.201L786.861 369H780.441L771.962 358.479V369H766.303V348.256H771.962V358.331L779.903 348.256ZM803.004 369L801.909 366.18H801.761C800.808 367.38 799.825 368.215 798.811 368.685C797.809 369.142 796.497 369.371 794.877 369.371C792.885 369.371 791.314 368.802 790.164 367.664C789.026 366.526 788.457 364.906 788.457 362.803C788.457 360.601 789.224 358.98 790.758 357.941C792.304 356.89 794.63 356.309 797.734 356.197L801.334 356.086V355.177C801.334 353.074 800.258 352.022 798.105 352.022C796.448 352.022 794.5 352.523 792.261 353.525L790.387 349.703C792.774 348.454 795.421 347.829 798.328 347.829C801.111 347.829 803.245 348.435 804.729 349.647C806.214 350.86 806.956 352.703 806.956 355.177V369H803.004ZM801.334 359.389L799.145 359.463C797.499 359.512 796.275 359.809 795.471 360.354C794.667 360.898 794.265 361.727 794.265 362.84C794.265 364.436 795.18 365.233 797.011 365.233C798.322 365.233 799.367 364.856 800.146 364.102C800.938 363.347 801.334 362.345 801.334 361.096V359.389ZM815.955 369H809.832L815.417 360.799C814.081 360.242 813.067 359.438 812.374 358.387C811.694 357.335 811.354 356.098 811.354 354.676C811.354 352.672 812.102 351.101 813.599 349.963C815.108 348.825 817.161 348.256 819.759 348.256H829.407V369H823.748V361.281H820.631L815.955 369ZM816.901 354.713C816.901 355.579 817.242 356.259 817.922 356.754C818.602 357.236 819.493 357.478 820.594 357.478H823.748V352.245H819.87C818.942 352.245 818.213 352.474 817.681 352.932C817.161 353.377 816.901 353.971 816.901 354.713ZM853.621 369.371C847.164 369.371 843.936 365.827 843.936 358.739C843.936 355.214 844.814 352.523 846.57 350.668C848.327 348.8 850.844 347.866 854.122 347.866C856.522 347.866 858.674 348.336 860.579 349.276L858.909 353.655C858.019 353.297 857.19 353.006 856.423 352.783C855.656 352.548 854.889 352.431 854.122 352.431C851.178 352.431 849.706 354.521 849.706 358.702C849.706 362.759 851.178 364.788 854.122 364.788C855.211 364.788 856.219 364.646 857.146 364.361C858.074 364.064 859.002 363.607 859.93 362.988V367.831C859.014 368.412 858.087 368.814 857.146 369.037C856.219 369.26 855.044 369.371 853.621 369.371ZM876.146 369.371C873.71 369.371 871.799 368.487 870.413 366.718H870.116C870.314 368.45 870.413 369.451 870.413 369.724V378.129H864.754V348.256H869.355L870.153 350.946H870.413C871.737 348.893 873.697 347.866 876.295 347.866C878.744 347.866 880.661 348.812 882.047 350.705C883.432 352.598 884.125 355.226 884.125 358.591C884.125 360.805 883.797 362.729 883.142 364.361C882.498 365.994 881.577 367.237 880.377 368.091C879.177 368.944 877.767 369.371 876.146 369.371ZM874.477 352.394C873.079 352.394 872.058 352.826 871.415 353.692C870.772 354.546 870.438 355.962 870.413 357.941V358.554C870.413 360.78 870.741 362.376 871.396 363.341C872.064 364.306 873.116 364.788 874.551 364.788C877.087 364.788 878.354 362.698 878.354 358.517C878.354 356.476 878.039 354.948 877.408 353.934C876.79 352.907 875.812 352.394 874.477 352.394ZM897.392 351.893C896.192 351.893 895.252 352.276 894.571 353.043C893.891 353.798 893.501 354.874 893.402 356.271H901.344C901.319 354.874 900.954 353.798 900.249 353.043C899.544 352.276 898.591 351.893 897.392 351.893ZM898.189 369.371C894.85 369.371 892.24 368.45 890.359 366.606C888.479 364.763 887.539 362.153 887.539 358.776C887.539 355.3 888.405 352.616 890.137 350.724C891.881 348.819 894.287 347.866 897.354 347.866C900.286 347.866 902.568 348.701 904.201 350.371C905.834 352.041 906.65 354.348 906.65 357.292V360.038H893.272C893.334 361.646 893.811 362.902 894.701 363.805C895.592 364.708 896.841 365.159 898.449 365.159C899.699 365.159 900.88 365.029 901.993 364.77C903.106 364.51 904.269 364.095 905.481 363.526V367.905C904.492 368.4 903.434 368.765 902.309 369C901.183 369.247 899.81 369.371 898.189 369.371ZM924.24 364.862V352.505H919.991C919.682 354.806 919.255 356.989 918.711 359.055C918.179 361.12 917.437 363.056 916.484 364.862H924.24ZM932.942 376.44H927.858V369H913.905V376.44H908.821V364.862H910.565C911.753 363.019 912.749 360.694 913.553 357.886C914.357 355.078 914.92 351.868 915.241 348.256H929.899V364.862H932.942V376.44ZM949.66 369L948.565 366.18H948.417C947.465 367.38 946.481 368.215 945.467 368.685C944.465 369.142 943.154 369.371 941.533 369.371C939.542 369.371 937.971 368.802 936.82 367.664C935.682 366.526 935.113 364.906 935.113 362.803C935.113 360.601 935.88 358.98 937.414 357.941C938.96 356.89 941.286 356.309 944.391 356.197L947.99 356.086V355.177C947.99 353.074 946.914 352.022 944.762 352.022C943.104 352.022 941.156 352.523 938.917 353.525L937.043 349.703C939.43 348.454 942.077 347.829 944.984 347.829C947.768 347.829 949.901 348.435 951.386 349.647C952.87 350.86 953.612 352.703 953.612 355.177V369H949.66ZM947.99 359.389L945.801 359.463C944.156 359.512 942.931 359.809 942.127 360.354C941.323 360.898 940.921 361.727 940.921 362.84C940.921 364.436 941.836 365.233 943.667 365.233C944.978 365.233 946.023 364.856 946.803 364.102C947.594 363.347 947.99 362.345 947.99 361.096V359.389Z" fill="white"/>
<path d="M529.816 326.281C536.278 326.281 541.535 320.27 541.535 313C541.535 307.27 538.266 303.946 538.099 303.65C538.183 303.186 538.605 301.771 538.605 299.816C538.605 293.355 534.663 288 529.816 288C524.97 288 520.93 293.355 520.93 299.816C520.93 301.768 521.355 303.2 521.436 303.65C521.271 303.943 518 307.165 518 313C518 320.27 523.355 326.281 529.816 326.281Z" fill="white"/>
<path d="M519.465 338H566.535C567.345 338 568 337.345 568 336.535C568 335.726 567.345 335.07 566.535 335.07H565.07V332.141H566.535C567.345 332.141 568 331.485 568 330.676C568 329.866 567.345 329.211 566.535 329.211H565.07V324.816C565.07 324.007 564.415 323.352 563.605 323.352H554.719C553.909 323.352 553.254 324.007 553.254 324.816V329.211H551.789C550.98 329.211 550.324 329.866 550.324 330.676C550.324 331.485 550.98 332.141 551.789 332.141H553.254V335.07H547.395V328.886C546.448 329.098 545.468 329.211 544.465 329.211C543.477 329.211 542.5 329.087 541.535 328.863V335.07H532.746V328.886C531.799 329.098 530.82 329.211 529.816 329.211C528.813 329.211 527.834 329.098 526.887 328.886V335.07H519.465C518.655 335.07 518 335.726 518 336.535C518 337.345 518.655 338 519.465 338ZM556.184 332.141H562.141V335.07H556.184V332.141Z" fill="white"/>
<path d="M541.242 302.954C543.893 306.716 544.465 310.437 544.465 313C544.465 317.746 542.578 322.104 539.6 325.056C541.086 325.824 542.725 326.281 544.465 326.281C550.927 326.281 556.184 320.27 556.184 313C556.184 307.165 552.913 303.943 552.747 303.65C552.829 303.2 553.254 301.768 553.254 299.816C553.254 293.355 549.311 288 544.465 288C542.369 288 540.467 289.024 538.955 290.663C540.545 293.164 541.535 296.382 541.535 299.816C541.535 301.081 541.389 302.158 541.242 302.954Z" fill="white"/>
<path d="M695.578 433.164H686.25V428.992H695.578V419.43H699.797V428.992H709.148V433.164H699.797V442.68H695.578V433.164ZM729.703 448H724.195V425.875C724.195 423.234 724.258 421.141 724.383 419.594C724.023 419.969 723.578 420.383 723.047 420.836C722.531 421.289 720.781 422.727 717.797 425.148L715.031 421.656L725.109 413.734H729.703V448ZM752.531 413.289C755.781 413.289 758.352 414.039 760.242 415.539C762.133 417.023 763.078 419.016 763.078 421.516C763.078 425.031 760.969 427.828 756.75 429.906C759.438 431.25 761.344 432.664 762.469 434.148C763.609 435.633 764.18 437.289 764.18 439.117C764.18 441.945 763.141 444.211 761.062 445.914C758.984 447.617 756.172 448.469 752.625 448.469C748.906 448.469 746.023 447.672 743.977 446.078C741.93 444.484 740.906 442.227 740.906 439.305C740.906 437.398 741.438 435.688 742.5 434.172C743.578 432.641 745.336 431.281 747.773 430.094C745.68 428.844 744.188 427.523 743.297 426.133C742.406 424.742 741.961 423.18 741.961 421.445C741.961 418.961 742.938 416.984 744.891 415.516C746.844 414.031 749.391 413.289 752.531 413.289ZM746.18 439.117C746.18 440.742 746.75 442.008 747.891 442.914C749.031 443.805 750.578 444.25 752.531 444.25C754.547 444.25 756.109 443.789 757.219 442.867C758.344 441.93 758.906 440.664 758.906 439.07C758.906 437.805 758.391 436.648 757.359 435.602C756.328 434.555 754.766 433.586 752.672 432.695L751.992 432.391C749.93 433.297 748.445 434.297 747.539 435.391C746.633 436.469 746.18 437.711 746.18 439.117ZM752.484 417.531C750.922 417.531 749.664 417.922 748.711 418.703C747.758 419.469 747.281 420.516 747.281 421.844C747.281 422.656 747.453 423.383 747.797 424.023C748.141 424.664 748.641 425.25 749.297 425.781C749.953 426.297 751.062 426.922 752.625 427.656C754.5 426.828 755.82 425.961 756.586 425.055C757.367 424.133 757.758 423.062 757.758 421.844C757.758 420.516 757.273 419.469 756.305 418.703C755.352 417.922 754.078 417.531 752.484 417.531ZM791.602 430.867C791.602 436.82 790.641 441.242 788.719 444.133C786.812 447.023 783.891 448.469 779.953 448.469C776.141 448.469 773.25 446.977 771.281 443.992C769.312 441.008 768.328 436.633 768.328 430.867C768.328 424.82 769.281 420.367 771.188 417.508C773.109 414.633 776.031 413.195 779.953 413.195C783.781 413.195 786.68 414.695 788.648 417.695C790.617 420.695 791.602 425.086 791.602 430.867ZM773.906 430.867C773.906 435.539 774.383 438.875 775.336 440.875C776.305 442.875 777.844 443.875 779.953 443.875C782.062 443.875 783.602 442.859 784.57 440.828C785.555 438.797 786.047 435.477 786.047 430.867C786.047 426.273 785.555 422.953 784.57 420.906C783.602 418.844 782.062 417.812 779.953 417.812C777.844 417.812 776.305 418.82 775.336 420.836C774.383 422.852 773.906 426.195 773.906 430.867ZM800.227 424C800.227 426.328 800.453 428.062 800.906 429.203C801.359 430.344 802.102 430.914 803.133 430.914C805.195 430.914 806.227 428.609 806.227 424C806.227 419.391 805.195 417.086 803.133 417.086C802.102 417.086 801.359 417.656 800.906 418.797C800.453 419.938 800.227 421.672 800.227 424ZM810.773 423.953C810.773 427.547 810.125 430.25 808.828 432.062C807.547 433.859 805.648 434.758 803.133 434.758C800.758 434.758 798.914 433.828 797.602 431.969C796.305 430.094 795.656 427.422 795.656 423.953C795.656 416.812 798.148 413.242 803.133 413.242C805.586 413.242 807.469 414.172 808.781 416.031C810.109 417.875 810.773 420.516 810.773 423.953ZM822.539 437.688C822.539 440.016 822.766 441.758 823.219 442.914C823.688 444.07 824.438 444.648 825.469 444.648C827.516 444.648 828.539 442.328 828.539 437.688C828.539 433.109 827.516 430.82 825.469 430.82C824.438 430.82 823.688 431.383 823.219 432.508C822.766 433.633 822.539 435.359 822.539 437.688ZM833.086 437.688C833.086 441.281 832.438 443.977 831.141 445.773C829.844 447.57 827.953 448.469 825.469 448.469C823.094 448.469 821.25 447.547 819.938 445.703C818.625 443.844 817.969 441.172 817.969 437.688C817.969 430.547 820.469 426.977 825.469 426.977C827.875 426.977 829.742 427.898 831.07 429.742C832.414 431.586 833.086 434.234 833.086 437.688ZM826.125 413.734L807.117 448H802.57L821.578 413.734H826.125Z" fill="#FF0000"/>
<path d="M653.5 424L668 448H639L653.5 424Z" fill="#FF0000"/>
<path d="M633.947 936H617.055V933.486L623.822 926.684C625.885 924.598 627.244 923.109 627.9 922.219C628.557 921.328 629.049 920.461 629.377 919.617C629.705 918.773 629.869 917.865 629.869 916.893C629.869 915.521 629.453 914.438 628.621 913.641C627.789 912.832 626.635 912.428 625.158 912.428C624.092 912.428 623.078 912.604 622.117 912.955C621.168 913.307 620.107 913.945 618.936 914.871L617.389 912.885C619.756 910.916 622.334 909.932 625.123 909.932C627.537 909.932 629.43 910.553 630.801 911.795C632.172 913.025 632.857 914.684 632.857 916.77C632.857 918.398 632.4 920.01 631.486 921.604C630.572 923.197 628.861 925.213 626.354 927.65L620.729 933.152V933.293H633.947V936ZM654.689 923.115C654.689 927.557 653.986 930.873 652.58 933.064C651.186 935.256 649.047 936.352 646.164 936.352C643.398 936.352 641.295 935.232 639.854 932.994C638.412 930.744 637.691 927.451 637.691 923.115C637.691 918.639 638.389 915.316 639.783 913.148C641.178 910.98 643.305 909.896 646.164 909.896C648.953 909.896 651.068 911.027 652.51 913.289C653.963 915.551 654.689 918.826 654.689 923.115ZM640.645 923.115C640.645 926.854 641.084 929.578 641.963 931.289C642.842 932.988 644.242 933.838 646.164 933.838C648.109 933.838 649.516 932.977 650.383 931.254C651.262 929.52 651.701 926.807 651.701 923.115C651.701 919.424 651.262 916.723 650.383 915.012C649.516 913.289 648.109 912.428 646.164 912.428C644.242 912.428 642.842 913.277 641.963 914.977C641.084 916.664 640.645 919.377 640.645 923.115ZM669.068 936H666.221V917.684C666.221 916.16 666.268 914.719 666.361 913.359C666.115 913.605 665.84 913.863 665.535 914.133C665.23 914.402 663.836 915.545 661.352 917.561L659.805 915.557L666.607 910.301H669.068V936ZM695.752 921.27C695.752 931.324 691.861 936.352 684.08 936.352C682.721 936.352 681.643 936.234 680.846 936V933.486C681.783 933.791 682.85 933.943 684.045 933.943C686.857 933.943 688.979 933.076 690.408 931.342C691.85 929.596 692.635 926.924 692.764 923.326H692.553C691.908 924.299 691.053 925.043 689.986 925.559C688.92 926.062 687.719 926.314 686.383 926.314C684.109 926.314 682.305 925.635 680.969 924.275C679.633 922.916 678.965 921.018 678.965 918.58C678.965 915.908 679.709 913.799 681.197 912.252C682.697 910.705 684.666 909.932 687.104 909.932C688.85 909.932 690.373 910.383 691.674 911.285C692.986 912.176 693.994 913.482 694.697 915.205C695.4 916.916 695.752 918.938 695.752 921.27ZM687.104 912.428C685.428 912.428 684.133 912.967 683.219 914.045C682.305 915.123 681.848 916.623 681.848 918.545C681.848 920.232 682.27 921.562 683.113 922.535C683.957 923.496 685.24 923.977 686.963 923.977C688.029 923.977 689.008 923.76 689.898 923.326C690.801 922.893 691.51 922.301 692.025 921.551C692.541 920.801 692.799 920.016 692.799 919.195C692.799 917.965 692.559 916.828 692.078 915.785C691.598 914.742 690.924 913.922 690.057 913.324C689.201 912.727 688.217 912.428 687.104 912.428Z" fill="white"/>
<path d="M796.947 936H780.055V933.486L786.822 926.684C788.885 924.598 790.244 923.109 790.9 922.219C791.557 921.328 792.049 920.461 792.377 919.617C792.705 918.773 792.869 917.865 792.869 916.893C792.869 915.521 792.453 914.438 791.621 913.641C790.789 912.832 789.635 912.428 788.158 912.428C787.092 912.428 786.078 912.604 785.117 912.955C784.168 913.307 783.107 913.945 781.936 914.871L780.389 912.885C782.756 910.916 785.334 909.932 788.123 909.932C790.537 909.932 792.43 910.553 793.801 911.795C795.172 913.025 795.857 914.684 795.857 916.77C795.857 918.398 795.4 920.01 794.486 921.604C793.572 923.197 791.861 925.213 789.354 927.65L783.729 933.152V933.293H796.947V936ZM817.689 923.115C817.689 927.557 816.986 930.873 815.58 933.064C814.186 935.256 812.047 936.352 809.164 936.352C806.398 936.352 804.295 935.232 802.854 932.994C801.412 930.744 800.691 927.451 800.691 923.115C800.691 918.639 801.389 915.316 802.783 913.148C804.178 910.98 806.305 909.896 809.164 909.896C811.953 909.896 814.068 911.027 815.51 913.289C816.963 915.551 817.689 918.826 817.689 923.115ZM803.645 923.115C803.645 926.854 804.084 929.578 804.963 931.289C805.842 932.988 807.242 933.838 809.164 933.838C811.109 933.838 812.516 932.977 813.383 931.254C814.262 929.52 814.701 926.807 814.701 923.115C814.701 919.424 814.262 916.723 813.383 915.012C812.516 913.289 811.109 912.428 809.164 912.428C807.242 912.428 805.842 913.277 804.963 914.977C804.084 916.664 803.645 919.377 803.645 923.115ZM838.15 936H821.258V933.486L828.025 926.684C830.088 924.598 831.447 923.109 832.104 922.219C832.76 921.328 833.252 920.461 833.58 919.617C833.908 918.773 834.072 917.865 834.072 916.893C834.072 915.521 833.656 914.438 832.824 913.641C831.992 912.832 830.838 912.428 829.361 912.428C828.295 912.428 827.281 912.604 826.32 912.955C825.371 913.307 824.311 913.945 823.139 914.871L821.592 912.885C823.959 910.916 826.537 909.932 829.326 909.932C831.74 909.932 833.633 910.553 835.004 911.795C836.375 913.025 837.061 914.684 837.061 916.77C837.061 918.398 836.604 920.01 835.689 921.604C834.775 923.197 833.064 925.213 830.557 927.65L824.932 933.152V933.293H838.15V936ZM858.893 923.115C858.893 927.557 858.189 930.873 856.783 933.064C855.389 935.256 853.25 936.352 850.367 936.352C847.602 936.352 845.498 935.232 844.057 932.994C842.615 930.744 841.895 927.451 841.895 923.115C841.895 918.639 842.592 915.316 843.986 913.148C845.381 910.98 847.508 909.896 850.367 909.896C853.156 909.896 855.271 911.027 856.713 913.289C858.166 915.551 858.893 918.826 858.893 923.115ZM844.848 923.115C844.848 926.854 845.287 929.578 846.166 931.289C847.045 932.988 848.445 933.838 850.367 933.838C852.312 933.838 853.719 932.977 854.586 931.254C855.465 929.52 855.904 926.807 855.904 923.115C855.904 919.424 855.465 916.723 854.586 915.012C853.719 913.289 852.312 912.428 850.367 912.428C848.445 912.428 847.045 913.277 846.166 914.977C845.287 916.664 844.848 919.377 844.848 923.115Z" fill="white"/>
<rect x="574" y="757" width="164" height="117" fill="#01F859"/>
<path d="M654.336 849H631.109V844.828L639.945 835.945C642.555 833.273 644.281 831.383 645.125 830.273C645.984 829.148 646.609 828.094 647 827.109C647.391 826.125 647.586 825.07 647.586 823.945C647.586 822.398 647.117 821.18 646.18 820.289C645.258 819.398 643.977 818.953 642.336 818.953C641.023 818.953 639.75 819.195 638.516 819.68C637.297 820.164 635.883 821.039 634.273 822.305L631.297 818.672C633.203 817.062 635.055 815.922 636.852 815.25C638.648 814.578 640.562 814.242 642.594 814.242C645.781 814.242 648.336 815.078 650.258 816.75C652.18 818.406 653.141 820.641 653.141 823.453C653.141 825 652.859 826.469 652.297 827.859C651.75 829.25 650.898 830.688 649.742 832.172C648.602 833.641 646.695 835.633 644.023 838.148L638.07 843.914V844.148H654.336V849ZM681.758 831.867C681.758 837.82 680.797 842.242 678.875 845.133C676.969 848.023 674.047 849.469 670.109 849.469C666.297 849.469 663.406 847.977 661.438 844.992C659.469 842.008 658.484 837.633 658.484 831.867C658.484 825.82 659.438 821.367 661.344 818.508C663.266 815.633 666.188 814.195 670.109 814.195C673.938 814.195 676.836 815.695 678.805 818.695C680.773 821.695 681.758 826.086 681.758 831.867ZM664.062 831.867C664.062 836.539 664.539 839.875 665.492 841.875C666.461 843.875 668 844.875 670.109 844.875C672.219 844.875 673.758 843.859 674.727 841.828C675.711 839.797 676.203 836.477 676.203 831.867C676.203 827.273 675.711 823.953 674.727 821.906C673.758 819.844 672.219 818.812 670.109 818.812C668 818.812 666.461 819.82 665.492 821.836C664.539 823.852 664.062 827.195 664.062 831.867Z" fill="#019535"/>
<rect x="738" y="622" width="163" height="252" fill="#D40000"/>
<path d="M816.047 822.609C816.047 824.781 815.414 826.594 814.148 828.047C812.883 829.484 811.102 830.453 808.805 830.953V831.141C811.555 831.484 813.617 832.344 814.992 833.719C816.367 835.078 817.055 836.891 817.055 839.156C817.055 842.453 815.891 845 813.562 846.797C811.234 848.578 807.922 849.469 803.625 849.469C799.828 849.469 796.625 848.852 794.016 847.617V842.719C795.469 843.438 797.008 843.992 798.633 844.383C800.258 844.773 801.82 844.969 803.32 844.969C805.977 844.969 807.961 844.477 809.273 843.492C810.586 842.508 811.242 840.984 811.242 838.922C811.242 837.094 810.516 835.75 809.062 834.891C807.609 834.031 805.328 833.602 802.219 833.602H799.242V829.125H802.266C807.734 829.125 810.469 827.234 810.469 823.453C810.469 821.984 809.992 820.852 809.039 820.055C808.086 819.258 806.68 818.859 804.82 818.859C803.523 818.859 802.273 819.047 801.07 819.422C799.867 819.781 798.445 820.492 796.805 821.555L794.109 817.711C797.25 815.398 800.898 814.242 805.055 814.242C808.508 814.242 811.203 814.984 813.141 816.469C815.078 817.953 816.047 820 816.047 822.609ZM821.625 834.398C821.625 820.992 827.086 814.289 838.008 814.289C839.727 814.289 841.18 814.422 842.367 814.688V819.281C841.18 818.938 839.805 818.766 838.242 818.766C834.57 818.766 831.812 819.75 829.969 821.719C828.125 823.688 827.125 826.844 826.969 831.188H827.25C827.984 829.922 829.016 828.945 830.344 828.258C831.672 827.555 833.234 827.203 835.031 827.203C838.141 827.203 840.562 828.156 842.297 830.062C844.031 831.969 844.898 834.555 844.898 837.82C844.898 841.414 843.891 844.258 841.875 846.352C839.875 848.43 837.141 849.469 833.672 849.469C831.219 849.469 829.086 848.883 827.273 847.711C825.461 846.523 824.062 844.805 823.078 842.555C822.109 840.289 821.625 837.57 821.625 834.398ZM833.578 844.922C835.469 844.922 836.922 844.312 837.938 843.094C838.969 841.875 839.484 840.133 839.484 837.867C839.484 835.898 839 834.352 838.031 833.227C837.078 832.102 835.641 831.539 833.719 831.539C832.531 831.539 831.438 831.797 830.438 832.312C829.438 832.812 828.648 833.508 828.07 834.398C827.492 835.273 827.203 836.172 827.203 837.094C827.203 839.297 827.797 841.156 828.984 842.672C830.188 844.172 831.719 844.922 833.578 844.922Z" fill="#7A0101"/>
<path d="M1244.15 306.219C1244.15 307.963 1243.54 309.404 1242.3 310.542C1241.06 311.68 1239.39 312.404 1237.27 312.713V312.824C1239.76 313.072 1241.66 313.758 1242.99 314.884C1244.32 316.009 1244.99 317.475 1244.99 319.281C1244.99 321.78 1243.97 323.753 1241.95 325.2C1239.93 326.647 1237.13 327.371 1233.56 327.371C1229.58 327.371 1226.38 326.882 1223.97 325.905V321.081C1225.13 321.638 1226.49 322.077 1228.05 322.398C1229.62 322.708 1231.09 322.862 1232.45 322.862C1237.01 322.862 1239.29 321.533 1239.29 318.873C1239.29 317.673 1238.56 316.752 1237.08 316.108C1235.63 315.465 1233.46 315.144 1230.59 315.144H1228.05V310.653H1230.33C1233.2 310.653 1235.29 310.381 1236.6 309.837C1237.91 309.293 1238.57 308.39 1238.57 307.128C1238.57 306.2 1238.15 305.464 1237.33 304.92C1236.51 304.363 1235.28 304.085 1233.63 304.085C1231.09 304.085 1228.62 304.821 1226.25 306.293L1223.74 302.452C1225.29 301.425 1226.93 300.677 1228.66 300.207C1230.39 299.725 1232.32 299.483 1234.43 299.483C1237.39 299.483 1239.74 300.102 1241.5 301.339C1243.27 302.576 1244.15 304.202 1244.15 306.219ZM1262.6 322.862V310.505H1258.35C1258.04 312.806 1257.61 314.989 1257.07 317.055C1256.54 319.12 1255.79 321.056 1254.84 322.862H1262.6ZM1271.3 334.44H1266.22V327H1252.26V334.44H1247.18V322.862H1248.92C1250.11 321.019 1251.11 318.694 1251.91 315.886C1252.71 313.078 1253.28 309.868 1253.6 306.256H1268.26V322.862H1271.3V334.44ZM1286.24 327.371C1283.8 327.371 1281.89 326.487 1280.5 324.718H1280.21C1280.4 326.45 1280.5 327.451 1280.5 327.724V336.129H1274.84V306.256H1279.45L1280.24 308.946H1280.5C1281.83 306.893 1283.79 305.866 1286.38 305.866C1288.83 305.866 1290.75 306.812 1292.14 308.705C1293.52 310.598 1294.21 313.226 1294.21 316.591C1294.21 318.805 1293.89 320.729 1293.23 322.361C1292.59 323.994 1291.67 325.237 1290.47 326.091C1289.27 326.944 1287.86 327.371 1286.24 327.371ZM1284.57 310.394C1283.17 310.394 1282.15 310.826 1281.5 311.692C1280.86 312.546 1280.53 313.962 1280.5 315.941V316.554C1280.5 318.78 1280.83 320.376 1281.49 321.341C1282.15 322.306 1283.21 322.788 1284.64 322.788C1287.18 322.788 1288.44 320.698 1288.44 316.517C1288.44 314.476 1288.13 312.948 1287.5 311.934C1286.88 310.907 1285.9 310.394 1284.57 310.394ZM1312.06 327L1310.97 324.18H1310.82C1309.87 325.38 1308.89 326.215 1307.87 326.685C1306.87 327.142 1305.56 327.371 1303.94 327.371C1301.95 327.371 1300.38 326.802 1299.22 325.664C1298.09 324.526 1297.52 322.906 1297.52 320.803C1297.52 318.601 1298.28 316.98 1299.82 315.941C1301.36 314.89 1303.69 314.309 1306.79 314.197L1310.39 314.086V313.177C1310.39 311.074 1309.32 310.022 1307.17 310.022C1305.51 310.022 1303.56 310.523 1301.32 311.525L1299.45 307.703C1301.83 306.454 1304.48 305.829 1307.39 305.829C1310.17 305.829 1312.31 306.435 1313.79 307.647C1315.27 308.86 1316.02 310.703 1316.02 313.177V327H1312.06ZM1310.39 317.389L1308.21 317.463C1306.56 317.512 1305.34 317.809 1304.53 318.354C1303.73 318.898 1303.33 319.727 1303.33 320.84C1303.33 322.436 1304.24 323.233 1306.07 323.233C1307.38 323.233 1308.43 322.856 1309.21 322.102C1310 321.347 1310.39 320.345 1310.39 319.096V317.389ZM1341.01 311.692C1341.01 312.806 1340.66 313.758 1339.95 314.55C1339.26 315.329 1338.23 315.83 1336.87 316.053V316.201C1338.34 316.374 1339.51 316.882 1340.36 317.723C1341.23 318.551 1341.66 319.578 1341.66 320.803C1341.66 322.819 1340.87 324.359 1339.28 325.423C1337.7 326.474 1335.44 327 1332.49 327H1321.86V306.256H1332.49C1335.34 306.256 1337.47 306.72 1338.88 307.647C1340.3 308.563 1341.01 309.911 1341.01 311.692ZM1335.8 320.506C1335.8 319.689 1335.48 319.102 1334.85 318.743C1334.22 318.372 1333.27 318.187 1332.01 318.187H1327.52V323.085H1332.12C1333.32 323.085 1334.23 322.862 1334.85 322.417C1335.48 321.959 1335.8 321.322 1335.8 320.506ZM1335.28 312.138C1335.28 310.876 1334.27 310.245 1332.27 310.245H1327.52V314.346H1331.62C1332.82 314.346 1333.73 314.173 1334.35 313.826C1334.97 313.48 1335.28 312.917 1335.28 312.138ZM1350.68 316.591C1350.68 318.644 1351.01 320.197 1351.68 321.248C1352.36 322.299 1353.46 322.825 1354.98 322.825C1356.49 322.825 1357.57 322.306 1358.23 321.267C1358.9 320.215 1359.23 318.657 1359.23 316.591C1359.23 314.537 1358.9 312.997 1358.23 311.971C1357.56 310.944 1356.47 310.431 1354.94 310.431C1353.44 310.431 1352.35 310.944 1351.68 311.971C1351.01 312.985 1350.68 314.525 1350.68 316.591ZM1365.02 316.591C1365.02 319.968 1364.13 322.609 1362.35 324.514C1360.57 326.419 1358.09 327.371 1354.91 327.371C1352.92 327.371 1351.16 326.938 1349.64 326.072C1348.12 325.194 1346.95 323.938 1346.13 322.306C1345.31 320.673 1344.91 318.768 1344.91 316.591C1344.91 313.201 1345.79 310.567 1347.56 308.687C1349.33 306.806 1351.81 305.866 1355.02 305.866C1357.01 305.866 1358.77 306.299 1360.29 307.165C1361.81 308.031 1362.98 309.274 1363.79 310.895C1364.61 312.515 1365.02 314.414 1365.02 316.591ZM1374.2 316.591C1374.2 318.644 1374.54 320.197 1375.21 321.248C1375.89 322.299 1376.99 322.825 1378.51 322.825C1380.02 322.825 1381.1 322.306 1381.76 321.267C1382.42 320.215 1382.76 318.657 1382.76 316.591C1382.76 314.537 1382.42 312.997 1381.76 311.971C1381.09 310.944 1379.99 310.431 1378.47 310.431C1376.96 310.431 1375.87 310.944 1375.21 311.971C1374.54 312.985 1374.2 314.525 1374.2 316.591ZM1388.55 316.591C1388.55 319.968 1387.66 322.609 1385.88 324.514C1384.09 326.419 1381.61 327.371 1378.43 327.371C1376.44 327.371 1374.69 326.938 1373.17 326.072C1371.64 325.194 1370.47 323.938 1369.66 322.306C1368.84 320.673 1368.43 318.768 1368.43 316.591C1368.43 313.201 1369.32 310.567 1371.09 308.687C1372.86 306.806 1375.34 305.866 1378.55 305.866C1380.54 305.866 1382.29 306.299 1383.82 307.165C1385.34 308.031 1386.51 309.274 1387.32 310.895C1388.14 312.515 1388.55 314.414 1388.55 316.591ZM1397.47 316.405L1390.79 306.256H1397.21L1401.24 312.861L1405.3 306.256H1411.72L1404.97 316.405L1412.04 327H1405.6L1401.24 319.894L1396.86 327H1390.44L1397.47 316.405ZM1426.58 327.371C1424.15 327.371 1422.24 326.487 1420.85 324.718H1420.55C1420.75 326.45 1420.85 327.451 1420.85 327.724V336.129H1415.19V306.256H1419.79L1420.59 308.946H1420.85C1422.17 306.893 1424.13 305.866 1426.73 305.866C1429.18 305.866 1431.1 306.812 1432.48 308.705C1433.87 310.598 1434.56 313.226 1434.56 316.591C1434.56 318.805 1434.23 320.729 1433.58 322.361C1432.94 323.994 1432.01 325.237 1430.81 326.091C1429.61 326.944 1428.2 327.371 1426.58 327.371ZM1424.91 310.394C1423.52 310.394 1422.5 310.826 1421.85 311.692C1421.21 312.546 1420.88 313.962 1420.85 315.941V316.554C1420.85 318.78 1421.18 320.376 1421.83 321.341C1422.5 322.306 1423.55 322.788 1424.99 322.788C1427.52 322.788 1428.79 320.698 1428.79 316.517C1428.79 314.476 1428.48 312.948 1427.85 311.934C1427.23 310.907 1426.25 310.394 1424.91 310.394ZM1452.41 327L1451.32 324.18H1451.17C1450.22 325.38 1449.23 326.215 1448.22 326.685C1447.22 327.142 1445.91 327.371 1444.29 327.371C1442.29 327.371 1440.72 326.802 1439.57 325.664C1438.43 324.526 1437.87 322.906 1437.87 320.803C1437.87 318.601 1438.63 316.98 1440.17 315.941C1441.71 314.89 1444.04 314.309 1447.14 314.197L1450.74 314.086V313.177C1450.74 311.074 1449.67 310.022 1447.51 310.022C1445.86 310.022 1443.91 310.523 1441.67 311.525L1439.79 307.703C1442.18 306.454 1444.83 305.829 1447.74 305.829C1450.52 305.829 1452.65 306.435 1454.14 307.647C1455.62 308.86 1456.36 310.703 1456.36 313.177V327H1452.41ZM1450.74 317.389L1448.55 317.463C1446.91 317.512 1445.68 317.809 1444.88 318.354C1444.07 318.898 1443.67 319.727 1443.67 320.84C1443.67 322.436 1444.59 323.233 1446.42 323.233C1447.73 323.233 1448.78 322.856 1449.55 322.102C1450.35 321.347 1450.74 320.345 1450.74 319.096V317.389ZM1467.87 306.256V314.234H1475.77V306.256H1481.43V327H1475.77V318.446H1467.87V327H1462.21V306.256H1467.87ZM1495.96 309.893C1494.76 309.893 1493.82 310.276 1493.14 311.043C1492.46 311.798 1492.07 312.874 1491.97 314.271H1499.91C1499.89 312.874 1499.52 311.798 1498.82 311.043C1498.11 310.276 1497.16 309.893 1495.96 309.893ZM1496.76 327.371C1493.42 327.371 1490.81 326.45 1488.93 324.606C1487.05 322.763 1486.11 320.153 1486.11 316.776C1486.11 313.3 1486.97 310.616 1488.71 308.724C1490.45 306.819 1492.86 305.866 1495.92 305.866C1498.85 305.866 1501.14 306.701 1502.77 308.371C1504.4 310.041 1505.22 312.348 1505.22 315.292V318.038H1491.84C1491.9 319.646 1492.38 320.902 1493.27 321.805C1494.16 322.708 1495.41 323.159 1497.02 323.159C1498.27 323.159 1499.45 323.029 1500.56 322.77C1501.67 322.51 1502.84 322.095 1504.05 321.526V325.905C1503.06 326.4 1502 326.765 1500.88 327C1499.75 327.247 1498.38 327.371 1496.76 327.371ZM1515.48 306.256V314.234H1523.38V306.256H1529.04V327H1523.38V318.446H1515.48V327H1509.82V306.256H1515.48ZM1540.45 306.256V314.457C1540.45 315.323 1540.31 317.438 1540.03 320.803L1549.6 306.256H1556.41V327H1550.94V318.725C1550.94 317.253 1551.06 315.174 1551.31 312.49L1541.77 327H1534.98V306.256H1540.45ZM1570.96 309.893C1569.76 309.893 1568.82 310.276 1568.14 311.043C1567.46 311.798 1567.07 312.874 1566.97 314.271H1574.91C1574.89 312.874 1574.52 311.798 1573.82 311.043C1573.11 310.276 1572.16 309.893 1570.96 309.893ZM1571.76 327.371C1568.42 327.371 1565.81 326.45 1563.93 324.606C1562.05 322.763 1561.11 320.153 1561.11 316.776C1561.11 313.3 1561.97 310.616 1563.7 308.724C1565.45 306.819 1567.85 305.866 1570.92 305.866C1573.85 305.866 1576.13 306.701 1577.77 308.371C1579.4 310.041 1580.22 312.348 1580.22 315.292V318.038H1566.84C1566.9 319.646 1567.38 320.902 1568.27 321.805C1569.16 322.708 1570.41 323.159 1572.02 323.159C1573.26 323.159 1574.45 323.029 1575.56 322.77C1576.67 322.51 1577.84 322.095 1579.05 321.526V325.905C1578.06 326.4 1577 326.765 1575.88 327C1574.75 327.247 1573.38 327.371 1571.76 327.371Z" fill="white"/>
<path d="M1166.75 337H1179.25C1180.35 336.998 1181.41 336.559 1182.19 335.778C1182.98 334.997 1183.42 333.938 1183.42 332.833V322.417H1193.83C1194.94 322.415 1196 321.975 1196.78 321.194C1197.56 320.413 1198 319.355 1198 318.25V305.75C1198 304.645 1197.56 303.586 1196.78 302.805C1196 302.024 1194.94 301.584 1193.83 301.583H1183.42V291.167C1183.42 290.062 1182.98 289.003 1182.2 288.222C1181.41 287.44 1180.35 287.001 1179.25 287H1166.75C1165.65 287.001 1164.59 287.44 1163.8 288.222C1163.02 289.003 1162.58 290.062 1162.58 291.167V301.583H1152.17C1151.06 301.584 1150 302.024 1149.22 302.805C1148.44 303.586 1148 304.645 1148 305.75V318.25C1148 319.355 1148.44 320.414 1149.22 321.195C1150 321.976 1151.06 322.416 1152.17 322.417H1162.58V332.833C1162.58 333.938 1163.02 334.997 1163.8 335.778C1164.59 336.56 1165.65 336.999 1166.75 337Z" fill="white"/>
<path d="M1323.58 433.164H1314.25V428.992H1323.58V419.43H1327.8V428.992H1337.15V433.164H1327.8V442.68H1323.58V433.164ZM1357.7 448H1352.2V425.875C1352.2 423.234 1352.26 421.141 1352.38 419.594C1352.02 419.969 1351.58 420.383 1351.05 420.836C1350.53 421.289 1348.78 422.727 1345.8 425.148L1343.03 421.656L1353.11 413.734H1357.7V448ZM1380.53 413.289C1383.78 413.289 1386.35 414.039 1388.24 415.539C1390.13 417.023 1391.08 419.016 1391.08 421.516C1391.08 425.031 1388.97 427.828 1384.75 429.906C1387.44 431.25 1389.34 432.664 1390.47 434.148C1391.61 435.633 1392.18 437.289 1392.18 439.117C1392.18 441.945 1391.14 444.211 1389.06 445.914C1386.98 447.617 1384.17 448.469 1380.62 448.469C1376.91 448.469 1374.02 447.672 1371.98 446.078C1369.93 444.484 1368.91 442.227 1368.91 439.305C1368.91 437.398 1369.44 435.688 1370.5 434.172C1371.58 432.641 1373.34 431.281 1375.77 430.094C1373.68 428.844 1372.19 427.523 1371.3 426.133C1370.41 424.742 1369.96 423.18 1369.96 421.445C1369.96 418.961 1370.94 416.984 1372.89 415.516C1374.84 414.031 1377.39 413.289 1380.53 413.289ZM1374.18 439.117C1374.18 440.742 1374.75 442.008 1375.89 442.914C1377.03 443.805 1378.58 444.25 1380.53 444.25C1382.55 444.25 1384.11 443.789 1385.22 442.867C1386.34 441.93 1386.91 440.664 1386.91 439.07C1386.91 437.805 1386.39 436.648 1385.36 435.602C1384.33 434.555 1382.77 433.586 1380.67 432.695L1379.99 432.391C1377.93 433.297 1376.45 434.297 1375.54 435.391C1374.63 436.469 1374.18 437.711 1374.18 439.117ZM1380.48 417.531C1378.92 417.531 1377.66 417.922 1376.71 418.703C1375.76 419.469 1375.28 420.516 1375.28 421.844C1375.28 422.656 1375.45 423.383 1375.8 424.023C1376.14 424.664 1376.64 425.25 1377.3 425.781C1377.95 426.297 1379.06 426.922 1380.62 427.656C1382.5 426.828 1383.82 425.961 1384.59 425.055C1385.37 424.133 1385.76 423.062 1385.76 421.844C1385.76 420.516 1385.27 419.469 1384.3 418.703C1383.35 417.922 1382.08 417.531 1380.48 417.531ZM1419.6 430.867C1419.6 436.82 1418.64 441.242 1416.72 444.133C1414.81 447.023 1411.89 448.469 1407.95 448.469C1404.14 448.469 1401.25 446.977 1399.28 443.992C1397.31 441.008 1396.33 436.633 1396.33 430.867C1396.33 424.82 1397.28 420.367 1399.19 417.508C1401.11 414.633 1404.03 413.195 1407.95 413.195C1411.78 413.195 1414.68 414.695 1416.65 417.695C1418.62 420.695 1419.6 425.086 1419.6 430.867ZM1401.91 430.867C1401.91 435.539 1402.38 438.875 1403.34 440.875C1404.3 442.875 1405.84 443.875 1407.95 443.875C1410.06 443.875 1411.6 442.859 1412.57 440.828C1413.55 438.797 1414.05 435.477 1414.05 430.867C1414.05 426.273 1413.55 422.953 1412.57 420.906C1411.6 418.844 1410.06 417.812 1407.95 417.812C1405.84 417.812 1404.3 418.82 1403.34 420.836C1402.38 422.852 1401.91 426.195 1401.91 430.867ZM1428.23 424C1428.23 426.328 1428.45 428.062 1428.91 429.203C1429.36 430.344 1430.1 430.914 1431.13 430.914C1433.2 430.914 1434.23 428.609 1434.23 424C1434.23 419.391 1433.2 417.086 1431.13 417.086C1430.1 417.086 1429.36 417.656 1428.91 418.797C1428.45 419.938 1428.23 421.672 1428.23 424ZM1438.77 423.953C1438.77 427.547 1438.12 430.25 1436.83 432.062C1435.55 433.859 1433.65 434.758 1431.13 434.758C1428.76 434.758 1426.91 433.828 1425.6 431.969C1424.3 430.094 1423.66 427.422 1423.66 423.953C1423.66 416.812 1426.15 413.242 1431.13 413.242C1433.59 413.242 1435.47 414.172 1436.78 416.031C1438.11 417.875 1438.77 420.516 1438.77 423.953ZM1450.54 437.688C1450.54 440.016 1450.77 441.758 1451.22 442.914C1451.69 444.07 1452.44 444.648 1453.47 444.648C1455.52 444.648 1456.54 442.328 1456.54 437.688C1456.54 433.109 1455.52 430.82 1453.47 430.82C1452.44 430.82 1451.69 431.383 1451.22 432.508C1450.77 433.633 1450.54 435.359 1450.54 437.688ZM1461.09 437.688C1461.09 441.281 1460.44 443.977 1459.14 445.773C1457.84 447.57 1455.95 448.469 1453.47 448.469C1451.09 448.469 1449.25 447.547 1447.94 445.703C1446.62 443.844 1445.97 441.172 1445.97 437.688C1445.97 430.547 1448.47 426.977 1453.47 426.977C1455.88 426.977 1457.74 427.898 1459.07 429.742C1460.41 431.586 1461.09 434.234 1461.09 437.688ZM1454.12 413.734L1435.12 448H1430.57L1449.58 413.734H1454.12Z" fill="#FF0000"/>
<path d="M1281.5 424L1296 448H1267L1281.5 424Z" fill="#FF0000"/>
<path d="M1261.95 936H1245.05V933.486L1251.82 926.684C1253.88 924.598 1255.24 923.109 1255.9 922.219C1256.56 921.328 1257.05 920.461 1257.38 919.617C1257.71 918.773 1257.87 917.865 1257.87 916.893C1257.87 915.521 1257.45 914.438 1256.62 913.641C1255.79 912.832 1254.63 912.428 1253.16 912.428C1252.09 912.428 1251.08 912.604 1250.12 912.955C1249.17 913.307 1248.11 913.945 1246.94 914.871L1245.39 912.885C1247.76 910.916 1250.33 909.932 1253.12 909.932C1255.54 909.932 1257.43 910.553 1258.8 911.795C1260.17 913.025 1260.86 914.684 1260.86 916.77C1260.86 918.398 1260.4 920.01 1259.49 921.604C1258.57 923.197 1256.86 925.213 1254.35 927.65L1248.73 933.152V933.293H1261.95V936ZM1282.69 923.115C1282.69 927.557 1281.99 930.873 1280.58 933.064C1279.19 935.256 1277.05 936.352 1274.16 936.352C1271.4 936.352 1269.29 935.232 1267.85 932.994C1266.41 930.744 1265.69 927.451 1265.69 923.115C1265.69 918.639 1266.39 915.316 1267.78 913.148C1269.18 910.98 1271.3 909.896 1274.16 909.896C1276.95 909.896 1279.07 911.027 1280.51 913.289C1281.96 915.551 1282.69 918.826 1282.69 923.115ZM1268.64 923.115C1268.64 926.854 1269.08 929.578 1269.96 931.289C1270.84 932.988 1272.24 933.838 1274.16 933.838C1276.11 933.838 1277.52 932.977 1278.38 931.254C1279.26 929.52 1279.7 926.807 1279.7 923.115C1279.7 919.424 1279.26 916.723 1278.38 915.012C1277.52 913.289 1276.11 912.428 1274.16 912.428C1272.24 912.428 1270.84 913.277 1269.96 914.977C1269.08 916.664 1268.64 919.377 1268.64 923.115ZM1297.07 936H1294.22V917.684C1294.22 916.16 1294.27 914.719 1294.36 913.359C1294.12 913.605 1293.84 913.863 1293.54 914.133C1293.23 914.402 1291.84 915.545 1289.35 917.561L1287.8 915.557L1294.61 910.301H1297.07V936ZM1323.75 921.27C1323.75 931.324 1319.86 936.352 1312.08 936.352C1310.72 936.352 1309.64 936.234 1308.85 936V933.486C1309.78 933.791 1310.85 933.943 1312.04 933.943C1314.86 933.943 1316.98 933.076 1318.41 931.342C1319.85 929.596 1320.63 926.924 1320.76 923.326H1320.55C1319.91 924.299 1319.05 925.043 1317.99 925.559C1316.92 926.062 1315.72 926.314 1314.38 926.314C1312.11 926.314 1310.3 925.635 1308.97 924.275C1307.63 922.916 1306.96 921.018 1306.96 918.58C1306.96 915.908 1307.71 913.799 1309.2 912.252C1310.7 910.705 1312.67 909.932 1315.1 909.932C1316.85 909.932 1318.37 910.383 1319.67 911.285C1320.99 912.176 1321.99 913.482 1322.7 915.205C1323.4 916.916 1323.75 918.938 1323.75 921.27ZM1315.1 912.428C1313.43 912.428 1312.13 912.967 1311.22 914.045C1310.3 915.123 1309.85 916.623 1309.85 918.545C1309.85 920.232 1310.27 921.562 1311.11 922.535C1311.96 923.496 1313.24 923.977 1314.96 923.977C1316.03 923.977 1317.01 923.76 1317.9 923.326C1318.8 922.893 1319.51 922.301 1320.03 921.551C1320.54 920.801 1320.8 920.016 1320.8 919.195C1320.8 917.965 1320.56 916.828 1320.08 915.785C1319.6 914.742 1318.92 913.922 1318.06 913.324C1317.2 912.727 1316.22 912.428 1315.1 912.428Z" fill="white"/>
<path d="M1424.95 936H1408.05V933.486L1414.82 926.684C1416.88 924.598 1418.24 923.109 1418.9 922.219C1419.56 921.328 1420.05 920.461 1420.38 919.617C1420.71 918.773 1420.87 917.865 1420.87 916.893C1420.87 915.521 1420.45 914.438 1419.62 913.641C1418.79 912.832 1417.63 912.428 1416.16 912.428C1415.09 912.428 1414.08 912.604 1413.12 912.955C1412.17 913.307 1411.11 913.945 1409.94 914.871L1408.39 912.885C1410.76 910.916 1413.33 909.932 1416.12 909.932C1418.54 909.932 1420.43 910.553 1421.8 911.795C1423.17 913.025 1423.86 914.684 1423.86 916.77C1423.86 918.398 1423.4 920.01 1422.49 921.604C1421.57 923.197 1419.86 925.213 1417.35 927.65L1411.73 933.152V933.293H1424.95V936ZM1445.69 923.115C1445.69 927.557 1444.99 930.873 1443.58 933.064C1442.19 935.256 1440.05 936.352 1437.16 936.352C1434.4 936.352 1432.29 935.232 1430.85 932.994C1429.41 930.744 1428.69 927.451 1428.69 923.115C1428.69 918.639 1429.39 915.316 1430.78 913.148C1432.18 910.98 1434.3 909.896 1437.16 909.896C1439.95 909.896 1442.07 911.027 1443.51 913.289C1444.96 915.551 1445.69 918.826 1445.69 923.115ZM1431.64 923.115C1431.64 926.854 1432.08 929.578 1432.96 931.289C1433.84 932.988 1435.24 933.838 1437.16 933.838C1439.11 933.838 1440.52 932.977 1441.38 931.254C1442.26 929.52 1442.7 926.807 1442.7 923.115C1442.7 919.424 1442.26 916.723 1441.38 915.012C1440.52 913.289 1439.11 912.428 1437.16 912.428C1435.24 912.428 1433.84 913.277 1432.96 914.977C1432.08 916.664 1431.64 919.377 1431.64 923.115ZM1466.15 936H1449.26V933.486L1456.03 926.684C1458.09 924.598 1459.45 923.109 1460.1 922.219C1460.76 921.328 1461.25 920.461 1461.58 919.617C1461.91 918.773 1462.07 917.865 1462.07 916.893C1462.07 915.521 1461.66 914.438 1460.82 913.641C1459.99 912.832 1458.84 912.428 1457.36 912.428C1456.29 912.428 1455.28 912.604 1454.32 912.955C1453.37 913.307 1452.31 913.945 1451.14 914.871L1449.59 912.885C1451.96 910.916 1454.54 909.932 1457.33 909.932C1459.74 909.932 1461.63 910.553 1463 911.795C1464.38 913.025 1465.06 914.684 1465.06 916.77C1465.06 918.398 1464.6 920.01 1463.69 921.604C1462.78 923.197 1461.06 925.213 1458.56 927.65L1452.93 933.152V933.293H1466.15V936ZM1486.89 923.115C1486.89 927.557 1486.19 930.873 1484.78 933.064C1483.39 935.256 1481.25 936.352 1478.37 936.352C1475.6 936.352 1473.5 935.232 1472.06 932.994C1470.62 930.744 1469.89 927.451 1469.89 923.115C1469.89 918.639 1470.59 915.316 1471.99 913.148C1473.38 910.98 1475.51 909.896 1478.37 909.896C1481.16 909.896 1483.27 911.027 1484.71 913.289C1486.17 915.551 1486.89 918.826 1486.89 923.115ZM1472.85 923.115C1472.85 926.854 1473.29 929.578 1474.17 931.289C1475.04 932.988 1476.45 933.838 1478.37 933.838C1480.31 933.838 1481.72 932.977 1482.59 931.254C1483.46 929.52 1483.9 926.807 1483.9 923.115C1483.9 919.424 1483.46 916.723 1482.59 915.012C1481.72 913.289 1480.31 912.428 1478.37 912.428C1476.45 912.428 1475.04 913.277 1474.17 914.977C1473.29 916.664 1472.85 919.377 1472.85 923.115Z" fill="white"/>
<rect x="1202" y="552" width="164" height="322" fill="#01F859"/>
<rect x="1366" y="488" width="163" height="386" fill="#D40000"/>
<path d="M1422.2 834.398C1422.2 820.992 1427.66 814.289 1438.59 814.289C1440.3 814.289 1441.76 814.422 1442.95 814.688V819.281C1441.76 818.938 1440.38 818.766 1438.82 818.766C1435.15 818.766 1432.39 819.75 1430.55 821.719C1428.7 823.688 1427.7 826.844 1427.55 831.188H1427.83C1428.56 829.922 1429.59 828.945 1430.92 828.258C1432.25 827.555 1433.81 827.203 1435.61 827.203C1438.72 827.203 1441.14 828.156 1442.88 830.062C1444.61 831.969 1445.48 834.555 1445.48 837.82C1445.48 841.414 1444.47 844.258 1442.45 846.352C1440.45 848.43 1437.72 849.469 1434.25 849.469C1431.8 849.469 1429.66 848.883 1427.85 847.711C1426.04 846.523 1424.64 844.805 1423.66 842.555C1422.69 840.289 1422.2 837.57 1422.2 834.398ZM1434.16 844.922C1436.05 844.922 1437.5 844.312 1438.52 843.094C1439.55 841.875 1440.06 840.133 1440.06 837.867C1440.06 835.898 1439.58 834.352 1438.61 833.227C1437.66 832.102 1436.22 831.539 1434.3 831.539C1433.11 831.539 1432.02 831.797 1431.02 832.312C1430.02 832.812 1429.23 833.508 1428.65 834.398C1428.07 835.273 1427.78 836.172 1427.78 837.094C1427.78 839.297 1428.38 841.156 1429.56 842.672C1430.77 844.172 1432.3 844.922 1434.16 844.922ZM1461.11 814.289C1464.36 814.289 1466.93 815.039 1468.82 816.539C1470.71 818.023 1471.66 820.016 1471.66 822.516C1471.66 826.031 1469.55 828.828 1465.33 830.906C1468.02 832.25 1469.92 833.664 1471.05 835.148C1472.19 836.633 1472.76 838.289 1472.76 840.117C1472.76 842.945 1471.72 845.211 1469.64 846.914C1467.56 848.617 1464.75 849.469 1461.2 849.469C1457.48 849.469 1454.6 848.672 1452.55 847.078C1450.51 845.484 1449.48 843.227 1449.48 840.305C1449.48 838.398 1450.02 836.688 1451.08 835.172C1452.16 833.641 1453.91 832.281 1456.35 831.094C1454.26 829.844 1452.77 828.523 1451.88 827.133C1450.98 825.742 1450.54 824.18 1450.54 822.445C1450.54 819.961 1451.52 817.984 1453.47 816.516C1455.42 815.031 1457.97 814.289 1461.11 814.289ZM1454.76 840.117C1454.76 841.742 1455.33 843.008 1456.47 843.914C1457.61 844.805 1459.16 845.25 1461.11 845.25C1463.12 845.25 1464.69 844.789 1465.8 843.867C1466.92 842.93 1467.48 841.664 1467.48 840.07C1467.48 838.805 1466.97 837.648 1465.94 836.602C1464.91 835.555 1463.34 834.586 1461.25 833.695L1460.57 833.391C1458.51 834.297 1457.02 835.297 1456.12 836.391C1455.21 837.469 1454.76 838.711 1454.76 840.117ZM1461.06 818.531C1459.5 818.531 1458.24 818.922 1457.29 819.703C1456.34 820.469 1455.86 821.516 1455.86 822.844C1455.86 823.656 1456.03 824.383 1456.38 825.023C1456.72 825.664 1457.22 826.25 1457.88 826.781C1458.53 827.297 1459.64 827.922 1461.2 828.656C1463.08 827.828 1464.4 826.961 1465.16 826.055C1465.95 825.133 1466.34 824.062 1466.34 822.844C1466.34 821.516 1465.85 820.469 1464.88 819.703C1463.93 818.922 1462.66 818.531 1461.06 818.531Z" fill="#7A0101"/>
<path d="M1270.73 827.602C1274.19 827.602 1276.92 828.516 1278.94 830.344C1280.95 832.172 1281.96 834.664 1281.96 837.82C1281.96 841.477 1280.81 844.336 1278.52 846.398C1276.23 848.445 1272.98 849.469 1268.77 849.469C1264.94 849.469 1261.93 848.852 1259.74 847.617V842.625C1261.01 843.344 1262.46 843.898 1264.1 844.289C1265.74 844.68 1267.27 844.875 1268.67 844.875C1271.16 844.875 1273.05 844.32 1274.34 843.211C1275.64 842.102 1276.29 840.477 1276.29 838.336C1276.29 834.242 1273.68 832.195 1268.46 832.195C1267.73 832.195 1266.82 832.273 1265.74 832.43C1264.66 832.57 1263.72 832.734 1262.91 832.922L1260.45 831.469L1261.76 814.734H1279.57V819.633H1266.61L1265.84 828.117C1266.38 828.023 1267.05 827.914 1267.83 827.789C1268.62 827.664 1269.59 827.602 1270.73 827.602ZM1298.16 827.602C1301.61 827.602 1304.34 828.516 1306.36 830.344C1308.38 832.172 1309.38 834.664 1309.38 837.82C1309.38 841.477 1308.23 844.336 1305.94 846.398C1303.66 848.445 1300.41 849.469 1296.19 849.469C1292.36 849.469 1289.35 848.852 1287.16 847.617V842.625C1288.43 843.344 1289.88 843.898 1291.52 844.289C1293.16 844.68 1294.69 844.875 1296.09 844.875C1298.58 844.875 1300.47 844.32 1301.77 843.211C1303.06 842.102 1303.71 840.477 1303.71 838.336C1303.71 834.242 1301.1 832.195 1295.88 832.195C1295.15 832.195 1294.24 832.273 1293.16 832.43C1292.09 832.57 1291.14 832.734 1290.33 832.922L1287.87 831.469L1289.18 814.734H1306.99V819.633H1294.03L1293.26 828.117C1293.8 828.023 1294.47 827.914 1295.25 827.789C1296.05 827.664 1297.02 827.602 1298.16 827.602Z" fill="#019535"/>
<path d="M121.578 433.164H112.25V428.992H121.578V419.43H125.797V428.992H135.148V433.164H125.797V442.68H121.578V433.164ZM162.758 448H139.531V443.828L148.367 434.945C150.977 432.273 152.703 430.383 153.547 429.273C154.406 428.148 155.031 427.094 155.422 426.109C155.812 425.125 156.008 424.07 156.008 422.945C156.008 421.398 155.539 420.18 154.602 419.289C153.68 418.398 152.398 417.953 150.758 417.953C149.445 417.953 148.172 418.195 146.938 418.68C145.719 419.164 144.305 420.039 142.695 421.305L139.719 417.672C141.625 416.062 143.477 414.922 145.273 414.25C147.07 413.578 148.984 413.242 151.016 413.242C154.203 413.242 156.758 414.078 158.68 415.75C160.602 417.406 161.562 419.641 161.562 422.453C161.562 424 161.281 425.469 160.719 426.859C160.172 428.25 159.32 429.688 158.164 431.172C157.023 432.641 155.117 434.633 152.445 437.148L146.492 442.914V443.148H162.758V448ZM178.578 426.602C182.031 426.602 184.766 427.516 186.781 429.344C188.797 431.172 189.805 433.664 189.805 436.82C189.805 440.477 188.656 443.336 186.359 445.398C184.078 447.445 180.828 448.469 176.609 448.469C172.781 448.469 169.773 447.852 167.586 446.617V441.625C168.852 442.344 170.305 442.898 171.945 443.289C173.586 443.68 175.109 443.875 176.516 443.875C179 443.875 180.891 443.32 182.188 442.211C183.484 441.102 184.133 439.477 184.133 437.336C184.133 433.242 181.523 431.195 176.305 431.195C175.57 431.195 174.664 431.273 173.586 431.43C172.508 431.57 171.562 431.734 170.75 431.922L168.289 430.469L169.602 413.734H187.414V418.633H174.453L173.68 427.117C174.227 427.023 174.891 426.914 175.672 426.789C176.469 426.664 177.438 426.602 178.578 426.602ZM217.602 430.867C217.602 436.82 216.641 441.242 214.719 444.133C212.812 447.023 209.891 448.469 205.953 448.469C202.141 448.469 199.25 446.977 197.281 443.992C195.312 441.008 194.328 436.633 194.328 430.867C194.328 424.82 195.281 420.367 197.188 417.508C199.109 414.633 202.031 413.195 205.953 413.195C209.781 413.195 212.68 414.695 214.648 417.695C216.617 420.695 217.602 425.086 217.602 430.867ZM199.906 430.867C199.906 435.539 200.383 438.875 201.336 440.875C202.305 442.875 203.844 443.875 205.953 443.875C208.062 443.875 209.602 442.859 210.57 440.828C211.555 438.797 212.047 435.477 212.047 430.867C212.047 426.273 211.555 422.953 210.57 420.906C209.602 418.844 208.062 417.812 205.953 417.812C203.844 417.812 202.305 418.82 201.336 420.836C200.383 422.852 199.906 426.195 199.906 430.867ZM226.227 424C226.227 426.328 226.453 428.062 226.906 429.203C227.359 430.344 228.102 430.914 229.133 430.914C231.195 430.914 232.227 428.609 232.227 424C232.227 419.391 231.195 417.086 229.133 417.086C228.102 417.086 227.359 417.656 226.906 418.797C226.453 419.938 226.227 421.672 226.227 424ZM236.773 423.953C236.773 427.547 236.125 430.25 234.828 432.062C233.547 433.859 231.648 434.758 229.133 434.758C226.758 434.758 224.914 433.828 223.602 431.969C222.305 430.094 221.656 427.422 221.656 423.953C221.656 416.812 224.148 413.242 229.133 413.242C231.586 413.242 233.469 414.172 234.781 416.031C236.109 417.875 236.773 420.516 236.773 423.953ZM248.539 437.688C248.539 440.016 248.766 441.758 249.219 442.914C249.688 444.07 250.438 444.648 251.469 444.648C253.516 444.648 254.539 442.328 254.539 437.688C254.539 433.109 253.516 430.82 251.469 430.82C250.438 430.82 249.688 431.383 249.219 432.508C248.766 433.633 248.539 435.359 248.539 437.688ZM259.086 437.688C259.086 441.281 258.438 443.977 257.141 445.773C255.844 447.57 253.953 448.469 251.469 448.469C249.094 448.469 247.25 447.547 245.938 445.703C244.625 443.844 243.969 441.172 243.969 437.688C243.969 430.547 246.469 426.977 251.469 426.977C253.875 426.977 255.742 427.898 257.07 429.742C258.414 431.586 259.086 434.234 259.086 437.688ZM252.125 413.734L233.117 448H228.57L247.578 413.734H252.125Z" fill="#FF0000"/>
<path d="M79.5 424L94 448H65L79.5 424Z" fill="#FF0000"/>
<path d="M59.9473 936H43.0547V933.486L49.8223 926.684C51.8848 924.598 53.2441 923.109 53.9004 922.219C54.5566 921.328 55.0488 920.461 55.377 919.617C55.7051 918.773 55.8691 917.865 55.8691 916.893C55.8691 915.521 55.4531 914.438 54.6211 913.641C53.7891 912.832 52.6348 912.428 51.1582 912.428C50.0918 912.428 49.0781 912.604 48.1172 912.955C47.168 913.307 46.1074 913.945 44.9355 914.871L43.3887 912.885C45.7559 910.916 48.334 909.932 51.123 909.932C53.5371 909.932 55.4297 910.553 56.8008 911.795C58.1719 913.025 58.8574 914.684 58.8574 916.77C58.8574 918.398 58.4004 920.01 57.4863 921.604C56.5723 923.197 54.8613 925.213 52.3535 927.65L46.7285 933.152V933.293H59.9473V936ZM80.6895 923.115C80.6895 927.557 79.9863 930.873 78.5801 933.064C77.1855 935.256 75.0469 936.352 72.1641 936.352C69.3984 936.352 67.2949 935.232 65.8535 932.994C64.4121 930.744 63.6914 927.451 63.6914 923.115C63.6914 918.639 64.3887 915.316 65.7832 913.148C67.1777 910.98 69.3047 909.896 72.1641 909.896C74.9531 909.896 77.0684 911.027 78.5098 913.289C79.9629 915.551 80.6895 918.826 80.6895 923.115ZM66.6445 923.115C66.6445 926.854 67.084 929.578 67.9629 931.289C68.8418 932.988 70.2422 933.838 72.1641 933.838C74.1094 933.838 75.5156 932.977 76.3828 931.254C77.2617 929.52 77.7012 926.807 77.7012 923.115C77.7012 919.424 77.2617 916.723 76.3828 915.012C75.5156 913.289 74.1094 912.428 72.1641 912.428C70.2422 912.428 68.8418 913.277 67.9629 914.977C67.084 916.664 66.6445 919.377 66.6445 923.115ZM95.0684 936H92.2207V917.684C92.2207 916.16 92.2676 914.719 92.3613 913.359C92.1152 913.605 91.8398 913.863 91.5352 914.133C91.2305 914.402 89.8359 915.545 87.3516 917.561L85.8047 915.557L92.6074 910.301H95.0684V936ZM121.752 921.27C121.752 931.324 117.861 936.352 110.08 936.352C108.721 936.352 107.643 936.234 106.846 936V933.486C107.783 933.791 108.85 933.943 110.045 933.943C112.857 933.943 114.979 933.076 116.408 931.342C117.85 929.596 118.635 926.924 118.764 923.326H118.553C117.908 924.299 117.053 925.043 115.986 925.559C114.92 926.062 113.719 926.314 112.383 926.314C110.109 926.314 108.305 925.635 106.969 924.275C105.633 922.916 104.965 921.018 104.965 918.58C104.965 915.908 105.709 913.799 107.197 912.252C108.697 910.705 110.666 909.932 113.104 909.932C114.85 909.932 116.373 910.383 117.674 911.285C118.986 912.176 119.994 913.482 120.697 915.205C121.4 916.916 121.752 918.938 121.752 921.27ZM113.104 912.428C111.428 912.428 110.133 912.967 109.219 914.045C108.305 915.123 107.848 916.623 107.848 918.545C107.848 920.232 108.27 921.562 109.113 922.535C109.957 923.496 111.24 923.977 112.963 923.977C114.029 923.977 115.008 923.76 115.898 923.326C116.801 922.893 117.51 922.301 118.025 921.551C118.541 920.801 118.799 920.016 118.799 919.195C118.799 917.965 118.559 916.828 118.078 915.785C117.598 914.742 116.924 913.922 116.057 913.324C115.201 912.727 114.217 912.428 113.104 912.428Z" fill="white"/>
<path d="M222.947 936H206.055V933.486L212.822 926.684C214.885 924.598 216.244 923.109 216.9 922.219C217.557 921.328 218.049 920.461 218.377 919.617C218.705 918.773 218.869 917.865 218.869 916.893C218.869 915.521 218.453 914.438 217.621 913.641C216.789 912.832 215.635 912.428 214.158 912.428C213.092 912.428 212.078 912.604 211.117 912.955C210.168 913.307 209.107 913.945 207.936 914.871L206.389 912.885C208.756 910.916 211.334 909.932 214.123 909.932C216.537 909.932 218.43 910.553 219.801 911.795C221.172 913.025 221.857 914.684 221.857 916.77C221.857 918.398 221.4 920.01 220.486 921.604C219.572 923.197 217.861 925.213 215.354 927.65L209.729 933.152V933.293H222.947V936ZM243.689 923.115C243.689 927.557 242.986 930.873 241.58 933.064C240.186 935.256 238.047 936.352 235.164 936.352C232.398 936.352 230.295 935.232 228.854 932.994C227.412 930.744 226.691 927.451 226.691 923.115C226.691 918.639 227.389 915.316 228.783 913.148C230.178 910.98 232.305 909.896 235.164 909.896C237.953 909.896 240.068 911.027 241.51 913.289C242.963 915.551 243.689 918.826 243.689 923.115ZM229.645 923.115C229.645 926.854 230.084 929.578 230.963 931.289C231.842 932.988 233.242 933.838 235.164 933.838C237.109 933.838 238.516 932.977 239.383 931.254C240.262 929.52 240.701 926.807 240.701 923.115C240.701 919.424 240.262 916.723 239.383 915.012C238.516 913.289 237.109 912.428 235.164 912.428C233.242 912.428 231.842 913.277 230.963 914.977C230.084 916.664 229.645 919.377 229.645 923.115ZM264.15 936H247.258V933.486L254.025 926.684C256.088 924.598 257.447 923.109 258.104 922.219C258.76 921.328 259.252 920.461 259.58 919.617C259.908 918.773 260.072 917.865 260.072 916.893C260.072 915.521 259.656 914.438 258.824 913.641C257.992 912.832 256.838 912.428 255.361 912.428C254.295 912.428 253.281 912.604 252.32 912.955C251.371 913.307 250.311 913.945 249.139 914.871L247.592 912.885C249.959 910.916 252.537 909.932 255.326 909.932C257.74 909.932 259.633 910.553 261.004 911.795C262.375 913.025 263.061 914.684 263.061 916.77C263.061 918.398 262.604 920.01 261.689 921.604C260.775 923.197 259.064 925.213 256.557 927.65L250.932 933.152V933.293H264.15V936ZM284.893 923.115C284.893 927.557 284.189 930.873 282.783 933.064C281.389 935.256 279.25 936.352 276.367 936.352C273.602 936.352 271.498 935.232 270.057 932.994C268.615 930.744 267.895 927.451 267.895 923.115C267.895 918.639 268.592 915.316 269.986 913.148C271.381 910.98 273.508 909.896 276.367 909.896C279.156 909.896 281.271 911.027 282.713 913.289C284.166 915.551 284.893 918.826 284.893 923.115ZM270.848 923.115C270.848 926.854 271.287 929.578 272.166 931.289C273.045 932.988 274.445 933.838 276.367 933.838C278.312 933.838 279.719 932.977 280.586 931.254C281.465 929.52 281.904 926.807 281.904 923.115C281.904 919.424 281.465 916.723 280.586 915.012C279.719 913.289 278.312 912.428 276.367 912.428C274.445 912.428 273.045 913.277 272.166 914.977C271.287 916.664 270.848 919.377 270.848 923.115Z" fill="white"/>
<rect y="757" width="164" height="117" fill="#01F859"/>
<path d="M80.3359 849H57.1094V844.828L65.9453 835.945C68.5547 833.273 70.2812 831.383 71.125 830.273C71.9844 829.148 72.6094 828.094 73 827.109C73.3906 826.125 73.5859 825.07 73.5859 823.945C73.5859 822.398 73.1172 821.18 72.1797 820.289C71.2578 819.398 69.9766 818.953 68.3359 818.953C67.0234 818.953 65.75 819.195 64.5156 819.68C63.2969 820.164 61.8828 821.039 60.2734 822.305L57.2969 818.672C59.2031 817.062 61.0547 815.922 62.8516 815.25C64.6484 814.578 66.5625 814.242 68.5938 814.242C71.7812 814.242 74.3359 815.078 76.2578 816.75C78.1797 818.406 79.1406 820.641 79.1406 823.453C79.1406 825 78.8594 826.469 78.2969 827.859C77.75 829.25 76.8984 830.688 75.7422 832.172C74.6016 833.641 72.6953 835.633 70.0234 838.148L64.0703 843.914V844.148H80.3359V849ZM107.758 831.867C107.758 837.82 106.797 842.242 104.875 845.133C102.969 848.023 100.047 849.469 96.1094 849.469C92.2969 849.469 89.4062 847.977 87.4375 844.992C85.4688 842.008 84.4844 837.633 84.4844 831.867C84.4844 825.82 85.4375 821.367 87.3438 818.508C89.2656 815.633 92.1875 814.195 96.1094 814.195C99.9375 814.195 102.836 815.695 104.805 818.695C106.773 821.695 107.758 826.086 107.758 831.867ZM90.0625 831.867C90.0625 836.539 90.5391 839.875 91.4922 841.875C92.4609 843.875 94 844.875 96.1094 844.875C98.2188 844.875 99.7578 843.859 100.727 841.828C101.711 839.797 102.203 836.477 102.203 831.867C102.203 827.273 101.711 823.953 100.727 821.906C99.7578 819.844 98.2188 818.812 96.1094 818.812C94 818.812 92.4609 819.82 91.4922 821.836C90.5391 823.852 90.0625 827.195 90.0625 831.867Z" fill="#019535"/>
<rect x="164" y="582" width="163" height="292" fill="#D40000"/>
<path d="M231.734 827.602C235.188 827.602 237.922 828.516 239.938 830.344C241.953 832.172 242.961 834.664 242.961 837.82C242.961 841.477 241.812 844.336 239.516 846.398C237.234 848.445 233.984 849.469 229.766 849.469C225.938 849.469 222.93 848.852 220.742 847.617V842.625C222.008 843.344 223.461 843.898 225.102 844.289C226.742 844.68 228.266 844.875 229.672 844.875C232.156 844.875 234.047 844.32 235.344 843.211C236.641 842.102 237.289 840.477 237.289 838.336C237.289 834.242 234.68 832.195 229.461 832.195C228.727 832.195 227.82 832.273 226.742 832.43C225.664 832.57 224.719 832.734 223.906 832.922L221.445 831.469L222.758 814.734H240.57V819.633H227.609L226.836 828.117C227.383 828.023 228.047 827.914 228.828 827.789C229.625 827.664 230.594 827.602 231.734 827.602ZM270.758 831.867C270.758 837.82 269.797 842.242 267.875 845.133C265.969 848.023 263.047 849.469 259.109 849.469C255.297 849.469 252.406 847.977 250.438 844.992C248.469 842.008 247.484 837.633 247.484 831.867C247.484 825.82 248.438 821.367 250.344 818.508C252.266 815.633 255.188 814.195 259.109 814.195C262.938 814.195 265.836 815.695 267.805 818.695C269.773 821.695 270.758 826.086 270.758 831.867ZM253.062 831.867C253.062 836.539 253.539 839.875 254.492 841.875C255.461 843.875 257 844.875 259.109 844.875C261.219 844.875 262.758 843.859 263.727 841.828C264.711 839.797 265.203 836.477 265.203 831.867C265.203 827.273 264.711 823.953 263.727 821.906C262.758 819.844 261.219 818.812 259.109 818.812C257 818.812 255.461 819.82 254.492 821.836C253.539 823.852 253.062 827.195 253.062 831.867Z" fill="#7A0101"/>
<path d="M142.648 313.898L133.538 300.873H139.457L148.233 314.01V300.873H153.596V314.01L162.372 300.873H168.31L159.181 313.898L168.829 328H162.669L153.596 314.251V328H148.233V314.251L139.16 328H133L142.648 313.898ZM177.29 307.256V315.457C177.29 316.323 177.148 318.438 176.863 321.803L186.438 307.256H193.247V328H187.773V319.725C187.773 318.253 187.897 316.174 188.145 313.49L178.607 328H171.816V307.256H177.29ZM217.776 328H212.117V311.505H206.903C206.507 316.144 206.025 319.607 205.456 321.896C204.887 324.172 204.126 325.823 203.174 326.85C202.234 327.864 200.997 328.371 199.463 328.371C198.152 328.371 197.076 328.173 196.234 327.777V323.25C196.84 323.497 197.447 323.621 198.053 323.621C198.758 323.621 199.345 323.114 199.815 322.1C200.298 321.085 200.725 319.397 201.096 317.034C201.479 314.659 201.807 311.4 202.079 307.256H217.776V328ZM229.392 315.271H233.381C236.572 315.271 238.935 315.779 240.469 316.793C242.003 317.807 242.77 319.341 242.77 321.395C242.77 325.798 239.714 328 233.604 328H223.732V307.256H229.392V315.271ZM237.11 321.469C237.11 320.665 236.789 320.083 236.146 319.725C235.502 319.366 234.544 319.187 233.27 319.187H229.392V324.085H233.344C235.855 324.085 237.11 323.213 237.11 321.469ZM255.665 310.893C254.465 310.893 253.525 311.276 252.845 312.043C252.164 312.798 251.775 313.874 251.676 315.271H259.617C259.592 313.874 259.228 312.798 258.522 312.043C257.817 311.276 256.865 310.893 255.665 310.893ZM256.463 328.371C253.123 328.371 250.513 327.45 248.633 325.606C246.753 323.763 245.812 321.153 245.812 317.776C245.812 314.3 246.678 311.616 248.41 309.724C250.154 307.819 252.56 306.866 255.628 306.866C258.56 306.866 260.842 307.701 262.475 309.371C264.107 311.041 264.924 313.348 264.924 316.292V319.038H251.546C251.608 320.646 252.084 321.902 252.975 322.805C253.865 323.708 255.115 324.159 256.723 324.159C257.972 324.159 259.153 324.029 260.267 323.77C261.38 323.51 262.543 323.095 263.755 322.526V326.905C262.765 327.4 261.708 327.765 260.582 328C259.456 328.247 258.083 328.371 256.463 328.371ZM249.319 301.931C249.319 301.127 249.548 300.508 250.006 300.075C250.476 299.642 251.107 299.426 251.898 299.426C252.715 299.426 253.352 299.655 253.81 300.112C254.28 300.57 254.515 301.176 254.515 301.931C254.515 302.673 254.28 303.273 253.81 303.73C253.34 304.176 252.702 304.398 251.898 304.398C251.107 304.398 250.476 304.182 250.006 303.749C249.548 303.316 249.319 302.71 249.319 301.931ZM256.797 301.931C256.797 301.065 257.044 300.434 257.539 300.038C258.046 299.63 258.671 299.426 259.413 299.426C260.217 299.426 260.854 299.648 261.324 300.094C261.807 300.539 262.048 301.151 262.048 301.931C262.048 302.685 261.807 303.285 261.324 303.73C260.842 304.176 260.205 304.398 259.413 304.398C258.671 304.398 258.046 304.201 257.539 303.805C257.044 303.396 256.797 302.772 256.797 301.931Z" fill="white"/>
<path d="M105.621 296.333H92.1034V299.667H105.621V334.667H92.1034V338H109V299.667C109 298.783 108.644 297.935 108.01 297.31C107.376 296.685 106.517 296.333 105.621 296.333Z" fill="white"/>
<path d="M86.8317 288H63.5821C62.632 288 61.7209 288.372 61.0492 289.035C60.3774 289.698 60 290.596 60 291.533V338H90.4138V291.533C90.4138 290.596 90.0364 289.698 89.3646 289.035C88.6929 288.372 87.7817 288 86.8317 288ZM87.0345 334.667H81.9655V329.667H68.4483V334.667H63.3793V291.533C63.3793 291.507 63.3846 291.481 63.3947 291.457C63.4049 291.433 63.4199 291.41 63.4387 291.392C63.4575 291.373 63.4799 291.359 63.5045 291.349C63.5291 291.339 63.5554 291.333 63.5821 291.333H86.8317C86.8583 291.333 86.8847 291.339 86.9093 291.349C86.9339 291.359 86.9563 291.373 86.9751 291.392C86.9939 291.41 87.0089 291.433 87.019 291.457C87.0292 291.481 87.0345 291.507 87.0345 291.533V334.667Z" fill="white"/>
<path d="M66.7586 296.333H70.1379V299.667H66.7586V296.333Z" fill="white"/>
<path d="M73.5172 296.333H76.8966V299.667H73.5172V296.333Z" fill="white"/>
<path d="M80.2759 296.333H83.6552V299.667H80.2759V296.333Z" fill="white"/>
<path d="M66.7586 304.667H70.1379V308H66.7586V304.667Z" fill="white"/>
<path d="M73.5172 304.667H76.8966V308H73.5172V304.667Z" fill="white"/>
<path d="M80.2759 304.667H83.6552V308H80.2759V304.667Z" fill="white"/>
<path d="M66.7586 313H70.1379V316.333H66.7586V313Z" fill="white"/>
<path d="M73.5172 313H76.8966V316.333H73.5172V313Z" fill="white"/>
<path d="M80.2759 313H83.6552V316.333H80.2759V313Z" fill="white"/>
<path d="M66.7586 321.333H70.1379V324.667H66.7586V321.333Z" fill="white"/>
<path d="M73.5172 321.333H76.8966V324.667H73.5172V321.333Z" fill="white"/>
<path d="M80.2759 321.333H83.6552V324.667H80.2759V321.333Z" fill="white"/>
<path d="M92.1034 304.667H95.4828V308H92.1034V304.667Z" fill="white"/>
<path d="M98.8621 304.667H102.241V308H98.8621V304.667Z" fill="white"/>
<path d="M92.1034 313H95.4828V316.333H92.1034V313Z" fill="white"/>
<path d="M98.8621 313H102.241V316.333H98.8621V313Z" fill="white"/>
<path d="M92.1034 321.333H95.4828V324.667H92.1034V321.333Z" fill="white"/>
<path d="M98.8621 321.333H102.241V324.667H98.8621V321.333Z" fill="white"/>
</svg>
