<svg width="1590" height="782" viewBox="0 0 1590 782" fill="none" xmlns="http://www.w3.org/2000/svg">
<path d="M882.748 141.211H848.734V121.963H882.748V87.6855H901.996V121.963H936.01V141.211H901.996V175.049H882.748V141.211ZM963.783 195L1012.04 89.5312H948.666V66.6797H1040.86V83.7305L992.26 195H963.783ZM1144.08 118.574H1167.04L1136.76 155.215L1169.71 195H1146.06L1114.82 156.24V195H1093.97V118.574H1114.82V155.693L1144.08 118.574ZM1279.84 195L1272.59 171.211H1236.16L1228.91 195H1206.08L1241.35 94.6484H1267.26L1302.67 195H1279.84ZM1267.53 153.438C1260.83 131.882 1257.05 119.691 1256.19 116.865C1255.37 114.04 1254.77 111.807 1254.41 110.166C1252.9 115.999 1248.6 130.423 1241.49 153.438H1267.53ZM1394.41 195H1373.29V112.695H1336.51V195H1315.32V95.0586H1394.41V195ZM1498.72 195H1477.6V112.695H1440.82V195H1419.63V95.0586H1498.72V195ZM1587.11 95.0586V112.559H1545.14V195H1523.95V95.0586H1587.11Z" fill="#01F859"/>
<path d="M245.949 104.98C245.949 135.918 239.432 159.014 226.398 174.268C213.365 189.521 193.635 197.148 167.209 197.148C157.899 197.148 150.845 196.647 146.047 195.645V169.004C152.062 170.508 158.365 171.26 164.953 171.26C176.053 171.26 185.184 169.648 192.346 166.426C199.507 163.132 204.986 158.011 208.781 151.064C212.577 144.046 214.761 134.414 215.334 122.168H214.045C209.891 128.9 205.093 133.626 199.65 136.348C194.208 139.069 187.404 140.43 179.24 140.43C165.562 140.43 154.784 136.061 146.906 127.324C139.029 118.516 135.09 106.305 135.09 90.6934C135.09 73.8639 139.852 60.5794 149.377 50.8398C158.973 41.0286 172.007 36.123 188.479 36.123C200.08 36.123 210.214 38.8444 218.879 44.2871C227.616 49.7298 234.312 57.6432 238.967 68.0273C243.622 78.3398 245.949 90.6576 245.949 104.98ZM189.123 62.7637C182.248 62.7637 176.877 65.127 173.01 69.8535C169.143 74.5801 167.209 81.3835 167.209 90.2637C167.209 97.8548 168.964 103.87 172.473 108.311C175.982 112.751 181.317 114.971 188.479 114.971C195.21 114.971 200.975 112.786 205.773 108.418C210.572 103.978 212.971 98.8932 212.971 93.1641C212.971 84.6419 210.715 77.4447 206.203 71.5723C201.763 65.6999 196.07 62.7637 189.123 62.7637ZM397.307 195H377.824V134.775L376.73 139.014C374.27 148.63 372.059 155.898 370.1 160.82L356.564 195H341.73L327.99 160.547C326.031 155.534 323.934 148.493 321.701 139.424L320.402 134.775V195H300.988V118.574H329.699L342.824 151.182C344.191 154.691 345.445 158.724 346.584 163.281C347.769 167.839 348.566 171.735 348.977 174.971C350.48 168.135 351.643 163.236 352.463 160.273C353.329 157.266 354.263 154.508 355.266 152.002C356.268 149.495 360.803 138.353 368.869 118.574H397.307V195ZM450.9 131.973C446.48 131.973 443.016 133.385 440.51 136.211C438.003 138.991 436.568 142.956 436.203 148.105H465.461C465.37 142.956 464.025 138.991 461.428 136.211C458.83 133.385 455.321 131.973 450.9 131.973ZM453.84 196.367C441.535 196.367 431.919 192.972 424.992 186.182C418.065 179.391 414.602 169.775 414.602 157.334C414.602 144.528 417.792 134.639 424.172 127.666C430.598 120.648 439.462 117.139 450.764 117.139C461.564 117.139 469.973 120.215 475.988 126.367C482.004 132.52 485.012 141.019 485.012 151.865V161.982H435.725C435.952 167.907 437.707 172.533 440.988 175.859C444.27 179.186 448.872 180.85 454.797 180.85C459.4 180.85 463.752 180.371 467.854 179.414C471.955 178.457 476.239 176.93 480.705 174.834V190.967C477.059 192.79 473.163 194.134 469.016 195C464.868 195.911 459.81 196.367 453.84 196.367ZM533 196.367C509.211 196.367 497.316 183.311 497.316 157.197C497.316 144.209 500.552 134.297 507.023 127.461C513.495 120.579 522.769 117.139 534.846 117.139C543.687 117.139 551.617 118.87 558.635 122.334L552.482 138.467C549.201 137.145 546.148 136.074 543.322 135.254C540.497 134.388 537.671 133.955 534.846 133.955C523.999 133.955 518.576 141.657 518.576 157.061C518.576 172.008 523.999 179.482 534.846 179.482C538.856 179.482 542.57 178.958 545.988 177.91C549.406 176.816 552.824 175.13 556.242 172.852V190.693C552.87 192.835 549.452 194.316 545.988 195.137C542.57 195.957 538.241 196.367 533 196.367ZM637.248 118.574V134.229H612.229V195H591.379V134.229H566.291V118.574H637.248ZM668.146 156.65C668.146 164.215 669.377 169.935 671.838 173.809C674.344 177.682 678.4 179.619 684.006 179.619C689.566 179.619 693.553 177.705 695.969 173.877C698.43 170.003 699.66 164.261 699.66 156.65C699.66 149.085 698.43 143.411 695.969 139.629C693.508 135.846 689.475 133.955 683.869 133.955C678.309 133.955 674.299 135.846 671.838 139.629C669.377 143.366 668.146 149.04 668.146 156.65ZM720.988 156.65C720.988 169.092 717.707 178.822 711.145 185.84C704.582 192.858 695.445 196.367 683.732 196.367C676.395 196.367 669.924 194.772 664.318 191.582C658.713 188.346 654.406 183.721 651.398 177.705C648.391 171.689 646.887 164.671 646.887 156.65C646.887 144.163 650.145 134.456 656.662 127.529C663.179 120.602 672.339 117.139 684.143 117.139C691.48 117.139 697.951 118.734 703.557 121.924C709.162 125.114 713.469 129.694 716.477 135.664C719.484 141.634 720.988 148.63 720.988 156.65Z" fill="white"/>
<path d="M49 114L98 195H0L49 114Z" fill="#01F859"/>
<path d="M0 281H795V781H0V281Z" fill="#C4C4C4" fill-opacity="0.05"/>
<path d="M136.725 554.287H124.693V575H104.049V554.287H61.3926V539.59L105.211 475.059H124.693V537.881H136.725V554.287ZM104.049 537.881V520.928C104.049 518.102 104.163 514.001 104.391 508.623C104.618 503.245 104.801 500.124 104.938 499.258H104.391C102.704 502.995 100.676 506.641 98.3066 510.195L79.9863 537.881H104.049ZM180.953 511.152C190.615 511.152 198.294 513.864 203.99 519.287C209.732 524.71 212.604 532.139 212.604 541.572C212.604 552.738 209.163 561.328 202.281 567.344C195.4 573.359 185.556 576.367 172.75 576.367C161.63 576.367 152.652 574.567 145.816 570.967V552.715C149.417 554.629 153.609 556.201 158.395 557.432C163.18 558.617 167.714 559.209 171.998 559.209C184.895 559.209 191.344 553.923 191.344 543.35C191.344 533.278 184.667 528.242 171.314 528.242C168.899 528.242 166.233 528.493 163.316 528.994C160.4 529.45 158.03 529.951 156.207 530.498L147.799 525.986L151.559 475.059H205.768V492.969H170.084L168.238 512.588L170.631 512.109C173.411 511.471 176.852 511.152 180.953 511.152ZM259.02 473.76C268.59 473.76 276.292 475.947 282.125 480.322C288.004 484.652 290.943 490.508 290.943 497.891C290.943 502.995 289.531 507.552 286.705 511.562C283.88 515.527 279.322 519.082 273.033 522.227C280.507 526.237 285.862 530.43 289.098 534.805C292.379 539.134 294.02 543.896 294.02 549.092C294.02 557.295 290.807 563.903 284.381 568.916C277.955 573.883 269.501 576.367 259.02 576.367C248.082 576.367 239.492 574.043 233.248 569.395C227.005 564.746 223.883 558.161 223.883 549.639C223.883 543.942 225.387 538.883 228.395 534.463C231.448 530.042 236.324 526.146 243.023 522.773C237.327 519.173 233.225 515.322 230.719 511.221C228.212 507.119 226.959 502.63 226.959 497.754C226.959 490.599 229.921 484.811 235.846 480.391C241.77 475.97 249.495 473.76 259.02 473.76ZM243.434 548.408C243.434 552.327 244.801 555.381 247.535 557.568C250.27 559.756 254.007 560.85 258.746 560.85C263.987 560.85 267.906 559.733 270.504 557.5C273.102 555.221 274.4 552.236 274.4 548.545C274.4 545.492 273.102 542.643 270.504 540C267.952 537.311 263.782 534.463 257.994 531.455C248.287 535.921 243.434 541.572 243.434 548.408ZM258.883 489.209C255.283 489.209 252.366 490.143 250.133 492.012C247.945 493.835 246.852 496.296 246.852 499.395C246.852 502.129 247.717 504.59 249.449 506.777C251.227 508.919 254.417 511.13 259.02 513.408C263.486 511.312 266.607 509.17 268.385 506.982C270.162 504.795 271.051 502.266 271.051 499.395C271.051 496.25 269.911 493.766 267.633 491.943C265.354 490.12 262.438 489.209 258.883 489.209ZM350.826 575L388.355 492.969H339.068V475.195H410.777V488.457L372.975 575H350.826ZM455.348 473.76C464.918 473.76 472.62 475.947 478.453 480.322C484.332 484.652 487.271 490.508 487.271 497.891C487.271 502.995 485.859 507.552 483.033 511.562C480.208 515.527 475.65 519.082 469.361 522.227C476.835 526.237 482.19 530.43 485.426 534.805C488.707 539.134 490.348 543.896 490.348 549.092C490.348 557.295 487.135 563.903 480.709 568.916C474.283 573.883 465.829 576.367 455.348 576.367C444.41 576.367 435.82 574.043 429.576 569.395C423.333 564.746 420.211 558.161 420.211 549.639C420.211 543.942 421.715 538.883 424.723 534.463C427.776 530.042 432.652 526.146 439.352 522.773C433.655 519.173 429.553 515.322 427.047 511.221C424.54 507.119 423.287 502.63 423.287 497.754C423.287 490.599 426.249 484.811 432.174 480.391C438.098 475.97 445.823 473.76 455.348 473.76ZM439.762 548.408C439.762 552.327 441.129 555.381 443.863 557.568C446.598 559.756 450.335 560.85 455.074 560.85C460.315 560.85 464.234 559.733 466.832 557.5C469.43 555.221 470.729 552.236 470.729 548.545C470.729 545.492 469.43 542.643 466.832 540C464.28 537.311 460.11 534.463 454.322 531.455C444.615 535.921 439.762 541.572 439.762 548.408ZM455.211 489.209C451.611 489.209 448.694 490.143 446.461 492.012C444.273 493.835 443.18 496.296 443.18 499.395C443.18 502.129 444.046 504.59 445.777 506.777C447.555 508.919 450.745 511.13 455.348 513.408C459.814 511.312 462.936 509.17 464.713 506.982C466.49 504.795 467.379 502.266 467.379 499.395C467.379 496.25 466.24 493.766 463.961 491.943C461.682 490.12 458.766 489.209 455.211 489.209ZM570.191 525.029C570.191 542.484 567.32 555.404 561.578 563.789C555.882 572.174 547.086 576.367 535.191 576.367C523.661 576.367 514.957 572.038 509.078 563.379C503.245 554.72 500.328 541.937 500.328 525.029C500.328 507.393 503.176 494.404 508.873 486.064C514.57 477.679 523.342 473.486 535.191 473.486C546.721 473.486 555.426 477.861 561.305 486.611C567.229 495.361 570.191 508.167 570.191 525.029ZM521.314 525.029C521.314 537.288 522.363 546.084 524.459 551.416C526.601 556.702 530.178 559.346 535.191 559.346C540.113 559.346 543.668 556.657 545.855 551.279C548.043 545.902 549.137 537.152 549.137 525.029C549.137 512.77 548.02 503.975 545.787 498.643C543.6 493.265 540.068 490.576 535.191 490.576C530.224 490.576 526.669 493.265 524.527 498.643C522.385 503.975 521.314 512.77 521.314 525.029ZM135.611 675H121.695V631.982L120.914 635.01C119.156 641.878 117.577 647.07 116.178 650.586L106.51 675H95.9141L86.0996 650.391C84.6999 646.81 83.2025 641.781 81.6074 635.303L80.6797 631.982V675H66.8125V620.41H87.3203L96.6953 643.701C97.6719 646.208 98.5671 649.089 99.3809 652.344C100.227 655.599 100.797 658.382 101.09 660.693C102.164 655.811 102.994 652.311 103.58 650.195C104.199 648.047 104.866 646.077 105.582 644.287C106.298 642.497 109.537 634.538 115.299 620.41H135.611V675ZM200.162 675H185.27V631.592H171.549C170.507 643.799 169.238 652.913 167.74 658.936C166.243 664.925 164.241 669.271 161.734 671.973C159.26 674.642 156.005 675.977 151.969 675.977C148.518 675.977 145.686 675.456 143.473 674.414V662.5C145.068 663.151 146.663 663.477 148.258 663.477C150.113 663.477 151.66 662.142 152.896 659.473C154.166 656.803 155.289 652.36 156.266 646.143C157.275 639.893 158.137 631.315 158.854 620.41H200.162V675ZM230.729 620.41V641.406H251.529V620.41H266.422V675H251.529V652.49H230.729V675H215.836V620.41H230.729ZM309.211 675V664.3H301.211V654.6H309.211V646.8H301.211V634.4H309.211V603.6H332.011C341.211 603.6 347.911 605.467 352.111 609.2C356.378 612.933 358.511 618.067 358.511 624.6C358.511 628.467 357.644 632.1 355.911 635.5C354.178 638.9 351.278 641.633 347.211 643.7C343.211 645.767 337.744 646.8 330.811 646.8H324.311V654.6H339.711V664.3H324.311V675H309.211ZM329.311 634.4C333.578 634.4 336.944 633.667 339.411 632.2C341.944 630.733 343.211 628.367 343.211 625.1C343.211 619.033 339.211 616 331.211 616H324.311V634.4H329.311Z" fill="#01F859"/>
<path d="M159.134 394.263C159.134 397.808 158.255 400.532 156.497 402.437C154.739 404.341 152.22 405.293 148.938 405.293C145.657 405.293 143.138 404.341 141.38 402.437C139.622 400.532 138.743 397.798 138.743 394.233C138.743 390.669 139.622 387.949 141.38 386.074C143.147 384.189 145.677 383.247 148.968 383.247C152.259 383.247 154.773 384.194 156.512 386.089C158.26 387.983 159.134 390.708 159.134 394.263ZM143.504 394.263C143.504 396.655 143.958 398.457 144.866 399.668C145.774 400.879 147.132 401.484 148.938 401.484C152.562 401.484 154.373 399.077 154.373 394.263C154.373 389.438 152.571 387.026 148.968 387.026C147.161 387.026 145.799 387.637 144.881 388.857C143.963 390.068 143.504 391.87 143.504 394.263ZM162.225 395.186C162.225 391.426 162.938 388.574 164.363 386.631C165.799 384.678 168.035 383.442 171.072 382.925C172.547 382.671 174.749 382.349 177.679 381.958L178.191 385.854C176.922 386.001 174.671 386.313 171.438 386.792C170.208 386.987 169.29 387.28 168.685 387.671C168.079 388.062 167.625 388.618 167.322 389.341C167.029 390.063 166.849 391.025 166.78 392.227H167C167.518 391.426 168.201 390.811 169.051 390.381C169.9 389.951 170.813 389.736 171.79 389.736C173.812 389.736 175.384 390.356 176.507 391.597C177.63 392.827 178.191 394.595 178.191 396.899C178.191 399.556 177.479 401.621 176.053 403.096C174.637 404.561 172.679 405.293 170.179 405.293C167.679 405.293 165.726 404.399 164.319 402.612C162.923 400.815 162.225 398.34 162.225 395.186ZM170.442 401.675C172.562 401.675 173.621 400.215 173.621 397.295C173.621 394.453 172.664 393.032 170.75 393.032C170.223 393.032 169.695 393.154 169.168 393.398C168.65 393.643 168.172 393.965 167.732 394.365C167.303 394.756 166.985 395.151 166.78 395.552C166.78 397.534 167.098 399.053 167.732 400.107C168.367 401.152 169.271 401.675 170.442 401.675ZM189.236 388.623V394.951H192.386C194.905 394.951 196.766 395.352 197.967 396.152C199.178 396.953 199.783 398.164 199.783 399.785C199.783 403.262 197.376 405 192.562 405H184.754V391.978H179.539V388.623H189.236ZM195.315 399.844C195.315 399.209 195.062 398.75 194.554 398.467C194.056 398.184 193.299 398.042 192.283 398.042H189.236V401.909H192.342C194.324 401.909 195.315 401.221 195.315 399.844ZM209.964 391.494C209.017 391.494 208.274 391.797 207.737 392.402C207.2 392.998 206.893 393.848 206.814 394.951H213.084C213.064 393.848 212.776 392.998 212.22 392.402C211.663 391.797 210.911 391.494 209.964 391.494ZM210.594 405.293C207.957 405.293 205.896 404.565 204.412 403.11C202.928 401.655 202.186 399.595 202.186 396.929C202.186 394.185 202.869 392.065 204.236 390.571C205.613 389.067 207.513 388.315 209.935 388.315C212.249 388.315 214.051 388.975 215.34 390.293C216.629 391.611 217.273 393.433 217.273 395.757V397.925H206.712C206.761 399.194 207.137 400.186 207.84 400.898C208.543 401.611 209.529 401.968 210.799 401.968C211.785 401.968 212.718 401.865 213.597 401.66C214.476 401.455 215.394 401.128 216.351 400.679V404.136C215.569 404.526 214.734 404.814 213.846 405C212.957 405.195 211.873 405.293 210.594 405.293ZM204.954 384.419C204.954 383.784 205.135 383.296 205.496 382.954C205.867 382.612 206.365 382.441 206.99 382.441C207.635 382.441 208.138 382.622 208.499 382.983C208.87 383.345 209.056 383.823 209.056 384.419C209.056 385.005 208.87 385.479 208.499 385.84C208.128 386.191 207.625 386.367 206.99 386.367C206.365 386.367 205.867 386.196 205.496 385.854C205.135 385.513 204.954 385.034 204.954 384.419ZM210.857 384.419C210.857 383.735 211.053 383.237 211.443 382.925C211.844 382.603 212.337 382.441 212.923 382.441C213.558 382.441 214.061 382.617 214.432 382.969C214.812 383.32 215.003 383.804 215.003 384.419C215.003 385.015 214.812 385.488 214.432 385.84C214.051 386.191 213.548 386.367 212.923 386.367C212.337 386.367 211.844 386.211 211.443 385.898C211.053 385.576 210.857 385.083 210.857 384.419ZM241.546 405H237.371V392.095L237.137 393.003C236.609 395.063 236.136 396.621 235.716 397.676L232.815 405H229.637L226.692 397.617C226.272 396.543 225.823 395.034 225.345 393.091L225.066 392.095V405H220.906V388.623H227.059L229.871 395.61C230.164 396.362 230.433 397.227 230.677 398.203C230.931 399.18 231.102 400.015 231.189 400.708C231.512 399.243 231.761 398.193 231.937 397.559C232.122 396.914 232.322 396.323 232.537 395.786C232.752 395.249 233.724 392.861 235.452 388.623H241.546V405ZM258.362 388.623V395.098C258.362 395.781 258.25 397.451 258.025 400.107L265.584 388.623H270.96V405H266.639V398.467C266.639 397.305 266.736 395.664 266.932 393.545L259.402 405H254.041V388.623H258.362ZM280.13 388.623V394.922H286.37V388.623H290.838V405H286.37V398.247H280.13V405H275.662V388.623H280.13ZM310.643 392.915C310.643 393.794 310.364 394.546 309.808 395.171C309.261 395.786 308.45 396.182 307.376 396.357V396.475C308.538 396.611 309.456 397.012 310.13 397.676C310.813 398.33 311.155 399.141 311.155 400.107C311.155 401.699 310.53 402.915 309.28 403.755C308.03 404.585 306.243 405 303.919 405H295.525V388.623H303.919C306.165 388.623 307.845 388.989 308.958 389.722C310.081 390.444 310.643 391.509 310.643 392.915ZM306.526 399.873C306.526 399.229 306.277 398.765 305.779 398.481C305.281 398.188 304.534 398.042 303.538 398.042H299.993V401.909H303.626C304.573 401.909 305.291 401.733 305.779 401.382C306.277 401.021 306.526 400.518 306.526 399.873ZM306.116 393.267C306.116 392.271 305.325 391.772 303.743 391.772H299.993V395.01H303.23C304.178 395.01 304.896 394.873 305.384 394.6C305.872 394.326 306.116 393.882 306.116 393.267ZM321.497 391.494C320.55 391.494 319.808 391.797 319.271 392.402C318.733 392.998 318.426 393.848 318.348 394.951H324.617C324.598 393.848 324.31 392.998 323.753 392.402C323.196 391.797 322.444 391.494 321.497 391.494ZM322.127 405.293C319.49 405.293 317.43 404.565 315.945 403.11C314.461 401.655 313.719 399.595 313.719 396.929C313.719 394.185 314.402 392.065 315.77 390.571C317.146 389.067 319.046 388.315 321.468 388.315C323.782 388.315 325.584 388.975 326.873 390.293C328.162 391.611 328.807 393.433 328.807 395.757V397.925H318.245C318.294 399.194 318.67 400.186 319.373 400.898C320.076 401.611 321.062 401.968 322.332 401.968C323.318 401.968 324.251 401.865 325.13 401.66C326.009 401.455 326.927 401.128 327.884 400.679V404.136C327.103 404.526 326.268 404.814 325.379 405C324.49 405.195 323.406 405.293 322.127 405.293ZM339.09 405.293C333.992 405.293 331.443 402.495 331.443 396.899C331.443 394.116 332.137 391.992 333.523 390.527C334.91 389.053 336.897 388.315 339.485 388.315C341.38 388.315 343.079 388.687 344.583 389.429L343.265 392.886C342.562 392.603 341.907 392.373 341.302 392.197C340.696 392.012 340.091 391.919 339.485 391.919C337.161 391.919 335.999 393.569 335.999 396.87C335.999 400.073 337.161 401.675 339.485 401.675C340.345 401.675 341.141 401.562 341.873 401.338C342.605 401.104 343.338 400.742 344.07 400.254V404.077C343.348 404.536 342.615 404.854 341.873 405.029C341.141 405.205 340.213 405.293 339.09 405.293ZM361.429 388.623V391.978H356.067V405H351.6V391.978H346.224V388.623H361.429ZM368.812 388.623V395.098C368.812 395.781 368.699 397.451 368.475 400.107L376.033 388.623H381.409V405H377.088V398.467C377.088 397.305 377.186 395.664 377.381 393.545L369.852 405H364.49V388.623H368.812ZM401.595 401.733H403.982V410.874H399.969V405H386.111V388.623H390.579V401.646H397.112V388.623H401.595V401.733ZM411.087 388.623V395.098C411.087 395.781 410.975 397.451 410.75 400.107L418.309 388.623H423.685V405H419.363V398.467C419.363 397.305 419.461 395.664 419.656 393.545L412.127 405H406.766V388.623H411.087ZM432.708 388.623V395.098C432.708 395.781 432.596 397.451 432.371 400.107L439.93 388.623H445.306V405H440.984V398.467C440.984 397.305 441.082 395.664 441.277 393.545L433.748 405H428.387V388.623H432.708ZM443.987 381.577C443.802 383.403 443.113 384.736 441.922 385.576C440.73 386.406 439.012 386.821 436.766 386.821C434.451 386.821 432.737 386.421 431.624 385.62C430.521 384.819 429.9 383.472 429.764 381.577H433.763C433.831 382.583 434.08 383.291 434.51 383.701C434.949 384.102 435.73 384.302 436.854 384.302C437.84 384.302 438.572 384.082 439.051 383.643C439.539 383.193 439.837 382.505 439.944 381.577H443.987Z" fill="white"/>
<path d="M71.6221 377.517L93.1496 371.85L92.0126 369.628C91.2698 368.18 89.4505 367.588 87.9497 368.304L68.681 377.517H71.6221Z" fill="white"/>
<path d="M99.8263 372.011C99.561 372.011 99.2957 372.048 99.0228 372.113L78.5186 377.509H103.692L102.745 374.161C102.388 372.867 101.16 372.011 99.8263 372.011Z" fill="white"/>
<path d="M106.861 379.562H62.0396C61.0845 379.562 60.228 379.986 59.667 380.659C59.4093 380.966 59.2198 381.324 59.1061 381.719C59.0379 381.968 59 382.224 59 382.487V415.075C59 416.691 60.3568 418 62.032 418H106.853C108.528 418 109.885 416.691 109.885 415.075V406.915H91.8901C89.0475 406.915 86.7356 404.685 86.7356 401.943V395.436C86.7356 394.091 87.2965 392.87 88.1986 391.97C89.002 391.173 90.0708 390.64 91.2761 390.501C91.4732 390.479 91.6854 390.464 91.8901 390.464H109.885V382.487C109.893 380.871 108.528 379.562 106.861 379.562Z" fill="white"/>
<path d="M112.015 393.267C111.711 392.996 111.355 392.791 110.953 392.66C110.643 392.557 110.317 392.499 109.968 392.499H91.8894C90.2142 392.499 88.8574 393.808 88.8574 395.423V401.931C88.8574 403.547 90.2142 404.856 91.8894 404.856H109.968C110.317 404.856 110.643 404.797 110.953 404.695C111.355 404.563 111.711 404.358 112.015 404.088C112.621 403.554 113 402.786 113 401.931V395.423C113 394.575 112.621 393.8 112.015 393.267ZM98.2188 399.262C98.2188 400.066 97.5366 400.724 96.7028 400.724H95.6946C94.8608 400.724 94.1786 400.066 94.1786 399.262V398.29C94.1786 397.822 94.406 397.405 94.7623 397.142C95.02 396.952 95.3459 396.827 95.6946 396.827H96.7028C97.5366 396.827 98.2188 397.485 98.2188 398.29V399.262Z" fill="white"/>
<path d="M895.309 473.002H880.221V431.693L880.367 424.906L880.611 417.484C878.105 419.991 876.363 421.635 875.387 422.416L867.184 429.008L859.908 419.926L882.906 401.615H895.309V473.002ZM990.719 432.084C990.719 446.146 987.757 456.645 981.832 463.578C975.908 470.512 966.939 473.979 954.928 473.979C950.696 473.979 947.49 473.751 945.309 473.295V461.186C948.043 461.869 950.908 462.211 953.902 462.211C958.948 462.211 963.098 461.479 966.354 460.014C969.609 458.516 972.099 456.189 973.824 453.031C975.549 449.841 976.542 445.463 976.803 439.896H976.217C974.329 442.956 972.148 445.105 969.674 446.342C967.2 447.579 964.107 448.197 960.396 448.197C954.179 448.197 949.28 446.212 945.699 442.24C942.118 438.236 940.328 432.686 940.328 425.59C940.328 417.94 942.493 411.902 946.822 407.475C951.184 403.015 957.109 400.785 964.596 400.785C969.869 400.785 974.475 402.022 978.414 404.496C982.385 406.97 985.429 410.567 987.545 415.287C989.661 419.975 990.719 425.574 990.719 432.084ZM964.889 412.895C961.764 412.895 959.322 413.969 957.564 416.117C955.807 418.266 954.928 421.358 954.928 425.395C954.928 428.845 955.725 431.579 957.32 433.598C958.915 435.616 961.34 436.625 964.596 436.625C967.656 436.625 970.276 435.632 972.457 433.646C974.638 431.628 975.729 429.317 975.729 426.713C975.729 422.839 974.703 419.568 972.652 416.898C970.634 414.229 968.046 412.895 964.889 412.895ZM1045.36 417.582C1045.36 422.042 1044.01 425.834 1041.3 428.959C1038.6 432.084 1034.81 434.232 1029.93 435.404V435.697C1035.69 436.413 1040.05 438.171 1043.01 440.971C1045.98 443.738 1047.46 447.481 1047.46 452.201C1047.46 459.07 1044.97 464.424 1039.99 468.266C1035.01 472.074 1027.89 473.979 1018.65 473.979C1010.9 473.979 1004.03 472.693 998.043 470.121V457.279C1000.81 458.679 1003.85 459.818 1007.17 460.697C1010.49 461.576 1013.78 462.016 1017.04 462.016C1022.02 462.016 1025.7 461.169 1028.07 459.477C1030.45 457.784 1031.64 455.066 1031.64 451.322C1031.64 447.969 1030.27 445.593 1027.54 444.193C1024.8 442.794 1020.44 442.094 1014.45 442.094H1009.03V430.521H1014.55C1020.08 430.521 1024.12 429.805 1026.66 428.373C1029.23 426.908 1030.51 424.418 1030.51 420.902C1030.51 415.499 1027.13 412.797 1020.36 412.797C1018.01 412.797 1015.62 413.188 1013.18 413.969C1010.77 414.75 1008.09 416.101 1005.12 418.021L998.141 407.621C1004.65 402.934 1012.41 400.59 1021.43 400.59C1028.82 400.59 1034.65 402.087 1038.91 405.082C1043.21 408.077 1045.36 412.243 1045.36 417.582ZM1092.67 473.002H1077.58V431.693L1077.73 424.906L1077.97 417.484C1075.47 419.991 1073.73 421.635 1072.75 422.416L1064.55 429.008L1057.27 419.926L1080.27 401.615H1092.67V473.002Z" fill="#01F859"/>
<path d="M930.695 336.586H934.782V346.928L934.724 349.696L934.577 352.846H934.665L944.553 336.586H949.987V358.002H945.944V347.719C945.944 346.342 946.032 344.301 946.208 341.596H946.091L936.159 358.002H930.695V336.586ZM959.509 341.625V347.924H965.749V341.625H970.217V358.002H965.749V351.249H959.509V358.002H955.041V341.625H959.509ZM990.021 345.917C990.021 346.796 989.743 347.548 989.187 348.173C988.64 348.788 987.829 349.184 986.755 349.359V349.477C987.917 349.613 988.835 350.014 989.509 350.678C990.192 351.332 990.534 352.143 990.534 353.109C990.534 354.701 989.909 355.917 988.659 356.757C987.409 357.587 985.622 358.002 983.298 358.002H974.904V341.625H983.298C985.544 341.625 987.224 341.991 988.337 342.724C989.46 343.446 990.021 344.511 990.021 345.917ZM985.905 352.875C985.905 352.23 985.656 351.767 985.158 351.483C984.66 351.19 983.913 351.044 982.917 351.044H979.372V354.911H983.005C983.952 354.911 984.67 354.735 985.158 354.384C985.656 354.022 985.905 353.52 985.905 352.875ZM985.495 346.269C985.495 345.272 984.704 344.774 983.122 344.774H979.372V348.012H982.609C983.557 348.012 984.274 347.875 984.763 347.602C985.251 347.328 985.495 346.884 985.495 346.269ZM1000.88 344.496C999.929 344.496 999.187 344.799 998.649 345.404C998.112 346 997.805 346.85 997.727 347.953H1004C1003.98 346.85 1003.69 346 1003.13 345.404C1002.58 344.799 1001.82 344.496 1000.88 344.496ZM1001.51 358.295C998.869 358.295 996.809 357.567 995.324 356.112C993.84 354.657 993.098 352.597 993.098 349.931C993.098 347.187 993.781 345.067 995.148 343.573C996.525 342.069 998.425 341.317 1000.85 341.317C1003.16 341.317 1004.96 341.977 1006.25 343.295C1007.54 344.613 1008.19 346.435 1008.19 348.759V350.927H997.624C997.673 352.196 998.049 353.188 998.752 353.9C999.455 354.613 1000.44 354.97 1001.71 354.97C1002.7 354.97 1003.63 354.867 1004.51 354.662C1005.39 354.457 1006.31 354.13 1007.26 353.681V357.138C1006.48 357.528 1005.65 357.816 1004.76 358.002C1003.87 358.197 1002.79 358.295 1001.51 358.295ZM1018.47 358.295C1013.37 358.295 1010.82 355.497 1010.82 349.901C1010.82 347.118 1011.52 344.994 1012.9 343.529C1014.29 342.055 1016.28 341.317 1018.86 341.317C1020.76 341.317 1022.46 341.688 1023.96 342.431L1022.64 345.888C1021.94 345.604 1021.29 345.375 1020.68 345.199C1020.08 345.014 1019.47 344.921 1018.86 344.921C1016.54 344.921 1015.38 346.571 1015.38 349.872C1015.38 353.075 1016.54 354.677 1018.86 354.677C1019.72 354.677 1020.52 354.564 1021.25 354.34C1021.98 354.105 1022.72 353.744 1023.45 353.256V357.079C1022.73 357.538 1021.99 357.855 1021.25 358.031C1020.52 358.207 1019.59 358.295 1018.47 358.295ZM1040.81 341.625V344.979H1035.45V358.002H1030.98V344.979H1025.6V341.625H1040.81ZM1066.54 341.625V358.002H1062.06V344.979H1056.13V358.002H1051.66V341.625H1066.54ZM1080.23 358.295C1078.3 358.295 1076.79 357.597 1075.7 356.2H1075.47C1075.62 357.567 1075.7 358.358 1075.7 358.573V365.209H1071.23V341.625H1074.87L1075.5 343.749H1075.7C1076.75 342.128 1078.29 341.317 1080.34 341.317C1082.28 341.317 1083.79 342.064 1084.88 343.559C1085.98 345.053 1086.53 347.128 1086.53 349.784C1086.53 351.532 1086.27 353.051 1085.75 354.34C1085.24 355.629 1084.51 356.61 1083.57 357.284C1082.62 357.958 1081.51 358.295 1080.23 358.295ZM1078.91 344.892C1077.8 344.892 1077 345.233 1076.49 345.917C1075.98 346.591 1075.72 347.709 1075.7 349.271V349.755C1075.7 351.513 1075.96 352.772 1076.48 353.534C1077 354.296 1077.83 354.677 1078.97 354.677C1080.97 354.677 1081.97 353.026 1081.97 349.726C1081.97 348.114 1081.72 346.908 1081.22 346.107C1080.73 345.297 1079.96 344.892 1078.91 344.892ZM1093.78 349.784C1093.78 351.405 1094.04 352.631 1094.57 353.461C1095.1 354.291 1095.97 354.706 1097.17 354.706C1098.37 354.706 1099.22 354.296 1099.74 353.476C1100.27 352.646 1100.53 351.415 1100.53 349.784C1100.53 348.163 1100.27 346.947 1099.74 346.137C1099.21 345.326 1098.35 344.921 1097.15 344.921C1095.95 344.921 1095.09 345.326 1094.57 346.137C1094.04 346.938 1093.78 348.153 1093.78 349.784ZM1105.1 349.784C1105.1 352.45 1104.4 354.535 1102.99 356.039C1101.58 357.543 1099.63 358.295 1097.12 358.295C1095.54 358.295 1094.16 357.953 1092.96 357.27C1091.75 356.576 1090.83 355.585 1090.19 354.296C1089.54 353.007 1089.22 351.503 1089.22 349.784C1089.22 347.108 1089.92 345.028 1091.32 343.544C1092.71 342.06 1094.67 341.317 1097.2 341.317C1098.78 341.317 1100.16 341.659 1101.36 342.343C1102.57 343.026 1103.49 344.008 1104.13 345.287C1104.78 346.566 1105.1 348.065 1105.1 349.784ZM1115.57 344.496C1114.63 344.496 1113.88 344.799 1113.35 345.404C1112.81 346 1112.5 346.85 1112.42 347.953H1118.69C1118.67 346.85 1118.39 346 1117.83 345.404C1117.27 344.799 1116.52 344.496 1115.57 344.496ZM1116.2 358.295C1113.57 358.295 1111.51 357.567 1110.02 356.112C1108.54 354.657 1107.79 352.597 1107.79 349.931C1107.79 347.187 1108.48 345.067 1109.85 343.573C1111.22 342.069 1113.12 341.317 1115.54 341.317C1117.86 341.317 1119.66 341.977 1120.95 343.295C1122.24 344.613 1122.88 346.435 1122.88 348.759V350.927H1112.32C1112.37 352.196 1112.75 353.188 1113.45 353.9C1114.15 354.613 1115.14 354.97 1116.41 354.97C1117.39 354.97 1118.33 354.867 1119.21 354.662C1120.08 354.457 1121 354.13 1121.96 353.681V357.138C1121.18 357.528 1120.34 357.816 1119.46 358.002C1118.57 358.197 1117.48 358.295 1116.2 358.295ZM1137.25 341.625H1142.17L1135.69 349.477L1142.75 358.002H1137.68L1130.98 349.696V358.002H1126.52V341.625H1130.98V349.579L1137.25 341.625ZM1158.64 341.625V344.979H1153.28V358.002H1148.81V344.979H1143.43V341.625H1158.64ZM1166.17 347.953H1168.32C1170.82 347.953 1172.67 348.354 1173.87 349.154C1175.08 349.955 1175.68 351.166 1175.68 352.787C1175.68 354.516 1175.08 355.819 1173.87 356.698C1172.67 357.567 1170.88 358.002 1168.48 358.002H1161.7V341.625H1166.17V347.953ZM1171.21 352.846C1171.21 352.211 1170.95 351.752 1170.45 351.469C1169.94 351.186 1169.18 351.044 1168.18 351.044H1166.17V354.911H1168.23C1170.22 354.911 1171.21 354.223 1171.21 352.846ZM1182.52 358.002H1178.05V341.625H1182.52V358.002Z" fill="white"/>
<path d="M898.211 332.939H888.984V327.278C888.984 325.47 887.553 324 885.793 324H872.207C870.447 324 869.016 325.47 869.016 327.278V332.955H859.789C856.599 332.939 854 335.608 854 338.886V362.052C854 365.33 856.599 368 859.789 368H898.211C901.401 368 904 365.33 904 362.052V338.886C904 335.608 901.401 332.939 898.211 332.939ZM873.803 328.917H884.197V332.854H873.803V328.917ZM888.77 351.897C888.753 352.049 888.671 352.201 888.539 352.286C888.408 352.37 888.26 352.404 888.112 352.37C887.766 352.286 887.388 352.32 887.059 352.472C886.204 352.86 885.826 353.891 886.204 354.753C886.352 355.091 886.582 355.361 886.895 355.547C887.026 355.631 887.125 355.767 887.158 355.919C887.191 356.071 887.158 356.24 887.076 356.358C886.5 357.203 885.793 357.963 884.97 358.588C884.839 358.69 884.691 358.724 884.543 358.69C884.395 358.656 884.263 358.571 884.181 358.436C883.984 358.115 883.704 357.862 883.359 357.743C883.161 357.676 882.964 357.625 882.75 357.625C882.059 357.625 881.434 358.065 881.171 358.74C881.039 359.078 881.023 359.45 881.122 359.805C881.171 359.957 881.138 360.126 881.056 360.261C880.974 360.396 880.842 360.481 880.678 360.515C880.135 360.616 879.576 360.667 879 360.667C878.556 360.667 878.095 360.633 877.635 360.565C877.487 360.548 877.339 360.464 877.257 360.329C877.174 360.194 877.141 360.025 877.174 359.873C877.257 359.501 877.224 359.129 877.076 358.774C876.813 358.149 876.204 357.743 875.53 357.743C875.299 357.743 875.069 357.794 874.855 357.896C874.526 358.048 874.263 358.284 874.082 358.605C874 358.74 873.868 358.842 873.72 358.876C873.572 358.909 873.408 358.876 873.276 358.791C872.454 358.183 871.714 357.456 871.105 356.628C871.007 356.493 870.974 356.341 871.007 356.189C871.039 356.037 871.122 355.902 871.253 355.817C871.566 355.614 871.812 355.327 871.944 354.972C872.109 354.533 872.092 354.077 871.911 353.654C871.73 353.232 871.401 352.911 870.974 352.742C870.645 352.607 870.283 352.59 869.954 352.691C869.806 352.725 869.641 352.708 869.51 352.624C869.378 352.539 869.296 352.404 869.263 352.235C869.099 351.221 869.082 350.174 869.23 349.143C869.247 348.991 869.329 348.839 869.461 348.754C869.592 348.67 869.74 348.636 869.888 348.67C870.234 348.754 870.612 348.72 870.941 348.568C871.352 348.382 871.664 348.045 871.829 347.605C871.993 347.166 871.977 346.71 871.796 346.287C871.648 345.966 871.418 345.696 871.122 345.51C870.99 345.426 870.891 345.29 870.859 345.138C870.826 344.986 870.859 344.817 870.941 344.699C871.516 343.854 872.224 343.111 873.046 342.485C873.161 342.384 873.326 342.35 873.474 342.384C873.622 342.418 873.753 342.502 873.836 342.637C874.033 342.959 874.312 343.178 874.641 343.313C874.839 343.398 875.036 343.432 875.25 343.432C875.941 343.432 876.566 342.992 876.829 342.316C876.944 341.995 876.977 341.641 876.895 341.286C876.862 341.134 876.878 340.965 876.977 340.846C877.059 340.711 877.191 340.627 877.339 340.593C878.326 340.424 879.345 340.407 880.332 340.542C880.48 340.559 880.628 340.644 880.711 340.779C880.793 340.914 880.826 341.066 880.793 341.218C880.727 341.573 880.76 341.945 880.908 342.266C881.188 342.891 881.78 343.296 882.454 343.296C882.684 343.296 882.914 343.246 883.128 343.144C883.441 342.992 883.704 342.756 883.885 342.469C883.967 342.333 884.099 342.232 884.247 342.215C884.395 342.181 884.559 342.215 884.674 342.3C885.497 342.891 886.22 343.618 886.829 344.445C886.928 344.564 886.961 344.733 886.928 344.885C886.895 345.037 886.812 345.172 886.681 345.257C886.368 345.459 886.155 345.747 886.023 346.084C885.694 346.98 886.122 347.977 886.993 348.315C887.306 348.45 887.668 348.467 888.013 348.382C888.161 348.349 888.326 348.366 888.457 348.45C888.589 348.535 888.671 348.67 888.704 348.822C888.885 349.836 888.901 350.866 888.77 351.897Z" fill="white"/>
<path d="M879 346.186C878.408 346.186 877.832 346.321 877.273 346.558C875.135 347.538 874.181 350.106 875.118 352.303C875.793 353.874 877.322 354.888 878.984 354.888C879.576 354.888 880.151 354.77 880.711 354.516C882.849 353.536 883.803 350.968 882.865 348.771C882.191 347.2 880.678 346.186 879 346.186Z" fill="white"/>
<path d="M895.309 723.002H880.221V681.693L880.367 674.906L880.611 667.484C878.105 669.991 876.363 671.635 875.387 672.416L867.184 679.008L859.908 669.926L882.906 651.615H895.309V723.002ZM914.645 692.68C914.645 678.552 917.623 668.038 923.58 661.137C929.57 654.236 938.521 650.785 950.436 650.785C954.505 650.785 957.695 651.029 960.006 651.518V663.578C957.109 662.927 954.244 662.602 951.412 662.602C946.236 662.602 942.005 663.383 938.717 664.945C935.462 666.508 933.02 668.819 931.393 671.879C929.765 674.939 928.805 679.285 928.512 684.916H929.146C932.369 679.382 937.529 676.615 944.625 676.615C951.005 676.615 956.002 678.617 959.615 682.621C963.229 686.625 965.035 692.159 965.035 699.223C965.035 706.84 962.887 712.878 958.59 717.338C954.293 721.765 948.336 723.979 940.719 723.979C935.445 723.979 930.839 722.758 926.9 720.316C922.994 717.875 919.967 714.311 917.818 709.623C915.702 704.936 914.645 699.288 914.645 692.68ZM940.426 711.918C943.648 711.918 946.122 710.844 947.848 708.695C949.573 706.514 950.436 703.422 950.436 699.418C950.436 695.935 949.622 693.201 947.994 691.215C946.399 689.197 943.974 688.188 940.719 688.188C937.659 688.188 935.038 689.18 932.857 691.166C930.709 693.152 929.635 695.463 929.635 698.1C929.635 701.973 930.644 705.245 932.662 707.914C934.713 710.583 937.301 711.918 940.426 711.918ZM1022.85 650.688C1029.68 650.688 1035.18 652.25 1039.35 655.375C1043.55 658.467 1045.65 662.65 1045.65 667.924C1045.65 671.57 1044.64 674.825 1042.62 677.689C1040.6 680.521 1037.35 683.061 1032.86 685.307C1038.2 688.171 1042.02 691.166 1044.33 694.291C1046.68 697.383 1047.85 700.785 1047.85 704.496C1047.85 710.355 1045.55 715.076 1040.96 718.656C1036.37 722.204 1030.33 723.979 1022.85 723.979C1015.04 723.979 1008.9 722.318 1004.44 718.998C999.98 715.678 997.75 710.974 997.75 704.887C997.75 700.818 998.824 697.204 1000.97 694.047C1003.15 690.889 1006.64 688.106 1011.42 685.697C1007.35 683.126 1004.42 680.375 1002.63 677.445C1000.84 674.516 999.947 671.309 999.947 667.826C999.947 662.715 1002.06 658.581 1006.29 655.424C1010.53 652.266 1016.04 650.688 1022.85 650.688ZM1011.71 704.008C1011.71 706.807 1012.69 708.988 1014.64 710.551C1016.6 712.113 1019.27 712.895 1022.65 712.895C1026.4 712.895 1029.2 712.097 1031.05 710.502C1032.91 708.874 1033.83 706.742 1033.83 704.105C1033.83 701.924 1032.91 699.89 1031.05 698.002C1029.23 696.081 1026.25 694.047 1022.12 691.898C1015.18 695.089 1011.71 699.125 1011.71 704.008ZM1022.75 661.723C1020.18 661.723 1018.1 662.39 1016.5 663.725C1014.94 665.027 1014.16 666.785 1014.16 668.998C1014.16 670.951 1014.77 672.709 1016.01 674.271C1017.28 675.801 1019.56 677.38 1022.85 679.008C1026.04 677.51 1028.27 675.98 1029.54 674.418C1030.81 672.855 1031.44 671.049 1031.44 668.998C1031.44 666.752 1030.63 664.978 1029 663.676C1027.37 662.374 1025.29 661.723 1022.75 661.723ZM1104.88 687.309C1104.88 699.776 1102.83 709.005 1098.73 714.994C1094.66 720.984 1088.38 723.979 1079.88 723.979C1071.64 723.979 1065.43 720.886 1061.23 714.701C1057.06 708.516 1054.98 699.385 1054.98 687.309C1054.98 674.711 1057.01 665.434 1061.08 659.477C1065.15 653.487 1071.42 650.492 1079.88 650.492C1088.11 650.492 1094.33 653.617 1098.53 659.867C1102.76 666.117 1104.88 675.264 1104.88 687.309ZM1069.97 687.309C1069.97 696.065 1070.72 702.348 1072.21 706.156C1073.74 709.932 1076.3 711.82 1079.88 711.82C1083.39 711.82 1085.93 709.9 1087.5 706.059C1089.06 702.217 1089.84 695.967 1089.84 687.309C1089.84 678.552 1089.04 672.27 1087.45 668.461C1085.88 664.62 1083.36 662.699 1079.88 662.699C1076.33 662.699 1073.79 664.62 1072.26 668.461C1070.73 672.27 1069.97 678.552 1069.97 687.309ZM1112.01 692.68C1112.01 678.552 1114.99 668.038 1120.94 661.137C1126.93 654.236 1135.88 650.785 1147.8 650.785C1151.87 650.785 1155.06 651.029 1157.37 651.518V663.578C1154.47 662.927 1151.61 662.602 1148.78 662.602C1143.6 662.602 1139.37 663.383 1136.08 664.945C1132.82 666.508 1130.38 668.819 1128.76 671.879C1127.13 674.939 1126.17 679.285 1125.88 684.916H1126.51C1129.73 679.382 1134.89 676.615 1141.99 676.615C1148.37 676.615 1153.37 678.617 1156.98 682.621C1160.59 686.625 1162.4 692.159 1162.4 699.223C1162.4 706.84 1160.25 712.878 1155.95 717.338C1151.66 721.765 1145.7 723.979 1138.08 723.979C1132.81 723.979 1128.2 722.758 1124.26 720.316C1120.36 717.875 1117.33 714.311 1115.18 709.623C1113.07 704.936 1112.01 699.288 1112.01 692.68ZM1137.79 711.918C1141.01 711.918 1143.49 710.844 1145.21 708.695C1146.94 706.514 1147.8 703.422 1147.8 699.418C1147.8 695.935 1146.99 693.201 1145.36 691.215C1143.76 689.197 1141.34 688.188 1138.08 688.188C1135.02 688.188 1132.4 689.18 1130.22 691.166C1128.07 693.152 1127 695.463 1127 698.1C1127 701.973 1128.01 705.245 1130.03 707.914C1132.08 710.583 1134.66 711.918 1137.79 711.918Z" fill="#01F859"/>
<path d="M930.792 590.058C929.083 590.058 927.76 590.702 926.822 591.991C925.885 593.271 925.416 595.058 925.416 597.353C925.416 602.128 927.208 604.516 930.792 604.516C932.296 604.516 934.117 604.14 936.256 603.388V607.196C934.498 607.929 932.535 608.295 930.367 608.295C927.252 608.295 924.869 607.353 923.219 605.468C921.568 603.573 920.743 600.858 920.743 597.323C920.743 595.097 921.148 593.148 921.959 591.479C922.77 589.799 923.932 588.515 925.445 587.626C926.969 586.728 928.751 586.278 930.792 586.278C932.872 586.278 934.962 586.781 937.062 587.787L935.597 591.479C934.796 591.098 933.99 590.766 933.18 590.482C932.369 590.199 931.573 590.058 930.792 590.058ZM944.034 599.784C944.034 601.405 944.298 602.631 944.825 603.461C945.362 604.291 946.231 604.706 947.433 604.706C948.624 604.706 949.479 604.296 949.996 603.476C950.523 602.646 950.787 601.415 950.787 599.784C950.787 598.163 950.523 596.947 949.996 596.137C949.469 595.326 948.604 594.921 947.403 594.921C946.212 594.921 945.353 595.326 944.825 596.137C944.298 596.938 944.034 598.153 944.034 599.784ZM955.357 599.784C955.357 602.45 954.654 604.535 953.248 606.039C951.842 607.543 949.884 608.295 947.374 608.295C945.802 608.295 944.415 607.953 943.214 607.27C942.013 606.576 941.09 605.585 940.445 604.296C939.801 603.007 939.479 601.503 939.479 599.784C939.479 597.108 940.177 595.028 941.573 593.544C942.97 592.06 944.933 591.317 947.462 591.317C949.034 591.317 950.421 591.659 951.622 592.343C952.823 593.026 953.746 594.008 954.391 595.287C955.035 596.566 955.357 598.065 955.357 599.784ZM963.121 597.924C964.811 597.924 966.007 597.787 966.71 597.514C967.423 597.24 967.779 596.806 967.779 596.21C967.779 595.683 967.521 595.287 967.003 595.023C966.485 594.76 965.631 594.628 964.439 594.628C963.688 594.628 962.833 594.721 961.876 594.906C960.929 595.092 960.064 595.346 959.283 595.668L957.965 592.548C959.127 592.108 960.255 591.796 961.349 591.61C962.442 591.415 963.663 591.317 965.011 591.317C967.052 591.317 968.688 591.708 969.918 592.489C971.148 593.271 971.764 594.33 971.764 595.668C971.764 597.514 970.675 598.715 968.497 599.271V599.418C969.835 599.75 970.787 600.224 971.354 600.839C971.93 601.444 972.218 602.24 972.218 603.227C972.218 604.223 971.896 605.106 971.251 605.878C970.606 606.649 969.674 607.245 968.453 607.665C967.232 608.085 965.797 608.295 964.146 608.295C961.412 608.295 959.312 607.958 957.848 607.284V603.593C958.688 603.983 959.605 604.291 960.602 604.516C961.607 604.74 962.579 604.853 963.517 604.853C964.972 604.853 966.061 604.691 966.783 604.369C967.506 604.037 967.867 603.568 967.867 602.963C967.867 602.299 967.486 601.811 966.725 601.498C965.963 601.176 964.791 601.015 963.209 601.015H961.48V597.924H963.121ZM985.973 604.735V594.979H982.618C982.374 596.796 982.037 598.52 981.607 600.15C981.188 601.781 980.602 603.31 979.85 604.735H985.973ZM992.843 613.876H988.829V608.002H977.813V613.876H973.8V604.735H975.177C976.114 603.28 976.9 601.444 977.535 599.228C978.17 597.011 978.614 594.477 978.868 591.625H990.44V604.735H992.843V613.876ZM1006.04 608.002L1005.18 605.775H1005.06C1004.31 606.723 1003.53 607.382 1002.73 607.753C1001.94 608.114 1000.9 608.295 999.625 608.295C998.053 608.295 996.812 607.846 995.904 606.947C995.006 606.049 994.557 604.77 994.557 603.109C994.557 601.371 995.162 600.092 996.373 599.271C997.594 598.441 999.43 597.982 1001.88 597.895L1004.72 597.807V597.089C1004.72 595.429 1003.87 594.599 1002.17 594.599C1000.87 594.599 999.327 594.994 997.56 595.785L996.08 592.768C997.965 591.781 1000.05 591.288 1002.35 591.288C1004.55 591.288 1006.23 591.767 1007.4 592.724C1008.58 593.681 1009.16 595.136 1009.16 597.089V608.002H1006.04ZM1004.72 600.414L1002.99 600.473C1001.7 600.512 1000.73 600.746 1000.09 601.176C999.459 601.605 999.142 602.26 999.142 603.139C999.142 604.398 999.864 605.028 1001.31 605.028C1002.34 605.028 1003.17 604.73 1003.79 604.135C1004.41 603.539 1004.72 602.748 1004.72 601.762V600.414ZM1018.24 591.625V597.924H1024.48V591.625H1028.95V608.002H1024.48V601.249H1018.24V608.002H1013.78V591.625H1018.24ZM1037.2 599.784C1037.2 601.405 1037.46 602.631 1037.99 603.461C1038.53 604.291 1039.4 604.706 1040.6 604.706C1041.79 604.706 1042.64 604.296 1043.16 603.476C1043.69 602.646 1043.95 601.415 1043.95 599.784C1043.95 598.163 1043.69 596.947 1043.16 596.137C1042.63 595.326 1041.77 594.921 1040.57 594.921C1039.38 594.921 1038.52 595.326 1037.99 596.137C1037.46 596.938 1037.2 598.153 1037.2 599.784ZM1048.52 599.784C1048.52 602.45 1047.82 604.535 1046.41 606.039C1045.01 607.543 1043.05 608.295 1040.54 608.295C1038.97 608.295 1037.58 607.953 1036.38 607.27C1035.18 606.576 1034.25 605.585 1033.61 604.296C1032.96 603.007 1032.64 601.503 1032.64 599.784C1032.64 597.108 1033.34 595.028 1034.74 593.544C1036.13 592.06 1038.1 591.317 1040.63 591.317C1042.2 591.317 1043.58 591.659 1044.79 592.343C1045.99 593.026 1046.91 594.008 1047.55 595.287C1048.2 596.566 1048.52 598.065 1048.52 599.784ZM1069 608.295C1067.08 608.295 1065.57 607.597 1064.47 606.2H1064.24C1064.4 607.567 1064.47 608.358 1064.47 608.573V615.209H1060.01V591.625H1063.64L1064.27 593.749H1064.47C1065.52 592.128 1067.07 591.317 1069.12 591.317C1071.05 591.317 1072.56 592.064 1073.66 593.559C1074.75 595.053 1075.3 597.128 1075.3 599.784C1075.3 601.532 1075.04 603.051 1074.52 604.34C1074.01 605.629 1073.29 606.61 1072.34 607.284C1071.39 607.958 1070.28 608.295 1069 608.295ZM1067.68 594.892C1066.58 594.892 1065.77 595.233 1065.26 595.917C1064.76 596.591 1064.49 597.709 1064.47 599.271V599.755C1064.47 601.513 1064.73 602.772 1065.25 603.534C1065.78 604.296 1066.61 604.677 1067.74 604.677C1069.74 604.677 1070.74 603.026 1070.74 599.726C1070.74 598.114 1070.49 596.908 1070 596.107C1069.51 595.297 1068.74 594.892 1067.68 594.892ZM1089.39 608.002L1088.53 605.775H1088.41C1087.66 606.723 1086.88 607.382 1086.08 607.753C1085.29 608.114 1084.25 608.295 1082.97 608.295C1081.4 608.295 1080.16 607.846 1079.25 606.947C1078.36 606.049 1077.91 604.77 1077.91 603.109C1077.91 601.371 1078.51 600.092 1079.72 599.271C1080.94 598.441 1082.78 597.982 1085.23 597.895L1088.07 597.807V597.089C1088.07 595.429 1087.22 594.599 1085.52 594.599C1084.21 594.599 1082.68 594.994 1080.91 595.785L1079.43 592.768C1081.31 591.781 1083.4 591.288 1085.7 591.288C1087.9 591.288 1089.58 591.767 1090.75 592.724C1091.92 593.681 1092.51 595.136 1092.51 597.089V608.002H1089.39ZM1088.07 600.414L1086.34 600.473C1085.04 600.512 1084.08 600.746 1083.44 601.176C1082.81 601.605 1082.49 602.26 1082.49 603.139C1082.49 604.398 1083.21 605.028 1084.66 605.028C1085.69 605.028 1086.52 604.73 1087.13 604.135C1087.76 603.539 1088.07 602.748 1088.07 601.762V600.414ZM1096.13 598.188C1096.13 594.428 1096.84 591.576 1098.27 589.633C1099.7 587.68 1101.94 586.444 1104.98 585.927C1106.45 585.673 1108.65 585.351 1111.58 584.96L1112.1 588.856C1110.83 589.003 1108.58 589.315 1105.34 589.794C1104.11 589.989 1103.19 590.282 1102.59 590.673C1101.98 591.063 1101.53 591.62 1101.23 592.343C1100.93 593.065 1100.75 594.027 1100.68 595.229H1100.9C1101.42 594.428 1102.11 593.812 1102.96 593.383C1103.8 592.953 1104.72 592.738 1105.69 592.738C1107.72 592.738 1109.29 593.358 1110.41 594.599C1111.53 595.829 1112.1 597.597 1112.1 599.901C1112.1 602.558 1111.38 604.623 1109.96 606.098C1108.54 607.562 1106.58 608.295 1104.08 608.295C1101.58 608.295 1099.63 607.401 1098.22 605.614C1096.83 603.817 1096.13 601.342 1096.13 598.188ZM1104.35 604.677C1106.47 604.677 1107.53 603.217 1107.53 600.297C1107.53 597.455 1106.57 596.034 1104.65 596.034C1104.13 596.034 1103.6 596.156 1103.07 596.4C1102.55 596.645 1102.08 596.967 1101.64 597.367C1101.21 597.758 1100.89 598.153 1100.68 598.554C1100.68 600.536 1101 602.055 1101.64 603.109C1102.27 604.154 1103.17 604.677 1104.35 604.677ZM1119.35 599.784C1119.35 601.405 1119.61 602.631 1120.14 603.461C1120.67 604.291 1121.54 604.706 1122.75 604.706C1123.94 604.706 1124.79 604.296 1125.31 603.476C1125.84 602.646 1126.1 601.415 1126.1 599.784C1126.1 598.163 1125.84 596.947 1125.31 596.137C1124.78 595.326 1123.92 594.921 1122.72 594.921C1121.52 594.921 1120.67 595.326 1120.14 596.137C1119.61 596.938 1119.35 598.153 1119.35 599.784ZM1130.67 599.784C1130.67 602.45 1129.97 604.535 1128.56 606.039C1127.15 607.543 1125.2 608.295 1122.69 608.295C1121.11 608.295 1119.73 607.953 1118.53 607.27C1117.33 606.576 1116.4 605.585 1115.76 604.296C1115.11 603.007 1114.79 601.503 1114.79 599.784C1114.79 597.108 1115.49 595.028 1116.89 593.544C1118.28 592.06 1120.25 591.317 1122.77 591.317C1124.35 591.317 1125.73 591.659 1126.93 592.343C1128.14 593.026 1129.06 594.008 1129.7 595.287C1130.35 596.566 1130.67 598.065 1130.67 599.784ZM1138.29 591.625V597.616C1138.29 599.042 1138.95 599.755 1140.26 599.755C1141.12 599.755 1141.92 599.657 1142.65 599.462C1143.39 599.267 1144.14 599.013 1144.89 598.7V591.625H1149.36V608.002H1144.89V601.498C1143.86 602.045 1142.9 602.431 1142.01 602.655C1141.12 602.88 1140.26 602.992 1139.43 602.992C1137.64 602.992 1136.26 602.538 1135.28 601.63C1134.31 600.712 1133.82 599.408 1133.82 597.719V591.625H1138.29ZM1158.37 591.625V598.1C1158.37 598.783 1158.26 600.453 1158.03 603.109L1165.59 591.625H1170.97V608.002H1166.65V601.469C1166.65 600.307 1166.74 598.666 1166.94 596.547L1159.41 608.002H1154.05V591.625H1158.37ZM1179.02 599.638L1173.75 591.625H1178.82L1182 596.84L1185.21 591.625H1190.27L1184.94 599.638L1190.52 608.002H1185.44L1182 602.392L1178.54 608.002H1173.47L1179.02 599.638ZM1221.45 608.002H1217.27V595.097L1217.04 596.005C1216.51 598.065 1216.04 599.623 1215.62 600.678L1212.72 608.002H1209.54L1206.59 600.619C1206.17 599.545 1205.72 598.036 1205.25 596.093L1204.97 595.097V608.002H1200.81V591.625H1206.96L1209.77 598.612C1210.06 599.364 1210.33 600.229 1210.58 601.205C1210.83 602.182 1211 603.017 1211.09 603.71C1211.41 602.245 1211.66 601.195 1211.84 600.561C1212.02 599.916 1212.22 599.325 1212.44 598.788C1212.65 598.251 1213.62 595.863 1215.35 591.625H1221.45V608.002ZM1232.93 594.496C1231.98 594.496 1231.24 594.799 1230.7 595.404C1230.17 596 1229.86 596.85 1229.78 597.953H1236.05C1236.03 596.85 1235.74 596 1235.19 595.404C1234.63 594.799 1233.88 594.496 1232.93 594.496ZM1233.56 608.295C1230.92 608.295 1228.86 607.567 1227.38 606.112C1225.89 604.657 1225.15 602.597 1225.15 599.931C1225.15 597.187 1225.84 595.067 1227.2 593.573C1228.58 592.069 1230.48 591.317 1232.9 591.317C1235.22 591.317 1237.02 591.977 1238.31 593.295C1239.6 594.613 1240.24 596.435 1240.24 598.759V600.927H1229.68C1229.73 602.196 1230.1 603.188 1230.81 603.9C1231.51 604.613 1232.5 604.97 1233.77 604.97C1234.75 604.97 1235.68 604.867 1236.56 604.662C1237.44 604.457 1238.36 604.13 1239.32 603.681V607.138C1238.54 607.528 1237.7 607.816 1236.81 608.002C1235.92 608.197 1234.84 608.295 1233.56 608.295ZM1250.52 608.295C1245.43 608.295 1242.88 605.497 1242.88 599.901C1242.88 597.118 1243.57 594.994 1244.96 593.529C1246.34 592.055 1248.33 591.317 1250.92 591.317C1252.81 591.317 1254.51 591.688 1256.02 592.431L1254.7 595.888C1254 595.604 1253.34 595.375 1252.74 595.199C1252.13 595.014 1251.52 594.921 1250.92 594.921C1248.59 594.921 1247.43 596.571 1247.43 599.872C1247.43 603.075 1248.59 604.677 1250.92 604.677C1251.78 604.677 1252.57 604.564 1253.31 604.34C1254.04 604.105 1254.77 603.744 1255.5 603.256V607.079C1254.78 607.538 1254.05 607.855 1253.31 608.031C1252.57 608.207 1251.65 608.295 1250.52 608.295ZM1272.86 591.625V594.979H1267.5V608.002H1263.03V594.979H1257.66V591.625H1272.86Z" fill="white"/>
<path d="M874.342 583.164C876.833 583.164 878.851 581.114 878.851 578.582C878.851 576.051 876.833 574 874.342 574C871.851 574 869.833 576.051 869.833 578.582C869.833 581.114 871.851 583.164 874.342 583.164Z" fill="white"/>
<path d="M887.124 584.997C889.616 584.997 891.633 582.947 891.633 580.415C891.633 577.883 889.616 575.833 887.124 575.833C884.633 575.833 882.616 577.883 882.616 580.415C882.616 582.947 884.633 584.997 887.124 584.997Z" fill="white"/>
<path d="M861.875 584.997C864.366 584.997 866.384 582.947 866.384 580.415C866.384 577.883 864.366 575.833 861.875 575.833C859.384 575.833 857.366 577.883 857.366 580.415C857.366 582.947 859.384 584.997 861.875 584.997Z" fill="white"/>
<path d="M894.981 600.233L893.82 590.839C893.538 588.548 891.611 586.83 889.345 586.83H884.893C884.397 586.83 883.89 586.922 883.394 587.105C882.954 587.265 882.706 587.747 882.819 588.205C882.909 588.548 882.988 588.892 883.033 589.247L884.228 599.889C884.385 601.298 883.957 602.707 883.044 603.738C882.841 603.967 882.605 604.174 882.278 604.414C882.018 604.597 881.883 604.907 881.906 605.227L882.616 615.308C882.65 615.789 883.044 616.156 883.518 616.156H890.732C891.205 616.156 891.6 615.789 891.633 615.308L892.479 603.326C893.189 603.28 893.854 602.948 894.327 602.398C894.835 601.802 895.071 601.023 894.981 600.233Z" fill="white"/>
<path d="M866.655 604.586C866.271 604.334 865.933 604.047 865.652 603.738C864.739 602.696 864.31 601.298 864.468 599.889L865.663 589.247C865.708 588.858 865.787 588.491 865.888 588.136C865.956 587.895 865.922 587.643 865.798 587.437C865.674 587.22 865.482 587.071 865.246 587.013C864.829 586.899 864.468 586.853 864.107 586.853H859.644C857.378 586.853 855.45 588.583 855.169 590.862L854.019 600.233C853.929 601.012 854.165 601.802 854.673 602.398C855.146 602.948 855.811 603.269 856.521 603.326L857.367 615.308C857.4 615.789 857.795 616.156 858.268 616.156H865.482C865.956 616.156 866.35 615.789 866.384 615.308L867.083 605.434C867.094 605.09 866.937 604.769 866.655 604.586Z" fill="white"/>
<path d="M882.435 600.095L881.241 589.453C880.959 586.922 878.975 585.009 876.642 585.009H872.043C869.709 585.009 867.725 586.922 867.444 589.453L866.249 600.095C866.147 600.989 866.418 601.871 866.993 602.524C867.489 603.085 868.143 603.406 868.841 603.452L869.833 617.152C869.867 617.633 870.262 618 870.735 618H877.949C878.423 618 878.817 617.633 878.851 617.152L879.843 603.452C880.553 603.406 881.207 603.085 881.692 602.524C882.266 601.871 882.537 600.989 882.435 600.095Z" fill="white"/>
<path d="M1590 281.003C986.751 281.003 603.249 281.004 0 281.004" stroke="#275D81" stroke-width="2"/>
<path d="M795.001 781.002C795.001 177.753 795 781.001 795 280.001" stroke="#275D81" stroke-width="2"/>
<path d="M1590 531.001C986.751 531.001 1398.75 531.004 795.5 531.004" stroke="#275D81" stroke-width="2"/>
</svg>
