<svg width="1590" height="1056" viewBox="0 0 1590 1056" fill="none" xmlns="http://www.w3.org/2000/svg">
<path d="M1590 328.999C986.751 328.999 603.249 329 0 329" stroke="#275D81" stroke-width="2"/>
<path d="M938.021 149.244C938.021 157.271 935.59 164.098 930.727 169.723C925.863 175.348 919.037 179.215 910.248 181.324V181.852C920.619 183.141 928.471 186.305 933.803 191.344C939.135 196.324 941.801 203.062 941.801 211.559C941.801 223.922 937.318 233.561 928.354 240.475C919.389 247.33 906.586 250.758 889.945 250.758C876 250.758 863.637 248.443 852.855 243.814V220.699C857.836 223.219 863.314 225.27 869.291 226.852C875.268 228.434 881.186 229.225 887.045 229.225C896.01 229.225 902.631 227.701 906.908 224.654C911.186 221.607 913.324 216.715 913.324 209.977C913.324 203.941 910.863 199.664 905.941 197.145C901.02 194.625 893.168 193.365 882.387 193.365H872.631V172.535H882.562C892.523 172.535 899.789 171.246 904.359 168.668C908.988 166.031 911.303 161.549 911.303 155.221C911.303 145.494 905.209 140.631 893.021 140.631C888.803 140.631 884.496 141.334 880.102 142.74C875.766 144.146 870.932 146.578 865.6 150.035L853.031 131.314C864.75 122.877 878.725 118.658 894.955 118.658C908.256 118.658 918.744 121.354 926.42 126.744C934.154 132.135 938.021 139.635 938.021 149.244ZM1000.34 118.834C1012.64 118.834 1022.54 121.646 1030.04 127.271C1037.6 132.838 1041.38 140.367 1041.38 149.859C1041.38 156.422 1039.56 162.281 1035.93 167.438C1032.3 172.535 1026.44 177.105 1018.35 181.148C1027.96 186.305 1034.85 191.695 1039.01 197.32C1043.23 202.887 1045.34 209.01 1045.34 215.689C1045.34 226.236 1041.21 234.732 1032.94 241.178C1024.68 247.564 1013.81 250.758 1000.34 250.758C986.273 250.758 975.229 247.77 967.201 241.793C959.174 235.816 955.16 227.35 955.16 216.393C955.16 209.068 957.094 202.564 960.961 196.881C964.887 191.197 971.156 186.188 979.77 181.852C972.445 177.223 967.172 172.271 963.949 166.998C960.727 161.725 959.115 155.953 959.115 149.684C959.115 140.484 962.924 133.043 970.541 127.359C978.158 121.676 988.09 118.834 1000.34 118.834ZM980.297 214.811C980.297 219.85 982.055 223.775 985.57 226.588C989.086 229.4 993.891 230.807 999.984 230.807C1006.72 230.807 1011.76 229.371 1015.1 226.5C1018.44 223.57 1020.11 219.732 1020.11 214.986C1020.11 211.061 1018.44 207.398 1015.1 204C1011.82 200.543 1006.46 196.881 999.018 193.014C986.537 198.756 980.297 206.021 980.297 214.811ZM1000.16 138.697C995.531 138.697 991.781 139.898 988.91 142.301C986.098 144.645 984.691 147.809 984.691 151.793C984.691 155.309 985.805 158.473 988.031 161.285C990.316 164.039 994.418 166.881 1000.34 169.811C1006.08 167.115 1010.09 164.361 1012.38 161.549C1014.66 158.736 1015.8 155.484 1015.8 151.793C1015.8 147.75 1014.34 144.557 1011.41 142.213C1008.48 139.869 1004.73 138.697 1000.16 138.697ZM1152.39 166.91C1164.81 166.91 1174.68 170.396 1182.01 177.369C1189.39 184.342 1193.08 193.893 1193.08 206.021C1193.08 220.377 1188.66 231.422 1179.81 239.156C1170.96 246.891 1158.3 250.758 1141.84 250.758C1127.54 250.758 1116 248.443 1107.21 243.814V220.348C1111.84 222.809 1117.23 224.83 1123.38 226.412C1129.54 227.936 1135.37 228.697 1140.87 228.697C1157.46 228.697 1165.75 221.9 1165.75 208.307C1165.75 195.357 1157.16 188.883 1139.99 188.883C1136.89 188.883 1133.46 189.205 1129.71 189.85C1125.96 190.436 1122.91 191.08 1120.57 191.783L1109.76 185.982L1114.59 120.504H1184.29V143.531H1138.41L1136.04 168.756L1139.12 168.141C1142.69 167.32 1147.11 166.91 1152.39 166.91ZM1297.58 184.752C1297.58 207.193 1293.89 223.805 1286.51 234.586C1279.18 245.367 1267.88 250.758 1252.58 250.758C1237.76 250.758 1226.57 245.191 1219.01 234.059C1211.51 222.926 1207.76 206.49 1207.76 184.752C1207.76 162.076 1211.42 145.377 1218.74 134.654C1226.07 123.873 1237.35 118.482 1252.58 118.482C1267.41 118.482 1278.6 124.107 1286.16 135.357C1293.77 146.607 1297.58 163.072 1297.58 184.752ZM1234.74 184.752C1234.74 200.514 1236.09 211.822 1238.78 218.678C1241.54 225.475 1246.14 228.873 1252.58 228.873C1258.91 228.873 1263.48 225.416 1266.29 218.502C1269.11 211.588 1270.51 200.338 1270.51 184.752C1270.51 168.99 1269.08 157.682 1266.21 150.826C1263.39 143.912 1258.85 140.455 1252.58 140.455C1246.2 140.455 1241.62 143.912 1238.87 150.826C1236.12 157.682 1234.74 168.99 1234.74 184.752ZM1396.11 149.244C1396.11 157.271 1393.68 164.098 1388.81 169.723C1383.95 175.348 1377.12 179.215 1368.33 181.324V181.852C1378.71 183.141 1386.56 186.305 1391.89 191.344C1397.22 196.324 1399.89 203.062 1399.89 211.559C1399.89 223.922 1395.4 233.561 1386.44 240.475C1377.47 247.33 1364.67 250.758 1348.03 250.758C1334.09 250.758 1321.72 248.443 1310.94 243.814V220.699C1315.92 223.219 1321.4 225.27 1327.38 226.852C1333.35 228.434 1339.27 229.225 1345.13 229.225C1354.1 229.225 1360.72 227.701 1364.99 224.654C1369.27 221.607 1371.41 216.715 1371.41 209.977C1371.41 203.941 1368.95 199.664 1364.03 197.145C1359.11 194.625 1351.25 193.365 1340.47 193.365H1330.72V172.535H1340.65C1350.61 172.535 1357.88 171.246 1362.45 168.668C1367.07 166.031 1369.39 161.549 1369.39 155.221C1369.39 145.494 1363.29 140.631 1351.11 140.631C1346.89 140.631 1342.58 141.334 1338.19 142.74C1333.85 144.146 1329.02 146.578 1323.69 150.035L1311.12 131.314C1322.84 122.877 1336.81 118.658 1353.04 118.658C1366.34 118.658 1376.83 121.354 1384.51 126.744C1392.24 132.135 1396.11 139.635 1396.11 149.244Z" fill="#01F859"/>
<path d="M1473.99 249H1467.31V228.352L1466.94 229.805C1466.09 233.102 1465.34 235.594 1464.66 237.281L1460.02 249H1454.94L1450.23 237.188C1449.55 235.469 1448.84 233.055 1448.07 229.945L1447.62 228.352V249H1440.97V222.797H1450.81L1455.31 233.977C1455.78 235.18 1456.21 236.562 1456.6 238.125C1457.01 239.688 1457.28 241.023 1457.42 242.133C1457.94 239.789 1458.34 238.109 1458.62 237.094C1458.91 236.062 1459.23 235.117 1459.58 234.258C1459.92 233.398 1461.48 229.578 1464.24 222.797H1473.99V249ZM1504.98 249H1497.83V228.164H1491.24C1490.74 234.023 1490.13 238.398 1489.41 241.289C1488.7 244.164 1487.73 246.25 1486.53 247.547C1485.34 248.828 1483.78 249.469 1481.84 249.469C1480.19 249.469 1478.83 249.219 1477.77 248.719V243C1478.53 243.312 1479.3 243.469 1480.06 243.469C1480.95 243.469 1481.7 242.828 1482.29 241.547C1482.9 240.266 1483.44 238.133 1483.91 235.148C1484.39 232.148 1484.8 228.031 1485.15 222.797H1504.98V249ZM1519.65 222.797V232.875H1529.63V222.797H1536.78V249H1529.63V238.195H1519.65V249H1512.5V222.797H1519.65ZM1557.32 249V243.864H1553.48V239.208H1557.32V235.464H1553.48V229.512H1557.32V214.728H1568.26C1572.68 214.728 1575.9 215.624 1577.91 217.416C1579.96 219.208 1580.98 221.672 1580.98 224.808C1580.98 226.664 1580.57 228.408 1579.74 230.04C1578.9 231.672 1577.51 232.984 1575.56 233.976C1573.64 234.968 1571.02 235.464 1567.69 235.464H1564.57V239.208H1571.96V243.864H1564.57V249H1557.32ZM1566.97 229.512C1569.02 229.512 1570.63 229.16 1571.82 228.456C1573.03 227.752 1573.64 226.616 1573.64 225.048C1573.64 222.136 1571.72 220.68 1567.88 220.68H1564.57V229.512H1566.97Z" fill="white"/>
<path d="M192.117 46.5195C211.258 46.5195 226.661 50.8945 238.328 59.6445C250.086 68.3034 255.965 80.0156 255.965 94.7812C255.965 104.99 253.139 114.104 247.488 122.125C241.837 130.055 232.723 137.164 220.145 143.453C235.092 151.474 245.802 159.859 252.273 168.609C258.836 177.268 262.117 186.793 262.117 197.184C262.117 213.59 255.691 226.806 242.84 236.832C229.988 246.767 213.081 251.734 192.117 251.734C170.242 251.734 153.061 247.086 140.574 237.789C128.087 228.492 121.844 215.322 121.844 198.277C121.844 186.884 124.852 176.767 130.867 167.926C136.974 159.085 146.727 151.292 160.125 144.547C148.732 137.346 140.529 129.645 135.516 121.441C130.503 113.238 127.996 104.26 127.996 94.5078C127.996 80.1979 133.921 68.6224 145.77 59.7812C157.618 50.9401 173.068 46.5195 192.117 46.5195ZM160.945 195.816C160.945 203.655 163.68 209.762 169.148 214.137C174.617 218.512 182.091 220.699 191.57 220.699C202.052 220.699 209.891 218.466 215.086 214C220.281 209.443 222.879 203.473 222.879 196.09C222.879 189.983 220.281 184.286 215.086 179C209.982 173.622 201.642 167.926 190.066 161.91C170.652 170.842 160.945 182.145 160.945 195.816ZM191.844 77.418C184.643 77.418 178.81 79.2865 174.344 83.0234C169.969 86.6693 167.781 91.5911 167.781 97.7891C167.781 103.258 169.513 108.18 172.977 112.555C176.531 116.839 182.911 121.259 192.117 125.816C201.049 121.624 207.293 117.34 210.848 112.965C214.402 108.59 216.18 103.531 216.18 97.7891C216.18 91.5 213.901 86.5326 209.344 82.8867C204.786 79.2409 198.953 77.418 191.844 77.418ZM427.41 207.574H403.348V249H362.059V207.574H276.746V178.18L364.383 49.1172H403.348V174.762H427.41V207.574ZM362.059 174.762V140.855C362.059 135.204 362.286 127.001 362.742 116.246C363.198 105.491 363.562 99.2474 363.836 97.5156H362.742C359.37 104.99 355.314 112.281 350.574 119.391L313.934 174.762H362.059Z" fill="#01F859"/>
<path d="M472.688 232.875C475.391 232.875 477.305 232.656 478.43 232.219C479.57 231.781 480.141 231.086 480.141 230.133C480.141 229.289 479.727 228.656 478.898 228.234C478.07 227.812 476.703 227.602 474.797 227.602C473.594 227.602 472.227 227.75 470.695 228.047C469.18 228.344 467.797 228.75 466.547 229.266L464.438 224.273C466.297 223.57 468.102 223.07 469.852 222.773C471.602 222.461 473.555 222.305 475.711 222.305C478.977 222.305 481.594 222.93 483.562 224.18C485.531 225.43 486.516 227.125 486.516 229.266C486.516 232.219 484.773 234.141 481.289 235.031V235.266C483.43 235.797 484.953 236.555 485.859 237.539C486.781 238.508 487.242 239.781 487.242 241.359C487.242 242.953 486.727 244.367 485.695 245.602C484.664 246.836 483.172 247.789 481.219 248.461C479.266 249.133 476.969 249.469 474.328 249.469C469.953 249.469 466.594 248.93 464.25 247.852V241.945C465.594 242.57 467.062 243.062 468.656 243.422C470.266 243.781 471.82 243.961 473.32 243.961C475.648 243.961 477.391 243.703 478.547 243.188C479.703 242.656 480.281 241.906 480.281 240.938C480.281 239.875 479.672 239.094 478.453 238.594C477.234 238.078 475.359 237.82 472.828 237.82H470.062V232.875H472.688ZM509.484 249L508.102 245.438H507.914C506.711 246.953 505.469 248.008 504.188 248.602C502.922 249.18 501.266 249.469 499.219 249.469C496.703 249.469 494.719 248.75 493.266 247.312C491.828 245.875 491.109 243.828 491.109 241.172C491.109 238.391 492.078 236.344 494.016 235.031C495.969 233.703 498.906 232.969 502.828 232.828L507.375 232.688V231.539C507.375 228.883 506.016 227.555 503.297 227.555C501.203 227.555 498.742 228.188 495.914 229.453L493.547 224.625C496.562 223.047 499.906 222.258 503.578 222.258C507.094 222.258 509.789 223.023 511.664 224.555C513.539 226.086 514.477 228.414 514.477 231.539V249H509.484ZM507.375 236.859L504.609 236.953C502.531 237.016 500.984 237.391 499.969 238.078C498.953 238.766 498.445 239.812 498.445 241.219C498.445 243.234 499.602 244.242 501.914 244.242C503.57 244.242 504.891 243.766 505.875 242.812C506.875 241.859 507.375 240.594 507.375 239.016V236.859ZM525.844 249H518.109L525.164 238.641C523.477 237.938 522.195 236.922 521.32 235.594C520.461 234.266 520.031 232.703 520.031 230.906C520.031 228.375 520.977 226.391 522.867 224.953C524.773 223.516 527.367 222.797 530.648 222.797H542.836V249H535.688V239.25H531.75L525.844 249ZM527.039 230.953C527.039 232.047 527.469 232.906 528.328 233.531C529.188 234.141 530.312 234.445 531.703 234.445H535.688V227.836H530.789C529.617 227.836 528.695 228.125 528.023 228.703C527.367 229.266 527.039 230.016 527.039 230.953ZM574.5 229.664C574.5 231.07 574.055 232.273 573.164 233.273C572.289 234.258 570.992 234.891 569.273 235.172V235.359C571.133 235.578 572.602 236.219 573.68 237.281C574.773 238.328 575.32 239.625 575.32 241.172C575.32 243.719 574.32 245.664 572.32 247.008C570.32 248.336 567.461 249 563.742 249H550.312V222.797H563.742C567.336 222.797 570.023 223.383 571.805 224.555C573.602 225.711 574.5 227.414 574.5 229.664ZM567.914 240.797C567.914 239.766 567.516 239.023 566.719 238.57C565.922 238.102 564.727 237.867 563.133 237.867H557.461V244.055H563.273C564.789 244.055 565.938 243.773 566.719 243.211C567.516 242.633 567.914 241.828 567.914 240.797ZM567.258 230.227C567.258 228.633 565.992 227.836 563.461 227.836H557.461V233.016H562.641C564.156 233.016 565.305 232.797 566.086 232.359C566.867 231.922 567.258 231.211 567.258 230.227ZM598.195 222.797H606.07L595.688 235.359L606.984 249H598.875L588.164 235.711V249H581.016V222.797H588.164V235.523L598.195 222.797ZM617.648 222.797V233.156C617.648 234.25 617.469 236.922 617.109 241.172L629.203 222.797H637.805V249H630.891V238.547C630.891 236.688 631.047 234.062 631.359 230.672L619.312 249H610.734V222.797H617.648Z" fill="white"/>
<path d="M359.458 755.969L359.852 754.788L360.397 753.29L364.168 744.111H366.847V758H364.98V746.511L364.727 747.247L363.99 749.189L360.397 758H358.633L355.04 749.164C354.591 748.03 354.283 747.146 354.113 746.511V758H352.234V744.111H354.812L358.455 752.935C358.819 753.866 359.153 754.877 359.458 755.969ZM381.726 758H379.593V745.889H375.416C375.188 748.902 374.87 751.293 374.464 753.062C374.058 754.83 373.529 756.125 372.877 756.946C372.234 757.767 371.413 758.178 370.414 758.178C369.957 758.178 369.593 758.127 369.322 758.025V756.464C369.508 756.515 369.72 756.54 369.957 756.54C370.93 756.54 371.705 755.512 372.28 753.455C372.856 751.398 373.292 748.275 373.588 744.086H381.726V758ZM388.314 744.086V749.913H396.109V744.086H398.217V758H396.109V751.729H388.314V758H386.207V744.086H388.314ZM409.727 758V754.464H407.465V752.774H409.727V750.46H407.465V748.484H409.727V739.436H414.615C416.886 739.436 418.567 739.895 419.659 740.814C420.768 741.733 421.323 743.067 421.323 744.818C421.323 746.586 420.725 747.973 419.529 748.978C418.333 749.966 416.574 750.46 414.251 750.46H412.067V752.774H416.357V754.464H412.067V758H409.727ZM413.913 748.484C415.49 748.484 416.712 748.224 417.579 747.704C418.463 747.184 418.905 746.248 418.905 744.896C418.905 743.717 418.541 742.842 417.813 742.27C417.085 741.698 415.95 741.412 414.407 741.412H412.067V748.484H413.913Z" fill="white"/>
<path d="M319 689.531C319 692.385 318.135 694.812 316.406 696.812C314.677 698.812 312.25 700.188 309.125 700.938V701.125C312.812 701.583 315.604 702.708 317.5 704.5C319.396 706.271 320.344 708.667 320.344 711.688C320.344 716.083 318.75 719.51 315.562 721.969C312.375 724.406 307.823 725.625 301.906 725.625C296.948 725.625 292.552 724.802 288.719 723.156V714.938C290.49 715.833 292.438 716.562 294.562 717.125C296.688 717.688 298.792 717.969 300.875 717.969C304.062 717.969 306.417 717.427 307.938 716.344C309.458 715.26 310.219 713.521 310.219 711.125C310.219 708.979 309.344 707.458 307.594 706.562C305.844 705.667 303.052 705.219 299.219 705.219H295.75V697.812H299.281C302.823 697.812 305.406 697.354 307.031 696.438C308.677 695.5 309.5 693.906 309.5 691.656C309.5 688.198 307.333 686.469 303 686.469C301.5 686.469 299.969 686.719 298.406 687.219C296.865 687.719 295.146 688.583 293.25 689.812L288.781 683.156C292.948 680.156 297.917 678.656 303.688 678.656C308.417 678.656 312.146 679.615 314.875 681.531C317.625 683.448 319 686.115 319 689.531ZM341.156 678.719C345.531 678.719 349.052 679.719 351.719 681.719C354.406 683.698 355.75 686.375 355.75 689.75C355.75 692.083 355.104 694.167 353.812 696C352.521 697.812 350.438 699.438 347.562 700.875C350.979 702.708 353.427 704.625 354.906 706.625C356.406 708.604 357.156 710.781 357.156 713.156C357.156 716.906 355.688 719.927 352.75 722.219C349.812 724.49 345.948 725.625 341.156 725.625C336.156 725.625 332.229 724.562 329.375 722.438C326.521 720.312 325.094 717.302 325.094 713.406C325.094 710.802 325.781 708.49 327.156 706.469C328.552 704.448 330.781 702.667 333.844 701.125C331.24 699.479 329.365 697.719 328.219 695.844C327.073 693.969 326.5 691.917 326.5 689.688C326.5 686.417 327.854 683.771 330.562 681.75C333.271 679.729 336.802 678.719 341.156 678.719ZM334.031 712.844C334.031 714.635 334.656 716.031 335.906 717.031C337.156 718.031 338.865 718.531 341.031 718.531C343.427 718.531 345.219 718.021 346.406 717C347.594 715.958 348.188 714.594 348.188 712.906C348.188 711.51 347.594 710.208 346.406 709C345.24 707.771 343.333 706.469 340.688 705.094C336.25 707.135 334.031 709.719 334.031 712.844ZM341.094 685.781C339.448 685.781 338.115 686.208 337.094 687.062C336.094 687.896 335.594 689.021 335.594 690.438C335.594 691.688 335.99 692.812 336.781 693.812C337.594 694.792 339.052 695.802 341.156 696.844C343.198 695.885 344.625 694.906 345.438 693.906C346.25 692.906 346.656 691.75 346.656 690.438C346.656 689 346.135 687.865 345.094 687.031C344.052 686.198 342.719 685.781 341.094 685.781ZM395.219 695.812C399.635 695.812 403.146 697.052 405.75 699.531C408.375 702.01 409.688 705.406 409.688 709.719C409.688 714.823 408.115 718.75 404.969 721.5C401.823 724.25 397.323 725.625 391.469 725.625C386.385 725.625 382.281 724.802 379.156 723.156V714.812C380.802 715.688 382.719 716.406 384.906 716.969C387.094 717.51 389.167 717.781 391.125 717.781C397.021 717.781 399.969 715.365 399.969 710.531C399.969 705.927 396.917 703.625 390.812 703.625C389.708 703.625 388.49 703.74 387.156 703.969C385.823 704.177 384.74 704.406 383.906 704.656L380.062 702.594L381.781 679.312H406.562V687.5H390.25L389.406 696.469L390.5 696.25C391.771 695.958 393.344 695.812 395.219 695.812ZM446.844 702.156C446.844 710.135 445.531 716.042 442.906 719.875C440.302 723.708 436.281 725.625 430.844 725.625C425.573 725.625 421.594 723.646 418.906 719.688C416.24 715.729 414.906 709.885 414.906 702.156C414.906 694.094 416.208 688.156 418.812 684.344C421.417 680.51 425.427 678.594 430.844 678.594C436.115 678.594 440.094 680.594 442.781 684.594C445.49 688.594 446.844 694.448 446.844 702.156ZM424.5 702.156C424.5 707.76 424.979 711.781 425.938 714.219C426.917 716.635 428.552 717.844 430.844 717.844C433.094 717.844 434.719 716.615 435.719 714.156C436.719 711.698 437.219 707.698 437.219 702.156C437.219 696.552 436.708 692.531 435.688 690.094C434.688 687.635 433.073 686.406 430.844 686.406C428.573 686.406 426.948 687.635 425.969 690.094C424.99 692.531 424.5 696.552 424.5 702.156ZM481.875 689.531C481.875 692.385 481.01 694.812 479.281 696.812C477.552 698.812 475.125 700.188 472 700.938V701.125C475.688 701.583 478.479 702.708 480.375 704.5C482.271 706.271 483.219 708.667 483.219 711.688C483.219 716.083 481.625 719.51 478.438 721.969C475.25 724.406 470.698 725.625 464.781 725.625C459.823 725.625 455.427 724.802 451.594 723.156V714.938C453.365 715.833 455.312 716.562 457.438 717.125C459.562 717.688 461.667 717.969 463.75 717.969C466.938 717.969 469.292 717.427 470.812 716.344C472.333 715.26 473.094 713.521 473.094 711.125C473.094 708.979 472.219 707.458 470.469 706.562C468.719 705.667 465.927 705.219 462.094 705.219H458.625V697.812H462.156C465.698 697.812 468.281 697.354 469.906 696.438C471.552 695.5 472.375 693.906 472.375 691.656C472.375 688.198 470.208 686.469 465.875 686.469C464.375 686.469 462.844 686.719 461.281 687.219C459.74 687.719 458.021 688.583 456.125 689.812L451.656 683.156C455.823 680.156 460.792 678.656 466.562 678.656C471.292 678.656 475.021 679.615 477.75 681.531C480.5 683.448 481.875 686.115 481.875 689.531Z" fill="white"/>
<mask id="path-8-inside-1" fill="white">
<path d="M723.061 662.784C712.694 595.117 682.23 532.127 635.621 481.989C589.013 431.85 528.411 396.876 461.68 381.605L428.161 528.079C465.53 536.631 499.467 556.216 525.568 584.294C551.669 612.371 568.729 647.645 574.534 685.539L723.061 662.784Z"/>
</mask>
<path d="M723.061 662.784C712.694 595.117 682.23 532.127 635.621 481.989C589.013 431.85 528.411 396.876 461.68 381.605L428.161 528.079C465.53 536.631 499.467 556.216 525.568 584.294C551.669 612.371 568.729 647.645 574.534 685.539L723.061 662.784Z" stroke="#FF0000" stroke-width="240" mask="url(#path-8-inside-1)"/>
<mask id="path-9-inside-2" fill="white">
<path d="M385.5 373C320.149 373 256.17 391.751 201.158 427.028C146.146 462.304 102.411 512.624 75.1449 572.015C47.8784 631.406 38.2254 697.373 47.3318 762.087C56.4381 826.8 83.9215 887.542 126.519 937.101C169.117 986.661 225.041 1022.96 287.652 1041.68C350.263 1060.41 416.932 1060.77 479.745 1042.74C542.558 1024.7 598.877 989.024 642.017 939.935C685.158 890.847 713.307 830.411 723.125 765.802L574.57 743.229C569.072 779.41 553.308 813.254 529.15 840.744C504.991 868.233 473.452 888.214 438.277 898.313C403.102 908.413 365.767 908.208 330.705 897.722C295.643 887.236 264.326 866.91 240.471 839.157C216.616 811.403 201.225 777.388 196.126 741.149C191.026 704.909 196.432 667.967 211.701 634.708C226.97 601.45 251.462 573.27 282.269 553.515C313.075 533.761 348.904 523.26 385.5 523.26V373Z"/>
</mask>
<path d="M385.5 373C320.149 373 256.17 391.751 201.158 427.028C146.146 462.304 102.411 512.624 75.1449 572.015C47.8784 631.406 38.2254 697.373 47.3318 762.087C56.4381 826.8 83.9215 887.542 126.519 937.101C169.117 986.661 225.041 1022.96 287.652 1041.68C350.263 1060.41 416.932 1060.77 479.745 1042.74C542.558 1024.7 598.877 989.024 642.017 939.935C685.158 890.847 713.307 830.411 723.125 765.802L574.57 743.229C569.072 779.41 553.308 813.254 529.15 840.744C504.991 868.233 473.452 888.214 438.277 898.313C403.102 908.413 365.767 908.208 330.705 897.722C295.643 887.236 264.326 866.91 240.471 839.157C216.616 811.403 201.225 777.388 196.126 741.149C191.026 704.909 196.432 667.967 211.701 634.708C226.97 601.45 251.462 573.27 282.269 553.515C313.075 533.761 348.904 523.26 385.5 523.26V373Z" stroke="#0FDF49" stroke-width="240" mask="url(#path-9-inside-2)"/>
<mask id="path-10-inside-3" fill="white">
<path d="M461.889 381.653C436.767 375.888 411.072 372.985 385.296 373L385.386 523.26C399.82 523.251 414.209 524.877 428.278 528.106L461.889 381.653Z"/>
</mask>
<path d="M461.889 381.653C436.767 375.888 411.072 372.985 385.296 373L385.386 523.26C399.82 523.251 414.209 524.877 428.278 528.106L461.889 381.653Z" stroke="#0395FF" stroke-width="240" mask="url(#path-10-inside-3)"/>
<mask id="path-11-inside-4" fill="white">
<path d="M723.187 765.387C728.313 731.375 728.27 696.783 723.061 662.783L574.534 685.539C577.451 704.579 577.475 723.95 574.605 742.997L723.187 765.387Z"/>
</mask>
<path d="M723.187 765.387C728.313 731.375 728.27 696.783 723.061 662.783L574.534 685.539C577.451 704.579 577.475 723.95 574.605 742.997L723.187 765.387Z" stroke="#00952A" stroke-width="240" mask="url(#path-11-inside-4)"/>
<path d="M1264.84 587.115C1264.84 591.229 1263.8 594.463 1261.71 596.818C1259.64 599.174 1256.75 600.352 1253.04 600.352C1249.26 600.352 1246.34 599.197 1244.27 596.889C1242.22 594.568 1241.2 591.299 1241.2 587.08C1241.2 582.896 1242.23 579.656 1244.29 577.359C1246.35 575.051 1249.28 573.896 1253.08 573.896C1256.77 573.896 1259.65 575.068 1261.73 577.412C1263.8 579.756 1264.84 582.99 1264.84 587.115ZM1244.36 587.115C1244.36 590.596 1245.1 593.238 1246.58 595.043C1248.06 596.836 1250.22 597.732 1253.04 597.732C1255.89 597.732 1258.04 596.836 1259.5 595.043C1260.95 593.25 1261.68 590.607 1261.68 587.115C1261.68 583.658 1260.95 581.039 1259.5 579.258C1258.05 577.465 1255.92 576.568 1253.08 576.568C1250.23 576.568 1248.06 577.471 1246.58 579.275C1245.1 581.068 1244.36 583.682 1244.36 587.115ZM1286.88 606.662H1284.05V600H1270.59V606.662H1267.78V597.486H1269.29C1270.86 595.354 1272.09 592.852 1272.98 589.98C1273.87 587.109 1274.33 584.027 1274.37 580.734H1284.12V597.486H1286.88V606.662ZM1281.31 597.486V583.037H1276.99C1276.83 585.639 1276.33 588.275 1275.47 590.947C1274.63 593.607 1273.58 595.787 1272.31 597.486H1281.31ZM1307.38 590.35C1307.38 593.49 1306.59 595.945 1305.01 597.715C1303.42 599.473 1301.24 600.352 1298.45 600.352C1296.73 600.352 1295.2 599.947 1293.86 599.139C1292.53 598.33 1291.49 597.17 1290.77 595.658C1290.04 594.146 1289.68 592.377 1289.68 590.35C1289.68 587.209 1290.46 584.766 1292.03 583.02C1293.6 581.262 1295.78 580.383 1298.57 580.383C1301.27 580.383 1303.41 581.279 1304.99 583.072C1306.58 584.865 1307.38 587.291 1307.38 590.35ZM1292.7 590.35C1292.7 592.811 1293.19 594.686 1294.18 595.975C1295.16 597.264 1296.61 597.908 1298.52 597.908C1300.43 597.908 1301.88 597.27 1302.86 595.992C1303.86 594.703 1304.36 592.822 1304.36 590.35C1304.36 587.9 1303.86 586.043 1302.86 584.777C1301.88 583.5 1300.42 582.861 1298.48 582.861C1296.57 582.861 1295.13 583.488 1294.16 584.742C1293.19 585.996 1292.7 587.865 1292.7 590.35ZM1311.51 588.451C1311.51 584.232 1312.13 580.945 1313.37 578.59C1314.62 576.223 1316.58 574.746 1319.28 574.16C1322.63 573.445 1325.58 572.865 1328.14 572.42L1328.68 574.986C1324.62 575.666 1321.71 576.205 1319.96 576.604C1318.27 576.99 1316.99 577.904 1316.13 579.346C1315.29 580.787 1314.83 582.75 1314.74 585.234H1314.96C1315.68 584.25 1316.62 583.477 1317.77 582.914C1318.92 582.352 1320.12 582.07 1321.37 582.07C1323.74 582.07 1325.58 582.838 1326.91 584.373C1328.23 585.908 1328.89 588.035 1328.89 590.754C1328.89 593.766 1328.13 596.121 1326.59 597.82C1325.06 599.508 1322.92 600.352 1320.18 600.352C1317.47 600.352 1315.35 599.314 1313.81 597.24C1312.28 595.166 1311.51 592.236 1311.51 588.451ZM1320.44 597.908C1324.01 597.908 1325.8 595.629 1325.8 591.07C1325.8 586.723 1324.18 584.549 1320.93 584.549C1320.04 584.549 1319.18 584.736 1318.35 585.111C1317.53 585.475 1316.77 585.961 1316.08 586.57C1315.4 587.18 1314.87 587.807 1314.5 588.451C1314.5 591.533 1314.98 593.883 1315.96 595.5C1316.93 597.105 1318.42 597.908 1320.44 597.908ZM1342.96 600.352C1341.7 600.352 1340.55 600.123 1339.51 599.666C1338.48 599.197 1337.61 598.482 1336.91 597.521H1336.7C1336.84 598.646 1336.91 599.713 1336.91 600.721V608.648H1333.99V580.734H1336.37L1336.77 583.371H1336.91C1337.66 582.316 1338.53 581.555 1339.53 581.086C1340.53 580.617 1341.67 580.383 1342.96 580.383C1345.51 580.383 1347.48 581.256 1348.86 583.002C1350.26 584.748 1350.96 587.197 1350.96 590.35C1350.96 593.514 1350.25 595.975 1348.83 597.732C1347.42 599.479 1345.46 600.352 1342.96 600.352ZM1342.54 582.861C1340.57 582.861 1339.14 583.406 1338.26 584.496C1337.38 585.586 1336.93 587.32 1336.91 589.699V590.35C1336.91 593.057 1337.36 594.996 1338.26 596.168C1339.17 597.328 1340.61 597.908 1342.61 597.908C1344.27 597.908 1345.57 597.234 1346.51 595.887C1347.46 594.539 1347.93 592.682 1347.93 590.314C1347.93 587.912 1347.46 586.072 1346.51 584.795C1345.57 583.506 1344.25 582.861 1342.54 582.861ZM1364.21 600.352C1361.36 600.352 1359.11 599.484 1357.46 597.75C1355.82 596.016 1355 593.607 1355 590.525C1355 587.42 1355.76 584.953 1357.28 583.125C1358.82 581.297 1360.88 580.383 1363.45 580.383C1365.87 580.383 1367.78 581.18 1369.18 582.773C1370.59 584.355 1371.29 586.447 1371.29 589.049V590.895H1358.02C1358.08 593.156 1358.65 594.873 1359.73 596.045C1360.82 597.217 1362.35 597.803 1364.31 597.803C1366.39 597.803 1368.44 597.369 1370.47 596.502V599.104C1369.44 599.549 1368.46 599.865 1367.53 600.053C1366.62 600.252 1365.51 600.352 1364.21 600.352ZM1363.42 582.826C1361.87 582.826 1360.63 583.33 1359.71 584.338C1358.79 585.346 1358.26 586.74 1358.09 588.521H1368.16C1368.16 586.682 1367.75 585.275 1366.93 584.303C1366.11 583.318 1364.94 582.826 1363.42 582.826ZM1379.2 580.734V588.803H1390V580.734H1392.91V600H1390V591.316H1379.2V600H1376.29V580.734H1379.2ZM1415.73 590.35C1415.73 593.49 1414.94 595.945 1413.36 597.715C1411.78 599.473 1409.59 600.352 1406.8 600.352C1405.08 600.352 1403.55 599.947 1402.21 599.139C1400.88 598.33 1399.85 597.17 1399.12 595.658C1398.39 594.146 1398.03 592.377 1398.03 590.35C1398.03 587.209 1398.81 584.766 1400.38 583.02C1401.96 581.262 1404.13 580.383 1406.92 580.383C1409.62 580.383 1411.76 581.279 1413.34 583.072C1414.93 584.865 1415.73 587.291 1415.73 590.35ZM1401.05 590.35C1401.05 592.811 1401.54 594.686 1402.53 595.975C1403.51 597.264 1404.96 597.908 1406.87 597.908C1408.78 597.908 1410.23 597.27 1411.21 595.992C1412.21 594.703 1412.71 592.822 1412.71 590.35C1412.71 587.9 1412.21 586.043 1411.21 584.777C1410.23 583.5 1408.77 582.861 1406.84 582.861C1404.93 582.861 1403.48 583.488 1402.51 584.742C1401.54 585.996 1401.05 587.865 1401.05 590.35Z" fill="white"/>
<rect x="867" y="543" width="336" height="86" fill="#0FDF49"/>
<path d="M921.75 578.398C921.75 580.539 921.102 582.359 919.805 583.859C918.508 585.359 916.688 586.391 914.344 586.953V587.094C917.109 587.438 919.203 588.281 920.625 589.625C922.047 590.953 922.758 592.75 922.758 595.016C922.758 598.312 921.562 600.883 919.172 602.727C916.781 604.555 913.367 605.469 908.93 605.469C905.211 605.469 901.914 604.852 899.039 603.617V597.453C900.367 598.125 901.828 598.672 903.422 599.094C905.016 599.516 906.594 599.727 908.156 599.727C910.547 599.727 912.312 599.32 913.453 598.508C914.594 597.695 915.164 596.391 915.164 594.594C915.164 592.984 914.508 591.844 913.195 591.172C911.883 590.5 909.789 590.164 906.914 590.164H904.312V584.609H906.961C909.617 584.609 911.555 584.266 912.773 583.578C914.008 582.875 914.625 581.68 914.625 579.992C914.625 577.398 913 576.102 909.75 576.102C908.625 576.102 907.477 576.289 906.305 576.664C905.148 577.039 903.859 577.688 902.438 578.609L899.086 573.617C902.211 571.367 905.938 570.242 910.266 570.242C913.812 570.242 916.609 570.961 918.656 572.398C920.719 573.836 921.75 575.836 921.75 578.398ZM950.32 587.867C950.32 593.852 949.336 598.281 947.367 601.156C945.414 604.031 942.398 605.469 938.32 605.469C934.367 605.469 931.383 603.984 929.367 601.016C927.367 598.047 926.367 593.664 926.367 587.867C926.367 581.82 927.344 577.367 929.297 574.508C931.25 571.633 934.258 570.195 938.32 570.195C942.273 570.195 945.258 571.695 947.273 574.695C949.305 577.695 950.32 582.086 950.32 587.867ZM933.562 587.867C933.562 592.07 933.922 595.086 934.641 596.914C935.375 598.727 936.602 599.633 938.32 599.633C940.008 599.633 941.227 598.711 941.977 596.867C942.727 595.023 943.102 592.023 943.102 587.867C943.102 583.664 942.719 580.648 941.953 578.82C941.203 576.977 939.992 576.055 938.32 576.055C936.617 576.055 935.398 576.977 934.664 578.82C933.93 580.648 933.562 583.664 933.562 587.867ZM966.211 590.445C966.211 583.664 967.641 578.617 970.5 575.305C973.375 571.992 977.672 570.336 983.391 570.336C985.344 570.336 986.875 570.453 987.984 570.688V576.477C986.594 576.164 985.219 576.008 983.859 576.008C981.375 576.008 979.344 576.383 977.766 577.133C976.203 577.883 975.031 578.992 974.25 580.461C973.469 581.93 973.008 584.016 972.867 586.719H973.172C974.719 584.062 977.195 582.734 980.602 582.734C983.664 582.734 986.062 583.695 987.797 585.617C989.531 587.539 990.398 590.195 990.398 593.586C990.398 597.242 989.367 600.141 987.305 602.281C985.242 604.406 982.383 605.469 978.727 605.469C976.195 605.469 973.984 604.883 972.094 603.711C970.219 602.539 968.766 600.828 967.734 598.578C966.719 596.328 966.211 593.617 966.211 590.445ZM978.586 599.68C980.133 599.68 981.32 599.164 982.148 598.133C982.977 597.086 983.391 595.602 983.391 593.68C983.391 592.008 983 590.695 982.219 589.742C981.453 588.773 980.289 588.289 978.727 588.289C977.258 588.289 976 588.766 974.953 589.719C973.922 590.672 973.406 591.781 973.406 593.047C973.406 594.906 973.891 596.477 974.859 597.758C975.844 599.039 977.086 599.68 978.586 599.68ZM1006.34 583.109C1009.65 583.109 1012.28 584.039 1014.23 585.898C1016.2 587.758 1017.19 590.305 1017.19 593.539C1017.19 597.367 1016.01 600.312 1013.65 602.375C1011.29 604.438 1007.91 605.469 1003.52 605.469C999.711 605.469 996.633 604.852 994.289 603.617V597.359C995.523 598.016 996.961 598.555 998.602 598.977C1000.24 599.383 1001.8 599.586 1003.27 599.586C1007.69 599.586 1009.9 597.773 1009.9 594.148C1009.9 590.695 1007.61 588.969 1003.03 588.969C1002.2 588.969 1001.29 589.055 1000.29 589.227C999.289 589.383 998.477 589.555 997.852 589.742L994.969 588.195L996.258 570.734H1014.84V576.875H1002.61L1001.98 583.602L1002.8 583.438C1003.75 583.219 1004.93 583.109 1006.34 583.109ZM1021.05 590.445C1021.05 583.664 1022.48 578.617 1025.34 575.305C1028.22 571.992 1032.52 570.336 1038.23 570.336C1040.19 570.336 1041.72 570.453 1042.83 570.688V576.477C1041.44 576.164 1040.06 576.008 1038.7 576.008C1036.22 576.008 1034.19 576.383 1032.61 577.133C1031.05 577.883 1029.88 578.992 1029.09 580.461C1028.31 581.93 1027.85 584.016 1027.71 586.719H1028.02C1029.56 584.062 1032.04 582.734 1035.45 582.734C1038.51 582.734 1040.91 583.695 1042.64 585.617C1044.38 587.539 1045.24 590.195 1045.24 593.586C1045.24 597.242 1044.21 600.141 1042.15 602.281C1040.09 604.406 1037.23 605.469 1033.57 605.469C1031.04 605.469 1028.83 604.883 1026.94 603.711C1025.06 602.539 1023.61 600.828 1022.58 598.578C1021.56 596.328 1021.05 593.617 1021.05 590.445ZM1033.43 599.68C1034.98 599.68 1036.16 599.164 1036.99 598.133C1037.82 597.086 1038.23 595.602 1038.23 593.68C1038.23 592.008 1037.84 590.695 1037.06 589.742C1036.3 588.773 1035.13 588.289 1033.57 588.289C1032.1 588.289 1030.84 588.766 1029.8 589.719C1028.77 590.672 1028.25 591.781 1028.25 593.047C1028.25 594.906 1028.73 596.477 1029.7 597.758C1030.69 599.039 1031.93 599.68 1033.43 599.68Z" fill="white"/>
<path d="M1067.91 602.656L1068.37 601.294L1069 599.565L1073.35 588.975H1076.44V605H1074.29V591.743L1073.99 592.593L1073.14 594.834L1069 605H1066.96L1062.82 594.805C1062.3 593.496 1061.94 592.476 1061.75 591.743V605H1059.58V588.975H1062.55L1066.76 599.155C1067.18 600.229 1067.56 601.396 1067.91 602.656ZM1093.61 605H1091.15V591.025H1086.33C1086.06 594.502 1085.7 597.261 1085.23 599.302C1084.76 601.343 1084.15 602.837 1083.4 603.784C1082.65 604.731 1081.71 605.205 1080.55 605.205C1080.03 605.205 1079.61 605.146 1079.29 605.029V603.228C1079.51 603.286 1079.75 603.315 1080.03 603.315C1081.15 603.315 1082.04 602.129 1082.71 599.756C1083.37 597.383 1083.88 593.779 1084.22 588.945H1093.61V605ZM1101.21 588.945V595.669H1110.2V588.945H1112.63V605H1110.2V597.764H1101.21V605H1098.78V588.945H1101.21ZM1125.92 605V600.92H1123.31V598.97H1125.92V596.3H1123.31V594.02H1125.92V583.58H1131.56C1134.18 583.58 1136.12 584.11 1137.38 585.17C1138.66 586.23 1139.3 587.77 1139.3 589.79C1139.3 591.83 1138.61 593.43 1137.23 594.59C1135.85 595.73 1133.82 596.3 1131.14 596.3H1128.62V598.97H1133.57V600.92H1128.62V605H1125.92ZM1130.75 594.02C1132.57 594.02 1133.98 593.72 1134.98 593.12C1136 592.52 1136.51 591.44 1136.51 589.88C1136.51 588.52 1136.09 587.51 1135.25 586.85C1134.41 586.19 1133.1 585.86 1131.32 585.86H1128.62V594.02H1130.75Z" fill="white"/>
<path d="M1264.84 673.115C1264.84 677.229 1263.8 680.463 1261.71 682.818C1259.64 685.174 1256.75 686.352 1253.04 686.352C1249.26 686.352 1246.34 685.197 1244.27 682.889C1242.22 680.568 1241.2 677.299 1241.2 673.08C1241.2 668.896 1242.23 665.656 1244.29 663.359C1246.35 661.051 1249.28 659.896 1253.08 659.896C1256.77 659.896 1259.65 661.068 1261.73 663.412C1263.8 665.756 1264.84 668.99 1264.84 673.115ZM1244.36 673.115C1244.36 676.596 1245.1 679.238 1246.58 681.043C1248.06 682.836 1250.22 683.732 1253.04 683.732C1255.89 683.732 1258.04 682.836 1259.5 681.043C1260.95 679.25 1261.68 676.607 1261.68 673.115C1261.68 669.658 1260.95 667.039 1259.5 665.258C1258.05 663.465 1255.92 662.568 1253.08 662.568C1250.23 662.568 1248.06 663.471 1246.58 665.275C1245.1 667.068 1244.36 669.682 1244.36 673.115ZM1283.14 669.23H1276.88V686H1273.96V669.23H1267.78V666.734H1283.14V669.23ZM1298.19 666.734H1301.38L1293.07 676.033L1302.07 686H1298.66L1289.87 676.244V686H1286.95V666.734H1289.87V676.104L1298.19 666.734ZM1320.02 686H1317.06V669.23H1311.28C1310.96 673.402 1310.53 676.713 1309.96 679.162C1309.4 681.611 1308.67 683.404 1307.77 684.541C1306.88 685.678 1305.74 686.246 1304.36 686.246C1303.72 686.246 1303.22 686.176 1302.84 686.035V683.873C1303.1 683.943 1303.39 683.979 1303.72 683.979C1305.07 683.979 1306.14 682.555 1306.94 679.707C1307.74 676.859 1308.34 672.535 1308.75 666.734H1320.02V686ZM1342.85 676.35C1342.85 679.49 1342.06 681.945 1340.48 683.715C1338.9 685.473 1336.71 686.352 1333.92 686.352C1332.2 686.352 1330.67 685.947 1329.33 685.139C1328 684.33 1326.97 683.17 1326.24 681.658C1325.51 680.146 1325.15 678.377 1325.15 676.35C1325.15 673.209 1325.94 670.766 1327.51 669.02C1329.08 667.262 1331.26 666.383 1334.04 666.383C1336.74 666.383 1338.88 667.279 1340.46 669.072C1342.05 670.865 1342.85 673.291 1342.85 676.35ZM1328.17 676.35C1328.17 678.811 1328.67 680.686 1329.65 681.975C1330.63 683.264 1332.08 683.908 1333.99 683.908C1335.9 683.908 1337.35 683.27 1338.33 681.992C1339.33 680.703 1339.83 678.822 1339.83 676.35C1339.83 673.9 1339.33 672.043 1338.33 670.777C1337.35 669.5 1335.89 668.861 1333.96 668.861C1332.05 668.861 1330.61 669.488 1329.63 670.742C1328.66 671.996 1328.17 673.865 1328.17 676.35ZM1350.9 666.734V674.803H1361.7V666.734H1364.61V686H1361.7V677.316H1350.9V686H1347.98V666.734H1350.9ZM1378.94 686.352C1376.09 686.352 1373.84 685.484 1372.19 683.75C1370.55 682.016 1369.73 679.607 1369.73 676.525C1369.73 673.42 1370.49 670.953 1372.01 669.125C1373.55 667.297 1375.61 666.383 1378.18 666.383C1380.6 666.383 1382.51 667.18 1383.91 668.773C1385.32 670.355 1386.02 672.447 1386.02 675.049V676.895H1372.75C1372.81 679.156 1373.38 680.873 1374.46 682.045C1375.55 683.217 1377.08 683.803 1379.04 683.803C1381.12 683.803 1383.17 683.369 1385.2 682.502V685.104C1384.17 685.549 1383.19 685.865 1382.26 686.053C1381.35 686.252 1380.24 686.352 1378.94 686.352ZM1378.15 668.826C1376.6 668.826 1375.37 669.33 1374.44 670.338C1373.53 671.346 1372.99 672.74 1372.82 674.521H1382.89C1382.89 672.682 1382.48 671.275 1381.66 670.303C1380.84 669.318 1379.67 668.826 1378.15 668.826ZM1393.93 666.734V674.803H1404.73V666.734H1407.64V686H1404.73V677.316H1393.93V686H1391.02V666.734H1393.93ZM1430.46 676.35C1430.46 679.49 1429.67 681.945 1428.09 683.715C1426.51 685.473 1424.32 686.352 1421.53 686.352C1419.81 686.352 1418.28 685.947 1416.94 685.139C1415.61 684.33 1414.58 683.17 1413.85 681.658C1413.12 680.146 1412.76 678.377 1412.76 676.35C1412.76 673.209 1413.54 670.766 1415.12 669.02C1416.69 667.262 1418.87 666.383 1421.65 666.383C1424.35 666.383 1426.49 667.279 1428.07 669.072C1429.66 670.865 1430.46 673.291 1430.46 676.35ZM1415.78 676.35C1415.78 678.811 1416.28 680.686 1417.26 681.975C1418.24 683.264 1419.69 683.908 1421.6 683.908C1423.51 683.908 1424.96 683.27 1425.94 681.992C1426.94 680.703 1427.44 678.822 1427.44 676.35C1427.44 673.9 1426.94 672.043 1425.94 670.777C1424.96 669.5 1423.5 668.861 1421.57 668.861C1419.66 668.861 1418.21 669.488 1417.24 670.742C1416.27 671.996 1415.78 673.865 1415.78 676.35Z" fill="white"/>
<rect x="867" y="629" width="336" height="86" fill="#FF0000"/>
<path d="M899.109 676.445C899.109 669.664 900.539 664.617 903.398 661.305C906.273 657.992 910.57 656.336 916.289 656.336C918.242 656.336 919.773 656.453 920.883 656.688V662.477C919.492 662.164 918.117 662.008 916.758 662.008C914.273 662.008 912.242 662.383 910.664 663.133C909.102 663.883 907.93 664.992 907.148 666.461C906.367 667.93 905.906 670.016 905.766 672.719H906.07C907.617 670.062 910.094 668.734 913.5 668.734C916.562 668.734 918.961 669.695 920.695 671.617C922.43 673.539 923.297 676.195 923.297 679.586C923.297 683.242 922.266 686.141 920.203 688.281C918.141 690.406 915.281 691.469 911.625 691.469C909.094 691.469 906.883 690.883 904.992 689.711C903.117 688.539 901.664 686.828 900.633 684.578C899.617 682.328 899.109 679.617 899.109 676.445ZM911.484 685.68C913.031 685.68 914.219 685.164 915.047 684.133C915.875 683.086 916.289 681.602 916.289 679.68C916.289 678.008 915.898 676.695 915.117 675.742C914.352 674.773 913.188 674.289 911.625 674.289C910.156 674.289 908.898 674.766 907.852 675.719C906.82 676.672 906.305 677.781 906.305 679.047C906.305 680.906 906.789 682.477 907.758 683.758C908.742 685.039 909.984 685.68 911.484 685.68ZM961.852 664.398C961.852 666.539 961.203 668.359 959.906 669.859C958.609 671.359 956.789 672.391 954.445 672.953V673.094C957.211 673.438 959.305 674.281 960.727 675.625C962.148 676.953 962.859 678.75 962.859 681.016C962.859 684.312 961.664 686.883 959.273 688.727C956.883 690.555 953.469 691.469 949.031 691.469C945.312 691.469 942.016 690.852 939.141 689.617V683.453C940.469 684.125 941.93 684.672 943.523 685.094C945.117 685.516 946.695 685.727 948.258 685.727C950.648 685.727 952.414 685.32 953.555 684.508C954.695 683.695 955.266 682.391 955.266 680.594C955.266 678.984 954.609 677.844 953.297 677.172C951.984 676.5 949.891 676.164 947.016 676.164H944.414V670.609H947.062C949.719 670.609 951.656 670.266 952.875 669.578C954.109 668.875 954.727 667.68 954.727 665.992C954.727 663.398 953.102 662.102 949.852 662.102C948.727 662.102 947.578 662.289 946.406 662.664C945.25 663.039 943.961 663.688 942.539 664.609L939.188 659.617C942.312 657.367 946.039 656.242 950.367 656.242C953.914 656.242 956.711 656.961 958.758 658.398C960.82 659.836 961.852 661.836 961.852 664.398ZM990.422 673.867C990.422 679.852 989.438 684.281 987.469 687.156C985.516 690.031 982.5 691.469 978.422 691.469C974.469 691.469 971.484 689.984 969.469 687.016C967.469 684.047 966.469 679.664 966.469 673.867C966.469 667.82 967.445 663.367 969.398 660.508C971.352 657.633 974.359 656.195 978.422 656.195C982.375 656.195 985.359 657.695 987.375 660.695C989.406 663.695 990.422 668.086 990.422 673.867ZM973.664 673.867C973.664 678.07 974.023 681.086 974.742 682.914C975.477 684.727 976.703 685.633 978.422 685.633C980.109 685.633 981.328 684.711 982.078 682.867C982.828 681.023 983.203 678.023 983.203 673.867C983.203 669.664 982.82 666.648 982.055 664.82C981.305 662.977 980.094 662.055 978.422 662.055C976.719 662.055 975.5 662.977 974.766 664.82C974.031 666.648 973.664 669.664 973.664 673.867ZM993.844 676.445C993.844 669.664 995.273 664.617 998.133 661.305C1001.01 657.992 1005.3 656.336 1011.02 656.336C1012.98 656.336 1014.51 656.453 1015.62 656.688V662.477C1014.23 662.164 1012.85 662.008 1011.49 662.008C1009.01 662.008 1006.98 662.383 1005.4 663.133C1003.84 663.883 1002.66 664.992 1001.88 666.461C1001.1 667.93 1000.64 670.016 1000.5 672.719H1000.8C1002.35 670.062 1004.83 668.734 1008.23 668.734C1011.3 668.734 1013.7 669.695 1015.43 671.617C1017.16 673.539 1018.03 676.195 1018.03 679.586C1018.03 683.242 1017 686.141 1014.94 688.281C1012.88 690.406 1010.02 691.469 1006.36 691.469C1003.83 691.469 1001.62 690.883 999.727 689.711C997.852 688.539 996.398 686.828 995.367 684.578C994.352 682.328 993.844 679.617 993.844 676.445ZM1006.22 685.68C1007.77 685.68 1008.95 685.164 1009.78 684.133C1010.61 683.086 1011.02 681.602 1011.02 679.68C1011.02 678.008 1010.63 676.695 1009.85 675.742C1009.09 674.773 1007.92 674.289 1006.36 674.289C1004.89 674.289 1003.63 674.766 1002.59 675.719C1001.55 676.672 1001.04 677.781 1001.04 679.047C1001.04 680.906 1001.52 682.477 1002.49 683.758C1003.48 685.039 1004.72 685.68 1006.22 685.68Z" fill="white"/>
<path d="M1040.91 688.656L1041.37 687.294L1042 685.565L1046.35 674.975H1049.44V691H1047.29V677.743L1046.99 678.593L1046.14 680.834L1042 691H1039.96L1035.82 680.805C1035.3 679.496 1034.94 678.476 1034.75 677.743V691H1032.58V674.975H1035.55L1039.76 685.155C1040.18 686.229 1040.56 687.396 1040.91 688.656ZM1066.61 691H1064.15V677.025H1059.33C1059.06 680.502 1058.7 683.261 1058.23 685.302C1057.76 687.343 1057.15 688.837 1056.4 689.784C1055.65 690.731 1054.71 691.205 1053.55 691.205C1053.03 691.205 1052.61 691.146 1052.29 691.029V689.228C1052.51 689.286 1052.75 689.315 1053.03 689.315C1054.15 689.315 1055.04 688.129 1055.71 685.756C1056.37 683.383 1056.88 679.779 1057.22 674.945H1066.61V691ZM1074.21 674.945V681.669H1083.2V674.945H1085.63V691H1083.2V683.764H1074.21V691H1071.78V674.945H1074.21ZM1098.92 691V686.92H1096.31V684.97H1098.92V682.3H1096.31V680.02H1098.92V669.58H1104.56C1107.18 669.58 1109.12 670.11 1110.38 671.17C1111.66 672.23 1112.3 673.77 1112.3 675.79C1112.3 677.83 1111.61 679.43 1110.23 680.59C1108.85 681.73 1106.82 682.3 1104.14 682.3H1101.62V684.97H1106.57V686.92H1101.62V691H1098.92ZM1103.75 680.02C1105.57 680.02 1106.98 679.72 1107.98 679.12C1109 678.52 1109.51 677.44 1109.51 675.88C1109.51 674.52 1109.09 673.51 1108.25 672.85C1107.41 672.19 1106.1 671.86 1104.32 671.86H1101.62V680.02H1103.75Z" fill="white"/>
<path d="M1262.04 772H1259.06V759.906H1245.52V772H1242.53V746.301H1245.52V757.234H1259.06V746.301H1262.04V772ZM1280.52 772L1279.94 769.258H1279.8C1278.84 770.465 1277.88 771.285 1276.92 771.719C1275.97 772.141 1274.78 772.352 1273.35 772.352C1271.44 772.352 1269.94 771.859 1268.85 770.875C1267.77 769.891 1267.23 768.49 1267.23 766.674C1267.23 762.783 1270.34 760.744 1276.56 760.557L1279.83 760.451V759.256C1279.83 757.744 1279.51 756.631 1278.85 755.916C1278.21 755.189 1277.17 754.826 1275.74 754.826C1274.13 754.826 1272.32 755.318 1270.29 756.303L1269.39 754.07C1270.34 753.555 1271.38 753.15 1272.5 752.857C1273.64 752.564 1274.78 752.418 1275.91 752.418C1278.21 752.418 1279.91 752.928 1281.01 753.947C1282.12 754.967 1282.68 756.602 1282.68 758.852V772H1280.52ZM1273.93 769.943C1275.74 769.943 1277.17 769.445 1278.2 768.449C1279.24 767.453 1279.76 766.059 1279.76 764.266V762.525L1276.85 762.648C1274.53 762.73 1272.85 763.094 1271.82 763.738C1270.8 764.371 1270.29 765.361 1270.29 766.709C1270.29 767.764 1270.61 768.566 1271.24 769.117C1271.88 769.668 1272.78 769.943 1273.93 769.943ZM1307.03 772.352C1305.77 772.352 1304.62 772.123 1303.58 771.666C1302.55 771.197 1301.68 770.482 1300.98 769.521H1300.77C1300.91 770.646 1300.98 771.713 1300.98 772.721V780.648H1298.06V752.734H1300.44L1300.84 755.371H1300.98C1301.73 754.316 1302.6 753.555 1303.6 753.086C1304.6 752.617 1305.74 752.383 1307.03 752.383C1309.58 752.383 1311.55 753.256 1312.93 755.002C1314.33 756.748 1315.03 759.197 1315.03 762.35C1315.03 765.514 1314.32 767.975 1312.9 769.732C1311.49 771.479 1309.54 772.352 1307.03 772.352ZM1306.61 754.861C1304.64 754.861 1303.21 755.406 1302.33 756.496C1301.46 757.586 1301 759.32 1300.98 761.699V762.35C1300.98 765.057 1301.43 766.996 1302.33 768.168C1303.24 769.328 1304.68 769.908 1306.68 769.908C1308.34 769.908 1309.64 769.234 1310.58 767.887C1311.53 766.539 1312 764.682 1312 762.314C1312 759.912 1311.53 758.072 1310.58 756.795C1309.64 755.506 1308.32 754.861 1306.61 754.861ZM1331.99 772L1331.41 769.258H1331.27C1330.31 770.465 1329.35 771.285 1328.38 771.719C1327.44 772.141 1326.25 772.352 1324.82 772.352C1322.91 772.352 1321.41 771.859 1320.32 770.875C1319.24 769.891 1318.7 768.49 1318.7 766.674C1318.7 762.783 1321.81 760.744 1328.03 760.557L1331.3 760.451V759.256C1331.3 757.744 1330.97 756.631 1330.32 755.916C1329.67 755.189 1328.64 754.826 1327.21 754.826C1325.6 754.826 1323.79 755.318 1321.76 756.303L1320.86 754.07C1321.81 753.555 1322.85 753.15 1323.97 752.857C1325.11 752.564 1326.25 752.418 1327.38 752.418C1329.68 752.418 1331.38 752.928 1332.48 753.947C1333.59 754.967 1334.15 756.602 1334.15 758.852V772H1331.99ZM1325.4 769.943C1327.21 769.943 1328.64 769.445 1329.67 768.449C1330.71 767.453 1331.23 766.059 1331.23 764.266V762.525L1328.31 762.648C1325.99 762.73 1324.32 763.094 1323.29 763.738C1322.27 764.371 1321.76 765.361 1321.76 766.709C1321.76 767.764 1322.07 768.566 1322.71 769.117C1323.35 769.668 1324.25 769.943 1325.4 769.943ZM1347.88 772.352C1345.09 772.352 1342.93 771.496 1341.39 769.785C1339.87 768.062 1339.11 765.631 1339.11 762.49C1339.11 759.268 1339.88 756.777 1341.43 755.02C1342.99 753.262 1345.2 752.383 1348.07 752.383C1349 752.383 1349.92 752.482 1350.85 752.682C1351.78 752.881 1352.5 753.115 1353.03 753.385L1352.13 755.863C1351.49 755.605 1350.79 755.395 1350.02 755.23C1349.26 755.055 1348.59 754.967 1348 754.967C1344.09 754.967 1342.13 757.463 1342.13 762.455C1342.13 764.822 1342.61 766.639 1343.55 767.904C1344.52 769.17 1345.93 769.803 1347.81 769.803C1349.41 769.803 1351.06 769.457 1352.75 768.766V771.35C1351.46 772.018 1349.84 772.352 1347.88 772.352ZM1365.04 772.352C1362.25 772.352 1360.08 771.496 1358.55 769.785C1357.03 768.062 1356.26 765.631 1356.26 762.49C1356.26 759.268 1357.04 756.777 1358.58 755.02C1360.14 753.262 1362.36 752.383 1365.23 752.383C1366.15 752.383 1367.08 752.482 1368.01 752.682C1368.93 752.881 1369.66 753.115 1370.19 753.385L1369.29 755.863C1368.64 755.605 1367.94 755.395 1367.18 755.23C1366.42 755.055 1365.74 754.967 1365.16 754.967C1361.24 754.967 1359.29 757.463 1359.29 762.455C1359.29 764.822 1359.76 766.639 1360.71 767.904C1361.67 769.17 1363.09 769.803 1364.96 769.803C1366.57 769.803 1368.22 769.457 1369.9 768.766V771.35C1368.62 772.018 1366.99 772.352 1365.04 772.352ZM1384.49 769.188L1385.04 767.553L1385.79 765.479L1391.02 752.77H1394.72V772H1392.14V756.092L1391.79 757.111L1390.77 759.801L1385.79 772H1383.35L1378.38 759.766C1377.76 758.195 1377.33 756.971 1377.09 756.092V772H1374.49V752.77H1378.06L1383.11 764.986C1383.61 766.275 1384.07 767.676 1384.49 769.188ZM1417.59 762.35C1417.59 765.49 1416.8 767.945 1415.22 769.715C1413.64 771.473 1411.45 772.352 1408.66 772.352C1406.94 772.352 1405.41 771.947 1404.08 771.139C1402.74 770.33 1401.71 769.17 1400.98 767.658C1400.26 766.146 1399.89 764.377 1399.89 762.35C1399.89 759.209 1400.68 756.766 1402.25 755.02C1403.82 753.262 1406 752.383 1408.79 752.383C1411.48 752.383 1413.62 753.279 1415.2 755.072C1416.8 756.865 1417.59 759.291 1417.59 762.35ZM1402.92 762.35C1402.92 764.811 1403.41 766.686 1404.39 767.975C1405.38 769.264 1406.82 769.908 1408.73 769.908C1410.64 769.908 1412.09 769.27 1413.08 767.992C1414.07 766.703 1414.57 764.822 1414.57 762.35C1414.57 759.9 1414.07 758.043 1413.08 756.777C1412.09 755.5 1410.63 754.861 1408.7 754.861C1406.79 754.861 1405.35 755.488 1404.38 756.742C1403.4 757.996 1402.92 759.865 1402.92 762.35ZM1435.72 755.23H1429.46V772H1426.54V755.23H1420.35V752.734H1435.72V755.23ZM1448.5 772.352C1447.24 772.352 1446.09 772.123 1445.05 771.666C1444.02 771.197 1443.15 770.482 1442.45 769.521H1442.24C1442.38 770.646 1442.45 771.713 1442.45 772.721V780.648H1439.53V752.734H1441.9L1442.31 755.371H1442.45C1443.2 754.316 1444.07 753.555 1445.07 753.086C1446.06 752.617 1447.21 752.383 1448.5 752.383C1451.05 752.383 1453.02 753.256 1454.4 755.002C1455.8 756.748 1456.49 759.197 1456.49 762.35C1456.49 765.514 1455.79 767.975 1454.37 769.732C1452.96 771.479 1451 772.352 1448.5 772.352ZM1448.07 754.861C1446.11 754.861 1444.68 755.406 1443.8 756.496C1442.92 757.586 1442.47 759.32 1442.45 761.699V762.35C1442.45 765.057 1442.9 766.996 1443.8 768.168C1444.71 769.328 1446.15 769.908 1448.14 769.908C1449.81 769.908 1451.11 769.234 1452.05 767.887C1453 766.539 1453.47 764.682 1453.47 762.314C1453.47 759.912 1453 758.072 1452.05 756.795C1451.11 755.506 1449.79 754.861 1448.07 754.861ZM1469.75 772.352C1466.9 772.352 1464.65 771.484 1463 769.75C1461.36 768.016 1460.54 765.607 1460.54 762.525C1460.54 759.42 1461.3 756.953 1462.82 755.125C1464.36 753.297 1466.41 752.383 1468.99 752.383C1471.41 752.383 1473.32 753.18 1474.72 754.773C1476.13 756.355 1476.83 758.447 1476.83 761.049V762.895H1463.56C1463.62 765.156 1464.19 766.873 1465.27 768.045C1466.36 769.217 1467.88 769.803 1469.85 769.803C1471.93 769.803 1473.98 769.369 1476.01 768.502V771.104C1474.97 771.549 1474 771.865 1473.07 772.053C1472.16 772.252 1471.05 772.352 1469.75 772.352ZM1468.96 754.826C1467.41 754.826 1466.17 755.33 1465.25 756.338C1464.33 757.346 1463.79 758.74 1463.63 760.521H1473.7C1473.7 758.682 1473.29 757.275 1472.47 756.303C1471.65 755.318 1470.48 754.826 1468.96 754.826ZM1484.74 752.734V760.803H1495.54V752.734H1498.45V772H1495.54V763.316H1484.74V772H1481.82V752.734H1484.74ZM1507.38 752.734V764.951L1507.26 768.15L1507.21 769.152L1517.63 752.734H1521.27V772H1518.54V760.223L1518.6 757.902L1518.69 755.617L1508.28 772H1504.64V752.734H1507.38ZM1530.2 752.734V764.951L1530.08 768.15L1530.02 769.152L1540.45 752.734H1544.09V772H1541.36V760.223L1541.41 757.902L1541.5 755.617L1531.1 772H1527.46V752.734H1530.2Z" fill="white"/>
<rect x="867" y="715" width="336" height="86" fill="#00952A"/>
<path d="M916.867 777H909.625V757.172L909.695 753.914L909.812 750.352C908.609 751.555 907.773 752.344 907.305 752.719L903.367 755.883L899.875 751.523L910.914 742.734H916.867V777ZM963.578 769.898H959.453V777H952.375V769.898H937.75V764.859L952.773 742.734H959.453V764.273H963.578V769.898ZM952.375 764.273V758.461C952.375 757.492 952.414 756.086 952.492 754.242C952.57 752.398 952.633 751.328 952.68 751.031H952.492C951.914 752.312 951.219 753.562 950.406 754.781L944.125 764.273H952.375ZM990.086 757.359C990.086 764.109 988.664 769.148 985.82 772.477C982.977 775.805 978.672 777.469 972.906 777.469C970.875 777.469 969.336 777.359 968.289 777.141V771.328C969.602 771.656 970.977 771.82 972.414 771.82C974.836 771.82 976.828 771.469 978.391 770.766C979.953 770.047 981.148 768.93 981.977 767.414C982.805 765.883 983.281 763.781 983.406 761.109H983.125C982.219 762.578 981.172 763.609 979.984 764.203C978.797 764.797 977.312 765.094 975.531 765.094C972.547 765.094 970.195 764.141 968.477 762.234C966.758 760.312 965.898 757.648 965.898 754.242C965.898 750.57 966.938 747.672 969.016 745.547C971.109 743.406 973.953 742.336 977.547 742.336C980.078 742.336 982.289 742.93 984.18 744.117C986.086 745.305 987.547 747.031 988.562 749.297C989.578 751.547 990.086 754.234 990.086 757.359ZM977.688 748.148C976.188 748.148 975.016 748.664 974.172 749.695C973.328 750.727 972.906 752.211 972.906 754.148C972.906 755.805 973.289 757.117 974.055 758.086C974.82 759.055 975.984 759.539 977.547 759.539C979.016 759.539 980.273 759.062 981.32 758.109C982.367 757.141 982.891 756.031 982.891 754.781C982.891 752.922 982.398 751.352 981.414 750.07C980.445 748.789 979.203 748.148 977.688 748.148ZM1017.65 777H993.695V771.961L1002.3 763.266C1004.84 760.656 1006.51 758.852 1007.29 757.852C1008.07 756.836 1008.63 755.898 1008.98 755.039C1009.32 754.18 1009.49 753.289 1009.49 752.367C1009.49 750.992 1009.11 749.969 1008.34 749.297C1007.59 748.625 1006.59 748.289 1005.32 748.289C1003.99 748.289 1002.7 748.594 1001.45 749.203C1000.2 749.812 998.898 750.68 997.539 751.805L993.602 747.141C995.289 745.703 996.688 744.688 997.797 744.094C998.906 743.5 1000.12 743.047 1001.43 742.734C1002.74 742.406 1004.21 742.242 1005.84 742.242C1007.98 742.242 1009.87 742.633 1011.51 743.414C1013.15 744.195 1014.42 745.289 1015.33 746.695C1016.23 748.102 1016.69 749.711 1016.69 751.523C1016.69 753.102 1016.41 754.586 1015.84 755.977C1015.3 757.352 1014.44 758.766 1013.27 760.219C1012.11 761.672 1010.06 763.742 1007.12 766.43L1002.72 770.578V770.906H1017.65V777ZM1029.95 771.961C1029.14 775.117 1027.77 778.859 1025.83 783.188H1020.67C1021.69 779.031 1022.48 775.109 1023.04 771.422H1029.6L1029.95 771.961ZM1047.51 755.109C1050.82 755.109 1053.45 756.039 1055.41 757.898C1057.38 759.758 1058.36 762.305 1058.36 765.539C1058.36 769.367 1057.18 772.312 1054.82 774.375C1052.46 776.438 1049.09 777.469 1044.7 777.469C1040.88 777.469 1037.8 776.852 1035.46 775.617V769.359C1036.7 770.016 1038.13 770.555 1039.77 770.977C1041.41 771.383 1042.97 771.586 1044.44 771.586C1048.86 771.586 1051.07 769.773 1051.07 766.148C1051.07 762.695 1048.78 760.969 1044.2 760.969C1043.38 760.969 1042.46 761.055 1041.46 761.227C1040.46 761.383 1039.65 761.555 1039.02 761.742L1036.14 760.195L1037.43 742.734H1056.02V748.875H1043.78L1043.15 755.602L1043.97 755.438C1044.92 755.219 1046.1 755.109 1047.51 755.109ZM1085.08 750.398C1085.08 752.539 1084.43 754.359 1083.13 755.859C1081.84 757.359 1080.02 758.391 1077.67 758.953V759.094C1080.44 759.438 1082.53 760.281 1083.95 761.625C1085.38 762.953 1086.09 764.75 1086.09 767.016C1086.09 770.312 1084.89 772.883 1082.5 774.727C1080.11 776.555 1076.7 777.469 1072.26 777.469C1068.54 777.469 1065.24 776.852 1062.37 775.617V769.453C1063.7 770.125 1065.16 770.672 1066.75 771.094C1068.34 771.516 1069.92 771.727 1071.48 771.727C1073.88 771.727 1075.64 771.32 1076.78 770.508C1077.92 769.695 1078.49 768.391 1078.49 766.594C1078.49 764.984 1077.84 763.844 1076.52 763.172C1075.21 762.5 1073.12 762.164 1070.24 762.164H1067.64V756.609H1070.29C1072.95 756.609 1074.88 756.266 1076.1 755.578C1077.34 754.875 1077.95 753.68 1077.95 751.992C1077.95 749.398 1076.33 748.102 1073.08 748.102C1071.95 748.102 1070.8 748.289 1069.63 748.664C1068.48 749.039 1067.19 749.688 1065.77 750.609L1062.41 745.617C1065.54 743.367 1069.27 742.242 1073.59 742.242C1077.14 742.242 1079.94 742.961 1081.98 744.398C1084.05 745.836 1085.08 747.836 1085.08 750.398Z" fill="white"/>
<path d="M1108.91 774.656L1109.37 773.294L1110 771.565L1114.35 760.975H1117.44V777H1115.29V763.743L1114.99 764.593L1114.14 766.834L1110 777H1107.96L1103.82 766.805C1103.3 765.496 1102.94 764.476 1102.75 763.743V777H1100.58V760.975H1103.55L1107.76 771.155C1108.18 772.229 1108.56 773.396 1108.91 774.656ZM1134.61 777H1132.15V763.025H1127.33C1127.06 766.502 1126.7 769.261 1126.23 771.302C1125.76 773.343 1125.15 774.837 1124.4 775.784C1123.65 776.731 1122.71 777.205 1121.55 777.205C1121.03 777.205 1120.61 777.146 1120.29 777.029V775.228C1120.51 775.286 1120.75 775.315 1121.03 775.315C1122.15 775.315 1123.04 774.129 1123.71 771.756C1124.37 769.383 1124.88 765.779 1125.22 760.945H1134.61V777ZM1142.21 760.945V767.669H1151.2V760.945H1153.63V777H1151.2V769.764H1142.21V777H1139.78V760.945H1142.21ZM1166.92 777V772.92H1164.31V770.97H1166.92V768.3H1164.31V766.02H1166.92V755.58H1172.56C1175.18 755.58 1177.12 756.11 1178.38 757.17C1179.66 758.23 1180.3 759.77 1180.3 761.79C1180.3 763.83 1179.61 765.43 1178.23 766.59C1176.85 767.73 1174.82 768.3 1172.14 768.3H1169.62V770.97H1174.57V772.92H1169.62V777H1166.92ZM1171.75 766.02C1173.57 766.02 1174.98 765.72 1175.98 765.12C1177 764.52 1177.51 763.44 1177.51 761.88C1177.51 760.52 1177.09 759.51 1176.25 758.85C1175.41 758.19 1174.1 757.86 1172.32 757.86H1169.62V766.02H1171.75Z" fill="white"/>
<path d="M1256.86 832.301V834.99H1245.52V858H1242.53V832.301H1256.86ZM1277.46 848.35C1277.46 851.49 1276.67 853.945 1275.09 855.715C1273.51 857.473 1271.32 858.352 1268.53 858.352C1266.81 858.352 1265.28 857.947 1263.94 857.139C1262.61 856.33 1261.58 855.17 1260.85 853.658C1260.12 852.146 1259.76 850.377 1259.76 848.35C1259.76 845.209 1260.54 842.766 1262.12 841.02C1263.69 839.262 1265.87 838.383 1268.65 838.383C1271.35 838.383 1273.49 839.279 1275.07 841.072C1276.66 842.865 1277.46 845.291 1277.46 848.35ZM1262.78 848.35C1262.78 850.811 1263.28 852.686 1264.26 853.975C1265.24 855.264 1266.69 855.908 1268.6 855.908C1270.51 855.908 1271.96 855.27 1272.94 853.992C1273.94 852.703 1274.44 850.822 1274.44 848.35C1274.44 845.9 1273.94 844.043 1272.94 842.777C1271.96 841.5 1270.5 840.861 1268.57 840.861C1266.66 840.861 1265.21 841.488 1264.24 842.742C1263.27 843.996 1262.78 845.865 1262.78 848.35ZM1295.58 841.23H1289.33V858H1286.41V841.23H1280.22V838.734H1295.58V841.23ZM1316.03 848.35C1316.03 851.49 1315.24 853.945 1313.65 855.715C1312.07 857.473 1309.89 858.352 1307.1 858.352C1305.38 858.352 1303.85 857.947 1302.51 857.139C1301.17 856.33 1300.14 855.17 1299.42 853.658C1298.69 852.146 1298.33 850.377 1298.33 848.35C1298.33 845.209 1299.11 842.766 1300.68 841.02C1302.25 839.262 1304.43 838.383 1307.22 838.383C1309.92 838.383 1312.05 839.279 1313.64 841.072C1315.23 842.865 1316.03 845.291 1316.03 848.35ZM1301.35 848.35C1301.35 850.811 1301.84 852.686 1302.83 853.975C1303.81 855.264 1305.26 855.908 1307.17 855.908C1309.08 855.908 1310.53 855.27 1311.51 853.992C1312.51 852.703 1313 850.822 1313 848.35C1313 845.9 1312.51 844.043 1311.51 842.777C1310.53 841.5 1309.07 840.861 1307.13 840.861C1305.22 840.861 1303.78 841.488 1302.81 842.742C1301.84 843.996 1301.35 845.865 1301.35 848.35ZM1336.79 843.568C1336.79 844.822 1336.42 845.777 1335.7 846.434C1334.98 847.078 1333.97 847.512 1332.67 847.734V847.893C1334.31 848.115 1335.51 848.596 1336.26 849.334C1337.02 850.072 1337.4 851.092 1337.4 852.393C1337.4 854.186 1336.74 855.568 1335.42 856.541C1334.1 857.514 1332.18 858 1329.65 858H1321.16V838.734H1329.62C1334.4 838.734 1336.79 840.346 1336.79 843.568ZM1334.48 852.199C1334.48 851.156 1334.09 850.4 1333.29 849.932C1332.5 849.451 1331.2 849.211 1329.37 849.211H1324.08V855.557H1329.44C1332.8 855.557 1334.48 854.438 1334.48 852.199ZM1333.94 843.85C1333.94 842.912 1333.58 842.25 1332.85 841.863C1332.13 841.465 1331.04 841.266 1329.58 841.266H1324.08V846.697H1329.02C1330.82 846.697 1332.09 846.475 1332.83 846.029C1333.57 845.584 1333.94 844.857 1333.94 843.85ZM1342.62 858H1339.21L1344.75 849.861C1343.26 849.533 1342.12 848.9 1341.32 847.963C1340.54 847.014 1340.14 845.824 1340.14 844.395C1340.14 842.637 1340.74 841.254 1341.92 840.246C1343.1 839.238 1344.76 838.734 1346.88 838.734H1355.46V858H1352.54V850.301H1347.67L1342.62 858ZM1342.99 844.43C1342.99 846.656 1344.61 847.77 1347.84 847.77H1352.54V841.266H1347.25C1344.41 841.266 1342.99 842.32 1342.99 844.43ZM1374.65 841.23H1368.39V858H1365.47V841.23H1359.29V838.734H1374.65V841.23ZM1386.16 858.352C1383.38 858.352 1381.21 857.496 1379.68 855.785C1378.15 854.062 1377.39 851.631 1377.39 848.49C1377.39 845.268 1378.17 842.777 1379.71 841.02C1381.27 839.262 1383.49 838.383 1386.36 838.383C1387.28 838.383 1388.21 838.482 1389.13 838.682C1390.06 838.881 1390.79 839.115 1391.31 839.385L1390.42 841.863C1389.77 841.605 1389.07 841.395 1388.31 841.23C1387.55 841.055 1386.87 840.967 1386.29 840.967C1382.37 840.967 1380.42 843.463 1380.42 848.455C1380.42 850.822 1380.89 852.639 1381.84 853.904C1382.8 855.17 1384.22 855.803 1386.09 855.803C1387.7 855.803 1389.35 855.457 1391.03 854.766V857.35C1389.74 858.018 1388.12 858.352 1386.16 858.352ZM1396.59 858H1393.18L1398.71 849.861C1397.23 849.533 1396.08 848.9 1395.29 847.963C1394.5 847.014 1394.11 845.824 1394.11 844.395C1394.11 842.637 1394.7 841.254 1395.88 840.246C1397.07 839.238 1398.72 838.734 1400.84 838.734H1409.42V858H1406.5V850.301H1401.63L1396.59 858ZM1396.96 844.43C1396.96 846.656 1398.57 847.77 1401.81 847.77H1406.5V841.266H1401.21C1398.38 841.266 1396.96 842.32 1396.96 844.43Z" fill="white"/>
<rect x="867" y="801" width="336" height="86" fill="#0395FF"/>
<path d="M924.055 855.898H919.93V863H912.852V855.898H898.227V850.859L913.25 828.734H919.93V850.273H924.055V855.898ZM912.852 850.273V844.461C912.852 843.492 912.891 842.086 912.969 840.242C913.047 838.398 913.109 837.328 913.156 837.031H912.969C912.391 838.312 911.695 839.562 910.883 840.781L904.602 850.273H912.852ZM950.703 863H926.75V857.961L935.352 849.266C937.898 846.656 939.562 844.852 940.344 843.852C941.125 842.836 941.688 841.898 942.031 841.039C942.375 840.18 942.547 839.289 942.547 838.367C942.547 836.992 942.164 835.969 941.398 835.297C940.648 834.625 939.641 834.289 938.375 834.289C937.047 834.289 935.758 834.594 934.508 835.203C933.258 835.812 931.953 836.68 930.594 837.805L926.656 833.141C928.344 831.703 929.742 830.688 930.852 830.094C931.961 829.5 933.172 829.047 934.484 828.734C935.797 828.406 937.266 828.242 938.891 828.242C941.031 828.242 942.922 828.633 944.562 829.414C946.203 830.195 947.477 831.289 948.383 832.695C949.289 834.102 949.742 835.711 949.742 837.523C949.742 839.102 949.461 840.586 948.898 841.977C948.352 843.352 947.492 844.766 946.32 846.219C945.164 847.672 943.117 849.742 940.18 852.43L935.773 856.578V856.906H950.703V863ZM963.008 857.961C962.195 861.117 960.82 864.859 958.883 869.188H953.727C954.742 865.031 955.531 861.109 956.094 857.422H962.656L963.008 857.961ZM979.906 828.289C983.188 828.289 985.828 829.039 987.828 830.539C989.844 832.023 990.852 834.031 990.852 836.562C990.852 838.312 990.367 839.875 989.398 841.25C988.43 842.609 986.867 843.828 984.711 844.906C987.273 846.281 989.109 847.719 990.219 849.219C991.344 850.703 991.906 852.336 991.906 854.117C991.906 856.93 990.805 859.195 988.602 860.914C986.398 862.617 983.5 863.469 979.906 863.469C976.156 863.469 973.211 862.672 971.07 861.078C968.93 859.484 967.859 857.227 967.859 854.305C967.859 852.352 968.375 850.617 969.406 849.102C970.453 847.586 972.125 846.25 974.422 845.094C972.469 843.859 971.062 842.539 970.203 841.133C969.344 839.727 968.914 838.188 968.914 836.516C968.914 834.062 969.93 832.078 971.961 830.562C973.992 829.047 976.641 828.289 979.906 828.289ZM974.562 853.883C974.562 855.227 975.031 856.273 975.969 857.023C976.906 857.773 978.188 858.148 979.812 858.148C981.609 858.148 982.953 857.766 983.844 857C984.734 856.219 985.18 855.195 985.18 853.93C985.18 852.883 984.734 851.906 983.844 851C982.969 850.078 981.539 849.102 979.555 848.07C976.227 849.602 974.562 851.539 974.562 853.883ZM979.859 833.586C978.625 833.586 977.625 833.906 976.859 834.547C976.109 835.172 975.734 836.016 975.734 837.078C975.734 838.016 976.031 838.859 976.625 839.609C977.234 840.344 978.328 841.102 979.906 841.883C981.438 841.164 982.508 840.43 983.117 839.68C983.727 838.93 984.031 838.062 984.031 837.078C984.031 836 983.641 835.148 982.859 834.523C982.078 833.898 981.078 833.586 979.859 833.586Z" fill="white"/>
<path d="M1014.91 860.656L1015.37 859.294L1016 857.565L1020.35 846.975H1023.44V863H1021.29V849.743L1020.99 850.593L1020.14 852.834L1016 863H1013.96L1009.82 852.805C1009.3 851.496 1008.94 850.476 1008.75 849.743V863H1006.58V846.975H1009.55L1013.76 857.155C1014.18 858.229 1014.56 859.396 1014.91 860.656ZM1040.61 863H1038.15V849.025H1033.33C1033.06 852.502 1032.7 855.261 1032.23 857.302C1031.76 859.343 1031.15 860.837 1030.4 861.784C1029.65 862.731 1028.71 863.205 1027.55 863.205C1027.03 863.205 1026.61 863.146 1026.29 863.029V861.228C1026.51 861.286 1026.75 861.315 1027.03 861.315C1028.15 861.315 1029.04 860.129 1029.71 857.756C1030.37 855.383 1030.88 851.779 1031.22 846.945H1040.61V863ZM1048.21 846.945V853.669H1057.2V846.945H1059.63V863H1057.2V855.764H1048.21V863H1045.78V846.945H1048.21ZM1072.92 863V858.92H1070.31V856.97H1072.92V854.3H1070.31V852.02H1072.92V841.58H1078.56C1081.18 841.58 1083.12 842.11 1084.38 843.17C1085.66 844.23 1086.3 845.77 1086.3 847.79C1086.3 849.83 1085.61 851.43 1084.23 852.59C1082.85 853.73 1080.82 854.3 1078.14 854.3H1075.62V856.97H1080.57V858.92H1075.62V863H1072.92ZM1077.75 852.02C1079.57 852.02 1080.98 851.72 1081.98 851.12C1083 850.52 1083.51 849.44 1083.51 847.88C1083.51 846.52 1083.09 845.51 1082.25 844.85C1081.41 844.19 1080.1 843.86 1078.32 843.86H1075.62V852.02H1077.75Z" fill="white"/>
</svg>
