<svg width="1590" height="1011" viewBox="0 0 1590 1011" fill="none" xmlns="http://www.w3.org/2000/svg">
<path d="M1590 287.999C986.751 287.999 603.249 288 0 288" stroke="#275D81" stroke-width="2"/>
<path d="M31.6562 43H24.4141V14.7812H11.8047V43H4.53906V8.73438H31.6562V43ZM63.2031 43H56.0547V22.1641H49.4688C48.9688 28.0234 48.3594 32.3984 47.6406 35.2891C46.9219 38.1641 45.9609 40.25 44.7578 41.5469C43.5703 42.8281 42.0078 43.4688 40.0703 43.4688C38.4141 43.4688 37.0547 43.2188 35.9922 42.7188V37C36.7578 37.3125 37.5234 37.4688 38.2891 37.4688C39.1797 37.4688 39.9219 36.8281 40.5156 35.5469C41.125 34.2656 41.6641 32.1328 42.1328 29.1484C42.6172 26.1484 43.0312 22.0312 43.375 16.7969H63.2031V43ZM87.3672 43L85.9844 39.4375H85.7969C84.5938 40.9531 83.3516 42.0078 82.0703 42.6016C80.8047 43.1797 79.1484 43.4688 77.1016 43.4688C74.5859 43.4688 72.6016 42.75 71.1484 41.3125C69.7109 39.875 68.9922 37.8281 68.9922 35.1719C68.9922 32.3906 69.9609 30.3438 71.8984 29.0312C73.8516 27.7031 76.7891 26.9688 80.7109 26.8281L85.2578 26.6875V25.5391C85.2578 22.8828 83.8984 21.5547 81.1797 21.5547C79.0859 21.5547 76.625 22.1875 73.7969 23.4531L71.4297 18.625C74.4453 17.0469 77.7891 16.2578 81.4609 16.2578C84.9766 16.2578 87.6719 17.0234 89.5469 18.5547C91.4219 20.0859 92.3594 22.4141 92.3594 25.5391V43H87.3672ZM85.2578 30.8594L82.4922 30.9531C80.4141 31.0156 78.8672 31.3906 77.8516 32.0781C76.8359 32.7656 76.3281 33.8125 76.3281 35.2188C76.3281 37.2344 77.4844 38.2422 79.7969 38.2422C81.4531 38.2422 82.7734 37.7656 83.7578 36.8125C84.7578 35.8594 85.2578 34.5938 85.2578 33.0156V30.8594ZM106.891 16.7969V26.875H116.875V16.7969H124.023V43H116.875V32.1953H106.891V43H99.7422V16.7969H106.891Z" fill="white"/>
<path d="M66.0938 220H41.9531V153.906L42.1875 143.047L42.5781 131.172C38.5677 135.182 35.7812 137.812 34.2188 139.062L21.0938 149.609L9.45312 135.078L46.25 105.781H66.0938V220ZM177.656 220H97.8125V203.203L126.484 174.219C134.974 165.521 140.521 159.505 143.125 156.172C145.729 152.786 147.604 149.661 148.75 146.797C149.896 143.932 150.469 140.964 150.469 137.891C150.469 133.307 149.193 129.896 146.641 127.656C144.141 125.417 140.781 124.297 136.562 124.297C132.135 124.297 127.839 125.312 123.672 127.344C119.505 129.375 115.156 132.266 110.625 136.016L97.5 120.469C103.125 115.677 107.786 112.292 111.484 110.312C115.182 108.333 119.219 106.823 123.594 105.781C127.969 104.688 132.865 104.141 138.281 104.141C145.417 104.141 151.719 105.443 157.188 108.047C162.656 110.651 166.901 114.297 169.922 118.984C172.943 123.672 174.453 129.036 174.453 135.078C174.453 140.339 173.516 145.286 171.641 149.922C169.818 154.505 166.953 159.219 163.047 164.062C159.193 168.906 152.37 175.807 142.578 184.766L127.891 198.594V199.688H177.656V220ZM230.781 147.031C241.823 147.031 250.599 150.13 257.109 156.328C263.672 162.526 266.953 171.016 266.953 181.797C266.953 194.557 263.021 204.375 255.156 211.25C247.292 218.125 236.042 221.562 221.406 221.562C208.698 221.562 198.438 219.505 190.625 215.391V194.531C194.74 196.719 199.531 198.516 205 199.922C210.469 201.276 215.651 201.953 220.547 201.953C235.286 201.953 242.656 195.911 242.656 183.828C242.656 172.318 235.026 166.562 219.766 166.562C217.005 166.562 213.958 166.849 210.625 167.422C207.292 167.943 204.583 168.516 202.5 169.141L192.891 163.984L197.188 105.781H259.141V126.25H218.359L216.25 148.672L218.984 148.125C222.161 147.396 226.094 147.031 230.781 147.031ZM401.562 154.531C401.562 177.031 396.823 193.828 387.344 204.922C377.865 216.016 363.516 221.562 344.297 221.562C337.526 221.562 332.396 221.198 328.906 220.469V201.094C333.281 202.188 337.865 202.734 342.656 202.734C350.729 202.734 357.37 201.562 362.578 199.219C367.786 196.823 371.771 193.099 374.531 188.047C377.292 182.943 378.88 175.938 379.297 167.031H378.359C375.339 171.927 371.849 175.365 367.891 177.344C363.932 179.323 358.984 180.312 353.047 180.312C343.099 180.312 335.26 177.135 329.531 170.781C323.802 164.375 320.938 155.495 320.938 144.141C320.938 131.901 324.401 122.24 331.328 115.156C338.307 108.021 347.786 104.453 359.766 104.453C368.203 104.453 375.573 106.432 381.875 110.391C388.229 114.349 393.099 120.104 396.484 127.656C399.87 135.156 401.562 144.115 401.562 154.531ZM360.234 123.828C355.234 123.828 351.328 125.547 348.516 128.984C345.703 132.422 344.297 137.37 344.297 143.828C344.297 149.349 345.573 153.724 348.125 156.953C350.677 160.182 354.557 161.797 359.766 161.797C364.661 161.797 368.854 160.208 372.344 157.031C375.833 153.802 377.578 150.104 377.578 145.938C377.578 139.74 375.938 134.505 372.656 130.234C369.427 125.964 365.286 123.828 360.234 123.828ZM455.156 147.031C466.198 147.031 474.974 150.13 481.484 156.328C488.047 162.526 491.328 171.016 491.328 181.797C491.328 194.557 487.396 204.375 479.531 211.25C471.667 218.125 460.417 221.562 445.781 221.562C433.073 221.562 422.812 219.505 415 215.391V194.531C419.115 196.719 423.906 198.516 429.375 199.922C434.844 201.276 440.026 201.953 444.922 201.953C459.661 201.953 467.031 195.911 467.031 183.828C467.031 172.318 459.401 166.562 444.141 166.562C441.38 166.562 438.333 166.849 435 167.422C431.667 167.943 428.958 168.516 426.875 169.141L417.266 163.984L421.562 105.781H483.516V126.25H442.734L440.625 148.672L443.359 148.125C446.536 147.396 450.469 147.031 455.156 147.031ZM544.375 104.297C555.312 104.297 564.115 106.797 570.781 111.797C577.5 116.745 580.859 123.438 580.859 131.875C580.859 137.708 579.245 142.917 576.016 147.5C572.786 152.031 567.578 156.094 560.391 159.688C568.932 164.271 575.052 169.062 578.75 174.062C582.5 179.01 584.375 184.453 584.375 190.391C584.375 199.766 580.703 207.318 573.359 213.047C566.016 218.724 556.354 221.562 544.375 221.562C531.875 221.562 522.057 218.906 514.922 213.594C507.786 208.281 504.219 200.755 504.219 191.016C504.219 184.505 505.938 178.724 509.375 173.672C512.865 168.62 518.438 164.167 526.094 160.312C519.583 156.198 514.896 151.797 512.031 147.109C509.167 142.422 507.734 137.292 507.734 131.719C507.734 123.542 511.12 116.927 517.891 111.875C524.661 106.823 533.49 104.297 544.375 104.297ZM526.562 189.609C526.562 194.089 528.125 197.578 531.25 200.078C534.375 202.578 538.646 203.828 544.062 203.828C550.052 203.828 554.531 202.552 557.5 200C560.469 197.396 561.953 193.984 561.953 189.766C561.953 186.276 560.469 183.021 557.5 180C554.583 176.927 549.818 173.672 543.203 170.234C532.109 175.339 526.562 181.797 526.562 189.609ZM544.219 121.953C540.104 121.953 536.771 123.021 534.219 125.156C531.719 127.24 530.469 130.052 530.469 133.594C530.469 136.719 531.458 139.531 533.438 142.031C535.469 144.479 539.115 147.005 544.375 149.609C549.479 147.214 553.047 144.766 555.078 142.266C557.109 139.766 558.125 136.875 558.125 133.594C558.125 130 556.823 127.161 554.219 125.078C551.615 122.995 548.281 121.953 544.219 121.953Z" fill="white"/>
<path d="M637.869 220H632.859V204.514L632.578 205.604C631.945 208.076 631.377 209.945 630.873 211.211L627.393 220H623.578L620.045 211.141C619.541 209.852 619.002 208.041 618.428 205.709L618.094 204.514V220H613.102V200.348H620.484L623.859 208.732C624.211 209.635 624.533 210.672 624.826 211.844C625.131 213.016 625.336 214.018 625.441 214.85C625.828 213.092 626.127 211.832 626.338 211.07C626.561 210.297 626.801 209.588 627.059 208.943C627.316 208.299 628.482 205.434 630.557 200.348H637.869V220ZM661.107 220H655.746V204.373H650.807C650.432 208.768 649.975 212.049 649.436 214.217C648.896 216.373 648.176 217.938 647.273 218.91C646.383 219.871 645.211 220.352 643.758 220.352C642.516 220.352 641.496 220.164 640.699 219.789V215.5C641.273 215.734 641.848 215.852 642.422 215.852C643.09 215.852 643.646 215.371 644.092 214.41C644.549 213.449 644.953 211.85 645.305 209.611C645.668 207.361 645.979 204.273 646.236 200.348H661.107V220ZM672.111 200.348V207.906H679.6V200.348H684.961V220H679.6V211.896H672.111V220H666.75V200.348H672.111ZM700.365 220V216.148H697.485V212.656H700.365V209.848H697.485V205.384H700.365V194.296H708.573C711.885 194.296 714.297 194.968 715.809 196.312C717.345 197.656 718.113 199.504 718.113 201.856C718.113 203.248 717.801 204.556 717.177 205.78C716.553 207.004 715.509 207.988 714.045 208.732C712.605 209.476 710.637 209.848 708.141 209.848H705.801V212.656H711.345V216.148H705.801V220H700.365ZM707.601 205.384C709.137 205.384 710.349 205.12 711.237 204.592C712.149 204.064 712.605 203.212 712.605 202.036C712.605 199.852 711.165 198.76 708.285 198.76H705.801V205.384H707.601Z" fill="white"/>
<path d="M902.102 32.5938H902.43C904.945 32.5938 906.914 31.9375 908.336 30.625C909.773 29.2969 910.492 27.4844 910.492 25.1875C910.492 23.0625 909.828 21.3594 908.5 20.0781C907.172 18.7812 905.359 18.1328 903.062 18.1328H902.102V32.5938ZM895.562 43.4688V38.1953H895.047C892.141 38.1953 889.594 37.6875 887.406 36.6719C885.219 35.6406 883.492 34.1016 882.227 32.0547C880.977 30.0078 880.352 27.7344 880.352 25.2344C880.352 22.8125 880.906 20.6328 882.016 18.6953C883.141 16.7422 884.758 15.2188 886.867 14.125C888.977 13.0156 891.461 12.4609 894.32 12.4609H895.562V8.24219H902.102V12.4609H903.344C906.188 12.4609 908.664 13.0156 910.773 14.125C912.883 15.2188 914.5 16.7422 915.625 18.6953C916.75 20.6328 917.312 22.8125 917.312 25.2344C917.312 27.7344 916.68 30.0078 915.414 32.0547C914.164 34.1016 912.445 35.6406 910.258 36.6719C908.07 37.6875 905.523 38.1953 902.617 38.1953H902.102V43.4688H895.562ZM895.562 18.1328H894.602C892.305 18.1328 890.492 18.7734 889.164 20.0547C887.836 21.3359 887.172 23.0469 887.172 25.1875C887.172 27.4375 887.875 29.2344 889.281 30.5781C890.688 31.9219 892.672 32.5938 895.234 32.5938H895.562V18.1328ZM939.883 43L938.5 39.4375H938.312C937.109 40.9531 935.867 42.0078 934.586 42.6016C933.32 43.1797 931.664 43.4688 929.617 43.4688C927.102 43.4688 925.117 42.75 923.664 41.3125C922.227 39.875 921.508 37.8281 921.508 35.1719C921.508 32.3906 922.477 30.3438 924.414 29.0312C926.367 27.7031 929.305 26.9688 933.227 26.8281L937.773 26.6875V25.5391C937.773 22.8828 936.414 21.5547 933.695 21.5547C931.602 21.5547 929.141 22.1875 926.312 23.4531L923.945 18.625C926.961 17.0469 930.305 16.2578 933.977 16.2578C937.492 16.2578 940.188 17.0234 942.062 18.5547C943.938 20.0859 944.875 22.4141 944.875 25.5391V43H939.883ZM937.773 30.8594L935.008 30.9531C932.93 31.0156 931.383 31.3906 930.367 32.0781C929.352 32.7656 928.844 33.8125 928.844 35.2188C928.844 37.2344 930 38.2422 932.312 38.2422C933.969 38.2422 935.289 37.7656 936.273 36.8125C937.273 35.8594 937.773 34.5938 937.773 33.0156V30.8594ZM969.438 16.7969H977.312L966.93 29.3594L978.227 43H970.117L959.406 29.7109V43H952.258V16.7969H959.406V29.5234L969.438 16.7969ZM1003.66 16.7969V22.1641H995.078V43H987.93V22.1641H979.328V16.7969H1003.66Z" fill="white"/>
<path d="M937.094 220H912.953V153.906L913.188 143.047L913.578 131.172C909.568 135.182 906.781 137.812 905.219 139.062L892.094 149.609L880.453 135.078L917.25 105.781H937.094V220ZM1048.66 220H968.812V203.203L997.484 174.219C1005.97 165.521 1011.52 159.505 1014.12 156.172C1016.73 152.786 1018.6 149.661 1019.75 146.797C1020.9 143.932 1021.47 140.964 1021.47 137.891C1021.47 133.307 1020.19 129.896 1017.64 127.656C1015.14 125.417 1011.78 124.297 1007.56 124.297C1003.14 124.297 998.839 125.312 994.672 127.344C990.505 129.375 986.156 132.266 981.625 136.016L968.5 120.469C974.125 115.677 978.786 112.292 982.484 110.312C986.182 108.333 990.219 106.823 994.594 105.781C998.969 104.688 1003.86 104.141 1009.28 104.141C1016.42 104.141 1022.72 105.443 1028.19 108.047C1033.66 110.651 1037.9 114.297 1040.92 118.984C1043.94 123.672 1045.45 129.036 1045.45 135.078C1045.45 140.339 1044.52 145.286 1042.64 149.922C1040.82 154.505 1037.95 159.219 1034.05 164.062C1030.19 168.906 1023.37 175.807 1013.58 184.766L998.891 198.594V199.688H1048.66V220ZM1142.64 196.328H1128.89V220H1105.3V196.328H1056.55V179.531L1106.62 105.781H1128.89V177.578H1142.64V196.328ZM1105.3 177.578V158.203C1105.3 154.974 1105.43 150.286 1105.69 144.141C1105.95 137.995 1106.16 134.427 1106.31 133.438H1105.69C1103.76 137.708 1101.44 141.875 1098.73 145.938L1077.8 177.578H1105.3ZM1272.41 162.891C1272.41 182.839 1269.12 197.604 1262.56 207.188C1256.05 216.771 1246 221.562 1232.41 221.562C1219.23 221.562 1209.28 216.615 1202.56 206.719C1195.9 196.823 1192.56 182.214 1192.56 162.891C1192.56 142.734 1195.82 127.891 1202.33 118.359C1208.84 108.776 1218.86 103.984 1232.41 103.984C1245.58 103.984 1255.53 108.984 1262.25 118.984C1269.02 128.984 1272.41 143.62 1272.41 162.891ZM1216.55 162.891C1216.55 176.901 1217.74 186.953 1220.14 193.047C1222.59 199.089 1226.68 202.109 1232.41 202.109C1238.03 202.109 1242.09 199.036 1244.59 192.891C1247.09 186.745 1248.34 176.745 1248.34 162.891C1248.34 148.88 1247.07 138.828 1244.52 132.734C1242.02 126.589 1237.98 123.516 1232.41 123.516C1226.73 123.516 1222.67 126.589 1220.22 132.734C1217.77 138.828 1216.55 148.88 1216.55 162.891ZM1367.02 196.328H1353.27V220H1329.67V196.328H1280.92V179.531L1331 105.781H1353.27V177.578H1367.02V196.328ZM1329.67 177.578V158.203C1329.67 154.974 1329.8 150.286 1330.06 144.141C1330.32 137.995 1330.53 134.427 1330.69 133.438H1330.06C1328.14 137.708 1325.82 141.875 1323.11 145.938L1302.17 177.578H1329.67ZM1435.69 220H1411.55V153.906L1411.78 143.047L1412.17 131.172C1408.16 135.182 1405.38 137.812 1403.81 139.062L1390.69 149.609L1379.05 135.078L1415.84 105.781H1435.69V220Z" fill="#01F859"/>
<path d="M1508.87 220H1503.86V204.514L1503.58 205.604C1502.95 208.076 1502.38 209.945 1501.87 211.211L1498.39 220H1494.58L1491.04 211.141C1490.54 209.852 1490 208.041 1489.43 205.709L1489.09 204.514V220H1484.1V200.348H1491.48L1494.86 208.732C1495.21 209.635 1495.53 210.672 1495.83 211.844C1496.13 213.016 1496.34 214.018 1496.44 214.85C1496.83 213.092 1497.13 211.832 1497.34 211.07C1497.56 210.297 1497.8 209.588 1498.06 208.943C1498.32 208.299 1499.48 205.434 1501.56 200.348H1508.87V220ZM1532.11 220H1526.75V204.373H1521.81C1521.43 208.768 1520.97 212.049 1520.44 214.217C1519.9 216.373 1519.18 217.938 1518.27 218.91C1517.38 219.871 1516.21 220.352 1514.76 220.352C1513.52 220.352 1512.5 220.164 1511.7 219.789V215.5C1512.27 215.734 1512.85 215.852 1513.42 215.852C1514.09 215.852 1514.65 215.371 1515.09 214.41C1515.55 213.449 1515.95 211.85 1516.3 209.611C1516.67 207.361 1516.98 204.273 1517.24 200.348H1532.11V220ZM1543.11 200.348V207.906H1550.6V200.348H1555.96V220H1550.6V211.896H1543.11V220H1537.75V200.348H1543.11ZM1571.37 220V216.148H1568.49V212.656H1571.37V209.848H1568.49V205.384H1571.37V194.296H1579.57C1582.89 194.296 1585.3 194.968 1586.81 196.312C1588.35 197.656 1589.11 199.504 1589.11 201.856C1589.11 203.248 1588.8 204.556 1588.18 205.78C1587.55 207.004 1586.51 207.988 1585.05 208.732C1583.61 209.476 1581.64 209.848 1579.14 209.848H1576.8V212.656H1582.35V216.148H1576.8V220H1571.37ZM1578.6 205.384C1580.14 205.384 1581.35 205.12 1582.24 204.592C1583.15 204.064 1583.61 203.212 1583.61 202.036C1583.61 199.852 1582.17 198.76 1579.29 198.76H1576.8V205.384H1578.6Z" fill="white"/>
<path d="M795 185C795 54.2253 795 182.689 795 51.9141" stroke="#275D81" stroke-width="2"/>
<mask id="path-9-inside-1" fill="white">
<path d="M424.944 328.949C351.708 323.478 278.66 341.76 216.637 381.085C154.613 420.41 106.919 478.681 80.6298 547.254C54.3409 615.827 50.8579 691.048 70.6977 761.757C90.5375 832.466 132.643 894.895 190.767 939.783C248.892 984.671 319.938 1009.63 393.365 1010.94C466.793 1012.26 538.69 989.878 598.389 947.107C658.088 904.335 702.409 843.459 724.776 773.508C747.143 703.558 746.364 628.26 722.556 558.787L580.411 607.501C593.744 646.406 594.18 688.572 581.655 727.745C569.129 766.917 544.309 801.008 510.878 824.96C477.446 848.911 437.184 861.448 396.065 860.709C354.945 859.97 315.159 845.996 282.61 820.858C250.06 795.721 226.481 760.761 215.371 721.164C204.26 681.567 206.211 639.443 220.933 601.042C235.654 562.641 262.363 530.009 297.096 507.988C331.83 485.966 372.737 475.727 413.749 478.792L424.944 328.949Z"/>
</mask>
<path d="M424.944 328.949C351.708 323.478 278.66 341.76 216.637 381.085C154.613 420.41 106.919 478.681 80.6298 547.254C54.3409 615.827 50.8579 691.048 70.6977 761.757C90.5375 832.466 132.643 894.895 190.767 939.783C248.892 984.671 319.938 1009.63 393.365 1010.94C466.793 1012.26 538.69 989.878 598.389 947.107C658.088 904.335 702.409 843.459 724.776 773.508C747.143 703.558 746.364 628.26 722.556 558.787L580.411 607.501C593.744 646.406 594.18 688.572 581.655 727.745C569.129 766.917 544.309 801.008 510.878 824.96C477.446 848.911 437.184 861.448 396.065 860.709C354.945 859.97 315.159 845.996 282.61 820.858C250.06 795.721 226.481 760.761 215.371 721.164C204.26 681.567 206.211 639.443 220.933 601.042C235.654 562.641 262.363 530.009 297.096 507.988C331.83 485.966 372.737 475.727 413.749 478.792L424.944 328.949Z" stroke="#FFBB00" stroke-width="240" mask="url(#path-9-inside-1)"/>
<mask id="path-10-inside-2" fill="white">
<path d="M723.625 561.96C701.52 495.334 659.42 437.14 603.057 395.298C546.693 353.456 478.805 330 408.633 328.122L404.615 478.328C443.911 479.38 481.928 492.515 513.492 515.947C545.055 539.378 568.631 571.967 581.01 609.277L723.625 561.96Z"/>
</mask>
<path d="M723.625 561.96C701.52 495.334 659.42 437.14 603.057 395.298C546.693 353.456 478.805 330 408.633 328.122L404.615 478.328C443.911 479.38 481.928 492.515 513.492 515.947C545.055 539.378 568.631 571.967 581.01 609.277L723.625 561.96Z" stroke="#0395FF" stroke-width="240" mask="url(#path-10-inside-2)"/>
<path d="M349.84 619.115C349.84 623.229 348.797 626.463 346.711 628.818C344.637 631.174 341.748 632.352 338.045 632.352C334.26 632.352 331.336 631.197 329.273 628.889C327.223 626.568 326.197 623.299 326.197 619.08C326.197 614.896 327.229 611.656 329.291 609.359C331.354 607.051 334.283 605.896 338.08 605.896C341.771 605.896 344.654 607.068 346.729 609.412C348.803 611.756 349.84 614.99 349.84 619.115ZM329.361 619.115C329.361 622.596 330.1 625.238 331.576 627.043C333.064 628.836 335.221 629.732 338.045 629.732C340.893 629.732 343.043 628.836 344.496 627.043C345.949 625.25 346.676 622.607 346.676 619.115C346.676 615.658 345.949 613.039 344.496 611.258C343.055 609.465 340.916 608.568 338.08 608.568C335.232 608.568 333.064 609.471 331.576 611.275C330.1 613.068 329.361 615.682 329.361 619.115ZM362.848 632.352C360.059 632.352 357.896 631.496 356.361 629.785C354.838 628.062 354.076 625.631 354.076 622.49C354.076 619.268 354.85 616.777 356.396 615.02C357.955 613.262 360.17 612.383 363.041 612.383C363.967 612.383 364.893 612.482 365.818 612.682C366.744 612.881 367.471 613.115 367.998 613.385L367.102 615.863C366.457 615.605 365.754 615.395 364.992 615.23C364.23 615.055 363.557 614.967 362.971 614.967C359.057 614.967 357.1 617.463 357.1 622.455C357.1 624.822 357.574 626.639 358.523 627.904C359.484 629.17 360.902 629.803 362.777 629.803C364.383 629.803 366.029 629.457 367.717 628.766V631.35C366.428 632.018 364.805 632.352 362.848 632.352ZM387.932 617.568C387.932 618.822 387.568 619.777 386.842 620.434C386.127 621.078 385.119 621.512 383.818 621.734V621.893C385.459 622.115 386.654 622.596 387.404 623.334C388.166 624.072 388.547 625.092 388.547 626.393C388.547 628.186 387.885 629.568 386.561 630.541C385.248 631.514 383.326 632 380.795 632H372.305V612.734H380.76C385.541 612.734 387.932 614.346 387.932 617.568ZM385.629 626.199C385.629 625.156 385.23 624.4 384.434 623.932C383.648 623.451 382.342 623.211 380.514 623.211H375.223V629.557H380.584C383.947 629.557 385.629 628.438 385.629 626.199ZM385.084 617.85C385.084 616.912 384.721 616.25 383.994 615.863C383.279 615.465 382.189 615.266 380.725 615.266H375.223V620.697H380.162C381.967 620.697 383.238 620.475 383.977 620.029C384.715 619.584 385.084 618.857 385.084 617.85ZM409.43 622.35C409.43 625.49 408.639 627.945 407.057 629.715C405.475 631.473 403.289 632.352 400.5 632.352C398.777 632.352 397.248 631.947 395.912 631.139C394.576 630.33 393.545 629.17 392.818 627.658C392.092 626.146 391.729 624.377 391.729 622.35C391.729 619.209 392.514 616.766 394.084 615.02C395.654 613.262 397.834 612.383 400.623 612.383C403.318 612.383 405.457 613.279 407.039 615.072C408.633 616.865 409.43 619.291 409.43 622.35ZM394.752 622.35C394.752 624.811 395.244 626.686 396.229 627.975C397.213 629.264 398.66 629.908 400.57 629.908C402.48 629.908 403.928 629.27 404.912 627.992C405.908 626.703 406.406 624.822 406.406 622.35C406.406 619.9 405.908 618.043 404.912 616.777C403.928 615.5 402.469 614.861 400.535 614.861C398.625 614.861 397.184 615.488 396.211 616.742C395.238 617.996 394.752 619.865 394.752 622.35ZM422.701 632.352C419.854 632.352 417.604 631.484 415.951 629.75C414.311 628.016 413.49 625.607 413.49 622.525C413.49 619.42 414.252 616.953 415.775 615.125C417.311 613.297 419.367 612.383 421.945 612.383C424.359 612.383 426.27 613.18 427.676 614.773C429.082 616.355 429.785 618.447 429.785 621.049V622.895H416.514C416.572 625.156 417.141 626.873 418.219 628.045C419.309 629.217 420.838 629.803 422.807 629.803C424.881 629.803 426.932 629.369 428.959 628.502V631.104C427.928 631.549 426.949 631.865 426.023 632.053C425.109 632.252 424.002 632.352 422.701 632.352ZM421.91 614.826C420.363 614.826 419.127 615.33 418.201 616.338C417.287 617.346 416.748 618.74 416.584 620.521H426.656C426.656 618.682 426.246 617.275 425.426 616.303C424.605 615.318 423.434 614.826 421.91 614.826ZM437.695 612.734V620.803H448.488V612.734H451.406V632H448.488V623.316H437.695V632H434.777V612.734H437.695ZM474.223 622.35C474.223 625.49 473.432 627.945 471.85 629.715C470.268 631.473 468.082 632.352 465.293 632.352C463.57 632.352 462.041 631.947 460.705 631.139C459.369 630.33 458.338 629.17 457.611 627.658C456.885 626.146 456.521 624.377 456.521 622.35C456.521 619.209 457.307 616.766 458.877 615.02C460.447 613.262 462.627 612.383 465.416 612.383C468.111 612.383 470.25 613.279 471.832 615.072C473.426 616.865 474.223 619.291 474.223 622.35ZM459.545 622.35C459.545 624.811 460.037 626.686 461.021 627.975C462.006 629.264 463.453 629.908 465.363 629.908C467.273 629.908 468.721 629.27 469.705 627.992C470.701 626.703 471.199 624.822 471.199 622.35C471.199 619.9 470.701 618.043 469.705 616.777C468.721 615.5 467.262 614.861 465.328 614.861C463.418 614.861 461.977 615.488 461.004 616.742C460.031 617.996 459.545 619.865 459.545 622.35Z" fill="white"/>
<path d="M308.438 704H298.781V677.562L298.875 673.219L299.031 668.469C297.427 670.073 296.312 671.125 295.688 671.625L290.438 675.844L285.781 670.031L300.5 658.312H308.438V704ZM345 704H335.344V677.562L335.438 673.219L335.594 668.469C333.99 670.073 332.875 671.125 332.25 671.625L327 675.844L322.344 670.031L337.062 658.312H345V704ZM373.438 657.719C377.812 657.719 381.333 658.719 384 660.719C386.688 662.698 388.031 665.375 388.031 668.75C388.031 671.083 387.385 673.167 386.094 675C384.802 676.812 382.719 678.438 379.844 679.875C383.26 681.708 385.708 683.625 387.188 685.625C388.688 687.604 389.438 689.781 389.438 692.156C389.438 695.906 387.969 698.927 385.031 701.219C382.094 703.49 378.229 704.625 373.438 704.625C368.438 704.625 364.51 703.562 361.656 701.438C358.802 699.312 357.375 696.302 357.375 692.406C357.375 689.802 358.062 687.49 359.438 685.469C360.833 683.448 363.062 681.667 366.125 680.125C363.521 678.479 361.646 676.719 360.5 674.844C359.354 672.969 358.781 670.917 358.781 668.688C358.781 665.417 360.135 662.771 362.844 660.75C365.552 658.729 369.083 657.719 373.438 657.719ZM366.312 691.844C366.312 693.635 366.938 695.031 368.188 696.031C369.438 697.031 371.146 697.531 373.312 697.531C375.708 697.531 377.5 697.021 378.688 696C379.875 694.958 380.469 693.594 380.469 691.906C380.469 690.51 379.875 689.208 378.688 688C377.521 686.771 375.615 685.469 372.969 684.094C368.531 686.135 366.312 688.719 366.312 691.844ZM373.375 664.781C371.729 664.781 370.396 665.208 369.375 666.062C368.375 666.896 367.875 668.021 367.875 669.438C367.875 670.688 368.271 671.812 369.062 672.812C369.875 673.792 371.333 674.802 373.438 675.844C375.479 674.885 376.906 673.906 377.719 672.906C378.531 671.906 378.938 670.75 378.938 669.438C378.938 668 378.417 666.865 377.375 666.031C376.333 665.198 375 664.781 373.375 664.781ZM442.625 677.812C442.625 686.812 440.729 693.531 436.938 697.969C433.146 702.406 427.406 704.625 419.719 704.625C417.01 704.625 414.958 704.479 413.562 704.188V696.438C415.312 696.875 417.146 697.094 419.062 697.094C422.292 697.094 424.948 696.625 427.031 695.688C429.115 694.729 430.708 693.24 431.812 691.219C432.917 689.177 433.552 686.375 433.719 682.812H433.344C432.135 684.771 430.74 686.146 429.156 686.938C427.573 687.729 425.594 688.125 423.219 688.125C419.24 688.125 416.104 686.854 413.812 684.312C411.521 681.75 410.375 678.198 410.375 673.656C410.375 668.76 411.76 664.896 414.531 662.062C417.323 659.208 421.115 657.781 425.906 657.781C429.281 657.781 432.229 658.573 434.75 660.156C437.292 661.74 439.24 664.042 440.594 667.062C441.948 670.062 442.625 673.646 442.625 677.812ZM426.094 665.531C424.094 665.531 422.531 666.219 421.406 667.594C420.281 668.969 419.719 670.948 419.719 673.531C419.719 675.74 420.229 677.49 421.25 678.781C422.271 680.073 423.823 680.719 425.906 680.719C427.865 680.719 429.542 680.083 430.938 678.812C432.333 677.521 433.031 676.042 433.031 674.375C433.031 671.896 432.375 669.802 431.062 668.094C429.771 666.385 428.115 665.531 426.094 665.531ZM479.125 681.156C479.125 689.135 477.812 695.042 475.188 698.875C472.583 702.708 468.562 704.625 463.125 704.625C457.854 704.625 453.875 702.646 451.188 698.688C448.521 694.729 447.188 688.885 447.188 681.156C447.188 673.094 448.49 667.156 451.094 663.344C453.698 659.51 457.708 657.594 463.125 657.594C468.396 657.594 472.375 659.594 475.062 663.594C477.771 667.594 479.125 673.448 479.125 681.156ZM456.781 681.156C456.781 686.76 457.26 690.781 458.219 693.219C459.198 695.635 460.833 696.844 463.125 696.844C465.375 696.844 467 695.615 468 693.156C469 690.698 469.5 686.698 469.5 681.156C469.5 675.552 468.99 671.531 467.969 669.094C466.969 666.635 465.354 665.406 463.125 665.406C460.854 665.406 459.229 666.635 458.25 669.094C457.271 671.531 456.781 675.552 456.781 681.156ZM516.969 694.531H511.469V704H502.031V694.531H482.531V687.812L502.562 658.312H511.469V687.031H516.969V694.531ZM502.031 687.031V679.281C502.031 677.99 502.083 676.115 502.188 673.656C502.292 671.198 502.375 669.771 502.438 669.375H502.188C501.417 671.083 500.49 672.75 499.406 674.375L491.031 687.031H502.031Z" fill="white"/>
<path d="M373.458 733.969L373.852 732.788L374.397 731.29L378.168 722.111H380.847V736H378.98V724.511L378.727 725.247L377.99 727.189L374.397 736H372.633L369.04 727.164C368.591 726.03 368.283 725.146 368.113 724.511V736H366.234V722.111H368.812L372.455 730.935C372.819 731.866 373.153 732.877 373.458 733.969ZM395.726 736H393.593V723.889H389.416C389.188 726.902 388.87 729.293 388.464 731.062C388.058 732.83 387.529 734.125 386.877 734.946C386.234 735.767 385.413 736.178 384.414 736.178C383.957 736.178 383.593 736.127 383.322 736.025V734.464C383.508 734.515 383.72 734.54 383.957 734.54C384.93 734.54 385.705 733.512 386.28 731.455C386.856 729.398 387.292 726.275 387.588 722.086H395.726V736ZM402.314 722.086V727.913H410.109V722.086H412.217V736H410.109V729.729H402.314V736H400.207V722.086H402.314ZM423.727 736V732.464H421.465V730.774H423.727V728.46H421.465V726.484H423.727V717.436H428.615C430.886 717.436 432.567 717.895 433.659 718.814C434.768 719.733 435.323 721.067 435.323 722.818C435.323 724.586 434.725 725.973 433.529 726.978C432.333 727.966 430.574 728.46 428.251 728.46H426.067V730.774H430.357V732.464H426.067V736H423.727ZM427.913 726.484C429.49 726.484 430.712 726.224 431.579 725.704C432.463 725.184 432.905 724.248 432.905 722.896C432.905 721.717 432.541 720.842 431.813 720.27C431.085 719.698 429.95 719.412 428.407 719.412H426.067V726.484H427.913Z" fill="white"/>
<rect x="884" y="520" width="240" height="130" fill="#FFBB00"/>
<path d="M929.344 563.719C933.719 563.719 937.24 564.719 939.906 566.719C942.594 568.698 943.938 571.375 943.938 574.75C943.938 577.083 943.292 579.167 942 581C940.708 582.812 938.625 584.438 935.75 585.875C939.167 587.708 941.615 589.625 943.094 591.625C944.594 593.604 945.344 595.781 945.344 598.156C945.344 601.906 943.875 604.927 940.938 607.219C938 609.49 934.135 610.625 929.344 610.625C924.344 610.625 920.417 609.562 917.562 607.438C914.708 605.312 913.281 602.302 913.281 598.406C913.281 595.802 913.969 593.49 915.344 591.469C916.74 589.448 918.969 587.667 922.031 586.125C919.427 584.479 917.552 582.719 916.406 580.844C915.26 578.969 914.688 576.917 914.688 574.688C914.688 571.417 916.042 568.771 918.75 566.75C921.458 564.729 924.99 563.719 929.344 563.719ZM922.219 597.844C922.219 599.635 922.844 601.031 924.094 602.031C925.344 603.031 927.052 603.531 929.219 603.531C931.615 603.531 933.406 603.021 934.594 602C935.781 600.958 936.375 599.594 936.375 597.906C936.375 596.51 935.781 595.208 934.594 594C933.427 592.771 931.521 591.469 928.875 590.094C924.438 592.135 922.219 594.719 922.219 597.844ZM929.281 570.781C927.635 570.781 926.302 571.208 925.281 572.062C924.281 572.896 923.781 574.021 923.781 575.438C923.781 576.688 924.177 577.812 924.969 578.812C925.781 579.792 927.24 580.802 929.344 581.844C931.385 580.885 932.812 579.906 933.625 578.906C934.438 577.906 934.844 576.75 934.844 575.438C934.844 574 934.323 572.865 933.281 572.031C932.24 571.198 930.906 570.781 929.281 570.781ZM981.844 587.156C981.844 595.135 980.531 601.042 977.906 604.875C975.302 608.708 971.281 610.625 965.844 610.625C960.573 610.625 956.594 608.646 953.906 604.688C951.24 600.729 949.906 594.885 949.906 587.156C949.906 579.094 951.208 573.156 953.812 569.344C956.417 565.51 960.427 563.594 965.844 563.594C971.115 563.594 975.094 565.594 977.781 569.594C980.49 573.594 981.844 579.448 981.844 587.156ZM959.5 587.156C959.5 592.76 959.979 596.781 960.938 599.219C961.917 601.635 963.552 602.844 965.844 602.844C968.094 602.844 969.719 601.615 970.719 599.156C971.719 596.698 972.219 592.698 972.219 587.156C972.219 581.552 971.708 577.531 970.688 575.094C969.688 572.635 968.073 571.406 965.844 571.406C963.573 571.406 961.948 572.635 960.969 575.094C959.99 577.531 959.5 581.552 959.5 587.156ZM998.5 603.281C997.417 607.49 995.583 612.479 993 618.25H986.125C987.479 612.708 988.531 607.479 989.281 602.562H998.031L998.5 603.281ZM1035.44 574.531C1035.44 577.385 1034.57 579.812 1032.84 581.812C1031.11 583.812 1028.69 585.188 1025.56 585.938V586.125C1029.25 586.583 1032.04 587.708 1033.94 589.5C1035.83 591.271 1036.78 593.667 1036.78 596.688C1036.78 601.083 1035.19 604.51 1032 606.969C1028.81 609.406 1024.26 610.625 1018.34 610.625C1013.39 610.625 1008.99 609.802 1005.16 608.156V599.938C1006.93 600.833 1008.88 601.562 1011 602.125C1013.12 602.688 1015.23 602.969 1017.31 602.969C1020.5 602.969 1022.85 602.427 1024.38 601.344C1025.9 600.26 1026.66 598.521 1026.66 596.125C1026.66 593.979 1025.78 592.458 1024.03 591.562C1022.28 590.667 1019.49 590.219 1015.66 590.219H1012.19V582.812H1015.72C1019.26 582.812 1021.84 582.354 1023.47 581.438C1025.11 580.5 1025.94 578.906 1025.94 576.656C1025.94 573.198 1023.77 571.469 1019.44 571.469C1017.94 571.469 1016.41 571.719 1014.84 572.219C1013.3 572.719 1011.58 573.583 1009.69 574.812L1005.22 568.156C1009.39 565.156 1014.35 563.656 1020.12 563.656C1024.85 563.656 1028.58 564.615 1031.31 566.531C1034.06 568.448 1035.44 571.115 1035.44 574.531ZM1049.12 578C1049.12 580.646 1049.35 582.625 1049.81 583.938C1050.29 585.229 1051.05 585.875 1052.09 585.875C1054.09 585.875 1055.09 583.25 1055.09 578C1055.09 572.792 1054.09 570.188 1052.09 570.188C1051.05 570.188 1050.29 570.833 1049.81 572.125C1049.35 573.396 1049.12 575.354 1049.12 578ZM1062.97 577.938C1062.97 582.729 1062.04 586.333 1060.19 588.75C1058.33 591.146 1055.61 592.344 1052.03 592.344C1048.59 592.344 1045.94 591.115 1044.06 588.656C1042.19 586.177 1041.25 582.604 1041.25 577.938C1041.25 568.417 1044.84 563.656 1052.03 563.656C1055.55 563.656 1058.25 564.896 1060.12 567.375C1062.02 569.833 1062.97 573.354 1062.97 577.938ZM1084.47 564.312L1059.12 610H1051.62L1076.97 564.312H1084.47ZM1081.12 596.25C1081.12 598.896 1081.35 600.875 1081.81 602.188C1082.29 603.479 1083.05 604.125 1084.09 604.125C1086.09 604.125 1087.09 601.5 1087.09 596.25C1087.09 591.042 1086.09 588.438 1084.09 588.438C1083.05 588.438 1082.29 589.083 1081.81 590.375C1081.35 591.646 1081.12 593.604 1081.12 596.25ZM1094.97 596.188C1094.97 600.958 1094.04 604.552 1092.19 606.969C1090.33 609.365 1087.61 610.562 1084.03 610.562C1080.59 610.562 1077.94 609.333 1076.06 606.875C1074.19 604.396 1073.25 600.833 1073.25 596.188C1073.25 586.667 1076.84 581.906 1084.03 581.906C1087.55 581.906 1090.25 583.146 1092.12 585.625C1094.02 588.083 1094.97 591.604 1094.97 596.188Z" fill="white"/>
<path d="M1185.5 560H1182.51V549.383C1180.76 550.004 1179.31 550.432 1178.15 550.666C1176.99 550.889 1175.79 551 1174.55 551C1172.12 551 1170.25 550.443 1168.94 549.33C1167.64 548.217 1166.99 546.611 1166.99 544.514V534.301H1169.98V544.162C1169.98 545.58 1170.35 546.629 1171.08 547.309C1171.83 547.988 1173.05 548.328 1174.72 548.328C1175.86 548.328 1176.94 548.246 1177.97 548.082C1179.02 547.906 1180.53 547.496 1182.51 546.852V534.301H1185.5V560ZM1200.26 560.352C1197.42 560.352 1195.17 559.484 1193.51 557.75C1191.87 556.016 1191.05 553.607 1191.05 550.525C1191.05 547.42 1191.81 544.953 1193.34 543.125C1194.87 541.297 1196.93 540.383 1199.51 540.383C1201.92 540.383 1203.83 541.18 1205.24 542.773C1206.64 544.355 1207.35 546.447 1207.35 549.049V550.895H1194.08C1194.13 553.156 1194.7 554.873 1195.78 556.045C1196.87 557.217 1198.4 557.803 1200.37 557.803C1202.44 557.803 1204.49 557.369 1206.52 556.502V559.104C1205.49 559.549 1204.51 559.865 1203.59 560.053C1202.67 560.252 1201.56 560.352 1200.26 560.352ZM1199.47 542.826C1197.93 542.826 1196.69 543.33 1195.76 544.338C1194.85 545.346 1194.31 546.74 1194.15 548.521H1204.22C1204.22 546.682 1203.81 545.275 1202.99 544.303C1202.17 543.318 1201 542.826 1199.47 542.826ZM1221.3 560.352C1220.05 560.352 1218.9 560.123 1217.86 559.666C1216.83 559.197 1215.96 558.482 1215.26 557.521H1215.05C1215.19 558.646 1215.26 559.713 1215.26 560.721V568.648H1212.34V540.734H1214.71L1215.12 543.371H1215.26C1216.01 542.316 1216.88 541.555 1217.88 541.086C1218.87 540.617 1220.02 540.383 1221.3 540.383C1223.86 540.383 1225.83 541.256 1227.21 543.002C1228.61 544.748 1229.3 547.197 1229.3 550.35C1229.3 553.514 1228.59 555.975 1227.18 557.732C1225.77 559.479 1223.81 560.352 1221.3 560.352ZM1220.88 542.861C1218.91 542.861 1217.49 543.406 1216.61 544.496C1215.73 545.586 1215.28 547.32 1215.26 549.699V550.35C1215.26 553.057 1215.71 554.996 1216.61 556.168C1217.51 557.328 1218.96 557.908 1220.95 557.908C1222.62 557.908 1223.92 557.234 1224.86 555.887C1225.8 554.539 1226.28 552.682 1226.28 550.314C1226.28 547.912 1225.8 546.072 1224.86 544.795C1223.92 543.506 1222.59 542.861 1220.88 542.861ZM1242.56 560.352C1239.71 560.352 1237.46 559.484 1235.81 557.75C1234.17 556.016 1233.35 553.607 1233.35 550.525C1233.35 547.42 1234.11 544.953 1235.63 543.125C1237.17 541.297 1239.22 540.383 1241.8 540.383C1244.21 540.383 1246.12 541.18 1247.53 542.773C1248.94 544.355 1249.64 546.447 1249.64 549.049V550.895H1236.37C1236.43 553.156 1237 554.873 1238.07 556.045C1239.16 557.217 1240.69 557.803 1242.66 557.803C1244.74 557.803 1246.79 557.369 1248.81 556.502V559.104C1247.78 559.549 1246.8 559.865 1245.88 560.053C1244.96 560.252 1243.86 560.352 1242.56 560.352ZM1241.77 542.826C1240.22 542.826 1238.98 543.33 1238.06 544.338C1237.14 545.346 1236.6 546.74 1236.44 548.521H1246.51C1246.51 546.682 1246.1 545.275 1245.28 544.303C1244.46 543.318 1243.29 542.826 1241.77 542.826ZM1258.31 548.732C1261.95 548.732 1263.77 547.725 1263.77 545.709C1263.77 543.811 1262.3 542.861 1259.34 542.861C1258.44 542.861 1257.62 542.943 1256.88 543.107C1256.14 543.271 1255.18 543.6 1253.98 544.092L1252.95 541.719C1254.94 540.828 1257.11 540.383 1259.47 540.383C1261.68 540.383 1263.43 540.84 1264.71 541.754C1265.98 542.656 1266.62 543.893 1266.62 545.463C1266.62 547.619 1265.42 549.031 1263.02 549.699V549.84C1264.49 550.273 1265.57 550.895 1266.25 551.703C1266.93 552.5 1267.27 553.502 1267.27 554.709C1267.27 556.49 1266.55 557.879 1265.11 558.875C1263.68 559.859 1261.7 560.352 1259.17 560.352C1256.39 560.352 1254.25 559.936 1252.73 559.104V556.432C1254.88 557.439 1257.05 557.943 1259.24 557.943C1260.93 557.943 1262.2 557.656 1263.05 557.082C1263.92 556.496 1264.35 555.658 1264.35 554.568C1264.35 552.33 1262.53 551.211 1258.89 551.211H1256.21V548.732H1258.31ZM1280.38 548.451C1280.38 544.232 1281.01 540.945 1282.25 538.59C1283.49 536.223 1285.46 534.746 1288.15 534.16C1291.51 533.445 1294.46 532.865 1297.01 532.42L1297.56 534.986C1293.49 535.666 1290.59 536.205 1288.84 536.604C1287.14 536.99 1285.86 537.904 1285.01 539.346C1284.16 540.787 1283.7 542.75 1283.62 545.234H1283.83C1284.56 544.25 1285.49 543.477 1286.64 542.914C1287.79 542.352 1288.99 542.07 1290.25 542.07C1292.61 542.07 1294.46 542.838 1295.78 544.373C1297.11 545.908 1297.77 548.035 1297.77 550.754C1297.77 553.766 1297 556.121 1295.47 557.82C1293.93 559.508 1291.79 560.352 1289.05 560.352C1286.34 560.352 1284.22 559.314 1282.69 557.24C1281.15 555.166 1280.38 552.236 1280.38 548.451ZM1289.31 557.908C1292.89 557.908 1294.68 555.629 1294.68 551.07C1294.68 546.723 1293.05 544.549 1289.81 544.549C1288.92 544.549 1288.05 544.736 1287.22 545.111C1286.4 545.475 1285.65 545.961 1284.96 546.57C1284.28 547.18 1283.75 547.807 1283.37 548.451C1283.37 551.533 1283.86 553.883 1284.83 555.5C1285.8 557.105 1287.3 557.908 1289.31 557.908ZM1327.67 550.35C1327.67 553.502 1326.91 555.957 1325.4 557.715C1323.9 559.473 1321.84 560.352 1319.21 560.352C1316.72 560.352 1314.74 559.572 1313.27 558.014C1311.81 556.443 1310.99 554.211 1310.83 551.316H1305.79V560H1302.87V540.734H1305.79V548.803H1310.87C1311.1 546.131 1311.96 544.062 1313.43 542.598C1314.91 541.121 1316.86 540.383 1319.29 540.383C1321.86 540.383 1323.9 541.279 1325.4 543.072C1326.91 544.854 1327.67 547.279 1327.67 550.35ZM1313.85 550.35C1313.85 552.822 1314.28 554.703 1315.14 555.992C1315.99 557.27 1317.36 557.908 1319.25 557.908C1321.1 557.908 1322.46 557.287 1323.33 556.045C1324.21 554.791 1324.65 552.893 1324.65 550.35C1324.65 547.889 1324.22 546.025 1323.36 544.76C1322.51 543.494 1321.14 542.861 1319.25 542.861C1317.36 542.861 1315.99 543.494 1315.14 544.76C1314.28 546.025 1313.85 547.889 1313.85 550.35ZM1349.52 566.662H1346.69V560H1333.22V566.662H1330.41V557.486H1331.92C1333.49 555.354 1334.72 552.852 1335.62 549.98C1336.51 547.109 1336.97 544.027 1337 540.734H1346.76V557.486H1349.52V566.662ZM1343.95 557.486V543.037H1339.62C1339.47 545.639 1338.97 548.275 1338.11 550.947C1337.27 553.607 1336.21 555.787 1334.95 557.486H1343.95ZM1362.18 540.77H1364.87V550.104L1372.83 540.77H1376.03L1367.98 550.104L1376.71 560H1373.34L1364.87 550.244V560H1362.18V550.244L1353.72 560H1350.36L1359.08 550.104L1351.05 540.77H1354.25L1362.18 550.104V540.77ZM1388.03 560.352C1385.19 560.352 1382.94 559.484 1381.28 557.75C1379.64 556.016 1378.82 553.607 1378.82 550.525C1378.82 547.42 1379.58 544.953 1381.11 543.125C1382.64 541.297 1384.7 540.383 1387.28 540.383C1389.69 540.383 1391.6 541.18 1393.01 542.773C1394.41 544.355 1395.12 546.447 1395.12 549.049V550.895H1381.85C1381.9 553.156 1382.47 554.873 1383.55 556.045C1384.64 557.217 1386.17 557.803 1388.14 557.803C1390.21 557.803 1392.26 557.369 1394.29 556.502V559.104C1393.26 559.549 1392.28 559.865 1391.36 560.053C1390.44 560.252 1389.33 560.352 1388.03 560.352ZM1387.24 542.826C1385.7 542.826 1384.46 543.33 1383.53 544.338C1382.62 545.346 1382.08 546.74 1381.92 548.521H1391.99C1391.99 546.682 1391.58 545.275 1390.76 544.303C1389.94 543.318 1388.77 542.826 1387.24 542.826ZM1413.1 543.23H1406.84V560H1403.92V543.23H1397.74V540.734H1413.1V543.23Z" fill="white"/>
<path d="M1198.53 608.812C1198.53 617.812 1196.64 624.531 1192.84 628.969C1189.05 633.406 1183.31 635.625 1175.62 635.625C1172.92 635.625 1170.86 635.479 1169.47 635.188V627.438C1171.22 627.875 1173.05 628.094 1174.97 628.094C1178.2 628.094 1180.85 627.625 1182.94 626.688C1185.02 625.729 1186.61 624.24 1187.72 622.219C1188.82 620.177 1189.46 617.375 1189.62 613.812H1189.25C1188.04 615.771 1186.65 617.146 1185.06 617.938C1183.48 618.729 1181.5 619.125 1179.12 619.125C1175.15 619.125 1172.01 617.854 1169.72 615.312C1167.43 612.75 1166.28 609.198 1166.28 604.656C1166.28 599.76 1167.67 595.896 1170.44 593.062C1173.23 590.208 1177.02 588.781 1181.81 588.781C1185.19 588.781 1188.14 589.573 1190.66 591.156C1193.2 592.74 1195.15 595.042 1196.5 598.062C1197.85 601.062 1198.53 604.646 1198.53 608.812ZM1182 596.531C1180 596.531 1178.44 597.219 1177.31 598.594C1176.19 599.969 1175.62 601.948 1175.62 604.531C1175.62 606.74 1176.14 608.49 1177.16 609.781C1178.18 611.073 1179.73 611.719 1181.81 611.719C1183.77 611.719 1185.45 611.083 1186.84 609.812C1188.24 608.521 1188.94 607.042 1188.94 605.375C1188.94 602.896 1188.28 600.802 1186.97 599.094C1185.68 597.385 1184.02 596.531 1182 596.531ZM1219.97 605.812C1224.39 605.812 1227.9 607.052 1230.5 609.531C1233.12 612.01 1234.44 615.406 1234.44 619.719C1234.44 624.823 1232.86 628.75 1229.72 631.5C1226.57 634.25 1222.07 635.625 1216.22 635.625C1211.14 635.625 1207.03 634.802 1203.91 633.156V624.812C1205.55 625.688 1207.47 626.406 1209.66 626.969C1211.84 627.51 1213.92 627.781 1215.88 627.781C1221.77 627.781 1224.72 625.365 1224.72 620.531C1224.72 615.927 1221.67 613.625 1215.56 613.625C1214.46 613.625 1213.24 613.74 1211.91 613.969C1210.57 614.177 1209.49 614.406 1208.66 614.656L1204.81 612.594L1206.53 589.312H1231.31V597.5H1215L1214.16 606.469L1215.25 606.25C1216.52 605.958 1218.09 605.812 1219.97 605.812ZM1273.16 605.812C1277.57 605.812 1281.08 607.052 1283.69 609.531C1286.31 612.01 1287.62 615.406 1287.62 619.719C1287.62 624.823 1286.05 628.75 1282.91 631.5C1279.76 634.25 1275.26 635.625 1269.41 635.625C1264.32 635.625 1260.22 634.802 1257.09 633.156V624.812C1258.74 625.688 1260.66 626.406 1262.84 626.969C1265.03 627.51 1267.1 627.781 1269.06 627.781C1274.96 627.781 1277.91 625.365 1277.91 620.531C1277.91 615.927 1274.85 613.625 1268.75 613.625C1267.65 613.625 1266.43 613.74 1265.09 613.969C1263.76 614.177 1262.68 614.406 1261.84 614.656L1258 612.594L1259.72 589.312H1284.5V597.5H1268.19L1267.34 606.469L1268.44 606.25C1269.71 605.958 1271.28 605.812 1273.16 605.812ZM1325.03 635H1293.09V628.281L1304.56 616.688C1307.96 613.208 1310.18 610.802 1311.22 609.469C1312.26 608.115 1313.01 606.865 1313.47 605.719C1313.93 604.573 1314.16 603.385 1314.16 602.156C1314.16 600.323 1313.65 598.958 1312.62 598.062C1311.62 597.167 1310.28 596.719 1308.59 596.719C1306.82 596.719 1305.1 597.125 1303.44 597.938C1301.77 598.75 1300.03 599.906 1298.22 601.406L1292.97 595.188C1295.22 593.271 1297.08 591.917 1298.56 591.125C1300.04 590.333 1301.66 589.729 1303.41 589.312C1305.16 588.875 1307.11 588.656 1309.28 588.656C1312.14 588.656 1314.66 589.177 1316.84 590.219C1319.03 591.26 1320.73 592.719 1321.94 594.594C1323.15 596.469 1323.75 598.615 1323.75 601.031C1323.75 603.135 1323.38 605.115 1322.62 606.969C1321.9 608.802 1320.75 610.688 1319.19 612.625C1317.65 614.562 1314.92 617.323 1311 620.906L1305.12 626.438V626.875H1325.03V635ZM1346.28 605.812C1350.7 605.812 1354.21 607.052 1356.81 609.531C1359.44 612.01 1360.75 615.406 1360.75 619.719C1360.75 624.823 1359.18 628.75 1356.03 631.5C1352.89 634.25 1348.39 635.625 1342.53 635.625C1337.45 635.625 1333.34 634.802 1330.22 633.156V624.812C1331.86 625.688 1333.78 626.406 1335.97 626.969C1338.16 627.51 1340.23 627.781 1342.19 627.781C1348.08 627.781 1351.03 625.365 1351.03 620.531C1351.03 615.927 1347.98 613.625 1341.88 613.625C1340.77 613.625 1339.55 613.74 1338.22 613.969C1336.89 614.177 1335.8 614.406 1334.97 614.656L1331.12 612.594L1332.84 589.312H1357.62V597.5H1341.31L1340.47 606.469L1341.56 606.25C1342.83 605.958 1344.41 605.812 1346.28 605.812ZM1378 628.281C1376.92 632.49 1375.08 637.479 1372.5 643.25H1365.62C1366.98 637.708 1368.03 632.479 1368.78 627.562H1377.53L1378 628.281ZM1408.66 635H1399V608.562L1399.09 604.219L1399.25 599.469C1397.65 601.073 1396.53 602.125 1395.91 602.625L1390.66 606.844L1386 601.031L1400.72 589.312H1408.66V635Z" fill="white"/>
<path d="M1452.87 635H1447.86V619.514L1447.58 620.604C1446.95 623.076 1446.38 624.945 1445.87 626.211L1442.39 635H1438.58L1435.04 626.141C1434.54 624.852 1434 623.041 1433.43 620.709L1433.09 619.514V635H1428.1V615.348H1435.48L1438.86 623.732C1439.21 624.635 1439.53 625.672 1439.83 626.844C1440.13 628.016 1440.34 629.018 1440.44 629.85C1440.83 628.092 1441.13 626.832 1441.34 626.07C1441.56 625.297 1441.8 624.588 1442.06 623.943C1442.32 623.299 1443.48 620.434 1445.56 615.348H1452.87V635ZM1476.11 635H1470.75V619.373H1465.81C1465.43 623.768 1464.97 627.049 1464.44 629.217C1463.9 631.373 1463.18 632.938 1462.27 633.91C1461.38 634.871 1460.21 635.352 1458.76 635.352C1457.52 635.352 1456.5 635.164 1455.7 634.789V630.5C1456.27 630.734 1456.85 630.852 1457.42 630.852C1458.09 630.852 1458.65 630.371 1459.09 629.41C1459.55 628.449 1459.95 626.85 1460.3 624.611C1460.67 622.361 1460.98 619.273 1461.24 615.348H1476.11V635ZM1487.11 615.348V622.906H1494.6V615.348H1499.96V635H1494.6V626.896H1487.11V635H1481.75V615.348H1487.11ZM1515.37 635V631.148H1512.49V627.656H1515.37V624.848H1512.49V620.384H1515.37V609.296H1523.57C1526.89 609.296 1529.3 609.968 1530.81 611.312C1532.35 612.656 1533.11 614.504 1533.11 616.856C1533.11 618.248 1532.8 619.556 1532.18 620.78C1531.55 622.004 1530.51 622.988 1529.05 623.732C1527.61 624.476 1525.64 624.848 1523.14 624.848H1520.8V627.656H1526.35V631.148H1520.8V635H1515.37ZM1522.6 620.384C1524.14 620.384 1525.35 620.12 1526.24 619.592C1527.15 619.064 1527.61 618.212 1527.61 617.036C1527.61 614.852 1526.17 613.76 1523.29 613.76H1520.8V620.384H1522.6Z" fill="white"/>
<rect x="884" y="690" width="240" height="130" fill="#0395FF"/>
<path d="M937.469 780H927.812V753.562L927.906 749.219L928.062 744.469C926.458 746.073 925.344 747.125 924.719 747.625L919.469 751.844L914.812 746.031L929.531 734.312H937.469V780ZM981.906 753.812C981.906 762.812 980.01 769.531 976.219 773.969C972.427 778.406 966.688 780.625 959 780.625C956.292 780.625 954.24 780.479 952.844 780.188V772.438C954.594 772.875 956.427 773.094 958.344 773.094C961.573 773.094 964.229 772.625 966.312 771.688C968.396 770.729 969.99 769.24 971.094 767.219C972.198 765.177 972.833 762.375 973 758.812H972.625C971.417 760.771 970.021 762.146 968.438 762.938C966.854 763.729 964.875 764.125 962.5 764.125C958.521 764.125 955.385 762.854 953.094 760.312C950.802 757.75 949.656 754.198 949.656 749.656C949.656 744.76 951.042 740.896 953.812 738.062C956.604 735.208 960.396 733.781 965.188 733.781C968.562 733.781 971.51 734.573 974.031 736.156C976.573 737.74 978.521 740.042 979.875 743.062C981.229 746.062 981.906 749.646 981.906 753.812ZM965.375 741.531C963.375 741.531 961.812 742.219 960.688 743.594C959.562 744.969 959 746.948 959 749.531C959 751.74 959.51 753.49 960.531 754.781C961.552 756.073 963.104 756.719 965.188 756.719C967.146 756.719 968.823 756.083 970.219 754.812C971.615 753.521 972.312 752.042 972.312 750.375C972.312 747.896 971.656 745.802 970.344 744.094C969.052 742.385 967.396 741.531 965.375 741.531ZM998.5 773.281C997.417 777.49 995.583 782.479 993 788.25H986.125C987.479 782.708 988.531 777.479 989.281 772.562H998.031L998.5 773.281ZM1009.81 780L1026.97 742.5H1004.44V734.375H1037.22V740.438L1019.94 780H1009.81ZM1049.12 748C1049.12 750.646 1049.35 752.625 1049.81 753.938C1050.29 755.229 1051.05 755.875 1052.09 755.875C1054.09 755.875 1055.09 753.25 1055.09 748C1055.09 742.792 1054.09 740.188 1052.09 740.188C1051.05 740.188 1050.29 740.833 1049.81 742.125C1049.35 743.396 1049.12 745.354 1049.12 748ZM1062.97 747.938C1062.97 752.729 1062.04 756.333 1060.19 758.75C1058.33 761.146 1055.61 762.344 1052.03 762.344C1048.59 762.344 1045.94 761.115 1044.06 758.656C1042.19 756.177 1041.25 752.604 1041.25 747.938C1041.25 738.417 1044.84 733.656 1052.03 733.656C1055.55 733.656 1058.25 734.896 1060.12 737.375C1062.02 739.833 1062.97 743.354 1062.97 747.938ZM1084.47 734.312L1059.12 780H1051.62L1076.97 734.312H1084.47ZM1081.12 766.25C1081.12 768.896 1081.35 770.875 1081.81 772.188C1082.29 773.479 1083.05 774.125 1084.09 774.125C1086.09 774.125 1087.09 771.5 1087.09 766.25C1087.09 761.042 1086.09 758.438 1084.09 758.438C1083.05 758.438 1082.29 759.083 1081.81 760.375C1081.35 761.646 1081.12 763.604 1081.12 766.25ZM1094.97 766.188C1094.97 770.958 1094.04 774.552 1092.19 776.969C1090.33 779.365 1087.61 780.562 1084.03 780.562C1080.59 780.562 1077.94 779.333 1076.06 776.875C1074.19 774.396 1073.25 770.833 1073.25 766.188C1073.25 756.667 1076.84 751.906 1084.03 751.906C1087.55 751.906 1090.25 753.146 1092.12 755.625C1094.02 758.083 1094.97 761.604 1094.97 766.188Z" fill="white"/>
<path d="M1178.91 730L1170.19 707.219H1170.05C1170.21 709.023 1170.29 711.168 1170.29 713.652V730H1167.53V704.301H1172.03L1180.17 725.5H1180.31L1188.52 704.301H1192.99V730H1190V713.441C1190 711.543 1190.08 709.48 1190.24 707.254H1190.1L1181.31 730H1178.91ZM1202.36 710.734V722.951L1202.23 726.15L1202.18 727.152L1212.6 710.734H1216.24V730H1213.52V718.223L1213.57 715.902L1213.66 713.617L1203.25 730H1199.61V710.734H1202.36ZM1225.35 710.734V718.803H1236.14V710.734H1239.06V730H1236.14V721.316H1225.35V730H1222.43V710.734H1225.35ZM1242.19 710.734H1245.32L1249.54 721.721C1250.46 724.229 1251.04 726.039 1251.26 727.152H1251.4C1251.55 726.555 1251.87 725.535 1252.35 724.094C1252.84 722.641 1254.43 718.188 1257.13 710.734H1260.26L1251.98 732.672C1251.16 734.84 1250.2 736.375 1249.1 737.277C1248.01 738.191 1246.66 738.648 1245.07 738.648C1244.18 738.648 1243.3 738.549 1242.43 738.35V736.012C1243.08 736.152 1243.8 736.223 1244.6 736.223C1246.6 736.223 1248.03 735.098 1248.88 732.848L1249.96 730.105L1242.19 710.734ZM1264.35 730H1260.94L1266.48 721.861C1264.99 721.533 1263.85 720.9 1263.05 719.963C1262.27 719.014 1261.88 717.824 1261.88 716.395C1261.88 714.637 1262.47 713.254 1263.65 712.246C1264.83 711.238 1266.49 710.734 1268.61 710.734H1277.19V730H1274.27V722.301H1269.4L1264.35 730ZM1264.72 716.43C1264.72 718.656 1266.34 719.77 1269.57 719.77H1274.27V713.266H1268.98C1266.14 713.266 1264.72 714.32 1264.72 716.43ZM1291.74 718.451C1291.74 714.232 1292.36 710.945 1293.6 708.59C1294.85 706.223 1296.81 704.746 1299.51 704.16C1302.86 703.445 1305.81 702.865 1308.37 702.42L1308.91 704.986C1304.85 705.666 1301.94 706.205 1300.2 706.604C1298.5 706.99 1297.22 707.904 1296.36 709.346C1295.52 710.787 1295.06 712.75 1294.97 715.234H1295.19C1295.91 714.25 1296.85 713.477 1298 712.914C1299.15 712.352 1300.35 712.07 1301.6 712.07C1303.97 712.07 1305.81 712.838 1307.14 714.373C1308.46 715.908 1309.12 718.035 1309.12 720.754C1309.12 723.766 1308.36 726.121 1306.82 727.82C1305.29 729.508 1303.15 730.352 1300.41 730.352C1297.7 730.352 1295.58 729.314 1294.04 727.24C1292.51 725.166 1291.74 722.236 1291.74 718.451ZM1300.67 727.908C1304.24 727.908 1306.03 725.629 1306.03 721.07C1306.03 716.723 1304.41 714.549 1301.16 714.549C1300.27 714.549 1299.41 714.736 1298.58 715.111C1297.76 715.475 1297 715.961 1296.31 716.57C1295.63 717.18 1295.1 717.807 1294.73 718.451C1294.73 721.533 1295.21 723.883 1296.19 725.5C1297.16 727.105 1298.65 727.908 1300.67 727.908ZM1339.03 720.35C1339.03 723.502 1338.27 725.957 1336.76 727.715C1335.26 729.473 1333.2 730.352 1330.57 730.352C1328.07 730.352 1326.09 729.572 1324.63 728.014C1323.16 726.443 1322.35 724.211 1322.19 721.316H1317.14V730H1314.22V710.734H1317.14V718.803H1322.22C1322.46 716.131 1323.31 714.062 1324.79 712.598C1326.26 711.121 1328.21 710.383 1330.64 710.383C1333.22 710.383 1335.26 711.279 1336.76 713.072C1338.27 714.854 1339.03 717.279 1339.03 720.35ZM1325.21 720.35C1325.21 722.822 1325.64 724.703 1326.49 725.992C1327.35 727.27 1328.72 727.908 1330.61 727.908C1332.46 727.908 1333.82 727.287 1334.68 726.045C1335.56 724.791 1336 722.893 1336 720.35C1336 717.889 1335.57 716.025 1334.72 714.76C1333.86 713.494 1332.49 712.861 1330.61 712.861C1328.72 712.861 1327.35 713.494 1326.49 714.76C1325.64 716.025 1325.21 717.889 1325.21 720.35ZM1360.88 736.662H1358.04V730H1344.58V736.662H1341.77V727.486H1343.28C1344.85 725.354 1346.08 722.852 1346.97 719.98C1347.86 717.109 1348.32 714.027 1348.36 710.734H1358.12V727.486H1360.88V736.662ZM1355.3 727.486V713.037H1350.98C1350.83 715.639 1350.32 718.275 1349.47 720.947C1348.62 723.607 1347.57 725.787 1346.3 727.486H1355.3ZM1373.53 710.77H1376.22V720.104L1384.18 710.77H1387.38L1379.33 720.104L1388.07 730H1384.69L1376.22 720.244V730H1373.53V720.244L1365.08 730H1361.72L1370.44 720.104L1362.4 710.77H1365.6L1373.53 720.104V710.77ZM1399.39 730.352C1396.54 730.352 1394.29 729.484 1392.64 727.75C1391 726.016 1390.18 723.607 1390.18 720.525C1390.18 717.42 1390.94 714.953 1392.46 713.125C1394 711.297 1396.05 710.383 1398.63 710.383C1401.05 710.383 1402.96 711.18 1404.36 712.773C1405.77 714.355 1406.47 716.447 1406.47 719.049V720.895H1393.2C1393.26 723.156 1393.83 724.873 1394.91 726.045C1396 727.217 1397.53 727.803 1399.49 727.803C1401.57 727.803 1403.62 727.369 1405.65 726.502V729.104C1404.62 729.549 1403.64 729.865 1402.71 730.053C1401.8 730.252 1400.69 730.352 1399.39 730.352ZM1398.6 712.826C1397.05 712.826 1395.81 713.33 1394.89 714.338C1393.97 715.346 1393.44 716.74 1393.27 718.521H1403.34C1403.34 716.682 1402.93 715.275 1402.11 714.303C1401.29 713.318 1400.12 712.826 1398.6 712.826ZM1424.46 713.23H1418.2V730H1415.28V713.23H1409.09V710.734H1424.46V713.23Z" fill="white"/>
<path d="M1198.72 805H1166.78V798.281L1178.25 786.688C1181.65 783.208 1183.86 780.802 1184.91 779.469C1185.95 778.115 1186.7 776.865 1187.16 775.719C1187.61 774.573 1187.84 773.385 1187.84 772.156C1187.84 770.323 1187.33 768.958 1186.31 768.062C1185.31 767.167 1183.97 766.719 1182.28 766.719C1180.51 766.719 1178.79 767.125 1177.12 767.938C1175.46 768.75 1173.72 769.906 1171.91 771.406L1166.66 765.188C1168.91 763.271 1170.77 761.917 1172.25 761.125C1173.73 760.333 1175.34 759.729 1177.09 759.312C1178.84 758.875 1180.8 758.656 1182.97 758.656C1185.82 758.656 1188.34 759.177 1190.53 760.219C1192.72 761.26 1194.42 762.719 1195.62 764.594C1196.83 766.469 1197.44 768.615 1197.44 771.031C1197.44 773.135 1197.06 775.115 1196.31 776.969C1195.58 778.802 1194.44 780.688 1192.88 782.625C1191.33 784.562 1188.6 787.323 1184.69 790.906L1178.81 796.438V796.875H1198.72V805ZM1233.5 769.531C1233.5 772.385 1232.64 774.812 1230.91 776.812C1229.18 778.812 1226.75 780.188 1223.62 780.938V781.125C1227.31 781.583 1230.1 782.708 1232 784.5C1233.9 786.271 1234.84 788.667 1234.84 791.688C1234.84 796.083 1233.25 799.51 1230.06 801.969C1226.88 804.406 1222.32 805.625 1216.41 805.625C1211.45 805.625 1207.05 804.802 1203.22 803.156V794.938C1204.99 795.833 1206.94 796.562 1209.06 797.125C1211.19 797.688 1213.29 797.969 1215.38 797.969C1218.56 797.969 1220.92 797.427 1222.44 796.344C1223.96 795.26 1224.72 793.521 1224.72 791.125C1224.72 788.979 1223.84 787.458 1222.09 786.562C1220.34 785.667 1217.55 785.219 1213.72 785.219H1210.25V777.812H1213.78C1217.32 777.812 1219.91 777.354 1221.53 776.438C1223.18 775.5 1224 773.906 1224 771.656C1224 768.198 1221.83 766.469 1217.5 766.469C1216 766.469 1214.47 766.719 1212.91 767.219C1211.36 767.719 1209.65 768.583 1207.75 769.812L1203.28 763.156C1207.45 760.156 1212.42 758.656 1218.19 758.656C1222.92 758.656 1226.65 759.615 1229.38 761.531C1232.12 763.448 1233.5 766.115 1233.5 769.531ZM1286.69 769.531C1286.69 772.385 1285.82 774.812 1284.09 776.812C1282.36 778.812 1279.94 780.188 1276.81 780.938V781.125C1280.5 781.583 1283.29 782.708 1285.19 784.5C1287.08 786.271 1288.03 788.667 1288.03 791.688C1288.03 796.083 1286.44 799.51 1283.25 801.969C1280.06 804.406 1275.51 805.625 1269.59 805.625C1264.64 805.625 1260.24 804.802 1256.41 803.156V794.938C1258.18 795.833 1260.12 796.562 1262.25 797.125C1264.38 797.688 1266.48 797.969 1268.56 797.969C1271.75 797.969 1274.1 797.427 1275.62 796.344C1277.15 795.26 1277.91 793.521 1277.91 791.125C1277.91 788.979 1277.03 787.458 1275.28 786.562C1273.53 785.667 1270.74 785.219 1266.91 785.219H1263.44V777.812H1266.97C1270.51 777.812 1273.09 777.354 1274.72 776.438C1276.36 775.5 1277.19 773.906 1277.19 771.656C1277.19 768.198 1275.02 766.469 1270.69 766.469C1269.19 766.469 1267.66 766.719 1266.09 767.219C1264.55 767.719 1262.83 768.583 1260.94 769.812L1256.47 763.156C1260.64 760.156 1265.6 758.656 1271.38 758.656C1276.1 758.656 1279.83 759.615 1282.56 761.531C1285.31 763.448 1286.69 766.115 1286.69 769.531ZM1297.62 805L1314.78 767.5H1292.25V759.375H1325.03V765.438L1307.75 805H1297.62ZM1345.41 758.719C1349.78 758.719 1353.3 759.719 1355.97 761.719C1358.66 763.698 1360 766.375 1360 769.75C1360 772.083 1359.35 774.167 1358.06 776C1356.77 777.812 1354.69 779.438 1351.81 780.875C1355.23 782.708 1357.68 784.625 1359.16 786.625C1360.66 788.604 1361.41 790.781 1361.41 793.156C1361.41 796.906 1359.94 799.927 1357 802.219C1354.06 804.49 1350.2 805.625 1345.41 805.625C1340.41 805.625 1336.48 804.562 1333.62 802.438C1330.77 800.312 1329.34 797.302 1329.34 793.406C1329.34 790.802 1330.03 788.49 1331.41 786.469C1332.8 784.448 1335.03 782.667 1338.09 781.125C1335.49 779.479 1333.61 777.719 1332.47 775.844C1331.32 773.969 1330.75 771.917 1330.75 769.688C1330.75 766.417 1332.1 763.771 1334.81 761.75C1337.52 759.729 1341.05 758.719 1345.41 758.719ZM1338.28 792.844C1338.28 794.635 1338.91 796.031 1340.16 797.031C1341.41 798.031 1343.11 798.531 1345.28 798.531C1347.68 798.531 1349.47 798.021 1350.66 797C1351.84 795.958 1352.44 794.594 1352.44 792.906C1352.44 791.51 1351.84 790.208 1350.66 789C1349.49 787.771 1347.58 786.469 1344.94 785.094C1340.5 787.135 1338.28 789.719 1338.28 792.844ZM1345.34 765.781C1343.7 765.781 1342.36 766.208 1341.34 767.062C1340.34 767.896 1339.84 769.021 1339.84 770.438C1339.84 771.688 1340.24 772.812 1341.03 773.812C1341.84 774.792 1343.3 775.802 1345.41 776.844C1347.45 775.885 1348.88 774.906 1349.69 773.906C1350.5 772.906 1350.91 771.75 1350.91 770.438C1350.91 769 1350.39 767.865 1349.34 767.031C1348.3 766.198 1346.97 765.781 1345.34 765.781ZM1378 798.281C1376.92 802.49 1375.08 807.479 1372.5 813.25H1365.62C1366.98 807.708 1368.03 802.479 1368.78 797.562H1377.53L1378 798.281ZM1389.31 805L1406.47 767.5H1383.94V759.375H1416.72V765.438L1399.44 805H1389.31Z" fill="white"/>
<path d="M1452.87 805H1447.86V789.514L1447.58 790.604C1446.95 793.076 1446.38 794.945 1445.87 796.211L1442.39 805H1438.58L1435.04 796.141C1434.54 794.852 1434 793.041 1433.43 790.709L1433.09 789.514V805H1428.1V785.348H1435.48L1438.86 793.732C1439.21 794.635 1439.53 795.672 1439.83 796.844C1440.13 798.016 1440.34 799.018 1440.44 799.85C1440.83 798.092 1441.13 796.832 1441.34 796.07C1441.56 795.297 1441.8 794.588 1442.06 793.943C1442.32 793.299 1443.48 790.434 1445.56 785.348H1452.87V805ZM1476.11 805H1470.75V789.373H1465.81C1465.43 793.768 1464.97 797.049 1464.44 799.217C1463.9 801.373 1463.18 802.938 1462.27 803.91C1461.38 804.871 1460.21 805.352 1458.76 805.352C1457.52 805.352 1456.5 805.164 1455.7 804.789V800.5C1456.27 800.734 1456.85 800.852 1457.42 800.852C1458.09 800.852 1458.65 800.371 1459.09 799.41C1459.55 798.449 1459.95 796.85 1460.3 794.611C1460.67 792.361 1460.98 789.273 1461.24 785.348H1476.11V805ZM1487.11 785.348V792.906H1494.6V785.348H1499.96V805H1494.6V796.896H1487.11V805H1481.75V785.348H1487.11ZM1515.37 805V801.148H1512.49V797.656H1515.37V794.848H1512.49V790.384H1515.37V779.296H1523.57C1526.89 779.296 1529.3 779.968 1530.81 781.312C1532.35 782.656 1533.11 784.504 1533.11 786.856C1533.11 788.248 1532.8 789.556 1532.18 790.78C1531.55 792.004 1530.51 792.988 1529.05 793.732C1527.61 794.476 1525.64 794.848 1523.14 794.848H1520.8V797.656H1526.35V801.148H1520.8V805H1515.37ZM1522.6 790.384C1524.14 790.384 1525.35 790.12 1526.24 789.592C1527.15 789.064 1527.61 788.212 1527.61 787.036C1527.61 784.852 1526.17 783.76 1523.29 783.76H1520.8V790.384H1522.6Z" fill="white"/>
</svg>
