<svg width="1590" height="894" viewBox="0 0 1590 894" fill="none" xmlns="http://www.w3.org/2000/svg">
<path d="M394.414 249H352.168V133.336L352.578 114.332L353.262 93.5508C346.243 100.569 341.367 105.172 338.633 107.359L315.664 125.816L295.293 100.387L359.688 49.1172H394.414V249ZM469.746 249L544.805 84.9375H446.23V49.3906H589.648V75.9141L514.043 249H469.746ZM741.816 93.8242C741.816 106.311 738.034 116.93 730.469 125.68C722.904 134.43 712.285 140.445 698.613 143.727V144.547C714.746 146.552 726.96 151.474 735.254 159.312C743.548 167.06 747.695 177.542 747.695 190.758C747.695 209.99 740.723 224.983 726.777 235.738C712.832 246.402 692.917 251.734 667.031 251.734C645.339 251.734 626.107 248.134 609.336 240.934V204.977C617.083 208.896 625.605 212.086 634.902 214.547C644.199 217.008 653.405 218.238 662.52 218.238C676.465 218.238 686.764 215.868 693.418 211.129C700.072 206.389 703.398 198.779 703.398 188.297C703.398 178.909 699.57 172.255 691.914 168.336C684.258 164.417 672.044 162.457 655.273 162.457H640.098V130.055H655.547C671.042 130.055 682.344 128.049 689.453 124.039C696.654 119.938 700.254 112.965 700.254 103.121C700.254 87.9909 690.775 80.4258 671.816 80.4258C665.254 80.4258 658.555 81.5195 651.719 83.707C644.974 85.8945 637.454 89.6771 629.16 95.0547L609.609 65.9336C627.839 52.8086 649.577 46.2461 674.824 46.2461C695.514 46.2461 711.829 50.4388 723.77 58.8242C735.801 67.2096 741.816 78.8763 741.816 93.8242ZM974.512 93.8242C974.512 106.311 970.729 116.93 963.164 125.68C955.599 134.43 944.98 140.445 931.309 143.727V144.547C947.441 146.552 959.655 151.474 967.949 159.312C976.243 167.06 980.391 177.542 980.391 190.758C980.391 209.99 973.418 224.983 959.473 235.738C945.527 246.402 925.612 251.734 899.727 251.734C878.034 251.734 858.802 248.134 842.031 240.934V204.977C849.779 208.896 858.301 212.086 867.598 214.547C876.895 217.008 886.1 218.238 895.215 218.238C909.16 218.238 919.46 215.868 926.113 211.129C932.767 206.389 936.094 198.779 936.094 188.297C936.094 178.909 932.266 172.255 924.609 168.336C916.953 164.417 904.74 162.457 887.969 162.457H872.793V130.055H888.242C903.737 130.055 915.039 128.049 922.148 124.039C929.349 119.938 932.949 112.965 932.949 103.121C932.949 87.9909 923.47 80.4258 904.512 80.4258C897.949 80.4258 891.25 81.5195 884.414 83.707C877.669 85.8945 870.15 89.6771 861.855 95.0547L842.305 65.9336C860.534 52.8086 882.272 46.2461 907.52 46.2461C928.21 46.2461 944.525 50.4388 956.465 58.8242C968.496 67.2096 974.512 78.8763 974.512 93.8242ZM1075.27 121.305C1094.6 121.305 1109.95 126.728 1121.35 137.574C1132.83 148.421 1138.57 163.277 1138.57 182.145C1138.57 204.475 1131.69 221.656 1117.93 233.688C1104.17 245.719 1084.48 251.734 1058.87 251.734C1036.63 251.734 1018.67 248.134 1005 240.934V204.43C1012.2 208.258 1020.59 211.402 1030.16 213.863C1039.73 216.233 1048.8 217.418 1057.36 217.418C1083.16 217.418 1096.05 206.845 1096.05 185.699C1096.05 165.556 1082.7 155.484 1056 155.484C1051.17 155.484 1045.83 155.986 1040 156.988C1034.17 157.9 1029.43 158.902 1025.78 159.996L1008.96 150.973L1016.48 49.1172H1124.9V84.9375H1053.54L1049.84 124.176L1054.63 123.219C1060.19 121.943 1067.07 121.305 1075.27 121.305ZM1266.95 249H1224.71V133.336L1225.12 114.332L1225.8 93.5508C1218.78 100.569 1213.91 105.172 1211.17 107.359L1188.2 125.816L1167.83 100.387L1232.23 49.1172H1266.95V249Z" fill="#01F859"/>
<path d="M1335.77 249H1329.09V228.352L1328.72 229.805C1327.88 233.102 1327.12 235.594 1326.45 237.281L1321.8 249H1316.72L1312.01 237.188C1311.34 235.469 1310.62 233.055 1309.85 229.945L1309.41 228.352V249H1302.75V222.797H1312.59L1317.09 233.977C1317.56 235.18 1317.99 236.562 1318.38 238.125C1318.79 239.688 1319.06 241.023 1319.2 242.133C1319.72 239.789 1320.12 238.109 1320.4 237.094C1320.7 236.062 1321.02 235.117 1321.36 234.258C1321.7 233.398 1323.26 229.578 1326.02 222.797H1335.77V249ZM1366.76 249H1359.61V228.164H1353.02C1352.52 234.023 1351.91 238.398 1351.2 241.289C1350.48 244.164 1349.52 246.25 1348.31 247.547C1347.12 248.828 1345.56 249.469 1343.62 249.469C1341.97 249.469 1340.61 249.219 1339.55 248.719V243C1340.31 243.312 1341.08 243.469 1341.84 243.469C1342.73 243.469 1343.48 242.828 1344.07 241.547C1344.68 240.266 1345.22 238.133 1345.69 235.148C1346.17 232.148 1346.59 228.031 1346.93 222.797H1366.76V249ZM1381.43 222.797V232.875H1391.41V222.797H1398.56V249H1391.41V238.195H1381.43V249H1374.28V222.797H1381.43ZM1419.1 249V243.864H1415.26V239.208H1419.1V235.464H1415.26V229.512H1419.1V214.728H1430.05C1434.46 214.728 1437.68 215.624 1439.69 217.416C1441.74 219.208 1442.77 221.672 1442.77 224.808C1442.77 226.664 1442.35 228.408 1441.52 230.04C1440.69 231.672 1439.29 232.984 1437.34 233.976C1435.42 234.968 1432.8 235.464 1429.47 235.464H1426.35V239.208H1433.74V243.864H1426.35V249H1419.1ZM1428.75 229.512C1430.8 229.512 1432.41 229.16 1433.6 228.456C1434.81 227.752 1435.42 226.616 1435.42 225.048C1435.42 222.136 1433.5 220.68 1429.66 220.68H1426.35V229.512H1428.75Z" fill="white"/>
<path d="M1590 433.999C986.751 433.999 603.249 434 0 434" stroke="#275D81" stroke-width="2"/>
<path d="M795 359.587C795 228.813 795 475.187 795 344.413" stroke="#275D81" stroke-width="2"/>
<path d="M378.375 377H371.031V347.5C371.031 343.979 371.115 341.188 371.281 339.125C370.802 339.625 370.208 340.177 369.5 340.781C368.812 341.385 366.479 343.302 362.5 346.531L358.812 341.875L372.25 331.312H378.375V377ZM440.969 377H410V371.438L421.781 359.594C425.26 356.031 427.562 353.51 428.688 352.031C429.833 350.531 430.667 349.125 431.188 347.812C431.708 346.5 431.969 345.094 431.969 343.594C431.969 341.531 431.344 339.906 430.094 338.719C428.865 337.531 427.156 336.938 424.969 336.938C423.219 336.938 421.521 337.26 419.875 337.906C418.25 338.552 416.365 339.719 414.219 341.406L410.25 336.562C412.792 334.417 415.26 332.896 417.656 332C420.052 331.104 422.604 330.656 425.312 330.656C429.562 330.656 432.969 331.771 435.531 334C438.094 336.208 439.375 339.188 439.375 342.938C439.375 345 439 346.958 438.25 348.812C437.521 350.667 436.385 352.583 434.844 354.562C433.323 356.521 430.781 359.177 427.219 362.531L419.281 370.219V370.531H440.969V377ZM475.812 341.812C475.812 344.708 474.969 347.125 473.281 349.062C471.594 350.979 469.219 352.271 466.156 352.938V353.188C469.823 353.646 472.573 354.792 474.406 356.625C476.24 358.438 477.156 360.854 477.156 363.875C477.156 368.271 475.604 371.667 472.5 374.062C469.396 376.438 464.979 377.625 459.25 377.625C454.188 377.625 449.917 376.802 446.438 375.156V368.625C448.375 369.583 450.427 370.323 452.594 370.844C454.76 371.365 456.844 371.625 458.844 371.625C462.385 371.625 465.031 370.969 466.781 369.656C468.531 368.344 469.406 366.312 469.406 363.562C469.406 361.125 468.438 359.333 466.5 358.188C464.562 357.042 461.521 356.469 457.375 356.469H453.406V350.5H457.438C464.729 350.5 468.375 347.979 468.375 342.938C468.375 340.979 467.74 339.469 466.469 338.406C465.198 337.344 463.323 336.812 460.844 336.812C459.115 336.812 457.448 337.062 455.844 337.562C454.24 338.042 452.344 338.99 450.156 340.406L446.562 335.281C450.75 332.198 455.615 330.656 461.156 330.656C465.76 330.656 469.354 331.646 471.938 333.625C474.521 335.604 475.812 338.333 475.812 341.812ZM515.719 367.031H509.562V377H502.406V367.031H481.531V361.375L502.406 331.188H509.562V360.938H515.719V367.031ZM502.406 360.938V349.469C502.406 345.385 502.51 342.042 502.719 339.438H502.469C501.885 340.812 500.969 342.479 499.719 344.438L488.375 360.938H502.406Z" fill="white"/>
<path d="M553.68 377H550.438V355.594H568.406V377H565.125V358.406H553.68V377ZM585.242 377.391C583.849 377.391 582.573 377.137 581.414 376.629C580.268 376.108 579.305 375.314 578.523 374.246H578.289C578.445 375.496 578.523 376.681 578.523 377.801V386.609H575.281V355.594H577.918L578.367 358.523H578.523C579.357 357.352 580.327 356.505 581.434 355.984C582.54 355.464 583.81 355.203 585.242 355.203C588.081 355.203 590.268 356.173 591.805 358.113C593.354 360.053 594.129 362.775 594.129 366.277C594.129 369.793 593.341 372.527 591.766 374.48C590.203 376.421 588.029 377.391 585.242 377.391ZM584.773 357.957C582.586 357.957 581.004 358.562 580.027 359.773C579.051 360.984 578.549 362.911 578.523 365.555V366.277C578.523 369.285 579.025 371.44 580.027 372.742C581.03 374.031 582.638 374.676 584.852 374.676C586.701 374.676 588.146 373.927 589.188 372.43C590.242 370.932 590.77 368.868 590.77 366.238C590.77 363.569 590.242 361.525 589.188 360.105C588.146 358.673 586.674 357.957 584.773 357.957ZM618.289 366.277C618.289 369.767 617.41 372.495 615.652 374.461C613.895 376.414 611.466 377.391 608.367 377.391C606.453 377.391 604.754 376.941 603.27 376.043C601.785 375.145 600.639 373.855 599.832 372.176C599.025 370.496 598.621 368.53 598.621 366.277C598.621 362.788 599.493 360.073 601.238 358.133C602.983 356.18 605.405 355.203 608.504 355.203C611.499 355.203 613.875 356.199 615.633 358.191C617.404 360.184 618.289 362.879 618.289 366.277ZM601.98 366.277C601.98 369.012 602.527 371.095 603.621 372.527C604.715 373.96 606.323 374.676 608.445 374.676C610.568 374.676 612.176 373.966 613.27 372.547C614.376 371.115 614.93 369.025 614.93 366.277C614.93 363.556 614.376 361.492 613.27 360.086C612.176 358.667 610.555 357.957 608.406 357.957C606.284 357.957 604.682 358.654 603.602 360.047C602.521 361.44 601.98 363.517 601.98 366.277ZM633.035 377.391C629.871 377.391 627.371 376.427 625.535 374.5C623.712 372.573 622.801 369.897 622.801 366.473C622.801 363.022 623.647 360.281 625.34 358.25C627.046 356.219 629.331 355.203 632.195 355.203C634.878 355.203 637 356.089 638.562 357.859C640.125 359.617 640.906 361.941 640.906 364.832V366.883H626.16C626.225 369.396 626.857 371.303 628.055 372.605C629.266 373.908 630.965 374.559 633.152 374.559C635.457 374.559 637.736 374.077 639.988 373.113V376.004C638.842 376.499 637.755 376.85 636.727 377.059C635.711 377.28 634.48 377.391 633.035 377.391ZM632.156 357.918C630.438 357.918 629.064 358.478 628.035 359.598C627.02 360.717 626.421 362.267 626.238 364.246H637.43C637.43 362.202 636.974 360.639 636.062 359.559C635.151 358.465 633.849 357.918 632.156 357.918ZM658.934 355.594H662.488L653.25 365.926L663.25 377H659.461L649.695 366.16V377H646.453V355.594H649.695V366.004L658.934 355.594ZM681.668 358.367H674.715V377H671.473V358.367H664.598V355.594H681.668V358.367ZM699.07 377L698.426 373.953H698.27C697.202 375.294 696.134 376.206 695.066 376.688C694.012 377.156 692.69 377.391 691.102 377.391C688.979 377.391 687.312 376.844 686.102 375.75C684.904 374.656 684.305 373.1 684.305 371.082C684.305 366.759 687.762 364.493 694.676 364.285L698.309 364.168V362.84C698.309 361.16 697.944 359.923 697.215 359.129C696.499 358.322 695.346 357.918 693.758 357.918C691.974 357.918 689.956 358.465 687.703 359.559L686.707 357.078C687.762 356.505 688.914 356.056 690.164 355.73C691.427 355.405 692.69 355.242 693.953 355.242C696.505 355.242 698.393 355.809 699.617 356.941C700.854 358.074 701.473 359.891 701.473 362.391V377H699.07ZM691.746 374.715C693.764 374.715 695.346 374.161 696.492 373.055C697.651 371.948 698.23 370.398 698.23 368.406V366.473L694.988 366.609C692.41 366.701 690.548 367.104 689.402 367.82C688.27 368.523 687.703 369.624 687.703 371.121C687.703 372.293 688.055 373.185 688.758 373.797C689.474 374.409 690.47 374.715 691.746 374.715Z" fill="white"/>
<path d="M893 377L911.062 337.844H887.312V331.375H918.906V336.5L900.938 377H893ZM946.188 377L964.25 337.844H940.5V331.375H972.094V336.5L954.125 377H946.188ZM1008.47 350.812C1008.47 359.812 1006.66 366.531 1003.03 370.969C999.406 375.406 993.948 377.625 986.656 377.625C983.885 377.625 981.896 377.458 980.688 377.125V370.969C982.542 371.49 984.406 371.75 986.281 371.75C991.24 371.75 994.938 370.417 997.375 367.75C999.812 365.083 1001.15 360.896 1001.38 355.188H1001C999.771 357.062 998.281 358.417 996.531 359.25C994.802 360.083 992.771 360.5 990.438 360.5C986.396 360.5 983.219 359.24 980.906 356.719C978.594 354.198 977.438 350.74 977.438 346.344C977.438 341.573 978.771 337.781 981.438 334.969C984.125 332.135 987.781 330.719 992.406 330.719C995.656 330.719 998.49 331.51 1000.91 333.094C1003.32 334.677 1005.19 336.979 1006.5 340C1007.81 343 1008.47 346.604 1008.47 350.812ZM992.531 336.812C989.99 336.812 988.042 337.646 986.688 339.312C985.333 340.958 984.656 343.281 984.656 346.281C984.656 348.885 985.281 350.938 986.531 352.438C987.802 353.917 989.719 354.656 992.281 354.656C994.76 354.656 996.844 353.917 998.531 352.438C1000.22 350.958 1001.06 349.229 1001.06 347.25C1001.06 345.396 1000.7 343.667 999.969 342.062C999.26 340.438 998.26 339.156 996.969 338.219C995.677 337.281 994.198 336.812 992.531 336.812ZM1029.56 330.719C1033.9 330.719 1037.32 331.719 1039.84 333.719C1042.36 335.698 1043.62 338.354 1043.62 341.688C1043.62 346.375 1040.81 350.104 1035.19 352.875C1038.77 354.667 1041.31 356.552 1042.81 358.531C1044.33 360.51 1045.09 362.719 1045.09 365.156C1045.09 368.927 1043.71 371.948 1040.94 374.219C1038.17 376.49 1034.42 377.625 1029.69 377.625C1024.73 377.625 1020.89 376.562 1018.16 374.438C1015.43 372.312 1014.06 369.302 1014.06 365.406C1014.06 362.865 1014.77 360.583 1016.19 358.562C1017.62 356.521 1019.97 354.708 1023.22 353.125C1020.43 351.458 1018.44 349.698 1017.25 347.844C1016.06 345.99 1015.47 343.906 1015.47 341.594C1015.47 338.281 1016.77 335.646 1019.38 333.688C1021.98 331.708 1025.38 330.719 1029.56 330.719ZM1021.09 365.156C1021.09 367.323 1021.85 369.01 1023.38 370.219C1024.9 371.406 1026.96 372 1029.56 372C1032.25 372 1034.33 371.385 1035.81 370.156C1037.31 368.906 1038.06 367.219 1038.06 365.094C1038.06 363.406 1037.38 361.865 1036 360.469C1034.62 359.073 1032.54 357.781 1029.75 356.594L1028.84 356.188C1026.09 357.396 1024.11 358.729 1022.91 360.188C1021.7 361.625 1021.09 363.281 1021.09 365.156ZM1029.5 336.375C1027.42 336.375 1025.74 336.896 1024.47 337.938C1023.2 338.958 1022.56 340.354 1022.56 342.125C1022.56 343.208 1022.79 344.177 1023.25 345.031C1023.71 345.885 1024.38 346.667 1025.25 347.375C1026.12 348.062 1027.6 348.896 1029.69 349.875C1032.19 348.771 1033.95 347.615 1034.97 346.406C1036.01 345.177 1036.53 343.75 1036.53 342.125C1036.53 340.354 1035.89 338.958 1034.59 337.938C1033.32 336.896 1031.62 336.375 1029.5 336.375Z" fill="white"/>
<path d="M1091.4 377.391C1090.01 377.391 1088.73 377.137 1087.57 376.629C1086.42 376.108 1085.46 375.314 1084.68 374.246H1084.45C1084.6 375.496 1084.68 376.681 1084.68 377.801V386.609H1081.44V355.594H1084.07L1084.52 358.523H1084.68C1085.51 357.352 1086.48 356.505 1087.59 355.984C1088.7 355.464 1089.97 355.203 1091.4 355.203C1094.24 355.203 1096.42 356.173 1097.96 358.113C1099.51 360.053 1100.29 362.775 1100.29 366.277C1100.29 369.793 1099.5 372.527 1097.92 374.48C1096.36 376.421 1094.18 377.391 1091.4 377.391ZM1090.93 357.957C1088.74 357.957 1087.16 358.562 1086.18 359.773C1085.21 360.984 1084.71 362.911 1084.68 365.555V366.277C1084.68 369.285 1085.18 371.44 1086.18 372.742C1087.19 374.031 1088.79 374.676 1091.01 374.676C1092.86 374.676 1094.3 373.927 1095.34 372.43C1096.4 370.932 1096.93 368.868 1096.93 366.238C1096.93 363.569 1096.4 361.525 1095.34 360.105C1094.3 358.673 1092.83 357.957 1090.93 357.957ZM1119.13 377L1118.49 373.953H1118.33C1117.26 375.294 1116.2 376.206 1115.13 376.688C1114.07 377.156 1112.75 377.391 1111.16 377.391C1109.04 377.391 1107.38 376.844 1106.16 375.75C1104.97 374.656 1104.37 373.1 1104.37 371.082C1104.37 366.759 1107.82 364.493 1114.74 364.285L1118.37 364.168V362.84C1118.37 361.16 1118.01 359.923 1117.28 359.129C1116.56 358.322 1115.41 357.918 1113.82 357.918C1112.04 357.918 1110.02 358.465 1107.77 359.559L1106.77 357.078C1107.82 356.505 1108.98 356.056 1110.23 355.73C1111.49 355.405 1112.75 355.242 1114.02 355.242C1116.57 355.242 1118.46 355.809 1119.68 356.941C1120.92 358.074 1121.54 359.891 1121.54 362.391V377H1119.13ZM1111.81 374.715C1113.83 374.715 1115.41 374.161 1116.55 373.055C1117.71 371.948 1118.29 370.398 1118.29 368.406V366.473L1115.05 366.609C1112.47 366.701 1110.61 367.104 1109.46 367.82C1108.33 368.523 1107.77 369.624 1107.77 371.121C1107.77 372.293 1108.12 373.185 1108.82 373.797C1109.54 374.409 1110.53 374.715 1111.81 374.715ZM1127.12 364.168C1127.12 359.48 1127.81 355.828 1129.19 353.211C1130.57 350.581 1132.76 348.94 1135.75 348.289C1139.48 347.495 1142.76 346.85 1145.6 346.355L1146.2 349.207C1141.68 349.962 1138.46 350.561 1136.52 351.004C1134.63 351.434 1133.21 352.449 1132.26 354.051C1131.32 355.652 1130.81 357.833 1130.71 360.594H1130.95C1131.76 359.5 1132.8 358.641 1134.07 358.016C1135.35 357.391 1136.68 357.078 1138.08 357.078C1140.71 357.078 1142.76 357.931 1144.23 359.637C1145.7 361.342 1146.44 363.706 1146.44 366.727C1146.44 370.073 1145.58 372.69 1143.88 374.578C1142.17 376.453 1139.8 377.391 1136.75 377.391C1133.74 377.391 1131.39 376.238 1129.68 373.934C1127.97 371.629 1127.12 368.374 1127.12 364.168ZM1137.04 374.676C1141.01 374.676 1143 372.143 1143 367.078C1143 362.247 1141.2 359.832 1137.59 359.832C1136.6 359.832 1135.64 360.04 1134.72 360.457C1133.81 360.861 1132.97 361.401 1132.2 362.078C1131.44 362.755 1130.86 363.452 1130.44 364.168C1130.44 367.592 1130.98 370.203 1132.06 372C1133.14 373.784 1134.8 374.676 1137.04 374.676ZM1170.58 366.277C1170.58 369.767 1169.7 372.495 1167.94 374.461C1166.18 376.414 1163.76 377.391 1160.66 377.391C1158.74 377.391 1157.04 376.941 1155.56 376.043C1154.07 375.145 1152.93 373.855 1152.12 372.176C1151.31 370.496 1150.91 368.53 1150.91 366.277C1150.91 362.788 1151.78 360.073 1153.53 358.133C1155.27 356.18 1157.69 355.203 1160.79 355.203C1163.79 355.203 1166.16 356.199 1167.92 358.191C1169.69 360.184 1170.58 362.879 1170.58 366.277ZM1154.27 366.277C1154.27 369.012 1154.82 371.095 1155.91 372.527C1157 373.96 1158.61 374.676 1160.73 374.676C1162.86 374.676 1164.46 373.966 1165.56 372.547C1166.67 371.115 1167.22 369.025 1167.22 366.277C1167.22 363.556 1166.67 361.492 1165.56 360.086C1164.46 358.667 1162.84 357.957 1160.7 357.957C1158.57 357.957 1156.97 358.654 1155.89 360.047C1154.81 361.44 1154.27 363.517 1154.27 366.277ZM1179.13 355.594V363.406C1179.13 365.906 1180.56 367.156 1183.41 367.156C1184.6 367.156 1185.73 366.974 1186.81 366.609C1187.89 366.245 1189.11 365.626 1190.48 364.754V355.594H1193.72V377H1190.48V367.312C1189.11 368.25 1187.84 368.914 1186.67 369.305C1185.51 369.682 1184.2 369.871 1182.73 369.871C1180.59 369.871 1178.92 369.311 1177.71 368.191C1176.5 367.072 1175.89 365.555 1175.89 363.641V355.594H1179.13ZM1203.66 355.594V369.168L1203.53 372.723L1203.47 373.836L1215.05 355.594H1219.09V377H1216.07V363.914L1216.12 361.336L1216.22 358.797L1204.66 377H1200.62V355.594H1203.66ZM1235.01 377.391C1231.85 377.391 1229.35 376.427 1227.51 374.5C1225.69 372.573 1224.78 369.897 1224.78 366.473C1224.78 363.022 1225.62 360.281 1227.32 358.25C1229.02 356.219 1231.31 355.203 1234.17 355.203C1236.85 355.203 1238.98 356.089 1240.54 357.859C1242.1 359.617 1242.88 361.941 1242.88 364.832V366.883H1228.14C1228.2 369.396 1228.83 371.303 1230.03 372.605C1231.24 373.908 1232.94 374.559 1235.13 374.559C1237.43 374.559 1239.71 374.077 1241.96 373.113V376.004C1240.82 376.499 1239.73 376.85 1238.7 377.059C1237.69 377.28 1236.46 377.391 1235.01 377.391ZM1234.13 357.918C1232.41 357.918 1231.04 358.478 1230.01 359.598C1229 360.717 1228.4 362.267 1228.21 364.246H1239.41C1239.41 362.202 1238.95 360.639 1238.04 359.559C1237.13 358.465 1235.83 357.918 1234.13 357.918ZM1269.93 373.875L1270.54 372.059L1271.38 369.754L1277.18 355.633H1281.3V377H1278.43V359.324L1278.04 360.457L1276.91 363.445L1271.38 377H1268.66L1263.14 363.406C1262.45 361.661 1261.97 360.301 1261.71 359.324V377H1258.82V355.633H1262.79L1268.39 369.207C1268.95 370.639 1269.46 372.195 1269.93 373.875ZM1297.28 377.391C1294.11 377.391 1291.61 376.427 1289.78 374.5C1287.95 372.573 1287.04 369.897 1287.04 366.473C1287.04 363.022 1287.89 360.281 1289.58 358.25C1291.29 356.219 1293.57 355.203 1296.44 355.203C1299.12 355.203 1301.24 356.089 1302.8 357.859C1304.37 359.617 1305.15 361.941 1305.15 364.832V366.883H1290.4C1290.47 369.396 1291.1 371.303 1292.3 372.605C1293.51 373.908 1295.21 374.559 1297.39 374.559C1299.7 374.559 1301.98 374.077 1304.23 373.113V376.004C1303.08 376.499 1302 376.85 1300.97 377.059C1299.95 377.28 1298.72 377.391 1297.28 377.391ZM1296.4 357.918C1294.68 357.918 1293.31 358.478 1292.28 359.598C1291.26 360.717 1290.66 362.267 1290.48 364.246H1301.67C1301.67 362.202 1301.22 360.639 1300.3 359.559C1299.39 358.465 1298.09 357.918 1296.4 357.918ZM1319.25 377.391C1316.15 377.391 1313.75 376.44 1312.04 374.539C1310.35 372.625 1309.5 369.923 1309.5 366.434C1309.5 362.853 1310.36 360.086 1312.08 358.133C1313.81 356.18 1316.27 355.203 1319.46 355.203C1320.49 355.203 1321.52 355.314 1322.55 355.535C1323.58 355.757 1324.39 356.017 1324.97 356.316L1323.98 359.07C1323.26 358.784 1322.48 358.549 1321.63 358.367C1320.79 358.172 1320.04 358.074 1319.39 358.074C1315.04 358.074 1312.86 360.848 1312.86 366.395C1312.86 369.025 1313.39 371.043 1314.45 372.449C1315.51 373.855 1317.09 374.559 1319.17 374.559C1320.96 374.559 1322.79 374.174 1324.66 373.406V376.277C1323.23 377.02 1321.42 377.391 1319.25 377.391ZM1344.19 358.367H1337.24V377H1334V358.367H1327.12V355.594H1344.19V358.367ZM1361.59 377L1360.95 373.953H1360.79C1359.73 375.294 1358.66 376.206 1357.59 376.688C1356.54 377.156 1355.21 377.391 1353.62 377.391C1351.5 377.391 1349.84 376.844 1348.62 375.75C1347.43 374.656 1346.83 373.1 1346.83 371.082C1346.83 366.759 1350.29 364.493 1357.2 364.285L1360.83 364.168V362.84C1360.83 361.16 1360.47 359.923 1359.74 359.129C1359.02 358.322 1357.87 357.918 1356.28 357.918C1354.5 357.918 1352.48 358.465 1350.23 359.559L1349.23 357.078C1350.29 356.505 1351.44 356.056 1352.69 355.73C1353.95 355.405 1355.21 355.242 1356.48 355.242C1359.03 355.242 1360.92 355.809 1362.14 356.941C1363.38 358.074 1364 359.891 1364 362.391V377H1361.59ZM1354.27 374.715C1356.29 374.715 1357.87 374.161 1359.02 373.055C1360.17 371.948 1360.75 370.398 1360.75 368.406V366.473L1357.51 366.609C1354.93 366.701 1353.07 367.104 1351.93 367.82C1350.79 368.523 1350.23 369.624 1350.23 371.121C1350.23 372.293 1350.58 373.185 1351.28 373.797C1352 374.409 1352.99 374.715 1354.27 374.715Z" fill="white"/>
<path d="M1060 894C1060 100.591 1060 1227.41 1060 434" stroke="#275D81" stroke-width="2"/>
<path d="M530 894C530 100.591 530 1227.41 530 434" stroke="#275D81" stroke-width="2"/>
<path d="M530 434H1060V894H530V434Z" fill="#C4C4C4" fill-opacity="0.05"/>
<path d="M653.336 699.898C653.336 716.773 649.781 729.371 642.672 737.691C635.562 746.012 624.801 750.172 610.387 750.172C605.309 750.172 601.461 749.898 598.844 749.352V734.82C602.125 735.641 605.562 736.051 609.156 736.051C615.211 736.051 620.191 735.172 624.098 733.414C628.004 731.617 630.992 728.824 633.062 725.035C635.133 721.207 636.324 715.953 636.637 709.273H635.934C633.668 712.945 631.051 715.523 628.082 717.008C625.113 718.492 621.402 719.234 616.949 719.234C609.488 719.234 603.609 716.852 599.312 712.086C595.016 707.281 592.867 700.621 592.867 692.105C592.867 682.926 595.465 675.68 600.66 670.367C605.895 665.016 613.004 662.34 621.988 662.34C628.316 662.34 633.844 663.824 638.57 666.793C643.336 669.762 646.988 674.078 649.527 679.742C652.066 685.367 653.336 692.086 653.336 699.898ZM622.34 676.871C618.59 676.871 615.66 678.16 613.551 680.738C611.441 683.316 610.387 687.027 610.387 691.871C610.387 696.012 611.344 699.293 613.258 701.715C615.172 704.137 618.082 705.348 621.988 705.348C625.66 705.348 628.805 704.156 631.422 701.773C634.039 699.352 635.348 696.578 635.348 693.453C635.348 688.805 634.117 684.879 631.656 681.676C629.234 678.473 626.129 676.871 622.34 676.871ZM684.449 736.402C682.418 744.293 678.98 753.648 674.137 764.469H661.246C663.785 754.078 665.758 744.273 667.164 735.055H683.57L684.449 736.402ZM758.98 731.246H748.668V749H730.973V731.246H694.41V718.648L731.969 663.336H748.668V717.184H758.98V731.246ZM730.973 717.184V702.652C730.973 700.23 731.07 696.715 731.266 692.105C731.461 687.496 731.617 684.82 731.734 684.078H731.266C729.82 687.281 728.082 690.406 726.051 693.453L710.348 717.184H730.973ZM774.215 749L806.383 678.688H764.137V663.453H825.602V674.82L793.199 749H774.215ZM847.926 689C847.926 693.961 848.355 697.672 849.215 700.133C850.113 702.555 851.539 703.766 853.492 703.766C857.242 703.766 859.117 698.844 859.117 689C859.117 679.234 857.242 674.352 853.492 674.352C851.539 674.352 850.113 675.562 849.215 677.984C848.355 680.367 847.926 684.039 847.926 689ZM873.883 688.883C873.883 697.867 872.145 704.625 868.668 709.156C865.191 713.648 860.094 715.895 853.375 715.895C846.93 715.895 841.949 713.59 838.434 708.98C834.918 704.332 833.16 697.633 833.16 688.883C833.16 671.031 839.898 662.105 853.375 662.105C859.977 662.105 865.035 664.43 868.551 669.078C872.105 673.688 873.883 680.289 873.883 688.883ZM914.195 663.336L866.676 749H852.613L900.133 663.336H914.195ZM907.926 723.219C907.926 728.18 908.355 731.891 909.215 734.352C910.113 736.773 911.539 737.984 913.492 737.984C917.242 737.984 919.117 733.062 919.117 723.219C919.117 713.453 917.242 708.57 913.492 708.57C911.539 708.57 910.113 709.781 909.215 712.203C908.355 714.586 907.926 718.258 907.926 723.219ZM933.883 723.102C933.883 732.047 932.145 738.785 928.668 743.316C925.191 747.809 920.094 750.055 913.375 750.055C906.93 750.055 901.949 747.75 898.434 743.141C894.918 738.492 893.16 731.812 893.16 723.102C893.16 705.25 899.898 696.324 913.375 696.324C919.977 696.324 925.035 698.648 928.551 703.297C932.105 707.906 933.883 714.508 933.883 723.102Z" fill="#01F859"/>
<path d="M675.792 578.056C674.083 578.056 672.76 578.7 671.822 579.989C670.885 581.269 670.416 583.056 670.416 585.351C670.416 590.126 672.208 592.514 675.792 592.514C677.296 592.514 679.117 592.138 681.256 591.386V595.194C679.498 595.927 677.535 596.293 675.367 596.293C672.252 596.293 669.869 595.351 668.219 593.466C666.568 591.571 665.743 588.856 665.743 585.321C665.743 583.095 666.148 581.146 666.959 579.477C667.77 577.797 668.932 576.513 670.445 575.624C671.969 574.726 673.751 574.276 675.792 574.276C677.872 574.276 679.962 574.779 682.062 575.785L680.597 579.477C679.796 579.096 678.99 578.764 678.18 578.48C677.369 578.197 676.573 578.056 675.792 578.056ZM689.034 587.782C689.034 589.403 689.298 590.629 689.825 591.459C690.362 592.289 691.231 592.704 692.433 592.704C693.624 592.704 694.479 592.294 694.996 591.474C695.523 590.644 695.787 589.413 695.787 587.782C695.787 586.161 695.523 584.945 694.996 584.135C694.469 583.324 693.604 582.919 692.403 582.919C691.212 582.919 690.353 583.324 689.825 584.135C689.298 584.936 689.034 586.151 689.034 587.782ZM700.357 587.782C700.357 590.448 699.654 592.533 698.248 594.037C696.842 595.541 694.884 596.293 692.374 596.293C690.802 596.293 689.415 595.951 688.214 595.268C687.013 594.574 686.09 593.583 685.445 592.294C684.801 591.005 684.479 589.501 684.479 587.782C684.479 585.106 685.177 583.026 686.573 581.542C687.97 580.058 689.933 579.315 692.462 579.315C694.034 579.315 695.421 579.657 696.622 580.341C697.823 581.024 698.746 582.006 699.391 583.285C700.035 584.564 700.357 586.063 700.357 587.782ZM703.053 586.186C703.053 582.426 703.766 579.574 705.191 577.631C706.627 575.678 708.863 574.442 711.9 573.925C713.375 573.671 715.577 573.349 718.507 572.958L719.02 576.854C717.75 577.001 715.499 577.313 712.267 577.792C711.036 577.987 710.118 578.28 709.513 578.671C708.907 579.062 708.453 579.618 708.15 580.341C707.857 581.063 707.677 582.025 707.608 583.227H707.828C708.346 582.426 709.029 581.811 709.879 581.381C710.729 580.951 711.642 580.736 712.618 580.736C714.64 580.736 716.212 581.356 717.335 582.597C718.458 583.827 719.02 585.595 719.02 587.899C719.02 590.556 718.307 592.621 716.881 594.096C715.465 595.561 713.507 596.293 711.007 596.293C708.507 596.293 706.554 595.399 705.147 593.612C703.751 591.815 703.053 589.34 703.053 586.186ZM711.271 592.675C713.39 592.675 714.449 591.215 714.449 588.295C714.449 585.453 713.492 584.032 711.578 584.032C711.051 584.032 710.523 584.154 709.996 584.398C709.479 584.643 709 584.965 708.561 585.365C708.131 585.756 707.813 586.151 707.608 586.552C707.608 588.534 707.926 590.053 708.561 591.107C709.195 592.152 710.099 592.675 711.271 592.675ZM729.361 596.293C724.264 596.293 721.715 593.495 721.715 587.899C721.715 585.116 722.408 582.992 723.795 581.527C725.182 580.053 727.169 579.315 729.757 579.315C731.651 579.315 733.351 579.687 734.854 580.429L733.536 583.886C732.833 583.603 732.179 583.373 731.573 583.197C730.968 583.012 730.362 582.919 729.757 582.919C727.433 582.919 726.271 584.569 726.271 587.87C726.271 591.073 727.433 592.675 729.757 592.675C730.616 592.675 731.412 592.562 732.145 592.338C732.877 592.104 733.609 591.742 734.342 591.254V595.077C733.619 595.536 732.887 595.854 732.145 596.029C731.412 596.205 730.484 596.293 729.361 596.293ZM751.7 579.623V582.978H746.339V596H741.871V582.978H736.495V579.623H751.7ZM769.879 583.915C769.879 584.794 769.601 585.546 769.044 586.171C768.497 586.786 767.687 587.182 766.612 587.357V587.475C767.774 587.611 768.692 588.012 769.366 588.676C770.05 589.33 770.392 590.141 770.392 591.107C770.392 592.699 769.767 593.915 768.517 594.755C767.267 595.585 765.479 596 763.155 596H754.762V579.623H763.155C765.401 579.623 767.081 579.989 768.194 580.722C769.317 581.444 769.879 582.509 769.879 583.915ZM765.763 590.873C765.763 590.229 765.514 589.765 765.016 589.481C764.518 589.188 763.771 589.042 762.774 589.042H759.229V592.909H762.862C763.81 592.909 764.527 592.733 765.016 592.382C765.514 592.021 765.763 591.518 765.763 590.873ZM765.353 584.267C765.353 583.271 764.562 582.772 762.979 582.772H759.229V586.01H762.467C763.414 586.01 764.132 585.873 764.62 585.6C765.108 585.326 765.353 584.882 765.353 584.267ZM780.733 582.494C779.786 582.494 779.044 582.797 778.507 583.402C777.97 583.998 777.662 584.848 777.584 585.951H783.854C783.834 584.848 783.546 583.998 782.989 583.402C782.433 582.797 781.681 582.494 780.733 582.494ZM781.363 596.293C778.727 596.293 776.666 595.565 775.182 594.11C773.697 592.655 772.955 590.595 772.955 587.929C772.955 585.185 773.639 583.065 775.006 581.571C776.383 580.067 778.282 579.315 780.704 579.315C783.019 579.315 784.82 579.975 786.109 581.293C787.398 582.611 788.043 584.433 788.043 586.757V588.925H777.481C777.53 590.194 777.906 591.186 778.609 591.898C779.312 592.611 780.299 592.968 781.568 592.968C782.555 592.968 783.487 592.865 784.366 592.66C785.245 592.455 786.163 592.128 787.12 591.679V595.136C786.339 595.526 785.504 595.814 784.615 596C783.727 596.195 782.643 596.293 781.363 596.293ZM796.144 579.623V585.922H802.384V579.623H806.852V596H802.384V589.247H796.144V596H791.676V579.623H796.144ZM816.007 579.623V585.922H822.247V579.623H826.715V596H822.247V589.247H816.007V596H811.539V579.623H816.007ZM835.87 585.951H838.023C840.523 585.951 842.374 586.352 843.575 587.152C844.776 587.953 845.377 589.164 845.377 590.785C845.377 592.514 844.776 593.817 843.575 594.696C842.374 595.565 840.577 596 838.185 596H831.402V579.623H835.87V585.951ZM840.909 590.844C840.909 590.209 840.655 589.75 840.147 589.467C839.64 589.184 838.883 589.042 837.877 589.042H835.87V592.909H837.936C839.918 592.909 840.909 592.221 840.909 590.844ZM852.218 596H847.75V579.623H852.218V596ZM863.702 582.494C862.755 582.494 862.013 582.797 861.476 583.402C860.938 583.998 860.631 584.848 860.553 585.951H866.822C866.803 584.848 866.515 583.998 865.958 583.402C865.401 582.797 864.649 582.494 863.702 582.494ZM864.332 596.293C861.695 596.293 859.635 595.565 858.15 594.11C856.666 592.655 855.924 590.595 855.924 587.929C855.924 585.185 856.607 583.065 857.975 581.571C859.352 580.067 861.251 579.315 863.673 579.315C865.987 579.315 867.789 579.975 869.078 581.293C870.367 582.611 871.012 584.433 871.012 586.757V588.925H860.45C860.499 590.194 860.875 591.186 861.578 591.898C862.281 592.611 863.268 592.968 864.537 592.968C865.523 592.968 866.456 592.865 867.335 592.66C868.214 592.455 869.132 592.128 870.089 591.679V595.136C869.308 595.526 868.473 595.814 867.584 596C866.695 596.195 865.611 596.293 864.332 596.293Z" fill="white"/>
<path d="M635.31 571.519H597.437C596.985 571.607 596.519 571.593 596.072 571.479C595.626 571.366 595.21 571.155 594.854 570.862C594.499 570.568 594.213 570.2 594.017 569.784C593.82 569.367 593.718 568.912 593.719 568.452V568.392L633.747 566.834V563.116C633.813 562.562 633.751 562 633.567 561.472C633.383 560.945 633.082 560.466 632.686 560.073C632.29 559.679 631.809 559.38 631.281 559.199C630.752 559.018 630.189 558.959 629.635 559.028L594.093 564.803C592.894 565.246 591.859 566.045 591.127 567.093C590.395 568.141 590.002 569.388 590 570.666V604.315C590 605.557 590.494 606.749 591.373 607.628C592.252 608.506 593.444 609 594.687 609H635.31C636.553 609 637.745 608.506 638.624 607.628C639.503 606.749 639.997 605.557 639.997 604.315V576.17L640 576.042C640 574.841 639.523 573.689 638.673 572.839C637.823 571.99 636.671 571.513 635.469 571.513L635.303 571.516L635.31 571.519ZM630.622 593.385C629.379 593.384 628.186 592.89 627.307 592.011C626.428 591.132 625.935 589.939 625.935 588.696C625.936 587.453 626.43 586.261 627.31 585.382C628.189 584.504 629.382 584.01 630.626 584.011C631.241 584.011 631.851 584.132 632.42 584.368C632.989 584.604 633.505 584.949 633.941 585.385C634.376 585.82 634.721 586.337 634.956 586.906C635.192 587.474 635.313 588.084 635.313 588.699C635.313 589.315 635.191 589.924 634.955 590.493C634.719 591.061 634.374 591.578 633.938 592.013C633.503 592.448 632.986 592.793 632.417 593.029C631.848 593.264 631.238 593.385 630.622 593.385Z" fill="white"/>
<path d="M1168.57 745H1150.46V695.43L1150.64 687.285L1150.93 678.379C1147.93 681.387 1145.84 683.359 1144.66 684.297L1134.82 692.207L1126.09 681.309L1153.69 659.336H1168.57V745ZM1214.45 732.402C1212.42 740.293 1208.98 749.648 1204.14 760.469H1191.25C1193.79 750.078 1195.76 740.273 1197.16 731.055H1213.57L1214.45 732.402ZM1226.58 708.613C1226.58 691.66 1230.15 679.043 1237.3 670.762C1244.49 662.48 1255.23 658.34 1269.53 658.34C1274.41 658.34 1278.24 658.633 1281.01 659.219V673.691C1277.54 672.91 1274.1 672.52 1270.7 672.52C1264.49 672.52 1259.41 673.457 1255.46 675.332C1251.56 677.207 1248.63 679.98 1246.68 683.652C1244.72 687.324 1243.57 692.539 1243.22 699.297H1243.98C1247.85 692.656 1254.04 689.336 1262.55 689.336C1270.21 689.336 1276.21 691.738 1280.54 696.543C1284.88 701.348 1287.05 707.988 1287.05 716.465C1287.05 725.605 1284.47 732.852 1279.31 738.203C1274.16 743.516 1267.01 746.172 1257.87 746.172C1251.54 746.172 1246.01 744.707 1241.29 741.777C1236.6 738.848 1232.96 734.57 1230.39 728.945C1227.85 723.32 1226.58 716.543 1226.58 708.613ZM1257.52 731.699C1261.38 731.699 1264.35 730.41 1266.42 727.832C1268.49 725.215 1269.53 721.504 1269.53 716.699C1269.53 712.52 1268.55 709.238 1266.6 706.855C1264.68 704.434 1261.77 703.223 1257.87 703.223C1254.2 703.223 1251.05 704.414 1248.43 706.797C1245.86 709.18 1244.57 711.953 1244.57 715.117C1244.57 719.766 1245.78 723.691 1248.2 726.895C1250.66 730.098 1253.77 731.699 1257.52 731.699ZM1355.6 745H1295.72V732.402L1317.22 710.664C1323.59 704.141 1327.75 699.629 1329.7 697.129C1331.66 694.59 1333.06 692.246 1333.92 690.098C1334.78 687.949 1335.21 685.723 1335.21 683.418C1335.21 679.98 1334.25 677.422 1332.34 675.742C1330.46 674.062 1327.95 673.223 1324.78 673.223C1321.46 673.223 1318.24 673.984 1315.11 675.508C1311.99 677.031 1308.73 679.199 1305.33 682.012L1295.48 670.352C1299.7 666.758 1303.2 664.219 1305.97 662.734C1308.75 661.25 1311.77 660.117 1315.05 659.336C1318.34 658.516 1322.01 658.105 1326.07 658.105C1331.42 658.105 1336.15 659.082 1340.25 661.035C1344.35 662.988 1347.54 665.723 1349.8 669.238C1352.07 672.754 1353.2 676.777 1353.2 681.309C1353.2 685.254 1352.5 688.965 1351.09 692.441C1349.72 695.879 1347.57 699.414 1344.64 703.047C1341.75 706.68 1336.64 711.855 1329.29 718.574L1318.28 728.945V729.766H1355.6V745ZM1377.93 685C1377.93 689.961 1378.36 693.672 1379.21 696.133C1380.11 698.555 1381.54 699.766 1383.49 699.766C1387.24 699.766 1389.12 694.844 1389.12 685C1389.12 675.234 1387.24 670.352 1383.49 670.352C1381.54 670.352 1380.11 671.562 1379.21 673.984C1378.36 676.367 1377.93 680.039 1377.93 685ZM1403.88 684.883C1403.88 693.867 1402.14 700.625 1398.67 705.156C1395.19 709.648 1390.09 711.895 1383.38 711.895C1376.93 711.895 1371.95 709.59 1368.43 704.98C1364.92 700.332 1363.16 693.633 1363.16 684.883C1363.16 667.031 1369.9 658.105 1383.38 658.105C1389.98 658.105 1395.04 660.43 1398.55 665.078C1402.11 669.688 1403.88 676.289 1403.88 684.883ZM1444.2 659.336L1396.68 745H1382.61L1430.13 659.336H1444.2ZM1437.93 719.219C1437.93 724.18 1438.36 727.891 1439.21 730.352C1440.11 732.773 1441.54 733.984 1443.49 733.984C1447.24 733.984 1449.12 729.062 1449.12 719.219C1449.12 709.453 1447.24 704.57 1443.49 704.57C1441.54 704.57 1440.11 705.781 1439.21 708.203C1438.36 710.586 1437.93 714.258 1437.93 719.219ZM1463.88 719.102C1463.88 728.047 1462.14 734.785 1458.67 739.316C1455.19 743.809 1450.09 746.055 1443.38 746.055C1436.93 746.055 1431.95 743.75 1428.43 739.141C1424.92 734.492 1423.16 727.812 1423.16 719.102C1423.16 701.25 1429.9 692.324 1443.38 692.324C1449.98 692.324 1455.04 694.648 1458.55 699.297C1462.11 703.906 1463.88 710.508 1463.88 719.102Z" fill="#01F859"/>
<path d="M1209.24 578.802H1211.02C1213.82 578.802 1215.97 579.368 1217.5 580.501C1219.02 581.634 1219.78 583.235 1219.78 585.306C1219.78 589.769 1216.83 592 1210.94 592H1204.7V570.584H1218.23V574.334H1209.24V578.802ZM1209.24 588.279H1210.76C1212.29 588.279 1213.42 588.035 1214.13 587.547C1214.84 587.049 1215.2 586.302 1215.2 585.306C1215.2 584.319 1214.84 583.611 1214.11 583.182C1213.39 582.742 1212.15 582.522 1210.39 582.522H1209.24V588.279ZM1246.12 583.782C1246.12 586.468 1245.44 588.558 1244.08 590.052C1242.73 591.546 1240.85 592.293 1238.45 592.293C1236.29 592.293 1234.56 591.688 1233.26 590.477C1231.97 589.266 1231.19 587.522 1230.92 585.247H1227.97V592H1223.5V575.623H1227.97V581.922H1230.97C1231.26 579.832 1232.06 578.211 1233.39 577.059C1234.73 575.896 1236.44 575.315 1238.53 575.315C1240.85 575.315 1242.69 576.077 1244.06 577.601C1245.43 579.114 1246.12 581.175 1246.12 583.782ZM1235.41 583.782C1235.41 585.413 1235.65 586.644 1236.13 587.474C1236.61 588.294 1237.4 588.704 1238.5 588.704C1239.59 588.704 1240.37 588.294 1240.85 587.474C1241.33 586.644 1241.57 585.413 1241.57 583.782C1241.57 582.151 1241.32 580.936 1240.83 580.135C1240.35 579.324 1239.57 578.919 1238.47 578.919C1237.39 578.919 1236.61 579.324 1236.13 580.135C1235.65 580.945 1235.41 582.161 1235.41 583.782ZM1260.07 588.733V578.978H1256.71C1256.47 580.794 1256.13 582.518 1255.7 584.148C1255.28 585.779 1254.7 587.308 1253.94 588.733H1260.07ZM1266.94 597.874H1262.92V592H1251.91V597.874H1247.89V588.733H1249.27C1250.21 587.278 1250.99 585.442 1251.63 583.226C1252.26 581.009 1252.71 578.475 1252.96 575.623H1264.53V588.733H1266.94V597.874ZM1278.41 583.577V575.623H1282.57V583.577L1288.4 575.623H1293.01L1286.98 583.475L1293.58 592H1288.81L1282.57 583.694V592H1278.41V583.694L1272.17 592H1267.39L1274 583.475L1267.96 575.623H1272.58L1278.41 583.577ZM1302.71 578.494C1301.76 578.494 1301.02 578.797 1300.48 579.402C1299.94 579.998 1299.64 580.848 1299.56 581.951H1305.83C1305.81 580.848 1305.52 579.998 1304.96 579.402C1304.41 578.797 1303.66 578.494 1302.71 578.494ZM1303.34 592.293C1300.7 592.293 1298.64 591.565 1297.16 590.11C1295.67 588.655 1294.93 586.595 1294.93 583.929C1294.93 581.185 1295.61 579.065 1296.98 577.571C1298.36 576.067 1300.26 575.315 1302.68 575.315C1304.99 575.315 1306.79 575.975 1308.08 577.293C1309.37 578.611 1310.02 580.433 1310.02 582.757V584.925H1299.46C1299.5 586.194 1299.88 587.186 1300.58 587.898C1301.29 588.611 1302.27 588.968 1303.54 588.968C1304.53 588.968 1305.46 588.865 1306.34 588.66C1307.22 588.455 1308.14 588.128 1309.09 587.679V591.136C1308.31 591.526 1307.48 591.814 1306.59 592C1305.7 592.195 1304.62 592.293 1303.34 592.293ZM1327.2 575.623V578.978H1321.84V592H1317.37V578.978H1312V575.623H1327.2ZM1334.73 575.623V581.922H1340.97V575.623H1345.44V592H1340.97V585.247H1334.73V592H1330.26V575.623H1334.73ZM1354.59 581.951H1356.75C1359.25 581.951 1361.1 582.352 1362.3 583.152C1363.5 583.953 1364.1 585.164 1364.1 586.785C1364.1 588.514 1363.5 589.817 1362.3 590.696C1361.1 591.565 1359.3 592 1356.91 592H1350.12V575.623H1354.59V581.951ZM1359.63 586.844C1359.63 586.209 1359.38 585.75 1358.87 585.467C1358.36 585.184 1357.61 585.042 1356.6 585.042H1354.59V588.909H1356.66C1358.64 588.909 1359.63 588.221 1359.63 586.844ZM1370.94 592H1366.47V575.623H1370.94V592ZM1382.42 578.494C1381.48 578.494 1380.74 578.797 1380.2 579.402C1379.66 579.998 1379.35 580.848 1379.28 581.951H1385.54C1385.53 580.848 1385.24 579.998 1384.68 579.402C1384.12 578.797 1383.37 578.494 1382.42 578.494ZM1383.05 592.293C1380.42 592.293 1378.36 591.565 1376.87 590.11C1375.39 588.655 1374.65 586.595 1374.65 583.929C1374.65 581.185 1375.33 579.065 1376.7 577.571C1378.07 576.067 1379.97 575.315 1382.4 575.315C1384.71 575.315 1386.51 575.975 1387.8 577.293C1389.09 578.611 1389.73 580.433 1389.73 582.757V584.925H1379.17C1379.22 586.194 1379.6 587.186 1380.3 587.898C1381 588.611 1381.99 588.968 1383.26 588.968C1384.25 588.968 1385.18 588.865 1386.06 588.66C1386.94 588.455 1387.85 588.128 1388.81 587.679V591.136C1388.03 591.526 1387.2 591.814 1386.31 592C1385.42 592.195 1384.33 592.293 1383.05 592.293Z" fill="white"/>
<path d="M1121.68 598.667V569.333H1119V564H1127.05V558.667C1127.05 557.959 1127.33 557.281 1127.83 556.781C1128.33 556.281 1129.02 556 1129.73 556H1167.27C1167.98 556 1168.67 556.281 1169.17 556.781C1169.67 557.281 1169.95 557.959 1169.95 558.667V564H1178V569.333H1175.32V598.667H1178V604H1119V598.667H1121.68ZM1151.18 598.667V580H1145.82V598.667H1151.18ZM1137.77 598.667V580H1132.41V598.667H1137.77ZM1164.59 598.667V580H1159.23V598.667H1164.59ZM1132.41 561.333V564H1164.59V561.333H1132.41Z" fill="white"/>
<path d="M93.3359 658.223C101.539 658.223 108.141 660.098 113.141 663.848C118.18 667.559 120.699 672.578 120.699 678.906C120.699 683.281 119.488 687.188 117.066 690.625C114.645 694.023 110.738 697.07 105.348 699.766C111.754 703.203 116.344 706.797 119.117 710.547C121.93 714.258 123.336 718.34 123.336 722.793C123.336 729.824 120.582 735.488 115.074 739.785C109.566 744.043 102.32 746.172 93.3359 746.172C83.9609 746.172 76.5977 744.18 71.2461 740.195C65.8945 736.211 63.2188 730.566 63.2188 723.262C63.2188 718.379 64.5078 714.043 67.0859 710.254C69.7031 706.465 73.8828 703.125 79.625 700.234C74.7422 697.148 71.2266 693.848 69.0781 690.332C66.9297 686.816 65.8555 682.969 65.8555 678.789C65.8555 672.656 68.3945 667.695 73.4727 663.906C78.5508 660.117 85.1719 658.223 93.3359 658.223ZM79.9766 722.207C79.9766 725.566 81.1484 728.184 83.4922 730.059C85.8359 731.934 89.0391 732.871 93.1016 732.871C97.5938 732.871 100.953 731.914 103.18 730C105.406 728.047 106.52 725.488 106.52 722.324C106.52 719.707 105.406 717.266 103.18 715C100.992 712.695 97.418 710.254 92.457 707.676C84.1367 711.504 79.9766 716.348 79.9766 722.207ZM93.2188 671.465C90.1328 671.465 87.6328 672.266 85.7188 673.867C83.8438 675.43 82.9062 677.539 82.9062 680.195C82.9062 682.539 83.6484 684.648 85.1328 686.523C86.6562 688.359 89.3906 690.254 93.3359 692.207C97.1641 690.41 99.8398 688.574 101.363 686.699C102.887 684.824 103.648 682.656 103.648 680.195C103.648 677.5 102.672 675.371 100.719 673.809C98.7656 672.246 96.2656 671.465 93.2188 671.465ZM161.891 658.223C170.094 658.223 176.695 660.098 181.695 663.848C186.734 667.559 189.254 672.578 189.254 678.906C189.254 683.281 188.043 687.188 185.621 690.625C183.199 694.023 179.293 697.07 173.902 699.766C180.309 703.203 184.898 706.797 187.672 710.547C190.484 714.258 191.891 718.34 191.891 722.793C191.891 729.824 189.137 735.488 183.629 739.785C178.121 744.043 170.875 746.172 161.891 746.172C152.516 746.172 145.152 744.18 139.801 740.195C134.449 736.211 131.773 730.566 131.773 723.262C131.773 718.379 133.062 714.043 135.641 710.254C138.258 706.465 142.438 703.125 148.18 700.234C143.297 697.148 139.781 693.848 137.633 690.332C135.484 686.816 134.41 682.969 134.41 678.789C134.41 672.656 136.949 667.695 142.027 663.906C147.105 660.117 153.727 658.223 161.891 658.223ZM148.531 722.207C148.531 725.566 149.703 728.184 152.047 730.059C154.391 731.934 157.594 732.871 161.656 732.871C166.148 732.871 169.508 731.914 171.734 730C173.961 728.047 175.074 725.488 175.074 722.324C175.074 719.707 173.961 717.266 171.734 715C169.547 712.695 165.973 710.254 161.012 707.676C152.691 711.504 148.531 716.348 148.531 722.207ZM161.773 671.465C158.688 671.465 156.188 672.266 154.273 673.867C152.398 675.43 151.461 677.539 151.461 680.195C151.461 682.539 152.203 684.648 153.688 686.523C155.211 688.359 157.945 690.254 161.891 692.207C165.719 690.41 168.395 688.574 169.918 686.699C171.441 684.824 172.203 682.656 172.203 680.195C172.203 677.5 171.227 675.371 169.273 673.809C167.32 672.246 164.82 671.465 161.773 671.465ZM223.004 732.402C220.973 740.293 217.535 749.648 212.691 760.469H199.801C202.34 750.078 204.312 740.273 205.719 731.055H222.125L223.004 732.402ZM295.25 695.898C295.25 712.773 291.695 725.371 284.586 733.691C277.477 742.012 266.715 746.172 252.301 746.172C247.223 746.172 243.375 745.898 240.758 745.352V730.82C244.039 731.641 247.477 732.051 251.07 732.051C257.125 732.051 262.105 731.172 266.012 729.414C269.918 727.617 272.906 724.824 274.977 721.035C277.047 717.207 278.238 711.953 278.551 705.273H277.848C275.582 708.945 272.965 711.523 269.996 713.008C267.027 714.492 263.316 715.234 258.863 715.234C251.402 715.234 245.523 712.852 241.227 708.086C236.93 703.281 234.781 696.621 234.781 688.105C234.781 678.926 237.379 671.68 242.574 666.367C247.809 661.016 254.918 658.34 263.902 658.34C270.23 658.34 275.758 659.824 280.484 662.793C285.25 665.762 288.902 670.078 291.441 675.742C293.98 681.367 295.25 688.086 295.25 695.898ZM264.254 672.871C260.504 672.871 257.574 674.16 255.465 676.738C253.355 679.316 252.301 683.027 252.301 687.871C252.301 692.012 253.258 695.293 255.172 697.715C257.086 700.137 259.996 701.348 263.902 701.348C267.574 701.348 270.719 700.156 273.336 697.773C275.953 695.352 277.262 692.578 277.262 689.453C277.262 684.805 276.031 680.879 273.57 677.676C271.148 674.473 268.043 672.871 264.254 672.871ZM349.039 745H330.934V695.43L331.109 687.285L331.402 678.379C328.395 681.387 326.305 683.359 325.133 684.297L315.289 692.207L306.559 681.309L334.156 659.336H349.039V745ZM386.48 685C386.48 689.961 386.91 693.672 387.77 696.133C388.668 698.555 390.094 699.766 392.047 699.766C395.797 699.766 397.672 694.844 397.672 685C397.672 675.234 395.797 670.352 392.047 670.352C390.094 670.352 388.668 671.562 387.77 673.984C386.91 676.367 386.48 680.039 386.48 685ZM412.438 684.883C412.438 693.867 410.699 700.625 407.223 705.156C403.746 709.648 398.648 711.895 391.93 711.895C385.484 711.895 380.504 709.59 376.988 704.98C373.473 700.332 371.715 693.633 371.715 684.883C371.715 667.031 378.453 658.105 391.93 658.105C398.531 658.105 403.59 660.43 407.105 665.078C410.66 669.688 412.438 676.289 412.438 684.883ZM452.75 659.336L405.23 745H391.168L438.688 659.336H452.75ZM446.48 719.219C446.48 724.18 446.91 727.891 447.77 730.352C448.668 732.773 450.094 733.984 452.047 733.984C455.797 733.984 457.672 729.062 457.672 719.219C457.672 709.453 455.797 704.57 452.047 704.57C450.094 704.57 448.668 705.781 447.77 708.203C446.91 710.586 446.48 714.258 446.48 719.219ZM472.438 719.102C472.438 728.047 470.699 734.785 467.223 739.316C463.746 743.809 458.648 746.055 451.93 746.055C445.484 746.055 440.504 743.75 436.988 739.141C433.473 734.492 431.715 727.812 431.715 719.102C431.715 701.25 438.453 692.324 451.93 692.324C458.531 692.324 463.59 694.648 467.105 699.297C470.66 703.906 472.438 710.508 472.438 719.102Z" fill="#01F859"/>
<path d="M144.644 592H140.117V574.363H132.236V592H127.695V570.584H144.644V592ZM158.691 592.293C156.768 592.293 155.259 591.595 154.165 590.198H153.931C154.087 591.565 154.165 592.356 154.165 592.571V599.207H149.697V575.623H153.33L153.96 577.747H154.165C155.21 576.126 156.758 575.315 158.809 575.315C160.742 575.315 162.256 576.062 163.35 577.557C164.443 579.051 164.99 581.126 164.99 583.782C164.99 585.53 164.731 587.049 164.214 588.338C163.706 589.627 162.979 590.608 162.031 591.282C161.084 591.956 159.971 592.293 158.691 592.293ZM157.373 578.89C156.27 578.89 155.464 579.231 154.956 579.915C154.448 580.589 154.185 581.707 154.165 583.27V583.753C154.165 585.511 154.424 586.771 154.941 587.532C155.469 588.294 156.299 588.675 157.432 588.675C159.434 588.675 160.435 587.024 160.435 583.724C160.435 582.112 160.186 580.906 159.688 580.105C159.199 579.295 158.428 578.89 157.373 578.89ZM173.003 575.623V582.098C173.003 582.781 172.891 584.451 172.666 587.107L180.225 575.623H185.601V592H181.279V585.467C181.279 584.305 181.377 582.664 181.572 580.545L174.043 592H168.682V575.623H173.003ZM205.42 579.915C205.42 580.794 205.142 581.546 204.585 582.171C204.038 582.786 203.228 583.182 202.153 583.357V583.475C203.315 583.611 204.233 584.012 204.907 584.676C205.591 585.33 205.933 586.141 205.933 587.107C205.933 588.699 205.308 589.915 204.058 590.755C202.808 591.585 201.021 592 198.696 592H190.303V575.623H198.696C200.942 575.623 202.622 575.989 203.735 576.722C204.858 577.444 205.42 578.509 205.42 579.915ZM201.304 586.873C201.304 586.229 201.055 585.765 200.557 585.481C200.059 585.188 199.312 585.042 198.315 585.042H194.771V588.909H198.403C199.351 588.909 200.068 588.733 200.557 588.382C201.055 588.021 201.304 587.518 201.304 586.873ZM200.894 580.267C200.894 579.271 200.103 578.772 198.521 578.772H194.771V582.01H198.008C198.955 582.01 199.673 581.873 200.161 581.6C200.649 581.326 200.894 580.882 200.894 580.267ZM224.155 592H219.688V578.978H215.571C215.259 582.64 214.878 585.374 214.429 587.181C213.979 588.978 213.379 590.281 212.627 591.092C211.885 591.893 210.908 592.293 209.697 592.293C208.662 592.293 207.812 592.137 207.148 591.824V588.25C207.627 588.445 208.105 588.543 208.584 588.543C209.141 588.543 209.604 588.143 209.976 587.342C210.356 586.541 210.693 585.208 210.986 583.343C211.289 581.468 211.548 578.895 211.763 575.623H224.155V592ZM235.64 578.494C234.692 578.494 233.95 578.797 233.413 579.402C232.876 579.998 232.568 580.848 232.49 581.951H238.76C238.74 580.848 238.452 579.998 237.896 579.402C237.339 578.797 236.587 578.494 235.64 578.494ZM236.27 592.293C233.633 592.293 231.572 591.565 230.088 590.11C228.604 588.655 227.861 586.595 227.861 583.929C227.861 581.185 228.545 579.065 229.912 577.571C231.289 576.067 233.188 575.315 235.61 575.315C237.925 575.315 239.727 575.975 241.016 577.293C242.305 578.611 242.949 580.433 242.949 582.757V584.925H232.388C232.437 586.194 232.812 587.186 233.516 587.898C234.219 588.611 235.205 588.968 236.475 588.968C237.461 588.968 238.394 588.865 239.272 588.66C240.151 588.455 241.069 588.128 242.026 587.679V591.136C241.245 591.526 240.41 591.814 239.521 592C238.633 592.195 237.549 592.293 236.27 592.293ZM250.508 575.623V581.614C250.508 583.04 251.167 583.753 252.485 583.753C253.345 583.753 254.141 583.655 254.873 583.46C255.615 583.265 256.362 583.011 257.114 582.698V575.623H261.582V592H257.114V585.496C256.079 586.043 255.117 586.429 254.229 586.653C253.34 586.878 252.48 586.99 251.65 586.99C249.863 586.99 248.481 586.536 247.505 585.628C246.528 584.71 246.04 583.406 246.04 581.717V575.623H250.508ZM273.052 578.494C272.104 578.494 271.362 578.797 270.825 579.402C270.288 579.998 269.98 580.848 269.902 581.951H276.172C276.152 580.848 275.864 579.998 275.308 579.402C274.751 578.797 273.999 578.494 273.052 578.494ZM273.682 592.293C271.045 592.293 268.984 591.565 267.5 590.11C266.016 588.655 265.273 586.595 265.273 583.929C265.273 581.185 265.957 579.065 267.324 577.571C268.701 576.067 270.601 575.315 273.022 575.315C275.337 575.315 277.139 575.975 278.428 577.293C279.717 578.611 280.361 580.433 280.361 582.757V584.925H269.8C269.849 586.194 270.225 587.186 270.928 587.898C271.631 588.611 272.617 588.968 273.887 588.968C274.873 588.968 275.806 588.865 276.685 588.66C277.563 588.455 278.481 588.128 279.438 587.679V591.136C278.657 591.526 277.822 591.814 276.934 592C276.045 592.195 274.961 592.293 273.682 592.293ZM268.042 571.419C268.042 570.784 268.223 570.296 268.584 569.954C268.955 569.612 269.453 569.441 270.078 569.441C270.723 569.441 271.226 569.622 271.587 569.983C271.958 570.345 272.144 570.823 272.144 571.419C272.144 572.005 271.958 572.479 271.587 572.84C271.216 573.191 270.713 573.367 270.078 573.367C269.453 573.367 268.955 573.196 268.584 572.854C268.223 572.513 268.042 572.034 268.042 571.419ZM273.945 571.419C273.945 570.735 274.141 570.237 274.531 569.925C274.932 569.603 275.425 569.441 276.011 569.441C276.646 569.441 277.148 569.617 277.52 569.969C277.9 570.32 278.091 570.804 278.091 571.419C278.091 572.015 277.9 572.488 277.52 572.84C277.139 573.191 276.636 573.367 276.011 573.367C275.425 573.367 274.932 573.211 274.531 572.898C274.141 572.576 273.945 572.083 273.945 571.419ZM288.462 575.623V581.922H294.702V575.623H299.17V592H294.702V585.247H288.462V592H283.994V575.623H288.462ZM308.325 575.623V581.922H314.565V575.623H319.033V592H314.565V585.247H308.325V592H303.857V575.623H308.325ZM328.188 581.951H330.342C332.842 581.951 334.692 582.352 335.894 583.152C337.095 583.953 337.695 585.164 337.695 586.785C337.695 588.514 337.095 589.817 335.894 590.696C334.692 591.565 332.896 592 330.503 592H323.721V575.623H328.188V581.951ZM333.228 586.844C333.228 586.209 332.974 585.75 332.466 585.467C331.958 585.184 331.201 585.042 330.195 585.042H328.188V588.909H330.254C332.236 588.909 333.228 588.221 333.228 586.844ZM344.536 592H340.068V575.623H344.536V592ZM356.021 578.494C355.073 578.494 354.331 578.797 353.794 579.402C353.257 579.998 352.949 580.848 352.871 581.951H359.141C359.121 580.848 358.833 579.998 358.276 579.402C357.72 578.797 356.968 578.494 356.021 578.494ZM356.65 592.293C354.014 592.293 351.953 591.565 350.469 590.11C348.984 588.655 348.242 586.595 348.242 583.929C348.242 581.185 348.926 579.065 350.293 577.571C351.67 576.067 353.569 575.315 355.991 575.315C358.306 575.315 360.107 575.975 361.396 577.293C362.686 578.611 363.33 580.433 363.33 582.757V584.925H352.769C352.817 586.194 353.193 587.186 353.896 587.898C354.6 588.611 355.586 588.968 356.855 588.968C357.842 588.968 358.774 588.865 359.653 588.66C360.532 588.455 361.45 588.128 362.407 587.679V591.136C361.626 591.526 360.791 591.814 359.902 592C359.014 592.195 357.93 592.293 356.65 592.293Z" fill="white"/>
<path d="M80 577.461C86.1936 577.461 91.2326 572.423 91.2326 566.23C91.2326 560.038 86.1936 555 80 555C73.8064 555 68.7674 560.038 68.7674 566.23C68.7674 572.423 73.8064 577.461 80 577.461Z" fill="white"/>
<path d="M85.3278 577.461H84.3953V584.64L86.3202 594.264C86.4251 594.788 86.2359 595.328 85.8261 595.672L80.9424 599.774C80.67 600.003 80.335 600.117 80 600.117C79.665 600.117 79.33 600.003 79.0576 599.774L74.1739 595.672C73.7641 595.328 73.5749 594.788 73.6794 594.264L75.6047 584.64V577.461H74.6722C66.0307 577.461 59 585.127 59 594.551V603.535C59 604.344 59.6559 605 60.4651 605H99.5349C100.344 605 101 604.344 101 603.535V594.551C101 585.127 93.9693 577.461 85.3278 577.461Z" fill="white"/>
<path d="M76.7229 593.987L80 596.739L83.2771 593.987L81.7291 586.25H78.2709L76.7229 593.987Z" fill="white"/>
<path d="M78.5349 580.391H81.4651V583.32H78.5349V580.391Z" fill="white"/>
</svg>
