<svg width="1590" height="1004" viewBox="0 0 1590 1004" fill="none" xmlns="http://www.w3.org/2000/svg">
<path d="M560.625 236.656H533.125V284H485.938V236.656H388.438V203.062L488.594 55.5625H533.125V199.156H560.625V236.656ZM485.938 199.156V160.406C485.938 153.948 486.198 144.573 486.719 132.281C487.24 119.99 487.656 112.854 487.969 110.875H486.719C482.865 119.417 478.229 127.75 472.812 135.875L430.938 199.156H485.938ZM601.25 284L687.031 96.5H574.375V55.875H738.281V86.1875L651.875 284H601.25ZM820.312 250.406C814.896 271.448 805.729 296.396 792.812 325.25H758.438C765.208 297.542 770.469 271.396 774.219 246.812H817.969L820.312 250.406ZM852.656 186.969C852.656 141.76 862.188 108.115 881.25 86.0312C900.417 63.9479 929.062 52.9062 967.188 52.9062C980.208 52.9062 990.417 53.6875 997.812 55.25V93.8438C988.542 91.7604 979.375 90.7188 970.312 90.7188C953.75 90.7188 940.208 93.2188 929.688 98.2188C919.271 103.219 911.458 110.615 906.25 120.406C901.042 130.198 897.969 144.104 897.031 162.125H899.062C909.375 144.417 925.885 135.562 948.594 135.562C969.01 135.562 985 141.969 996.562 154.781C1008.12 167.594 1013.91 185.302 1013.91 207.906C1013.91 232.281 1007.03 251.604 993.281 265.875C979.531 280.042 960.469 287.125 936.094 287.125C919.219 287.125 904.479 283.219 891.875 275.406C879.375 267.594 869.688 256.188 862.812 241.188C856.042 226.188 852.656 208.115 852.656 186.969ZM935.156 248.531C945.469 248.531 953.385 245.094 958.906 238.219C964.427 231.24 967.188 221.344 967.188 208.531C967.188 197.385 964.583 188.635 959.375 182.281C954.271 175.823 946.51 172.594 936.094 172.594C926.302 172.594 917.917 175.771 910.938 182.125C904.062 188.479 900.625 195.875 900.625 204.312C900.625 216.708 903.854 227.177 910.312 235.719C916.875 244.26 925.156 248.531 935.156 248.531ZM1195.78 153.062C1195.78 198.062 1186.3 231.656 1167.34 253.844C1148.39 276.031 1119.69 287.125 1081.25 287.125C1067.71 287.125 1057.45 286.396 1050.47 284.938V246.188C1059.22 248.375 1068.39 249.469 1077.97 249.469C1094.11 249.469 1107.4 247.125 1117.81 242.438C1128.23 237.646 1136.2 230.198 1141.72 220.094C1147.24 209.885 1150.42 195.875 1151.25 178.062H1149.38C1143.33 187.854 1136.35 194.729 1128.44 198.688C1120.52 202.646 1110.62 204.625 1098.75 204.625C1078.85 204.625 1063.18 198.271 1051.72 185.562C1040.26 172.75 1034.53 154.99 1034.53 132.281C1034.53 107.802 1041.46 88.4792 1055.31 74.3125C1069.27 60.0417 1088.23 52.9062 1112.19 52.9062C1129.06 52.9062 1143.8 56.8646 1156.41 64.7812C1169.11 72.6979 1178.85 84.2083 1185.62 99.3125C1192.4 114.312 1195.78 132.229 1195.78 153.062ZM1113.12 91.6562C1103.12 91.6562 1095.31 95.0938 1089.69 101.969C1084.06 108.844 1081.25 118.74 1081.25 131.656C1081.25 142.698 1083.8 151.448 1088.91 157.906C1094.01 164.365 1101.77 167.594 1112.19 167.594C1121.98 167.594 1130.36 164.417 1137.34 158.062C1144.32 151.604 1147.81 144.208 1147.81 135.875C1147.81 123.479 1144.53 113.01 1137.97 104.469C1131.51 95.9271 1123.23 91.6562 1113.12 91.6562Z" fill="#01F859"/>
<path d="M762.25 370.719C766.583 370.719 770.01 371.719 772.531 373.719C775.052 375.698 776.312 378.354 776.312 381.688C776.312 386.375 773.5 390.104 767.875 392.875C771.458 394.667 774 396.552 775.5 398.531C777.021 400.51 777.781 402.719 777.781 405.156C777.781 408.927 776.396 411.948 773.625 414.219C770.854 416.49 767.104 417.625 762.375 417.625C757.417 417.625 753.573 416.562 750.844 414.438C748.115 412.312 746.75 409.302 746.75 405.406C746.75 402.865 747.458 400.583 748.875 398.562C750.312 396.521 752.656 394.708 755.906 393.125C753.115 391.458 751.125 389.698 749.938 387.844C748.75 385.99 748.156 383.906 748.156 381.594C748.156 378.281 749.458 375.646 752.062 373.688C754.667 371.708 758.062 370.719 762.25 370.719ZM753.781 405.156C753.781 407.323 754.542 409.01 756.062 410.219C757.583 411.406 759.646 412 762.25 412C764.938 412 767.021 411.385 768.5 410.156C770 408.906 770.75 407.219 770.75 405.094C770.75 403.406 770.062 401.865 768.688 400.469C767.312 399.073 765.229 397.781 762.438 396.594L761.531 396.188C758.781 397.396 756.802 398.729 755.594 400.188C754.385 401.625 753.781 403.281 753.781 405.156ZM762.188 376.375C760.104 376.375 758.427 376.896 757.156 377.938C755.885 378.958 755.25 380.354 755.25 382.125C755.25 383.208 755.479 384.177 755.938 385.031C756.396 385.885 757.062 386.667 757.938 387.375C758.812 388.062 760.292 388.896 762.375 389.875C764.875 388.771 766.635 387.615 767.656 386.406C768.698 385.177 769.219 383.75 769.219 382.125C769.219 380.354 768.573 378.958 767.281 377.938C766.01 376.896 764.312 376.375 762.188 376.375ZM804.938 417H797.594V387.5C797.594 383.979 797.677 381.188 797.844 379.125C797.365 379.625 796.771 380.177 796.062 380.781C795.375 381.385 793.042 383.302 789.062 386.531L785.375 381.875L798.812 371.312H804.938V417ZM830 410.281C829 414.156 827.167 419.146 824.5 425.25H819.094C820.531 419.625 821.604 414.396 822.312 409.562H829.531L830 410.281ZM868.031 417H837.062V411.438L848.844 399.594C852.323 396.031 854.625 393.51 855.75 392.031C856.896 390.531 857.729 389.125 858.25 387.812C858.771 386.5 859.031 385.094 859.031 383.594C859.031 381.531 858.406 379.906 857.156 378.719C855.927 377.531 854.219 376.938 852.031 376.938C850.281 376.938 848.583 377.26 846.938 377.906C845.312 378.552 843.427 379.719 841.281 381.406L837.312 376.562C839.854 374.417 842.323 372.896 844.719 372C847.115 371.104 849.667 370.656 852.375 370.656C856.625 370.656 860.031 371.771 862.594 374C865.156 376.208 866.438 379.188 866.438 382.938C866.438 385 866.062 386.958 865.312 388.812C864.583 390.667 863.448 392.583 861.906 394.562C860.385 396.521 857.844 399.177 854.281 402.531L846.344 410.219V410.531H868.031V417ZM879.531 385C879.531 388.104 879.833 390.417 880.438 391.938C881.042 393.458 882.031 394.219 883.406 394.219C886.156 394.219 887.531 391.146 887.531 385C887.531 378.854 886.156 375.781 883.406 375.781C882.031 375.781 881.042 376.542 880.438 378.062C879.833 379.583 879.531 381.896 879.531 385ZM893.594 384.938C893.594 389.729 892.729 393.333 891 395.75C889.292 398.146 886.76 399.344 883.406 399.344C880.24 399.344 877.781 398.104 876.031 395.625C874.302 393.125 873.438 389.562 873.438 384.938C873.438 375.417 876.76 370.656 883.406 370.656C886.677 370.656 889.188 371.896 890.938 374.375C892.708 376.833 893.594 380.354 893.594 384.938ZM909.281 403.25C909.281 406.354 909.583 408.677 910.188 410.219C910.812 411.76 911.812 412.531 913.188 412.531C915.917 412.531 917.281 409.438 917.281 403.25C917.281 397.146 915.917 394.094 913.188 394.094C911.812 394.094 910.812 394.844 910.188 396.344C909.583 397.844 909.281 400.146 909.281 403.25ZM923.344 403.25C923.344 408.042 922.479 411.635 920.75 414.031C919.021 416.427 916.5 417.625 913.188 417.625C910.021 417.625 907.562 416.396 905.812 413.938C904.062 411.458 903.188 407.896 903.188 403.25C903.188 393.729 906.521 388.969 913.188 388.969C916.396 388.969 918.885 390.198 920.656 392.656C922.448 395.115 923.344 398.646 923.344 403.25ZM914.062 371.312L888.719 417H882.656L908 371.312H914.062Z" fill="white"/>
<path d="M690 377L714 417H666L690 377Z" fill="#01F859"/>
<path d="M530 474H1060V1004H530V474Z" fill="#C4C4C4" fill-opacity="0.05"/>
<path d="M588 904L603 929H573L588 904Z" fill="#01F859"/>
<path d="M633.266 902.967C635.703 902.967 637.631 903.529 639.049 904.654C640.467 905.768 641.176 907.262 641.176 909.137C641.176 911.773 639.594 913.871 636.43 915.43C638.445 916.438 639.875 917.498 640.719 918.611C641.574 919.725 642.002 920.967 642.002 922.338C642.002 924.459 641.223 926.158 639.664 927.436C638.105 928.713 635.996 929.352 633.336 929.352C630.547 929.352 628.385 928.754 626.85 927.559C625.314 926.363 624.547 924.67 624.547 922.479C624.547 921.049 624.945 919.766 625.742 918.629C626.551 917.48 627.869 916.461 629.697 915.57C628.127 914.633 627.008 913.643 626.34 912.6C625.672 911.557 625.338 910.385 625.338 909.084C625.338 907.221 626.07 905.738 627.535 904.637C629 903.523 630.91 902.967 633.266 902.967ZM628.502 922.338C628.502 923.557 628.93 924.506 629.785 925.186C630.641 925.854 631.801 926.188 633.266 926.188C634.777 926.188 635.949 925.842 636.781 925.15C637.625 924.447 638.047 923.498 638.047 922.303C638.047 921.354 637.66 920.486 636.887 919.701C636.113 918.916 634.941 918.189 633.371 917.521L632.861 917.293C631.314 917.973 630.201 918.723 629.521 919.543C628.842 920.352 628.502 921.283 628.502 922.338ZM633.23 906.148C632.059 906.148 631.115 906.441 630.4 907.027C629.686 907.602 629.328 908.387 629.328 909.383C629.328 909.992 629.457 910.537 629.715 911.018C629.973 911.498 630.348 911.938 630.84 912.336C631.332 912.723 632.164 913.191 633.336 913.742C634.742 913.121 635.732 912.471 636.307 911.791C636.893 911.1 637.186 910.297 637.186 909.383C637.186 908.387 636.822 907.602 636.096 907.027C635.381 906.441 634.426 906.148 633.23 906.148ZM662.568 916.15C662.568 920.615 661.848 923.932 660.406 926.1C658.977 928.268 656.785 929.352 653.832 929.352C650.973 929.352 648.805 928.232 647.328 925.994C645.852 923.756 645.113 920.475 645.113 916.15C645.113 911.615 645.828 908.275 647.258 906.131C648.699 903.975 650.891 902.896 653.832 902.896C656.703 902.896 658.877 904.021 660.354 906.271C661.83 908.521 662.568 911.814 662.568 916.15ZM649.297 916.15C649.297 919.654 649.654 922.156 650.369 923.656C651.096 925.156 652.25 925.906 653.832 925.906C655.414 925.906 656.568 925.145 657.295 923.621C658.033 922.098 658.402 919.607 658.402 916.15C658.402 912.705 658.033 910.215 657.295 908.68C656.568 907.133 655.414 906.359 653.832 906.359C652.25 906.359 651.096 907.115 650.369 908.627C649.654 910.139 649.297 912.646 649.297 916.15ZM671.375 925.221C670.812 927.4 669.781 930.207 668.281 933.641H665.24C666.049 930.477 666.652 927.535 667.051 924.816H671.111L671.375 925.221ZM687.477 929H683.346V912.406C683.346 910.426 683.393 908.855 683.486 907.695C683.217 907.977 682.883 908.287 682.484 908.627C682.098 908.967 680.785 910.045 678.547 911.861L676.473 909.242L684.031 903.301H687.477V929ZM712.367 909.207C712.367 910.836 711.893 912.195 710.943 913.285C709.994 914.363 708.658 915.09 706.936 915.465V915.605C708.998 915.863 710.545 916.508 711.576 917.539C712.607 918.559 713.123 919.918 713.123 921.617C713.123 924.09 712.25 926 710.504 927.348C708.758 928.684 706.273 929.352 703.051 929.352C700.203 929.352 697.801 928.889 695.844 927.963V924.289C696.934 924.828 698.088 925.244 699.307 925.537C700.525 925.83 701.697 925.977 702.822 925.977C704.814 925.977 706.303 925.607 707.287 924.869C708.271 924.131 708.764 922.988 708.764 921.441C708.764 920.07 708.219 919.062 707.129 918.418C706.039 917.773 704.328 917.451 701.996 917.451H699.764V914.094H702.031C706.133 914.094 708.184 912.676 708.184 909.84C708.184 908.738 707.826 907.889 707.111 907.291C706.396 906.693 705.342 906.395 703.947 906.395C702.975 906.395 702.037 906.535 701.135 906.816C700.232 907.086 699.166 907.619 697.936 908.416L695.914 905.533C698.27 903.799 701.006 902.932 704.123 902.932C706.713 902.932 708.734 903.488 710.188 904.602C711.641 905.715 712.367 907.25 712.367 909.207ZM719.803 911C719.803 912.746 719.973 914.047 720.312 914.902C720.652 915.758 721.209 916.186 721.982 916.186C723.529 916.186 724.303 914.457 724.303 911C724.303 907.543 723.529 905.814 721.982 905.814C721.209 905.814 720.652 906.242 720.312 907.098C719.973 907.953 719.803 909.254 719.803 911ZM727.713 910.965C727.713 913.66 727.227 915.688 726.254 917.047C725.293 918.395 723.869 919.068 721.982 919.068C720.201 919.068 718.818 918.371 717.834 916.977C716.861 915.57 716.375 913.566 716.375 910.965C716.375 905.609 718.244 902.932 721.982 902.932C723.822 902.932 725.234 903.629 726.219 905.023C727.215 906.406 727.713 908.387 727.713 910.965ZM736.537 921.266C736.537 923.012 736.707 924.318 737.047 925.186C737.398 926.053 737.961 926.486 738.734 926.486C740.27 926.486 741.037 924.746 741.037 921.266C741.037 917.832 740.27 916.115 738.734 916.115C737.961 916.115 737.398 916.537 737.047 917.381C736.707 918.225 736.537 919.52 736.537 921.266ZM744.447 921.266C744.447 923.961 743.961 925.982 742.988 927.33C742.016 928.678 740.598 929.352 738.734 929.352C736.953 929.352 735.57 928.66 734.586 927.277C733.602 925.883 733.109 923.879 733.109 921.266C733.109 915.91 734.984 913.232 738.734 913.232C740.539 913.232 741.939 913.924 742.936 915.307C743.943 916.689 744.447 918.676 744.447 921.266ZM739.227 903.301L724.971 929H721.561L735.816 903.301H739.227Z" fill="white"/>
<path d="M630.832 851H609.709V793.168L609.914 783.666L610.256 773.275C606.747 776.785 604.309 779.086 602.941 780.18L591.457 789.408L581.271 776.693L613.469 751.059H630.832V851ZM728.039 793.715C728.039 813.402 723.892 828.1 715.598 837.807C707.303 847.514 694.748 852.367 677.932 852.367C672.007 852.367 667.518 852.048 664.465 851.41V834.457C668.293 835.414 672.303 835.893 676.496 835.893C683.56 835.893 689.37 834.867 693.928 832.816C698.485 830.72 701.971 827.462 704.387 823.041C706.802 818.575 708.192 812.445 708.557 804.652H707.736C705.093 808.936 702.04 811.944 698.576 813.676C695.113 815.408 690.783 816.273 685.588 816.273C676.883 816.273 670.025 813.493 665.012 807.934C659.999 802.328 657.492 794.558 657.492 784.623C657.492 773.913 660.523 765.46 666.584 759.262C672.691 753.018 680.985 749.896 691.467 749.896C698.85 749.896 705.298 751.628 710.812 755.092C716.372 758.555 720.633 763.591 723.596 770.199C726.558 776.762 728.039 784.6 728.039 793.715ZM691.877 766.85C687.502 766.85 684.084 768.354 681.623 771.361C679.162 774.369 677.932 778.699 677.932 784.35C677.932 789.18 679.048 793.008 681.281 795.834C683.514 798.66 686.91 800.072 691.467 800.072C695.751 800.072 699.419 798.682 702.473 795.902C705.526 793.077 707.053 789.841 707.053 786.195C707.053 780.772 705.617 776.192 702.746 772.455C699.921 768.718 696.298 766.85 691.877 766.85ZM764.338 836.303C761.968 845.508 757.958 856.423 752.307 869.047H737.268C740.23 856.924 742.531 845.486 744.172 834.73H763.312L764.338 836.303ZM778.488 808.549C778.488 788.77 782.658 774.05 790.998 764.389C799.383 754.727 811.916 749.896 828.596 749.896C834.292 749.896 838.758 750.238 841.994 750.922V767.807C837.938 766.895 833.928 766.439 829.963 766.439C822.717 766.439 816.792 767.533 812.189 769.721C807.632 771.908 804.214 775.144 801.936 779.428C799.657 783.712 798.312 789.796 797.902 797.68H798.791C803.303 789.932 810.526 786.059 820.461 786.059C829.393 786.059 836.389 788.861 841.447 794.467C846.506 800.072 849.035 807.82 849.035 817.709C849.035 828.373 846.027 836.827 840.012 843.07C833.996 849.268 825.656 852.367 814.992 852.367C807.609 852.367 801.161 850.658 795.646 847.24C790.178 843.822 785.939 838.832 782.932 832.27C779.969 825.707 778.488 817.8 778.488 808.549ZM814.582 835.482C819.094 835.482 822.557 833.979 824.973 830.971C827.388 827.917 828.596 823.588 828.596 817.982C828.596 813.106 827.456 809.278 825.178 806.498C822.945 803.673 819.549 802.26 814.992 802.26C810.708 802.26 807.04 803.65 803.986 806.43C800.979 809.21 799.475 812.445 799.475 816.137C799.475 821.56 800.887 826.14 803.713 829.877C806.584 833.614 810.207 835.482 814.582 835.482ZM931.271 830.287H919.24V851H898.596V830.287H855.939V815.59L899.758 751.059H919.24V813.881H931.271V830.287ZM898.596 813.881V796.928C898.596 794.102 898.71 790.001 898.938 784.623C899.165 779.245 899.348 776.124 899.484 775.258H898.938C897.251 778.995 895.223 782.641 892.854 786.195L874.533 813.881H898.596Z" fill="#01F859"/>
<path d="M575.336 617.439H578.878V626.402L578.827 628.802L578.7 631.531H578.776L587.346 617.439H592.056V636H588.552V627.088C588.552 625.895 588.628 624.126 588.78 621.781H588.679L580.071 636H575.336V617.439ZM600.308 621.807V627.266H605.716V621.807H609.588V636H605.716V630.147H600.308V636H596.436V621.807H600.308ZM626.752 625.526C626.752 626.288 626.511 626.94 626.028 627.481C625.554 628.015 624.852 628.357 623.921 628.51V628.611C624.928 628.73 625.724 629.077 626.308 629.652C626.9 630.219 627.196 630.922 627.196 631.76C627.196 633.139 626.655 634.193 625.571 634.921C624.488 635.64 622.939 636 620.925 636H613.65V621.807H620.925C622.871 621.807 624.327 622.124 625.292 622.759C626.265 623.385 626.752 624.308 626.752 625.526ZM623.185 631.557C623.185 630.998 622.969 630.596 622.537 630.351C622.105 630.097 621.458 629.97 620.595 629.97H617.522V633.321H620.671C621.492 633.321 622.114 633.169 622.537 632.864C622.969 632.551 623.185 632.115 623.185 631.557ZM622.829 625.831C622.829 624.968 622.144 624.536 620.772 624.536H617.522V627.342H620.328C621.149 627.342 621.771 627.223 622.194 626.986C622.618 626.749 622.829 626.364 622.829 625.831ZM636.159 624.295C635.338 624.295 634.695 624.557 634.229 625.082C633.764 625.598 633.497 626.335 633.43 627.291H638.863C638.846 626.335 638.597 625.598 638.114 625.082C637.632 624.557 636.98 624.295 636.159 624.295ZM636.705 636.254C634.42 636.254 632.634 635.623 631.348 634.362C630.061 633.101 629.418 631.315 629.418 629.005C629.418 626.627 630.01 624.79 631.195 623.495C632.389 622.192 634.035 621.54 636.134 621.54C638.14 621.54 639.701 622.111 640.818 623.254C641.936 624.396 642.494 625.975 642.494 627.989V629.868H633.341C633.383 630.968 633.709 631.827 634.318 632.445C634.928 633.063 635.783 633.372 636.883 633.372C637.738 633.372 638.546 633.283 639.308 633.105C640.069 632.928 640.865 632.644 641.694 632.255V635.251C641.017 635.59 640.294 635.839 639.523 636C638.753 636.169 637.814 636.254 636.705 636.254ZM651.406 636.254C646.988 636.254 644.779 633.829 644.779 628.979C644.779 626.567 645.38 624.727 646.582 623.457C647.784 622.179 649.506 621.54 651.749 621.54C653.391 621.54 654.864 621.862 656.167 622.505L655.024 625.501C654.415 625.256 653.848 625.057 653.323 624.904C652.799 624.743 652.274 624.663 651.749 624.663C649.735 624.663 648.728 626.093 648.728 628.954C648.728 631.73 649.735 633.118 651.749 633.118C652.494 633.118 653.184 633.021 653.818 632.826C654.453 632.623 655.088 632.31 655.723 631.887V635.2C655.096 635.598 654.462 635.873 653.818 636.025C653.184 636.178 652.38 636.254 651.406 636.254ZM670.767 621.807V624.714H666.12V636H662.248V624.714H657.589V621.807H670.767ZM677.165 621.807V627.418C677.165 628.01 677.068 629.458 676.873 631.76L683.424 621.807H688.083V636H684.338V630.338C684.338 629.331 684.423 627.909 684.592 626.072L678.066 636H673.42V621.807H677.165ZM705.577 633.169H707.646V641.091H704.168V636H692.158V621.807H696.03V633.093H701.692V621.807H705.577V633.169ZM713.804 621.807V627.418C713.804 628.01 713.706 629.458 713.512 631.76L720.062 621.807H724.722V636H720.977V630.338C720.977 629.331 721.061 627.909 721.23 626.072L714.705 636H710.059V621.807H713.804ZM732.542 621.807V627.418C732.542 628.01 732.445 629.458 732.25 631.76L738.801 621.807H743.46V636H739.715V630.338C739.715 629.331 739.799 627.909 739.969 626.072L733.443 636H728.797V621.807H732.542ZM772.177 636H768.559V624.815L768.355 625.603C767.898 627.388 767.488 628.738 767.124 629.652L764.61 636H761.855L759.304 629.602C758.94 628.671 758.55 627.363 758.136 625.679L757.895 624.815V636H754.289V621.807H759.621L762.059 627.862C762.312 628.514 762.545 629.263 762.757 630.109C762.977 630.956 763.125 631.679 763.201 632.28C763.48 631.011 763.696 630.101 763.849 629.551C764.009 628.992 764.183 628.48 764.369 628.015C764.555 627.549 765.397 625.48 766.896 621.807H772.177V636ZM785.266 636L784.517 634.07H784.415C783.763 634.891 783.09 635.463 782.396 635.784C781.711 636.097 780.814 636.254 779.705 636.254C778.342 636.254 777.268 635.865 776.48 635.086C775.702 634.307 775.312 633.199 775.312 631.76C775.312 630.253 775.837 629.145 776.887 628.434C777.945 627.714 779.536 627.316 781.66 627.24L784.123 627.164V626.542C784.123 625.103 783.387 624.384 781.914 624.384C780.78 624.384 779.447 624.727 777.915 625.412L776.633 622.797C778.266 621.942 780.077 621.515 782.066 621.515C783.971 621.515 785.431 621.929 786.446 622.759C787.462 623.588 787.97 624.849 787.97 626.542V636H785.266ZM784.123 629.424L782.625 629.475C781.499 629.508 780.661 629.712 780.111 630.084C779.561 630.456 779.286 631.023 779.286 631.785C779.286 632.877 779.912 633.423 781.165 633.423C782.062 633.423 782.777 633.165 783.311 632.648C783.852 632.132 784.123 631.447 784.123 630.592V629.424ZM804.677 636H800.805V624.714H797.237C796.966 627.888 796.636 630.257 796.247 631.823C795.858 633.381 795.337 634.51 794.686 635.213C794.042 635.907 793.196 636.254 792.146 636.254C791.249 636.254 790.513 636.118 789.938 635.848V632.75C790.352 632.919 790.767 633.004 791.182 633.004C791.664 633.004 792.066 632.657 792.388 631.963C792.718 631.269 793.01 630.114 793.264 628.497C793.526 626.872 793.75 624.642 793.937 621.807H804.677V636ZM811.837 628.878C811.837 630.283 812.065 631.345 812.522 632.064C812.988 632.784 813.741 633.144 814.782 633.144C815.815 633.144 816.555 632.788 817.004 632.077C817.461 631.358 817.689 630.291 817.689 628.878C817.689 627.473 817.461 626.419 817.004 625.717C816.547 625.014 815.798 624.663 814.757 624.663C813.724 624.663 812.979 625.014 812.522 625.717C812.065 626.411 811.837 627.465 811.837 628.878ZM821.65 628.878C821.65 631.188 821.041 632.995 819.822 634.299C818.604 635.602 816.907 636.254 814.731 636.254C813.369 636.254 812.167 635.958 811.126 635.365C810.085 634.764 809.285 633.905 808.727 632.788C808.168 631.671 807.889 630.368 807.889 628.878C807.889 626.559 808.494 624.756 809.704 623.47C810.914 622.183 812.616 621.54 814.808 621.54C816.17 621.54 817.372 621.836 818.413 622.429C819.454 623.021 820.254 623.872 820.812 624.98C821.371 626.089 821.65 627.388 821.65 628.878ZM834.65 621.807V624.714H828.722V636H824.85V621.807H834.65ZM840.376 628.878C840.376 630.283 840.604 631.345 841.062 632.064C841.527 632.784 842.28 633.144 843.321 633.144C844.354 633.144 845.094 632.788 845.543 632.077C846 631.358 846.229 630.291 846.229 628.878C846.229 627.473 846 626.419 845.543 625.717C845.086 625.014 844.337 624.663 843.296 624.663C842.263 624.663 841.519 625.014 841.062 625.717C840.604 626.411 840.376 627.465 840.376 628.878ZM850.189 628.878C850.189 631.188 849.58 632.995 848.361 634.299C847.143 635.602 845.446 636.254 843.271 636.254C841.908 636.254 840.706 635.958 839.665 635.365C838.624 634.764 837.824 633.905 837.266 632.788C836.707 631.671 836.428 630.368 836.428 628.878C836.428 626.559 837.033 624.756 838.243 623.47C839.453 622.183 841.155 621.54 843.347 621.54C844.709 621.54 845.911 621.836 846.952 622.429C847.993 623.021 848.793 623.872 849.352 624.98C849.91 626.089 850.189 627.388 850.189 628.878ZM863.888 621.807V627.418C863.888 628.01 863.79 629.458 863.596 631.76L870.146 621.807H874.806V636H871.061V630.338C871.061 629.331 871.145 627.909 871.314 626.072L864.789 636H860.143V621.807H863.888ZM891.398 636.254C886.98 636.254 884.771 633.829 884.771 628.979C884.771 626.567 885.372 624.727 886.574 623.457C887.776 622.179 889.498 621.54 891.741 621.54C893.383 621.54 894.856 621.862 896.159 622.505L895.017 625.501C894.407 625.256 893.84 625.057 893.315 624.904C892.791 624.743 892.266 624.663 891.741 624.663C889.727 624.663 888.72 626.093 888.72 628.954C888.72 631.73 889.727 633.118 891.741 633.118C892.486 633.118 893.176 633.021 893.811 632.826C894.445 632.623 895.08 632.31 895.715 631.887V635.2C895.089 635.598 894.454 635.873 893.811 636.025C893.176 636.178 892.372 636.254 891.398 636.254ZM906.811 636.254C905.143 636.254 903.836 635.649 902.888 634.438H902.685C902.82 635.623 902.888 636.309 902.888 636.495V642.246H899.016V621.807H902.164L902.71 623.647H902.888C903.793 622.243 905.135 621.54 906.912 621.54C908.588 621.54 909.9 622.188 910.848 623.482C911.796 624.777 912.27 626.576 912.27 628.878C912.27 630.393 912.045 631.709 911.597 632.826C911.157 633.943 910.526 634.794 909.705 635.378C908.884 635.962 907.919 636.254 906.811 636.254ZM905.668 624.638C904.712 624.638 904.013 624.934 903.573 625.526C903.133 626.11 902.905 627.079 902.888 628.434V628.853C902.888 630.376 903.112 631.468 903.561 632.128C904.018 632.788 904.737 633.118 905.719 633.118C907.454 633.118 908.321 631.688 908.321 628.827C908.321 627.431 908.105 626.385 907.674 625.691C907.251 624.989 906.582 624.638 905.668 624.638ZM921.347 624.295C920.526 624.295 919.882 624.557 919.417 625.082C918.951 625.598 918.685 626.335 918.617 627.291H924.051C924.034 626.335 923.784 625.598 923.302 625.082C922.819 624.557 922.168 624.295 921.347 624.295ZM921.893 636.254C919.607 636.254 917.822 635.623 916.535 634.362C915.249 633.101 914.605 631.315 914.605 629.005C914.605 626.627 915.198 624.79 916.383 623.495C917.576 622.192 919.222 621.54 921.321 621.54C923.327 621.54 924.889 622.111 926.006 623.254C927.123 624.396 927.682 625.975 927.682 627.989V629.868H918.528C918.571 630.968 918.896 631.827 919.506 632.445C920.115 633.063 920.97 633.372 922.07 633.372C922.925 633.372 923.733 633.283 924.495 633.105C925.257 632.928 926.052 632.644 926.882 632.255V635.251C926.205 635.59 925.481 635.839 924.711 636C923.941 636.169 923.001 636.254 921.893 636.254ZM939.717 633.169V624.714H936.81C936.598 626.288 936.306 627.782 935.934 629.195C935.57 630.609 935.062 631.933 934.41 633.169H939.717ZM945.671 641.091H942.192V636H932.646V641.091H929.167V633.169H930.36C931.173 631.908 931.854 630.317 932.404 628.396C932.954 626.474 933.34 624.278 933.56 621.807H943.589V633.169H945.671V641.091ZM951.968 621.807V627.266H957.376V621.807H961.248V636H957.376V630.147H951.968V636H948.096V621.807H951.968ZM971.188 624.295C970.368 624.295 969.724 624.557 969.259 625.082C968.793 625.598 968.527 626.335 968.459 627.291H973.893C973.876 626.335 973.626 625.598 973.144 625.082C972.661 624.557 972.009 624.295 971.188 624.295ZM971.734 636.254C969.449 636.254 967.663 635.623 966.377 634.362C965.09 633.101 964.447 631.315 964.447 629.005C964.447 626.627 965.04 624.79 966.225 623.495C967.418 622.192 969.064 621.54 971.163 621.54C973.169 621.54 974.73 622.111 975.848 623.254C976.965 624.396 977.523 625.975 977.523 627.989V629.868H968.37C968.412 630.968 968.738 631.827 969.348 632.445C969.957 633.063 970.812 633.372 971.912 633.372C972.767 633.372 973.575 633.283 974.337 633.105C975.099 632.928 975.894 632.644 976.724 632.255V635.251C976.047 635.59 975.323 635.839 974.553 636C973.783 636.169 972.843 636.254 971.734 636.254ZM990.473 621.807V624.714H984.544V636H980.672V621.807H990.473ZM996.198 628.878C996.198 630.283 996.427 631.345 996.884 632.064C997.349 632.784 998.103 633.144 999.144 633.144C1000.18 633.144 1000.92 632.788 1001.37 632.077C1001.82 631.358 1002.05 630.291 1002.05 628.878C1002.05 627.473 1001.82 626.419 1001.37 625.717C1000.91 625.014 1000.16 624.663 999.118 624.663C998.086 624.663 997.341 625.014 996.884 625.717C996.427 626.411 996.198 627.465 996.198 628.878ZM1006.01 628.878C1006.01 631.188 1005.4 632.995 1004.18 634.299C1002.96 635.602 1001.27 636.254 999.093 636.254C997.73 636.254 996.528 635.958 995.487 635.365C994.446 634.764 993.646 633.905 993.088 632.788C992.529 631.671 992.25 630.368 992.25 628.878C992.25 626.559 992.855 624.756 994.065 623.47C995.276 622.183 996.977 621.54 999.169 621.54C1000.53 621.54 1001.73 621.836 1002.77 622.429C1003.82 623.021 1004.62 623.872 1005.17 624.98C1005.73 626.089 1006.01 627.388 1006.01 628.878ZM587.93 652.807V667H584.045V655.714H578.903V667H575.031V652.807H587.93ZM599.787 667.254C598.12 667.254 596.812 666.649 595.864 665.438H595.661C595.797 666.623 595.864 667.309 595.864 667.495V673.246H591.992V652.807H595.141L595.687 654.647H595.864C596.77 653.243 598.111 652.54 599.889 652.54C601.564 652.54 602.876 653.188 603.824 654.482C604.772 655.777 605.246 657.576 605.246 659.878C605.246 661.393 605.022 662.709 604.573 663.826C604.133 664.943 603.503 665.794 602.682 666.378C601.861 666.962 600.896 667.254 599.787 667.254ZM598.645 655.638C597.688 655.638 596.99 655.934 596.55 656.526C596.11 657.11 595.881 658.079 595.864 659.434V659.853C595.864 661.376 596.089 662.468 596.537 663.128C596.994 663.788 597.714 664.118 598.695 664.118C600.43 664.118 601.298 662.688 601.298 659.827C601.298 658.431 601.082 657.385 600.65 656.691C600.227 655.989 599.559 655.638 598.645 655.638ZM614.323 655.295C613.502 655.295 612.859 655.557 612.394 656.082C611.928 656.598 611.661 657.335 611.594 658.291H617.027C617.01 657.335 616.761 656.598 616.278 656.082C615.796 655.557 615.144 655.295 614.323 655.295ZM614.869 667.254C612.584 667.254 610.798 666.623 609.512 665.362C608.225 664.101 607.582 662.315 607.582 660.005C607.582 657.627 608.174 655.79 609.359 654.495C610.553 653.192 612.199 652.54 614.298 652.54C616.304 652.54 617.865 653.111 618.982 654.254C620.1 655.396 620.658 656.975 620.658 658.989V660.868H611.505C611.547 661.968 611.873 662.827 612.482 663.445C613.092 664.063 613.947 664.372 615.047 664.372C615.902 664.372 616.71 664.283 617.472 664.105C618.233 663.928 619.029 663.644 619.858 663.255V666.251C619.181 666.59 618.458 666.839 617.688 667C616.917 667.169 615.978 667.254 614.869 667.254ZM632.693 664.169V655.714H629.786C629.575 657.288 629.283 658.782 628.91 660.195C628.546 661.609 628.038 662.933 627.387 664.169H632.693ZM638.647 672.091H635.169V667H625.622V672.091H622.144V664.169H623.337C624.149 662.908 624.831 661.317 625.381 659.396C625.931 657.474 626.316 655.278 626.536 652.807H636.565V664.169H638.647V672.091ZM653.971 652.807V667H650.086V655.714H644.944V667H641.072V652.807H653.971ZM665.828 667.254C664.161 667.254 662.853 666.649 661.905 665.438H661.702C661.838 666.623 661.905 667.309 661.905 667.495V673.246H658.033V652.807H661.182L661.728 654.647H661.905C662.811 653.243 664.152 652.54 665.93 652.54C667.605 652.54 668.917 653.188 669.865 654.482C670.813 655.777 671.287 657.576 671.287 659.878C671.287 661.393 671.063 662.709 670.614 663.826C670.174 664.943 669.544 665.794 668.723 666.378C667.902 666.962 666.937 667.254 665.828 667.254ZM664.686 655.638C663.729 655.638 663.031 655.934 662.591 656.526C662.151 657.11 661.922 658.079 661.905 659.434V659.853C661.905 661.376 662.13 662.468 662.578 663.128C663.035 663.788 663.755 664.118 664.736 664.118C666.471 664.118 667.339 662.688 667.339 659.827C667.339 658.431 667.123 657.385 666.691 656.691C666.268 655.989 665.6 655.638 664.686 655.638ZM678.231 652.807V658.418C678.231 659.01 678.134 660.458 677.939 662.76L684.49 652.807H689.149V667H685.404V661.338C685.404 660.331 685.489 658.909 685.658 657.072L679.133 667H674.486V652.807H678.231ZM697.097 652.807V658.266H702.505V652.807H706.377V667H702.505V661.147H697.097V667H693.225V652.807H697.097ZM714.185 652.807V658.418C714.185 659.01 714.087 660.458 713.893 662.76L720.443 652.807H725.103V667H721.357V661.338C721.357 660.331 721.442 658.909 721.611 657.072L715.086 667H710.439V652.807H714.185ZM747.065 667H743.447V655.815L743.244 656.603C742.787 658.388 742.377 659.738 742.013 660.652L739.499 667H736.744L734.192 660.602C733.828 659.671 733.439 658.363 733.024 656.679L732.783 655.815V667H729.178V652.807H734.51L736.947 658.862C737.201 659.514 737.434 660.263 737.646 661.109C737.866 661.956 738.014 662.679 738.09 663.28C738.369 662.011 738.585 661.101 738.737 660.551C738.898 659.992 739.072 659.48 739.258 659.015C739.444 658.549 740.286 656.48 741.784 652.807H747.065V667ZM760.154 667L759.405 665.07H759.304C758.652 665.891 757.979 666.463 757.285 666.784C756.6 667.097 755.702 667.254 754.594 667.254C753.231 667.254 752.156 666.865 751.369 666.086C750.59 665.307 750.201 664.199 750.201 662.76C750.201 661.253 750.726 660.145 751.775 659.434C752.833 658.714 754.424 658.316 756.549 658.24L759.012 658.164V657.542C759.012 656.103 758.275 655.384 756.803 655.384C755.669 655.384 754.336 655.727 752.804 656.412L751.521 653.797C753.155 652.942 754.966 652.515 756.955 652.515C758.859 652.515 760.319 652.929 761.335 653.759C762.351 654.588 762.858 655.849 762.858 657.542V667H760.154ZM759.012 660.424L757.514 660.475C756.388 660.508 755.55 660.712 755 661.084C754.45 661.456 754.175 662.023 754.175 662.785C754.175 663.877 754.801 664.423 756.054 664.423C756.951 664.423 757.666 664.165 758.199 663.648C758.741 663.132 759.012 662.447 759.012 661.592V660.424ZM778.601 652.807V655.714H773.954V667H770.082V655.714H765.423V652.807H778.601ZM787.132 655.295C786.311 655.295 785.668 655.557 785.202 656.082C784.737 656.598 784.47 657.335 784.402 658.291H789.836C789.819 657.335 789.569 656.598 789.087 656.082C788.604 655.557 787.953 655.295 787.132 655.295ZM787.678 667.254C785.393 667.254 783.607 666.623 782.32 665.362C781.034 664.101 780.391 662.315 780.391 660.005C780.391 657.627 780.983 655.79 782.168 654.495C783.361 653.192 785.007 652.54 787.106 652.54C789.112 652.54 790.674 653.111 791.791 654.254C792.908 655.396 793.467 656.975 793.467 658.989V660.868H784.313C784.356 661.968 784.682 662.827 785.291 663.445C785.9 664.063 786.755 664.372 787.855 664.372C788.71 664.372 789.519 664.283 790.28 664.105C791.042 663.928 791.838 663.644 792.667 663.255V666.251C791.99 666.59 791.266 666.839 790.496 667C789.726 667.169 788.786 667.254 787.678 667.254ZM809.323 667H805.451V655.714H801.884C801.613 658.888 801.283 661.257 800.894 662.823C800.504 664.381 799.984 665.51 799.332 666.213C798.689 666.907 797.842 667.254 796.793 667.254C795.896 667.254 795.16 667.118 794.584 666.848V663.75C794.999 663.919 795.413 664.004 795.828 664.004C796.311 664.004 796.713 663.657 797.034 662.963C797.364 662.269 797.656 661.114 797.91 659.497C798.173 657.872 798.397 655.642 798.583 652.807H809.323V667ZM817.271 658.291H820C822.184 658.291 823.8 658.638 824.85 659.332C825.899 660.026 826.424 661.076 826.424 662.48C826.424 665.493 824.333 667 820.152 667H813.398V652.807H817.271V658.291ZM822.552 662.531C822.552 661.981 822.332 661.583 821.892 661.338C821.451 661.092 820.796 660.97 819.924 660.97H817.271V664.321H819.975C821.693 664.321 822.552 663.725 822.552 662.531ZM835.133 667.254C830.715 667.254 828.506 664.829 828.506 659.979C828.506 657.567 829.107 655.727 830.309 654.457C831.51 653.179 833.233 652.54 835.476 652.54C837.118 652.54 838.59 652.862 839.894 653.505L838.751 656.501C838.142 656.256 837.575 656.057 837.05 655.904C836.525 655.743 836 655.663 835.476 655.663C833.461 655.663 832.454 657.093 832.454 659.954C832.454 662.73 833.461 664.118 835.476 664.118C836.22 664.118 836.91 664.021 837.545 663.826C838.18 663.623 838.814 663.31 839.449 662.887V666.2C838.823 666.598 838.188 666.873 837.545 667.025C836.91 667.178 836.106 667.254 835.133 667.254ZM854.493 652.807V655.714H849.847V667H845.975V655.714H841.315V652.807H854.493ZM870.248 656.526C870.248 657.288 870.007 657.94 869.524 658.481C869.05 659.015 868.348 659.357 867.417 659.51V659.611C868.424 659.73 869.22 660.077 869.804 660.652C870.396 661.219 870.692 661.922 870.692 662.76C870.692 664.139 870.151 665.193 869.067 665.921C867.984 666.64 866.435 667 864.421 667H857.146V652.807H864.421C866.368 652.807 867.823 653.124 868.788 653.759C869.761 654.385 870.248 655.308 870.248 656.526ZM866.681 662.557C866.681 661.998 866.465 661.596 866.033 661.351C865.602 661.097 864.954 660.97 864.091 660.97H861.019V664.321H864.167C864.988 664.321 865.61 664.169 866.033 663.864C866.465 663.551 866.681 663.115 866.681 662.557ZM866.325 656.831C866.325 655.968 865.64 655.536 864.269 655.536H861.019V658.342H863.824C864.645 658.342 865.267 658.223 865.69 657.986C866.114 657.749 866.325 657.364 866.325 656.831ZM882.791 667L882.042 665.07H881.94C881.289 665.891 880.616 666.463 879.922 666.784C879.236 667.097 878.339 667.254 877.23 667.254C875.868 667.254 874.793 666.865 874.006 666.086C873.227 665.307 872.838 664.199 872.838 662.76C872.838 661.253 873.363 660.145 874.412 659.434C875.47 658.714 877.061 658.316 879.186 658.24L881.648 658.164V657.542C881.648 656.103 880.912 655.384 879.439 655.384C878.305 655.384 876.972 655.727 875.44 656.412L874.158 653.797C875.792 652.942 877.603 652.515 879.592 652.515C881.496 652.515 882.956 652.929 883.972 653.759C884.987 654.588 885.495 655.849 885.495 657.542V667H882.791ZM881.648 660.424L880.15 660.475C879.025 660.508 878.187 660.712 877.637 661.084C877.087 661.456 876.812 662.023 876.812 662.785C876.812 663.877 877.438 664.423 878.69 664.423C879.588 664.423 880.303 664.165 880.836 663.648C881.378 663.132 881.648 662.447 881.648 661.592V660.424Z" fill="white"/>
<path d="M589.223 558.406L591.728 542H578.7L573.256 556.062C573.089 556.562 573 557.081 573 557.625C573 561.075 576.642 563.875 581.142 563.875C585.29 563.875 588.719 561.487 589.223 558.406ZM601.5 563.875C605.997 563.875 609.641 561.075 609.641 557.625C609.641 557.497 609.632 557.369 609.626 557.247L608.014 542H594.986L593.371 557.234C593.365 557.363 593.358 557.491 593.358 557.625C593.358 561.075 597.003 563.875 601.5 563.875ZM617.333 567.144V579.5H585.667V567.162C584.28 567.656 582.753 567.938 581.142 567.938C580.524 567.938 579.925 567.866 579.333 567.784V587.625C579.333 590.031 581.325 592 583.76 592H619.233C621.672 592 623.667 590.028 623.667 587.625V567.787C623.068 567.878 622.464 567.929 621.859 567.941C620.314 567.939 618.783 567.669 617.333 567.144ZM629.747 556.062L624.297 542H611.272L613.774 558.381C614.262 561.475 617.691 563.875 621.859 563.875C626.355 563.875 630 561.075 630 557.625C630 557.081 629.911 556.562 629.747 556.062Z" fill="white"/>
<path d="M582.094 702.047L582.473 700.912L582.998 699.471L586.623 690.646H589.199V704H587.404V692.953L587.16 693.661L586.452 695.528L582.998 704H581.301L577.846 695.504C577.415 694.413 577.118 693.563 576.955 692.953V704H575.148V690.646H577.626L581.13 699.129C581.48 700.025 581.801 700.997 582.094 702.047ZM603.505 704H601.455V692.354H597.438C597.219 695.252 596.914 697.551 596.523 699.251C596.132 700.952 595.624 702.197 594.997 702.987C594.379 703.776 593.589 704.171 592.629 704.171C592.189 704.171 591.84 704.122 591.579 704.024V702.523C591.758 702.572 591.962 702.596 592.189 702.596C593.125 702.596 593.87 701.607 594.423 699.63C594.977 697.652 595.396 694.649 595.681 690.621H603.505V704ZM614.04 704.244C613.169 704.244 612.372 704.085 611.647 703.768C610.931 703.443 610.329 702.946 609.841 702.279H609.694C609.792 703.06 609.841 703.801 609.841 704.5V710.006H607.814V690.621H609.462L609.743 692.452H609.841C610.362 691.72 610.968 691.191 611.66 690.865C612.351 690.54 613.145 690.377 614.04 690.377C615.814 690.377 617.181 690.983 618.142 692.196C619.11 693.408 619.594 695.109 619.594 697.298C619.594 699.496 619.102 701.205 618.117 702.425C617.141 703.638 615.782 704.244 614.04 704.244ZM613.747 692.098C612.38 692.098 611.391 692.477 610.781 693.233C610.17 693.99 609.857 695.195 609.841 696.847V697.298C609.841 699.178 610.154 700.525 610.781 701.339C611.407 702.145 612.412 702.547 613.796 702.547C614.951 702.547 615.855 702.079 616.506 701.144C617.165 700.208 617.495 698.918 617.495 697.274C617.495 695.606 617.165 694.328 616.506 693.441C615.855 692.546 614.935 692.098 613.747 692.098ZM634.768 708.626H632.802V704H623.452V708.626H621.499V702.254H622.548C623.639 700.773 624.493 699.036 625.112 697.042C625.73 695.048 626.052 692.908 626.076 690.621H632.851V702.254H634.768V708.626ZM630.898 702.254V692.22H627.895C627.789 694.027 627.439 695.858 626.845 697.713C626.259 699.561 625.527 701.074 624.648 702.254H630.898ZM644.224 704V700.6H642.049V698.975H644.224V696.75H642.049V694.85H644.224V686.15H648.924C651.107 686.15 652.724 686.592 653.774 687.475C654.84 688.358 655.374 689.642 655.374 691.325C655.374 693.025 654.799 694.358 653.649 695.325C652.499 696.275 650.807 696.75 648.574 696.75H646.474V698.975H650.599V700.6H646.474V704H644.224ZM648.249 694.85C649.765 694.85 650.94 694.6 651.774 694.1C652.624 693.6 653.049 692.7 653.049 691.4C653.049 690.267 652.699 689.425 651.999 688.875C651.299 688.325 650.207 688.05 648.724 688.05H646.474V694.85H648.249Z" fill="white"/>
<path d="M1118 904L1133 929H1103L1118 904Z" fill="#01F859"/>
<path d="M1163.27 902.967C1165.7 902.967 1167.63 903.529 1169.05 904.654C1170.47 905.768 1171.18 907.262 1171.18 909.137C1171.18 911.773 1169.59 913.871 1166.43 915.43C1168.45 916.438 1169.88 917.498 1170.72 918.611C1171.57 919.725 1172 920.967 1172 922.338C1172 924.459 1171.22 926.158 1169.66 927.436C1168.11 928.713 1166 929.352 1163.34 929.352C1160.55 929.352 1158.38 928.754 1156.85 927.559C1155.31 926.363 1154.55 924.67 1154.55 922.479C1154.55 921.049 1154.95 919.766 1155.74 918.629C1156.55 917.48 1157.87 916.461 1159.7 915.57C1158.13 914.633 1157.01 913.643 1156.34 912.6C1155.67 911.557 1155.34 910.385 1155.34 909.084C1155.34 907.221 1156.07 905.738 1157.54 904.637C1159 903.523 1160.91 902.967 1163.27 902.967ZM1158.5 922.338C1158.5 923.557 1158.93 924.506 1159.79 925.186C1160.64 925.854 1161.8 926.188 1163.27 926.188C1164.78 926.188 1165.95 925.842 1166.78 925.15C1167.62 924.447 1168.05 923.498 1168.05 922.303C1168.05 921.354 1167.66 920.486 1166.89 919.701C1166.11 918.916 1164.94 918.189 1163.37 917.521L1162.86 917.293C1161.31 917.973 1160.2 918.723 1159.52 919.543C1158.84 920.352 1158.5 921.283 1158.5 922.338ZM1163.23 906.148C1162.06 906.148 1161.12 906.441 1160.4 907.027C1159.69 907.602 1159.33 908.387 1159.33 909.383C1159.33 909.992 1159.46 910.537 1159.71 911.018C1159.97 911.498 1160.35 911.938 1160.84 912.336C1161.33 912.723 1162.16 913.191 1163.34 913.742C1164.74 913.121 1165.73 912.471 1166.31 911.791C1166.89 911.1 1167.19 910.297 1167.19 909.383C1167.19 908.387 1166.82 907.602 1166.1 907.027C1165.38 906.441 1164.43 906.148 1163.23 906.148ZM1192.57 929H1175.15V925.871L1181.78 919.209C1183.73 917.205 1185.03 915.787 1185.66 914.955C1186.3 914.111 1186.77 913.32 1187.07 912.582C1187.36 911.844 1187.51 911.053 1187.51 910.209C1187.51 909.049 1187.15 908.135 1186.45 907.467C1185.76 906.799 1184.8 906.465 1183.57 906.465C1182.58 906.465 1181.63 906.646 1180.7 907.01C1179.79 907.373 1178.73 908.029 1177.52 908.979L1175.29 906.254C1176.72 905.047 1178.11 904.191 1179.46 903.688C1180.8 903.184 1182.24 902.932 1183.76 902.932C1186.15 902.932 1188.07 903.559 1189.51 904.812C1190.95 906.055 1191.67 907.73 1191.67 909.84C1191.67 911 1191.46 912.102 1191.04 913.145C1190.63 914.188 1189.99 915.266 1189.12 916.379C1188.27 917.48 1186.84 918.975 1184.83 920.861L1180.37 925.186V925.361H1192.57V929ZM1201.38 925.221C1200.81 927.4 1199.78 930.207 1198.28 933.641H1195.24C1196.05 930.477 1196.65 927.535 1197.05 924.816H1201.11L1201.38 925.221ZM1217.48 929H1213.35V912.406C1213.35 910.426 1213.39 908.855 1213.49 907.695C1213.22 907.977 1212.88 908.287 1212.48 908.627C1212.1 908.967 1210.79 910.045 1208.55 911.861L1206.47 909.242L1214.03 903.301H1217.48V929ZM1244.25 923.393H1240.79V929H1236.76V923.393H1225.02V920.211L1236.76 903.23H1240.79V919.965H1244.25V923.393ZM1236.76 919.965V913.514C1236.76 911.217 1236.82 909.336 1236.94 907.871H1236.79C1236.47 908.645 1235.95 909.582 1235.25 910.684L1228.87 919.965H1236.76ZM1249.8 911C1249.8 912.746 1249.97 914.047 1250.31 914.902C1250.65 915.758 1251.21 916.186 1251.98 916.186C1253.53 916.186 1254.3 914.457 1254.3 911C1254.3 907.543 1253.53 905.814 1251.98 905.814C1251.21 905.814 1250.65 906.242 1250.31 907.098C1249.97 907.953 1249.8 909.254 1249.8 911ZM1257.71 910.965C1257.71 913.66 1257.23 915.688 1256.25 917.047C1255.29 918.395 1253.87 919.068 1251.98 919.068C1250.2 919.068 1248.82 918.371 1247.83 916.977C1246.86 915.57 1246.38 913.566 1246.38 910.965C1246.38 905.609 1248.24 902.932 1251.98 902.932C1253.82 902.932 1255.23 903.629 1256.22 905.023C1257.21 906.406 1257.71 908.387 1257.71 910.965ZM1266.54 921.266C1266.54 923.012 1266.71 924.318 1267.05 925.186C1267.4 926.053 1267.96 926.486 1268.73 926.486C1270.27 926.486 1271.04 924.746 1271.04 921.266C1271.04 917.832 1270.27 916.115 1268.73 916.115C1267.96 916.115 1267.4 916.537 1267.05 917.381C1266.71 918.225 1266.54 919.52 1266.54 921.266ZM1274.45 921.266C1274.45 923.961 1273.96 925.982 1272.99 927.33C1272.02 928.678 1270.6 929.352 1268.73 929.352C1266.95 929.352 1265.57 928.66 1264.59 927.277C1263.6 925.883 1263.11 923.879 1263.11 921.266C1263.11 915.91 1264.98 913.232 1268.73 913.232C1270.54 913.232 1271.94 913.924 1272.94 915.307C1273.94 916.689 1274.45 918.676 1274.45 921.266ZM1269.23 903.301L1254.97 929H1251.56L1265.82 903.301H1269.23Z" fill="white"/>
<path d="M1178.47 851H1108.61V836.303L1133.69 810.941C1141.12 803.331 1145.98 798.067 1148.25 795.15C1150.53 792.188 1152.17 789.454 1153.18 786.947C1154.18 784.441 1154.68 781.843 1154.68 779.154C1154.68 775.144 1153.56 772.159 1151.33 770.199C1149.14 768.24 1146.2 767.26 1142.51 767.26C1138.64 767.26 1134.88 768.148 1131.23 769.926C1127.59 771.703 1123.78 774.232 1119.82 777.514L1108.33 763.91C1113.25 759.717 1117.33 756.755 1120.57 755.023C1123.8 753.292 1127.34 751.97 1131.16 751.059C1134.99 750.102 1139.28 749.623 1144.02 749.623C1150.26 749.623 1155.77 750.762 1160.56 753.041C1165.34 755.32 1169.06 758.51 1171.7 762.611C1174.34 766.713 1175.67 771.407 1175.67 776.693C1175.67 781.296 1174.85 785.626 1173.21 789.682C1171.61 793.692 1169.1 797.816 1165.69 802.055C1162.31 806.293 1156.34 812.331 1147.78 820.17L1134.92 832.27V833.227H1178.47V851ZM1214.36 836.303C1211.99 845.508 1207.98 856.423 1202.33 869.047H1187.29C1190.25 856.924 1192.55 845.486 1194.19 834.73H1213.33L1214.36 836.303ZM1295.16 773.412C1295.16 779.656 1293.27 784.965 1289.48 789.34C1285.7 793.715 1280.39 796.723 1273.56 798.363V798.773C1281.62 799.776 1287.73 802.237 1291.88 806.156C1296.02 810.03 1298.1 815.271 1298.1 821.879C1298.1 831.495 1294.61 838.992 1287.64 844.369C1280.67 849.701 1270.71 852.367 1257.77 852.367C1246.92 852.367 1237.3 850.567 1228.92 846.967V828.988C1232.79 830.948 1237.05 832.543 1241.7 833.773C1246.35 835.004 1250.95 835.619 1255.51 835.619C1262.48 835.619 1267.63 834.434 1270.96 832.064C1274.29 829.695 1275.95 825.889 1275.95 820.648C1275.95 815.954 1274.04 812.628 1270.21 810.668C1266.38 808.708 1260.27 807.729 1251.89 807.729H1244.3V791.527H1252.02C1259.77 791.527 1265.42 790.525 1268.98 788.52C1272.58 786.469 1274.38 782.982 1274.38 778.061C1274.38 770.495 1269.64 766.713 1260.16 766.713C1256.88 766.713 1253.53 767.26 1250.11 768.354C1246.74 769.447 1242.98 771.339 1238.83 774.027L1229.05 759.467C1238.17 752.904 1249.04 749.623 1261.66 749.623C1272.01 749.623 1280.16 751.719 1286.13 755.912C1292.15 760.105 1295.16 765.938 1295.16 773.412ZM1343.62 749.76C1353.2 749.76 1360.9 751.947 1366.73 756.322C1372.61 760.652 1375.55 766.508 1375.55 773.891C1375.55 778.995 1374.14 783.552 1371.31 787.562C1368.49 791.527 1363.93 795.082 1357.64 798.227C1365.11 802.237 1370.47 806.43 1373.7 810.805C1376.98 815.134 1378.62 819.896 1378.62 825.092C1378.62 833.295 1375.41 839.903 1368.99 844.916C1362.56 849.883 1354.11 852.367 1343.62 852.367C1332.69 852.367 1324.1 850.043 1317.85 845.395C1311.61 840.746 1308.49 834.161 1308.49 825.639C1308.49 819.942 1309.99 814.883 1313 810.463C1316.05 806.042 1320.93 802.146 1327.63 798.773C1321.93 795.173 1317.83 791.322 1315.32 787.221C1312.82 783.119 1311.56 778.63 1311.56 773.754C1311.56 766.599 1314.53 760.811 1320.45 756.391C1326.38 751.97 1334.1 749.76 1343.62 749.76ZM1328.04 824.408C1328.04 828.327 1329.41 831.381 1332.14 833.568C1334.88 835.756 1338.61 836.85 1343.35 836.85C1348.59 836.85 1352.51 835.733 1355.11 833.5C1357.71 831.221 1359.01 828.236 1359.01 824.545C1359.01 821.492 1357.71 818.643 1355.11 816C1352.56 813.311 1348.39 810.463 1342.6 807.455C1332.89 811.921 1328.04 817.572 1328.04 824.408ZM1343.49 765.209C1339.89 765.209 1336.97 766.143 1334.74 768.012C1332.55 769.835 1331.46 772.296 1331.46 775.395C1331.46 778.129 1332.32 780.59 1334.05 782.777C1335.83 784.919 1339.02 787.13 1343.62 789.408C1348.09 787.312 1351.21 785.17 1352.99 782.982C1354.77 780.795 1355.66 778.266 1355.66 775.395C1355.66 772.25 1354.52 769.766 1352.24 767.943C1349.96 766.12 1347.04 765.209 1343.49 765.209Z" fill="#01F859"/>
<path d="M1109.27 624.562H1110.82C1113.24 624.562 1115.11 625.052 1116.43 626.034C1117.75 627.016 1118.41 628.404 1118.41 630.198C1118.41 634.066 1115.86 636 1110.74 636H1105.34V617.439H1117.07V620.689H1109.27V624.562ZM1109.27 632.775H1110.59C1111.92 632.775 1112.89 632.564 1113.51 632.141C1114.13 631.709 1114.44 631.062 1114.44 630.198C1114.44 629.343 1114.13 628.73 1113.5 628.357C1112.87 627.977 1111.8 627.786 1110.27 627.786H1109.27V632.775ZM1141.24 628.878C1141.24 631.205 1140.65 633.017 1139.47 634.312C1138.3 635.606 1136.67 636.254 1134.59 636.254C1132.72 636.254 1131.22 635.729 1130.09 634.68C1128.97 633.63 1128.3 632.119 1128.06 630.147H1125.51V636H1121.64V621.807H1125.51V627.266H1128.11C1128.36 625.454 1129.06 624.049 1130.21 623.051C1131.37 622.044 1132.85 621.54 1134.66 621.54C1136.67 621.54 1138.26 622.2 1139.45 623.521C1140.64 624.832 1141.24 626.618 1141.24 628.878ZM1131.96 628.878C1131.96 630.291 1132.17 631.358 1132.58 632.077C1132.99 632.788 1133.68 633.144 1134.64 633.144C1135.58 633.144 1136.25 632.788 1136.67 632.077C1137.08 631.358 1137.29 630.291 1137.29 628.878C1137.29 627.465 1137.08 626.411 1136.66 625.717C1136.24 625.014 1135.56 624.663 1134.61 624.663C1133.67 624.663 1132.99 625.014 1132.58 625.717C1132.17 626.419 1131.96 627.473 1131.96 628.878ZM1153.32 633.169V624.714H1150.42C1150.21 626.288 1149.91 627.782 1149.54 629.195C1149.18 630.609 1148.67 631.933 1148.02 633.169H1153.32ZM1159.28 641.091H1155.8V636H1146.25V641.091H1142.77V633.169H1143.97C1144.78 631.908 1145.46 630.317 1146.01 628.396C1146.56 626.474 1146.95 624.278 1147.17 621.807H1157.2V633.169H1159.28V641.091ZM1169.22 628.7V621.807H1172.82V628.7L1177.88 621.807H1181.88L1176.65 628.611L1182.37 636H1178.23L1172.82 628.802V636H1169.22V628.802L1163.81 636H1159.67L1165.4 628.611L1160.17 621.807H1164.17L1169.22 628.7ZM1190.28 624.295C1189.46 624.295 1188.82 624.557 1188.35 625.082C1187.89 625.598 1187.62 626.335 1187.55 627.291H1192.98C1192.97 626.335 1192.72 625.598 1192.24 625.082C1191.75 624.557 1191.1 624.295 1190.28 624.295ZM1190.83 636.254C1188.54 636.254 1186.76 635.623 1185.47 634.362C1184.18 633.101 1183.54 631.315 1183.54 629.005C1183.54 626.627 1184.13 624.79 1185.32 623.495C1186.51 622.192 1188.16 621.54 1190.25 621.54C1192.26 621.54 1193.82 622.111 1194.94 623.254C1196.06 624.396 1196.62 625.975 1196.62 627.989V629.868H1187.46C1187.5 630.968 1187.83 631.827 1188.44 632.445C1189.05 633.063 1189.9 633.372 1191 633.372C1191.86 633.372 1192.67 633.283 1193.43 633.105C1194.19 632.928 1194.99 632.644 1195.82 632.255V635.251C1195.14 635.59 1194.41 635.839 1193.64 636C1192.87 636.169 1191.93 636.254 1190.83 636.254ZM1211.51 621.807V624.714H1206.86V636H1202.99V624.714H1198.33V621.807H1211.51ZM1218.03 621.807V627.266H1223.44V621.807H1227.31V636H1223.44V630.147H1218.03V636H1214.16V621.807H1218.03ZM1235.25 627.291H1237.11C1239.28 627.291 1240.88 627.638 1241.92 628.332C1242.97 629.026 1243.49 630.076 1243.49 631.48C1243.49 632.979 1242.97 634.108 1241.92 634.87C1240.88 635.623 1239.33 636 1237.25 636H1231.38V621.807H1235.25V627.291ZM1239.61 631.531C1239.61 630.981 1239.39 630.583 1238.95 630.338C1238.51 630.092 1237.86 629.97 1236.99 629.97H1235.25V633.321H1237.04C1238.76 633.321 1239.61 632.725 1239.61 631.531ZM1249.42 636H1245.54V621.807H1249.42V636ZM1259.37 624.295C1258.55 624.295 1257.9 624.557 1257.44 625.082C1256.97 625.598 1256.71 626.335 1256.64 627.291H1262.07C1262.06 626.335 1261.81 625.598 1261.32 625.082C1260.84 624.557 1260.19 624.295 1259.37 624.295ZM1259.91 636.254C1257.63 636.254 1255.84 635.623 1254.56 634.362C1253.27 633.101 1252.63 631.315 1252.63 629.005C1252.63 626.627 1253.22 624.79 1254.4 623.495C1255.6 622.192 1257.24 621.54 1259.34 621.54C1261.35 621.54 1262.91 622.111 1264.03 623.254C1265.14 624.396 1265.7 625.975 1265.7 627.989V629.868H1256.55C1256.59 630.968 1256.92 631.827 1257.53 632.445C1258.14 633.063 1258.99 633.372 1260.09 633.372C1260.95 633.372 1261.75 633.283 1262.52 633.105C1263.28 632.928 1264.07 632.644 1264.9 632.255V635.251C1264.23 635.59 1263.5 635.839 1262.73 636C1261.96 636.169 1261.02 636.254 1259.91 636.254ZM1108.78 652.807V658.418C1108.78 659.01 1108.68 660.458 1108.48 662.76L1115.04 652.807H1119.69V667H1115.95V661.338C1115.95 660.331 1116.03 658.909 1116.2 657.072L1109.68 667H1105.03V652.807H1108.78ZM1127.64 652.807V658.266H1133.05V652.807H1136.92V667H1133.05V661.147H1127.64V667H1123.77V652.807H1127.64ZM1154.09 656.526C1154.09 657.288 1153.84 657.94 1153.36 658.481C1152.89 659.015 1152.19 659.357 1151.25 659.51V659.611C1152.26 659.73 1153.06 660.077 1153.64 660.652C1154.23 661.219 1154.53 661.922 1154.53 662.76C1154.53 664.139 1153.99 665.193 1152.91 665.921C1151.82 666.64 1150.27 667 1148.26 667H1140.98V652.807H1148.26C1150.21 652.807 1151.66 653.124 1152.63 653.759C1153.6 654.385 1154.09 655.308 1154.09 656.526ZM1150.52 662.557C1150.52 661.998 1150.3 661.596 1149.87 661.351C1149.44 661.097 1148.79 660.97 1147.93 660.97H1144.86V664.321H1148C1148.83 664.321 1149.45 664.169 1149.87 663.864C1150.3 663.551 1150.52 663.115 1150.52 662.557ZM1150.16 656.831C1150.16 655.968 1149.48 655.536 1148.11 655.536H1144.86V658.342H1147.66C1148.48 658.342 1149.11 658.223 1149.53 657.986C1149.95 657.749 1150.16 657.364 1150.16 656.831ZM1163.49 655.295C1162.67 655.295 1162.03 655.557 1161.56 656.082C1161.1 656.598 1160.83 657.335 1160.76 658.291H1166.2C1166.18 657.335 1165.93 656.598 1165.45 656.082C1164.97 655.557 1164.31 655.295 1163.49 655.295ZM1164.04 667.254C1161.75 667.254 1159.97 666.623 1158.68 665.362C1157.4 664.101 1156.75 662.315 1156.75 660.005C1156.75 657.627 1157.34 655.79 1158.53 654.495C1159.72 653.192 1161.37 652.54 1163.47 652.54C1165.47 652.54 1167.04 653.111 1168.15 654.254C1169.27 655.396 1169.83 656.975 1169.83 658.989V660.868H1160.67C1160.72 661.968 1161.04 662.827 1161.65 663.445C1162.26 664.063 1163.12 664.372 1164.22 664.372C1165.07 664.372 1165.88 664.283 1166.64 664.105C1167.4 663.928 1168.2 663.644 1169.03 663.255V666.251C1168.35 666.59 1167.63 666.839 1166.86 667C1166.09 667.169 1165.15 667.254 1164.04 667.254ZM1178.74 667.254C1174.32 667.254 1172.11 664.829 1172.11 659.979C1172.11 657.567 1172.71 655.727 1173.92 654.457C1175.12 653.179 1176.84 652.54 1179.08 652.54C1180.72 652.54 1182.2 652.862 1183.5 653.505L1182.36 656.501C1181.75 656.256 1181.18 656.057 1180.66 655.904C1180.13 655.743 1179.61 655.663 1179.08 655.663C1177.07 655.663 1176.06 657.093 1176.06 659.954C1176.06 662.73 1177.07 664.118 1179.08 664.118C1179.83 664.118 1180.52 664.021 1181.15 663.826C1181.79 663.623 1182.42 663.31 1183.06 662.887V666.2C1182.43 666.598 1181.8 666.873 1181.15 667.025C1180.52 667.178 1179.71 667.254 1178.74 667.254ZM1198.1 652.807V655.714H1193.45V667H1189.58V655.714H1184.92V652.807H1198.1ZM1204.5 652.807V658.418C1204.5 659.01 1204.4 660.458 1204.21 662.76L1210.76 652.807H1215.42V667H1211.67V661.338C1211.67 660.331 1211.76 658.909 1211.93 657.072L1205.4 667H1200.75V652.807H1204.5ZM1232.91 664.169H1234.98V672.091H1231.5V667H1219.49V652.807H1223.36V664.093H1229.03V652.807H1232.91V664.169ZM1241.14 652.807V658.418C1241.14 659.01 1241.04 660.458 1240.85 662.76L1247.4 652.807H1252.06V667H1248.31V661.338C1248.31 660.331 1248.4 658.909 1248.56 657.072L1242.04 667H1237.39V652.807H1241.14ZM1259.88 652.807V658.418C1259.88 659.01 1259.78 660.458 1259.58 662.76L1266.13 652.807H1270.79V667H1267.05V661.338C1267.05 660.331 1267.13 658.909 1267.3 657.072L1260.78 667H1256.13V652.807H1259.88ZM1278.61 652.807V658.418C1278.61 659.01 1278.52 660.458 1278.32 662.76L1284.87 652.807H1289.53V667H1285.79V661.338C1285.79 660.331 1285.87 658.909 1286.04 657.072L1279.52 667H1274.87V652.807H1278.61Z" fill="white"/>
<path d="M1123.47 542.816C1124.21 542.285 1125.09 542 1126 542C1126.91 542 1127.79 542.285 1128.53 542.816L1147.73 556.6C1150.11 558.312 1148.92 562.117 1146 562.123H1106.01C1103.08 562.123 1101.88 558.316 1104.28 556.6L1123.47 542.816ZM1126 555.069C1126.73 555.069 1127.42 554.778 1127.94 554.259C1128.45 553.74 1128.74 553.036 1128.74 552.302C1128.74 551.568 1128.45 550.865 1127.94 550.346C1127.42 549.827 1126.73 549.535 1126 549.535C1125.28 549.535 1124.58 549.827 1124.07 550.346C1123.56 550.865 1123.27 551.568 1123.27 552.302C1123.27 553.036 1123.56 553.74 1124.07 554.259C1124.58 554.778 1125.28 555.069 1126 555.069Z" fill="white"/>
<path d="M1107.96 565.443V578.722H1114.52V565.443H1107.96Z" fill="white"/>
<path d="M1103.04 589.235C1103.04 585.261 1106.22 582.041 1110.14 582.041H1141.86C1145.78 582.041 1148.97 585.261 1148.97 589.235V590.34C1148.97 590.78 1148.79 591.203 1148.49 591.514C1148.18 591.825 1147.76 592 1147.33 592H1104.68C1104.24 592 1103.83 591.825 1103.52 591.514C1103.21 591.203 1103.04 590.78 1103.04 590.34V589.235Z" fill="white"/>
<path d="M1144.04 565.443V578.722H1137.48V565.443H1144.04Z" fill="white"/>
<path d="M1134.2 565.443V578.722H1127.64V565.443H1134.2Z" fill="white"/>
<path d="M1124.36 565.443V578.722H1117.8V565.443H1124.36Z" fill="white"/>
<path d="M1112.09 702.047L1112.47 700.912L1113 699.471L1116.62 690.646H1119.2V704H1117.4V692.953L1117.16 693.661L1116.45 695.528L1113 704H1111.3L1107.85 695.504C1107.41 694.413 1107.12 693.563 1106.96 692.953V704H1105.15V690.646H1107.63L1111.13 699.129C1111.48 700.025 1111.8 700.997 1112.09 702.047ZM1133.51 704H1131.45V692.354H1127.44C1127.22 695.252 1126.91 697.551 1126.52 699.251C1126.13 700.952 1125.62 702.197 1125 702.987C1124.38 703.776 1123.59 704.171 1122.63 704.171C1122.19 704.171 1121.84 704.122 1121.58 704.024V702.523C1121.76 702.572 1121.96 702.596 1122.19 702.596C1123.13 702.596 1123.87 701.607 1124.42 699.63C1124.98 697.652 1125.4 694.649 1125.68 690.621H1133.51V704ZM1144.04 704.244C1143.17 704.244 1142.37 704.085 1141.65 703.768C1140.93 703.443 1140.33 702.946 1139.84 702.279H1139.69C1139.79 703.06 1139.84 703.801 1139.84 704.5V710.006H1137.81V690.621H1139.46L1139.74 692.452H1139.84C1140.36 691.72 1140.97 691.191 1141.66 690.865C1142.35 690.54 1143.14 690.377 1144.04 690.377C1145.81 690.377 1147.18 690.983 1148.14 692.196C1149.11 693.408 1149.59 695.109 1149.59 697.298C1149.59 699.496 1149.1 701.205 1148.12 702.425C1147.14 703.638 1145.78 704.244 1144.04 704.244ZM1143.75 692.098C1142.38 692.098 1141.39 692.477 1140.78 693.233C1140.17 693.99 1139.86 695.195 1139.84 696.847V697.298C1139.84 699.178 1140.15 700.525 1140.78 701.339C1141.41 702.145 1142.41 702.547 1143.8 702.547C1144.95 702.547 1145.85 702.079 1146.51 701.144C1147.17 700.208 1147.49 698.918 1147.49 697.274C1147.49 695.606 1147.17 694.328 1146.51 693.441C1145.85 692.546 1144.94 692.098 1143.75 692.098ZM1164.77 708.626H1162.8V704H1153.45V708.626H1151.5V702.254H1152.55C1153.64 700.773 1154.49 699.036 1155.11 697.042C1155.73 695.048 1156.05 692.908 1156.08 690.621H1162.85V702.254H1164.77V708.626ZM1160.9 702.254V692.22H1157.9C1157.79 694.027 1157.44 695.858 1156.85 697.713C1156.26 699.561 1155.53 701.074 1154.65 702.254H1160.9ZM1174.22 704V700.6H1172.05V698.975H1174.22V696.75H1172.05V694.85H1174.22V686.15H1178.92C1181.11 686.15 1182.72 686.592 1183.77 687.475C1184.84 688.358 1185.37 689.642 1185.37 691.325C1185.37 693.025 1184.8 694.358 1183.65 695.325C1182.5 696.275 1180.81 696.75 1178.57 696.75H1176.47V698.975H1180.6V700.6H1176.47V704H1174.22ZM1178.25 694.85C1179.77 694.85 1180.94 694.6 1181.77 694.1C1182.62 693.6 1183.05 692.7 1183.05 691.4C1183.05 690.267 1182.7 689.425 1182 688.875C1181.3 688.325 1180.21 688.05 1178.72 688.05H1176.47V694.85H1178.25Z" fill="white"/>
<path d="M58 906L73 931H43L58 906Z" fill="#01F859"/>
<path d="M103.266 904.967C105.703 904.967 107.631 905.529 109.049 906.654C110.467 907.768 111.176 909.262 111.176 911.137C111.176 913.773 109.594 915.871 106.43 917.43C108.445 918.438 109.875 919.498 110.719 920.611C111.574 921.725 112.002 922.967 112.002 924.338C112.002 926.459 111.223 928.158 109.664 929.436C108.105 930.713 105.996 931.352 103.336 931.352C100.547 931.352 98.3848 930.754 96.8496 929.559C95.3145 928.363 94.5469 926.67 94.5469 924.479C94.5469 923.049 94.9453 921.766 95.7422 920.629C96.5508 919.48 97.8691 918.461 99.6973 917.57C98.127 916.633 97.0078 915.643 96.3398 914.6C95.6719 913.557 95.3379 912.385 95.3379 911.084C95.3379 909.221 96.0703 907.738 97.5352 906.637C99 905.523 100.91 904.967 103.266 904.967ZM98.502 924.338C98.502 925.557 98.9297 926.506 99.7852 927.186C100.641 927.854 101.801 928.188 103.266 928.188C104.777 928.188 105.949 927.842 106.781 927.15C107.625 926.447 108.047 925.498 108.047 924.303C108.047 923.354 107.66 922.486 106.887 921.701C106.113 920.916 104.941 920.189 103.371 919.521L102.861 919.293C101.314 919.973 100.201 920.723 99.5215 921.543C98.8418 922.352 98.502 923.283 98.502 924.338ZM103.23 908.148C102.059 908.148 101.115 908.441 100.4 909.027C99.6855 909.602 99.3281 910.387 99.3281 911.383C99.3281 911.992 99.457 912.537 99.7148 913.018C99.9727 913.498 100.348 913.938 100.84 914.336C101.332 914.723 102.164 915.191 103.336 915.742C104.742 915.121 105.732 914.471 106.307 913.791C106.893 913.1 107.186 912.297 107.186 911.383C107.186 910.387 106.822 909.602 106.096 909.027C105.381 908.441 104.426 908.148 103.23 908.148ZM127.277 931H123.146V914.406C123.146 912.426 123.193 910.855 123.287 909.695C123.018 909.977 122.684 910.287 122.285 910.627C121.898 910.967 120.586 912.045 118.348 913.861L116.273 911.242L123.832 905.301H127.277V931ZM141.375 927.221C140.812 929.4 139.781 932.207 138.281 935.641H135.24C136.049 932.477 136.652 929.535 137.051 926.816H141.111L141.375 927.221ZM162.732 916.27C162.732 921.332 161.713 925.111 159.674 927.607C157.635 930.104 154.564 931.352 150.463 931.352C148.904 931.352 147.785 931.258 147.105 931.07V927.607C148.148 927.9 149.197 928.047 150.252 928.047C153.041 928.047 155.121 927.297 156.492 925.797C157.863 924.297 158.613 921.941 158.742 918.73H158.531C157.84 919.785 157.002 920.547 156.018 921.016C155.045 921.484 153.902 921.719 152.59 921.719C150.316 921.719 148.529 921.01 147.229 919.592C145.928 918.174 145.277 916.229 145.277 913.756C145.277 911.072 146.027 908.939 147.527 907.357C149.039 905.764 151.096 904.967 153.697 904.967C155.525 904.967 157.119 905.412 158.479 906.303C159.838 907.193 160.887 908.488 161.625 910.188C162.363 911.875 162.732 913.902 162.732 916.27ZM153.768 908.395C152.338 908.395 151.242 908.863 150.48 909.801C149.719 910.727 149.338 912.033 149.338 913.721C149.338 915.186 149.689 916.34 150.393 917.184C151.107 918.016 152.186 918.432 153.627 918.432C155.021 918.432 156.193 918.016 157.143 917.184C158.092 916.352 158.566 915.379 158.566 914.266C158.566 913.223 158.361 912.25 157.951 911.348C157.553 910.434 156.99 909.713 156.264 909.186C155.537 908.658 154.705 908.395 153.768 908.395ZM169.236 913C169.236 914.746 169.406 916.047 169.746 916.902C170.086 917.758 170.643 918.186 171.416 918.186C172.963 918.186 173.736 916.457 173.736 913C173.736 909.543 172.963 907.814 171.416 907.814C170.643 907.814 170.086 908.242 169.746 909.098C169.406 909.953 169.236 911.254 169.236 913ZM177.146 912.965C177.146 915.66 176.66 917.688 175.688 919.047C174.727 920.395 173.303 921.068 171.416 921.068C169.635 921.068 168.252 920.371 167.268 918.977C166.295 917.57 165.809 915.566 165.809 912.965C165.809 907.609 167.678 904.932 171.416 904.932C173.256 904.932 174.668 905.629 175.652 907.023C176.648 908.406 177.146 910.387 177.146 912.965ZM185.971 923.266C185.971 925.012 186.141 926.318 186.48 927.186C186.832 928.053 187.395 928.486 188.168 928.486C189.703 928.486 190.471 926.746 190.471 923.266C190.471 919.832 189.703 918.115 188.168 918.115C187.395 918.115 186.832 918.537 186.48 919.381C186.141 920.225 185.971 921.52 185.971 923.266ZM193.881 923.266C193.881 925.961 193.395 927.982 192.422 929.33C191.449 930.678 190.031 931.352 188.168 931.352C186.387 931.352 185.004 930.66 184.02 929.277C183.035 927.883 182.543 925.879 182.543 923.266C182.543 917.91 184.418 915.232 188.168 915.232C189.973 915.232 191.373 915.924 192.369 917.307C193.377 918.689 193.881 920.676 193.881 923.266ZM188.66 905.301L174.404 931H170.994L185.25 905.301H188.66Z" fill="white"/>
<path d="M118.469 853H48.6055V838.303L73.6934 812.941C81.1217 805.331 85.9753 800.067 88.2539 797.15C90.5326 794.188 92.1732 791.454 93.1758 788.947C94.1784 786.441 94.6797 783.843 94.6797 781.154C94.6797 777.144 93.5632 774.159 91.3301 772.199C89.1426 770.24 86.2031 769.26 82.5117 769.26C78.638 769.26 74.8783 770.148 71.2324 771.926C67.5866 773.703 63.7812 776.232 59.8164 779.514L48.332 765.91C53.2539 761.717 57.3327 758.755 60.5684 757.023C63.804 755.292 67.3359 753.97 71.1641 753.059C74.9922 752.102 79.276 751.623 84.0156 751.623C90.2591 751.623 95.7734 752.762 100.559 755.041C105.344 757.32 109.058 760.51 111.701 764.611C114.344 768.713 115.666 773.407 115.666 778.693C115.666 783.296 114.846 787.626 113.205 791.682C111.61 795.692 109.104 799.816 105.686 804.055C102.313 808.293 96.3431 814.331 87.7754 822.17L74.9238 834.27V835.227H118.469V853ZM164.953 789.152C174.615 789.152 182.294 791.864 187.99 797.287C193.732 802.71 196.604 810.139 196.604 819.572C196.604 830.738 193.163 839.328 186.281 845.344C179.4 851.359 169.556 854.367 156.75 854.367C145.63 854.367 136.652 852.567 129.816 848.967V830.715C133.417 832.629 137.609 834.201 142.395 835.432C147.18 836.617 151.714 837.209 155.998 837.209C168.895 837.209 175.344 831.923 175.344 821.35C175.344 811.278 168.667 806.242 155.314 806.242C152.899 806.242 150.233 806.493 147.316 806.994C144.4 807.45 142.03 807.951 140.207 808.498L131.799 803.986L135.559 753.059H189.768V770.969H154.084L152.238 790.588L154.631 790.109C157.411 789.471 160.852 789.152 164.953 789.152ZM234.338 838.303C231.968 847.508 227.958 858.423 222.307 871.047H207.268C210.23 858.924 212.531 847.486 214.172 836.73H233.312L234.338 838.303ZM248.488 810.549C248.488 790.77 252.658 776.05 260.998 766.389C269.383 756.727 281.916 751.896 298.596 751.896C304.292 751.896 308.758 752.238 311.994 752.922V769.807C307.938 768.895 303.928 768.439 299.963 768.439C292.717 768.439 286.792 769.533 282.189 771.721C277.632 773.908 274.214 777.144 271.936 781.428C269.657 785.712 268.312 791.796 267.902 799.68H268.791C273.303 791.932 280.526 788.059 290.461 788.059C299.393 788.059 306.389 790.861 311.447 796.467C316.506 802.072 319.035 809.82 319.035 819.709C319.035 830.373 316.027 838.827 310.012 845.07C303.996 851.268 295.656 854.367 284.992 854.367C277.609 854.367 271.161 852.658 265.646 849.24C260.178 845.822 255.939 840.832 252.932 834.27C249.969 827.707 248.488 819.8 248.488 810.549ZM284.582 837.482C289.094 837.482 292.557 835.979 294.973 832.971C297.388 829.917 298.596 825.588 298.596 819.982C298.596 815.106 297.456 811.278 295.178 808.498C292.945 805.673 289.549 804.26 284.992 804.26C280.708 804.26 277.04 805.65 273.986 808.43C270.979 811.21 269.475 814.445 269.475 818.137C269.475 823.56 270.887 828.14 273.713 831.877C276.584 835.614 280.207 837.482 284.582 837.482ZM339.064 853L376.594 770.969H327.307V753.195H399.016V766.457L361.213 853H339.064Z" fill="#01F859"/>
<path d="M45.3359 619.439H48.8779V628.402L48.8271 630.802L48.7002 633.531H48.7764L57.3457 619.439H62.0557V638H58.5518V629.088C58.5518 627.895 58.6279 626.126 58.7803 623.781H58.6787L50.0713 638H45.3359V619.439ZM70.3076 623.807V629.266H75.7158V623.807H79.5879V638H75.7158V632.147H70.3076V638H66.4355V623.807H70.3076ZM96.752 627.526C96.752 628.288 96.5107 628.94 96.0283 629.481C95.5544 630.015 94.8519 630.357 93.9209 630.51V630.611C94.9281 630.73 95.7236 631.077 96.3076 631.652C96.9001 632.219 97.1963 632.922 97.1963 633.76C97.1963 635.139 96.6546 636.193 95.5713 636.921C94.488 637.64 92.9391 638 90.9248 638H83.6504V623.807H90.9248C92.8714 623.807 94.3271 624.124 95.292 624.759C96.2653 625.385 96.752 626.308 96.752 627.526ZM93.1846 633.557C93.1846 632.998 92.9688 632.596 92.5371 632.351C92.1055 632.097 91.458 631.97 90.5947 631.97H87.5225V635.321H90.6709C91.4919 635.321 92.1139 635.169 92.5371 634.864C92.9688 634.551 93.1846 634.115 93.1846 633.557ZM92.8291 627.831C92.8291 626.968 92.1436 626.536 90.7725 626.536H87.5225V629.342H90.3281C91.1491 629.342 91.7712 629.223 92.1943 628.986C92.6175 628.749 92.8291 628.364 92.8291 627.831ZM106.159 626.295C105.338 626.295 104.695 626.557 104.229 627.082C103.764 627.598 103.497 628.335 103.43 629.291H108.863C108.846 628.335 108.597 627.598 108.114 627.082C107.632 626.557 106.98 626.295 106.159 626.295ZM106.705 638.254C104.42 638.254 102.634 637.623 101.348 636.362C100.061 635.101 99.418 633.315 99.418 631.005C99.418 628.627 100.01 626.79 101.195 625.495C102.389 624.192 104.035 623.54 106.134 623.54C108.14 623.54 109.701 624.111 110.818 625.254C111.936 626.396 112.494 627.975 112.494 629.989V631.868H103.341C103.383 632.968 103.709 633.827 104.318 634.445C104.928 635.063 105.783 635.372 106.883 635.372C107.738 635.372 108.546 635.283 109.308 635.105C110.069 634.928 110.865 634.644 111.694 634.255V637.251C111.017 637.59 110.294 637.839 109.523 638C108.753 638.169 107.814 638.254 106.705 638.254ZM121.406 638.254C116.988 638.254 114.779 635.829 114.779 630.979C114.779 628.567 115.38 626.727 116.582 625.457C117.784 624.179 119.506 623.54 121.749 623.54C123.391 623.54 124.864 623.862 126.167 624.505L125.024 627.501C124.415 627.256 123.848 627.057 123.323 626.904C122.799 626.743 122.274 626.663 121.749 626.663C119.735 626.663 118.728 628.093 118.728 630.954C118.728 633.73 119.735 635.118 121.749 635.118C122.494 635.118 123.184 635.021 123.818 634.826C124.453 634.623 125.088 634.31 125.723 633.887V637.2C125.096 637.598 124.462 637.873 123.818 638.025C123.184 638.178 122.38 638.254 121.406 638.254ZM140.767 623.807V626.714H136.12V638H132.248V626.714H127.589V623.807H140.767ZM147.165 623.807V629.418C147.165 630.01 147.068 631.458 146.873 633.76L153.424 623.807H158.083V638H154.338V632.338C154.338 631.331 154.423 629.909 154.592 628.072L148.066 638H143.42V623.807H147.165ZM175.577 635.169H177.646V643.091H174.168V638H162.158V623.807H166.03V635.093H171.692V623.807H175.577V635.169ZM183.804 623.807V629.418C183.804 630.01 183.706 631.458 183.512 633.76L190.062 623.807H194.722V638H190.977V632.338C190.977 631.331 191.061 629.909 191.23 628.072L184.705 638H180.059V623.807H183.804ZM202.542 623.807V629.418C202.542 630.01 202.445 631.458 202.25 633.76L208.801 623.807H213.46V638H209.715V632.338C209.715 631.331 209.799 629.909 209.969 628.072L203.443 638H198.797V623.807H202.542ZM237.188 623.807V638H233.303V626.714H228.161V638H224.289V623.807H237.188ZM244.335 630.878C244.335 632.283 244.563 633.345 245.021 634.064C245.486 634.784 246.239 635.144 247.28 635.144C248.313 635.144 249.053 634.788 249.502 634.077C249.959 633.358 250.188 632.291 250.188 630.878C250.188 629.473 249.959 628.419 249.502 627.717C249.045 627.014 248.296 626.663 247.255 626.663C246.222 626.663 245.478 627.014 245.021 627.717C244.563 628.411 244.335 629.465 244.335 630.878ZM254.148 630.878C254.148 633.188 253.539 634.995 252.32 636.299C251.102 637.602 249.405 638.254 247.229 638.254C245.867 638.254 244.665 637.958 243.624 637.365C242.583 636.764 241.783 635.905 241.225 634.788C240.666 633.671 240.387 632.368 240.387 630.878C240.387 628.559 240.992 626.756 242.202 625.47C243.412 624.183 245.114 623.54 247.306 623.54C248.668 623.54 249.87 623.836 250.911 624.429C251.952 625.021 252.752 625.872 253.311 626.98C253.869 628.089 254.148 629.388 254.148 630.878ZM273.407 623.807H277.673L272.049 630.611L278.168 638H273.775L267.974 630.802V638H264.102V623.807H267.974V630.7L273.407 623.807ZM287.994 638.254C286.327 638.254 285.019 637.649 284.071 636.438H283.868C284.004 637.623 284.071 638.309 284.071 638.495V644.246H280.199V623.807H283.348L283.894 625.647H284.071C284.977 624.243 286.318 623.54 288.096 623.54C289.771 623.54 291.083 624.188 292.031 625.482C292.979 626.777 293.453 628.576 293.453 630.878C293.453 632.393 293.229 633.709 292.78 634.826C292.34 635.943 291.71 636.794 290.889 637.378C290.068 637.962 289.103 638.254 287.994 638.254ZM286.852 626.638C285.895 626.638 285.197 626.934 284.757 627.526C284.317 628.11 284.088 629.079 284.071 630.434V630.853C284.071 632.376 284.296 633.468 284.744 634.128C285.201 634.788 285.921 635.118 286.902 635.118C288.637 635.118 289.505 633.688 289.505 630.827C289.505 629.431 289.289 628.385 288.857 627.691C288.434 626.989 287.766 626.638 286.852 626.638ZM294.621 623.807H298.861L301.54 631.792C301.769 632.486 301.925 633.307 302.01 634.255H302.086C302.179 633.383 302.361 632.562 302.632 631.792L305.26 623.807H309.411L303.406 639.815C302.856 641.297 302.069 642.405 301.045 643.142C300.029 643.878 298.84 644.246 297.478 644.246C296.809 644.246 296.153 644.174 295.51 644.03V640.958C295.975 641.068 296.483 641.123 297.033 641.123C297.719 641.123 298.315 640.911 298.823 640.488C299.34 640.074 299.742 639.443 300.029 638.597L300.258 637.898L294.621 623.807ZM324.354 623.807V638H320.469V626.714H315.327V638H311.455V623.807H324.354ZM332.288 623.807V629.266H337.696V623.807H341.568V638H337.696V632.147H332.288V638H328.416V623.807H332.288ZM349.503 629.291H351.369C353.536 629.291 355.14 629.638 356.181 630.332C357.222 631.026 357.742 632.076 357.742 633.48C357.742 634.979 357.222 636.108 356.181 636.87C355.14 637.623 353.582 638 351.509 638H345.631V623.807H349.503V629.291ZM353.87 633.531C353.87 632.981 353.65 632.583 353.21 632.338C352.77 632.092 352.114 631.97 351.242 631.97H349.503V635.321H351.293C353.011 635.321 353.87 634.725 353.87 633.531ZM363.671 638H359.799V623.807H363.671V638ZM385.634 638H382.016V626.815L381.812 627.603C381.355 629.388 380.945 630.738 380.581 631.652L378.067 638H375.312L372.761 631.602C372.397 630.671 372.007 629.363 371.593 627.679L371.352 626.815V638H367.746V623.807H373.078L375.516 629.862C375.77 630.514 376.002 631.263 376.214 632.109C376.434 632.956 376.582 633.679 376.658 634.28C376.938 633.011 377.153 632.101 377.306 631.551C377.466 630.992 377.64 630.48 377.826 630.015C378.012 629.549 378.854 627.48 380.353 623.807H385.634V638ZM48.7764 654.807V660.418C48.7764 661.01 48.679 662.458 48.4844 664.76L55.0352 654.807H59.6943V669H55.9492V663.338C55.9492 662.331 56.0339 660.909 56.2031 659.072L49.6777 669H45.0312V654.807H48.7764ZM76.2871 669.254C71.8691 669.254 69.6602 666.829 69.6602 661.979C69.6602 659.567 70.2611 657.727 71.4629 656.457C72.6647 655.179 74.387 654.54 76.6299 654.54C78.2718 654.54 79.7445 654.862 81.0479 655.505L79.9053 658.501C79.2959 658.256 78.7288 658.057 78.2041 657.904C77.6794 657.743 77.1546 657.663 76.6299 657.663C74.6156 657.663 73.6084 659.093 73.6084 661.954C73.6084 664.73 74.6156 666.118 76.6299 666.118C77.3747 666.118 78.0645 666.021 78.6992 665.826C79.334 665.623 79.9688 665.31 80.6035 664.887V668.2C79.9772 668.598 79.3424 668.873 78.6992 669.025C78.0645 669.178 77.2604 669.254 76.2871 669.254ZM91.6992 669.254C90.0319 669.254 88.7243 668.649 87.7764 667.438H87.5732C87.7087 668.623 87.7764 669.309 87.7764 669.495V675.246H83.9043V654.807H87.0527L87.5986 656.647H87.7764C88.682 655.243 90.0234 654.54 91.8008 654.54C93.4766 654.54 94.7884 655.188 95.7363 656.482C96.6842 657.777 97.1582 659.576 97.1582 661.878C97.1582 663.393 96.9339 664.709 96.4854 665.826C96.0452 666.943 95.4147 667.794 94.5938 668.378C93.7728 668.962 92.8079 669.254 91.6992 669.254ZM90.5566 657.638C89.6003 657.638 88.902 657.934 88.4619 658.526C88.0218 659.11 87.7933 660.079 87.7764 661.434V661.853C87.7764 663.376 88.0007 664.468 88.4492 665.128C88.9062 665.788 89.6257 666.118 90.6074 666.118C92.3424 666.118 93.21 664.688 93.21 661.827C93.21 660.431 92.9941 659.385 92.5625 658.691C92.1393 657.989 91.4707 657.638 90.5566 657.638ZM106.235 657.295C105.414 657.295 104.771 657.557 104.306 658.082C103.84 658.598 103.574 659.335 103.506 660.291H108.939C108.923 659.335 108.673 658.598 108.19 658.082C107.708 657.557 107.056 657.295 106.235 657.295ZM106.781 669.254C104.496 669.254 102.71 668.623 101.424 667.362C100.137 666.101 99.4941 664.315 99.4941 662.005C99.4941 659.627 100.087 657.79 101.271 656.495C102.465 655.192 104.111 654.54 106.21 654.54C108.216 654.54 109.777 655.111 110.895 656.254C112.012 657.396 112.57 658.975 112.57 660.989V662.868H103.417C103.459 663.968 103.785 664.827 104.395 665.445C105.004 666.063 105.859 666.372 106.959 666.372C107.814 666.372 108.622 666.283 109.384 666.105C110.146 665.928 110.941 665.644 111.771 665.255V668.251C111.093 668.59 110.37 668.839 109.6 669C108.829 669.169 107.89 669.254 106.781 669.254ZM124.605 666.169V657.714H121.698C121.487 659.288 121.195 660.782 120.822 662.195C120.458 663.609 119.951 664.933 119.299 666.169H124.605ZM130.56 674.091H127.081V669H117.534V674.091H114.056V666.169H115.249C116.062 664.908 116.743 663.317 117.293 661.396C117.843 659.474 118.228 657.278 118.448 654.807H128.478V666.169H130.56V674.091ZM136.856 654.807V660.266H142.265V654.807H146.137V669H142.265V663.147H136.856V669H132.984V654.807H136.856ZM153.944 654.807V660.418C153.944 661.01 153.847 662.458 153.652 664.76L160.203 654.807H164.862V669H161.117V663.338C161.117 662.331 161.202 660.909 161.371 659.072L154.846 669H150.199V654.807H153.944ZM186.825 669H183.207V657.815L183.004 658.603C182.547 660.388 182.136 661.738 181.772 662.652L179.259 669H176.504L173.952 662.602C173.588 661.671 173.199 660.363 172.784 658.679L172.543 657.815V669H168.938V654.807H174.27L176.707 660.862C176.961 661.514 177.194 662.263 177.405 663.109C177.625 663.956 177.773 664.679 177.85 665.28C178.129 664.011 178.345 663.101 178.497 662.551C178.658 661.992 178.831 661.48 179.018 661.015C179.204 660.549 180.046 658.48 181.544 654.807H186.825V669ZM210.553 654.807V669H206.668V657.714H201.526V669H197.654V654.807H210.553ZM222.41 669.254C220.743 669.254 219.435 668.649 218.487 667.438H218.284C218.42 668.623 218.487 669.309 218.487 669.495V675.246H214.615V654.807H217.764L218.31 656.647H218.487C219.393 655.243 220.734 654.54 222.512 654.54C224.188 654.54 225.499 655.188 226.447 656.482C227.395 657.777 227.869 659.576 227.869 661.878C227.869 663.393 227.645 664.709 227.196 665.826C226.756 666.943 226.126 667.794 225.305 668.378C224.484 668.962 223.519 669.254 222.41 669.254ZM221.268 657.638C220.311 657.638 219.613 657.934 219.173 658.526C218.733 659.11 218.504 660.079 218.487 661.434V661.853C218.487 663.376 218.712 664.468 219.16 665.128C219.617 665.788 220.337 666.118 221.318 666.118C223.053 666.118 223.921 664.688 223.921 661.827C223.921 660.431 223.705 659.385 223.273 658.691C222.85 657.989 222.182 657.638 221.268 657.638ZM236.946 657.295C236.125 657.295 235.482 657.557 235.017 658.082C234.551 658.598 234.285 659.335 234.217 660.291H239.65C239.633 659.335 239.384 658.598 238.901 658.082C238.419 657.557 237.767 657.295 236.946 657.295ZM237.492 669.254C235.207 669.254 233.421 668.623 232.135 667.362C230.848 666.101 230.205 664.315 230.205 662.005C230.205 659.627 230.798 657.79 231.982 656.495C233.176 655.192 234.822 654.54 236.921 654.54C238.927 654.54 240.488 655.111 241.605 656.254C242.723 657.396 243.281 658.975 243.281 660.989V662.868H234.128C234.17 663.968 234.496 664.827 235.105 665.445C235.715 666.063 236.57 666.372 237.67 666.372C238.525 666.372 239.333 666.283 240.095 666.105C240.856 665.928 241.652 665.644 242.481 665.255V668.251C241.804 668.59 241.081 668.839 240.311 669C239.54 669.169 238.601 669.254 237.492 669.254ZM255.316 666.169V657.714H252.409C252.198 659.288 251.906 660.782 251.533 662.195C251.169 663.609 250.661 664.933 250.01 666.169H255.316ZM261.271 674.091H257.792V669H248.245V674.091H244.767V666.169H245.96C246.772 664.908 247.454 663.317 248.004 661.396C248.554 659.474 248.939 657.278 249.159 654.807H259.188V666.169H261.271V674.091ZM276.594 654.807V669H272.709V657.714H267.567V669H263.695V654.807H276.594ZM288.451 669.254C286.784 669.254 285.476 668.649 284.528 667.438H284.325C284.461 668.623 284.528 669.309 284.528 669.495V675.246H280.656V654.807H283.805L284.351 656.647H284.528C285.434 655.243 286.775 654.54 288.553 654.54C290.229 654.54 291.54 655.188 292.488 656.482C293.436 657.777 293.91 659.576 293.91 661.878C293.91 663.393 293.686 664.709 293.237 665.826C292.797 666.943 292.167 667.794 291.346 668.378C290.525 668.962 289.56 669.254 288.451 669.254ZM287.309 657.638C286.352 657.638 285.654 657.934 285.214 658.526C284.774 659.11 284.545 660.079 284.528 661.434V661.853C284.528 663.376 284.753 664.468 285.201 665.128C285.658 665.788 286.378 666.118 287.359 666.118C289.094 666.118 289.962 664.688 289.962 661.827C289.962 660.431 289.746 659.385 289.314 658.691C288.891 657.989 288.223 657.638 287.309 657.638ZM300.854 654.807V660.418C300.854 661.01 300.757 662.458 300.562 664.76L307.113 654.807H311.772V669H308.027V663.338C308.027 662.331 308.112 660.909 308.281 659.072L301.756 669H297.109V654.807H300.854ZM318.006 669H313.816L317.638 663.389C316.724 663.008 316.03 662.458 315.556 661.738C315.09 661.019 314.857 660.173 314.857 659.199C314.857 657.828 315.369 656.753 316.394 655.975C317.426 655.196 318.831 654.807 320.608 654.807H327.21V669H323.338V663.719H321.205L318.006 669ZM318.653 659.225C318.653 659.817 318.886 660.283 319.352 660.621C319.817 660.951 320.426 661.116 321.18 661.116H323.338V657.536H320.685C320.05 657.536 319.55 657.693 319.187 658.006C318.831 658.311 318.653 658.717 318.653 659.225ZM343.003 654.807V657.714H338.356V669H334.484V657.714H329.825V654.807H343.003ZM349.401 654.807V660.418C349.401 661.01 349.304 662.458 349.109 664.76L355.66 654.807H360.319V669H356.574V663.338C356.574 662.331 356.659 660.909 356.828 659.072L350.303 669H345.656V654.807H349.401ZM366.553 669H362.363L366.185 663.389C365.271 663.008 364.576 662.458 364.103 661.738C363.637 661.019 363.404 660.173 363.404 659.199C363.404 657.828 363.916 656.753 364.94 655.975C365.973 655.196 367.378 654.807 369.155 654.807H375.757V669H371.885V663.719H369.752L366.553 669ZM367.2 659.225C367.2 659.817 367.433 660.283 367.898 660.621C368.364 660.951 368.973 661.116 369.727 661.116H371.885V657.536H369.231C368.597 657.536 368.097 657.693 367.733 658.006C367.378 658.311 367.2 658.717 367.2 659.225ZM397.694 669H394.076V657.815L393.873 658.603C393.416 660.388 393.006 661.738 392.642 662.652L390.128 669H387.373L384.821 662.602C384.457 661.671 384.068 660.363 383.653 658.679L383.412 657.815V669H379.807V654.807H385.139L387.576 660.862C387.83 661.514 388.063 662.263 388.274 663.109C388.494 663.956 388.643 664.679 388.719 665.28C388.998 664.011 389.214 663.101 389.366 662.551C389.527 661.992 389.701 661.48 389.887 661.015C390.073 660.549 390.915 658.48 392.413 654.807H397.694V669Z" fill="white"/>
<path d="M98.1906 548.564L79.25 561.211V550.537C79.2512 550.188 79.155 549.846 78.9726 549.55C78.7903 549.255 78.5293 549.018 78.2199 548.867C77.9105 548.717 77.5654 548.659 77.2248 548.7C76.8842 548.74 76.562 548.879 76.2956 549.099L64.8769 558.815H57.5V540.489L46.625 538V558.815H43V590.156C43 590.645 43.191 591.114 43.5309 591.46C43.8708 591.806 44.3318 592 44.8125 592H99.1875C99.6682 592 100.129 591.806 100.469 591.46C100.809 591.114 101 590.645 101 590.156V550.094C100.998 549.762 100.909 549.437 100.74 549.152C100.572 548.868 100.331 548.635 100.043 548.478C99.7554 548.322 99.4314 548.247 99.1053 548.262C98.7792 548.277 98.4632 548.381 98.1906 548.564ZM64.75 586.469H50.25V582.782H64.75V586.469ZM64.75 579.095H50.25V575.407H64.75V579.095ZM64.75 571.72H50.25V568.033H64.75V571.72ZM79.25 586.469H75.625V580.938H79.25V586.469ZM79.25 575.407H75.625V569.876H79.25V575.407ZM86.5 586.469H82.875V580.938H86.5V586.469ZM86.5 575.407H82.875V569.876H86.5V575.407ZM93.75 586.469H90.125V580.938H93.75V586.469ZM93.75 575.407H90.125V569.876H93.75V575.407Z" fill="white"/>
<path d="M52.0942 704.047L52.4727 702.912L52.9976 701.471L56.623 692.646H59.1987V706H57.4043V694.953L57.1602 695.661L56.4521 697.528L52.9976 706H51.3008L47.8462 697.504C47.4149 696.413 47.1178 695.563 46.9551 694.953V706H45.1484V692.646H47.6265L51.1299 701.129C51.4798 702.025 51.8013 702.997 52.0942 704.047ZM73.5054 706H71.4546V694.354H67.4385C67.2188 697.252 66.9136 699.551 66.5229 701.251C66.1323 702.952 65.6237 704.197 64.9971 704.987C64.3786 705.776 63.5892 706.171 62.6289 706.171C62.1895 706.171 61.8395 706.122 61.5791 706.024V704.523C61.7581 704.572 61.9616 704.596 62.1895 704.596C63.1253 704.596 63.87 703.607 64.4233 701.63C64.9767 699.652 65.3958 696.649 65.6807 692.621H73.5054V706ZM84.04 706.244C83.1693 706.244 82.3717 706.085 81.6475 705.768C80.9313 705.443 80.3291 704.946 79.8408 704.279H79.6943C79.792 705.06 79.8408 705.801 79.8408 706.5V712.006H77.8145V692.621H79.4624L79.7432 694.452H79.8408C80.3617 693.72 80.9679 693.191 81.6597 692.865C82.3514 692.54 83.1449 692.377 84.04 692.377C85.8141 692.377 87.1813 692.983 88.1416 694.196C89.11 695.408 89.5942 697.109 89.5942 699.298C89.5942 701.496 89.1019 703.205 88.1172 704.425C87.1406 705.638 85.7816 706.244 84.04 706.244ZM83.7471 694.098C82.3799 694.098 81.3911 694.477 80.7808 695.233C80.1704 695.99 79.8571 697.195 79.8408 698.847V699.298C79.8408 701.178 80.1541 702.525 80.7808 703.339C81.4074 704.145 82.4124 704.547 83.7959 704.547C84.9515 704.547 85.8548 704.079 86.5059 703.144C87.165 702.208 87.4946 700.918 87.4946 699.274C87.4946 697.606 87.165 696.328 86.5059 695.441C85.8548 694.546 84.9352 694.098 83.7471 694.098ZM104.768 710.626H102.802V706H93.4517V710.626H91.4985V704.254H92.5483C93.6388 702.773 94.4933 701.036 95.1118 699.042C95.7303 697.048 96.0518 694.908 96.0762 692.621H102.851V704.254H104.768V710.626ZM100.898 704.254V694.22H97.895C97.7892 696.027 97.4393 697.858 96.8452 699.713C96.2593 701.561 95.5269 703.074 94.6479 704.254H100.898ZM114.224 706V702.6H112.049V700.975H114.224V698.75H112.049V696.85H114.224V688.15H118.924C121.107 688.15 122.724 688.592 123.774 689.475C124.84 690.358 125.374 691.642 125.374 693.325C125.374 695.025 124.799 696.358 123.649 697.325C122.499 698.275 120.807 698.75 118.574 698.75H116.474V700.975H120.599V702.6H116.474V706H114.224ZM118.249 696.85C119.765 696.85 120.94 696.6 121.774 696.1C122.624 695.6 123.049 694.7 123.049 693.4C123.049 692.267 122.699 691.425 121.999 690.875C121.299 690.325 120.207 690.05 118.724 690.05H116.474V696.85H118.249Z" fill="white"/>
<path d="M1590 474.001C986.751 474.001 603.249 474.002 0 474.002" stroke="#275D81" stroke-width="2"/>
<path d="M530.001 1004C530.001 400.751 530 1004 530 473" stroke="#275D81" stroke-width="2"/>
<path d="M1060 1004C1060 400.751 1060 1004 1060 473" stroke="#275D81" stroke-width="2"/>
<path d="M1249.26 294H1242.58V273.352L1242.2 274.805C1241.36 278.102 1240.6 280.594 1239.93 282.281L1235.29 294H1230.2L1225.49 282.188C1224.82 280.469 1224.1 278.055 1223.34 274.945L1222.89 273.352V294H1216.23V267.797H1226.08L1230.58 278.977C1231.05 280.18 1231.48 281.562 1231.87 283.125C1232.27 284.688 1232.55 286.023 1232.69 287.133C1233.2 284.789 1233.6 283.109 1233.88 282.094C1234.18 281.062 1234.5 280.117 1234.84 279.258C1235.19 278.398 1236.74 274.578 1239.51 267.797H1249.26V294ZM1280.24 294H1273.09V273.164H1266.51C1266.01 279.023 1265.4 283.398 1264.68 286.289C1263.96 289.164 1263 291.25 1261.8 292.547C1260.61 293.828 1259.05 294.469 1257.11 294.469C1255.45 294.469 1254.09 294.219 1253.03 293.719V288C1253.8 288.312 1254.56 288.469 1255.33 288.469C1256.22 288.469 1256.96 287.828 1257.55 286.547C1258.16 285.266 1258.7 283.133 1259.17 280.148C1259.66 277.148 1260.07 273.031 1260.41 267.797H1280.24V294ZM1302.16 294.469C1299.08 294.469 1296.66 293.352 1294.91 291.117H1294.54C1294.79 293.305 1294.91 294.57 1294.91 294.914V305.531H1287.77V267.797H1293.58L1294.59 271.195H1294.91C1296.59 268.602 1299.06 267.305 1302.34 267.305C1305.44 267.305 1307.86 268.5 1309.61 270.891C1311.36 273.281 1312.23 276.602 1312.23 280.852C1312.23 283.648 1311.82 286.078 1310.99 288.141C1310.18 290.203 1309.02 291.773 1307.5 292.852C1305.98 293.93 1304.2 294.469 1302.16 294.469ZM1300.05 273.023C1298.28 273.023 1296.99 273.57 1296.18 274.664C1295.37 275.742 1294.95 277.531 1294.91 280.031V280.805C1294.91 283.617 1295.33 285.633 1296.16 286.852C1297 288.07 1298.33 288.68 1300.14 288.68C1303.34 288.68 1304.95 286.039 1304.95 280.758C1304.95 278.18 1304.55 276.25 1303.75 274.969C1302.97 273.672 1301.73 273.023 1300.05 273.023ZM1334.55 288.773V273.164H1329.18C1328.79 276.07 1328.25 278.828 1327.56 281.438C1326.89 284.047 1325.95 286.492 1324.75 288.773H1334.55ZM1345.54 303.398H1339.12V294H1321.49V303.398H1315.07V288.773H1317.27C1318.77 286.445 1320.03 283.508 1321.05 279.961C1322.06 276.414 1322.77 272.359 1323.18 267.797H1341.7V288.773H1345.54V303.398ZM1363.05 294V288.864H1359.21V284.208H1363.05V280.464H1359.21V274.512H1363.05V259.728H1374C1378.41 259.728 1381.63 260.624 1383.65 262.416C1385.69 264.208 1386.72 266.672 1386.72 269.808C1386.72 271.664 1386.3 273.408 1385.47 275.04C1384.64 276.672 1383.25 277.984 1381.29 278.976C1379.37 279.968 1376.75 280.464 1373.42 280.464H1370.3V284.208H1377.69V288.864H1370.3V294H1363.05ZM1372.7 274.512C1374.75 274.512 1376.37 274.16 1377.55 273.456C1378.77 272.752 1379.37 271.616 1379.37 270.048C1379.37 267.136 1377.45 265.68 1373.61 265.68H1370.3V274.512H1372.7Z" fill="white"/>
</svg>
