<svg width="1590" height="890" viewBox="0 0 1590 890" fill="none" xmlns="http://www.w3.org/2000/svg">
<path d="M795 666.319C795 420.063 795 831.339 795 626.823" stroke="#275D81" stroke-width="2"/>
<path d="M303.781 608.531C303.781 631.031 299.042 647.828 289.562 658.922C280.083 670.016 265.734 675.562 246.516 675.562C239.745 675.562 234.615 675.198 231.125 674.469V655.094C235.5 656.188 240.083 656.734 244.875 656.734C252.948 656.734 259.589 655.562 264.797 653.219C270.005 650.823 273.99 647.099 276.75 642.047C279.51 636.943 281.099 629.938 281.516 621.031H280.578C277.557 625.927 274.068 629.365 270.109 631.344C266.151 633.323 261.203 634.312 255.266 634.312C245.318 634.312 237.479 631.135 231.75 624.781C226.021 618.375 223.156 609.495 223.156 598.141C223.156 585.901 226.62 576.24 233.547 569.156C240.526 562.021 250.005 558.453 261.984 558.453C270.422 558.453 277.792 560.432 284.094 564.391C290.448 568.349 295.318 574.104 298.703 581.656C302.089 589.156 303.781 598.115 303.781 608.531ZM262.453 577.828C257.453 577.828 253.547 579.547 250.734 582.984C247.922 586.422 246.516 591.37 246.516 597.828C246.516 603.349 247.792 607.724 250.344 610.953C252.896 614.182 256.776 615.797 261.984 615.797C266.88 615.797 271.073 614.208 274.562 611.031C278.052 607.802 279.797 604.104 279.797 599.938C279.797 593.74 278.156 588.505 274.875 584.234C271.646 579.964 267.505 577.828 262.453 577.828ZM391.203 585.328C391.203 592.464 389.042 598.531 384.719 603.531C380.396 608.531 374.328 611.969 366.516 613.844V614.312C375.734 615.458 382.714 618.271 387.453 622.75C392.193 627.177 394.562 633.167 394.562 640.719C394.562 651.708 390.578 660.276 382.609 666.422C374.641 672.516 363.26 675.562 348.469 675.562C336.073 675.562 325.083 673.505 315.5 669.391V648.844C319.927 651.083 324.797 652.906 330.109 654.312C335.422 655.719 340.682 656.422 345.891 656.422C353.859 656.422 359.745 655.068 363.547 652.359C367.349 649.651 369.25 645.302 369.25 639.312C369.25 633.948 367.062 630.146 362.688 627.906C358.312 625.667 351.333 624.547 341.75 624.547H333.078V606.031H341.906C350.76 606.031 357.219 604.885 361.281 602.594C365.396 600.25 367.453 596.266 367.453 590.641C367.453 581.995 362.036 577.672 351.203 577.672C347.453 577.672 343.625 578.297 339.719 579.547C335.865 580.797 331.568 582.958 326.828 586.031L315.656 569.391C326.073 561.891 338.495 558.141 352.922 558.141C364.745 558.141 374.068 560.536 380.891 565.328C387.766 570.12 391.203 576.786 391.203 585.328ZM425.422 594C425.422 600.615 425.995 605.562 427.141 608.844C428.339 612.073 430.24 613.688 432.844 613.688C437.844 613.688 440.344 607.125 440.344 594C440.344 580.979 437.844 574.469 432.844 574.469C430.24 574.469 428.339 576.083 427.141 579.312C425.995 582.49 425.422 587.385 425.422 594ZM460.031 593.844C460.031 605.823 457.714 614.833 453.078 620.875C448.443 626.865 441.646 629.859 432.688 629.859C424.094 629.859 417.453 626.786 412.766 620.641C408.078 614.443 405.734 605.51 405.734 593.844C405.734 570.042 414.719 558.141 432.688 558.141C441.49 558.141 448.234 561.24 452.922 567.438C457.661 573.583 460.031 582.385 460.031 593.844ZM513.781 559.781L450.422 674H431.672L495.031 559.781H513.781ZM505.422 639.625C505.422 646.24 505.995 651.188 507.141 654.469C508.339 657.698 510.24 659.312 512.844 659.312C517.844 659.312 520.344 652.75 520.344 639.625C520.344 626.604 517.844 620.094 512.844 620.094C510.24 620.094 508.339 621.708 507.141 624.938C505.995 628.115 505.422 633.01 505.422 639.625ZM540.031 639.469C540.031 651.396 537.714 660.38 533.078 666.422C528.443 672.411 521.646 675.406 512.688 675.406C504.094 675.406 497.453 672.333 492.766 666.188C488.078 659.99 485.734 651.083 485.734 639.469C485.734 615.667 494.719 603.766 512.688 603.766C521.49 603.766 528.234 606.865 532.922 613.062C537.661 619.208 540.031 628.01 540.031 639.469Z" fill="#01F859"/>
<path d="M1049.78 608.531C1049.78 631.031 1045.04 647.828 1035.56 658.922C1026.08 670.016 1011.73 675.562 992.516 675.562C985.745 675.562 980.615 675.198 977.125 674.469V655.094C981.5 656.188 986.083 656.734 990.875 656.734C998.948 656.734 1005.59 655.562 1010.8 653.219C1016.01 650.823 1019.99 647.099 1022.75 642.047C1025.51 636.943 1027.1 629.938 1027.52 621.031H1026.58C1023.56 625.927 1020.07 629.365 1016.11 631.344C1012.15 633.323 1007.2 634.312 1001.27 634.312C991.318 634.312 983.479 631.135 977.75 624.781C972.021 618.375 969.156 609.495 969.156 598.141C969.156 585.901 972.62 576.24 979.547 569.156C986.526 562.021 996.005 558.453 1007.98 558.453C1016.42 558.453 1023.79 560.432 1030.09 564.391C1036.45 568.349 1041.32 574.104 1044.7 581.656C1048.09 589.156 1049.78 598.115 1049.78 608.531ZM1008.45 577.828C1003.45 577.828 999.547 579.547 996.734 582.984C993.922 586.422 992.516 591.37 992.516 597.828C992.516 603.349 993.792 607.724 996.344 610.953C998.896 614.182 1002.78 615.797 1007.98 615.797C1012.88 615.797 1017.07 614.208 1020.56 611.031C1024.05 607.802 1025.8 604.104 1025.8 599.938C1025.8 593.74 1024.16 588.505 1020.88 584.234C1017.65 579.964 1013.51 577.828 1008.45 577.828ZM1103.38 601.031C1114.42 601.031 1123.19 604.13 1129.7 610.328C1136.27 616.526 1139.55 625.016 1139.55 635.797C1139.55 648.557 1135.61 658.375 1127.75 665.25C1119.89 672.125 1108.64 675.562 1094 675.562C1081.29 675.562 1071.03 673.505 1063.22 669.391V648.531C1067.33 650.719 1072.12 652.516 1077.59 653.922C1083.06 655.276 1088.24 655.953 1093.14 655.953C1107.88 655.953 1115.25 649.911 1115.25 637.828C1115.25 626.318 1107.62 620.562 1092.36 620.562C1089.6 620.562 1086.55 620.849 1083.22 621.422C1079.89 621.943 1077.18 622.516 1075.09 623.141L1065.48 617.984L1069.78 559.781H1131.73V580.25H1090.95L1088.84 602.672L1091.58 602.125C1094.76 601.396 1098.69 601.031 1103.38 601.031ZM1182.67 657.203C1179.96 667.724 1175.38 680.198 1168.92 694.625H1151.73C1155.12 680.771 1157.75 667.698 1159.62 655.406H1181.5L1182.67 657.203ZM1282.05 650.328H1268.3V674H1244.7V650.328H1195.95V633.531L1246.03 559.781H1268.3V631.578H1282.05V650.328ZM1244.7 631.578V612.203C1244.7 608.974 1244.83 604.286 1245.09 598.141C1245.35 591.995 1245.56 588.427 1245.72 587.438H1245.09C1243.17 591.708 1240.85 595.875 1238.14 599.938L1217.2 631.578H1244.7ZM1370.41 608.531C1370.41 631.031 1365.67 647.828 1356.19 658.922C1346.71 670.016 1332.36 675.562 1313.14 675.562C1306.37 675.562 1301.24 675.198 1297.75 674.469V655.094C1302.12 656.188 1306.71 656.734 1311.5 656.734C1319.57 656.734 1326.21 655.562 1331.42 653.219C1336.63 650.823 1340.61 647.099 1343.38 642.047C1346.14 636.943 1347.72 629.938 1348.14 621.031H1347.2C1344.18 625.927 1340.69 629.365 1336.73 631.344C1332.78 633.323 1327.83 634.312 1321.89 634.312C1311.94 634.312 1304.1 631.135 1298.38 624.781C1292.65 618.375 1289.78 609.495 1289.78 598.141C1289.78 585.901 1293.24 576.24 1300.17 569.156C1307.15 562.021 1316.63 558.453 1328.61 558.453C1337.05 558.453 1344.42 560.432 1350.72 564.391C1357.07 568.349 1361.94 574.104 1365.33 581.656C1368.71 589.156 1370.41 598.115 1370.41 608.531ZM1329.08 577.828C1324.08 577.828 1320.17 579.547 1317.36 582.984C1314.55 586.422 1313.14 591.37 1313.14 597.828C1313.14 603.349 1314.42 607.724 1316.97 610.953C1319.52 614.182 1323.4 615.797 1328.61 615.797C1333.51 615.797 1337.7 614.208 1341.19 611.031C1344.68 607.802 1346.42 604.104 1346.42 599.938C1346.42 593.74 1344.78 588.505 1341.5 584.234C1338.27 579.964 1334.13 577.828 1329.08 577.828ZM1400.64 594C1400.64 600.615 1401.21 605.562 1402.36 608.844C1403.56 612.073 1405.46 613.688 1408.06 613.688C1413.06 613.688 1415.56 607.125 1415.56 594C1415.56 580.979 1413.06 574.469 1408.06 574.469C1405.46 574.469 1403.56 576.083 1402.36 579.312C1401.21 582.49 1400.64 587.385 1400.64 594ZM1435.25 593.844C1435.25 605.823 1432.93 614.833 1428.3 620.875C1423.66 626.865 1416.86 629.859 1407.91 629.859C1399.31 629.859 1392.67 626.786 1387.98 620.641C1383.3 614.443 1380.95 605.51 1380.95 593.844C1380.95 570.042 1389.94 558.141 1407.91 558.141C1416.71 558.141 1423.45 561.24 1428.14 567.438C1432.88 573.583 1435.25 582.385 1435.25 593.844ZM1489 559.781L1425.64 674H1406.89L1470.25 559.781H1489ZM1480.64 639.625C1480.64 646.24 1481.21 651.188 1482.36 654.469C1483.56 657.698 1485.46 659.312 1488.06 659.312C1493.06 659.312 1495.56 652.75 1495.56 639.625C1495.56 626.604 1493.06 620.094 1488.06 620.094C1485.46 620.094 1483.56 621.708 1482.36 624.938C1481.21 628.115 1480.64 633.01 1480.64 639.625ZM1515.25 639.469C1515.25 651.396 1512.93 660.38 1508.3 666.422C1503.66 672.411 1496.86 675.406 1487.91 675.406C1479.31 675.406 1472.67 672.333 1467.98 666.188C1463.3 659.99 1460.95 651.083 1460.95 639.469C1460.95 615.667 1469.94 603.766 1487.91 603.766C1496.71 603.766 1503.45 606.865 1508.14 613.062C1512.88 619.208 1515.25 628.01 1515.25 639.469Z" fill="#01F859"/>
<path d="M722.852 483.82C722.852 489.492 721.445 493.852 718.633 496.898C715.82 499.945 711.789 501.469 706.539 501.469C701.289 501.469 697.258 499.945 694.445 496.898C691.633 493.852 690.227 489.477 690.227 483.773C690.227 478.07 691.633 473.719 694.445 470.719C697.273 467.703 701.32 466.195 706.586 466.195C711.852 466.195 715.875 467.711 718.656 470.742C721.453 473.773 722.852 478.133 722.852 483.82ZM697.844 483.82C697.844 487.648 698.57 490.531 700.023 492.469C701.477 494.406 703.648 495.375 706.539 495.375C712.336 495.375 715.234 491.523 715.234 483.82C715.234 476.102 712.352 472.242 706.586 472.242C703.695 472.242 701.516 473.219 700.047 475.172C698.578 477.109 697.844 479.992 697.844 483.82ZM727.797 485.297C727.797 479.281 728.938 474.719 731.219 471.609C733.516 468.484 737.094 466.508 741.953 465.68C744.312 465.273 747.836 464.758 752.523 464.133L753.344 470.367C751.312 470.602 747.711 471.102 742.539 471.867C740.57 472.18 739.102 472.648 738.133 473.273C737.164 473.898 736.438 474.789 735.953 475.945C735.484 477.102 735.195 478.641 735.086 480.562H735.438C736.266 479.281 737.359 478.297 738.719 477.609C740.078 476.922 741.539 476.578 743.102 476.578C746.336 476.578 748.852 477.57 750.648 479.555C752.445 481.523 753.344 484.352 753.344 488.039C753.344 492.289 752.203 495.594 749.922 497.953C747.656 500.297 744.523 501.469 740.523 501.469C736.523 501.469 733.398 500.039 731.148 497.18C728.914 494.305 727.797 490.344 727.797 485.297ZM740.945 495.68C744.336 495.68 746.031 493.344 746.031 488.672C746.031 484.125 744.5 481.852 741.438 481.852C740.594 481.852 739.75 482.047 738.906 482.438C738.078 482.828 737.312 483.344 736.609 483.984C735.922 484.609 735.414 485.242 735.086 485.883C735.086 489.055 735.594 491.484 736.609 493.172C737.625 494.844 739.07 495.68 740.945 495.68ZM773.641 501.469C770.562 501.469 768.148 500.352 766.398 498.117H766.023C766.273 500.305 766.398 501.57 766.398 501.914V512.531H759.25V474.797H765.062L766.07 478.195H766.398C768.07 475.602 770.547 474.305 773.828 474.305C776.922 474.305 779.344 475.5 781.094 477.891C782.844 480.281 783.719 483.602 783.719 487.852C783.719 490.648 783.305 493.078 782.477 495.141C781.664 497.203 780.5 498.773 778.984 499.852C777.469 500.93 775.688 501.469 773.641 501.469ZM771.531 480.023C769.766 480.023 768.477 480.57 767.664 481.664C766.852 482.742 766.43 484.531 766.398 487.031V487.805C766.398 490.617 766.812 492.633 767.641 493.852C768.484 495.07 769.812 495.68 771.625 495.68C774.828 495.68 776.43 493.039 776.43 487.758C776.43 485.18 776.031 483.25 775.234 481.969C774.453 480.672 773.219 480.023 771.531 480.023ZM806.266 501L804.883 497.438H804.695C803.492 498.953 802.25 500.008 800.969 500.602C799.703 501.18 798.047 501.469 796 501.469C793.484 501.469 791.5 500.75 790.047 499.312C788.609 497.875 787.891 495.828 787.891 493.172C787.891 490.391 788.859 488.344 790.797 487.031C792.75 485.703 795.688 484.969 799.609 484.828L804.156 484.688V483.539C804.156 480.883 802.797 479.555 800.078 479.555C797.984 479.555 795.523 480.188 792.695 481.453L790.328 476.625C793.344 475.047 796.688 474.258 800.359 474.258C803.875 474.258 806.57 475.023 808.445 476.555C810.32 478.086 811.258 480.414 811.258 483.539V501H806.266ZM804.156 488.859L801.391 488.953C799.312 489.016 797.766 489.391 796.75 490.078C795.734 490.766 795.227 491.812 795.227 493.219C795.227 495.234 796.383 496.242 798.695 496.242C800.352 496.242 801.672 495.766 802.656 494.812C803.656 493.859 804.156 492.594 804.156 491.016V488.859ZM817.047 485.297C817.047 479.281 818.188 474.719 820.469 471.609C822.766 468.484 826.344 466.508 831.203 465.68C833.562 465.273 837.086 464.758 841.773 464.133L842.594 470.367C840.562 470.602 836.961 471.102 831.789 471.867C829.82 472.18 828.352 472.648 827.383 473.273C826.414 473.898 825.688 474.789 825.203 475.945C824.734 477.102 824.445 478.641 824.336 480.562H824.688C825.516 479.281 826.609 478.297 827.969 477.609C829.328 476.922 830.789 476.578 832.352 476.578C835.586 476.578 838.102 477.57 839.898 479.555C841.695 481.523 842.594 484.352 842.594 488.039C842.594 492.289 841.453 495.594 839.172 497.953C836.906 500.297 833.773 501.469 829.773 501.469C825.773 501.469 822.648 500.039 820.398 497.18C818.164 494.305 817.047 490.344 817.047 485.297ZM830.195 495.68C833.586 495.68 835.281 493.344 835.281 488.672C835.281 484.125 833.75 481.852 830.688 481.852C829.844 481.852 829 482.047 828.156 482.438C827.328 482.828 826.562 483.344 825.859 483.984C825.172 484.609 824.664 485.242 824.336 485.883C824.336 489.055 824.844 491.484 825.859 493.172C826.875 494.844 828.32 495.68 830.195 495.68ZM854.195 487.852C854.195 490.445 854.617 492.406 855.461 493.734C856.32 495.062 857.711 495.727 859.633 495.727C861.539 495.727 862.906 495.07 863.734 493.758C864.578 492.43 865 490.461 865 487.852C865 485.258 864.578 483.312 863.734 482.016C862.891 480.719 861.508 480.07 859.586 480.07C857.68 480.07 856.305 480.719 855.461 482.016C854.617 483.297 854.195 485.242 854.195 487.852ZM872.312 487.852C872.312 492.117 871.188 495.453 868.938 497.859C866.688 500.266 863.555 501.469 859.539 501.469C857.023 501.469 854.805 500.922 852.883 499.828C850.961 498.719 849.484 497.133 848.453 495.07C847.422 493.008 846.906 490.602 846.906 487.852C846.906 483.57 848.023 480.242 850.258 477.867C852.492 475.492 855.633 474.305 859.68 474.305C862.195 474.305 864.414 474.852 866.336 475.945C868.258 477.039 869.734 478.609 870.766 480.656C871.797 482.703 872.312 485.102 872.312 487.852ZM899.898 474.797V480.164H891.32V501H884.172V480.164H875.57V474.797H899.898ZM921.438 501L920.055 497.438H919.867C918.664 498.953 917.422 500.008 916.141 500.602C914.875 501.18 913.219 501.469 911.172 501.469C908.656 501.469 906.672 500.75 905.219 499.312C903.781 497.875 903.062 495.828 903.062 493.172C903.062 490.391 904.031 488.344 905.969 487.031C907.922 485.703 910.859 484.969 914.781 484.828L919.328 484.688V483.539C919.328 480.883 917.969 479.555 915.25 479.555C913.156 479.555 910.695 480.188 907.867 481.453L905.5 476.625C908.516 475.047 911.859 474.258 915.531 474.258C919.047 474.258 921.742 475.023 923.617 476.555C925.492 478.086 926.43 480.414 926.43 483.539V501H921.438ZM919.328 488.859L916.562 488.953C914.484 489.016 912.938 489.391 911.922 490.078C910.906 490.766 910.398 491.812 910.398 493.219C910.398 495.234 911.555 496.242 913.867 496.242C915.523 496.242 916.844 495.766 917.828 494.812C918.828 493.859 919.328 492.594 919.328 491.016V488.859ZM940.961 474.797V484.875H950.945V474.797H958.094V501H950.945V490.195H940.961V501H933.812V474.797H940.961ZM971.289 487.852C971.289 490.445 971.711 492.406 972.555 493.734C973.414 495.062 974.805 495.727 976.727 495.727C978.633 495.727 980 495.07 980.828 493.758C981.672 492.43 982.094 490.461 982.094 487.852C982.094 485.258 981.672 483.312 980.828 482.016C979.984 480.719 978.602 480.07 976.68 480.07C974.773 480.07 973.398 480.719 972.555 482.016C971.711 483.297 971.289 485.242 971.289 487.852ZM989.406 487.852C989.406 492.117 988.281 495.453 986.031 497.859C983.781 500.266 980.648 501.469 976.633 501.469C974.117 501.469 971.898 500.922 969.977 499.828C968.055 498.719 966.578 497.133 965.547 495.07C964.516 493.008 964 490.602 964 487.852C964 483.57 965.117 480.242 967.352 477.867C969.586 475.492 972.727 474.305 976.773 474.305C979.289 474.305 981.508 474.852 983.43 475.945C985.352 477.039 986.828 478.609 987.859 480.656C988.891 482.703 989.406 485.102 989.406 487.852Z" fill="white"/>
<path d="M625.964 505.123C625.672 503.733 624.521 501.92 623.024 501.893C622.9 501.897 622.776 501.905 622.649 501.905C613.507 501.905 606.087 493.228 606.087 482.529C606.087 475.699 609.11 469.703 613.675 466.255L614.73 468.712C615.407 469.041 616.424 469.067 617.466 468.734L625.375 457.658L611.58 455C610.579 455.454 609.873 456.147 609.628 456.828L610.93 459.863C604.381 464.506 600 472.914 600 482.527C600 496.772 609.604 508.388 621.649 508.999C623.48 509 626.48 507.607 625.959 505.122" fill="white"/>
<path d="M629.033 458.877C629.328 460.266 630.473 462.079 631.973 462.105C632.098 462.103 632.22 462.095 632.348 462.095C641.493 462.095 648.91 470.772 648.91 481.471C648.91 488.302 645.883 494.297 641.318 497.745L640.262 495.289C639.591 494.96 638.572 494.935 637.53 495.267L629.617 506.343L643.42 509C644.421 508.546 645.125 507.853 645.372 507.172L644.07 504.136C650.619 499.497 655 491.085 655 481.472C655 467.227 645.392 455.611 633.351 455C631.519 454.999 628.516 456.391 629.041 458.877" fill="white"/>
<path d="M254.402 302H215.174V194.598L215.555 176.951L216.189 157.654C209.673 164.171 205.145 168.445 202.605 170.477L181.277 187.615L162.361 164.002L222.156 116.395H254.402V302ZM428.455 157.908C428.455 169.503 424.943 179.363 417.918 187.488C410.893 195.613 401.033 201.199 388.338 204.246V205.008C403.318 206.87 414.66 211.44 422.361 218.719C430.063 225.913 433.914 235.646 433.914 247.918C433.914 265.776 427.439 279.699 414.49 289.686C401.541 299.588 383.048 304.539 359.012 304.539C338.868 304.539 321.01 301.196 305.438 294.51V261.121C312.632 264.76 320.545 267.723 329.178 270.008C337.811 272.293 346.359 273.436 354.822 273.436C367.771 273.436 377.335 271.235 383.514 266.834C389.692 262.433 392.781 255.366 392.781 245.633C392.781 236.915 389.227 230.737 382.117 227.098C375.008 223.458 363.667 221.639 348.094 221.639H334.002V191.551H348.348C362.736 191.551 373.23 189.689 379.832 185.965C386.518 182.156 389.861 175.682 389.861 166.541C389.861 152.492 381.059 145.467 363.455 145.467C357.361 145.467 351.141 146.482 344.793 148.514C338.53 150.545 331.548 154.057 323.846 159.051L305.691 132.01C322.618 119.822 342.804 113.729 366.248 113.729C385.46 113.729 400.61 117.622 411.697 125.408C422.869 133.195 428.455 144.028 428.455 157.908ZM472.889 302L542.586 149.656H451.053V116.648H584.227V141.277L514.021 302H472.889Z" fill="white"/>
<path d="M151.57 11.7344H162.234C167.094 11.7344 170.617 12.4297 172.805 13.8203C175.008 15.1953 176.109 17.3906 176.109 20.4062C176.109 22.4531 175.625 24.1328 174.656 25.4453C173.703 26.7578 172.43 27.5469 170.836 27.8125V28.0469C173.008 28.5312 174.57 29.4375 175.523 30.7656C176.492 32.0938 176.977 33.8594 176.977 36.0625C176.977 39.1875 175.844 41.625 173.578 43.375C171.328 45.125 168.266 46 164.391 46H151.57V11.7344ZM158.836 25.3047H163.055C165.023 25.3047 166.445 25 167.32 24.3906C168.211 23.7812 168.656 22.7734 168.656 21.3672C168.656 20.0547 168.172 19.1172 167.203 18.5547C166.25 17.9766 164.734 17.6875 162.656 17.6875H158.836V25.3047ZM158.836 31.0703V40H163.57C165.57 40 167.047 39.6172 168 38.8516C168.953 38.0859 169.43 36.9141 169.43 35.3359C169.43 32.4922 167.398 31.0703 163.336 31.0703H158.836ZM193.898 46.4688C185.742 46.4688 181.664 41.9922 181.664 33.0391C181.664 28.5859 182.773 25.1875 184.992 22.8438C187.211 20.4844 190.391 19.3047 194.531 19.3047C197.562 19.3047 200.281 19.8984 202.688 21.0859L200.578 26.6172C199.453 26.1641 198.406 25.7969 197.438 25.5156C196.469 25.2188 195.5 25.0703 194.531 25.0703C190.812 25.0703 188.953 27.7109 188.953 32.9922C188.953 38.1172 190.812 40.6797 194.531 40.6797C195.906 40.6797 197.18 40.5 198.352 40.1406C199.523 39.7656 200.695 39.1875 201.867 38.4062V44.5234C200.711 45.2578 199.539 45.7656 198.352 46.0469C197.18 46.3281 195.695 46.4688 193.898 46.4688ZM218.812 24.3906C217.297 24.3906 216.109 24.875 215.25 25.8438C214.391 26.7969 213.898 28.1562 213.773 29.9219H223.805C223.773 28.1562 223.312 26.7969 222.422 25.8438C221.531 24.875 220.328 24.3906 218.812 24.3906ZM219.82 46.4688C215.602 46.4688 212.305 45.3047 209.93 42.9766C207.555 40.6484 206.367 37.3516 206.367 33.0859C206.367 28.6953 207.461 25.3047 209.648 22.9141C211.852 20.5078 214.891 19.3047 218.766 19.3047C222.469 19.3047 225.352 20.3594 227.414 22.4688C229.477 24.5781 230.508 27.4922 230.508 31.2109V34.6797H213.609C213.688 36.7109 214.289 38.2969 215.414 39.4375C216.539 40.5781 218.117 41.1484 220.148 41.1484C221.727 41.1484 223.219 40.9844 224.625 40.6562C226.031 40.3281 227.5 39.8047 229.031 39.0859V44.6172C227.781 45.2422 226.445 45.7031 225.023 46C223.602 46.3125 221.867 46.4688 219.82 46.4688ZM254.414 19.7969V25.1641H243.469V46H236.32V19.7969H254.414ZM264.984 32.8516C264.984 35.4453 265.406 37.4062 266.25 38.7344C267.109 40.0625 268.5 40.7266 270.422 40.7266C272.328 40.7266 273.695 40.0703 274.523 38.7578C275.367 37.4297 275.789 35.4609 275.789 32.8516C275.789 30.2578 275.367 28.3125 274.523 27.0156C273.68 25.7188 272.297 25.0703 270.375 25.0703C268.469 25.0703 267.094 25.7188 266.25 27.0156C265.406 28.2969 264.984 30.2422 264.984 32.8516ZM283.102 32.8516C283.102 37.1172 281.977 40.4531 279.727 42.8594C277.477 45.2656 274.344 46.4688 270.328 46.4688C267.812 46.4688 265.594 45.9219 263.672 44.8281C261.75 43.7188 260.273 42.1328 259.242 40.0703C258.211 38.0078 257.695 35.6016 257.695 32.8516C257.695 28.5703 258.812 25.2422 261.047 22.8672C263.281 20.4922 266.422 19.3047 270.469 19.3047C272.984 19.3047 275.203 19.8516 277.125 20.9453C279.047 22.0391 280.523 23.6094 281.555 25.6562C282.586 27.7031 283.102 30.1016 283.102 32.8516ZM307.992 29.875C310.695 29.875 312.609 29.6562 313.734 29.2188C314.875 28.7812 315.445 28.0859 315.445 27.1328C315.445 26.2891 315.031 25.6562 314.203 25.2344C313.375 24.8125 312.008 24.6016 310.102 24.6016C308.898 24.6016 307.531 24.75 306 25.0469C304.484 25.3438 303.102 25.75 301.852 26.2656L299.742 21.2734C301.602 20.5703 303.406 20.0703 305.156 19.7734C306.906 19.4609 308.859 19.3047 311.016 19.3047C314.281 19.3047 316.898 19.9297 318.867 21.1797C320.836 22.4297 321.82 24.125 321.82 26.2656C321.82 29.2188 320.078 31.1406 316.594 32.0312V32.2656C318.734 32.7969 320.258 33.5547 321.164 34.5391C322.086 35.5078 322.547 36.7812 322.547 38.3594C322.547 39.9531 322.031 41.3672 321 42.6016C319.969 43.8359 318.477 44.7891 316.523 45.4609C314.57 46.1328 312.273 46.4688 309.633 46.4688C305.258 46.4688 301.898 45.9297 299.555 44.8516V38.9453C300.898 39.5703 302.367 40.0625 303.961 40.4219C305.57 40.7812 307.125 40.9609 308.625 40.9609C310.953 40.9609 312.695 40.7031 313.852 40.1875C315.008 39.6562 315.586 38.9062 315.586 37.9375C315.586 36.875 314.977 36.0938 313.758 35.5938C312.539 35.0781 310.664 34.8203 308.133 34.8203H305.367V29.875H307.992ZM352.336 26.6641C352.336 28.0703 351.891 29.2734 351 30.2734C350.125 31.2578 348.828 31.8906 347.109 32.1719V32.3594C348.969 32.5781 350.438 33.2188 351.516 34.2812C352.609 35.3281 353.156 36.625 353.156 38.1719C353.156 40.7188 352.156 42.6641 350.156 44.0078C348.156 45.3359 345.297 46 341.578 46H328.148V19.7969H341.578C345.172 19.7969 347.859 20.3828 349.641 21.5547C351.438 22.7109 352.336 24.4141 352.336 26.6641ZM345.75 37.7969C345.75 36.7656 345.352 36.0234 344.555 35.5703C343.758 35.1016 342.562 34.8672 340.969 34.8672H335.297V41.0547H341.109C342.625 41.0547 343.773 40.7734 344.555 40.2109C345.352 39.6328 345.75 38.8281 345.75 37.7969ZM345.094 27.2266C345.094 25.6328 343.828 24.8359 341.297 24.8359H335.297V30.0156H340.477C341.992 30.0156 343.141 29.7969 343.922 29.3594C344.703 28.9219 345.094 28.2109 345.094 27.2266ZM364.547 32.8516C364.547 35.4453 364.969 37.4062 365.812 38.7344C366.672 40.0625 368.062 40.7266 369.984 40.7266C371.891 40.7266 373.258 40.0703 374.086 38.7578C374.93 37.4297 375.352 35.4609 375.352 32.8516C375.352 30.2578 374.93 28.3125 374.086 27.0156C373.242 25.7188 371.859 25.0703 369.938 25.0703C368.031 25.0703 366.656 25.7188 365.812 27.0156C364.969 28.2969 364.547 30.2422 364.547 32.8516ZM382.664 32.8516C382.664 37.1172 381.539 40.4531 379.289 42.8594C377.039 45.2656 373.906 46.4688 369.891 46.4688C367.375 46.4688 365.156 45.9219 363.234 44.8281C361.312 43.7188 359.836 42.1328 358.805 40.0703C357.773 38.0078 357.258 35.6016 357.258 32.8516C357.258 28.5703 358.375 25.2422 360.609 22.8672C362.844 20.4922 365.984 19.3047 370.031 19.3047C372.547 19.3047 374.766 19.8516 376.688 20.9453C378.609 22.0391 380.086 23.6094 381.117 25.6562C382.148 27.7031 382.664 30.1016 382.664 32.8516ZM395.719 19.7969V29.875H405.703V19.7969H412.852V46H405.703V35.1953H395.719V46H388.57V19.7969H395.719ZM437.531 19.7969H445.406L435.023 32.3594L446.32 46H438.211L427.5 32.7109V46H420.352V19.7969H427.5V32.5234L437.531 19.7969ZM455.766 32.8516C455.766 35.4453 456.188 37.4062 457.031 38.7344C457.891 40.0625 459.281 40.7266 461.203 40.7266C463.109 40.7266 464.477 40.0703 465.305 38.7578C466.148 37.4297 466.57 35.4609 466.57 32.8516C466.57 30.2578 466.148 28.3125 465.305 27.0156C464.461 25.7188 463.078 25.0703 461.156 25.0703C459.25 25.0703 457.875 25.7188 457.031 27.0156C456.188 28.2969 455.766 30.2422 455.766 32.8516ZM473.883 32.8516C473.883 37.1172 472.758 40.4531 470.508 42.8594C468.258 45.2656 465.125 46.4688 461.109 46.4688C458.594 46.4688 456.375 45.9219 454.453 44.8281C452.531 43.7188 451.055 42.1328 450.023 40.0703C448.992 38.0078 448.477 35.6016 448.477 32.8516C448.477 28.5703 449.594 25.2422 451.828 22.8672C454.062 20.4922 457.203 19.3047 461.25 19.3047C463.766 19.3047 465.984 19.8516 467.906 20.9453C469.828 22.0391 471.305 23.6094 472.336 25.6562C473.367 27.7031 473.883 30.1016 473.883 32.8516ZM503.977 26.6641C503.977 28.0703 503.531 29.2734 502.641 30.2734C501.766 31.2578 500.469 31.8906 498.75 32.1719V32.3594C500.609 32.5781 502.078 33.2188 503.156 34.2812C504.25 35.3281 504.797 36.625 504.797 38.1719C504.797 40.7188 503.797 42.6641 501.797 44.0078C499.797 45.3359 496.938 46 493.219 46H479.789V19.7969H493.219C496.812 19.7969 499.5 20.3828 501.281 21.5547C503.078 22.7109 503.977 24.4141 503.977 26.6641ZM497.391 37.7969C497.391 36.7656 496.992 36.0234 496.195 35.5703C495.398 35.1016 494.203 34.8672 492.609 34.8672H486.938V41.0547H492.75C494.266 41.0547 495.414 40.7734 496.195 40.2109C496.992 39.6328 497.391 38.8281 497.391 37.7969ZM496.734 27.2266C496.734 25.6328 495.469 24.8359 492.938 24.8359H486.938V30.0156H492.117C493.633 30.0156 494.781 29.7969 495.562 29.3594C496.344 28.9219 496.734 28.2109 496.734 27.2266Z" fill="white"/>
<path d="M90.7 16.2C92.8482 16.2 94.9085 17.0534 96.4276 18.5724C97.9466 20.0915 98.8 22.1517 98.8 24.3C98.8 25.0161 99.0845 25.7028 99.5908 26.2092C100.097 26.7155 100.784 27 101.5 27C102.216 27 102.903 26.7155 103.409 26.2092C103.916 25.7028 104.2 25.0161 104.2 24.3C104.2 20.7196 102.778 17.2858 100.246 14.7541C97.7142 12.2223 94.2804 10.8 90.7 10.8C89.9839 10.8 89.2972 11.0845 88.7908 11.5908C88.2845 12.0972 88 12.7839 88 13.5C88 14.2161 88.2845 14.9028 88.7908 15.4092C89.2972 15.9155 89.9839 16.2 90.7 16.2Z" fill="white"/>
<path d="M90.7 5.4C95.7126 5.4 100.52 7.39124 104.064 10.9357C107.609 14.4801 109.6 19.2874 109.6 24.3C109.6 25.0161 109.884 25.7028 110.391 26.2092C110.897 26.7155 111.584 27 112.3 27C113.016 27 113.703 26.7155 114.209 26.2092C114.716 25.7028 115 25.0161 115 24.3C115 17.8552 112.44 11.6744 107.883 7.1173C103.326 2.56017 97.1448 0 90.7 0C89.9839 0 89.2972 0.284463 88.7908 0.790812C88.2845 1.29716 88 1.98392 88 2.7C88 3.41608 88.2845 4.10284 88.7908 4.60919C89.2972 5.11554 89.9839 5.4 90.7 5.4ZM114.325 37.557C114.176 37.1236 113.92 36.735 113.58 36.428C113.24 36.121 112.827 35.9056 112.381 35.802L96.181 32.103C95.7413 32.0033 95.2836 32.0153 94.8497 32.1379C94.4158 32.2606 94.0195 32.4899 93.697 32.805C93.319 33.156 93.292 33.183 91.537 36.531C85.7136 33.8476 81.0475 29.1623 78.388 23.328C81.817 21.6 81.844 21.6 82.195 21.195C82.5101 20.8725 82.7394 20.4762 82.8621 20.0423C82.9847 19.6084 82.9967 19.1507 82.897 18.711L79.198 2.7C79.0944 2.25368 78.879 1.84105 78.572 1.50096C78.265 1.16087 77.8764 0.904506 77.443 0.756C76.8125 0.530791 76.1613 0.368011 75.499 0.27C74.8166 0.111767 74.1202 0.0213282 73.42 0C70.126 0 66.9669 1.30853 64.6377 3.63773C62.3085 5.96694 61 9.12601 61 12.42C61.0143 23.4433 65.3996 34.0111 73.1943 41.8057C80.9889 49.6004 91.5567 53.9857 102.58 54C104.211 54 105.826 53.6787 107.333 53.0546C108.84 52.4304 110.209 51.5156 111.362 50.3623C112.516 49.209 113.43 47.8398 114.055 46.3329C114.679 44.8261 115 43.211 115 41.58C115.001 40.8928 114.947 40.2066 114.838 39.528C114.725 38.8574 114.553 38.1979 114.325 37.557Z" fill="white"/>
<path d="M1142.4 302H1103.17V194.598L1103.55 176.951L1104.19 157.654C1097.67 164.171 1093.14 168.445 1090.61 170.477L1069.28 187.615L1050.36 164.002L1110.16 116.395H1142.4V302ZM1316.46 157.908C1316.46 169.503 1312.94 179.363 1305.92 187.488C1298.89 195.613 1289.03 201.199 1276.34 204.246V205.008C1291.32 206.87 1302.66 211.44 1310.36 218.719C1318.06 225.913 1321.91 235.646 1321.91 247.918C1321.91 265.776 1315.44 279.699 1302.49 289.686C1289.54 299.588 1271.05 304.539 1247.01 304.539C1226.87 304.539 1209.01 301.196 1193.44 294.51V261.121C1200.63 264.76 1208.54 267.723 1217.18 270.008C1225.81 272.293 1234.36 273.436 1242.82 273.436C1255.77 273.436 1265.34 271.235 1271.51 266.834C1277.69 262.433 1280.78 255.366 1280.78 245.633C1280.78 236.915 1277.23 230.737 1270.12 227.098C1263.01 223.458 1251.67 221.639 1236.09 221.639H1222V191.551H1236.35C1250.74 191.551 1261.23 189.689 1267.83 185.965C1274.52 182.156 1277.86 175.682 1277.86 166.541C1277.86 152.492 1269.06 145.467 1251.46 145.467C1245.36 145.467 1239.14 146.482 1232.79 148.514C1226.53 150.545 1219.55 154.057 1211.85 159.051L1193.69 132.01C1210.62 119.822 1230.8 113.729 1254.25 113.729C1273.46 113.729 1288.61 117.622 1299.7 125.408C1310.87 133.195 1316.46 144.028 1316.46 157.908ZM1464.99 157.908C1464.99 169.503 1461.48 179.363 1454.45 187.488C1447.43 195.613 1437.57 201.199 1424.87 204.246V205.008C1439.85 206.87 1451.19 211.44 1458.9 218.719C1466.6 225.913 1470.45 235.646 1470.45 247.918C1470.45 265.776 1463.97 279.699 1451.03 289.686C1438.08 299.588 1419.58 304.539 1395.55 304.539C1375.4 304.539 1357.55 301.196 1341.97 294.51V261.121C1349.17 264.76 1357.08 267.723 1365.71 270.008C1374.35 272.293 1382.89 273.436 1391.36 273.436C1404.31 273.436 1413.87 271.235 1420.05 266.834C1426.23 262.433 1429.32 255.366 1429.32 245.633C1429.32 236.915 1425.76 230.737 1418.65 227.098C1411.54 223.458 1400.2 221.639 1384.63 221.639H1370.54V191.551H1384.88C1399.27 191.551 1409.77 189.689 1416.37 185.965C1423.05 182.156 1426.4 175.682 1426.4 166.541C1426.4 152.492 1417.59 145.467 1399.99 145.467C1393.9 145.467 1387.68 146.482 1381.33 148.514C1375.07 150.545 1368.08 154.057 1360.38 159.051L1342.23 132.01C1359.15 119.822 1379.34 113.729 1402.78 113.729C1422 113.729 1437.15 117.622 1448.23 125.408C1459.4 133.195 1464.99 144.028 1464.99 157.908Z" fill="white"/>
<path d="M1039.77 11.7344H1050.43C1055.29 11.7344 1058.81 12.4297 1061 13.8203C1063.2 15.1953 1064.3 17.3906 1064.3 20.4062C1064.3 22.4531 1063.82 24.1328 1062.85 25.4453C1061.9 26.7578 1060.62 27.5469 1059.03 27.8125V28.0469C1061.2 28.5312 1062.77 29.4375 1063.72 30.7656C1064.69 32.0938 1065.17 33.8594 1065.17 36.0625C1065.17 39.1875 1064.04 41.625 1061.77 43.375C1059.52 45.125 1056.46 46 1052.59 46H1039.77V11.7344ZM1047.03 25.3047H1051.25C1053.22 25.3047 1054.64 25 1055.52 24.3906C1056.41 23.7812 1056.85 22.7734 1056.85 21.3672C1056.85 20.0547 1056.37 19.1172 1055.4 18.5547C1054.45 17.9766 1052.93 17.6875 1050.85 17.6875H1047.03V25.3047ZM1047.03 31.0703V40H1051.77C1053.77 40 1055.24 39.6172 1056.2 38.8516C1057.15 38.0859 1057.62 36.9141 1057.62 35.3359C1057.62 32.4922 1055.59 31.0703 1051.53 31.0703H1047.03ZM1082.09 46.4688C1073.94 46.4688 1069.86 41.9922 1069.86 33.0391C1069.86 28.5859 1070.97 25.1875 1073.19 22.8438C1075.41 20.4844 1078.59 19.3047 1082.73 19.3047C1085.76 19.3047 1088.48 19.8984 1090.88 21.0859L1088.77 26.6172C1087.65 26.1641 1086.6 25.7969 1085.63 25.5156C1084.66 25.2188 1083.7 25.0703 1082.73 25.0703C1079.01 25.0703 1077.15 27.7109 1077.15 32.9922C1077.15 38.1172 1079.01 40.6797 1082.73 40.6797C1084.1 40.6797 1085.38 40.5 1086.55 40.1406C1087.72 39.7656 1088.89 39.1875 1090.06 38.4062V44.5234C1088.91 45.2578 1087.73 45.7656 1086.55 46.0469C1085.38 46.3281 1083.89 46.4688 1082.09 46.4688ZM1107.01 24.3906C1105.49 24.3906 1104.3 24.875 1103.45 25.8438C1102.59 26.7969 1102.09 28.1562 1101.97 29.9219H1112C1111.97 28.1562 1111.51 26.7969 1110.62 25.8438C1109.73 24.875 1108.52 24.3906 1107.01 24.3906ZM1108.02 46.4688C1103.8 46.4688 1100.5 45.3047 1098.12 42.9766C1095.75 40.6484 1094.56 37.3516 1094.56 33.0859C1094.56 28.6953 1095.66 25.3047 1097.84 22.9141C1100.05 20.5078 1103.09 19.3047 1106.96 19.3047C1110.66 19.3047 1113.55 20.3594 1115.61 22.4688C1117.67 24.5781 1118.7 27.4922 1118.7 31.2109V34.6797H1101.8C1101.88 36.7109 1102.48 38.2969 1103.61 39.4375C1104.73 40.5781 1106.31 41.1484 1108.34 41.1484C1109.92 41.1484 1111.41 40.9844 1112.82 40.6562C1114.23 40.3281 1115.7 39.8047 1117.23 39.0859V44.6172C1115.98 45.2422 1114.64 45.7031 1113.22 46C1111.8 46.3125 1110.06 46.4688 1108.02 46.4688ZM1142.61 19.7969V25.1641H1131.66V46H1124.52V19.7969H1142.61ZM1153.18 32.8516C1153.18 35.4453 1153.6 37.4062 1154.45 38.7344C1155.3 40.0625 1156.7 40.7266 1158.62 40.7266C1160.52 40.7266 1161.89 40.0703 1162.72 38.7578C1163.56 37.4297 1163.98 35.4609 1163.98 32.8516C1163.98 30.2578 1163.56 28.3125 1162.72 27.0156C1161.88 25.7188 1160.49 25.0703 1158.57 25.0703C1156.66 25.0703 1155.29 25.7188 1154.45 27.0156C1153.6 28.2969 1153.18 30.2422 1153.18 32.8516ZM1171.3 32.8516C1171.3 37.1172 1170.17 40.4531 1167.92 42.8594C1165.67 45.2656 1162.54 46.4688 1158.52 46.4688C1156.01 46.4688 1153.79 45.9219 1151.87 44.8281C1149.95 43.7188 1148.47 42.1328 1147.44 40.0703C1146.41 38.0078 1145.89 35.6016 1145.89 32.8516C1145.89 28.5703 1147.01 25.2422 1149.24 22.8672C1151.48 20.4922 1154.62 19.3047 1158.66 19.3047C1161.18 19.3047 1163.4 19.8516 1165.32 20.9453C1167.24 22.0391 1168.72 23.6094 1169.75 25.6562C1170.78 27.7031 1171.3 30.1016 1171.3 32.8516ZM1200.31 46.4688C1192.16 46.4688 1188.08 41.9922 1188.08 33.0391C1188.08 28.5859 1189.19 25.1875 1191.41 22.8438C1193.62 20.4844 1196.8 19.3047 1200.95 19.3047C1203.98 19.3047 1206.7 19.8984 1209.1 21.0859L1206.99 26.6172C1205.87 26.1641 1204.82 25.7969 1203.85 25.5156C1202.88 25.2188 1201.91 25.0703 1200.95 25.0703C1197.23 25.0703 1195.37 27.7109 1195.37 32.9922C1195.37 38.1172 1197.23 40.6797 1200.95 40.6797C1202.32 40.6797 1203.59 40.5 1204.77 40.1406C1205.94 39.7656 1207.11 39.1875 1208.28 38.4062V44.5234C1207.12 45.2578 1205.95 45.7656 1204.77 46.0469C1203.59 46.3281 1202.11 46.4688 1200.31 46.4688ZM1220.07 32.8516C1220.07 35.4453 1220.49 37.4062 1221.34 38.7344C1222.2 40.0625 1223.59 40.7266 1225.51 40.7266C1227.41 40.7266 1228.78 40.0703 1229.61 38.7578C1230.45 37.4297 1230.88 35.4609 1230.88 32.8516C1230.88 30.2578 1230.45 28.3125 1229.61 27.0156C1228.77 25.7188 1227.38 25.0703 1225.46 25.0703C1223.55 25.0703 1222.18 25.7188 1221.34 27.0156C1220.49 28.2969 1220.07 30.2422 1220.07 32.8516ZM1238.19 32.8516C1238.19 37.1172 1237.06 40.4531 1234.81 42.8594C1232.56 45.2656 1229.43 46.4688 1225.41 46.4688C1222.9 46.4688 1220.68 45.9219 1218.76 44.8281C1216.84 43.7188 1215.36 42.1328 1214.33 40.0703C1213.3 38.0078 1212.78 35.6016 1212.78 32.8516C1212.78 28.5703 1213.9 25.2422 1216.13 22.8672C1218.37 20.4922 1221.51 19.3047 1225.55 19.3047C1228.07 19.3047 1230.29 19.8516 1232.21 20.9453C1234.13 22.0391 1235.61 23.6094 1236.64 25.6562C1237.67 27.7031 1238.19 30.1016 1238.19 32.8516ZM1249.79 32.8516C1249.79 35.4453 1250.21 37.4062 1251.05 38.7344C1251.91 40.0625 1253.3 40.7266 1255.23 40.7266C1257.13 40.7266 1258.5 40.0703 1259.33 38.7578C1260.17 37.4297 1260.59 35.4609 1260.59 32.8516C1260.59 30.2578 1260.17 28.3125 1259.33 27.0156C1258.48 25.7188 1257.1 25.0703 1255.18 25.0703C1253.27 25.0703 1251.9 25.7188 1251.05 27.0156C1250.21 28.2969 1249.79 30.2422 1249.79 32.8516ZM1267.91 32.8516C1267.91 37.1172 1266.78 40.4531 1264.53 42.8594C1262.28 45.2656 1259.15 46.4688 1255.13 46.4688C1252.62 46.4688 1250.4 45.9219 1248.48 44.8281C1246.55 43.7188 1245.08 42.1328 1244.05 40.0703C1243.02 38.0078 1242.5 35.6016 1242.5 32.8516C1242.5 28.5703 1243.62 25.2422 1245.85 22.8672C1248.09 20.4922 1251.23 19.3047 1255.27 19.3047C1257.79 19.3047 1260.01 19.8516 1261.93 20.9453C1263.85 22.0391 1265.33 23.6094 1266.36 25.6562C1267.39 27.7031 1267.91 30.1016 1267.91 32.8516ZM1272.22 30.2969C1272.22 24.2812 1273.36 19.7188 1275.64 16.6094C1277.94 13.4844 1281.52 11.5078 1286.38 10.6797C1288.73 10.2734 1292.26 9.75781 1296.95 9.13281L1297.77 15.3672C1295.73 15.6016 1292.13 16.1016 1286.96 16.8672C1284.99 17.1797 1283.52 17.6484 1282.55 18.2734C1281.59 18.8984 1280.86 19.7891 1280.38 20.9453C1279.91 22.1016 1279.62 23.6406 1279.51 25.5625H1279.86C1280.69 24.2812 1281.78 23.2969 1283.14 22.6094C1284.5 21.9219 1285.96 21.5781 1287.52 21.5781C1290.76 21.5781 1293.27 22.5703 1295.07 24.5547C1296.87 26.5234 1297.77 29.3516 1297.77 33.0391C1297.77 37.2891 1296.62 40.5938 1294.34 42.9531C1292.08 45.2969 1288.95 46.4688 1284.95 46.4688C1280.95 46.4688 1277.82 45.0391 1275.57 42.1797C1273.34 39.3047 1272.22 35.3438 1272.22 30.2969ZM1285.37 40.6797C1288.76 40.6797 1290.45 38.3438 1290.45 33.6719C1290.45 29.125 1288.92 26.8516 1285.86 26.8516C1285.02 26.8516 1284.17 27.0469 1283.33 27.4375C1282.5 27.8281 1281.73 28.3438 1281.03 28.9844C1280.34 29.6094 1279.84 30.2422 1279.51 30.8828C1279.51 34.0547 1280.02 36.4844 1281.03 38.1719C1282.05 39.8438 1283.49 40.6797 1285.37 40.6797ZM1342.7 40.7734H1346.54V55.3984H1340.09V46H1303.67V19.7969H1310.82V40.6328H1319.61V19.7969H1326.76V40.6328H1335.55V19.7969H1342.7V40.7734ZM1361.82 24.3906C1360.3 24.3906 1359.12 24.875 1358.26 25.8438C1357.4 26.7969 1356.91 28.1562 1356.78 29.9219H1366.81C1366.78 28.1562 1366.32 26.7969 1365.43 25.8438C1364.54 24.875 1363.34 24.3906 1361.82 24.3906ZM1362.83 46.4688C1358.61 46.4688 1355.31 45.3047 1352.94 42.9766C1350.56 40.6484 1349.38 37.3516 1349.38 33.0859C1349.38 28.6953 1350.47 25.3047 1352.66 22.9141C1354.86 20.5078 1357.9 19.3047 1361.77 19.3047C1365.48 19.3047 1368.36 20.3594 1370.42 22.4688C1372.48 24.5781 1373.52 27.4922 1373.52 31.2109V34.6797H1356.62C1356.7 36.7109 1357.3 38.2969 1358.42 39.4375C1359.55 40.5781 1361.12 41.1484 1363.16 41.1484C1364.73 41.1484 1366.23 40.9844 1367.63 40.6562C1369.04 40.3281 1370.51 39.8047 1372.04 39.0859V44.6172C1370.79 45.2422 1369.45 45.7031 1368.03 46C1366.61 46.3125 1364.88 46.4688 1362.83 46.4688ZM1386.48 19.7969V29.875H1396.46V19.7969H1403.61V46H1396.46V35.1953H1386.48V46H1379.33V19.7969H1386.48ZM1418.02 19.7969V30.1562C1418.02 31.25 1417.84 33.9219 1417.48 38.1719L1429.58 19.7969H1438.18V46H1431.27V35.5469C1431.27 33.6875 1431.42 31.0625 1431.73 27.6719L1419.69 46H1411.11V19.7969H1418.02ZM1452.62 19.7969V30.1562C1452.62 31.25 1452.44 33.9219 1452.08 38.1719L1464.17 19.7969H1472.77V46H1465.86V35.5469C1465.86 33.6875 1466.02 31.0625 1466.33 27.6719L1454.28 46H1445.7V19.7969H1452.62ZM1470.66 8.52344C1470.37 11.4453 1469.27 13.5781 1467.36 14.9219C1465.45 16.25 1462.7 16.9141 1459.11 16.9141C1455.41 16.9141 1452.66 16.2734 1450.88 14.9922C1449.12 13.7109 1448.12 11.5547 1447.91 8.52344H1454.3C1454.41 10.1328 1454.81 11.2656 1455.5 11.9219C1456.2 12.5625 1457.45 12.8828 1459.25 12.8828C1460.83 12.8828 1462 12.5312 1462.77 11.8281C1463.55 11.1094 1464.02 10.0078 1464.2 8.52344H1470.66Z" fill="white"/>
<path d="M1003 9.85714V33.8571C1003 37.6286 999.906 40.7143 996.125 40.7143H982.375V51L968.625 40.7143H954.875C951.09 40.7143 948 37.6286 948 33.8571V9.85714C948 6.08571 951.09 3 954.875 3H996.125C999.906 3 1003 6.08571 1003 9.85714Z" fill="white"/>
<path d="M1590 391.999C986.751 391.999 603.249 392 0 392" stroke="#275D81" stroke-width="2"/>
<path d="M795 290.676C795 -312.574 795 629 795 128" stroke="#275D81" stroke-width="2"/>
<path d="M967.516 846.678C967.516 832.55 970.494 822.036 976.451 815.135C982.441 808.234 991.393 804.783 1003.31 804.783C1007.38 804.783 1010.57 805.027 1012.88 805.516V817.576C1009.98 816.925 1007.12 816.6 1004.28 816.6C999.107 816.6 994.876 817.381 991.588 818.943C988.333 820.506 985.891 822.817 984.264 825.877C982.636 828.937 981.676 833.283 981.383 838.914H982.018C985.24 833.38 990.4 830.613 997.496 830.613C1003.88 830.613 1008.87 832.615 1012.49 836.619C1016.1 840.623 1017.91 846.157 1017.91 853.221C1017.91 860.838 1015.76 866.876 1011.46 871.336C1007.16 875.763 1001.21 877.977 993.59 877.977C988.316 877.977 983.71 876.756 979.771 874.314C975.865 871.873 972.838 868.309 970.689 863.621C968.574 858.934 967.516 853.286 967.516 846.678ZM993.297 865.916C996.52 865.916 998.993 864.842 1000.72 862.693C1002.44 860.512 1003.31 857.42 1003.31 853.416C1003.31 849.933 1002.49 847.199 1000.87 845.213C999.27 843.195 996.845 842.186 993.59 842.186C990.53 842.186 987.91 843.178 985.729 845.164C983.58 847.15 982.506 849.461 982.506 852.098C982.506 855.971 983.515 859.243 985.533 861.912C987.584 864.581 990.172 865.916 993.297 865.916ZM1043.54 866.502C1041.85 873.077 1038.98 880.874 1034.95 889.891H1024.21C1026.32 881.232 1027.96 873.061 1029.14 865.379H1042.81L1043.54 866.502ZM1080.11 831.395C1087.01 831.395 1092.5 833.331 1096.57 837.205C1100.67 841.079 1102.72 846.385 1102.72 853.123C1102.72 861.098 1100.26 867.234 1095.35 871.531C1090.43 875.828 1083.4 877.977 1074.25 877.977C1066.31 877.977 1059.9 876.691 1055.02 874.119V861.082C1057.59 862.449 1060.58 863.572 1064 864.451C1067.42 865.298 1070.66 865.721 1073.72 865.721C1082.93 865.721 1087.54 861.945 1087.54 854.393C1087.54 847.199 1082.77 843.602 1073.23 843.602C1071.5 843.602 1069.6 843.781 1067.52 844.139C1065.43 844.464 1063.74 844.822 1062.44 845.213L1056.43 841.99L1059.12 805.613H1097.84V818.406H1072.35L1071.03 832.42L1072.74 832.078C1074.73 831.622 1077.18 831.395 1080.11 831.395ZM1154.14 822.41V842.381C1154.14 847.133 1156.33 849.51 1160.73 849.51C1163.59 849.51 1166.25 849.184 1168.69 848.533C1171.16 847.882 1173.65 847.036 1176.16 845.994V822.41H1191.05V877H1176.16V855.32C1172.71 857.143 1169.5 858.429 1166.54 859.178C1163.58 859.926 1160.71 860.301 1157.95 860.301C1151.99 860.301 1147.38 858.787 1144.13 855.76C1140.87 852.7 1139.24 848.354 1139.24 842.723V822.41H1154.14Z" fill="#FFBB00"/>
<path d="M975.792 744.056C974.083 744.056 972.76 744.7 971.822 745.989C970.885 747.269 970.416 749.056 970.416 751.351C970.416 756.126 972.208 758.514 975.792 758.514C977.296 758.514 979.117 758.138 981.256 757.386V761.194C979.498 761.927 977.535 762.293 975.367 762.293C972.252 762.293 969.869 761.351 968.219 759.466C966.568 757.571 965.743 754.856 965.743 751.321C965.743 749.095 966.148 747.146 966.959 745.477C967.77 743.797 968.932 742.513 970.445 741.624C971.969 740.726 973.751 740.276 975.792 740.276C977.872 740.276 979.962 740.779 982.062 741.785L980.597 745.477C979.796 745.096 978.99 744.764 978.18 744.48C977.369 744.197 976.573 744.056 975.792 744.056ZM994.469 762.293C992.545 762.293 991.036 761.595 989.942 760.198H989.708C989.864 761.565 989.942 762.356 989.942 762.571V769.207H985.475V745.623H989.107L989.737 747.747H989.942C990.987 746.126 992.535 745.315 994.586 745.315C996.52 745.315 998.033 746.062 999.127 747.557C1000.22 749.051 1000.77 751.126 1000.77 753.782C1000.77 755.53 1000.51 757.049 999.991 758.338C999.483 759.627 998.756 760.608 997.809 761.282C996.861 761.956 995.748 762.293 994.469 762.293ZM993.15 748.89C992.047 748.89 991.241 749.231 990.733 749.915C990.226 750.589 989.962 751.707 989.942 753.27V753.753C989.942 755.511 990.201 756.771 990.719 757.532C991.246 758.294 992.076 758.675 993.209 758.675C995.211 758.675 996.212 757.024 996.212 753.724C996.212 752.112 995.963 750.906 995.465 750.105C994.977 749.295 994.205 748.89 993.15 748.89ZM1011.24 748.494C1010.29 748.494 1009.55 748.797 1009.01 749.402C1008.48 749.998 1008.17 750.848 1008.09 751.951H1014.36C1014.34 750.848 1014.05 749.998 1013.5 749.402C1012.94 748.797 1012.19 748.494 1011.24 748.494ZM1011.87 762.293C1009.23 762.293 1007.17 761.565 1005.69 760.11C1004.21 758.655 1003.46 756.595 1003.46 753.929C1003.46 751.185 1004.15 749.065 1005.51 747.571C1006.89 746.067 1008.79 745.315 1011.21 745.315C1013.53 745.315 1015.33 745.975 1016.62 747.293C1017.91 748.611 1018.55 750.433 1018.55 752.757V754.925H1007.99C1008.04 756.194 1008.41 757.186 1009.12 757.898C1009.82 758.611 1010.81 758.968 1012.08 758.968C1013.06 758.968 1014 758.865 1014.87 758.66C1015.75 758.455 1016.67 758.128 1017.63 757.679V761.136C1016.85 761.526 1016.01 761.814 1015.12 762C1014.23 762.195 1013.15 762.293 1011.87 762.293ZM1032.44 758.733V748.978H1029.08C1028.84 750.794 1028.5 752.518 1028.07 754.148C1027.65 755.779 1027.07 757.308 1026.31 758.733H1032.44ZM1039.31 767.874H1035.29V762H1024.28V767.874H1020.26V758.733H1021.64C1022.58 757.278 1023.37 755.442 1024 753.226C1024.63 751.009 1025.08 748.475 1025.33 745.623H1036.91V758.733H1039.31V767.874ZM1046.57 745.623V751.922H1052.81V745.623H1057.28V762H1052.81V755.247H1046.57V762H1042.11V745.623H1046.57ZM1068.75 748.494C1067.8 748.494 1067.06 748.797 1066.52 749.402C1065.99 749.998 1065.68 750.848 1065.6 751.951H1071.87C1071.85 750.848 1071.56 749.998 1071.01 749.402C1070.45 748.797 1069.7 748.494 1068.75 748.494ZM1069.38 762.293C1066.74 762.293 1064.68 761.565 1063.2 760.11C1061.71 758.655 1060.97 756.595 1060.97 753.929C1060.97 751.185 1061.66 749.065 1063.02 747.571C1064.4 746.067 1066.3 745.315 1068.72 745.315C1071.04 745.315 1072.84 745.975 1074.13 747.293C1075.42 748.611 1076.06 750.433 1076.06 752.757V754.925H1065.5C1065.55 756.194 1065.92 757.186 1066.63 757.898C1067.33 758.611 1068.32 758.968 1069.59 758.968C1070.57 758.968 1071.5 758.865 1072.38 758.66C1073.26 758.455 1074.18 758.128 1075.14 757.679V761.136C1074.36 761.526 1073.52 761.814 1072.63 762C1071.74 762.195 1070.66 762.293 1069.38 762.293ZM1086.48 748.494C1085.53 748.494 1084.79 748.797 1084.25 749.402C1083.71 749.998 1083.4 750.848 1083.33 751.951H1089.6C1089.58 750.848 1089.29 749.998 1088.73 749.402C1088.17 748.797 1087.42 748.494 1086.48 748.494ZM1087.11 762.293C1084.47 762.293 1082.41 761.565 1080.92 760.11C1079.44 758.655 1078.7 756.595 1078.7 753.929C1078.7 751.185 1079.38 749.065 1080.75 747.571C1082.12 746.067 1084.02 745.315 1086.45 745.315C1088.76 745.315 1090.56 745.975 1091.85 747.293C1093.14 748.611 1093.79 750.433 1093.79 752.757V754.925H1083.22C1083.27 756.194 1083.65 757.186 1084.35 757.898C1085.05 758.611 1086.04 758.968 1087.31 758.968C1088.3 758.968 1089.23 758.865 1090.11 758.66C1090.99 758.455 1091.91 758.128 1092.86 757.679V761.136C1092.08 761.526 1091.25 761.814 1090.36 762C1089.47 762.195 1088.38 762.293 1087.11 762.293ZM1120.33 749.915C1120.33 750.794 1120.05 751.546 1119.49 752.171C1118.95 752.786 1118.14 753.182 1117.06 753.357V753.475C1118.22 753.611 1119.14 754.012 1119.82 754.676C1120.5 755.33 1120.84 756.141 1120.84 757.107C1120.84 758.699 1120.22 759.915 1118.97 760.755C1117.72 761.585 1115.93 762 1113.6 762H1105.21V745.623H1113.6C1115.85 745.623 1117.53 745.989 1118.64 746.722C1119.77 747.444 1120.33 748.509 1120.33 749.915ZM1116.21 756.873C1116.21 756.229 1115.96 755.765 1115.46 755.481C1114.97 755.188 1114.22 755.042 1113.22 755.042H1109.68V758.909H1113.31C1114.26 758.909 1114.98 758.733 1115.46 758.382C1115.96 758.021 1116.21 757.518 1116.21 756.873ZM1115.8 750.267C1115.8 749.271 1115.01 748.772 1113.43 748.772H1109.68V752.01H1112.92C1113.86 752.01 1114.58 751.873 1115.07 751.6C1115.56 751.326 1115.8 750.882 1115.8 750.267ZM1133.39 762.293C1131.47 762.293 1129.96 761.595 1128.87 760.198H1128.63C1128.79 761.565 1128.87 762.356 1128.87 762.571V769.207H1124.4V745.623H1128.03L1128.66 747.747H1128.87C1129.91 746.126 1131.46 745.315 1133.51 745.315C1135.45 745.315 1136.96 746.062 1138.05 747.557C1139.15 749.051 1139.69 751.126 1139.69 753.782C1139.69 755.53 1139.43 757.049 1138.92 758.338C1138.41 759.627 1137.68 760.608 1136.73 761.282C1135.79 761.956 1134.67 762.293 1133.39 762.293ZM1132.08 748.89C1130.97 748.89 1130.17 749.231 1129.66 749.915C1129.15 750.589 1128.89 751.707 1128.87 753.27V753.753C1128.87 755.511 1129.13 756.771 1129.64 757.532C1130.17 758.294 1131 758.675 1132.13 758.675C1134.14 758.675 1135.14 757.024 1135.14 753.724C1135.14 752.112 1134.89 750.906 1134.39 750.105C1133.9 749.295 1133.13 748.89 1132.08 748.89ZM1150.17 748.494C1149.22 748.494 1148.48 748.797 1147.94 749.402C1147.4 749.998 1147.1 750.848 1147.02 751.951H1153.29C1153.27 750.848 1152.98 749.998 1152.42 749.402C1151.87 748.797 1151.11 748.494 1150.17 748.494ZM1150.8 762.293C1148.16 762.293 1146.1 761.565 1144.62 760.11C1143.13 758.655 1142.39 756.595 1142.39 753.929C1142.39 751.185 1143.07 749.065 1144.44 747.571C1145.82 746.067 1147.72 745.315 1150.14 745.315C1152.45 745.315 1154.25 745.975 1155.54 747.293C1156.83 748.611 1157.48 750.433 1157.48 752.757V754.925H1146.92C1146.96 756.194 1147.34 757.186 1148.04 757.898C1148.75 758.611 1149.73 758.968 1151 758.968C1151.99 758.968 1152.92 758.865 1153.8 758.66C1154.68 758.455 1155.6 758.128 1156.55 757.679V761.136C1155.77 761.526 1154.94 761.814 1154.05 762C1153.16 762.195 1152.08 762.293 1150.8 762.293ZM1181.75 762H1177.57V749.095L1177.34 750.003C1176.81 752.063 1176.34 753.621 1175.92 754.676L1173.02 762H1169.84L1166.9 754.617C1166.48 753.543 1166.03 752.034 1165.55 750.091L1165.27 749.095V762H1161.11V745.623H1167.26L1170.07 752.61C1170.37 753.362 1170.64 754.227 1170.88 755.203C1171.13 756.18 1171.3 757.015 1171.39 757.708C1171.71 756.243 1171.96 755.193 1172.14 754.559C1172.33 753.914 1172.53 753.323 1172.74 752.786C1172.96 752.249 1173.93 749.861 1175.66 745.623H1181.75V762ZM1188.94 762H1184.11L1188.52 755.525C1187.46 755.086 1186.66 754.451 1186.11 753.621C1185.58 752.791 1185.31 751.814 1185.31 750.691C1185.31 749.109 1185.9 747.869 1187.08 746.971C1188.27 746.072 1189.89 745.623 1191.94 745.623H1199.56V762H1195.09V755.906H1192.63L1188.94 762ZM1189.69 750.721C1189.69 751.404 1189.96 751.941 1190.49 752.332C1191.03 752.713 1191.73 752.903 1192.6 752.903H1195.09V748.772H1192.03C1191.3 748.772 1190.72 748.953 1190.3 749.314C1189.89 749.666 1189.69 750.135 1189.69 750.721ZM1215.59 753.782C1215.59 755.403 1215.85 756.629 1216.38 757.459C1216.92 758.289 1217.78 758.704 1218.99 758.704C1220.18 758.704 1221.03 758.294 1221.55 757.474C1222.08 756.644 1222.34 755.413 1222.34 753.782C1222.34 752.161 1222.08 750.945 1221.55 750.135C1221.02 749.324 1220.16 748.919 1218.96 748.919C1217.76 748.919 1216.91 749.324 1216.38 750.135C1215.85 750.936 1215.59 752.151 1215.59 753.782ZM1226.91 753.782C1226.91 756.448 1226.21 758.533 1224.8 760.037C1223.39 761.541 1221.44 762.293 1218.93 762.293C1217.35 762.293 1215.97 761.951 1214.77 761.268C1213.57 760.574 1212.64 759.583 1212 758.294C1211.35 757.005 1211.03 755.501 1211.03 753.782C1211.03 751.106 1211.73 749.026 1213.13 747.542C1214.52 746.058 1216.49 745.315 1219.01 745.315C1220.59 745.315 1221.97 745.657 1223.17 746.341C1224.38 747.024 1225.3 748.006 1225.94 749.285C1226.59 750.564 1226.91 752.063 1226.91 753.782ZM1244.15 745.623V748.978H1238.79V762H1234.32V748.978H1228.95V745.623H1244.15ZM1262.33 749.915C1262.33 750.794 1262.05 751.546 1261.5 752.171C1260.95 752.786 1260.14 753.182 1259.06 753.357V753.475C1260.23 753.611 1261.14 754.012 1261.82 754.676C1262.5 755.33 1262.84 756.141 1262.84 757.107C1262.84 758.699 1262.22 759.915 1260.97 760.755C1259.72 761.585 1257.93 762 1255.61 762H1247.21V745.623H1255.61C1257.85 745.623 1259.53 745.989 1260.65 746.722C1261.77 747.444 1262.33 748.509 1262.33 749.915ZM1258.21 756.873C1258.21 756.229 1257.96 755.765 1257.47 755.481C1256.97 755.188 1256.22 755.042 1255.23 755.042H1251.68V758.909H1255.31C1256.26 758.909 1256.98 758.733 1257.47 758.382C1257.96 758.021 1258.21 757.518 1258.21 756.873ZM1257.8 750.267C1257.8 749.271 1257.01 748.772 1255.43 748.772H1251.68V752.01H1254.92C1255.87 752.01 1256.58 751.873 1257.07 751.6C1257.56 751.326 1257.8 750.882 1257.8 750.267ZM1273.18 748.494C1272.24 748.494 1271.5 748.797 1270.96 749.402C1270.42 749.998 1270.11 750.848 1270.04 751.951H1276.3C1276.29 750.848 1276 749.998 1275.44 749.402C1274.88 748.797 1274.13 748.494 1273.18 748.494ZM1273.81 762.293C1271.18 762.293 1269.12 761.565 1267.63 760.11C1266.15 758.655 1265.41 756.595 1265.41 753.929C1265.41 751.185 1266.09 749.065 1267.46 747.571C1268.83 746.067 1270.73 745.315 1273.16 745.315C1275.47 745.315 1277.27 745.975 1278.56 747.293C1279.85 748.611 1280.49 750.433 1280.49 752.757V754.925H1269.93C1269.98 756.194 1270.36 757.186 1271.06 757.898C1271.76 758.611 1272.75 758.968 1274.02 758.968C1275.01 758.968 1275.94 758.865 1276.82 758.66C1277.7 758.455 1278.61 758.128 1279.57 757.679V761.136C1278.79 761.526 1277.96 761.814 1277.07 762C1276.18 762.195 1275.09 762.293 1273.81 762.293ZM1297.68 745.623V748.978H1292.32V762H1287.85V748.978H1282.47V745.623H1297.68ZM1311.14 762L1310.27 759.773H1310.16C1309.41 760.721 1308.63 761.38 1307.83 761.751C1307.04 762.112 1306 762.293 1304.72 762.293C1303.15 762.293 1301.91 761.844 1301 760.945C1300.1 760.047 1299.65 758.768 1299.65 757.107C1299.65 755.369 1300.26 754.09 1301.47 753.27C1302.69 752.439 1304.53 751.98 1306.98 751.893L1309.82 751.805V751.087C1309.82 749.427 1308.97 748.597 1307.27 748.597C1305.96 748.597 1304.42 748.992 1302.66 749.783L1301.18 746.766C1303.06 745.779 1305.15 745.286 1307.45 745.286C1309.64 745.286 1311.33 745.765 1312.5 746.722C1313.67 747.679 1314.26 749.134 1314.26 751.087V762H1311.14ZM1309.82 754.412L1308.09 754.471C1306.79 754.51 1305.83 754.744 1305.19 755.174C1304.56 755.604 1304.24 756.258 1304.24 757.137C1304.24 758.396 1304.96 759.026 1306.41 759.026C1307.44 759.026 1308.27 758.729 1308.88 758.133C1309.51 757.537 1309.82 756.746 1309.82 755.76V754.412ZM1331.13 745.623V751.922H1337.37V745.623H1341.84V762H1337.37V755.247H1331.13V762H1326.67V745.623H1331.13ZM1356.93 762L1356.07 759.773H1355.95C1355.2 760.721 1354.42 761.38 1353.62 761.751C1352.83 762.112 1351.79 762.293 1350.51 762.293C1348.94 762.293 1347.7 761.844 1346.79 760.945C1345.89 760.047 1345.45 758.768 1345.45 757.107C1345.45 755.369 1346.05 754.09 1347.26 753.27C1348.48 752.439 1350.32 751.98 1352.77 751.893L1355.61 751.805V751.087C1355.61 749.427 1354.76 748.597 1353.06 748.597C1351.75 748.597 1350.22 748.992 1348.45 749.783L1346.97 746.766C1348.85 745.779 1350.94 745.286 1353.24 745.286C1355.44 745.286 1357.12 745.765 1358.29 746.722C1359.46 747.679 1360.05 749.134 1360.05 751.087V762H1356.93ZM1355.61 754.412L1353.88 754.471C1352.58 754.51 1351.62 754.744 1350.98 755.174C1350.35 755.604 1350.03 756.258 1350.03 757.137C1350.03 758.396 1350.75 759.026 1352.2 759.026C1353.23 759.026 1354.06 758.729 1354.67 758.133C1355.3 757.537 1355.61 756.746 1355.61 755.76V754.412ZM1379.11 762.293C1374.01 762.293 1371.46 759.495 1371.46 753.899C1371.46 751.116 1372.15 748.992 1373.54 747.527C1374.93 746.053 1376.92 745.315 1379.5 745.315C1381.4 745.315 1383.1 745.687 1384.6 746.429L1383.28 749.886C1382.58 749.603 1381.92 749.373 1381.32 749.197C1380.71 749.012 1380.11 748.919 1379.5 748.919C1377.18 748.919 1376.02 750.569 1376.02 753.87C1376.02 757.073 1377.18 758.675 1379.5 758.675C1380.36 758.675 1381.16 758.562 1381.89 758.338C1382.62 758.104 1383.36 757.742 1384.09 757.254V761.077C1383.37 761.536 1382.63 761.854 1381.89 762.029C1381.16 762.205 1380.23 762.293 1379.11 762.293ZM1391.46 753.782C1391.46 755.403 1391.72 756.629 1392.25 757.459C1392.78 758.289 1393.65 758.704 1394.85 758.704C1396.05 758.704 1396.9 758.294 1397.42 757.474C1397.95 756.644 1398.21 755.413 1398.21 753.782C1398.21 752.161 1397.95 750.945 1397.42 750.135C1396.89 749.324 1396.03 748.919 1394.83 748.919C1393.63 748.919 1392.77 749.324 1392.25 750.135C1391.72 750.936 1391.46 752.151 1391.46 753.782ZM1402.78 753.782C1402.78 756.448 1402.08 758.533 1400.67 760.037C1399.26 761.541 1397.31 762.293 1394.8 762.293C1393.22 762.293 1391.84 761.951 1390.64 761.268C1389.43 760.574 1388.51 759.583 1387.87 758.294C1387.22 757.005 1386.9 755.501 1386.9 753.782C1386.9 751.106 1387.6 749.026 1389 747.542C1390.39 746.058 1392.35 745.315 1394.88 745.315C1396.46 745.315 1397.84 745.657 1399.04 746.341C1400.25 747.024 1401.17 748.006 1401.81 749.285C1402.46 750.564 1402.78 752.063 1402.78 753.782ZM1410.03 753.782C1410.03 755.403 1410.29 756.629 1410.82 757.459C1411.36 758.289 1412.23 758.704 1413.43 758.704C1414.62 758.704 1415.47 758.294 1415.99 757.474C1416.52 756.644 1416.78 755.413 1416.78 753.782C1416.78 752.161 1416.52 750.945 1415.99 750.135C1415.46 749.324 1414.6 748.919 1413.4 748.919C1412.21 748.919 1411.35 749.324 1410.82 750.135C1410.29 750.936 1410.03 752.151 1410.03 753.782ZM1421.35 753.782C1421.35 756.448 1420.65 758.533 1419.24 760.037C1417.84 761.541 1415.88 762.293 1413.37 762.293C1411.8 762.293 1410.41 761.951 1409.21 761.268C1408.01 760.574 1407.09 759.583 1406.44 758.294C1405.8 757.005 1405.47 755.501 1405.47 753.782C1405.47 751.106 1406.17 749.026 1407.57 747.542C1408.97 746.058 1410.93 745.315 1413.46 745.315C1415.03 745.315 1416.42 745.657 1417.62 746.341C1418.82 747.024 1419.74 748.006 1420.39 749.285C1421.03 750.564 1421.35 752.063 1421.35 753.782ZM1424.05 752.186C1424.05 748.426 1424.76 745.574 1426.19 743.631C1427.62 741.678 1429.86 740.442 1432.9 739.925C1434.37 739.671 1436.57 739.349 1439.5 738.958L1440.02 742.854C1438.75 743.001 1436.5 743.313 1433.26 743.792C1432.03 743.987 1431.11 744.28 1430.51 744.671C1429.9 745.062 1429.45 745.618 1429.15 746.341C1428.85 747.063 1428.67 748.025 1428.6 749.227H1428.82C1429.34 748.426 1430.03 747.811 1430.88 747.381C1431.72 746.951 1432.64 746.736 1433.61 746.736C1435.64 746.736 1437.21 747.356 1438.33 748.597C1439.45 749.827 1440.02 751.595 1440.02 753.899C1440.02 756.556 1439.3 758.621 1437.88 760.096C1436.46 761.561 1434.5 762.293 1432 762.293C1429.5 762.293 1427.55 761.399 1426.14 759.612C1424.75 757.815 1424.05 755.34 1424.05 752.186ZM1432.27 758.675C1434.39 758.675 1435.45 757.215 1435.45 754.295C1435.45 751.453 1434.49 750.032 1432.57 750.032C1432.05 750.032 1431.52 750.154 1430.99 750.398C1430.47 750.643 1430 750.965 1429.56 751.365C1429.13 751.756 1428.81 752.151 1428.6 752.552C1428.6 754.534 1428.92 756.053 1429.56 757.107C1430.19 758.152 1431.09 758.675 1432.27 758.675ZM1468.1 758.733H1470.5V767.874H1466.47V762H1443.71V745.623H1448.17V758.646H1453.67V745.623H1458.14V758.646H1463.63V745.623H1468.1V758.733ZM1480.05 748.494C1479.1 748.494 1478.36 748.797 1477.82 749.402C1477.29 749.998 1476.98 750.848 1476.9 751.951H1483.17C1483.15 750.848 1482.86 749.998 1482.31 749.402C1481.75 748.797 1481 748.494 1480.05 748.494ZM1480.68 762.293C1478.04 762.293 1475.98 761.565 1474.5 760.11C1473.01 758.655 1472.27 756.595 1472.27 753.929C1472.27 751.185 1472.96 749.065 1474.32 747.571C1475.7 746.067 1477.6 745.315 1480.02 745.315C1482.33 745.315 1484.14 745.975 1485.43 747.293C1486.71 748.611 1487.36 750.433 1487.36 752.757V754.925H1476.8C1476.85 756.194 1477.22 757.186 1477.93 757.898C1478.63 758.611 1479.62 758.968 1480.88 758.968C1481.87 758.968 1482.8 758.865 1483.68 758.66C1484.56 758.455 1485.48 758.128 1486.44 757.679V761.136C1485.66 761.526 1484.82 761.814 1483.93 762C1483.04 762.195 1481.96 762.293 1480.68 762.293ZM1495.46 745.623V751.922H1501.7V745.623H1506.17V762H1501.7V755.247H1495.46V762H1490.99V745.623H1495.46ZM1515.18 745.623V752.098C1515.18 752.781 1515.06 754.451 1514.84 757.107L1522.4 745.623H1527.77V762H1523.45V755.467C1523.45 754.305 1523.55 752.664 1523.75 750.545L1516.22 762H1510.86V745.623H1515.18ZM1539.26 748.494C1538.31 748.494 1537.57 748.797 1537.03 749.402C1536.5 749.998 1536.19 750.848 1536.11 751.951H1542.38C1542.36 750.848 1542.07 749.998 1541.51 749.402C1540.96 748.797 1540.21 748.494 1539.26 748.494ZM1539.89 762.293C1537.25 762.293 1535.19 761.565 1533.71 760.11C1532.22 758.655 1531.48 756.595 1531.48 753.929C1531.48 751.185 1532.16 749.065 1533.53 747.571C1534.91 746.067 1536.81 745.315 1539.23 745.315C1541.54 745.315 1543.35 745.975 1544.63 747.293C1545.92 748.611 1546.57 750.433 1546.57 752.757V754.925H1536.01C1536.06 756.194 1536.43 757.186 1537.13 757.898C1537.84 758.611 1538.82 758.968 1540.09 758.968C1541.08 758.968 1542.01 758.865 1542.89 758.66C1543.77 758.455 1544.69 758.128 1545.65 757.679V761.136C1544.86 761.526 1544.03 761.814 1543.14 762C1542.25 762.195 1541.17 762.293 1539.89 762.293Z" fill="white"/>
<path d="M936 740C929.383 740 924 745.383 924 752C924 758.617 929.383 764 936 764C942.617 764 948 758.617 948 752C948 745.383 942.617 740 936 740ZM936 761.6C930.707 761.6 926.4 757.293 926.4 752C926.4 746.707 930.707 742.4 936 742.4C941.293 742.4 945.6 746.707 945.6 752C945.6 757.293 941.293 761.6 936 761.6Z" fill="white"/>
<path d="M937.2 746H934.8V752.497L938.752 756.448L940.448 754.752L937.2 751.503V746Z" fill="white"/>
</svg>
