<svg width="1590" height="940" viewBox="0 0 1590 940" fill="none" xmlns="http://www.w3.org/2000/svg">
<path d="M574.248 49.0566C594.756 49.0566 611.26 53.7441 623.76 63.1191C636.357 72.3965 642.656 84.9453 642.656 100.766C642.656 111.703 639.629 121.469 633.574 130.062C627.52 138.559 617.754 146.176 604.277 152.914C620.293 161.508 631.768 170.492 638.701 179.867C645.732 189.145 649.248 199.35 649.248 210.482C649.248 228.061 642.363 242.221 628.594 252.963C614.824 263.607 596.709 268.93 574.248 268.93C550.811 268.93 532.402 263.949 519.023 253.988C505.645 244.027 498.955 229.916 498.955 211.654C498.955 199.447 502.178 188.607 508.623 179.135C515.166 169.662 525.615 161.312 539.971 154.086C527.764 146.371 518.975 138.119 513.604 129.33C508.232 120.541 505.547 110.922 505.547 100.473C505.547 85.1406 511.895 72.7383 524.59 63.2656C537.285 53.793 553.838 49.0566 574.248 49.0566ZM540.85 209.018C540.85 217.416 543.779 223.959 549.639 228.646C555.498 233.334 563.506 235.678 573.662 235.678C584.893 235.678 593.291 233.285 598.857 228.5C604.424 223.617 607.207 217.221 607.207 209.311C607.207 202.768 604.424 196.664 598.857 191C593.389 185.238 584.453 179.135 572.051 172.689C551.25 182.26 540.85 194.369 540.85 209.018ZM573.955 82.1621C566.24 82.1621 559.99 84.1641 555.205 88.168C550.518 92.0742 548.174 97.3477 548.174 103.988C548.174 109.848 550.029 115.121 553.74 119.809C557.549 124.398 564.385 129.135 574.248 134.018C583.818 129.525 590.508 124.936 594.316 120.248C598.125 115.561 600.029 110.141 600.029 103.988C600.029 97.25 597.588 91.9277 592.705 88.0215C587.822 84.1152 581.572 82.1621 573.955 82.1621ZM821.514 266H671.807V234.506L725.566 180.16C741.484 163.852 751.885 152.572 756.768 146.322C761.65 139.975 765.166 134.115 767.314 128.744C769.463 123.373 770.537 117.807 770.537 112.045C770.537 103.451 768.145 97.0547 763.359 92.8555C758.672 88.6562 752.373 86.5566 744.463 86.5566C736.162 86.5566 728.105 88.4609 720.293 92.2695C712.48 96.0781 704.326 101.498 695.83 108.529L671.221 79.3789C681.768 70.3945 690.508 64.0469 697.441 60.3359C704.375 56.625 711.943 53.793 720.146 51.8398C728.35 49.7891 737.529 48.7637 747.686 48.7637C761.064 48.7637 772.881 51.2051 783.135 56.0879C793.389 60.9707 801.348 67.8066 807.012 76.5957C812.676 85.3848 815.508 95.4434 815.508 106.771C815.508 116.635 813.75 125.912 810.234 134.604C806.816 143.197 801.445 152.035 794.121 161.117C786.895 170.199 774.102 183.139 755.742 199.936L728.203 225.863V227.914H821.514V266ZM877.324 116C877.324 128.402 878.398 137.68 880.547 143.832C882.793 149.887 886.357 152.914 891.24 152.914C900.615 152.914 905.303 140.609 905.303 116C905.303 91.5859 900.615 79.3789 891.24 79.3789C886.357 79.3789 882.793 82.4063 880.547 88.4609C878.398 94.418 877.324 103.598 877.324 116ZM942.217 115.707C942.217 138.168 937.871 155.062 929.18 166.391C920.488 177.621 907.744 183.236 890.947 183.236C874.834 183.236 862.383 177.475 853.594 165.951C844.805 154.33 840.41 137.582 840.41 115.707C840.41 71.0781 857.256 48.7637 890.947 48.7637C907.451 48.7637 920.098 54.5742 928.887 66.1953C937.773 77.7188 942.217 94.2227 942.217 115.707ZM1043 51.8398L924.199 266H889.043L1007.84 51.8398H1043ZM1027.32 201.547C1027.32 213.949 1028.4 223.227 1030.55 229.379C1032.79 235.434 1036.36 238.461 1041.24 238.461C1050.62 238.461 1055.3 226.156 1055.3 201.547C1055.3 177.133 1050.62 164.926 1041.24 164.926C1036.36 164.926 1032.79 167.953 1030.55 174.008C1028.4 179.965 1027.32 189.145 1027.32 201.547ZM1092.22 201.254C1092.22 223.617 1087.87 240.463 1079.18 251.791C1070.49 263.021 1057.74 268.637 1040.95 268.637C1024.83 268.637 1012.38 262.875 1003.59 251.352C994.805 239.73 990.41 223.031 990.41 201.254C990.41 156.625 1007.26 134.311 1040.95 134.311C1057.45 134.311 1070.1 140.121 1078.89 151.742C1087.77 163.266 1092.22 179.77 1092.22 201.254Z" fill="#FF0000"/>
<path d="M530 640H1060V940H530V640Z" fill="#C4C4C4" fill-opacity="0.05"/>
<path d="M618.98 816.395C625.882 816.395 631.367 818.331 635.436 822.205C639.537 826.079 641.588 831.385 641.588 838.123C641.588 846.098 639.13 852.234 634.215 856.531C629.299 860.828 622.268 862.977 613.121 862.977C605.178 862.977 598.766 861.691 593.883 859.119V846.082C596.454 847.449 599.449 848.572 602.867 849.451C606.285 850.298 609.524 850.721 612.584 850.721C621.796 850.721 626.402 846.945 626.402 839.393C626.402 832.199 621.633 828.602 612.096 828.602C610.37 828.602 608.466 828.781 606.383 829.139C604.299 829.464 602.607 829.822 601.305 830.213L595.299 826.99L597.984 790.613H636.705V803.406H611.217L609.898 817.42L611.607 817.078C613.593 816.622 616.051 816.395 618.98 816.395ZM699.645 826.307C699.645 838.774 697.594 848.003 693.492 853.992C689.423 859.982 683.141 862.977 674.645 862.977C666.409 862.977 660.191 859.884 655.992 853.699C651.826 847.514 649.742 838.383 649.742 826.307C649.742 813.709 651.777 804.432 655.846 798.475C659.915 792.485 666.181 789.49 674.645 789.49C682.88 789.49 689.098 792.615 693.297 798.865C697.529 805.115 699.645 814.262 699.645 826.307ZM664.732 826.307C664.732 835.063 665.481 841.346 666.979 845.154C668.508 848.93 671.064 850.818 674.645 850.818C678.16 850.818 680.699 848.898 682.262 845.057C683.824 841.215 684.605 834.965 684.605 826.307C684.605 817.55 683.808 811.268 682.213 807.459C680.65 803.618 678.128 801.697 674.645 801.697C671.096 801.697 668.557 803.618 667.027 807.459C665.497 811.268 664.732 817.55 664.732 826.307ZM718.639 812C718.639 816.134 718.997 819.227 719.713 821.277C720.462 823.296 721.65 824.305 723.277 824.305C726.402 824.305 727.965 820.203 727.965 812C727.965 803.862 726.402 799.793 723.277 799.793C721.65 799.793 720.462 800.802 719.713 802.82C718.997 804.806 718.639 807.866 718.639 812ZM740.27 811.902C740.27 819.389 738.821 825.021 735.924 828.797C733.027 832.54 728.779 834.412 723.18 834.412C717.809 834.412 713.658 832.492 710.729 828.65C707.799 824.777 706.334 819.194 706.334 811.902C706.334 797.026 711.949 789.588 723.18 789.588C728.681 789.588 732.896 791.525 735.826 795.398C738.788 799.24 740.27 804.741 740.27 811.902ZM773.863 790.613L734.264 862H722.545L762.145 790.613H773.863ZM768.639 840.516C768.639 844.65 768.997 847.742 769.713 849.793C770.462 851.811 771.65 852.82 773.277 852.82C776.402 852.82 777.965 848.719 777.965 840.516C777.965 832.378 776.402 828.309 773.277 828.309C771.65 828.309 770.462 829.318 769.713 831.336C768.997 833.322 768.639 836.382 768.639 840.516ZM790.27 840.418C790.27 847.872 788.821 853.488 785.924 857.264C783.027 861.007 778.779 862.879 773.18 862.879C767.809 862.879 763.658 860.958 760.729 857.117C757.799 853.243 756.334 847.677 756.334 840.418C756.334 825.542 761.949 818.104 773.18 818.104C778.681 818.104 782.896 820.04 785.826 823.914C788.788 827.755 790.27 833.257 790.27 840.418Z" fill="#FF0000"/>
<path d="M624.953 719.583C621.058 715.713 615.859 713.537 610.316 713.457C604.716 713.373 599.406 715.449 595.369 719.295C591.337 723.139 589.076 728.273 589.002 733.754C588.962 736.697 589.544 739.546 590.731 742.223C591.876 744.805 593.523 747.095 595.625 749.03C596.305 749.655 597.191 750 598.121 750H621.877C622.807 750 623.692 749.658 624.368 749.035C626.439 747.132 628.07 744.88 629.214 742.345C630.399 739.72 631 736.924 631 734.03C631.001 728.588 628.854 723.456 624.953 719.583ZM614.658 737.011H605.343C604.518 737.011 603.848 736.355 603.848 735.546C603.848 734.737 604.518 734.081 605.343 734.081H614.658C615.483 734.081 616.153 734.737 616.153 735.546C616.153 736.355 615.483 737.011 614.658 737.011ZM617.648 731.554H602.354C601.529 731.554 600.859 730.899 600.859 730.089C600.859 729.28 601.529 728.624 602.354 728.624H617.649C618.474 728.624 619.144 729.28 619.144 730.089C619.143 730.898 618.473 731.554 617.648 731.554Z" fill="white"/>
<path d="M593.596 716.906C595.695 714.972 598.083 713.45 600.657 712.379L600.171 709.967C600.014 709.189 600.361 708.633 600.581 708.37C600.802 708.107 601.292 707.665 602.102 707.665H617.902C618.711 707.665 619.201 708.105 619.422 708.37C619.643 708.633 619.989 709.189 619.833 709.967L619.348 712.369C621.93 713.438 624.319 714.958 626.411 716.882L627.506 711.452C628.075 708.625 627.332 705.728 625.465 703.501C623.598 701.276 620.841 700 617.9 700H602.1C599.161 700 596.403 701.276 594.537 703.501C592.67 705.729 591.926 708.626 592.496 711.452L593.596 716.906Z" fill="white"/>
<path d="M666.792 719.056C665.083 719.056 663.76 719.7 662.822 720.989C661.885 722.269 661.416 724.056 661.416 726.351C661.416 731.126 663.208 733.514 666.792 733.514C668.296 733.514 670.117 733.138 672.256 732.386V736.194C670.498 736.927 668.535 737.293 666.367 737.293C663.252 737.293 660.869 736.351 659.219 734.466C657.568 732.571 656.743 729.856 656.743 726.321C656.743 724.095 657.148 722.146 657.959 720.477C658.77 718.797 659.932 717.513 661.445 716.624C662.969 715.726 664.751 715.276 666.792 715.276C668.872 715.276 670.962 715.779 673.062 716.785L671.597 720.477C670.796 720.096 669.99 719.764 669.18 719.48C668.369 719.197 667.573 719.056 666.792 719.056ZM691.357 720.623V737H686.875V723.978H680.942V737H676.475V720.623H691.357ZM699.604 728.782C699.604 730.403 699.868 731.629 700.396 732.459C700.933 733.289 701.802 733.704 703.003 733.704C704.194 733.704 705.049 733.294 705.566 732.474C706.094 731.644 706.357 730.413 706.357 728.782C706.357 727.161 706.094 725.945 705.566 725.135C705.039 724.324 704.175 723.919 702.974 723.919C701.782 723.919 700.923 724.324 700.396 725.135C699.868 725.936 699.604 727.151 699.604 728.782ZM710.928 728.782C710.928 731.448 710.225 733.533 708.818 735.037C707.412 736.541 705.454 737.293 702.944 737.293C701.372 737.293 699.985 736.951 698.784 736.268C697.583 735.574 696.66 734.583 696.016 733.294C695.371 732.005 695.049 730.501 695.049 728.782C695.049 726.106 695.747 724.026 697.144 722.542C698.54 721.058 700.503 720.315 703.032 720.315C704.604 720.315 705.991 720.657 707.192 721.341C708.394 722.024 709.316 723.006 709.961 724.285C710.605 725.564 710.928 727.063 710.928 728.782ZM723.613 737.293C721.689 737.293 720.181 736.595 719.087 735.198H718.853C719.009 736.565 719.087 737.356 719.087 737.571V744.207H714.619V720.623H718.252L718.882 722.747H719.087C720.132 721.126 721.68 720.315 723.73 720.315C725.664 720.315 727.178 721.062 728.271 722.557C729.365 724.051 729.912 726.126 729.912 728.782C729.912 730.53 729.653 732.049 729.136 733.338C728.628 734.627 727.9 735.608 726.953 736.282C726.006 736.956 724.893 737.293 723.613 737.293ZM722.295 723.89C721.191 723.89 720.386 724.231 719.878 724.915C719.37 725.589 719.106 726.707 719.087 728.27V728.753C719.087 730.511 719.346 731.771 719.863 732.532C720.391 733.294 721.221 733.675 722.354 733.675C724.355 733.675 725.356 732.024 725.356 728.724C725.356 727.112 725.107 725.906 724.609 725.105C724.121 724.295 723.35 723.89 722.295 723.89ZM747.153 720.623V723.978H741.792V737H737.324V723.978H731.948V720.623H747.153ZM754.287 726.922C755.977 726.922 757.173 726.785 757.876 726.512C758.589 726.238 758.945 725.804 758.945 725.208C758.945 724.681 758.687 724.285 758.169 724.021C757.651 723.758 756.797 723.626 755.605 723.626C754.854 723.626 753.999 723.719 753.042 723.904C752.095 724.09 751.23 724.344 750.449 724.666L749.131 721.546C750.293 721.106 751.421 720.794 752.515 720.608C753.608 720.413 754.829 720.315 756.177 720.315C758.218 720.315 759.854 720.706 761.084 721.487C762.314 722.269 762.93 723.328 762.93 724.666C762.93 726.512 761.841 727.713 759.663 728.27V728.416C761.001 728.748 761.953 729.222 762.52 729.837C763.096 730.442 763.384 731.238 763.384 732.225C763.384 733.221 763.062 734.104 762.417 734.876C761.772 735.647 760.84 736.243 759.619 736.663C758.398 737.083 756.963 737.293 755.312 737.293C752.578 737.293 750.479 736.956 749.014 736.282V732.591C749.854 732.981 750.771 733.289 751.768 733.514C752.773 733.738 753.745 733.851 754.683 733.851C756.138 733.851 757.227 733.689 757.949 733.367C758.672 733.035 759.033 732.566 759.033 731.961C759.033 731.297 758.652 730.809 757.891 730.496C757.129 730.174 755.957 730.013 754.375 730.013H752.646V726.922H754.287ZM777.285 737L776.421 734.773H776.304C775.552 735.721 774.775 736.38 773.975 736.751C773.184 737.112 772.148 737.293 770.869 737.293C769.297 737.293 768.057 736.844 767.148 735.945C766.25 735.047 765.801 733.768 765.801 732.107C765.801 730.369 766.406 729.09 767.617 728.27C768.838 727.439 770.674 726.98 773.125 726.893L775.967 726.805V726.087C775.967 724.427 775.117 723.597 773.418 723.597C772.109 723.597 770.571 723.992 768.804 724.783L767.324 721.766C769.209 720.779 771.299 720.286 773.594 720.286C775.791 720.286 777.476 720.765 778.647 721.722C779.819 722.679 780.405 724.134 780.405 726.087V737H777.285ZM775.967 729.412L774.238 729.471C772.939 729.51 771.973 729.744 771.338 730.174C770.703 730.604 770.386 731.258 770.386 732.137C770.386 733.396 771.108 734.026 772.554 734.026C773.589 734.026 774.414 733.729 775.029 733.133C775.654 732.537 775.967 731.746 775.967 730.76V729.412ZM799.683 737H795.215V723.978H791.099C790.786 727.64 790.405 730.374 789.956 732.181C789.507 733.978 788.906 735.281 788.154 736.092C787.412 736.893 786.436 737.293 785.225 737.293C784.189 737.293 783.34 737.137 782.676 736.824V733.25C783.154 733.445 783.633 733.543 784.111 733.543C784.668 733.543 785.132 733.143 785.503 732.342C785.884 731.541 786.221 730.208 786.514 728.343C786.816 726.468 787.075 723.895 787.29 720.623H799.683V737ZM808.853 726.951H811.006C813.506 726.951 815.356 727.352 816.558 728.152C817.759 728.953 818.359 730.164 818.359 731.785C818.359 733.514 817.759 734.817 816.558 735.696C815.356 736.565 813.56 737 811.167 737H804.385V720.623H808.853V726.951ZM813.892 731.844C813.892 731.209 813.638 730.75 813.13 730.467C812.622 730.184 811.865 730.042 810.859 730.042H808.853V733.909H810.918C812.9 733.909 813.892 733.221 813.892 731.844ZM825.2 737H820.732V720.623H825.2V737Z" fill="white"/>
<path d="M642.613 521.082C642.613 535.145 639.651 545.643 633.727 552.576C627.802 559.51 618.834 562.977 606.822 562.977C602.59 562.977 599.384 562.749 597.203 562.293V550.184C599.938 550.867 602.802 551.209 605.797 551.209C610.842 551.209 614.993 550.477 618.248 549.012C621.503 547.514 623.993 545.187 625.719 542.029C627.444 538.839 628.437 534.461 628.697 528.895H628.111C626.223 531.954 624.042 534.103 621.568 535.34C619.094 536.577 616.002 537.195 612.291 537.195C606.074 537.195 601.174 535.21 597.594 531.238C594.013 527.234 592.223 521.684 592.223 514.588C592.223 506.938 594.387 500.9 598.717 496.473C603.079 492.013 609.003 489.783 616.49 489.783C621.764 489.783 626.37 491.02 630.309 493.494C634.28 495.968 637.324 499.565 639.439 504.285C641.555 508.973 642.613 514.572 642.613 521.082ZM616.783 501.893C613.658 501.893 611.217 502.967 609.459 505.115C607.701 507.264 606.822 510.356 606.822 514.393C606.822 517.843 607.62 520.577 609.215 522.596C610.81 524.614 613.235 525.623 616.49 525.623C619.55 525.623 622.171 524.63 624.352 522.645C626.533 520.626 627.623 518.315 627.623 515.711C627.623 511.837 626.598 508.566 624.547 505.896C622.529 503.227 619.941 501.893 616.783 501.893ZM701.646 547.205H693.053V562H678.307V547.205H647.838V536.707L679.137 490.613H693.053V535.486H701.646V547.205ZM678.307 535.486V523.377C678.307 521.359 678.388 518.429 678.551 514.588C678.714 510.747 678.844 508.517 678.941 507.898H678.551C677.346 510.568 675.898 513.172 674.205 515.711L661.119 535.486H678.307ZM725.67 551.502C723.977 558.077 721.113 565.874 717.076 574.891H706.334C708.45 566.232 710.094 558.061 711.266 550.379H724.938L725.67 551.502ZM743.346 562L770.152 503.406H734.947V490.711H786.168V500.184L759.166 562H743.346ZM804.771 512C804.771 516.134 805.13 519.227 805.846 521.277C806.594 523.296 807.783 524.305 809.41 524.305C812.535 524.305 814.098 520.203 814.098 512C814.098 503.862 812.535 499.793 809.41 499.793C807.783 499.793 806.594 500.802 805.846 502.82C805.13 504.806 804.771 507.866 804.771 512ZM826.402 511.902C826.402 519.389 824.954 525.021 822.057 528.797C819.16 532.54 814.911 534.412 809.312 534.412C803.941 534.412 799.791 532.492 796.861 528.65C793.932 524.777 792.467 519.194 792.467 511.902C792.467 497.026 798.082 489.588 809.312 489.588C814.814 489.588 819.029 491.525 821.959 495.398C824.921 499.24 826.402 504.741 826.402 511.902ZM859.996 490.613L820.396 562H808.678L848.277 490.613H859.996ZM854.771 540.516C854.771 544.65 855.13 547.742 855.846 549.793C856.594 551.811 857.783 552.82 859.41 552.82C862.535 552.82 864.098 548.719 864.098 540.516C864.098 532.378 862.535 528.309 859.41 528.309C857.783 528.309 856.594 529.318 855.846 531.336C855.13 533.322 854.771 536.382 854.771 540.516ZM876.402 540.418C876.402 547.872 874.954 553.488 872.057 557.264C869.16 561.007 864.911 562.879 859.312 562.879C853.941 562.879 849.791 560.958 846.861 557.117C843.932 553.243 842.467 547.677 842.467 540.418C842.467 525.542 848.082 518.104 859.312 518.104C864.814 518.104 869.029 520.04 871.959 523.914C874.921 527.755 876.402 533.257 876.402 540.418Z" fill="#FF0000"/>
<path d="M663.146 433.221H664.802C666.218 430.389 667.336 427.562 668.156 424.739C668.977 421.907 669.587 418.855 669.987 415.584H682.468V433.221H685.324V443.24H680.944V437H667.526V443.24H663.146V433.221ZM673.591 419.363C673.278 421.6 672.756 423.968 672.023 426.468C671.301 428.968 670.485 431.219 669.577 433.221H677.941V419.363H673.591ZM691.843 428.782C691.843 430.403 692.106 431.629 692.634 432.459C693.171 433.289 694.04 433.704 695.241 433.704C696.433 433.704 697.287 433.294 697.805 432.474C698.332 431.644 698.596 430.413 698.596 428.782C698.596 427.161 698.332 425.945 697.805 425.135C697.277 424.324 696.413 423.919 695.212 423.919C694.021 423.919 693.161 424.324 692.634 425.135C692.106 425.936 691.843 427.151 691.843 428.782ZM703.166 428.782C703.166 431.448 702.463 433.533 701.057 435.037C699.65 436.541 697.692 437.293 695.183 437.293C693.61 437.293 692.224 436.951 691.022 436.268C689.821 435.574 688.898 434.583 688.254 433.294C687.609 432.005 687.287 430.501 687.287 428.782C687.287 426.106 687.985 424.026 689.382 422.542C690.778 421.058 692.741 420.315 695.271 420.315C696.843 420.315 698.229 420.657 699.431 421.341C700.632 422.024 701.555 423.006 702.199 424.285C702.844 425.564 703.166 427.063 703.166 428.782ZM731.247 437H706.857V420.623H711.325V433.646H716.818V420.623H721.286V433.646H726.779V420.623H731.247V437ZM746.687 420.623H751.608L745.119 428.475L752.18 437H747.111L740.417 428.694V437H735.949V420.623H740.417V428.577L746.687 420.623ZM758.083 428.782C758.083 430.403 758.347 431.629 758.874 432.459C759.411 433.289 760.28 433.704 761.481 433.704C762.673 433.704 763.527 433.294 764.045 432.474C764.572 431.644 764.836 430.413 764.836 428.782C764.836 427.161 764.572 425.945 764.045 425.135C763.518 424.324 762.653 423.919 761.452 423.919C760.261 423.919 759.401 424.324 758.874 425.135C758.347 425.936 758.083 427.151 758.083 428.782ZM769.406 428.782C769.406 431.448 768.703 433.533 767.297 435.037C765.891 436.541 763.933 437.293 761.423 437.293C759.851 437.293 758.464 436.951 757.263 436.268C756.062 435.574 755.139 434.583 754.494 433.294C753.85 432.005 753.527 430.501 753.527 428.782C753.527 426.106 754.226 424.026 755.622 422.542C757.019 421.058 758.981 420.315 761.511 420.315C763.083 420.315 764.47 420.657 765.671 421.341C766.872 422.024 767.795 423.006 768.439 424.285C769.084 425.564 769.406 427.063 769.406 428.782ZM787.761 437H783.293V423.978H779.177C778.864 427.64 778.483 430.374 778.034 432.181C777.585 433.978 776.984 435.281 776.232 436.092C775.49 436.893 774.514 437.293 773.303 437.293C772.268 437.293 771.418 437.137 770.754 436.824V433.25C771.232 433.445 771.711 433.543 772.189 433.543C772.746 433.543 773.21 433.143 773.581 432.342C773.962 431.541 774.299 430.208 774.592 428.343C774.895 426.468 775.153 423.895 775.368 420.623H787.761V437ZM796.931 426.951H800.08C802.6 426.951 804.465 427.352 805.676 428.152C806.887 428.953 807.492 430.164 807.492 431.785C807.492 435.262 805.08 437 800.256 437H792.463V420.623H796.931V426.951ZM803.024 431.844C803.024 431.209 802.771 430.75 802.263 430.467C801.755 430.184 800.998 430.042 799.992 430.042H796.931V433.909H800.051C802.033 433.909 803.024 433.221 803.024 431.844ZM815.358 420.623V426.922H821.599V420.623H826.066V437H821.599V430.247H815.358V437H810.891V420.623H815.358ZM835.222 426.951H837.375C839.875 426.951 841.726 427.352 842.927 428.152C844.128 428.953 844.729 430.164 844.729 431.785C844.729 433.514 844.128 434.817 842.927 435.696C841.726 436.565 839.929 437 837.536 437H830.754V420.623H835.222V426.951ZM840.261 431.844C840.261 431.209 840.007 430.75 839.499 430.467C838.991 430.184 838.234 430.042 837.229 430.042H835.222V433.909H837.287C839.27 433.909 840.261 433.221 840.261 431.844ZM851.569 437H847.102V420.623H851.569V437ZM863.054 423.494C862.106 423.494 861.364 423.797 860.827 424.402C860.29 424.998 859.982 425.848 859.904 426.951H866.174C866.154 425.848 865.866 424.998 865.31 424.402C864.753 423.797 864.001 423.494 863.054 423.494ZM863.684 437.293C861.047 437.293 858.986 436.565 857.502 435.11C856.018 433.655 855.275 431.595 855.275 428.929C855.275 426.185 855.959 424.065 857.326 422.571C858.703 421.067 860.603 420.315 863.024 420.315C865.339 420.315 867.141 420.975 868.43 422.293C869.719 423.611 870.363 425.433 870.363 427.757V429.925H859.802C859.851 431.194 860.227 432.186 860.93 432.898C861.633 433.611 862.619 433.968 863.889 433.968C864.875 433.968 865.808 433.865 866.687 433.66C867.565 433.455 868.483 433.128 869.44 432.679V436.136C868.659 436.526 867.824 436.814 866.936 437C866.047 437.195 864.963 437.293 863.684 437.293Z" fill="white"/>
<path d="M598.129 449.511C598.129 449.78 598.348 449.999 598.618 449.999H607.434C607.703 449.999 607.922 449.78 607.922 449.511C607.922 447.241 607.922 445.892 607.923 445.019H598.129V449.511Z" fill="white"/>
<path d="M598.129 442.091H607.923V437.111H598.129C598.129 439.26 598.129 440.862 598.129 442.091Z" fill="white"/>
<path d="M607.921 427.788C607.825 425.142 605.679 423.073 603.026 423.073C600.393 423.073 598.248 425.125 598.135 427.75C598.132 428.378 598.129 433.638 598.129 434.174H607.921C607.922 433.76 607.923 428.085 607.921 427.788Z" fill="white"/>
<path d="M615.962 411.881L605.096 400.867C603.957 399.711 602.093 399.711 600.955 400.867H600.954L590.09 411.881H615.962Z" fill="white"/>
<path d="M636.556 440.555H632.904L625.68 420.806C625.328 419.847 624.408 419.203 623.387 419.203H617.053V414.81C615.932 414.81 590.567 414.81 589 414.81C589 415.709 589 447.685 589 448.535C589 449.345 589.655 450 590.465 450C591.275 450 591.93 449.344 591.93 448.535V434.176H595.201C595.201 434.055 595.202 427.779 595.208 427.655C595.375 423.443 598.809 420.145 603.027 420.145C605.072 420.145 607.007 420.929 608.475 422.351C609.94 423.771 610.784 425.673 610.852 427.709C610.856 427.774 610.853 433.865 610.853 434.176H614.126V448.529C614.126 449.337 614.782 449.993 615.591 449.993C616.399 449.993 617.056 449.337 617.056 448.529V428.121H619.069L626.301 448.374C626.647 449.342 627.572 449.993 628.601 449.993H636.558C637.905 449.993 639 448.898 639 447.552V442.996C638.997 441.65 637.902 440.555 636.556 440.555Z" fill="white"/>
<path d="M1160.31 862H1145.22V820.691L1145.37 813.904L1145.61 806.482C1143.1 808.989 1141.36 810.633 1140.39 811.414L1132.18 818.006L1124.91 808.924L1147.91 790.613H1160.31V862ZM1206.11 816.395C1213.01 816.395 1218.5 818.331 1222.56 822.205C1226.67 826.079 1228.72 831.385 1228.72 838.123C1228.72 846.098 1226.26 852.234 1221.34 856.531C1216.43 860.828 1209.4 862.977 1200.25 862.977C1192.31 862.977 1185.89 861.691 1181.01 859.119V846.082C1183.58 847.449 1186.58 848.572 1190 849.451C1193.41 850.298 1196.65 850.721 1199.71 850.721C1208.93 850.721 1213.53 846.945 1213.53 839.393C1213.53 832.199 1208.76 828.602 1199.22 828.602C1197.5 828.602 1195.6 828.781 1193.51 829.139C1191.43 829.464 1189.74 829.822 1188.43 830.213L1182.43 826.99L1185.11 790.613H1223.83V803.406H1198.35L1197.03 817.42L1198.74 817.078C1200.72 816.622 1203.18 816.395 1206.11 816.395ZM1248.64 812C1248.64 816.134 1249 819.227 1249.71 821.277C1250.46 823.296 1251.65 824.305 1253.28 824.305C1256.4 824.305 1257.96 820.203 1257.96 812C1257.96 803.862 1256.4 799.793 1253.28 799.793C1251.65 799.793 1250.46 800.802 1249.71 802.82C1249 804.806 1248.64 807.866 1248.64 812ZM1270.27 811.902C1270.27 819.389 1268.82 825.021 1265.92 828.797C1263.03 832.54 1258.78 834.412 1253.18 834.412C1247.81 834.412 1243.66 832.492 1240.73 828.65C1237.8 824.777 1236.33 819.194 1236.33 811.902C1236.33 797.026 1241.95 789.588 1253.18 789.588C1258.68 789.588 1262.9 791.525 1265.83 795.398C1268.79 799.24 1270.27 804.741 1270.27 811.902ZM1303.86 790.613L1264.26 862H1252.54L1292.14 790.613H1303.86ZM1298.64 840.516C1298.64 844.65 1299 847.742 1299.71 849.793C1300.46 851.811 1301.65 852.82 1303.28 852.82C1306.4 852.82 1307.96 848.719 1307.96 840.516C1307.96 832.378 1306.4 828.309 1303.28 828.309C1301.65 828.309 1300.46 829.318 1299.71 831.336C1299 833.322 1298.64 836.382 1298.64 840.516ZM1320.27 840.418C1320.27 847.872 1318.82 853.488 1315.92 857.264C1313.03 861.007 1308.78 862.879 1303.18 862.879C1297.81 862.879 1293.66 860.958 1290.73 857.117C1287.8 853.243 1286.33 847.677 1286.33 840.418C1286.33 825.542 1291.95 818.104 1303.18 818.104C1308.68 818.104 1312.9 820.04 1315.83 823.914C1318.79 827.755 1320.27 833.257 1320.27 840.418Z" fill="#FF0000"/>
<path d="M1200.24 723.802H1202.02C1204.82 723.802 1206.97 724.368 1208.5 725.501C1210.02 726.634 1210.78 728.235 1210.78 730.306C1210.78 734.769 1207.83 737 1201.94 737H1195.7V715.584H1209.23V719.334H1200.24V723.802ZM1200.24 733.279H1201.76C1203.29 733.279 1204.42 733.035 1205.13 732.547C1205.84 732.049 1206.2 731.302 1206.2 730.306C1206.2 729.319 1205.84 728.611 1205.11 728.182C1204.39 727.742 1203.15 727.522 1201.39 727.522H1200.24V733.279ZM1224.9 737L1224.04 734.773H1223.92C1223.17 735.721 1222.39 736.38 1221.59 736.751C1220.8 737.112 1219.77 737.293 1218.49 737.293C1216.92 737.293 1215.68 736.844 1214.77 735.945C1213.87 735.047 1213.42 733.768 1213.42 732.107C1213.42 730.369 1214.03 729.09 1215.24 728.27C1216.46 727.439 1218.29 726.98 1220.74 726.893L1223.59 726.805V726.087C1223.59 724.427 1222.74 723.597 1221.04 723.597C1219.73 723.597 1218.19 723.992 1216.42 724.783L1214.94 721.766C1216.83 720.779 1218.92 720.286 1221.21 720.286C1223.41 720.286 1225.09 720.765 1226.27 721.722C1227.44 722.679 1228.02 724.134 1228.02 726.087V737H1224.9ZM1223.59 729.412L1221.86 729.471C1220.56 729.51 1219.59 729.744 1218.96 730.174C1218.32 730.604 1218 731.258 1218 732.137C1218 733.396 1218.73 734.026 1220.17 734.026C1221.21 734.026 1222.03 733.729 1222.65 733.133C1223.27 732.537 1223.59 731.746 1223.59 730.76V729.412ZM1239.29 737.293C1234.19 737.293 1231.64 734.495 1231.64 728.899C1231.64 726.116 1232.34 723.992 1233.72 722.527C1235.11 721.053 1237.1 720.315 1239.68 720.315C1241.58 720.315 1243.28 720.687 1244.78 721.429L1243.46 724.886C1242.76 724.603 1242.11 724.373 1241.5 724.197C1240.9 724.012 1240.29 723.919 1239.68 723.919C1237.36 723.919 1236.2 725.569 1236.2 728.87C1236.2 732.073 1237.36 733.675 1239.68 733.675C1240.54 733.675 1241.34 733.562 1242.07 733.338C1242.8 733.104 1243.54 732.742 1244.27 732.254V736.077C1243.55 736.536 1242.81 736.854 1242.07 737.029C1241.34 737.205 1240.41 737.293 1239.29 737.293ZM1254.73 737.293C1249.63 737.293 1247.08 734.495 1247.08 728.899C1247.08 726.116 1247.78 723.992 1249.16 722.527C1250.55 721.053 1252.54 720.315 1255.12 720.315C1257.02 720.315 1258.72 720.687 1260.22 721.429L1258.9 724.886C1258.2 724.603 1257.55 724.373 1256.94 724.197C1256.33 724.012 1255.73 723.919 1255.12 723.919C1252.8 723.919 1251.64 725.569 1251.64 728.87C1251.64 732.073 1252.8 733.675 1255.12 733.675C1255.98 733.675 1256.78 733.562 1257.51 733.338C1258.24 733.104 1258.98 732.742 1259.71 732.254V736.077C1258.99 736.536 1258.25 736.854 1257.51 737.029C1256.78 737.205 1255.85 737.293 1254.73 737.293ZM1270.3 723.494C1269.35 723.494 1268.61 723.797 1268.07 724.402C1267.54 724.998 1267.23 725.848 1267.15 726.951H1273.42C1273.4 725.848 1273.11 724.998 1272.56 724.402C1272 723.797 1271.25 723.494 1270.3 723.494ZM1270.93 737.293C1268.29 737.293 1266.23 736.565 1264.75 735.11C1263.26 733.655 1262.52 731.595 1262.52 728.929C1262.52 726.185 1263.21 724.065 1264.57 722.571C1265.95 721.067 1267.85 720.315 1270.27 720.315C1272.58 720.315 1274.39 720.975 1275.68 722.293C1276.96 723.611 1277.61 725.433 1277.61 727.757V729.925H1267.05C1267.1 731.194 1267.47 732.186 1268.18 732.898C1268.88 733.611 1269.87 733.968 1271.13 733.968C1272.12 733.968 1273.05 733.865 1273.93 733.66C1274.81 733.455 1275.73 733.128 1276.69 732.679V736.136C1275.91 736.526 1275.07 736.814 1274.18 737C1273.29 737.195 1272.21 737.293 1270.93 737.293ZM1285.56 720.623V727.098C1285.56 727.781 1285.45 729.451 1285.23 732.107L1292.79 720.623H1298.16V737H1293.84V730.467C1293.84 729.305 1293.94 727.664 1294.13 725.545L1286.6 737H1281.24V720.623H1285.56ZM1296.84 713.577C1296.66 715.403 1295.97 716.736 1294.78 717.576C1293.59 718.406 1291.87 718.821 1289.62 718.821C1287.31 718.821 1285.59 718.421 1284.48 717.62C1283.38 716.819 1282.76 715.472 1282.62 713.577H1286.62C1286.69 714.583 1286.94 715.291 1287.37 715.701C1287.8 716.102 1288.59 716.302 1289.71 716.302C1290.7 716.302 1291.43 716.082 1291.91 715.643C1292.39 715.193 1292.69 714.505 1292.8 713.577H1296.84ZM1307.33 720.623V726.922H1313.57V720.623H1318.04V737H1313.57V730.247H1307.33V737H1302.86V720.623H1307.33ZM1327.19 726.951H1329.35C1331.85 726.951 1333.7 727.352 1334.9 728.152C1336.1 728.953 1336.7 730.164 1336.7 731.785C1336.7 733.514 1336.1 734.817 1334.9 735.696C1333.7 736.565 1331.9 737 1329.51 737H1322.73V720.623H1327.19V726.951ZM1332.23 731.844C1332.23 731.209 1331.98 730.75 1331.47 730.467C1330.96 730.184 1330.21 730.042 1329.2 730.042H1327.19V733.909H1329.26C1331.24 733.909 1332.23 733.221 1332.23 731.844ZM1343.54 737H1339.07V720.623H1343.54V737Z" fill="white"/>
<path d="M1169 708.333V706.25C1169 702.798 1166.2 700 1162.75 700C1159.3 700 1156.5 702.798 1156.5 706.25V712.5H1146.08V706.25C1146.08 705.099 1147.02 704.167 1148.17 704.167C1149.32 704.167 1150.25 705.099 1150.25 706.25V708.333H1154.42V706.25C1154.42 702.798 1151.62 700 1148.17 700C1144.71 700 1141.92 702.798 1141.92 706.25V729.478C1140.96 729.257 1139.98 729.151 1139 729.166C1134 729.166 1134 731.249 1129 731.249C1124 731.249 1124 729.166 1119 729.166V737.499C1124 737.499 1124 739.582 1129 739.582C1134 739.582 1134 737.499 1139 737.499C1144 737.499 1144 739.582 1149 739.582C1154 739.582 1154 737.499 1159 737.499C1164 737.499 1164 739.582 1169 739.582V731.249C1164.63 731.249 1164.08 729.657 1160.67 729.256V706.25C1160.67 705.099 1161.6 704.167 1162.75 704.167C1163.9 704.167 1164.83 705.099 1164.83 706.25V708.333H1169ZM1156.5 716.666V720.833H1146.08V716.666H1156.5ZM1146.08 730.937V724.999H1156.5V729.388C1153.8 729.925 1152.99 731.249 1149 731.249C1148.02 731.263 1147.04 731.158 1146.08 730.937Z" fill="white"/>
<path d="M1149 741.667C1144 741.667 1144 739.584 1139 739.584C1134 739.584 1134 741.667 1129 741.667C1124 741.667 1124 739.584 1119 739.584V750H1169V741.667C1164 741.667 1164 739.584 1159 739.584C1154 739.584 1154 741.667 1149 741.667Z" fill="white"/>
<path d="M1060 340H1590V640H1060V340Z" fill="#C4C4C4" fill-opacity="0.05"/>
<path d="M1160.31 562H1145.22V520.691L1145.37 513.904L1145.61 506.482C1143.1 508.989 1141.36 510.633 1140.39 511.414L1132.18 518.006L1124.91 508.924L1147.91 490.613H1160.31V562ZM1217.44 562H1202.35V520.691L1202.5 513.904L1202.74 506.482C1200.23 508.989 1198.49 510.633 1197.52 511.414L1189.31 518.006L1182.04 508.924L1205.04 490.613H1217.44V562ZM1286.87 521.082C1286.87 535.145 1283.91 545.643 1277.98 552.576C1272.06 559.51 1263.09 562.977 1251.08 562.977C1246.85 562.977 1243.64 562.749 1241.46 562.293V550.184C1244.2 550.867 1247.06 551.209 1250.05 551.209C1255.1 551.209 1259.25 550.477 1262.51 549.012C1265.76 547.514 1268.25 545.187 1269.98 542.029C1271.7 538.839 1272.69 534.461 1272.96 528.895H1272.37C1270.48 531.954 1268.3 534.103 1265.83 535.34C1263.35 536.577 1260.26 537.195 1256.55 537.195C1250.33 537.195 1245.43 535.21 1241.85 531.238C1238.27 527.234 1236.48 521.684 1236.48 514.588C1236.48 506.938 1238.65 500.9 1242.97 496.473C1247.34 492.013 1253.26 489.783 1260.75 489.783C1266.02 489.783 1270.63 491.02 1274.57 493.494C1278.54 495.968 1281.58 499.565 1283.7 504.285C1285.81 508.973 1286.87 514.572 1286.87 521.082ZM1261.04 501.893C1257.92 501.893 1255.47 502.967 1253.72 505.115C1251.96 507.264 1251.08 510.356 1251.08 514.393C1251.08 517.843 1251.88 520.577 1253.47 522.596C1255.07 524.614 1257.49 525.623 1260.75 525.623C1263.81 525.623 1266.43 524.63 1268.61 522.645C1270.79 520.626 1271.88 518.315 1271.88 515.711C1271.88 511.837 1270.86 508.566 1268.8 505.896C1266.79 503.227 1264.2 501.893 1261.04 501.893ZM1312.8 551.502C1311.11 558.077 1308.24 565.874 1304.21 574.891H1293.46C1295.58 566.232 1297.22 558.061 1298.39 550.379H1312.07L1312.8 551.502ZM1373.3 562H1323.39V551.502L1341.31 533.387C1346.62 527.951 1350.09 524.191 1351.71 522.107C1353.34 519.992 1354.51 518.038 1355.23 516.248C1355.95 514.458 1356.3 512.602 1356.3 510.682C1356.3 507.817 1355.51 505.685 1353.91 504.285C1352.35 502.885 1350.25 502.186 1347.61 502.186C1344.85 502.186 1342.16 502.82 1339.56 504.09C1336.95 505.359 1334.23 507.166 1331.4 509.51L1323.2 499.793C1326.71 496.798 1329.63 494.682 1331.94 493.445C1334.25 492.208 1336.77 491.264 1339.51 490.613C1342.24 489.93 1345.3 489.588 1348.69 489.588C1353.15 489.588 1357.09 490.402 1360.5 492.029C1363.92 493.657 1366.57 495.936 1368.46 498.865C1370.35 501.795 1371.29 505.148 1371.29 508.924C1371.29 512.212 1370.71 515.304 1369.54 518.201C1368.4 521.066 1366.61 524.012 1364.17 527.039C1361.76 530.066 1357.49 534.38 1351.37 539.979L1342.19 548.621V549.305H1373.3V562ZM1391.9 512C1391.9 516.134 1392.26 519.227 1392.97 521.277C1393.72 523.296 1394.91 524.305 1396.54 524.305C1399.66 524.305 1401.23 520.203 1401.23 512C1401.23 503.862 1399.66 499.793 1396.54 499.793C1394.91 499.793 1393.72 500.802 1392.97 502.82C1392.26 504.806 1391.9 507.866 1391.9 512ZM1413.53 511.902C1413.53 519.389 1412.08 525.021 1409.19 528.797C1406.29 532.54 1402.04 534.412 1396.44 534.412C1391.07 534.412 1386.92 532.492 1383.99 528.65C1381.06 524.777 1379.6 519.194 1379.6 511.902C1379.6 497.026 1385.21 489.588 1396.44 489.588C1401.94 489.588 1406.16 491.525 1409.09 495.398C1412.05 499.24 1413.53 504.741 1413.53 511.902ZM1447.12 490.613L1407.53 562H1395.81L1435.41 490.613H1447.12ZM1441.9 540.516C1441.9 544.65 1442.26 547.742 1442.97 549.793C1443.72 551.811 1444.91 552.82 1446.54 552.82C1449.66 552.82 1451.23 548.719 1451.23 540.516C1451.23 532.378 1449.66 528.309 1446.54 528.309C1444.91 528.309 1443.72 529.318 1442.97 531.336C1442.26 533.322 1441.9 536.382 1441.9 540.516ZM1463.53 540.418C1463.53 547.872 1462.08 553.488 1459.19 557.264C1456.29 561.007 1452.04 562.879 1446.44 562.879C1441.07 562.879 1436.92 560.958 1433.99 557.117C1431.06 553.243 1429.6 547.677 1429.6 540.418C1429.6 525.542 1435.21 518.104 1446.44 518.104C1451.94 518.104 1456.16 520.04 1459.09 523.914C1462.05 527.755 1463.53 533.257 1463.53 540.418Z" fill="#FF0000"/>
<path d="M1203.13 426.263C1203.13 429.808 1202.25 432.532 1200.5 434.437C1198.74 436.341 1196.22 437.293 1192.94 437.293C1189.66 437.293 1187.14 436.341 1185.38 434.437C1183.62 432.532 1182.74 429.798 1182.74 426.233C1182.74 422.669 1183.62 419.949 1185.38 418.074C1187.15 416.189 1189.68 415.247 1192.97 415.247C1196.26 415.247 1198.77 416.194 1200.51 418.089C1202.26 419.983 1203.13 422.708 1203.13 426.263ZM1187.5 426.263C1187.5 428.655 1187.96 430.457 1188.87 431.668C1189.77 432.879 1191.13 433.484 1192.94 433.484C1196.56 433.484 1198.37 431.077 1198.37 426.263C1198.37 421.438 1196.57 419.026 1192.97 419.026C1191.16 419.026 1189.8 419.637 1188.88 420.857C1187.96 422.068 1187.5 423.87 1187.5 426.263ZM1206.22 427.186C1206.22 423.426 1206.94 420.574 1208.36 418.631C1209.8 416.678 1212.04 415.442 1215.07 414.925C1216.55 414.671 1218.75 414.349 1221.68 413.958L1222.19 417.854C1220.92 418.001 1218.67 418.313 1215.44 418.792C1214.21 418.987 1213.29 419.28 1212.68 419.671C1212.08 420.062 1211.62 420.618 1211.32 421.341C1211.03 422.063 1210.85 423.025 1210.78 424.227H1211C1211.52 423.426 1212.2 422.811 1213.05 422.381C1213.9 421.951 1214.81 421.736 1215.79 421.736C1217.81 421.736 1219.38 422.356 1220.51 423.597C1221.63 424.827 1222.19 426.595 1222.19 428.899C1222.19 431.556 1221.48 433.621 1220.05 435.096C1218.64 436.561 1216.68 437.293 1214.18 437.293C1211.68 437.293 1209.73 436.399 1208.32 434.612C1206.92 432.815 1206.22 430.34 1206.22 427.186ZM1214.44 433.675C1216.56 433.675 1217.62 432.215 1217.62 429.295C1217.62 426.453 1216.66 425.032 1214.75 425.032C1214.22 425.032 1213.7 425.154 1213.17 425.398C1212.65 425.643 1212.17 425.965 1211.73 426.365C1211.3 426.756 1210.99 427.151 1210.78 427.552C1210.78 429.534 1211.1 431.053 1211.73 432.107C1212.37 433.152 1213.27 433.675 1214.44 433.675ZM1250.27 433.733H1252.67V442.874H1248.65V437H1225.88V420.623H1230.35V433.646H1235.84V420.623H1240.31V433.646H1245.8V420.623H1250.27V433.733ZM1262.23 423.494C1261.28 423.494 1260.54 423.797 1260 424.402C1259.46 424.998 1259.15 425.848 1259.08 426.951H1265.35C1265.33 425.848 1265.04 424.998 1264.48 424.402C1263.92 423.797 1263.17 423.494 1262.23 423.494ZM1262.86 437.293C1260.22 437.293 1258.16 436.565 1256.67 435.11C1255.19 433.655 1254.45 431.595 1254.45 428.929C1254.45 426.185 1255.13 424.065 1256.5 422.571C1257.88 421.067 1259.77 420.315 1262.2 420.315C1264.51 420.315 1266.31 420.975 1267.6 422.293C1268.89 423.611 1269.54 425.433 1269.54 427.757V429.925H1258.97C1259.02 431.194 1259.4 432.186 1260.1 432.898C1260.8 433.611 1261.79 433.968 1263.06 433.968C1264.05 433.968 1264.98 433.865 1265.86 433.66C1266.74 433.455 1267.66 433.128 1268.61 432.679V436.136C1267.83 436.526 1267 436.814 1266.11 437C1265.22 437.195 1264.13 437.293 1262.86 437.293ZM1276.73 428.782C1276.73 430.403 1276.99 431.629 1277.52 432.459C1278.06 433.289 1278.92 433.704 1280.13 433.704C1281.32 433.704 1282.17 433.294 1282.69 432.474C1283.22 431.644 1283.48 430.413 1283.48 428.782C1283.48 427.161 1283.22 425.945 1282.69 425.135C1282.16 424.324 1281.3 423.919 1280.1 423.919C1278.91 423.919 1278.05 424.324 1277.52 425.135C1276.99 425.936 1276.73 427.151 1276.73 428.782ZM1288.05 428.782C1288.05 431.448 1287.35 433.533 1285.94 435.037C1284.54 436.541 1282.58 437.293 1280.07 437.293C1278.5 437.293 1277.11 436.951 1275.91 436.268C1274.71 435.574 1273.78 434.583 1273.14 433.294C1272.49 432.005 1272.17 430.501 1272.17 428.782C1272.17 426.106 1272.87 424.026 1274.27 422.542C1275.66 421.058 1277.63 420.315 1280.16 420.315C1281.73 420.315 1283.11 420.657 1284.32 421.341C1285.52 422.024 1286.44 423.006 1287.08 424.285C1287.73 425.564 1288.05 427.063 1288.05 428.782ZM1290.75 427.186C1290.75 423.426 1291.46 420.574 1292.88 418.631C1294.32 416.678 1296.56 415.442 1299.59 414.925C1301.07 414.671 1303.27 414.349 1306.2 413.958L1306.71 417.854C1305.44 418.001 1303.19 418.313 1299.96 418.792C1298.73 418.987 1297.81 419.28 1297.21 419.671C1296.6 420.062 1296.15 420.618 1295.84 421.341C1295.55 422.063 1295.37 423.025 1295.3 424.227H1295.52C1296.04 423.426 1296.72 422.811 1297.57 422.381C1298.42 421.951 1299.33 421.736 1300.31 421.736C1302.33 421.736 1303.91 422.356 1305.03 423.597C1306.15 424.827 1306.71 426.595 1306.71 428.899C1306.71 431.556 1306 433.621 1304.57 435.096C1303.16 436.561 1301.2 437.293 1298.7 437.293C1296.2 437.293 1294.25 436.399 1292.84 434.612C1291.44 432.815 1290.75 430.34 1290.75 427.186ZM1298.96 433.675C1301.08 433.675 1302.14 432.215 1302.14 429.295C1302.14 426.453 1301.19 425.032 1299.27 425.032C1298.74 425.032 1298.22 425.154 1297.69 425.398C1297.17 425.643 1296.69 425.965 1296.25 426.365C1295.82 426.756 1295.51 427.151 1295.3 427.552C1295.3 429.534 1295.62 431.053 1296.25 432.107C1296.89 433.152 1297.79 433.675 1298.96 433.675ZM1319.4 437.293C1317.47 437.293 1315.97 436.595 1314.87 435.198H1314.64C1314.79 436.565 1314.87 437.356 1314.87 437.571V444.207H1310.4V420.623H1314.04L1314.67 422.747H1314.87C1315.92 421.126 1317.46 420.315 1319.52 420.315C1321.45 420.315 1322.96 421.062 1324.06 422.557C1325.15 424.051 1325.7 426.126 1325.7 428.782C1325.7 430.53 1325.44 432.049 1324.92 433.338C1324.41 434.627 1323.69 435.608 1322.74 436.282C1321.79 436.956 1320.68 437.293 1319.4 437.293ZM1318.08 423.89C1316.98 423.89 1316.17 424.231 1315.66 424.915C1315.16 425.589 1314.89 426.707 1314.87 428.27V428.753C1314.87 430.511 1315.13 431.771 1315.65 432.532C1316.18 433.294 1317.01 433.675 1318.14 433.675C1320.14 433.675 1321.14 432.024 1321.14 428.724C1321.14 427.112 1320.89 425.906 1320.39 425.105C1319.91 424.295 1319.13 423.89 1318.08 423.89ZM1339.79 437L1338.92 434.773H1338.81C1338.06 435.721 1337.28 436.38 1336.48 436.751C1335.69 437.112 1334.65 437.293 1333.37 437.293C1331.8 437.293 1330.56 436.844 1329.65 435.945C1328.75 435.047 1328.3 433.768 1328.3 432.107C1328.3 430.369 1328.91 429.09 1330.12 428.27C1331.34 427.439 1333.18 426.98 1335.63 426.893L1338.47 426.805V426.087C1338.47 424.427 1337.62 423.597 1335.92 423.597C1334.61 423.597 1333.08 423.992 1331.31 424.783L1329.83 421.766C1331.71 420.779 1333.8 420.286 1336.1 420.286C1338.29 420.286 1339.98 420.765 1341.15 421.722C1342.32 422.679 1342.91 424.134 1342.91 426.087V437H1339.79ZM1338.47 429.412L1336.74 429.471C1335.44 429.51 1334.48 429.744 1333.84 430.174C1333.21 430.604 1332.89 431.258 1332.89 432.137C1332.89 433.396 1333.61 434.026 1335.06 434.026C1336.09 434.026 1336.92 433.729 1337.53 433.133C1338.16 432.537 1338.47 431.746 1338.47 430.76V429.412ZM1351.6 426.922C1353.29 426.922 1354.48 426.785 1355.18 426.512C1355.9 426.238 1356.25 425.804 1356.25 425.208C1356.25 424.681 1356 424.285 1355.48 424.021C1354.96 423.758 1354.11 423.626 1352.91 423.626C1352.16 423.626 1351.31 423.719 1350.35 423.904C1349.4 424.09 1348.54 424.344 1347.76 424.666L1346.44 421.546C1347.6 421.106 1348.73 420.794 1349.82 420.608C1350.92 420.413 1352.14 420.315 1353.49 420.315C1355.53 420.315 1357.16 420.706 1358.39 421.487C1359.62 422.269 1360.24 423.328 1360.24 424.666C1360.24 426.512 1359.15 427.713 1356.97 428.27V428.416C1358.31 428.748 1359.26 429.222 1359.83 429.837C1360.4 430.442 1360.69 431.238 1360.69 432.225C1360.69 433.221 1360.37 434.104 1359.73 434.876C1359.08 435.647 1358.15 436.243 1356.93 436.663C1355.71 437.083 1354.27 437.293 1352.62 437.293C1349.89 437.293 1347.79 436.956 1346.32 436.282V432.591C1347.16 432.981 1348.08 433.289 1349.08 433.514C1350.08 433.738 1351.05 433.851 1351.99 433.851C1353.45 433.851 1354.54 433.689 1355.26 433.367C1355.98 433.035 1356.34 432.566 1356.34 431.961C1356.34 431.297 1355.96 430.809 1355.2 430.496C1354.44 430.174 1353.27 430.013 1351.68 430.013H1349.96V426.922H1351.6ZM1367.75 428.782C1367.75 430.403 1368.02 431.629 1368.54 432.459C1369.08 433.289 1369.95 433.704 1371.15 433.704C1372.34 433.704 1373.2 433.294 1373.71 432.474C1374.24 431.644 1374.51 430.413 1374.51 428.782C1374.51 427.161 1374.24 425.945 1373.71 425.135C1373.19 424.324 1372.32 423.919 1371.12 423.919C1369.93 423.919 1369.07 424.324 1368.54 425.135C1368.02 425.936 1367.75 427.151 1367.75 428.782ZM1379.08 428.782C1379.08 431.448 1378.37 433.533 1376.97 435.037C1375.56 436.541 1373.6 437.293 1371.09 437.293C1369.52 437.293 1368.13 436.951 1366.93 436.268C1365.73 435.574 1364.81 434.583 1364.16 433.294C1363.52 432.005 1363.2 430.501 1363.2 428.782C1363.2 426.106 1363.9 424.026 1365.29 422.542C1366.69 421.058 1368.65 420.315 1371.18 420.315C1372.75 420.315 1374.14 420.657 1375.34 421.341C1376.54 422.024 1377.46 423.006 1378.11 424.285C1378.75 425.564 1379.08 427.063 1379.08 428.782ZM1397.88 424.915C1397.88 425.794 1397.61 426.546 1397.05 427.171C1396.5 427.786 1395.69 428.182 1394.62 428.357V428.475C1395.78 428.611 1396.7 429.012 1397.37 429.676C1398.06 430.33 1398.4 431.141 1398.4 432.107C1398.4 433.699 1397.77 434.915 1396.52 435.755C1395.27 436.585 1393.49 437 1391.16 437H1382.77V420.623H1391.16C1393.41 420.623 1395.09 420.989 1396.2 421.722C1397.32 422.444 1397.88 423.509 1397.88 424.915ZM1393.77 431.873C1393.77 431.229 1393.52 430.765 1393.02 430.481C1392.52 430.188 1391.78 430.042 1390.78 430.042H1387.24V433.909H1390.87C1391.82 433.909 1392.53 433.733 1393.02 433.382C1393.52 433.021 1393.77 432.518 1393.77 431.873ZM1393.36 425.267C1393.36 424.271 1392.57 423.772 1390.99 423.772H1387.24V427.01H1390.47C1391.42 427.01 1392.14 426.873 1392.63 426.6C1393.11 426.326 1393.36 425.882 1393.36 425.267ZM1412.36 437L1411.49 434.773H1411.38C1410.62 435.721 1409.85 436.38 1409.05 436.751C1408.26 437.112 1407.22 437.293 1405.94 437.293C1404.37 437.293 1403.13 436.844 1402.22 435.945C1401.32 435.047 1400.87 433.768 1400.87 432.107C1400.87 430.369 1401.48 429.09 1402.69 428.27C1403.91 427.439 1405.75 426.98 1408.2 426.893L1411.04 426.805V426.087C1411.04 424.427 1410.19 423.597 1408.49 423.597C1407.18 423.597 1405.64 423.992 1403.88 424.783L1402.4 421.766C1404.28 420.779 1406.37 420.286 1408.67 420.286C1410.86 420.286 1412.55 420.765 1413.72 421.722C1414.89 422.679 1415.48 424.134 1415.48 426.087V437H1412.36ZM1411.04 429.412L1409.31 429.471C1408.01 429.51 1407.04 429.744 1406.41 430.174C1405.78 430.604 1405.46 431.258 1405.46 432.137C1405.46 433.396 1406.18 434.026 1407.63 434.026C1408.66 434.026 1409.49 433.729 1410.1 433.133C1410.73 432.537 1411.04 431.746 1411.04 430.76V429.412ZM1433.64 420.623V423.978H1428.28V437H1423.81V423.978H1418.44V420.623H1433.64ZM1443.49 423.494C1442.54 423.494 1441.8 423.797 1441.26 424.402C1440.72 424.998 1440.41 425.848 1440.34 426.951H1446.61C1446.59 425.848 1446.3 424.998 1445.74 424.402C1445.18 423.797 1444.43 423.494 1443.49 423.494ZM1444.12 437.293C1441.48 437.293 1439.42 436.565 1437.93 435.11C1436.45 433.655 1435.71 431.595 1435.71 428.929C1435.71 426.185 1436.39 424.065 1437.76 422.571C1439.13 421.067 1441.03 420.315 1443.46 420.315C1445.77 420.315 1447.57 420.975 1448.86 422.293C1450.15 423.611 1450.79 425.433 1450.79 427.757V429.925H1440.23C1440.28 431.194 1440.66 432.186 1441.36 432.898C1442.06 433.611 1443.05 433.968 1444.32 433.968C1445.31 433.968 1446.24 433.865 1447.12 433.66C1448 433.455 1448.92 433.128 1449.87 432.679V436.136C1449.09 436.526 1448.26 436.814 1447.37 437C1446.48 437.195 1445.39 437.293 1444.12 437.293ZM1469.09 437H1464.62V423.978H1460.51C1460.19 427.64 1459.81 430.374 1459.36 432.181C1458.92 433.978 1458.31 435.281 1457.56 436.092C1456.82 436.893 1455.84 437.293 1454.63 437.293C1453.6 437.293 1452.75 437.137 1452.08 436.824V433.25C1452.56 433.445 1453.04 433.543 1453.52 433.543C1454.08 433.543 1454.54 433.143 1454.91 432.342C1455.29 431.541 1455.63 430.208 1455.92 428.343C1456.22 426.468 1456.48 423.895 1456.7 420.623H1469.09V437ZM1478.26 426.951H1481.41C1483.93 426.951 1485.79 427.352 1487.01 428.152C1488.22 428.953 1488.82 430.164 1488.82 431.785C1488.82 435.262 1486.41 437 1481.59 437H1473.79V420.623H1478.26V426.951ZM1484.35 431.844C1484.35 431.209 1484.1 430.75 1483.59 430.467C1483.08 430.184 1482.33 430.042 1481.32 430.042H1478.26V433.909H1481.38C1483.36 433.909 1484.35 433.221 1484.35 431.844ZM1496.69 420.623V426.922H1502.93V420.623H1507.4V437H1502.93V430.247H1496.69V437H1492.22V420.623H1496.69ZM1516.55 426.951H1518.71C1521.21 426.951 1523.06 427.352 1524.26 428.152C1525.46 428.953 1526.06 430.164 1526.06 431.785C1526.06 433.514 1525.46 434.817 1524.26 435.696C1523.06 436.565 1521.26 437 1518.87 437H1512.08V420.623H1516.55V426.951ZM1521.59 431.844C1521.59 431.209 1521.34 430.75 1520.83 430.467C1520.32 430.184 1519.56 430.042 1518.56 430.042H1516.55V433.909H1518.62C1520.6 433.909 1521.59 433.221 1521.59 431.844ZM1532.9 437H1528.43V420.623H1532.9V437ZM1544.38 423.494C1543.44 423.494 1542.69 423.797 1542.16 424.402C1541.62 424.998 1541.31 425.848 1541.23 426.951H1547.5C1547.48 425.848 1547.2 424.998 1546.64 424.402C1546.08 423.797 1545.33 423.494 1544.38 423.494ZM1545.01 437.293C1542.38 437.293 1540.32 436.565 1538.83 435.11C1537.35 433.655 1536.61 431.595 1536.61 428.929C1536.61 426.185 1537.29 424.065 1538.66 422.571C1540.03 421.067 1541.93 420.315 1544.35 420.315C1546.67 420.315 1548.47 420.975 1549.76 422.293C1551.05 423.611 1551.69 425.433 1551.69 427.757V429.925H1541.13C1541.18 431.194 1541.56 432.186 1542.26 432.898C1542.96 433.611 1543.95 433.968 1545.22 433.968C1546.21 433.968 1547.14 433.865 1548.02 433.66C1548.9 433.455 1549.81 433.128 1550.77 432.679V436.136C1549.99 436.526 1549.15 436.814 1548.27 437C1547.38 437.195 1546.29 437.293 1545.01 437.293Z" fill="white"/>
<path d="M1152.38 429.046L1153.37 430.03C1149.93 432.941 1145.59 434.528 1141 434.528C1130.51 434.528 1121.97 426.112 1121.97 415.766C1121.97 411.245 1123.58 406.969 1126.54 403.575L1127.53 404.556C1128.16 403.821 1128.86 403.127 1129.63 402.486L1127.55 400.429C1126.97 399.857 1126.02 399.857 1125.44 400.429C1121.29 404.525 1119 409.972 1119 415.766C1119 421.561 1121.29 427.007 1125.44 431.105C1129.2 434.811 1134.09 437.011 1139.33 437.397V440.565C1139.33 440.609 1139.34 440.652 1139.34 440.695H1133.42C1129.03 440.695 1125.46 444.212 1125.46 448.535C1125.46 449.344 1126.13 450 1126.95 450H1154.69C1155.51 450 1156.18 449.344 1156.18 448.535C1156.18 444.212 1152.61 440.695 1148.22 440.695H1142.3C1142.3 440.652 1142.31 440.609 1142.31 440.565V437.42C1147.7 437.113 1152.72 434.898 1156.57 431.105C1157.14 430.532 1157.14 429.605 1156.57 429.033L1154.48 426.976C1153.85 427.713 1153.15 428.406 1152.38 429.046Z" fill="white"/>
<path d="M1155.26 419.117L1147.19 414.614C1146.64 414.309 1145.97 414.364 1145.49 414.754L1144.16 415.817C1143.75 416.144 1143.2 416.234 1142.7 416.054L1140.91 415.399C1139.74 414.973 1138.8 414.081 1138.32 412.948C1137.84 411.816 1137.87 410.528 1138.38 409.413L1140.41 405.042C1140.65 404.522 1140.57 403.923 1140.21 403.481L1138.59 401.516C1136.16 401.912 1133.8 402.913 1131.76 404.549C1126.54 408.733 1125 415.761 1127.58 421.566L1132.08 417.963C1133.1 417.148 1134.38 416.773 1135.68 416.906C1138.37 417.18 1140.33 419.563 1140.06 422.218L1139.94 423.335C1139.88 423.842 1140.03 424.339 1140.36 424.735L1144.53 429.798C1146.6 429.295 1148.54 428.345 1150.24 426.983C1152.85 424.898 1154.54 422.109 1155.26 419.117Z" fill="white"/>
<path d="M1137.1 421.915C1137.21 420.868 1136.44 419.928 1135.37 419.82C1134.86 419.768 1134.36 419.915 1133.95 420.236L1129.07 424.149C1129.25 424.397 1129.43 424.639 1129.63 424.875C1132.44 428.29 1136.64 430.217 1141.01 430.217H1141.05L1138.06 426.583C1137.23 425.579 1136.85 424.319 1136.98 423.033L1137.1 421.915Z" fill="white"/>
<path d="M1143.11 406.26L1141.09 410.631C1140.91 411.012 1140.9 411.437 1141.07 411.823C1141.23 412.212 1141.54 412.504 1141.94 412.65L1142.94 413.016L1143.61 412.48C1144.44 411.821 1145.43 411.485 1146.44 411.485C1147.19 411.485 1147.96 411.675 1148.65 412.064L1155.66 415.975C1155.71 412.607 1154.56 409.301 1152.38 406.657C1149.85 403.579 1146.21 401.706 1142.3 401.369L1142.52 401.633C1143.6 402.947 1143.83 404.719 1143.11 406.26Z" fill="white"/>
<path d="M100.309 862H85.2207V820.691L85.3672 813.904L85.6113 806.482C83.1048 808.989 81.3633 810.633 80.3867 811.414L72.1836 818.006L64.9082 808.924L87.9062 790.613H100.309V862ZM169.645 826.307C169.645 838.774 167.594 848.003 163.492 853.992C159.423 859.982 153.141 862.977 144.645 862.977C136.409 862.977 130.191 859.884 125.992 853.699C121.826 847.514 119.742 838.383 119.742 826.307C119.742 813.709 121.777 804.432 125.846 798.475C129.915 792.485 136.181 789.49 144.645 789.49C152.88 789.49 159.098 792.615 163.297 798.865C167.529 805.115 169.645 814.262 169.645 826.307ZM134.732 826.307C134.732 835.063 135.481 841.346 136.979 845.154C138.508 848.93 141.064 850.818 144.645 850.818C148.16 850.818 150.699 848.898 152.262 845.057C153.824 841.215 154.605 834.965 154.605 826.307C154.605 817.55 153.808 811.268 152.213 807.459C150.65 803.618 148.128 801.697 144.645 801.697C141.096 801.697 138.557 803.618 137.027 807.459C135.497 811.268 134.732 817.55 134.732 826.307ZM203.238 816.395C210.139 816.395 215.624 818.331 219.693 822.205C223.795 826.079 225.846 831.385 225.846 838.123C225.846 846.098 223.388 852.234 218.473 856.531C213.557 860.828 206.526 862.977 197.379 862.977C189.436 862.977 183.023 861.691 178.141 859.119V846.082C180.712 847.449 183.707 848.572 187.125 849.451C190.543 850.298 193.782 850.721 196.842 850.721C206.054 850.721 210.66 846.945 210.66 839.393C210.66 832.199 205.891 828.602 196.354 828.602C194.628 828.602 192.724 828.781 190.641 829.139C188.557 829.464 186.865 829.822 185.562 830.213L179.557 826.99L182.242 790.613H220.963V803.406H195.475L194.156 817.42L195.865 817.078C197.851 816.622 200.309 816.395 203.238 816.395ZM245.768 812C245.768 816.134 246.126 819.227 246.842 821.277C247.59 823.296 248.779 824.305 250.406 824.305C253.531 824.305 255.094 820.203 255.094 812C255.094 803.862 253.531 799.793 250.406 799.793C248.779 799.793 247.59 800.802 246.842 802.82C246.126 804.806 245.768 807.866 245.768 812ZM267.398 811.902C267.398 819.389 265.95 825.021 263.053 828.797C260.156 832.54 255.908 834.412 250.309 834.412C244.938 834.412 240.787 832.492 237.857 828.65C234.928 824.777 233.463 819.194 233.463 811.902C233.463 797.026 239.078 789.588 250.309 789.588C255.81 789.588 260.025 791.525 262.955 795.398C265.917 799.24 267.398 804.741 267.398 811.902ZM300.992 790.613L261.393 862H249.674L289.273 790.613H300.992ZM295.768 840.516C295.768 844.65 296.126 847.742 296.842 849.793C297.59 851.811 298.779 852.82 300.406 852.82C303.531 852.82 305.094 848.719 305.094 840.516C305.094 832.378 303.531 828.309 300.406 828.309C298.779 828.309 297.59 829.318 296.842 831.336C296.126 833.322 295.768 836.382 295.768 840.516ZM317.398 840.418C317.398 847.872 315.95 853.488 313.053 857.264C310.156 861.007 305.908 862.879 300.309 862.879C294.938 862.879 290.787 860.958 287.857 857.117C284.928 853.243 283.463 847.677 283.463 840.418C283.463 825.542 289.078 818.104 300.309 818.104C305.81 818.104 310.025 820.04 312.955 823.914C315.917 827.755 317.398 833.257 317.398 840.418Z" fill="#01F859"/>
<path d="M155.792 719.056C154.083 719.056 152.76 719.7 151.822 720.989C150.885 722.269 150.416 724.056 150.416 726.351C150.416 731.126 152.208 733.514 155.792 733.514C157.296 733.514 159.117 733.138 161.256 732.386V736.194C159.498 736.927 157.535 737.293 155.367 737.293C152.252 737.293 149.869 736.351 148.219 734.466C146.568 732.571 145.743 729.856 145.743 726.321C145.743 724.095 146.148 722.146 146.959 720.477C147.77 718.797 148.932 717.513 150.445 716.624C151.969 715.726 153.751 715.276 155.792 715.276C157.872 715.276 159.962 715.779 162.062 716.785L160.597 720.477C159.796 720.096 158.99 719.764 158.18 719.48C157.369 719.197 156.573 719.056 155.792 719.056ZM180.357 720.623V737H175.875V723.978H169.942V737H165.475V720.623H180.357ZM188.604 728.782C188.604 730.403 188.868 731.629 189.396 732.459C189.933 733.289 190.802 733.704 192.003 733.704C193.194 733.704 194.049 733.294 194.566 732.474C195.094 731.644 195.357 730.413 195.357 728.782C195.357 727.161 195.094 725.945 194.566 725.135C194.039 724.324 193.175 723.919 191.974 723.919C190.782 723.919 189.923 724.324 189.396 725.135C188.868 725.936 188.604 727.151 188.604 728.782ZM199.928 728.782C199.928 731.448 199.225 733.533 197.818 735.037C196.412 736.541 194.454 737.293 191.944 737.293C190.372 737.293 188.985 736.951 187.784 736.268C186.583 735.574 185.66 734.583 185.016 733.294C184.371 732.005 184.049 730.501 184.049 728.782C184.049 726.106 184.747 724.026 186.144 722.542C187.54 721.058 189.503 720.315 192.032 720.315C193.604 720.315 194.991 720.657 196.192 721.341C197.394 722.024 198.316 723.006 198.961 724.285C199.605 725.564 199.928 727.063 199.928 728.782ZM212.613 737.293C210.689 737.293 209.181 736.595 208.087 735.198H207.853C208.009 736.565 208.087 737.356 208.087 737.571V744.207H203.619V720.623H207.252L207.882 722.747H208.087C209.132 721.126 210.68 720.315 212.73 720.315C214.664 720.315 216.178 721.062 217.271 722.557C218.365 724.051 218.912 726.126 218.912 728.782C218.912 730.53 218.653 732.049 218.136 733.338C217.628 734.627 216.9 735.608 215.953 736.282C215.006 736.956 213.893 737.293 212.613 737.293ZM211.295 723.89C210.191 723.89 209.386 724.231 208.878 724.915C208.37 725.589 208.106 726.707 208.087 728.27V728.753C208.087 730.511 208.346 731.771 208.863 732.532C209.391 733.294 210.221 733.675 211.354 733.675C213.355 733.675 214.356 732.024 214.356 728.724C214.356 727.112 214.107 725.906 213.609 725.105C213.121 724.295 212.35 723.89 211.295 723.89ZM236.153 720.623V723.978H230.792V737H226.324V723.978H220.948V720.623H236.153ZM243.536 720.623V727.098C243.536 727.781 243.424 729.451 243.199 732.107L250.758 720.623H256.134V737H251.812V730.467C251.812 729.305 251.91 727.664 252.105 725.545L244.576 737H239.215V720.623H243.536ZM275.953 724.915C275.953 725.794 275.675 726.546 275.118 727.171C274.571 727.786 273.761 728.182 272.687 728.357V728.475C273.849 728.611 274.767 729.012 275.44 729.676C276.124 730.33 276.466 731.141 276.466 732.107C276.466 733.699 275.841 734.915 274.591 735.755C273.341 736.585 271.554 737 269.229 737H260.836V720.623H269.229C271.476 720.623 273.155 720.989 274.269 721.722C275.392 722.444 275.953 723.509 275.953 724.915ZM271.837 731.873C271.837 731.229 271.588 730.765 271.09 730.481C270.592 730.188 269.845 730.042 268.849 730.042H265.304V733.909H268.937C269.884 733.909 270.602 733.733 271.09 733.382C271.588 733.021 271.837 732.518 271.837 731.873ZM271.427 725.267C271.427 724.271 270.636 723.772 269.054 723.772H265.304V727.01H268.541C269.488 727.01 270.206 726.873 270.694 726.6C271.183 726.326 271.427 725.882 271.427 725.267ZM284.493 720.623V726.922H290.733V720.623H295.201V737H290.733V730.247H284.493V737H280.025V720.623H284.493ZM304.356 726.951H306.51C309.01 726.951 310.86 727.352 312.062 728.152C313.263 728.953 313.863 730.164 313.863 731.785C313.863 733.514 313.263 734.817 312.062 735.696C310.86 736.565 309.063 737 306.671 737H299.889V720.623H304.356V726.951ZM309.396 731.844C309.396 731.209 309.142 730.75 308.634 730.467C308.126 730.184 307.369 730.042 306.363 730.042H304.356V733.909H306.422C308.404 733.909 309.396 733.221 309.396 731.844ZM320.704 737H316.236V720.623H320.704V737ZM332.188 723.494C331.241 723.494 330.499 723.797 329.962 724.402C329.425 724.998 329.117 725.848 329.039 726.951H335.309C335.289 725.848 335.001 724.998 334.444 724.402C333.888 723.797 333.136 723.494 332.188 723.494ZM332.818 737.293C330.182 737.293 328.121 736.565 326.637 735.11C325.152 733.655 324.41 731.595 324.41 728.929C324.41 726.185 325.094 724.065 326.461 722.571C327.838 721.067 329.737 720.315 332.159 720.315C334.474 720.315 336.275 720.975 337.564 722.293C338.854 723.611 339.498 725.433 339.498 727.757V729.925H328.937C328.985 731.194 329.361 732.186 330.064 732.898C330.768 733.611 331.754 733.968 333.023 733.968C334.01 733.968 334.942 733.865 335.821 733.66C336.7 733.455 337.618 733.128 338.575 732.679V736.136C337.794 736.526 336.959 736.814 336.07 737C335.182 737.195 334.098 737.293 332.818 737.293Z" fill="white"/>
<path d="M82.7738 725C82.7738 727.94 84.7896 730.432 87.5553 731.253L87.5584 718.746C84.7896 719.566 82.7738 722.059 82.7738 725Z" fill="white"/>
<path d="M96.3019 725C96.3019 722.03 94.2447 719.519 91.4346 718.723L91.4314 731.277C94.2416 730.483 96.3019 727.97 96.3019 725Z" fill="white"/>
<path d="M70.8854 725C70.8854 718.531 65.6099 713.229 59 712.906V737.094C65.6099 736.769 70.8854 731.469 70.8854 725Z" fill="white"/>
<path d="M104.236 725C104.236 716.469 111.251 709.492 119.999 709.166V704.487C119.999 703.666 119.31 703 118.459 703H91.4392L91.436 714.887C96.4002 715.755 100.179 719.957 100.179 724.998C100.179 730.042 96.3986 734.245 91.4312 735.111L91.4297 746.998H118.459C119.31 746.998 119.999 746.332 119.999 745.512V740.833C111.25 740.507 104.236 733.53 104.236 725Z" fill="white"/>
<path d="M87.5539 735.096C82.631 734.196 78.8964 730.011 78.8964 725C78.8964 719.986 82.6342 715.801 87.5602 714.903V703H60.5409C59.6894 703 59 703.666 59 704.487V709.166C67.7496 709.493 74.763 716.47 74.763 725C74.763 733.53 67.7496 740.507 59 740.834V745.513C59 746.334 59.6894 747 60.5409 747H87.5507L87.5539 735.096Z" fill="white"/>
<path d="M120 737.094V712.906C113.39 713.231 108.115 718.531 108.115 725C108.115 731.469 113.39 736.769 120 737.094Z" fill="white"/>
<path d="M0 340H530V640H0V340Z" fill="#C4C4C4" fill-opacity="0.05"/>
<path d="M100.309 562H85.2207V520.691L85.3672 513.904L85.6113 506.482C83.1048 508.989 81.3633 510.633 80.3867 511.414L72.1836 518.006L64.9082 508.924L87.9062 490.613H100.309V562ZM167.252 506.58C167.252 511.04 165.901 514.832 163.199 517.957C160.497 521.082 156.705 523.23 151.822 524.402V524.695C157.584 525.411 161.946 527.169 164.908 529.969C167.87 532.736 169.352 536.479 169.352 541.199C169.352 548.068 166.861 553.423 161.881 557.264C156.9 561.072 149.788 562.977 140.543 562.977C132.796 562.977 125.927 561.691 119.938 559.119V546.277C122.704 547.677 125.748 548.816 129.068 549.695C132.389 550.574 135.676 551.014 138.932 551.014C143.912 551.014 147.59 550.167 149.967 548.475C152.343 546.782 153.531 544.064 153.531 540.32C153.531 536.967 152.164 534.591 149.43 533.191C146.695 531.792 142.333 531.092 136.344 531.092H130.924V519.52H136.441C141.975 519.52 146.012 518.803 148.551 517.371C151.122 515.906 152.408 513.416 152.408 509.9C152.408 504.497 149.023 501.795 142.252 501.795C139.908 501.795 137.516 502.186 135.074 502.967C132.665 503.748 129.98 505.099 127.018 507.02L120.035 496.619C126.546 491.932 134.309 489.588 143.326 489.588C150.715 489.588 156.542 491.085 160.807 494.08C165.104 497.075 167.252 501.242 167.252 506.58ZM224.381 506.58C224.381 511.04 223.03 514.832 220.328 517.957C217.626 521.082 213.834 523.23 208.951 524.402V524.695C214.713 525.411 219.075 527.169 222.037 529.969C224.999 532.736 226.48 536.479 226.48 541.199C226.48 548.068 223.99 553.423 219.01 557.264C214.029 561.072 206.917 562.977 197.672 562.977C189.924 562.977 183.056 561.691 177.066 559.119V546.277C179.833 547.677 182.877 548.816 186.197 549.695C189.518 550.574 192.805 551.014 196.061 551.014C201.041 551.014 204.719 550.167 207.096 548.475C209.472 546.782 210.66 544.064 210.66 540.32C210.66 536.967 209.293 534.591 206.559 533.191C203.824 531.792 199.462 531.092 193.473 531.092H188.053V519.52H193.57C199.104 519.52 203.141 518.803 205.68 517.371C208.251 515.906 209.537 513.416 209.537 509.9C209.537 504.497 206.152 501.795 199.381 501.795C197.037 501.795 194.645 502.186 192.203 502.967C189.794 503.748 187.109 505.099 184.146 507.02L177.164 496.619C183.674 491.932 191.438 489.588 200.455 489.588C207.844 489.588 213.671 491.085 217.936 494.08C222.232 497.075 224.381 501.242 224.381 506.58ZM252.799 551.502C251.106 558.077 248.242 565.874 244.205 574.891H233.463C235.579 566.232 237.223 558.061 238.395 550.379H252.066L252.799 551.502ZM270.475 562L297.281 503.406H262.076V490.711H313.297V500.184L286.295 562H270.475ZM370.426 562H320.523V551.502L338.443 533.387C343.749 527.951 347.216 524.191 348.844 522.107C350.471 519.992 351.643 518.038 352.359 516.248C353.076 514.458 353.434 512.602 353.434 510.682C353.434 507.817 352.636 505.685 351.041 504.285C349.479 502.885 347.379 502.186 344.742 502.186C341.975 502.186 339.29 502.82 336.686 504.09C334.081 505.359 331.363 507.166 328.531 509.51L320.328 499.793C323.844 496.798 326.757 494.682 329.068 493.445C331.38 492.208 333.902 491.264 336.637 490.613C339.371 489.93 342.431 489.588 345.816 489.588C350.276 489.588 354.215 490.402 357.633 492.029C361.051 493.657 363.704 495.936 365.592 498.865C367.48 501.795 368.424 505.148 368.424 508.924C368.424 512.212 367.838 515.304 366.666 518.201C365.527 521.066 363.736 524.012 361.295 527.039C358.886 530.066 354.622 534.38 348.502 539.979L339.322 548.621V549.305H370.426V562ZM389.029 512C389.029 516.134 389.387 519.227 390.104 521.277C390.852 523.296 392.04 524.305 393.668 524.305C396.793 524.305 398.355 520.203 398.355 512C398.355 503.862 396.793 499.793 393.668 499.793C392.04 499.793 390.852 500.802 390.104 502.82C389.387 504.806 389.029 507.866 389.029 512ZM410.66 511.902C410.66 519.389 409.212 525.021 406.314 528.797C403.417 532.54 399.169 534.412 393.57 534.412C388.199 534.412 384.049 532.492 381.119 528.65C378.189 524.777 376.725 519.194 376.725 511.902C376.725 497.026 382.34 489.588 393.57 489.588C399.072 489.588 403.287 491.525 406.217 495.398C409.179 499.24 410.66 504.741 410.66 511.902ZM444.254 490.613L404.654 562H392.936L432.535 490.613H444.254ZM439.029 540.516C439.029 544.65 439.387 547.742 440.104 549.793C440.852 551.811 442.04 552.82 443.668 552.82C446.793 552.82 448.355 548.719 448.355 540.516C448.355 532.378 446.793 528.309 443.668 528.309C442.04 528.309 440.852 529.318 440.104 531.336C439.387 533.322 439.029 536.382 439.029 540.516ZM460.66 540.418C460.66 547.872 459.212 553.488 456.314 557.264C453.417 561.007 449.169 562.879 443.57 562.879C438.199 562.879 434.049 560.958 431.119 557.117C428.189 553.243 426.725 547.677 426.725 540.418C426.725 525.542 432.34 518.104 443.57 518.104C449.072 518.104 453.287 520.04 456.217 523.914C459.179 527.755 460.66 533.257 460.66 540.418Z" fill="#FF0000"/>
<path d="M158.644 437H154.117V419.363H146.236V437H141.695V415.584H158.644V437ZM167.257 428.782C167.257 430.403 167.521 431.629 168.048 432.459C168.585 433.289 169.454 433.704 170.655 433.704C171.847 433.704 172.701 433.294 173.219 432.474C173.746 431.644 174.01 430.413 174.01 428.782C174.01 427.161 173.746 425.945 173.219 425.135C172.691 424.324 171.827 423.919 170.626 423.919C169.435 423.919 168.575 424.324 168.048 425.135C167.521 425.936 167.257 427.151 167.257 428.782ZM178.58 428.782C178.58 431.448 177.877 433.533 176.471 435.037C175.064 436.541 173.106 437.293 170.597 437.293C169.024 437.293 167.638 436.951 166.437 436.268C165.235 435.574 164.312 434.583 163.668 433.294C163.023 432.005 162.701 430.501 162.701 428.782C162.701 426.106 163.399 424.026 164.796 422.542C166.192 421.058 168.155 420.315 170.685 420.315C172.257 420.315 173.644 420.657 174.845 421.341C176.046 422.024 176.969 423.006 177.613 424.285C178.258 425.564 178.58 427.063 178.58 428.782ZM196.935 437H192.467V423.978H188.351C188.038 427.64 187.657 430.374 187.208 432.181C186.759 433.978 186.158 435.281 185.406 436.092C184.664 436.893 183.688 437.293 182.477 437.293C181.441 437.293 180.592 437.137 179.928 436.824V433.25C180.406 433.445 180.885 433.543 181.363 433.543C181.92 433.543 182.384 433.143 182.755 432.342C183.136 431.541 183.473 430.208 183.766 428.343C184.068 426.468 184.327 423.895 184.542 420.623H196.935V437ZM205.958 420.623V427.098C205.958 427.781 205.846 429.451 205.621 432.107L213.18 420.623H218.556V437H214.234V430.467C214.234 429.305 214.332 427.664 214.527 425.545L206.998 437H201.637V420.623H205.958ZM233.995 420.623H238.917L232.428 428.475L239.488 437H234.42L227.726 428.694V437H223.258V420.623H227.726V428.577L233.995 420.623ZM256.495 437H252.027V423.978H247.911C247.599 427.64 247.218 430.374 246.769 432.181C246.319 433.978 245.719 435.281 244.967 436.092C244.225 436.893 243.248 437.293 242.037 437.293C241.002 437.293 240.152 437.137 239.488 436.824V433.25C239.967 433.445 240.445 433.543 240.924 433.543C241.48 433.543 241.944 433.143 242.315 432.342C242.696 431.541 243.033 430.208 243.326 428.343C243.629 426.468 243.888 423.895 244.103 420.623H256.495V437ZM265.519 420.623V427.098C265.519 427.781 265.406 429.451 265.182 432.107L272.74 420.623H278.116V437H273.795V430.467C273.795 429.305 273.893 427.664 274.088 425.545L266.559 437H261.197V420.623H265.519ZM287.286 420.623V426.922H293.526V420.623H297.994V437H293.526V430.247H287.286V437H282.818V420.623H287.286ZM307.003 420.623V427.098C307.003 427.781 306.891 429.451 306.666 432.107L314.225 420.623H319.601V437H315.279V430.467C315.279 429.305 315.377 427.664 315.572 425.545L308.043 437H302.682V420.623H307.003ZM335.04 420.623H339.962L333.473 428.475L340.533 437H335.465L328.771 428.694V437H324.303V420.623H328.771V428.577L335.04 420.623ZM347.198 420.623V427.098C347.198 427.781 347.086 429.451 346.861 432.107L354.42 420.623H359.796V437H355.475V430.467C355.475 429.305 355.572 427.664 355.768 425.545L348.238 437H342.877V420.623H347.198Z" fill="white"/>
<path d="M109.209 420.024H69.367V403.925H71.4999C71.1597 404.584 70.9661 405.328 70.9661 406.115V412.159C70.9661 414.845 73.1974 417.03 75.9407 417.03H77.3156C80.0588 417.03 82.2901 414.845 82.2901 412.159V406.116C82.2901 403.43 80.0588 401.246 77.3156 401.246H77.0115C76.7173 400.517 75.9932 400 75.1455 400H67.362C66.2551 400 65.3571 400.879 65.3571 401.963V420.024H64.7916C61.5989 420.024 59 422.568 59 425.695V426.552C59 429.679 61.5989 432.223 64.7927 432.223H65.4195V437.059C65.4195 437.063 65.4195 437.067 65.4195 437.072V439.226C63.245 440.005 61.6896 442.05 61.6896 444.445C61.6896 447.508 64.2349 450 67.3631 450C70.4914 450 73.0366 447.508 73.0366 444.445C73.0366 442.095 71.5381 440.083 69.4282 439.272V438.319L83.5928 432.222H90.382L104.623 438.352V439.172C102.482 439.966 100.954 441.996 100.954 444.368C100.954 447.431 103.499 449.923 106.627 449.923C109.755 449.923 112.301 447.431 112.301 444.368C112.301 441.996 110.774 439.966 108.631 439.172V432.222H109.207C112.401 432.222 115 429.678 115 426.551V425.694C115.002 422.568 112.403 420.024 109.209 420.024ZM69.4282 434.032V432.223H73.6306L69.4282 434.032ZM104.623 434.065L100.344 432.223H104.623V434.065Z" fill="white"/>
<path d="M530 940C530 422.56 530 1157.44 530 640" stroke="#275D81" stroke-width="2"/>
<path d="M1060 940C1060 422.56 1060 1157.44 1060 640" stroke="#275D81" stroke-width="2"/>
<path d="M530 640C530 122.56 530 857.44 530 340" stroke="#275D81" stroke-width="2"/>
<path d="M1060 640C1060 122.56 1060 857.44 1060 340" stroke="#275D81" stroke-width="2"/>
<path d="M1590 339.999C986.751 339.999 603.249 340 0 340" stroke="#275D81" stroke-width="2"/>
<path d="M1590 639.999C986.751 639.999 603.249 640 0 640" stroke="#275D81" stroke-width="2"/>
</svg>
