<svg width="1590" height="868" viewBox="0 0 1590 868" fill="none" xmlns="http://www.w3.org/2000/svg">
<path d="M462.129 204L523.784 69.2344H442.812V40.0352H560.62V61.8223L498.516 204H462.129ZM691.118 121.905C691.118 150.58 686.401 171.806 676.968 185.582C667.609 199.358 653.159 206.246 633.618 206.246C614.676 206.246 600.376 199.133 590.718 184.908C581.134 170.683 576.343 149.682 576.343 121.905C576.343 92.9307 581.022 71.5928 590.381 57.8916C599.74 44.1156 614.152 37.2275 633.618 37.2275C652.56 37.2275 666.86 44.415 676.519 58.79C686.252 73.165 691.118 94.2035 691.118 121.905ZM610.82 121.905C610.82 142.045 612.542 156.495 615.986 165.255C619.505 173.94 625.382 178.282 633.618 178.282C641.704 178.282 647.544 173.865 651.138 165.03C654.731 156.196 656.528 141.821 656.528 121.905C656.528 101.765 654.694 87.3154 651.025 78.5557C647.432 69.721 641.629 65.3037 633.618 65.3037C625.457 65.3037 619.618 69.721 616.099 78.5557C612.58 87.3154 610.82 101.765 610.82 121.905ZM882.485 109.889C882.485 142.232 875.672 166.378 862.046 182.325C848.42 198.272 827.793 206.246 800.166 206.246C790.433 206.246 783.058 205.722 778.042 204.674V176.822C784.331 178.395 790.92 179.181 797.808 179.181C809.412 179.181 818.958 177.496 826.445 174.127C833.932 170.683 839.66 165.33 843.628 158.067C847.596 150.73 849.88 140.66 850.479 127.857H849.131C844.788 134.895 839.772 139.837 834.082 142.682C828.392 145.527 821.279 146.949 812.744 146.949C798.444 146.949 787.176 142.382 778.94 133.248C770.705 124.039 766.587 111.274 766.587 94.9521C766.587 77.3577 771.566 63.4694 781.523 53.2871C791.556 43.0299 805.182 37.9014 822.402 37.9014C834.531 37.9014 845.125 40.7464 854.185 46.4365C863.319 52.1266 870.319 60.3997 875.186 71.2559C880.052 82.0371 882.485 94.9147 882.485 109.889ZM823.076 65.7529C815.889 65.7529 810.273 68.2236 806.23 73.165C802.188 78.1064 800.166 85.2191 800.166 94.5029C800.166 102.439 802 108.728 805.669 113.37C809.338 118.012 814.915 120.333 822.402 120.333C829.44 120.333 835.467 118.049 840.483 113.482C845.5 108.84 848.008 103.525 848.008 97.5352C848.008 88.6257 845.649 81.1012 840.933 74.9619C836.291 68.8226 830.339 65.7529 823.076 65.7529ZM1013.66 121.905C1013.66 150.58 1008.94 171.806 999.507 185.582C990.148 199.358 975.698 206.246 956.157 206.246C937.215 206.246 922.915 199.133 913.257 184.908C903.674 170.683 898.882 149.682 898.882 121.905C898.882 92.9307 903.561 71.5928 912.92 57.8916C922.279 44.1156 936.691 37.2275 956.157 37.2275C975.099 37.2275 989.399 44.415 999.058 58.79C1008.79 73.165 1013.66 94.2035 1013.66 121.905ZM933.359 121.905C933.359 142.045 935.081 156.495 938.525 165.255C942.044 173.94 947.922 178.282 956.157 178.282C964.243 178.282 970.083 173.865 973.677 165.03C977.271 156.196 979.067 141.821 979.067 121.905C979.067 101.765 977.233 87.3154 973.564 78.5557C969.971 69.721 964.168 65.3037 956.157 65.3037C947.996 65.3037 942.157 69.721 938.638 78.5557C935.119 87.3154 933.359 101.765 933.359 121.905ZM1030.05 134.259C1030.05 101.765 1036.9 77.5824 1050.61 61.71C1064.38 45.8376 1084.97 37.9014 1112.37 37.9014C1121.73 37.9014 1129.07 38.4629 1134.38 39.5859V67.3252C1127.72 65.8278 1121.13 65.0791 1114.62 65.0791C1102.71 65.0791 1092.98 66.876 1085.42 70.4697C1077.93 74.0635 1072.32 79.3792 1068.57 86.417C1064.83 93.4548 1062.62 103.45 1061.95 116.402H1063.41C1070.82 103.674 1082.69 97.3105 1099.01 97.3105C1113.68 97.3105 1125.18 101.915 1133.49 111.124C1141.8 120.333 1145.95 133.061 1145.95 149.308C1145.95 166.827 1141.01 180.715 1131.13 190.973C1121.25 201.155 1107.54 206.246 1090.02 206.246C1077.9 206.246 1067.3 203.438 1058.24 197.823C1049.26 192.208 1042.29 184.01 1037.35 173.229C1032.49 162.447 1030.05 149.457 1030.05 134.259ZM1089.35 178.507C1096.76 178.507 1102.45 176.036 1106.42 171.095C1110.39 166.078 1112.37 158.966 1112.37 149.757C1112.37 141.746 1110.5 135.457 1106.76 130.89C1103.09 126.248 1097.51 123.927 1090.02 123.927C1082.99 123.927 1076.96 126.21 1071.94 130.777C1067 135.344 1064.53 140.66 1064.53 146.725C1064.53 155.634 1066.85 163.159 1071.49 169.298C1076.21 175.437 1082.16 178.507 1089.35 178.507Z" fill="#01F859"/>
<path d="M655.375 317H648.031V287.5C648.031 283.979 648.115 281.188 648.281 279.125C647.802 279.625 647.208 280.177 646.5 280.781C645.812 281.385 643.479 283.302 639.5 286.531L635.812 281.875L649.25 271.312H655.375V317ZM670.5 297.531C670.5 279.656 677.781 270.719 692.344 270.719C694.635 270.719 696.573 270.896 698.156 271.25V277.375C696.573 276.917 694.74 276.688 692.656 276.688C687.76 276.688 684.083 278 681.625 280.625C679.167 283.25 677.833 287.458 677.625 293.25H678C678.979 291.562 680.354 290.26 682.125 289.344C683.896 288.406 685.979 287.938 688.375 287.938C692.521 287.938 695.75 289.208 698.062 291.75C700.375 294.292 701.531 297.74 701.531 302.094C701.531 306.885 700.188 310.677 697.5 313.469C694.833 316.24 691.188 317.625 686.562 317.625C683.292 317.625 680.448 316.844 678.031 315.281C675.615 313.698 673.75 311.406 672.438 308.406C671.146 305.385 670.5 301.76 670.5 297.531ZM686.438 311.562C688.958 311.562 690.896 310.75 692.25 309.125C693.625 307.5 694.312 305.177 694.312 302.156C694.312 299.531 693.667 297.469 692.375 295.969C691.104 294.469 689.188 293.719 686.625 293.719C685.042 293.719 683.583 294.062 682.25 294.75C680.917 295.417 679.865 296.344 679.094 297.531C678.323 298.698 677.938 299.896 677.938 301.125C677.938 304.062 678.729 306.542 680.312 308.562C681.917 310.562 683.958 311.562 686.438 311.562ZM707.062 297.531C707.062 279.656 714.344 270.719 728.906 270.719C731.198 270.719 733.135 270.896 734.719 271.25V277.375C733.135 276.917 731.302 276.688 729.219 276.688C724.323 276.688 720.646 278 718.188 280.625C715.729 283.25 714.396 287.458 714.188 293.25H714.562C715.542 291.562 716.917 290.26 718.688 289.344C720.458 288.406 722.542 287.938 724.938 287.938C729.083 287.938 732.312 289.208 734.625 291.75C736.938 294.292 738.094 297.74 738.094 302.094C738.094 306.885 736.75 310.677 734.062 313.469C731.396 316.24 727.75 317.625 723.125 317.625C719.854 317.625 717.01 316.844 714.594 315.281C712.177 313.698 710.312 311.406 709 308.406C707.708 305.385 707.062 301.76 707.062 297.531ZM723 311.562C725.521 311.562 727.458 310.75 728.812 309.125C730.188 307.5 730.875 305.177 730.875 302.156C730.875 299.531 730.229 297.469 728.938 295.969C727.667 294.469 725.75 293.719 723.188 293.719C721.604 293.719 720.146 294.062 718.812 294.75C717.479 295.417 716.427 296.344 715.656 297.531C714.885 298.698 714.5 299.896 714.5 301.125C714.5 304.062 715.292 306.542 716.875 308.562C718.479 310.562 720.521 311.562 723 311.562ZM749.406 285C749.406 288.104 749.708 290.417 750.312 291.938C750.917 293.458 751.906 294.219 753.281 294.219C756.031 294.219 757.406 291.146 757.406 285C757.406 278.854 756.031 275.781 753.281 275.781C751.906 275.781 750.917 276.542 750.312 278.062C749.708 279.583 749.406 281.896 749.406 285ZM763.469 284.938C763.469 289.729 762.604 293.333 760.875 295.75C759.167 298.146 756.635 299.344 753.281 299.344C750.115 299.344 747.656 298.104 745.906 295.625C744.177 293.125 743.312 289.562 743.312 284.938C743.312 275.417 746.635 270.656 753.281 270.656C756.552 270.656 759.062 271.896 760.812 274.375C762.583 276.833 763.469 280.354 763.469 284.938ZM779.156 303.25C779.156 306.354 779.458 308.677 780.062 310.219C780.688 311.76 781.688 312.531 783.062 312.531C785.792 312.531 787.156 309.438 787.156 303.25C787.156 297.146 785.792 294.094 783.062 294.094C781.688 294.094 780.688 294.844 780.062 296.344C779.458 297.844 779.156 300.146 779.156 303.25ZM793.219 303.25C793.219 308.042 792.354 311.635 790.625 314.031C788.896 316.427 786.375 317.625 783.062 317.625C779.896 317.625 777.438 316.396 775.688 313.938C773.938 311.458 773.062 307.896 773.062 303.25C773.062 293.729 776.396 288.969 783.062 288.969C786.271 288.969 788.76 290.198 790.531 292.656C792.323 295.115 793.219 298.646 793.219 303.25ZM783.938 271.312L758.594 317H752.531L777.875 271.312H783.938ZM839.188 282.438H847.25L832.969 299.094L848.469 317H840.031L825.094 299.469V317H817.75V282.438H825.094V299.219L839.188 282.438ZM899.938 317L895.375 304.312H877.906L873.438 317H865.562L882.656 271.125H890.781L907.875 317H899.938ZM893.406 297.875L889.125 285.438C888.812 284.604 888.375 283.292 887.812 281.5C887.271 279.708 886.896 278.396 886.688 277.562C886.125 280.125 885.302 282.927 884.219 285.969L880.094 297.875H893.406ZM949.031 317H941.531V277.719H921.375V317H913.906V271.312H949.031V317ZM996.219 317H988.719V277.719H968.562V317H961.094V271.312H996.219V317ZM1035.41 271.312V277.719H1015.75V317H1008.28V271.312H1035.41Z" fill="white"/>
<path d="M577 277L601 317H553L577 277Z" fill="#01F859"/>
<path d="M1211.99 204H1205.31V183.352L1204.94 184.805C1204.09 188.102 1203.34 190.594 1202.66 192.281L1198.02 204H1192.94L1188.23 192.188C1187.55 190.469 1186.84 188.055 1186.07 184.945L1185.62 183.352V204H1178.97V177.797H1188.81L1193.31 188.977C1193.78 190.18 1194.21 191.562 1194.6 193.125C1195.01 194.688 1195.28 196.023 1195.42 197.133C1195.94 194.789 1196.34 193.109 1196.62 192.094C1196.91 191.062 1197.23 190.117 1197.58 189.258C1197.92 188.398 1199.48 184.578 1202.24 177.797H1211.99V204ZM1242.98 204H1235.83V183.164H1229.24C1228.74 189.023 1228.13 193.398 1227.41 196.289C1226.7 199.164 1225.73 201.25 1224.53 202.547C1223.34 203.828 1221.78 204.469 1219.84 204.469C1218.19 204.469 1216.83 204.219 1215.77 203.719V198C1216.53 198.312 1217.3 198.469 1218.06 198.469C1218.95 198.469 1219.7 197.828 1220.29 196.547C1220.9 195.266 1221.44 193.133 1221.91 190.148C1222.39 187.148 1222.8 183.031 1223.15 177.797H1242.98V204ZM1257.65 177.797V187.875H1267.63V177.797H1274.78V204H1267.63V193.195H1257.65V204H1250.5V177.797H1257.65ZM1295.32 204V198.864H1291.48V194.208H1295.32V190.464H1291.48V184.512H1295.32V169.728H1306.26C1310.68 169.728 1313.9 170.624 1315.91 172.416C1317.96 174.208 1318.98 176.672 1318.98 179.808C1318.98 181.664 1318.57 183.408 1317.74 185.04C1316.9 186.672 1315.51 187.984 1313.56 188.976C1311.64 189.968 1309.02 190.464 1305.69 190.464H1302.57V194.208H1309.96V198.864H1302.57V204H1295.32ZM1304.97 184.512C1307.02 184.512 1308.63 184.16 1309.82 183.456C1311.03 182.752 1311.64 181.616 1311.64 180.048C1311.64 177.136 1309.72 175.68 1305.88 175.68H1302.57V184.512H1304.97Z" fill="white"/>
<path d="M455.82 572.707C456.211 572.317 456.211 571.683 455.82 571.293L449.456 564.929C449.066 564.538 448.433 564.538 448.042 564.929C447.652 565.319 447.652 565.953 448.042 566.343L453.699 572L448.042 577.657C447.652 578.047 447.652 578.681 448.042 579.071C448.433 579.462 449.066 579.462 449.456 579.071L455.82 572.707ZM455.113 571C424.463 571 411.918 571 408.426 571C407.99 571 407.695 571 407.524 571C407.438 571 407.383 571 407.357 571C407.351 571 407.346 571 407.343 571C407.342 571 407.341 571 407.34 571C407.34 571 406.339 572 407.34 573C407.341 573 407.349 573 407.364 573C407.481 573 408.022 573 408.847 573C410.496 573 413.276 573 416.057 573C418.837 573 421.618 573 423.267 573C424.091 573 424.633 573 424.75 573C424.764 573 424.772 573 424.773 573C423.774 572 424.774 571 424.773 571C424.772 571 424.771 571 424.77 571C424.767 571 424.762 571 424.756 571C424.73 571 424.675 571 424.59 571C424.418 571 424.123 571 423.687 571C420.195 571 407.65 571 377 571L377 573C407.65 573 420.195 573 423.687 573C424.123 573 424.418 573 424.59 573C424.675 573 424.73 573 424.756 573C424.762 573 424.767 573 424.77 573C424.771 573 424.773 573 424.773 573C424.774 573 425.774 572 424.774 571C424.772 571 424.764 571 424.75 571C424.633 571 424.091 571 423.267 571C421.618 571 418.837 571 416.057 571C413.276 571 410.496 571 408.847 571C408.022 571 407.481 571 407.364 571C407.349 571 407.341 571 407.34 571C408.339 572 407.34 573 407.34 573C407.341 573 407.342 573 407.343 573C407.346 573 407.351 573 407.357 573C407.383 573 407.438 573 407.524 573C407.695 573 407.99 573 408.426 573C411.918 573 424.463 573 455.113 573L455.113 571Z" fill="#81B3D5"/>
<path d="M122.133 784.656H113.062V779.523H122.133V770.383H127.266V779.523H136.336V784.656H127.266V793.68H122.133V784.656ZM143.742 799L156.609 770.875H139.711V764.781H164.297V769.328L151.336 799H143.742ZM191.719 799H167.766V793.961L176.367 785.266C178.914 782.656 180.578 780.852 181.359 779.852C182.141 778.836 182.703 777.898 183.047 777.039C183.391 776.18 183.562 775.289 183.562 774.367C183.562 772.992 183.18 771.969 182.414 771.297C181.664 770.625 180.656 770.289 179.391 770.289C178.062 770.289 176.773 770.594 175.523 771.203C174.273 771.812 172.969 772.68 171.609 773.805L167.672 769.141C169.359 767.703 170.758 766.688 171.867 766.094C172.977 765.5 174.188 765.047 175.5 764.734C176.812 764.406 178.281 764.242 179.906 764.242C182.047 764.242 183.938 764.633 185.578 765.414C187.219 766.195 188.492 767.289 189.398 768.695C190.305 770.102 190.758 771.711 190.758 773.523C190.758 775.102 190.477 776.586 189.914 777.977C189.367 779.352 188.508 780.766 187.336 782.219C186.18 783.672 184.133 785.742 181.195 788.43L176.789 792.578V792.906H191.719V799ZM204.023 793.961C203.211 797.117 201.836 800.859 199.898 805.188H194.742C195.758 801.031 196.547 797.109 197.109 793.422H203.672L204.023 793.961ZM220.922 764.289C224.203 764.289 226.844 765.039 228.844 766.539C230.859 768.023 231.867 770.031 231.867 772.562C231.867 774.312 231.383 775.875 230.414 777.25C229.445 778.609 227.883 779.828 225.727 780.906C228.289 782.281 230.125 783.719 231.234 785.219C232.359 786.703 232.922 788.336 232.922 790.117C232.922 792.93 231.82 795.195 229.617 796.914C227.414 798.617 224.516 799.469 220.922 799.469C217.172 799.469 214.227 798.672 212.086 797.078C209.945 795.484 208.875 793.227 208.875 790.305C208.875 788.352 209.391 786.617 210.422 785.102C211.469 783.586 213.141 782.25 215.438 781.094C213.484 779.859 212.078 778.539 211.219 777.133C210.359 775.727 209.93 774.188 209.93 772.516C209.93 770.062 210.945 768.078 212.977 766.562C215.008 765.047 217.656 764.289 220.922 764.289ZM215.578 789.883C215.578 791.227 216.047 792.273 216.984 793.023C217.922 793.773 219.203 794.148 220.828 794.148C222.625 794.148 223.969 793.766 224.859 793C225.75 792.219 226.195 791.195 226.195 789.93C226.195 788.883 225.75 787.906 224.859 787C223.984 786.078 222.555 785.102 220.57 784.07C217.242 785.602 215.578 787.539 215.578 789.883ZM220.875 769.586C219.641 769.586 218.641 769.906 217.875 770.547C217.125 771.172 216.75 772.016 216.75 773.078C216.75 774.016 217.047 774.859 217.641 775.609C218.25 776.344 219.344 777.102 220.922 777.883C222.453 777.164 223.523 776.43 224.133 775.68C224.742 774.93 225.047 774.062 225.047 773.078C225.047 772 224.656 771.148 223.875 770.523C223.094 769.898 222.094 769.586 220.875 769.586ZM241.992 775C241.992 776.984 242.164 778.469 242.508 779.453C242.867 780.422 243.438 780.906 244.219 780.906C245.719 780.906 246.469 778.938 246.469 775C246.469 771.094 245.719 769.141 244.219 769.141C243.438 769.141 242.867 769.625 242.508 770.594C242.164 771.547 241.992 773.016 241.992 775ZM252.375 774.953C252.375 778.547 251.68 781.25 250.289 783.062C248.898 784.859 246.859 785.758 244.172 785.758C241.594 785.758 239.602 784.836 238.195 782.992C236.789 781.133 236.086 778.453 236.086 774.953C236.086 767.812 238.781 764.242 244.172 764.242C246.812 764.242 248.836 765.172 250.242 767.031C251.664 768.875 252.375 771.516 252.375 774.953ZM268.5 764.734L249.492 799H243.867L262.875 764.734H268.5ZM265.992 788.688C265.992 790.672 266.164 792.156 266.508 793.141C266.867 794.109 267.438 794.594 268.219 794.594C269.719 794.594 270.469 792.625 270.469 788.688C270.469 784.781 269.719 782.828 268.219 782.828C267.438 782.828 266.867 783.312 266.508 784.281C266.164 785.234 265.992 786.703 265.992 788.688ZM276.375 788.641C276.375 792.219 275.68 794.914 274.289 796.727C272.898 798.523 270.859 799.422 268.172 799.422C265.594 799.422 263.602 798.5 262.195 796.656C260.789 794.797 260.086 792.125 260.086 788.641C260.086 781.5 262.781 777.93 268.172 777.93C270.812 777.93 272.836 778.859 274.242 780.719C275.664 782.562 276.375 785.203 276.375 788.641ZM302.924 779.348H308.83L301.043 788.77L309.516 799H303.434L295.4 789.033V799H290.039V779.348H295.4V788.893L302.924 779.348ZM337.834 799L335.971 792.883H326.602L324.738 799H318.867L327.938 773.195H334.6L343.705 799H337.834ZM334.67 788.312C332.947 782.77 331.975 779.635 331.752 778.908C331.541 778.182 331.389 777.607 331.295 777.186C330.908 778.686 329.801 782.395 327.973 788.312H334.67ZM367.295 799H361.863V777.836H352.406V799H346.957V773.301H367.295V799ZM394.119 799H388.688V777.836H379.23V799H373.781V773.301H394.119V799ZM416.848 773.301V777.801H406.055V799H400.605V773.301H416.848Z" fill="#FF0000"/>
<path d="M75 799L59 773L91 773L75 799Z" fill="#FF0000"/>
<path d="M81.1338 465.263C81.1338 468.808 80.2549 471.532 78.4971 473.437C76.7393 475.341 74.2197 476.293 70.9385 476.293C67.6572 476.293 65.1377 475.341 63.3799 473.437C61.6221 471.532 60.7432 468.798 60.7432 465.233C60.7432 461.669 61.6221 458.949 63.3799 457.074C65.1475 455.189 67.6768 454.247 70.9678 454.247C74.2588 454.247 76.7734 455.194 78.5117 457.089C80.2598 458.983 81.1338 461.708 81.1338 465.263ZM65.5039 465.263C65.5039 467.655 65.958 469.457 66.8662 470.668C67.7744 471.879 69.1318 472.484 70.9385 472.484C74.5615 472.484 76.373 470.077 76.373 465.263C76.373 460.438 74.5713 458.026 70.9678 458.026C69.1611 458.026 67.7988 458.637 66.8809 459.857C65.9629 461.068 65.5039 462.87 65.5039 465.263ZM84.2246 466.186C84.2246 462.426 84.9375 459.574 86.3633 457.631C87.7988 455.678 90.0352 454.442 93.0723 453.925C94.5469 453.671 96.749 453.349 99.6787 452.958L100.191 456.854C98.9219 457.001 96.6709 457.313 93.4385 457.792C92.208 457.987 91.29 458.28 90.6846 458.671C90.0791 459.062 89.625 459.618 89.3223 460.341C89.0293 461.063 88.8486 462.025 88.7803 463.227H89C89.5176 462.426 90.2012 461.811 91.0508 461.381C91.9004 460.951 92.8135 460.736 93.79 460.736C95.8115 460.736 97.3838 461.356 98.5068 462.597C99.6299 463.827 100.191 465.595 100.191 467.899C100.191 470.556 99.4785 472.621 98.0527 474.096C96.6367 475.561 94.6787 476.293 92.1787 476.293C89.6787 476.293 87.7256 475.399 86.3193 473.612C84.9229 471.815 84.2246 469.34 84.2246 466.186ZM92.4424 472.675C94.5615 472.675 95.6211 471.215 95.6211 468.295C95.6211 465.453 94.6641 464.032 92.75 464.032C92.2227 464.032 91.6953 464.154 91.168 464.398C90.6504 464.643 90.1719 464.965 89.7324 465.365C89.3027 465.756 88.9854 466.151 88.7803 466.552C88.7803 468.534 89.0977 470.053 89.7324 471.107C90.3672 472.152 91.2705 472.675 92.4424 472.675ZM111.236 459.623V465.951H114.386C116.905 465.951 118.766 466.352 119.967 467.152C121.178 467.953 121.783 469.164 121.783 470.785C121.783 474.262 119.376 476 114.562 476H106.754V462.978H101.539V459.623H111.236ZM117.315 470.844C117.315 470.209 117.062 469.75 116.554 469.467C116.056 469.184 115.299 469.042 114.283 469.042H111.236V472.909H114.342C116.324 472.909 117.315 472.221 117.315 470.844ZM131.964 462.494C131.017 462.494 130.274 462.797 129.737 463.402C129.2 463.998 128.893 464.848 128.814 465.951H135.084C135.064 464.848 134.776 463.998 134.22 463.402C133.663 462.797 132.911 462.494 131.964 462.494ZM132.594 476.293C129.957 476.293 127.896 475.565 126.412 474.11C124.928 472.655 124.186 470.595 124.186 467.929C124.186 465.185 124.869 463.065 126.236 461.571C127.613 460.067 129.513 459.315 131.935 459.315C134.249 459.315 136.051 459.975 137.34 461.293C138.629 462.611 139.273 464.433 139.273 466.757V468.925H128.712C128.761 470.194 129.137 471.186 129.84 471.898C130.543 472.611 131.529 472.968 132.799 472.968C133.785 472.968 134.718 472.865 135.597 472.66C136.476 472.455 137.394 472.128 138.351 471.679V475.136C137.569 475.526 136.734 475.814 135.846 476C134.957 476.195 133.873 476.293 132.594 476.293ZM153.644 459.623H158.565L152.076 467.475L159.137 476H154.068L147.374 467.694V476H142.906V459.623H147.374V467.577L153.644 459.623ZM175.03 459.623V462.978H169.669V476H165.201V462.978H159.825V459.623H175.03ZM182.56 465.951H184.713C187.213 465.951 189.063 466.352 190.265 467.152C191.466 467.953 192.066 469.164 192.066 470.785C192.066 472.514 191.466 473.817 190.265 474.696C189.063 475.565 187.267 476 184.874 476H178.092V459.623H182.56V465.951ZM187.599 470.844C187.599 470.209 187.345 469.75 186.837 469.467C186.329 469.184 185.572 469.042 184.566 469.042H182.56V472.909H184.625C186.607 472.909 187.599 472.221 187.599 470.844ZM198.907 476H194.439V459.623H198.907V476Z" fill="white"/>
<path d="M140.797 545.328C140.797 552.464 138.635 558.531 134.312 563.531C129.99 568.531 123.922 571.969 116.109 573.844V574.312C125.328 575.458 132.307 578.271 137.047 582.75C141.786 587.177 144.156 593.167 144.156 600.719C144.156 611.708 140.172 620.276 132.203 626.422C124.234 632.516 112.854 635.562 98.0625 635.562C85.6667 635.562 74.6771 633.505 65.0938 629.391V608.844C69.5208 611.083 74.3906 612.906 79.7031 614.312C85.0156 615.719 90.276 616.422 95.4844 616.422C103.453 616.422 109.339 615.068 113.141 612.359C116.943 609.651 118.844 605.302 118.844 599.312C118.844 593.948 116.656 590.146 112.281 587.906C107.906 585.667 100.927 584.547 91.3438 584.547H82.6719V566.031H91.5C100.354 566.031 106.812 564.885 110.875 562.594C114.99 560.25 117.047 556.266 117.047 550.641C117.047 541.995 111.63 537.672 100.797 537.672C97.0469 537.672 93.2188 538.297 89.3125 539.547C85.4583 540.797 81.1615 542.958 76.4219 546.031L65.25 529.391C75.6667 521.891 88.0885 518.141 102.516 518.141C114.339 518.141 123.661 520.536 130.484 525.328C137.359 530.12 140.797 536.786 140.797 545.328ZM236.031 576.891C236.031 596.839 232.75 611.604 226.188 621.188C219.677 630.771 209.625 635.562 196.031 635.562C182.854 635.562 172.906 630.615 166.188 620.719C159.521 610.823 156.188 596.214 156.188 576.891C156.188 556.734 159.443 541.891 165.953 532.359C172.464 522.776 182.49 517.984 196.031 517.984C209.208 517.984 219.156 522.984 225.875 532.984C232.646 542.984 236.031 557.62 236.031 576.891ZM180.172 576.891C180.172 590.901 181.37 600.953 183.766 607.047C186.214 613.089 190.302 616.109 196.031 616.109C201.656 616.109 205.719 613.036 208.219 606.891C210.719 600.745 211.969 590.745 211.969 576.891C211.969 562.88 210.693 552.828 208.141 546.734C205.641 540.589 201.604 537.516 196.031 537.516C190.354 537.516 186.292 540.589 183.844 546.734C181.396 552.828 180.172 562.88 180.172 576.891ZM323.609 545.328C323.609 552.464 321.448 558.531 317.125 563.531C312.802 568.531 306.734 571.969 298.922 573.844V574.312C308.141 575.458 315.12 578.271 319.859 582.75C324.599 587.177 326.969 593.167 326.969 600.719C326.969 611.708 322.984 620.276 315.016 626.422C307.047 632.516 295.667 635.562 280.875 635.562C268.479 635.562 257.49 633.505 247.906 629.391V608.844C252.333 611.083 257.203 612.906 262.516 614.312C267.828 615.719 273.089 616.422 278.297 616.422C286.266 616.422 292.151 615.068 295.953 612.359C299.755 609.651 301.656 605.302 301.656 599.312C301.656 593.948 299.469 590.146 295.094 587.906C290.719 585.667 283.74 584.547 274.156 584.547H265.484V566.031H274.312C283.167 566.031 289.625 564.885 293.688 562.594C297.802 560.25 299.859 556.266 299.859 550.641C299.859 541.995 294.443 537.672 283.609 537.672C279.859 537.672 276.031 538.297 272.125 539.547C268.271 540.797 263.974 542.958 259.234 546.031L248.062 529.391C258.479 521.891 270.901 518.141 285.328 518.141C297.151 518.141 306.474 520.536 313.297 525.328C320.172 530.12 323.609 536.786 323.609 545.328Z" fill="#FF0000"/>
<path d="M507.695 454.584H514.36C517.397 454.584 519.6 455.019 520.967 455.888C522.344 456.747 523.032 458.119 523.032 460.004C523.032 461.283 522.729 462.333 522.124 463.153C521.528 463.974 520.732 464.467 519.736 464.633V464.779C521.094 465.082 522.07 465.648 522.666 466.479C523.271 467.309 523.574 468.412 523.574 469.789C523.574 471.742 522.866 473.266 521.45 474.359C520.044 475.453 518.13 476 515.708 476H507.695V454.584ZM512.236 463.065H514.873C516.104 463.065 516.992 462.875 517.539 462.494C518.096 462.113 518.374 461.483 518.374 460.604C518.374 459.784 518.071 459.198 517.466 458.847C516.87 458.485 515.923 458.305 514.624 458.305H512.236V463.065ZM512.236 466.669V472.25H515.195C516.445 472.25 517.368 472.011 517.964 471.532C518.56 471.054 518.857 470.321 518.857 469.335C518.857 467.558 517.588 466.669 515.049 466.669H512.236ZM542.617 463.915C542.617 464.794 542.339 465.546 541.782 466.171C541.235 466.786 540.425 467.182 539.351 467.357V467.475C540.513 467.611 541.431 468.012 542.104 468.676C542.788 469.33 543.13 470.141 543.13 471.107C543.13 472.699 542.505 473.915 541.255 474.755C540.005 475.585 538.218 476 535.894 476H527.5V459.623H535.894C538.14 459.623 539.819 459.989 540.933 460.722C542.056 461.444 542.617 462.509 542.617 463.915ZM538.501 470.873C538.501 470.229 538.252 469.765 537.754 469.481C537.256 469.188 536.509 469.042 535.513 469.042H531.968V472.909H535.601C536.548 472.909 537.266 472.733 537.754 472.382C538.252 472.021 538.501 471.518 538.501 470.873ZM538.091 464.267C538.091 463.271 537.3 462.772 535.718 462.772H531.968V466.01H535.205C536.152 466.01 536.87 465.873 537.358 465.6C537.847 465.326 538.091 464.882 538.091 464.267ZM553.472 462.494C552.524 462.494 551.782 462.797 551.245 463.402C550.708 463.998 550.4 464.848 550.322 465.951H556.592C556.572 464.848 556.284 463.998 555.728 463.402C555.171 462.797 554.419 462.494 553.472 462.494ZM554.102 476.293C551.465 476.293 549.404 475.565 547.92 474.11C546.436 472.655 545.693 470.595 545.693 467.929C545.693 465.185 546.377 463.065 547.744 461.571C549.121 460.067 551.021 459.315 553.442 459.315C555.757 459.315 557.559 459.975 558.848 461.293C560.137 462.611 560.781 464.433 560.781 466.757V468.925H550.22C550.269 470.194 550.645 471.186 551.348 471.898C552.051 472.611 553.037 472.968 554.307 472.968C555.293 472.968 556.226 472.865 557.104 472.66C557.983 472.455 558.901 472.128 559.858 471.679V475.136C559.077 475.526 558.242 475.814 557.354 476C556.465 476.195 555.381 476.293 554.102 476.293ZM574.668 472.733V462.978H571.313C571.069 464.794 570.732 466.518 570.303 468.148C569.883 469.779 569.297 471.308 568.545 472.733H574.668ZM581.538 481.874H577.524V476H566.509V481.874H562.495V472.733H563.872C564.81 471.278 565.596 469.442 566.23 467.226C566.865 465.009 567.31 462.475 567.563 459.623H579.136V472.733H581.538V481.874ZM591.118 462.494C590.171 462.494 589.429 462.797 588.892 463.402C588.354 463.998 588.047 464.848 587.969 465.951H594.238C594.219 464.848 593.931 463.998 593.374 463.402C592.817 462.797 592.065 462.494 591.118 462.494ZM591.748 476.293C589.111 476.293 587.051 475.565 585.566 474.11C584.082 472.655 583.34 470.595 583.34 467.929C583.34 465.185 584.023 463.065 585.391 461.571C586.768 460.067 588.667 459.315 591.089 459.315C593.403 459.315 595.205 459.975 596.494 461.293C597.783 462.611 598.428 464.433 598.428 466.757V468.925H587.866C587.915 470.194 588.291 471.186 588.994 471.898C589.697 472.611 590.684 472.968 591.953 472.968C592.939 472.968 593.872 472.865 594.751 472.66C595.63 472.455 596.548 472.128 597.505 471.679V475.136C596.724 475.526 595.889 475.814 595 476C594.111 476.195 593.027 476.293 591.748 476.293ZM606.528 459.623V465.922H612.769V459.623H617.236V476H612.769V469.247H606.528V476H602.061V459.623H606.528ZM625.483 467.782C625.483 469.403 625.747 470.629 626.274 471.459C626.812 472.289 627.681 472.704 628.882 472.704C630.073 472.704 630.928 472.294 631.445 471.474C631.973 470.644 632.236 469.413 632.236 467.782C632.236 466.161 631.973 464.945 631.445 464.135C630.918 463.324 630.054 462.919 628.853 462.919C627.661 462.919 626.802 463.324 626.274 464.135C625.747 464.936 625.483 466.151 625.483 467.782ZM636.807 467.782C636.807 470.448 636.104 472.533 634.697 474.037C633.291 475.541 631.333 476.293 628.823 476.293C627.251 476.293 625.864 475.951 624.663 475.268C623.462 474.574 622.539 473.583 621.895 472.294C621.25 471.005 620.928 469.501 620.928 467.782C620.928 465.106 621.626 463.026 623.022 461.542C624.419 460.058 626.382 459.315 628.911 459.315C630.483 459.315 631.87 459.657 633.071 460.341C634.272 461.024 635.195 462.006 635.84 463.285C636.484 464.564 636.807 466.063 636.807 467.782Z" fill="white"/>
<path d="M593.828 610.328H580.078V634H556.484V610.328H507.734V593.531L557.812 519.781H580.078V591.578H593.828V610.328ZM556.484 591.578V572.203C556.484 568.974 556.615 564.286 556.875 558.141C557.135 551.995 557.344 548.427 557.5 547.438H556.875C554.948 551.708 552.63 555.875 549.922 559.938L528.984 591.578H556.484ZM682.031 576.891C682.031 596.839 678.75 611.604 672.188 621.188C665.677 630.771 655.625 635.562 642.031 635.562C628.854 635.562 618.906 630.615 612.188 620.719C605.521 610.823 602.188 596.214 602.188 576.891C602.188 556.734 605.443 541.891 611.953 532.359C618.464 522.776 628.49 517.984 642.031 517.984C655.208 517.984 665.156 522.984 671.875 532.984C678.646 542.984 682.031 557.62 682.031 576.891ZM626.172 576.891C626.172 590.901 627.37 600.953 629.766 607.047C632.214 613.089 636.302 616.109 642.031 616.109C647.656 616.109 651.719 613.036 654.219 606.891C656.719 600.745 657.969 590.745 657.969 576.891C657.969 562.88 656.693 552.828 654.141 546.734C651.641 540.589 647.604 537.516 642.031 537.516C636.354 537.516 632.292 540.589 629.844 546.734C627.396 552.828 626.172 562.88 626.172 576.891Z" fill="white"/>
<path d="M795 728H1590V868H795V728Z" fill="#C4C4C4" fill-opacity="0.05"/>
<path d="M1419.89 771.148C1425.36 771.148 1429.76 772.398 1433.09 774.898C1436.45 777.372 1438.13 780.719 1438.13 784.938C1438.13 787.854 1437.33 790.458 1435.71 792.75C1434.1 795.016 1431.49 797.047 1427.9 798.844C1432.17 801.135 1435.23 803.531 1437.08 806.031C1438.95 808.505 1439.89 811.227 1439.89 814.195C1439.89 818.883 1438.05 822.659 1434.38 825.523C1430.71 828.362 1425.88 829.781 1419.89 829.781C1413.64 829.781 1408.73 828.453 1405.16 825.797C1401.6 823.141 1399.81 819.378 1399.81 814.508C1399.81 811.253 1400.67 808.362 1402.39 805.836C1404.14 803.31 1406.92 801.083 1410.75 799.156C1407.49 797.099 1405.15 794.898 1403.72 792.555C1402.29 790.211 1401.57 787.646 1401.57 784.859C1401.57 780.771 1403.26 777.464 1406.65 774.938C1410.03 772.411 1414.45 771.148 1419.89 771.148ZM1410.98 813.805C1410.98 816.044 1411.77 817.789 1413.33 819.039C1414.89 820.289 1417.03 820.914 1419.73 820.914C1422.73 820.914 1424.97 820.276 1426.45 819C1427.94 817.698 1428.68 815.992 1428.68 813.883C1428.68 812.138 1427.94 810.51 1426.45 809C1424.99 807.464 1422.61 805.836 1419.3 804.117C1413.76 806.669 1410.98 809.898 1410.98 813.805ZM1419.81 779.977C1417.76 779.977 1416.09 780.51 1414.81 781.578C1413.56 782.62 1412.94 784.026 1412.94 785.797C1412.94 787.359 1413.43 788.766 1414.42 790.016C1415.44 791.24 1417.26 792.503 1419.89 793.805C1422.44 792.607 1424.23 791.383 1425.24 790.133C1426.26 788.883 1426.77 787.438 1426.77 785.797C1426.77 784 1426.11 782.581 1424.81 781.539C1423.51 780.497 1421.84 779.977 1419.81 779.977ZM1451.57 829L1473.02 782.125H1444.85V771.969H1485.83V779.547L1464.23 829H1451.57ZM1512.39 792.516C1517.91 792.516 1522.3 794.065 1525.55 797.164C1528.84 800.263 1530.48 804.508 1530.48 809.898C1530.48 816.279 1528.51 821.188 1524.58 824.625C1520.65 828.062 1515.02 829.781 1507.7 829.781C1501.35 829.781 1496.22 828.753 1492.31 826.695V816.266C1494.37 817.359 1496.77 818.258 1499.5 818.961C1502.23 819.638 1504.83 819.977 1507.27 819.977C1514.64 819.977 1518.33 816.956 1518.33 810.914C1518.33 805.159 1514.51 802.281 1506.88 802.281C1505.5 802.281 1503.98 802.424 1502.31 802.711C1500.65 802.971 1499.29 803.258 1498.25 803.57L1493.45 800.992L1495.59 771.891H1526.57V782.125H1506.18L1505.12 793.336L1506.49 793.062C1508.08 792.698 1510.05 792.516 1512.39 792.516Z" fill="#01F859"/>
<path d="M857.695 788.584H864.36C867.397 788.584 869.6 789.019 870.967 789.888C872.344 790.747 873.032 792.119 873.032 794.004C873.032 795.283 872.729 796.333 872.124 797.153C871.528 797.974 870.732 798.467 869.736 798.633V798.779C871.094 799.082 872.07 799.648 872.666 800.479C873.271 801.309 873.574 802.412 873.574 803.789C873.574 805.742 872.866 807.266 871.45 808.359C870.044 809.453 868.13 810 865.708 810H857.695V788.584ZM862.236 797.065H864.873C866.104 797.065 866.992 796.875 867.539 796.494C868.096 796.113 868.374 795.483 868.374 794.604C868.374 793.784 868.071 793.198 867.466 792.847C866.87 792.485 865.923 792.305 864.624 792.305H862.236V797.065ZM862.236 800.669V806.25H865.195C866.445 806.25 867.368 806.011 867.964 805.532C868.56 805.054 868.857 804.321 868.857 803.335C868.857 801.558 867.588 800.669 865.049 800.669H862.236ZM891.943 810.293C886.846 810.293 884.297 807.495 884.297 801.899C884.297 799.116 884.99 796.992 886.377 795.527C887.764 794.053 889.751 793.315 892.339 793.315C894.233 793.315 895.933 793.687 897.437 794.429L896.118 797.886C895.415 797.603 894.761 797.373 894.155 797.197C893.55 797.012 892.944 796.919 892.339 796.919C890.015 796.919 888.853 798.569 888.853 801.87C888.853 805.073 890.015 806.675 892.339 806.675C893.198 806.675 893.994 806.562 894.727 806.338C895.459 806.104 896.191 805.742 896.924 805.254V809.077C896.201 809.536 895.469 809.854 894.727 810.029C893.994 810.205 893.066 810.293 891.943 810.293ZM909.727 810.293C907.803 810.293 906.294 809.595 905.2 808.198H904.966C905.122 809.565 905.2 810.356 905.2 810.571V817.207H900.732V793.623H904.365L904.995 795.747H905.2C906.245 794.126 907.793 793.315 909.844 793.315C911.777 793.315 913.291 794.062 914.385 795.557C915.479 797.051 916.025 799.126 916.025 801.782C916.025 803.53 915.767 805.049 915.249 806.338C914.741 807.627 914.014 808.608 913.066 809.282C912.119 809.956 911.006 810.293 909.727 810.293ZM908.408 796.89C907.305 796.89 906.499 797.231 905.991 797.915C905.483 798.589 905.22 799.707 905.2 801.27V801.753C905.2 803.511 905.459 804.771 905.977 805.532C906.504 806.294 907.334 806.675 908.467 806.675C910.469 806.675 911.47 805.024 911.47 801.724C911.47 800.112 911.221 798.906 910.723 798.105C910.234 797.295 909.463 796.89 908.408 796.89ZM923.276 801.782C923.276 803.403 923.54 804.629 924.067 805.459C924.604 806.289 925.474 806.704 926.675 806.704C927.866 806.704 928.721 806.294 929.238 805.474C929.766 804.644 930.029 803.413 930.029 801.782C930.029 800.161 929.766 798.945 929.238 798.135C928.711 797.324 927.847 796.919 926.646 796.919C925.454 796.919 924.595 797.324 924.067 798.135C923.54 798.936 923.276 800.151 923.276 801.782ZM934.6 801.782C934.6 804.448 933.896 806.533 932.49 808.037C931.084 809.541 929.126 810.293 926.616 810.293C925.044 810.293 923.657 809.951 922.456 809.268C921.255 808.574 920.332 807.583 919.688 806.294C919.043 805.005 918.721 803.501 918.721 801.782C918.721 799.106 919.419 797.026 920.815 795.542C922.212 794.058 924.175 793.315 926.704 793.315C928.276 793.315 929.663 793.657 930.864 794.341C932.065 795.024 932.988 796.006 933.633 797.285C934.277 798.564 934.6 800.063 934.6 801.782ZM949.028 793.623H953.95L947.461 801.475L954.521 810H949.453L942.759 801.694V810H938.291V793.623H942.759V801.577L949.028 793.623Z" fill="white"/>
<path d="M1419.89 631.148C1425.36 631.148 1429.76 632.398 1433.09 634.898C1436.45 637.372 1438.13 640.719 1438.13 644.938C1438.13 647.854 1437.33 650.458 1435.71 652.75C1434.1 655.016 1431.49 657.047 1427.9 658.844C1432.17 661.135 1435.23 663.531 1437.08 666.031C1438.95 668.505 1439.89 671.227 1439.89 674.195C1439.89 678.883 1438.05 682.659 1434.38 685.523C1430.71 688.362 1425.88 689.781 1419.89 689.781C1413.64 689.781 1408.73 688.453 1405.16 685.797C1401.6 683.141 1399.81 679.378 1399.81 674.508C1399.81 671.253 1400.67 668.362 1402.39 665.836C1404.14 663.31 1406.92 661.083 1410.75 659.156C1407.49 657.099 1405.15 654.898 1403.72 652.555C1402.29 650.211 1401.57 647.646 1401.57 644.859C1401.57 640.771 1403.26 637.464 1406.65 634.938C1410.03 632.411 1414.45 631.148 1419.89 631.148ZM1410.98 673.805C1410.98 676.044 1411.77 677.789 1413.33 679.039C1414.89 680.289 1417.03 680.914 1419.73 680.914C1422.73 680.914 1424.97 680.276 1426.45 679C1427.94 677.698 1428.68 675.992 1428.68 673.883C1428.68 672.138 1427.94 670.51 1426.45 669C1424.99 667.464 1422.61 665.836 1419.3 664.117C1413.76 666.669 1410.98 669.898 1410.98 673.805ZM1419.81 639.977C1417.76 639.977 1416.09 640.51 1414.81 641.578C1413.56 642.62 1412.94 644.026 1412.94 645.797C1412.94 647.359 1413.43 648.766 1414.42 650.016C1415.44 651.24 1417.26 652.503 1419.89 653.805C1422.44 652.607 1424.23 651.383 1425.24 650.133C1426.26 648.883 1426.77 647.438 1426.77 645.797C1426.77 644 1426.11 642.581 1424.81 641.539C1423.51 640.497 1421.84 639.977 1419.81 639.977ZM1465.59 631.148C1471.06 631.148 1475.46 632.398 1478.8 634.898C1482.16 637.372 1483.84 640.719 1483.84 644.938C1483.84 647.854 1483.03 650.458 1481.41 652.75C1479.8 655.016 1477.2 657.047 1473.6 658.844C1477.87 661.135 1480.93 663.531 1482.78 666.031C1484.66 668.505 1485.59 671.227 1485.59 674.195C1485.59 678.883 1483.76 682.659 1480.09 685.523C1476.41 688.362 1471.58 689.781 1465.59 689.781C1459.34 689.781 1454.43 688.453 1450.87 685.797C1447.3 683.141 1445.52 679.378 1445.52 674.508C1445.52 671.253 1446.38 668.362 1448.09 665.836C1449.84 663.31 1452.62 661.083 1456.45 659.156C1453.2 657.099 1450.85 654.898 1449.42 652.555C1447.99 650.211 1447.27 647.646 1447.27 644.859C1447.27 640.771 1448.97 637.464 1452.35 634.938C1455.74 632.411 1460.15 631.148 1465.59 631.148ZM1456.69 673.805C1456.69 676.044 1457.47 677.789 1459.03 679.039C1460.59 680.289 1462.73 680.914 1465.44 680.914C1468.43 680.914 1470.67 680.276 1472.16 679C1473.64 677.698 1474.38 675.992 1474.38 673.883C1474.38 672.138 1473.64 670.51 1472.16 669C1470.7 667.464 1468.32 665.836 1465.01 664.117C1459.46 666.669 1456.69 669.898 1456.69 673.805ZM1465.52 639.977C1463.46 639.977 1461.79 640.51 1460.52 641.578C1459.27 642.62 1458.64 644.026 1458.64 645.797C1458.64 647.359 1459.14 648.766 1460.12 650.016C1461.14 651.24 1462.96 652.503 1465.59 653.805C1468.15 652.607 1469.93 651.383 1470.95 650.133C1471.96 648.883 1472.47 647.438 1472.47 645.797C1472.47 644 1471.82 642.581 1470.52 641.539C1469.21 640.497 1467.55 639.977 1465.52 639.977ZM1531.3 656.266C1531.3 667.516 1528.93 675.914 1524.19 681.461C1519.45 687.008 1512.27 689.781 1502.66 689.781C1499.28 689.781 1496.71 689.599 1494.97 689.234V679.547C1497.16 680.094 1499.45 680.367 1501.84 680.367C1505.88 680.367 1509.2 679.781 1511.8 678.609C1514.41 677.411 1516.4 675.549 1517.78 673.023C1519.16 670.471 1519.96 666.969 1520.16 662.516H1519.7C1518.18 664.964 1516.44 666.682 1514.46 667.672C1512.48 668.661 1510.01 669.156 1507.04 669.156C1502.07 669.156 1498.15 667.568 1495.28 664.391C1492.42 661.188 1490.98 656.747 1490.98 651.07C1490.98 644.951 1492.72 640.12 1496.18 636.578C1499.67 633.01 1504.41 631.227 1510.4 631.227C1514.62 631.227 1518.3 632.216 1521.45 634.195C1524.63 636.174 1527.07 639.052 1528.76 642.828C1530.45 646.578 1531.3 651.057 1531.3 656.266ZM1510.63 640.914C1508.13 640.914 1506.18 641.773 1504.77 643.492C1503.37 645.211 1502.66 647.685 1502.66 650.914C1502.66 653.674 1503.3 655.862 1504.58 657.477C1505.85 659.091 1507.79 659.898 1510.4 659.898C1512.85 659.898 1514.94 659.104 1516.69 657.516C1518.43 655.901 1519.3 654.052 1519.3 651.969C1519.3 648.87 1518.48 646.253 1516.84 644.117C1515.23 641.982 1513.16 640.914 1510.63 640.914Z" fill="white"/>
<path d="M866.792 652.056C865.083 652.056 863.76 652.7 862.822 653.989C861.885 655.269 861.416 657.056 861.416 659.351C861.416 664.126 863.208 666.514 866.792 666.514C868.296 666.514 870.117 666.138 872.256 665.386V669.194C870.498 669.927 868.535 670.293 866.367 670.293C863.252 670.293 860.869 669.351 859.219 667.466C857.568 665.571 856.743 662.856 856.743 659.321C856.743 657.095 857.148 655.146 857.959 653.477C858.77 651.797 859.932 650.513 861.445 649.624C862.969 648.726 864.751 648.276 866.792 648.276C868.872 648.276 870.962 648.779 873.062 649.785L871.597 653.477C870.796 653.096 869.99 652.764 869.18 652.48C868.369 652.197 867.573 652.056 866.792 652.056ZM894.521 666.733V656.978H891.167C890.923 658.794 890.586 660.518 890.156 662.148C889.736 663.779 889.15 665.308 888.398 666.733H894.521ZM901.392 675.874H897.378V670H886.362V675.874H882.349V666.733H883.726C884.663 665.278 885.449 663.442 886.084 661.226C886.719 659.009 887.163 656.475 887.417 653.623H898.989V666.733H901.392V675.874ZM907.749 661.782C907.749 663.403 908.013 664.629 908.54 665.459C909.077 666.289 909.946 666.704 911.147 666.704C912.339 666.704 913.193 666.294 913.711 665.474C914.238 664.644 914.502 663.413 914.502 661.782C914.502 660.161 914.238 658.945 913.711 658.135C913.184 657.324 912.319 656.919 911.118 656.919C909.927 656.919 909.067 657.324 908.54 658.135C908.013 658.936 907.749 660.151 907.749 661.782ZM919.072 661.782C919.072 664.448 918.369 666.533 916.963 668.037C915.557 669.541 913.599 670.293 911.089 670.293C909.517 670.293 908.13 669.951 906.929 669.268C905.728 668.574 904.805 667.583 904.16 666.294C903.516 665.005 903.193 663.501 903.193 661.782C903.193 659.106 903.892 657.026 905.288 655.542C906.685 654.058 908.647 653.315 911.177 653.315C912.749 653.315 914.136 653.657 915.337 654.341C916.538 655.024 917.461 656.006 918.105 657.285C918.75 658.564 919.072 660.063 919.072 661.782ZM937.646 653.623V670H933.164V656.978H927.231V670H922.764V653.623H937.646ZM939.99 653.623H944.883L947.974 662.837C948.237 663.638 948.418 664.585 948.516 665.679H948.604C948.711 664.673 948.921 663.726 949.233 662.837L952.266 653.623H957.056L950.127 672.095C949.492 673.804 948.584 675.083 947.402 675.933C946.23 676.782 944.858 677.207 943.286 677.207C942.515 677.207 941.758 677.124 941.016 676.958V673.413C941.553 673.54 942.139 673.604 942.773 673.604C943.564 673.604 944.253 673.359 944.839 672.871C945.435 672.393 945.898 671.665 946.23 670.688L946.494 669.883L939.99 653.623ZM966.064 670.293C960.967 670.293 958.418 667.495 958.418 661.899C958.418 659.116 959.111 656.992 960.498 655.527C961.885 654.053 963.872 653.315 966.46 653.315C968.354 653.315 970.054 653.687 971.558 654.429L970.239 657.886C969.536 657.603 968.882 657.373 968.276 657.197C967.671 657.012 967.065 656.919 966.46 656.919C964.136 656.919 962.974 658.569 962.974 661.87C962.974 665.073 964.136 666.675 966.46 666.675C967.319 666.675 968.115 666.562 968.848 666.338C969.58 666.104 970.312 665.742 971.045 665.254V669.077C970.322 669.536 969.59 669.854 968.848 670.029C968.115 670.205 967.188 670.293 966.064 670.293ZM988.403 653.623V656.978H983.042V670H978.574V656.978H973.198V653.623H988.403ZM995.786 653.623V660.098C995.786 660.781 995.674 662.451 995.449 665.107L1003.01 653.623H1008.38V670H1004.06V663.467C1004.06 662.305 1004.16 660.664 1004.36 658.545L996.826 670H991.465V653.623H995.786ZM1033.73 670H1029.55V657.095L1029.32 658.003C1028.79 660.063 1028.32 661.621 1027.9 662.676L1025 670H1021.82L1018.87 662.617C1018.45 661.543 1018 660.034 1017.52 658.091L1017.25 657.095V670H1013.09V653.623H1019.24L1022.05 660.61C1022.34 661.362 1022.61 662.227 1022.86 663.203C1023.11 664.18 1023.28 665.015 1023.37 665.708C1023.69 664.243 1023.94 663.193 1024.12 662.559C1024.3 661.914 1024.5 661.323 1024.72 660.786C1024.93 660.249 1025.9 657.861 1027.63 653.623H1033.73V670ZM1042.9 659.951H1045.05C1047.55 659.951 1049.4 660.352 1050.6 661.152C1051.8 661.953 1052.4 663.164 1052.4 664.785C1052.4 666.514 1051.8 667.817 1050.6 668.696C1049.4 669.565 1047.6 670 1045.21 670H1038.43V653.623H1042.9V659.951ZM1047.93 664.844C1047.93 664.209 1047.68 663.75 1047.17 663.467C1046.67 663.184 1045.91 663.042 1044.9 663.042H1042.9V666.909H1044.96C1046.94 666.909 1047.93 666.221 1047.93 664.844ZM1059.24 670H1054.78V653.623H1059.24V670ZM1084.58 670H1080.41V657.095L1080.18 658.003C1079.65 660.063 1079.17 661.621 1078.75 662.676L1075.85 670H1072.68L1069.73 662.617C1069.31 661.543 1068.86 660.034 1068.38 658.091L1068.11 657.095V670H1063.95V653.623H1070.1L1072.91 660.61C1073.2 661.362 1073.47 662.227 1073.72 663.203C1073.97 664.18 1074.14 665.015 1074.23 665.708C1074.55 664.243 1074.8 663.193 1074.98 662.559C1075.16 661.914 1075.36 661.323 1075.58 660.786C1075.79 660.249 1076.76 657.861 1078.49 653.623H1084.58V670ZM1100.64 661.782C1100.64 663.403 1100.9 664.629 1101.43 665.459C1101.97 666.289 1102.84 666.704 1104.04 666.704C1105.23 666.704 1106.08 666.294 1106.6 665.474C1107.13 664.644 1107.39 663.413 1107.39 661.782C1107.39 660.161 1107.13 658.945 1106.6 658.135C1106.07 657.324 1105.21 656.919 1104.01 656.919C1102.82 656.919 1101.96 657.324 1101.43 658.135C1100.9 658.936 1100.64 660.151 1100.64 661.782ZM1111.96 661.782C1111.96 664.448 1111.26 666.533 1109.85 668.037C1108.45 669.541 1106.49 670.293 1103.98 670.293C1102.41 670.293 1101.02 669.951 1099.82 669.268C1098.62 668.574 1097.7 667.583 1097.05 666.294C1096.41 665.005 1096.08 663.501 1096.08 661.782C1096.08 659.106 1096.78 657.026 1098.18 655.542C1099.58 654.058 1101.54 653.315 1104.07 653.315C1105.64 653.315 1107.03 653.657 1108.23 654.341C1109.43 655.024 1110.35 656.006 1111 657.285C1111.64 658.564 1111.96 660.063 1111.96 661.782ZM1129.2 653.623V656.978H1123.84V670H1119.38V656.978H1114V653.623H1129.2ZM1143 653.623H1147.92L1141.44 661.475L1148.5 670H1143.43L1136.73 661.694V670H1132.27V653.623H1136.73V661.577L1143 653.623ZM1165.5 670H1161.04V656.978H1156.92C1156.61 660.64 1156.23 663.374 1155.78 665.181C1155.33 666.978 1154.73 668.281 1153.97 669.092C1153.23 669.893 1152.26 670.293 1151.04 670.293C1150.01 670.293 1149.16 670.137 1148.5 669.824V666.25C1148.97 666.445 1149.45 666.543 1149.93 666.543C1150.49 666.543 1150.95 666.143 1151.32 665.342C1151.7 664.541 1152.04 663.208 1152.33 661.343C1152.64 659.468 1152.9 656.895 1153.11 653.623H1165.5V670ZM1173.76 661.782C1173.76 663.403 1174.03 664.629 1174.56 665.459C1175.09 666.289 1175.96 666.704 1177.16 666.704C1178.35 666.704 1179.21 666.294 1179.73 665.474C1180.25 664.644 1180.52 663.413 1180.52 661.782C1180.52 660.161 1180.25 658.945 1179.73 658.135C1179.2 657.324 1178.33 656.919 1177.13 656.919C1175.94 656.919 1175.08 657.324 1174.56 658.135C1174.03 658.936 1173.76 660.151 1173.76 661.782ZM1185.09 661.782C1185.09 664.448 1184.38 666.533 1182.98 668.037C1181.57 669.541 1179.61 670.293 1177.1 670.293C1175.53 670.293 1174.15 669.951 1172.94 669.268C1171.74 668.574 1170.82 667.583 1170.18 666.294C1169.53 665.005 1169.21 663.501 1169.21 661.782C1169.21 659.106 1169.91 657.026 1171.3 655.542C1172.7 654.058 1174.66 653.315 1177.19 653.315C1178.76 653.315 1180.15 653.657 1181.35 654.341C1182.55 655.024 1183.48 656.006 1184.12 657.285C1184.77 658.564 1185.09 660.063 1185.09 661.782ZM1193.25 653.623V659.922H1199.49V653.623H1203.96V670H1199.49V663.247H1193.25V670H1188.78V653.623H1193.25ZM1215.42 656.494C1214.48 656.494 1213.74 656.797 1213.2 657.402C1212.66 657.998 1212.35 658.848 1212.28 659.951H1218.54C1218.53 658.848 1218.24 657.998 1217.68 657.402C1217.12 656.797 1216.37 656.494 1215.42 656.494ZM1216.05 670.293C1213.42 670.293 1211.36 669.565 1209.87 668.11C1208.39 666.655 1207.65 664.595 1207.65 661.929C1207.65 659.185 1208.33 657.065 1209.7 655.571C1211.07 654.067 1212.97 653.315 1215.4 653.315C1217.71 653.315 1219.51 653.975 1220.8 655.293C1222.09 656.611 1222.73 658.433 1222.73 660.757V662.925H1212.17C1212.22 664.194 1212.6 665.186 1213.3 665.898C1214 666.611 1214.99 666.968 1216.26 666.968C1217.25 666.968 1218.18 666.865 1219.06 666.66C1219.94 666.455 1220.85 666.128 1221.81 665.679V669.136C1221.03 669.526 1220.2 669.814 1219.31 670C1218.42 670.195 1217.33 670.293 1216.05 670.293ZM1230.83 653.623V659.922H1237.08V653.623H1241.54V670H1237.08V663.247H1230.83V670H1226.37V653.623H1230.83ZM1250.55 653.623V660.098C1250.55 660.781 1250.44 662.451 1250.21 665.107L1257.77 653.623H1263.15V670H1258.83V663.467C1258.83 662.305 1258.93 660.664 1259.12 658.545L1251.59 670H1246.23V653.623H1250.55ZM1274.63 656.494C1273.69 656.494 1272.94 656.797 1272.41 657.402C1271.87 657.998 1271.56 658.848 1271.48 659.951H1277.75C1277.73 658.848 1277.45 657.998 1276.89 657.402C1276.33 656.797 1275.58 656.494 1274.63 656.494ZM1275.26 670.293C1272.63 670.293 1270.57 669.565 1269.08 668.11C1267.6 666.655 1266.86 664.595 1266.86 661.929C1266.86 659.185 1267.54 657.065 1268.91 655.571C1270.28 654.067 1272.18 653.315 1274.6 653.315C1276.92 653.315 1278.72 653.975 1280.01 655.293C1281.3 656.611 1281.94 658.433 1281.94 660.757V662.925H1271.38C1271.43 664.194 1271.81 665.186 1272.51 665.898C1273.21 666.611 1274.2 666.968 1275.47 666.968C1276.46 666.968 1277.39 666.865 1278.27 666.66C1279.15 666.455 1280.06 666.128 1281.02 665.679V669.136C1280.24 669.526 1279.4 669.814 1278.52 670C1277.63 670.195 1276.54 670.293 1275.26 670.293ZM1306.22 670H1302.04V657.095L1301.81 658.003C1301.28 660.063 1300.81 661.621 1300.39 662.676L1297.49 670H1294.31L1291.36 662.617C1290.94 661.543 1290.49 660.034 1290.01 658.091L1289.74 657.095V670H1285.58V653.623H1291.73L1294.54 660.61C1294.83 661.362 1295.1 662.227 1295.35 663.203C1295.6 664.18 1295.77 665.015 1295.86 665.708C1296.18 664.243 1296.43 663.193 1296.61 662.559C1296.79 661.914 1296.99 661.323 1297.21 660.786C1297.42 660.249 1298.39 657.861 1300.12 653.623H1306.22V670Z" fill="white"/>
<path d="M795 448H1590V588H795V448Z" fill="#C4C4C4" fill-opacity="0.05"/>
<path d="M1437.9 504.664C1437.9 508.232 1436.82 511.266 1434.66 513.766C1432.49 516.266 1429.46 517.984 1425.55 518.922V519.156C1430.16 519.729 1433.65 521.135 1436.02 523.375C1438.39 525.589 1439.58 528.583 1439.58 532.359C1439.58 537.854 1437.59 542.138 1433.6 545.211C1429.62 548.258 1423.93 549.781 1416.53 549.781C1410.33 549.781 1404.84 548.753 1400.05 546.695V536.422C1402.26 537.542 1404.7 538.453 1407.35 539.156C1410.01 539.859 1412.64 540.211 1415.24 540.211C1419.23 540.211 1422.17 539.534 1424.07 538.18C1425.97 536.826 1426.92 534.651 1426.92 531.656C1426.92 528.974 1425.83 527.073 1423.64 525.953C1421.45 524.833 1417.96 524.273 1413.17 524.273H1408.84V515.016H1413.25C1417.68 515.016 1420.91 514.443 1422.94 513.297C1424.99 512.125 1426.02 510.133 1426.02 507.32C1426.02 502.997 1423.32 500.836 1417.9 500.836C1416.02 500.836 1414.11 501.148 1412.16 501.773C1410.23 502.398 1408.08 503.479 1405.71 505.016L1400.12 496.695C1405.33 492.945 1411.54 491.07 1418.76 491.07C1424.67 491.07 1429.33 492.268 1432.74 494.664C1436.18 497.06 1437.9 500.393 1437.9 504.664ZM1487.12 537.164H1480.24V549H1468.45V537.164H1444.07V528.766L1469.11 491.891H1480.24V527.789H1487.12V537.164ZM1468.45 527.789V518.102C1468.45 516.487 1468.51 514.143 1468.64 511.07C1468.77 507.997 1468.88 506.214 1468.95 505.719H1468.64C1467.68 507.854 1466.52 509.938 1465.16 511.969L1454.7 527.789H1468.45ZM1491.22 524.742C1491.22 513.44 1493.6 505.029 1498.37 499.508C1503.16 493.987 1510.32 491.227 1519.85 491.227C1523.11 491.227 1525.66 491.422 1527.51 491.812V501.461C1525.19 500.94 1522.9 500.68 1520.63 500.68C1516.49 500.68 1513.11 501.305 1510.48 502.555C1507.87 503.805 1505.92 505.654 1504.62 508.102C1503.32 510.549 1502.55 514.026 1502.31 518.531H1502.82C1505.4 514.104 1509.53 511.891 1515.2 511.891C1520.31 511.891 1524.3 513.492 1527.2 516.695C1530.09 519.898 1531.53 524.326 1531.53 529.977C1531.53 536.07 1529.81 540.901 1526.38 544.469C1522.94 548.01 1518.17 549.781 1512.08 549.781C1507.86 549.781 1504.17 548.805 1501.02 546.852C1497.9 544.898 1495.48 542.047 1493.76 538.297C1492.07 534.547 1491.22 530.029 1491.22 524.742ZM1511.84 540.133C1514.42 540.133 1516.4 539.273 1517.78 537.555C1519.16 535.81 1519.85 533.336 1519.85 530.133C1519.85 527.346 1519.2 525.159 1517.9 523.57C1516.62 521.956 1514.68 521.148 1512.08 521.148C1509.63 521.148 1507.53 521.943 1505.79 523.531C1504.07 525.12 1503.21 526.969 1503.21 529.078C1503.21 532.177 1504.02 534.794 1505.63 536.93C1507.27 539.065 1509.34 540.133 1511.84 540.133Z" fill="#FF0000"/>
<path d="M866.792 512.056C865.083 512.056 863.76 512.7 862.822 513.989C861.885 515.269 861.416 517.056 861.416 519.351C861.416 524.126 863.208 526.514 866.792 526.514C868.296 526.514 870.117 526.138 872.256 525.386V529.194C870.498 529.927 868.535 530.293 866.367 530.293C863.252 530.293 860.869 529.351 859.219 527.466C857.568 525.571 856.743 522.856 856.743 519.321C856.743 517.095 857.148 515.146 857.959 513.477C858.77 511.797 859.932 510.513 861.445 509.624C862.969 508.726 864.751 508.276 866.792 508.276C868.872 508.276 870.962 508.779 873.062 509.785L871.597 513.477C870.796 513.096 869.99 512.764 869.18 512.48C868.369 512.197 867.573 512.056 866.792 512.056ZM888.735 513.623V519.922H894.976V513.623H899.443V530H894.976V523.247H888.735V530H884.268V513.623H888.735ZM914.531 530L913.667 527.773H913.55C912.798 528.721 912.021 529.38 911.221 529.751C910.43 530.112 909.395 530.293 908.115 530.293C906.543 530.293 905.303 529.844 904.395 528.945C903.496 528.047 903.047 526.768 903.047 525.107C903.047 523.369 903.652 522.09 904.863 521.27C906.084 520.439 907.92 519.98 910.371 519.893L913.213 519.805V519.087C913.213 517.427 912.363 516.597 910.664 516.597C909.355 516.597 907.817 516.992 906.05 517.783L904.57 514.766C906.455 513.779 908.545 513.286 910.84 513.286C913.037 513.286 914.722 513.765 915.894 514.722C917.065 515.679 917.651 517.134 917.651 519.087V530H914.531ZM913.213 522.412L911.484 522.471C910.186 522.51 909.219 522.744 908.584 523.174C907.949 523.604 907.632 524.258 907.632 525.137C907.632 526.396 908.354 527.026 909.8 527.026C910.835 527.026 911.66 526.729 912.275 526.133C912.9 525.537 913.213 524.746 913.213 523.76V522.412ZM931.26 530.293C929.336 530.293 927.827 529.595 926.733 528.198H926.499C926.655 529.565 926.733 530.356 926.733 530.571V537.207H922.266V513.623H925.898L926.528 515.747H926.733C927.778 514.126 929.326 513.315 931.377 513.315C933.311 513.315 934.824 514.062 935.918 515.557C937.012 517.051 937.559 519.126 937.559 521.782C937.559 523.53 937.3 525.049 936.782 526.338C936.274 527.627 935.547 528.608 934.6 529.282C933.652 529.956 932.539 530.293 931.26 530.293ZM929.941 516.89C928.838 516.89 928.032 517.231 927.524 517.915C927.017 518.589 926.753 519.707 926.733 521.27V521.753C926.733 523.511 926.992 524.771 927.51 525.532C928.037 526.294 928.867 526.675 930 526.675C932.002 526.675 933.003 525.024 933.003 521.724C933.003 520.112 932.754 518.906 932.256 518.105C931.768 517.295 930.996 516.89 929.941 516.89ZM938.906 513.623H943.799L946.89 522.837C947.153 523.638 947.334 524.585 947.432 525.679H947.52C947.627 524.673 947.837 523.726 948.149 522.837L951.182 513.623H955.972L949.043 532.095C948.408 533.804 947.5 535.083 946.318 535.933C945.146 536.782 943.774 537.207 942.202 537.207C941.431 537.207 940.674 537.124 939.932 536.958V533.413C940.469 533.54 941.055 533.604 941.689 533.604C942.48 533.604 943.169 533.359 943.755 532.871C944.351 532.393 944.814 531.665 945.146 530.688L945.41 529.883L938.906 513.623ZM982.72 530H958.33V513.623H962.798V526.646H968.291V513.623H972.759V526.646H978.252V513.623H982.72V530ZM994.204 516.494C993.257 516.494 992.515 516.797 991.978 517.402C991.44 517.998 991.133 518.848 991.055 519.951H997.324C997.305 518.848 997.017 517.998 996.46 517.402C995.903 516.797 995.151 516.494 994.204 516.494ZM994.834 530.293C992.197 530.293 990.137 529.565 988.652 528.11C987.168 526.655 986.426 524.595 986.426 521.929C986.426 519.185 987.109 517.065 988.477 515.571C989.854 514.067 991.753 513.315 994.175 513.315C996.489 513.315 998.291 513.975 999.58 515.293C1000.87 516.611 1001.51 518.433 1001.51 520.757V522.925H990.952C991.001 524.194 991.377 525.186 992.08 525.898C992.783 526.611 993.77 526.968 995.039 526.968C996.025 526.968 996.958 526.865 997.837 526.66C998.716 526.455 999.634 526.128 1000.59 525.679V529.136C999.81 529.526 998.975 529.814 998.086 530C997.197 530.195 996.113 530.293 994.834 530.293ZM1009.61 513.623V519.922H1015.85V513.623H1020.32V530H1015.85V523.247H1009.61V530H1005.15V513.623H1009.61ZM1029.33 513.623V520.098C1029.33 520.781 1029.22 522.451 1028.99 525.107L1036.55 513.623H1041.93V530H1037.61V523.467C1037.61 522.305 1037.71 520.664 1037.9 518.545L1030.37 530H1025.01V513.623H1029.33ZM1053.41 516.494C1052.47 516.494 1051.72 516.797 1051.19 517.402C1050.65 517.998 1050.34 518.848 1050.26 519.951H1056.53C1056.51 518.848 1056.23 517.998 1055.67 517.402C1055.11 516.797 1054.36 516.494 1053.41 516.494ZM1054.04 530.293C1051.41 530.293 1049.35 529.565 1047.86 528.11C1046.38 526.655 1045.63 524.595 1045.63 521.929C1045.63 519.185 1046.32 517.065 1047.69 515.571C1049.06 514.067 1050.96 513.315 1053.38 513.315C1055.7 513.315 1057.5 513.975 1058.79 515.293C1060.08 516.611 1060.72 518.433 1060.72 520.757V522.925H1050.16C1050.21 524.194 1050.59 525.186 1051.29 525.898C1051.99 526.611 1052.98 526.968 1054.25 526.968C1055.23 526.968 1056.17 526.865 1057.05 526.66C1057.92 526.455 1058.84 526.128 1059.8 525.679V529.136C1059.02 529.526 1058.18 529.814 1057.29 530C1056.41 530.195 1055.32 530.293 1054.04 530.293ZM1085 530H1080.82V517.095L1080.59 518.003C1080.06 520.063 1079.58 521.621 1079.17 522.676L1076.26 530H1073.09L1070.14 522.617C1069.72 521.543 1069.27 520.034 1068.79 518.091L1068.52 517.095V530H1064.36V513.623H1070.51L1073.32 520.61C1073.61 521.362 1073.88 522.227 1074.13 523.203C1074.38 524.18 1074.55 525.015 1074.64 525.708C1074.96 524.243 1075.21 523.193 1075.39 522.559C1075.57 521.914 1075.77 521.323 1075.99 520.786C1076.2 520.249 1077.17 517.861 1078.9 513.623H1085V530ZM1104.14 530.293C1099.04 530.293 1096.49 527.495 1096.49 521.899C1096.49 519.116 1097.19 516.992 1098.57 515.527C1099.96 514.053 1101.95 513.315 1104.54 513.315C1106.43 513.315 1108.13 513.687 1109.63 514.429L1108.32 517.886C1107.61 517.603 1106.96 517.373 1106.35 517.197C1105.75 517.012 1105.14 516.919 1104.54 516.919C1102.21 516.919 1101.05 518.569 1101.05 521.87C1101.05 525.073 1102.21 526.675 1104.54 526.675C1105.4 526.675 1106.19 526.562 1106.92 526.338C1107.66 526.104 1108.39 525.742 1109.12 525.254V529.077C1108.4 529.536 1107.67 529.854 1106.92 530.029C1106.19 530.205 1105.26 530.293 1104.14 530.293ZM1121.92 530.293C1120 530.293 1118.49 529.595 1117.4 528.198H1117.16C1117.32 529.565 1117.4 530.356 1117.4 530.571V537.207H1112.93V513.623H1116.56L1117.19 515.747H1117.4C1118.44 514.126 1119.99 513.315 1122.04 513.315C1123.97 513.315 1125.49 514.062 1126.58 515.557C1127.68 517.051 1128.22 519.126 1128.22 521.782C1128.22 523.53 1127.96 525.049 1127.45 526.338C1126.94 527.627 1126.21 528.608 1125.26 529.282C1124.32 529.956 1123.2 530.293 1121.92 530.293ZM1120.61 516.89C1119.5 516.89 1118.7 517.231 1118.19 517.915C1117.68 518.589 1117.42 519.707 1117.4 521.27V521.753C1117.4 523.511 1117.66 524.771 1118.17 525.532C1118.7 526.294 1119.53 526.675 1120.66 526.675C1122.67 526.675 1123.67 525.024 1123.67 521.724C1123.67 520.112 1123.42 518.906 1122.92 518.105C1122.43 517.295 1121.66 516.89 1120.61 516.89ZM1135.47 521.782C1135.47 523.403 1135.74 524.629 1136.26 525.459C1136.8 526.289 1137.67 526.704 1138.87 526.704C1140.06 526.704 1140.92 526.294 1141.44 525.474C1141.96 524.644 1142.23 523.413 1142.23 521.782C1142.23 520.161 1141.96 518.945 1141.44 518.135C1140.91 517.324 1140.04 516.919 1138.84 516.919C1137.65 516.919 1136.79 517.324 1136.26 518.135C1135.74 518.936 1135.47 520.151 1135.47 521.782ZM1146.8 521.782C1146.8 524.448 1146.09 526.533 1144.69 528.037C1143.28 529.541 1141.32 530.293 1138.81 530.293C1137.24 530.293 1135.85 529.951 1134.65 529.268C1133.45 528.574 1132.53 527.583 1131.88 526.294C1131.24 525.005 1130.92 523.501 1130.92 521.782C1130.92 519.106 1131.62 517.026 1133.01 515.542C1134.41 514.058 1136.37 513.315 1138.9 513.315C1140.47 513.315 1141.86 513.657 1143.06 514.341C1144.26 515.024 1145.19 516.006 1145.83 517.285C1146.47 518.564 1146.8 520.063 1146.8 521.782ZM1161.23 513.623H1166.15L1159.66 521.475L1166.72 530H1161.65L1154.96 521.694V530H1150.49V513.623H1154.96V521.577L1161.23 513.623ZM1179.46 530L1178.6 527.773H1178.48C1177.73 528.721 1176.95 529.38 1176.15 529.751C1175.36 530.112 1174.33 530.293 1173.05 530.293C1171.47 530.293 1170.23 529.844 1169.33 528.945C1168.43 528.047 1167.98 526.768 1167.98 525.107C1167.98 523.369 1168.58 522.09 1169.79 521.27C1171.02 520.439 1172.85 519.98 1175.3 519.893L1178.14 519.805V519.087C1178.14 517.427 1177.29 516.597 1175.6 516.597C1174.29 516.597 1172.75 516.992 1170.98 517.783L1169.5 514.766C1171.39 513.779 1173.48 513.286 1175.77 513.286C1177.97 513.286 1179.65 513.765 1180.83 514.722C1182 515.679 1182.58 517.134 1182.58 519.087V530H1179.46ZM1178.14 522.412L1176.42 522.471C1175.12 522.51 1174.15 522.744 1173.52 523.174C1172.88 523.604 1172.56 524.258 1172.56 525.137C1172.56 526.396 1173.29 527.026 1174.73 527.026C1175.77 527.026 1176.59 526.729 1177.21 526.133C1177.83 525.537 1178.14 524.746 1178.14 523.76V522.412Z" fill="white"/>
<path d="M1590 588.001C1288.38 588.001 1096.62 588.002 795 588.002" stroke="#275D81" stroke-width="2"/>
<path d="M794 448C794 749.625 794 566.375 794 868" stroke="#275D81" stroke-width="2"/>
<path d="M1590 727.999C1288.38 727.999 1096.62 728 795 728" stroke="#275D81" stroke-width="2"/>
<path d="M871.523 404.824C871.523 406.992 870.781 408.662 869.297 409.834C867.822 410.996 865.708 411.577 862.954 411.577H860.435V420H857.944V398.584H863.496C868.848 398.584 871.523 400.664 871.523 404.824ZM860.435 409.438H862.676C864.883 409.438 866.479 409.082 867.466 408.369C868.452 407.656 868.945 406.514 868.945 404.941C868.945 403.525 868.481 402.471 867.554 401.777C866.626 401.084 865.181 400.737 863.218 400.737H860.435V409.438ZM882.437 420.293C880.063 420.293 878.188 419.57 876.812 418.125C875.444 416.68 874.761 414.673 874.761 412.104C874.761 409.517 875.396 407.461 876.665 405.938C877.944 404.414 879.658 403.652 881.807 403.652C883.818 403.652 885.41 404.316 886.582 405.645C887.754 406.963 888.34 408.706 888.34 410.874V412.412H877.28C877.329 414.297 877.803 415.728 878.701 416.704C879.609 417.681 880.884 418.169 882.524 418.169C884.253 418.169 885.962 417.808 887.651 417.085V419.253C886.792 419.624 885.977 419.888 885.205 420.044C884.443 420.21 883.521 420.293 882.437 420.293ZM881.777 405.688C880.488 405.688 879.458 406.108 878.687 406.948C877.925 407.788 877.476 408.95 877.339 410.435H885.732C885.732 408.901 885.391 407.729 884.707 406.919C884.023 406.099 883.047 405.688 881.777 405.688ZM904.468 420H902.007V406.025H897.188C896.924 409.502 896.558 412.261 896.089 414.302C895.62 416.343 895.01 417.837 894.258 418.784C893.516 419.731 892.568 420.205 891.416 420.205C890.889 420.205 890.469 420.146 890.156 420.029V418.228C890.371 418.286 890.615 418.315 890.889 418.315C892.012 418.315 892.905 417.129 893.569 414.756C894.233 412.383 894.736 408.779 895.078 403.945H904.468V420ZM911.924 403.945V414.126L911.821 416.792L911.777 417.627L920.464 403.945H923.496V420H921.226V410.186L921.27 408.252L921.343 406.348L912.671 420H909.639V403.945H911.924ZM931.714 410.61C934.751 410.61 936.27 409.771 936.27 408.091C936.27 406.509 935.039 405.718 932.578 405.718C931.826 405.718 931.143 405.786 930.527 405.923C929.912 406.06 929.106 406.333 928.11 406.743L927.246 404.766C928.906 404.023 930.718 403.652 932.681 403.652C934.526 403.652 935.981 404.033 937.046 404.795C938.11 405.547 938.643 406.577 938.643 407.886C938.643 409.683 937.642 410.859 935.64 411.416V411.533C936.87 411.895 937.769 412.412 938.335 413.086C938.901 413.75 939.185 414.585 939.185 415.591C939.185 417.075 938.584 418.232 937.383 419.062C936.191 419.883 934.541 420.293 932.432 420.293C930.117 420.293 928.33 419.946 927.07 419.253V417.026C928.857 417.866 930.664 418.286 932.49 418.286C933.896 418.286 934.956 418.047 935.669 417.568C936.392 417.08 936.753 416.382 936.753 415.474C936.753 413.608 935.234 412.676 932.197 412.676H929.971V410.61H931.714ZM953.027 420L952.544 417.715H952.427C951.626 418.721 950.825 419.404 950.024 419.766C949.233 420.117 948.242 420.293 947.051 420.293C945.459 420.293 944.209 419.883 943.301 419.062C942.402 418.242 941.953 417.075 941.953 415.562C941.953 412.319 944.546 410.62 949.731 410.464L952.456 410.376V409.38C952.456 408.12 952.183 407.192 951.636 406.597C951.099 405.991 950.234 405.688 949.043 405.688C947.705 405.688 946.191 406.099 944.502 406.919L943.755 405.059C944.546 404.629 945.41 404.292 946.348 404.048C947.295 403.804 948.242 403.682 949.189 403.682C951.104 403.682 952.52 404.106 953.438 404.956C954.365 405.806 954.829 407.168 954.829 409.043V420H953.027ZM947.534 418.286C949.048 418.286 950.234 417.871 951.094 417.041C951.963 416.211 952.397 415.049 952.397 413.555V412.104L949.966 412.207C948.032 412.275 946.636 412.578 945.776 413.115C944.927 413.643 944.502 414.468 944.502 415.591C944.502 416.47 944.766 417.139 945.293 417.598C945.83 418.057 946.577 418.286 947.534 418.286ZM975.513 425.552H973.081V420H959.854V403.945H962.285V417.905H970.811V403.945H973.242V417.905H975.513V425.552ZM980.918 403.945V414.126L980.815 416.792L980.771 417.627L989.458 403.945H992.49V420H990.22V410.186L990.264 408.252L990.337 406.348L981.665 420H978.633V403.945H980.918ZM998.452 420H995.61L1000.22 413.218C998.984 412.944 998.032 412.417 997.368 411.636C996.714 410.845 996.387 409.854 996.387 408.662C996.387 407.197 996.88 406.045 997.866 405.205C998.853 404.365 1000.23 403.945 1002 403.945H1009.15V420H1006.71V413.584H1002.66L998.452 420ZM998.76 408.691C998.76 410.547 1000.11 411.475 1002.8 411.475H1006.71V406.055H1002.3C999.941 406.055 998.76 406.934 998.76 408.691Z" fill="white"/>
</svg>
