<svg width="1512" height="960" viewBox="0 0 1512 960" fill="none" xmlns="http://www.w3.org/2000/svg">
<path d="M795 960C795 846.914 795 130.775 795 0" stroke="#275D81" stroke-width="2"/>
<path d="M143.141 284H106.93V184.859L107.281 168.57L107.867 150.758C101.852 156.773 97.6719 160.719 95.3281 162.594L75.6406 178.414L58.1797 156.617L113.375 112.672H143.141V284ZM189.547 211.227C189.547 177.32 196.695 152.086 210.992 135.523C225.367 118.961 246.852 110.68 275.445 110.68C285.211 110.68 292.867 111.266 298.414 112.438V141.383C291.461 139.82 284.586 139.039 277.789 139.039C265.367 139.039 255.211 140.914 247.32 144.664C239.508 148.414 233.648 153.961 229.742 161.305C225.836 168.648 223.531 179.078 222.828 192.594H224.352C232.086 179.312 244.469 172.672 261.5 172.672C276.812 172.672 288.805 177.477 297.477 187.086C306.148 196.695 310.484 209.977 310.484 226.93C310.484 245.211 305.328 259.703 295.016 270.406C284.703 281.031 270.406 286.344 252.125 286.344C239.469 286.344 228.414 283.414 218.961 277.555C209.586 271.695 202.32 263.141 197.164 251.891C192.086 240.641 189.547 227.086 189.547 211.227ZM251.422 257.398C259.156 257.398 265.094 254.82 269.234 249.664C273.375 244.43 275.445 237.008 275.445 227.398C275.445 219.039 273.492 212.477 269.586 207.711C265.758 202.867 259.938 200.445 252.125 200.445C244.781 200.445 238.492 202.828 233.258 207.594C228.102 212.359 225.523 217.906 225.523 224.234C225.523 233.531 227.945 241.383 232.789 247.789C237.711 254.195 243.922 257.398 251.422 257.398Z" fill="white"/>
<path d="M137.644 65H133.117V47.3633H125.236V65H120.695V43.584H137.644V65ZM151.691 65.293C149.768 65.293 148.259 64.5947 147.165 63.1982H146.931C147.087 64.5654 147.165 65.3564 147.165 65.5713V72.207H142.697V48.623H146.33L146.96 50.7471H147.165C148.21 49.126 149.758 48.3154 151.809 48.3154C153.742 48.3154 155.256 49.0625 156.35 50.5566C157.443 52.0508 157.99 54.126 157.99 56.7822C157.99 58.5303 157.731 60.0488 157.214 61.3379C156.706 62.627 155.979 63.6084 155.031 64.2822C154.084 64.9561 152.971 65.293 151.691 65.293ZM150.373 51.8896C149.27 51.8896 148.464 52.2314 147.956 52.915C147.448 53.5889 147.185 54.707 147.165 56.2695V56.7529C147.165 58.5107 147.424 59.7705 147.941 60.5322C148.469 61.2939 149.299 61.6748 150.432 61.6748C152.434 61.6748 153.435 60.0244 153.435 56.7236C153.435 55.1123 153.186 53.9062 152.688 53.1055C152.199 52.2949 151.428 51.8896 150.373 51.8896ZM165.241 56.7822C165.241 58.4033 165.505 59.6289 166.032 60.459C166.569 61.2891 167.438 61.7041 168.64 61.7041C169.831 61.7041 170.686 61.2939 171.203 60.4736C171.73 59.6436 171.994 58.4131 171.994 56.7822C171.994 55.1611 171.73 53.9453 171.203 53.1348C170.676 52.3242 169.812 51.9189 168.61 51.9189C167.419 51.9189 166.56 52.3242 166.032 53.1348C165.505 53.9355 165.241 55.1514 165.241 56.7822ZM176.564 56.7822C176.564 59.4482 175.861 61.5332 174.455 63.0371C173.049 64.541 171.091 65.293 168.581 65.293C167.009 65.293 165.622 64.9512 164.421 64.2676C163.22 63.5742 162.297 62.583 161.652 61.2939C161.008 60.0049 160.686 58.501 160.686 56.7822C160.686 54.1064 161.384 52.0264 162.78 50.542C164.177 49.0576 166.14 48.3154 168.669 48.3154C170.241 48.3154 171.628 48.6572 172.829 49.3408C174.03 50.0244 174.953 51.0059 175.598 52.2852C176.242 53.5645 176.564 55.0635 176.564 56.7822ZM187.038 51.4941C186.091 51.4941 185.349 51.7969 184.812 52.4023C184.274 52.998 183.967 53.8477 183.889 54.9512H190.158C190.139 53.8477 189.851 52.998 189.294 52.4023C188.737 51.7969 187.985 51.4941 187.038 51.4941ZM187.668 65.293C185.031 65.293 182.971 64.5654 181.486 63.1104C180.002 61.6553 179.26 59.5947 179.26 56.9287C179.26 54.1846 179.943 52.0654 181.311 50.5713C182.688 49.0674 184.587 48.3154 187.009 48.3154C189.323 48.3154 191.125 48.9746 192.414 50.293C193.703 51.6113 194.348 53.4326 194.348 55.7568V57.9248H183.786C183.835 59.1943 184.211 60.1855 184.914 60.8984C185.617 61.6113 186.604 61.9678 187.873 61.9678C188.859 61.9678 189.792 61.8652 190.671 61.6602C191.55 61.4551 192.468 61.1279 193.425 60.6787V64.1357C192.644 64.5264 191.809 64.8145 190.92 65C190.031 65.1953 188.947 65.293 187.668 65.293ZM208.718 48.623H213.64L207.15 56.4746L214.211 65H209.143L202.448 56.6943V65H197.98V48.623H202.448V56.5771L208.718 48.623ZM230.104 48.623V51.9775H224.743V65H220.275V51.9775H214.899V48.623H230.104ZM236.726 56.7822C236.726 58.4033 236.989 59.6289 237.517 60.459C238.054 61.2891 238.923 61.7041 240.124 61.7041C241.315 61.7041 242.17 61.2939 242.688 60.4736C243.215 59.6436 243.479 58.4131 243.479 56.7822C243.479 55.1611 243.215 53.9453 242.688 53.1348C242.16 52.3242 241.296 51.9189 240.095 51.9189C238.903 51.9189 238.044 52.3242 237.517 53.1348C236.989 53.9355 236.726 55.1514 236.726 56.7822ZM248.049 56.7822C248.049 59.4482 247.346 61.5332 245.939 63.0371C244.533 64.541 242.575 65.293 240.065 65.293C238.493 65.293 237.106 64.9512 235.905 64.2676C234.704 63.5742 233.781 62.583 233.137 61.2939C232.492 60.0049 232.17 58.501 232.17 56.7822C232.17 54.1064 232.868 52.0264 234.265 50.542C235.661 49.0576 237.624 48.3154 240.153 48.3154C241.726 48.3154 243.112 48.6572 244.313 49.3408C245.515 50.0244 246.438 51.0059 247.082 52.2852C247.727 53.5645 248.049 55.0635 248.049 56.7822ZM266.857 52.915C266.857 53.7939 266.579 54.5459 266.022 55.1709C265.476 55.7861 264.665 56.1816 263.591 56.3574V56.4746C264.753 56.6113 265.671 57.0117 266.345 57.6758C267.028 58.3301 267.37 59.1406 267.37 60.1074C267.37 61.6992 266.745 62.915 265.495 63.7549C264.245 64.585 262.458 65 260.134 65H251.74V48.623H260.134C262.38 48.623 264.06 48.9893 265.173 49.7217C266.296 50.4443 266.857 51.5088 266.857 52.915ZM262.741 59.873C262.741 59.2285 262.492 58.7646 261.994 58.4814C261.496 58.1885 260.749 58.042 259.753 58.042H256.208V61.9092H259.841C260.788 61.9092 261.506 61.7334 261.994 61.3818C262.492 61.0205 262.741 60.5176 262.741 59.873ZM262.331 53.2666C262.331 52.2705 261.54 51.7725 259.958 51.7725H256.208V55.0098H259.445C260.393 55.0098 261.11 54.873 261.599 54.5996C262.087 54.3262 262.331 53.8818 262.331 53.2666Z" fill="white"/>
<path d="M69 35.2005C68.1406 35.2005 67.4375 34.4974 67.4375 33.638V29.5625C67.4375 28.7031 68.1406 28 69 28C69.8594 28 70.5625 28.7031 70.5625 29.5625V33.638C70.5625 34.4974 69.8594 35.2005 69 35.2005Z" fill="white"/>
<path d="M82.6849 40.8776C82.2812 40.8776 81.8906 40.7214 81.5781 40.4219C80.9661 39.8099 80.9661 38.8203 81.5781 38.2083L84.4557 35.3307C85.0677 34.7187 86.0573 34.7187 86.6693 35.3307C87.2812 35.9427 87.2812 36.9323 86.6693 37.5443L83.7917 40.4219C83.4922 40.7214 83.0885 40.8776 82.6849 40.8776Z" fill="white"/>
<path d="M92.4375 54.5625H88.362C87.5026 54.5625 86.7995 53.8594 86.7995 53C86.7995 52.1406 87.5026 51.4375 88.362 51.4375H92.4375C93.2969 51.4375 94 52.1406 94 53C94 53.8594 93.2969 54.5625 92.4375 54.5625Z" fill="white"/>
<path d="M85.5755 71.138C85.1719 71.138 84.7812 70.9818 84.4687 70.6823L81.5911 67.8047C80.9792 67.1927 80.9792 66.2031 81.5911 65.5911C82.2031 64.9792 83.1927 64.9792 83.8047 65.5911L86.6823 68.4687C87.2943 69.0807 87.2943 70.0703 86.6823 70.6823C86.3698 70.9818 85.9792 71.138 85.5755 71.138Z" fill="white"/>
<path d="M52.4245 71.138C52.0208 71.138 51.6302 70.9818 51.3177 70.6823C50.7057 70.0703 50.7057 69.0807 51.3177 68.4687L54.1953 65.5911C54.8073 64.9792 55.7969 64.9792 56.4089 65.5911C57.0208 66.2031 57.0208 67.1927 56.4089 67.8047L53.5312 70.6823C53.2318 70.9818 52.8281 71.138 52.4245 71.138Z" fill="white"/>
<path d="M49.638 54.5625H45.5625C44.7031 54.5625 44 53.8594 44 53C44 52.1406 44.7031 51.4375 45.5625 51.4375H49.638C50.4974 51.4375 51.2005 52.1406 51.2005 53C51.2005 53.8594 50.4974 54.5625 49.638 54.5625Z" fill="white"/>
<path d="M55.3151 40.8776C54.9115 40.8776 54.5208 40.7214 54.2083 40.4219L51.3177 37.5312C50.7057 36.9193 50.7057 35.9297 51.3177 35.3177C51.9297 34.7057 52.9193 34.7057 53.5312 35.3177L56.4089 38.1953C57.0208 38.8073 57.0208 39.7969 56.4089 40.4089C56.1094 40.7214 55.7057 40.8776 55.3151 40.8776Z" fill="white"/>
<path d="M75.25 71.75V74.3542C75.25 76.3594 73.6094 78 71.6042 78H66.3958C64.651 78 62.75 76.6719 62.75 73.7552V71.75H75.25Z" fill="white"/>
<path d="M78.1927 41.6719C74.7812 38.8984 70.276 37.8177 65.875 38.7552C60.3542 39.901 55.875 44.4062 54.7292 49.9271C53.5573 55.5911 55.6927 61.2161 60.224 64.6536C61.4479 65.5651 62.3073 66.9844 62.5938 68.638V68.6641C62.6328 68.638 62.6979 68.638 62.737 68.638H75.237C75.276 68.638 75.3021 68.638 75.3411 68.6641V68.625C75.6276 67.0365 76.5651 65.5781 78.0104 64.4583C81.526 61.6719 83.5703 57.5052 83.5703 53C83.5833 48.5859 81.6302 44.4583 78.1927 41.6719ZM76.8125 54.0417C75.9531 54.0417 75.25 53.3385 75.25 52.4792C75.25 49.3151 72.6849 46.75 69.5208 46.75C68.6615 46.75 67.9583 46.0469 67.9583 45.1875C67.9583 44.3281 68.6615 43.625 69.5208 43.625C74.3906 43.625 78.375 47.6094 78.375 52.4792C78.375 53.3385 77.6719 54.0417 76.8125 54.0417Z" fill="white"/>
<path d="M62.6068 68.625H62.75C62.7109 68.625 62.6458 68.625 62.6068 68.651V68.625Z" fill="white"/>
<path d="M75.3542 68.625V68.651C75.3151 68.625 75.2891 68.625 75.25 68.625H75.3542Z" fill="white"/>
<path d="M125.797 484.328C125.797 491.464 123.635 497.531 119.312 502.531C114.99 507.531 108.922 510.969 101.109 512.844V513.312C110.328 514.458 117.307 517.271 122.047 521.75C126.786 526.177 129.156 532.167 129.156 539.719C129.156 550.708 125.172 559.276 117.203 565.422C109.234 571.516 97.8542 574.562 83.0625 574.562C70.6667 574.562 59.6771 572.505 50.0938 568.391V547.844C54.5208 550.083 59.3906 551.906 64.7031 553.312C70.0156 554.719 75.276 555.422 80.4844 555.422C88.4531 555.422 94.3385 554.068 98.1406 551.359C101.943 548.651 103.844 544.302 103.844 538.312C103.844 532.948 101.656 529.146 97.2812 526.906C92.9062 524.667 85.9271 523.547 76.3438 523.547H67.6719V505.031H76.5C85.3542 505.031 91.8125 503.885 95.875 501.594C99.9896 499.25 102.047 495.266 102.047 489.641C102.047 480.995 96.6302 476.672 85.7969 476.672C82.0469 476.672 78.2188 477.297 74.3125 478.547C70.4583 479.797 66.1615 481.958 61.4219 485.031L50.25 468.391C60.6667 460.891 73.0885 457.141 87.5156 457.141C99.3385 457.141 108.661 459.536 115.484 464.328C122.359 469.12 125.797 475.786 125.797 484.328ZM201.5 573H177.359V506.906L177.594 496.047L177.984 484.172C173.974 488.182 171.188 490.812 169.625 492.062L156.5 502.609L144.859 488.078L181.656 458.781H201.5V573ZM272.594 457.297C283.531 457.297 292.333 459.797 299 464.797C305.719 469.745 309.078 476.438 309.078 484.875C309.078 490.708 307.464 495.917 304.234 500.5C301.005 505.031 295.797 509.094 288.609 512.688C297.151 517.271 303.271 522.062 306.969 527.062C310.719 532.01 312.594 537.453 312.594 543.391C312.594 552.766 308.922 560.318 301.578 566.047C294.234 571.724 284.573 574.562 272.594 574.562C260.094 574.562 250.276 571.906 243.141 566.594C236.005 561.281 232.438 553.755 232.438 544.016C232.438 537.505 234.156 531.724 237.594 526.672C241.083 521.62 246.656 517.167 254.312 513.312C247.802 509.198 243.115 504.797 240.25 500.109C237.385 495.422 235.953 490.292 235.953 484.719C235.953 476.542 239.339 469.927 246.109 464.875C252.88 459.823 261.708 457.297 272.594 457.297ZM254.781 542.609C254.781 547.089 256.344 550.578 259.469 553.078C262.594 555.578 266.865 556.828 272.281 556.828C278.271 556.828 282.75 555.552 285.719 553C288.688 550.396 290.172 546.984 290.172 542.766C290.172 539.276 288.688 536.021 285.719 533C282.802 529.927 278.036 526.672 271.422 523.234C260.328 528.339 254.781 534.797 254.781 542.609ZM272.438 474.953C268.323 474.953 264.99 476.021 262.438 478.156C259.938 480.24 258.688 483.052 258.688 486.594C258.688 489.719 259.677 492.531 261.656 495.031C263.688 497.479 267.333 500.005 272.594 502.609C277.698 500.214 281.266 497.766 283.297 495.266C285.328 492.766 286.344 489.875 286.344 486.594C286.344 483 285.042 480.161 282.438 478.078C279.833 475.995 276.5 474.953 272.438 474.953Z" fill="white"/>
<path d="M129.763 385L124.606 368.198H124.475C124.66 371.616 124.753 373.896 124.753 375.039V385H120.695V363.584H126.877L131.945 379.961H132.033L137.409 363.584H143.591V385H139.357V374.863C139.357 374.385 139.362 373.833 139.372 373.208C139.392 372.583 139.46 370.923 139.577 368.228H139.445L133.923 385H129.763ZM155.427 371.494C154.479 371.494 153.737 371.797 153.2 372.402C152.663 372.998 152.355 373.848 152.277 374.951H158.547C158.527 373.848 158.239 372.998 157.683 372.402C157.126 371.797 156.374 371.494 155.427 371.494ZM156.057 385.293C153.42 385.293 151.359 384.565 149.875 383.11C148.391 381.655 147.648 379.595 147.648 376.929C147.648 374.185 148.332 372.065 149.699 370.571C151.076 369.067 152.976 368.315 155.397 368.315C157.712 368.315 159.514 368.975 160.803 370.293C162.092 371.611 162.736 373.433 162.736 375.757V377.925H152.175C152.224 379.194 152.6 380.186 153.303 380.898C154.006 381.611 154.992 381.968 156.262 381.968C157.248 381.968 158.181 381.865 159.06 381.66C159.938 381.455 160.856 381.128 161.813 380.679V384.136C161.032 384.526 160.197 384.814 159.309 385C158.42 385.195 157.336 385.293 156.057 385.293ZM175.363 385.293C173.439 385.293 171.931 384.595 170.837 383.198H170.603C170.759 384.565 170.837 385.356 170.837 385.571V392.207H166.369V368.623H170.002L170.632 370.747H170.837C171.882 369.126 173.43 368.315 175.48 368.315C177.414 368.315 178.928 369.062 180.021 370.557C181.115 372.051 181.662 374.126 181.662 376.782C181.662 378.53 181.403 380.049 180.886 381.338C180.378 382.627 179.65 383.608 178.703 384.282C177.756 384.956 176.643 385.293 175.363 385.293ZM174.045 371.89C172.941 371.89 172.136 372.231 171.628 372.915C171.12 373.589 170.856 374.707 170.837 376.27V376.753C170.837 378.511 171.096 379.771 171.613 380.532C172.141 381.294 172.971 381.675 174.104 381.675C176.105 381.675 177.106 380.024 177.106 376.724C177.106 375.112 176.857 373.906 176.359 373.105C175.871 372.295 175.1 371.89 174.045 371.89ZM188.913 376.782C188.913 378.403 189.177 379.629 189.704 380.459C190.241 381.289 191.11 381.704 192.312 381.704C193.503 381.704 194.357 381.294 194.875 380.474C195.402 379.644 195.666 378.413 195.666 376.782C195.666 375.161 195.402 373.945 194.875 373.135C194.348 372.324 193.483 371.919 192.282 371.919C191.091 371.919 190.231 372.324 189.704 373.135C189.177 373.936 188.913 375.151 188.913 376.782ZM200.236 376.782C200.236 379.448 199.533 381.533 198.127 383.037C196.721 384.541 194.763 385.293 192.253 385.293C190.681 385.293 189.294 384.951 188.093 384.268C186.892 383.574 185.969 382.583 185.324 381.294C184.68 380.005 184.357 378.501 184.357 376.782C184.357 374.106 185.056 372.026 186.452 370.542C187.849 369.058 189.812 368.315 192.341 368.315C193.913 368.315 195.3 368.657 196.501 369.341C197.702 370.024 198.625 371.006 199.27 372.285C199.914 373.564 200.236 375.063 200.236 376.782ZM218.811 368.623V385H214.328V371.978H208.396V385H203.928V368.623H218.811ZM232.492 385.293C230.568 385.293 229.06 384.595 227.966 383.198H227.731C227.888 384.565 227.966 385.356 227.966 385.571V392.207H223.498V368.623H227.131L227.761 370.747H227.966C229.011 369.126 230.559 368.315 232.609 368.315C234.543 368.315 236.057 369.062 237.15 370.557C238.244 372.051 238.791 374.126 238.791 376.782C238.791 378.53 238.532 380.049 238.015 381.338C237.507 382.627 236.779 383.608 235.832 384.282C234.885 384.956 233.771 385.293 232.492 385.293ZM231.174 371.89C230.07 371.89 229.265 372.231 228.757 372.915C228.249 373.589 227.985 374.707 227.966 376.27V376.753C227.966 378.511 228.225 379.771 228.742 380.532C229.27 381.294 230.1 381.675 231.232 381.675C233.234 381.675 234.235 380.024 234.235 376.724C234.235 375.112 233.986 373.906 233.488 373.105C233 372.295 232.229 371.89 231.174 371.89ZM246.804 368.623V375.098C246.804 375.781 246.691 377.451 246.467 380.107L254.025 368.623H259.401V385H255.08V378.467C255.08 377.305 255.178 375.664 255.373 373.545L247.844 385H242.482V368.623H246.804ZM266.594 385H261.76L266.169 378.525C265.114 378.086 264.313 377.451 263.767 376.621C263.229 375.791 262.961 374.814 262.961 373.691C262.961 372.109 263.552 370.869 264.733 369.971C265.925 369.072 267.546 368.623 269.597 368.623H277.214V385H272.746V378.906H270.285L266.594 385ZM267.341 373.721C267.341 374.404 267.609 374.941 268.146 375.332C268.684 375.713 269.387 375.903 270.256 375.903H272.746V371.772H269.685C268.952 371.772 268.376 371.953 267.956 372.314C267.546 372.666 267.341 373.135 267.341 373.721ZM295.437 368.623V371.978H290.075V385H285.607V371.978H280.231V368.623H295.437ZM302.819 368.623V375.098C302.819 375.781 302.707 377.451 302.482 380.107L310.041 368.623H315.417V385H311.096V378.467C311.096 377.305 311.193 375.664 311.389 373.545L303.859 385H298.498V368.623H302.819ZM324.44 368.623V375.098C324.44 375.781 324.328 377.451 324.104 380.107L331.662 368.623H337.038V385H332.717V378.467C332.717 377.305 332.814 375.664 333.01 373.545L325.48 385H320.119V368.623H324.44ZM335.72 361.577C335.534 363.403 334.846 364.736 333.654 365.576C332.463 366.406 330.744 366.821 328.498 366.821C326.184 366.821 324.47 366.421 323.356 365.62C322.253 364.819 321.633 363.472 321.496 361.577H325.495C325.563 362.583 325.812 363.291 326.242 363.701C326.682 364.102 327.463 364.302 328.586 364.302C329.572 364.302 330.305 364.082 330.783 363.643C331.271 363.193 331.569 362.505 331.677 361.577H335.72ZM358.527 385.293C356.604 385.293 355.095 384.595 354.001 383.198H353.767C353.923 384.565 354.001 385.356 354.001 385.571V392.207H349.533V368.623H353.166L353.796 370.747H354.001C355.046 369.126 356.594 368.315 358.645 368.315C360.578 368.315 362.092 369.062 363.186 370.557C364.279 372.051 364.826 374.126 364.826 376.782C364.826 378.53 364.567 380.049 364.05 381.338C363.542 382.627 362.814 383.608 361.867 384.282C360.92 384.956 359.807 385.293 358.527 385.293ZM357.209 371.89C356.105 371.89 355.3 372.231 354.792 372.915C354.284 373.589 354.021 374.707 354.001 376.27V376.753C354.001 378.511 354.26 379.771 354.777 380.532C355.305 381.294 356.135 381.675 357.268 381.675C359.27 381.675 360.271 380.024 360.271 376.724C360.271 375.112 360.021 373.906 359.523 373.105C359.035 372.295 358.264 371.89 357.209 371.89ZM375.3 371.494C374.353 371.494 373.61 371.797 373.073 372.402C372.536 372.998 372.229 373.848 372.15 374.951H378.42C378.4 373.848 378.112 372.998 377.556 372.402C376.999 371.797 376.247 371.494 375.3 371.494ZM375.93 385.293C373.293 385.293 371.232 384.565 369.748 383.11C368.264 381.655 367.521 379.595 367.521 376.929C367.521 374.185 368.205 372.065 369.572 370.571C370.949 369.067 372.849 368.315 375.271 368.315C377.585 368.315 379.387 368.975 380.676 370.293C381.965 371.611 382.609 373.433 382.609 375.757V377.925H372.048C372.097 379.194 372.473 380.186 373.176 380.898C373.879 381.611 374.865 381.968 376.135 381.968C377.121 381.968 378.054 381.865 378.933 381.66C379.812 381.455 380.729 381.128 381.687 380.679V384.136C380.905 384.526 380.07 384.814 379.182 385C378.293 385.195 377.209 385.293 375.93 385.293ZM396.643 385L395.778 382.773H395.661C394.909 383.721 394.133 384.38 393.332 384.751C392.541 385.112 391.506 385.293 390.227 385.293C388.654 385.293 387.414 384.844 386.506 383.945C385.607 383.047 385.158 381.768 385.158 380.107C385.158 378.369 385.764 377.09 386.975 376.27C388.195 375.439 390.031 374.98 392.482 374.893L395.324 374.805V374.087C395.324 372.427 394.475 371.597 392.775 371.597C391.467 371.597 389.929 371.992 388.161 372.783L386.682 369.766C388.566 368.779 390.656 368.286 392.951 368.286C395.148 368.286 396.833 368.765 398.005 369.722C399.177 370.679 399.763 372.134 399.763 374.087V385H396.643ZM395.324 377.412L393.596 377.471C392.297 377.51 391.33 377.744 390.695 378.174C390.061 378.604 389.743 379.258 389.743 380.137C389.743 381.396 390.466 382.026 391.911 382.026C392.946 382.026 393.771 381.729 394.387 381.133C395.012 380.537 395.324 379.746 395.324 378.76V377.412ZM419.04 385H414.572V371.978H410.456C410.144 375.64 409.763 378.374 409.313 380.181C408.864 381.978 408.264 383.281 407.512 384.092C406.77 384.893 405.793 385.293 404.582 385.293C403.547 385.293 402.697 385.137 402.033 384.824V381.25C402.512 381.445 402.99 381.543 403.469 381.543C404.025 381.543 404.489 381.143 404.86 380.342C405.241 379.541 405.578 378.208 405.871 376.343C406.174 374.468 406.433 371.895 406.647 368.623H419.04V385ZM428.063 368.623V375.098C428.063 375.781 427.951 377.451 427.727 380.107L435.285 368.623H440.661V385H436.34V378.467C436.34 377.305 436.438 375.664 436.633 373.545L429.104 385H423.742V368.623H428.063ZM449.436 374.922C451.125 374.922 452.321 374.785 453.024 374.512C453.737 374.238 454.094 373.804 454.094 373.208C454.094 372.681 453.835 372.285 453.317 372.021C452.8 371.758 451.945 371.626 450.754 371.626C450.002 371.626 449.147 371.719 448.19 371.904C447.243 372.09 446.379 372.344 445.598 372.666L444.279 369.546C445.441 369.106 446.569 368.794 447.663 368.608C448.757 368.413 449.978 368.315 451.325 368.315C453.366 368.315 455.002 368.706 456.232 369.487C457.463 370.269 458.078 371.328 458.078 372.666C458.078 374.512 456.989 375.713 454.812 376.27V376.416C456.149 376.748 457.102 377.222 457.668 377.837C458.244 378.442 458.532 379.238 458.532 380.225C458.532 381.221 458.21 382.104 457.565 382.876C456.921 383.647 455.988 384.243 454.768 384.663C453.547 385.083 452.111 385.293 450.461 385.293C447.727 385.293 445.627 384.956 444.162 384.282V380.591C445.002 380.981 445.92 381.289 446.916 381.514C447.922 381.738 448.894 381.851 449.831 381.851C451.286 381.851 452.375 381.689 453.098 381.367C453.82 381.035 454.182 380.566 454.182 379.961C454.182 379.297 453.801 378.809 453.039 378.496C452.277 378.174 451.105 378.013 449.523 378.013H447.795V374.922H449.436ZM465.593 376.782C465.593 378.403 465.856 379.629 466.384 380.459C466.921 381.289 467.79 381.704 468.991 381.704C470.183 381.704 471.037 381.294 471.555 380.474C472.082 379.644 472.346 378.413 472.346 376.782C472.346 375.161 472.082 373.945 471.555 373.135C471.027 372.324 470.163 371.919 468.962 371.919C467.771 371.919 466.911 372.324 466.384 373.135C465.856 373.936 465.593 375.151 465.593 376.782ZM476.916 376.782C476.916 379.448 476.213 381.533 474.807 383.037C473.4 384.541 471.442 385.293 468.933 385.293C467.36 385.293 465.974 384.951 464.772 384.268C463.571 383.574 462.648 382.583 462.004 381.294C461.359 380.005 461.037 378.501 461.037 376.782C461.037 374.106 461.735 372.026 463.132 370.542C464.528 369.058 466.491 368.315 469.021 368.315C470.593 368.315 471.979 368.657 473.181 369.341C474.382 370.024 475.305 371.006 475.949 372.285C476.594 373.564 476.916 375.063 476.916 376.782ZM495.725 372.915C495.725 373.794 495.446 374.546 494.89 375.171C494.343 375.786 493.532 376.182 492.458 376.357V376.475C493.62 376.611 494.538 377.012 495.212 377.676C495.896 378.33 496.237 379.141 496.237 380.107C496.237 381.699 495.612 382.915 494.362 383.755C493.112 384.585 491.325 385 489.001 385H480.607V368.623H489.001C491.247 368.623 492.927 368.989 494.04 369.722C495.163 370.444 495.725 371.509 495.725 372.915ZM491.608 379.873C491.608 379.229 491.359 378.765 490.861 378.481C490.363 378.188 489.616 378.042 488.62 378.042H485.075V381.909H488.708C489.655 381.909 490.373 381.733 490.861 381.382C491.359 381.021 491.608 380.518 491.608 379.873ZM491.198 373.267C491.198 372.271 490.407 371.772 488.825 371.772H485.075V375.01H488.312C489.26 375.01 489.978 374.873 490.466 374.6C490.954 374.326 491.198 373.882 491.198 373.267ZM510.197 385L509.333 382.773H509.216C508.464 383.721 507.688 384.38 506.887 384.751C506.096 385.112 505.061 385.293 503.781 385.293C502.209 385.293 500.969 384.844 500.061 383.945C499.162 383.047 498.713 381.768 498.713 380.107C498.713 378.369 499.318 377.09 500.529 376.27C501.75 375.439 503.586 374.98 506.037 374.893L508.879 374.805V374.087C508.879 372.427 508.029 371.597 506.33 371.597C505.021 371.597 503.483 371.992 501.716 372.783L500.236 369.766C502.121 368.779 504.211 368.286 506.506 368.286C508.703 368.286 510.388 368.765 511.56 369.722C512.731 370.679 513.317 372.134 513.317 374.087V385H510.197ZM508.879 377.412L507.15 377.471C505.852 377.51 504.885 377.744 504.25 378.174C503.615 378.604 503.298 379.258 503.298 380.137C503.298 381.396 504.021 382.026 505.466 382.026C506.501 382.026 507.326 381.729 507.941 381.133C508.566 380.537 508.879 379.746 508.879 378.76V377.412ZM522.399 368.623V374.922H528.64V368.623H533.107V385H528.64V378.247H522.399V385H517.932V368.623H522.399ZM541.354 376.782C541.354 378.403 541.618 379.629 542.146 380.459C542.683 381.289 543.552 381.704 544.753 381.704C545.944 381.704 546.799 381.294 547.316 380.474C547.844 379.644 548.107 378.413 548.107 376.782C548.107 375.161 547.844 373.945 547.316 373.135C546.789 372.324 545.925 371.919 544.724 371.919C543.532 371.919 542.673 372.324 542.146 373.135C541.618 373.936 541.354 375.151 541.354 376.782ZM552.678 376.782C552.678 379.448 551.975 381.533 550.568 383.037C549.162 384.541 547.204 385.293 544.694 385.293C543.122 385.293 541.735 384.951 540.534 384.268C539.333 383.574 538.41 382.583 537.766 381.294C537.121 380.005 536.799 378.501 536.799 376.782C536.799 374.106 537.497 372.026 538.894 370.542C540.29 369.058 542.253 368.315 544.782 368.315C546.354 368.315 547.741 368.657 548.942 369.341C550.144 370.024 551.066 371.006 551.711 372.285C552.355 373.564 552.678 375.063 552.678 376.782Z" fill="white"/>
<path d="M77.8542 397C77.4635 397 77.0729 396.896 76.7214 396.661L67.8672 390.922C66.9036 390.296 66.6302 389.004 67.2552 388.039C67.8802 387.074 69.1693 386.8 70.1328 387.426L78.987 393.165C79.9505 393.791 80.224 395.083 79.599 396.048C79.2083 396.661 78.5312 397 77.8542 397Z" fill="white"/>
<path d="M60.1458 397C59.4687 397 58.7917 396.661 58.401 396.048C57.776 395.083 58.0495 393.791 59.013 393.165L67.8672 387.426C68.8307 386.8 70.1198 387.074 70.7448 388.039C71.3698 389.004 71.0964 390.296 70.1328 390.922L61.2786 396.661C60.9271 396.896 60.5365 397 60.1458 397Z" fill="white"/>
<path d="M66.9167 386.565V394.913C66.9167 396.061 67.8542 397 69 397C70.1458 397 71.0833 396.061 71.0833 394.913V386.565H66.9167Z" fill="white"/>
<path d="M89.3125 360.478H48.6875C48.3359 360.478 47.9844 360.426 47.6458 360.374V380.826C47.6458 382.835 49.2865 384.478 51.2917 384.478H86.7083C88.7135 384.478 90.3542 382.835 90.3542 380.826V360.374C90.0156 360.426 89.6641 360.478 89.3125 360.478ZM81.5521 367.026L73.5964 376.717C72.9193 377.539 71.7474 377.722 70.849 377.148L66.2786 374.174L59.5078 380.761C59.1042 381.152 58.5833 381.348 58.0495 381.348C57.5026 381.348 56.9688 381.139 56.5521 380.722C55.7448 379.9 55.7708 378.57 56.5911 377.774L64.5469 370.026C65.237 369.348 66.3177 369.243 67.138 369.765L71.5391 372.622L78.3099 364.378C79.0391 363.491 80.3542 363.361 81.2396 364.091C82.151 364.822 82.2812 366.126 81.5521 367.026Z" fill="white"/>
<path d="M89.3125 358.391H48.6875C46.0964 358.391 44 356.291 44 353.696C44 351.1 46.0964 349 48.6875 349H89.3125C91.9036 349 94 351.1 94 353.696C94 356.291 91.9036 358.391 89.3125 358.391Z" fill="white"/>
<path d="M125.797 804.328C125.797 811.464 123.635 817.531 119.312 822.531C114.99 827.531 108.922 830.969 101.109 832.844V833.312C110.328 834.458 117.307 837.271 122.047 841.75C126.786 846.177 129.156 852.167 129.156 859.719C129.156 870.708 125.172 879.276 117.203 885.422C109.234 891.516 97.8542 894.562 83.0625 894.562C70.6667 894.562 59.6771 892.505 50.0938 888.391V867.844C54.5208 870.083 59.3906 871.906 64.7031 873.312C70.0156 874.719 75.276 875.422 80.4844 875.422C88.4531 875.422 94.3385 874.068 98.1406 871.359C101.943 868.651 103.844 864.302 103.844 858.312C103.844 852.948 101.656 849.146 97.2812 846.906C92.9062 844.667 85.9271 843.547 76.3438 843.547H67.6719V825.031H76.5C85.3542 825.031 91.8125 823.885 95.875 821.594C99.9896 819.25 102.047 815.266 102.047 809.641C102.047 800.995 96.6302 796.672 85.7969 796.672C82.0469 796.672 78.2188 797.297 74.3125 798.547C70.4583 799.797 66.1615 801.958 61.4219 805.031L50.25 788.391C60.6667 780.891 73.0885 777.141 87.5156 777.141C99.3385 777.141 108.661 779.536 115.484 784.328C122.359 789.12 125.797 795.786 125.797 804.328ZM181.188 777.297C192.125 777.297 200.927 779.797 207.594 784.797C214.312 789.745 217.672 796.438 217.672 804.875C217.672 810.708 216.057 815.917 212.828 820.5C209.599 825.031 204.391 829.094 197.203 832.688C205.745 837.271 211.865 842.062 215.562 847.062C219.312 852.01 221.188 857.453 221.188 863.391C221.188 872.766 217.516 880.318 210.172 886.047C202.828 891.724 193.167 894.562 181.188 894.562C168.688 894.562 158.87 891.906 151.734 886.594C144.599 881.281 141.031 873.755 141.031 864.016C141.031 857.505 142.75 851.724 146.188 846.672C149.677 841.62 155.25 837.167 162.906 833.312C156.396 829.198 151.708 824.797 148.844 820.109C145.979 815.422 144.547 810.292 144.547 804.719C144.547 796.542 147.932 789.927 154.703 784.875C161.474 779.823 170.302 777.297 181.188 777.297ZM163.375 862.609C163.375 867.089 164.938 870.578 168.062 873.078C171.188 875.578 175.458 876.828 180.875 876.828C186.865 876.828 191.344 875.552 194.312 873C197.281 870.396 198.766 866.984 198.766 862.766C198.766 859.276 197.281 856.021 194.312 853C191.396 849.927 186.63 846.672 180.016 843.234C168.922 848.339 163.375 854.797 163.375 862.609ZM181.031 794.953C176.917 794.953 173.583 796.021 171.031 798.156C168.531 800.24 167.281 803.052 167.281 806.594C167.281 809.719 168.271 812.531 170.25 815.031C172.281 817.479 175.927 820.005 181.188 822.609C186.292 820.214 189.859 817.766 191.891 815.266C193.922 812.766 194.938 809.875 194.938 806.594C194.938 803 193.635 800.161 191.031 798.078C188.427 795.995 185.094 794.953 181.031 794.953ZM244.547 893L287.438 799.25H231.109V778.938H313.062V794.094L269.859 893H244.547Z" fill="white"/>
<path d="M364.094 885.969L364.5 884.469C365.354 881.365 366.094 878.979 366.719 877.312L374.469 858.438H384.25V893H377.469V865.094L376.906 866.969C375.969 870.323 375.177 872.792 374.531 874.375L366.969 893H361.406L353.844 874.25C352.802 871.542 351.844 868.49 350.969 865.094V893H344.25V858.438H353.969L361.469 876.75C362.135 878.438 363.01 881.51 364.094 885.969ZM423.156 893H415.75V864.188H406.219C405.635 871.604 404.844 877.396 403.844 881.562C402.865 885.729 401.573 888.771 399.969 890.688C398.385 892.604 396.323 893.562 393.781 893.562C392.177 893.562 390.833 893.333 389.75 892.875V887.125C390.521 887.417 391.292 887.562 392.062 887.562C394.188 887.562 395.854 885.177 397.062 880.406C398.292 875.615 399.25 868.292 399.938 858.438H423.156V893ZM441.031 858.438V872.312H457.312V858.438H464.656V893H457.312V878.094H441.031V893H433.688V858.438H441.031ZM492.323 893V886.152H487.203V879.944H492.323V874.952H487.203V867.016H492.323V847.304H506.915C512.803 847.304 517.091 848.499 519.779 850.888C522.509 853.277 523.875 856.563 523.875 860.744C523.875 863.219 523.32 865.544 522.211 867.72C521.101 869.896 519.245 871.645 516.643 872.968C514.083 874.291 510.584 874.952 506.147 874.952H501.987V879.944H511.843V886.152H501.987V893H492.323ZM505.187 867.016C507.917 867.016 510.072 866.547 511.651 865.608C513.272 864.669 514.083 863.155 514.083 861.064C514.083 857.181 511.523 855.24 506.403 855.24H501.987V867.016H505.187Z" fill="white"/>
<path d="M141.156 705H136L128.236 694.146V705H123.695V683.584H128.236V693.955L135.912 683.584H140.746L132.938 693.867L141.156 705ZM153.9 705L153.036 702.773H152.919C152.167 703.721 151.391 704.38 150.59 704.751C149.799 705.112 148.764 705.293 147.484 705.293C145.912 705.293 144.672 704.844 143.764 703.945C142.865 703.047 142.416 701.768 142.416 700.107C142.416 698.369 143.021 697.09 144.232 696.27C145.453 695.439 147.289 694.98 149.74 694.893L152.582 694.805V694.087C152.582 692.427 151.732 691.597 150.033 691.597C148.725 691.597 147.187 691.992 145.419 692.783L143.939 689.766C145.824 688.779 147.914 688.286 150.209 688.286C152.406 688.286 154.091 688.765 155.263 689.722C156.435 690.679 157.021 692.134 157.021 694.087V705H153.9ZM152.582 697.412L150.854 697.471C149.555 697.51 148.588 697.744 147.953 698.174C147.318 698.604 147.001 699.258 147.001 700.137C147.001 701.396 147.724 702.026 149.169 702.026C150.204 702.026 151.029 701.729 151.645 701.133C152.27 700.537 152.582 699.746 152.582 698.76V697.412ZM168.285 705.293C163.188 705.293 160.639 702.495 160.639 696.899C160.639 694.116 161.332 691.992 162.719 690.527C164.105 689.053 166.093 688.315 168.681 688.315C170.575 688.315 172.274 688.687 173.778 689.429L172.46 692.886C171.757 692.603 171.103 692.373 170.497 692.197C169.892 692.012 169.286 691.919 168.681 691.919C166.356 691.919 165.194 693.569 165.194 696.87C165.194 700.073 166.356 701.675 168.681 701.675C169.54 701.675 170.336 701.562 171.068 701.338C171.801 701.104 172.533 700.742 173.266 700.254V704.077C172.543 704.536 171.811 704.854 171.068 705.029C170.336 705.205 169.408 705.293 168.285 705.293ZM183.725 705.293C178.627 705.293 176.078 702.495 176.078 696.899C176.078 694.116 176.771 691.992 178.158 690.527C179.545 689.053 181.532 688.315 184.12 688.315C186.015 688.315 187.714 688.687 189.218 689.429L187.899 692.886C187.196 692.603 186.542 692.373 185.937 692.197C185.331 692.012 184.726 691.919 184.12 691.919C181.796 691.919 180.634 693.569 180.634 696.87C180.634 700.073 181.796 701.675 184.12 701.675C184.979 701.675 185.775 701.562 186.508 701.338C187.24 701.104 187.973 700.742 188.705 700.254V704.077C187.982 704.536 187.25 704.854 186.508 705.029C185.775 705.205 184.848 705.293 183.725 705.293ZM196.073 696.782C196.073 698.403 196.337 699.629 196.864 700.459C197.401 701.289 198.271 701.704 199.472 701.704C200.663 701.704 201.518 701.294 202.035 700.474C202.562 699.644 202.826 698.413 202.826 696.782C202.826 695.161 202.562 693.945 202.035 693.135C201.508 692.324 200.644 691.919 199.442 691.919C198.251 691.919 197.392 692.324 196.864 693.135C196.337 693.936 196.073 695.151 196.073 696.782ZM207.396 696.782C207.396 699.448 206.693 701.533 205.287 703.037C203.881 704.541 201.923 705.293 199.413 705.293C197.841 705.293 196.454 704.951 195.253 704.268C194.052 703.574 193.129 702.583 192.484 701.294C191.84 700.005 191.518 698.501 191.518 696.782C191.518 694.106 192.216 692.026 193.612 690.542C195.009 689.058 196.972 688.315 199.501 688.315C201.073 688.315 202.46 688.657 203.661 689.341C204.862 690.024 205.785 691.006 206.43 692.285C207.074 693.564 207.396 695.063 207.396 696.782ZM226.205 692.915C226.205 693.794 225.927 694.546 225.37 695.171C224.823 695.786 224.013 696.182 222.938 696.357V696.475C224.101 696.611 225.019 697.012 225.692 697.676C226.376 698.33 226.718 699.141 226.718 700.107C226.718 701.699 226.093 702.915 224.843 703.755C223.593 704.585 221.806 705 219.481 705H211.088V688.623H219.481C221.728 688.623 223.407 688.989 224.521 689.722C225.644 690.444 226.205 691.509 226.205 692.915ZM222.089 699.873C222.089 699.229 221.84 698.765 221.342 698.481C220.844 698.188 220.097 698.042 219.101 698.042H215.556V701.909H219.188C220.136 701.909 220.854 701.733 221.342 701.382C221.84 701.021 222.089 700.518 222.089 699.873ZM221.679 693.267C221.679 692.271 220.888 691.772 219.306 691.772H215.556V695.01H218.793C219.74 695.01 220.458 694.873 220.946 694.6C221.435 694.326 221.679 693.882 221.679 693.267ZM233.837 696.782C233.837 698.403 234.101 699.629 234.628 700.459C235.165 701.289 236.034 701.704 237.235 701.704C238.427 701.704 239.281 701.294 239.799 700.474C240.326 699.644 240.59 698.413 240.59 696.782C240.59 695.161 240.326 693.945 239.799 693.135C239.271 692.324 238.407 691.919 237.206 691.919C236.015 691.919 235.155 692.324 234.628 693.135C234.101 693.936 233.837 695.151 233.837 696.782ZM245.16 696.782C245.16 699.448 244.457 701.533 243.051 703.037C241.645 704.541 239.687 705.293 237.177 705.293C235.604 705.293 234.218 704.951 233.017 704.268C231.815 703.574 230.893 702.583 230.248 701.294C229.604 700.005 229.281 698.501 229.281 696.782C229.281 694.106 229.979 692.026 231.376 690.542C232.772 689.058 234.735 688.315 237.265 688.315C238.837 688.315 240.224 688.657 241.425 689.341C242.626 690.024 243.549 691.006 244.193 692.285C244.838 693.564 245.16 695.063 245.16 696.782ZM255.634 691.494C254.687 691.494 253.944 691.797 253.407 692.402C252.87 692.998 252.562 693.848 252.484 694.951H258.754C258.734 693.848 258.446 692.998 257.89 692.402C257.333 691.797 256.581 691.494 255.634 691.494ZM256.264 705.293C253.627 705.293 251.566 704.565 250.082 703.11C248.598 701.655 247.855 699.595 247.855 696.929C247.855 694.185 248.539 692.065 249.906 690.571C251.283 689.067 253.183 688.315 255.604 688.315C257.919 688.315 259.721 688.975 261.01 690.293C262.299 691.611 262.943 693.433 262.943 695.757V697.925H252.382C252.431 699.194 252.807 700.186 253.51 700.898C254.213 701.611 255.199 701.968 256.469 701.968C257.455 701.968 258.388 701.865 259.267 701.66C260.146 701.455 261.063 701.128 262.021 700.679V704.136C261.239 704.526 260.404 704.814 259.516 705C258.627 705.195 257.543 705.293 256.264 705.293ZM278.69 688.623V695.098C278.69 695.781 278.578 697.451 278.354 700.107L285.912 688.623H291.288V705H286.967V698.467C286.967 697.305 287.064 695.664 287.26 693.545L279.73 705H274.369V688.623H278.69ZM302.641 705.293C297.543 705.293 294.994 702.495 294.994 696.899C294.994 694.116 295.688 691.992 297.074 690.527C298.461 689.053 300.448 688.315 303.036 688.315C304.931 688.315 306.63 688.687 308.134 689.429L306.815 692.886C306.112 692.603 305.458 692.373 304.853 692.197C304.247 692.012 303.642 691.919 303.036 691.919C300.712 691.919 299.55 693.569 299.55 696.87C299.55 700.073 300.712 701.675 303.036 701.675C303.896 701.675 304.691 701.562 305.424 701.338C306.156 701.104 306.889 700.742 307.621 700.254V704.077C306.898 704.536 306.166 704.854 305.424 705.029C304.691 705.205 303.764 705.293 302.641 705.293ZM326.312 688.623V705H321.83V691.978H315.897V705H311.43V688.623H326.312ZM334.56 696.782C334.56 698.403 334.823 699.629 335.351 700.459C335.888 701.289 336.757 701.704 337.958 701.704C339.149 701.704 340.004 701.294 340.521 700.474C341.049 699.644 341.312 698.413 341.312 696.782C341.312 695.161 341.049 693.945 340.521 693.135C339.994 692.324 339.13 691.919 337.929 691.919C336.737 691.919 335.878 692.324 335.351 693.135C334.823 693.936 334.56 695.151 334.56 696.782ZM345.883 696.782C345.883 699.448 345.18 701.533 343.773 703.037C342.367 704.541 340.409 705.293 337.899 705.293C336.327 705.293 334.94 704.951 333.739 704.268C332.538 703.574 331.615 702.583 330.971 701.294C330.326 700.005 330.004 698.501 330.004 696.782C330.004 694.106 330.702 692.026 332.099 690.542C333.495 689.058 335.458 688.315 337.987 688.315C339.56 688.315 340.946 688.657 342.147 689.341C343.349 690.024 344.271 691.006 344.916 692.285C345.561 693.564 345.883 695.063 345.883 696.782ZM364.237 705H359.77V691.978H355.653C355.341 695.64 354.96 698.374 354.511 700.181C354.062 701.978 353.461 703.281 352.709 704.092C351.967 704.893 350.99 705.293 349.779 705.293C348.744 705.293 347.895 705.137 347.23 704.824V701.25C347.709 701.445 348.188 701.543 348.666 701.543C349.223 701.543 349.687 701.143 350.058 700.342C350.438 699.541 350.775 698.208 351.068 696.343C351.371 694.468 351.63 691.895 351.845 688.623H364.237V705ZM373.407 688.623V694.922H379.647V688.623H384.115V705H379.647V698.247H373.407V705H368.939V688.623H373.407ZM395.585 691.494C394.638 691.494 393.896 691.797 393.358 692.402C392.821 692.998 392.514 693.848 392.436 694.951H398.705C398.686 693.848 398.397 692.998 397.841 692.402C397.284 691.797 396.532 691.494 395.585 691.494ZM396.215 705.293C393.578 705.293 391.518 704.565 390.033 703.11C388.549 701.655 387.807 699.595 387.807 696.929C387.807 694.185 388.49 692.065 389.857 690.571C391.234 689.067 393.134 688.315 395.556 688.315C397.87 688.315 399.672 688.975 400.961 690.293C402.25 691.611 402.895 693.433 402.895 695.757V697.925H392.333C392.382 699.194 392.758 700.186 393.461 700.898C394.164 701.611 395.15 701.968 396.42 701.968C397.406 701.968 398.339 701.865 399.218 701.66C400.097 701.455 401.015 701.128 401.972 700.679V704.136C401.19 704.526 400.355 704.814 399.467 705C398.578 705.195 397.494 705.293 396.215 705.293ZM410.995 688.623V694.922H417.235V688.623H421.703V705H417.235V698.247H410.995V705H406.527V688.623H410.995ZM430.712 688.623V695.098C430.712 695.781 430.6 697.451 430.375 700.107L437.934 688.623H443.31V705H438.988V698.467C438.988 697.305 439.086 695.664 439.281 693.545L431.752 705H426.391V688.623H430.712ZM454.794 691.494C453.847 691.494 453.104 691.797 452.567 692.402C452.03 692.998 451.723 693.848 451.645 694.951H457.914C457.895 693.848 457.606 692.998 457.05 692.402C456.493 691.797 455.741 691.494 454.794 691.494ZM455.424 705.293C452.787 705.293 450.727 704.565 449.242 703.11C447.758 701.655 447.016 699.595 447.016 696.929C447.016 694.185 447.699 692.065 449.066 690.571C450.443 689.067 452.343 688.315 454.765 688.315C457.079 688.315 458.881 688.975 460.17 690.293C461.459 691.611 462.104 693.433 462.104 695.757V697.925H451.542C451.591 699.194 451.967 700.186 452.67 700.898C453.373 701.611 454.359 701.968 455.629 701.968C456.615 701.968 457.548 701.865 458.427 701.66C459.306 701.455 460.224 701.128 461.181 700.679V704.136C460.399 704.526 459.564 704.814 458.676 705C457.787 705.195 456.703 705.293 455.424 705.293Z" fill="white"/>
<path d="M59.4068 696.842C60.8914 696.842 62.343 696.741 63.6956 696.556V681.34C62.3265 681.156 60.8914 681.055 59.4068 681.055C50.9116 681.055 44.0165 684.249 44.0165 688.166V689.713C44.0165 693.647 50.9116 696.842 59.4068 696.842Z" fill="white"/>
<path d="M59.4068 704.777C60.8914 704.777 62.343 704.676 63.6956 704.491V700.036C62.3265 700.221 60.8914 700.322 59.4068 700.322C51.9838 700.322 45.7815 697.901 44.3299 694.656C44.1155 695.127 44 695.614 44 696.119V697.665C44.0165 701.6 50.9116 704.777 59.4068 704.777Z" fill="white"/>
<path d="M63.7121 708.342V707.988C62.343 708.173 60.9079 708.274 59.4233 708.274C52.0003 708.274 45.798 705.853 44.3464 702.608C44.132 703.079 44.0165 703.567 44.0165 704.071V705.618C44.0165 709.552 50.9116 712.73 59.4068 712.73C61.1058 712.73 62.7389 712.595 64.2729 712.36C63.8935 711.57 63.6956 710.729 63.6956 709.871V708.342H63.7121Z" fill="white"/>
<path d="M81.6097 669C73.098 669 66.2194 672.194 66.2194 676.112V677.658C66.2194 681.593 73.1145 684.77 81.6097 684.77C90.1214 684.77 97 681.576 97 677.658V676.112C97.0165 672.194 90.1214 669 81.6097 669Z" fill="white"/>
<path d="M81.6097 688.267C74.1867 688.267 67.9844 685.846 66.5328 682.601C66.3184 683.072 66.2029 683.56 66.2029 684.064V685.611C66.2029 689.545 73.098 692.723 81.5932 692.723C90.1049 692.723 96.9835 689.528 96.9835 685.611V684.064C96.9835 683.56 96.868 683.072 96.6536 682.601C95.235 685.846 89.0326 688.267 81.6097 688.267Z" fill="white"/>
<path d="M81.6097 696.22C74.1867 696.22 67.9844 693.799 66.5328 690.554C66.3184 691.025 66.2029 691.512 66.2029 692.016V693.563C66.2029 697.497 73.098 700.675 81.5932 700.675C90.1049 700.675 96.9835 697.481 96.9835 693.563V692.016C96.9835 691.512 96.868 691.025 96.6536 690.554C95.235 693.782 89.0326 696.22 81.6097 696.22Z" fill="white"/>
<path d="M81.6097 704.592C74.1867 704.592 67.9844 702.171 66.5328 698.926C66.3184 699.397 66.2029 699.885 66.2029 700.389V701.936C66.2029 705.87 73.098 709.048 81.5932 709.048C90.1049 709.048 96.9835 705.853 96.9835 701.936V700.389C96.9835 699.885 96.868 699.397 96.6536 698.926C95.235 702.154 89.0326 704.592 81.6097 704.592Z" fill="white"/>
<path d="M81.6097 712.545C74.1867 712.545 67.9844 710.124 66.5328 706.879C66.3184 707.35 66.2029 707.837 66.2029 708.342V709.888C66.2029 713.822 73.098 717 81.5932 717C90.1049 717 96.9835 713.806 96.9835 709.888V708.342C96.9835 707.837 96.868 707.35 96.6536 706.879C95.235 710.107 89.0326 712.545 81.6097 712.545Z" fill="white"/>
<path d="M1138.14 318H1135.99V301.356H1126.45V318H1124.29V299.439H1138.14V318ZM1149.42 318.254C1148.51 318.254 1147.68 318.089 1146.93 317.759C1146.18 317.42 1145.56 316.904 1145.05 316.21H1144.9C1145 317.022 1145.05 317.793 1145.05 318.521V324.246H1142.94V304.086H1144.66L1144.95 305.99H1145.05C1145.59 305.229 1146.22 304.678 1146.94 304.34C1147.66 304.001 1148.49 303.832 1149.42 303.832C1151.26 303.832 1152.68 304.463 1153.68 305.724C1154.69 306.985 1155.19 308.754 1155.19 311.03C1155.19 313.315 1154.68 315.093 1153.66 316.362C1152.64 317.623 1151.23 318.254 1149.42 318.254ZM1149.11 305.622C1147.69 305.622 1146.66 306.016 1146.03 306.803C1145.39 307.59 1145.07 308.842 1145.05 310.561V311.03C1145.05 312.985 1145.38 314.386 1146.03 315.232C1146.68 316.07 1147.73 316.489 1149.16 316.489C1150.37 316.489 1151.31 316.003 1151.98 315.029C1152.67 314.056 1153.01 312.715 1153.01 311.005C1153.01 309.27 1152.67 307.941 1151.98 307.019C1151.31 306.088 1150.35 305.622 1149.11 305.622ZM1160.87 304.086V312.909L1160.78 315.22L1160.74 315.943L1168.27 304.086H1170.9V318H1168.93V309.494L1168.97 307.818L1169.03 306.168L1161.52 318H1158.89V304.086H1160.87ZM1187.38 311.03C1187.38 313.299 1186.81 315.072 1185.66 316.35C1184.52 317.619 1182.94 318.254 1180.93 318.254C1179.68 318.254 1178.58 317.962 1177.61 317.378C1176.65 316.794 1175.9 315.956 1175.38 314.864C1174.86 313.772 1174.59 312.494 1174.59 311.03C1174.59 308.762 1175.16 306.997 1176.29 305.736C1177.43 304.467 1179 303.832 1181.02 303.832C1182.96 303.832 1184.51 304.479 1185.65 305.774C1186.8 307.069 1187.38 308.821 1187.38 311.03ZM1176.78 311.03C1176.78 312.808 1177.13 314.162 1177.84 315.093C1178.55 316.024 1179.6 316.489 1180.98 316.489C1182.36 316.489 1183.4 316.028 1184.11 315.105C1184.83 314.174 1185.19 312.816 1185.19 311.03C1185.19 309.261 1184.83 307.92 1184.11 307.006C1183.4 306.083 1182.35 305.622 1180.95 305.622C1179.57 305.622 1178.53 306.075 1177.83 306.98C1177.13 307.886 1176.78 309.236 1176.78 311.03ZM1197.56 318.254C1196.65 318.254 1195.82 318.089 1195.07 317.759C1194.33 317.42 1193.7 316.904 1193.19 316.21H1193.04C1193.14 317.022 1193.19 317.793 1193.19 318.521V324.246H1191.08V304.086H1192.8L1193.09 305.99H1193.19C1193.73 305.229 1194.36 304.678 1195.08 304.34C1195.8 304.001 1196.63 303.832 1197.56 303.832C1199.4 303.832 1200.83 304.463 1201.82 305.724C1202.83 306.985 1203.33 308.754 1203.33 311.03C1203.33 313.315 1202.82 315.093 1201.8 316.362C1200.78 317.623 1199.37 318.254 1197.56 318.254ZM1197.25 305.622C1195.83 305.622 1194.8 306.016 1194.17 306.803C1193.53 307.59 1193.21 308.842 1193.19 310.561V311.03C1193.19 312.985 1193.52 314.386 1194.17 315.232C1194.82 316.07 1195.87 316.489 1197.3 316.489C1198.51 316.489 1199.45 316.003 1200.12 315.029C1200.81 314.056 1201.15 312.715 1201.15 311.005C1201.15 309.27 1200.81 307.941 1200.12 307.019C1199.45 306.088 1198.49 305.622 1197.25 305.622ZM1209.01 304.086V312.909L1208.92 315.22L1208.88 315.943L1216.41 304.086H1219.04V318H1217.07V309.494L1217.11 307.818L1217.17 306.168L1209.66 318H1207.03V304.086H1209.01ZM1232.89 305.889H1228.37V318H1226.26V305.889H1221.79V304.086H1232.89V305.889ZM1241.52 318.254C1239.47 318.254 1237.84 317.628 1236.65 316.375C1235.46 315.122 1234.87 313.383 1234.87 311.157C1234.87 308.914 1235.42 307.133 1236.52 305.812C1237.63 304.492 1239.11 303.832 1240.98 303.832C1242.72 303.832 1244.1 304.408 1245.12 305.559C1246.13 306.701 1246.64 308.212 1246.64 310.091V311.424H1237.05C1237.1 313.057 1237.51 314.297 1238.29 315.144C1239.07 315.99 1240.18 316.413 1241.6 316.413C1243.1 316.413 1244.58 316.1 1246.04 315.474V317.353C1245.3 317.674 1244.59 317.903 1243.92 318.038C1243.26 318.182 1242.46 318.254 1241.52 318.254ZM1240.95 305.597C1239.83 305.597 1238.94 305.961 1238.27 306.688C1237.61 307.416 1237.22 308.424 1237.1 309.71H1244.38C1244.38 308.381 1244.08 307.366 1243.49 306.663C1242.9 305.952 1242.05 305.597 1240.95 305.597ZM1259.63 305.889H1255.11V318H1253V305.889H1248.53V304.086H1259.63V305.889ZM1264.49 304.086V309.913H1272.28V304.086H1274.39V318H1272.28V311.729H1264.49V318H1262.38V304.086H1264.49ZM1280.97 309.837H1284.76C1286.53 309.837 1287.84 310.167 1288.69 310.827C1289.54 311.479 1289.97 312.456 1289.97 313.76C1289.97 315.156 1289.51 316.214 1288.61 316.934C1287.71 317.645 1286.39 318 1284.64 318H1278.86V304.086H1280.97V309.837ZM1294.41 318H1292.3V304.086H1294.41V318ZM1280.97 311.652V316.235H1284.53C1286.77 316.235 1287.89 315.452 1287.89 313.887C1287.89 313.108 1287.63 312.541 1287.11 312.186C1286.6 311.83 1285.71 311.652 1284.47 311.652H1280.97ZM1304.77 318.254C1302.71 318.254 1301.09 317.628 1299.9 316.375C1298.71 315.122 1298.12 313.383 1298.12 311.157C1298.12 308.914 1298.67 307.133 1299.77 305.812C1300.88 304.492 1302.36 303.832 1304.22 303.832C1305.97 303.832 1307.35 304.408 1308.36 305.559C1309.38 306.701 1309.89 308.212 1309.89 310.091V311.424H1300.3C1300.34 313.057 1300.75 314.297 1301.53 315.144C1302.32 315.99 1303.42 316.413 1304.85 316.413C1306.34 316.413 1307.83 316.1 1309.29 315.474V317.353C1308.55 317.674 1307.84 317.903 1307.17 318.038C1306.51 318.182 1305.71 318.254 1304.77 318.254ZM1304.2 305.597C1303.08 305.597 1302.19 305.961 1301.52 306.688C1300.86 307.416 1300.47 308.424 1300.35 309.71H1307.63C1307.63 308.381 1307.33 307.366 1306.74 306.663C1306.15 305.952 1305.3 305.597 1304.2 305.597ZM1136.25 333.086V338.913H1144.05V333.086H1146.16V347H1144.05V340.729H1136.25V347H1134.15V333.086H1136.25ZM1159.18 347L1158.76 345.02H1158.66C1157.97 345.891 1157.27 346.484 1156.58 346.797C1155.89 347.102 1155.03 347.254 1154 347.254C1152.62 347.254 1151.54 346.898 1150.75 346.188C1149.97 345.477 1149.58 344.465 1149.58 343.153C1149.58 340.343 1151.83 338.871 1156.32 338.735L1158.69 338.659V337.796C1158.69 336.704 1158.45 335.9 1157.97 335.384C1157.51 334.859 1156.76 334.597 1155.73 334.597C1154.57 334.597 1153.26 334.952 1151.79 335.663L1151.14 334.051C1151.83 333.678 1152.58 333.386 1153.39 333.175C1154.21 332.963 1155.03 332.857 1155.85 332.857C1157.51 332.857 1158.74 333.226 1159.54 333.962C1160.34 334.698 1160.74 335.879 1160.74 337.504V347H1159.18ZM1154.42 345.515C1155.73 345.515 1156.76 345.155 1157.5 344.436C1158.26 343.716 1158.63 342.709 1158.63 341.414V340.157L1156.53 340.246C1154.85 340.305 1153.64 340.568 1152.9 341.033C1152.16 341.49 1151.79 342.205 1151.79 343.179C1151.79 343.94 1152.02 344.52 1152.48 344.918C1152.94 345.316 1153.59 345.515 1154.42 345.515ZM1167.2 347H1165.1V333.086H1176.78V347H1174.64V334.914H1167.2V347ZM1187.72 347.254C1186.81 347.254 1185.98 347.089 1185.23 346.759C1184.49 346.42 1183.86 345.904 1183.35 345.21H1183.2C1183.3 346.022 1183.35 346.793 1183.35 347.521V353.246H1181.25V333.086H1182.96L1183.25 334.99H1183.35C1183.89 334.229 1184.52 333.678 1185.24 333.34C1185.96 333.001 1186.79 332.832 1187.72 332.832C1189.56 332.832 1190.99 333.463 1191.99 334.724C1192.99 335.985 1193.5 337.754 1193.5 340.03C1193.5 342.315 1192.98 344.093 1191.96 345.362C1190.94 346.623 1189.53 347.254 1187.72 347.254ZM1187.42 334.622C1185.99 334.622 1184.96 335.016 1184.33 335.803C1183.7 336.59 1183.37 337.842 1183.35 339.561V340.03C1183.35 341.985 1183.68 343.386 1184.33 344.232C1184.98 345.07 1186.03 345.489 1187.47 345.489C1188.67 345.489 1189.61 345.003 1190.28 344.029C1190.97 343.056 1191.31 341.715 1191.31 340.005C1191.31 338.27 1190.97 336.941 1190.28 336.019C1189.61 335.088 1188.65 334.622 1187.42 334.622ZM1205.75 347L1205.33 345.02H1205.23C1204.53 345.891 1203.84 346.484 1203.14 346.797C1202.46 347.102 1201.6 347.254 1200.57 347.254C1199.19 347.254 1198.1 346.898 1197.32 346.188C1196.54 345.477 1196.15 344.465 1196.15 343.153C1196.15 340.343 1198.4 338.871 1202.89 338.735L1205.25 338.659V337.796C1205.25 336.704 1205.01 335.9 1204.54 335.384C1204.08 334.859 1203.33 334.597 1202.29 334.597C1201.13 334.597 1199.82 334.952 1198.36 335.663L1197.71 334.051C1198.4 333.678 1199.15 333.386 1199.96 333.175C1200.78 332.963 1201.6 332.857 1202.42 332.857C1204.08 332.857 1205.31 333.226 1206.1 333.962C1206.91 334.698 1207.31 335.879 1207.31 337.504V347H1205.75ZM1200.99 345.515C1202.3 345.515 1203.33 345.155 1204.07 344.436C1204.82 343.716 1205.2 342.709 1205.2 341.414V340.157L1203.09 340.246C1201.42 340.305 1200.21 340.568 1199.46 341.033C1198.73 341.49 1198.36 342.205 1198.36 343.179C1198.36 343.94 1198.59 344.52 1199.04 344.918C1199.51 345.316 1200.16 345.515 1200.99 345.515ZM1222.95 336.577C1222.95 337.483 1222.69 338.173 1222.16 338.646C1221.65 339.112 1220.92 339.425 1219.98 339.586V339.7C1221.16 339.861 1222.03 340.208 1222.57 340.741C1223.12 341.274 1223.39 342.011 1223.39 342.95C1223.39 344.245 1222.92 345.244 1221.96 345.946C1221.01 346.649 1219.62 347 1217.79 347H1211.66V333.086H1217.77C1221.22 333.086 1222.95 334.25 1222.95 336.577ZM1221.29 342.811C1221.29 342.057 1221 341.511 1220.42 341.173C1219.86 340.826 1218.91 340.652 1217.59 340.652H1213.77V345.235H1217.64C1220.07 345.235 1221.29 344.427 1221.29 342.811ZM1220.89 336.78C1220.89 336.103 1220.63 335.625 1220.11 335.346C1219.59 335.058 1218.8 334.914 1217.74 334.914H1213.77V338.837H1217.34C1218.64 338.837 1219.56 338.676 1220.09 338.354C1220.63 338.033 1220.89 337.508 1220.89 336.78ZM1236.84 347H1234.71V334.889H1230.53C1230.3 337.902 1229.98 340.293 1229.58 342.062C1229.17 343.83 1228.64 345.125 1227.99 345.946C1227.35 346.767 1226.53 347.178 1225.53 347.178C1225.07 347.178 1224.71 347.127 1224.43 347.025V345.464C1224.62 345.515 1224.83 345.54 1225.07 345.54C1226.04 345.54 1226.82 344.512 1227.39 342.455C1227.97 340.398 1228.4 337.275 1228.7 333.086H1236.84V347ZM1247.2 347.254C1245.14 347.254 1243.52 346.628 1242.32 345.375C1241.14 344.122 1240.54 342.383 1240.54 340.157C1240.54 337.914 1241.1 336.133 1242.2 334.812C1243.3 333.492 1244.79 332.832 1246.65 332.832C1248.39 332.832 1249.77 333.408 1250.79 334.559C1251.81 335.701 1252.31 337.212 1252.31 339.091V340.424H1242.73C1242.77 342.057 1243.18 343.297 1243.96 344.144C1244.75 344.99 1245.85 345.413 1247.27 345.413C1248.77 345.413 1250.25 345.1 1251.72 344.474V346.353C1250.97 346.674 1250.27 346.903 1249.6 347.038C1248.94 347.182 1248.14 347.254 1247.2 347.254ZM1246.63 334.597C1245.51 334.597 1244.62 334.961 1243.95 335.688C1243.29 336.416 1242.9 337.424 1242.78 338.71H1250.05C1250.05 337.381 1249.76 336.366 1249.17 335.663C1248.57 334.952 1247.73 334.597 1246.63 334.597ZM1258.03 333.086V338.913H1265.82V333.086H1267.93V347H1265.82V340.729H1258.03V347H1255.92V333.086H1258.03ZM1274.38 333.086V341.909L1274.29 344.22L1274.25 344.943L1281.78 333.086H1284.41V347H1282.44V338.494L1282.48 336.818L1282.54 335.168L1275.03 347H1272.4V333.086H1274.38ZM1289.57 347H1287.11L1291.11 341.122C1290.04 340.885 1289.21 340.428 1288.63 339.751C1288.07 339.065 1287.78 338.206 1287.78 337.174C1287.78 335.904 1288.21 334.906 1289.07 334.178C1289.92 333.45 1291.11 333.086 1292.65 333.086H1298.84V347H1296.73V341.439H1293.22L1289.57 347ZM1289.84 337.199C1289.84 338.807 1291.01 339.611 1293.34 339.611H1296.73V334.914H1292.91C1290.86 334.914 1289.84 335.676 1289.84 337.199Z" fill="white"/>
<mask id="path-13-inside-1" fill="white">
<path d="M1216.5 22C1154.7 22 1094.46 41.375 1044.24 77.3992C994.032 113.423 956.377 164.284 936.577 222.825C916.777 281.366 915.83 344.641 933.867 403.749C951.905 462.857 988.02 514.822 1037.13 552.334C1086.24 589.846 1145.88 611.017 1207.65 612.867C1269.42 614.718 1330.22 597.156 1381.49 562.652C1432.76 528.148 1471.92 478.438 1493.46 420.516C1515.01 362.595 1517.85 299.376 1501.59 239.754L1376.15 273.962C1385.26 307.35 1383.66 342.753 1371.6 375.189C1359.53 407.625 1337.6 435.463 1308.89 454.785C1280.18 474.107 1246.14 483.942 1211.54 482.906C1176.95 481.869 1143.56 470.014 1116.05 449.007C1088.55 428 1068.33 398.9 1058.23 365.799C1048.12 332.699 1048.66 297.265 1059.74 264.482C1070.83 231.699 1091.92 203.217 1120.04 183.044C1148.16 162.87 1181.89 152.02 1216.5 152.02V22Z"/>
</mask>
<path d="M1216.5 22C1154.7 22 1094.46 41.375 1044.24 77.3992C994.032 113.423 956.377 164.284 936.577 222.825C916.777 281.366 915.83 344.641 933.867 403.749C951.905 462.857 988.02 514.822 1037.13 552.334C1086.24 589.846 1145.88 611.017 1207.65 612.867C1269.42 614.718 1330.22 597.156 1381.49 562.652C1432.76 528.148 1471.92 478.438 1493.46 420.516C1515.01 362.595 1517.85 299.376 1501.59 239.754L1376.15 273.962C1385.26 307.35 1383.66 342.753 1371.6 375.189C1359.53 407.625 1337.6 435.463 1308.89 454.785C1280.18 474.107 1246.14 483.942 1211.54 482.906C1176.95 481.869 1143.56 470.014 1116.05 449.007C1088.55 428 1068.33 398.9 1058.23 365.799C1048.12 332.699 1048.66 297.265 1059.74 264.482C1070.83 231.699 1091.92 203.217 1120.04 183.044C1148.16 162.87 1181.89 152.02 1216.5 152.02V22Z" stroke="#0FDF49" stroke-width="240" mask="url(#path-13-inside-1)"/>
<mask id="path-14-inside-2" fill="white">
<path d="M1260.95 25.3624C1246.21 23.1194 1231.32 21.9954 1216.41 22L1216.45 152.02C1224.8 152.017 1233.14 152.647 1241.39 153.903L1260.95 25.3624Z"/>
</mask>
<path d="M1260.95 25.3624C1246.21 23.1194 1231.32 21.9954 1216.41 22L1216.45 152.02C1224.8 152.017 1233.14 152.647 1241.39 153.903L1260.95 25.3624Z" stroke="#0395FF" stroke-width="240" mask="url(#path-14-inside-2)"/>
<mask id="path-15-inside-3" fill="white">
<path d="M1502.39 242.746C1487.75 186.767 1457 136.316 1413.95 97.6533C1370.91 58.9903 1317.45 33.8161 1260.23 25.2535L1240.99 153.842C1273.03 158.637 1302.97 172.735 1327.07 194.386C1351.18 216.037 1368.4 244.289 1376.6 275.638L1502.39 242.746Z"/>
</mask>
<path d="M1502.39 242.746C1487.75 186.767 1457 136.316 1413.95 97.6533C1370.91 58.9903 1317.45 33.8161 1260.23 25.2535L1240.99 153.842C1273.03 158.637 1302.97 172.735 1327.07 194.386C1351.18 216.037 1368.4 244.289 1376.6 275.638L1502.39 242.746Z" stroke="#FFBB00" stroke-width="240" mask="url(#path-15-inside-3)"/>
<path d="M1245.54 716.604C1242.71 716.604 1240.48 717.547 1238.84 719.434C1237.21 721.309 1236.4 723.881 1236.4 727.15C1236.4 730.514 1237.18 733.115 1238.75 734.955C1240.33 736.783 1242.58 737.697 1245.5 737.697C1247.29 737.697 1249.34 737.375 1251.64 736.73V739.35C1249.86 740.018 1247.66 740.352 1245.04 740.352C1241.26 740.352 1238.34 739.203 1236.27 736.906C1234.22 734.609 1233.2 731.346 1233.2 727.115C1233.2 724.467 1233.69 722.146 1234.67 720.154C1235.67 718.162 1237.1 716.627 1238.96 715.549C1240.84 714.471 1243.04 713.932 1245.57 713.932C1248.27 713.932 1250.62 714.424 1252.64 715.408L1251.37 717.975C1249.43 717.061 1247.48 716.604 1245.54 716.604ZM1269.79 723.23H1263.54V740H1260.62V723.23H1254.43V720.734H1269.79V723.23ZM1282.57 740.352C1281.32 740.352 1280.17 740.123 1279.13 739.666C1278.1 739.197 1277.23 738.482 1276.53 737.521H1276.32C1276.46 738.646 1276.53 739.713 1276.53 740.721V748.648H1273.61V720.734H1275.98L1276.39 723.371H1276.53C1277.28 722.316 1278.15 721.555 1279.15 721.086C1280.14 720.617 1281.29 720.383 1282.57 720.383C1285.13 720.383 1287.1 721.256 1288.48 723.002C1289.88 724.748 1290.57 727.197 1290.57 730.35C1290.57 733.514 1289.86 735.975 1288.45 737.732C1287.04 739.479 1285.08 740.352 1282.57 740.352ZM1282.15 722.861C1280.18 722.861 1278.76 723.406 1277.88 724.496C1277 725.586 1276.55 727.32 1276.53 729.699V730.35C1276.53 733.057 1276.98 734.996 1277.88 736.168C1278.78 737.328 1280.23 737.908 1282.22 737.908C1283.89 737.908 1285.19 737.234 1286.12 735.887C1287.07 734.539 1287.55 732.682 1287.55 730.314C1287.55 727.912 1287.07 726.072 1286.12 724.795C1285.19 723.506 1283.86 722.861 1282.15 722.861ZM1312.32 730.35C1312.32 733.49 1311.53 735.945 1309.94 737.715C1308.36 739.473 1306.18 740.352 1303.39 740.352C1301.66 740.352 1300.13 739.947 1298.8 739.139C1297.46 738.33 1296.43 737.17 1295.71 735.658C1294.98 734.146 1294.62 732.377 1294.62 730.35C1294.62 727.209 1295.4 724.766 1296.97 723.02C1298.54 721.262 1300.72 720.383 1303.51 720.383C1306.21 720.383 1308.34 721.279 1309.93 723.072C1311.52 724.865 1312.32 727.291 1312.32 730.35ZM1297.64 730.35C1297.64 732.811 1298.13 734.686 1299.12 735.975C1300.1 737.264 1301.55 737.908 1303.46 737.908C1305.37 737.908 1306.81 737.27 1307.8 735.992C1308.79 734.703 1309.29 732.822 1309.29 730.35C1309.29 727.9 1308.79 726.043 1307.8 724.777C1306.81 723.5 1305.36 722.861 1303.42 722.861C1301.51 722.861 1300.07 723.488 1299.1 724.742C1298.12 725.996 1297.64 727.865 1297.64 730.35ZM1320.19 720.734V732.951L1320.07 736.15L1320.02 737.152L1330.44 720.734H1334.08V740H1331.35V728.223L1331.41 725.902L1331.49 723.617L1321.09 740H1317.45V720.734H1320.19ZM1353.26 723.23H1347V740H1344.08V723.23H1337.89V720.734H1353.26V723.23ZM1365.21 740.352C1362.36 740.352 1360.11 739.484 1358.46 737.75C1356.82 736.016 1356 733.607 1356 730.525C1356 727.42 1356.76 724.953 1358.28 723.125C1359.82 721.297 1361.88 720.383 1364.45 720.383C1366.87 720.383 1368.78 721.18 1370.18 722.773C1371.59 724.355 1372.29 726.447 1372.29 729.049V730.895H1359.02C1359.08 733.156 1359.65 734.873 1360.73 736.045C1361.82 737.217 1363.35 737.803 1365.31 737.803C1367.39 737.803 1369.44 737.369 1371.47 736.502V739.104C1370.44 739.549 1369.46 739.865 1368.53 740.053C1367.62 740.252 1366.51 740.352 1365.21 740.352ZM1364.42 722.826C1362.87 722.826 1361.63 723.33 1360.71 724.338C1359.79 725.346 1359.26 726.74 1359.09 728.521H1369.16C1369.16 726.682 1368.75 725.275 1367.93 724.303C1367.11 723.318 1365.94 722.826 1364.42 722.826ZM1391.65 740H1388.69V723.23H1382.91C1382.59 727.402 1382.15 730.713 1381.59 733.162C1381.03 735.611 1380.3 737.404 1379.39 738.541C1378.5 739.678 1377.37 740.246 1375.98 740.246C1375.35 740.246 1374.85 740.176 1374.47 740.035V737.873C1374.73 737.943 1375.02 737.979 1375.35 737.979C1376.7 737.979 1377.77 736.555 1378.57 733.707C1379.37 730.859 1379.97 726.535 1380.38 720.734H1391.65V740ZM1400.77 728.697H1406.71C1411.63 728.697 1414.09 730.508 1414.09 734.129C1414.09 736.027 1413.45 737.48 1412.16 738.488C1410.88 739.496 1409.01 740 1406.54 740H1397.85V720.734H1400.77V728.697ZM1400.77 731.211V737.557H1406.39C1407.94 737.557 1409.12 737.287 1409.95 736.748C1410.77 736.209 1411.18 735.395 1411.18 734.305C1411.18 733.238 1410.79 732.459 1410.03 731.967C1409.28 731.463 1408.04 731.211 1406.31 731.211H1400.77ZM1426.86 740.352C1424.07 740.352 1421.9 739.496 1420.37 737.785C1418.85 736.062 1418.08 733.631 1418.08 730.49C1418.08 727.268 1418.86 724.777 1420.4 723.02C1421.96 721.262 1424.18 720.383 1427.05 720.383C1427.97 720.383 1428.9 720.482 1429.83 720.682C1430.75 720.881 1431.48 721.115 1432.01 721.385L1431.11 723.863C1430.46 723.605 1429.76 723.395 1429 723.23C1428.24 723.055 1427.56 722.967 1426.98 722.967C1423.06 722.967 1421.11 725.463 1421.11 730.455C1421.11 732.822 1421.58 734.639 1422.53 735.904C1423.49 737.17 1424.91 737.803 1426.79 737.803C1428.39 737.803 1430.04 737.457 1431.72 736.766V739.35C1430.44 740.018 1428.81 740.352 1426.86 740.352ZM1449.3 723.23H1443.04V740H1440.13V723.23H1433.94V720.734H1449.3V723.23ZM1468.74 725.568C1468.74 726.822 1468.38 727.777 1467.65 728.434C1466.94 729.078 1465.93 729.512 1464.63 729.734V729.893C1466.27 730.115 1467.47 730.596 1468.22 731.334C1468.98 732.072 1469.36 733.092 1469.36 734.393C1469.36 736.186 1468.7 737.568 1467.37 738.541C1466.06 739.514 1464.14 740 1461.61 740H1453.12V720.734H1461.57C1466.35 720.734 1468.74 722.346 1468.74 725.568ZM1466.44 734.199C1466.44 733.156 1466.04 732.4 1465.25 731.932C1464.46 731.451 1463.15 731.211 1461.33 731.211H1456.04V737.557H1461.4C1464.76 737.557 1466.44 736.438 1466.44 734.199ZM1465.9 725.85C1465.9 724.912 1465.53 724.25 1464.81 723.863C1464.09 723.465 1463 723.266 1461.54 723.266H1456.04V728.697H1460.97C1462.78 728.697 1464.05 728.475 1464.79 728.029C1465.53 727.584 1465.9 726.857 1465.9 725.85ZM1490.24 730.35C1490.24 733.49 1489.45 735.945 1487.87 737.715C1486.29 739.473 1484.1 740.352 1481.31 740.352C1479.59 740.352 1478.06 739.947 1476.72 739.139C1475.39 738.33 1474.36 737.17 1473.63 735.658C1472.9 734.146 1472.54 732.377 1472.54 730.35C1472.54 727.209 1473.33 724.766 1474.9 723.02C1476.47 721.262 1478.65 720.383 1481.44 720.383C1484.13 720.383 1486.27 721.279 1487.85 723.072C1489.45 724.865 1490.24 727.291 1490.24 730.35ZM1475.56 730.35C1475.56 732.811 1476.06 734.686 1477.04 735.975C1478.03 737.264 1479.47 737.908 1481.38 737.908C1483.29 737.908 1484.74 737.27 1485.72 735.992C1486.72 734.703 1487.22 732.822 1487.22 730.35C1487.22 727.9 1486.72 726.043 1485.72 724.777C1484.74 723.5 1483.28 722.861 1481.35 722.861C1479.44 722.861 1478 723.488 1477.02 724.742C1476.05 725.996 1475.56 727.865 1475.56 730.35Z" fill="white"/>
<rect x="941" y="683" width="250" height="85" fill="#0FDF49"/>
<path d="M988.383 745L1001.25 716.875H984.352V710.781H1008.94V715.328L995.977 745H988.383ZM1036.22 725.359C1036.22 732.109 1034.8 737.148 1031.95 740.477C1029.11 743.805 1024.8 745.469 1019.04 745.469C1017.01 745.469 1015.47 745.359 1014.42 745.141V739.328C1015.73 739.656 1017.11 739.82 1018.55 739.82C1020.97 739.82 1022.96 739.469 1024.52 738.766C1026.09 738.047 1027.28 736.93 1028.11 735.414C1028.94 733.883 1029.41 731.781 1029.54 729.109H1029.26C1028.35 730.578 1027.3 731.609 1026.12 732.203C1024.93 732.797 1023.45 733.094 1021.66 733.094C1018.68 733.094 1016.33 732.141 1014.61 730.234C1012.89 728.312 1012.03 725.648 1012.03 722.242C1012.03 718.57 1013.07 715.672 1015.15 713.547C1017.24 711.406 1020.09 710.336 1023.68 710.336C1026.21 710.336 1028.42 710.93 1030.31 712.117C1032.22 713.305 1033.68 715.031 1034.7 717.297C1035.71 719.547 1036.22 722.234 1036.22 725.359ZM1023.82 716.148C1022.32 716.148 1021.15 716.664 1020.3 717.695C1019.46 718.727 1019.04 720.211 1019.04 722.148C1019.04 723.805 1019.42 725.117 1020.19 726.086C1020.95 727.055 1022.12 727.539 1023.68 727.539C1025.15 727.539 1026.41 727.062 1027.45 726.109C1028.5 725.141 1029.02 724.031 1029.02 722.781C1029.02 720.922 1028.53 719.352 1027.55 718.07C1026.58 716.789 1025.34 716.148 1023.82 716.148ZM1048.66 739.961C1047.85 743.117 1046.48 746.859 1044.54 751.188H1039.38C1040.4 747.031 1041.19 743.109 1041.75 739.422H1048.31L1048.66 739.961ZM1076.37 718.398C1076.37 720.539 1075.72 722.359 1074.42 723.859C1073.12 725.359 1071.3 726.391 1068.96 726.953V727.094C1071.73 727.438 1073.82 728.281 1075.24 729.625C1076.66 730.953 1077.38 732.75 1077.38 735.016C1077.38 738.312 1076.18 740.883 1073.79 742.727C1071.4 744.555 1067.98 745.469 1063.55 745.469C1059.83 745.469 1056.53 744.852 1053.66 743.617V737.453C1054.98 738.125 1056.45 738.672 1058.04 739.094C1059.63 739.516 1061.21 739.727 1062.77 739.727C1065.16 739.727 1066.93 739.32 1068.07 738.508C1069.21 737.695 1069.78 736.391 1069.78 734.594C1069.78 732.984 1069.12 731.844 1067.81 731.172C1066.5 730.5 1064.41 730.164 1061.53 730.164H1058.93V724.609H1061.58C1064.23 724.609 1066.17 724.266 1067.39 723.578C1068.62 722.875 1069.24 721.68 1069.24 719.992C1069.24 717.398 1067.62 716.102 1064.37 716.102C1063.24 716.102 1062.09 716.289 1060.92 716.664C1059.77 717.039 1058.48 717.688 1057.05 718.609L1053.7 713.617C1056.83 711.367 1060.55 710.242 1064.88 710.242C1068.43 710.242 1071.23 710.961 1073.27 712.398C1075.34 713.836 1076.37 715.836 1076.37 718.398ZM1104.98 725.359C1104.98 732.109 1103.56 737.148 1100.72 740.477C1097.88 743.805 1093.57 745.469 1087.8 745.469C1085.77 745.469 1084.23 745.359 1083.19 745.141V739.328C1084.5 739.656 1085.88 739.82 1087.31 739.82C1089.73 739.82 1091.73 739.469 1093.29 738.766C1094.85 738.047 1096.05 736.93 1096.88 735.414C1097.7 733.883 1098.18 731.781 1098.3 729.109H1098.02C1097.12 730.578 1096.07 731.609 1094.88 732.203C1093.7 732.797 1092.21 733.094 1090.43 733.094C1087.45 733.094 1085.09 732.141 1083.38 730.234C1081.66 728.312 1080.8 725.648 1080.8 722.242C1080.8 718.57 1081.84 715.672 1083.91 713.547C1086.01 711.406 1088.85 710.336 1092.45 710.336C1094.98 710.336 1097.19 710.93 1099.08 712.117C1100.98 713.305 1102.45 715.031 1103.46 717.297C1104.48 719.547 1104.98 722.234 1104.98 725.359ZM1092.59 716.148C1091.09 716.148 1089.91 716.664 1089.07 717.695C1088.23 718.727 1087.8 720.211 1087.8 722.148C1087.8 723.805 1088.19 725.117 1088.95 726.086C1089.72 727.055 1090.88 727.539 1092.45 727.539C1093.91 727.539 1095.17 727.062 1096.22 726.109C1097.27 725.141 1097.79 724.031 1097.79 722.781C1097.79 720.922 1097.3 719.352 1096.31 718.07C1095.34 716.789 1094.1 716.148 1092.59 716.148ZM1114.05 721C1114.05 722.984 1114.23 724.469 1114.57 725.453C1114.93 726.422 1115.5 726.906 1116.28 726.906C1117.78 726.906 1118.53 724.938 1118.53 721C1118.53 717.094 1117.78 715.141 1116.28 715.141C1115.5 715.141 1114.93 715.625 1114.57 716.594C1114.23 717.547 1114.05 719.016 1114.05 721ZM1124.44 720.953C1124.44 724.547 1123.74 727.25 1122.35 729.062C1120.96 730.859 1118.92 731.758 1116.23 731.758C1113.66 731.758 1111.66 730.836 1110.26 728.992C1108.85 727.133 1108.15 724.453 1108.15 720.953C1108.15 713.812 1110.84 710.242 1116.23 710.242C1118.88 710.242 1120.9 711.172 1122.3 713.031C1123.73 714.875 1124.44 717.516 1124.44 720.953ZM1140.56 710.734L1121.55 745H1115.93L1134.94 710.734H1140.56ZM1138.05 734.688C1138.05 736.672 1138.23 738.156 1138.57 739.141C1138.93 740.109 1139.5 740.594 1140.28 740.594C1141.78 740.594 1142.53 738.625 1142.53 734.688C1142.53 730.781 1141.78 728.828 1140.28 728.828C1139.5 728.828 1138.93 729.312 1138.57 730.281C1138.23 731.234 1138.05 732.703 1138.05 734.688ZM1148.44 734.641C1148.44 738.219 1147.74 740.914 1146.35 742.727C1144.96 744.523 1142.92 745.422 1140.23 745.422C1137.66 745.422 1135.66 744.5 1134.26 742.656C1132.85 740.797 1132.15 738.125 1132.15 734.641C1132.15 727.5 1134.84 723.93 1140.23 723.93C1142.88 723.93 1144.9 724.859 1146.3 726.719C1147.73 728.562 1148.44 731.203 1148.44 734.641Z" fill="white"/>
<path d="M1239.21 886.604C1237.19 886.604 1235.24 887.049 1233.34 887.939L1232.07 885.408C1234.09 884.424 1236.48 883.932 1239.24 883.932C1241.79 883.932 1243.97 884.447 1245.8 885.479C1247.64 886.51 1249.04 887.98 1249.98 889.891C1250.93 891.801 1251.41 894.051 1251.41 896.641C1251.41 901.047 1250.34 904.434 1248.21 906.801C1246.08 909.168 1243.01 910.352 1239 910.352C1236.34 910.352 1234.09 910.018 1232.27 909.35V906.73C1233.24 906.977 1234.23 907.199 1235.24 907.398C1236.24 907.598 1237.33 907.697 1238.49 907.697C1241.66 907.697 1244.06 906.854 1245.68 905.166C1247.29 903.467 1248.15 901.023 1248.24 897.836H1235.61V895.164H1248.21C1247.95 892.48 1247.03 890.383 1245.43 888.871C1243.85 887.359 1241.78 886.604 1239.21 886.604ZM1268 890.734H1271.2L1262.89 900.033L1271.89 910H1268.48L1259.69 900.244V910H1256.77V890.734H1259.69V900.104L1268 890.734ZM1292.1 900.35C1292.1 903.49 1291.31 905.945 1289.73 907.715C1288.15 909.473 1285.96 910.352 1283.17 910.352C1281.45 910.352 1279.92 909.947 1278.58 909.139C1277.25 908.33 1276.22 907.17 1275.49 905.658C1274.76 904.146 1274.4 902.377 1274.4 900.35C1274.4 897.209 1275.19 894.766 1276.76 893.02C1278.33 891.262 1280.51 890.383 1283.29 890.383C1285.99 890.383 1288.13 891.279 1289.71 893.072C1291.3 894.865 1292.1 897.291 1292.1 900.35ZM1277.42 900.35C1277.42 902.811 1277.92 904.686 1278.9 905.975C1279.88 907.264 1281.33 907.908 1283.24 907.908C1285.15 907.908 1286.6 907.27 1287.58 905.992C1288.58 904.703 1289.08 902.822 1289.08 900.35C1289.08 897.9 1288.58 896.043 1287.58 894.777C1286.6 893.5 1285.14 892.861 1283.21 892.861C1281.3 892.861 1279.86 893.488 1278.88 894.742C1277.91 895.996 1277.42 897.865 1277.42 900.35ZM1300.15 890.734V898.803H1310.95V890.734H1313.86V910H1310.95V901.316H1300.15V910H1297.23V890.734H1300.15ZM1336.68 900.35C1336.68 903.49 1335.89 905.945 1334.31 907.715C1332.72 909.473 1330.54 910.352 1327.75 910.352C1326.03 910.352 1324.5 909.947 1323.16 909.139C1321.83 908.33 1320.79 907.17 1320.07 905.658C1319.34 904.146 1318.98 902.377 1318.98 900.35C1318.98 897.209 1319.76 894.766 1321.33 893.02C1322.9 891.262 1325.08 890.383 1327.87 890.383C1330.57 890.383 1332.71 891.279 1334.29 893.072C1335.88 894.865 1336.68 897.291 1336.68 900.35ZM1322 900.35C1322 902.811 1322.49 904.686 1323.48 905.975C1324.46 907.264 1325.91 907.908 1327.82 907.908C1329.73 907.908 1331.18 907.27 1332.16 905.992C1333.16 904.703 1333.66 902.822 1333.66 900.35C1333.66 897.9 1333.16 896.043 1332.16 894.777C1331.18 893.5 1329.72 892.861 1327.79 892.861C1325.88 892.861 1324.43 893.488 1323.46 894.742C1322.49 895.996 1322 897.865 1322 900.35ZM1351.81 907.188L1352.36 905.553L1353.12 903.479L1358.34 890.77H1362.04V910H1359.46V894.092L1359.11 895.111L1358.09 897.801L1353.12 910H1350.67L1345.7 897.766C1345.08 896.195 1344.65 894.971 1344.41 894.092V910H1341.81V890.77H1345.38L1350.43 902.986C1350.93 904.275 1351.39 905.676 1351.81 907.188ZM1371.03 890.734V902.951L1370.9 906.15L1370.85 907.152L1381.28 890.734H1384.91V910H1382.19V898.223L1382.24 895.902L1382.33 893.617L1371.92 910H1368.29V890.734H1371.03ZM1402.33 890.734H1405.53L1397.22 900.033L1406.22 910H1402.81L1394.02 900.244V910H1391.1V890.734H1394.02V900.104L1402.33 890.734ZM1421.65 910L1421.07 907.258H1420.93C1419.97 908.465 1419.01 909.285 1418.05 909.719C1417.1 910.141 1415.91 910.352 1414.48 910.352C1412.57 910.352 1411.07 909.859 1409.98 908.875C1408.9 907.891 1408.36 906.49 1408.36 904.674C1408.36 900.783 1411.47 898.744 1417.7 898.557L1420.97 898.451V897.256C1420.97 895.744 1420.64 894.631 1419.98 893.916C1419.34 893.189 1418.3 892.826 1416.87 892.826C1415.27 892.826 1413.45 893.318 1411.42 894.303L1410.53 892.07C1411.47 891.555 1412.51 891.15 1413.64 890.857C1414.77 890.564 1415.91 890.418 1417.05 890.418C1419.34 890.418 1421.04 890.928 1422.14 891.947C1423.26 892.967 1423.81 894.602 1423.81 896.852V910H1421.65ZM1415.06 907.943C1416.88 907.943 1418.3 907.445 1419.33 906.449C1420.38 905.453 1420.9 904.059 1420.9 902.266V900.525L1417.98 900.648C1415.66 900.73 1413.98 901.094 1412.95 901.738C1411.93 902.371 1411.42 903.361 1411.42 904.709C1411.42 905.764 1411.74 906.566 1412.37 907.117C1413.02 907.668 1413.91 907.943 1415.06 907.943Z" fill="white"/>
<rect x="941" y="853" width="250" height="85" fill="#0395FF"/>
<path d="M1021.96 897.867C1021.96 903.852 1020.98 908.281 1019.01 911.156C1017.05 914.031 1014.04 915.469 1009.96 915.469C1006.01 915.469 1003.02 913.984 1001.01 911.016C999.008 908.047 998.008 903.664 998.008 897.867C998.008 891.82 998.984 887.367 1000.94 884.508C1002.89 881.633 1005.9 880.195 1009.96 880.195C1013.91 880.195 1016.9 881.695 1018.91 884.695C1020.95 887.695 1021.96 892.086 1021.96 897.867ZM1005.2 897.867C1005.2 902.07 1005.56 905.086 1006.28 906.914C1007.02 908.727 1008.24 909.633 1009.96 909.633C1011.65 909.633 1012.87 908.711 1013.62 906.867C1014.37 905.023 1014.74 902.023 1014.74 897.867C1014.74 893.664 1014.36 890.648 1013.59 888.82C1012.84 886.977 1011.63 886.055 1009.96 886.055C1008.26 886.055 1007.04 886.977 1006.3 888.82C1005.57 890.648 1005.2 893.664 1005.2 897.867ZM1034.45 909.961C1033.64 913.117 1032.27 916.859 1030.33 921.188H1025.17C1026.19 917.031 1026.98 913.109 1027.54 909.422H1034.1L1034.45 909.961ZM1051.35 880.289C1054.63 880.289 1057.27 881.039 1059.27 882.539C1061.29 884.023 1062.3 886.031 1062.3 888.562C1062.3 890.312 1061.81 891.875 1060.84 893.25C1059.88 894.609 1058.31 895.828 1056.16 896.906C1058.72 898.281 1060.55 899.719 1061.66 901.219C1062.79 902.703 1063.35 904.336 1063.35 906.117C1063.35 908.93 1062.25 911.195 1060.05 912.914C1057.84 914.617 1054.95 915.469 1051.35 915.469C1047.6 915.469 1044.66 914.672 1042.52 913.078C1040.38 911.484 1039.3 909.227 1039.3 906.305C1039.3 904.352 1039.82 902.617 1040.85 901.102C1041.9 899.586 1043.57 898.25 1045.87 897.094C1043.91 895.859 1042.51 894.539 1041.65 893.133C1040.79 891.727 1040.36 890.188 1040.36 888.516C1040.36 886.062 1041.38 884.078 1043.41 882.562C1045.44 881.047 1048.09 880.289 1051.35 880.289ZM1046.01 905.883C1046.01 907.227 1046.48 908.273 1047.41 909.023C1048.35 909.773 1049.63 910.148 1051.26 910.148C1053.05 910.148 1054.4 909.766 1055.29 909C1056.18 908.219 1056.62 907.195 1056.62 905.93C1056.62 904.883 1056.18 903.906 1055.29 903C1054.41 902.078 1052.98 901.102 1051 900.07C1047.67 901.602 1046.01 903.539 1046.01 905.883ZM1051.3 885.586C1050.07 885.586 1049.07 885.906 1048.3 886.547C1047.55 887.172 1047.18 888.016 1047.18 889.078C1047.18 890.016 1047.48 890.859 1048.07 891.609C1048.68 892.344 1049.77 893.102 1051.35 893.883C1052.88 893.164 1053.95 892.43 1054.56 891.68C1055.17 890.93 1055.48 890.062 1055.48 889.078C1055.48 888 1055.09 887.148 1054.3 886.523C1053.52 885.898 1052.52 885.586 1051.3 885.586ZM1078.77 880.289C1082.05 880.289 1084.7 881.039 1086.7 882.539C1088.71 884.023 1089.72 886.031 1089.72 888.562C1089.72 890.312 1089.23 891.875 1088.27 893.25C1087.3 894.609 1085.73 895.828 1083.58 896.906C1086.14 898.281 1087.98 899.719 1089.09 901.219C1090.21 902.703 1090.77 904.336 1090.77 906.117C1090.77 908.93 1089.67 911.195 1087.47 912.914C1085.27 914.617 1082.37 915.469 1078.77 915.469C1075.02 915.469 1072.08 914.672 1069.94 913.078C1067.8 911.484 1066.73 909.227 1066.73 906.305C1066.73 904.352 1067.24 902.617 1068.27 901.102C1069.32 899.586 1070.99 898.25 1073.29 897.094C1071.34 895.859 1069.93 894.539 1069.07 893.133C1068.21 891.727 1067.78 890.188 1067.78 888.516C1067.78 886.062 1068.8 884.078 1070.83 882.562C1072.86 881.047 1075.51 880.289 1078.77 880.289ZM1073.43 905.883C1073.43 907.227 1073.9 908.273 1074.84 909.023C1075.77 909.773 1077.05 910.148 1078.68 910.148C1080.48 910.148 1081.82 909.766 1082.71 909C1083.6 908.219 1084.05 907.195 1084.05 905.93C1084.05 904.883 1083.6 903.906 1082.71 903C1081.84 902.078 1080.41 901.102 1078.42 900.07C1075.09 901.602 1073.43 903.539 1073.43 905.883ZM1078.73 885.586C1077.49 885.586 1076.49 885.906 1075.73 886.547C1074.98 887.172 1074.6 888.016 1074.6 889.078C1074.6 890.016 1074.9 890.859 1075.49 891.609C1076.1 892.344 1077.2 893.102 1078.77 893.883C1080.3 893.164 1081.38 892.43 1081.98 891.68C1082.59 890.93 1082.9 890.062 1082.9 889.078C1082.9 888 1082.51 887.148 1081.73 886.523C1080.95 885.898 1079.95 885.586 1078.73 885.586ZM1099.84 891C1099.84 892.984 1100.02 894.469 1100.36 895.453C1100.72 896.422 1101.29 896.906 1102.07 896.906C1103.57 896.906 1104.32 894.938 1104.32 891C1104.32 887.094 1103.57 885.141 1102.07 885.141C1101.29 885.141 1100.72 885.625 1100.36 886.594C1100.02 887.547 1099.84 889.016 1099.84 891ZM1110.23 890.953C1110.23 894.547 1109.53 897.25 1108.14 899.062C1106.75 900.859 1104.71 901.758 1102.02 901.758C1099.45 901.758 1097.45 900.836 1096.05 898.992C1094.64 897.133 1093.94 894.453 1093.94 890.953C1093.94 883.812 1096.63 880.242 1102.02 880.242C1104.66 880.242 1106.69 881.172 1108.09 883.031C1109.52 884.875 1110.23 887.516 1110.23 890.953ZM1126.35 880.734L1107.34 915H1101.72L1120.73 880.734H1126.35ZM1123.84 904.688C1123.84 906.672 1124.02 908.156 1124.36 909.141C1124.72 910.109 1125.29 910.594 1126.07 910.594C1127.57 910.594 1128.32 908.625 1128.32 904.688C1128.32 900.781 1127.57 898.828 1126.07 898.828C1125.29 898.828 1124.72 899.312 1124.36 900.281C1124.02 901.234 1123.84 902.703 1123.84 904.688ZM1134.23 904.641C1134.23 908.219 1133.53 910.914 1132.14 912.727C1130.75 914.523 1128.71 915.422 1126.02 915.422C1123.45 915.422 1121.45 914.5 1120.05 912.656C1118.64 910.797 1117.94 908.125 1117.94 904.641C1117.94 897.5 1120.63 893.93 1126.02 893.93C1128.66 893.93 1130.69 894.859 1132.09 896.719C1133.52 898.562 1134.23 901.203 1134.23 904.641Z" fill="white"/>
<path d="M1253.71 825H1250.72V801.955H1237.52V825H1234.53V799.301H1253.71V825ZM1269.32 825.352C1268.07 825.352 1266.92 825.123 1265.88 824.666C1264.84 824.197 1263.98 823.482 1263.27 822.521H1263.06C1263.2 823.646 1263.27 824.713 1263.27 825.721V833.648H1260.36V805.734H1262.73L1263.13 808.371H1263.27C1264.02 807.316 1264.9 806.555 1265.89 806.086C1266.89 805.617 1268.03 805.383 1269.32 805.383C1271.88 805.383 1273.84 806.256 1275.23 808.002C1276.62 809.748 1277.32 812.197 1277.32 815.35C1277.32 818.514 1276.61 820.975 1275.19 822.732C1273.79 824.479 1271.83 825.352 1269.32 825.352ZM1268.9 807.861C1266.93 807.861 1265.51 808.406 1264.63 809.496C1263.75 810.586 1263.3 812.32 1263.27 814.699V815.35C1263.27 818.057 1263.72 819.996 1264.63 821.168C1265.53 822.328 1266.98 822.908 1268.97 822.908C1270.63 822.908 1271.93 822.234 1272.87 820.887C1273.82 819.539 1274.29 817.682 1274.29 815.314C1274.29 812.912 1273.82 811.072 1272.87 809.795C1271.93 808.506 1270.61 807.861 1268.9 807.861ZM1299.06 815.35C1299.06 818.49 1298.27 820.945 1296.69 822.715C1295.11 824.473 1292.92 825.352 1290.13 825.352C1288.41 825.352 1286.88 824.947 1285.54 824.139C1284.21 823.33 1283.18 822.17 1282.45 820.658C1281.72 819.146 1281.36 817.377 1281.36 815.35C1281.36 812.209 1282.15 809.766 1283.72 808.02C1285.29 806.262 1287.47 805.383 1290.26 805.383C1292.95 805.383 1295.09 806.279 1296.67 808.072C1298.27 809.865 1299.06 812.291 1299.06 815.35ZM1284.38 815.35C1284.38 817.811 1284.88 819.686 1285.86 820.975C1286.85 822.264 1288.29 822.908 1290.2 822.908C1292.11 822.908 1293.56 822.27 1294.54 820.992C1295.54 819.703 1296.04 817.822 1296.04 815.35C1296.04 812.9 1295.54 811.043 1294.54 809.777C1293.56 808.5 1292.1 807.861 1290.17 807.861C1288.26 807.861 1286.82 808.488 1285.84 809.742C1284.87 810.996 1284.38 812.865 1284.38 815.35ZM1306.76 805.734V812.766C1306.76 815.016 1308.04 816.141 1310.61 816.141C1311.68 816.141 1312.7 815.977 1313.67 815.648C1314.64 815.32 1315.74 814.764 1316.97 813.979V805.734H1319.89V825H1316.97V816.281C1315.74 817.125 1314.6 817.723 1313.55 818.074C1312.5 818.414 1311.32 818.584 1310 818.584C1308.07 818.584 1306.57 818.08 1305.48 817.072C1304.39 816.064 1303.84 814.699 1303.84 812.977V805.734H1306.76ZM1334.24 825.352C1331.39 825.352 1329.14 824.484 1327.49 822.75C1325.85 821.016 1325.03 818.607 1325.03 815.525C1325.03 812.42 1325.79 809.953 1327.31 808.125C1328.85 806.297 1330.9 805.383 1333.48 805.383C1335.89 805.383 1337.8 806.18 1339.21 807.773C1340.62 809.355 1341.32 811.447 1341.32 814.049V815.895H1328.05C1328.11 818.156 1328.68 819.873 1329.75 821.045C1330.84 822.217 1332.37 822.803 1334.34 822.803C1336.42 822.803 1338.47 822.369 1340.49 821.502V824.104C1339.46 824.549 1338.48 824.865 1337.56 825.053C1336.64 825.252 1335.54 825.352 1334.24 825.352ZM1333.45 807.826C1331.9 807.826 1330.66 808.33 1329.74 809.338C1328.82 810.346 1328.28 811.74 1328.12 813.521H1338.19C1338.19 811.682 1337.78 810.275 1336.96 809.303C1336.14 808.318 1334.97 807.826 1333.45 807.826ZM1354.45 825.352C1351.6 825.352 1349.35 824.484 1347.7 822.75C1346.06 821.016 1345.24 818.607 1345.24 815.525C1345.24 812.42 1346 809.953 1347.53 808.125C1349.06 806.297 1351.12 805.383 1353.7 805.383C1356.11 805.383 1358.02 806.18 1359.43 807.773C1360.83 809.355 1361.54 811.447 1361.54 814.049V815.895H1348.26C1348.32 818.156 1348.89 819.873 1349.97 821.045C1351.06 822.217 1352.59 822.803 1354.56 822.803C1356.63 822.803 1358.68 822.369 1360.71 821.502V824.104C1359.68 824.549 1358.7 824.865 1357.77 825.053C1356.86 825.252 1355.75 825.352 1354.45 825.352ZM1353.66 807.826C1352.11 807.826 1350.88 808.33 1349.95 809.338C1349.04 810.346 1348.5 811.74 1348.33 813.521H1358.41C1358.41 811.682 1358 810.275 1357.18 809.303C1356.36 808.318 1355.18 807.826 1353.66 807.826Z" fill="white"/>
<rect x="941" y="768" width="250" height="85" fill="#FFBB00"/>
<path d="M1002.89 830H995.648V810.172L995.719 806.914L995.836 803.352C994.633 804.555 993.797 805.344 993.328 805.719L989.391 808.883L985.898 804.523L996.938 795.734H1002.89V830ZM1036.22 810.359C1036.22 817.109 1034.8 822.148 1031.95 825.477C1029.11 828.805 1024.8 830.469 1019.04 830.469C1017.01 830.469 1015.47 830.359 1014.42 830.141V824.328C1015.73 824.656 1017.11 824.82 1018.55 824.82C1020.97 824.82 1022.96 824.469 1024.52 823.766C1026.09 823.047 1027.28 821.93 1028.11 820.414C1028.94 818.883 1029.41 816.781 1029.54 814.109H1029.26C1028.35 815.578 1027.3 816.609 1026.12 817.203C1024.93 817.797 1023.45 818.094 1021.66 818.094C1018.68 818.094 1016.33 817.141 1014.61 815.234C1012.89 813.312 1012.03 810.648 1012.03 807.242C1012.03 803.57 1013.07 800.672 1015.15 798.547C1017.24 796.406 1020.09 795.336 1023.68 795.336C1026.21 795.336 1028.42 795.93 1030.31 797.117C1032.22 798.305 1033.68 800.031 1034.7 802.297C1035.71 804.547 1036.22 807.234 1036.22 810.359ZM1023.82 801.148C1022.32 801.148 1021.15 801.664 1020.3 802.695C1019.46 803.727 1019.04 805.211 1019.04 807.148C1019.04 808.805 1019.42 810.117 1020.19 811.086C1020.95 812.055 1022.12 812.539 1023.68 812.539C1025.15 812.539 1026.41 812.062 1027.45 811.109C1028.5 810.141 1029.02 809.031 1029.02 807.781C1029.02 805.922 1028.53 804.352 1027.55 803.07C1026.58 801.789 1025.34 801.148 1023.82 801.148ZM1048.66 824.961C1047.85 828.117 1046.48 831.859 1044.54 836.188H1039.38C1040.4 832.031 1041.19 828.109 1041.75 824.422H1048.31L1048.66 824.961ZM1057.15 830L1070.02 801.875H1053.12V795.781H1077.7V800.328L1064.74 830H1057.15ZM1105.9 822.898H1101.77V830H1094.7V822.898H1080.07V817.859L1095.09 795.734H1101.77V817.273H1105.9V822.898ZM1094.7 817.273V811.461C1094.7 810.492 1094.73 809.086 1094.81 807.242C1094.89 805.398 1094.95 804.328 1095 804.031H1094.81C1094.23 805.312 1093.54 806.562 1092.73 807.781L1086.45 817.273H1094.7ZM1114.05 806C1114.05 807.984 1114.23 809.469 1114.57 810.453C1114.93 811.422 1115.5 811.906 1116.28 811.906C1117.78 811.906 1118.53 809.938 1118.53 806C1118.53 802.094 1117.78 800.141 1116.28 800.141C1115.5 800.141 1114.93 800.625 1114.57 801.594C1114.23 802.547 1114.05 804.016 1114.05 806ZM1124.44 805.953C1124.44 809.547 1123.74 812.25 1122.35 814.062C1120.96 815.859 1118.92 816.758 1116.23 816.758C1113.66 816.758 1111.66 815.836 1110.26 813.992C1108.85 812.133 1108.15 809.453 1108.15 805.953C1108.15 798.812 1110.84 795.242 1116.23 795.242C1118.88 795.242 1120.9 796.172 1122.3 798.031C1123.73 799.875 1124.44 802.516 1124.44 805.953ZM1140.56 795.734L1121.55 830H1115.93L1134.94 795.734H1140.56ZM1138.05 819.688C1138.05 821.672 1138.23 823.156 1138.57 824.141C1138.93 825.109 1139.5 825.594 1140.28 825.594C1141.78 825.594 1142.53 823.625 1142.53 819.688C1142.53 815.781 1141.78 813.828 1140.28 813.828C1139.5 813.828 1138.93 814.312 1138.57 815.281C1138.23 816.234 1138.05 817.703 1138.05 819.688ZM1148.44 819.641C1148.44 823.219 1147.74 825.914 1146.35 827.727C1144.96 829.523 1142.92 830.422 1140.23 830.422C1137.66 830.422 1135.66 829.5 1134.26 827.656C1132.85 825.797 1132.15 823.125 1132.15 819.641C1132.15 812.5 1134.84 808.93 1140.23 808.93C1142.88 808.93 1144.9 809.859 1146.3 811.719C1147.73 813.562 1148.44 816.203 1148.44 819.641Z" fill="white"/>
<path d="M795 319.999C493.375 319.999 301.625 320 0 320" stroke="#275D81" stroke-width="2"/>
<path d="M795 639.999C493.375 639.999 301.625 640 0 640" stroke="#275D81" stroke-width="2"/>
</svg>
