<svg width="1590" height="932" viewBox="0 0 1590 932" fill="none" xmlns="http://www.w3.org/2000/svg">
<path d="M448.545 86.9082C448.545 98.5033 445.033 108.363 438.008 116.488C430.983 124.613 421.123 130.199 408.428 133.246V134.008C423.408 135.87 434.749 140.44 442.451 147.719C450.153 154.913 454.004 164.646 454.004 176.918C454.004 194.776 447.529 208.699 434.58 218.686C421.631 228.588 403.138 233.539 379.102 233.539C358.958 233.539 341.1 230.196 325.527 223.51V190.121C332.721 193.76 340.635 196.723 349.268 199.008C357.9 201.293 366.449 202.436 374.912 202.436C387.861 202.436 397.425 200.235 403.604 195.834C409.782 191.433 412.871 184.366 412.871 174.633C412.871 165.915 409.316 159.737 402.207 156.098C395.098 152.458 383.757 150.639 368.184 150.639H354.092V120.551H368.438C382.826 120.551 393.32 118.689 399.922 114.965C406.608 111.156 409.951 104.682 409.951 95.541C409.951 81.4915 401.149 74.4668 383.545 74.4668C377.451 74.4668 371.23 75.4824 364.883 77.5137C358.62 79.5449 351.637 83.0573 343.936 88.0508L325.781 61.0098C342.708 48.8223 362.894 42.7285 386.338 42.7285C405.55 42.7285 420.7 46.6217 431.787 54.4082C442.959 62.1947 448.545 73.028 448.545 86.9082ZM571.562 231H532.334V123.598L532.715 105.951L533.35 86.6543C526.833 93.1712 522.305 97.4453 519.766 99.4766L498.438 116.615L479.521 93.002L539.316 45.3945H571.562V231ZM752.852 231H623.105V203.705L669.697 156.605C683.493 142.471 692.507 132.696 696.738 127.279C700.97 121.778 704.017 116.7 705.879 112.045C707.741 107.39 708.672 102.566 708.672 97.5723C708.672 90.1243 706.598 84.5807 702.451 80.9414C698.389 77.3021 692.93 75.4824 686.074 75.4824C678.88 75.4824 671.898 77.1328 665.127 80.4336C658.356 83.7344 651.289 88.4316 643.926 94.5254L622.598 69.2617C631.738 61.4753 639.313 55.974 645.322 52.7578C651.331 49.5417 657.891 47.0872 665 45.3945C672.109 43.6172 680.065 42.7285 688.867 42.7285C700.462 42.7285 710.703 44.8444 719.59 49.0762C728.477 53.3079 735.374 59.2324 740.283 66.8496C745.192 74.4668 747.646 83.1842 747.646 93.002C747.646 101.55 746.123 109.59 743.076 117.123C740.114 124.571 735.459 132.23 729.111 140.102C722.848 147.973 711.761 159.187 695.85 173.744L671.982 196.215V197.992H752.852V231ZM837.91 152.162C837.91 115.43 845.654 88.0931 861.143 70.1504C876.715 52.2077 899.99 43.2363 930.967 43.2363C941.546 43.2363 949.84 43.8711 955.85 45.1406V76.498C948.317 74.8053 940.869 73.959 933.506 73.959C920.049 73.959 909.046 75.9902 900.498 80.0527C892.035 84.1152 885.687 90.1243 881.455 98.0801C877.223 106.036 874.727 117.335 873.965 131.977H875.615C883.994 117.589 897.409 110.395 915.859 110.395C932.448 110.395 945.439 115.6 954.834 126.01C964.229 136.42 968.926 150.808 968.926 169.174C968.926 188.979 963.34 204.678 952.168 216.273C940.996 227.784 925.508 233.539 905.703 233.539C891.992 233.539 880.016 230.365 869.775 224.018C859.619 217.67 851.748 208.402 846.162 196.215C840.661 184.027 837.91 169.343 837.91 152.162ZM904.941 202.182C913.32 202.182 919.753 199.389 924.238 193.803C928.724 188.132 930.967 180.092 930.967 169.682C930.967 160.626 928.851 153.516 924.619 148.354C920.472 143.106 914.167 140.482 905.703 140.482C897.747 140.482 890.934 143.064 885.264 148.227C879.678 153.389 876.885 159.398 876.885 166.254C876.885 176.326 879.508 184.831 884.756 191.771C890.088 198.712 896.816 202.182 904.941 202.182ZM1006.12 231L1075.82 78.6562H984.287V45.6484H1117.46V70.2773L1047.26 231H1006.12ZM1258.76 86.9082C1258.76 98.5033 1255.25 108.363 1248.22 116.488C1241.2 124.613 1231.34 130.199 1218.64 133.246V134.008C1233.62 135.87 1244.96 140.44 1252.67 147.719C1260.37 154.913 1264.22 164.646 1264.22 176.918C1264.22 194.776 1257.74 208.699 1244.79 218.686C1231.85 228.588 1213.35 233.539 1189.32 233.539C1169.17 233.539 1151.32 230.196 1135.74 223.51V190.121C1142.94 193.76 1150.85 196.723 1159.48 199.008C1168.12 201.293 1176.66 202.436 1185.13 202.436C1198.08 202.436 1207.64 200.235 1213.82 195.834C1220 191.433 1223.09 184.366 1223.09 174.633C1223.09 165.915 1219.53 159.737 1212.42 156.098C1205.31 152.458 1193.97 150.639 1178.4 150.639H1164.31V120.551H1178.65C1193.04 120.551 1203.54 118.689 1210.14 114.965C1216.82 111.156 1220.17 104.682 1220.17 95.541C1220.17 81.4915 1211.36 74.4668 1193.76 74.4668C1187.67 74.4668 1181.45 75.4824 1175.1 77.5137C1168.83 79.5449 1161.85 83.0573 1154.15 88.0508L1136 61.0098C1152.92 48.8223 1173.11 42.7285 1196.55 42.7285C1215.76 42.7285 1230.91 46.6217 1242 54.4082C1253.17 62.1947 1258.76 73.028 1258.76 86.9082Z" fill="#01F859"/>
<path d="M795 904.587C795 773.813 795 1020.19 795 889.413" stroke="#275D81" stroke-width="2"/>
<path d="M2.9375 902.531C2.9375 884.656 10.2188 875.719 24.7812 875.719C27.0729 875.719 29.0104 875.896 30.5938 876.25V882.375C29.0104 881.917 27.1771 881.688 25.0938 881.688C20.1979 881.688 16.5208 883 14.0625 885.625C11.6042 888.25 10.2708 892.458 10.0625 898.25H10.4375C11.4167 896.562 12.7917 895.26 14.5625 894.344C16.3333 893.406 18.4167 892.938 20.8125 892.938C24.9583 892.938 28.1875 894.208 30.5 896.75C32.8125 899.292 33.9688 902.74 33.9688 907.094C33.9688 911.885 32.625 915.677 29.9375 918.469C27.2708 921.24 23.625 922.625 19 922.625C15.7292 922.625 12.8854 921.844 10.4688 920.281C8.05208 918.698 6.1875 916.406 4.875 913.406C3.58333 910.385 2.9375 906.76 2.9375 902.531ZM18.875 916.562C21.3958 916.562 23.3333 915.75 24.6875 914.125C26.0625 912.5 26.75 910.177 26.75 907.156C26.75 904.531 26.1042 902.469 24.8125 900.969C23.5417 899.469 21.625 898.719 19.0625 898.719C17.4792 898.719 16.0208 899.062 14.6875 899.75C13.3542 900.417 12.3021 901.344 11.5312 902.531C10.7604 903.698 10.375 904.896 10.375 906.125C10.375 909.062 11.1667 911.542 12.75 913.562C14.3542 915.562 16.3958 916.562 18.875 916.562ZM39.5 902.531C39.5 884.656 46.7812 875.719 61.3438 875.719C63.6354 875.719 65.5729 875.896 67.1562 876.25V882.375C65.5729 881.917 63.7396 881.688 61.6562 881.688C56.7604 881.688 53.0833 883 50.625 885.625C48.1667 888.25 46.8333 892.458 46.625 898.25H47C47.9792 896.562 49.3542 895.26 51.125 894.344C52.8958 893.406 54.9792 892.938 57.375 892.938C61.5208 892.938 64.75 894.208 67.0625 896.75C69.375 899.292 70.5312 902.74 70.5312 907.094C70.5312 911.885 69.1875 915.677 66.5 918.469C63.8333 921.24 60.1875 922.625 55.5625 922.625C52.2917 922.625 49.4479 921.844 47.0312 920.281C44.6146 918.698 42.75 916.406 41.4375 913.406C40.1458 910.385 39.5 906.76 39.5 902.531ZM55.4375 916.562C57.9583 916.562 59.8958 915.75 61.25 914.125C62.625 912.5 63.3125 910.177 63.3125 907.156C63.3125 904.531 62.6667 902.469 61.375 900.969C60.1042 899.469 58.1875 898.719 55.625 898.719C54.0417 898.719 52.5833 899.062 51.25 899.75C49.9167 900.417 48.8646 901.344 48.0938 902.531C47.3229 903.698 46.9375 904.896 46.9375 906.125C46.9375 909.062 47.7292 911.542 49.3125 913.562C50.9167 915.562 52.9583 916.562 55.4375 916.562ZM97.5 922H90.1562V892.5C90.1562 888.979 90.2396 886.188 90.4062 884.125C89.9271 884.625 89.3333 885.177 88.625 885.781C87.9375 886.385 85.6042 888.302 81.625 891.531L77.9375 886.875L91.375 876.312H97.5V922Z" fill="white"/>
<path d="M146.68 922H143.438V900.594H161.406V922H158.125V903.406H146.68V922ZM186.758 911.277C186.758 914.767 185.879 917.495 184.121 919.461C182.363 921.414 179.935 922.391 176.836 922.391C174.922 922.391 173.223 921.941 171.738 921.043C170.254 920.145 169.108 918.855 168.301 917.176C167.493 915.496 167.09 913.53 167.09 911.277C167.09 907.788 167.962 905.073 169.707 903.133C171.452 901.18 173.874 900.203 176.973 900.203C179.967 900.203 182.344 901.199 184.102 903.191C185.872 905.184 186.758 907.879 186.758 911.277ZM170.449 911.277C170.449 914.012 170.996 916.095 172.09 917.527C173.184 918.96 174.792 919.676 176.914 919.676C179.036 919.676 180.645 918.966 181.738 917.547C182.845 916.115 183.398 914.025 183.398 911.277C183.398 908.556 182.845 906.492 181.738 905.086C180.645 903.667 179.023 902.957 176.875 902.957C174.753 902.957 173.151 903.654 172.07 905.047C170.99 906.44 170.449 908.517 170.449 911.277ZM206.895 903.367H199.941V922H196.699V903.367H189.824V900.594H206.895V903.367ZM220.176 922.391C217.012 922.391 214.512 921.427 212.676 919.5C210.853 917.573 209.941 914.897 209.941 911.473C209.941 908.022 210.788 905.281 212.48 903.25C214.186 901.219 216.471 900.203 219.336 900.203C222.018 900.203 224.141 901.089 225.703 902.859C227.266 904.617 228.047 906.941 228.047 909.832V911.883H213.301C213.366 914.396 213.997 916.303 215.195 917.605C216.406 918.908 218.105 919.559 220.293 919.559C222.598 919.559 224.876 919.077 227.129 918.113V921.004C225.983 921.499 224.896 921.85 223.867 922.059C222.852 922.28 221.621 922.391 220.176 922.391ZM219.297 902.918C217.578 902.918 216.204 903.478 215.176 904.598C214.16 905.717 213.561 907.267 213.379 909.246H224.57C224.57 907.202 224.115 905.639 223.203 904.559C222.292 903.465 220.99 902.918 219.297 902.918ZM236.836 900.594V909.559H248.828V900.594H252.07V922H248.828V912.352H236.836V922H233.594V900.594H236.836ZM279.824 929.402H276.582V922H258.945V900.594H262.188V919.207H273.555V900.594H276.797V919.207H279.824V929.402ZM287.031 900.594V914.168L286.895 917.723L286.836 918.836L298.418 900.594H302.461V922H299.434V908.914L299.492 906.336L299.59 903.797L288.027 922H283.984V900.594H287.031ZM322.5 922L321.855 918.953H321.699C320.632 920.294 319.564 921.206 318.496 921.688C317.441 922.156 316.12 922.391 314.531 922.391C312.409 922.391 310.742 921.844 309.531 920.75C308.333 919.656 307.734 918.1 307.734 916.082C307.734 911.759 311.191 909.493 318.105 909.285L321.738 909.168V907.84C321.738 906.16 321.374 904.923 320.645 904.129C319.928 903.322 318.776 902.918 317.188 902.918C315.404 902.918 313.385 903.465 311.133 904.559L310.137 902.078C311.191 901.505 312.344 901.056 313.594 900.73C314.857 900.405 316.12 900.242 317.383 900.242C319.935 900.242 321.823 900.809 323.047 901.941C324.284 903.074 324.902 904.891 324.902 907.391V922H322.5ZM315.176 919.715C317.194 919.715 318.776 919.161 319.922 918.055C321.081 916.948 321.66 915.398 321.66 913.406V911.473L318.418 911.609C315.84 911.701 313.978 912.104 312.832 912.82C311.699 913.523 311.133 914.624 311.133 916.121C311.133 917.293 311.484 918.185 312.188 918.797C312.904 919.409 313.9 919.715 315.176 919.715ZM347.559 922H344.277V903.367H337.852C337.5 908.003 337.012 911.681 336.387 914.402C335.762 917.124 334.948 919.116 333.945 920.379C332.956 921.642 331.693 922.273 330.156 922.273C329.453 922.273 328.893 922.195 328.477 922.039V919.637C328.763 919.715 329.089 919.754 329.453 919.754C330.951 919.754 332.142 918.172 333.027 915.008C333.913 911.844 334.583 907.039 335.039 900.594H347.559V922ZM357.695 909.441H364.297C369.766 909.441 372.5 911.453 372.5 915.477C372.5 917.586 371.784 919.201 370.352 920.32C368.932 921.44 366.849 922 364.102 922H354.453V900.594H357.695V909.441ZM357.695 912.234V919.285H363.945C365.664 919.285 366.979 918.986 367.891 918.387C368.802 917.788 369.258 916.883 369.258 915.672C369.258 914.487 368.835 913.621 367.988 913.074C367.155 912.514 365.775 912.234 363.848 912.234H357.695ZM381.367 900.594V909.559H393.359V900.594H396.602V922H393.359V912.352H381.367V922H378.125V900.594H381.367ZM406.719 909.441H412.559C415.28 909.441 417.292 909.949 418.594 910.965C419.909 911.967 420.566 913.471 420.566 915.477C420.566 917.625 419.87 919.253 418.477 920.359C417.096 921.453 415.059 922 412.363 922H403.477V900.594H406.719V909.441ZM427.402 922H424.16V900.594H427.402V922ZM406.719 912.234V919.285H412.207C415.645 919.285 417.363 918.081 417.363 915.672C417.363 914.474 416.966 913.602 416.172 913.055C415.378 912.508 414.023 912.234 412.109 912.234H406.719ZM443.34 922.391C440.176 922.391 437.676 921.427 435.84 919.5C434.017 917.573 433.105 914.897 433.105 911.473C433.105 908.022 433.952 905.281 435.645 903.25C437.35 901.219 439.635 900.203 442.5 900.203C445.182 900.203 447.305 901.089 448.867 902.859C450.43 904.617 451.211 906.941 451.211 909.832V911.883H436.465C436.53 914.396 437.161 916.303 438.359 917.605C439.57 918.908 441.27 919.559 443.457 919.559C445.762 919.559 448.04 919.077 450.293 918.113V921.004C449.147 921.499 448.06 921.85 447.031 922.059C446.016 922.28 444.785 922.391 443.34 922.391ZM442.461 902.918C440.742 902.918 439.368 903.478 438.34 904.598C437.324 905.717 436.725 907.267 436.543 909.246H447.734C447.734 907.202 447.279 905.639 446.367 904.559C445.456 903.465 444.154 902.918 442.461 902.918ZM470.195 900.594V914.168L470.059 917.723L470 918.836L481.582 900.594H485.625V922H482.598V908.914L482.656 906.336L482.754 903.797L471.191 922H467.148V900.594H470.195ZM495.742 900.594V909.559H507.734V900.594H510.977V922H507.734V912.352H495.742V922H492.5V900.594H495.742ZM535.215 905.965C535.215 907.358 534.811 908.419 534.004 909.148C533.21 909.865 532.09 910.346 530.645 910.594V910.77C532.467 911.017 533.796 911.551 534.629 912.371C535.475 913.191 535.898 914.324 535.898 915.77C535.898 917.762 535.163 919.298 533.691 920.379C532.233 921.46 530.098 922 527.285 922H517.852V900.594H527.246C532.559 900.594 535.215 902.384 535.215 905.965ZM532.656 915.555C532.656 914.396 532.214 913.556 531.328 913.035C530.456 912.501 529.004 912.234 526.973 912.234H521.094V919.285H527.051C530.788 919.285 532.656 918.042 532.656 915.555ZM532.051 906.277C532.051 905.236 531.647 904.5 530.84 904.07C530.046 903.628 528.835 903.406 527.207 903.406H521.094V909.441H526.582C528.587 909.441 530 909.194 530.82 908.699C531.641 908.204 532.051 907.397 532.051 906.277ZM549.668 922.391C546.504 922.391 544.004 921.427 542.168 919.5C540.345 917.573 539.434 914.897 539.434 911.473C539.434 908.022 540.28 905.281 541.973 903.25C543.678 901.219 545.964 900.203 548.828 900.203C551.51 900.203 553.633 901.089 555.195 902.859C556.758 904.617 557.539 906.941 557.539 909.832V911.883H542.793C542.858 914.396 543.49 916.303 544.688 917.605C545.898 918.908 547.598 919.559 549.785 919.559C552.09 919.559 554.368 919.077 556.621 918.113V921.004C555.475 921.499 554.388 921.85 553.359 922.059C552.344 922.28 551.113 922.391 549.668 922.391ZM548.789 902.918C547.07 902.918 545.697 903.478 544.668 904.598C543.652 905.717 543.053 907.267 542.871 909.246H554.062C554.062 907.202 553.607 905.639 552.695 904.559C551.784 903.465 550.482 902.918 548.789 902.918ZM571.641 922.391C568.542 922.391 566.139 921.44 564.434 919.539C562.741 917.625 561.895 914.923 561.895 911.434C561.895 907.853 562.754 905.086 564.473 903.133C566.204 901.18 568.665 900.203 571.855 900.203C572.884 900.203 573.913 900.314 574.941 900.535C575.97 900.757 576.777 901.017 577.363 901.316L576.367 904.07C575.651 903.784 574.87 903.549 574.023 903.367C573.177 903.172 572.428 903.074 571.777 903.074C567.428 903.074 565.254 905.848 565.254 911.395C565.254 914.025 565.781 916.043 566.836 917.449C567.904 918.855 569.479 919.559 571.562 919.559C573.346 919.559 575.176 919.174 577.051 918.406V921.277C575.618 922.02 573.815 922.391 571.641 922.391ZM596.582 903.367H589.629V922H586.387V903.367H579.512V900.594H596.582V903.367ZM619.297 911.277C619.297 914.767 618.418 917.495 616.66 919.461C614.902 921.414 612.474 922.391 609.375 922.391C607.461 922.391 605.762 921.941 604.277 921.043C602.793 920.145 601.647 918.855 600.84 917.176C600.033 915.496 599.629 913.53 599.629 911.277C599.629 907.788 600.501 905.073 602.246 903.133C603.991 901.18 606.413 900.203 609.512 900.203C612.507 900.203 614.883 901.199 616.641 903.191C618.411 905.184 619.297 907.879 619.297 911.277ZM602.988 911.277C602.988 914.012 603.535 916.095 604.629 917.527C605.723 918.96 607.331 919.676 609.453 919.676C611.576 919.676 613.184 918.966 614.277 917.547C615.384 916.115 615.938 914.025 615.938 911.277C615.938 908.556 615.384 906.492 614.277 905.086C613.184 903.667 611.562 902.957 609.414 902.957C607.292 902.957 605.69 903.654 604.609 905.047C603.529 906.44 602.988 908.517 602.988 911.277ZM634.961 922.391C633.568 922.391 632.292 922.137 631.133 921.629C629.987 921.108 629.023 920.314 628.242 919.246H628.008C628.164 920.496 628.242 921.681 628.242 922.801V931.609H625V900.594H627.637L628.086 903.523H628.242C629.076 902.352 630.046 901.505 631.152 900.984C632.259 900.464 633.529 900.203 634.961 900.203C637.799 900.203 639.987 901.173 641.523 903.113C643.073 905.053 643.848 907.775 643.848 911.277C643.848 914.793 643.06 917.527 641.484 919.48C639.922 921.421 637.747 922.391 634.961 922.391ZM634.492 902.957C632.305 902.957 630.723 903.562 629.746 904.773C628.77 905.984 628.268 907.911 628.242 910.555V911.277C628.242 914.285 628.743 916.44 629.746 917.742C630.749 919.031 632.357 919.676 634.57 919.676C636.419 919.676 637.865 918.927 638.906 917.43C639.961 915.932 640.488 913.868 640.488 911.238C640.488 908.569 639.961 906.525 638.906 905.105C637.865 903.673 636.393 902.957 634.492 902.957ZM652.773 909.441H658.613C661.335 909.441 663.346 909.949 664.648 910.965C665.964 911.967 666.621 913.471 666.621 915.477C666.621 917.625 665.924 919.253 664.531 920.359C663.151 921.453 661.113 922 658.418 922H649.531V900.594H652.773V909.441ZM673.457 922H670.215V900.594H673.457V922ZM652.773 912.234V919.285H658.262C661.699 919.285 663.418 918.081 663.418 915.672C663.418 914.474 663.021 913.602 662.227 913.055C661.432 912.508 660.078 912.234 658.164 912.234H652.773Z" fill="white"/>
<path d="M877.375 922H870.031V892.5C870.031 888.979 870.115 886.188 870.281 884.125C869.802 884.625 869.208 885.177 868.5 885.781C867.812 886.385 865.479 888.302 861.5 891.531L857.812 886.875L871.25 876.312H877.375V922ZM921.625 886.812C921.625 889.708 920.781 892.125 919.094 894.062C917.406 895.979 915.031 897.271 911.969 897.938V898.188C915.635 898.646 918.385 899.792 920.219 901.625C922.052 903.438 922.969 905.854 922.969 908.875C922.969 913.271 921.417 916.667 918.312 919.062C915.208 921.438 910.792 922.625 905.062 922.625C900 922.625 895.729 921.802 892.25 920.156V913.625C894.188 914.583 896.24 915.323 898.406 915.844C900.573 916.365 902.656 916.625 904.656 916.625C908.198 916.625 910.844 915.969 912.594 914.656C914.344 913.344 915.219 911.312 915.219 908.562C915.219 906.125 914.25 904.333 912.312 903.188C910.375 902.042 907.333 901.469 903.188 901.469H899.219V895.5H903.25C910.542 895.5 914.188 892.979 914.188 887.938C914.188 885.979 913.552 884.469 912.281 883.406C911.01 882.344 909.135 881.812 906.656 881.812C904.927 881.812 903.26 882.062 901.656 882.562C900.052 883.042 898.156 883.99 895.969 885.406L892.375 880.281C896.562 877.198 901.427 875.656 906.969 875.656C911.573 875.656 915.167 876.646 917.75 878.625C920.333 880.604 921.625 883.333 921.625 886.812ZM934.125 922L952.188 882.844H928.438V876.375H960.031V881.5L942.062 922H934.125Z" fill="white"/>
<path d="M1000.52 909.48C1004.57 909.48 1006.59 908.361 1006.59 906.121C1006.59 904.012 1004.95 902.957 1001.67 902.957C1000.67 902.957 999.758 903.048 998.938 903.23C998.117 903.413 997.043 903.777 995.715 904.324L994.562 901.688C996.776 900.698 999.191 900.203 1001.81 900.203C1004.27 900.203 1006.21 900.711 1007.63 901.727C1009.05 902.729 1009.76 904.103 1009.76 905.848C1009.76 908.243 1008.42 909.812 1005.75 910.555V910.711C1007.39 911.193 1008.59 911.883 1009.35 912.781C1010.1 913.667 1010.48 914.78 1010.48 916.121C1010.48 918.1 1009.68 919.643 1008.08 920.75C1006.49 921.844 1004.29 922.391 1001.48 922.391C998.391 922.391 996.008 921.928 994.328 921.004V918.035C996.711 919.155 999.12 919.715 1001.55 919.715C1003.43 919.715 1004.84 919.396 1005.79 918.758C1006.76 918.107 1007.24 917.176 1007.24 915.965C1007.24 913.478 1005.21 912.234 1001.16 912.234H998.195V909.48H1000.52ZM1028.94 922L1028.29 918.953H1028.14C1027.07 920.294 1026 921.206 1024.93 921.688C1023.88 922.156 1022.56 922.391 1020.97 922.391C1018.85 922.391 1017.18 921.844 1015.97 920.75C1014.77 919.656 1014.17 918.1 1014.17 916.082C1014.17 911.759 1017.63 909.493 1024.54 909.285L1028.18 909.168V907.84C1028.18 906.16 1027.81 904.923 1027.08 904.129C1026.37 903.322 1025.21 902.918 1023.62 902.918C1021.84 902.918 1019.82 903.465 1017.57 904.559L1016.57 902.078C1017.63 901.505 1018.78 901.056 1020.03 900.73C1021.29 900.405 1022.56 900.242 1023.82 900.242C1026.37 900.242 1028.26 900.809 1029.48 901.941C1030.72 903.074 1031.34 904.891 1031.34 907.391V922H1028.94ZM1021.61 919.715C1023.63 919.715 1025.21 919.161 1026.36 918.055C1027.52 916.948 1028.1 915.398 1028.1 913.406V911.473L1024.86 911.609C1022.28 911.701 1020.42 912.104 1019.27 912.82C1018.14 913.523 1017.57 914.624 1017.57 916.121C1017.57 917.293 1017.92 918.185 1018.62 918.797C1019.34 919.409 1020.34 919.715 1021.61 919.715ZM1041.09 900.594V914.168L1040.95 917.723L1040.89 918.836L1052.47 900.594H1056.52V922H1053.49V908.914L1053.55 906.336L1053.64 903.797L1042.08 922H1038.04V900.594H1041.09ZM1066.63 900.594V909.559H1078.62V900.594H1081.87V922H1078.62V912.352H1066.63V922H1063.39V900.594H1066.63ZM1103.18 903.367H1096.22V922H1092.98V903.367H1086.11V900.594H1103.18V903.367ZM1116.46 922.391C1113.29 922.391 1110.79 921.427 1108.96 919.5C1107.13 917.573 1106.22 914.897 1106.22 911.473C1106.22 908.022 1107.07 905.281 1108.76 903.25C1110.47 901.219 1112.75 900.203 1115.62 900.203C1118.3 900.203 1120.42 901.089 1121.98 902.859C1123.55 904.617 1124.33 906.941 1124.33 909.832V911.883H1109.58C1109.65 914.396 1110.28 916.303 1111.48 917.605C1112.69 918.908 1114.39 919.559 1116.57 919.559C1118.88 919.559 1121.16 919.077 1123.41 918.113V921.004C1122.26 921.499 1121.18 921.85 1120.15 922.059C1119.13 922.28 1117.9 922.391 1116.46 922.391ZM1115.58 902.918C1113.86 902.918 1112.49 903.478 1111.46 904.598C1110.44 905.717 1109.84 907.267 1109.66 909.246H1120.85C1120.85 907.202 1120.4 905.639 1119.48 904.559C1118.57 903.465 1117.27 902.918 1115.58 902.918ZM1139.84 922.391C1138.44 922.391 1137.17 922.137 1136.01 921.629C1134.86 921.108 1133.9 920.314 1133.12 919.246H1132.88C1133.04 920.496 1133.12 921.681 1133.12 922.801V931.609H1129.88V900.594H1132.51L1132.96 903.523H1133.12C1133.95 902.352 1134.92 901.505 1136.03 900.984C1137.13 900.464 1138.4 900.203 1139.84 900.203C1142.67 900.203 1144.86 901.173 1146.4 903.113C1147.95 905.053 1148.72 907.775 1148.72 911.277C1148.72 914.793 1147.93 917.527 1146.36 919.48C1144.8 921.421 1142.62 922.391 1139.84 922.391ZM1139.37 902.957C1137.18 902.957 1135.6 903.562 1134.62 904.773C1133.64 905.984 1133.14 907.911 1133.12 910.555V911.277C1133.12 914.285 1133.62 916.44 1134.62 917.742C1135.62 919.031 1137.23 919.676 1139.45 919.676C1141.29 919.676 1142.74 918.927 1143.78 917.43C1144.84 915.932 1145.36 913.868 1145.36 911.238C1145.36 908.569 1144.84 906.525 1143.78 905.105C1142.74 903.673 1141.27 902.957 1139.37 902.957ZM1163.45 922.391C1160.29 922.391 1157.79 921.427 1155.95 919.5C1154.13 917.573 1153.21 914.897 1153.21 911.473C1153.21 908.022 1154.06 905.281 1155.75 903.25C1157.46 901.219 1159.74 900.203 1162.61 900.203C1165.29 900.203 1167.41 901.089 1168.98 902.859C1170.54 904.617 1171.32 906.941 1171.32 909.832V911.883H1156.57C1156.64 914.396 1157.27 916.303 1158.47 917.605C1159.68 918.908 1161.38 919.559 1163.57 919.559C1165.87 919.559 1168.15 919.077 1170.4 918.113V921.004C1169.26 921.499 1168.17 921.85 1167.14 922.059C1166.12 922.28 1164.89 922.391 1163.45 922.391ZM1162.57 902.918C1160.85 902.918 1159.48 903.478 1158.45 904.598C1157.43 905.717 1156.83 907.267 1156.65 909.246H1167.84C1167.84 907.202 1167.39 905.639 1166.48 904.559C1165.57 903.465 1164.26 902.918 1162.57 902.918ZM1185.42 922.391C1182.32 922.391 1179.92 921.44 1178.21 919.539C1176.52 917.625 1175.68 914.923 1175.68 911.434C1175.68 907.853 1176.54 905.086 1178.25 903.133C1179.99 901.18 1182.45 900.203 1185.64 900.203C1186.67 900.203 1187.69 900.314 1188.72 900.535C1189.75 900.757 1190.56 901.017 1191.14 901.316L1190.15 904.07C1189.43 903.784 1188.65 903.549 1187.8 903.367C1186.96 903.172 1186.21 903.074 1185.56 903.074C1181.21 903.074 1179.04 905.848 1179.04 911.395C1179.04 914.025 1179.56 916.043 1180.62 917.449C1181.68 918.855 1183.26 919.559 1185.34 919.559C1187.13 919.559 1188.96 919.174 1190.83 918.406V921.277C1189.4 922.02 1187.6 922.391 1185.42 922.391ZM1214.41 911.277C1214.41 914.767 1213.53 917.495 1211.77 919.461C1210.01 921.414 1207.58 922.391 1204.48 922.391C1202.57 922.391 1200.87 921.941 1199.39 921.043C1197.9 920.145 1196.76 918.855 1195.95 917.176C1195.14 915.496 1194.74 913.53 1194.74 911.277C1194.74 907.788 1195.61 905.073 1197.36 903.133C1199.1 901.18 1201.52 900.203 1204.62 900.203C1207.62 900.203 1209.99 901.199 1211.75 903.191C1213.52 905.184 1214.41 907.879 1214.41 911.277ZM1198.1 911.277C1198.1 914.012 1198.64 916.095 1199.74 917.527C1200.83 918.96 1202.44 919.676 1204.56 919.676C1206.68 919.676 1208.29 918.966 1209.39 917.547C1210.49 916.115 1211.05 914.025 1211.05 911.277C1211.05 908.556 1210.49 906.492 1209.39 905.086C1208.29 903.667 1206.67 902.957 1204.52 902.957C1202.4 902.957 1200.8 903.654 1199.72 905.047C1198.64 906.44 1198.1 908.517 1198.1 911.277ZM1237.47 905.965C1237.47 907.358 1237.07 908.419 1236.26 909.148C1235.47 909.865 1234.35 910.346 1232.9 910.594V910.77C1234.73 911.017 1236.05 911.551 1236.89 912.371C1237.73 913.191 1238.16 914.324 1238.16 915.77C1238.16 917.762 1237.42 919.298 1235.95 920.379C1234.49 921.46 1232.36 922 1229.54 922H1220.11V900.594H1229.5C1234.82 900.594 1237.47 902.384 1237.47 905.965ZM1234.91 915.555C1234.91 914.396 1234.47 913.556 1233.59 913.035C1232.71 912.501 1231.26 912.234 1229.23 912.234H1223.35V919.285H1229.31C1233.05 919.285 1234.91 918.042 1234.91 915.555ZM1234.31 906.277C1234.31 905.236 1233.9 904.5 1233.1 904.07C1232.3 903.628 1231.09 903.406 1229.46 903.406H1223.35V909.441H1228.84C1230.85 909.441 1232.26 909.194 1233.08 908.699C1233.9 908.204 1234.31 907.397 1234.31 906.277ZM1256.05 922L1255.4 918.953H1255.25C1254.18 920.294 1253.11 921.206 1252.04 921.688C1250.99 922.156 1249.67 922.391 1248.08 922.391C1245.96 922.391 1244.29 921.844 1243.08 920.75C1241.88 919.656 1241.28 918.1 1241.28 916.082C1241.28 911.759 1244.74 909.493 1251.65 909.285L1255.29 909.168V907.84C1255.29 906.16 1254.92 904.923 1254.19 904.129C1253.48 903.322 1252.32 902.918 1250.73 902.918C1248.95 902.918 1246.93 903.465 1244.68 904.559L1243.68 902.078C1244.74 901.505 1245.89 901.056 1247.14 900.73C1248.4 900.405 1249.67 900.242 1250.93 900.242C1253.48 900.242 1255.37 900.809 1256.59 901.941C1257.83 903.074 1258.45 904.891 1258.45 907.391V922H1256.05ZM1248.72 919.715C1250.74 919.715 1252.32 919.161 1253.47 918.055C1254.63 916.948 1255.21 915.398 1255.21 913.406V911.473L1251.96 911.609C1249.39 911.701 1247.52 912.104 1246.38 912.82C1245.25 913.523 1244.68 914.624 1244.68 916.121C1244.68 917.293 1245.03 918.185 1245.73 918.797C1246.45 919.409 1247.45 919.715 1248.72 919.715ZM1268.39 900.594V909.559H1280.38V900.594H1283.62V922H1280.38V912.352H1268.39V922H1265.15V900.594H1268.39ZM1293.74 900.594V909.559H1305.73V900.594H1308.98V922H1305.73V912.352H1293.74V922H1290.5V900.594H1293.74ZM1319.09 909.441H1324.93C1327.65 909.441 1329.67 909.949 1330.97 910.965C1332.28 911.967 1332.94 913.471 1332.94 915.477C1332.94 917.625 1332.24 919.253 1330.85 920.359C1329.47 921.453 1327.43 922 1324.74 922H1315.85V900.594H1319.09V909.441ZM1339.78 922H1336.54V900.594H1339.78V922ZM1319.09 912.234V919.285H1324.58C1328.02 919.285 1329.74 918.081 1329.74 915.672C1329.74 914.474 1329.34 913.602 1328.55 913.055C1327.75 912.508 1326.4 912.234 1324.48 912.234H1319.09ZM1355.71 922.391C1352.55 922.391 1350.05 921.427 1348.21 919.5C1346.39 917.573 1345.48 914.897 1345.48 911.473C1345.48 908.022 1346.33 905.281 1348.02 903.25C1349.73 901.219 1352.01 900.203 1354.88 900.203C1357.56 900.203 1359.68 901.089 1361.24 902.859C1362.8 904.617 1363.59 906.941 1363.59 909.832V911.883H1348.84C1348.9 914.396 1349.54 916.303 1350.73 917.605C1351.95 918.908 1353.64 919.559 1355.83 919.559C1358.14 919.559 1360.42 919.077 1362.67 918.113V921.004C1361.52 921.499 1360.43 921.85 1359.41 922.059C1358.39 922.28 1357.16 922.391 1355.71 922.391ZM1354.84 902.918C1353.12 902.918 1351.74 903.478 1350.71 904.598C1349.7 905.717 1349.1 907.267 1348.92 909.246H1360.11C1360.11 907.202 1359.65 905.639 1358.74 904.559C1357.83 903.465 1356.53 902.918 1354.84 902.918ZM1382.57 900.594V914.168L1382.43 917.723L1382.38 918.836L1393.96 900.594H1398V922H1394.97V908.914L1395.03 906.336L1395.13 903.797L1383.57 922H1379.52V900.594H1382.57ZM1408.12 900.594V909.559H1420.11V900.594H1423.35V922H1420.11V912.352H1408.12V922H1404.88V900.594H1408.12ZM1447.59 905.965C1447.59 907.358 1447.19 908.419 1446.38 909.148C1445.58 909.865 1444.46 910.346 1443.02 910.594V910.77C1444.84 911.017 1446.17 911.551 1447 912.371C1447.85 913.191 1448.27 914.324 1448.27 915.77C1448.27 917.762 1447.54 919.298 1446.07 920.379C1444.61 921.46 1442.47 922 1439.66 922H1430.23V900.594H1439.62C1444.93 900.594 1447.59 902.384 1447.59 905.965ZM1445.03 915.555C1445.03 914.396 1444.59 913.556 1443.7 913.035C1442.83 912.501 1441.38 912.234 1439.35 912.234H1433.47V919.285H1439.43C1443.16 919.285 1445.03 918.042 1445.03 915.555ZM1444.43 906.277C1444.43 905.236 1444.02 904.5 1443.21 904.07C1442.42 903.628 1441.21 903.406 1439.58 903.406H1433.47V909.441H1438.96C1440.96 909.441 1442.38 909.194 1443.2 908.699C1444.02 908.204 1444.43 907.397 1444.43 906.277ZM1462.04 922.391C1458.88 922.391 1456.38 921.427 1454.54 919.5C1452.72 917.573 1451.81 914.897 1451.81 911.473C1451.81 908.022 1452.65 905.281 1454.35 903.25C1456.05 901.219 1458.34 900.203 1461.2 900.203C1463.89 900.203 1466.01 901.089 1467.57 902.859C1469.13 904.617 1469.91 906.941 1469.91 909.832V911.883H1455.17C1455.23 914.396 1455.86 916.303 1457.06 917.605C1458.27 918.908 1459.97 919.559 1462.16 919.559C1464.46 919.559 1466.74 919.077 1469 918.113V921.004C1467.85 921.499 1466.76 921.85 1465.73 922.059C1464.72 922.28 1463.49 922.391 1462.04 922.391ZM1461.16 902.918C1459.45 902.918 1458.07 903.478 1457.04 904.598C1456.03 905.717 1455.43 907.267 1455.25 909.246H1466.44C1466.44 907.202 1465.98 905.639 1465.07 904.559C1464.16 903.465 1462.86 902.918 1461.16 902.918ZM1484.02 922.391C1480.92 922.391 1478.51 921.44 1476.81 919.539C1475.12 917.625 1474.27 914.923 1474.27 911.434C1474.27 907.853 1475.13 905.086 1476.85 903.133C1478.58 901.18 1481.04 900.203 1484.23 900.203C1485.26 900.203 1486.29 900.314 1487.32 900.535C1488.35 900.757 1489.15 901.017 1489.74 901.316L1488.74 904.07C1488.03 903.784 1487.24 903.549 1486.4 903.367C1485.55 903.172 1484.8 903.074 1484.15 903.074C1479.8 903.074 1477.63 905.848 1477.63 911.395C1477.63 914.025 1478.16 916.043 1479.21 917.449C1480.28 918.855 1481.85 919.559 1483.94 919.559C1485.72 919.559 1487.55 919.174 1489.43 918.406V921.277C1487.99 922.02 1486.19 922.391 1484.02 922.391ZM1508.96 903.367H1502V922H1498.76V903.367H1491.89V900.594H1508.96V903.367ZM1531.67 911.277C1531.67 914.767 1530.79 917.495 1529.04 919.461C1527.28 921.414 1524.85 922.391 1521.75 922.391C1519.84 922.391 1518.14 921.941 1516.65 921.043C1515.17 920.145 1514.02 918.855 1513.21 917.176C1512.41 915.496 1512 913.53 1512 911.277C1512 907.788 1512.88 905.073 1514.62 903.133C1516.37 901.18 1518.79 900.203 1521.89 900.203C1524.88 900.203 1527.26 901.199 1529.02 903.191C1530.79 905.184 1531.67 907.879 1531.67 911.277ZM1515.36 911.277C1515.36 914.012 1515.91 916.095 1517 917.527C1518.1 918.96 1519.71 919.676 1521.83 919.676C1523.95 919.676 1525.56 918.966 1526.65 917.547C1527.76 916.115 1528.31 914.025 1528.31 911.277C1528.31 908.556 1527.76 906.492 1526.65 905.086C1525.56 903.667 1523.94 902.957 1521.79 902.957C1519.67 902.957 1518.07 903.654 1516.98 905.047C1515.9 906.44 1515.36 908.517 1515.36 911.277ZM1547.34 922.391C1545.94 922.391 1544.67 922.137 1543.51 921.629C1542.36 921.108 1541.4 920.314 1540.62 919.246H1540.38C1540.54 920.496 1540.62 921.681 1540.62 922.801V931.609H1537.38V900.594H1540.01L1540.46 903.523H1540.62C1541.45 902.352 1542.42 901.505 1543.53 900.984C1544.63 900.464 1545.9 900.203 1547.34 900.203C1550.17 900.203 1552.36 901.173 1553.9 903.113C1555.45 905.053 1556.22 907.775 1556.22 911.277C1556.22 914.793 1555.43 917.527 1553.86 919.48C1552.3 921.421 1550.12 922.391 1547.34 922.391ZM1546.87 902.957C1544.68 902.957 1543.1 903.562 1542.12 904.773C1541.14 905.984 1540.64 907.911 1540.62 910.555V911.277C1540.62 914.285 1541.12 916.44 1542.12 917.742C1543.12 919.031 1544.73 919.676 1546.95 919.676C1548.79 919.676 1550.24 918.927 1551.28 917.43C1552.34 915.932 1552.86 913.868 1552.86 911.238C1552.86 908.569 1552.34 906.525 1551.28 905.105C1550.24 903.673 1548.77 902.957 1546.87 902.957ZM1565.15 909.441H1570.99C1573.71 909.441 1575.72 909.949 1577.02 910.965C1578.34 911.967 1579 913.471 1579 915.477C1579 917.625 1578.3 919.253 1576.91 920.359C1575.53 921.453 1573.49 922 1570.79 922H1561.91V900.594H1565.15V909.441ZM1585.83 922H1582.59V900.594H1585.83V922ZM1565.15 912.234V919.285H1570.64C1574.07 919.285 1575.79 918.081 1575.79 915.672C1575.79 914.474 1575.4 913.602 1574.6 913.055C1573.81 912.508 1572.45 912.234 1570.54 912.234H1565.15Z" fill="white"/>
<path d="M912.832 522H891.709V464.168L891.914 454.666L892.256 444.275C888.747 447.785 886.309 450.086 884.941 451.18L873.457 460.408L863.271 447.693L895.469 422.059H912.832V522ZM1009.9 472.029C1009.9 489.484 1007.03 502.404 1001.29 510.789C995.592 519.174 986.797 523.367 974.902 523.367C963.372 523.367 954.668 519.038 948.789 510.379C942.956 501.72 940.039 488.937 940.039 472.029C940.039 454.393 942.887 441.404 948.584 433.064C954.281 424.679 963.053 420.486 974.902 420.486C986.432 420.486 995.137 424.861 1001.02 433.611C1006.94 442.361 1009.9 455.167 1009.9 472.029ZM961.025 472.029C961.025 484.288 962.074 493.084 964.17 498.416C966.312 503.702 969.889 506.346 974.902 506.346C979.824 506.346 983.379 503.657 985.566 498.279C987.754 492.902 988.848 484.152 988.848 472.029C988.848 459.77 987.731 450.975 985.498 445.643C983.311 440.265 979.779 437.576 974.902 437.576C969.935 437.576 966.38 440.265 964.238 445.643C962.096 450.975 961.025 459.77 961.025 472.029Z" fill="white"/>
<path d="M942.792 354.056C941.083 354.056 939.76 354.7 938.822 355.989C937.885 357.269 937.416 359.056 937.416 361.351C937.416 366.126 939.208 368.514 942.792 368.514C944.296 368.514 946.117 368.138 948.256 367.386V371.194C946.498 371.927 944.535 372.293 942.367 372.293C939.252 372.293 936.869 371.351 935.219 369.466C933.568 367.571 932.743 364.856 932.743 361.321C932.743 359.095 933.148 357.146 933.959 355.477C934.77 353.797 935.932 352.513 937.445 351.624C938.969 350.726 940.751 350.276 942.792 350.276C944.872 350.276 946.962 350.779 949.062 351.785L947.597 355.477C946.796 355.096 945.99 354.764 945.18 354.48C944.369 354.197 943.573 354.056 942.792 354.056ZM956.034 363.782C956.034 365.403 956.298 366.629 956.825 367.459C957.362 368.289 958.231 368.704 959.433 368.704C960.624 368.704 961.479 368.294 961.996 367.474C962.523 366.644 962.787 365.413 962.787 363.782C962.787 362.161 962.523 360.945 961.996 360.135C961.469 359.324 960.604 358.919 959.403 358.919C958.212 358.919 957.353 359.324 956.825 360.135C956.298 360.936 956.034 362.151 956.034 363.782ZM967.357 363.782C967.357 366.448 966.654 368.533 965.248 370.037C963.842 371.541 961.884 372.293 959.374 372.293C957.802 372.293 956.415 371.951 955.214 371.268C954.013 370.574 953.09 369.583 952.445 368.294C951.801 367.005 951.479 365.501 951.479 363.782C951.479 361.106 952.177 359.026 953.573 357.542C954.97 356.058 956.933 355.315 959.462 355.315C961.034 355.315 962.421 355.657 963.622 356.341C964.823 357.024 965.746 358.006 966.391 359.285C967.035 360.564 967.357 362.063 967.357 363.782ZM982.357 355.623V358.978H975.517V372H971.049V355.623H982.357ZM1000.07 372H995.6V358.978H991.483C991.171 362.64 990.79 365.374 990.341 367.181C989.892 368.978 989.291 370.281 988.539 371.092C987.797 371.893 986.82 372.293 985.609 372.293C984.574 372.293 983.725 372.137 983.061 371.824V368.25C983.539 368.445 984.018 368.543 984.496 368.543C985.053 368.543 985.517 368.143 985.888 367.342C986.269 366.541 986.605 365.208 986.898 363.343C987.201 361.468 987.46 358.895 987.675 355.623H1000.07V372ZM1015.17 372L1014.31 369.773H1014.19C1013.44 370.721 1012.66 371.38 1011.86 371.751C1011.07 372.112 1010.03 372.293 1008.75 372.293C1007.18 372.293 1005.94 371.844 1005.03 370.945C1004.13 370.047 1003.69 368.768 1003.69 367.107C1003.69 365.369 1004.29 364.09 1005.5 363.27C1006.72 362.439 1008.56 361.98 1011.01 361.893L1013.85 361.805V361.087C1013.85 359.427 1013 358.597 1011.3 358.597C1009.99 358.597 1008.46 358.992 1006.69 359.783L1005.21 356.766C1007.09 355.779 1009.18 355.286 1011.48 355.286C1013.68 355.286 1015.36 355.765 1016.53 356.722C1017.7 357.679 1018.29 359.134 1018.29 361.087V372H1015.17ZM1013.85 364.412L1012.12 364.471C1010.82 364.51 1009.86 364.744 1009.22 365.174C1008.59 365.604 1008.27 366.258 1008.27 367.137C1008.27 368.396 1008.99 369.026 1010.44 369.026C1011.47 369.026 1012.3 368.729 1012.91 368.133C1013.54 367.537 1013.85 366.746 1013.85 365.76V364.412ZM1047.29 372H1022.9V355.623H1027.37V368.646H1032.87V355.623H1037.33V368.646H1042.83V355.623H1047.29V372ZM1058.78 358.494C1057.83 358.494 1057.09 358.797 1056.55 359.402C1056.01 359.998 1055.71 360.848 1055.63 361.951H1061.9C1061.88 360.848 1061.59 359.998 1061.03 359.402C1060.48 358.797 1059.73 358.494 1058.78 358.494ZM1059.41 372.293C1056.77 372.293 1054.71 371.565 1053.23 370.11C1051.74 368.655 1051 366.595 1051 363.929C1051 361.185 1051.68 359.065 1053.05 357.571C1054.43 356.067 1056.33 355.315 1058.75 355.315C1061.06 355.315 1062.87 355.975 1064.15 357.293C1065.44 358.611 1066.09 360.433 1066.09 362.757V364.925H1055.53C1055.58 366.194 1055.95 367.186 1056.65 367.898C1057.36 368.611 1058.34 368.968 1059.61 368.968C1060.6 368.968 1061.53 368.865 1062.41 368.66C1063.29 368.455 1064.21 368.128 1065.17 367.679V371.136C1064.38 371.526 1063.55 371.814 1062.66 372C1061.77 372.195 1060.69 372.293 1059.41 372.293ZM1074.19 355.623V361.922H1080.43V355.623H1084.9V372H1080.43V365.247H1074.19V372H1069.72V355.623H1074.19ZM1093.91 355.623V362.098C1093.91 362.781 1093.79 364.451 1093.57 367.107L1101.13 355.623H1106.5V372H1102.18V365.467C1102.18 364.305 1102.28 362.664 1102.47 360.545L1094.95 372H1089.58V355.623H1093.91ZM1113.7 372H1108.86L1113.27 365.525C1112.22 365.086 1111.42 364.451 1110.87 363.621C1110.33 362.791 1110.06 361.814 1110.06 360.691C1110.06 359.109 1110.65 357.869 1111.83 356.971C1113.03 356.072 1114.65 355.623 1116.7 355.623H1124.32V372H1119.85V365.906H1117.39L1113.7 372ZM1114.44 360.721C1114.44 361.404 1114.71 361.941 1115.25 362.332C1115.79 362.713 1116.49 362.903 1117.36 362.903H1119.85V358.772H1116.79C1116.05 358.772 1115.48 358.953 1115.06 359.314C1114.65 359.666 1114.44 360.135 1114.44 360.721ZM1151.66 355.623V372H1147.18V358.978H1141.25V372H1136.78V355.623H1151.66ZM1159.91 363.782C1159.91 365.403 1160.17 366.629 1160.7 367.459C1161.24 368.289 1162.11 368.704 1163.31 368.704C1164.5 368.704 1165.36 368.294 1165.87 367.474C1166.4 366.644 1166.66 365.413 1166.66 363.782C1166.66 362.161 1166.4 360.945 1165.87 360.135C1165.35 359.324 1164.48 358.919 1163.28 358.919C1162.09 358.919 1161.23 359.324 1160.7 360.135C1160.17 360.936 1159.91 362.151 1159.91 363.782ZM1171.23 363.782C1171.23 366.448 1170.53 368.533 1169.12 370.037C1167.72 371.541 1165.76 372.293 1163.25 372.293C1161.68 372.293 1160.29 371.951 1159.09 371.268C1157.89 370.574 1156.97 369.583 1156.32 368.294C1155.68 367.005 1155.36 365.501 1155.36 363.782C1155.36 361.106 1156.05 359.026 1157.45 357.542C1158.85 356.058 1160.81 355.315 1163.34 355.315C1164.91 355.315 1166.3 355.657 1167.5 356.341C1168.7 357.024 1169.62 358.006 1170.27 359.285C1170.91 360.564 1171.23 362.063 1171.23 363.782ZM1197.6 355.623V372H1193.12V358.978H1187.19V372H1182.72V355.623H1197.6ZM1211.28 372.293C1209.36 372.293 1207.85 371.595 1206.76 370.198H1206.52C1206.68 371.565 1206.76 372.356 1206.76 372.571V379.207H1202.29V355.623H1205.92L1206.55 357.747H1206.76C1207.8 356.126 1209.35 355.315 1211.4 355.315C1213.33 355.315 1214.85 356.062 1215.94 357.557C1217.04 359.051 1217.58 361.126 1217.58 363.782C1217.58 365.53 1217.32 367.049 1216.81 368.338C1216.3 369.627 1215.57 370.608 1214.62 371.282C1213.68 371.956 1212.56 372.293 1211.28 372.293ZM1209.96 358.89C1208.86 358.89 1208.06 359.231 1207.55 359.915C1207.04 360.589 1206.78 361.707 1206.76 363.27V363.753C1206.76 365.511 1207.02 366.771 1207.53 367.532C1208.06 368.294 1208.89 368.675 1210.02 368.675C1212.03 368.675 1213.03 367.024 1213.03 363.724C1213.03 362.112 1212.78 360.906 1212.28 360.105C1211.79 359.295 1211.02 358.89 1209.96 358.89ZM1224.83 363.782C1224.83 365.403 1225.1 366.629 1225.62 367.459C1226.16 368.289 1227.03 368.704 1228.23 368.704C1229.42 368.704 1230.28 368.294 1230.79 367.474C1231.32 366.644 1231.59 365.413 1231.59 363.782C1231.59 362.161 1231.32 360.945 1230.79 360.135C1230.27 359.324 1229.4 358.919 1228.2 358.919C1227.01 358.919 1226.15 359.324 1225.62 360.135C1225.1 360.936 1224.83 362.151 1224.83 363.782ZM1236.16 363.782C1236.16 366.448 1235.45 368.533 1234.05 370.037C1232.64 371.541 1230.68 372.293 1228.17 372.293C1226.6 372.293 1225.21 371.951 1224.01 371.268C1222.81 370.574 1221.89 369.583 1221.24 368.294C1220.6 367.005 1220.28 365.501 1220.28 363.782C1220.28 361.106 1220.98 359.026 1222.37 357.542C1223.77 356.058 1225.73 355.315 1228.26 355.315C1229.83 355.315 1231.22 355.657 1232.42 356.341C1233.62 357.024 1234.54 358.006 1235.19 359.285C1235.83 360.564 1236.16 362.063 1236.16 363.782ZM1246.63 358.494C1245.68 358.494 1244.94 358.797 1244.4 359.402C1243.87 359.998 1243.56 360.848 1243.48 361.951H1249.75C1249.73 360.848 1249.44 359.998 1248.89 359.402C1248.33 358.797 1247.58 358.494 1246.63 358.494ZM1247.26 372.293C1244.62 372.293 1242.56 371.565 1241.08 370.11C1239.59 368.655 1238.85 366.595 1238.85 363.929C1238.85 361.185 1239.54 359.065 1240.9 357.571C1242.28 356.067 1244.18 355.315 1246.6 355.315C1248.92 355.315 1250.72 355.975 1252.01 357.293C1253.29 358.611 1253.94 360.433 1253.94 362.757V364.925H1243.38C1243.43 366.194 1243.8 367.186 1244.51 367.898C1245.21 368.611 1246.2 368.968 1247.46 368.968C1248.45 368.968 1249.38 368.865 1250.26 368.66C1251.14 368.455 1252.06 368.128 1253.02 367.679V371.136C1252.24 371.526 1251.4 371.814 1250.51 372C1249.62 372.195 1248.54 372.293 1247.26 372.293ZM1268.31 355.623H1273.23L1266.74 363.475L1273.8 372H1268.73L1262.04 363.694V372H1257.57V355.623H1262.04V363.577L1268.31 355.623ZM1289.7 355.623V358.978H1284.33V372H1279.87V358.978H1274.49V355.623H1289.7ZM1303.16 372L1302.29 369.773H1302.18C1301.42 370.721 1300.65 371.38 1299.85 371.751C1299.06 372.112 1298.02 372.293 1296.74 372.293C1295.17 372.293 1293.93 371.844 1293.02 370.945C1292.12 370.047 1291.67 368.768 1291.67 367.107C1291.67 365.369 1292.28 364.09 1293.49 363.27C1294.71 362.439 1296.55 361.98 1299 361.893L1301.84 361.805V361.087C1301.84 359.427 1300.99 358.597 1299.29 358.597C1297.98 358.597 1296.44 358.992 1294.68 359.783L1293.2 356.766C1295.08 355.779 1297.17 355.286 1299.47 355.286C1301.66 355.286 1303.35 355.765 1304.52 356.722C1305.69 357.679 1306.28 359.134 1306.28 361.087V372H1303.16ZM1301.84 364.412L1300.11 364.471C1298.81 364.51 1297.85 364.744 1297.21 365.174C1296.58 365.604 1296.26 366.258 1296.26 367.137C1296.26 368.396 1296.98 369.026 1298.43 369.026C1299.46 369.026 1300.29 368.729 1300.9 368.133C1301.53 367.537 1301.84 366.746 1301.84 365.76V364.412ZM1331.53 372H1327.36V359.095L1327.12 360.003C1326.6 362.063 1326.12 363.621 1325.7 364.676L1322.8 372H1319.62L1316.68 364.617C1316.26 363.543 1315.81 362.034 1315.33 360.091L1315.05 359.095V372H1310.89V355.623H1317.04L1319.86 362.61C1320.15 363.362 1320.42 364.227 1320.66 365.203C1320.92 366.18 1321.09 367.015 1321.18 367.708C1321.5 366.243 1321.75 365.193 1321.92 364.559C1322.11 363.914 1322.31 363.323 1322.52 362.786C1322.74 362.249 1323.71 359.861 1325.44 355.623H1331.53V372ZM1348.1 361.922C1349.79 361.922 1350.99 361.785 1351.69 361.512C1352.4 361.238 1352.76 360.804 1352.76 360.208C1352.76 359.681 1352.5 359.285 1351.98 359.021C1351.46 358.758 1350.61 358.626 1349.42 358.626C1348.67 358.626 1347.81 358.719 1346.85 358.904C1345.91 359.09 1345.04 359.344 1344.26 359.666L1342.94 356.546C1344.11 356.106 1345.23 355.794 1346.33 355.608C1347.42 355.413 1348.64 355.315 1349.99 355.315C1352.03 355.315 1353.67 355.706 1354.9 356.487C1356.13 357.269 1356.74 358.328 1356.74 359.666C1356.74 361.512 1355.65 362.713 1353.48 363.27V363.416C1354.81 363.748 1355.77 364.222 1356.33 364.837C1356.91 365.442 1357.2 366.238 1357.2 367.225C1357.2 368.221 1356.87 369.104 1356.23 369.876C1355.58 370.647 1354.65 371.243 1353.43 371.663C1352.21 372.083 1350.78 372.293 1349.12 372.293C1346.39 372.293 1344.29 371.956 1342.83 371.282V367.591C1343.67 367.981 1344.58 368.289 1345.58 368.514C1346.59 368.738 1347.56 368.851 1348.5 368.851C1349.95 368.851 1351.04 368.689 1351.76 368.367C1352.48 368.035 1352.85 367.566 1352.85 366.961C1352.85 366.297 1352.46 365.809 1351.7 365.496C1350.94 365.174 1349.77 365.013 1348.19 365.013H1346.46V361.922H1348.1ZM1371.1 372L1370.23 369.773H1370.12C1369.36 370.721 1368.59 371.38 1367.79 371.751C1367 372.112 1365.96 372.293 1364.68 372.293C1363.11 372.293 1361.87 371.844 1360.96 370.945C1360.06 370.047 1359.61 368.768 1359.61 367.107C1359.61 365.369 1360.22 364.09 1361.43 363.27C1362.65 362.439 1364.49 361.98 1366.94 361.893L1369.78 361.805V361.087C1369.78 359.427 1368.93 358.597 1367.23 358.597C1365.92 358.597 1364.38 358.992 1362.62 359.783L1361.14 356.766C1363.02 355.779 1365.11 355.286 1367.41 355.286C1369.6 355.286 1371.29 355.765 1372.46 356.722C1373.63 357.679 1374.22 359.134 1374.22 361.087V372H1371.1ZM1369.78 364.412L1368.05 364.471C1366.75 364.51 1365.79 364.744 1365.15 365.174C1364.52 365.604 1364.2 366.258 1364.2 367.137C1364.2 368.396 1364.92 369.026 1366.37 369.026C1367.4 369.026 1368.23 368.729 1368.84 368.133C1369.47 367.537 1369.78 366.746 1369.78 365.76V364.412ZM1389.57 355.623H1394.49L1388 363.475L1395.06 372H1389.99L1383.3 363.694V372H1378.83V355.623H1383.3V363.577L1389.57 355.623ZM1412.07 372H1407.6V358.978H1403.49C1403.17 362.64 1402.79 365.374 1402.34 367.181C1401.89 368.978 1401.29 370.281 1400.54 371.092C1399.8 371.893 1398.82 372.293 1397.61 372.293C1396.58 372.293 1395.73 372.137 1395.06 371.824V368.25C1395.54 368.445 1396.02 368.543 1396.5 368.543C1397.05 368.543 1397.52 368.143 1397.89 367.342C1398.27 366.541 1398.61 365.208 1398.9 363.343C1399.2 361.468 1399.46 358.895 1399.68 355.623H1412.07V372ZM1439.39 363.782C1439.39 366.468 1438.71 368.558 1437.35 370.052C1436 371.546 1434.12 372.293 1431.71 372.293C1429.55 372.293 1427.83 371.688 1426.53 370.477C1425.24 369.266 1424.46 367.522 1424.18 365.247H1421.24V372H1416.77V355.623H1421.24V361.922H1424.24C1424.53 359.832 1425.33 358.211 1426.66 357.059C1428 355.896 1429.71 355.315 1431.8 355.315C1434.12 355.315 1435.96 356.077 1437.32 357.601C1438.7 359.114 1439.39 361.175 1439.39 363.782ZM1428.68 363.782C1428.68 365.413 1428.92 366.644 1429.4 367.474C1429.88 368.294 1430.67 368.704 1431.77 368.704C1432.86 368.704 1433.64 368.294 1434.12 367.474C1434.59 366.644 1434.83 365.413 1434.83 363.782C1434.83 362.151 1434.59 360.936 1434.1 360.135C1433.62 359.324 1432.84 358.919 1431.74 358.919C1430.66 358.919 1429.88 359.324 1429.4 360.135C1428.92 360.945 1428.68 362.161 1428.68 363.782ZM1447.01 355.623V361.614C1447.01 363.04 1447.67 363.753 1448.98 363.753C1449.84 363.753 1450.64 363.655 1451.37 363.46C1452.11 363.265 1452.86 363.011 1453.61 362.698V355.623H1458.08V372H1453.61V365.496C1452.58 366.043 1451.62 366.429 1450.73 366.653C1449.84 366.878 1448.98 366.99 1448.15 366.99C1446.36 366.99 1444.98 366.536 1444 365.628C1443.03 364.71 1442.54 363.406 1442.54 361.717V355.623H1447.01ZM1469.55 358.494C1468.6 358.494 1467.86 358.797 1467.32 359.402C1466.79 359.998 1466.48 360.848 1466.4 361.951H1472.67C1472.65 360.848 1472.36 359.998 1471.81 359.402C1471.25 358.797 1470.5 358.494 1469.55 358.494ZM1470.18 372.293C1467.54 372.293 1465.48 371.565 1464 370.11C1462.51 368.655 1461.77 366.595 1461.77 363.929C1461.77 361.185 1462.46 359.065 1463.82 357.571C1465.2 356.067 1467.1 355.315 1469.52 355.315C1471.83 355.315 1473.64 355.975 1474.93 357.293C1476.21 358.611 1476.86 360.433 1476.86 362.757V364.925H1466.3C1466.35 366.194 1466.72 367.186 1467.43 367.898C1468.13 368.611 1469.12 368.968 1470.38 368.968C1471.37 368.968 1472.3 368.865 1473.18 368.66C1474.06 368.455 1474.98 368.128 1475.94 367.679V371.136C1475.16 371.526 1474.32 371.814 1473.43 372C1472.54 372.195 1471.46 372.293 1470.18 372.293ZM1484.96 355.623V361.922H1491.2V355.623H1495.67V372H1491.2V365.247H1484.96V372H1480.49V355.623H1484.96ZM1504.82 361.951H1506.98C1509.48 361.951 1511.33 362.352 1512.53 363.152C1513.73 363.953 1514.33 365.164 1514.33 366.785C1514.33 368.514 1513.73 369.817 1512.53 370.696C1511.33 371.565 1509.53 372 1507.14 372H1500.36V355.623H1504.82V361.951ZM1509.86 366.844C1509.86 366.209 1509.61 365.75 1509.1 365.467C1508.59 365.184 1507.84 365.042 1506.83 365.042H1504.82V368.909H1506.89C1508.87 368.909 1509.86 368.221 1509.86 366.844ZM1521.17 372H1516.7V355.623H1521.17V372Z" fill="white"/>
<path d="M882.014 342.432C882.167 342.315 882.303 342.177 882.418 342.022H889.445L889.542 342.019C890.04 341.994 890.538 341.994 891.037 342.019H891.141C892.702 342.016 894.245 342.365 895.656 343.041C898.234 344.062 900.463 345.815 902.075 348.088C903.295 349.809 904.125 351.78 904.506 353.862C904.887 355.943 904.81 358.084 904.28 360.132L895.28 351.165C894.895 350.782 894.376 350.567 893.834 350.567H880.818C880.37 350.569 879.935 350.717 879.576 350.988L874.408 354.944C874.13 355.158 873.813 355.314 873.476 355.404C873.138 355.494 872.786 355.516 872.44 355.469C872.094 355.422 871.761 355.306 871.459 355.128C871.158 354.951 870.894 354.715 870.683 354.434C870.472 354.158 870.318 353.843 870.229 353.506C870.141 353.17 870.119 352.819 870.165 352.474C870.211 352.129 870.324 351.796 870.498 351.496C870.673 351.195 870.904 350.932 871.179 350.722L882.014 342.432Z" fill="white"/>
<path d="M868.472 373.106L868.436 373.142L865.764 375.823L865.728 375.857C865.261 376.306 864.638 376.554 863.992 376.547C863.347 376.541 862.729 376.281 862.269 375.823C862.04 375.594 861.858 375.32 861.733 375.019C861.609 374.718 861.545 374.395 861.545 374.069C861.545 373.742 861.609 373.419 861.733 373.118C861.858 372.817 862.04 372.544 862.269 372.314L864.941 369.633C865.407 369.167 866.035 368.906 866.69 368.906C867.345 368.906 867.973 369.167 868.439 369.633C868.896 370.091 869.155 370.712 869.162 371.362C869.168 372.013 868.92 372.639 868.472 373.106Z" fill="white"/>
<path d="M867.676 377.809C867.228 378.277 866.981 378.903 866.987 379.553C866.994 380.204 867.254 380.825 867.712 381.283C868.677 382.252 870.241 382.252 871.209 381.283L873.881 378.604C874.141 378.345 874.339 378.03 874.463 377.683C874.586 377.336 874.631 376.966 874.594 376.599C874.557 376.232 874.44 375.878 874.25 375.563C874.06 375.249 873.803 374.981 873.497 374.779C873.028 374.468 872.469 374.326 871.91 374.376C871.351 374.426 870.826 374.666 870.419 375.056L870.384 375.095L867.712 377.773L867.676 377.809Z" fill="white"/>
<path d="M861.894 365.273C862.123 365.502 862.305 365.776 862.43 366.077C862.554 366.378 862.618 366.701 862.618 367.027C862.618 367.354 862.554 367.677 862.43 367.978C862.305 368.279 862.123 368.552 861.894 368.782L859.225 371.463C858.759 371.93 858.13 372.191 857.474 372.191C856.819 372.191 856.19 371.93 855.724 371.463C855.495 371.234 855.313 370.96 855.188 370.659C855.064 370.358 855 370.035 855 369.709C855 369.382 855.064 369.059 855.188 368.758C855.313 368.457 855.495 368.184 855.724 367.954L858.399 365.273C858.864 364.807 859.493 364.546 860.148 364.546C860.802 364.546 861.428 364.807 861.894 365.273Z" fill="white"/>
<path d="M879.323 380.554C879.553 380.784 879.735 381.057 879.859 381.359C879.984 381.66 880.048 381.983 880.048 382.309C880.048 382.635 879.984 382.958 879.859 383.26C879.735 383.561 879.553 383.834 879.323 384.064L876.652 386.745C876.188 387.213 875.559 387.476 874.903 387.476C874.247 387.476 873.618 387.213 873.154 386.745C872.79 386.38 872.548 385.909 872.463 385.398C872.379 384.887 872.455 384.362 872.682 383.898L872.685 383.892C872.805 383.649 872.963 383.427 873.154 383.236L875.826 380.554C876.291 380.089 876.92 379.828 877.575 379.828C878.23 379.828 878.858 380.089 879.323 380.554Z" fill="white"/>
<path d="M861.466 347.055C863.287 345.228 865.496 343.842 867.925 343.003C870.354 342.164 872.94 341.893 875.488 342.21L868.694 347.412C867.986 347.953 867.392 348.629 866.944 349.403C866.497 350.176 866.205 351.031 866.086 351.919C865.968 352.807 866.024 353.709 866.252 354.575C866.48 355.441 866.875 356.252 867.415 356.963C868.506 358.398 870.114 359.339 871.889 359.582C873.664 359.824 875.462 359.348 876.89 358.256L881.51 354.725H892.99L902.61 364.309C902.641 364.347 902.674 364.384 902.708 364.42L905.863 367.605C906.573 368.331 906.979 369.305 906.999 370.325C907.019 371.346 906.651 372.335 905.97 373.089C905.289 373.843 904.348 374.305 903.34 374.379C902.332 374.453 901.334 374.135 900.552 373.488L900.289 373.222C900.238 373.17 900.183 373.122 900.124 373.078L897.126 370.054C897 369.921 896.848 369.816 896.681 369.743C896.514 369.671 896.334 369.632 896.152 369.631C895.969 369.629 895.789 369.664 895.62 369.734C895.452 369.804 895.299 369.906 895.17 370.036C895.041 370.166 894.939 370.321 894.87 370.491C894.801 370.661 894.767 370.844 894.768 371.028C894.77 371.212 894.808 371.393 894.879 371.562C894.951 371.731 895.056 371.884 895.187 372.012L898.341 375.197C898.457 375.311 898.572 375.422 898.693 375.527L898.813 375.649C899.299 376.186 899.56 376.891 899.544 377.618C899.528 378.345 899.234 379.037 898.725 379.551C898.216 380.065 897.53 380.362 896.81 380.378C896.091 380.395 895.392 380.13 894.86 379.64L894.394 379.172C894.201 378.977 893.954 378.845 893.686 378.793C893.417 378.741 893.14 378.77 892.888 378.878C892.637 378.986 892.423 379.168 892.275 379.399C892.126 379.631 892.049 379.902 892.054 380.178C892.05 380.365 892.084 380.551 892.153 380.725C892.222 380.899 892.326 381.057 892.457 381.189L893.069 381.806C893.321 382.046 893.523 382.334 893.663 382.654C893.802 382.974 893.877 383.319 893.882 383.669C893.888 384.018 893.823 384.365 893.693 384.689C893.563 385.013 893.37 385.308 893.125 385.555C892.88 385.802 892.589 385.997 892.268 386.129C891.947 386.26 891.603 386.325 891.257 386.32C890.911 386.315 890.569 386.239 890.252 386.098C889.935 385.957 889.65 385.753 889.413 385.499H889.407L889.377 385.463L888.801 384.881C888.674 384.749 888.523 384.643 888.356 384.571C888.188 384.498 888.008 384.46 887.826 384.458C887.644 384.457 887.464 384.492 887.295 384.561C887.126 384.631 886.973 384.734 886.844 384.864C886.716 384.994 886.614 385.148 886.545 385.319C886.476 385.489 886.441 385.671 886.443 385.855C886.444 386.039 886.482 386.221 886.554 386.39C886.626 386.559 886.73 386.712 886.861 386.839L887.459 387.446C887.706 387.691 887.902 387.984 888.036 388.306C888.17 388.628 888.241 388.973 888.243 389.323C888.245 389.672 888.179 390.018 888.049 390.342C887.918 390.666 887.726 390.96 887.483 391.209C887.24 391.457 886.95 391.655 886.631 391.791C886.313 391.927 885.97 391.998 885.624 392C885.278 392.002 884.935 391.935 884.615 391.804C884.294 391.672 884.002 391.478 883.756 391.232L879.831 387.465L881.268 386.019C881.753 385.534 882.138 384.957 882.4 384.321C882.663 383.685 882.798 383.002 882.798 382.313C882.798 381.624 882.663 380.942 882.4 380.306C882.138 379.67 881.753 379.092 881.268 378.607C880.756 378.092 880.143 377.69 879.469 377.426C878.794 377.163 878.073 377.043 877.351 377.075C877.383 376.348 877.264 375.623 877.001 374.945C876.738 374.268 876.338 373.654 875.826 373.142C875.313 372.628 874.7 372.226 874.026 371.963C873.352 371.7 872.631 371.581 871.909 371.613C871.94 370.887 871.821 370.162 871.558 369.485C871.295 368.808 870.895 368.194 870.384 367.682C869.732 367.029 868.922 366.559 868.034 366.321C867.146 366.083 866.212 366.084 865.325 366.325C865.172 365.186 864.65 364.131 863.841 363.323C862.939 362.419 861.743 361.877 860.474 361.797C859.206 361.716 857.952 362.103 856.945 362.885C856.297 360.077 856.373 357.148 857.164 354.377C857.956 351.606 859.436 349.084 861.466 347.055Z" fill="white"/>
<path d="M931.725 761.287H919.693V782H899.049V761.287H856.393V746.59L900.211 682.059H919.693V744.881H931.725V761.287ZM899.049 744.881V727.928C899.049 725.102 899.163 721.001 899.391 715.623C899.618 710.245 899.801 707.124 899.938 706.258H899.391C897.704 709.995 895.676 713.641 893.307 717.195L874.986 744.881H899.049ZM1008.9 732.029C1008.9 749.484 1006.03 762.404 1000.29 770.789C994.592 779.174 985.797 783.367 973.902 783.367C962.372 783.367 953.668 779.038 947.789 770.379C941.956 761.72 939.039 748.937 939.039 732.029C939.039 714.393 941.887 701.404 947.584 693.064C953.281 684.679 962.053 680.486 973.902 680.486C985.432 680.486 994.137 684.861 1000.02 693.611C1005.94 702.361 1008.9 715.167 1008.9 732.029ZM960.025 732.029C960.025 744.288 961.074 753.084 963.17 758.416C965.312 763.702 968.889 766.346 973.902 766.346C978.824 766.346 982.379 763.657 984.566 758.279C986.754 752.902 987.848 744.152 987.848 732.029C987.848 719.77 986.731 710.975 984.498 705.643C982.311 700.265 978.779 697.576 973.902 697.576C968.935 697.576 965.38 700.265 963.238 705.643C961.096 710.975 960.025 719.77 960.025 732.029Z" fill="white"/>
<path d="M957.644 632H953.117V614.363H945.236V632H940.695V610.584H957.644V632ZM971.691 632.293C969.768 632.293 968.259 631.595 967.165 630.198H966.931C967.087 631.565 967.165 632.356 967.165 632.571V639.207H962.697V615.623H966.33L966.96 617.747H967.165C968.21 616.126 969.758 615.315 971.809 615.315C973.742 615.315 975.256 616.062 976.35 617.557C977.443 619.051 977.99 621.126 977.99 623.782C977.99 625.53 977.731 627.049 977.214 628.338C976.706 629.627 975.979 630.608 975.031 631.282C974.084 631.956 972.971 632.293 971.691 632.293ZM970.373 618.89C969.27 618.89 968.464 619.231 967.956 619.915C967.448 620.589 967.185 621.707 967.165 623.27V623.753C967.165 625.511 967.424 626.771 967.941 627.532C968.469 628.294 969.299 628.675 970.432 628.675C972.434 628.675 973.435 627.024 973.435 623.724C973.435 622.112 973.186 620.906 972.688 620.105C972.199 619.295 971.428 618.89 970.373 618.89ZM985.241 623.782C985.241 625.403 985.505 626.629 986.032 627.459C986.569 628.289 987.438 628.704 988.64 628.704C989.831 628.704 990.686 628.294 991.203 627.474C991.73 626.644 991.994 625.413 991.994 623.782C991.994 622.161 991.73 620.945 991.203 620.135C990.676 619.324 989.812 618.919 988.61 618.919C987.419 618.919 986.56 619.324 986.032 620.135C985.505 620.936 985.241 622.151 985.241 623.782ZM996.564 623.782C996.564 626.448 995.861 628.533 994.455 630.037C993.049 631.541 991.091 632.293 988.581 632.293C987.009 632.293 985.622 631.951 984.421 631.268C983.22 630.574 982.297 629.583 981.652 628.294C981.008 627.005 980.686 625.501 980.686 623.782C980.686 621.106 981.384 619.026 982.78 617.542C984.177 616.058 986.14 615.315 988.669 615.315C990.241 615.315 991.628 615.657 992.829 616.341C994.03 617.024 994.953 618.006 995.598 619.285C996.242 620.564 996.564 622.063 996.564 623.782ZM1007.04 618.494C1006.09 618.494 1005.35 618.797 1004.81 619.402C1004.27 619.998 1003.97 620.848 1003.89 621.951H1010.16C1010.14 620.848 1009.85 619.998 1009.29 619.402C1008.74 618.797 1007.99 618.494 1007.04 618.494ZM1007.67 632.293C1005.03 632.293 1002.97 631.565 1001.49 630.11C1000 628.655 999.26 626.595 999.26 623.929C999.26 621.185 999.943 619.065 1001.31 617.571C1002.69 616.067 1004.59 615.315 1007.01 615.315C1009.32 615.315 1011.12 615.975 1012.41 617.293C1013.7 618.611 1014.35 620.433 1014.35 622.757V624.925H1003.79C1003.83 626.194 1004.21 627.186 1004.91 627.898C1005.62 628.611 1006.6 628.968 1007.87 628.968C1008.86 628.968 1009.79 628.865 1010.67 628.66C1011.55 628.455 1012.47 628.128 1013.42 627.679V631.136C1012.64 631.526 1011.81 631.814 1010.92 632C1010.03 632.195 1008.95 632.293 1007.67 632.293ZM1028.72 615.623H1033.64L1027.15 623.475L1034.21 632H1029.14L1022.45 623.694V632H1017.98V615.623H1022.45V623.577L1028.72 615.623ZM1050.1 615.623V618.978H1044.74V632H1040.28V618.978H1034.9V615.623H1050.1ZM1057.63 621.951H1059.79C1062.29 621.951 1064.14 622.352 1065.34 623.152C1066.54 623.953 1067.14 625.164 1067.14 626.785C1067.14 628.514 1066.54 629.817 1065.34 630.696C1064.14 631.565 1062.34 632 1059.95 632H1053.17V615.623H1057.63V621.951ZM1062.67 626.844C1062.67 626.209 1062.42 625.75 1061.91 625.467C1061.4 625.184 1060.65 625.042 1059.64 625.042H1057.63V628.909H1059.7C1061.68 628.909 1062.67 628.221 1062.67 626.844ZM1073.98 632H1069.51V615.623H1073.98V632ZM1093.13 632.293C1088.03 632.293 1085.48 629.495 1085.48 623.899C1085.48 621.116 1086.17 618.992 1087.56 617.527C1088.95 616.053 1090.93 615.315 1093.52 615.315C1095.42 615.315 1097.12 615.687 1098.62 616.429L1097.3 619.886C1096.6 619.603 1095.94 619.373 1095.34 619.197C1094.73 619.012 1094.13 618.919 1093.52 618.919C1091.2 618.919 1090.04 620.569 1090.04 623.87C1090.04 627.073 1091.2 628.675 1093.52 628.675C1094.38 628.675 1095.18 628.562 1095.91 628.338C1096.64 628.104 1097.38 627.742 1098.11 627.254V631.077C1097.38 631.536 1096.65 631.854 1095.91 632.029C1095.18 632.205 1094.25 632.293 1093.13 632.293ZM1105.48 623.782C1105.48 625.403 1105.74 626.629 1106.27 627.459C1106.8 628.289 1107.67 628.704 1108.87 628.704C1110.07 628.704 1110.92 628.294 1111.44 627.474C1111.96 626.644 1112.23 625.413 1112.23 623.782C1112.23 622.161 1111.96 620.945 1111.44 620.135C1110.91 619.324 1110.05 618.919 1108.84 618.919C1107.65 618.919 1106.79 619.324 1106.27 620.135C1105.74 620.936 1105.48 622.151 1105.48 623.782ZM1116.8 623.782C1116.8 626.448 1116.1 628.533 1114.69 630.037C1113.28 631.541 1111.33 632.293 1108.82 632.293C1107.24 632.293 1105.86 631.951 1104.66 631.268C1103.45 630.574 1102.53 629.583 1101.89 628.294C1101.24 627.005 1100.92 625.501 1100.92 623.782C1100.92 621.106 1101.62 619.026 1103.01 617.542C1104.41 616.058 1106.37 615.315 1108.9 615.315C1110.48 615.315 1111.86 615.657 1113.06 616.341C1114.26 617.024 1115.19 618.006 1115.83 619.285C1116.48 620.564 1116.8 622.063 1116.8 623.782ZM1134.93 632.293C1129.84 632.293 1127.29 629.495 1127.29 623.899C1127.29 621.116 1127.98 618.992 1129.37 617.527C1130.75 616.053 1132.74 615.315 1135.33 615.315C1137.22 615.315 1138.92 615.687 1140.43 616.429L1139.11 619.886C1138.41 619.603 1137.75 619.373 1137.15 619.197C1136.54 619.012 1135.93 618.919 1135.33 618.919C1133 618.919 1131.84 620.569 1131.84 623.87C1131.84 627.073 1133 628.675 1135.33 628.675C1136.19 628.675 1136.98 628.562 1137.72 628.338C1138.45 628.104 1139.18 627.742 1139.91 627.254V631.077C1139.19 631.536 1138.46 631.854 1137.72 632.029C1136.98 632.205 1136.06 632.293 1134.93 632.293ZM1157.27 615.623V618.978H1151.91V632H1147.44V618.978H1142.07V615.623H1157.27ZM1170.73 632L1169.87 629.773H1169.75C1169 630.721 1168.22 631.38 1167.42 631.751C1166.63 632.112 1165.6 632.293 1164.32 632.293C1162.75 632.293 1161.51 631.844 1160.6 630.945C1159.7 630.047 1159.25 628.768 1159.25 627.107C1159.25 625.369 1159.86 624.09 1161.07 623.27C1162.29 622.439 1164.12 621.98 1166.57 621.893L1169.42 621.805V621.087C1169.42 619.427 1168.57 618.597 1166.87 618.597C1165.56 618.597 1164.02 618.992 1162.25 619.783L1160.77 616.766C1162.66 615.779 1164.75 615.286 1167.04 615.286C1169.24 615.286 1170.92 615.765 1172.1 616.722C1173.27 617.679 1173.85 619.134 1173.85 621.087V632H1170.73ZM1169.42 624.412L1167.69 624.471C1166.39 624.51 1165.42 624.744 1164.79 625.174C1164.15 625.604 1163.83 626.258 1163.83 627.137C1163.83 628.396 1164.56 629.026 1166 629.026C1167.04 629.026 1167.86 628.729 1168.48 628.133C1169.1 627.537 1169.42 626.746 1169.42 625.76V624.412ZM1192.02 615.623V618.978H1186.66V632H1182.19V618.978H1176.81V615.623H1192.02ZM1192.74 615.623H1197.63L1200.72 624.837C1200.98 625.638 1201.16 626.585 1201.26 627.679H1201.35C1201.46 626.673 1201.67 625.726 1201.98 624.837L1205.01 615.623H1209.8L1202.87 634.095C1202.24 635.804 1201.33 637.083 1200.15 637.933C1198.98 638.782 1197.6 639.207 1196.03 639.207C1195.26 639.207 1194.5 639.124 1193.76 638.958V635.413C1194.3 635.54 1194.88 635.604 1195.52 635.604C1196.31 635.604 1197 635.359 1197.58 634.871C1198.18 634.393 1198.64 633.665 1198.98 632.688L1199.24 631.883L1192.74 615.623ZM1218.81 632.293C1213.71 632.293 1211.16 629.495 1211.16 623.899C1211.16 621.116 1211.86 618.992 1213.24 617.527C1214.63 616.053 1216.62 615.315 1219.21 615.315C1221.1 615.315 1222.8 615.687 1224.3 616.429L1222.99 619.886C1222.28 619.603 1221.63 619.373 1221.02 619.197C1220.42 619.012 1219.81 618.919 1219.21 618.919C1216.88 618.919 1215.72 620.569 1215.72 623.87C1215.72 627.073 1216.88 628.675 1219.21 628.675C1220.07 628.675 1220.86 628.562 1221.59 628.338C1222.33 628.104 1223.06 627.742 1223.79 627.254V631.077C1223.07 631.536 1222.34 631.854 1221.59 632.029C1220.86 632.205 1219.93 632.293 1218.81 632.293ZM1231.16 623.782C1231.16 625.403 1231.42 626.629 1231.95 627.459C1232.49 628.289 1233.36 628.704 1234.56 628.704C1235.75 628.704 1236.6 628.294 1237.12 627.474C1237.65 626.644 1237.91 625.413 1237.91 623.782C1237.91 622.161 1237.65 620.945 1237.12 620.135C1236.59 619.324 1235.73 618.919 1234.53 618.919C1233.34 618.919 1232.48 619.324 1231.95 620.135C1231.42 620.936 1231.16 622.151 1231.16 623.782ZM1242.48 623.782C1242.48 626.448 1241.78 628.533 1240.37 630.037C1238.97 631.541 1237.01 632.293 1234.5 632.293C1232.93 632.293 1231.54 631.951 1230.34 631.268C1229.14 630.574 1228.21 629.583 1227.57 628.294C1226.93 627.005 1226.6 625.501 1226.6 623.782C1226.6 621.106 1227.3 619.026 1228.7 617.542C1230.09 616.058 1232.06 615.315 1234.59 615.315C1236.16 615.315 1237.55 615.657 1238.75 616.341C1239.95 617.024 1240.87 618.006 1241.52 619.285C1242.16 620.564 1242.48 622.063 1242.48 623.782ZM1266.81 632H1262.64V619.095L1262.4 620.003C1261.88 622.063 1261.4 623.621 1260.98 624.676L1258.08 632H1254.9L1251.96 624.617C1251.54 623.543 1251.09 622.034 1250.61 620.091L1250.33 619.095V632H1246.17V615.623H1252.33L1255.14 622.61C1255.43 623.362 1255.7 624.227 1255.94 625.203C1256.2 626.18 1256.37 627.015 1256.46 627.708C1256.78 626.243 1257.03 625.193 1257.2 624.559C1257.39 623.914 1257.59 623.323 1257.8 622.786C1258.02 622.249 1258.99 619.861 1260.72 615.623H1266.81V632ZM1296.61 632H1292.08V614.363H1284.2V632H1279.66V610.584H1296.61V632ZM1302.01 610.584H1306.1V620.926L1306.04 623.694L1305.9 626.844H1305.98L1315.87 610.584H1321.31V632H1317.26V621.717C1317.26 620.34 1317.35 618.299 1317.53 615.594H1317.41L1307.48 632H1302.01V610.584ZM1343.66 632H1339.13V614.363H1331.25V632H1326.71V610.584H1343.66V632Z" fill="white"/>
<path fill-rule="evenodd" clip-rule="evenodd" d="M861.648 602H907.34C911.012 602 913.988 604.943 914 608.576V631.424C914 635.057 911.023 638 907.352 638H861.648C857.977 638 855 635.057 855 631.436V608.576C855 604.943 857.977 602 861.648 602ZM873.227 627H869.34L871.707 615.314H868.27L865.883 627H862L865.07 612H876.305L873.227 627ZM879.594 612H883.129L881.828 618.279L881.707 618.873L881.547 619.568L881.348 620.375C881.227 620.85 881.09 621.369 880.934 621.932H881.012L887.609 612H892.469L889.398 627H885.859L887.121 620.783C887.211 620.311 887.316 619.805 887.441 619.266C887.609 618.523 887.809 617.721 888.035 616.854H887.957L881.379 627H876.523L879.594 612ZM900.035 627H903.922L907 612H895.766L892.695 627H896.578L898.965 615.314H902.402L900.035 627Z" fill="white"/>
<path d="M0 305H795V825H0V305Z" fill="#C4C4C4" fill-opacity="0.05"/>
<path d="M174.664 717H132.418V601.336L132.828 582.332L133.512 561.551C126.493 568.569 121.617 573.172 118.883 575.359L95.9141 593.816L75.543 568.387L139.938 517.117H174.664V717ZM374.41 675.574H350.348V717H309.059V675.574H223.746V646.18L311.383 517.117H350.348V642.762H374.41V675.574ZM309.059 642.762V608.855C309.059 603.204 309.286 595.001 309.742 584.246C310.198 573.491 310.562 567.247 310.836 565.516H309.742C306.37 572.99 302.314 580.281 297.574 587.391L260.934 642.762H309.059ZM388.766 632.098C388.766 592.54 397.105 563.1 413.785 543.777C430.556 524.454 455.621 514.793 488.98 514.793C500.374 514.793 509.306 515.477 515.777 516.844V550.613C507.665 548.79 499.645 547.879 491.715 547.879C477.223 547.879 465.374 550.066 456.168 554.441C447.053 558.816 440.217 565.288 435.66 573.855C431.103 582.423 428.414 594.591 427.594 610.359H429.371C438.395 594.865 452.841 587.117 472.711 587.117C490.576 587.117 504.566 592.723 514.684 603.934C524.801 615.145 529.859 630.639 529.859 650.418C529.859 671.746 523.844 688.654 511.812 701.141C499.781 713.536 483.102 719.734 461.773 719.734C447.008 719.734 434.111 716.316 423.082 709.48C412.145 702.645 403.668 692.664 397.652 679.539C391.728 666.414 388.766 650.6 388.766 632.098ZM460.953 685.965C469.977 685.965 476.904 682.957 481.734 676.941C486.565 670.835 488.98 662.176 488.98 650.965C488.98 641.212 486.702 633.556 482.145 627.996C477.678 622.345 470.888 619.52 461.773 619.52C453.206 619.52 445.868 622.299 439.762 627.859C433.746 633.419 430.738 639.891 430.738 647.273C430.738 658.12 433.564 667.28 439.215 674.754C444.957 682.228 452.203 685.965 460.953 685.965Z" fill="white"/>
<path d="M140.236 400.662H141.73C143.127 400.662 144.172 400.389 144.865 399.842C145.559 399.285 145.905 398.479 145.905 397.425C145.905 396.36 145.612 395.574 145.026 395.066C144.45 394.559 143.542 394.305 142.302 394.305H140.236V400.662ZM150.49 397.264C150.49 399.568 149.768 401.331 148.322 402.552C146.887 403.772 144.841 404.383 142.185 404.383H140.236V412H135.695V390.584H142.536C145.134 390.584 147.106 391.146 148.454 392.269C149.812 393.382 150.49 395.047 150.49 397.264ZM164.582 412L163.718 409.773H163.601C162.849 410.721 162.072 411.38 161.271 411.751C160.48 412.112 159.445 412.293 158.166 412.293C156.594 412.293 155.354 411.844 154.445 410.945C153.547 410.047 153.098 408.768 153.098 407.107C153.098 405.369 153.703 404.09 154.914 403.27C156.135 402.439 157.971 401.98 160.422 401.893L163.264 401.805V401.087C163.264 399.427 162.414 398.597 160.715 398.597C159.406 398.597 157.868 398.992 156.101 399.783L154.621 396.766C156.506 395.779 158.596 395.286 160.891 395.286C163.088 395.286 164.772 395.765 165.944 396.722C167.116 397.679 167.702 399.134 167.702 401.087V412H164.582ZM163.264 404.412L161.535 404.471C160.236 404.51 159.27 404.744 158.635 405.174C158 405.604 157.683 406.258 157.683 407.137C157.683 408.396 158.405 409.026 159.851 409.026C160.886 409.026 161.711 408.729 162.326 408.133C162.951 407.537 163.264 406.746 163.264 405.76V404.412ZM178.967 412.293C173.869 412.293 171.32 409.495 171.32 403.899C171.32 401.116 172.014 398.992 173.4 397.527C174.787 396.053 176.774 395.315 179.362 395.315C181.257 395.315 182.956 395.687 184.46 396.429L183.142 399.886C182.438 399.603 181.784 399.373 181.179 399.197C180.573 399.012 179.968 398.919 179.362 398.919C177.038 398.919 175.876 400.569 175.876 403.87C175.876 407.073 177.038 408.675 179.362 408.675C180.222 408.675 181.018 408.562 181.75 408.338C182.482 408.104 183.215 407.742 183.947 407.254V411.077C183.225 411.536 182.492 411.854 181.75 412.029C181.018 412.205 180.09 412.293 178.967 412.293ZM194.406 412.293C189.309 412.293 186.76 409.495 186.76 403.899C186.76 401.116 187.453 398.992 188.84 397.527C190.227 396.053 192.214 395.315 194.802 395.315C196.696 395.315 198.396 395.687 199.899 396.429L198.581 399.886C197.878 399.603 197.224 399.373 196.618 399.197C196.013 399.012 195.407 398.919 194.802 398.919C192.478 398.919 191.315 400.569 191.315 403.87C191.315 407.073 192.478 408.675 194.802 408.675C195.661 408.675 196.457 408.562 197.189 408.338C197.922 408.104 198.654 407.742 199.387 407.254V411.077C198.664 411.536 197.932 411.854 197.189 412.029C196.457 412.205 195.529 412.293 194.406 412.293ZM223.835 412H219.66V399.095L219.426 400.003C218.898 402.063 218.425 403.621 218.005 404.676L215.104 412H211.926L208.981 404.617C208.562 403.543 208.112 402.034 207.634 400.091L207.355 399.095V412H203.195V395.623H209.348L212.16 402.61C212.453 403.362 212.722 404.227 212.966 405.203C213.22 406.18 213.391 407.015 213.479 407.708C213.801 406.243 214.05 405.193 214.226 404.559C214.411 403.914 214.611 403.323 214.826 402.786C215.041 402.249 216.013 399.861 217.741 395.623H223.835V412ZM232.097 403.782C232.097 405.403 232.36 406.629 232.888 407.459C233.425 408.289 234.294 408.704 235.495 408.704C236.687 408.704 237.541 408.294 238.059 407.474C238.586 406.644 238.85 405.413 238.85 403.782C238.85 402.161 238.586 400.945 238.059 400.135C237.531 399.324 236.667 398.919 235.466 398.919C234.274 398.919 233.415 399.324 232.888 400.135C232.36 400.936 232.097 402.151 232.097 403.782ZM243.42 403.782C243.42 406.448 242.717 408.533 241.311 410.037C239.904 411.541 237.946 412.293 235.437 412.293C233.864 412.293 232.478 411.951 231.276 411.268C230.075 410.574 229.152 409.583 228.508 408.294C227.863 407.005 227.541 405.501 227.541 403.782C227.541 401.106 228.239 399.026 229.636 397.542C231.032 396.058 232.995 395.315 235.524 395.315C237.097 395.315 238.483 395.657 239.685 396.341C240.886 397.024 241.809 398.006 242.453 399.285C243.098 400.564 243.42 402.063 243.42 403.782ZM260.661 395.623V398.978H255.3V412H250.832V398.978H245.456V395.623H260.661ZM272.717 412.293C270.793 412.293 269.284 411.595 268.19 410.198H267.956C268.112 411.565 268.19 412.356 268.19 412.571V419.207H263.723V395.623H267.355L267.985 397.747H268.19C269.235 396.126 270.783 395.315 272.834 395.315C274.768 395.315 276.281 396.062 277.375 397.557C278.469 399.051 279.016 401.126 279.016 403.782C279.016 405.53 278.757 407.049 278.239 408.338C277.731 409.627 277.004 410.608 276.057 411.282C275.109 411.956 273.996 412.293 272.717 412.293ZM271.398 398.89C270.295 398.89 269.489 399.231 268.981 399.915C268.474 400.589 268.21 401.707 268.19 403.27V403.753C268.19 405.511 268.449 406.771 268.967 407.532C269.494 408.294 270.324 408.675 271.457 408.675C273.459 408.675 274.46 407.024 274.46 403.724C274.46 402.112 274.211 400.906 273.713 400.105C273.225 399.295 272.453 398.89 271.398 398.89ZM289.489 398.494C288.542 398.494 287.8 398.797 287.263 399.402C286.726 399.998 286.418 400.848 286.34 401.951H292.609C292.59 400.848 292.302 399.998 291.745 399.402C291.188 398.797 290.437 398.494 289.489 398.494ZM290.119 412.293C287.482 412.293 285.422 411.565 283.938 410.11C282.453 408.655 281.711 406.595 281.711 403.929C281.711 401.185 282.395 399.065 283.762 397.571C285.139 396.067 287.038 395.315 289.46 395.315C291.774 395.315 293.576 395.975 294.865 397.293C296.154 398.611 296.799 400.433 296.799 402.757V404.925H286.237C286.286 406.194 286.662 407.186 287.365 407.898C288.068 408.611 289.055 408.968 290.324 408.968C291.311 408.968 292.243 408.865 293.122 408.66C294.001 408.455 294.919 408.128 295.876 407.679V411.136C295.095 411.526 294.26 411.814 293.371 412C292.482 412.195 291.398 412.293 290.119 412.293ZM304.899 395.623V401.922H311.14V395.623H315.607V412H311.14V405.247H304.899V412H300.432V395.623H304.899ZM323.854 403.782C323.854 405.403 324.118 406.629 324.646 407.459C325.183 408.289 326.052 408.704 327.253 408.704C328.444 408.704 329.299 408.294 329.816 407.474C330.344 406.644 330.607 405.413 330.607 403.782C330.607 402.161 330.344 400.945 329.816 400.135C329.289 399.324 328.425 398.919 327.224 398.919C326.032 398.919 325.173 399.324 324.646 400.135C324.118 400.936 323.854 402.151 323.854 403.782ZM335.178 403.782C335.178 406.448 334.475 408.533 333.068 410.037C331.662 411.541 329.704 412.293 327.194 412.293C325.622 412.293 324.235 411.951 323.034 411.268C321.833 410.574 320.91 409.583 320.266 408.294C319.621 407.005 319.299 405.501 319.299 403.782C319.299 401.106 319.997 399.026 321.394 397.542C322.79 396.058 324.753 395.315 327.282 395.315C328.854 395.315 330.241 395.657 331.442 396.341C332.644 397.024 333.566 398.006 334.211 399.285C334.855 400.564 335.178 402.063 335.178 403.782ZM361.545 395.623V412H357.062V398.978H351.13V412H346.662V395.623H361.545ZM375.227 412.293C373.303 412.293 371.794 411.595 370.7 410.198H370.466C370.622 411.565 370.7 412.356 370.7 412.571V419.207H366.232V395.623H369.865L370.495 397.747H370.7C371.745 396.126 373.293 395.315 375.344 395.315C377.277 395.315 378.791 396.062 379.885 397.557C380.979 399.051 381.525 401.126 381.525 403.782C381.525 405.53 381.267 407.049 380.749 408.338C380.241 409.627 379.514 410.608 378.566 411.282C377.619 411.956 376.506 412.293 375.227 412.293ZM373.908 398.89C372.805 398.89 371.999 399.231 371.491 399.915C370.983 400.589 370.72 401.707 370.7 403.27V403.753C370.7 405.511 370.959 406.771 371.477 407.532C372.004 408.294 372.834 408.675 373.967 408.675C375.969 408.675 376.97 407.024 376.97 403.724C376.97 402.112 376.721 400.906 376.223 400.105C375.734 399.295 374.963 398.89 373.908 398.89ZM388.776 403.782C388.776 405.403 389.04 406.629 389.567 407.459C390.104 408.289 390.974 408.704 392.175 408.704C393.366 408.704 394.221 408.294 394.738 407.474C395.266 406.644 395.529 405.413 395.529 403.782C395.529 402.161 395.266 400.945 394.738 400.135C394.211 399.324 393.347 398.919 392.146 398.919C390.954 398.919 390.095 399.324 389.567 400.135C389.04 400.936 388.776 402.151 388.776 403.782ZM400.1 403.782C400.1 406.448 399.396 408.533 397.99 410.037C396.584 411.541 394.626 412.293 392.116 412.293C390.544 412.293 389.157 411.951 387.956 411.268C386.755 410.574 385.832 409.583 385.188 408.294C384.543 407.005 384.221 405.501 384.221 403.782C384.221 401.106 384.919 399.026 386.315 397.542C387.712 396.058 389.675 395.315 392.204 395.315C393.776 395.315 395.163 395.657 396.364 396.341C397.565 397.024 398.488 398.006 399.133 399.285C399.777 400.564 400.1 402.063 400.1 403.782ZM410.573 398.494C409.626 398.494 408.884 398.797 408.347 399.402C407.81 399.998 407.502 400.848 407.424 401.951H413.693C413.674 400.848 413.386 399.998 412.829 399.402C412.272 398.797 411.521 398.494 410.573 398.494ZM411.203 412.293C408.566 412.293 406.506 411.565 405.021 410.11C403.537 408.655 402.795 406.595 402.795 403.929C402.795 401.185 403.479 399.065 404.846 397.571C406.223 396.067 408.122 395.315 410.544 395.315C412.858 395.315 414.66 395.975 415.949 397.293C417.238 398.611 417.883 400.433 417.883 402.757V404.925H407.321C407.37 406.194 407.746 407.186 408.449 407.898C409.152 408.611 410.139 408.968 411.408 408.968C412.395 408.968 413.327 408.865 414.206 408.66C415.085 408.455 416.003 408.128 416.96 407.679V411.136C416.179 411.526 415.344 411.814 414.455 412C413.566 412.195 412.482 412.293 411.203 412.293ZM432.253 395.623H437.175L430.686 403.475L437.746 412H432.678L425.983 403.694V412H421.516V395.623H425.983V403.577L432.253 395.623ZM453.64 395.623V398.978H448.278V412H443.811V398.978H438.435V395.623H453.64ZM460.261 403.782C460.261 405.403 460.524 406.629 461.052 407.459C461.589 408.289 462.458 408.704 463.659 408.704C464.851 408.704 465.705 408.294 466.223 407.474C466.75 406.644 467.014 405.413 467.014 403.782C467.014 402.161 466.75 400.945 466.223 400.135C465.695 399.324 464.831 398.919 463.63 398.919C462.438 398.919 461.579 399.324 461.052 400.135C460.524 400.936 460.261 402.151 460.261 403.782ZM471.584 403.782C471.584 406.448 470.881 408.533 469.475 410.037C468.068 411.541 466.11 412.293 463.601 412.293C462.028 412.293 460.642 411.951 459.44 411.268C458.239 410.574 457.316 409.583 456.672 408.294C456.027 407.005 455.705 405.501 455.705 403.782C455.705 401.106 456.403 399.026 457.8 397.542C459.196 396.058 461.159 395.315 463.688 395.315C465.261 395.315 466.647 395.657 467.849 396.341C469.05 397.024 469.973 398.006 470.617 399.285C471.262 400.564 471.584 402.063 471.584 403.782ZM490.393 399.915C490.393 400.794 490.114 401.546 489.558 402.171C489.011 402.786 488.2 403.182 487.126 403.357V403.475C488.288 403.611 489.206 404.012 489.88 404.676C490.563 405.33 490.905 406.141 490.905 407.107C490.905 408.699 490.28 409.915 489.03 410.755C487.78 411.585 485.993 412 483.669 412H475.275V395.623H483.669C485.915 395.623 487.595 395.989 488.708 396.722C489.831 397.444 490.393 398.509 490.393 399.915ZM486.276 406.873C486.276 406.229 486.027 405.765 485.529 405.481C485.031 405.188 484.284 405.042 483.288 405.042H479.743V408.909H483.376C484.323 408.909 485.041 408.733 485.529 408.382C486.027 408.021 486.276 407.518 486.276 406.873ZM485.866 400.267C485.866 399.271 485.075 398.772 483.493 398.772H479.743V402.01H482.98C483.928 402.01 484.646 401.873 485.134 401.6C485.622 401.326 485.866 400.882 485.866 400.267Z" fill="white"/>
<path fill-rule="evenodd" clip-rule="evenodd" d="M59 375H79.8333V395.833H59V375ZM88.1667 375H109V395.833H88.1667V375ZM59 404.167H79.8333V425H59V404.167ZM88.1667 404.167H109V425H88.1667V404.167Z" fill="white"/>
<path d="M1590 564.999C986.751 564.999 1398.75 565.002 795.5 565.002" stroke="#275D81" stroke-width="2"/>
<path d="M795 825C795 197.67 795 824.999 795 304" stroke="#275D81" stroke-width="2"/>
<path d="M1590 305.001C986.751 305.001 603.249 305.002 0 305.002" stroke="#275D81" stroke-width="2"/>
<path d="M1320.99 231H1314.31V210.352L1313.94 211.805C1313.09 215.102 1312.34 217.594 1311.66 219.281L1307.02 231H1301.94L1297.23 219.188C1296.55 217.469 1295.84 215.055 1295.07 211.945L1294.62 210.352V231H1287.97V204.797H1297.81L1302.31 215.977C1302.78 217.18 1303.21 218.562 1303.6 220.125C1304.01 221.688 1304.28 223.023 1304.42 224.133C1304.94 221.789 1305.34 220.109 1305.62 219.094C1305.91 218.062 1306.23 217.117 1306.58 216.258C1306.92 215.398 1308.48 211.578 1311.24 204.797H1320.99V231ZM1351.98 231H1344.83V210.164H1338.24C1337.74 216.023 1337.13 220.398 1336.41 223.289C1335.7 226.164 1334.73 228.25 1333.53 229.547C1332.34 230.828 1330.78 231.469 1328.84 231.469C1327.19 231.469 1325.83 231.219 1324.77 230.719V225C1325.53 225.312 1326.3 225.469 1327.06 225.469C1327.95 225.469 1328.7 224.828 1329.29 223.547C1329.9 222.266 1330.44 220.133 1330.91 217.148C1331.39 214.148 1331.8 210.031 1332.15 204.797H1351.98V231ZM1366.65 204.797V214.875H1376.63V204.797H1383.78V231H1376.63V220.195H1366.65V231H1359.5V204.797H1366.65ZM1404.32 231V225.864H1400.48V221.208H1404.32V217.464H1400.48V211.512H1404.32V196.728H1415.26C1419.68 196.728 1422.9 197.624 1424.91 199.416C1426.96 201.208 1427.98 203.672 1427.98 206.808C1427.98 208.664 1427.57 210.408 1426.74 212.04C1425.9 213.672 1424.51 214.984 1422.56 215.976C1420.64 216.968 1418.02 217.464 1414.69 217.464H1411.57V221.208H1418.96V225.864H1411.57V231H1404.32ZM1413.97 211.512C1416.02 211.512 1417.63 211.16 1418.82 210.456C1420.03 209.752 1420.64 208.616 1420.64 207.048C1420.64 204.136 1418.72 202.68 1414.88 202.68H1411.57V211.512H1413.97Z" fill="white"/>
</svg>
