<svg width="1213" height="745" viewBox="0 0 1213 745" fill="none" xmlns="http://www.w3.org/2000/svg">
<path d="M35.7969 25.8203C35.7969 31.4922 34.3906 35.8516 31.5781 38.8984C28.7656 41.9453 24.7344 43.4688 19.4844 43.4688C14.2344 43.4688 10.2031 41.9453 7.39062 38.8984C4.57812 35.8516 3.17188 31.4766 3.17188 25.7734C3.17188 20.0703 4.57812 15.7188 7.39062 12.7188C10.2188 9.70312 14.2656 8.19531 19.5312 8.19531C24.7969 8.19531 28.8203 9.71094 31.6016 12.7422C34.3984 15.7734 35.7969 20.1328 35.7969 25.8203ZM10.7891 25.8203C10.7891 29.6484 11.5156 32.5312 12.9688 34.4688C14.4219 36.4062 16.5938 37.375 19.4844 37.375C25.2812 37.375 28.1797 33.5234 28.1797 25.8203C28.1797 18.1016 25.2969 14.2422 19.5312 14.2422C16.6406 14.2422 14.4609 15.2188 12.9922 17.1719C11.5234 19.1094 10.7891 21.9922 10.7891 25.8203ZM40.7422 27.2969C40.7422 21.2812 41.8828 16.7188 44.1641 13.6094C46.4609 10.4844 50.0391 8.50781 54.8984 7.67969C57.2578 7.27344 60.7812 6.75781 65.4688 6.13281L66.2891 12.3672C64.2578 12.6016 60.6562 13.1016 55.4844 13.8672C53.5156 14.1797 52.0469 14.6484 51.0781 15.2734C50.1094 15.8984 49.3828 16.7891 48.8984 17.9453C48.4297 19.1016 48.1406 20.6406 48.0312 22.5625H48.3828C49.2109 21.2812 50.3047 20.2969 51.6641 19.6094C53.0234 18.9219 54.4844 18.5781 56.0469 18.5781C59.2812 18.5781 61.7969 19.5703 63.5938 21.5547C65.3906 23.5234 66.2891 26.3516 66.2891 30.0391C66.2891 34.2891 65.1484 37.5938 62.8672 39.9531C60.6016 42.2969 57.4688 43.4688 53.4688 43.4688C49.4688 43.4688 46.3438 42.0391 44.0938 39.1797C41.8594 36.3047 40.7422 32.3438 40.7422 27.2969ZM53.8906 37.6797C57.2812 37.6797 58.9766 35.3438 58.9766 30.6719C58.9766 26.125 57.4453 23.8516 54.3828 23.8516C53.5391 23.8516 52.6953 24.0469 51.8516 24.4375C51.0234 24.8281 50.2578 25.3438 49.5547 25.9844C48.8672 26.6094 48.3594 27.2422 48.0312 27.8828C48.0312 31.0547 48.5391 33.4844 49.5547 35.1719C50.5703 36.8438 52.0156 37.6797 53.8906 37.6797ZM83.9609 16.7969V26.9219H89C93.0312 26.9219 96.0078 27.5625 97.9297 28.8438C99.8672 30.125 100.836 32.0625 100.836 34.6562C100.836 40.2188 96.9844 43 89.2812 43H76.7891V22.1641H68.4453V16.7969H83.9609ZM93.6875 34.75C93.6875 33.7344 93.2812 33 92.4688 32.5469C91.6719 32.0938 90.4609 31.8672 88.8359 31.8672H83.9609V38.0547H88.9297C92.1016 38.0547 93.6875 36.9531 93.6875 34.75ZM117.125 21.3906C115.609 21.3906 114.422 21.875 113.562 22.8438C112.703 23.7969 112.211 25.1562 112.086 26.9219H122.117C122.086 25.1562 121.625 23.7969 120.734 22.8438C119.844 21.875 118.641 21.3906 117.125 21.3906ZM118.133 43.4688C113.914 43.4688 110.617 42.3047 108.242 39.9766C105.867 37.6484 104.68 34.3516 104.68 30.0859C104.68 25.6953 105.773 22.3047 107.961 19.9141C110.164 17.5078 113.203 16.3047 117.078 16.3047C120.781 16.3047 123.664 17.3594 125.727 19.4688C127.789 21.5781 128.82 24.4922 128.82 28.2109V31.6797H111.922C112 33.7109 112.602 35.2969 113.727 36.4375C114.852 37.5781 116.43 38.1484 118.461 38.1484C120.039 38.1484 121.531 37.9844 122.938 37.6562C124.344 37.3281 125.812 36.8047 127.344 36.0859V41.6172C126.094 42.2422 124.758 42.7031 123.336 43C121.914 43.3125 120.18 43.4688 118.133 43.4688ZM109.109 10.0703C109.109 9.05469 109.398 8.27344 109.977 7.72656C110.57 7.17969 111.367 6.90625 112.367 6.90625C113.398 6.90625 114.203 7.19531 114.781 7.77344C115.375 8.35156 115.672 9.11719 115.672 10.0703C115.672 11.0078 115.375 11.7656 114.781 12.3438C114.188 12.9062 113.383 13.1875 112.367 13.1875C111.367 13.1875 110.57 12.9141 109.977 12.3672C109.398 11.8203 109.109 11.0547 109.109 10.0703ZM118.555 10.0703C118.555 8.97656 118.867 8.17969 119.492 7.67969C120.133 7.16406 120.922 6.90625 121.859 6.90625C122.875 6.90625 123.68 7.1875 124.273 7.75C124.883 8.3125 125.188 9.08594 125.188 10.0703C125.188 11.0234 124.883 11.7812 124.273 12.3438C123.664 12.9062 122.859 13.1875 121.859 13.1875C120.922 13.1875 120.133 12.9375 119.492 12.4375C118.867 11.9219 118.555 11.1328 118.555 10.0703ZM167.656 43H160.977V22.3516L160.602 23.8047C159.758 27.1016 159 29.5938 158.328 31.2812L153.688 43H148.602L143.891 31.1875C143.219 29.4688 142.5 27.0547 141.734 23.9453L141.289 22.3516V43H134.633V16.7969H144.477L148.977 27.9766C149.445 29.1797 149.875 30.5625 150.266 32.125C150.672 33.6875 150.945 35.0234 151.086 36.1328C151.602 33.7891 152 32.1094 152.281 31.0938C152.578 30.0625 152.898 29.1172 153.242 28.2578C153.586 27.3984 155.141 23.5781 157.906 16.7969H167.656V43ZM194.562 16.7969V27.1562C194.562 28.25 194.383 30.9219 194.023 35.1719L206.117 16.7969H214.719V43H207.805V32.5469C207.805 30.6875 207.961 28.0625 208.273 24.6719L196.227 43H187.648V16.7969H194.562ZM229.391 16.7969V26.875H239.375V16.7969H246.523V43H239.375V32.1953H229.391V43H222.242V16.7969H229.391ZM278.211 23.6641C278.211 25.0703 277.766 26.2734 276.875 27.2734C276 28.2578 274.703 28.8906 272.984 29.1719V29.3594C274.844 29.5781 276.312 30.2188 277.391 31.2812C278.484 32.3281 279.031 33.625 279.031 35.1719C279.031 37.7188 278.031 39.6641 276.031 41.0078C274.031 42.3359 271.172 43 267.453 43H254.023V16.7969H267.453C271.047 16.7969 273.734 17.3828 275.516 18.5547C277.312 19.7109 278.211 21.4141 278.211 23.6641ZM271.625 34.7969C271.625 33.7656 271.227 33.0234 270.43 32.5703C269.633 32.1016 268.438 31.8672 266.844 31.8672H261.172V38.0547H266.984C268.5 38.0547 269.648 37.7734 270.43 37.2109C271.227 36.6328 271.625 35.8281 271.625 34.7969ZM270.969 24.2266C270.969 22.6328 269.703 21.8359 267.172 21.8359H261.172V27.0156H266.352C267.867 27.0156 269.016 26.7969 269.797 26.3594C270.578 25.9219 270.969 25.2109 270.969 24.2266ZM295.578 21.3906C294.062 21.3906 292.875 21.875 292.016 22.8438C291.156 23.7969 290.664 25.1562 290.539 26.9219H300.57C300.539 25.1562 300.078 23.7969 299.188 22.8438C298.297 21.875 297.094 21.3906 295.578 21.3906ZM296.586 43.4688C292.367 43.4688 289.07 42.3047 286.695 39.9766C284.32 37.6484 283.133 34.3516 283.133 30.0859C283.133 25.6953 284.227 22.3047 286.414 19.9141C288.617 17.5078 291.656 16.3047 295.531 16.3047C299.234 16.3047 302.117 17.3594 304.18 19.4688C306.242 21.5781 307.273 24.4922 307.273 28.2109V31.6797H290.375C290.453 33.7109 291.055 35.2969 292.18 36.4375C293.305 37.5781 294.883 38.1484 296.914 38.1484C298.492 38.1484 299.984 37.9844 301.391 37.6562C302.797 37.3281 304.266 36.8047 305.797 36.0859V41.6172C304.547 42.2422 303.211 42.7031 301.789 43C300.367 43.3125 298.633 43.4688 296.586 43.4688ZM323.727 43.4688C315.57 43.4688 311.492 38.9922 311.492 30.0391C311.492 25.5859 312.602 22.1875 314.82 19.8438C317.039 17.4844 320.219 16.3047 324.359 16.3047C327.391 16.3047 330.109 16.8984 332.516 18.0859L330.406 23.6172C329.281 23.1641 328.234 22.7969 327.266 22.5156C326.297 22.2188 325.328 22.0703 324.359 22.0703C320.641 22.0703 318.781 24.7109 318.781 29.9922C318.781 35.1172 320.641 37.6797 324.359 37.6797C325.734 37.6797 327.008 37.5 328.18 37.1406C329.352 36.7656 330.523 36.1875 331.695 35.4062V41.5234C330.539 42.2578 329.367 42.7656 328.18 43.0469C327.008 43.3281 325.523 43.4688 323.727 43.4688ZM359.469 16.7969V22.1641H350.891V43H343.742V22.1641H335.141V16.7969H359.469ZM371.281 16.7969V27.1562C371.281 28.25 371.102 30.9219 370.742 35.1719L382.836 16.7969H391.438V43H384.523V32.5469C384.523 30.6875 384.68 28.0625 384.992 24.6719L372.945 43H364.367V16.7969H371.281ZM423.734 37.7734H427.555V52.3984H421.133V43H398.961V16.7969H406.109V37.6328H416.562V16.7969H423.734V37.7734ZM438.922 16.7969V27.1562C438.922 28.25 438.742 30.9219 438.383 35.1719L450.477 16.7969H459.078V43H452.164V32.5469C452.164 30.6875 452.32 28.0625 452.633 24.6719L440.586 43H432.008V16.7969H438.922ZM473.516 16.7969V27.1562C473.516 28.25 473.336 30.9219 472.977 35.1719L485.07 16.7969H493.672V43H486.758V32.5469C486.758 30.6875 486.914 28.0625 487.227 24.6719L475.18 43H466.602V16.7969H473.516ZM491.562 5.52344C491.266 8.44531 490.164 10.5781 488.258 11.9219C486.352 13.25 483.602 13.9141 480.008 13.9141C476.305 13.9141 473.562 13.2734 471.781 11.9922C470.016 10.7109 469.023 8.55469 468.805 5.52344H475.203C475.312 7.13281 475.711 8.26562 476.398 8.92188C477.102 9.5625 478.352 9.88281 480.148 9.88281C481.727 9.88281 482.898 9.53125 483.664 8.82812C484.445 8.10937 484.922 7.00781 485.094 5.52344H491.562ZM508.203 37.9609C507.391 41.1172 506.016 44.8594 504.078 49.1875H498.922C499.938 45.0312 500.727 41.1094 501.289 37.4219H507.852L508.203 37.9609ZM528.156 43V37.864H524.316V33.208H528.156V29.464H524.316V23.512H528.156V8.728H539.1C543.516 8.728 546.732 9.624 548.748 11.416C550.796 13.208 551.82 15.672 551.82 18.808C551.82 20.664 551.404 22.408 550.572 24.04C549.74 25.672 548.348 26.984 546.396 27.976C544.476 28.968 541.852 29.464 538.524 29.464H535.404V33.208H542.796V37.864H535.404V43H528.156ZM537.804 23.512C539.852 23.512 541.468 23.16 542.652 22.456C543.868 21.752 544.476 20.616 544.476 19.048C544.476 16.136 542.556 14.68 538.716 14.68H535.404V23.512H537.804Z" fill="white"/>
<path d="M139.869 741H136.881V717.955H123.68V741H120.691V715.301H139.869V741ZM160.875 741H157.922V724.23H152.139C151.822 728.402 151.383 731.713 150.82 734.162C150.258 736.611 149.525 738.404 148.623 739.541C147.732 740.678 146.596 741.246 145.213 741.246C144.58 741.246 144.076 741.176 143.701 741.035V738.873C143.959 738.943 144.252 738.979 144.58 738.979C145.928 738.979 147 737.555 147.797 734.707C148.594 731.859 149.197 727.535 149.607 721.734H160.875V741ZM178.928 741L178.348 738.258H178.207C177.246 739.465 176.285 740.285 175.324 740.719C174.375 741.141 173.186 741.352 171.756 741.352C169.846 741.352 168.346 740.859 167.256 739.875C166.178 738.891 165.639 737.49 165.639 735.674C165.639 731.783 168.75 729.744 174.973 729.557L178.242 729.451V728.256C178.242 726.744 177.914 725.631 177.258 724.916C176.613 724.189 175.576 723.826 174.146 723.826C172.541 723.826 170.725 724.318 168.697 725.303L167.801 723.07C168.75 722.555 169.787 722.15 170.912 721.857C172.049 721.564 173.186 721.418 174.322 721.418C176.619 721.418 178.318 721.928 179.42 722.947C180.533 723.967 181.09 725.602 181.09 727.852V741H178.928ZM172.336 738.943C174.152 738.943 175.576 738.445 176.607 737.449C177.65 736.453 178.172 735.059 178.172 733.266V731.525L175.254 731.648C172.934 731.73 171.258 732.094 170.227 732.738C169.207 733.371 168.697 734.361 168.697 735.709C168.697 736.764 169.014 737.566 169.646 738.117C170.291 738.668 171.188 738.943 172.336 738.943ZM190.037 721.734V729.803H200.83V721.734H203.748V741H200.83V732.316H190.037V741H187.119V721.734H190.037Z" fill="white"/>
<path d="M363.215 714.932H366.238V718.096H367.469C369.473 718.096 371.207 718.494 372.672 719.291C374.148 720.088 375.273 721.213 376.047 722.666C376.832 724.119 377.225 725.777 377.225 727.641C377.225 729.586 376.785 731.32 375.906 732.844C375.039 734.355 373.844 735.492 372.32 736.254C370.809 737.016 369.021 737.396 366.959 737.396H366.238V741.352H363.215V737.396H362.424C360.361 737.396 358.574 737.01 357.062 736.236C355.551 735.463 354.367 734.314 353.512 732.791C352.656 731.268 352.229 729.562 352.229 727.676C352.229 725.824 352.621 724.172 353.406 722.719C354.203 721.266 355.34 720.135 356.816 719.326C358.293 718.506 360.033 718.096 362.037 718.096H363.215V714.932ZM366.238 734.883H366.678C369.033 734.883 370.861 734.244 372.162 732.967C373.475 731.678 374.131 729.891 374.131 727.605C374.131 725.438 373.527 723.738 372.32 722.508C371.113 721.277 369.426 720.662 367.258 720.662H366.238V734.883ZM363.215 720.662H362.213C360.08 720.662 358.398 721.283 357.168 722.525C355.949 723.768 355.34 725.461 355.34 727.605C355.34 729.914 355.99 731.707 357.291 732.984C358.592 734.25 360.426 734.883 362.793 734.883H363.215V720.662ZM394.029 741L393.449 738.258H393.309C392.348 739.465 391.387 740.285 390.426 740.719C389.477 741.141 388.287 741.352 386.857 741.352C384.947 741.352 383.447 740.859 382.357 739.875C381.279 738.891 380.74 737.49 380.74 735.674C380.74 731.783 383.852 729.744 390.074 729.557L393.344 729.451V728.256C393.344 726.744 393.016 725.631 392.359 724.916C391.715 724.189 390.678 723.826 389.248 723.826C387.643 723.826 385.826 724.318 383.799 725.303L382.902 723.07C383.852 722.555 384.889 722.15 386.014 721.857C387.15 721.564 388.287 721.418 389.424 721.418C391.721 721.418 393.42 721.928 394.521 722.947C395.635 723.967 396.191 725.602 396.191 727.852V741H394.029ZM387.438 738.943C389.254 738.943 390.678 738.445 391.709 737.449C392.752 736.453 393.273 735.059 393.273 733.266V731.525L390.355 731.648C388.035 731.73 386.359 732.094 385.328 732.738C384.309 733.371 383.799 734.361 383.799 735.709C383.799 736.764 384.115 737.566 384.748 738.117C385.393 738.668 386.289 738.943 387.438 738.943ZM413.453 721.734H416.652L408.338 731.033L417.338 741H413.928L405.139 731.244V741H402.221V721.734H405.139V731.104L413.453 721.734ZM433.914 724.23H427.656V741H424.738V724.23H418.551V721.734H433.914V724.23Z" fill="white"/>
<rect x="47" y="121" width="230" height="548" fill="#01F859"/>
<path d="M99.3125 557.469C103.917 557.469 107.562 558.688 110.25 561.125C112.938 563.562 114.281 566.885 114.281 571.094C114.281 575.969 112.75 579.781 109.688 582.531C106.646 585.26 102.312 586.625 96.6875 586.625C91.5833 586.625 87.5729 585.802 84.6562 584.156V577.5C86.3438 578.458 88.2812 579.198 90.4688 579.719C92.6562 580.24 94.6875 580.5 96.5625 580.5C99.875 580.5 102.396 579.76 104.125 578.281C105.854 576.802 106.719 574.635 106.719 571.781C106.719 566.323 103.24 563.594 96.2812 563.594C95.3021 563.594 94.0938 563.698 92.6562 563.906C91.2188 564.094 89.9583 564.312 88.875 564.562L85.5938 562.625L87.3438 540.312H111.094V546.844H93.8125L92.7812 558.156C93.5104 558.031 94.3958 557.885 95.4375 557.719C96.5 557.552 97.7917 557.469 99.3125 557.469ZM169.594 576.031H163.438V586H156.281V576.031H135.406V570.375L156.281 540.188H163.438V569.938H169.594V576.031ZM156.281 569.938V558.469C156.281 554.385 156.385 551.042 156.594 548.438H156.344C155.76 549.812 154.844 551.479 153.594 553.438L142.25 569.938H156.281ZM204.469 559.812C204.469 568.812 202.656 575.531 199.031 579.969C195.406 584.406 189.948 586.625 182.656 586.625C179.885 586.625 177.896 586.458 176.688 586.125V579.969C178.542 580.49 180.406 580.75 182.281 580.75C187.24 580.75 190.938 579.417 193.375 576.75C195.812 574.083 197.146 569.896 197.375 564.188H197C195.771 566.062 194.281 567.417 192.531 568.25C190.802 569.083 188.771 569.5 186.438 569.5C182.396 569.5 179.219 568.24 176.906 565.719C174.594 563.198 173.438 559.74 173.438 555.344C173.438 550.573 174.771 546.781 177.438 543.969C180.125 541.135 183.781 539.719 188.406 539.719C191.656 539.719 194.49 540.51 196.906 542.094C199.323 543.677 201.188 545.979 202.5 549C203.812 552 204.469 555.604 204.469 559.812ZM188.531 545.812C185.99 545.812 184.042 546.646 182.688 548.312C181.333 549.958 180.656 552.281 180.656 555.281C180.656 557.885 181.281 559.938 182.531 561.438C183.802 562.917 185.719 563.656 188.281 563.656C190.76 563.656 192.844 562.917 194.531 561.438C196.219 559.958 197.062 558.229 197.062 556.25C197.062 554.396 196.698 552.667 195.969 551.062C195.26 549.438 194.26 548.156 192.969 547.219C191.677 546.281 190.198 545.812 188.531 545.812ZM231.688 586H224.344V556.5C224.344 552.979 224.427 550.188 224.594 548.125C224.115 548.625 223.521 549.177 222.812 549.781C222.125 550.385 219.792 552.302 215.812 555.531L212.125 550.875L225.562 540.312H231.688V586Z" fill="#017029"/>
<path d="M135.422 626L128.156 607.016H128.039C128.176 608.52 128.244 610.307 128.244 612.377V626H125.944V604.584H129.694L136.477 622.25H136.594L143.435 604.584H147.155V626H144.665V612.201C144.665 610.619 144.733 608.9 144.87 607.045H144.753L137.429 626H135.422ZM164.646 626H162.185V612.025H157.365C157.102 615.502 156.735 618.261 156.267 620.302C155.798 622.343 155.188 623.837 154.436 624.784C153.693 625.731 152.746 626.205 151.594 626.205C151.066 626.205 150.646 626.146 150.334 626.029V624.228C150.549 624.286 150.793 624.315 151.066 624.315C152.189 624.315 153.083 623.129 153.747 620.756C154.411 618.383 154.914 614.779 155.256 609.945H164.646V626ZM177.287 626.293C176.242 626.293 175.285 626.103 174.416 625.722C173.557 625.331 172.834 624.735 172.248 623.935H172.072C172.189 624.872 172.248 625.761 172.248 626.601V633.207H169.816V609.945H171.794L172.131 612.143H172.248C172.873 611.264 173.601 610.629 174.431 610.238C175.261 609.848 176.213 609.652 177.287 609.652C179.416 609.652 181.057 610.38 182.209 611.835C183.371 613.29 183.952 615.331 183.952 617.958C183.952 620.595 183.361 622.646 182.18 624.11C181.008 625.565 179.377 626.293 177.287 626.293ZM176.936 611.718C175.295 611.718 174.108 612.172 173.376 613.08C172.644 613.988 172.268 615.434 172.248 617.416V617.958C172.248 620.214 172.624 621.83 173.376 622.807C174.128 623.773 175.334 624.257 176.994 624.257C178.381 624.257 179.465 623.695 180.246 622.572C181.037 621.449 181.433 619.901 181.433 617.929C181.433 615.927 181.037 614.394 180.246 613.329C179.465 612.255 178.361 611.718 176.936 611.718ZM202.16 631.552H199.802V626H188.581V631.552H186.237V623.905H187.497C188.806 622.128 189.831 620.043 190.573 617.65C191.315 615.258 191.701 612.689 191.73 609.945H199.86V623.905H202.16V631.552ZM197.517 623.905V611.864H193.913C193.786 614.032 193.366 616.229 192.653 618.456C191.95 620.673 191.071 622.489 190.017 623.905H197.517Z" fill="#017029"/>
<rect x="277" y="322" width="230" height="347" fill="#02BD45"/>
<path d="M370.719 556.812C370.719 565.812 368.906 572.531 365.281 576.969C361.656 581.406 356.198 583.625 348.906 583.625C346.135 583.625 344.146 583.458 342.938 583.125V576.969C344.792 577.49 346.656 577.75 348.531 577.75C353.49 577.75 357.188 576.417 359.625 573.75C362.062 571.083 363.396 566.896 363.625 561.188H363.25C362.021 563.062 360.531 564.417 358.781 565.25C357.052 566.083 355.021 566.5 352.688 566.5C348.646 566.5 345.469 565.24 343.156 562.719C340.844 560.198 339.688 556.74 339.688 552.344C339.688 547.573 341.021 543.781 343.688 540.969C346.375 538.135 350.031 536.719 354.656 536.719C357.906 536.719 360.74 537.51 363.156 539.094C365.573 540.677 367.438 542.979 368.75 546C370.062 549 370.719 552.604 370.719 556.812ZM354.781 542.812C352.24 542.812 350.292 543.646 348.938 545.312C347.583 546.958 346.906 549.281 346.906 552.281C346.906 554.885 347.531 556.938 348.781 558.438C350.052 559.917 351.969 560.656 354.531 560.656C357.01 560.656 359.094 559.917 360.781 558.438C362.469 556.958 363.312 555.229 363.312 553.25C363.312 551.396 362.948 549.667 362.219 548.062C361.51 546.438 360.51 545.156 359.219 544.219C357.927 543.281 356.448 542.812 354.781 542.812ZM407.281 556.812C407.281 565.812 405.469 572.531 401.844 576.969C398.219 581.406 392.76 583.625 385.469 583.625C382.698 583.625 380.708 583.458 379.5 583.125V576.969C381.354 577.49 383.219 577.75 385.094 577.75C390.052 577.75 393.75 576.417 396.188 573.75C398.625 571.083 399.958 566.896 400.188 561.188H399.812C398.583 563.062 397.094 564.417 395.344 565.25C393.615 566.083 391.583 566.5 389.25 566.5C385.208 566.5 382.031 565.24 379.719 562.719C377.406 560.198 376.25 556.74 376.25 552.344C376.25 547.573 377.583 543.781 380.25 540.969C382.938 538.135 386.594 536.719 391.219 536.719C394.469 536.719 397.302 537.51 399.719 539.094C402.135 540.677 404 542.979 405.312 546C406.625 549 407.281 552.604 407.281 556.812ZM391.344 542.812C388.802 542.812 386.854 543.646 385.5 545.312C384.146 546.958 383.469 549.281 383.469 552.281C383.469 554.885 384.094 556.938 385.344 558.438C386.615 559.917 388.531 560.656 391.094 560.656C393.573 560.656 395.656 559.917 397.344 558.438C399.031 556.958 399.875 555.229 399.875 553.25C399.875 551.396 399.51 549.667 398.781 548.062C398.073 546.438 397.073 545.156 395.781 544.219C394.49 543.281 393.01 542.812 391.344 542.812ZM443.844 556.812C443.844 565.812 442.031 572.531 438.406 576.969C434.781 581.406 429.323 583.625 422.031 583.625C419.26 583.625 417.271 583.458 416.062 583.125V576.969C417.917 577.49 419.781 577.75 421.656 577.75C426.615 577.75 430.312 576.417 432.75 573.75C435.188 571.083 436.521 566.896 436.75 561.188H436.375C435.146 563.062 433.656 564.417 431.906 565.25C430.177 566.083 428.146 566.5 425.812 566.5C421.771 566.5 418.594 565.24 416.281 562.719C413.969 560.198 412.812 556.74 412.812 552.344C412.812 547.573 414.146 543.781 416.812 540.969C419.5 538.135 423.156 536.719 427.781 536.719C431.031 536.719 433.865 537.51 436.281 539.094C438.698 540.677 440.562 542.979 441.875 546C443.188 549 443.844 552.604 443.844 556.812ZM427.906 542.812C425.365 542.812 423.417 543.646 422.062 545.312C420.708 546.958 420.031 549.281 420.031 552.281C420.031 554.885 420.656 556.938 421.906 558.438C423.177 559.917 425.094 560.656 427.656 560.656C430.135 560.656 432.219 559.917 433.906 558.438C435.594 556.958 436.438 555.229 436.438 553.25C436.438 551.396 436.073 549.667 435.344 548.062C434.635 546.438 433.635 545.156 432.344 544.219C431.052 543.281 429.573 542.812 427.906 542.812Z" fill="#00551E"/>
<path d="M372.422 623L365.156 604.016H365.039C365.176 605.52 365.244 607.307 365.244 609.377V623H362.944V601.584H366.694L373.477 619.25H373.594L380.435 601.584H384.155V623H381.665V609.201C381.665 607.619 381.733 605.9 381.87 604.045H381.753L374.429 623H372.422ZM401.646 623H399.185V609.025H394.365C394.102 612.502 393.735 615.261 393.267 617.302C392.798 619.343 392.188 620.837 391.436 621.784C390.693 622.731 389.746 623.205 388.594 623.205C388.066 623.205 387.646 623.146 387.334 623.029V621.228C387.549 621.286 387.793 621.315 388.066 621.315C389.189 621.315 390.083 620.129 390.747 617.756C391.411 615.383 391.914 611.779 392.256 606.945H401.646V623ZM409.248 606.945V613.669H418.242V606.945H420.674V623H418.242V615.764H409.248V623H406.816V606.945H409.248Z" fill="#00551E"/>
<path d="M807.648 24.8594H810.039C812.273 24.8594 813.945 24.4219 815.055 23.5469C816.164 22.6562 816.719 21.3672 816.719 19.6797C816.719 17.9766 816.25 16.7188 815.312 15.9062C814.391 15.0937 812.938 14.6875 810.953 14.6875H807.648V24.8594ZM824.055 19.4219C824.055 23.1094 822.898 25.9297 820.586 27.8828C818.289 29.8359 815.016 30.8125 810.766 30.8125H807.648V43H800.383V8.73438H811.328C815.484 8.73438 818.641 9.63281 820.797 11.4297C822.969 13.2109 824.055 15.875 824.055 19.4219ZM846.602 43L845.219 39.4375H845.031C843.828 40.9531 842.586 42.0078 841.305 42.6016C840.039 43.1797 838.383 43.4688 836.336 43.4688C833.82 43.4688 831.836 42.75 830.383 41.3125C828.945 39.875 828.227 37.8281 828.227 35.1719C828.227 32.3906 829.195 30.3438 831.133 29.0312C833.086 27.7031 836.023 26.9688 839.945 26.8281L844.492 26.6875V25.5391C844.492 22.8828 843.133 21.5547 840.414 21.5547C838.32 21.5547 835.859 22.1875 833.031 23.4531L830.664 18.625C833.68 17.0469 837.023 16.2578 840.695 16.2578C844.211 16.2578 846.906 17.0234 848.781 18.5547C850.656 20.0859 851.594 22.4141 851.594 25.5391V43H846.602ZM844.492 30.8594L841.727 30.9531C839.648 31.0156 838.102 31.3906 837.086 32.0781C836.07 32.7656 835.562 33.8125 835.562 35.2188C835.562 37.2344 836.719 38.2422 839.031 38.2422C840.688 38.2422 842.008 37.7656 842.992 36.8125C843.992 35.8594 844.492 34.5938 844.492 33.0156V30.8594ZM857.383 27.2969C857.383 21.2812 858.523 16.7188 860.805 13.6094C863.102 10.4844 866.68 8.50781 871.539 7.67969C873.898 7.27344 877.422 6.75781 882.109 6.13281L882.93 12.3672C880.898 12.6016 877.297 13.1016 872.125 13.8672C870.156 14.1797 868.688 14.6484 867.719 15.2734C866.75 15.8984 866.023 16.7891 865.539 17.9453C865.07 19.1016 864.781 20.6406 864.672 22.5625H865.023C865.852 21.2812 866.945 20.2969 868.305 19.6094C869.664 18.9219 871.125 18.5781 872.688 18.5781C875.922 18.5781 878.438 19.5703 880.234 21.5547C882.031 23.5234 882.93 26.3516 882.93 30.0391C882.93 34.2891 881.789 37.5938 879.508 39.9531C877.242 42.2969 874.109 43.4688 870.109 43.4688C866.109 43.4688 862.984 42.0391 860.734 39.1797C858.5 36.3047 857.383 32.3438 857.383 27.2969ZM870.531 37.6797C873.922 37.6797 875.617 35.3438 875.617 30.6719C875.617 26.125 874.086 23.8516 871.023 23.8516C870.18 23.8516 869.336 24.0469 868.492 24.4375C867.664 24.8281 866.898 25.3438 866.195 25.9844C865.508 26.6094 865 27.2422 864.672 27.8828C864.672 31.0547 865.18 33.4844 866.195 35.1719C867.211 36.8438 868.656 37.6797 870.531 37.6797ZM894.531 29.8516C894.531 32.4453 894.953 34.4062 895.797 35.7344C896.656 37.0625 898.047 37.7266 899.969 37.7266C901.875 37.7266 903.242 37.0703 904.07 35.7578C904.914 34.4297 905.336 32.4609 905.336 29.8516C905.336 27.2578 904.914 25.3125 904.07 24.0156C903.227 22.7188 901.844 22.0703 899.922 22.0703C898.016 22.0703 896.641 22.7188 895.797 24.0156C894.953 25.2969 894.531 27.2422 894.531 29.8516ZM912.648 29.8516C912.648 34.1172 911.523 37.4531 909.273 39.8594C907.023 42.2656 903.891 43.4688 899.875 43.4688C897.359 43.4688 895.141 42.9219 893.219 41.8281C891.297 40.7188 889.82 39.1328 888.789 37.0703C887.758 35.0078 887.242 32.6016 887.242 29.8516C887.242 25.5703 888.359 22.2422 890.594 19.8672C892.828 17.4922 895.969 16.3047 900.016 16.3047C902.531 16.3047 904.75 16.8516 906.672 17.9453C908.594 19.0391 910.07 20.6094 911.102 22.6562C912.133 24.7031 912.648 27.1016 912.648 29.8516ZM924.836 16.7969V26.3828C924.836 28.6641 925.891 29.8047 928 29.8047C929.375 29.8047 930.648 29.6484 931.82 29.3359C933.008 29.0234 934.203 28.6172 935.406 28.1172V16.7969H942.555V43H935.406V32.5938C933.75 33.4688 932.211 34.0859 930.789 34.4453C929.367 34.8047 927.992 34.9844 926.664 34.9844C923.805 34.9844 921.594 34.2578 920.031 32.8047C918.469 31.3359 917.688 29.25 917.688 26.5469V16.7969H924.836ZM956.969 16.7969V27.1562C956.969 28.25 956.789 30.9219 956.43 35.1719L968.523 16.7969H977.125V43H970.211V32.5469C970.211 30.6875 970.367 28.0625 970.68 24.6719L958.633 43H950.055V16.7969H956.969ZM995.5 21.3906C993.984 21.3906 992.797 21.875 991.938 22.8438C991.078 23.7969 990.586 25.1562 990.461 26.9219H1000.49C1000.46 25.1562 1000 23.7969 999.109 22.8438C998.219 21.875 997.016 21.3906 995.5 21.3906ZM996.508 43.4688C992.289 43.4688 988.992 42.3047 986.617 39.9766C984.242 37.6484 983.055 34.3516 983.055 30.0859C983.055 25.6953 984.148 22.3047 986.336 19.9141C988.539 17.5078 991.578 16.3047 995.453 16.3047C999.156 16.3047 1002.04 17.3594 1004.1 19.4688C1006.16 21.5781 1007.2 24.4922 1007.2 28.2109V31.6797H990.297C990.375 33.7109 990.977 35.2969 992.102 36.4375C993.227 37.5781 994.805 38.1484 996.836 38.1484C998.414 38.1484 999.906 37.9844 1001.31 37.6562C1002.72 37.3281 1004.19 36.8047 1005.72 36.0859V41.6172C1004.47 42.2422 1003.13 42.7031 1001.71 43C1000.29 43.3125 998.555 43.4688 996.508 43.4688ZM1058.5 43H1051.82V22.3516L1051.45 23.8047C1050.6 27.1016 1049.84 29.5938 1049.17 31.2812L1044.53 43H1039.45L1034.73 31.1875C1034.06 29.4688 1033.34 27.0547 1032.58 23.9453L1032.13 22.3516V43H1025.48V16.7969H1035.32L1039.82 27.9766C1040.29 29.1797 1040.72 30.5625 1041.11 32.125C1041.52 33.6875 1041.79 35.0234 1041.93 36.1328C1042.45 33.7891 1042.84 32.1094 1043.12 31.0938C1043.42 30.0625 1043.74 29.1172 1044.09 28.2578C1044.43 27.3984 1045.98 23.5781 1048.75 16.7969H1058.5V43ZM1076.88 21.3906C1075.36 21.3906 1074.17 21.875 1073.31 22.8438C1072.45 23.7969 1071.96 25.1562 1071.84 26.9219H1081.87C1081.84 25.1562 1081.38 23.7969 1080.48 22.8438C1079.59 21.875 1078.39 21.3906 1076.88 21.3906ZM1077.88 43.4688C1073.66 43.4688 1070.37 42.3047 1067.99 39.9766C1065.62 37.6484 1064.43 34.3516 1064.43 30.0859C1064.43 25.6953 1065.52 22.3047 1067.71 19.9141C1069.91 17.5078 1072.95 16.3047 1076.83 16.3047C1080.53 16.3047 1083.41 17.3594 1085.48 19.4688C1087.54 21.5781 1088.57 24.4922 1088.57 28.2109V31.6797H1071.67C1071.75 33.7109 1072.35 35.2969 1073.48 36.4375C1074.6 37.5781 1076.18 38.1484 1078.21 38.1484C1079.79 38.1484 1081.28 37.9844 1082.69 37.6562C1084.09 37.3281 1085.56 36.8047 1087.09 36.0859V41.6172C1085.84 42.2422 1084.51 42.7031 1083.09 43C1081.66 43.3125 1079.93 43.4688 1077.88 43.4688ZM1105.02 43.4688C1096.87 43.4688 1092.79 38.9922 1092.79 30.0391C1092.79 25.5859 1093.9 22.1875 1096.12 19.8438C1098.34 17.4844 1101.52 16.3047 1105.66 16.3047C1108.69 16.3047 1111.41 16.8984 1113.81 18.0859L1111.7 23.6172C1110.58 23.1641 1109.53 22.7969 1108.56 22.5156C1107.59 22.2188 1106.62 22.0703 1105.66 22.0703C1101.94 22.0703 1100.08 24.7109 1100.08 29.9922C1100.08 35.1172 1101.94 37.6797 1105.66 37.6797C1107.03 37.6797 1108.3 37.5 1109.48 37.1406C1110.65 36.7656 1111.82 36.1875 1112.99 35.4062V41.5234C1111.84 42.2578 1110.66 42.7656 1109.48 43.0469C1108.3 43.3281 1106.82 43.4688 1105.02 43.4688ZM1140.77 16.7969V22.1641H1132.19V43H1125.04V22.1641H1116.44V16.7969H1140.77ZM1162.3 43L1160.92 39.4375H1160.73C1159.53 40.9531 1158.29 42.0078 1157.01 42.6016C1155.74 43.1797 1154.09 43.4688 1152.04 43.4688C1149.52 43.4688 1147.54 42.75 1146.09 41.3125C1144.65 39.875 1143.93 37.8281 1143.93 35.1719C1143.93 32.3906 1144.9 30.3438 1146.84 29.0312C1148.79 27.7031 1151.73 26.9688 1155.65 26.8281L1160.2 26.6875V25.5391C1160.2 22.8828 1158.84 21.5547 1156.12 21.5547C1154.02 21.5547 1151.56 22.1875 1148.73 23.4531L1146.37 18.625C1149.38 17.0469 1152.73 16.2578 1156.4 16.2578C1159.91 16.2578 1162.61 17.0234 1164.48 18.5547C1166.36 20.0859 1167.3 22.4141 1167.3 25.5391V43H1162.3ZM1160.2 30.8594L1157.43 30.9531C1155.35 31.0156 1153.8 31.3906 1152.79 32.0781C1151.77 32.7656 1151.27 33.8125 1151.27 35.2188C1151.27 37.2344 1152.42 38.2422 1154.73 38.2422C1156.39 38.2422 1157.71 37.7656 1158.7 36.8125C1159.7 35.8594 1160.2 34.5938 1160.2 33.0156V30.8594Z" fill="white"/>
<path d="M845.869 741H842.881V717.955H829.68V741H826.691V715.301H845.869V741ZM866.875 741H863.922V724.23H858.139C857.822 728.402 857.383 731.713 856.82 734.162C856.258 736.611 855.525 738.404 854.623 739.541C853.732 740.678 852.596 741.246 851.213 741.246C850.58 741.246 850.076 741.176 849.701 741.035V738.873C849.959 738.943 850.252 738.979 850.58 738.979C851.928 738.979 853 737.555 853.797 734.707C854.594 731.859 855.197 727.535 855.607 721.734H866.875V741ZM884.928 741L884.348 738.258H884.207C883.246 739.465 882.285 740.285 881.324 740.719C880.375 741.141 879.186 741.352 877.756 741.352C875.846 741.352 874.346 740.859 873.256 739.875C872.178 738.891 871.639 737.49 871.639 735.674C871.639 731.783 874.75 729.744 880.973 729.557L884.242 729.451V728.256C884.242 726.744 883.914 725.631 883.258 724.916C882.613 724.189 881.576 723.826 880.146 723.826C878.541 723.826 876.725 724.318 874.697 725.303L873.801 723.07C874.75 722.555 875.787 722.15 876.912 721.857C878.049 721.564 879.186 721.418 880.322 721.418C882.619 721.418 884.318 721.928 885.42 722.947C886.533 723.967 887.09 725.602 887.09 727.852V741H884.928ZM878.336 738.943C880.152 738.943 881.576 738.445 882.607 737.449C883.65 736.453 884.172 735.059 884.172 733.266V731.525L881.254 731.648C878.934 731.73 877.258 732.094 876.227 732.738C875.207 733.371 874.697 734.361 874.697 735.709C874.697 736.764 875.014 737.566 875.646 738.117C876.291 738.668 877.188 738.943 878.336 738.943ZM896.037 721.734V729.803H906.83V721.734H909.748V741H906.83V732.316H896.037V741H893.119V721.734H896.037Z" fill="white"/>
<path d="M1069.21 714.932H1072.24V718.096H1073.47C1075.47 718.096 1077.21 718.494 1078.67 719.291C1080.15 720.088 1081.27 721.213 1082.05 722.666C1082.83 724.119 1083.22 725.777 1083.22 727.641C1083.22 729.586 1082.79 731.32 1081.91 732.844C1081.04 734.355 1079.84 735.492 1078.32 736.254C1076.81 737.016 1075.02 737.396 1072.96 737.396H1072.24V741.352H1069.21V737.396H1068.42C1066.36 737.396 1064.57 737.01 1063.06 736.236C1061.55 735.463 1060.37 734.314 1059.51 732.791C1058.66 731.268 1058.23 729.562 1058.23 727.676C1058.23 725.824 1058.62 724.172 1059.41 722.719C1060.2 721.266 1061.34 720.135 1062.82 719.326C1064.29 718.506 1066.03 718.096 1068.04 718.096H1069.21V714.932ZM1072.24 734.883H1072.68C1075.03 734.883 1076.86 734.244 1078.16 732.967C1079.47 731.678 1080.13 729.891 1080.13 727.605C1080.13 725.438 1079.53 723.738 1078.32 722.508C1077.11 721.277 1075.43 720.662 1073.26 720.662H1072.24V734.883ZM1069.21 720.662H1068.21C1066.08 720.662 1064.4 721.283 1063.17 722.525C1061.95 723.768 1061.34 725.461 1061.34 727.605C1061.34 729.914 1061.99 731.707 1063.29 732.984C1064.59 734.25 1066.43 734.883 1068.79 734.883H1069.21V720.662ZM1100.03 741L1099.45 738.258H1099.31C1098.35 739.465 1097.39 740.285 1096.43 740.719C1095.48 741.141 1094.29 741.352 1092.86 741.352C1090.95 741.352 1089.45 740.859 1088.36 739.875C1087.28 738.891 1086.74 737.49 1086.74 735.674C1086.74 731.783 1089.85 729.744 1096.07 729.557L1099.34 729.451V728.256C1099.34 726.744 1099.02 725.631 1098.36 724.916C1097.71 724.189 1096.68 723.826 1095.25 723.826C1093.64 723.826 1091.83 724.318 1089.8 725.303L1088.9 723.07C1089.85 722.555 1090.89 722.15 1092.01 721.857C1093.15 721.564 1094.29 721.418 1095.42 721.418C1097.72 721.418 1099.42 721.928 1100.52 722.947C1101.63 723.967 1102.19 725.602 1102.19 727.852V741H1100.03ZM1093.44 738.943C1095.25 738.943 1096.68 738.445 1097.71 737.449C1098.75 736.453 1099.27 735.059 1099.27 733.266V731.525L1096.36 731.648C1094.04 731.73 1092.36 732.094 1091.33 732.738C1090.31 733.371 1089.8 734.361 1089.8 735.709C1089.8 736.764 1090.12 737.566 1090.75 738.117C1091.39 738.668 1092.29 738.943 1093.44 738.943ZM1119.45 721.734H1122.65L1114.34 731.033L1123.34 741H1119.93L1111.14 731.244V741H1108.22V721.734H1111.14V731.104L1119.45 721.734ZM1139.91 724.23H1133.66V741H1130.74V724.23H1124.55V721.734H1139.91V724.23Z" fill="white"/>
<rect x="753" y="121" width="230" height="548" fill="#01F859"/>
<path d="M811.375 586H804.031V556.5C804.031 552.979 804.115 550.188 804.281 548.125C803.802 548.625 803.208 549.177 802.5 549.781C801.812 550.385 799.479 552.302 795.5 555.531L791.812 550.875L805.25 540.312H811.375V586ZM858.5 557.469C863.104 557.469 866.75 558.688 869.438 561.125C872.125 563.562 873.469 566.885 873.469 571.094C873.469 575.969 871.938 579.781 868.875 582.531C865.833 585.26 861.5 586.625 855.875 586.625C850.771 586.625 846.76 585.802 843.844 584.156V577.5C845.531 578.458 847.469 579.198 849.656 579.719C851.844 580.24 853.875 580.5 855.75 580.5C859.062 580.5 861.583 579.76 863.312 578.281C865.042 576.802 865.906 574.635 865.906 571.781C865.906 566.323 862.427 563.594 855.469 563.594C854.49 563.594 853.281 563.698 851.844 563.906C850.406 564.094 849.146 564.312 848.062 564.562L844.781 562.625L846.531 540.312H870.281V546.844H853L851.969 558.156C852.698 558.031 853.583 557.885 854.625 557.719C855.688 557.552 856.979 557.469 858.5 557.469ZM879.688 566.531C879.688 548.656 886.969 539.719 901.531 539.719C903.823 539.719 905.76 539.896 907.344 540.25V546.375C905.76 545.917 903.927 545.688 901.844 545.688C896.948 545.688 893.271 547 890.812 549.625C888.354 552.25 887.021 556.458 886.812 562.25H887.188C888.167 560.562 889.542 559.26 891.312 558.344C893.083 557.406 895.167 556.938 897.562 556.938C901.708 556.938 904.938 558.208 907.25 560.75C909.562 563.292 910.719 566.74 910.719 571.094C910.719 575.885 909.375 579.677 906.688 582.469C904.021 585.24 900.375 586.625 895.75 586.625C892.479 586.625 889.635 585.844 887.219 584.281C884.802 582.698 882.938 580.406 881.625 577.406C880.333 574.385 879.688 570.76 879.688 566.531ZM895.625 580.562C898.146 580.562 900.083 579.75 901.438 578.125C902.812 576.5 903.5 574.177 903.5 571.156C903.5 568.531 902.854 566.469 901.562 564.969C900.292 563.469 898.375 562.719 895.812 562.719C894.229 562.719 892.771 563.062 891.438 563.75C890.104 564.417 889.052 565.344 888.281 566.531C887.51 567.698 887.125 568.896 887.125 570.125C887.125 573.062 887.917 575.542 889.5 577.562C891.104 579.562 893.146 580.562 895.625 580.562ZM947.031 559.812C947.031 568.812 945.219 575.531 941.594 579.969C937.969 584.406 932.51 586.625 925.219 586.625C922.448 586.625 920.458 586.458 919.25 586.125V579.969C921.104 580.49 922.969 580.75 924.844 580.75C929.802 580.75 933.5 579.417 935.938 576.75C938.375 574.083 939.708 569.896 939.938 564.188H939.562C938.333 566.062 936.844 567.417 935.094 568.25C933.365 569.083 931.333 569.5 929 569.5C924.958 569.5 921.781 568.24 919.469 565.719C917.156 563.198 916 559.74 916 555.344C916 550.573 917.333 546.781 920 543.969C922.688 541.135 926.344 539.719 930.969 539.719C934.219 539.719 937.052 540.51 939.469 542.094C941.885 543.677 943.75 545.979 945.062 549C946.375 552 947.031 555.604 947.031 559.812ZM931.094 545.812C928.552 545.812 926.604 546.646 925.25 548.312C923.896 549.958 923.219 552.281 923.219 555.281C923.219 557.885 923.844 559.938 925.094 561.438C926.365 562.917 928.281 563.656 930.844 563.656C933.323 563.656 935.406 562.917 937.094 561.438C938.781 559.958 939.625 558.229 939.625 556.25C939.625 554.396 939.26 552.667 938.531 551.062C937.823 549.438 936.823 548.156 935.531 547.219C934.24 546.281 932.76 545.812 931.094 545.812Z" fill="#017029"/>
<rect x="983" y="322" width="230" height="347" fill="#02BD45"/>
<path d="M1076.78 583H1045.81V577.438L1057.59 565.594C1061.07 562.031 1063.38 559.51 1064.5 558.031C1065.65 556.531 1066.48 555.125 1067 553.812C1067.52 552.5 1067.78 551.094 1067.78 549.594C1067.78 547.531 1067.16 545.906 1065.91 544.719C1064.68 543.531 1062.97 542.938 1060.78 542.938C1059.03 542.938 1057.33 543.26 1055.69 543.906C1054.06 544.552 1052.18 545.719 1050.03 547.406L1046.06 542.562C1048.6 540.417 1051.07 538.896 1053.47 538C1055.86 537.104 1058.42 536.656 1061.12 536.656C1065.38 536.656 1068.78 537.771 1071.34 540C1073.91 542.208 1075.19 545.188 1075.19 548.938C1075.19 551 1074.81 552.958 1074.06 554.812C1073.33 556.667 1072.2 558.583 1070.66 560.562C1069.14 562.521 1066.59 565.177 1063.03 568.531L1055.09 576.219V576.531H1076.78V583ZM1113.34 583H1082.38V577.438L1094.16 565.594C1097.64 562.031 1099.94 559.51 1101.06 558.031C1102.21 556.531 1103.04 555.125 1103.56 553.812C1104.08 552.5 1104.34 551.094 1104.34 549.594C1104.34 547.531 1103.72 545.906 1102.47 544.719C1101.24 543.531 1099.53 542.938 1097.34 542.938C1095.59 542.938 1093.9 543.26 1092.25 543.906C1090.62 544.552 1088.74 545.719 1086.59 547.406L1082.62 542.562C1085.17 540.417 1087.64 538.896 1090.03 538C1092.43 537.104 1094.98 536.656 1097.69 536.656C1101.94 536.656 1105.34 537.771 1107.91 540C1110.47 542.208 1111.75 545.188 1111.75 548.938C1111.75 551 1111.38 552.958 1110.62 554.812C1109.9 556.667 1108.76 558.583 1107.22 560.562C1105.7 562.521 1103.16 565.177 1099.59 568.531L1091.66 576.219V576.531H1113.34V583ZM1149.91 560.156C1149.91 568.094 1148.62 573.99 1146.06 577.844C1143.52 581.698 1139.62 583.625 1134.38 583.625C1129.29 583.625 1125.44 581.635 1122.81 577.656C1120.19 573.677 1118.88 567.844 1118.88 560.156C1118.88 552.094 1120.15 546.156 1122.69 542.344C1125.25 538.51 1129.15 536.594 1134.38 536.594C1139.48 536.594 1143.34 538.594 1145.97 542.594C1148.59 546.594 1149.91 552.448 1149.91 560.156ZM1126.31 560.156C1126.31 566.385 1126.95 570.833 1128.22 573.5C1129.51 576.167 1131.56 577.5 1134.38 577.5C1137.19 577.5 1139.24 576.146 1140.53 573.438C1141.84 570.729 1142.5 566.302 1142.5 560.156C1142.5 554.031 1141.84 549.604 1140.53 546.875C1139.24 544.125 1137.19 542.75 1134.38 542.75C1131.56 542.75 1129.51 544.094 1128.22 546.781C1126.95 549.469 1126.31 553.927 1126.31 560.156Z" fill="#00551E"/>
</svg>
