<svg width="1590" height="749" viewBox="0 0 1590 749" fill="none" xmlns="http://www.w3.org/2000/svg">
<path d="M757.336 361.898C757.336 378.773 753.781 391.371 746.672 399.691C739.562 408.012 728.801 412.172 714.387 412.172C709.309 412.172 705.461 411.898 702.844 411.352V396.82C706.125 397.641 709.562 398.051 713.156 398.051C719.211 398.051 724.191 397.172 728.098 395.414C732.004 393.617 734.992 390.824 737.062 387.035C739.133 383.207 740.324 377.953 740.637 371.273H739.934C737.668 374.945 735.051 377.523 732.082 379.008C729.113 380.492 725.402 381.234 720.949 381.234C713.488 381.234 707.609 378.852 703.312 374.086C699.016 369.281 696.867 362.621 696.867 354.105C696.867 344.926 699.465 337.68 704.66 332.367C709.895 327.016 717.004 324.34 725.988 324.34C732.316 324.34 737.844 325.824 742.57 328.793C747.336 331.762 750.988 336.078 753.527 341.742C756.066 347.367 757.336 354.086 757.336 361.898ZM726.34 338.871C722.59 338.871 719.66 340.16 717.551 342.738C715.441 345.316 714.387 349.027 714.387 353.871C714.387 358.012 715.344 361.293 717.258 363.715C719.172 366.137 722.082 367.348 725.988 367.348C729.66 367.348 732.805 366.156 735.422 363.773C738.039 361.352 739.348 358.578 739.348 355.453C739.348 350.805 738.117 346.879 735.656 343.676C733.234 340.473 730.129 338.871 726.34 338.871ZM825.891 361.898C825.891 378.773 822.336 391.371 815.227 399.691C808.117 408.012 797.355 412.172 782.941 412.172C777.863 412.172 774.016 411.898 771.398 411.352V396.82C774.68 397.641 778.117 398.051 781.711 398.051C787.766 398.051 792.746 397.172 796.652 395.414C800.559 393.617 803.547 390.824 805.617 387.035C807.688 383.207 808.879 377.953 809.191 371.273H808.488C806.223 374.945 803.605 377.523 800.637 379.008C797.668 380.492 793.957 381.234 789.504 381.234C782.043 381.234 776.164 378.852 771.867 374.086C767.57 369.281 765.422 362.621 765.422 354.105C765.422 344.926 768.02 337.68 773.215 332.367C778.449 327.016 785.559 324.34 794.543 324.34C800.871 324.34 806.398 325.824 811.125 328.793C815.891 331.762 819.543 336.078 822.082 341.742C824.621 347.367 825.891 354.086 825.891 361.898ZM794.895 338.871C791.145 338.871 788.215 340.16 786.105 342.738C783.996 345.316 782.941 349.027 782.941 353.871C782.941 358.012 783.898 361.293 785.812 363.715C787.727 366.137 790.637 367.348 794.543 367.348C798.215 367.348 801.359 366.156 803.977 363.773C806.594 361.352 807.902 358.578 807.902 355.453C807.902 350.805 806.672 346.879 804.211 343.676C801.789 340.473 798.684 338.871 794.895 338.871ZM894.445 361.898C894.445 378.773 890.891 391.371 883.781 399.691C876.672 408.012 865.91 412.172 851.496 412.172C846.418 412.172 842.57 411.898 839.953 411.352V396.82C843.234 397.641 846.672 398.051 850.266 398.051C856.32 398.051 861.301 397.172 865.207 395.414C869.113 393.617 872.102 390.824 874.172 387.035C876.242 383.207 877.434 377.953 877.746 371.273H877.043C874.777 374.945 872.16 377.523 869.191 379.008C866.223 380.492 862.512 381.234 858.059 381.234C850.598 381.234 844.719 378.852 840.422 374.086C836.125 369.281 833.977 362.621 833.977 354.105C833.977 344.926 836.574 337.68 841.77 332.367C847.004 327.016 854.113 324.34 863.098 324.34C869.426 324.34 874.953 325.824 879.68 328.793C884.445 331.762 888.098 336.078 890.637 341.742C893.176 347.367 894.445 354.086 894.445 361.898ZM863.449 338.871C859.699 338.871 856.77 340.16 854.66 342.738C852.551 345.316 851.496 349.027 851.496 353.871C851.496 358.012 852.453 361.293 854.367 363.715C856.281 366.137 859.191 367.348 863.098 367.348C866.77 367.348 869.914 366.156 872.531 363.773C875.148 361.352 876.457 358.578 876.457 355.453C876.457 350.805 875.227 346.879 872.766 343.676C870.344 340.473 867.238 338.871 863.449 338.871Z" fill="white"/>
<path d="M769.458 447.969L769.852 446.788L770.397 445.29L774.168 436.111H776.847V450H774.98V438.511L774.727 439.247L773.99 441.189L770.397 450H768.633L765.04 441.164C764.591 440.03 764.283 439.146 764.113 438.511V450H762.234V436.111H764.812L768.455 444.935C768.819 445.866 769.153 446.877 769.458 447.969ZM791.726 450H789.593V437.889H785.416C785.188 440.902 784.87 443.293 784.464 445.062C784.058 446.83 783.529 448.125 782.877 448.946C782.234 449.767 781.413 450.178 780.414 450.178C779.957 450.178 779.593 450.127 779.322 450.025V448.464C779.508 448.515 779.72 448.54 779.957 448.54C780.93 448.54 781.705 447.512 782.28 445.455C782.856 443.398 783.292 440.275 783.588 436.086H791.726V450ZM798.314 436.086V441.913H806.109V436.086H808.217V450H806.109V443.729H798.314V450H796.207V436.086H798.314ZM819.727 450V446.464H817.465V444.774H819.727V442.46H817.465V440.484H819.727V431.436H824.615C826.886 431.436 828.567 431.895 829.659 432.814C830.768 433.733 831.323 435.067 831.323 436.818C831.323 438.586 830.725 439.973 829.529 440.978C828.333 441.966 826.574 442.46 824.251 442.46H822.067V444.774H826.357V446.464H822.067V450H819.727ZM823.913 440.484C825.49 440.484 826.712 440.224 827.579 439.704C828.463 439.184 828.905 438.248 828.905 436.896C828.905 435.717 828.541 434.842 827.813 434.27C827.085 433.698 825.95 433.412 824.407 433.412H822.067V440.484H823.913Z" fill="white"/>
<path d="M1327.72 182.287H1315.69V203H1295.05V182.287H1252.39V167.59L1296.21 103.059H1315.69V165.881H1327.72V182.287ZM1295.05 165.881V148.928C1295.05 146.102 1295.16 142.001 1295.39 136.623C1295.62 131.245 1295.8 128.124 1295.94 127.258H1295.39C1293.7 130.995 1291.68 134.641 1289.31 138.195L1270.99 165.881H1295.05ZM1407.71 182.287H1395.67V203H1375.03V182.287H1332.37V167.59L1376.19 103.059H1395.67V165.881H1407.71V182.287ZM1375.03 165.881V148.928C1375.03 146.102 1375.14 142.001 1375.37 136.623C1375.6 131.245 1375.78 128.124 1375.92 127.258H1375.37C1373.68 130.995 1371.66 134.641 1369.29 138.195L1350.97 165.881H1375.03Z" fill="#FF904A"/>
<path d="M1429.46 200.969L1429.85 199.788L1430.4 198.29L1434.17 189.111H1436.85V203H1434.98V191.511L1434.73 192.247L1433.99 194.189L1430.4 203H1428.63L1425.04 194.164C1424.59 193.03 1424.28 192.146 1424.11 191.511V203H1422.23V189.111H1424.81L1428.46 197.935C1428.82 198.866 1429.15 199.877 1429.46 200.969ZM1451.73 203H1449.59V190.889H1445.42C1445.19 193.902 1444.87 196.293 1444.46 198.062C1444.06 199.83 1443.53 201.125 1442.88 201.946C1442.23 202.767 1441.41 203.178 1440.41 203.178C1439.96 203.178 1439.59 203.127 1439.32 203.025V201.464C1439.51 201.515 1439.72 201.54 1439.96 201.54C1440.93 201.54 1441.7 200.512 1442.28 198.455C1442.86 196.398 1443.29 193.275 1443.59 189.086H1451.73V203ZM1458.31 189.086V194.913H1466.11V189.086H1468.22V203H1466.11V196.729H1458.31V203H1456.21V189.086H1458.31ZM1479.73 203V199.464H1477.47V197.774H1479.73V195.46H1477.47V193.484H1479.73V184.436H1484.62C1486.89 184.436 1488.57 184.895 1489.66 185.814C1490.77 186.733 1491.32 188.067 1491.32 189.818C1491.32 191.586 1490.73 192.973 1489.53 193.978C1488.33 194.966 1486.57 195.46 1484.25 195.46H1482.07V197.774H1486.36V199.464H1482.07V203H1479.73ZM1483.91 193.484C1485.49 193.484 1486.71 193.224 1487.58 192.704C1488.46 192.184 1488.91 191.248 1488.91 189.896C1488.91 188.717 1488.54 187.842 1487.81 187.27C1487.09 186.698 1485.95 186.412 1484.41 186.412H1482.07V193.484H1483.91Z" fill="white"/>
<path d="M1261.17 56H1256.63V38.3633H1250.81V34.584H1266.98V38.3633H1261.17V56ZM1289.72 45.2627C1289.72 48.8076 1288.84 51.5322 1287.08 53.4365C1285.32 55.3408 1282.8 56.293 1279.52 56.293C1276.24 56.293 1273.72 55.3408 1271.96 53.4365C1270.21 51.5322 1269.33 48.7979 1269.33 45.2334C1269.33 41.6689 1270.21 38.9492 1271.96 37.0742C1273.73 35.1895 1276.26 34.2471 1279.55 34.2471C1282.84 34.2471 1285.36 35.1943 1287.09 37.0889C1288.84 38.9834 1289.72 41.708 1289.72 45.2627ZM1274.09 45.2627C1274.09 47.6553 1274.54 49.457 1275.45 50.668C1276.36 51.8789 1277.71 52.4844 1279.52 52.4844C1283.14 52.4844 1284.96 50.0771 1284.96 45.2627C1284.96 40.4385 1283.15 38.0264 1279.55 38.0264C1277.74 38.0264 1276.38 38.6367 1275.46 39.8574C1274.55 41.0684 1274.09 42.8701 1274.09 45.2627ZM1303.25 38.0557C1301.54 38.0557 1300.22 38.7002 1299.28 39.9893C1298.34 41.2686 1297.88 43.0557 1297.88 45.3506C1297.88 50.126 1299.67 52.5137 1303.25 52.5137C1304.76 52.5137 1306.58 52.1377 1308.72 51.3857V55.1943C1306.96 55.9268 1305 56.293 1302.83 56.293C1299.71 56.293 1297.33 55.3506 1295.68 53.4658C1294.03 51.5713 1293.2 48.8564 1293.2 45.3213C1293.2 43.0947 1293.61 41.1465 1294.42 39.4766C1295.23 37.7969 1296.39 36.5127 1297.91 35.624C1299.43 34.7256 1301.21 34.2764 1303.25 34.2764C1305.33 34.2764 1307.42 34.7793 1309.52 35.7852L1308.06 39.4766C1307.26 39.0957 1306.45 38.7637 1305.64 38.4805C1304.83 38.1973 1304.03 38.0557 1303.25 38.0557ZM1318.69 38.0557C1317.72 38.0557 1316.77 38.1924 1315.83 38.4658C1314.91 38.7393 1313.99 39.0664 1313.08 39.4473L1311.65 35.7852C1313.91 34.7793 1316.29 34.2764 1318.78 34.2764C1321.95 34.2764 1324.4 35.2529 1326.13 37.2061C1327.87 39.1494 1328.74 41.8545 1328.74 45.3213C1328.74 48.8564 1327.85 51.5713 1326.06 53.4658C1324.28 55.3506 1321.71 56.293 1318.35 56.293C1316.04 56.293 1313.93 55.9268 1312.03 55.1943V51.3857C1314.4 52.1377 1316.42 52.5137 1318.09 52.5137C1319.96 52.5137 1321.38 52.0596 1322.35 51.1514C1323.34 50.2432 1323.88 48.8809 1323.96 47.0645H1314.68V43.3438H1323.94C1323.88 41.6836 1323.38 40.3896 1322.44 39.4619C1321.5 38.5244 1320.25 38.0557 1318.69 38.0557ZM1337.72 44.6621H1339.21C1340.61 44.6621 1341.66 44.3887 1342.35 43.8418C1343.04 43.2852 1343.39 42.4795 1343.39 41.4248C1343.39 40.3604 1343.1 39.5742 1342.51 39.0664C1341.93 38.5586 1341.03 38.3047 1339.79 38.3047H1337.72V44.6621ZM1347.97 41.2637C1347.97 43.5684 1347.25 45.3311 1345.81 46.5518C1344.37 47.7725 1342.32 48.3828 1339.67 48.3828H1337.72V56H1333.18V34.584H1340.02C1342.62 34.584 1344.59 35.1455 1345.94 36.2686C1347.29 37.3818 1347.97 39.0469 1347.97 41.2637ZM1358.32 47.6064L1363.75 40.9414L1366.96 42.6846L1362.87 47.7822L1366.96 52.8799L1363.75 54.623L1358.32 47.9873V47.6064ZM1365.73 47.6064L1371.15 40.9414L1374.37 42.6846L1370.28 47.7822L1374.37 52.8799L1371.15 54.623L1365.73 47.9873V47.6064ZM1382.81 42.8018H1384.59C1387.39 42.8018 1389.55 43.3682 1391.07 44.501C1392.59 45.6338 1393.35 47.2354 1393.35 49.3057C1393.35 53.7686 1390.41 56 1384.51 56H1378.27V34.584H1391.8V38.334H1382.81V42.8018ZM1382.81 52.2793H1384.33C1385.86 52.2793 1386.99 52.0352 1387.7 51.5469C1388.41 51.0488 1388.77 50.3018 1388.77 49.3057C1388.77 48.3193 1388.41 47.6113 1387.69 47.1816C1386.96 46.7422 1385.72 46.5225 1383.96 46.5225H1382.81V52.2793ZM1403.86 42.4941C1402.91 42.4941 1402.17 42.7969 1401.63 43.4023C1401.09 43.998 1400.79 44.8477 1400.71 45.9512H1406.98C1406.96 44.8477 1406.67 43.998 1406.11 43.4023C1405.56 42.7969 1404.8 42.4941 1403.86 42.4941ZM1404.49 56.293C1401.85 56.293 1399.79 55.5654 1398.31 54.1104C1396.82 52.6553 1396.08 50.5947 1396.08 47.9287C1396.08 45.1846 1396.76 43.0654 1398.13 41.5713C1399.51 40.0674 1401.41 39.3154 1403.83 39.3154C1406.14 39.3154 1407.94 39.9746 1409.23 41.293C1410.52 42.6113 1411.17 44.4326 1411.17 46.7568V48.9248H1400.61C1400.65 50.1943 1401.03 51.1855 1401.73 51.8984C1402.44 52.6113 1403.42 52.9678 1404.69 52.9678C1405.68 52.9678 1406.61 52.8652 1407.49 52.6602C1408.37 52.4551 1409.29 52.1279 1410.24 51.6787V55.1357C1409.46 55.5264 1408.63 55.8145 1407.74 56C1406.85 56.1953 1405.77 56.293 1404.49 56.293ZM1429.46 56H1425V42.9775H1420.88C1420.57 46.6396 1420.19 49.374 1419.74 51.1807C1419.29 52.9775 1418.69 54.2812 1417.93 55.0918C1417.19 55.8926 1416.22 56.293 1415 56.293C1413.97 56.293 1413.12 56.1367 1412.46 55.8242V52.25C1412.93 52.4453 1413.41 52.543 1413.89 52.543C1414.45 52.543 1414.91 52.1426 1415.28 51.3418C1415.66 50.541 1416 49.208 1416.29 47.3428C1416.6 45.4678 1416.86 42.8945 1417.07 39.623H1429.46V56ZM1437.72 47.7822C1437.72 49.4033 1437.99 50.6289 1438.52 51.459C1439.05 52.2891 1439.92 52.7041 1441.12 52.7041C1442.31 52.7041 1443.17 52.2939 1443.69 51.4736C1444.21 50.6436 1444.48 49.4131 1444.48 47.7822C1444.48 46.1611 1444.21 44.9453 1443.69 44.1348C1443.16 43.3242 1442.29 42.9189 1441.09 42.9189C1439.9 42.9189 1439.04 43.3242 1438.52 44.1348C1437.99 44.9355 1437.72 46.1514 1437.72 47.7822ZM1449.05 47.7822C1449.05 50.4482 1448.34 52.5332 1446.94 54.0371C1445.53 55.541 1443.57 56.293 1441.06 56.293C1439.49 56.293 1438.11 55.9512 1436.9 55.2676C1435.7 54.5742 1434.78 53.583 1434.14 52.2939C1433.49 51.0049 1433.17 49.501 1433.17 47.7822C1433.17 45.1064 1433.87 43.0264 1435.26 41.542C1436.66 40.0576 1438.62 39.3154 1441.15 39.3154C1442.72 39.3154 1444.11 39.6572 1445.31 40.3408C1446.51 41.0244 1447.44 42.0059 1448.08 43.2852C1448.73 44.5645 1449.05 46.0635 1449.05 47.7822ZM1461.73 56.293C1459.81 56.293 1458.3 55.5947 1457.21 54.1982H1456.97C1457.13 55.5654 1457.21 56.3564 1457.21 56.5713V63.207H1452.74V39.623H1456.37L1457 41.7471H1457.21C1458.25 40.126 1459.8 39.3154 1461.85 39.3154C1463.78 39.3154 1465.3 40.0625 1466.39 41.5566C1467.49 43.0508 1468.03 45.126 1468.03 47.7822C1468.03 49.5303 1467.77 51.0488 1467.26 52.3379C1466.75 53.627 1466.02 54.6084 1465.07 55.2822C1464.13 55.9561 1463.01 56.293 1461.73 56.293ZM1460.42 42.8896C1459.31 42.8896 1458.51 43.2314 1458 43.915C1457.49 44.5889 1457.23 45.707 1457.21 47.2695V47.7529C1457.21 49.5107 1457.47 50.7705 1457.98 51.5322C1458.51 52.2939 1459.34 52.6748 1460.47 52.6748C1462.48 52.6748 1463.48 51.0244 1463.48 47.7236C1463.48 46.1123 1463.23 44.9062 1462.73 44.1055C1462.24 43.2949 1461.47 42.8896 1460.42 42.8896ZM1478.51 42.4941C1477.56 42.4941 1476.82 42.7969 1476.28 43.4023C1475.74 43.998 1475.43 44.8477 1475.36 45.9512H1481.63C1481.61 44.8477 1481.32 43.998 1480.76 43.4023C1480.21 42.7969 1479.45 42.4941 1478.51 42.4941ZM1479.14 56.293C1476.5 56.293 1474.44 55.5654 1472.95 54.1104C1471.47 52.6553 1470.73 50.5947 1470.73 47.9287C1470.73 45.1846 1471.41 43.0654 1472.78 41.5713C1474.16 40.0674 1476.05 39.3154 1478.48 39.3154C1480.79 39.3154 1482.59 39.9746 1483.88 41.293C1485.17 42.6113 1485.82 44.4326 1485.82 46.7568V48.9248H1475.25C1475.3 50.1943 1475.68 51.1855 1476.38 51.8984C1477.08 52.6113 1478.07 52.9678 1479.34 52.9678C1480.33 52.9678 1481.26 52.8652 1482.14 52.6602C1483.02 52.4551 1483.94 52.1279 1484.89 51.6787V55.1357C1484.11 55.5264 1483.28 55.8145 1482.39 56C1481.5 56.1953 1480.42 56.293 1479.14 56.293ZM1504.93 52.7334H1507.32V61.874H1503.31V56H1489.45V39.623H1493.92V52.6455H1500.45V39.623H1504.93V52.7334ZM1520.84 39.623H1525.76L1519.27 47.4746L1526.33 56H1521.26L1514.57 47.6943V56H1510.1V39.623H1514.57V47.5771L1520.84 39.623ZM1543.59 47.9873L1538.15 54.623L1534.95 52.8799L1539.02 47.7822L1534.95 42.6846L1538.15 40.9414L1543.59 47.6064V47.9873ZM1536.18 47.9873L1530.74 54.623L1527.53 52.8799L1531.61 47.7822L1527.53 42.6846L1530.74 40.9414L1536.18 47.6064V47.9873Z" fill="white"/>
<path d="M1325.47 453H1255.61V438.303L1280.69 412.941C1288.12 405.331 1292.98 400.067 1295.25 397.15C1297.53 394.188 1299.17 391.454 1300.18 388.947C1301.18 386.441 1301.68 383.843 1301.68 381.154C1301.68 377.144 1300.56 374.159 1298.33 372.199C1296.14 370.24 1293.2 369.26 1289.51 369.26C1285.64 369.26 1281.88 370.148 1278.23 371.926C1274.59 373.703 1270.78 376.232 1266.82 379.514L1255.33 365.91C1260.25 361.717 1264.33 358.755 1267.57 357.023C1270.8 355.292 1274.34 353.97 1278.16 353.059C1281.99 352.102 1286.28 351.623 1291.02 351.623C1297.26 351.623 1302.77 352.762 1307.56 355.041C1312.34 357.32 1316.06 360.51 1318.7 364.611C1321.34 368.713 1322.67 373.407 1322.67 378.693C1322.67 383.296 1321.85 387.626 1320.21 391.682C1318.61 395.692 1316.1 399.816 1312.69 404.055C1309.31 408.293 1303.34 414.331 1294.78 422.17L1281.92 434.27V435.227H1325.47V453ZM1405.45 453H1335.59V438.303L1360.67 412.941C1368.1 405.331 1372.96 400.067 1375.23 397.15C1377.51 394.188 1379.15 391.454 1380.16 388.947C1381.16 386.441 1381.66 383.843 1381.66 381.154C1381.66 377.144 1380.54 374.159 1378.31 372.199C1376.12 370.24 1373.18 369.26 1369.49 369.26C1365.62 369.26 1361.86 370.148 1358.21 371.926C1354.57 373.703 1350.76 376.232 1346.8 379.514L1335.31 365.91C1340.23 361.717 1344.31 358.755 1347.55 357.023C1350.78 355.292 1354.32 353.97 1358.14 353.059C1361.97 352.102 1366.26 351.623 1371 351.623C1377.24 351.623 1382.75 352.762 1387.54 355.041C1392.32 357.32 1396.04 360.51 1398.68 364.611C1401.32 368.713 1402.65 373.407 1402.65 378.693C1402.65 383.296 1401.83 387.626 1400.19 391.682C1398.59 395.692 1396.08 399.816 1392.67 404.055C1389.29 408.293 1383.32 414.331 1374.76 422.17L1361.9 434.27V435.227H1405.45V453Z" fill="#FBBD0B"/>
<path d="M1429.46 450.969L1429.85 449.788L1430.4 448.29L1434.17 439.111H1436.85V453H1434.98V441.511L1434.73 442.247L1433.99 444.189L1430.4 453H1428.63L1425.04 444.164C1424.59 443.03 1424.28 442.146 1424.11 441.511V453H1422.23V439.111H1424.81L1428.46 447.935C1428.82 448.866 1429.15 449.877 1429.46 450.969ZM1451.73 453H1449.59V440.889H1445.42C1445.19 443.902 1444.87 446.293 1444.46 448.062C1444.06 449.83 1443.53 451.125 1442.88 451.946C1442.23 452.767 1441.41 453.178 1440.41 453.178C1439.96 453.178 1439.59 453.127 1439.32 453.025V451.464C1439.51 451.515 1439.72 451.54 1439.96 451.54C1440.93 451.54 1441.7 450.512 1442.28 448.455C1442.86 446.398 1443.29 443.275 1443.59 439.086H1451.73V453ZM1458.31 439.086V444.913H1466.11V439.086H1468.22V453H1466.11V446.729H1458.31V453H1456.21V439.086H1458.31ZM1479.73 453V449.464H1477.47V447.774H1479.73V445.46H1477.47V443.484H1479.73V434.436H1484.62C1486.89 434.436 1488.57 434.895 1489.66 435.814C1490.77 436.733 1491.32 438.067 1491.32 439.818C1491.32 441.586 1490.73 442.973 1489.53 443.978C1488.33 444.966 1486.57 445.46 1484.25 445.46H1482.07V447.774H1486.36V449.464H1482.07V453H1479.73ZM1483.91 443.484C1485.49 443.484 1486.71 443.224 1487.58 442.704C1488.46 442.184 1488.91 441.248 1488.91 439.896C1488.91 438.717 1488.54 437.842 1487.81 437.27C1487.09 436.698 1485.95 436.412 1484.41 436.412H1482.07V443.484H1483.91Z" fill="white"/>
<path d="M1260.99 306H1256.45V288.363H1250.63V284.584H1266.81V288.363H1260.99V306ZM1289.54 295.263C1289.54 298.808 1288.66 301.532 1286.9 303.437C1285.15 305.341 1282.63 306.293 1279.35 306.293C1276.06 306.293 1273.54 305.341 1271.79 303.437C1270.03 301.532 1269.15 298.798 1269.15 295.233C1269.15 291.669 1270.03 288.949 1271.79 287.074C1273.55 285.189 1276.08 284.247 1279.38 284.247C1282.67 284.247 1285.18 285.194 1286.92 287.089C1288.67 288.983 1289.54 291.708 1289.54 295.263ZM1273.91 295.263C1273.91 297.655 1274.37 299.457 1275.27 300.668C1276.18 301.879 1277.54 302.484 1279.35 302.484C1282.97 302.484 1284.78 300.077 1284.78 295.263C1284.78 290.438 1282.98 288.026 1279.38 288.026C1277.57 288.026 1276.21 288.637 1275.29 289.857C1274.37 291.068 1273.91 292.87 1273.91 295.263ZM1303.08 288.056C1301.37 288.056 1300.04 288.7 1299.11 289.989C1298.17 291.269 1297.7 293.056 1297.7 295.351C1297.7 300.126 1299.49 302.514 1303.08 302.514C1304.58 302.514 1306.4 302.138 1308.54 301.386V305.194C1306.78 305.927 1304.82 306.293 1302.65 306.293C1299.54 306.293 1297.15 305.351 1295.5 303.466C1293.85 301.571 1293.03 298.856 1293.03 295.321C1293.03 293.095 1293.43 291.146 1294.24 289.477C1295.05 287.797 1296.22 286.513 1297.73 285.624C1299.25 284.726 1301.04 284.276 1303.08 284.276C1305.16 284.276 1307.25 284.779 1309.35 285.785L1307.88 289.477C1307.08 289.096 1306.27 288.764 1305.46 288.48C1304.65 288.197 1303.86 288.056 1303.08 288.056ZM1318.52 288.056C1317.55 288.056 1316.6 288.192 1315.66 288.466C1314.73 288.739 1313.81 289.066 1312.91 289.447L1311.47 285.785C1313.74 284.779 1316.11 284.276 1318.6 284.276C1321.78 284.276 1324.23 285.253 1325.96 287.206C1327.7 289.149 1328.56 291.854 1328.56 295.321C1328.56 298.856 1327.67 301.571 1325.88 303.466C1324.11 305.351 1321.54 306.293 1318.18 306.293C1315.86 306.293 1313.75 305.927 1311.85 305.194V301.386C1314.22 302.138 1316.25 302.514 1317.92 302.514C1319.78 302.514 1321.2 302.06 1322.18 301.151C1323.16 300.243 1323.7 298.881 1323.79 297.064H1314.5V293.344H1323.76C1323.7 291.684 1323.2 290.39 1322.27 289.462C1321.33 288.524 1320.08 288.056 1318.52 288.056ZM1337.54 294.662H1339.04C1340.43 294.662 1341.48 294.389 1342.17 293.842C1342.87 293.285 1343.21 292.479 1343.21 291.425C1343.21 290.36 1342.92 289.574 1342.33 289.066C1341.76 288.559 1340.85 288.305 1339.61 288.305H1337.54V294.662ZM1347.8 291.264C1347.8 293.568 1347.08 295.331 1345.63 296.552C1344.19 297.772 1342.15 298.383 1339.49 298.383H1337.54V306H1333V284.584H1339.84C1342.44 284.584 1344.41 285.146 1345.76 286.269C1347.12 287.382 1347.8 289.047 1347.8 291.264ZM1358.14 297.606L1363.57 290.941L1366.78 292.685L1362.7 297.782L1366.78 302.88L1363.57 304.623L1358.14 297.987V297.606ZM1365.55 297.606L1370.97 290.941L1374.19 292.685L1370.11 297.782L1374.19 302.88L1370.97 304.623L1365.55 297.987V297.606ZM1395.55 306H1390.4L1382.63 295.146V306H1378.09V284.584H1382.63V294.955L1390.31 284.584H1395.14L1387.33 294.867L1395.55 306ZM1395.55 289.623H1400.44L1403.54 298.837C1403.8 299.638 1403.98 300.585 1404.08 301.679H1404.17C1404.27 300.673 1404.48 299.726 1404.79 298.837L1407.83 289.623H1412.62L1405.69 308.095C1405.05 309.804 1404.15 311.083 1402.96 311.933C1401.79 312.782 1400.42 313.207 1398.85 313.207C1398.08 313.207 1397.32 313.124 1396.58 312.958V309.413C1397.11 309.54 1397.7 309.604 1398.33 309.604C1399.13 309.604 1399.81 309.359 1400.4 308.871C1401 308.393 1401.46 307.665 1401.79 306.688L1402.06 305.883L1395.55 289.623ZM1435.62 306H1431.44V293.095L1431.21 294.003C1430.68 296.063 1430.21 297.621 1429.79 298.676L1426.88 306H1423.71L1420.76 298.617C1420.34 297.543 1419.89 296.034 1419.41 294.091L1419.14 293.095V306H1414.98V289.623H1421.13L1423.94 296.61C1424.23 297.362 1424.5 298.227 1424.75 299.203C1425 300.18 1425.17 301.015 1425.26 301.708C1425.58 300.243 1425.83 299.193 1426.01 298.559C1426.19 297.914 1426.39 297.323 1426.61 296.786C1426.82 296.249 1427.79 293.861 1429.52 289.623H1435.62V306ZM1447.1 292.494C1446.15 292.494 1445.41 292.797 1444.87 293.402C1444.34 293.998 1444.03 294.848 1443.95 295.951H1450.22C1450.2 294.848 1449.91 293.998 1449.36 293.402C1448.8 292.797 1448.05 292.494 1447.1 292.494ZM1447.73 306.293C1445.09 306.293 1443.03 305.565 1441.55 304.11C1440.06 302.655 1439.32 300.595 1439.32 297.929C1439.32 295.185 1440 293.065 1441.37 291.571C1442.75 290.067 1444.65 289.315 1447.07 289.315C1449.38 289.315 1451.19 289.975 1452.48 291.293C1453.76 292.611 1454.41 294.433 1454.41 296.757V298.925H1443.85C1443.9 300.194 1444.27 301.186 1444.98 301.898C1445.68 302.611 1446.67 302.968 1447.93 302.968C1448.92 302.968 1449.85 302.865 1450.73 302.66C1451.61 302.455 1452.53 302.128 1453.49 301.679V305.136C1452.71 305.526 1451.87 305.814 1450.98 306C1450.09 306.195 1449.01 306.293 1447.73 306.293ZM1467.04 306.293C1465.11 306.293 1463.6 305.595 1462.51 304.198H1462.28C1462.43 305.565 1462.51 306.356 1462.51 306.571V313.207H1458.04V289.623H1461.67L1462.3 291.747H1462.51C1463.55 290.126 1465.1 289.315 1467.15 289.315C1469.09 289.315 1470.6 290.062 1471.69 291.557C1472.79 293.051 1473.33 295.126 1473.33 297.782C1473.33 299.53 1473.08 301.049 1472.56 302.338C1472.05 303.627 1471.32 304.608 1470.38 305.282C1469.43 305.956 1468.32 306.293 1467.04 306.293ZM1465.72 292.89C1464.61 292.89 1463.81 293.231 1463.3 293.915C1462.79 294.589 1462.53 295.707 1462.51 297.27V297.753C1462.51 299.511 1462.77 300.771 1463.29 301.532C1463.81 302.294 1464.64 302.675 1465.78 302.675C1467.78 302.675 1468.78 301.024 1468.78 297.724C1468.78 296.112 1468.53 294.906 1468.03 294.105C1467.54 293.295 1466.77 292.89 1465.72 292.89ZM1490.58 289.623V292.978H1485.21V306H1480.75V292.978H1475.37V289.623H1490.58ZM1504.04 306L1503.17 303.773H1503.06C1502.3 304.721 1501.53 305.38 1500.73 305.751C1499.94 306.112 1498.9 306.293 1497.62 306.293C1496.05 306.293 1494.81 305.844 1493.9 304.945C1493 304.047 1492.55 302.768 1492.55 301.107C1492.55 299.369 1493.16 298.09 1494.37 297.27C1495.59 296.439 1497.43 295.98 1499.88 295.893L1502.72 295.805V295.087C1502.72 293.427 1501.87 292.597 1500.17 292.597C1498.86 292.597 1497.32 292.992 1495.56 293.783L1494.08 290.766C1495.96 289.779 1498.05 289.286 1500.35 289.286C1502.54 289.286 1504.23 289.765 1505.4 290.722C1506.57 291.679 1507.16 293.134 1507.16 295.087V306H1504.04ZM1502.72 298.412L1500.99 298.471C1499.69 298.51 1498.73 298.744 1498.09 299.174C1497.46 299.604 1497.14 300.258 1497.14 301.137C1497.14 302.396 1497.86 303.026 1499.31 303.026C1500.34 303.026 1501.17 302.729 1501.78 302.133C1502.41 301.537 1502.72 300.746 1502.72 299.76V298.412ZM1509.43 289.623H1514.32L1517.41 298.837C1517.68 299.638 1517.86 300.585 1517.95 301.679H1518.04C1518.15 300.673 1518.36 299.726 1518.67 298.837L1521.7 289.623H1526.49L1519.57 308.095C1518.93 309.804 1518.02 311.083 1516.84 311.933C1515.67 312.782 1514.3 313.207 1512.72 313.207C1511.95 313.207 1511.2 313.124 1510.45 312.958V309.413C1510.99 309.54 1511.58 309.604 1512.21 309.604C1513 309.604 1513.69 309.359 1514.28 308.871C1514.87 308.393 1515.34 307.665 1515.67 306.688L1515.93 305.883L1509.43 289.623ZM1543.76 297.987L1538.33 304.623L1535.12 302.88L1539.19 297.782L1535.12 292.685L1538.33 290.941L1543.76 297.606V297.987ZM1536.35 297.987L1530.92 304.623L1527.71 302.88L1531.78 297.782L1527.71 292.685L1530.92 290.941L1536.35 297.606V297.987Z" fill="white"/>
<path d="M57.832 453H36.709V395.168L36.9141 385.666L37.2559 375.275C33.7467 378.785 31.3086 381.086 29.9414 382.18L18.457 391.408L8.27148 378.693L40.4688 353.059H57.832V453ZM120.039 351.76C129.609 351.76 137.311 353.947 143.145 358.322C149.023 362.652 151.963 368.508 151.963 375.891C151.963 380.995 150.55 385.552 147.725 389.562C144.899 393.527 140.342 397.082 134.053 400.227C141.527 404.237 146.882 408.43 150.117 412.805C153.398 417.134 155.039 421.896 155.039 427.092C155.039 435.295 151.826 441.903 145.4 446.916C138.975 451.883 130.521 454.367 120.039 454.367C109.102 454.367 100.511 452.043 94.2676 447.395C88.0241 442.746 84.9023 436.161 84.9023 427.639C84.9023 421.942 86.4062 416.883 89.4141 412.463C92.4674 408.042 97.3438 404.146 104.043 400.773C98.3464 397.173 94.2448 393.322 91.7383 389.221C89.2318 385.119 87.9785 380.63 87.9785 375.754C87.9785 368.599 90.9408 362.811 96.8652 358.391C102.79 353.97 110.514 351.76 120.039 351.76ZM104.453 426.408C104.453 430.327 105.82 433.381 108.555 435.568C111.289 437.756 115.026 438.85 119.766 438.85C125.007 438.85 128.926 437.733 131.523 435.5C134.121 433.221 135.42 430.236 135.42 426.545C135.42 423.492 134.121 420.643 131.523 418C128.971 415.311 124.801 412.463 119.014 409.455C109.307 413.921 104.453 419.572 104.453 426.408ZM119.902 367.209C116.302 367.209 113.385 368.143 111.152 370.012C108.965 371.835 107.871 374.296 107.871 377.395C107.871 380.129 108.737 382.59 110.469 384.777C112.246 386.919 115.436 389.13 120.039 391.408C124.505 389.312 127.627 387.17 129.404 384.982C131.182 382.795 132.07 380.266 132.07 377.395C132.07 374.25 130.931 371.766 128.652 369.943C126.374 368.12 123.457 367.209 119.902 367.209ZM231.533 375.412C231.533 381.656 229.642 386.965 225.859 391.34C222.077 395.715 216.768 398.723 209.932 400.363V400.773C217.998 401.776 224.105 404.237 228.252 408.156C232.399 412.03 234.473 417.271 234.473 423.879C234.473 433.495 230.986 440.992 224.014 446.369C217.041 451.701 207.083 454.367 194.141 454.367C183.294 454.367 173.678 452.567 165.293 448.967V430.988C169.167 432.948 173.428 434.543 178.076 435.773C182.725 437.004 187.327 437.619 191.885 437.619C198.857 437.619 204.007 436.434 207.334 434.064C210.661 431.695 212.324 427.889 212.324 422.648C212.324 417.954 210.41 414.628 206.582 412.668C202.754 410.708 196.647 409.729 188.262 409.729H180.674V393.527H188.398C196.146 393.527 201.797 392.525 205.352 390.52C208.952 388.469 210.752 384.982 210.752 380.061C210.752 372.495 206.012 368.713 196.533 368.713C193.252 368.713 189.902 369.26 186.484 370.354C183.112 371.447 179.352 373.339 175.205 376.027L165.43 361.467C174.544 354.904 185.413 351.623 198.037 351.623C208.382 351.623 216.54 353.719 222.51 357.912C228.525 362.105 231.533 367.938 231.533 375.412Z" fill="#FF4C00"/>
<path d="M259.458 450.969L259.852 449.788L260.397 448.29L264.168 439.111H266.847V453H264.98V441.511L264.727 442.247L263.99 444.189L260.397 453H258.633L255.04 444.164C254.591 443.03 254.283 442.146 254.113 441.511V453H252.234V439.111H254.812L258.455 447.935C258.819 448.866 259.153 449.877 259.458 450.969ZM281.726 453H279.593V440.889H275.416C275.188 443.902 274.87 446.293 274.464 448.062C274.058 449.83 273.529 451.125 272.877 451.946C272.234 452.767 271.413 453.178 270.414 453.178C269.957 453.178 269.593 453.127 269.322 453.025V451.464C269.508 451.515 269.72 451.54 269.957 451.54C270.93 451.54 271.705 450.512 272.28 448.455C272.856 446.398 273.292 443.275 273.588 439.086H281.726V453ZM288.314 439.086V444.913H296.109V439.086H298.217V453H296.109V446.729H288.314V453H286.207V439.086H288.314ZM309.727 453V449.464H307.465V447.774H309.727V445.46H307.465V443.484H309.727V434.436H314.615C316.886 434.436 318.567 434.895 319.659 435.814C320.768 436.733 321.323 438.067 321.323 439.818C321.323 441.586 320.725 442.973 319.529 443.978C318.333 444.966 316.574 445.46 314.251 445.46H312.067V447.774H316.357V449.464H312.067V453H309.727ZM313.913 443.484C315.49 443.484 316.712 443.224 317.579 442.704C318.463 442.184 318.905 441.248 318.905 439.896C318.905 438.717 318.541 437.842 317.813 437.27C317.085 436.698 315.95 436.412 314.407 436.412H312.067V443.484H313.913Z" fill="white"/>
<path d="M11.2148 306H6.67383V288.363H0.858398V284.584H17.0303V288.363H11.2148V306ZM39.7646 295.263C39.7646 298.808 38.8857 301.532 37.1279 303.437C35.3701 305.341 32.8506 306.293 29.5693 306.293C26.2881 306.293 23.7686 305.341 22.0107 303.437C20.2529 301.532 19.374 298.798 19.374 295.233C19.374 291.669 20.2529 288.949 22.0107 287.074C23.7783 285.189 26.3076 284.247 29.5986 284.247C32.8896 284.247 35.4043 285.194 37.1426 287.089C38.8906 288.983 39.7646 291.708 39.7646 295.263ZM24.1348 295.263C24.1348 297.655 24.5889 299.457 25.4971 300.668C26.4053 301.879 27.7627 302.484 29.5693 302.484C33.1924 302.484 35.0039 300.077 35.0039 295.263C35.0039 290.438 33.2021 288.026 29.5986 288.026C27.792 288.026 26.4297 288.637 25.5117 289.857C24.5938 291.068 24.1348 292.87 24.1348 295.263ZM53.2998 288.056C51.5908 288.056 50.2676 288.7 49.3301 289.989C48.3926 291.269 47.9238 293.056 47.9238 295.351C47.9238 300.126 49.7158 302.514 53.2998 302.514C54.8037 302.514 56.625 302.138 58.7637 301.386V305.194C57.0059 305.927 55.043 306.293 52.875 306.293C49.7598 306.293 47.377 305.351 45.7266 303.466C44.0762 301.571 43.251 298.856 43.251 295.321C43.251 293.095 43.6562 291.146 44.4668 289.477C45.2773 287.797 46.4395 286.513 47.9531 285.624C49.4766 284.726 51.2588 284.276 53.2998 284.276C55.3799 284.276 57.4697 284.779 59.5693 285.785L58.1045 289.477C57.3037 289.096 56.498 288.764 55.6875 288.48C54.877 288.197 54.0811 288.056 53.2998 288.056ZM68.7393 288.056C67.7725 288.056 66.8203 288.192 65.8828 288.466C64.9551 288.739 64.0371 289.066 63.1289 289.447L61.6934 285.785C63.959 284.779 66.3369 284.276 68.8271 284.276C72.001 284.276 74.4521 285.253 76.1807 287.206C77.9189 289.149 78.7881 291.854 78.7881 295.321C78.7881 298.856 77.8945 301.571 76.1074 303.466C74.3301 305.351 71.7617 306.293 68.4023 306.293C66.0879 306.293 63.9785 305.927 62.0742 305.194V301.386C64.4473 302.138 66.4688 302.514 68.1387 302.514C70.0039 302.514 71.4248 302.06 72.4014 301.151C73.3877 300.243 73.9248 298.881 74.0127 297.064H64.7256V293.344H73.9834C73.9248 291.684 73.4268 290.39 72.4893 289.462C71.5518 288.524 70.3018 288.056 68.7393 288.056ZM87.7676 294.662H89.2617C90.6582 294.662 91.7031 294.389 92.3965 293.842C93.0898 293.285 93.4365 292.479 93.4365 291.425C93.4365 290.36 93.1436 289.574 92.5576 289.066C91.9814 288.559 91.0732 288.305 89.833 288.305H87.7676V294.662ZM98.0215 291.264C98.0215 293.568 97.2988 295.331 95.8535 296.552C94.418 297.772 92.3721 298.383 89.7158 298.383H87.7676V306H83.2266V284.584H90.0674C92.665 284.584 94.6377 285.146 95.9854 286.269C97.3428 287.382 98.0215 289.047 98.0215 291.264ZM108.363 297.606L113.798 290.941L117.006 292.685L112.919 297.782L117.006 302.88L113.798 304.623L108.363 297.987V297.606ZM115.775 297.606L121.195 290.941L124.418 292.685L120.331 297.782L124.418 302.88L121.195 304.623L115.775 297.987V297.606ZM132.855 292.802H134.643C137.436 292.802 139.594 293.368 141.117 294.501C142.641 295.634 143.402 297.235 143.402 299.306C143.402 303.769 140.453 306 134.555 306H128.314V284.584H141.85V288.334H132.855V292.802ZM132.855 302.279H134.379C135.912 302.279 137.035 302.035 137.748 301.547C138.461 301.049 138.817 300.302 138.817 299.306C138.817 298.319 138.456 297.611 137.733 297.182C137.011 296.742 135.771 296.522 134.013 296.522H132.855V302.279ZM161.786 306H157.318V292.978H153.202C152.89 296.64 152.509 299.374 152.06 301.181C151.61 302.978 151.01 304.281 150.258 305.092C149.516 305.893 148.539 306.293 147.328 306.293C146.293 306.293 145.443 306.137 144.779 305.824V302.25C145.258 302.445 145.736 302.543 146.215 302.543C146.771 302.543 147.235 302.143 147.606 301.342C147.987 300.541 148.324 299.208 148.617 297.343C148.92 295.468 149.179 292.895 149.394 289.623H161.786V306ZM176.889 306L176.024 303.773H175.907C175.155 304.721 174.379 305.38 173.578 305.751C172.787 306.112 171.752 306.293 170.473 306.293C168.9 306.293 167.66 305.844 166.752 304.945C165.854 304.047 165.404 302.768 165.404 301.107C165.404 299.369 166.01 298.09 167.221 297.27C168.441 296.439 170.277 295.98 172.729 295.893L175.57 295.805V295.087C175.57 293.427 174.721 292.597 173.021 292.597C171.713 292.597 170.175 292.992 168.407 293.783L166.928 290.766C168.812 289.779 170.902 289.286 173.197 289.286C175.395 289.286 177.079 289.765 178.251 290.722C179.423 291.679 180.009 293.134 180.009 295.087V306H176.889ZM175.57 298.412L173.842 298.471C172.543 298.51 171.576 298.744 170.941 299.174C170.307 299.604 169.989 300.258 169.989 301.137C169.989 302.396 170.712 303.026 172.157 303.026C173.192 303.026 174.018 302.729 174.633 302.133C175.258 301.537 175.57 300.746 175.57 299.76V298.412ZM195.932 289.623V292.978H189.091V306H184.623V289.623H195.932ZM202.538 297.782C202.538 299.403 202.802 300.629 203.329 301.459C203.866 302.289 204.735 302.704 205.937 302.704C207.128 302.704 207.982 302.294 208.5 301.474C209.027 300.644 209.291 299.413 209.291 297.782C209.291 296.161 209.027 294.945 208.5 294.135C207.973 293.324 207.108 292.919 205.907 292.919C204.716 292.919 203.856 293.324 203.329 294.135C202.802 294.936 202.538 296.151 202.538 297.782ZM213.861 297.782C213.861 300.448 213.158 302.533 211.752 304.037C210.346 305.541 208.388 306.293 205.878 306.293C204.306 306.293 202.919 305.951 201.718 305.268C200.517 304.574 199.594 303.583 198.949 302.294C198.305 301.005 197.982 299.501 197.982 297.782C197.982 295.106 198.681 293.026 200.077 291.542C201.474 290.058 203.437 289.315 205.966 289.315C207.538 289.315 208.925 289.657 210.126 290.341C211.327 291.024 212.25 292.006 212.895 293.285C213.539 294.564 213.861 296.063 213.861 297.782ZM232.67 293.915C232.67 294.794 232.392 295.546 231.835 296.171C231.288 296.786 230.478 297.182 229.403 297.357V297.475C230.565 297.611 231.483 298.012 232.157 298.676C232.841 299.33 233.183 300.141 233.183 301.107C233.183 302.699 232.558 303.915 231.308 304.755C230.058 305.585 228.271 306 225.946 306H217.553V289.623H225.946C228.192 289.623 229.872 289.989 230.985 290.722C232.108 291.444 232.67 292.509 232.67 293.915ZM228.554 300.873C228.554 300.229 228.305 299.765 227.807 299.481C227.309 299.188 226.562 299.042 225.565 299.042H222.021V302.909H225.653C226.601 302.909 227.318 302.733 227.807 302.382C228.305 302.021 228.554 301.518 228.554 300.873ZM228.144 294.267C228.144 293.271 227.353 292.772 225.771 292.772H222.021V296.01H225.258C226.205 296.01 226.923 295.873 227.411 295.6C227.899 295.326 228.144 294.882 228.144 294.267ZM243.524 292.494C242.577 292.494 241.835 292.797 241.298 293.402C240.761 293.998 240.453 294.848 240.375 295.951H246.645C246.625 294.848 246.337 293.998 245.78 293.402C245.224 292.797 244.472 292.494 243.524 292.494ZM244.154 306.293C241.518 306.293 239.457 305.565 237.973 304.11C236.488 302.655 235.746 300.595 235.746 297.929C235.746 295.185 236.43 293.065 237.797 291.571C239.174 290.067 241.073 289.315 243.495 289.315C245.81 289.315 247.611 289.975 248.9 291.293C250.189 292.611 250.834 294.433 250.834 296.757V298.925H240.272C240.321 300.194 240.697 301.186 241.4 301.898C242.104 302.611 243.09 302.968 244.359 302.968C245.346 302.968 246.278 302.865 247.157 302.66C248.036 302.455 248.954 302.128 249.911 301.679V305.136C249.13 305.526 248.295 305.814 247.406 306C246.518 306.195 245.434 306.293 244.154 306.293ZM278.856 302.733H281.259V311.874H277.23V306H254.467V289.623H258.935V302.646H264.428V289.623H268.896V302.646H274.389V289.623H278.856V302.733ZM290.81 292.494C289.862 292.494 289.12 292.797 288.583 293.402C288.046 293.998 287.738 294.848 287.66 295.951H293.93C293.91 294.848 293.622 293.998 293.065 293.402C292.509 292.797 291.757 292.494 290.81 292.494ZM291.439 306.293C288.803 306.293 286.742 305.565 285.258 304.11C283.773 302.655 283.031 300.595 283.031 297.929C283.031 295.185 283.715 293.065 285.082 291.571C286.459 290.067 288.358 289.315 290.78 289.315C293.095 289.315 294.896 289.975 296.186 291.293C297.475 292.611 298.119 294.433 298.119 296.757V298.925H287.558C287.606 300.194 287.982 301.186 288.686 301.898C289.389 302.611 290.375 302.968 291.645 302.968C292.631 302.968 293.563 302.865 294.442 302.66C295.321 302.455 296.239 302.128 297.196 301.679V305.136C296.415 305.526 295.58 305.814 294.691 306C293.803 306.195 292.719 306.293 291.439 306.293ZM306.22 289.623V295.922H312.46V289.623H316.928V306H312.46V299.247H306.22V306H301.752V289.623H306.22ZM328.266 306.293C323.168 306.293 320.619 303.495 320.619 297.899C320.619 295.116 321.312 292.992 322.699 291.527C324.086 290.053 326.073 289.315 328.661 289.315C330.556 289.315 332.255 289.687 333.759 290.429L332.44 293.886C331.737 293.603 331.083 293.373 330.478 293.197C329.872 293.012 329.267 292.919 328.661 292.919C326.337 292.919 325.175 294.569 325.175 297.87C325.175 301.073 326.337 302.675 328.661 302.675C329.521 302.675 330.316 302.562 331.049 302.338C331.781 302.104 332.514 301.742 333.246 301.254V305.077C332.523 305.536 331.791 305.854 331.049 306.029C330.316 306.205 329.389 306.293 328.266 306.293ZM347.792 289.623H352.714L346.225 297.475L353.285 306H348.217L341.522 297.694V306H337.055V289.623H341.522V297.577L347.792 289.623ZM370.541 297.987L365.106 304.623L361.898 302.88L365.971 297.782L361.898 292.685L365.106 290.941L370.541 297.606V297.987ZM363.129 297.987L357.694 304.623L354.486 302.88L358.559 297.782L354.486 292.685L357.694 290.941L363.129 297.606V297.987Z" fill="white"/>
<path d="M41.9727 639.152C51.6341 639.152 59.3132 641.864 65.0098 647.287C70.752 652.71 73.623 660.139 73.623 669.572C73.623 680.738 70.1823 689.328 63.3008 695.344C56.4193 701.359 46.5755 704.367 33.7695 704.367C22.6497 704.367 13.6719 702.567 6.83594 698.967V680.715C10.4362 682.629 14.6289 684.201 19.4141 685.432C24.1992 686.617 28.7337 687.209 33.0176 687.209C45.9147 687.209 52.3633 681.923 52.3633 671.35C52.3633 661.278 45.6868 656.242 32.334 656.242C29.9186 656.242 27.2526 656.493 24.3359 656.994C21.4193 657.45 19.0495 657.951 17.2266 658.498L8.81836 653.986L12.5781 603.059H66.7871V620.969H31.1035L29.2578 640.588L31.6504 640.109C34.4303 639.471 37.8711 639.152 41.9727 639.152ZM84.9023 660.549C84.9023 640.77 89.0723 626.05 97.4121 616.389C105.798 606.727 118.33 601.896 135.01 601.896C140.706 601.896 145.173 602.238 148.408 602.922V619.807C144.352 618.895 140.342 618.439 136.377 618.439C129.131 618.439 123.206 619.533 118.604 621.721C114.046 623.908 110.628 627.144 108.35 631.428C106.071 635.712 104.727 641.796 104.316 649.68H105.205C109.717 641.932 116.94 638.059 126.875 638.059C135.807 638.059 142.803 640.861 147.861 646.467C152.92 652.072 155.449 659.82 155.449 669.709C155.449 680.373 152.441 688.827 146.426 695.07C140.41 701.268 132.07 704.367 121.406 704.367C114.023 704.367 107.575 702.658 102.061 699.24C96.5918 695.822 92.3535 690.832 89.3457 684.27C86.3835 677.707 84.9023 669.8 84.9023 660.549ZM120.996 687.482C125.508 687.482 128.971 685.979 131.387 682.971C133.802 679.917 135.01 675.588 135.01 669.982C135.01 665.106 133.87 661.278 131.592 658.498C129.359 655.673 125.964 654.26 121.406 654.26C117.122 654.26 113.454 655.65 110.4 658.43C107.393 661.21 105.889 664.445 105.889 668.137C105.889 673.56 107.301 678.14 110.127 681.877C112.998 685.614 116.621 687.482 120.996 687.482Z" fill="#01AEF8"/>
<path d="M179.458 700.969L179.852 699.788L180.397 698.29L184.168 689.111H186.847V703H184.98V691.511L184.727 692.247L183.99 694.189L180.397 703H178.633L175.04 694.164C174.591 693.03 174.283 692.146 174.113 691.511V703H172.234V689.111H174.812L178.455 697.935C178.819 698.866 179.153 699.877 179.458 700.969ZM201.726 703H199.593V690.889H195.416C195.188 693.902 194.87 696.293 194.464 698.062C194.058 699.83 193.529 701.125 192.877 701.946C192.234 702.767 191.413 703.178 190.414 703.178C189.957 703.178 189.593 703.127 189.322 703.025V701.464C189.508 701.515 189.72 701.54 189.957 701.54C190.93 701.54 191.705 700.512 192.28 698.455C192.856 696.398 193.292 693.275 193.588 689.086H201.726V703ZM208.314 689.086V694.913H216.109V689.086H218.217V703H216.109V696.729H208.314V703H206.207V689.086H208.314ZM229.727 703V699.464H227.465V697.774H229.727V695.46H227.465V693.484H229.727V684.436H234.615C236.886 684.436 238.567 684.895 239.659 685.814C240.768 686.733 241.323 688.067 241.323 689.818C241.323 691.586 240.725 692.973 239.529 693.978C238.333 694.966 236.574 695.46 234.251 695.46H232.067V697.774H236.357V699.464H232.067V703H229.727ZM233.913 693.484C235.49 693.484 236.712 693.224 237.579 692.704C238.463 692.184 238.905 691.248 238.905 689.896C238.905 688.717 238.541 687.842 237.813 687.27C237.085 686.698 235.95 686.412 234.407 686.412H232.067V693.484H233.913Z" fill="white"/>
<path d="M11.0566 556H6.51562V538.363H0.700195V534.584H16.8721V538.363H11.0566V556ZM39.6064 545.263C39.6064 548.808 38.7275 551.532 36.9697 553.437C35.2119 555.341 32.6924 556.293 29.4111 556.293C26.1299 556.293 23.6104 555.341 21.8525 553.437C20.0947 551.532 19.2158 548.798 19.2158 545.233C19.2158 541.669 20.0947 538.949 21.8525 537.074C23.6201 535.189 26.1494 534.247 29.4404 534.247C32.7314 534.247 35.2461 535.194 36.9844 537.089C38.7324 538.983 39.6064 541.708 39.6064 545.263ZM23.9766 545.263C23.9766 547.655 24.4307 549.457 25.3389 550.668C26.2471 551.879 27.6045 552.484 29.4111 552.484C33.0342 552.484 34.8457 550.077 34.8457 545.263C34.8457 540.438 33.0439 538.026 29.4404 538.026C27.6338 538.026 26.2715 538.637 25.3535 539.857C24.4355 541.068 23.9766 542.87 23.9766 545.263ZM53.1416 538.056C51.4326 538.056 50.1094 538.7 49.1719 539.989C48.2344 541.269 47.7656 543.056 47.7656 545.351C47.7656 550.126 49.5576 552.514 53.1416 552.514C54.6455 552.514 56.4668 552.138 58.6055 551.386V555.194C56.8477 555.927 54.8848 556.293 52.7168 556.293C49.6016 556.293 47.2188 555.351 45.5684 553.466C43.918 551.571 43.0928 548.856 43.0928 545.321C43.0928 543.095 43.498 541.146 44.3086 539.477C45.1191 537.797 46.2812 536.513 47.7949 535.624C49.3184 534.726 51.1006 534.276 53.1416 534.276C55.2217 534.276 57.3115 534.779 59.4111 535.785L57.9463 539.477C57.1455 539.096 56.3398 538.764 55.5293 538.48C54.7188 538.197 53.9229 538.056 53.1416 538.056ZM68.5811 538.056C67.6143 538.056 66.6621 538.192 65.7246 538.466C64.7969 538.739 63.8789 539.066 62.9707 539.447L61.5352 535.785C63.8008 534.779 66.1787 534.276 68.6689 534.276C71.8428 534.276 74.2939 535.253 76.0225 537.206C77.7607 539.149 78.6299 541.854 78.6299 545.321C78.6299 548.856 77.7363 551.571 75.9492 553.466C74.1719 555.351 71.6035 556.293 68.2441 556.293C65.9297 556.293 63.8203 555.927 61.916 555.194V551.386C64.2891 552.138 66.3105 552.514 67.9805 552.514C69.8457 552.514 71.2666 552.06 72.2432 551.151C73.2295 550.243 73.7666 548.881 73.8545 547.064H64.5674V543.344H73.8252C73.7666 541.684 73.2686 540.39 72.3311 539.462C71.3936 538.524 70.1436 538.056 68.5811 538.056ZM87.6094 544.662H89.1035C90.5 544.662 91.5449 544.389 92.2383 543.842C92.9316 543.285 93.2783 542.479 93.2783 541.425C93.2783 540.36 92.9854 539.574 92.3994 539.066C91.8232 538.559 90.915 538.305 89.6748 538.305H87.6094V544.662ZM97.8633 541.264C97.8633 543.568 97.1406 545.331 95.6953 546.552C94.2598 547.772 92.2139 548.383 89.5576 548.383H87.6094V556H83.0684V534.584H89.9092C92.5068 534.584 94.4795 535.146 95.8271 536.269C97.1846 537.382 97.8633 539.047 97.8633 541.264ZM108.205 547.606L113.64 540.941L116.848 542.685L112.761 547.782L116.848 552.88L113.64 554.623L108.205 547.987V547.606ZM115.617 547.606L121.037 540.941L124.26 542.685L120.173 547.782L124.26 552.88L121.037 554.623L115.617 547.987V547.606ZM132.697 542.802H134.484C137.277 542.802 139.436 543.368 140.959 544.501C142.482 545.634 143.244 547.235 143.244 549.306C143.244 553.769 140.295 556 134.396 556H128.156V534.584H141.691V538.334H132.697V542.802ZM132.697 552.279H134.221C135.754 552.279 136.877 552.035 137.59 551.547C138.303 551.049 138.659 550.302 138.659 549.306C138.659 548.319 138.298 547.611 137.575 547.182C136.853 546.742 135.612 546.522 133.854 546.522H132.697V552.279ZM153.747 542.494C152.8 542.494 152.058 542.797 151.521 543.402C150.983 543.998 150.676 544.848 150.598 545.951H156.867C156.848 544.848 156.56 543.998 156.003 543.402C155.446 542.797 154.694 542.494 153.747 542.494ZM154.377 556.293C151.74 556.293 149.68 555.565 148.195 554.11C146.711 552.655 145.969 550.595 145.969 547.929C145.969 545.185 146.652 543.065 148.02 541.571C149.396 540.067 151.296 539.315 153.718 539.315C156.032 539.315 157.834 539.975 159.123 541.293C160.412 542.611 161.057 544.433 161.057 546.757V548.925H150.495C150.544 550.194 150.92 551.186 151.623 551.898C152.326 552.611 153.312 552.968 154.582 552.968C155.568 552.968 156.501 552.865 157.38 552.66C158.259 552.455 159.177 552.128 160.134 551.679V555.136C159.353 555.526 158.518 555.814 157.629 556C156.74 556.195 155.656 556.293 154.377 556.293ZM179.353 556H174.885V542.978H170.769C170.456 546.64 170.075 549.374 169.626 551.181C169.177 552.978 168.576 554.281 167.824 555.092C167.082 555.893 166.105 556.293 164.895 556.293C163.859 556.293 163.01 556.137 162.346 555.824V552.25C162.824 552.445 163.303 552.543 163.781 552.543C164.338 552.543 164.802 552.143 165.173 551.342C165.554 550.541 165.891 549.208 166.184 547.343C166.486 545.468 166.745 542.895 166.96 539.623H179.353V556ZM190.837 542.494C189.89 542.494 189.147 542.797 188.61 543.402C188.073 543.998 187.766 544.848 187.688 545.951H193.957C193.938 544.848 193.649 543.998 193.093 543.402C192.536 542.797 191.784 542.494 190.837 542.494ZM191.467 556.293C188.83 556.293 186.77 555.565 185.285 554.11C183.801 552.655 183.059 550.595 183.059 547.929C183.059 545.185 183.742 543.065 185.109 541.571C186.486 540.067 188.386 539.315 190.808 539.315C193.122 539.315 194.924 539.975 196.213 541.293C197.502 542.611 198.146 544.433 198.146 546.757V548.925H187.585C187.634 550.194 188.01 551.186 188.713 551.898C189.416 552.611 190.402 552.968 191.672 552.968C192.658 552.968 193.591 552.865 194.47 552.66C195.349 552.455 196.267 552.128 197.224 551.679V555.136C196.442 555.526 195.607 555.814 194.719 556C193.83 556.195 192.746 556.293 191.467 556.293ZM200.783 546.186C200.783 542.426 201.496 539.574 202.922 537.631C204.357 535.678 206.594 534.442 209.631 533.925C211.105 533.671 213.308 533.349 216.237 532.958L216.75 536.854C215.48 537.001 213.229 537.313 209.997 537.792C208.767 537.987 207.849 538.28 207.243 538.671C206.638 539.062 206.184 539.618 205.881 540.341C205.588 541.063 205.407 542.025 205.339 543.227H205.559C206.076 542.426 206.76 541.811 207.609 541.381C208.459 540.951 209.372 540.736 210.349 540.736C212.37 540.736 213.942 541.356 215.065 542.597C216.188 543.827 216.75 545.595 216.75 547.899C216.75 550.556 216.037 552.621 214.611 554.096C213.195 555.561 211.237 556.293 208.737 556.293C206.237 556.293 204.284 555.399 202.878 553.612C201.481 551.815 200.783 549.34 200.783 546.186ZM209.001 552.675C211.12 552.675 212.18 551.215 212.18 548.295C212.18 545.453 211.223 544.032 209.309 544.032C208.781 544.032 208.254 544.154 207.727 544.398C207.209 544.643 206.73 544.965 206.291 545.365C205.861 545.756 205.544 546.151 205.339 546.552C205.339 548.534 205.656 550.053 206.291 551.107C206.926 552.152 207.829 552.675 209.001 552.675ZM227.224 542.494C226.276 542.494 225.534 542.797 224.997 543.402C224.46 543.998 224.152 544.848 224.074 545.951H230.344C230.324 544.848 230.036 543.998 229.479 543.402C228.923 542.797 228.171 542.494 227.224 542.494ZM227.854 556.293C225.217 556.293 223.156 555.565 221.672 554.11C220.188 552.655 219.445 550.595 219.445 547.929C219.445 545.185 220.129 543.065 221.496 541.571C222.873 540.067 224.772 539.315 227.194 539.315C229.509 539.315 231.311 539.975 232.6 541.293C233.889 542.611 234.533 544.433 234.533 546.757V548.925H223.972C224.021 550.194 224.396 551.186 225.1 551.898C225.803 552.611 226.789 552.968 228.059 552.968C229.045 552.968 229.978 552.865 230.856 552.66C231.735 552.455 232.653 552.128 233.61 551.679V555.136C232.829 555.526 231.994 555.814 231.105 556C230.217 556.195 229.133 556.293 227.854 556.293ZM242.487 539.623V546.098C242.487 546.781 242.375 548.451 242.15 551.107L249.709 539.623H255.085V556H250.764V549.467C250.764 548.305 250.861 546.664 251.057 544.545L243.527 556H238.166V539.623H242.487ZM253.767 532.577C253.581 534.403 252.893 535.736 251.701 536.576C250.51 537.406 248.791 537.821 246.545 537.821C244.23 537.821 242.517 537.421 241.403 536.62C240.3 535.819 239.68 534.472 239.543 532.577H243.542C243.61 533.583 243.859 534.291 244.289 534.701C244.729 535.102 245.51 535.302 246.633 535.302C247.619 535.302 248.352 535.082 248.83 534.643C249.318 534.193 249.616 533.505 249.724 532.577H253.767ZM274.699 547.987L269.265 554.623L266.057 552.88L270.129 547.782L266.057 542.685L269.265 540.941L274.699 547.606V547.987ZM267.287 547.987L261.853 554.623L258.645 552.88L262.717 547.782L258.645 542.685L261.853 540.941L267.287 547.606V547.987Z" fill="white"/>
<path d="M1307.83 703H1286.71V645.168L1286.91 635.666L1287.26 625.275C1283.75 628.785 1281.31 631.086 1279.94 632.18L1268.46 641.408L1258.27 628.693L1290.47 603.059H1307.83V703ZM1334.9 660.549C1334.9 640.77 1339.07 626.05 1347.41 616.389C1355.8 606.727 1368.33 601.896 1385.01 601.896C1390.71 601.896 1395.17 602.238 1398.41 602.922V619.807C1394.35 618.895 1390.34 618.439 1386.38 618.439C1379.13 618.439 1373.21 619.533 1368.6 621.721C1364.05 623.908 1360.63 627.144 1358.35 631.428C1356.07 635.712 1354.73 641.796 1354.32 649.68H1355.21C1359.72 641.932 1366.94 638.059 1376.88 638.059C1385.81 638.059 1392.8 640.861 1397.86 646.467C1402.92 652.072 1405.45 659.82 1405.45 669.709C1405.45 680.373 1402.44 688.827 1396.43 695.07C1390.41 701.268 1382.07 704.367 1371.41 704.367C1364.02 704.367 1357.57 702.658 1352.06 699.24C1346.59 695.822 1342.35 690.832 1339.35 684.27C1336.38 677.707 1334.9 669.8 1334.9 660.549ZM1371 687.482C1375.51 687.482 1378.97 685.979 1381.39 682.971C1383.8 679.917 1385.01 675.588 1385.01 669.982C1385.01 665.106 1383.87 661.278 1381.59 658.498C1379.36 655.673 1375.96 654.26 1371.41 654.26C1367.12 654.26 1363.45 655.65 1360.4 658.43C1357.39 661.21 1355.89 664.445 1355.89 668.137C1355.89 673.56 1357.3 678.14 1360.13 681.877C1363 685.614 1366.62 687.482 1371 687.482Z" fill="#986FE9"/>
<path d="M1429.46 700.969L1429.85 699.788L1430.4 698.29L1434.17 689.111H1436.85V703H1434.98V691.511L1434.73 692.247L1433.99 694.189L1430.4 703H1428.63L1425.04 694.164C1424.59 693.03 1424.28 692.146 1424.11 691.511V703H1422.23V689.111H1424.81L1428.46 697.935C1428.82 698.866 1429.15 699.877 1429.46 700.969ZM1451.73 703H1449.59V690.889H1445.42C1445.19 693.902 1444.87 696.293 1444.46 698.062C1444.06 699.83 1443.53 701.125 1442.88 701.946C1442.23 702.767 1441.41 703.178 1440.41 703.178C1439.96 703.178 1439.59 703.127 1439.32 703.025V701.464C1439.51 701.515 1439.72 701.54 1439.96 701.54C1440.93 701.54 1441.7 700.512 1442.28 698.455C1442.86 696.398 1443.29 693.275 1443.59 689.086H1451.73V703ZM1458.31 689.086V694.913H1466.11V689.086H1468.22V703H1466.11V696.729H1458.31V703H1456.21V689.086H1458.31ZM1479.73 703V699.464H1477.47V697.774H1479.73V695.46H1477.47V693.484H1479.73V684.436H1484.62C1486.89 684.436 1488.57 684.895 1489.66 685.814C1490.77 686.733 1491.32 688.067 1491.32 689.818C1491.32 691.586 1490.73 692.973 1489.53 693.978C1488.33 694.966 1486.57 695.46 1484.25 695.46H1482.07V697.774H1486.36V699.464H1482.07V703H1479.73ZM1483.91 693.484C1485.49 693.484 1486.71 693.224 1487.58 692.704C1488.46 692.184 1488.91 691.248 1488.91 689.896C1488.91 688.717 1488.54 687.842 1487.81 687.27C1487.09 686.698 1485.95 686.412 1484.41 686.412H1482.07V693.484H1483.91Z" fill="white"/>
<path d="M1260.96 556H1256.42V538.363H1250.6V534.584H1266.77V538.363H1260.96V556ZM1289.51 545.263C1289.51 548.808 1288.63 551.532 1286.87 553.437C1285.11 555.341 1282.59 556.293 1279.31 556.293C1276.03 556.293 1273.51 555.341 1271.75 553.437C1270 551.532 1269.12 548.798 1269.12 545.233C1269.12 541.669 1270 538.949 1271.75 537.074C1273.52 535.189 1276.05 534.247 1279.34 534.247C1282.63 534.247 1285.15 535.194 1286.88 537.089C1288.63 538.983 1289.51 541.708 1289.51 545.263ZM1273.88 545.263C1273.88 547.655 1274.33 549.457 1275.24 550.668C1276.15 551.879 1277.5 552.484 1279.31 552.484C1282.93 552.484 1284.75 550.077 1284.75 545.263C1284.75 540.438 1282.94 538.026 1279.34 538.026C1277.53 538.026 1276.17 538.637 1275.25 539.857C1274.34 541.068 1273.88 542.87 1273.88 545.263ZM1303.04 538.056C1301.33 538.056 1300.01 538.7 1299.07 539.989C1298.13 541.269 1297.67 543.056 1297.67 545.351C1297.67 550.126 1299.46 552.514 1303.04 552.514C1304.55 552.514 1306.37 552.138 1308.51 551.386V555.194C1306.75 555.927 1304.79 556.293 1302.62 556.293C1299.5 556.293 1297.12 555.351 1295.47 553.466C1293.82 551.571 1292.99 548.856 1292.99 545.321C1292.99 543.095 1293.4 541.146 1294.21 539.477C1295.02 537.797 1296.18 536.513 1297.7 535.624C1299.22 534.726 1301 534.276 1303.04 534.276C1305.12 534.276 1307.21 534.779 1309.31 535.785L1307.85 539.477C1307.05 539.096 1306.24 538.764 1305.43 538.48C1304.62 538.197 1303.82 538.056 1303.04 538.056ZM1318.48 538.056C1317.51 538.056 1316.56 538.192 1315.62 538.466C1314.7 538.739 1313.78 539.066 1312.87 539.447L1311.44 535.785C1313.7 534.779 1316.08 534.276 1318.57 534.276C1321.74 534.276 1324.19 535.253 1325.92 537.206C1327.66 539.149 1328.53 541.854 1328.53 545.321C1328.53 548.856 1327.64 551.571 1325.85 553.466C1324.07 555.351 1321.5 556.293 1318.14 556.293C1315.83 556.293 1313.72 555.927 1311.82 555.194V551.386C1314.19 552.138 1316.21 552.514 1317.88 552.514C1319.75 552.514 1321.17 552.06 1322.14 551.151C1323.13 550.243 1323.67 548.881 1323.75 547.064H1314.47V543.344H1323.73C1323.67 541.684 1323.17 540.39 1322.23 539.462C1321.29 538.524 1320.04 538.056 1318.48 538.056ZM1337.51 544.662H1339C1340.4 544.662 1341.45 544.389 1342.14 543.842C1342.83 543.285 1343.18 542.479 1343.18 541.425C1343.18 540.36 1342.89 539.574 1342.3 539.066C1341.72 538.559 1340.82 538.305 1339.58 538.305H1337.51V544.662ZM1347.76 541.264C1347.76 543.568 1347.04 545.331 1345.6 546.552C1344.16 547.772 1342.11 548.383 1339.46 548.383H1337.51V556H1332.97V534.584H1339.81C1342.41 534.584 1344.38 535.146 1345.73 536.269C1347.08 537.382 1347.76 539.047 1347.76 541.264ZM1358.11 547.606L1363.54 540.941L1366.75 542.685L1362.66 547.782L1366.75 552.88L1363.54 554.623L1358.11 547.987V547.606ZM1365.52 547.606L1370.94 540.941L1374.16 542.685L1370.07 547.782L1374.16 552.88L1370.94 554.623L1365.52 547.987V547.606ZM1395.61 556H1391.08V546.757H1382.6V556H1378.06V534.584H1382.6V542.978H1391.08V534.584H1395.61V556ZM1407.46 542.494C1406.51 542.494 1405.77 542.797 1405.23 543.402C1404.69 543.998 1404.38 544.848 1404.31 545.951H1410.58C1410.56 544.848 1410.27 543.998 1409.71 543.402C1409.16 542.797 1408.4 542.494 1407.46 542.494ZM1408.09 556.293C1405.45 556.293 1403.39 555.565 1401.9 554.11C1400.42 552.655 1399.68 550.595 1399.68 547.929C1399.68 545.185 1400.36 543.065 1401.73 541.571C1403.11 540.067 1405 539.315 1407.43 539.315C1409.74 539.315 1411.54 539.975 1412.83 541.293C1414.12 542.611 1414.77 544.433 1414.77 546.757V548.925H1404.2C1404.25 550.194 1404.63 551.186 1405.33 551.898C1406.04 552.611 1407.02 552.968 1408.29 552.968C1409.28 552.968 1410.21 552.865 1411.09 552.66C1411.97 552.455 1412.89 552.128 1413.84 551.679V555.136C1413.06 555.526 1412.23 555.814 1411.34 556C1410.45 556.195 1409.37 556.293 1408.09 556.293ZM1430.37 539.535C1433.1 539.76 1435.24 540.604 1436.8 542.069C1438.35 543.534 1439.13 545.448 1439.13 547.812C1439.13 550.224 1438.36 552.157 1436.83 553.612C1435.29 555.058 1433.14 555.893 1430.37 556.117V563.207H1426.22V556.117C1423.46 555.863 1421.29 554.999 1419.73 553.524C1418.18 552.04 1417.4 550.136 1417.4 547.812C1417.4 545.341 1418.15 543.393 1419.66 541.967C1421.16 540.531 1423.35 539.721 1426.22 539.535V533.207H1430.37V539.535ZM1422 547.812C1422 549.188 1422.38 550.312 1423.13 551.181C1423.88 552.04 1424.91 552.558 1426.22 552.733V542.89C1424.96 543.056 1423.94 543.588 1423.16 544.486C1422.39 545.385 1422 546.493 1422 547.812ZM1434.54 547.812C1434.54 546.522 1434.17 545.438 1433.44 544.56C1432.71 543.671 1431.68 543.134 1430.37 542.948V552.733C1431.67 552.558 1432.69 552.035 1433.43 551.166C1434.17 550.297 1434.54 549.179 1434.54 547.812ZM1456.38 539.623V542.978H1451.02V556H1446.55V542.978H1441.18V539.623H1456.38ZM1466.23 542.494C1465.28 542.494 1464.54 542.797 1464 543.402C1463.46 543.998 1463.15 544.848 1463.08 545.951H1469.35C1469.33 544.848 1469.04 543.998 1468.48 543.402C1467.92 542.797 1467.17 542.494 1466.23 542.494ZM1466.86 556.293C1464.22 556.293 1462.16 555.565 1460.67 554.11C1459.19 552.655 1458.45 550.595 1458.45 547.929C1458.45 545.185 1459.13 543.065 1460.5 541.571C1461.88 540.067 1463.77 539.315 1466.2 539.315C1468.51 539.315 1470.31 539.975 1471.6 541.293C1472.89 542.611 1473.54 544.433 1473.54 546.757V548.925H1462.97C1463.02 550.194 1463.4 551.186 1464.1 551.898C1464.8 552.611 1465.79 552.968 1467.06 552.968C1468.05 552.968 1468.98 552.865 1469.86 552.66C1470.74 552.455 1471.66 552.128 1472.61 551.679V555.136C1471.83 555.526 1471 555.814 1470.11 556C1469.22 556.195 1468.13 556.293 1466.86 556.293ZM1487.91 539.623H1492.83L1486.34 547.475L1493.4 556H1488.33L1481.64 547.694V556H1477.17V539.623H1481.64V547.577L1487.91 539.623ZM1506.14 556L1505.28 553.773H1505.16C1504.41 554.721 1503.63 555.38 1502.83 555.751C1502.04 556.112 1501.01 556.293 1499.73 556.293C1498.15 556.293 1496.91 555.844 1496.01 554.945C1495.11 554.047 1494.66 552.768 1494.66 551.107C1494.66 549.369 1495.26 548.09 1496.47 547.27C1497.7 546.439 1499.53 545.98 1501.98 545.893L1504.82 545.805V545.087C1504.82 543.427 1503.97 542.597 1502.28 542.597C1500.97 542.597 1499.43 542.992 1497.66 543.783L1496.18 540.766C1498.07 539.779 1500.16 539.286 1502.45 539.286C1504.65 539.286 1506.33 539.765 1507.5 540.722C1508.68 541.679 1509.26 543.134 1509.26 545.087V556H1506.14ZM1504.82 548.412L1503.1 548.471C1501.8 548.51 1500.83 548.744 1500.2 549.174C1499.56 549.604 1499.24 550.258 1499.24 551.137C1499.24 552.396 1499.97 553.026 1501.41 553.026C1502.45 553.026 1503.27 552.729 1503.89 552.133C1504.51 551.537 1504.82 550.746 1504.82 549.76V548.412ZM1534.52 556H1530.34V543.095L1530.11 544.003C1529.58 546.063 1529.11 547.621 1528.69 548.676L1525.79 556H1522.61L1519.66 548.617C1519.24 547.543 1518.79 546.034 1518.32 544.091L1518.04 543.095V556H1513.88V539.623H1520.03L1522.84 546.61C1523.13 547.362 1523.4 548.227 1523.65 549.203C1523.9 550.18 1524.07 551.015 1524.16 551.708C1524.48 550.243 1524.73 549.193 1524.91 548.559C1525.09 547.914 1525.29 547.323 1525.51 546.786C1525.72 546.249 1526.69 543.861 1528.42 539.623H1534.52V556ZM1545.87 556.293C1540.77 556.293 1538.22 553.495 1538.22 547.899C1538.22 545.116 1538.92 542.992 1540.3 541.527C1541.69 540.053 1543.68 539.315 1546.26 539.315C1548.16 539.315 1549.86 539.687 1551.36 540.429L1550.04 543.886C1549.34 543.603 1548.69 543.373 1548.08 543.197C1547.48 543.012 1546.87 542.919 1546.26 542.919C1543.94 542.919 1542.78 544.569 1542.78 547.87C1542.78 551.073 1543.94 552.675 1546.26 552.675C1547.12 552.675 1547.92 552.562 1548.65 552.338C1549.38 552.104 1550.12 551.742 1550.85 551.254V555.077C1550.13 555.536 1549.39 555.854 1548.65 556.029C1547.92 556.205 1546.99 556.293 1545.87 556.293ZM1565.4 539.623H1570.32L1563.83 547.475L1570.89 556H1565.82L1559.13 547.694V556H1554.66V539.623H1559.13V547.577L1565.4 539.623ZM1588.14 547.987L1582.71 554.623L1579.5 552.88L1583.57 547.782L1579.5 542.685L1582.71 540.941L1588.14 547.606V547.987ZM1580.73 547.987L1575.3 554.623L1572.09 552.88L1576.16 547.782L1572.09 542.685L1575.3 540.941L1580.73 547.606V547.987Z" fill="white"/>
<mask id="path-18-inside-1" fill="white">
<path d="M795.5 0C736.042 -7.09028e-07 677.439 14.1571 624.538 41.3C571.637 68.4429 525.959 107.792 491.283 156.091C456.608 204.39 433.93 260.252 425.127 319.054C416.324 377.857 421.649 437.91 440.661 494.247C459.672 550.583 491.825 601.583 534.458 643.028C577.091 684.472 628.979 715.17 685.83 732.582C742.682 749.994 802.862 753.619 861.392 743.158C919.922 732.696 975.121 708.449 1022.42 672.422L931.652 553.253C903.272 574.869 870.153 589.418 835.035 595.695C799.917 601.971 763.809 599.796 729.698 589.349C695.588 578.902 664.454 560.483 638.875 535.617C613.295 510.75 594.003 480.15 582.596 446.348C571.189 412.546 567.995 376.514 573.276 341.233C578.558 305.951 592.165 272.434 612.97 243.454C633.776 214.475 661.182 190.866 692.923 174.58C724.663 158.294 759.825 149.8 795.5 149.8V0Z"/>
</mask>
<path d="M795.5 0C736.042 -7.09028e-07 677.439 14.1571 624.538 41.3C571.637 68.4429 525.959 107.792 491.283 156.091C456.608 204.39 433.93 260.252 425.127 319.054C416.324 377.857 421.649 437.91 440.661 494.247C459.672 550.583 491.825 601.583 534.458 643.028C577.091 684.472 628.979 715.17 685.83 732.582C742.682 749.994 802.862 753.619 861.392 743.158C919.922 732.696 975.121 708.449 1022.42 672.422L931.652 553.253C903.272 574.869 870.153 589.418 835.035 595.695C799.917 601.971 763.809 599.796 729.698 589.349C695.588 578.902 664.454 560.483 638.875 535.617C613.295 510.75 594.003 480.15 582.596 446.348C571.189 412.546 567.995 376.514 573.276 341.233C578.558 305.951 592.165 272.434 612.97 243.454C633.776 214.475 661.182 190.866 692.923 174.58C724.663 158.294 759.825 149.8 795.5 149.8V0Z" stroke="#0FDF49" stroke-width="240" mask="url(#path-18-inside-1)"/>
<mask id="path-19-inside-2" fill="white">
<path d="M1022.47 76.6171C970.068 36.6882 908.058 11.2901 842.701 2.98647L823.821 151.592C863.035 156.574 900.241 171.813 931.683 195.77L1022.47 76.6171Z"/>
</mask>
<path d="M1022.47 76.6171C970.068 36.6882 908.058 11.2901 842.701 2.98647L823.821 151.592C863.035 156.574 900.241 171.813 931.683 195.77L1022.47 76.6171Z" stroke="#FBBD0B" stroke-width="240" mask="url(#path-19-inside-2)"/>
<mask id="path-20-inside-3" fill="white">
<path d="M1140.07 227.797C1110.51 158.375 1060.68 99.5002 997.088 58.8855L916.453 185.131C954.606 209.5 984.508 244.825 1002.24 286.478L1140.07 227.797Z"/>
</mask>
<path d="M1140.07 227.797C1110.51 158.375 1060.68 99.5002 997.088 58.8855L916.453 185.131C954.606 209.5 984.508 244.825 1002.24 286.478L1140.07 227.797Z" stroke="#FF904A" stroke-width="240" mask="url(#path-20-inside-3)"/>
<mask id="path-21-inside-4" fill="white">
<path d="M879.271 9.48951C851.721 3.16657 823.543 -0.0168483 795.276 6.70552e-05L795.366 149.8C812.326 149.79 829.232 151.7 845.763 155.494L879.271 9.48951Z"/>
</mask>
<path d="M879.271 9.48951C851.721 3.16657 823.543 -0.0168483 795.276 6.70552e-05L795.366 149.8C812.326 149.79 829.232 151.7 845.763 155.494L879.271 9.48951Z" stroke="#986FE9" stroke-width="240" mask="url(#path-21-inside-4)"/>
<mask id="path-22-inside-5" fill="white">
<path d="M988.618 695.367C1052.13 657.141 1102.87 600.925 1134.41 533.84C1165.95 466.754 1176.87 391.817 1165.79 318.52L1017.68 340.912C1024.32 384.89 1017.77 429.852 998.847 470.104C979.923 510.355 949.479 544.085 911.371 567.02L988.618 695.367Z"/>
</mask>
<path d="M988.618 695.367C1052.13 657.141 1102.87 600.925 1134.41 533.84C1165.95 466.754 1176.87 391.817 1165.79 318.52L1017.68 340.912C1024.32 384.89 1017.77 429.852 998.847 470.104C979.923 510.355 949.479 544.085 911.371 567.02L988.618 695.367Z" stroke="#FF4D00" stroke-width="240" mask="url(#path-22-inside-5)"/>
<mask id="path-23-inside-6" fill="white">
<path d="M1168.55 407.366C1174.89 335.466 1160.31 263.266 1126.57 199.456L994.144 269.474C1014.39 307.76 1023.13 351.079 1019.33 394.22L1168.55 407.366Z"/>
</mask>
<path d="M1168.55 407.366C1174.89 335.466 1160.31 263.266 1126.57 199.456L994.144 269.474C1014.39 307.76 1023.13 351.079 1019.33 394.22L1168.55 407.366Z" stroke="#01AEF8" stroke-width="240" mask="url(#path-23-inside-6)"/>
<path d="M4.92188 160.549C4.92188 140.77 9.0918 126.05 17.4316 116.389C25.8171 106.727 38.3496 101.896 55.0293 101.896C60.7259 101.896 65.1921 102.238 68.4277 102.922V119.807C64.3717 118.895 60.3613 118.439 56.3965 118.439C49.1504 118.439 43.2259 119.533 38.623 121.721C34.0658 123.908 30.6478 127.144 28.3691 131.428C26.0905 135.712 24.7461 141.796 24.3359 149.68H25.2246C29.7363 141.932 36.9596 138.059 46.8945 138.059C55.8268 138.059 62.8223 140.861 67.8809 146.467C72.9395 152.072 75.4688 159.82 75.4688 169.709C75.4688 180.373 72.4609 188.827 66.4453 195.07C60.4297 201.268 52.0898 204.367 41.4258 204.367C34.043 204.367 27.5944 202.658 22.0801 199.24C16.6113 195.822 12.373 190.832 9.36523 184.27C6.40299 177.707 4.92188 169.8 4.92188 160.549ZM41.0156 187.482C45.5273 187.482 48.9909 185.979 51.4062 182.971C53.8216 179.917 55.0293 175.588 55.0293 169.982C55.0293 165.106 53.89 161.278 51.6113 158.498C49.3783 155.673 45.9831 154.26 41.4258 154.26C37.1419 154.26 33.4733 155.65 30.4199 158.43C27.4121 161.21 25.9082 164.445 25.9082 168.137C25.9082 173.56 27.321 178.14 30.1465 181.877C33.0176 185.614 36.6406 187.482 41.0156 187.482ZM95.498 203L133.027 120.969H83.7402V103.195H155.449V116.457L117.646 203H95.498ZM200.02 101.76C209.59 101.76 217.292 103.947 223.125 108.322C229.004 112.652 231.943 118.508 231.943 125.891C231.943 130.995 230.531 135.552 227.705 139.562C224.88 143.527 220.322 147.082 214.033 150.227C221.507 154.237 226.862 158.43 230.098 162.805C233.379 167.134 235.02 171.896 235.02 177.092C235.02 185.295 231.807 191.903 225.381 196.916C218.955 201.883 210.501 204.367 200.02 204.367C189.082 204.367 180.492 202.043 174.248 197.395C168.005 192.746 164.883 186.161 164.883 177.639C164.883 171.942 166.387 166.883 169.395 162.463C172.448 158.042 177.324 154.146 184.023 150.773C178.327 147.173 174.225 143.322 171.719 139.221C169.212 135.119 167.959 130.63 167.959 125.754C167.959 118.599 170.921 112.811 176.846 108.391C182.77 103.97 190.495 101.76 200.02 101.76ZM184.434 176.408C184.434 180.327 185.801 183.381 188.535 185.568C191.27 187.756 195.007 188.85 199.746 188.85C204.987 188.85 208.906 187.733 211.504 185.5C214.102 183.221 215.4 180.236 215.4 176.545C215.4 173.492 214.102 170.643 211.504 168C208.952 165.311 204.782 162.463 198.994 159.455C189.287 163.921 184.434 169.572 184.434 176.408ZM199.883 117.209C196.283 117.209 193.366 118.143 191.133 120.012C188.945 121.835 187.852 124.296 187.852 127.395C187.852 130.129 188.717 132.59 190.449 134.777C192.227 136.919 195.417 139.13 200.02 141.408C204.486 139.312 207.607 137.17 209.385 134.982C211.162 132.795 212.051 130.266 212.051 127.395C212.051 124.25 210.911 121.766 208.633 119.943C206.354 118.12 203.438 117.209 199.883 117.209Z" fill="#0FDF49"/>
<path d="M22.2373 45.2627C22.2373 48.8076 21.3584 51.5322 19.6006 53.4365C17.8428 55.3408 15.3232 56.293 12.042 56.293C8.76074 56.293 6.24121 55.3408 4.4834 53.4365C2.72559 51.5322 1.84668 48.7979 1.84668 45.2334C1.84668 41.6689 2.72559 38.9492 4.4834 37.0742C6.25098 35.1895 8.78027 34.2471 12.0713 34.2471C15.3623 34.2471 17.877 35.1943 19.6152 37.0889C21.3633 38.9834 22.2373 41.708 22.2373 45.2627ZM6.60742 45.2627C6.60742 47.6553 7.06152 49.457 7.96973 50.668C8.87793 51.8789 10.2354 52.4844 12.042 52.4844C15.665 52.4844 17.4766 50.0771 17.4766 45.2627C17.4766 40.4385 15.6748 38.0264 12.0713 38.0264C10.2646 38.0264 8.90234 38.6367 7.98438 39.8574C7.06641 41.0684 6.60742 42.8701 6.60742 45.2627ZM41.4707 39.5938C41.4707 40.9707 40.9824 42.1084 40.0059 43.0068C39.0293 43.9053 37.7061 44.4766 36.0361 44.7207V44.8086C37.999 45.0039 39.5029 45.5459 40.5479 46.4346C41.6025 47.3232 42.1299 48.4805 42.1299 49.9062C42.1299 51.8789 41.3291 53.4365 39.7275 54.5791C38.1357 55.7217 35.9287 56.293 33.1064 56.293C29.9619 56.293 27.4375 55.9072 25.5332 55.1357V51.3271C26.4512 51.7666 27.5254 52.1133 28.7559 52.3672C29.9961 52.6113 31.1533 52.7334 32.2275 52.7334C35.8311 52.7334 37.6328 51.6836 37.6328 49.584C37.6328 48.6367 37.0518 47.9092 35.8896 47.4014C34.7373 46.8936 33.0283 46.6396 30.7627 46.6396H28.7559V43.0947H30.5576C32.8232 43.0947 34.4736 42.8799 35.5088 42.4502C36.5439 42.0205 37.0615 41.3076 37.0615 40.3115C37.0615 39.5791 36.7344 38.998 36.0801 38.5684C35.4355 38.1289 34.4639 37.9092 33.165 37.9092C31.1533 37.9092 29.21 38.4902 27.335 39.6523L25.3574 36.6201C26.5781 35.8096 27.8721 35.2188 29.2393 34.8477C30.6064 34.4668 32.125 34.2764 33.7949 34.2764C36.1289 34.2764 37.9893 34.7646 39.376 35.7412C40.7725 36.7178 41.4707 38.002 41.4707 39.5938ZM55.2256 38.0557C53.5166 38.0557 52.1934 38.7002 51.2559 39.9893C50.3184 41.2686 49.8496 43.0557 49.8496 45.3506C49.8496 50.126 51.6416 52.5137 55.2256 52.5137C56.7295 52.5137 58.5508 52.1377 60.6895 51.3857V55.1943C58.9316 55.9268 56.9688 56.293 54.8008 56.293C51.6855 56.293 49.3027 55.3506 47.6523 53.4658C46.002 51.5713 45.1768 48.8564 45.1768 45.3213C45.1768 43.0947 45.582 41.1465 46.3926 39.4766C47.2031 37.7969 48.3652 36.5127 49.8789 35.624C51.4023 34.7256 53.1846 34.2764 55.2256 34.2764C57.3057 34.2764 59.3955 34.7793 61.4951 35.7852L60.0303 39.4766C59.2295 39.0957 58.4238 38.7637 57.6133 38.4805C56.8027 38.1973 56.0068 38.0557 55.2256 38.0557ZM71.5586 47.6064L76.9932 40.9414L80.2012 42.6846L76.1143 47.7822L80.2012 52.8799L76.9932 54.623L71.5586 47.9873V47.6064ZM78.9707 47.6064L84.3906 40.9414L87.6133 42.6846L83.5264 47.7822L87.6133 52.8799L84.3906 54.623L78.9707 47.9873V47.6064ZM104.62 56L103.067 50.9023H95.2598L93.707 56H88.8145L96.373 34.4961H101.925L109.513 56H104.62ZM101.983 47.0938C100.548 42.4746 99.7373 39.8623 99.5518 39.2568C99.376 38.6514 99.249 38.1729 99.1709 37.8213C98.8486 39.0713 97.9258 42.1621 96.4023 47.0938H101.983ZM129.171 56H124.645V38.3633H119.4L119.166 40.3262C118.561 45.3164 118.023 48.8223 117.555 50.8438C117.096 52.8555 116.422 54.2715 115.533 55.0918C114.645 55.9121 113.443 56.3125 111.93 56.293C111.109 56.293 110.387 56.1855 109.762 55.9707V52.25C110.328 52.4453 110.86 52.543 111.358 52.543C111.876 52.543 112.286 52.3086 112.589 51.8398C112.892 51.3613 113.175 50.4824 113.438 49.2031C113.712 47.9141 114.068 45.8096 114.508 42.8896C114.957 39.96 115.338 37.1914 115.65 34.584H129.171V56ZM148.111 34.584V38.334H139.117V56H134.576V34.584H148.111ZM164.532 56L162.979 50.9023H155.172L153.619 56H148.727L156.285 34.4961H161.837L169.425 56H164.532ZM161.896 47.0938C160.46 42.4746 159.649 39.8623 159.464 39.2568C159.288 38.6514 159.161 38.1729 159.083 37.8213C158.761 39.0713 157.838 42.1621 156.314 47.0938H161.896ZM186.695 47.9873L181.261 54.623L178.053 52.8799L182.125 47.7822L178.053 42.6846L181.261 40.9414L186.695 47.6064V47.9873ZM179.283 47.9873L173.849 54.623L170.641 52.8799L174.713 47.7822L170.641 42.6846L173.849 40.9414L179.283 47.6064V47.9873Z" fill="white"/>
<path d="M259.458 200.969L259.852 199.788L260.397 198.29L264.168 189.111H266.847V203H264.98V191.511L264.727 192.247L263.99 194.189L260.397 203H258.633L255.04 194.164C254.591 193.03 254.283 192.146 254.113 191.511V203H252.234V189.111H254.812L258.455 197.935C258.819 198.866 259.153 199.877 259.458 200.969ZM281.726 203H279.593V190.889H275.416C275.188 193.902 274.87 196.293 274.464 198.062C274.058 199.83 273.529 201.125 272.877 201.946C272.234 202.767 271.413 203.178 270.414 203.178C269.957 203.178 269.593 203.127 269.322 203.025V201.464C269.508 201.515 269.72 201.54 269.957 201.54C270.93 201.54 271.705 200.512 272.28 198.455C272.856 196.398 273.292 193.275 273.588 189.086H281.726V203ZM288.314 189.086V194.913H296.109V189.086H298.217V203H296.109V196.729H288.314V203H286.207V189.086H288.314ZM309.727 203V199.464H307.465V197.774H309.727V195.46H307.465V193.484H309.727V184.436H314.615C316.886 184.436 318.567 184.895 319.659 185.814C320.768 186.733 321.323 188.067 321.323 189.818C321.323 191.586 320.725 192.973 319.529 193.978C318.333 194.966 316.574 195.46 314.251 195.46H312.067V197.774H316.357V199.464H312.067V203H309.727ZM313.913 193.484C315.49 193.484 316.712 193.224 317.579 192.704C318.463 192.184 318.905 191.248 318.905 189.896C318.905 188.717 318.541 187.842 317.813 187.27C317.085 186.698 315.95 186.412 314.407 186.412H312.067V193.484H313.913Z" fill="white"/>
</svg>
