<svg width="1590" height="894" viewBox="0 0 1590 894" fill="none" xmlns="http://www.w3.org/2000/svg">
<path d="M421.895 93.8242C421.895 106.311 418.112 116.93 410.547 125.68C402.982 134.43 392.363 140.445 378.691 143.727V144.547C394.824 146.552 407.038 151.474 415.332 159.312C423.626 167.06 427.773 177.542 427.773 190.758C427.773 209.99 420.801 224.983 406.855 235.738C392.91 246.402 372.995 251.734 347.109 251.734C325.417 251.734 306.185 248.134 289.414 240.934V204.977C297.161 208.896 305.684 212.086 314.98 214.547C324.277 217.008 333.483 218.238 342.598 218.238C356.543 218.238 366.842 215.868 373.496 211.129C380.15 206.389 383.477 198.779 383.477 188.297C383.477 178.909 379.648 172.255 371.992 168.336C364.336 164.417 352.122 162.457 335.352 162.457H320.176V130.055H335.625C351.12 130.055 362.422 128.049 369.531 124.039C376.732 119.938 380.332 112.965 380.332 103.121C380.332 87.9909 370.853 80.4258 351.895 80.4258C345.332 80.4258 338.633 81.5195 331.797 83.707C325.052 85.8945 317.533 89.6771 309.238 95.0547L289.688 65.9336C307.917 52.8086 329.655 46.2461 354.902 46.2461C375.592 46.2461 391.908 50.4388 403.848 58.8242C415.879 67.2096 421.895 78.8763 421.895 93.8242ZM554.375 249H512.129V133.336L512.539 114.332L513.223 93.5508C506.204 100.569 501.328 105.172 498.594 107.359L475.625 125.816L455.254 100.387L519.648 49.1172H554.375V249ZM678.789 46.5195C697.93 46.5195 713.333 50.8945 725 59.6445C736.758 68.3034 742.637 80.0156 742.637 94.7812C742.637 104.99 739.811 114.104 734.16 122.125C728.509 130.055 719.395 137.164 706.816 143.453C721.764 151.474 732.474 159.859 738.945 168.609C745.508 177.268 748.789 186.793 748.789 197.184C748.789 213.59 742.363 226.806 729.512 236.832C716.66 246.767 699.753 251.734 678.789 251.734C656.914 251.734 639.733 247.086 627.246 237.789C614.759 228.492 608.516 215.322 608.516 198.277C608.516 186.884 611.523 176.767 617.539 167.926C623.646 159.085 633.398 151.292 646.797 144.547C635.404 137.346 627.201 129.645 622.188 121.441C617.174 113.238 614.668 104.26 614.668 94.5078C614.668 80.1979 620.592 68.6224 632.441 59.7812C644.29 50.9401 659.74 46.5195 678.789 46.5195ZM647.617 195.816C647.617 203.655 650.352 209.762 655.82 214.137C661.289 218.512 668.763 220.699 678.242 220.699C688.724 220.699 696.562 218.466 701.758 214C706.953 209.443 709.551 203.473 709.551 196.09C709.551 189.983 706.953 184.286 701.758 179C696.654 173.622 688.314 167.926 676.738 161.91C657.324 170.842 647.617 182.145 647.617 195.816ZM678.516 77.418C671.315 77.418 665.482 79.2865 661.016 83.0234C656.641 86.6693 654.453 91.5911 654.453 97.7891C654.453 103.258 656.185 108.18 659.648 112.555C663.203 116.839 669.583 121.259 678.789 125.816C687.721 121.624 693.965 117.34 697.52 112.965C701.074 108.59 702.852 103.531 702.852 97.7891C702.852 91.5 700.573 86.5326 696.016 82.8867C691.458 79.2409 685.625 77.418 678.516 77.418ZM911.484 46.5195C930.625 46.5195 946.029 50.8945 957.695 59.6445C969.453 68.3034 975.332 80.0156 975.332 94.7812C975.332 104.99 972.507 114.104 966.855 122.125C961.204 130.055 952.09 137.164 939.512 143.453C954.46 151.474 965.169 159.859 971.641 168.609C978.203 177.268 981.484 186.793 981.484 197.184C981.484 213.59 975.059 226.806 962.207 236.832C949.355 246.767 932.448 251.734 911.484 251.734C889.609 251.734 872.428 247.086 859.941 237.789C847.454 228.492 841.211 215.322 841.211 198.277C841.211 186.884 844.219 176.767 850.234 167.926C856.341 159.085 866.094 151.292 879.492 144.547C868.099 137.346 859.896 129.645 854.883 121.441C849.87 113.238 847.363 104.26 847.363 94.5078C847.363 80.1979 853.288 68.6224 865.137 59.7812C876.986 50.9401 892.435 46.5195 911.484 46.5195ZM880.312 195.816C880.312 203.655 883.047 209.762 888.516 214.137C893.984 218.512 901.458 220.699 910.938 220.699C921.419 220.699 929.258 218.466 934.453 214C939.648 209.443 942.246 203.473 942.246 196.09C942.246 189.983 939.648 184.286 934.453 179C929.349 173.622 921.009 167.926 909.434 161.91C890.02 170.842 880.312 182.145 880.312 195.816ZM911.211 77.418C904.01 77.418 898.177 79.2865 893.711 83.0234C889.336 86.6693 887.148 91.5911 887.148 97.7891C887.148 103.258 888.88 108.18 892.344 112.555C895.898 116.839 902.279 121.259 911.484 125.816C920.417 121.624 926.66 117.34 930.215 112.965C933.77 108.59 935.547 103.531 935.547 97.7891C935.547 91.5 933.268 86.5326 928.711 82.8867C924.154 79.2409 918.32 77.418 911.211 77.418ZM1141.45 134.43C1141.45 173.805 1133.15 203.199 1116.56 222.613C1099.97 242.027 1074.86 251.734 1041.23 251.734C1029.38 251.734 1020.4 251.096 1014.3 249.82V215.914C1021.95 217.828 1029.97 218.785 1038.36 218.785C1052.49 218.785 1064.11 216.734 1073.22 212.633C1082.34 208.44 1089.31 201.923 1094.14 193.082C1098.97 184.15 1101.75 171.891 1102.48 156.305H1100.84C1095.55 164.872 1089.45 170.888 1082.52 174.352C1075.59 177.815 1066.93 179.547 1056.54 179.547C1039.13 179.547 1025.42 173.987 1015.39 162.867C1005.36 151.656 1000.35 136.116 1000.35 116.246C1000.35 94.8268 1006.41 77.9193 1018.54 65.5234C1030.75 53.0365 1047.34 46.793 1068.3 46.793C1083.07 46.793 1095.96 50.2565 1106.99 57.1836C1118.11 64.1107 1126.63 74.1823 1132.56 87.3984C1138.48 100.523 1141.45 116.201 1141.45 134.43ZM1069.12 80.6992C1060.37 80.6992 1053.54 83.707 1048.61 89.7227C1043.69 95.7383 1041.23 104.397 1041.23 115.699C1041.23 125.361 1043.46 133.017 1047.93 138.668C1052.4 144.319 1059.19 147.145 1068.3 147.145C1076.87 147.145 1084.21 144.365 1090.31 138.805C1096.42 133.154 1099.47 126.682 1099.47 119.391C1099.47 108.544 1096.6 99.3841 1090.86 91.9102C1085.21 84.4362 1077.96 80.6992 1069.12 80.6992ZM1235.23 121.305C1254.56 121.305 1269.92 126.728 1281.31 137.574C1292.79 148.421 1298.54 163.277 1298.54 182.145C1298.54 204.475 1291.65 221.656 1277.89 233.688C1264.13 245.719 1244.44 251.734 1218.83 251.734C1196.59 251.734 1178.63 248.134 1164.96 240.934V204.43C1172.16 208.258 1180.55 211.402 1190.12 213.863C1199.69 216.233 1208.76 217.418 1217.32 217.418C1243.12 217.418 1256.02 206.845 1256.02 185.699C1256.02 165.556 1242.66 155.484 1215.96 155.484C1211.13 155.484 1205.79 155.986 1199.96 156.988C1194.13 157.9 1189.39 158.902 1185.74 159.996L1168.93 150.973L1176.45 49.1172H1284.86V84.9375H1213.5L1209.8 124.176L1214.59 123.219C1220.15 121.943 1227.03 121.305 1235.23 121.305Z" fill="#01F859"/>
<path d="M1355.99 249H1349.31V228.352L1348.94 229.805C1348.09 233.102 1347.34 235.594 1346.66 237.281L1342.02 249H1336.94L1332.23 237.188C1331.55 235.469 1330.84 233.055 1330.07 229.945L1329.62 228.352V249H1322.97V222.797H1332.81L1337.31 233.977C1337.78 235.18 1338.21 236.562 1338.6 238.125C1339.01 239.688 1339.28 241.023 1339.42 242.133C1339.94 239.789 1340.34 238.109 1340.62 237.094C1340.91 236.062 1341.23 235.117 1341.58 234.258C1341.92 233.398 1343.48 229.578 1346.24 222.797H1355.99V249ZM1386.98 249H1379.83V228.164H1373.24C1372.74 234.023 1372.13 238.398 1371.41 241.289C1370.7 244.164 1369.73 246.25 1368.53 247.547C1367.34 248.828 1365.78 249.469 1363.84 249.469C1362.19 249.469 1360.83 249.219 1359.77 248.719V243C1360.53 243.312 1361.3 243.469 1362.06 243.469C1362.95 243.469 1363.7 242.828 1364.29 241.547C1364.9 240.266 1365.44 238.133 1365.91 235.148C1366.39 232.148 1366.8 228.031 1367.15 222.797H1386.98V249ZM1401.65 222.797V232.875H1411.63V222.797H1418.78V249H1411.63V238.195H1401.65V249H1394.5V222.797H1401.65ZM1439.32 249V243.864H1435.48V239.208H1439.32V235.464H1435.48V229.512H1439.32V214.728H1450.26C1454.68 214.728 1457.9 215.624 1459.91 217.416C1461.96 219.208 1462.98 221.672 1462.98 224.808C1462.98 226.664 1462.57 228.408 1461.74 230.04C1460.9 231.672 1459.51 232.984 1457.56 233.976C1455.64 234.968 1453.02 235.464 1449.69 235.464H1446.57V239.208H1453.96V243.864H1446.57V249H1439.32ZM1448.97 229.512C1451.02 229.512 1452.63 229.16 1453.82 228.456C1455.03 227.752 1455.64 226.616 1455.64 225.048C1455.64 222.136 1453.72 220.68 1449.88 220.68H1446.57V229.512H1448.97Z" fill="white"/>
<path d="M1590 434C986.751 434 603.249 434.001 0 434.001" stroke="#275D81" stroke-width="2"/>
<path d="M795 349.587C795 218.813 795 465.187 795 334.413" stroke="#275D81" stroke-width="2"/>
<path d="M241.062 331.812C241.062 334.708 240.219 337.125 238.531 339.062C236.844 340.979 234.469 342.271 231.406 342.938V343.188C235.073 343.646 237.823 344.792 239.656 346.625C241.49 348.438 242.406 350.854 242.406 353.875C242.406 358.271 240.854 361.667 237.75 364.062C234.646 366.438 230.229 367.625 224.5 367.625C219.438 367.625 215.167 366.802 211.688 365.156V358.625C213.625 359.583 215.677 360.323 217.844 360.844C220.01 361.365 222.094 361.625 224.094 361.625C227.635 361.625 230.281 360.969 232.031 359.656C233.781 358.344 234.656 356.312 234.656 353.562C234.656 351.125 233.688 349.333 231.75 348.188C229.812 347.042 226.771 346.469 222.625 346.469H218.656V340.5H222.688C229.979 340.5 233.625 337.979 233.625 332.938C233.625 330.979 232.99 329.469 231.719 328.406C230.448 327.344 228.573 326.812 226.094 326.812C224.365 326.812 222.698 327.062 221.094 327.562C219.49 328.042 217.594 328.99 215.406 330.406L211.812 325.281C216 322.198 220.865 320.656 226.406 320.656C231.01 320.656 234.604 321.646 237.188 323.625C239.771 325.604 241.062 328.333 241.062 331.812ZM279.281 340.812C279.281 349.812 277.469 356.531 273.844 360.969C270.219 365.406 264.76 367.625 257.469 367.625C254.698 367.625 252.708 367.458 251.5 367.125V360.969C253.354 361.49 255.219 361.75 257.094 361.75C262.052 361.75 265.75 360.417 268.188 357.75C270.625 355.083 271.958 350.896 272.188 345.188H271.812C270.583 347.062 269.094 348.417 267.344 349.25C265.615 350.083 263.583 350.5 261.25 350.5C257.208 350.5 254.031 349.24 251.719 346.719C249.406 344.198 248.25 340.74 248.25 336.344C248.25 331.573 249.583 327.781 252.25 324.969C254.938 322.135 258.594 320.719 263.219 320.719C266.469 320.719 269.302 321.51 271.719 323.094C274.135 324.677 276 326.979 277.312 330C278.625 333 279.281 336.604 279.281 340.812ZM263.344 326.812C260.802 326.812 258.854 327.646 257.5 329.312C256.146 330.958 255.469 333.281 255.469 336.281C255.469 338.885 256.094 340.938 257.344 342.438C258.615 343.917 260.531 344.656 263.094 344.656C265.573 344.656 267.656 343.917 269.344 342.438C271.031 340.958 271.875 339.229 271.875 337.25C271.875 335.396 271.51 333.667 270.781 332.062C270.073 330.438 269.073 329.156 267.781 328.219C266.49 327.281 265.01 326.812 263.344 326.812ZM285.062 347.531C285.062 329.656 292.344 320.719 306.906 320.719C309.198 320.719 311.135 320.896 312.719 321.25V327.375C311.135 326.917 309.302 326.688 307.219 326.688C302.323 326.688 298.646 328 296.188 330.625C293.729 333.25 292.396 337.458 292.188 343.25H292.562C293.542 341.562 294.917 340.26 296.688 339.344C298.458 338.406 300.542 337.938 302.938 337.938C307.083 337.938 310.312 339.208 312.625 341.75C314.938 344.292 316.094 347.74 316.094 352.094C316.094 356.885 314.75 360.677 312.062 363.469C309.396 366.24 305.75 367.625 301.125 367.625C297.854 367.625 295.01 366.844 292.594 365.281C290.177 363.698 288.312 361.406 287 358.406C285.708 355.385 285.062 351.76 285.062 347.531ZM301 361.562C303.521 361.562 305.458 360.75 306.812 359.125C308.188 357.5 308.875 355.177 308.875 352.156C308.875 349.531 308.229 347.469 306.938 345.969C305.667 344.469 303.75 343.719 301.188 343.719C299.604 343.719 298.146 344.062 296.812 344.75C295.479 345.417 294.427 346.344 293.656 347.531C292.885 348.698 292.5 349.896 292.5 351.125C292.5 354.062 293.292 356.542 294.875 358.562C296.479 360.562 298.521 361.562 301 361.562Z" fill="white"/>
<path d="M355.68 367H352.438V345.594H370.406V367H367.125V348.406H355.68V367ZM387.242 367.391C385.849 367.391 384.573 367.137 383.414 366.629C382.268 366.108 381.305 365.314 380.523 364.246H380.289C380.445 365.496 380.523 366.681 380.523 367.801V376.609H377.281V345.594H379.918L380.367 348.523H380.523C381.357 347.352 382.327 346.505 383.434 345.984C384.54 345.464 385.81 345.203 387.242 345.203C390.081 345.203 392.268 346.173 393.805 348.113C395.354 350.053 396.129 352.775 396.129 356.277C396.129 359.793 395.341 362.527 393.766 364.48C392.203 366.421 390.029 367.391 387.242 367.391ZM386.773 347.957C384.586 347.957 383.004 348.562 382.027 349.773C381.051 350.984 380.549 352.911 380.523 355.555V356.277C380.523 359.285 381.025 361.44 382.027 362.742C383.03 364.031 384.638 364.676 386.852 364.676C388.701 364.676 390.146 363.927 391.188 362.43C392.242 360.932 392.77 358.868 392.77 356.238C392.77 353.569 392.242 351.525 391.188 350.105C390.146 348.673 388.674 347.957 386.773 347.957ZM420.289 356.277C420.289 359.767 419.41 362.495 417.652 364.461C415.895 366.414 413.466 367.391 410.367 367.391C408.453 367.391 406.754 366.941 405.27 366.043C403.785 365.145 402.639 363.855 401.832 362.176C401.025 360.496 400.621 358.53 400.621 356.277C400.621 352.788 401.493 350.073 403.238 348.133C404.983 346.18 407.405 345.203 410.504 345.203C413.499 345.203 415.875 346.199 417.633 348.191C419.404 350.184 420.289 352.879 420.289 356.277ZM403.98 356.277C403.98 359.012 404.527 361.095 405.621 362.527C406.715 363.96 408.323 364.676 410.445 364.676C412.568 364.676 414.176 363.966 415.27 362.547C416.376 361.115 416.93 359.025 416.93 356.277C416.93 353.556 416.376 351.492 415.27 350.086C414.176 348.667 412.555 347.957 410.406 347.957C408.284 347.957 406.682 348.654 405.602 350.047C404.521 351.44 403.98 353.517 403.98 356.277ZM435.035 367.391C431.871 367.391 429.371 366.427 427.535 364.5C425.712 362.573 424.801 359.897 424.801 356.473C424.801 353.022 425.647 350.281 427.34 348.25C429.046 346.219 431.331 345.203 434.195 345.203C436.878 345.203 439 346.089 440.562 347.859C442.125 349.617 442.906 351.941 442.906 354.832V356.883H428.16C428.225 359.396 428.857 361.303 430.055 362.605C431.266 363.908 432.965 364.559 435.152 364.559C437.457 364.559 439.736 364.077 441.988 363.113V366.004C440.842 366.499 439.755 366.85 438.727 367.059C437.711 367.28 436.48 367.391 435.035 367.391ZM434.156 347.918C432.438 347.918 431.064 348.478 430.035 349.598C429.02 350.717 428.421 352.267 428.238 354.246H439.43C439.43 352.202 438.974 350.639 438.062 349.559C437.151 348.465 435.849 347.918 434.156 347.918ZM460.934 345.594H464.488L455.25 355.926L465.25 367H461.461L451.695 356.16V367H448.453V345.594H451.695V356.004L460.934 345.594ZM483.668 348.367H476.715V367H473.473V348.367H466.598V345.594H483.668V348.367ZM506.383 356.277C506.383 359.767 505.504 362.495 503.746 364.461C501.988 366.414 499.56 367.391 496.461 367.391C494.547 367.391 492.848 366.941 491.363 366.043C489.879 365.145 488.733 363.855 487.926 362.176C487.118 360.496 486.715 358.53 486.715 356.277C486.715 352.788 487.587 350.073 489.332 348.133C491.077 346.18 493.499 345.203 496.598 345.203C499.592 345.203 501.969 346.199 503.727 348.191C505.497 350.184 506.383 352.879 506.383 356.277ZM490.074 356.277C490.074 359.012 490.621 361.095 491.715 362.527C492.809 363.96 494.417 364.676 496.539 364.676C498.661 364.676 500.27 363.966 501.363 362.547C502.47 361.115 503.023 359.025 503.023 356.277C503.023 353.556 502.47 351.492 501.363 350.086C500.27 348.667 498.648 347.957 496.5 347.957C494.378 347.957 492.776 348.654 491.695 350.047C490.615 351.44 490.074 353.517 490.074 356.277ZM529.449 350.965C529.449 352.358 529.046 353.419 528.238 354.148C527.444 354.865 526.324 355.346 524.879 355.594V355.77C526.702 356.017 528.03 356.551 528.863 357.371C529.71 358.191 530.133 359.324 530.133 360.77C530.133 362.762 529.397 364.298 527.926 365.379C526.467 366.46 524.332 367 521.52 367H512.086V345.594H521.48C526.793 345.594 529.449 347.384 529.449 350.965ZM526.891 360.555C526.891 359.396 526.448 358.556 525.562 358.035C524.69 357.501 523.238 357.234 521.207 357.234H515.328V364.285H521.285C525.022 364.285 526.891 363.042 526.891 360.555ZM526.285 351.277C526.285 350.236 525.882 349.5 525.074 349.07C524.28 348.628 523.069 348.406 521.441 348.406H515.328V354.441H520.816C522.822 354.441 524.234 354.194 525.055 353.699C525.875 353.204 526.285 352.397 526.285 351.277ZM562.613 350.965C562.613 352.358 562.21 353.419 561.402 354.148C560.608 354.865 559.488 355.346 558.043 355.594V355.77C559.866 356.017 561.194 356.551 562.027 357.371C562.874 358.191 563.297 359.324 563.297 360.77C563.297 362.762 562.561 364.298 561.09 365.379C559.632 366.46 557.496 367 554.684 367H545.25V345.594H554.645C559.957 345.594 562.613 347.384 562.613 350.965ZM560.055 360.555C560.055 359.396 559.612 358.556 558.727 358.035C557.854 357.501 556.402 357.234 554.371 357.234H548.492V364.285H554.449C558.186 364.285 560.055 363.042 560.055 360.555ZM559.449 351.277C559.449 350.236 559.046 349.5 558.238 349.07C557.444 348.628 556.233 348.406 554.605 348.406H548.492V354.441H553.98C555.986 354.441 557.398 354.194 558.219 353.699C559.039 353.204 559.449 352.397 559.449 351.277ZM588.375 367.391C586.982 367.391 585.706 367.137 584.547 366.629C583.401 366.108 582.438 365.314 581.656 364.246H581.422C581.578 365.496 581.656 366.681 581.656 367.801V376.609H578.414V345.594H581.051L581.5 348.523H581.656C582.49 347.352 583.46 346.505 584.566 345.984C585.673 345.464 586.943 345.203 588.375 345.203C591.214 345.203 593.401 346.173 594.938 348.113C596.487 350.053 597.262 352.775 597.262 356.277C597.262 359.793 596.474 362.527 594.898 364.48C593.336 366.421 591.161 367.391 588.375 367.391ZM587.906 347.957C585.719 347.957 584.137 348.562 583.16 349.773C582.184 350.984 581.682 352.911 581.656 355.555V356.277C581.656 359.285 582.158 361.44 583.16 362.742C584.163 364.031 585.771 364.676 587.984 364.676C589.833 364.676 591.279 363.927 592.32 362.43C593.375 360.932 593.902 358.868 593.902 356.238C593.902 353.569 593.375 351.525 592.32 350.105C591.279 348.673 589.807 347.957 587.906 347.957ZM616.109 367L615.465 363.953H615.309C614.241 365.294 613.173 366.206 612.105 366.688C611.051 367.156 609.729 367.391 608.141 367.391C606.018 367.391 604.352 366.844 603.141 365.75C601.943 364.656 601.344 363.1 601.344 361.082C601.344 356.759 604.801 354.493 611.715 354.285L615.348 354.168V352.84C615.348 351.16 614.983 349.923 614.254 349.129C613.538 348.322 612.385 347.918 610.797 347.918C609.013 347.918 606.995 348.465 604.742 349.559L603.746 347.078C604.801 346.505 605.953 346.056 607.203 345.73C608.466 345.405 609.729 345.242 610.992 345.242C613.544 345.242 615.432 345.809 616.656 346.941C617.893 348.074 618.512 349.891 618.512 352.391V367H616.109ZM608.785 364.715C610.803 364.715 612.385 364.161 613.531 363.055C614.69 361.948 615.27 360.398 615.27 358.406V356.473L612.027 356.609C609.449 356.701 607.587 357.104 606.441 357.82C605.309 358.523 604.742 359.624 604.742 361.121C604.742 362.293 605.094 363.185 605.797 363.797C606.513 364.409 607.509 364.715 608.785 364.715ZM624.098 354.168C624.098 349.48 624.788 345.828 626.168 343.211C627.548 340.581 629.736 338.94 632.73 338.289C636.454 337.495 639.736 336.85 642.574 336.355L643.18 339.207C638.661 339.962 635.432 340.561 633.492 341.004C631.604 341.434 630.185 342.449 629.234 344.051C628.297 345.652 627.783 347.833 627.691 350.594H627.926C628.733 349.5 629.775 348.641 631.051 348.016C632.327 347.391 633.661 347.078 635.055 347.078C637.685 347.078 639.736 347.931 641.207 349.637C642.678 351.342 643.414 353.706 643.414 356.727C643.414 360.073 642.561 362.69 640.855 364.578C639.15 366.453 636.773 367.391 633.727 367.391C630.719 367.391 628.362 366.238 626.656 363.934C624.951 361.629 624.098 358.374 624.098 354.168ZM634.02 364.676C637.991 364.676 639.977 362.143 639.977 357.078C639.977 352.247 638.173 349.832 634.566 349.832C633.577 349.832 632.62 350.04 631.695 350.457C630.784 350.861 629.944 351.401 629.176 352.078C628.421 352.755 627.835 353.452 627.418 354.168C627.418 357.592 627.958 360.203 629.039 362C630.12 363.784 631.78 364.676 634.02 364.676ZM667.555 356.277C667.555 359.767 666.676 362.495 664.918 364.461C663.16 366.414 660.732 367.391 657.633 367.391C655.719 367.391 654.02 366.941 652.535 366.043C651.051 365.145 649.905 363.855 649.098 362.176C648.29 360.496 647.887 358.53 647.887 356.277C647.887 352.788 648.759 350.073 650.504 348.133C652.249 346.18 654.671 345.203 657.77 345.203C660.764 345.203 663.141 346.199 664.898 348.191C666.669 350.184 667.555 352.879 667.555 356.277ZM651.246 356.277C651.246 359.012 651.793 361.095 652.887 362.527C653.98 363.96 655.589 364.676 657.711 364.676C659.833 364.676 661.441 363.966 662.535 362.547C663.642 361.115 664.195 359.025 664.195 356.277C664.195 353.556 663.642 351.492 662.535 350.086C661.441 348.667 659.82 347.957 657.672 347.957C655.549 347.957 653.948 348.654 652.867 350.047C651.786 351.44 651.246 353.517 651.246 356.277ZM687.691 348.367H680.738V367H677.496V348.367H670.621V345.594H687.691V348.367ZM700.973 367.391C697.809 367.391 695.309 366.427 693.473 364.5C691.65 362.573 690.738 359.897 690.738 356.473C690.738 353.022 691.585 350.281 693.277 348.25C694.983 346.219 697.268 345.203 700.133 345.203C702.815 345.203 704.938 346.089 706.5 347.859C708.062 349.617 708.844 351.941 708.844 354.832V356.883H694.098C694.163 359.396 694.794 361.303 695.992 362.605C697.203 363.908 698.902 364.559 701.09 364.559C703.395 364.559 705.673 364.077 707.926 363.113V366.004C706.78 366.499 705.693 366.85 704.664 367.059C703.648 367.28 702.418 367.391 700.973 367.391ZM700.094 347.918C698.375 347.918 697.001 348.478 695.973 349.598C694.957 350.717 694.358 352.267 694.176 354.246H705.367C705.367 352.202 704.911 350.639 704 349.559C703.089 348.465 701.786 347.918 700.094 347.918Z" fill="white"/>
<path d="M919.375 367H912.031V337.5C912.031 333.979 912.115 331.188 912.281 329.125C911.802 329.625 911.208 330.177 910.5 330.781C909.812 331.385 907.479 333.302 903.5 336.531L899.812 331.875L913.25 321.312H919.375V367ZM939.562 367L957.625 327.844H933.875V321.375H965.469V326.5L947.5 367H939.562ZM992.75 367L1010.81 327.844H987.062V321.375H1018.66V326.5L1000.69 367H992.75ZM1024.25 347.531C1024.25 329.656 1031.53 320.719 1046.09 320.719C1048.39 320.719 1050.32 320.896 1051.91 321.25V327.375C1050.32 326.917 1048.49 326.688 1046.41 326.688C1041.51 326.688 1037.83 328 1035.38 330.625C1032.92 333.25 1031.58 337.458 1031.38 343.25H1031.75C1032.73 341.562 1034.1 340.26 1035.88 339.344C1037.65 338.406 1039.73 337.938 1042.12 337.938C1046.27 337.938 1049.5 339.208 1051.81 341.75C1054.12 344.292 1055.28 347.74 1055.28 352.094C1055.28 356.885 1053.94 360.677 1051.25 363.469C1048.58 366.24 1044.94 367.625 1040.31 367.625C1037.04 367.625 1034.2 366.844 1031.78 365.281C1029.36 363.698 1027.5 361.406 1026.19 358.406C1024.9 355.385 1024.25 351.76 1024.25 347.531ZM1040.19 361.562C1042.71 361.562 1044.65 360.75 1046 359.125C1047.38 357.5 1048.06 355.177 1048.06 352.156C1048.06 349.531 1047.42 347.469 1046.12 345.969C1044.85 344.469 1042.94 343.719 1040.38 343.719C1038.79 343.719 1037.33 344.062 1036 344.75C1034.67 345.417 1033.61 346.344 1032.84 347.531C1032.07 348.698 1031.69 349.896 1031.69 351.125C1031.69 354.062 1032.48 356.542 1034.06 358.562C1035.67 360.562 1037.71 361.562 1040.19 361.562ZM1076.19 338.469C1080.79 338.469 1084.44 339.688 1087.12 342.125C1089.81 344.562 1091.16 347.885 1091.16 352.094C1091.16 356.969 1089.62 360.781 1086.56 363.531C1083.52 366.26 1079.19 367.625 1073.56 367.625C1068.46 367.625 1064.45 366.802 1061.53 365.156V358.5C1063.22 359.458 1065.16 360.198 1067.34 360.719C1069.53 361.24 1071.56 361.5 1073.44 361.5C1076.75 361.5 1079.27 360.76 1081 359.281C1082.73 357.802 1083.59 355.635 1083.59 352.781C1083.59 347.323 1080.11 344.594 1073.16 344.594C1072.18 344.594 1070.97 344.698 1069.53 344.906C1068.09 345.094 1066.83 345.312 1065.75 345.562L1062.47 343.625L1064.22 321.312H1087.97V327.844H1070.69L1069.66 339.156C1070.39 339.031 1071.27 338.885 1072.31 338.719C1073.38 338.552 1074.67 338.469 1076.19 338.469Z" fill="white"/>
<path d="M1138.4 367.391C1137.01 367.391 1135.73 367.137 1134.57 366.629C1133.42 366.108 1132.46 365.314 1131.68 364.246H1131.45C1131.6 365.496 1131.68 366.681 1131.68 367.801V376.609H1128.44V345.594H1131.07L1131.52 348.523H1131.68C1132.51 347.352 1133.48 346.505 1134.59 345.984C1135.7 345.464 1136.97 345.203 1138.4 345.203C1141.24 345.203 1143.42 346.173 1144.96 348.113C1146.51 350.053 1147.29 352.775 1147.29 356.277C1147.29 359.793 1146.5 362.527 1144.92 364.48C1143.36 366.421 1141.18 367.391 1138.4 367.391ZM1137.93 347.957C1135.74 347.957 1134.16 348.562 1133.18 349.773C1132.21 350.984 1131.71 352.911 1131.68 355.555V356.277C1131.68 359.285 1132.18 361.44 1133.18 362.742C1134.19 364.031 1135.79 364.676 1138.01 364.676C1139.86 364.676 1141.3 363.927 1142.34 362.43C1143.4 360.932 1143.93 358.868 1143.93 356.238C1143.93 353.569 1143.4 351.525 1142.34 350.105C1141.3 348.673 1139.83 347.957 1137.93 347.957ZM1166.13 367L1165.49 363.953H1165.33C1164.26 365.294 1163.2 366.206 1162.13 366.688C1161.07 367.156 1159.75 367.391 1158.16 367.391C1156.04 367.391 1154.38 366.844 1153.16 365.75C1151.97 364.656 1151.37 363.1 1151.37 361.082C1151.37 356.759 1154.82 354.493 1161.74 354.285L1165.37 354.168V352.84C1165.37 351.16 1165.01 349.923 1164.28 349.129C1163.56 348.322 1162.41 347.918 1160.82 347.918C1159.04 347.918 1157.02 348.465 1154.77 349.559L1153.77 347.078C1154.82 346.505 1155.98 346.056 1157.23 345.73C1158.49 345.405 1159.75 345.242 1161.02 345.242C1163.57 345.242 1165.46 345.809 1166.68 346.941C1167.92 348.074 1168.54 349.891 1168.54 352.391V367H1166.13ZM1158.81 364.715C1160.83 364.715 1162.41 364.161 1163.55 363.055C1164.71 361.948 1165.29 360.398 1165.29 358.406V356.473L1162.05 356.609C1159.47 356.701 1157.61 357.104 1156.46 357.82C1155.33 358.523 1154.77 359.624 1154.77 361.121C1154.77 362.293 1155.12 363.185 1155.82 363.797C1156.54 364.409 1157.53 364.715 1158.81 364.715ZM1174.12 354.168C1174.12 349.48 1174.81 345.828 1176.19 343.211C1177.57 340.581 1179.76 338.94 1182.75 338.289C1186.48 337.495 1189.76 336.85 1192.6 336.355L1193.2 339.207C1188.68 339.962 1185.46 340.561 1183.52 341.004C1181.63 341.434 1180.21 342.449 1179.26 344.051C1178.32 345.652 1177.81 347.833 1177.71 350.594H1177.95C1178.76 349.5 1179.8 348.641 1181.07 348.016C1182.35 347.391 1183.68 347.078 1185.08 347.078C1187.71 347.078 1189.76 347.931 1191.23 349.637C1192.7 351.342 1193.44 353.706 1193.44 356.727C1193.44 360.073 1192.58 362.69 1190.88 364.578C1189.17 366.453 1186.8 367.391 1183.75 367.391C1180.74 367.391 1178.39 366.238 1176.68 363.934C1174.97 361.629 1174.12 358.374 1174.12 354.168ZM1184.04 364.676C1188.01 364.676 1190 362.143 1190 357.078C1190 352.247 1188.2 349.832 1184.59 349.832C1183.6 349.832 1182.64 350.04 1181.72 350.457C1180.81 350.861 1179.97 351.401 1179.2 352.078C1178.44 352.755 1177.86 353.452 1177.44 354.168C1177.44 357.592 1177.98 360.203 1179.06 362C1180.14 363.784 1181.8 364.676 1184.04 364.676ZM1217.58 356.277C1217.58 359.767 1216.7 362.495 1214.94 364.461C1213.18 366.414 1210.76 367.391 1207.66 367.391C1205.74 367.391 1204.04 366.941 1202.56 366.043C1201.07 365.145 1199.93 363.855 1199.12 362.176C1198.31 360.496 1197.91 358.53 1197.91 356.277C1197.91 352.788 1198.78 350.073 1200.53 348.133C1202.27 346.18 1204.69 345.203 1207.79 345.203C1210.79 345.203 1213.16 346.199 1214.92 348.191C1216.69 350.184 1217.58 352.879 1217.58 356.277ZM1201.27 356.277C1201.27 359.012 1201.82 361.095 1202.91 362.527C1204 363.96 1205.61 364.676 1207.73 364.676C1209.86 364.676 1211.46 363.966 1212.56 362.547C1213.67 361.115 1214.22 359.025 1214.22 356.277C1214.22 353.556 1213.67 351.492 1212.56 350.086C1211.46 348.667 1209.84 347.957 1207.7 347.957C1205.57 347.957 1203.97 348.654 1202.89 350.047C1201.81 351.44 1201.27 353.517 1201.27 356.277ZM1226.13 345.594V353.406C1226.13 355.906 1227.56 357.156 1230.41 357.156C1231.6 357.156 1232.73 356.974 1233.81 356.609C1234.89 356.245 1236.11 355.626 1237.48 354.754V345.594H1240.72V367H1237.48V357.312C1236.11 358.25 1234.84 358.914 1233.67 359.305C1232.51 359.682 1231.2 359.871 1229.73 359.871C1227.59 359.871 1225.92 359.311 1224.71 358.191C1223.5 357.072 1222.89 355.555 1222.89 353.641V345.594H1226.13ZM1250.66 345.594V359.168L1250.53 362.723L1250.47 363.836L1262.05 345.594H1266.09V367H1263.07V353.914L1263.12 351.336L1263.22 348.797L1251.66 367H1247.62V345.594H1250.66ZM1278.12 356.043L1270.68 345.594H1274.38L1280.02 353.797L1285.64 345.594H1289.3L1281.86 356.043L1289.69 367H1286.02L1280.02 358.328L1273.96 367H1270.29L1278.12 356.043ZM1315.45 363.875L1316.05 362.059L1316.89 359.754L1322.7 345.633H1326.82V367H1323.95V349.324L1323.55 350.457L1322.42 353.445L1316.89 367H1314.18L1308.65 353.406C1307.96 351.661 1307.49 350.301 1307.23 349.324V367H1304.34V345.633H1308.3L1313.91 359.207C1314.47 360.639 1314.98 362.195 1315.45 363.875ZM1342.79 367.391C1339.63 367.391 1337.13 366.427 1335.29 364.5C1333.47 362.573 1332.56 359.897 1332.56 356.473C1332.56 353.022 1333.4 350.281 1335.1 348.25C1336.8 346.219 1339.09 345.203 1341.95 345.203C1344.64 345.203 1346.76 346.089 1348.32 347.859C1349.88 349.617 1350.66 351.941 1350.66 354.832V356.883H1335.92C1335.98 359.396 1336.61 361.303 1337.81 362.605C1339.02 363.908 1340.72 364.559 1342.91 364.559C1345.21 364.559 1347.49 364.077 1349.75 363.113V366.004C1348.6 366.499 1347.51 366.85 1346.48 367.059C1345.47 367.28 1344.24 367.391 1342.79 367.391ZM1341.91 347.918C1340.2 347.918 1338.82 348.478 1337.79 349.598C1336.78 350.717 1336.18 352.267 1336 354.246H1347.19C1347.19 352.202 1346.73 350.639 1345.82 349.559C1344.91 348.465 1343.61 347.918 1341.91 347.918ZM1364.77 367.391C1361.67 367.391 1359.26 366.44 1357.56 364.539C1355.87 362.625 1355.02 359.923 1355.02 356.434C1355.02 352.853 1355.88 350.086 1357.6 348.133C1359.33 346.18 1361.79 345.203 1364.98 345.203C1366.01 345.203 1367.04 345.314 1368.07 345.535C1369.1 345.757 1369.9 346.017 1370.49 346.316L1369.49 349.07C1368.78 348.784 1367.99 348.549 1367.15 348.367C1366.3 348.172 1365.55 348.074 1364.9 348.074C1360.55 348.074 1358.38 350.848 1358.38 356.395C1358.38 359.025 1358.91 361.043 1359.96 362.449C1361.03 363.855 1362.6 364.559 1364.69 364.559C1366.47 364.559 1368.3 364.174 1370.18 363.406V366.277C1368.74 367.02 1366.94 367.391 1364.77 367.391ZM1389.71 348.367H1382.75V367H1379.51V348.367H1372.64V345.594H1389.71V348.367Z" fill="white"/>
<path d="M530 434H1060V894H530V434Z" fill="#C4C4C4" fill-opacity="0.05"/>
<path d="M655.621 731.246H645.309V749H627.613V731.246H591.051V718.648L628.609 663.336H645.309V717.184H655.621V731.246ZM627.613 717.184V702.652C627.613 700.23 627.711 696.715 627.906 692.105C628.102 687.496 628.258 684.82 628.375 684.078H627.906C626.461 687.281 624.723 690.406 622.691 693.453L606.988 717.184H627.613ZM721.891 699.898C721.891 716.773 718.336 729.371 711.227 737.691C704.117 746.012 693.355 750.172 678.941 750.172C673.863 750.172 670.016 749.898 667.398 749.352V734.82C670.68 735.641 674.117 736.051 677.711 736.051C683.766 736.051 688.746 735.172 692.652 733.414C696.559 731.617 699.547 728.824 701.617 725.035C703.688 721.207 704.879 715.953 705.191 709.273H704.488C702.223 712.945 699.605 715.523 696.637 717.008C693.668 718.492 689.957 719.234 685.504 719.234C678.043 719.234 672.164 716.852 667.867 712.086C663.57 707.281 661.422 700.621 661.422 692.105C661.422 682.926 664.02 675.68 669.215 670.367C674.449 665.016 681.559 662.34 690.543 662.34C696.871 662.34 702.398 663.824 707.125 666.793C711.891 669.762 715.543 674.078 718.082 679.742C720.621 685.367 721.891 692.086 721.891 699.898ZM690.895 676.871C687.145 676.871 684.215 678.16 682.105 680.738C679.996 683.316 678.941 687.027 678.941 691.871C678.941 696.012 679.898 699.293 681.812 701.715C683.727 704.137 686.637 705.348 690.543 705.348C694.215 705.348 697.359 704.156 699.977 701.773C702.594 699.352 703.902 696.578 703.902 693.453C703.902 688.805 702.672 684.879 700.211 681.676C697.789 678.473 694.684 676.871 690.895 676.871ZM753.004 736.402C750.973 744.293 747.535 753.648 742.691 764.469H729.801C732.34 754.078 734.312 744.273 735.719 735.055H752.125L753.004 736.402ZM810.484 749H792.379V699.43L792.555 691.285L792.848 682.379C789.84 685.387 787.75 687.359 786.578 688.297L776.734 696.207L768.004 685.309L795.602 663.336H810.484V749ZM894.156 749H834.273V736.402L855.777 714.664C862.145 708.141 866.305 703.629 868.258 701.129C870.211 698.59 871.617 696.246 872.477 694.098C873.336 691.949 873.766 689.723 873.766 687.418C873.766 683.98 872.809 681.422 870.895 679.742C869.02 678.062 866.5 677.223 863.336 677.223C860.016 677.223 856.793 677.984 853.668 679.508C850.543 681.031 847.281 683.199 843.883 686.012L834.039 674.352C838.258 670.758 841.754 668.219 844.527 666.734C847.301 665.25 850.328 664.117 853.609 663.336C856.891 662.516 860.562 662.105 864.625 662.105C869.977 662.105 874.703 663.082 878.805 665.035C882.906 666.988 886.09 669.723 888.355 673.238C890.621 676.754 891.754 680.777 891.754 685.309C891.754 689.254 891.051 692.965 889.645 696.441C888.277 699.879 886.129 703.414 883.199 707.047C880.309 710.68 875.191 715.855 867.848 722.574L856.832 732.945V733.766H894.156V749ZM916.48 689C916.48 693.961 916.91 697.672 917.77 700.133C918.668 702.555 920.094 703.766 922.047 703.766C925.797 703.766 927.672 698.844 927.672 689C927.672 679.234 925.797 674.352 922.047 674.352C920.094 674.352 918.668 675.562 917.77 677.984C916.91 680.367 916.48 684.039 916.48 689ZM942.438 688.883C942.438 697.867 940.699 704.625 937.223 709.156C933.746 713.648 928.648 715.895 921.93 715.895C915.484 715.895 910.504 713.59 906.988 708.98C903.473 704.332 901.715 697.633 901.715 688.883C901.715 671.031 908.453 662.105 921.93 662.105C928.531 662.105 933.59 664.43 937.105 669.078C940.66 673.688 942.438 680.289 942.438 688.883ZM982.75 663.336L935.23 749H921.168L968.688 663.336H982.75ZM976.48 723.219C976.48 728.18 976.91 731.891 977.77 734.352C978.668 736.773 980.094 737.984 982.047 737.984C985.797 737.984 987.672 733.062 987.672 723.219C987.672 713.453 985.797 708.57 982.047 708.57C980.094 708.57 978.668 709.781 977.77 712.203C976.91 714.586 976.48 718.258 976.48 723.219ZM1002.44 723.102C1002.44 732.047 1000.7 738.785 997.223 743.316C993.746 747.809 988.648 750.055 981.93 750.055C975.484 750.055 970.504 747.75 966.988 743.141C963.473 738.492 961.715 731.812 961.715 723.102C961.715 705.25 968.453 696.324 981.93 696.324C988.531 696.324 993.59 698.648 997.105 703.297C1000.66 707.906 1002.44 714.508 1002.44 723.102Z" fill="#01F859"/>
<path d="M674.792 578.056C673.083 578.056 671.76 578.7 670.822 579.989C669.885 581.269 669.416 583.056 669.416 585.351C669.416 590.126 671.208 592.514 674.792 592.514C676.296 592.514 678.117 592.138 680.256 591.386V595.194C678.498 595.927 676.535 596.293 674.367 596.293C671.252 596.293 668.869 595.351 667.219 593.466C665.568 591.571 664.743 588.856 664.743 585.321C664.743 583.095 665.148 581.146 665.959 579.477C666.77 577.797 667.932 576.513 669.445 575.624C670.969 574.726 672.751 574.276 674.792 574.276C676.872 574.276 678.962 574.779 681.062 575.785L679.597 579.477C678.796 579.096 677.99 578.764 677.18 578.48C676.369 578.197 675.573 578.056 674.792 578.056ZM688.034 587.782C688.034 589.403 688.298 590.629 688.825 591.459C689.362 592.289 690.231 592.704 691.433 592.704C692.624 592.704 693.479 592.294 693.996 591.474C694.523 590.644 694.787 589.413 694.787 587.782C694.787 586.161 694.523 584.945 693.996 584.135C693.469 583.324 692.604 582.919 691.403 582.919C690.212 582.919 689.353 583.324 688.825 584.135C688.298 584.936 688.034 586.151 688.034 587.782ZM699.357 587.782C699.357 590.448 698.654 592.533 697.248 594.037C695.842 595.541 693.884 596.293 691.374 596.293C689.802 596.293 688.415 595.951 687.214 595.268C686.013 594.574 685.09 593.583 684.445 592.294C683.801 591.005 683.479 589.501 683.479 587.782C683.479 585.106 684.177 583.026 685.573 581.542C686.97 580.058 688.933 579.315 691.462 579.315C693.034 579.315 694.421 579.657 695.622 580.341C696.823 581.024 697.746 582.006 698.391 583.285C699.035 584.564 699.357 586.063 699.357 587.782ZM702.053 586.186C702.053 582.426 702.766 579.574 704.191 577.631C705.627 575.678 707.863 574.442 710.9 573.925C712.375 573.671 714.577 573.349 717.507 572.958L718.02 576.854C716.75 577.001 714.499 577.313 711.267 577.792C710.036 577.987 709.118 578.28 708.513 578.671C707.907 579.062 707.453 579.618 707.15 580.341C706.857 581.063 706.677 582.025 706.608 583.227H706.828C707.346 582.426 708.029 581.811 708.879 581.381C709.729 580.951 710.642 580.736 711.618 580.736C713.64 580.736 715.212 581.356 716.335 582.597C717.458 583.827 718.02 585.595 718.02 587.899C718.02 590.556 717.307 592.621 715.881 594.096C714.465 595.561 712.507 596.293 710.007 596.293C707.507 596.293 705.554 595.399 704.147 593.612C702.751 591.815 702.053 589.34 702.053 586.186ZM710.271 592.675C712.39 592.675 713.449 591.215 713.449 588.295C713.449 585.453 712.492 584.032 710.578 584.032C710.051 584.032 709.523 584.154 708.996 584.398C708.479 584.643 708 584.965 707.561 585.365C707.131 585.756 706.813 586.151 706.608 586.552C706.608 588.534 706.926 590.053 707.561 591.107C708.195 592.152 709.099 592.675 710.271 592.675ZM728.361 596.293C723.264 596.293 720.715 593.495 720.715 587.899C720.715 585.116 721.408 582.992 722.795 581.527C724.182 580.053 726.169 579.315 728.757 579.315C730.651 579.315 732.351 579.687 733.854 580.429L732.536 583.886C731.833 583.603 731.179 583.373 730.573 583.197C729.968 583.012 729.362 582.919 728.757 582.919C726.433 582.919 725.271 584.569 725.271 587.87C725.271 591.073 726.433 592.675 728.757 592.675C729.616 592.675 730.412 592.562 731.145 592.338C731.877 592.104 732.609 591.742 733.342 591.254V595.077C732.619 595.536 731.887 595.854 731.145 596.029C730.412 596.205 729.484 596.293 728.361 596.293ZM750.7 579.623V582.978H745.339V596H740.871V582.978H735.495V579.623H750.7ZM768.879 583.915C768.879 584.794 768.601 585.546 768.044 586.171C767.497 586.786 766.687 587.182 765.612 587.357V587.475C766.774 587.611 767.692 588.012 768.366 588.676C769.05 589.33 769.392 590.141 769.392 591.107C769.392 592.699 768.767 593.915 767.517 594.755C766.267 595.585 764.479 596 762.155 596H753.762V579.623H762.155C764.401 579.623 766.081 579.989 767.194 580.722C768.317 581.444 768.879 582.509 768.879 583.915ZM764.763 590.873C764.763 590.229 764.514 589.765 764.016 589.481C763.518 589.188 762.771 589.042 761.774 589.042H758.229V592.909H761.862C762.81 592.909 763.527 592.733 764.016 592.382C764.514 592.021 764.763 591.518 764.763 590.873ZM764.353 584.267C764.353 583.271 763.562 582.772 761.979 582.772H758.229V586.01H761.467C762.414 586.01 763.132 585.873 763.62 585.6C764.108 585.326 764.353 584.882 764.353 584.267ZM779.733 582.494C778.786 582.494 778.044 582.797 777.507 583.402C776.97 583.998 776.662 584.848 776.584 585.951H782.854C782.834 584.848 782.546 583.998 781.989 583.402C781.433 582.797 780.681 582.494 779.733 582.494ZM780.363 596.293C777.727 596.293 775.666 595.565 774.182 594.11C772.697 592.655 771.955 590.595 771.955 587.929C771.955 585.185 772.639 583.065 774.006 581.571C775.383 580.067 777.282 579.315 779.704 579.315C782.019 579.315 783.82 579.975 785.109 581.293C786.398 582.611 787.043 584.433 787.043 586.757V588.925H776.481C776.53 590.194 776.906 591.186 777.609 591.898C778.312 592.611 779.299 592.968 780.568 592.968C781.555 592.968 782.487 592.865 783.366 592.66C784.245 592.455 785.163 592.128 786.12 591.679V595.136C785.339 595.526 784.504 595.814 783.615 596C782.727 596.195 781.643 596.293 780.363 596.293ZM795.144 579.623V585.922H801.384V579.623H805.852V596H801.384V589.247H795.144V596H790.676V579.623H795.144ZM815.007 579.623V585.922H821.247V579.623H825.715V596H821.247V589.247H815.007V596H810.539V579.623H815.007ZM834.87 585.951H837.023C839.523 585.951 841.374 586.352 842.575 587.152C843.776 587.953 844.377 589.164 844.377 590.785C844.377 592.514 843.776 593.817 842.575 594.696C841.374 595.565 839.577 596 837.185 596H830.402V579.623H834.87V585.951ZM839.909 590.844C839.909 590.209 839.655 589.75 839.147 589.467C838.64 589.184 837.883 589.042 836.877 589.042H834.87V592.909H836.936C838.918 592.909 839.909 592.221 839.909 590.844ZM851.218 596H846.75V579.623H851.218V596ZM862.702 582.494C861.755 582.494 861.013 582.797 860.476 583.402C859.938 583.998 859.631 584.848 859.553 585.951H865.822C865.803 584.848 865.515 583.998 864.958 583.402C864.401 582.797 863.649 582.494 862.702 582.494ZM863.332 596.293C860.695 596.293 858.635 595.565 857.15 594.11C855.666 592.655 854.924 590.595 854.924 587.929C854.924 585.185 855.607 583.065 856.975 581.571C858.352 580.067 860.251 579.315 862.673 579.315C864.987 579.315 866.789 579.975 868.078 581.293C869.367 582.611 870.012 584.433 870.012 586.757V588.925H859.45C859.499 590.194 859.875 591.186 860.578 591.898C861.281 592.611 862.268 592.968 863.537 592.968C864.523 592.968 865.456 592.865 866.335 592.66C867.214 592.455 868.132 592.128 869.089 591.679V595.136C868.308 595.526 867.473 595.814 866.584 596C865.695 596.195 864.611 596.293 863.332 596.293Z" fill="white"/>
<path d="M634.31 571.519H596.437C595.985 571.607 595.519 571.593 595.072 571.479C594.626 571.366 594.21 571.155 593.854 570.862C593.499 570.568 593.213 570.2 593.017 569.784C592.82 569.367 592.718 568.912 592.719 568.452V568.392L632.747 566.834V563.116C632.813 562.562 632.751 562 632.567 561.472C632.383 560.945 632.082 560.466 631.686 560.073C631.29 559.679 630.809 559.38 630.281 559.199C629.752 559.018 629.189 558.959 628.635 559.028L593.093 564.803C591.894 565.246 590.859 566.045 590.127 567.093C589.395 568.141 589.002 569.388 589 570.666V604.315C589 605.557 589.494 606.749 590.373 607.628C591.252 608.506 592.444 609 593.687 609H634.31C635.553 609 636.745 608.506 637.624 607.628C638.503 606.749 638.997 605.557 638.997 604.315V576.17L639 576.042C639 574.841 638.523 573.689 637.673 572.839C636.823 571.99 635.671 571.513 634.469 571.513L634.303 571.516L634.31 571.519ZM629.622 593.385C628.379 593.384 627.186 592.89 626.307 592.011C625.428 591.132 624.935 589.939 624.935 588.696C624.936 587.453 625.43 586.261 626.31 585.382C627.189 584.504 628.382 584.01 629.626 584.011C630.241 584.011 630.851 584.132 631.42 584.368C631.989 584.604 632.505 584.949 632.941 585.385C633.376 585.82 633.721 586.337 633.956 586.906C634.192 587.474 634.313 588.084 634.313 588.699C634.313 589.315 634.191 589.924 633.955 590.493C633.719 591.061 633.374 591.578 632.938 592.013C632.503 592.448 631.986 592.793 631.417 593.029C630.848 593.264 630.238 593.385 629.622 593.385Z" fill="white"/>
<path d="M1183.22 702.168C1183.22 717.129 1180.76 728.203 1175.84 735.391C1170.95 742.578 1163.41 746.172 1153.22 746.172C1143.34 746.172 1135.88 742.461 1130.84 735.039C1125.84 727.617 1123.34 716.66 1123.34 702.168C1123.34 687.051 1125.78 675.918 1130.66 668.77C1135.54 661.582 1143.06 657.988 1153.22 657.988C1163.1 657.988 1170.56 661.738 1175.6 669.238C1180.68 676.738 1183.22 687.715 1183.22 702.168ZM1141.32 702.168C1141.32 712.676 1142.22 720.215 1144.02 724.785C1145.86 729.316 1148.92 731.582 1153.22 731.582C1157.44 731.582 1160.48 729.277 1162.36 724.668C1164.23 720.059 1165.17 712.559 1165.17 702.168C1165.17 691.66 1164.21 684.121 1162.3 679.551C1160.43 674.941 1157.4 672.637 1153.22 672.637C1148.96 672.637 1145.91 674.941 1144.08 679.551C1142.24 684.121 1141.32 691.66 1141.32 702.168ZM1214.45 732.402C1212.42 740.293 1208.98 749.648 1204.14 760.469H1191.25C1193.79 750.078 1195.76 740.273 1197.16 731.055H1213.57L1214.45 732.402ZM1258.34 690.273C1266.62 690.273 1273.2 692.598 1278.08 697.246C1283 701.895 1285.46 708.262 1285.46 716.348C1285.46 725.918 1282.52 733.281 1276.62 738.438C1270.72 743.594 1262.28 746.172 1251.3 746.172C1241.77 746.172 1234.08 744.629 1228.22 741.543V725.898C1231.3 727.539 1234.9 728.887 1239 729.941C1243.1 730.957 1246.99 731.465 1250.66 731.465C1261.71 731.465 1267.24 726.934 1267.24 717.871C1267.24 709.238 1261.52 704.922 1250.07 704.922C1248 704.922 1245.72 705.137 1243.22 705.566C1240.72 705.957 1238.69 706.387 1237.12 706.855L1229.92 702.988L1233.14 659.336H1279.61V674.688H1249.02L1247.44 691.504L1249.49 691.094C1251.87 690.547 1254.82 690.273 1258.34 690.273ZM1304.21 745L1336.38 674.688H1294.14V659.453H1355.6V670.82L1323.2 745H1304.21ZM1377.93 685C1377.93 689.961 1378.36 693.672 1379.21 696.133C1380.11 698.555 1381.54 699.766 1383.49 699.766C1387.24 699.766 1389.12 694.844 1389.12 685C1389.12 675.234 1387.24 670.352 1383.49 670.352C1381.54 670.352 1380.11 671.562 1379.21 673.984C1378.36 676.367 1377.93 680.039 1377.93 685ZM1403.88 684.883C1403.88 693.867 1402.14 700.625 1398.67 705.156C1395.19 709.648 1390.09 711.895 1383.38 711.895C1376.93 711.895 1371.95 709.59 1368.43 704.98C1364.92 700.332 1363.16 693.633 1363.16 684.883C1363.16 667.031 1369.9 658.105 1383.38 658.105C1389.98 658.105 1395.04 660.43 1398.55 665.078C1402.11 669.688 1403.88 676.289 1403.88 684.883ZM1444.2 659.336L1396.68 745H1382.61L1430.13 659.336H1444.2ZM1437.93 719.219C1437.93 724.18 1438.36 727.891 1439.21 730.352C1440.11 732.773 1441.54 733.984 1443.49 733.984C1447.24 733.984 1449.12 729.062 1449.12 719.219C1449.12 709.453 1447.24 704.57 1443.49 704.57C1441.54 704.57 1440.11 705.781 1439.21 708.203C1438.36 710.586 1437.93 714.258 1437.93 719.219ZM1463.88 719.102C1463.88 728.047 1462.14 734.785 1458.67 739.316C1455.19 743.809 1450.09 746.055 1443.38 746.055C1436.93 746.055 1431.95 743.75 1428.43 739.141C1424.92 734.492 1423.16 727.812 1423.16 719.102C1423.16 701.25 1429.9 692.324 1443.38 692.324C1449.98 692.324 1455.04 694.648 1458.55 699.297C1462.11 703.906 1463.88 710.508 1463.88 719.102Z" fill="#01F859"/>
<path d="M1209.24 578.802H1211.02C1213.82 578.802 1215.97 579.368 1217.5 580.501C1219.02 581.634 1219.78 583.235 1219.78 585.306C1219.78 589.769 1216.83 592 1210.94 592H1204.7V570.584H1218.23V574.334H1209.24V578.802ZM1209.24 588.279H1210.76C1212.29 588.279 1213.42 588.035 1214.13 587.547C1214.84 587.049 1215.2 586.302 1215.2 585.306C1215.2 584.319 1214.84 583.611 1214.11 583.182C1213.39 582.742 1212.15 582.522 1210.39 582.522H1209.24V588.279ZM1246.12 583.782C1246.12 586.468 1245.44 588.558 1244.08 590.052C1242.73 591.546 1240.85 592.293 1238.45 592.293C1236.29 592.293 1234.56 591.688 1233.26 590.477C1231.97 589.266 1231.19 587.522 1230.92 585.247H1227.97V592H1223.5V575.623H1227.97V581.922H1230.97C1231.26 579.832 1232.06 578.211 1233.39 577.059C1234.73 575.896 1236.44 575.315 1238.53 575.315C1240.85 575.315 1242.69 576.077 1244.06 577.601C1245.43 579.114 1246.12 581.175 1246.12 583.782ZM1235.41 583.782C1235.41 585.413 1235.65 586.644 1236.13 587.474C1236.61 588.294 1237.4 588.704 1238.5 588.704C1239.59 588.704 1240.37 588.294 1240.85 587.474C1241.33 586.644 1241.57 585.413 1241.57 583.782C1241.57 582.151 1241.32 580.936 1240.83 580.135C1240.35 579.324 1239.57 578.919 1238.47 578.919C1237.39 578.919 1236.61 579.324 1236.13 580.135C1235.65 580.945 1235.41 582.161 1235.41 583.782ZM1260.07 588.733V578.978H1256.71C1256.47 580.794 1256.13 582.518 1255.7 584.148C1255.28 585.779 1254.7 587.308 1253.94 588.733H1260.07ZM1266.94 597.874H1262.92V592H1251.91V597.874H1247.89V588.733H1249.27C1250.21 587.278 1250.99 585.442 1251.63 583.226C1252.26 581.009 1252.71 578.475 1252.96 575.623H1264.53V588.733H1266.94V597.874ZM1278.41 583.577V575.623H1282.57V583.577L1288.4 575.623H1293.01L1286.98 583.475L1293.58 592H1288.81L1282.57 583.694V592H1278.41V583.694L1272.17 592H1267.39L1274 583.475L1267.96 575.623H1272.58L1278.41 583.577ZM1302.71 578.494C1301.76 578.494 1301.02 578.797 1300.48 579.402C1299.94 579.998 1299.64 580.848 1299.56 581.951H1305.83C1305.81 580.848 1305.52 579.998 1304.96 579.402C1304.41 578.797 1303.66 578.494 1302.71 578.494ZM1303.34 592.293C1300.7 592.293 1298.64 591.565 1297.16 590.11C1295.67 588.655 1294.93 586.595 1294.93 583.929C1294.93 581.185 1295.61 579.065 1296.98 577.571C1298.36 576.067 1300.26 575.315 1302.68 575.315C1304.99 575.315 1306.79 575.975 1308.08 577.293C1309.37 578.611 1310.02 580.433 1310.02 582.757V584.925H1299.46C1299.5 586.194 1299.88 587.186 1300.58 587.898C1301.29 588.611 1302.27 588.968 1303.54 588.968C1304.53 588.968 1305.46 588.865 1306.34 588.66C1307.22 588.455 1308.14 588.128 1309.09 587.679V591.136C1308.31 591.526 1307.48 591.814 1306.59 592C1305.7 592.195 1304.62 592.293 1303.34 592.293ZM1327.2 575.623V578.978H1321.84V592H1317.37V578.978H1312V575.623H1327.2ZM1334.73 575.623V581.922H1340.97V575.623H1345.44V592H1340.97V585.247H1334.73V592H1330.26V575.623H1334.73ZM1354.59 581.951H1356.75C1359.25 581.951 1361.1 582.352 1362.3 583.152C1363.5 583.953 1364.1 585.164 1364.1 586.785C1364.1 588.514 1363.5 589.817 1362.3 590.696C1361.1 591.565 1359.3 592 1356.91 592H1350.12V575.623H1354.59V581.951ZM1359.63 586.844C1359.63 586.209 1359.38 585.75 1358.87 585.467C1358.36 585.184 1357.61 585.042 1356.6 585.042H1354.59V588.909H1356.66C1358.64 588.909 1359.63 588.221 1359.63 586.844ZM1370.94 592H1366.47V575.623H1370.94V592ZM1382.42 578.494C1381.48 578.494 1380.74 578.797 1380.2 579.402C1379.66 579.998 1379.35 580.848 1379.28 581.951H1385.54C1385.53 580.848 1385.24 579.998 1384.68 579.402C1384.12 578.797 1383.37 578.494 1382.42 578.494ZM1383.05 592.293C1380.42 592.293 1378.36 591.565 1376.87 590.11C1375.39 588.655 1374.65 586.595 1374.65 583.929C1374.65 581.185 1375.33 579.065 1376.7 577.571C1378.07 576.067 1379.97 575.315 1382.4 575.315C1384.71 575.315 1386.51 575.975 1387.8 577.293C1389.09 578.611 1389.73 580.433 1389.73 582.757V584.925H1379.17C1379.22 586.194 1379.6 587.186 1380.3 587.898C1381 588.611 1381.99 588.968 1383.26 588.968C1384.25 588.968 1385.18 588.865 1386.06 588.66C1386.94 588.455 1387.85 588.128 1388.81 587.679V591.136C1388.03 591.526 1387.2 591.814 1386.31 592C1385.42 592.195 1384.33 592.293 1383.05 592.293Z" fill="white"/>
<path d="M1121.68 598.667V569.333H1119V564H1127.05V558.667C1127.05 557.959 1127.33 557.281 1127.83 556.781C1128.33 556.281 1129.02 556 1129.73 556H1167.27C1167.98 556 1168.67 556.281 1169.17 556.781C1169.67 557.281 1169.95 557.959 1169.95 558.667V564H1178V569.333H1175.32V598.667H1178V604H1119V598.667H1121.68ZM1151.18 598.667V580H1145.82V598.667H1151.18ZM1137.77 598.667V580H1132.41V598.667H1137.77ZM1164.59 598.667V580H1159.23V598.667H1164.59ZM1132.41 561.333V564H1164.59V561.333H1132.41Z" fill="white"/>
<path d="M94.9766 690.273C103.258 690.273 109.84 692.598 114.723 697.246C119.645 701.895 122.105 708.262 122.105 716.348C122.105 725.918 119.156 733.281 113.258 738.438C107.359 743.594 98.9219 746.172 87.9453 746.172C78.4141 746.172 70.7188 744.629 64.8594 741.543V725.898C67.9453 727.539 71.5391 728.887 75.6406 729.941C79.7422 730.957 83.6289 731.465 87.3008 731.465C98.3555 731.465 103.883 726.934 103.883 717.871C103.883 709.238 98.1602 704.922 86.7148 704.922C84.6445 704.922 82.3594 705.137 79.8594 705.566C77.3594 705.957 75.3281 706.387 73.7656 706.855L66.5586 702.988L69.7812 659.336H116.246V674.688H85.6602L84.0781 691.504L86.1289 691.094C88.5117 690.547 91.4609 690.273 94.9766 690.273ZM191.773 702.168C191.773 717.129 189.312 728.203 184.391 735.391C179.508 742.578 171.969 746.172 161.773 746.172C151.891 746.172 144.43 742.461 139.391 735.039C134.391 727.617 131.891 716.66 131.891 702.168C131.891 687.051 134.332 675.918 139.215 668.77C144.098 661.582 151.617 657.988 161.773 657.988C171.656 657.988 179.117 661.738 184.156 669.238C189.234 676.738 191.773 687.715 191.773 702.168ZM149.879 702.168C149.879 712.676 150.777 720.215 152.574 724.785C154.41 729.316 157.477 731.582 161.773 731.582C165.992 731.582 169.039 729.277 170.914 724.668C172.789 720.059 173.727 712.559 173.727 702.168C173.727 691.66 172.77 684.121 170.855 679.551C168.98 674.941 165.953 672.637 161.773 672.637C157.516 672.637 154.469 674.941 152.633 679.551C150.797 684.121 149.879 691.66 149.879 702.168ZM223.004 732.402C220.973 740.293 217.535 749.648 212.691 760.469H199.801C202.34 750.078 204.312 740.273 205.719 731.055H222.125L223.004 732.402ZM292.262 678.496C292.262 683.848 290.641 688.398 287.398 692.148C284.156 695.898 279.605 698.477 273.746 699.883V700.234C280.66 701.094 285.895 703.203 289.449 706.562C293.004 709.883 294.781 714.375 294.781 720.039C294.781 728.281 291.793 734.707 285.816 739.316C279.84 743.887 271.305 746.172 260.211 746.172C250.914 746.172 242.672 744.629 235.484 741.543V726.133C238.805 727.812 242.457 729.18 246.441 730.234C250.426 731.289 254.371 731.816 258.277 731.816C264.254 731.816 268.668 730.801 271.52 728.77C274.371 726.738 275.797 723.477 275.797 718.984C275.797 714.961 274.156 712.109 270.875 710.43C267.594 708.75 262.359 707.91 255.172 707.91H248.668V694.023H255.289C261.93 694.023 266.773 693.164 269.82 691.445C272.906 689.688 274.449 686.699 274.449 682.48C274.449 675.996 270.387 672.754 262.262 672.754C259.449 672.754 256.578 673.223 253.648 674.16C250.758 675.098 247.535 676.719 243.98 679.023L235.602 666.543C243.414 660.918 252.73 658.105 263.551 658.105C272.418 658.105 279.41 659.902 284.527 663.496C289.684 667.09 292.262 672.09 292.262 678.496ZM349.039 745H330.934V695.43L331.109 687.285L331.402 678.379C328.395 681.387 326.305 683.359 325.133 684.297L315.289 692.207L306.559 681.309L334.156 659.336H349.039V745ZM386.48 685C386.48 689.961 386.91 693.672 387.77 696.133C388.668 698.555 390.094 699.766 392.047 699.766C395.797 699.766 397.672 694.844 397.672 685C397.672 675.234 395.797 670.352 392.047 670.352C390.094 670.352 388.668 671.562 387.77 673.984C386.91 676.367 386.48 680.039 386.48 685ZM412.438 684.883C412.438 693.867 410.699 700.625 407.223 705.156C403.746 709.648 398.648 711.895 391.93 711.895C385.484 711.895 380.504 709.59 376.988 704.98C373.473 700.332 371.715 693.633 371.715 684.883C371.715 667.031 378.453 658.105 391.93 658.105C398.531 658.105 403.59 660.43 407.105 665.078C410.66 669.688 412.438 676.289 412.438 684.883ZM452.75 659.336L405.23 745H391.168L438.688 659.336H452.75ZM446.48 719.219C446.48 724.18 446.91 727.891 447.77 730.352C448.668 732.773 450.094 733.984 452.047 733.984C455.797 733.984 457.672 729.062 457.672 719.219C457.672 709.453 455.797 704.57 452.047 704.57C450.094 704.57 448.668 705.781 447.77 708.203C446.91 710.586 446.48 714.258 446.48 719.219ZM472.438 719.102C472.438 728.047 470.699 734.785 467.223 739.316C463.746 743.809 458.648 746.055 451.93 746.055C445.484 746.055 440.504 743.75 436.988 739.141C433.473 734.492 431.715 727.812 431.715 719.102C431.715 701.25 438.453 692.324 451.93 692.324C458.531 692.324 463.59 694.648 467.105 699.297C470.66 703.906 472.438 710.508 472.438 719.102Z" fill="#01F859"/>
<path d="M144.644 592H140.117V574.363H132.236V592H127.695V570.584H144.644V592ZM158.691 592.293C156.768 592.293 155.259 591.595 154.165 590.198H153.931C154.087 591.565 154.165 592.356 154.165 592.571V599.207H149.697V575.623H153.33L153.96 577.747H154.165C155.21 576.126 156.758 575.315 158.809 575.315C160.742 575.315 162.256 576.062 163.35 577.557C164.443 579.051 164.99 581.126 164.99 583.782C164.99 585.53 164.731 587.049 164.214 588.338C163.706 589.627 162.979 590.608 162.031 591.282C161.084 591.956 159.971 592.293 158.691 592.293ZM157.373 578.89C156.27 578.89 155.464 579.231 154.956 579.915C154.448 580.589 154.185 581.707 154.165 583.27V583.753C154.165 585.511 154.424 586.771 154.941 587.532C155.469 588.294 156.299 588.675 157.432 588.675C159.434 588.675 160.435 587.024 160.435 583.724C160.435 582.112 160.186 580.906 159.688 580.105C159.199 579.295 158.428 578.89 157.373 578.89ZM173.003 575.623V582.098C173.003 582.781 172.891 584.451 172.666 587.107L180.225 575.623H185.601V592H181.279V585.467C181.279 584.305 181.377 582.664 181.572 580.545L174.043 592H168.682V575.623H173.003ZM205.42 579.915C205.42 580.794 205.142 581.546 204.585 582.171C204.038 582.786 203.228 583.182 202.153 583.357V583.475C203.315 583.611 204.233 584.012 204.907 584.676C205.591 585.33 205.933 586.141 205.933 587.107C205.933 588.699 205.308 589.915 204.058 590.755C202.808 591.585 201.021 592 198.696 592H190.303V575.623H198.696C200.942 575.623 202.622 575.989 203.735 576.722C204.858 577.444 205.42 578.509 205.42 579.915ZM201.304 586.873C201.304 586.229 201.055 585.765 200.557 585.481C200.059 585.188 199.312 585.042 198.315 585.042H194.771V588.909H198.403C199.351 588.909 200.068 588.733 200.557 588.382C201.055 588.021 201.304 587.518 201.304 586.873ZM200.894 580.267C200.894 579.271 200.103 578.772 198.521 578.772H194.771V582.01H198.008C198.955 582.01 199.673 581.873 200.161 581.6C200.649 581.326 200.894 580.882 200.894 580.267ZM224.155 592H219.688V578.978H215.571C215.259 582.64 214.878 585.374 214.429 587.181C213.979 588.978 213.379 590.281 212.627 591.092C211.885 591.893 210.908 592.293 209.697 592.293C208.662 592.293 207.812 592.137 207.148 591.824V588.25C207.627 588.445 208.105 588.543 208.584 588.543C209.141 588.543 209.604 588.143 209.976 587.342C210.356 586.541 210.693 585.208 210.986 583.343C211.289 581.468 211.548 578.895 211.763 575.623H224.155V592ZM235.64 578.494C234.692 578.494 233.95 578.797 233.413 579.402C232.876 579.998 232.568 580.848 232.49 581.951H238.76C238.74 580.848 238.452 579.998 237.896 579.402C237.339 578.797 236.587 578.494 235.64 578.494ZM236.27 592.293C233.633 592.293 231.572 591.565 230.088 590.11C228.604 588.655 227.861 586.595 227.861 583.929C227.861 581.185 228.545 579.065 229.912 577.571C231.289 576.067 233.188 575.315 235.61 575.315C237.925 575.315 239.727 575.975 241.016 577.293C242.305 578.611 242.949 580.433 242.949 582.757V584.925H232.388C232.437 586.194 232.812 587.186 233.516 587.898C234.219 588.611 235.205 588.968 236.475 588.968C237.461 588.968 238.394 588.865 239.272 588.66C240.151 588.455 241.069 588.128 242.026 587.679V591.136C241.245 591.526 240.41 591.814 239.521 592C238.633 592.195 237.549 592.293 236.27 592.293ZM250.508 575.623V581.614C250.508 583.04 251.167 583.753 252.485 583.753C253.345 583.753 254.141 583.655 254.873 583.46C255.615 583.265 256.362 583.011 257.114 582.698V575.623H261.582V592H257.114V585.496C256.079 586.043 255.117 586.429 254.229 586.653C253.34 586.878 252.48 586.99 251.65 586.99C249.863 586.99 248.481 586.536 247.505 585.628C246.528 584.71 246.04 583.406 246.04 581.717V575.623H250.508ZM273.052 578.494C272.104 578.494 271.362 578.797 270.825 579.402C270.288 579.998 269.98 580.848 269.902 581.951H276.172C276.152 580.848 275.864 579.998 275.308 579.402C274.751 578.797 273.999 578.494 273.052 578.494ZM273.682 592.293C271.045 592.293 268.984 591.565 267.5 590.11C266.016 588.655 265.273 586.595 265.273 583.929C265.273 581.185 265.957 579.065 267.324 577.571C268.701 576.067 270.601 575.315 273.022 575.315C275.337 575.315 277.139 575.975 278.428 577.293C279.717 578.611 280.361 580.433 280.361 582.757V584.925H269.8C269.849 586.194 270.225 587.186 270.928 587.898C271.631 588.611 272.617 588.968 273.887 588.968C274.873 588.968 275.806 588.865 276.685 588.66C277.563 588.455 278.481 588.128 279.438 587.679V591.136C278.657 591.526 277.822 591.814 276.934 592C276.045 592.195 274.961 592.293 273.682 592.293ZM268.042 571.419C268.042 570.784 268.223 570.296 268.584 569.954C268.955 569.612 269.453 569.441 270.078 569.441C270.723 569.441 271.226 569.622 271.587 569.983C271.958 570.345 272.144 570.823 272.144 571.419C272.144 572.005 271.958 572.479 271.587 572.84C271.216 573.191 270.713 573.367 270.078 573.367C269.453 573.367 268.955 573.196 268.584 572.854C268.223 572.513 268.042 572.034 268.042 571.419ZM273.945 571.419C273.945 570.735 274.141 570.237 274.531 569.925C274.932 569.603 275.425 569.441 276.011 569.441C276.646 569.441 277.148 569.617 277.52 569.969C277.9 570.32 278.091 570.804 278.091 571.419C278.091 572.015 277.9 572.488 277.52 572.84C277.139 573.191 276.636 573.367 276.011 573.367C275.425 573.367 274.932 573.211 274.531 572.898C274.141 572.576 273.945 572.083 273.945 571.419ZM288.462 575.623V581.922H294.702V575.623H299.17V592H294.702V585.247H288.462V592H283.994V575.623H288.462ZM308.325 575.623V581.922H314.565V575.623H319.033V592H314.565V585.247H308.325V592H303.857V575.623H308.325ZM328.188 581.951H330.342C332.842 581.951 334.692 582.352 335.894 583.152C337.095 583.953 337.695 585.164 337.695 586.785C337.695 588.514 337.095 589.817 335.894 590.696C334.692 591.565 332.896 592 330.503 592H323.721V575.623H328.188V581.951ZM333.228 586.844C333.228 586.209 332.974 585.75 332.466 585.467C331.958 585.184 331.201 585.042 330.195 585.042H328.188V588.909H330.254C332.236 588.909 333.228 588.221 333.228 586.844ZM344.536 592H340.068V575.623H344.536V592ZM356.021 578.494C355.073 578.494 354.331 578.797 353.794 579.402C353.257 579.998 352.949 580.848 352.871 581.951H359.141C359.121 580.848 358.833 579.998 358.276 579.402C357.72 578.797 356.968 578.494 356.021 578.494ZM356.65 592.293C354.014 592.293 351.953 591.565 350.469 590.11C348.984 588.655 348.242 586.595 348.242 583.929C348.242 581.185 348.926 579.065 350.293 577.571C351.67 576.067 353.569 575.315 355.991 575.315C358.306 575.315 360.107 575.975 361.396 577.293C362.686 578.611 363.33 580.433 363.33 582.757V584.925H352.769C352.817 586.194 353.193 587.186 353.896 587.898C354.6 588.611 355.586 588.968 356.855 588.968C357.842 588.968 358.774 588.865 359.653 588.66C360.532 588.455 361.45 588.128 362.407 587.679V591.136C361.626 591.526 360.791 591.814 359.902 592C359.014 592.195 357.93 592.293 356.65 592.293Z" fill="white"/>
<path d="M80 577.461C86.1936 577.461 91.2326 572.423 91.2326 566.23C91.2326 560.038 86.1936 555 80 555C73.8064 555 68.7674 560.038 68.7674 566.23C68.7674 572.423 73.8064 577.461 80 577.461Z" fill="white"/>
<path d="M85.3278 577.461H84.3953V584.64L86.3202 594.264C86.4251 594.788 86.2359 595.328 85.8261 595.672L80.9424 599.774C80.67 600.003 80.335 600.117 80 600.117C79.665 600.117 79.33 600.003 79.0576 599.774L74.1739 595.672C73.7641 595.328 73.5749 594.788 73.6794 594.264L75.6047 584.64V577.461H74.6722C66.0307 577.461 59 585.127 59 594.551V603.535C59 604.344 59.6559 605 60.4651 605H99.5349C100.344 605 101 604.344 101 603.535V594.551C101 585.127 93.9693 577.461 85.3278 577.461Z" fill="white"/>
<path d="M76.7229 593.987L80 596.739L83.2771 593.987L81.7291 586.25H78.2709L76.7229 593.987Z" fill="white"/>
<path d="M78.5349 580.391H81.4651V583.32H78.5349V580.391Z" fill="white"/>
<path d="M1060 894C1060 100.591 1060 1227.41 1060 434" stroke="#275D81" stroke-width="2"/>
<path d="M530 894C530 100.591 530 1227.41 530 434" stroke="#275D81" stroke-width="2"/>
</svg>
