<svg width="68" height="90" viewBox="0 0 68 90" fill="none" xmlns="http://www.w3.org/2000/svg">
<path d="M34.2404 14.0383C23.3836 14.0383 14.5723 22.807 14.5723 33.6174C14.5723 44.4278 23.4098 53.2489 34.2404 53.2489C45.071 53.2489 53.9086 44.4278 53.9086 33.6174C53.9086 22.807 45.071 14.0383 34.2404 14.0383Z" fill="#01F859"/>
<path d="M66.3491 23.1551C63.2112 13.0147 54.9306 4.77018 44.7848 1.62196C34.0288 -1.70019 22.5754 0.143519 13.8416 6.57909C5.17753 12.9451 0 23.1551 0 33.8868C0 41.2964 2.35342 48.3234 6.78134 54.2198L34.0113 89.0588L61.2239 54.2371C67.8657 45.4013 69.731 34.0607 66.3491 23.1551ZM34.0113 52.1673C23.9178 52.1673 15.7069 43.975 15.7069 33.9042C15.7069 23.8334 23.9178 15.6411 34.0113 15.6411C44.1049 15.6411 52.3157 23.8334 52.3157 33.9042C52.3157 43.975 44.1049 52.1673 34.0113 52.1673Z" fill="#00092E"/>
</svg>
