<svg width="126" height="165" viewBox="0 0 126 165" fill="none" xmlns="http://www.w3.org/2000/svg">
<g clip-path="url(#clip0)">
<path d="M63.4412 26C43.3257 26 27 42.2467 27 62.2761C27 82.3056 43.3742 98.6493 63.4412 98.6493C83.5081 98.6493 99.8824 82.3056 99.8824 62.2761C99.8824 42.2467 83.5081 26 63.4412 26Z" fill="#01F859"/>
<path d="M122.932 42.8915C117.118 24.1034 101.775 8.82805 82.9772 2.99504C63.0485 -3.16024 41.8277 0.255781 25.6457 12.1796C9.59293 23.9745 0 42.8915 0 62.7753C0 76.5038 4.36042 89.5234 12.5645 100.448L63.0162 164.998L113.436 100.48C125.742 84.1093 129.198 63.0976 122.932 42.8915ZM63.0162 96.6454C44.3148 96.6454 29.1018 81.4667 29.1018 62.8075C29.1018 44.1484 44.3148 28.9697 63.0162 28.9697C81.7175 28.9697 96.9305 44.1484 96.9305 62.8075C96.9305 81.4667 81.7175 96.6454 63.0162 96.6454Z" fill="#00092E"/>
</g>
<defs>
<clipPath id="clip0">
<rect width="126" height="165" fill="white"/>
</clipPath>
</defs>
</svg>
