<svg width="42" height="55" viewBox="0 0 42 55" fill="none" xmlns="http://www.w3.org/2000/svg">
<g clip-path="url(#clip0)">
<path d="M21.1471 8.66666C14.4419 8.66666 9 14.0822 9 20.7587C9 27.4352 14.4581 32.8831 21.1471 32.8831C27.836 32.8831 33.2941 27.4352 33.2941 20.7587C33.2941 14.0822 27.836 8.66666 21.1471 8.66666Z" fill="#01F859"/>
<path d="M40.9772 14.2959C39.0392 8.03322 33.9252 2.94142 27.6591 0.997085C21.0162 -1.05467 13.9426 0.0839988 8.54858 4.05861C3.19764 7.99025 0 14.2959 0 20.9238C0 25.5 1.45347 29.8399 4.18816 33.4815L21.0054 54.9981L37.8119 33.4922C41.9139 28.0352 43.0659 21.0313 40.9772 14.2959ZM21.0054 32.2139C14.7716 32.2139 9.70059 27.1543 9.70059 20.9346C9.70059 14.7149 14.7716 9.65529 21.0054 9.65529C27.2392 9.65529 32.3102 14.7149 32.3102 20.9346C32.3102 27.1543 27.2392 32.2139 21.0054 32.2139Z" fill="#00092E"/>
</g>
<defs>
<clipPath id="clip0">
<rect width="42" height="55" fill="white"/>
</clipPath>
</defs>
</svg>
