<svg width="883" height="230" viewBox="0 0 883 230" fill="none" xmlns="http://www.w3.org/2000/svg">
<g filter="url(#filter0_b)">
<rect width="882.824" height="229.487" fill="#8222FC"/>
</g>
<path d="M306.346 68.876V74.501H292.854V101H286.043V68.876H306.346ZM316.124 88.6733C316.124 91.105 316.519 92.9434 317.31 94.1885C318.116 95.4336 319.419 96.0562 321.221 96.0562C323.008 96.0562 324.29 95.4409 325.066 94.2104C325.857 92.9653 326.253 91.1196 326.253 88.6733C326.253 86.2417 325.857 84.418 325.066 83.2021C324.275 81.9863 322.979 81.3784 321.177 81.3784C319.39 81.3784 318.101 81.9863 317.31 83.2021C316.519 84.4033 316.124 86.2271 316.124 88.6733ZM333.108 88.6733C333.108 92.6724 332.054 95.7998 329.944 98.0557C327.835 100.312 324.898 101.439 321.133 101.439C318.775 101.439 316.695 100.927 314.893 99.9014C313.091 98.8613 311.707 97.3745 310.74 95.4409C309.773 93.5073 309.29 91.2515 309.29 88.6733C309.29 84.6597 310.337 81.5396 312.432 79.313C314.527 77.0864 317.471 75.9731 321.265 75.9731C323.624 75.9731 325.704 76.4858 327.505 77.5112C329.307 78.5366 330.691 80.0088 331.658 81.9277C332.625 83.8467 333.108 86.0952 333.108 88.6733ZM348.621 101.439C340.975 101.439 337.151 97.2427 337.151 88.8491C337.151 84.6743 338.191 81.4883 340.271 79.291C342.352 77.0791 345.333 75.9731 349.214 75.9731C352.056 75.9731 354.605 76.5298 356.861 77.6431L354.883 82.8286C353.829 82.4038 352.847 82.0596 351.939 81.7959C351.031 81.5176 350.123 81.3784 349.214 81.3784C345.728 81.3784 343.985 83.854 343.985 88.8052C343.985 93.6099 345.728 96.0122 349.214 96.0122C350.503 96.0122 351.697 95.8438 352.796 95.5068C353.895 95.1553 354.993 94.6133 356.092 93.8809V99.6157C355.008 100.304 353.909 100.78 352.796 101.044C351.697 101.308 350.306 101.439 348.621 101.439ZM358.289 76.4346H365.628L370.264 90.2554C370.66 91.4565 370.931 92.8774 371.077 94.5181H371.209C371.37 93.0093 371.685 91.5884 372.154 90.2554L376.702 76.4346H383.887L373.494 104.142C372.542 106.706 371.18 108.625 369.407 109.899C367.649 111.173 365.591 111.811 363.233 111.811C362.076 111.811 360.94 111.686 359.827 111.437V106.12C360.633 106.31 361.512 106.405 362.464 106.405C363.65 106.405 364.683 106.039 365.562 105.307C366.456 104.589 367.151 103.498 367.649 102.033L368.045 100.824L358.289 76.4346ZM397.4 101.439C389.754 101.439 385.931 97.2427 385.931 88.8491C385.931 84.6743 386.971 81.4883 389.051 79.291C391.131 77.0791 394.112 75.9731 397.994 75.9731C400.835 75.9731 403.384 76.5298 405.64 77.6431L403.663 82.8286C402.608 82.4038 401.626 82.0596 400.718 81.7959C399.81 81.5176 398.902 81.3784 397.994 81.3784C394.507 81.3784 392.764 83.854 392.764 88.8052C392.764 93.6099 394.507 96.0122 397.994 96.0122C399.283 96.0122 400.477 95.8438 401.575 95.5068C402.674 95.1553 403.772 94.6133 404.871 93.8809V99.6157C403.787 100.304 402.688 100.78 401.575 101.044C400.477 101.308 399.085 101.439 397.4 101.439ZM432.579 101H425.877V81.4663H419.703C419.234 86.9595 418.663 91.061 417.989 93.771C417.315 96.4663 416.414 98.4219 415.286 99.6377C414.173 100.839 412.708 101.439 410.892 101.439C409.339 101.439 408.064 101.205 407.068 100.736V95.375C407.786 95.668 408.504 95.8145 409.222 95.8145C410.057 95.8145 410.752 95.2139 411.309 94.0127C411.88 92.8115 412.386 90.812 412.825 88.0142C413.279 85.2017 413.667 81.3418 413.99 76.4346H432.579V101ZM436.116 76.4346H443.455L448.091 90.2554C448.487 91.4565 448.758 92.8774 448.904 94.5181H449.036C449.197 93.0093 449.512 91.5884 449.981 90.2554L454.529 76.4346H461.714L451.321 104.142C450.369 106.706 449.007 108.625 447.234 109.899C445.477 111.173 443.418 111.811 441.06 111.811C439.903 111.811 438.768 111.686 437.654 111.437V106.12C438.46 106.31 439.339 106.405 440.291 106.405C441.478 106.405 442.51 106.039 443.389 105.307C444.283 104.589 444.979 103.498 445.477 102.033L445.872 100.824L436.116 76.4346ZM482.215 76.4346V81.4663H471.954V101H465.252V76.4346H482.215ZM493.267 76.4346V86.1465C493.267 87.1719 493.099 89.6768 492.762 93.6611L504.1 76.4346H512.164V101H505.682V91.2002C505.682 89.457 505.828 86.9961 506.121 83.8174L494.827 101H486.785V76.4346H493.267ZM518.272 97.8579C518.272 96.6274 518.602 95.6973 519.261 95.0674C519.92 94.4375 520.879 94.1226 522.139 94.1226C523.355 94.1226 524.292 94.4448 524.952 95.0894C525.625 95.7339 525.962 96.6567 525.962 97.8579C525.962 99.0151 525.625 99.9307 524.952 100.604C524.278 101.264 523.34 101.593 522.139 101.593C520.909 101.593 519.957 101.271 519.283 100.626C518.609 99.9673 518.272 99.0444 518.272 97.8579ZM293.426 138.301L282.637 122.876H289.646L300.04 138.433V122.876H306.39V138.433L316.783 122.876H323.814L313.003 138.301L324.429 155H317.134L306.39 138.718V155H300.04V138.718L289.295 155H282L293.426 138.301ZM343.567 155L342.271 151.66H342.095C340.967 153.081 339.803 154.07 338.602 154.626C337.415 155.168 335.862 155.439 333.943 155.439C331.585 155.439 329.725 154.766 328.362 153.418C327.015 152.07 326.341 150.151 326.341 147.661C326.341 145.054 327.249 143.135 329.065 141.904C330.896 140.659 333.65 139.971 337.327 139.839L341.59 139.707V138.63C341.59 136.14 340.315 134.895 337.767 134.895C335.804 134.895 333.497 135.488 330.845 136.675L328.626 132.148C331.453 130.669 334.588 129.929 338.03 129.929C341.326 129.929 343.853 130.647 345.611 132.083C347.369 133.518 348.248 135.701 348.248 138.63V155H343.567ZM341.59 143.618L338.997 143.706C337.049 143.765 335.599 144.116 334.646 144.761C333.694 145.405 333.218 146.387 333.218 147.705C333.218 149.595 334.302 150.54 336.47 150.54C338.023 150.54 339.261 150.093 340.184 149.199C341.121 148.306 341.59 147.119 341.59 145.64V143.618ZM377.164 155H370.462V135.466H364.288C363.819 140.959 363.248 145.061 362.574 147.771C361.9 150.466 360.999 152.422 359.871 153.638C358.758 154.839 357.293 155.439 355.477 155.439C353.924 155.439 352.649 155.205 351.653 154.736V149.375C352.371 149.668 353.089 149.814 353.807 149.814C354.642 149.814 355.337 149.214 355.894 148.013C356.465 146.812 356.971 144.812 357.41 142.014C357.864 139.202 358.252 135.342 358.575 130.435H377.164V155ZM389.556 142.673C389.556 145.105 389.952 146.943 390.743 148.188C391.548 149.434 392.852 150.056 394.654 150.056C396.441 150.056 397.723 149.441 398.499 148.21C399.29 146.965 399.686 145.12 399.686 142.673C399.686 140.242 399.29 138.418 398.499 137.202C397.708 135.986 396.412 135.378 394.61 135.378C392.823 135.378 391.534 135.986 390.743 137.202C389.952 138.403 389.556 140.227 389.556 142.673ZM406.541 142.673C406.541 146.672 405.486 149.8 403.377 152.056C401.268 154.312 398.331 155.439 394.566 155.439C392.208 155.439 390.127 154.927 388.326 153.901C386.524 152.861 385.14 151.375 384.173 149.441C383.206 147.507 382.723 145.251 382.723 142.673C382.723 138.66 383.77 135.54 385.865 133.313C387.959 131.086 390.904 129.973 394.698 129.973C397.056 129.973 399.136 130.486 400.938 131.511C402.74 132.537 404.124 134.009 405.091 135.928C406.058 137.847 406.541 140.095 406.541 142.673ZM410.584 140.278C410.584 134.639 411.653 130.361 413.792 127.446C415.945 124.517 419.3 122.664 423.855 121.887C426.067 121.506 429.371 121.023 433.765 120.437L434.534 126.282C432.63 126.501 429.253 126.97 424.405 127.688C422.559 127.981 421.182 128.42 420.274 129.006C419.366 129.592 418.685 130.427 418.23 131.511C417.791 132.595 417.52 134.038 417.417 135.84H417.747C418.523 134.639 419.549 133.716 420.823 133.071C422.098 132.427 423.467 132.104 424.932 132.104C427.964 132.104 430.323 133.035 432.007 134.895C433.692 136.741 434.534 139.392 434.534 142.849C434.534 146.833 433.465 149.932 431.326 152.144C429.202 154.341 426.265 155.439 422.515 155.439C418.765 155.439 415.835 154.099 413.726 151.418C411.631 148.723 410.584 145.01 410.584 140.278ZM422.911 150.012C426.089 150.012 427.679 147.822 427.679 143.442C427.679 139.18 426.243 137.048 423.372 137.048C422.581 137.048 421.79 137.231 420.999 137.598C420.223 137.964 419.505 138.447 418.846 139.048C418.201 139.634 417.725 140.227 417.417 140.828C417.417 143.801 417.894 146.079 418.846 147.661C419.798 149.229 421.153 150.012 422.911 150.012ZM446.773 139.927H450.003C453.753 139.927 456.529 140.527 458.331 141.729C460.132 142.93 461.033 144.746 461.033 147.178C461.033 149.771 460.132 151.726 458.331 153.044C456.529 154.348 453.833 155 450.245 155H440.071V130.435H446.773V139.927ZM454.332 147.266C454.332 146.313 453.951 145.625 453.189 145.2C452.427 144.775 451.292 144.563 449.783 144.563H446.773V150.364H449.871C452.845 150.364 454.332 149.331 454.332 147.266ZM471.294 155H464.593V130.435H471.294V155Z" fill="white"/>
<g clip-path="url(#clip0)">
<path d="M141.621 97.537C139.393 97.7459 137.722 99.7307 137.931 101.959L139.289 116.41C139.393 117.699 140.402 118.743 141.725 118.848C143.222 118.987 144.544 117.908 144.683 116.41L146.041 101.959C146.075 101.716 146.075 101.437 146.041 101.193C145.832 98.9646 143.848 97.328 141.621 97.537ZM142.003 121.842C140.228 121.842 138.767 123.305 138.767 125.081C138.767 126.857 140.228 128.319 142.003 128.319C143.778 128.319 145.24 126.857 145.24 125.081C145.24 123.27 143.778 121.842 142.003 121.842ZM197.864 96.5271C197.864 87.1253 192.644 78.7681 188.293 75.2859C183.942 71.8037 165.844 60.3126 156.795 56.134C147.746 51.9554 136.261 51.9554 127.212 56.134C118.162 60.3126 100.064 71.8037 95.7137 75.2859C91.3632 78.7681 86.1426 87.1253 86.1426 96.5271C86.1426 105.929 85.4465 114.634 87.1867 135.702C88.2308 145.452 93.6603 151.754 95.5397 153.112C97.4191 154.47 114.682 167.389 129.3 173.483C138.697 178.184 145.31 178.184 154.707 173.483C169.325 167.389 185.23 155.515 188.467 153.112C191.704 150.71 195.776 145.452 196.82 135.702C198.56 114.634 197.864 105.929 197.864 96.5271ZM142.003 140.437C137.827 140.437 133.894 139.497 130.379 137.86C130.17 137.965 129.996 138.035 129.752 138.104L117.954 140.89C115.796 141.412 113.986 139.253 114.821 137.234L118.719 127.518C116.109 123.305 114.578 118.325 114.578 113.033C114.578 97.8852 126.864 85.5931 142.003 85.5931C157.143 85.5931 169.429 97.8852 169.429 113.033C169.429 128.18 157.143 140.437 142.003 140.437Z" fill="white"/>
</g>
<circle cx="796" cy="115" r="41" fill="white"/>
<path d="M790.143 97.4281L805.204 115.532L790.143 133.636" stroke="#8222FC" stroke-width="5"/>
<defs>
<filter id="filter0_b" x="-23.4171" y="-23.4171" width="929.658" height="276.322" filterUnits="userSpaceOnUse" color-interpolation-filters="sRGB">
<feFlood flood-opacity="0" result="BackgroundImageFix"/>
<feGaussianBlur in="BackgroundImage" stdDeviation="11.7085"/>
<feComposite in2="SourceAlpha" operator="in" result="effect1_backgroundBlur"/>
<feBlend mode="normal" in="SourceGraphic" in2="effect1_backgroundBlur" result="shape"/>
</filter>
<clipPath id="clip0">
<rect width="112" height="124" fill="white" transform="translate(86 53)"/>
</clipPath>
</defs>
</svg>
