<svg width="883" height="230" viewBox="0 0 883 230" fill="none" xmlns="http://www.w3.org/2000/svg">
<g filter="url(#filter0_b)">
<rect width="882.824" height="229.487" fill="#005AE0"/>
</g>
<path d="M286.043 68.876H292.173V84.3887L292.085 88.5415L291.866 93.2656H291.998L306.829 68.876H314.981V101H308.917V85.5752C308.917 83.5098 309.048 80.4482 309.312 76.3906H309.136L294.239 101H286.043V68.876ZM329.263 76.4346V85.8828H338.624V76.4346H345.325V101H338.624V90.8706H329.263V101H322.562V76.4346H329.263ZM375.582 96.1001H379.163V109.811H373.143V101H352.356V76.4346H359.058V95.9683H368.858V76.4346H375.582V96.1001ZM389.82 76.4346V86.1465C389.82 87.1719 389.651 89.6768 389.314 93.6611L400.652 76.4346H408.716V101H402.234V91.2002C402.234 89.457 402.381 86.9961 402.674 83.8174L391.38 101H383.338V76.4346H389.82ZM431.15 96.1001V81.4663H426.119C425.752 84.1909 425.247 86.7764 424.603 89.2227C423.973 91.6689 423.094 93.9614 421.966 96.1001H431.15ZM441.456 109.811H435.435V101H418.912V109.811H412.891V96.1001H414.957C416.363 93.9175 417.542 91.1636 418.494 87.8384C419.446 84.5132 420.113 80.7119 420.494 76.4346H437.852V96.1001H441.456V109.811ZM455.826 80.7412C454.405 80.7412 453.292 81.1953 452.486 82.1035C451.68 82.9971 451.219 84.2715 451.102 85.9268H460.506C460.477 84.2715 460.044 82.9971 459.209 82.1035C458.375 81.1953 457.247 80.7412 455.826 80.7412ZM456.771 101.439C452.815 101.439 449.725 100.348 447.498 98.1655C445.271 95.9829 444.158 92.8921 444.158 88.8931C444.158 84.7769 445.184 81.5981 447.234 79.3569C449.3 77.1011 452.149 75.9731 455.782 75.9731C459.253 75.9731 461.956 76.9619 463.89 78.9395C465.823 80.917 466.79 83.6489 466.79 87.1353V90.3872H450.948C451.021 92.2915 451.585 93.7783 452.64 94.8477C453.694 95.917 455.174 96.4517 457.078 96.4517C458.558 96.4517 459.957 96.2979 461.275 95.9902C462.593 95.6826 463.97 95.1919 465.406 94.5181V99.7036C464.234 100.29 462.981 100.722 461.648 101C460.315 101.293 458.689 101.439 456.771 101.439ZM478.941 76.4346V85.8828H488.301V76.4346H495.003V101H488.301V90.8706H478.941V101H472.239V76.4346H478.941ZM522.359 76.4346V81.4663H514.317V101H507.615V81.4663H499.551V76.4346H522.359ZM299.644 155L291.91 129.797H291.712C291.99 134.924 292.129 138.345 292.129 140.059V155H286.043V122.876H295.315L302.918 147.441H303.05L311.114 122.876H320.386V155H314.036V139.795C314.036 139.077 314.043 138.25 314.058 137.312C314.087 136.375 314.19 133.884 314.366 129.841H314.168L305.884 155H299.644ZM338.14 134.741C336.719 134.741 335.606 135.195 334.8 136.104C333.995 136.997 333.533 138.271 333.416 139.927H342.82C342.791 138.271 342.359 136.997 341.524 136.104C340.689 135.195 339.561 134.741 338.14 134.741ZM339.085 155.439C335.13 155.439 332.039 154.348 329.812 152.166C327.586 149.983 326.473 146.892 326.473 142.893C326.473 138.777 327.498 135.598 329.549 133.357C331.614 131.101 334.463 129.973 338.096 129.973C341.568 129.973 344.271 130.962 346.204 132.939C348.138 134.917 349.104 137.649 349.104 141.135V144.387H333.262C333.335 146.292 333.899 147.778 334.954 148.848C336.009 149.917 337.488 150.452 339.393 150.452C340.872 150.452 342.271 150.298 343.589 149.99C344.908 149.683 346.285 149.192 347.72 148.518V153.704C346.548 154.29 345.296 154.722 343.963 155C342.63 155.293 341.004 155.439 339.085 155.439ZM361.255 130.435V139.883H370.616V130.435H377.317V155H370.616V144.871H361.255V155H354.554V130.435H361.255ZM394.522 134.741C393.101 134.741 391.988 135.195 391.182 136.104C390.376 136.997 389.915 138.271 389.798 139.927H399.202C399.173 138.271 398.741 136.997 397.906 136.104C397.071 135.195 395.943 134.741 394.522 134.741ZM395.467 155.439C391.512 155.439 388.421 154.348 386.194 152.166C383.968 149.983 382.854 146.892 382.854 142.893C382.854 138.777 383.88 135.598 385.931 133.357C387.996 131.101 390.845 129.973 394.478 129.973C397.95 129.973 400.652 130.962 402.586 132.939C404.52 134.917 405.486 137.649 405.486 141.135V144.387H389.644C389.717 146.292 390.281 147.778 391.336 148.848C392.391 149.917 393.87 150.452 395.774 150.452C397.254 150.452 398.653 150.298 399.971 149.99C401.29 149.683 402.667 149.192 404.102 148.518V153.704C402.93 154.29 401.678 154.722 400.345 155C399.012 155.293 397.386 155.439 395.467 155.439ZM426.316 150.1V135.466H421.285C420.918 138.191 420.413 140.776 419.769 143.223C419.139 145.669 418.26 147.961 417.132 150.1H426.316ZM436.622 163.811H430.601V155H414.078V163.811H408.057V150.1H410.123C411.529 147.917 412.708 145.164 413.66 141.838C414.612 138.513 415.279 134.712 415.66 130.435H433.018V150.1H436.622V163.811ZM453.826 142.366V130.435H460.066V142.366L468.812 130.435H475.733L466.68 142.212L476.59 155H469.427L460.066 142.542V155H453.826V142.542L444.466 155H437.303L447.212 142.212L438.16 130.435H445.081L453.826 142.366ZM511.065 155H504.803V135.642L504.451 137.004C503.66 140.095 502.95 142.432 502.32 144.014L497.969 155H493.201L488.785 143.926C488.155 142.314 487.481 140.051 486.763 137.136L486.346 135.642V155H480.105V130.435H489.334L493.553 140.916C493.992 142.043 494.395 143.34 494.761 144.805C495.142 146.27 495.398 147.522 495.53 148.562C496.014 146.365 496.387 144.79 496.651 143.838C496.929 142.871 497.229 141.985 497.552 141.179C497.874 140.374 499.332 136.792 501.924 130.435H511.065V155ZM528.292 134.741C526.871 134.741 525.757 135.195 524.952 136.104C524.146 136.997 523.685 138.271 523.567 139.927H532.972C532.942 138.271 532.51 136.997 531.675 136.104C530.84 135.195 529.712 134.741 528.292 134.741ZM529.236 155.439C525.281 155.439 522.19 154.348 519.964 152.166C517.737 149.983 516.624 146.892 516.624 142.893C516.624 138.777 517.649 135.598 519.7 133.357C521.766 131.101 524.615 129.973 528.248 129.973C531.719 129.973 534.422 130.962 536.355 132.939C538.289 134.917 539.256 137.649 539.256 141.135V144.387H523.414C523.487 146.292 524.051 147.778 525.105 148.848C526.16 149.917 527.64 150.452 529.544 150.452C531.023 150.452 532.422 150.298 533.741 149.99C535.059 149.683 536.436 149.192 537.872 148.518V153.704C536.7 154.29 535.447 154.722 534.114 155C532.781 155.293 531.155 155.439 529.236 155.439ZM551.407 130.435V139.883H560.767V130.435H567.469V155H560.767V144.871H551.407V155H544.705V130.435H551.407ZM594.825 130.435V135.466H586.783V155H580.081V135.466H572.017V130.435H594.825Z" fill="white"/>
<path d="M96.4078 154.967C91.1828 154.967 86.4031 152.978 82.8109 149.742C81.6531 151.939 81 154.403 81 157.045V168H111.816V157.045C111.816 154.403 111.162 151.939 109.975 149.772C106.412 153.008 101.633 154.967 96.4078 154.967Z" fill="white"/>
<path d="M193.159 149.772C189.567 153.008 184.787 154.997 179.562 154.997C174.337 154.997 169.558 153.008 165.966 149.772C164.808 151.939 164.125 154.433 164.125 157.045V168H195V157.045C195 154.403 194.347 151.939 193.159 149.772Z" fill="white"/>
<path d="M151.567 67.4781C151.567 74.9297 145.511 80.9563 138 80.9563C130.519 80.9563 124.433 74.9297 124.433 67.4781C124.433 60.0266 130.519 54 138 54C145.481 54 151.567 60.0266 151.567 67.4781Z" fill="white"/>
<path d="M167.183 140.302C169.291 145.022 174.041 148.317 179.592 148.317C187.073 148.317 193.159 142.291 193.159 134.869C193.159 127.447 187.073 121.42 179.592 121.42C172.853 121.42 167.242 126.319 166.203 132.731L159.375 130.03C159.375 129.941 159.375 129.852 159.375 129.762C159.375 119.105 151.537 110.258 141.325 108.655V100.758H153.408V89.7141C153.408 87.0719 152.755 84.6078 151.567 82.4406C147.975 85.6766 143.195 87.6656 138 87.6656C132.805 87.6656 127.995 85.6766 124.403 82.4406C123.245 84.6078 122.562 87.1016 122.562 89.7141V100.758H134.645V108.655C124.433 110.258 116.595 119.105 116.595 129.762C116.595 129.852 116.595 129.941 116.595 130.03L109.767 132.731C108.728 126.348 103.117 121.42 96.3781 121.42C88.8969 121.42 82.8109 127.447 82.8109 134.869C82.8109 142.291 88.8969 148.317 96.3781 148.317C101.9 148.317 106.65 145.022 108.787 140.302L117.783 136.769C120.692 145.141 128.648 151.167 138 151.167C147.352 151.167 155.308 145.141 158.217 136.769L167.183 140.302Z" fill="white"/>
<circle cx="796" cy="115" r="41" fill="white"/>
<path d="M790.143 97.4281L805.204 115.532L790.143 133.636" stroke="#005AE0" stroke-width="5"/>
<defs>
<filter id="filter0_b" x="-23.4171" y="-23.4171" width="929.658" height="276.322" filterUnits="userSpaceOnUse" color-interpolation-filters="sRGB">
<feFlood flood-opacity="0" result="BackgroundImageFix"/>
<feGaussianBlur in="BackgroundImage" stdDeviation="11.7085"/>
<feComposite in2="SourceAlpha" operator="in" result="effect1_backgroundBlur"/>
<feBlend mode="normal" in="SourceGraphic" in2="effect1_backgroundBlur" result="shape"/>
</filter>
</defs>
</svg>
