<svg width="1975" height="1070" viewBox="0 0 1975 1070" fill="none" xmlns="http://www.w3.org/2000/svg">
<rect x="616" width="645" height="1070" fill="#C4C4C4" fill-opacity="0.05"/>
<path d="M27.9531 74H3.00195V68.751L11.9619 59.6934C14.6149 56.9753 16.3483 55.0954 17.1621 54.0537C17.9759 52.9958 18.5618 52.0192 18.9199 51.124C19.278 50.2288 19.457 49.3011 19.457 48.3408C19.457 46.9085 19.0583 45.8424 18.2607 45.1426C17.4795 44.4427 16.4297 44.0928 15.1113 44.0928C13.7279 44.0928 12.3851 44.4102 11.083 45.0449C9.78092 45.6797 8.42188 46.583 7.00586 47.7549L2.9043 42.8965C4.66211 41.3991 6.11882 40.3411 7.27441 39.7227C8.43001 39.1042 9.69141 38.6322 11.0586 38.3066C12.4258 37.9648 13.9557 37.7939 15.6484 37.7939C17.8783 37.7939 19.8477 38.2008 21.5566 39.0146C23.2656 39.8285 24.5921 40.9678 25.5361 42.4326C26.4801 43.8975 26.9521 45.5739 26.9521 47.4619C26.9521 49.1058 26.6592 50.652 26.0732 52.1006C25.5036 53.5329 24.6084 55.0059 23.3877 56.5195C22.1833 58.0332 20.0511 60.1898 16.9912 62.9893L12.4014 67.3105V67.6523H27.9531V74ZM56.3223 56.1533C56.3223 62.387 55.2969 67.0013 53.2461 69.9961C51.2116 72.9909 48.0703 74.4883 43.8223 74.4883C39.7044 74.4883 36.5957 72.9421 34.4961 69.8496C32.4128 66.7572 31.3711 62.1917 31.3711 56.1533C31.3711 49.8545 32.3883 45.2158 34.4229 42.2373C36.4574 39.2425 39.5905 37.7451 43.8223 37.7451C47.9401 37.7451 51.0488 39.3076 53.1484 42.4326C55.2643 45.5576 56.3223 50.1312 56.3223 56.1533ZM38.8662 56.1533C38.8662 60.5316 39.2406 63.6729 39.9893 65.5771C40.7542 67.4652 42.0319 68.4092 43.8223 68.4092C45.5801 68.4092 46.8496 67.4489 47.6309 65.5283C48.4121 63.6077 48.8027 60.4827 48.8027 56.1533C48.8027 51.7751 48.404 48.6338 47.6064 46.7295C46.8252 44.8089 45.5638 43.8486 43.8223 43.8486C42.0482 43.8486 40.7786 44.8089 40.0137 46.7295C39.2487 48.6338 38.8662 51.7751 38.8662 56.1533ZM78.7832 74H71.2393V53.3457L71.3125 49.9521L71.4346 46.2412C70.1813 47.4945 69.3105 48.3164 68.8223 48.707L64.7207 52.0029L61.083 47.4619L72.582 38.3066H78.7832V74ZM101 37.8428C104.418 37.8428 107.169 38.624 109.252 40.1865C111.352 41.7327 112.401 43.8242 112.401 46.4609C112.401 48.2839 111.897 49.9115 110.888 51.3438C109.879 52.7598 108.251 54.0293 106.005 55.1523C108.674 56.5846 110.587 58.082 111.742 59.6445C112.914 61.1908 113.5 62.8916 113.5 64.7471C113.5 67.6768 112.353 70.0368 110.058 71.8271C107.763 73.6012 104.743 74.4883 101 74.4883C97.0938 74.4883 94.0257 73.6582 91.7959 71.998C89.5661 70.3379 88.4512 67.986 88.4512 64.9424C88.4512 62.9079 88.9883 61.1012 90.0625 59.5225C91.153 57.9437 92.8945 56.5521 95.2871 55.3477C93.2526 54.0618 91.7878 52.6865 90.8926 51.2217C89.9974 49.7568 89.5498 48.1536 89.5498 46.4121C89.5498 43.8568 90.6077 41.7897 92.7236 40.2109C94.8395 38.6322 97.5983 37.8428 101 37.8428ZM95.4336 64.5029C95.4336 65.9027 95.9219 66.9932 96.8984 67.7744C97.875 68.5557 99.2096 68.9463 100.902 68.9463C102.774 68.9463 104.174 68.5475 105.102 67.75C106.029 66.9362 106.493 65.8701 106.493 64.5518C106.493 63.4613 106.029 62.444 105.102 61.5C104.19 60.5397 102.701 59.5225 100.634 58.4482C97.167 60.0433 95.4336 62.0615 95.4336 64.5029ZM100.951 43.3604C99.6654 43.3604 98.6237 43.694 97.8262 44.3613C97.0449 45.0124 96.6543 45.8913 96.6543 46.998C96.6543 47.9746 96.9635 48.8535 97.582 49.6348C98.2168 50.3997 99.3561 51.1891 101 52.0029C102.595 51.2542 103.71 50.4893 104.345 49.708C104.979 48.9268 105.297 48.0234 105.297 46.998C105.297 45.875 104.89 44.988 104.076 44.3369C103.262 43.6859 102.221 43.3604 100.951 43.3604Z" fill="white"/>
<path d="M672.953 74H648.002V68.751L656.962 59.6934C659.615 56.9753 661.348 55.0954 662.162 54.0537C662.976 52.9958 663.562 52.0192 663.92 51.124C664.278 50.2288 664.457 49.3011 664.457 48.3408C664.457 46.9085 664.058 45.8424 663.261 45.1426C662.479 44.4427 661.43 44.0928 660.111 44.0928C658.728 44.0928 657.385 44.4102 656.083 45.0449C654.781 45.6797 653.422 46.583 652.006 47.7549L647.904 42.8965C649.662 41.3991 651.119 40.3411 652.274 39.7227C653.43 39.1042 654.691 38.6322 656.059 38.3066C657.426 37.9648 658.956 37.7939 660.648 37.7939C662.878 37.7939 664.848 38.2008 666.557 39.0146C668.266 39.8285 669.592 40.9678 670.536 42.4326C671.48 43.8975 671.952 45.5739 671.952 47.4619C671.952 49.1058 671.659 50.652 671.073 52.1006C670.504 53.5329 669.608 55.0059 668.388 56.5195C667.183 58.0332 665.051 60.1898 661.991 62.9893L657.401 67.3105V67.6523H672.953V74ZM701.322 56.1533C701.322 62.387 700.297 67.0013 698.246 69.9961C696.212 72.9909 693.07 74.4883 688.822 74.4883C684.704 74.4883 681.596 72.9421 679.496 69.8496C677.413 66.7572 676.371 62.1917 676.371 56.1533C676.371 49.8545 677.388 45.2158 679.423 42.2373C681.457 39.2425 684.59 37.7451 688.822 37.7451C692.94 37.7451 696.049 39.3076 698.148 42.4326C700.264 45.5576 701.322 50.1312 701.322 56.1533ZM683.866 56.1533C683.866 60.5316 684.241 63.6729 684.989 65.5771C685.754 67.4652 687.032 68.4092 688.822 68.4092C690.58 68.4092 691.85 67.4489 692.631 65.5283C693.412 63.6077 693.803 60.4827 693.803 56.1533C693.803 51.7751 693.404 48.6338 692.606 46.7295C691.825 44.8089 690.564 43.8486 688.822 43.8486C687.048 43.8486 685.779 44.8089 685.014 46.7295C684.249 48.6338 683.866 51.7751 683.866 56.1533ZM723.783 74H716.239V53.3457L716.312 49.9521L716.435 46.2412C715.181 47.4945 714.311 48.3164 713.822 48.707L709.721 52.0029L706.083 47.4619L717.582 38.3066H723.783V74ZM758.5 53.541C758.5 60.5723 757.019 65.8213 754.057 69.2881C751.094 72.7549 746.61 74.4883 740.604 74.4883C738.489 74.4883 736.885 74.3743 735.795 74.1465V68.0918C737.162 68.4336 738.594 68.6045 740.092 68.6045C742.615 68.6045 744.69 68.2383 746.317 67.5059C747.945 66.7572 749.19 65.5934 750.053 64.0146C750.915 62.4196 751.412 60.2305 751.542 57.4473H751.249C750.305 58.9772 749.215 60.0514 747.978 60.6699C746.741 61.2884 745.194 61.5977 743.339 61.5977C740.23 61.5977 737.781 60.6048 735.99 58.6191C734.2 56.6172 733.305 53.8421 733.305 50.2939C733.305 46.4691 734.387 43.4499 736.552 41.2363C738.733 39.0065 741.695 37.8916 745.438 37.8916C748.075 37.8916 750.378 38.5101 752.348 39.7471C754.333 40.984 755.855 42.7826 756.913 45.1426C757.971 47.4863 758.5 50.2858 758.5 53.541ZM745.585 43.9463C744.022 43.9463 742.802 44.4834 741.923 45.5576C741.044 46.6318 740.604 48.1781 740.604 50.1963C740.604 51.9215 741.003 53.2887 741.801 54.2979C742.598 55.307 743.811 55.8115 745.438 55.8115C746.968 55.8115 748.279 55.3151 749.369 54.3223C750.46 53.3132 751.005 52.1576 751.005 50.8555C751.005 48.9186 750.492 47.2829 749.467 45.9482C748.458 44.6136 747.164 43.9463 745.585 43.9463Z" fill="white"/>
<path d="M1317.95 74H1293V68.751L1301.96 59.6934C1304.61 56.9753 1306.35 55.0954 1307.16 54.0537C1307.98 52.9958 1308.56 52.0192 1308.92 51.124C1309.28 50.2288 1309.46 49.3011 1309.46 48.3408C1309.46 46.9085 1309.06 45.8424 1308.26 45.1426C1307.48 44.4427 1306.43 44.0928 1305.11 44.0928C1303.73 44.0928 1302.39 44.4102 1301.08 45.0449C1299.78 45.6797 1298.42 46.583 1297.01 47.7549L1292.9 42.8965C1294.66 41.3991 1296.12 40.3411 1297.27 39.7227C1298.43 39.1042 1299.69 38.6322 1301.06 38.3066C1302.43 37.9648 1303.96 37.7939 1305.65 37.7939C1307.88 37.7939 1309.85 38.2008 1311.56 39.0146C1313.27 39.8285 1314.59 40.9678 1315.54 42.4326C1316.48 43.8975 1316.95 45.5739 1316.95 47.4619C1316.95 49.1058 1316.66 50.652 1316.07 52.1006C1315.5 53.5329 1314.61 55.0059 1313.39 56.5195C1312.18 58.0332 1310.05 60.1898 1306.99 62.9893L1302.4 67.3105V67.6523H1317.95V74ZM1346.32 56.1533C1346.32 62.387 1345.3 67.0013 1343.25 69.9961C1341.21 72.9909 1338.07 74.4883 1333.82 74.4883C1329.7 74.4883 1326.6 72.9421 1324.5 69.8496C1322.41 66.7572 1321.37 62.1917 1321.37 56.1533C1321.37 49.8545 1322.39 45.2158 1324.42 42.2373C1326.46 39.2425 1329.59 37.7451 1333.82 37.7451C1337.94 37.7451 1341.05 39.3076 1343.15 42.4326C1345.26 45.5576 1346.32 50.1312 1346.32 56.1533ZM1328.87 56.1533C1328.87 60.5316 1329.24 63.6729 1329.99 65.5771C1330.75 67.4652 1332.03 68.4092 1333.82 68.4092C1335.58 68.4092 1336.85 67.4489 1337.63 65.5283C1338.41 63.6077 1338.8 60.4827 1338.8 56.1533C1338.8 51.7751 1338.4 48.6338 1337.61 46.7295C1336.83 44.8089 1335.56 43.8486 1333.82 43.8486C1332.05 43.8486 1330.78 44.8089 1330.01 46.7295C1329.25 48.6338 1328.87 51.7751 1328.87 56.1533ZM1375.08 74H1350.13V68.751L1359.09 59.6934C1361.74 56.9753 1363.48 55.0954 1364.29 54.0537C1365.1 52.9958 1365.69 52.0192 1366.05 51.124C1366.41 50.2288 1366.59 49.3011 1366.59 48.3408C1366.59 46.9085 1366.19 45.8424 1365.39 45.1426C1364.61 44.4427 1363.56 44.0928 1362.24 44.0928C1360.86 44.0928 1359.51 44.4102 1358.21 45.0449C1356.91 45.6797 1355.55 46.583 1354.13 47.7549L1350.03 42.8965C1351.79 41.3991 1353.25 40.3411 1354.4 39.7227C1355.56 39.1042 1356.82 38.6322 1358.19 38.3066C1359.55 37.9648 1361.08 37.7939 1362.78 37.7939C1365.01 37.7939 1366.98 38.2008 1368.69 39.0146C1370.39 39.8285 1371.72 40.9678 1372.67 42.4326C1373.61 43.8975 1374.08 45.5739 1374.08 47.4619C1374.08 49.1058 1373.79 50.652 1373.2 52.1006C1372.63 53.5329 1371.74 55.0059 1370.52 56.5195C1369.31 58.0332 1367.18 60.1898 1364.12 62.9893L1359.53 67.3105V67.6523H1375.08V74ZM1403.45 56.1533C1403.45 62.387 1402.43 67.0013 1400.38 69.9961C1398.34 72.9909 1395.2 74.4883 1390.95 74.4883C1386.83 74.4883 1383.72 72.9421 1381.62 69.8496C1379.54 66.7572 1378.5 62.1917 1378.5 56.1533C1378.5 49.8545 1379.52 45.2158 1381.55 42.2373C1383.59 39.2425 1386.72 37.7451 1390.95 37.7451C1395.07 37.7451 1398.18 39.3076 1400.28 42.4326C1402.39 45.5576 1403.45 50.1312 1403.45 56.1533ZM1386 56.1533C1386 60.5316 1386.37 63.6729 1387.12 65.5771C1387.88 67.4652 1389.16 68.4092 1390.95 68.4092C1392.71 68.4092 1393.98 67.4489 1394.76 65.5283C1395.54 63.6077 1395.93 60.4827 1395.93 56.1533C1395.93 51.7751 1395.53 48.6338 1394.74 46.7295C1393.95 44.8089 1392.69 43.8486 1390.95 43.8486C1389.18 43.8486 1387.91 44.8089 1387.14 46.7295C1386.38 48.6338 1386 51.7751 1386 56.1533Z" fill="white"/>
<line x1="1" y1="106" x2="1975" y2="106" stroke="#6A7186" stroke-width="4"/>
<line x1="-3.49691e-06" y1="805" x2="1975" y2="805" stroke="url(#paint0_linear)" stroke-width="80"/>
<path d="M33.9258 788.445H41.9922C45.7812 788.445 48.5221 789.012 50.2148 790.145C51.9076 791.277 52.7539 793.068 52.7539 795.516C52.7539 797.208 52.2786 798.608 51.3281 799.715C50.3906 800.809 49.0169 801.518 47.207 801.844V802.039C51.543 802.781 53.7109 805.06 53.7109 808.875C53.7109 811.427 52.8451 813.419 51.1133 814.852C49.3945 816.284 46.9857 817 43.8867 817H33.9258V788.445ZM37.2461 800.672H42.7148C45.0586 800.672 46.7448 800.307 47.7734 799.578C48.8021 798.836 49.3164 797.592 49.3164 795.848C49.3164 794.246 48.7435 793.094 47.5977 792.391C46.4518 791.674 44.6289 791.316 42.1289 791.316H37.2461V800.672ZM37.2461 803.484V814.168H43.2031C45.5078 814.168 47.2396 813.725 48.3984 812.84C49.5703 811.941 50.1562 810.542 50.1562 808.641C50.1562 806.87 49.5573 805.568 48.3594 804.734C47.1745 803.901 45.3646 803.484 42.9297 803.484H37.2461ZM68.418 817.391C65.2539 817.391 62.7539 816.427 60.918 814.5C59.0951 812.573 58.1836 809.897 58.1836 806.473C58.1836 803.022 59.0299 800.281 60.7227 798.25C62.4284 796.219 64.7135 795.203 67.5781 795.203C70.2604 795.203 72.3828 796.089 73.9453 797.859C75.5078 799.617 76.2891 801.941 76.2891 804.832V806.883H61.543C61.6081 809.396 62.2396 811.303 63.4375 812.605C64.6484 813.908 66.3477 814.559 68.5352 814.559C70.8398 814.559 73.1185 814.077 75.3711 813.113V816.004C74.2253 816.499 73.138 816.85 72.1094 817.059C71.0938 817.28 69.8633 817.391 68.418 817.391ZM67.5391 797.918C65.8203 797.918 64.4466 798.478 63.418 799.598C62.4023 800.717 61.8034 802.267 61.6211 804.246H72.8125C72.8125 802.202 72.3568 800.639 71.4453 799.559C70.5339 798.465 69.2318 797.918 67.5391 797.918ZM97.793 817H94.5117V798.367H88.0859C87.7344 803.003 87.2461 806.681 86.6211 809.402C85.9961 812.124 85.1823 814.116 84.1797 815.379C83.1901 816.642 81.9271 817.273 80.3906 817.273C79.6875 817.273 79.1276 817.195 78.7109 817.039V814.637C78.9974 814.715 79.3229 814.754 79.6875 814.754C81.1849 814.754 82.3763 813.172 83.2617 810.008C84.1471 806.844 84.8177 802.039 85.2734 795.594H97.793V817ZM107.734 795.594V809.168L107.598 812.723L107.539 813.836L119.121 795.594H123.164V817H120.137V803.914L120.195 801.336L120.293 798.797L108.73 817H104.688V795.594H107.734ZM132.891 795.594V803.406C132.891 805.906 134.316 807.156 137.168 807.156C138.353 807.156 139.486 806.974 140.566 806.609C141.647 806.245 142.871 805.626 144.238 804.754V795.594H147.48V817H144.238V807.312C142.871 808.25 141.602 808.914 140.43 809.305C139.271 809.682 137.956 809.871 136.484 809.871C134.349 809.871 132.676 809.311 131.465 808.191C130.254 807.072 129.648 805.555 129.648 803.641V795.594H132.891ZM157.422 795.594V809.168L157.285 812.723L157.227 813.836L168.809 795.594H172.852V817H169.824V803.914L169.883 801.336L169.98 798.797L158.418 817H154.375V795.594H157.422ZM182.969 795.594V804.559H194.961V795.594H198.203V817H194.961V807.352H182.969V817H179.727V795.594H182.969ZM218.242 817L217.598 813.953H217.441C216.374 815.294 215.306 816.206 214.238 816.688C213.184 817.156 211.862 817.391 210.273 817.391C208.151 817.391 206.484 816.844 205.273 815.75C204.076 814.656 203.477 813.1 203.477 811.082C203.477 806.759 206.934 804.493 213.848 804.285L217.48 804.168V802.84C217.48 801.16 217.116 799.923 216.387 799.129C215.671 798.322 214.518 797.918 212.93 797.918C211.146 797.918 209.128 798.465 206.875 799.559L205.879 797.078C206.934 796.505 208.086 796.056 209.336 795.73C210.599 795.405 211.862 795.242 213.125 795.242C215.677 795.242 217.565 795.809 218.789 796.941C220.026 798.074 220.645 799.891 220.645 802.391V817H218.242ZM210.918 814.715C212.936 814.715 214.518 814.161 215.664 813.055C216.823 811.948 217.402 810.398 217.402 808.406V806.473L214.16 806.609C211.582 806.701 209.72 807.104 208.574 807.82C207.441 808.523 206.875 809.624 206.875 811.121C206.875 812.293 207.227 813.185 207.93 813.797C208.646 814.409 209.642 814.715 210.918 814.715ZM246.289 817.391C243.19 817.391 240.788 816.44 239.082 814.539C237.389 812.625 236.543 809.923 236.543 806.434C236.543 802.853 237.402 800.086 239.121 798.133C240.853 796.18 243.314 795.203 246.504 795.203C247.533 795.203 248.561 795.314 249.59 795.535C250.618 795.757 251.426 796.017 252.012 796.316L251.016 799.07C250.299 798.784 249.518 798.549 248.672 798.367C247.826 798.172 247.077 798.074 246.426 798.074C242.077 798.074 239.902 800.848 239.902 806.395C239.902 809.025 240.43 811.043 241.484 812.449C242.552 813.855 244.128 814.559 246.211 814.559C247.995 814.559 249.824 814.174 251.699 813.406V816.277C250.267 817.02 248.464 817.391 246.289 817.391ZM266.758 817.391C265.365 817.391 264.089 817.137 262.93 816.629C261.784 816.108 260.82 815.314 260.039 814.246H259.805C259.961 815.496 260.039 816.681 260.039 817.801V826.609H256.797V795.594H259.434L259.883 798.523H260.039C260.872 797.352 261.842 796.505 262.949 795.984C264.056 795.464 265.326 795.203 266.758 795.203C269.596 795.203 271.784 796.173 273.32 798.113C274.87 800.053 275.645 802.775 275.645 806.277C275.645 809.793 274.857 812.527 273.281 814.48C271.719 816.421 269.544 817.391 266.758 817.391ZM266.289 797.957C264.102 797.957 262.52 798.562 261.543 799.773C260.566 800.984 260.065 802.911 260.039 805.555V806.277C260.039 809.285 260.54 811.44 261.543 812.742C262.546 814.031 264.154 814.676 266.367 814.676C268.216 814.676 269.661 813.927 270.703 812.43C271.758 810.932 272.285 808.868 272.285 806.238C272.285 803.569 271.758 801.525 270.703 800.105C269.661 798.673 268.19 797.957 266.289 797.957ZM290.371 817.391C287.207 817.391 284.707 816.427 282.871 814.5C281.048 812.573 280.137 809.897 280.137 806.473C280.137 803.022 280.983 800.281 282.676 798.25C284.382 796.219 286.667 795.203 289.531 795.203C292.214 795.203 294.336 796.089 295.898 797.859C297.461 799.617 298.242 801.941 298.242 804.832V806.883H283.496C283.561 809.396 284.193 811.303 285.391 812.605C286.602 813.908 288.301 814.559 290.488 814.559C292.793 814.559 295.072 814.077 297.324 813.113V816.004C296.178 816.499 295.091 816.85 294.062 817.059C293.047 817.28 291.816 817.391 290.371 817.391ZM289.492 797.918C287.773 797.918 286.4 798.478 285.371 799.598C284.355 800.717 283.757 802.267 283.574 804.246H294.766C294.766 802.202 294.31 800.639 293.398 799.559C292.487 798.465 291.185 797.918 289.492 797.918ZM322.383 824.402H319.238V817H304.277V824.402H301.152V814.207H302.832C304.577 811.837 305.944 809.057 306.934 805.867C307.923 802.677 308.438 799.253 308.477 795.594H319.316V814.207H322.383V824.402ZM316.191 814.207V798.152H311.387C311.217 801.043 310.658 803.973 309.707 806.941C308.77 809.897 307.598 812.319 306.191 814.207H316.191ZM329.922 795.594V804.559H341.914V795.594H345.156V817H341.914V807.352H329.922V817H326.68V795.594H329.922ZM361.074 817.391C357.91 817.391 355.41 816.427 353.574 814.5C351.751 812.573 350.84 809.897 350.84 806.473C350.84 803.022 351.686 800.281 353.379 798.25C355.085 796.219 357.37 795.203 360.234 795.203C362.917 795.203 365.039 796.089 366.602 797.859C368.164 799.617 368.945 801.941 368.945 804.832V806.883H354.199C354.264 809.396 354.896 811.303 356.094 812.605C357.305 813.908 359.004 814.559 361.191 814.559C363.496 814.559 365.775 814.077 368.027 813.113V816.004C366.882 816.499 365.794 816.85 364.766 817.059C363.75 817.28 362.52 817.391 361.074 817.391ZM360.195 797.918C358.477 797.918 357.103 798.478 356.074 799.598C355.059 800.717 354.46 802.267 354.277 804.246H365.469C365.469 802.202 365.013 800.639 364.102 799.559C363.19 798.465 361.888 797.918 360.195 797.918ZM393.086 824.402H389.941V817H374.98V824.402H371.855V814.207H373.535C375.28 811.837 376.647 809.057 377.637 805.867C378.626 802.677 379.141 799.253 379.18 795.594H390.02V814.207H393.086V824.402ZM386.895 814.207V798.152H382.09C381.921 801.043 381.361 803.973 380.41 806.941C379.473 809.897 378.301 812.319 376.895 814.207H386.895ZM393.984 795.594H397.461L402.148 807.801C403.177 810.587 403.815 812.599 404.062 813.836H404.219C404.388 813.172 404.74 812.039 405.273 810.438C405.82 808.823 407.591 803.875 410.586 795.594H414.062L404.863 819.969C403.952 822.378 402.884 824.083 401.66 825.086C400.449 826.102 398.958 826.609 397.188 826.609C396.198 826.609 395.221 826.499 394.258 826.277V823.68C394.974 823.836 395.775 823.914 396.66 823.914C398.887 823.914 400.475 822.664 401.426 820.164L402.617 817.117L393.984 795.594ZM433.496 814.207H442.988V795.594H446.27V817H417.539V795.594H420.781V814.207H430.254V795.594H433.496V814.207ZM462.207 817.391C459.043 817.391 456.543 816.427 454.707 814.5C452.884 812.573 451.973 809.897 451.973 806.473C451.973 803.022 452.819 800.281 454.512 798.25C456.217 796.219 458.503 795.203 461.367 795.203C464.049 795.203 466.172 796.089 467.734 797.859C469.297 799.617 470.078 801.941 470.078 804.832V806.883H455.332C455.397 809.396 456.029 811.303 457.227 812.605C458.438 813.908 460.137 814.559 462.324 814.559C464.629 814.559 466.908 814.077 469.16 813.113V816.004C468.014 816.499 466.927 816.85 465.898 817.059C464.883 817.28 463.652 817.391 462.207 817.391ZM461.328 797.918C459.609 797.918 458.236 798.478 457.207 799.598C456.191 800.717 455.592 802.267 455.41 804.246H466.602C466.602 802.202 466.146 800.639 465.234 799.559C464.323 798.465 463.021 797.918 461.328 797.918ZM492.988 800.965C492.988 802.358 492.585 803.419 491.777 804.148C490.983 804.865 489.863 805.346 488.418 805.594V805.77C490.241 806.017 491.569 806.551 492.402 807.371C493.249 808.191 493.672 809.324 493.672 810.77C493.672 812.762 492.936 814.298 491.465 815.379C490.007 816.46 487.871 817 485.059 817H475.625V795.594H485.02C490.332 795.594 492.988 797.384 492.988 800.965ZM490.43 810.555C490.43 809.396 489.987 808.556 489.102 808.035C488.229 807.501 486.777 807.234 484.746 807.234H478.867V814.285H484.824C488.561 814.285 490.43 813.042 490.43 810.555ZM489.824 801.277C489.824 800.236 489.421 799.5 488.613 799.07C487.819 798.628 486.608 798.406 484.98 798.406H478.867V804.441H484.355C486.361 804.441 487.773 804.194 488.594 803.699C489.414 803.204 489.824 802.397 489.824 801.277ZM516.875 806.277C516.875 809.767 515.996 812.495 514.238 814.461C512.48 816.414 510.052 817.391 506.953 817.391C505.039 817.391 503.34 816.941 501.855 816.043C500.371 815.145 499.225 813.855 498.418 812.176C497.611 810.496 497.207 808.53 497.207 806.277C497.207 802.788 498.079 800.073 499.824 798.133C501.569 796.18 503.991 795.203 507.09 795.203C510.085 795.203 512.461 796.199 514.219 798.191C515.99 800.184 516.875 802.879 516.875 806.277ZM500.566 806.277C500.566 809.012 501.113 811.095 502.207 812.527C503.301 813.96 504.909 814.676 507.031 814.676C509.154 814.676 510.762 813.966 511.855 812.547C512.962 811.115 513.516 809.025 513.516 806.277C513.516 803.556 512.962 801.492 511.855 800.086C510.762 798.667 509.141 797.957 506.992 797.957C504.87 797.957 503.268 798.654 502.188 800.047C501.107 801.44 500.566 803.517 500.566 806.277ZM535.469 798.367H525.82V817H522.578V795.594H535.469V798.367ZM558.203 806.277C558.203 809.767 557.324 812.495 555.566 814.461C553.809 816.414 551.38 817.391 548.281 817.391C546.367 817.391 544.668 816.941 543.184 816.043C541.699 815.145 540.553 813.855 539.746 812.176C538.939 810.496 538.535 808.53 538.535 806.277C538.535 802.788 539.408 800.073 541.152 798.133C542.897 796.18 545.319 795.203 548.418 795.203C551.413 795.203 553.789 796.199 555.547 798.191C557.318 800.184 558.203 802.879 558.203 806.277ZM541.895 806.277C541.895 809.012 542.441 811.095 543.535 812.527C544.629 813.96 546.237 814.676 548.359 814.676C550.482 814.676 552.09 813.966 553.184 812.547C554.29 811.115 554.844 809.025 554.844 806.277C554.844 803.556 554.29 801.492 553.184 800.086C552.09 798.667 550.469 797.957 548.32 797.957C546.198 797.957 544.596 798.654 543.516 800.047C542.435 801.44 541.895 803.517 541.895 806.277ZM592.891 824.402H589.746V817H574.785V824.402H571.66V814.207H573.34C575.085 811.837 576.452 809.057 577.441 805.867C578.431 802.677 578.945 799.253 578.984 795.594H589.824V814.207H592.891V824.402ZM586.699 814.207V798.152H581.895C581.725 801.043 581.165 803.973 580.215 806.941C579.277 809.897 578.105 812.319 576.699 814.207H586.699ZM606.23 817.391C603.066 817.391 600.566 816.427 598.73 814.5C596.908 812.573 595.996 809.897 595.996 806.473C595.996 803.022 596.842 800.281 598.535 798.25C600.241 796.219 602.526 795.203 605.391 795.203C608.073 795.203 610.195 796.089 611.758 797.859C613.32 799.617 614.102 801.941 614.102 804.832V806.883H599.355C599.421 809.396 600.052 811.303 601.25 812.605C602.461 813.908 604.16 814.559 606.348 814.559C608.652 814.559 610.931 814.077 613.184 813.113V816.004C612.038 816.499 610.951 816.85 609.922 817.059C608.906 817.28 607.676 817.391 606.23 817.391ZM605.352 797.918C603.633 797.918 602.259 798.478 601.23 799.598C600.215 800.717 599.616 802.267 599.434 804.246H610.625C610.625 802.202 610.169 800.639 609.258 799.559C608.346 798.465 607.044 797.918 605.352 797.918ZM622.891 795.594V804.559H634.883V795.594H638.125V817H634.883V807.352H622.891V817H619.648V795.594H622.891ZM654.043 817.391C650.879 817.391 648.379 816.427 646.543 814.5C644.72 812.573 643.809 809.897 643.809 806.473C643.809 803.022 644.655 800.281 646.348 798.25C648.053 796.219 650.339 795.203 653.203 795.203C655.885 795.203 658.008 796.089 659.57 797.859C661.133 799.617 661.914 801.941 661.914 804.832V806.883H647.168C647.233 809.396 647.865 811.303 649.062 812.605C650.273 813.908 651.973 814.559 654.16 814.559C656.465 814.559 658.743 814.077 660.996 813.113V816.004C659.85 816.499 658.763 816.85 657.734 817.059C656.719 817.28 655.488 817.391 654.043 817.391ZM653.164 797.918C651.445 797.918 650.072 798.478 649.043 799.598C648.027 800.717 647.428 802.267 647.246 804.246H658.438C658.438 802.202 657.982 800.639 657.07 799.559C656.159 798.465 654.857 797.918 653.164 797.918ZM677.227 795.633H680.215V806.004L689.062 795.633H692.617L683.672 806.004L693.379 817H689.629L680.215 806.16V817H677.227V806.16L667.832 817H664.102L673.789 806.004L664.863 795.633H668.418L677.227 806.004V795.633ZM700.156 795.594V804.559H712.148V795.594H715.391V817H712.148V807.352H700.156V817H696.914V795.594H700.156ZM740.742 806.277C740.742 809.767 739.863 812.495 738.105 814.461C736.348 816.414 733.919 817.391 730.82 817.391C728.906 817.391 727.207 816.941 725.723 816.043C724.238 815.145 723.092 813.855 722.285 812.176C721.478 810.496 721.074 808.53 721.074 806.277C721.074 802.788 721.947 800.073 723.691 798.133C725.436 796.18 727.858 795.203 730.957 795.203C733.952 795.203 736.328 796.199 738.086 798.191C739.857 800.184 740.742 802.879 740.742 806.277ZM724.434 806.277C724.434 809.012 724.98 811.095 726.074 812.527C727.168 813.96 728.776 814.676 730.898 814.676C733.021 814.676 734.629 813.966 735.723 812.547C736.829 811.115 737.383 809.025 737.383 806.277C737.383 803.556 736.829 801.492 735.723 800.086C734.629 798.667 733.008 797.957 730.859 797.957C728.737 797.957 727.135 798.654 726.055 800.047C724.974 801.44 724.434 803.517 724.434 806.277ZM759.336 798.367H749.688V817H746.445V795.594H759.336V798.367ZM782.07 806.277C782.07 809.767 781.191 812.495 779.434 814.461C777.676 816.414 775.247 817.391 772.148 817.391C770.234 817.391 768.535 816.941 767.051 816.043C765.566 815.145 764.421 813.855 763.613 812.176C762.806 810.496 762.402 808.53 762.402 806.277C762.402 802.788 763.275 800.073 765.02 798.133C766.764 796.18 769.186 795.203 772.285 795.203C775.28 795.203 777.656 796.199 779.414 798.191C781.185 800.184 782.07 802.879 782.07 806.277ZM765.762 806.277C765.762 809.012 766.309 811.095 767.402 812.527C768.496 813.96 770.104 814.676 772.227 814.676C774.349 814.676 775.957 813.966 777.051 812.547C778.158 811.115 778.711 809.025 778.711 806.277C778.711 803.556 778.158 801.492 777.051 800.086C775.957 798.667 774.336 797.957 772.188 797.957C770.065 797.957 768.464 798.654 767.383 800.047C766.302 801.44 765.762 803.517 765.762 806.277ZM816.758 824.402H813.613V817H798.652V824.402H795.527V814.207H797.207C798.952 811.837 800.319 809.057 801.309 805.867C802.298 802.677 802.812 799.253 802.852 795.594H813.691V814.207H816.758V824.402ZM810.566 814.207V798.152H805.762C805.592 801.043 805.033 803.973 804.082 806.941C803.145 809.897 801.973 812.319 800.566 814.207H810.566ZM839.531 806.277C839.531 809.767 838.652 812.495 836.895 814.461C835.137 816.414 832.708 817.391 829.609 817.391C827.695 817.391 825.996 816.941 824.512 816.043C823.027 815.145 821.882 813.855 821.074 812.176C820.267 810.496 819.863 808.53 819.863 806.277C819.863 802.788 820.736 800.073 822.48 798.133C824.225 796.18 826.647 795.203 829.746 795.203C832.741 795.203 835.117 796.199 836.875 798.191C838.646 800.184 839.531 802.879 839.531 806.277ZM823.223 806.277C823.223 809.012 823.77 811.095 824.863 812.527C825.957 813.96 827.565 814.676 829.688 814.676C831.81 814.676 833.418 813.966 834.512 812.547C835.618 811.115 836.172 809.025 836.172 806.277C836.172 803.556 835.618 801.492 834.512 800.086C833.418 798.667 831.797 797.957 829.648 797.957C827.526 797.957 825.924 798.654 824.844 800.047C823.763 801.44 823.223 803.517 823.223 806.277ZM850.391 806.043L842.949 795.594H846.641L852.285 803.797L857.91 795.594H861.562L854.121 806.043L861.953 817H858.281L852.285 808.328L846.23 817H842.559L850.391 806.043ZM884.688 806.277C884.688 809.767 883.809 812.495 882.051 814.461C880.293 816.414 877.865 817.391 874.766 817.391C872.852 817.391 871.152 816.941 869.668 816.043C868.184 815.145 867.038 813.855 866.23 812.176C865.423 810.496 865.02 808.53 865.02 806.277C865.02 802.788 865.892 800.073 867.637 798.133C869.382 796.18 871.803 795.203 874.902 795.203C877.897 795.203 880.273 796.199 882.031 798.191C883.802 800.184 884.688 802.879 884.688 806.277ZM868.379 806.277C868.379 809.012 868.926 811.095 870.02 812.527C871.113 813.96 872.721 814.676 874.844 814.676C876.966 814.676 878.574 813.966 879.668 812.547C880.775 811.115 881.328 809.025 881.328 806.277C881.328 803.556 880.775 801.492 879.668 800.086C878.574 798.667 876.953 797.957 874.805 797.957C872.682 797.957 871.081 798.654 870 800.047C868.919 801.44 868.379 803.517 868.379 806.277ZM908.984 824.402H905.84V817H890.879V824.402H887.754V814.207H889.434C891.178 811.837 892.546 809.057 893.535 805.867C894.525 802.677 895.039 799.253 895.078 795.594H905.918V814.207H908.984V824.402ZM902.793 814.207V798.152H897.988C897.819 801.043 897.259 803.973 896.309 806.941C895.371 809.897 894.199 812.319 892.793 814.207H902.793ZM926.445 817L925.801 813.953H925.645C924.577 815.294 923.509 816.206 922.441 816.688C921.387 817.156 920.065 817.391 918.477 817.391C916.354 817.391 914.688 816.844 913.477 815.75C912.279 814.656 911.68 813.1 911.68 811.082C911.68 806.759 915.137 804.493 922.051 804.285L925.684 804.168V802.84C925.684 801.16 925.319 799.923 924.59 799.129C923.874 798.322 922.721 797.918 921.133 797.918C919.349 797.918 917.331 798.465 915.078 799.559L914.082 797.078C915.137 796.505 916.289 796.056 917.539 795.73C918.802 795.405 920.065 795.242 921.328 795.242C923.88 795.242 925.768 795.809 926.992 796.941C928.229 798.074 928.848 799.891 928.848 802.391V817H926.445ZM919.121 814.715C921.139 814.715 922.721 814.161 923.867 813.055C925.026 811.948 925.605 810.398 925.605 808.406V806.473L922.363 806.609C919.785 806.701 917.923 807.104 916.777 807.82C915.645 808.523 915.078 809.624 915.078 811.121C915.078 812.293 915.43 813.185 916.133 813.797C916.849 814.409 917.845 814.715 919.121 814.715Z" fill="white"/>
<path d="M4.27637 968.227V954.799H33.1191V968.227H4.27637Z" fill="#FF0000"/>
<path d="M702.235 930.038C702.235 934.944 700.749 939.115 697.777 942.553C694.805 945.99 690.634 948.354 685.263 949.643V949.965C691.601 950.753 696.399 952.686 699.657 955.766C702.916 958.809 704.545 962.927 704.545 968.119C704.545 975.674 701.806 981.565 696.327 985.79C690.849 989.979 683.025 992.074 672.855 992.074C664.333 992.074 656.778 990.66 650.189 987.831V973.705C653.233 975.245 656.581 976.498 660.233 977.465C663.886 978.432 667.502 978.915 671.083 978.915C676.562 978.915 680.608 977.984 683.222 976.122C685.836 974.26 687.143 971.27 687.143 967.152C687.143 963.464 685.639 960.85 682.631 959.311C679.623 957.771 674.825 957.001 668.236 957.001H662.274V944.271H668.344C674.431 944.271 678.871 943.484 681.664 941.908C684.493 940.297 685.907 937.558 685.907 933.69C685.907 927.746 682.183 924.774 674.735 924.774C672.157 924.774 669.525 925.204 666.84 926.063C664.19 926.923 661.236 928.409 657.978 930.521L650.297 919.081C657.458 913.925 665.998 911.347 675.917 911.347C684.045 911.347 690.455 912.994 695.146 916.288C699.872 919.582 702.235 924.166 702.235 930.038ZM721.034 991L750.521 926.547H711.796V912.582H768.139V923.002L738.437 991H721.034ZM845.697 991H829.101V945.561L829.262 938.095L829.53 929.931C826.773 932.688 824.857 934.496 823.783 935.355L814.76 942.606L806.757 932.616L832.055 912.475H845.697V991ZM894.574 911.454C902.094 911.454 908.145 913.173 912.729 916.61C917.348 920.012 919.657 924.613 919.657 930.414C919.657 934.424 918.547 938.005 916.327 941.156C914.107 944.271 910.526 947.064 905.585 949.535C911.457 952.686 915.665 955.98 918.207 959.418C920.785 962.82 922.074 966.562 922.074 970.644C922.074 977.089 919.55 982.281 914.501 986.22C909.452 990.123 902.81 992.074 894.574 992.074C885.98 992.074 879.231 990.248 874.325 986.596C869.42 982.943 866.967 977.769 866.967 971.073C866.967 966.597 868.148 962.623 870.512 959.149C872.911 955.676 876.742 952.615 882.006 949.965C877.53 947.136 874.307 944.11 872.338 940.888C870.368 937.665 869.384 934.138 869.384 930.307C869.384 924.685 871.711 920.137 876.366 916.664C881.021 913.191 887.09 911.454 894.574 911.454ZM882.328 970.106C882.328 973.186 883.402 975.585 885.551 977.304C887.699 979.022 890.635 979.882 894.359 979.882C898.477 979.882 901.557 979.005 903.598 977.25C905.639 975.46 906.659 973.114 906.659 970.214C906.659 967.815 905.639 965.577 903.598 963.5C901.592 961.387 898.316 959.149 893.769 956.786C886.142 960.295 882.328 964.735 882.328 970.106ZM894.467 923.593C891.638 923.593 889.346 924.327 887.592 925.795C885.873 927.227 885.014 929.161 885.014 931.596C885.014 933.744 885.694 935.678 887.055 937.396C888.451 939.079 890.958 940.816 894.574 942.606C898.083 940.959 900.536 939.276 901.933 937.558C903.329 935.839 904.027 933.852 904.027 931.596C904.027 929.125 903.132 927.174 901.342 925.741C899.551 924.309 897.26 923.593 894.467 923.593ZM984.809 951.737C984.809 965.451 982.553 975.603 978.041 982.191C973.565 988.78 966.654 992.074 957.309 992.074C948.249 992.074 941.41 988.673 936.791 981.869C932.208 975.066 929.916 965.022 929.916 951.737C929.916 937.88 932.154 927.675 936.63 921.122C941.106 914.534 947.999 911.239 957.309 911.239C966.368 911.239 973.207 914.677 977.826 921.552C982.481 928.427 984.809 938.489 984.809 951.737ZM946.405 951.737C946.405 961.369 947.229 968.28 948.876 972.47C950.559 976.623 953.37 978.7 957.309 978.7C961.176 978.7 963.969 976.588 965.688 972.362C967.406 968.137 968.266 961.262 968.266 951.737C968.266 942.105 967.388 935.194 965.634 931.005C963.915 926.78 961.14 924.667 957.309 924.667C953.406 924.667 950.613 926.78 948.93 931.005C947.247 935.194 946.405 942.105 946.405 951.737ZM1027.26 991V979.23H1018.46V968.56H1027.26V959.98H1018.46V946.34H1027.26V912.46H1052.34C1062.46 912.46 1069.83 914.513 1074.45 918.62C1079.14 922.727 1081.49 928.373 1081.49 935.56C1081.49 939.813 1080.53 943.81 1078.63 947.55C1076.72 951.29 1073.53 954.297 1069.06 956.57C1064.66 958.843 1058.64 959.98 1051.02 959.98H1043.87V968.56H1060.81V979.23H1043.87V991H1027.26ZM1049.37 946.34C1054.06 946.34 1057.76 945.533 1060.48 943.92C1063.26 942.307 1064.66 939.703 1064.66 936.11C1064.66 929.437 1060.26 926.1 1051.46 926.1H1043.87V946.34H1049.37Z" fill="#FF0000"/>
<path d="M1347.24 930.038C1347.24 934.944 1345.75 939.115 1342.78 942.553C1339.81 945.99 1335.63 948.354 1330.26 949.643V949.965C1336.6 950.753 1341.4 952.686 1344.66 955.766C1347.92 958.809 1349.54 962.927 1349.54 968.119C1349.54 975.674 1346.81 981.565 1341.33 985.79C1335.85 989.979 1328.02 992.074 1317.86 992.074C1309.33 992.074 1301.78 990.66 1295.19 987.831V973.705C1298.23 975.245 1301.58 976.498 1305.23 977.465C1308.89 978.432 1312.5 978.915 1316.08 978.915C1321.56 978.915 1325.61 977.984 1328.22 976.122C1330.84 974.26 1332.14 971.27 1332.14 967.152C1332.14 963.464 1330.64 960.85 1327.63 959.311C1324.62 957.771 1319.82 957.001 1313.24 957.001H1307.27V944.271H1313.34C1319.43 944.271 1323.87 943.484 1326.66 941.908C1329.49 940.297 1330.91 937.558 1330.91 933.69C1330.91 927.746 1327.18 924.774 1319.74 924.774C1317.16 924.774 1314.53 925.204 1311.84 926.063C1309.19 926.923 1306.24 928.409 1302.98 930.521L1295.3 919.081C1302.46 913.925 1311 911.347 1320.92 911.347C1329.05 911.347 1335.45 912.994 1340.15 916.288C1344.87 919.582 1347.24 924.166 1347.24 930.038ZM1357.71 957.646C1357.71 942.105 1360.99 930.539 1367.54 922.948C1374.13 915.357 1383.97 911.562 1397.08 911.562C1401.56 911.562 1405.06 911.83 1407.61 912.367V925.634C1404.42 924.918 1401.27 924.56 1398.15 924.56C1392.46 924.56 1387.81 925.419 1384.19 927.138C1380.61 928.856 1377.92 931.399 1376.13 934.765C1374.34 938.131 1373.29 942.911 1372.96 949.105H1373.66C1377.21 943.018 1382.88 939.975 1390.69 939.975C1397.71 939.975 1403.2 942.177 1407.18 946.581C1411.15 950.985 1413.14 957.073 1413.14 964.843C1413.14 973.222 1410.78 979.864 1406.05 984.77C1401.32 989.639 1394.77 992.074 1386.39 992.074C1380.59 992.074 1375.52 990.731 1371.19 988.046C1366.89 985.36 1363.56 981.439 1361.2 976.283C1358.87 971.127 1357.71 964.914 1357.71 957.646ZM1386.07 978.808C1389.61 978.808 1392.33 977.626 1394.23 975.263C1396.13 972.864 1397.08 969.462 1397.08 965.058C1397.08 961.226 1396.18 958.218 1394.39 956.034C1392.64 953.814 1389.97 952.704 1386.39 952.704C1383.02 952.704 1380.14 953.796 1377.74 955.98C1375.38 958.165 1374.2 960.707 1374.2 963.607C1374.2 967.868 1375.31 971.467 1377.53 974.403C1379.78 977.34 1382.63 978.808 1386.07 978.808ZM1504.23 945.99C1504.23 961.459 1500.97 973.007 1494.46 980.634C1487.94 988.261 1478.08 992.074 1464.86 992.074C1460.21 992.074 1456.68 991.824 1454.28 991.322V978.002C1457.29 978.754 1460.44 979.13 1463.73 979.13C1469.28 979.13 1473.85 978.324 1477.43 976.713C1481.01 975.066 1483.75 972.506 1485.65 969.032C1487.55 965.523 1488.64 960.707 1488.92 954.584H1488.28C1486.2 957.95 1483.8 960.313 1481.08 961.674C1478.36 963.035 1474.96 963.715 1470.88 963.715C1464.04 963.715 1458.65 961.531 1454.71 957.162C1450.77 952.758 1448.8 946.653 1448.8 938.847C1448.8 930.432 1451.18 923.79 1455.95 918.92C1460.74 914.014 1467.26 911.562 1475.5 911.562C1481.3 911.562 1486.36 912.922 1490.7 915.644C1495.07 918.365 1498.41 922.322 1500.74 927.514C1503.07 932.67 1504.23 938.829 1504.23 945.99ZM1475.82 924.882C1472.38 924.882 1469.7 926.063 1467.76 928.427C1465.83 930.79 1464.86 934.192 1464.86 938.632C1464.86 942.427 1465.74 945.435 1467.49 947.655C1469.25 949.875 1471.92 950.985 1475.5 950.985C1478.86 950.985 1481.75 949.893 1484.14 947.709C1486.54 945.489 1487.74 942.947 1487.74 940.082C1487.74 935.821 1486.62 932.222 1484.36 929.286C1482.14 926.35 1479.29 924.882 1475.82 924.882ZM1567.07 945.99C1567.07 961.459 1563.82 973.007 1557.3 980.634C1550.78 988.261 1540.92 992.074 1527.7 992.074C1523.05 992.074 1519.52 991.824 1517.12 991.322V978.002C1520.13 978.754 1523.28 979.13 1526.58 979.13C1532.13 979.13 1536.69 978.324 1540.27 976.713C1543.85 975.066 1546.59 972.506 1548.49 969.032C1550.39 965.523 1551.48 960.707 1551.77 954.584H1551.12C1549.05 957.95 1546.65 960.313 1543.92 961.674C1541.2 963.035 1537.8 963.715 1533.72 963.715C1526.88 963.715 1521.49 961.531 1517.55 957.162C1513.61 952.758 1511.64 946.653 1511.64 938.847C1511.64 930.432 1514.03 923.79 1518.79 918.92C1523.59 914.014 1530.1 911.562 1538.34 911.562C1544.14 911.562 1549.21 912.922 1553.54 915.644C1557.91 918.365 1561.26 922.322 1563.58 927.514C1565.91 932.67 1567.07 938.829 1567.07 945.99ZM1538.66 924.882C1535.22 924.882 1532.54 926.063 1530.6 928.427C1528.67 930.79 1527.7 934.192 1527.7 938.632C1527.7 942.427 1528.58 945.435 1530.34 947.655C1532.09 949.875 1534.76 950.985 1538.34 950.985C1541.7 950.985 1544.59 949.893 1546.99 947.709C1549.39 945.489 1550.58 942.947 1550.58 940.082C1550.58 935.821 1549.46 932.222 1547.2 929.286C1544.98 926.35 1542.13 924.882 1538.66 924.882ZM1629.81 951.737C1629.81 965.451 1627.55 975.603 1623.04 982.191C1618.57 988.78 1611.65 992.074 1602.31 992.074C1593.25 992.074 1586.41 988.673 1581.79 981.869C1577.21 975.066 1574.92 965.022 1574.92 951.737C1574.92 937.88 1577.15 927.675 1581.63 921.122C1586.11 914.534 1593 911.239 1602.31 911.239C1611.37 911.239 1618.21 914.677 1622.83 921.552C1627.48 928.427 1629.81 938.489 1629.81 951.737ZM1591.41 951.737C1591.41 961.369 1592.23 968.28 1593.88 972.47C1595.56 976.623 1598.37 978.7 1602.31 978.7C1606.18 978.7 1608.97 976.588 1610.69 972.362C1612.41 968.137 1613.27 961.262 1613.27 951.737C1613.27 942.105 1612.39 935.194 1610.63 931.005C1608.92 926.78 1606.14 924.667 1602.31 924.667C1598.41 924.667 1595.61 926.78 1593.93 931.005C1592.25 935.194 1591.41 942.105 1591.41 951.737ZM1672.26 991V979.23H1663.46V968.56H1672.26V959.98H1663.46V946.34H1672.26V912.46H1697.34C1707.46 912.46 1714.83 914.513 1719.45 918.62C1724.14 922.727 1726.49 928.373 1726.49 935.56C1726.49 939.813 1725.53 943.81 1723.63 947.55C1721.72 951.29 1718.53 954.297 1714.06 956.57C1709.66 958.843 1703.64 959.98 1696.02 959.98H1688.87V968.56H1705.81V979.23H1688.87V991H1672.26ZM1694.37 946.34C1699.06 946.34 1702.76 945.533 1705.48 943.92C1708.26 942.307 1709.66 939.703 1709.66 936.11C1709.66 929.437 1705.26 926.1 1696.46 926.1H1688.87V946.34H1694.37Z" fill="#FF0000"/>
<path d="M657.509 189H655.32V174.551H667.449V189H665.234V176.449H657.509V189ZM682.861 189H680.646V176.423H676.309C676.071 179.552 675.742 182.035 675.32 183.872C674.898 185.708 674.349 187.053 673.672 187.906C673.004 188.758 672.151 189.185 671.114 189.185C670.64 189.185 670.262 189.132 669.98 189.026V187.405C670.174 187.458 670.394 187.484 670.64 187.484C671.65 187.484 672.455 186.416 673.052 184.28C673.65 182.145 674.103 178.901 674.41 174.551H682.861V189ZM696.4 189L695.965 186.943H695.86C695.139 187.849 694.418 188.464 693.698 188.789C692.986 189.105 692.094 189.264 691.021 189.264C689.589 189.264 688.464 188.895 687.646 188.156C686.838 187.418 686.434 186.368 686.434 185.005C686.434 182.087 688.767 180.558 693.434 180.417L695.886 180.338V179.442C695.886 178.308 695.64 177.473 695.148 176.937C694.665 176.392 693.887 176.12 692.814 176.12C691.61 176.12 690.248 176.489 688.728 177.227L688.055 175.553C688.767 175.166 689.545 174.863 690.389 174.643C691.241 174.423 692.094 174.313 692.946 174.313C694.669 174.313 695.943 174.696 696.77 175.46C697.604 176.225 698.022 177.451 698.022 179.139V189H696.4ZM691.457 187.458C692.819 187.458 693.887 187.084 694.66 186.337C695.442 185.59 695.833 184.544 695.833 183.199V181.894L693.645 181.986C691.905 182.048 690.648 182.32 689.875 182.804C689.11 183.278 688.728 184.021 688.728 185.032C688.728 185.823 688.965 186.425 689.439 186.838C689.923 187.251 690.595 187.458 691.457 187.458ZM704.732 174.551V180.602H712.827V174.551H715.016V189H712.827V182.487H704.732V189H702.544V174.551H704.732Z" fill="white"/>
<path d="M1295.51 189H1293.32V174.551H1305.45V189H1303.23V176.449H1295.51V189ZM1320.86 189H1318.65V176.423H1314.31C1314.07 179.552 1313.74 182.035 1313.32 183.872C1312.9 185.708 1312.35 187.053 1311.67 187.906C1311 188.758 1310.15 189.185 1309.11 189.185C1308.64 189.185 1308.26 189.132 1307.98 189.026V187.405C1308.17 187.458 1308.39 187.484 1308.64 187.484C1309.65 187.484 1310.45 186.416 1311.05 184.28C1311.65 182.145 1312.1 178.901 1312.41 174.551H1320.86V189ZM1334.4 189L1333.97 186.943H1333.86C1333.14 187.849 1332.42 188.464 1331.7 188.789C1330.99 189.105 1330.09 189.264 1329.02 189.264C1327.59 189.264 1326.46 188.895 1325.65 188.156C1324.84 187.418 1324.43 186.368 1324.43 185.005C1324.43 182.087 1326.77 180.558 1331.43 180.417L1333.89 180.338V179.442C1333.89 178.308 1333.64 177.473 1333.15 176.937C1332.66 176.392 1331.89 176.12 1330.81 176.12C1329.61 176.12 1328.25 176.489 1326.73 177.227L1326.06 175.553C1326.77 175.166 1327.54 174.863 1328.39 174.643C1329.24 174.423 1330.09 174.313 1330.95 174.313C1332.67 174.313 1333.94 174.696 1334.77 175.46C1335.6 176.225 1336.02 177.451 1336.02 179.139V189H1334.4ZM1329.46 187.458C1330.82 187.458 1331.89 187.084 1332.66 186.337C1333.44 185.59 1333.83 184.544 1333.83 183.199V181.894L1331.65 181.986C1329.9 182.048 1328.65 182.32 1327.87 182.804C1327.11 183.278 1326.73 184.021 1326.73 185.032C1326.73 185.823 1326.96 186.425 1327.44 186.838C1327.92 187.251 1328.6 187.458 1329.46 187.458ZM1342.73 174.551V180.602H1350.83V174.551H1353.02V189H1350.83V182.487H1342.73V189H1340.54V174.551H1342.73Z" fill="white"/>
<path d="M1308.8 438.762C1308.8 440.951 1308.17 442.695 1306.93 443.996C1305.69 445.288 1303.95 446.026 1301.72 446.211V452.486H1299.56V446.211C1297.38 446.044 1295.65 445.297 1294.39 443.97C1293.12 442.643 1292.49 440.907 1292.49 438.762C1292.49 436.574 1293.12 434.833 1294.38 433.542C1295.64 432.25 1297.39 431.516 1299.64 431.34V425.486H1301.72V431.34C1303.92 431.542 1305.66 432.302 1306.91 433.621C1308.17 434.939 1308.8 436.653 1308.8 438.762ZM1294.78 438.762C1294.78 440.45 1295.17 441.772 1295.94 442.73C1296.72 443.688 1297.95 444.247 1299.64 444.405V433.172C1298.01 433.322 1296.79 433.854 1295.98 434.768C1295.18 435.673 1294.78 437.004 1294.78 438.762ZM1306.53 438.762C1306.53 435.396 1304.93 433.542 1301.72 433.199V444.405C1303.39 444.238 1304.61 443.675 1305.37 442.717C1306.14 441.759 1306.53 440.441 1306.53 438.762ZM1321.51 446L1321.07 443.943H1320.97C1320.25 444.849 1319.52 445.464 1318.8 445.789C1318.09 446.105 1317.2 446.264 1316.13 446.264C1314.7 446.264 1313.57 445.895 1312.75 445.156C1311.94 444.418 1311.54 443.368 1311.54 442.005C1311.54 439.087 1313.87 437.558 1318.54 437.417L1320.99 437.338V436.442C1320.99 435.308 1320.75 434.473 1320.25 433.937C1319.77 433.392 1318.99 433.12 1317.92 433.12C1316.72 433.12 1315.35 433.489 1313.83 434.227L1313.16 432.553C1313.87 432.166 1314.65 431.863 1315.5 431.643C1316.35 431.423 1317.2 431.313 1318.05 431.313C1319.78 431.313 1321.05 431.696 1321.88 432.46C1322.71 433.225 1323.13 434.451 1323.13 436.139V446H1321.51ZM1316.56 444.458C1317.93 444.458 1318.99 444.084 1319.77 443.337C1320.55 442.59 1320.94 441.544 1320.94 440.199V438.894L1318.75 438.986C1317.01 439.048 1315.75 439.32 1314.98 439.804C1314.22 440.278 1313.83 441.021 1313.83 442.032C1313.83 442.823 1314.07 443.425 1314.55 443.838C1315.03 444.251 1315.7 444.458 1316.56 444.458ZM1336.07 431.551H1338.47L1332.24 438.525L1338.99 446H1336.43L1329.84 438.683V446H1327.65V431.551H1329.84V438.578L1336.07 431.551ZM1351.42 433.423H1346.73V446H1344.54V433.423H1339.9V431.551H1351.42V433.423Z" fill="white"/>
<path d="M670.798 438.762C670.798 440.951 670.174 442.695 668.926 443.996C667.687 445.288 665.951 446.026 663.718 446.211V452.486H661.556V446.211C659.376 446.044 657.654 445.297 656.388 443.97C655.123 442.643 654.49 440.907 654.49 438.762C654.49 436.574 655.118 434.833 656.375 433.542C657.641 432.25 659.394 431.516 661.635 431.34V425.486H663.718V431.34C665.924 431.542 667.656 432.302 668.913 433.621C670.169 434.939 670.798 436.653 670.798 438.762ZM656.784 438.762C656.784 440.45 657.17 441.772 657.944 442.73C658.717 443.688 659.948 444.247 661.635 444.405V433.172C660.009 433.322 658.792 433.854 657.983 434.768C657.184 435.673 656.784 437.004 656.784 438.762ZM668.53 438.762C668.53 435.396 666.926 433.542 663.718 433.199V444.405C665.388 444.238 666.605 443.675 667.37 442.717C668.144 441.759 668.53 440.441 668.53 438.762ZM683.507 446L683.072 443.943H682.966C682.246 444.849 681.525 445.464 680.804 445.789C680.092 446.105 679.2 446.264 678.128 446.264C676.695 446.264 675.57 445.895 674.753 445.156C673.944 444.418 673.54 443.368 673.54 442.005C673.54 439.087 675.874 437.558 680.541 437.417L682.993 437.338V436.442C682.993 435.308 682.747 434.473 682.254 433.937C681.771 433.392 680.993 433.12 679.921 433.12C678.717 433.12 677.354 433.489 675.834 434.227L675.162 432.553C675.874 432.166 676.651 431.863 677.495 431.643C678.348 431.423 679.2 431.313 680.053 431.313C681.775 431.313 683.05 431.696 683.876 432.46C684.711 433.225 685.128 434.451 685.128 436.139V446H683.507ZM678.563 444.458C679.925 444.458 680.993 444.084 681.767 443.337C682.549 442.59 682.94 441.544 682.94 440.199V438.894L680.751 438.986C679.011 439.048 677.754 439.32 676.981 439.804C676.216 440.278 675.834 441.021 675.834 442.032C675.834 442.823 676.071 443.425 676.546 443.838C677.029 444.251 677.702 444.458 678.563 444.458ZM698.075 431.551H700.474L694.238 438.525L700.988 446H698.431L691.839 438.683V446H689.65V431.551H691.839V438.578L698.075 431.551ZM713.42 433.423H708.727V446H706.539V433.423H701.898V431.551H713.42V433.423Z" fill="white"/>
<path d="M707.963 337H685.331V275.037L685.551 264.856L685.917 253.724C682.157 257.483 679.545 259.949 678.08 261.121L665.775 271.009L654.862 257.386L689.359 229.92H707.963V337ZM812.553 337H737.699V321.253L764.579 294.08C772.538 285.926 777.738 280.286 780.18 277.161C782.621 273.987 784.379 271.058 785.453 268.372C786.527 265.687 787.064 262.903 787.064 260.022C787.064 255.726 785.868 252.527 783.476 250.428C781.132 248.328 777.982 247.278 774.027 247.278C769.877 247.278 765.849 248.23 761.942 250.135C758.036 252.039 753.959 254.749 749.711 258.265L737.406 243.689C742.68 239.197 747.05 236.023 750.517 234.168C753.983 232.312 757.768 230.896 761.869 229.92C765.971 228.895 770.561 228.382 775.639 228.382C782.328 228.382 788.236 229.603 793.363 232.044C798.49 234.485 802.47 237.903 805.302 242.298C808.134 246.692 809.55 251.722 809.55 257.386C809.55 262.317 808.671 266.956 806.913 271.302C805.204 275.599 802.519 280.018 798.856 284.559C795.243 289.1 788.847 295.569 779.667 303.968L765.897 316.932V317.957H812.553V337ZM840.458 262C840.458 268.201 840.995 272.84 842.069 275.916C843.192 278.943 844.975 280.457 847.416 280.457C852.104 280.457 854.447 274.305 854.447 262C854.447 249.793 852.104 243.689 847.416 243.689C844.975 243.689 843.192 245.203 842.069 248.23C840.995 251.209 840.458 255.799 840.458 262ZM872.904 261.854C872.904 273.084 870.731 281.531 866.386 287.195C862.04 292.811 855.668 295.618 847.27 295.618C839.213 295.618 832.987 292.737 828.593 286.976C824.198 281.165 822.001 272.791 822.001 261.854C822.001 239.539 830.424 228.382 847.27 228.382C855.521 228.382 861.845 231.287 866.239 237.098C870.683 242.859 872.904 251.111 872.904 261.854ZM923.295 229.92L863.896 337H846.317L905.717 229.92H923.295ZM915.458 304.773C915.458 310.975 915.995 315.613 917.069 318.689C918.192 321.717 919.975 323.23 922.416 323.23C927.104 323.23 929.447 317.078 929.447 304.773C929.447 292.566 927.104 286.463 922.416 286.463C919.975 286.463 918.192 287.977 917.069 291.004C915.995 293.982 915.458 298.572 915.458 304.773ZM947.904 304.627C947.904 315.809 945.731 324.231 941.386 329.896C937.04 335.511 930.668 338.318 922.27 338.318C914.213 338.318 907.987 335.438 903.593 329.676C899.198 323.865 897.001 315.516 897.001 304.627C897.001 282.312 905.424 271.155 922.27 271.155C930.521 271.155 936.845 274.061 941.239 279.871C945.683 285.633 947.904 293.885 947.904 304.627Z" fill="#01F859"/>
<path d="M62.9629 337H40.3311V275.037L40.5508 264.856L40.917 253.724C37.1572 257.483 34.5449 259.949 33.0801 261.121L20.7754 271.009L9.8623 257.386L44.3594 229.92H62.9629V337ZM167.553 337H92.6992V321.253L119.579 294.08C127.538 285.926 132.738 280.286 135.18 277.161C137.621 273.987 139.379 271.058 140.453 268.372C141.527 265.687 142.064 262.903 142.064 260.022C142.064 255.726 140.868 252.527 138.476 250.428C136.132 248.328 132.982 247.278 129.027 247.278C124.877 247.278 120.849 248.23 116.942 250.135C113.036 252.039 108.959 254.749 104.711 258.265L92.4062 243.689C97.6797 239.197 102.05 236.023 105.517 234.168C108.983 232.312 112.768 230.896 116.869 229.92C120.971 228.895 125.561 228.382 130.639 228.382C137.328 228.382 143.236 229.603 148.363 232.044C153.49 234.485 157.47 237.903 160.302 242.298C163.134 246.692 164.55 251.722 164.55 257.386C164.55 262.317 163.671 266.956 161.913 271.302C160.204 275.599 157.519 280.018 153.856 284.559C150.243 289.1 143.847 295.569 134.667 303.968L120.897 316.932V317.957H167.553V337ZM195.458 262C195.458 268.201 195.995 272.84 197.069 275.916C198.192 278.943 199.975 280.457 202.416 280.457C207.104 280.457 209.447 274.305 209.447 262C209.447 249.793 207.104 243.689 202.416 243.689C199.975 243.689 198.192 245.203 197.069 248.23C195.995 251.209 195.458 255.799 195.458 262ZM227.904 261.854C227.904 273.084 225.731 281.531 221.386 287.195C217.04 292.811 210.668 295.618 202.27 295.618C194.213 295.618 187.987 292.737 183.593 286.976C179.198 281.165 177.001 272.791 177.001 261.854C177.001 239.539 185.424 228.382 202.27 228.382C210.521 228.382 216.845 231.287 221.239 237.098C225.683 242.859 227.904 251.111 227.904 261.854ZM278.295 229.92L218.896 337H201.317L260.717 229.92H278.295ZM270.458 304.773C270.458 310.975 270.995 315.613 272.069 318.689C273.192 321.717 274.975 323.23 277.416 323.23C282.104 323.23 284.447 317.078 284.447 304.773C284.447 292.566 282.104 286.463 277.416 286.463C274.975 286.463 273.192 287.977 272.069 291.004C270.995 293.982 270.458 298.572 270.458 304.773ZM302.904 304.627C302.904 315.809 300.731 324.231 296.386 329.896C292.04 335.511 285.668 338.318 277.27 338.318C269.213 338.318 262.987 335.438 258.593 329.676C254.198 323.865 252.001 315.516 252.001 304.627C252.001 282.312 260.424 271.155 277.27 271.155C285.521 271.155 291.845 274.061 296.239 279.871C300.683 285.633 302.904 293.885 302.904 304.627Z" fill="#01F859"/>
<path d="M707.963 614H685.331V552.037L685.551 541.856L685.917 530.724C682.157 534.483 679.545 536.949 678.08 538.121L665.775 548.009L654.862 534.386L689.359 506.92H707.963V614ZM812.553 614H737.699V598.253L764.579 571.08C772.538 562.926 777.738 557.286 780.18 554.161C782.621 550.987 784.379 548.058 785.453 545.372C786.527 542.687 787.064 539.903 787.064 537.022C787.064 532.726 785.868 529.527 783.476 527.428C781.132 525.328 777.982 524.278 774.027 524.278C769.877 524.278 765.849 525.23 761.942 527.135C758.036 529.039 753.959 531.749 749.711 535.265L737.406 520.689C742.68 516.197 747.05 513.023 750.517 511.168C753.983 509.312 757.768 507.896 761.869 506.92C765.971 505.895 770.561 505.382 775.639 505.382C782.328 505.382 788.236 506.603 793.363 509.044C798.49 511.485 802.47 514.903 805.302 519.298C808.134 523.692 809.55 528.722 809.55 534.386C809.55 539.317 808.671 543.956 806.913 548.302C805.204 552.599 802.519 557.018 798.856 561.559C795.243 566.1 788.847 572.569 779.667 580.968L765.897 593.932V594.957H812.553V614ZM851.005 598.253C848.466 608.116 844.169 619.811 838.114 633.336H822.001C825.175 620.348 827.641 608.092 829.398 596.568H849.906L851.005 598.253ZM922.855 614H900.224V552.037L900.443 541.856L900.81 530.724C897.05 534.483 894.438 536.949 892.973 538.121L880.668 548.009L869.755 534.386L904.252 506.92H922.855V614ZM969.657 539C969.657 545.201 970.194 549.84 971.269 552.916C972.392 555.943 974.174 557.457 976.615 557.457C981.303 557.457 983.646 551.305 983.646 539C983.646 526.793 981.303 520.689 976.615 520.689C974.174 520.689 972.392 522.203 971.269 525.23C970.194 528.209 969.657 532.799 969.657 539ZM1002.1 538.854C1002.1 550.084 999.931 558.531 995.585 564.195C991.239 569.811 984.867 572.618 976.469 572.618C968.412 572.618 962.187 569.737 957.792 563.976C953.397 558.165 951.2 549.791 951.2 538.854C951.2 516.539 959.623 505.382 976.469 505.382C984.721 505.382 991.044 508.287 995.438 514.098C999.882 519.859 1002.1 528.111 1002.1 538.854ZM1052.49 506.92L993.095 614H975.517L1034.92 506.92H1052.49ZM1044.66 581.773C1044.66 587.975 1045.19 592.613 1046.27 595.689C1047.39 598.717 1049.17 600.23 1051.62 600.23C1056.3 600.23 1058.65 594.078 1058.65 581.773C1058.65 569.566 1056.3 563.463 1051.62 563.463C1049.17 563.463 1047.39 564.977 1046.27 568.004C1045.19 570.982 1044.66 575.572 1044.66 581.773ZM1077.1 581.627C1077.1 592.809 1074.93 601.231 1070.58 606.896C1066.24 612.511 1059.87 615.318 1051.47 615.318C1043.41 615.318 1037.19 612.438 1032.79 606.676C1028.4 600.865 1026.2 592.516 1026.2 581.627C1026.2 559.312 1034.62 548.155 1051.47 548.155C1059.72 548.155 1066.04 551.061 1070.44 556.871C1074.88 562.633 1077.1 570.885 1077.1 581.627Z" fill="#FF0000"/>
<path d="M1352.96 614H1330.33V552.037L1330.55 541.856L1330.92 530.724C1327.16 534.483 1324.54 536.949 1323.08 538.121L1310.78 548.009L1299.86 534.386L1334.36 506.92H1352.96V614ZM1459.97 591.808H1447.08V614H1424.96V591.808H1379.26V576.061L1426.21 506.92H1447.08V574.229H1459.97V591.808ZM1424.96 574.229V556.065C1424.96 553.038 1425.08 548.644 1425.33 542.882C1425.57 537.12 1425.77 533.775 1425.91 532.848H1425.33C1423.52 536.852 1421.35 540.758 1418.81 544.566L1399.18 574.229H1424.96ZM1496 598.253C1493.47 608.116 1489.17 619.811 1483.11 633.336H1467C1470.17 620.348 1472.64 608.092 1474.4 596.568H1494.91L1496 598.253ZM1522.52 614L1562.73 526.109H1509.92V507.066H1586.75V521.275L1546.25 614H1522.52ZM1614.66 539C1614.66 545.201 1615.19 549.84 1616.27 552.916C1617.39 555.943 1619.17 557.457 1621.62 557.457C1626.3 557.457 1628.65 551.305 1628.65 539C1628.65 526.793 1626.3 520.689 1621.62 520.689C1619.17 520.689 1617.39 522.203 1616.27 525.23C1615.19 528.209 1614.66 532.799 1614.66 539ZM1647.1 538.854C1647.1 550.084 1644.93 558.531 1640.58 564.195C1636.24 569.811 1629.87 572.618 1621.47 572.618C1613.41 572.618 1607.19 569.737 1602.79 563.976C1598.4 558.165 1596.2 549.791 1596.2 538.854C1596.2 516.539 1604.62 505.382 1621.47 505.382C1629.72 505.382 1636.04 508.287 1640.44 514.098C1644.88 519.859 1647.1 528.111 1647.1 538.854ZM1697.49 506.92L1638.09 614H1620.52L1679.92 506.92H1697.49ZM1689.66 581.773C1689.66 587.975 1690.19 592.613 1691.27 595.689C1692.39 598.717 1694.17 600.23 1696.62 600.23C1701.3 600.23 1703.65 594.078 1703.65 581.773C1703.65 569.566 1701.3 563.463 1696.62 563.463C1694.17 563.463 1692.39 564.977 1691.27 568.004C1690.19 570.982 1689.66 575.572 1689.66 581.773ZM1722.1 581.627C1722.1 592.809 1719.93 601.231 1715.58 606.896C1711.24 612.511 1704.87 615.318 1696.47 615.318C1688.41 615.318 1682.19 612.438 1677.79 606.676C1673.4 600.865 1671.2 592.516 1671.2 581.627C1671.2 559.312 1679.62 548.155 1696.47 548.155C1704.72 548.155 1711.04 551.061 1715.44 556.871C1719.88 562.633 1722.1 570.885 1722.1 581.627Z" fill="#FF0000"/>
<path d="M1352.96 337H1330.33V275.037L1330.55 264.856L1330.92 253.724C1327.16 257.483 1324.54 259.949 1323.08 261.121L1310.78 271.009L1299.86 257.386L1334.36 229.92H1352.96V337ZM1438.66 337H1416.02V275.037L1416.24 264.856L1416.61 253.724C1412.85 257.483 1410.24 259.949 1408.77 261.121L1396.47 271.009L1385.56 257.386L1420.05 229.92H1438.66V337ZM1496 321.253C1493.47 331.116 1489.17 342.811 1483.11 356.336H1467C1470.17 343.348 1472.64 331.092 1474.4 319.568H1494.91L1496 321.253ZM1511.17 291.517C1511.17 270.325 1515.63 254.554 1524.57 244.202C1533.55 233.851 1546.98 228.675 1564.85 228.675C1570.96 228.675 1575.74 229.041 1579.21 229.773V247.864C1574.86 246.888 1570.57 246.399 1566.32 246.399C1558.55 246.399 1552.21 247.571 1547.27 249.915C1542.39 252.259 1538.73 255.726 1536.29 260.315C1533.85 264.905 1532.41 271.424 1531.97 279.871H1532.92C1537.75 271.57 1545.49 267.42 1556.14 267.42C1565.71 267.42 1573.2 270.423 1578.62 276.429C1584.04 282.435 1586.75 290.735 1586.75 301.331C1586.75 312.757 1583.53 321.814 1577.08 328.504C1570.64 335.145 1561.7 338.465 1550.28 338.465C1542.37 338.465 1535.46 336.634 1529.55 332.972C1523.69 329.31 1519.15 323.963 1515.93 316.932C1512.75 309.9 1511.17 301.429 1511.17 291.517ZM1549.84 320.374C1554.67 320.374 1558.38 318.763 1560.97 315.54C1563.56 312.269 1564.85 307.63 1564.85 301.624C1564.85 296.399 1563.63 292.298 1561.19 289.319C1558.8 286.292 1555.16 284.778 1550.28 284.778C1545.69 284.778 1541.76 286.268 1538.49 289.246C1535.26 292.225 1533.65 295.691 1533.65 299.646C1533.65 305.457 1535.17 310.364 1538.19 314.368C1541.27 318.372 1545.15 320.374 1549.84 320.374ZM1614.66 262C1614.66 268.201 1615.19 272.84 1616.27 275.916C1617.39 278.943 1619.17 280.457 1621.62 280.457C1626.3 280.457 1628.65 274.305 1628.65 262C1628.65 249.793 1626.3 243.689 1621.62 243.689C1619.17 243.689 1617.39 245.203 1616.27 248.23C1615.19 251.209 1614.66 255.799 1614.66 262ZM1647.1 261.854C1647.1 273.084 1644.93 281.531 1640.58 287.195C1636.24 292.811 1629.87 295.618 1621.47 295.618C1613.41 295.618 1607.19 292.737 1602.79 286.976C1598.4 281.165 1596.2 272.791 1596.2 261.854C1596.2 239.539 1604.62 228.382 1621.47 228.382C1629.72 228.382 1636.04 231.287 1640.44 237.098C1644.88 242.859 1647.1 251.111 1647.1 261.854ZM1697.49 229.92L1638.09 337H1620.52L1679.92 229.92H1697.49ZM1689.66 304.773C1689.66 310.975 1690.19 315.613 1691.27 318.689C1692.39 321.717 1694.17 323.23 1696.62 323.23C1701.3 323.23 1703.65 317.078 1703.65 304.773C1703.65 292.566 1701.3 286.463 1696.62 286.463C1694.17 286.463 1692.39 287.977 1691.27 291.004C1690.19 293.982 1689.66 298.572 1689.66 304.773ZM1722.1 304.627C1722.1 315.809 1719.93 324.231 1715.58 329.896C1711.24 335.511 1704.87 338.318 1696.47 338.318C1688.41 338.318 1682.19 335.438 1677.79 329.676C1673.4 323.865 1671.2 315.516 1671.2 304.627C1671.2 282.312 1679.62 271.155 1696.47 271.155C1704.72 271.155 1711.04 274.061 1715.44 279.871C1719.88 285.633 1722.1 293.885 1722.1 304.627Z" fill="#01F859"/>
<circle cx="1827.5" cy="563.5" r="38.5" fill="#212B4B"/>
<line x1="1813.47" y1="550.525" x2="1842.47" y2="579.525" stroke="#FF0000" stroke-width="7"/>
<line x1="1842.47" y1="549.475" x2="1813.47" y2="578.475" stroke="#FF0000" stroke-width="7"/>
<circle cx="1165.5" cy="563.5" r="38.5" fill="#212B4B"/>
<line x1="1151.47" y1="550.525" x2="1180.47" y2="579.525" stroke="#FF0000" stroke-width="7"/>
<line x1="1180.47" y1="549.475" x2="1151.47" y2="578.475" stroke="#FF0000" stroke-width="7"/>
<defs>
<linearGradient id="paint0_linear" x1="1975" y1="844.976" x2="0" y2="845" gradientUnits="userSpaceOnUse">
<stop stop-color="#00CD77"/>
<stop offset="0.410127" stop-color="#6A7186"/>
</linearGradient>
</defs>
</svg>
