<svg width="1975" height="1070" viewBox="0 0 1975 1070" fill="none" xmlns="http://www.w3.org/2000/svg">
<rect x="564" width="645" height="1070" fill="#C4C4C4" fill-opacity="0.05"/>
<path d="M27.9531 101H3.00195V95.751L11.9619 86.6934C14.6149 83.9753 16.3483 82.0954 17.1621 81.0537C17.9759 79.9958 18.5618 79.0192 18.9199 78.124C19.278 77.2288 19.457 76.3011 19.457 75.3408C19.457 73.9085 19.0583 72.8424 18.2607 72.1426C17.4795 71.4427 16.4297 71.0928 15.1113 71.0928C13.7279 71.0928 12.3851 71.4102 11.083 72.0449C9.78092 72.6797 8.42188 73.583 7.00586 74.7549L2.9043 69.8965C4.66211 68.3991 6.11882 67.3411 7.27441 66.7227C8.43001 66.1042 9.69141 65.6322 11.0586 65.3066C12.4258 64.9648 13.9557 64.7939 15.6484 64.7939C17.8783 64.7939 19.8477 65.2008 21.5566 66.0146C23.2656 66.8285 24.5921 67.9678 25.5361 69.4326C26.4801 70.8975 26.9521 72.5739 26.9521 74.4619C26.9521 76.1058 26.6592 77.652 26.0732 79.1006C25.5036 80.5329 24.6084 82.0059 23.3877 83.5195C22.1833 85.0332 20.0511 87.1898 16.9912 89.9893L12.4014 94.3105V94.6523H27.9531V101ZM56.3223 83.1533C56.3223 89.387 55.2969 94.0013 53.2461 96.9961C51.2116 99.9909 48.0703 101.488 43.8223 101.488C39.7044 101.488 36.5957 99.9421 34.4961 96.8496C32.4128 93.7572 31.3711 89.1917 31.3711 83.1533C31.3711 76.8545 32.3883 72.2158 34.4229 69.2373C36.4574 66.2425 39.5905 64.7451 43.8223 64.7451C47.9401 64.7451 51.0488 66.3076 53.1484 69.4326C55.2643 72.5576 56.3223 77.1312 56.3223 83.1533ZM38.8662 83.1533C38.8662 87.5316 39.2406 90.6729 39.9893 92.5771C40.7542 94.4652 42.0319 95.4092 43.8223 95.4092C45.5801 95.4092 46.8496 94.4489 47.6309 92.5283C48.4121 90.6077 48.8027 87.4827 48.8027 83.1533C48.8027 78.7751 48.404 75.6338 47.6064 73.7295C46.8252 71.8089 45.5638 70.8486 43.8223 70.8486C42.0482 70.8486 40.7786 71.8089 40.0137 73.7295C39.2487 75.6338 38.8662 78.7751 38.8662 83.1533ZM78.7832 101H71.2393V80.3457L71.3125 76.9521L71.4346 73.2412C70.1813 74.4945 69.3105 75.3164 68.8223 75.707L64.7207 79.0029L61.083 74.4619L72.582 65.3066H78.7832V101ZM101 64.8428C104.418 64.8428 107.169 65.624 109.252 67.1865C111.352 68.7327 112.401 70.8242 112.401 73.4609C112.401 75.2839 111.897 76.9115 110.888 78.3438C109.879 79.7598 108.251 81.0293 106.005 82.1523C108.674 83.5846 110.587 85.082 111.742 86.6445C112.914 88.1908 113.5 89.8916 113.5 91.7471C113.5 94.6768 112.353 97.0368 110.058 98.8271C107.763 100.601 104.743 101.488 101 101.488C97.0938 101.488 94.0257 100.658 91.7959 98.998C89.5661 97.3379 88.4512 94.986 88.4512 91.9424C88.4512 89.9079 88.9883 88.1012 90.0625 86.5225C91.153 84.9437 92.8945 83.5521 95.2871 82.3477C93.2526 81.0618 91.7878 79.6865 90.8926 78.2217C89.9974 76.7568 89.5498 75.1536 89.5498 73.4121C89.5498 70.8568 90.6077 68.7897 92.7236 67.2109C94.8395 65.6322 97.5983 64.8428 101 64.8428ZM95.4336 91.5029C95.4336 92.9027 95.9219 93.9932 96.8984 94.7744C97.875 95.5557 99.2096 95.9463 100.902 95.9463C102.774 95.9463 104.174 95.5475 105.102 94.75C106.029 93.9362 106.493 92.8701 106.493 91.5518C106.493 90.4613 106.029 89.444 105.102 88.5C104.19 87.5397 102.701 86.5225 100.634 85.4482C97.167 87.0433 95.4336 89.0615 95.4336 91.5029ZM100.951 70.3604C99.6654 70.3604 98.6237 70.694 97.8262 71.3613C97.0449 72.0124 96.6543 72.8913 96.6543 73.998C96.6543 74.9746 96.9635 75.8535 97.582 76.6348C98.2168 77.3997 99.3561 78.1891 101 79.0029C102.595 78.2542 103.71 77.4893 104.345 76.708C104.979 75.9268 105.297 75.0234 105.297 73.998C105.297 72.875 104.89 71.988 104.076 71.3369C103.262 70.6859 102.221 70.3604 100.951 70.3604Z" fill="white"/>
<path d="M672.953 101H648.002V95.751L656.962 86.6934C659.615 83.9753 661.348 82.0954 662.162 81.0537C662.976 79.9958 663.562 79.0192 663.92 78.124C664.278 77.2288 664.457 76.3011 664.457 75.3408C664.457 73.9085 664.058 72.8424 663.261 72.1426C662.479 71.4427 661.43 71.0928 660.111 71.0928C658.728 71.0928 657.385 71.4102 656.083 72.0449C654.781 72.6797 653.422 73.583 652.006 74.7549L647.904 69.8965C649.662 68.3991 651.119 67.3411 652.274 66.7227C653.43 66.1042 654.691 65.6322 656.059 65.3066C657.426 64.9648 658.956 64.7939 660.648 64.7939C662.878 64.7939 664.848 65.2008 666.557 66.0146C668.266 66.8285 669.592 67.9678 670.536 69.4326C671.48 70.8975 671.952 72.5739 671.952 74.4619C671.952 76.1058 671.659 77.652 671.073 79.1006C670.504 80.5329 669.608 82.0059 668.388 83.5195C667.183 85.0332 665.051 87.1898 661.991 89.9893L657.401 94.3105V94.6523H672.953V101ZM701.322 83.1533C701.322 89.387 700.297 94.0013 698.246 96.9961C696.212 99.9909 693.07 101.488 688.822 101.488C684.704 101.488 681.596 99.9421 679.496 96.8496C677.413 93.7572 676.371 89.1917 676.371 83.1533C676.371 76.8545 677.388 72.2158 679.423 69.2373C681.457 66.2425 684.59 64.7451 688.822 64.7451C692.94 64.7451 696.049 66.3076 698.148 69.4326C700.264 72.5576 701.322 77.1312 701.322 83.1533ZM683.866 83.1533C683.866 87.5316 684.241 90.6729 684.989 92.5771C685.754 94.4652 687.032 95.4092 688.822 95.4092C690.58 95.4092 691.85 94.4489 692.631 92.5283C693.412 90.6077 693.803 87.4827 693.803 83.1533C693.803 78.7751 693.404 75.6338 692.606 73.7295C691.825 71.8089 690.564 70.8486 688.822 70.8486C687.048 70.8486 685.779 71.8089 685.014 73.7295C684.249 75.6338 683.866 78.7751 683.866 83.1533ZM723.783 101H716.239V80.3457L716.312 76.9521L716.435 73.2412C715.181 74.4945 714.311 75.3164 713.822 75.707L709.721 79.0029L706.083 74.4619L717.582 65.3066H723.783V101ZM758.5 80.541C758.5 87.5723 757.019 92.8213 754.057 96.2881C751.094 99.7549 746.61 101.488 740.604 101.488C738.489 101.488 736.885 101.374 735.795 101.146V95.0918C737.162 95.4336 738.594 95.6045 740.092 95.6045C742.615 95.6045 744.69 95.2383 746.317 94.5059C747.945 93.7572 749.19 92.5934 750.053 91.0146C750.915 89.4196 751.412 87.2305 751.542 84.4473H751.249C750.305 85.9772 749.215 87.0514 747.978 87.6699C746.741 88.2884 745.194 88.5977 743.339 88.5977C740.23 88.5977 737.781 87.6048 735.99 85.6191C734.2 83.6172 733.305 80.8421 733.305 77.2939C733.305 73.4691 734.387 70.4499 736.552 68.2363C738.733 66.0065 741.695 64.8916 745.438 64.8916C748.075 64.8916 750.378 65.5101 752.348 66.7471C754.333 67.984 755.855 69.7826 756.913 72.1426C757.971 74.4863 758.5 77.2858 758.5 80.541ZM745.585 70.9463C744.022 70.9463 742.802 71.4834 741.923 72.5576C741.044 73.6318 740.604 75.1781 740.604 77.1963C740.604 78.9215 741.003 80.2887 741.801 81.2979C742.598 82.307 743.811 82.8115 745.438 82.8115C746.968 82.8115 748.279 82.3151 749.369 81.3223C750.46 80.3132 751.005 79.1576 751.005 77.8555C751.005 75.9186 750.492 74.2829 749.467 72.9482C748.458 71.6136 747.164 70.9463 745.585 70.9463Z" fill="white"/>
<path d="M1317.95 101H1293V95.751L1301.96 86.6934C1304.61 83.9753 1306.35 82.0954 1307.16 81.0537C1307.98 79.9958 1308.56 79.0192 1308.92 78.124C1309.28 77.2288 1309.46 76.3011 1309.46 75.3408C1309.46 73.9085 1309.06 72.8424 1308.26 72.1426C1307.48 71.4427 1306.43 71.0928 1305.11 71.0928C1303.73 71.0928 1302.39 71.4102 1301.08 72.0449C1299.78 72.6797 1298.42 73.583 1297.01 74.7549L1292.9 69.8965C1294.66 68.3991 1296.12 67.3411 1297.27 66.7227C1298.43 66.1042 1299.69 65.6322 1301.06 65.3066C1302.43 64.9648 1303.96 64.7939 1305.65 64.7939C1307.88 64.7939 1309.85 65.2008 1311.56 66.0146C1313.27 66.8285 1314.59 67.9678 1315.54 69.4326C1316.48 70.8975 1316.95 72.5739 1316.95 74.4619C1316.95 76.1058 1316.66 77.652 1316.07 79.1006C1315.5 80.5329 1314.61 82.0059 1313.39 83.5195C1312.18 85.0332 1310.05 87.1898 1306.99 89.9893L1302.4 94.3105V94.6523H1317.95V101ZM1346.32 83.1533C1346.32 89.387 1345.3 94.0013 1343.25 96.9961C1341.21 99.9909 1338.07 101.488 1333.82 101.488C1329.7 101.488 1326.6 99.9421 1324.5 96.8496C1322.41 93.7572 1321.37 89.1917 1321.37 83.1533C1321.37 76.8545 1322.39 72.2158 1324.42 69.2373C1326.46 66.2425 1329.59 64.7451 1333.82 64.7451C1337.94 64.7451 1341.05 66.3076 1343.15 69.4326C1345.26 72.5576 1346.32 77.1312 1346.32 83.1533ZM1328.87 83.1533C1328.87 87.5316 1329.24 90.6729 1329.99 92.5771C1330.75 94.4652 1332.03 95.4092 1333.82 95.4092C1335.58 95.4092 1336.85 94.4489 1337.63 92.5283C1338.41 90.6077 1338.8 87.4827 1338.8 83.1533C1338.8 78.7751 1338.4 75.6338 1337.61 73.7295C1336.83 71.8089 1335.56 70.8486 1333.82 70.8486C1332.05 70.8486 1330.78 71.8089 1330.01 73.7295C1329.25 75.6338 1328.87 78.7751 1328.87 83.1533ZM1375.08 101H1350.13V95.751L1359.09 86.6934C1361.74 83.9753 1363.48 82.0954 1364.29 81.0537C1365.1 79.9958 1365.69 79.0192 1366.05 78.124C1366.41 77.2288 1366.59 76.3011 1366.59 75.3408C1366.59 73.9085 1366.19 72.8424 1365.39 72.1426C1364.61 71.4427 1363.56 71.0928 1362.24 71.0928C1360.86 71.0928 1359.51 71.4102 1358.21 72.0449C1356.91 72.6797 1355.55 73.583 1354.13 74.7549L1350.03 69.8965C1351.79 68.3991 1353.25 67.3411 1354.4 66.7227C1355.56 66.1042 1356.82 65.6322 1358.19 65.3066C1359.55 64.9648 1361.08 64.7939 1362.78 64.7939C1365.01 64.7939 1366.98 65.2008 1368.69 66.0146C1370.39 66.8285 1371.72 67.9678 1372.67 69.4326C1373.61 70.8975 1374.08 72.5739 1374.08 74.4619C1374.08 76.1058 1373.79 77.652 1373.2 79.1006C1372.63 80.5329 1371.74 82.0059 1370.52 83.5195C1369.31 85.0332 1367.18 87.1898 1364.12 89.9893L1359.53 94.3105V94.6523H1375.08V101ZM1403.45 83.1533C1403.45 89.387 1402.43 94.0013 1400.38 96.9961C1398.34 99.9909 1395.2 101.488 1390.95 101.488C1386.83 101.488 1383.72 99.9421 1381.62 96.8496C1379.54 93.7572 1378.5 89.1917 1378.5 83.1533C1378.5 76.8545 1379.52 72.2158 1381.55 69.2373C1383.59 66.2425 1386.72 64.7451 1390.95 64.7451C1395.07 64.7451 1398.18 66.3076 1400.28 69.4326C1402.39 72.5576 1403.45 77.1312 1403.45 83.1533ZM1386 83.1533C1386 87.5316 1386.37 90.6729 1387.12 92.5771C1387.88 94.4652 1389.16 95.4092 1390.95 95.4092C1392.71 95.4092 1393.98 94.4489 1394.76 92.5283C1395.54 90.6077 1395.93 87.4827 1395.93 83.1533C1395.93 78.7751 1395.53 75.6338 1394.74 73.7295C1393.95 71.8089 1392.69 70.8486 1390.95 70.8486C1389.18 70.8486 1387.91 71.8089 1387.14 73.7295C1386.38 75.6338 1386 78.7751 1386 83.1533Z" fill="white"/>
<line x1="1" y1="133" x2="1975" y2="133" stroke="#6A7186" stroke-width="4"/>
<line x1="-3.49691e-06" y1="832" x2="1975" y2="832" stroke="url(#paint0_linear)" stroke-width="80"/>
<path d="M33.9258 815.445H41.9922C45.7812 815.445 48.5221 816.012 50.2148 817.145C51.9076 818.277 52.7539 820.068 52.7539 822.516C52.7539 824.208 52.2786 825.608 51.3281 826.715C50.3906 827.809 49.0169 828.518 47.207 828.844V829.039C51.543 829.781 53.7109 832.06 53.7109 835.875C53.7109 838.427 52.8451 840.419 51.1133 841.852C49.3945 843.284 46.9857 844 43.8867 844H33.9258V815.445ZM37.2461 827.672H42.7148C45.0586 827.672 46.7448 827.307 47.7734 826.578C48.8021 825.836 49.3164 824.592 49.3164 822.848C49.3164 821.246 48.7435 820.094 47.5977 819.391C46.4518 818.674 44.6289 818.316 42.1289 818.316H37.2461V827.672ZM37.2461 830.484V841.168H43.2031C45.5078 841.168 47.2396 840.725 48.3984 839.84C49.5703 838.941 50.1562 837.542 50.1562 835.641C50.1562 833.87 49.5573 832.568 48.3594 831.734C47.1745 830.901 45.3646 830.484 42.9297 830.484H37.2461ZM68.418 844.391C65.2539 844.391 62.7539 843.427 60.918 841.5C59.0951 839.573 58.1836 836.897 58.1836 833.473C58.1836 830.022 59.0299 827.281 60.7227 825.25C62.4284 823.219 64.7135 822.203 67.5781 822.203C70.2604 822.203 72.3828 823.089 73.9453 824.859C75.5078 826.617 76.2891 828.941 76.2891 831.832V833.883H61.543C61.6081 836.396 62.2396 838.303 63.4375 839.605C64.6484 840.908 66.3477 841.559 68.5352 841.559C70.8398 841.559 73.1185 841.077 75.3711 840.113V843.004C74.2253 843.499 73.138 843.85 72.1094 844.059C71.0938 844.28 69.8633 844.391 68.418 844.391ZM67.5391 824.918C65.8203 824.918 64.4466 825.478 63.418 826.598C62.4023 827.717 61.8034 829.267 61.6211 831.246H72.8125C72.8125 829.202 72.3568 827.639 71.4453 826.559C70.5339 825.465 69.2318 824.918 67.5391 824.918ZM97.793 844H94.5117V825.367H88.0859C87.7344 830.003 87.2461 833.681 86.6211 836.402C85.9961 839.124 85.1823 841.116 84.1797 842.379C83.1901 843.642 81.9271 844.273 80.3906 844.273C79.6875 844.273 79.1276 844.195 78.7109 844.039V841.637C78.9974 841.715 79.3229 841.754 79.6875 841.754C81.1849 841.754 82.3763 840.172 83.2617 837.008C84.1471 833.844 84.8177 829.039 85.2734 822.594H97.793V844ZM107.734 822.594V836.168L107.598 839.723L107.539 840.836L119.121 822.594H123.164V844H120.137V830.914L120.195 828.336L120.293 825.797L108.73 844H104.688V822.594H107.734ZM132.891 822.594V830.406C132.891 832.906 134.316 834.156 137.168 834.156C138.353 834.156 139.486 833.974 140.566 833.609C141.647 833.245 142.871 832.626 144.238 831.754V822.594H147.48V844H144.238V834.312C142.871 835.25 141.602 835.914 140.43 836.305C139.271 836.682 137.956 836.871 136.484 836.871C134.349 836.871 132.676 836.311 131.465 835.191C130.254 834.072 129.648 832.555 129.648 830.641V822.594H132.891ZM157.422 822.594V836.168L157.285 839.723L157.227 840.836L168.809 822.594H172.852V844H169.824V830.914L169.883 828.336L169.98 825.797L158.418 844H154.375V822.594H157.422ZM182.969 822.594V831.559H194.961V822.594H198.203V844H194.961V834.352H182.969V844H179.727V822.594H182.969ZM218.242 844L217.598 840.953H217.441C216.374 842.294 215.306 843.206 214.238 843.688C213.184 844.156 211.862 844.391 210.273 844.391C208.151 844.391 206.484 843.844 205.273 842.75C204.076 841.656 203.477 840.1 203.477 838.082C203.477 833.759 206.934 831.493 213.848 831.285L217.48 831.168V829.84C217.48 828.16 217.116 826.923 216.387 826.129C215.671 825.322 214.518 824.918 212.93 824.918C211.146 824.918 209.128 825.465 206.875 826.559L205.879 824.078C206.934 823.505 208.086 823.056 209.336 822.73C210.599 822.405 211.862 822.242 213.125 822.242C215.677 822.242 217.565 822.809 218.789 823.941C220.026 825.074 220.645 826.891 220.645 829.391V844H218.242ZM210.918 841.715C212.936 841.715 214.518 841.161 215.664 840.055C216.823 838.948 217.402 837.398 217.402 835.406V833.473L214.16 833.609C211.582 833.701 209.72 834.104 208.574 834.82C207.441 835.523 206.875 836.624 206.875 838.121C206.875 839.293 207.227 840.185 207.93 840.797C208.646 841.409 209.642 841.715 210.918 841.715ZM246.289 844.391C243.19 844.391 240.788 843.44 239.082 841.539C237.389 839.625 236.543 836.923 236.543 833.434C236.543 829.853 237.402 827.086 239.121 825.133C240.853 823.18 243.314 822.203 246.504 822.203C247.533 822.203 248.561 822.314 249.59 822.535C250.618 822.757 251.426 823.017 252.012 823.316L251.016 826.07C250.299 825.784 249.518 825.549 248.672 825.367C247.826 825.172 247.077 825.074 246.426 825.074C242.077 825.074 239.902 827.848 239.902 833.395C239.902 836.025 240.43 838.043 241.484 839.449C242.552 840.855 244.128 841.559 246.211 841.559C247.995 841.559 249.824 841.174 251.699 840.406V843.277C250.267 844.02 248.464 844.391 246.289 844.391ZM266.758 844.391C265.365 844.391 264.089 844.137 262.93 843.629C261.784 843.108 260.82 842.314 260.039 841.246H259.805C259.961 842.496 260.039 843.681 260.039 844.801V853.609H256.797V822.594H259.434L259.883 825.523H260.039C260.872 824.352 261.842 823.505 262.949 822.984C264.056 822.464 265.326 822.203 266.758 822.203C269.596 822.203 271.784 823.173 273.32 825.113C274.87 827.053 275.645 829.775 275.645 833.277C275.645 836.793 274.857 839.527 273.281 841.48C271.719 843.421 269.544 844.391 266.758 844.391ZM266.289 824.957C264.102 824.957 262.52 825.562 261.543 826.773C260.566 827.984 260.065 829.911 260.039 832.555V833.277C260.039 836.285 260.54 838.44 261.543 839.742C262.546 841.031 264.154 841.676 266.367 841.676C268.216 841.676 269.661 840.927 270.703 839.43C271.758 837.932 272.285 835.868 272.285 833.238C272.285 830.569 271.758 828.525 270.703 827.105C269.661 825.673 268.19 824.957 266.289 824.957ZM290.371 844.391C287.207 844.391 284.707 843.427 282.871 841.5C281.048 839.573 280.137 836.897 280.137 833.473C280.137 830.022 280.983 827.281 282.676 825.25C284.382 823.219 286.667 822.203 289.531 822.203C292.214 822.203 294.336 823.089 295.898 824.859C297.461 826.617 298.242 828.941 298.242 831.832V833.883H283.496C283.561 836.396 284.193 838.303 285.391 839.605C286.602 840.908 288.301 841.559 290.488 841.559C292.793 841.559 295.072 841.077 297.324 840.113V843.004C296.178 843.499 295.091 843.85 294.062 844.059C293.047 844.28 291.816 844.391 290.371 844.391ZM289.492 824.918C287.773 824.918 286.4 825.478 285.371 826.598C284.355 827.717 283.757 829.267 283.574 831.246H294.766C294.766 829.202 294.31 827.639 293.398 826.559C292.487 825.465 291.185 824.918 289.492 824.918ZM322.383 851.402H319.238V844H304.277V851.402H301.152V841.207H302.832C304.577 838.837 305.944 836.057 306.934 832.867C307.923 829.677 308.438 826.253 308.477 822.594H319.316V841.207H322.383V851.402ZM316.191 841.207V825.152H311.387C311.217 828.043 310.658 830.973 309.707 833.941C308.77 836.897 307.598 839.319 306.191 841.207H316.191ZM329.922 822.594V831.559H341.914V822.594H345.156V844H341.914V834.352H329.922V844H326.68V822.594H329.922ZM361.074 844.391C357.91 844.391 355.41 843.427 353.574 841.5C351.751 839.573 350.84 836.897 350.84 833.473C350.84 830.022 351.686 827.281 353.379 825.25C355.085 823.219 357.37 822.203 360.234 822.203C362.917 822.203 365.039 823.089 366.602 824.859C368.164 826.617 368.945 828.941 368.945 831.832V833.883H354.199C354.264 836.396 354.896 838.303 356.094 839.605C357.305 840.908 359.004 841.559 361.191 841.559C363.496 841.559 365.775 841.077 368.027 840.113V843.004C366.882 843.499 365.794 843.85 364.766 844.059C363.75 844.28 362.52 844.391 361.074 844.391ZM360.195 824.918C358.477 824.918 357.103 825.478 356.074 826.598C355.059 827.717 354.46 829.267 354.277 831.246H365.469C365.469 829.202 365.013 827.639 364.102 826.559C363.19 825.465 361.888 824.918 360.195 824.918ZM393.086 851.402H389.941V844H374.98V851.402H371.855V841.207H373.535C375.28 838.837 376.647 836.057 377.637 832.867C378.626 829.677 379.141 826.253 379.18 822.594H390.02V841.207H393.086V851.402ZM386.895 841.207V825.152H382.09C381.921 828.043 381.361 830.973 380.41 833.941C379.473 836.897 378.301 839.319 376.895 841.207H386.895ZM393.984 822.594H397.461L402.148 834.801C403.177 837.587 403.815 839.599 404.062 840.836H404.219C404.388 840.172 404.74 839.039 405.273 837.438C405.82 835.823 407.591 830.875 410.586 822.594H414.062L404.863 846.969C403.952 849.378 402.884 851.083 401.66 852.086C400.449 853.102 398.958 853.609 397.188 853.609C396.198 853.609 395.221 853.499 394.258 853.277V850.68C394.974 850.836 395.775 850.914 396.66 850.914C398.887 850.914 400.475 849.664 401.426 847.164L402.617 844.117L393.984 822.594ZM433.496 841.207H442.988V822.594H446.27V844H417.539V822.594H420.781V841.207H430.254V822.594H433.496V841.207ZM462.207 844.391C459.043 844.391 456.543 843.427 454.707 841.5C452.884 839.573 451.973 836.897 451.973 833.473C451.973 830.022 452.819 827.281 454.512 825.25C456.217 823.219 458.503 822.203 461.367 822.203C464.049 822.203 466.172 823.089 467.734 824.859C469.297 826.617 470.078 828.941 470.078 831.832V833.883H455.332C455.397 836.396 456.029 838.303 457.227 839.605C458.438 840.908 460.137 841.559 462.324 841.559C464.629 841.559 466.908 841.077 469.16 840.113V843.004C468.014 843.499 466.927 843.85 465.898 844.059C464.883 844.28 463.652 844.391 462.207 844.391ZM461.328 824.918C459.609 824.918 458.236 825.478 457.207 826.598C456.191 827.717 455.592 829.267 455.41 831.246H466.602C466.602 829.202 466.146 827.639 465.234 826.559C464.323 825.465 463.021 824.918 461.328 824.918ZM492.988 827.965C492.988 829.358 492.585 830.419 491.777 831.148C490.983 831.865 489.863 832.346 488.418 832.594V832.77C490.241 833.017 491.569 833.551 492.402 834.371C493.249 835.191 493.672 836.324 493.672 837.77C493.672 839.762 492.936 841.298 491.465 842.379C490.007 843.46 487.871 844 485.059 844H475.625V822.594H485.02C490.332 822.594 492.988 824.384 492.988 827.965ZM490.43 837.555C490.43 836.396 489.987 835.556 489.102 835.035C488.229 834.501 486.777 834.234 484.746 834.234H478.867V841.285H484.824C488.561 841.285 490.43 840.042 490.43 837.555ZM489.824 828.277C489.824 827.236 489.421 826.5 488.613 826.07C487.819 825.628 486.608 825.406 484.98 825.406H478.867V831.441H484.355C486.361 831.441 487.773 831.194 488.594 830.699C489.414 830.204 489.824 829.397 489.824 828.277ZM516.875 833.277C516.875 836.767 515.996 839.495 514.238 841.461C512.48 843.414 510.052 844.391 506.953 844.391C505.039 844.391 503.34 843.941 501.855 843.043C500.371 842.145 499.225 840.855 498.418 839.176C497.611 837.496 497.207 835.53 497.207 833.277C497.207 829.788 498.079 827.073 499.824 825.133C501.569 823.18 503.991 822.203 507.09 822.203C510.085 822.203 512.461 823.199 514.219 825.191C515.99 827.184 516.875 829.879 516.875 833.277ZM500.566 833.277C500.566 836.012 501.113 838.095 502.207 839.527C503.301 840.96 504.909 841.676 507.031 841.676C509.154 841.676 510.762 840.966 511.855 839.547C512.962 838.115 513.516 836.025 513.516 833.277C513.516 830.556 512.962 828.492 511.855 827.086C510.762 825.667 509.141 824.957 506.992 824.957C504.87 824.957 503.268 825.654 502.188 827.047C501.107 828.44 500.566 830.517 500.566 833.277ZM535.469 825.367H525.82V844H522.578V822.594H535.469V825.367ZM558.203 833.277C558.203 836.767 557.324 839.495 555.566 841.461C553.809 843.414 551.38 844.391 548.281 844.391C546.367 844.391 544.668 843.941 543.184 843.043C541.699 842.145 540.553 840.855 539.746 839.176C538.939 837.496 538.535 835.53 538.535 833.277C538.535 829.788 539.408 827.073 541.152 825.133C542.897 823.18 545.319 822.203 548.418 822.203C551.413 822.203 553.789 823.199 555.547 825.191C557.318 827.184 558.203 829.879 558.203 833.277ZM541.895 833.277C541.895 836.012 542.441 838.095 543.535 839.527C544.629 840.96 546.237 841.676 548.359 841.676C550.482 841.676 552.09 840.966 553.184 839.547C554.29 838.115 554.844 836.025 554.844 833.277C554.844 830.556 554.29 828.492 553.184 827.086C552.09 825.667 550.469 824.957 548.32 824.957C546.198 824.957 544.596 825.654 543.516 827.047C542.435 828.44 541.895 830.517 541.895 833.277ZM592.891 851.402H589.746V844H574.785V851.402H571.66V841.207H573.34C575.085 838.837 576.452 836.057 577.441 832.867C578.431 829.677 578.945 826.253 578.984 822.594H589.824V841.207H592.891V851.402ZM586.699 841.207V825.152H581.895C581.725 828.043 581.165 830.973 580.215 833.941C579.277 836.897 578.105 839.319 576.699 841.207H586.699ZM606.23 844.391C603.066 844.391 600.566 843.427 598.73 841.5C596.908 839.573 595.996 836.897 595.996 833.473C595.996 830.022 596.842 827.281 598.535 825.25C600.241 823.219 602.526 822.203 605.391 822.203C608.073 822.203 610.195 823.089 611.758 824.859C613.32 826.617 614.102 828.941 614.102 831.832V833.883H599.355C599.421 836.396 600.052 838.303 601.25 839.605C602.461 840.908 604.16 841.559 606.348 841.559C608.652 841.559 610.931 841.077 613.184 840.113V843.004C612.038 843.499 610.951 843.85 609.922 844.059C608.906 844.28 607.676 844.391 606.23 844.391ZM605.352 824.918C603.633 824.918 602.259 825.478 601.23 826.598C600.215 827.717 599.616 829.267 599.434 831.246H610.625C610.625 829.202 610.169 827.639 609.258 826.559C608.346 825.465 607.044 824.918 605.352 824.918ZM622.891 822.594V831.559H634.883V822.594H638.125V844H634.883V834.352H622.891V844H619.648V822.594H622.891ZM654.043 844.391C650.879 844.391 648.379 843.427 646.543 841.5C644.72 839.573 643.809 836.897 643.809 833.473C643.809 830.022 644.655 827.281 646.348 825.25C648.053 823.219 650.339 822.203 653.203 822.203C655.885 822.203 658.008 823.089 659.57 824.859C661.133 826.617 661.914 828.941 661.914 831.832V833.883H647.168C647.233 836.396 647.865 838.303 649.062 839.605C650.273 840.908 651.973 841.559 654.16 841.559C656.465 841.559 658.743 841.077 660.996 840.113V843.004C659.85 843.499 658.763 843.85 657.734 844.059C656.719 844.28 655.488 844.391 654.043 844.391ZM653.164 824.918C651.445 824.918 650.072 825.478 649.043 826.598C648.027 827.717 647.428 829.267 647.246 831.246H658.438C658.438 829.202 657.982 827.639 657.07 826.559C656.159 825.465 654.857 824.918 653.164 824.918ZM677.227 822.633H680.215V833.004L689.062 822.633H692.617L683.672 833.004L693.379 844H689.629L680.215 833.16V844H677.227V833.16L667.832 844H664.102L673.789 833.004L664.863 822.633H668.418L677.227 833.004V822.633ZM700.156 822.594V831.559H712.148V822.594H715.391V844H712.148V834.352H700.156V844H696.914V822.594H700.156ZM740.742 833.277C740.742 836.767 739.863 839.495 738.105 841.461C736.348 843.414 733.919 844.391 730.82 844.391C728.906 844.391 727.207 843.941 725.723 843.043C724.238 842.145 723.092 840.855 722.285 839.176C721.478 837.496 721.074 835.53 721.074 833.277C721.074 829.788 721.947 827.073 723.691 825.133C725.436 823.18 727.858 822.203 730.957 822.203C733.952 822.203 736.328 823.199 738.086 825.191C739.857 827.184 740.742 829.879 740.742 833.277ZM724.434 833.277C724.434 836.012 724.98 838.095 726.074 839.527C727.168 840.96 728.776 841.676 730.898 841.676C733.021 841.676 734.629 840.966 735.723 839.547C736.829 838.115 737.383 836.025 737.383 833.277C737.383 830.556 736.829 828.492 735.723 827.086C734.629 825.667 733.008 824.957 730.859 824.957C728.737 824.957 727.135 825.654 726.055 827.047C724.974 828.44 724.434 830.517 724.434 833.277ZM759.336 825.367H749.688V844H746.445V822.594H759.336V825.367ZM782.07 833.277C782.07 836.767 781.191 839.495 779.434 841.461C777.676 843.414 775.247 844.391 772.148 844.391C770.234 844.391 768.535 843.941 767.051 843.043C765.566 842.145 764.421 840.855 763.613 839.176C762.806 837.496 762.402 835.53 762.402 833.277C762.402 829.788 763.275 827.073 765.02 825.133C766.764 823.18 769.186 822.203 772.285 822.203C775.28 822.203 777.656 823.199 779.414 825.191C781.185 827.184 782.07 829.879 782.07 833.277ZM765.762 833.277C765.762 836.012 766.309 838.095 767.402 839.527C768.496 840.96 770.104 841.676 772.227 841.676C774.349 841.676 775.957 840.966 777.051 839.547C778.158 838.115 778.711 836.025 778.711 833.277C778.711 830.556 778.158 828.492 777.051 827.086C775.957 825.667 774.336 824.957 772.188 824.957C770.065 824.957 768.464 825.654 767.383 827.047C766.302 828.44 765.762 830.517 765.762 833.277ZM816.758 851.402H813.613V844H798.652V851.402H795.527V841.207H797.207C798.952 838.837 800.319 836.057 801.309 832.867C802.298 829.677 802.812 826.253 802.852 822.594H813.691V841.207H816.758V851.402ZM810.566 841.207V825.152H805.762C805.592 828.043 805.033 830.973 804.082 833.941C803.145 836.897 801.973 839.319 800.566 841.207H810.566ZM839.531 833.277C839.531 836.767 838.652 839.495 836.895 841.461C835.137 843.414 832.708 844.391 829.609 844.391C827.695 844.391 825.996 843.941 824.512 843.043C823.027 842.145 821.882 840.855 821.074 839.176C820.267 837.496 819.863 835.53 819.863 833.277C819.863 829.788 820.736 827.073 822.48 825.133C824.225 823.18 826.647 822.203 829.746 822.203C832.741 822.203 835.117 823.199 836.875 825.191C838.646 827.184 839.531 829.879 839.531 833.277ZM823.223 833.277C823.223 836.012 823.77 838.095 824.863 839.527C825.957 840.96 827.565 841.676 829.688 841.676C831.81 841.676 833.418 840.966 834.512 839.547C835.618 838.115 836.172 836.025 836.172 833.277C836.172 830.556 835.618 828.492 834.512 827.086C833.418 825.667 831.797 824.957 829.648 824.957C827.526 824.957 825.924 825.654 824.844 827.047C823.763 828.44 823.223 830.517 823.223 833.277ZM850.391 833.043L842.949 822.594H846.641L852.285 830.797L857.91 822.594H861.562L854.121 833.043L861.953 844H858.281L852.285 835.328L846.23 844H842.559L850.391 833.043ZM884.688 833.277C884.688 836.767 883.809 839.495 882.051 841.461C880.293 843.414 877.865 844.391 874.766 844.391C872.852 844.391 871.152 843.941 869.668 843.043C868.184 842.145 867.038 840.855 866.23 839.176C865.423 837.496 865.02 835.53 865.02 833.277C865.02 829.788 865.892 827.073 867.637 825.133C869.382 823.18 871.803 822.203 874.902 822.203C877.897 822.203 880.273 823.199 882.031 825.191C883.802 827.184 884.688 829.879 884.688 833.277ZM868.379 833.277C868.379 836.012 868.926 838.095 870.02 839.527C871.113 840.96 872.721 841.676 874.844 841.676C876.966 841.676 878.574 840.966 879.668 839.547C880.775 838.115 881.328 836.025 881.328 833.277C881.328 830.556 880.775 828.492 879.668 827.086C878.574 825.667 876.953 824.957 874.805 824.957C872.682 824.957 871.081 825.654 870 827.047C868.919 828.44 868.379 830.517 868.379 833.277ZM908.984 851.402H905.84V844H890.879V851.402H887.754V841.207H889.434C891.178 838.837 892.546 836.057 893.535 832.867C894.525 829.677 895.039 826.253 895.078 822.594H905.918V841.207H908.984V851.402ZM902.793 841.207V825.152H897.988C897.819 828.043 897.259 830.973 896.309 833.941C895.371 836.897 894.199 839.319 892.793 841.207H902.793ZM926.445 844L925.801 840.953H925.645C924.577 842.294 923.509 843.206 922.441 843.688C921.387 844.156 920.065 844.391 918.477 844.391C916.354 844.391 914.688 843.844 913.477 842.75C912.279 841.656 911.68 840.1 911.68 838.082C911.68 833.759 915.137 831.493 922.051 831.285L925.684 831.168V829.84C925.684 828.16 925.319 826.923 924.59 826.129C923.874 825.322 922.721 824.918 921.133 824.918C919.349 824.918 917.331 825.465 915.078 826.559L914.082 824.078C915.137 823.505 916.289 823.056 917.539 822.73C918.802 822.405 920.065 822.242 921.328 822.242C923.88 822.242 925.768 822.809 926.992 823.941C928.229 825.074 928.848 826.891 928.848 829.391V844H926.445ZM919.121 841.715C921.139 841.715 922.721 841.161 923.867 840.055C925.026 838.948 925.605 837.398 925.605 835.406V833.473L922.363 833.609C919.785 833.701 917.923 834.104 916.777 834.82C915.645 835.523 915.078 836.624 915.078 838.121C915.078 839.293 915.43 840.185 916.133 840.797C916.849 841.409 917.845 841.715 919.121 841.715Z" fill="white"/>
<path d="M4.27637 995.227V981.799H33.1191V995.227H4.27637Z" fill="#FF0000"/>
<path d="M702.235 957.038C702.235 961.944 700.749 966.115 697.777 969.553C694.805 972.99 690.634 975.354 685.263 976.643V976.965C691.601 977.753 696.399 979.686 699.657 982.766C702.916 985.809 704.545 989.927 704.545 995.119C704.545 1002.67 701.806 1008.56 696.327 1012.79C690.849 1016.98 683.025 1019.07 672.855 1019.07C664.333 1019.07 656.778 1017.66 650.189 1014.83V1000.71C653.233 1002.24 656.581 1003.5 660.233 1004.46C663.886 1005.43 667.502 1005.92 671.083 1005.92C676.562 1005.92 680.608 1004.98 683.222 1003.12C685.836 1001.26 687.143 998.27 687.143 994.152C687.143 990.464 685.639 987.85 682.631 986.311C679.623 984.771 674.825 984.001 668.236 984.001H662.274V971.271H668.344C674.431 971.271 678.871 970.484 681.664 968.908C684.493 967.297 685.907 964.558 685.907 960.69C685.907 954.746 682.183 951.774 674.735 951.774C672.157 951.774 669.525 952.204 666.84 953.063C664.19 953.923 661.236 955.409 657.978 957.521L650.297 946.081C657.458 940.925 665.998 938.347 675.917 938.347C684.045 938.347 690.455 939.994 695.146 943.288C699.872 946.582 702.235 951.166 702.235 957.038ZM721.034 1018L750.521 953.547H711.796V939.582H768.139V950.002L738.437 1018H721.034ZM845.697 1018H829.101V972.561L829.262 965.095L829.53 956.931C826.773 959.688 824.857 961.496 823.783 962.355L814.76 969.606L806.757 959.616L832.055 939.475H845.697V1018ZM894.574 938.454C902.094 938.454 908.145 940.173 912.729 943.61C917.348 947.012 919.657 951.613 919.657 957.414C919.657 961.424 918.547 965.005 916.327 968.156C914.107 971.271 910.526 974.064 905.585 976.535C911.457 979.686 915.665 982.98 918.207 986.418C920.785 989.82 922.074 993.562 922.074 997.644C922.074 1004.09 919.55 1009.28 914.501 1013.22C909.452 1017.12 902.81 1019.07 894.574 1019.07C885.98 1019.07 879.231 1017.25 874.325 1013.6C869.42 1009.94 866.967 1004.77 866.967 998.073C866.967 993.597 868.148 989.623 870.512 986.149C872.911 982.676 876.742 979.615 882.006 976.965C877.53 974.136 874.307 971.11 872.338 967.888C870.368 964.665 869.384 961.138 869.384 957.307C869.384 951.685 871.711 947.137 876.366 943.664C881.021 940.191 887.09 938.454 894.574 938.454ZM882.328 997.106C882.328 1000.19 883.402 1002.58 885.551 1004.3C887.699 1006.02 890.635 1006.88 894.359 1006.88C898.477 1006.88 901.557 1006 903.598 1004.25C905.639 1002.46 906.659 1000.11 906.659 997.214C906.659 994.815 905.639 992.577 903.598 990.5C901.592 988.387 898.316 986.149 893.769 983.786C886.142 987.295 882.328 991.735 882.328 997.106ZM894.467 950.593C891.638 950.593 889.346 951.327 887.592 952.795C885.873 954.227 885.014 956.161 885.014 958.596C885.014 960.744 885.694 962.678 887.055 964.396C888.451 966.079 890.958 967.816 894.574 969.606C898.083 967.959 900.536 966.276 901.933 964.558C903.329 962.839 904.027 960.852 904.027 958.596C904.027 956.125 903.132 954.174 901.342 952.741C899.551 951.309 897.26 950.593 894.467 950.593ZM984.809 978.737C984.809 992.451 982.553 1002.6 978.041 1009.19C973.565 1015.78 966.654 1019.07 957.309 1019.07C948.249 1019.07 941.41 1015.67 936.791 1008.87C932.208 1002.07 929.916 992.022 929.916 978.737C929.916 964.88 932.154 954.675 936.63 948.122C941.106 941.534 947.999 938.239 957.309 938.239C966.368 938.239 973.207 941.677 977.826 948.552C982.481 955.427 984.809 965.489 984.809 978.737ZM946.405 978.737C946.405 988.369 947.229 995.28 948.876 999.47C950.559 1003.62 953.37 1005.7 957.309 1005.7C961.176 1005.7 963.969 1003.59 965.688 999.362C967.406 995.137 968.266 988.262 968.266 978.737C968.266 969.105 967.388 962.194 965.634 958.005C963.915 953.78 961.14 951.667 957.309 951.667C953.406 951.667 950.613 953.78 948.93 958.005C947.247 962.194 946.405 969.105 946.405 978.737ZM1027.26 1018V1006.23H1018.46V995.56H1027.26V986.98H1018.46V973.34H1027.26V939.46H1052.34C1062.46 939.46 1069.83 941.513 1074.45 945.62C1079.14 949.727 1081.49 955.373 1081.49 962.56C1081.49 966.813 1080.53 970.81 1078.63 974.55C1076.72 978.29 1073.53 981.297 1069.06 983.57C1064.66 985.843 1058.64 986.98 1051.02 986.98H1043.87V995.56H1060.81V1006.23H1043.87V1018H1027.26ZM1049.37 973.34C1054.06 973.34 1057.76 972.533 1060.48 970.92C1063.26 969.307 1064.66 966.703 1064.66 963.11C1064.66 956.437 1060.26 953.1 1051.46 953.1H1043.87V973.34H1049.37Z" fill="#FF0000"/>
<path d="M1347.24 957.038C1347.24 961.944 1345.75 966.115 1342.78 969.553C1339.81 972.99 1335.63 975.354 1330.26 976.643V976.965C1336.6 977.753 1341.4 979.686 1344.66 982.766C1347.92 985.809 1349.54 989.927 1349.54 995.119C1349.54 1002.67 1346.81 1008.56 1341.33 1012.79C1335.85 1016.98 1328.02 1019.07 1317.86 1019.07C1309.33 1019.07 1301.78 1017.66 1295.19 1014.83V1000.71C1298.23 1002.24 1301.58 1003.5 1305.23 1004.46C1308.89 1005.43 1312.5 1005.92 1316.08 1005.92C1321.56 1005.92 1325.61 1004.98 1328.22 1003.12C1330.84 1001.26 1332.14 998.27 1332.14 994.152C1332.14 990.464 1330.64 987.85 1327.63 986.311C1324.62 984.771 1319.82 984.001 1313.24 984.001H1307.27V971.271H1313.34C1319.43 971.271 1323.87 970.484 1326.66 968.908C1329.49 967.297 1330.91 964.558 1330.91 960.69C1330.91 954.746 1327.18 951.774 1319.74 951.774C1317.16 951.774 1314.53 952.204 1311.84 953.063C1309.19 953.923 1306.24 955.409 1302.98 957.521L1295.3 946.081C1302.46 940.925 1311 938.347 1320.92 938.347C1329.05 938.347 1335.45 939.994 1340.15 943.288C1344.87 946.582 1347.24 951.166 1347.24 957.038ZM1357.71 984.646C1357.71 969.105 1360.99 957.539 1367.54 949.948C1374.13 942.357 1383.97 938.562 1397.08 938.562C1401.56 938.562 1405.06 938.83 1407.61 939.367V952.634C1404.42 951.918 1401.27 951.56 1398.15 951.56C1392.46 951.56 1387.81 952.419 1384.19 954.138C1380.61 955.856 1377.92 958.399 1376.13 961.765C1374.34 965.131 1373.29 969.911 1372.96 976.105H1373.66C1377.21 970.018 1382.88 966.975 1390.69 966.975C1397.71 966.975 1403.2 969.177 1407.18 973.581C1411.15 977.985 1413.14 984.073 1413.14 991.843C1413.14 1000.22 1410.78 1006.86 1406.05 1011.77C1401.32 1016.64 1394.77 1019.07 1386.39 1019.07C1380.59 1019.07 1375.52 1017.73 1371.19 1015.05C1366.89 1012.36 1363.56 1008.44 1361.2 1003.28C1358.87 998.127 1357.71 991.914 1357.71 984.646ZM1386.07 1005.81C1389.61 1005.81 1392.33 1004.63 1394.23 1002.26C1396.13 999.864 1397.08 996.462 1397.08 992.058C1397.08 988.226 1396.18 985.218 1394.39 983.034C1392.64 980.814 1389.97 979.704 1386.39 979.704C1383.02 979.704 1380.14 980.796 1377.74 982.98C1375.38 985.165 1374.2 987.707 1374.2 990.607C1374.2 994.868 1375.31 998.467 1377.53 1001.4C1379.78 1004.34 1382.63 1005.81 1386.07 1005.81ZM1504.23 972.99C1504.23 988.459 1500.97 1000.01 1494.46 1007.63C1487.94 1015.26 1478.08 1019.07 1464.86 1019.07C1460.21 1019.07 1456.68 1018.82 1454.28 1018.32V1005C1457.29 1005.75 1460.44 1006.13 1463.73 1006.13C1469.28 1006.13 1473.85 1005.32 1477.43 1003.71C1481.01 1002.07 1483.75 999.506 1485.65 996.032C1487.55 992.523 1488.64 987.707 1488.92 981.584H1488.28C1486.2 984.95 1483.8 987.313 1481.08 988.674C1478.36 990.035 1474.96 990.715 1470.88 990.715C1464.04 990.715 1458.65 988.531 1454.71 984.162C1450.77 979.758 1448.8 973.653 1448.8 965.847C1448.8 957.432 1451.18 950.79 1455.95 945.92C1460.74 941.014 1467.26 938.562 1475.5 938.562C1481.3 938.562 1486.36 939.922 1490.7 942.644C1495.07 945.365 1498.41 949.322 1500.74 954.514C1503.07 959.67 1504.23 965.829 1504.23 972.99ZM1475.82 951.882C1472.38 951.882 1469.7 953.063 1467.76 955.427C1465.83 957.79 1464.86 961.192 1464.86 965.632C1464.86 969.427 1465.74 972.435 1467.49 974.655C1469.25 976.875 1471.92 977.985 1475.5 977.985C1478.86 977.985 1481.75 976.893 1484.14 974.709C1486.54 972.489 1487.74 969.947 1487.74 967.082C1487.74 962.821 1486.62 959.222 1484.36 956.286C1482.14 953.35 1479.29 951.882 1475.82 951.882ZM1567.07 972.99C1567.07 988.459 1563.82 1000.01 1557.3 1007.63C1550.78 1015.26 1540.92 1019.07 1527.7 1019.07C1523.05 1019.07 1519.52 1018.82 1517.12 1018.32V1005C1520.13 1005.75 1523.28 1006.13 1526.58 1006.13C1532.13 1006.13 1536.69 1005.32 1540.27 1003.71C1543.85 1002.07 1546.59 999.506 1548.49 996.032C1550.39 992.523 1551.48 987.707 1551.77 981.584H1551.12C1549.05 984.95 1546.65 987.313 1543.92 988.674C1541.2 990.035 1537.8 990.715 1533.72 990.715C1526.88 990.715 1521.49 988.531 1517.55 984.162C1513.61 979.758 1511.64 973.653 1511.64 965.847C1511.64 957.432 1514.03 950.79 1518.79 945.92C1523.59 941.014 1530.1 938.562 1538.34 938.562C1544.14 938.562 1549.21 939.922 1553.54 942.644C1557.91 945.365 1561.26 949.322 1563.58 954.514C1565.91 959.67 1567.07 965.829 1567.07 972.99ZM1538.66 951.882C1535.22 951.882 1532.54 953.063 1530.6 955.427C1528.67 957.79 1527.7 961.192 1527.7 965.632C1527.7 969.427 1528.58 972.435 1530.34 974.655C1532.09 976.875 1534.76 977.985 1538.34 977.985C1541.7 977.985 1544.59 976.893 1546.99 974.709C1549.39 972.489 1550.58 969.947 1550.58 967.082C1550.58 962.821 1549.46 959.222 1547.2 956.286C1544.98 953.35 1542.13 951.882 1538.66 951.882ZM1629.81 978.737C1629.81 992.451 1627.55 1002.6 1623.04 1009.19C1618.57 1015.78 1611.65 1019.07 1602.31 1019.07C1593.25 1019.07 1586.41 1015.67 1581.79 1008.87C1577.21 1002.07 1574.92 992.022 1574.92 978.737C1574.92 964.88 1577.15 954.675 1581.63 948.122C1586.11 941.534 1593 938.239 1602.31 938.239C1611.37 938.239 1618.21 941.677 1622.83 948.552C1627.48 955.427 1629.81 965.489 1629.81 978.737ZM1591.41 978.737C1591.41 988.369 1592.23 995.28 1593.88 999.47C1595.56 1003.62 1598.37 1005.7 1602.31 1005.7C1606.18 1005.7 1608.97 1003.59 1610.69 999.362C1612.41 995.137 1613.27 988.262 1613.27 978.737C1613.27 969.105 1612.39 962.194 1610.63 958.005C1608.92 953.78 1606.14 951.667 1602.31 951.667C1598.41 951.667 1595.61 953.78 1593.93 958.005C1592.25 962.194 1591.41 969.105 1591.41 978.737ZM1672.26 1018V1006.23H1663.46V995.56H1672.26V986.98H1663.46V973.34H1672.26V939.46H1697.34C1707.46 939.46 1714.83 941.513 1719.45 945.62C1724.14 949.727 1726.49 955.373 1726.49 962.56C1726.49 966.813 1725.53 970.81 1723.63 974.55C1721.72 978.29 1718.53 981.297 1714.06 983.57C1709.66 985.843 1703.64 986.98 1696.02 986.98H1688.87V995.56H1705.81V1006.23H1688.87V1018H1672.26ZM1694.37 973.34C1699.06 973.34 1702.76 972.533 1705.48 970.92C1708.26 969.307 1709.66 966.703 1709.66 963.11C1709.66 956.437 1705.26 953.1 1696.46 953.1H1688.87V973.34H1694.37Z" fill="#FF0000"/>
<path d="M657.509 216H655.32V201.551H667.449V216H665.234V203.449H657.509V216ZM682.861 216H680.646V203.423H676.309C676.071 206.552 675.742 209.035 675.32 210.872C674.898 212.708 674.349 214.053 673.672 214.906C673.004 215.758 672.151 216.185 671.114 216.185C670.64 216.185 670.262 216.132 669.98 216.026V214.405C670.174 214.458 670.394 214.484 670.64 214.484C671.65 214.484 672.455 213.416 673.052 211.28C673.65 209.145 674.103 205.901 674.41 201.551H682.861V216ZM696.4 216L695.965 213.943H695.86C695.139 214.849 694.418 215.464 693.698 215.789C692.986 216.105 692.094 216.264 691.021 216.264C689.589 216.264 688.464 215.895 687.646 215.156C686.838 214.418 686.434 213.368 686.434 212.005C686.434 209.087 688.767 207.558 693.434 207.417L695.886 207.338V206.442C695.886 205.308 695.64 204.473 695.148 203.937C694.665 203.392 693.887 203.12 692.814 203.12C691.61 203.12 690.248 203.489 688.728 204.227L688.055 202.553C688.767 202.166 689.545 201.863 690.389 201.643C691.241 201.423 692.094 201.313 692.946 201.313C694.669 201.313 695.943 201.696 696.77 202.46C697.604 203.225 698.022 204.451 698.022 206.139V216H696.4ZM691.457 214.458C692.819 214.458 693.887 214.084 694.66 213.337C695.442 212.59 695.833 211.544 695.833 210.199V208.894L693.645 208.986C691.905 209.048 690.648 209.32 689.875 209.804C689.11 210.278 688.728 211.021 688.728 212.032C688.728 212.823 688.965 213.425 689.439 213.838C689.923 214.251 690.595 214.458 691.457 214.458ZM704.732 201.551V207.602H712.827V201.551H715.016V216H712.827V209.487H704.732V216H702.544V201.551H704.732Z" fill="white"/>
<path d="M1295.51 216H1293.32V201.551H1305.45V216H1303.23V203.449H1295.51V216ZM1320.86 216H1318.65V203.423H1314.31C1314.07 206.552 1313.74 209.035 1313.32 210.872C1312.9 212.708 1312.35 214.053 1311.67 214.906C1311 215.758 1310.15 216.185 1309.11 216.185C1308.64 216.185 1308.26 216.132 1307.98 216.026V214.405C1308.17 214.458 1308.39 214.484 1308.64 214.484C1309.65 214.484 1310.45 213.416 1311.05 211.28C1311.65 209.145 1312.1 205.901 1312.41 201.551H1320.86V216ZM1334.4 216L1333.97 213.943H1333.86C1333.14 214.849 1332.42 215.464 1331.7 215.789C1330.99 216.105 1330.09 216.264 1329.02 216.264C1327.59 216.264 1326.46 215.895 1325.65 215.156C1324.84 214.418 1324.43 213.368 1324.43 212.005C1324.43 209.087 1326.77 207.558 1331.43 207.417L1333.89 207.338V206.442C1333.89 205.308 1333.64 204.473 1333.15 203.937C1332.66 203.392 1331.89 203.12 1330.81 203.12C1329.61 203.12 1328.25 203.489 1326.73 204.227L1326.06 202.553C1326.77 202.166 1327.54 201.863 1328.39 201.643C1329.24 201.423 1330.09 201.313 1330.95 201.313C1332.67 201.313 1333.94 201.696 1334.77 202.46C1335.6 203.225 1336.02 204.451 1336.02 206.139V216H1334.4ZM1329.46 214.458C1330.82 214.458 1331.89 214.084 1332.66 213.337C1333.44 212.59 1333.83 211.544 1333.83 210.199V208.894L1331.65 208.986C1329.9 209.048 1328.65 209.32 1327.87 209.804C1327.11 210.278 1326.73 211.021 1326.73 212.032C1326.73 212.823 1326.96 213.425 1327.44 213.838C1327.92 214.251 1328.6 214.458 1329.46 214.458ZM1342.73 201.551V207.602H1350.83V201.551H1353.02V216H1350.83V209.487H1342.73V216H1340.54V201.551H1342.73Z" fill="white"/>
<path d="M1308.8 465.762C1308.8 467.951 1308.17 469.695 1306.93 470.996C1305.69 472.288 1303.95 473.026 1301.72 473.211V479.486H1299.56V473.211C1297.38 473.044 1295.65 472.297 1294.39 470.97C1293.12 469.643 1292.49 467.907 1292.49 465.762C1292.49 463.574 1293.12 461.833 1294.38 460.542C1295.64 459.25 1297.39 458.516 1299.64 458.34V452.486H1301.72V458.34C1303.92 458.542 1305.66 459.302 1306.91 460.621C1308.17 461.939 1308.8 463.653 1308.8 465.762ZM1294.78 465.762C1294.78 467.45 1295.17 468.772 1295.94 469.73C1296.72 470.688 1297.95 471.247 1299.64 471.405V460.172C1298.01 460.322 1296.79 460.854 1295.98 461.768C1295.18 462.673 1294.78 464.004 1294.78 465.762ZM1306.53 465.762C1306.53 462.396 1304.93 460.542 1301.72 460.199V471.405C1303.39 471.238 1304.61 470.675 1305.37 469.717C1306.14 468.759 1306.53 467.441 1306.53 465.762ZM1321.51 473L1321.07 470.943H1320.97C1320.25 471.849 1319.52 472.464 1318.8 472.789C1318.09 473.105 1317.2 473.264 1316.13 473.264C1314.7 473.264 1313.57 472.895 1312.75 472.156C1311.94 471.418 1311.54 470.368 1311.54 469.005C1311.54 466.087 1313.87 464.558 1318.54 464.417L1320.99 464.338V463.442C1320.99 462.308 1320.75 461.473 1320.25 460.937C1319.77 460.392 1318.99 460.12 1317.92 460.12C1316.72 460.12 1315.35 460.489 1313.83 461.227L1313.16 459.553C1313.87 459.166 1314.65 458.863 1315.5 458.643C1316.35 458.423 1317.2 458.313 1318.05 458.313C1319.78 458.313 1321.05 458.696 1321.88 459.46C1322.71 460.225 1323.13 461.451 1323.13 463.139V473H1321.51ZM1316.56 471.458C1317.93 471.458 1318.99 471.084 1319.77 470.337C1320.55 469.59 1320.94 468.544 1320.94 467.199V465.894L1318.75 465.986C1317.01 466.048 1315.75 466.32 1314.98 466.804C1314.22 467.278 1313.83 468.021 1313.83 469.032C1313.83 469.823 1314.07 470.425 1314.55 470.838C1315.03 471.251 1315.7 471.458 1316.56 471.458ZM1336.07 458.551H1338.47L1332.24 465.525L1338.99 473H1336.43L1329.84 465.683V473H1327.65V458.551H1329.84V465.578L1336.07 458.551ZM1351.42 460.423H1346.73V473H1344.54V460.423H1339.9V458.551H1351.42V460.423Z" fill="white"/>
<path d="M670.798 465.762C670.798 467.951 670.174 469.695 668.926 470.996C667.687 472.288 665.951 473.026 663.718 473.211V479.486H661.556V473.211C659.376 473.044 657.654 472.297 656.388 470.97C655.123 469.643 654.49 467.907 654.49 465.762C654.49 463.574 655.118 461.833 656.375 460.542C657.641 459.25 659.394 458.516 661.635 458.34V452.486H663.718V458.34C665.924 458.542 667.656 459.302 668.913 460.621C670.169 461.939 670.798 463.653 670.798 465.762ZM656.784 465.762C656.784 467.45 657.17 468.772 657.944 469.73C658.717 470.688 659.948 471.247 661.635 471.405V460.172C660.009 460.322 658.792 460.854 657.983 461.768C657.184 462.673 656.784 464.004 656.784 465.762ZM668.53 465.762C668.53 462.396 666.926 460.542 663.718 460.199V471.405C665.388 471.238 666.605 470.675 667.37 469.717C668.144 468.759 668.53 467.441 668.53 465.762ZM683.507 473L683.072 470.943H682.966C682.246 471.849 681.525 472.464 680.804 472.789C680.092 473.105 679.2 473.264 678.128 473.264C676.695 473.264 675.57 472.895 674.753 472.156C673.944 471.418 673.54 470.368 673.54 469.005C673.54 466.087 675.874 464.558 680.541 464.417L682.993 464.338V463.442C682.993 462.308 682.747 461.473 682.254 460.937C681.771 460.392 680.993 460.12 679.921 460.12C678.717 460.12 677.354 460.489 675.834 461.227L675.162 459.553C675.874 459.166 676.651 458.863 677.495 458.643C678.348 458.423 679.2 458.313 680.053 458.313C681.775 458.313 683.05 458.696 683.876 459.46C684.711 460.225 685.128 461.451 685.128 463.139V473H683.507ZM678.563 471.458C679.925 471.458 680.993 471.084 681.767 470.337C682.549 469.59 682.94 468.544 682.94 467.199V465.894L680.751 465.986C679.011 466.048 677.754 466.32 676.981 466.804C676.216 467.278 675.834 468.021 675.834 469.032C675.834 469.823 676.071 470.425 676.546 470.838C677.029 471.251 677.702 471.458 678.563 471.458ZM698.075 458.551H700.474L694.238 465.525L700.988 473H698.431L691.839 465.683V473H689.65V458.551H691.839V465.578L698.075 458.551ZM713.42 460.423H708.727V473H706.539V460.423H701.898V458.551H713.42V460.423Z" fill="white"/>
<path d="M707.963 364H685.331V302.037L685.551 291.856L685.917 280.724C682.157 284.483 679.545 286.949 678.08 288.121L665.775 298.009L654.862 284.386L689.359 256.92H707.963V364ZM812.553 364H737.699V348.253L764.579 321.08C772.538 312.926 777.738 307.286 780.18 304.161C782.621 300.987 784.379 298.058 785.453 295.372C786.527 292.687 787.064 289.903 787.064 287.022C787.064 282.726 785.868 279.527 783.476 277.428C781.132 275.328 777.982 274.278 774.027 274.278C769.877 274.278 765.849 275.23 761.942 277.135C758.036 279.039 753.959 281.749 749.711 285.265L737.406 270.689C742.68 266.197 747.05 263.023 750.517 261.168C753.983 259.312 757.768 257.896 761.869 256.92C765.971 255.895 770.561 255.382 775.639 255.382C782.328 255.382 788.236 256.603 793.363 259.044C798.49 261.485 802.47 264.903 805.302 269.298C808.134 273.692 809.55 278.722 809.55 284.386C809.55 289.317 808.671 293.956 806.913 298.302C805.204 302.599 802.519 307.018 798.856 311.559C795.243 316.1 788.847 322.569 779.667 330.968L765.897 343.932V344.957H812.553V364ZM840.458 289C840.458 295.201 840.995 299.84 842.069 302.916C843.192 305.943 844.975 307.457 847.416 307.457C852.104 307.457 854.447 301.305 854.447 289C854.447 276.793 852.104 270.689 847.416 270.689C844.975 270.689 843.192 272.203 842.069 275.23C840.995 278.209 840.458 282.799 840.458 289ZM872.904 288.854C872.904 300.084 870.731 308.531 866.386 314.195C862.04 319.811 855.668 322.618 847.27 322.618C839.213 322.618 832.987 319.737 828.593 313.976C824.198 308.165 822.001 299.791 822.001 288.854C822.001 266.539 830.424 255.382 847.27 255.382C855.521 255.382 861.845 258.287 866.239 264.098C870.683 269.859 872.904 278.111 872.904 288.854ZM923.295 256.92L863.896 364H846.317L905.717 256.92H923.295ZM915.458 331.773C915.458 337.975 915.995 342.613 917.069 345.689C918.192 348.717 919.975 350.23 922.416 350.23C927.104 350.23 929.447 344.078 929.447 331.773C929.447 319.566 927.104 313.463 922.416 313.463C919.975 313.463 918.192 314.977 917.069 318.004C915.995 320.982 915.458 325.572 915.458 331.773ZM947.904 331.627C947.904 342.809 945.731 351.231 941.386 356.896C937.04 362.511 930.668 365.318 922.27 365.318C914.213 365.318 907.987 362.438 903.593 356.676C899.198 350.865 897.001 342.516 897.001 331.627C897.001 309.312 905.424 298.155 922.27 298.155C930.521 298.155 936.845 301.061 941.239 306.871C945.683 312.633 947.904 320.885 947.904 331.627Z" fill="#01F859"/>
<path d="M62.9629 364H40.3311V302.037L40.5508 291.856L40.917 280.724C37.1572 284.483 34.5449 286.949 33.0801 288.121L20.7754 298.009L9.8623 284.386L44.3594 256.92H62.9629V364ZM167.553 364H92.6992V348.253L119.579 321.08C127.538 312.926 132.738 307.286 135.18 304.161C137.621 300.987 139.379 298.058 140.453 295.372C141.527 292.687 142.064 289.903 142.064 287.022C142.064 282.726 140.868 279.527 138.476 277.428C136.132 275.328 132.982 274.278 129.027 274.278C124.877 274.278 120.849 275.23 116.942 277.135C113.036 279.039 108.959 281.749 104.711 285.265L92.4062 270.689C97.6797 266.197 102.05 263.023 105.517 261.168C108.983 259.312 112.768 257.896 116.869 256.92C120.971 255.895 125.561 255.382 130.639 255.382C137.328 255.382 143.236 256.603 148.363 259.044C153.49 261.485 157.47 264.903 160.302 269.298C163.134 273.692 164.55 278.722 164.55 284.386C164.55 289.317 163.671 293.956 161.913 298.302C160.204 302.599 157.519 307.018 153.856 311.559C150.243 316.1 143.847 322.569 134.667 330.968L120.897 343.932V344.957H167.553V364ZM195.458 289C195.458 295.201 195.995 299.84 197.069 302.916C198.192 305.943 199.975 307.457 202.416 307.457C207.104 307.457 209.447 301.305 209.447 289C209.447 276.793 207.104 270.689 202.416 270.689C199.975 270.689 198.192 272.203 197.069 275.23C195.995 278.209 195.458 282.799 195.458 289ZM227.904 288.854C227.904 300.084 225.731 308.531 221.386 314.195C217.04 319.811 210.668 322.618 202.27 322.618C194.213 322.618 187.987 319.737 183.593 313.976C179.198 308.165 177.001 299.791 177.001 288.854C177.001 266.539 185.424 255.382 202.27 255.382C210.521 255.382 216.845 258.287 221.239 264.098C225.683 269.859 227.904 278.111 227.904 288.854ZM278.295 256.92L218.896 364H201.317L260.717 256.92H278.295ZM270.458 331.773C270.458 337.975 270.995 342.613 272.069 345.689C273.192 348.717 274.975 350.23 277.416 350.23C282.104 350.23 284.447 344.078 284.447 331.773C284.447 319.566 282.104 313.463 277.416 313.463C274.975 313.463 273.192 314.977 272.069 318.004C270.995 320.982 270.458 325.572 270.458 331.773ZM302.904 331.627C302.904 342.809 300.731 351.231 296.386 356.896C292.04 362.511 285.668 365.318 277.27 365.318C269.213 365.318 262.987 362.438 258.593 356.676C254.198 350.865 252.001 342.516 252.001 331.627C252.001 309.312 260.424 298.155 277.27 298.155C285.521 298.155 291.845 301.061 296.239 306.871C300.683 312.633 302.904 320.885 302.904 331.627Z" fill="#01F859"/>
<path d="M707.963 641H685.331V579.037L685.551 568.856L685.917 557.724C682.157 561.483 679.545 563.949 678.08 565.121L665.775 575.009L654.862 561.386L689.359 533.92H707.963V641ZM812.553 641H737.699V625.253L764.579 598.08C772.538 589.926 777.738 584.286 780.18 581.161C782.621 577.987 784.379 575.058 785.453 572.372C786.527 569.687 787.064 566.903 787.064 564.022C787.064 559.726 785.868 556.527 783.476 554.428C781.132 552.328 777.982 551.278 774.027 551.278C769.877 551.278 765.849 552.23 761.942 554.135C758.036 556.039 753.959 558.749 749.711 562.265L737.406 547.689C742.68 543.197 747.05 540.023 750.517 538.168C753.983 536.312 757.768 534.896 761.869 533.92C765.971 532.895 770.561 532.382 775.639 532.382C782.328 532.382 788.236 533.603 793.363 536.044C798.49 538.485 802.47 541.903 805.302 546.298C808.134 550.692 809.55 555.722 809.55 561.386C809.55 566.317 808.671 570.956 806.913 575.302C805.204 579.599 802.519 584.018 798.856 588.559C795.243 593.1 788.847 599.569 779.667 607.968L765.897 620.932V621.957H812.553V641ZM851.005 625.253C848.466 635.116 844.169 646.811 838.114 660.336H822.001C825.175 647.348 827.641 635.092 829.398 623.568H849.906L851.005 625.253ZM922.855 641H900.224V579.037L900.443 568.856L900.81 557.724C897.05 561.483 894.438 563.949 892.973 565.121L880.668 575.009L869.755 561.386L904.252 533.92H922.855V641ZM969.657 566C969.657 572.201 970.194 576.84 971.269 579.916C972.392 582.943 974.174 584.457 976.615 584.457C981.303 584.457 983.646 578.305 983.646 566C983.646 553.793 981.303 547.689 976.615 547.689C974.174 547.689 972.392 549.203 971.269 552.23C970.194 555.209 969.657 559.799 969.657 566ZM1002.1 565.854C1002.1 577.084 999.931 585.531 995.585 591.195C991.239 596.811 984.867 599.618 976.469 599.618C968.412 599.618 962.187 596.737 957.792 590.976C953.397 585.165 951.2 576.791 951.2 565.854C951.2 543.539 959.623 532.382 976.469 532.382C984.721 532.382 991.044 535.287 995.438 541.098C999.882 546.859 1002.1 555.111 1002.1 565.854ZM1052.49 533.92L993.095 641H975.517L1034.92 533.92H1052.49ZM1044.66 608.773C1044.66 614.975 1045.19 619.613 1046.27 622.689C1047.39 625.717 1049.17 627.23 1051.62 627.23C1056.3 627.23 1058.65 621.078 1058.65 608.773C1058.65 596.566 1056.3 590.463 1051.62 590.463C1049.17 590.463 1047.39 591.977 1046.27 595.004C1045.19 597.982 1044.66 602.572 1044.66 608.773ZM1077.1 608.627C1077.1 619.809 1074.93 628.231 1070.58 633.896C1066.24 639.511 1059.87 642.318 1051.47 642.318C1043.41 642.318 1037.19 639.438 1032.79 633.676C1028.4 627.865 1026.2 619.516 1026.2 608.627C1026.2 586.312 1034.62 575.155 1051.47 575.155C1059.72 575.155 1066.04 578.061 1070.44 583.871C1074.88 589.633 1077.1 597.885 1077.1 608.627Z" fill="#FF0000"/>
<path d="M1352.96 641H1330.33V579.037L1330.55 568.856L1330.92 557.724C1327.16 561.483 1324.54 563.949 1323.08 565.121L1310.78 575.009L1299.86 561.386L1334.36 533.92H1352.96V641ZM1438.66 641H1416.02V579.037L1416.24 568.856L1416.61 557.724C1412.85 561.483 1410.24 563.949 1408.77 565.121L1396.47 575.009L1385.56 561.386L1420.05 533.92H1438.66V641ZM1496 625.253C1493.47 635.116 1489.17 646.811 1483.11 660.336H1467C1470.17 647.348 1472.64 635.092 1474.4 623.568H1494.91L1496 625.253ZM1522.52 641L1562.73 553.109H1509.92V534.066H1586.75V548.275L1546.25 641H1522.52ZM1614.66 566C1614.66 572.201 1615.19 576.84 1616.27 579.916C1617.39 582.943 1619.17 584.457 1621.62 584.457C1626.3 584.457 1628.65 578.305 1628.65 566C1628.65 553.793 1626.3 547.689 1621.62 547.689C1619.17 547.689 1617.39 549.203 1616.27 552.23C1615.19 555.209 1614.66 559.799 1614.66 566ZM1647.1 565.854C1647.1 577.084 1644.93 585.531 1640.58 591.195C1636.24 596.811 1629.87 599.618 1621.47 599.618C1613.41 599.618 1607.19 596.737 1602.79 590.976C1598.4 585.165 1596.2 576.791 1596.2 565.854C1596.2 543.539 1604.62 532.382 1621.47 532.382C1629.72 532.382 1636.04 535.287 1640.44 541.098C1644.88 546.859 1647.1 555.111 1647.1 565.854ZM1697.49 533.92L1638.09 641H1620.52L1679.92 533.92H1697.49ZM1689.66 608.773C1689.66 614.975 1690.19 619.613 1691.27 622.689C1692.39 625.717 1694.17 627.23 1696.62 627.23C1701.3 627.23 1703.65 621.078 1703.65 608.773C1703.65 596.566 1701.3 590.463 1696.62 590.463C1694.17 590.463 1692.39 591.977 1691.27 595.004C1690.19 597.982 1689.66 602.572 1689.66 608.773ZM1722.1 608.627C1722.1 619.809 1719.93 628.231 1715.58 633.896C1711.24 639.511 1704.87 642.318 1696.47 642.318C1688.41 642.318 1682.19 639.438 1677.79 633.676C1673.4 627.865 1671.2 619.516 1671.2 608.627C1671.2 586.312 1679.62 575.155 1696.47 575.155C1704.72 575.155 1711.04 578.061 1715.44 583.871C1719.88 589.633 1722.1 597.885 1722.1 608.627Z" fill="#FF0000"/>
<path d="M1352.96 364H1330.33V302.037L1330.55 291.856L1330.92 280.724C1327.16 284.483 1324.54 286.949 1323.08 288.121L1310.78 298.009L1299.86 284.386L1334.36 256.92H1352.96V364ZM1457.55 364H1382.7V348.253L1409.58 321.08C1417.54 312.926 1422.74 307.286 1425.18 304.161C1427.62 300.987 1429.38 298.058 1430.45 295.372C1431.53 292.687 1432.06 289.903 1432.06 287.022C1432.06 282.726 1430.87 279.527 1428.48 277.428C1426.13 275.328 1422.98 274.278 1419.03 274.278C1414.88 274.278 1410.85 275.23 1406.94 277.135C1403.04 279.039 1398.96 281.749 1394.71 285.265L1382.41 270.689C1387.68 266.197 1392.05 263.023 1395.52 261.168C1398.98 259.312 1402.77 257.896 1406.87 256.92C1410.97 255.895 1415.56 255.382 1420.64 255.382C1427.33 255.382 1433.24 256.603 1438.36 259.044C1443.49 261.485 1447.47 264.903 1450.3 269.298C1453.13 273.692 1454.55 278.722 1454.55 284.386C1454.55 289.317 1453.67 293.956 1451.91 298.302C1450.2 302.599 1447.52 307.018 1443.86 311.559C1440.24 316.1 1433.85 322.569 1424.67 330.968L1410.9 343.932V344.957H1457.55V364ZM1496 348.253C1493.47 358.116 1489.17 369.811 1483.11 383.336H1467C1470.17 370.348 1472.64 358.092 1474.4 346.568H1494.91L1496 348.253ZM1511.17 318.517C1511.17 297.325 1515.63 281.554 1524.57 271.202C1533.55 260.851 1546.98 255.675 1564.85 255.675C1570.96 255.675 1575.74 256.041 1579.21 256.773V274.864C1574.86 273.888 1570.57 273.399 1566.32 273.399C1558.55 273.399 1552.21 274.571 1547.27 276.915C1542.39 279.259 1538.73 282.726 1536.29 287.315C1533.85 291.905 1532.41 298.424 1531.97 306.871H1532.92C1537.75 298.57 1545.49 294.42 1556.14 294.42C1565.71 294.42 1573.2 297.423 1578.62 303.429C1584.04 309.435 1586.75 317.735 1586.75 328.331C1586.75 339.757 1583.53 348.814 1577.08 355.504C1570.64 362.145 1561.7 365.465 1550.28 365.465C1542.37 365.465 1535.46 363.634 1529.55 359.972C1523.69 356.31 1519.15 350.963 1515.93 343.932C1512.75 336.9 1511.17 328.429 1511.17 318.517ZM1549.84 347.374C1554.67 347.374 1558.38 345.763 1560.97 342.54C1563.56 339.269 1564.85 334.63 1564.85 328.624C1564.85 323.399 1563.63 319.298 1561.19 316.319C1558.8 313.292 1555.16 311.778 1550.28 311.778C1545.69 311.778 1541.76 313.268 1538.49 316.246C1535.26 319.225 1533.65 322.691 1533.65 326.646C1533.65 332.457 1535.17 337.364 1538.19 341.368C1541.27 345.372 1545.15 347.374 1549.84 347.374ZM1614.66 289C1614.66 295.201 1615.19 299.84 1616.27 302.916C1617.39 305.943 1619.17 307.457 1621.62 307.457C1626.3 307.457 1628.65 301.305 1628.65 289C1628.65 276.793 1626.3 270.689 1621.62 270.689C1619.17 270.689 1617.39 272.203 1616.27 275.23C1615.19 278.209 1614.66 282.799 1614.66 289ZM1647.1 288.854C1647.1 300.084 1644.93 308.531 1640.58 314.195C1636.24 319.811 1629.87 322.618 1621.47 322.618C1613.41 322.618 1607.19 319.737 1602.79 313.976C1598.4 308.165 1596.2 299.791 1596.2 288.854C1596.2 266.539 1604.62 255.382 1621.47 255.382C1629.72 255.382 1636.04 258.287 1640.44 264.098C1644.88 269.859 1647.1 278.111 1647.1 288.854ZM1697.49 256.92L1638.09 364H1620.52L1679.92 256.92H1697.49ZM1689.66 331.773C1689.66 337.975 1690.19 342.613 1691.27 345.689C1692.39 348.717 1694.17 350.23 1696.62 350.23C1701.3 350.23 1703.65 344.078 1703.65 331.773C1703.65 319.566 1701.3 313.463 1696.62 313.463C1694.17 313.463 1692.39 314.977 1691.27 318.004C1690.19 320.982 1689.66 325.572 1689.66 331.773ZM1722.1 331.627C1722.1 342.809 1719.93 351.231 1715.58 356.896C1711.24 362.511 1704.87 365.318 1696.47 365.318C1688.41 365.318 1682.19 362.438 1677.79 356.676C1673.4 350.865 1671.2 342.516 1671.2 331.627C1671.2 309.312 1679.62 298.155 1696.47 298.155C1704.72 298.155 1711.04 301.061 1715.44 306.871C1719.88 312.633 1722.1 320.885 1722.1 331.627Z" fill="#01F859"/>
<circle cx="1827.5" cy="590.5" r="38.5" fill="#212B4B"/>
<line x1="1813.47" y1="577.525" x2="1842.47" y2="606.525" stroke="#FF0000" stroke-width="7"/>
<line x1="1842.47" y1="576.475" x2="1813.47" y2="605.475" stroke="#FF0000" stroke-width="7"/>
<circle cx="1165.5" cy="590.5" r="38.5" fill="#212B4B"/>
<line x1="1151.47" y1="577.525" x2="1180.47" y2="606.525" stroke="#FF0000" stroke-width="7"/>
<line x1="1180.47" y1="576.475" x2="1151.47" y2="605.475" stroke="#FF0000" stroke-width="7"/>
<defs>
<linearGradient id="paint0_linear" x1="1975" y1="871.976" x2="0" y2="872" gradientUnits="userSpaceOnUse">
<stop stop-color="#00CD77"/>
<stop offset="0.410127" stop-color="#6A7186"/>
</linearGradient>
</defs>
</svg>
