<svg width="1938" height="1295" viewBox="0 0 1938 1295" fill="none" xmlns="http://www.w3.org/2000/svg">
<rect x="616" width="642" height="1140" fill="#C4C4C4" fill-opacity="0.05"/>
<path d="M26.9531 74H2.00195V68.751L10.9619 59.6934C13.6149 56.9753 15.3483 55.0954 16.1621 54.0537C16.9759 52.9958 17.5618 52.0192 17.9199 51.124C18.278 50.2288 18.457 49.3011 18.457 48.3408C18.457 46.9085 18.0583 45.8424 17.2607 45.1426C16.4795 44.4427 15.4297 44.0928 14.1113 44.0928C12.7279 44.0928 11.3851 44.4102 10.083 45.0449C8.78092 45.6797 7.42188 46.583 6.00586 47.7549L1.9043 42.8965C3.66211 41.3991 5.11882 40.3411 6.27441 39.7227C7.43001 39.1042 8.69141 38.6322 10.0586 38.3066C11.4258 37.9648 12.9557 37.7939 14.6484 37.7939C16.8783 37.7939 18.8477 38.2008 20.5566 39.0146C22.2656 39.8285 23.5921 40.9678 24.5361 42.4326C25.4801 43.8975 25.9521 45.5739 25.9521 47.4619C25.9521 49.1058 25.6592 50.652 25.0732 52.1006C24.5036 53.5329 23.6084 55.0059 22.3877 56.5195C21.1833 58.0332 19.0511 60.1898 15.9912 62.9893L11.4014 67.3105V67.6523H26.9531V74ZM55.3223 56.1533C55.3223 62.387 54.2969 67.0013 52.2461 69.9961C50.2116 72.9909 47.0703 74.4883 42.8223 74.4883C38.7044 74.4883 35.5957 72.9421 33.4961 69.8496C31.4128 66.7572 30.3711 62.1917 30.3711 56.1533C30.3711 49.8545 31.3883 45.2158 33.4229 42.2373C35.4574 39.2425 38.5905 37.7451 42.8223 37.7451C46.9401 37.7451 50.0488 39.3076 52.1484 42.4326C54.2643 45.5576 55.3223 50.1312 55.3223 56.1533ZM37.8662 56.1533C37.8662 60.5316 38.2406 63.6729 38.9893 65.5771C39.7542 67.4652 41.0319 68.4092 42.8223 68.4092C44.5801 68.4092 45.8496 67.4489 46.6309 65.5283C47.4121 63.6077 47.8027 60.4827 47.8027 56.1533C47.8027 51.7751 47.404 48.6338 46.6064 46.7295C45.8252 44.8089 44.5638 43.8486 42.8223 43.8486C41.0482 43.8486 39.7786 44.8089 39.0137 46.7295C38.2487 48.6338 37.8662 51.7751 37.8662 56.1533ZM77.7832 74H70.2393V53.3457L70.3125 49.9521L70.4346 46.2412C69.1813 47.4945 68.3105 48.3164 67.8223 48.707L63.7207 52.0029L60.083 47.4619L71.582 38.3066H77.7832V74ZM100 37.8428C103.418 37.8428 106.169 38.624 108.252 40.1865C110.352 41.7327 111.401 43.8242 111.401 46.4609C111.401 48.2839 110.897 49.9115 109.888 51.3438C108.879 52.7598 107.251 54.0293 105.005 55.1523C107.674 56.5846 109.587 58.082 110.742 59.6445C111.914 61.1908 112.5 62.8916 112.5 64.7471C112.5 67.6768 111.353 70.0368 109.058 71.8271C106.763 73.6012 103.743 74.4883 100 74.4883C96.0938 74.4883 93.0257 73.6582 90.7959 71.998C88.5661 70.3379 87.4512 67.986 87.4512 64.9424C87.4512 62.9079 87.9883 61.1012 89.0625 59.5225C90.153 57.9437 91.8945 56.5521 94.2871 55.3477C92.2526 54.0618 90.7878 52.6865 89.8926 51.2217C88.9974 49.7568 88.5498 48.1536 88.5498 46.4121C88.5498 43.8568 89.6077 41.7897 91.7236 40.2109C93.8395 38.6322 96.5983 37.8428 100 37.8428ZM94.4336 64.5029C94.4336 65.9027 94.9219 66.9932 95.8984 67.7744C96.875 68.5557 98.2096 68.9463 99.9023 68.9463C101.774 68.9463 103.174 68.5475 104.102 67.75C105.029 66.9362 105.493 65.8701 105.493 64.5518C105.493 63.4613 105.029 62.444 104.102 61.5C103.19 60.5397 101.701 59.5225 99.6338 58.4482C96.167 60.0433 94.4336 62.0615 94.4336 64.5029ZM99.9512 43.3604C98.6654 43.3604 97.6237 43.694 96.8262 44.3613C96.0449 45.0124 95.6543 45.8913 95.6543 46.998C95.6543 47.9746 95.9635 48.8535 96.582 49.6348C97.2168 50.3997 98.3561 51.1891 100 52.0029C101.595 51.2542 102.71 50.4893 103.345 49.708C103.979 48.9268 104.297 48.0234 104.297 46.998C104.297 45.875 103.89 44.988 103.076 44.3369C102.262 43.6859 101.221 43.3604 99.9512 43.3604Z" fill="white"/>
<path d="M671.953 74H647.002V68.751L655.962 59.6934C658.615 56.9753 660.348 55.0954 661.162 54.0537C661.976 52.9958 662.562 52.0192 662.92 51.124C663.278 50.2288 663.457 49.3011 663.457 48.3408C663.457 46.9085 663.058 45.8424 662.261 45.1426C661.479 44.4427 660.43 44.0928 659.111 44.0928C657.728 44.0928 656.385 44.4102 655.083 45.0449C653.781 45.6797 652.422 46.583 651.006 47.7549L646.904 42.8965C648.662 41.3991 650.119 40.3411 651.274 39.7227C652.43 39.1042 653.691 38.6322 655.059 38.3066C656.426 37.9648 657.956 37.7939 659.648 37.7939C661.878 37.7939 663.848 38.2008 665.557 39.0146C667.266 39.8285 668.592 40.9678 669.536 42.4326C670.48 43.8975 670.952 45.5739 670.952 47.4619C670.952 49.1058 670.659 50.652 670.073 52.1006C669.504 53.5329 668.608 55.0059 667.388 56.5195C666.183 58.0332 664.051 60.1898 660.991 62.9893L656.401 67.3105V67.6523H671.953V74ZM700.322 56.1533C700.322 62.387 699.297 67.0013 697.246 69.9961C695.212 72.9909 692.07 74.4883 687.822 74.4883C683.704 74.4883 680.596 72.9421 678.496 69.8496C676.413 66.7572 675.371 62.1917 675.371 56.1533C675.371 49.8545 676.388 45.2158 678.423 42.2373C680.457 39.2425 683.59 37.7451 687.822 37.7451C691.94 37.7451 695.049 39.3076 697.148 42.4326C699.264 45.5576 700.322 50.1312 700.322 56.1533ZM682.866 56.1533C682.866 60.5316 683.241 63.6729 683.989 65.5771C684.754 67.4652 686.032 68.4092 687.822 68.4092C689.58 68.4092 690.85 67.4489 691.631 65.5283C692.412 63.6077 692.803 60.4827 692.803 56.1533C692.803 51.7751 692.404 48.6338 691.606 46.7295C690.825 44.8089 689.564 43.8486 687.822 43.8486C686.048 43.8486 684.779 44.8089 684.014 46.7295C683.249 48.6338 682.866 51.7751 682.866 56.1533ZM722.783 74H715.239V53.3457L715.312 49.9521L715.435 46.2412C714.181 47.4945 713.311 48.3164 712.822 48.707L708.721 52.0029L705.083 47.4619L716.582 38.3066H722.783V74ZM757.5 53.541C757.5 60.5723 756.019 65.8213 753.057 69.2881C750.094 72.7549 745.61 74.4883 739.604 74.4883C737.489 74.4883 735.885 74.3743 734.795 74.1465V68.0918C736.162 68.4336 737.594 68.6045 739.092 68.6045C741.615 68.6045 743.69 68.2383 745.317 67.5059C746.945 66.7572 748.19 65.5934 749.053 64.0146C749.915 62.4196 750.412 60.2305 750.542 57.4473H750.249C749.305 58.9772 748.215 60.0514 746.978 60.6699C745.741 61.2884 744.194 61.5977 742.339 61.5977C739.23 61.5977 736.781 60.6048 734.99 58.6191C733.2 56.6172 732.305 53.8421 732.305 50.2939C732.305 46.4691 733.387 43.4499 735.552 41.2363C737.733 39.0065 740.695 37.8916 744.438 37.8916C747.075 37.8916 749.378 38.5101 751.348 39.7471C753.333 40.984 754.855 42.7826 755.913 45.1426C756.971 47.4863 757.5 50.2858 757.5 53.541ZM744.585 43.9463C743.022 43.9463 741.802 44.4834 740.923 45.5576C740.044 46.6318 739.604 48.1781 739.604 50.1963C739.604 51.9215 740.003 53.2887 740.801 54.2979C741.598 55.307 742.811 55.8115 744.438 55.8115C745.968 55.8115 747.279 55.3151 748.369 54.3223C749.46 53.3132 750.005 52.1576 750.005 50.8555C750.005 48.9186 749.492 47.2829 748.467 45.9482C747.458 44.6136 746.164 43.9463 744.585 43.9463Z" fill="white"/>
<path d="M1316.95 74H1292V68.751L1300.96 59.6934C1303.61 56.9753 1305.35 55.0954 1306.16 54.0537C1306.98 52.9958 1307.56 52.0192 1307.92 51.124C1308.28 50.2288 1308.46 49.3011 1308.46 48.3408C1308.46 46.9085 1308.06 45.8424 1307.26 45.1426C1306.48 44.4427 1305.43 44.0928 1304.11 44.0928C1302.73 44.0928 1301.39 44.4102 1300.08 45.0449C1298.78 45.6797 1297.42 46.583 1296.01 47.7549L1291.9 42.8965C1293.66 41.3991 1295.12 40.3411 1296.27 39.7227C1297.43 39.1042 1298.69 38.6322 1300.06 38.3066C1301.43 37.9648 1302.96 37.7939 1304.65 37.7939C1306.88 37.7939 1308.85 38.2008 1310.56 39.0146C1312.27 39.8285 1313.59 40.9678 1314.54 42.4326C1315.48 43.8975 1315.95 45.5739 1315.95 47.4619C1315.95 49.1058 1315.66 50.652 1315.07 52.1006C1314.5 53.5329 1313.61 55.0059 1312.39 56.5195C1311.18 58.0332 1309.05 60.1898 1305.99 62.9893L1301.4 67.3105V67.6523H1316.95V74ZM1345.32 56.1533C1345.32 62.387 1344.3 67.0013 1342.25 69.9961C1340.21 72.9909 1337.07 74.4883 1332.82 74.4883C1328.7 74.4883 1325.6 72.9421 1323.5 69.8496C1321.41 66.7572 1320.37 62.1917 1320.37 56.1533C1320.37 49.8545 1321.39 45.2158 1323.42 42.2373C1325.46 39.2425 1328.59 37.7451 1332.82 37.7451C1336.94 37.7451 1340.05 39.3076 1342.15 42.4326C1344.26 45.5576 1345.32 50.1312 1345.32 56.1533ZM1327.87 56.1533C1327.87 60.5316 1328.24 63.6729 1328.99 65.5771C1329.75 67.4652 1331.03 68.4092 1332.82 68.4092C1334.58 68.4092 1335.85 67.4489 1336.63 65.5283C1337.41 63.6077 1337.8 60.4827 1337.8 56.1533C1337.8 51.7751 1337.4 48.6338 1336.61 46.7295C1335.83 44.8089 1334.56 43.8486 1332.82 43.8486C1331.05 43.8486 1329.78 44.8089 1329.01 46.7295C1328.25 48.6338 1327.87 51.7751 1327.87 56.1533ZM1374.08 74H1349.13V68.751L1358.09 59.6934C1360.74 56.9753 1362.48 55.0954 1363.29 54.0537C1364.1 52.9958 1364.69 52.0192 1365.05 51.124C1365.41 50.2288 1365.59 49.3011 1365.59 48.3408C1365.59 46.9085 1365.19 45.8424 1364.39 45.1426C1363.61 44.4427 1362.56 44.0928 1361.24 44.0928C1359.86 44.0928 1358.51 44.4102 1357.21 45.0449C1355.91 45.6797 1354.55 46.583 1353.13 47.7549L1349.03 42.8965C1350.79 41.3991 1352.25 40.3411 1353.4 39.7227C1354.56 39.1042 1355.82 38.6322 1357.19 38.3066C1358.55 37.9648 1360.08 37.7939 1361.78 37.7939C1364.01 37.7939 1365.98 38.2008 1367.69 39.0146C1369.39 39.8285 1370.72 40.9678 1371.67 42.4326C1372.61 43.8975 1373.08 45.5739 1373.08 47.4619C1373.08 49.1058 1372.79 50.652 1372.2 52.1006C1371.63 53.5329 1370.74 55.0059 1369.52 56.5195C1368.31 58.0332 1366.18 60.1898 1363.12 62.9893L1358.53 67.3105V67.6523H1374.08V74ZM1402.45 56.1533C1402.45 62.387 1401.43 67.0013 1399.38 69.9961C1397.34 72.9909 1394.2 74.4883 1389.95 74.4883C1385.83 74.4883 1382.72 72.9421 1380.62 69.8496C1378.54 66.7572 1377.5 62.1917 1377.5 56.1533C1377.5 49.8545 1378.52 45.2158 1380.55 42.2373C1382.59 39.2425 1385.72 37.7451 1389.95 37.7451C1394.07 37.7451 1397.18 39.3076 1399.28 42.4326C1401.39 45.5576 1402.45 50.1312 1402.45 56.1533ZM1385 56.1533C1385 60.5316 1385.37 63.6729 1386.12 65.5771C1386.88 67.4652 1388.16 68.4092 1389.95 68.4092C1391.71 68.4092 1392.98 67.4489 1393.76 65.5283C1394.54 63.6077 1394.93 60.4827 1394.93 56.1533C1394.93 51.7751 1394.53 48.6338 1393.74 46.7295C1392.95 44.8089 1391.69 43.8486 1389.95 43.8486C1388.18 43.8486 1386.91 44.8089 1386.14 46.7295C1385.38 48.6338 1385 51.7751 1385 56.1533Z" fill="white"/>
<line x1="1" y1="148" x2="1908" y2="148" stroke="url(#paint0_linear)" stroke-width="80"/>
<circle cx="273.28" cy="666.431" r="175.431" stroke="#0FDF49" stroke-width="176.233"/>
<circle cx="926.279" cy="666.431" r="175.431" stroke="#0FDF49" stroke-width="176.233"/>
<circle cx="1568.43" cy="670.431" r="175.431" stroke="#2A3254" stroke-width="176.233"/>
<path d="M448.712 666.431C448.712 569.543 370.168 491 273.28 491" stroke="#FF4D00" stroke-width="176.233"/>
<path d="M1101.71 666.431C1101.71 569.543 1023.17 491 926.281 491" stroke="#FF4D00" stroke-width="176.233"/>
<path d="M273.28 491C176.392 491 97.8486 569.543 97.8486 666.431C97.8486 763.32 176.392 841.863 273.28 841.863C285.636 841.863 297.693 840.586 309.328 838.156" stroke="#01AEF8" stroke-width="176.233"/>
<path d="M926.279 491C829.391 491 750.848 569.543 750.848 666.431C750.848 763.32 829.391 841.863 926.279 841.863C938.635 841.863 950.692 840.586 962.327 838.156" stroke="#01AEF8" stroke-width="176.233"/>
<path d="M69.8867 163H66.5664V151.203C64.6263 151.893 63.0117 152.368 61.7227 152.629C60.4336 152.876 59.099 153 57.7188 153C55.0234 153 52.9466 152.382 51.4883 151.145C50.043 149.908 49.3203 148.124 49.3203 145.793V134.445H52.6406V145.402C52.6406 146.978 53.0508 148.143 53.8711 148.898C54.7044 149.654 56.0521 150.031 57.9141 150.031C59.1771 150.031 60.3815 149.94 61.5273 149.758C62.6862 149.562 64.3659 149.107 66.5664 148.391V134.445H69.8867V163ZM80.2969 141.594V155.168L80.1602 158.723L80.1016 159.836L91.6836 141.594H95.7266V163H92.6992V149.914L92.7578 147.336L92.8555 144.797L81.293 163H77.25V141.594H80.2969ZM111.156 163.391C108.057 163.391 105.655 162.44 103.949 160.539C102.257 158.625 101.41 155.923 101.41 152.434C101.41 148.853 102.27 146.086 103.988 144.133C105.72 142.18 108.181 141.203 111.371 141.203C112.4 141.203 113.428 141.314 114.457 141.535C115.486 141.757 116.293 142.017 116.879 142.316L115.883 145.07C115.167 144.784 114.385 144.549 113.539 144.367C112.693 144.172 111.944 144.074 111.293 144.074C106.944 144.074 104.77 146.848 104.77 152.395C104.77 155.025 105.297 157.043 106.352 158.449C107.419 159.855 108.995 160.559 111.078 160.559C112.862 160.559 114.691 160.174 116.566 159.406V162.277C115.134 163.02 113.331 163.391 111.156 163.391ZM137.621 163H134.34V144.367H127.914C127.562 149.003 127.074 152.681 126.449 155.402C125.824 158.124 125.01 160.116 124.008 161.379C123.018 162.642 121.755 163.273 120.219 163.273C119.516 163.273 118.956 163.195 118.539 163.039V160.637C118.826 160.715 119.151 160.754 119.516 160.754C121.013 160.754 122.204 159.172 123.09 156.008C123.975 152.844 124.646 148.039 125.102 141.594H137.621V163ZM162.992 152.277C162.992 155.767 162.113 158.495 160.355 160.461C158.598 162.414 156.169 163.391 153.07 163.391C151.156 163.391 149.457 162.941 147.973 162.043C146.488 161.145 145.342 159.855 144.535 158.176C143.728 156.496 143.324 154.53 143.324 152.277C143.324 148.788 144.197 146.073 145.941 144.133C147.686 142.18 150.108 141.203 153.207 141.203C156.202 141.203 158.578 142.199 160.336 144.191C162.107 146.184 162.992 148.879 162.992 152.277ZM146.684 152.277C146.684 155.012 147.23 157.095 148.324 158.527C149.418 159.96 151.026 160.676 153.148 160.676C155.271 160.676 156.879 159.966 157.973 158.547C159.079 157.115 159.633 155.025 159.633 152.277C159.633 149.556 159.079 147.492 157.973 146.086C156.879 144.667 155.258 143.957 153.109 143.957C150.987 143.957 149.385 144.654 148.305 146.047C147.224 147.44 146.684 149.517 146.684 152.277ZM182.328 163H179.086V141.594H197.055V163H193.773V144.406H182.328V163ZM213.891 163.391C212.497 163.391 211.221 163.137 210.062 162.629C208.917 162.108 207.953 161.314 207.172 160.246H206.938C207.094 161.496 207.172 162.681 207.172 163.801V172.609H203.93V141.594H206.566L207.016 144.523H207.172C208.005 143.352 208.975 142.505 210.082 141.984C211.189 141.464 212.458 141.203 213.891 141.203C216.729 141.203 218.917 142.173 220.453 144.113C222.003 146.053 222.777 148.775 222.777 152.277C222.777 155.793 221.99 158.527 220.414 160.48C218.852 162.421 216.677 163.391 213.891 163.391ZM213.422 143.957C211.234 143.957 209.652 144.562 208.676 145.773C207.699 146.984 207.198 148.911 207.172 151.555V152.277C207.172 155.285 207.673 157.44 208.676 158.742C209.678 160.031 211.286 160.676 213.5 160.676C215.349 160.676 216.794 159.927 217.836 158.43C218.891 156.932 219.418 154.868 219.418 152.238C219.418 149.569 218.891 147.525 217.836 146.105C216.794 144.673 215.323 143.957 213.422 143.957ZM231.508 141.594V155.168L231.371 158.723L231.312 159.836L242.895 141.594H246.938V163H243.91V149.914L243.969 147.336L244.066 144.797L232.504 163H228.461V141.594H231.508ZM252.699 150.168C252.699 145.48 253.389 141.828 254.77 139.211C256.15 136.581 258.337 134.94 261.332 134.289C265.056 133.495 268.337 132.85 271.176 132.355L271.781 135.207C267.263 135.962 264.034 136.561 262.094 137.004C260.206 137.434 258.786 138.449 257.836 140.051C256.898 141.652 256.384 143.833 256.293 146.594H256.527C257.335 145.5 258.376 144.641 259.652 144.016C260.928 143.391 262.263 143.078 263.656 143.078C266.286 143.078 268.337 143.931 269.809 145.637C271.28 147.342 272.016 149.706 272.016 152.727C272.016 156.073 271.163 158.69 269.457 160.578C267.751 162.453 265.375 163.391 262.328 163.391C259.32 163.391 256.964 162.238 255.258 159.934C253.552 157.629 252.699 154.374 252.699 150.168ZM262.621 160.676C266.592 160.676 268.578 158.143 268.578 153.078C268.578 148.247 266.775 145.832 263.168 145.832C262.178 145.832 261.221 146.04 260.297 146.457C259.385 146.861 258.546 147.401 257.777 148.078C257.022 148.755 256.436 149.452 256.02 150.168C256.02 153.592 256.56 156.203 257.641 158C258.721 159.784 260.382 160.676 262.621 160.676ZM280.922 150.441H286.762C289.483 150.441 291.495 150.949 292.797 151.965C294.112 152.967 294.77 154.471 294.77 156.477C294.77 158.625 294.073 160.253 292.68 161.359C291.299 162.453 289.262 163 286.566 163H277.68V141.594H280.922V150.441ZM301.605 163H298.363V141.594H301.605V163ZM280.922 153.234V160.285H286.41C289.848 160.285 291.566 159.081 291.566 156.672C291.566 155.474 291.169 154.602 290.375 154.055C289.581 153.508 288.227 153.234 286.312 153.234H280.922ZM325.863 146.965C325.863 148.358 325.46 149.419 324.652 150.148C323.858 150.865 322.738 151.346 321.293 151.594V151.77C323.116 152.017 324.444 152.551 325.277 153.371C326.124 154.191 326.547 155.324 326.547 156.77C326.547 158.762 325.811 160.298 324.34 161.379C322.882 162.46 320.746 163 317.934 163H308.5V141.594H317.895C323.207 141.594 325.863 143.384 325.863 146.965ZM323.305 156.555C323.305 155.396 322.862 154.556 321.977 154.035C321.104 153.501 319.652 153.234 317.621 153.234H311.742V160.285H317.699C321.436 160.285 323.305 159.042 323.305 156.555ZM322.699 147.277C322.699 146.236 322.296 145.5 321.488 145.07C320.694 144.628 319.483 144.406 317.855 144.406H311.742V150.441H317.23C319.236 150.441 320.648 150.194 321.469 149.699C322.289 149.204 322.699 148.397 322.699 147.277ZM347.23 160.207H356.723V141.594H360.004V163H331.273V141.594H334.516V160.207H343.988V141.594H347.23V160.207ZM369.945 141.594V155.168L369.809 158.723L369.75 159.836L381.332 141.594H385.375V163H382.348V149.914L382.406 147.336L382.504 144.797L370.941 163H366.898V141.594H369.945ZM397.406 152.043L389.965 141.594H393.656L399.301 149.797L404.926 141.594H408.578L401.137 152.043L408.969 163H405.297L399.301 154.328L393.246 163H389.574L397.406 152.043Z" fill="white"/>
<path d="M46.4395 322H29.8428V276.561L30.0039 269.095L30.2725 260.931C27.5153 263.688 25.5996 265.496 24.5254 266.355L15.502 273.606L7.49902 263.616L32.7969 243.475H46.4395V322ZM124.911 305.726H115.458V322H99.2373V305.726H65.7217V294.178L100.15 243.475H115.458V292.835H124.911V305.726ZM99.2373 292.835V279.515C99.2373 277.295 99.3268 274.072 99.5059 269.847C99.6849 265.621 99.8281 263.169 99.9355 262.488H99.5059C98.181 265.424 96.5876 268.289 94.7256 271.082L80.3311 292.835H99.2373ZM187.753 305.726H178.3V322H162.079V305.726H128.563V294.178L162.992 243.475H178.3V292.835H187.753V305.726ZM162.079 292.835V279.515C162.079 277.295 162.169 274.072 162.348 269.847C162.527 265.621 162.67 263.169 162.777 262.488H162.348C161.023 265.424 159.429 268.289 157.567 271.082L143.173 292.835H162.079ZM279.169 305.726H269.716V322H253.495V305.726H219.979V294.178L254.408 243.475H269.716V292.835H279.169V305.726ZM253.495 292.835V279.515C253.495 277.295 253.585 274.072 253.764 269.847C253.943 265.621 254.086 263.169 254.193 262.488H253.764C252.439 265.424 250.845 268.289 248.983 271.082L234.589 292.835H253.495ZM342.011 305.726H332.558V322H316.337V305.726H282.821V294.178L317.25 243.475H332.558V292.835H342.011V305.726ZM316.337 292.835V279.515C316.337 277.295 316.426 274.072 316.605 269.847C316.785 265.621 316.928 263.169 317.035 262.488H316.605C315.281 265.424 313.687 268.289 311.825 271.082L297.431 292.835H316.337ZM404.853 305.726H395.399V322H379.179V305.726H345.663V294.178L380.092 243.475H395.399V292.835H404.853V305.726ZM379.179 292.835V279.515C379.179 277.295 379.268 274.072 379.447 269.847C379.626 265.621 379.77 263.169 379.877 262.488H379.447C378.122 265.424 376.529 268.289 374.667 271.082L360.272 292.835H379.179Z" fill="#FF0000"/>
<path d="M692.439 322H675.843V276.561L676.004 269.095L676.272 260.931C673.515 263.688 671.6 265.496 670.525 266.355L661.502 273.606L653.499 263.616L678.797 243.475H692.439V322ZM766.077 261.038C766.077 265.944 764.591 270.115 761.619 273.553C758.647 276.99 754.476 279.354 749.104 280.643V280.965C755.442 281.753 760.241 283.686 763.499 286.766C766.757 289.809 768.387 293.927 768.387 299.119C768.387 306.674 765.647 312.565 760.169 316.79C754.69 320.979 746.867 323.074 736.697 323.074C728.175 323.074 720.62 321.66 714.031 318.831V304.705C717.075 306.245 720.423 307.498 724.075 308.465C727.728 309.432 731.344 309.915 734.925 309.915C740.403 309.915 744.45 308.984 747.063 307.122C749.677 305.26 750.984 302.27 750.984 298.152C750.984 294.464 749.48 291.85 746.473 290.311C743.465 288.771 738.667 288.001 732.078 288.001H726.116V275.271H732.186C738.273 275.271 742.713 274.484 745.506 272.908C748.335 271.297 749.749 268.558 749.749 264.69C749.749 258.746 746.025 255.774 738.577 255.774C735.999 255.774 733.367 256.204 730.682 257.063C728.032 257.923 725.078 259.409 721.819 261.521L714.139 250.081C721.3 244.925 729.84 242.347 739.759 242.347C747.887 242.347 754.297 243.994 758.987 247.288C763.714 250.582 766.077 255.166 766.077 261.038ZM831.658 276.99C831.658 292.459 828.4 304.007 821.883 311.634C815.366 319.261 805.501 323.074 792.288 323.074C787.633 323.074 784.106 322.824 781.707 322.322V309.002C784.715 309.754 787.866 310.13 791.16 310.13C796.71 310.13 801.276 309.324 804.856 307.713C808.437 306.066 811.176 303.506 813.074 300.032C814.972 296.523 816.064 291.707 816.351 285.584H815.706C813.629 288.95 811.23 291.313 808.509 292.674C805.787 294.035 802.386 294.715 798.304 294.715C791.465 294.715 786.076 292.531 782.137 288.162C778.198 283.758 776.229 277.653 776.229 269.847C776.229 261.432 778.61 254.79 783.372 249.92C788.17 245.014 794.687 242.562 802.923 242.562C808.724 242.562 813.79 243.922 818.123 246.644C822.492 249.365 825.84 253.322 828.167 258.514C830.494 263.67 831.658 269.829 831.658 276.99ZM803.245 255.882C799.808 255.882 797.122 257.063 795.188 259.427C793.255 261.79 792.288 265.192 792.288 269.632C792.288 273.427 793.165 276.435 794.92 278.655C796.674 280.875 799.342 281.985 802.923 281.985C806.289 281.985 809.171 280.893 811.57 278.709C813.969 276.489 815.169 273.947 815.169 271.082C815.169 266.821 814.041 263.222 811.785 260.286C809.565 257.35 806.718 255.882 803.245 255.882ZM923.396 322H868.504V310.452L888.216 290.525C894.052 284.546 897.866 280.41 899.656 278.118C901.447 275.791 902.736 273.642 903.523 271.673C904.311 269.703 904.705 267.662 904.705 265.55C904.705 262.399 903.828 260.053 902.073 258.514C900.354 256.974 898.045 256.204 895.145 256.204C892.101 256.204 889.147 256.902 886.282 258.299C883.418 259.695 880.428 261.683 877.312 264.261L868.289 253.572C872.156 250.278 875.361 247.951 877.903 246.59C880.446 245.229 883.221 244.191 886.229 243.475C889.236 242.723 892.602 242.347 896.326 242.347C901.232 242.347 905.564 243.242 909.324 245.032C913.084 246.823 916.002 249.329 918.079 252.552C920.156 255.774 921.194 259.463 921.194 263.616C921.194 267.233 920.55 270.634 919.261 273.821C918.007 276.972 916.038 280.213 913.353 283.543C910.703 286.873 906.012 291.618 899.28 297.776L889.183 307.283V308.035H923.396V322ZM959.92 271.834C967.511 271.834 973.545 273.965 978.021 278.226C982.532 282.487 984.788 288.323 984.788 295.735C984.788 304.508 982.085 311.258 976.678 315.984C971.271 320.711 963.536 323.074 953.475 323.074C944.738 323.074 937.684 321.66 932.312 318.831V304.49C935.141 305.994 938.436 307.229 942.195 308.196C945.955 309.127 949.518 309.593 952.884 309.593C963.017 309.593 968.084 305.439 968.084 297.132C968.084 289.218 962.838 285.262 952.347 285.262C950.449 285.262 948.354 285.459 946.062 285.853C943.771 286.211 941.909 286.604 940.477 287.034L933.87 283.489L936.824 243.475H979.417V257.547H951.38L949.93 272.962L951.81 272.586C953.994 272.085 956.697 271.834 959.92 271.834ZM1049.08 322H994.188V310.452L1013.9 290.525C1019.74 284.546 1023.55 280.41 1025.34 278.118C1027.13 275.791 1028.42 273.642 1029.21 271.673C1029.99 269.703 1030.39 267.662 1030.39 265.55C1030.39 262.399 1029.51 260.053 1027.76 258.514C1026.04 256.974 1023.73 256.204 1020.83 256.204C1017.78 256.204 1014.83 256.902 1011.97 258.299C1009.1 259.695 1006.11 261.683 1003 264.261L993.973 253.572C997.84 250.278 1001.04 247.951 1003.59 246.59C1006.13 245.229 1008.9 244.191 1011.91 243.475C1014.92 242.723 1018.29 242.347 1022.01 242.347C1026.92 242.347 1031.25 243.242 1035.01 245.032C1038.77 246.823 1041.69 249.329 1043.76 252.552C1045.84 255.774 1046.88 259.463 1046.88 263.616C1046.88 267.233 1046.23 270.634 1044.94 273.821C1043.69 276.972 1041.72 280.213 1039.04 283.543C1036.39 286.873 1031.7 291.618 1024.96 297.776L1014.87 307.283V308.035H1049.08V322Z" fill="#FF0000"/>
<path d="M1338.44 322H1321.84V276.561L1322 269.095L1322.27 260.931C1319.52 263.688 1317.6 265.496 1316.53 266.355L1307.5 273.606L1299.5 263.616L1324.8 243.475H1338.44V322ZM1415.14 322H1360.25V310.452L1379.96 290.525C1385.79 284.546 1389.61 280.41 1391.4 278.118C1393.19 275.791 1394.48 273.642 1395.27 271.673C1396.05 269.703 1396.45 267.662 1396.45 265.55C1396.45 262.399 1395.57 260.053 1393.82 258.514C1392.1 256.974 1389.79 256.204 1386.89 256.204C1383.84 256.204 1380.89 256.902 1378.02 258.299C1375.16 259.695 1372.17 261.683 1369.05 264.261L1360.03 253.572C1363.9 250.278 1367.1 247.951 1369.65 246.59C1372.19 245.229 1374.96 244.191 1377.97 243.475C1380.98 242.723 1384.34 242.347 1388.07 242.347C1392.97 242.347 1397.31 243.242 1401.07 245.032C1404.83 246.823 1407.74 249.329 1409.82 252.552C1411.9 255.774 1412.94 259.463 1412.94 263.616C1412.94 267.233 1412.29 270.634 1411 273.821C1409.75 276.972 1407.78 280.213 1405.09 283.543C1402.44 286.873 1397.75 291.618 1391.02 297.776L1380.92 307.283V308.035H1415.14V322ZM1477.55 282.737C1477.55 296.451 1475.29 306.603 1470.78 313.191C1466.31 319.78 1459.4 323.074 1450.05 323.074C1440.99 323.074 1434.15 319.673 1429.53 312.869C1424.95 306.066 1422.66 296.022 1422.66 282.737C1422.66 268.88 1424.9 258.675 1429.37 252.122C1433.85 245.534 1440.74 242.239 1450.05 242.239C1459.11 242.239 1465.95 245.677 1470.57 252.552C1475.22 259.427 1477.55 269.489 1477.55 282.737ZM1439.15 282.737C1439.15 292.369 1439.97 299.28 1441.62 303.47C1443.3 307.623 1446.11 309.7 1450.05 309.7C1453.92 309.7 1456.71 307.588 1458.43 303.362C1460.15 299.137 1461.01 292.262 1461.01 282.737C1461.01 273.105 1460.13 266.194 1458.38 262.005C1456.66 257.78 1453.88 255.667 1450.05 255.667C1446.15 255.667 1443.35 257.78 1441.67 262.005C1439.99 266.194 1439.15 273.105 1439.15 282.737ZM1555.54 322H1538.94V276.561L1539.1 269.095L1539.37 260.931C1536.61 263.688 1534.7 265.496 1533.62 266.355L1524.6 273.606L1516.6 263.616L1541.9 243.475H1555.54V322ZM1576.81 288.646C1576.81 273.105 1580.08 261.539 1586.64 253.948C1593.23 246.357 1603.07 242.562 1616.18 242.562C1620.65 242.562 1624.16 242.83 1626.71 243.367V256.634C1623.52 255.918 1620.37 255.56 1617.25 255.56C1611.56 255.56 1606.9 256.419 1603.29 258.138C1599.71 259.856 1597.02 262.399 1595.23 265.765C1593.44 269.131 1592.38 273.911 1592.06 280.105H1592.76C1596.31 274.018 1601.98 270.975 1609.79 270.975C1616.81 270.975 1622.3 273.177 1626.28 277.581C1630.25 281.985 1632.24 288.073 1632.24 295.843C1632.24 304.222 1629.88 310.864 1625.15 315.77C1620.42 320.639 1613.87 323.074 1605.49 323.074C1599.69 323.074 1594.62 321.731 1590.29 319.046C1585.99 316.36 1582.66 312.439 1580.3 307.283C1577.97 302.127 1576.81 295.914 1576.81 288.646ZM1605.17 309.808C1608.71 309.808 1611.43 308.626 1613.33 306.263C1615.23 303.864 1616.18 300.462 1616.18 296.058C1616.18 292.226 1615.28 289.218 1613.49 287.034C1611.74 284.814 1609.07 283.704 1605.49 283.704C1602.12 283.704 1599.24 284.796 1596.84 286.98C1594.48 289.165 1593.3 291.707 1593.3 294.607C1593.3 298.868 1594.41 302.467 1596.63 305.403C1598.88 308.34 1601.73 309.808 1605.17 309.808ZM1695.08 322H1640.19V310.452L1659.9 290.525C1665.74 284.546 1669.55 280.41 1671.34 278.118C1673.13 275.791 1674.42 273.642 1675.21 271.673C1675.99 269.703 1676.39 267.662 1676.39 265.55C1676.39 262.399 1675.51 260.053 1673.76 258.514C1672.04 256.974 1669.73 256.204 1666.83 256.204C1663.78 256.204 1660.83 256.902 1657.97 258.299C1655.1 259.695 1652.11 261.683 1649 264.261L1639.97 253.572C1643.84 250.278 1647.04 247.951 1649.59 246.59C1652.13 245.229 1654.9 244.191 1657.91 243.475C1660.92 242.723 1664.29 242.347 1668.01 242.347C1672.92 242.347 1677.25 243.242 1681.01 245.032C1684.77 246.823 1687.69 249.329 1689.76 252.552C1691.84 255.774 1692.88 259.463 1692.88 263.616C1692.88 267.233 1692.23 270.634 1690.94 273.821C1689.69 276.972 1687.72 280.213 1685.04 283.543C1682.39 286.873 1677.7 291.618 1670.96 297.776L1660.87 307.283V308.035H1695.08V322Z" fill="#FF0000"/>
<path d="M59.7578 679.448C59.7578 672.384 61.2471 667.127 64.2256 663.677C67.2204 660.226 71.6963 658.501 77.6533 658.501C79.6878 658.501 81.2829 658.623 82.4385 658.867V664.897C80.9899 664.572 79.5576 664.409 78.1416 664.409C75.5537 664.409 73.4378 664.8 71.7939 665.581C70.1663 666.362 68.9456 667.518 68.1318 669.048C67.318 670.578 66.8379 672.751 66.6914 675.566H67.0088C68.6201 672.799 71.1999 671.416 74.748 671.416C77.9382 671.416 80.4365 672.417 82.2432 674.419C84.0498 676.421 84.9531 679.188 84.9531 682.72C84.9531 686.528 83.8789 689.548 81.7305 691.777C79.582 693.991 76.6035 695.098 72.7949 695.098C70.1582 695.098 67.8551 694.487 65.8857 693.267C63.9326 692.046 62.4189 690.264 61.3447 687.92C60.2868 685.576 59.7578 682.752 59.7578 679.448ZM72.6484 689.067C74.2598 689.067 75.4967 688.53 76.3594 687.456C77.222 686.366 77.6533 684.819 77.6533 682.817C77.6533 681.076 77.2464 679.709 76.4326 678.716C75.6351 677.707 74.4225 677.202 72.7949 677.202C71.265 677.202 69.9548 677.699 68.8643 678.691C67.79 679.684 67.2529 680.84 67.2529 682.158C67.2529 684.095 67.7575 685.731 68.7666 687.065C69.792 688.4 71.0859 689.067 72.6484 689.067ZM113.518 694.609H88.5664V689.36L97.5264 680.303C100.179 677.585 101.913 675.705 102.727 674.663C103.54 673.605 104.126 672.629 104.484 671.733C104.842 670.838 105.021 669.91 105.021 668.95C105.021 667.518 104.623 666.452 103.825 665.752C103.044 665.052 101.994 664.702 100.676 664.702C99.2923 664.702 97.9495 665.02 96.6475 665.654C95.3454 666.289 93.9863 667.192 92.5703 668.364L88.4688 663.506C90.2266 662.008 91.6833 660.951 92.8389 660.332C93.9945 659.714 95.2559 659.242 96.623 658.916C97.9902 658.574 99.5202 658.403 101.213 658.403C103.443 658.403 105.412 658.81 107.121 659.624C108.83 660.438 110.157 661.577 111.101 663.042C112.045 664.507 112.517 666.183 112.517 668.071C112.517 669.715 112.224 671.261 111.638 672.71C111.068 674.142 110.173 675.615 108.952 677.129C107.748 678.643 105.616 680.799 102.556 683.599L97.9658 687.92V688.262H113.518V694.609ZM122.819 669.609C122.819 671.676 122.998 673.223 123.356 674.248C123.731 675.257 124.325 675.762 125.139 675.762C126.701 675.762 127.482 673.711 127.482 669.609C127.482 665.54 126.701 663.506 125.139 663.506C124.325 663.506 123.731 664.01 123.356 665.02C122.998 666.012 122.819 667.542 122.819 669.609ZM133.635 669.561C133.635 673.304 132.91 676.12 131.462 678.008C130.013 679.88 127.889 680.815 125.09 680.815C122.404 680.815 120.329 679.855 118.864 677.935C117.399 675.998 116.667 673.206 116.667 669.561C116.667 662.122 119.475 658.403 125.09 658.403C127.84 658.403 129.948 659.372 131.413 661.309C132.894 663.229 133.635 665.98 133.635 669.561ZM150.432 658.916L130.632 694.609H124.772L144.572 658.916H150.432ZM147.819 683.867C147.819 685.934 147.998 687.48 148.356 688.506C148.731 689.515 149.325 690.02 150.139 690.02C151.701 690.02 152.482 687.969 152.482 683.867C152.482 679.798 151.701 677.764 150.139 677.764C149.325 677.764 148.731 678.268 148.356 679.277C147.998 680.27 147.819 681.8 147.819 683.867ZM158.635 683.818C158.635 687.546 157.91 690.353 156.462 692.241C155.013 694.113 152.889 695.049 150.09 695.049C147.404 695.049 145.329 694.089 143.864 692.168C142.399 690.231 141.667 687.448 141.667 683.818C141.667 676.38 144.475 672.661 150.09 672.661C152.84 672.661 154.948 673.63 156.413 675.566C157.894 677.487 158.635 680.238 158.635 683.818Z" fill="white"/>
<path d="M712.758 679.448C712.758 672.384 714.247 667.127 717.226 663.677C720.22 660.226 724.696 658.501 730.653 658.501C732.688 658.501 734.283 658.623 735.438 658.867V664.897C733.99 664.572 732.558 664.409 731.142 664.409C728.554 664.409 726.438 664.8 724.794 665.581C723.166 666.362 721.946 667.518 721.132 669.048C720.318 670.578 719.838 672.751 719.691 675.566H720.009C721.62 672.799 724.2 671.416 727.748 671.416C730.938 671.416 733.437 672.417 735.243 674.419C737.05 676.421 737.953 679.188 737.953 682.72C737.953 686.528 736.879 689.548 734.73 691.777C732.582 693.991 729.604 695.098 725.795 695.098C723.158 695.098 720.855 694.487 718.886 693.267C716.933 692.046 715.419 690.264 714.345 687.92C713.287 685.576 712.758 682.752 712.758 679.448ZM725.648 689.067C727.26 689.067 728.497 688.53 729.359 687.456C730.222 686.366 730.653 684.819 730.653 682.817C730.653 681.076 730.246 679.709 729.433 678.716C728.635 677.707 727.423 677.202 725.795 677.202C724.265 677.202 722.955 677.699 721.864 678.691C720.79 679.684 720.253 680.84 720.253 682.158C720.253 684.095 720.757 685.731 721.767 687.065C722.792 688.4 724.086 689.067 725.648 689.067ZM766.518 694.609H741.566V689.36L750.526 680.303C753.179 677.585 754.913 675.705 755.727 674.663C756.54 673.605 757.126 672.629 757.484 671.733C757.842 670.838 758.021 669.91 758.021 668.95C758.021 667.518 757.623 666.452 756.825 665.752C756.044 665.052 754.994 664.702 753.676 664.702C752.292 664.702 750.95 665.02 749.647 665.654C748.345 666.289 746.986 667.192 745.57 668.364L741.469 663.506C743.227 662.008 744.683 660.951 745.839 660.332C746.994 659.714 748.256 659.242 749.623 658.916C750.99 658.574 752.52 658.403 754.213 658.403C756.443 658.403 758.412 658.81 760.121 659.624C761.83 660.438 763.157 661.577 764.101 663.042C765.045 664.507 765.517 666.183 765.517 668.071C765.517 669.715 765.224 671.261 764.638 672.71C764.068 674.142 763.173 675.615 761.952 677.129C760.748 678.643 758.616 680.799 755.556 683.599L750.966 687.92V688.262H766.518V694.609ZM775.819 669.609C775.819 671.676 775.998 673.223 776.356 674.248C776.731 675.257 777.325 675.762 778.139 675.762C779.701 675.762 780.482 673.711 780.482 669.609C780.482 665.54 779.701 663.506 778.139 663.506C777.325 663.506 776.731 664.01 776.356 665.02C775.998 666.012 775.819 667.542 775.819 669.609ZM786.635 669.561C786.635 673.304 785.91 676.12 784.462 678.008C783.013 679.88 780.889 680.815 778.09 680.815C775.404 680.815 773.329 679.855 771.864 677.935C770.399 675.998 769.667 673.206 769.667 669.561C769.667 662.122 772.475 658.403 778.09 658.403C780.84 658.403 782.948 659.372 784.413 661.309C785.894 663.229 786.635 665.98 786.635 669.561ZM803.432 658.916L783.632 694.609H777.772L797.572 658.916H803.432ZM800.819 683.867C800.819 685.934 800.998 687.48 801.356 688.506C801.731 689.515 802.325 690.02 803.139 690.02C804.701 690.02 805.482 687.969 805.482 683.867C805.482 679.798 804.701 677.764 803.139 677.764C802.325 677.764 801.731 678.268 801.356 679.277C800.998 680.27 800.819 681.8 800.819 683.867ZM811.635 683.818C811.635 687.546 810.91 690.353 809.462 692.241C808.013 694.113 805.889 695.049 803.09 695.049C800.404 695.049 798.329 694.089 796.864 692.168C795.399 690.231 794.667 687.448 794.667 683.818C794.667 676.38 797.475 672.661 803.09 672.661C805.84 672.661 807.948 673.63 809.413 675.566C810.894 677.487 811.635 680.238 811.635 683.818Z" fill="white"/>
<path d="M376.538 564.838H351.587V559.589L360.547 550.531C363.2 547.813 364.933 545.933 365.747 544.892C366.561 543.834 367.147 542.857 367.505 541.962C367.863 541.067 368.042 540.139 368.042 539.179C368.042 537.747 367.643 536.68 366.846 535.981C366.064 535.281 365.015 534.931 363.696 534.931C362.313 534.931 360.97 535.248 359.668 535.883C358.366 536.518 357.007 537.421 355.591 538.593L351.489 533.734C353.247 532.237 354.704 531.179 355.859 530.561C357.015 529.942 358.276 529.47 359.644 529.145C361.011 528.803 362.541 528.632 364.233 528.632C366.463 528.632 368.433 529.039 370.142 529.853C371.851 530.666 373.177 531.806 374.121 533.271C375.065 534.735 375.537 536.412 375.537 538.3C375.537 539.944 375.244 541.49 374.658 542.939C374.089 544.371 373.193 545.844 371.973 547.358C370.768 548.871 368.636 551.028 365.576 553.827L360.986 558.149V558.49H376.538V564.838ZM405.103 564.838H380.151V559.589L389.111 550.531C391.764 547.813 393.498 545.933 394.312 544.892C395.125 543.834 395.711 542.857 396.069 541.962C396.427 541.067 396.606 540.139 396.606 539.179C396.606 537.747 396.208 536.68 395.41 535.981C394.629 535.281 393.579 534.931 392.261 534.931C390.877 534.931 389.535 535.248 388.232 535.883C386.93 536.518 385.571 537.421 384.155 538.593L380.054 533.734C381.812 532.237 383.268 531.179 384.424 530.561C385.579 529.942 386.841 529.47 388.208 529.145C389.575 528.803 391.105 528.632 392.798 528.632C395.028 528.632 396.997 529.039 398.706 529.853C400.415 530.666 401.742 531.806 402.686 533.271C403.63 534.735 404.102 536.412 404.102 538.3C404.102 539.944 403.809 541.49 403.223 542.939C402.653 544.371 401.758 545.844 400.537 547.358C399.333 548.871 397.201 551.028 394.141 553.827L389.551 558.149V558.49H405.103V564.838ZM414.404 539.838C414.404 541.905 414.583 543.451 414.941 544.477C415.316 545.486 415.91 545.99 416.724 545.99C418.286 545.99 419.067 543.94 419.067 539.838C419.067 535.769 418.286 533.734 416.724 533.734C415.91 533.734 415.316 534.239 414.941 535.248C414.583 536.241 414.404 537.771 414.404 539.838ZM425.22 539.789C425.22 543.533 424.495 546.348 423.047 548.236C421.598 550.108 419.474 551.044 416.675 551.044C413.989 551.044 411.914 550.084 410.449 548.163C408.984 546.226 408.252 543.435 408.252 539.789C408.252 532.351 411.06 528.632 416.675 528.632C419.425 528.632 421.533 529.6 422.998 531.537C424.479 533.458 425.22 536.208 425.22 539.789ZM442.017 529.145L422.217 564.838H416.357L436.157 529.145H442.017ZM439.404 554.096C439.404 556.163 439.583 557.709 439.941 558.734C440.316 559.744 440.91 560.248 441.724 560.248C443.286 560.248 444.067 558.197 444.067 554.096C444.067 550.027 443.286 547.992 441.724 547.992C440.91 547.992 440.316 548.497 439.941 549.506C439.583 550.499 439.404 552.029 439.404 554.096ZM450.22 554.047C450.22 557.774 449.495 560.582 448.047 562.47C446.598 564.342 444.474 565.277 441.675 565.277C438.989 565.277 436.914 564.317 435.449 562.397C433.984 560.46 433.252 557.677 433.252 554.047C433.252 546.609 436.06 542.89 441.675 542.89C444.425 542.89 446.533 543.858 447.998 545.795C449.479 547.716 450.22 550.466 450.22 554.047Z" fill="white"/>
<path d="M1029.54 564.838H1004.59V559.589L1013.55 550.531C1016.2 547.813 1017.93 545.933 1018.75 544.892C1019.56 543.834 1020.15 542.857 1020.51 541.962C1020.86 541.067 1021.04 540.139 1021.04 539.179C1021.04 537.747 1020.64 536.68 1019.85 535.981C1019.07 535.281 1018.02 534.931 1016.7 534.931C1015.31 534.931 1013.97 535.248 1012.67 535.883C1011.37 536.518 1010.01 537.421 1008.59 538.593L1004.49 533.734C1006.25 532.237 1007.7 531.179 1008.86 530.561C1010.02 529.942 1011.28 529.47 1012.64 529.145C1014.01 528.803 1015.54 528.632 1017.23 528.632C1019.46 528.632 1021.43 529.039 1023.14 529.853C1024.85 530.666 1026.18 531.806 1027.12 533.271C1028.07 534.735 1028.54 536.412 1028.54 538.3C1028.54 539.944 1028.25 541.49 1027.66 542.939C1027.09 544.371 1026.19 545.844 1024.97 547.358C1023.77 548.871 1021.64 551.028 1018.58 553.827L1013.99 558.149V558.49H1029.54V564.838ZM1058.91 557.441H1054.61V564.838H1047.24V557.441H1032V552.192L1047.65 529.145H1054.61V551.581H1058.91V557.441ZM1047.24 551.581V545.526C1047.24 544.517 1047.28 543.053 1047.36 541.132C1047.44 539.211 1047.51 538.096 1047.56 537.787H1047.36C1046.76 539.122 1046.03 540.424 1045.19 541.693L1038.65 551.581H1047.24ZM1067.41 539.838C1067.41 541.905 1067.58 543.451 1067.94 544.477C1068.32 545.486 1068.91 545.99 1069.72 545.99C1071.29 545.99 1072.07 543.94 1072.07 539.838C1072.07 535.769 1071.29 533.734 1069.72 533.734C1068.91 533.734 1068.32 534.239 1067.94 535.248C1067.58 536.241 1067.41 537.771 1067.41 539.838ZM1078.22 539.789C1078.22 543.533 1077.5 546.348 1076.05 548.236C1074.6 550.108 1072.48 551.044 1069.68 551.044C1066.99 551.044 1064.92 550.084 1063.45 548.163C1061.99 546.226 1061.25 543.435 1061.25 539.789C1061.25 532.351 1064.06 528.632 1069.68 528.632C1072.43 528.632 1074.53 529.6 1076 531.537C1077.48 533.458 1078.22 536.208 1078.22 539.789ZM1095.02 529.145L1075.22 564.838H1069.36L1089.16 529.145H1095.02ZM1092.41 554.096C1092.41 556.163 1092.58 557.709 1092.94 558.734C1093.32 559.744 1093.91 560.248 1094.72 560.248C1096.29 560.248 1097.07 558.197 1097.07 554.096C1097.07 550.027 1096.29 547.992 1094.72 547.992C1093.91 547.992 1093.32 548.497 1092.94 549.506C1092.58 550.499 1092.41 552.029 1092.41 554.096ZM1103.22 554.047C1103.22 557.774 1102.5 560.582 1101.05 562.47C1099.6 564.342 1097.48 565.277 1094.68 565.277C1091.99 565.277 1089.92 564.317 1088.45 562.397C1086.99 560.46 1086.25 557.677 1086.25 554.047C1086.25 546.609 1089.06 542.89 1094.68 542.89C1097.43 542.89 1099.53 543.858 1101 545.795C1102.48 547.716 1103.22 550.466 1103.22 554.047Z" fill="white"/>
<path d="M373.443 777.919H365.899V757.265L365.973 753.871L366.095 750.16C364.841 751.414 363.971 752.236 363.482 752.626L359.381 755.922L355.743 751.381L367.242 742.226H373.443V777.919ZM383.111 762.758C383.111 755.694 384.601 750.437 387.579 746.987C390.574 743.536 395.05 741.811 401.007 741.811C403.041 741.811 404.636 741.933 405.792 742.177V748.207C404.343 747.882 402.911 747.719 401.495 747.719C398.907 747.719 396.791 748.11 395.147 748.891C393.52 749.672 392.299 750.828 391.485 752.358C390.672 753.888 390.191 756.06 390.045 758.876H390.362C391.974 756.109 394.553 754.726 398.102 754.726C401.292 754.726 403.79 755.727 405.597 757.729C407.403 759.731 408.307 762.498 408.307 766.03C408.307 769.838 407.232 772.857 405.084 775.087C402.936 777.301 399.957 778.407 396.148 778.407C393.512 778.407 391.209 777.797 389.239 776.576C387.286 775.356 385.772 773.573 384.698 771.23C383.64 768.886 383.111 766.062 383.111 762.758ZM396.002 772.377C397.613 772.377 398.85 771.84 399.713 770.766C400.576 769.675 401.007 768.129 401.007 766.127C401.007 764.386 400.6 763.018 399.786 762.026C398.989 761.017 397.776 760.512 396.148 760.512C394.618 760.512 393.308 761.008 392.218 762.001C391.144 762.994 390.606 764.15 390.606 765.468C390.606 767.405 391.111 769.041 392.12 770.375C393.146 771.71 394.439 772.377 396.002 772.377ZM417.608 752.919C417.608 754.986 417.787 756.532 418.146 757.558C418.52 758.567 419.114 759.072 419.928 759.072C421.49 759.072 422.271 757.021 422.271 752.919C422.271 748.85 421.49 746.816 419.928 746.816C419.114 746.816 418.52 747.32 418.146 748.329C417.787 749.322 417.608 750.852 417.608 752.919ZM428.424 752.87C428.424 756.614 427.7 759.43 426.251 761.318C424.802 763.189 422.678 764.125 419.879 764.125C417.193 764.125 415.118 763.165 413.653 761.244C412.188 759.308 411.456 756.516 411.456 752.87C411.456 745.432 414.264 741.713 419.879 741.713C422.63 741.713 424.737 742.682 426.202 744.618C427.683 746.539 428.424 749.29 428.424 752.87ZM445.221 742.226L425.421 777.919H419.562L439.361 742.226H445.221ZM442.608 767.177C442.608 769.244 442.787 770.79 443.146 771.816C443.52 772.825 444.114 773.329 444.928 773.329C446.49 773.329 447.271 771.279 447.271 767.177C447.271 763.108 446.49 761.073 444.928 761.073C444.114 761.073 443.52 761.578 443.146 762.587C442.787 763.58 442.608 765.11 442.608 767.177ZM453.424 767.128C453.424 770.855 452.7 773.663 451.251 775.551C449.802 777.423 447.678 778.359 444.879 778.359C442.193 778.359 440.118 777.398 438.653 775.478C437.188 773.541 436.456 770.758 436.456 767.128C436.456 759.69 439.264 755.971 444.879 755.971C447.63 755.971 449.737 756.939 451.202 758.876C452.683 760.797 453.424 763.547 453.424 767.128Z" fill="white"/>
<path d="M1026.44 777.919H1018.9V757.265L1018.97 753.871L1019.09 750.16C1017.84 751.414 1016.97 752.236 1016.48 752.626L1012.38 755.922L1008.74 751.381L1020.24 742.226H1026.44V777.919ZM1062.11 770.522H1057.82V777.919H1050.44V770.522H1035.21V765.273L1050.86 742.226H1057.82V764.662H1062.11V770.522ZM1050.44 764.662V758.608C1050.44 757.599 1050.48 756.134 1050.56 754.213C1050.65 752.293 1050.71 751.178 1050.76 750.868H1050.56C1049.96 752.203 1049.24 753.505 1048.39 754.775L1041.85 764.662H1050.44ZM1070.61 752.919C1070.61 754.986 1070.79 756.532 1071.15 757.558C1071.52 758.567 1072.11 759.072 1072.93 759.072C1074.49 759.072 1075.27 757.021 1075.27 752.919C1075.27 748.85 1074.49 746.816 1072.93 746.816C1072.11 746.816 1071.52 747.32 1071.15 748.329C1070.79 749.322 1070.61 750.852 1070.61 752.919ZM1081.42 752.87C1081.42 756.614 1080.7 759.43 1079.25 761.318C1077.8 763.189 1075.68 764.125 1072.88 764.125C1070.19 764.125 1068.12 763.165 1066.65 761.244C1065.19 759.308 1064.46 756.516 1064.46 752.87C1064.46 745.432 1067.26 741.713 1072.88 741.713C1075.63 741.713 1077.74 742.682 1079.2 744.618C1080.68 746.539 1081.42 749.29 1081.42 752.87ZM1098.22 742.226L1078.42 777.919H1072.56L1092.36 742.226H1098.22ZM1095.61 767.177C1095.61 769.244 1095.79 770.79 1096.15 771.816C1096.52 772.825 1097.11 773.329 1097.93 773.329C1099.49 773.329 1100.27 771.279 1100.27 767.177C1100.27 763.108 1099.49 761.073 1097.93 761.073C1097.11 761.073 1096.52 761.578 1096.15 762.587C1095.79 763.58 1095.61 765.11 1095.61 767.177ZM1106.42 767.128C1106.42 770.855 1105.7 773.663 1104.25 775.551C1102.8 777.423 1100.68 778.359 1097.88 778.359C1095.19 778.359 1093.12 777.398 1091.65 775.478C1090.19 773.541 1089.46 770.758 1089.46 767.128C1089.46 759.69 1092.26 755.971 1097.88 755.971C1100.63 755.971 1102.74 756.939 1104.2 758.876C1105.68 760.797 1106.42 763.547 1106.42 767.128Z" fill="white"/>
<path d="M62.5234 1040H56.4883V1023.48L56.5469 1020.76L56.6445 1017.79C55.6419 1018.8 54.9453 1019.45 54.5547 1019.77L51.2734 1022.4L48.3633 1018.77L57.5625 1011.45H62.5234V1040ZM90.4141 1040H70.4531V1035.8L77.6211 1028.55C79.7435 1026.38 81.1302 1024.88 81.7812 1024.04C82.4323 1023.2 82.901 1022.42 83.1875 1021.7C83.474 1020.98 83.6172 1020.24 83.6172 1019.47C83.6172 1018.33 83.2982 1017.47 82.6602 1016.91C82.0352 1016.35 81.1953 1016.07 80.1406 1016.07C79.0339 1016.07 77.9596 1016.33 76.918 1016.84C75.8763 1017.34 74.7891 1018.07 73.6562 1019L70.375 1015.12C71.7812 1013.92 72.9466 1013.07 73.8711 1012.58C74.7956 1012.08 75.8047 1011.71 76.8984 1011.45C77.9922 1011.17 79.2161 1011.04 80.5703 1011.04C82.3542 1011.04 83.9297 1011.36 85.2969 1012.01C86.6641 1012.66 87.7253 1013.57 88.4805 1014.75C89.2357 1015.92 89.6133 1017.26 89.6133 1018.77C89.6133 1020.08 89.3789 1021.32 88.9102 1022.48C88.4544 1023.63 87.7383 1024.8 86.7617 1026.02C85.7982 1027.23 84.0924 1028.95 81.6445 1031.19L77.9727 1034.65V1034.92H90.4141V1040ZM113.109 1025.72C113.109 1030.71 112.289 1034.4 110.648 1036.8C109.021 1039.19 106.508 1040.39 103.109 1040.39C99.8151 1040.39 97.3281 1039.15 95.6484 1036.68C93.9818 1034.21 93.1484 1030.55 93.1484 1025.72C93.1484 1020.68 93.9622 1016.97 95.5898 1014.59C97.2174 1012.19 99.724 1011 103.109 1011C106.404 1011 108.891 1012.25 110.57 1014.75C112.263 1017.25 113.109 1020.9 113.109 1025.72ZM99.1445 1025.72C99.1445 1029.23 99.444 1031.74 100.043 1033.26C100.655 1034.77 101.677 1035.53 103.109 1035.53C104.516 1035.53 105.531 1034.76 106.156 1033.22C106.781 1031.69 107.094 1029.19 107.094 1025.72C107.094 1022.22 106.775 1019.71 106.137 1018.18C105.512 1016.65 104.503 1015.88 103.109 1015.88C101.69 1015.88 100.674 1016.65 100.062 1018.18C99.4505 1019.71 99.1445 1022.22 99.1445 1025.72ZM141.469 1040H135.434V1023.48L135.492 1020.76L135.59 1017.79C134.587 1018.8 133.891 1019.45 133.5 1019.77L130.219 1022.4L127.309 1018.77L136.508 1011.45H141.469V1040ZM159.789 1021.76C162.549 1021.76 164.743 1022.53 166.371 1024.08C168.012 1025.63 168.832 1027.75 168.832 1030.45C168.832 1033.64 167.849 1036.09 165.883 1037.81C163.917 1039.53 161.104 1040.39 157.445 1040.39C154.268 1040.39 151.703 1039.88 149.75 1038.85V1033.63C150.779 1034.18 151.977 1034.63 153.344 1034.98C154.711 1035.32 156.007 1035.49 157.23 1035.49C160.915 1035.49 162.758 1033.98 162.758 1030.96C162.758 1028.08 160.85 1026.64 157.035 1026.64C156.345 1026.64 155.583 1026.71 154.75 1026.86C153.917 1026.99 153.24 1027.13 152.719 1027.29L150.316 1026L151.391 1011.45H166.879V1016.56H156.684L156.156 1022.17L156.84 1022.03C157.634 1021.85 158.617 1021.76 159.789 1021.76ZM192.211 1040H172.25V1035.8L179.418 1028.55C181.54 1026.38 182.927 1024.88 183.578 1024.04C184.229 1023.2 184.698 1022.42 184.984 1021.7C185.271 1020.98 185.414 1020.24 185.414 1019.47C185.414 1018.33 185.095 1017.47 184.457 1016.91C183.832 1016.35 182.992 1016.07 181.938 1016.07C180.831 1016.07 179.757 1016.33 178.715 1016.84C177.673 1017.34 176.586 1018.07 175.453 1019L172.172 1015.12C173.578 1013.92 174.743 1013.07 175.668 1012.58C176.592 1012.08 177.602 1011.71 178.695 1011.45C179.789 1011.17 181.013 1011.04 182.367 1011.04C184.151 1011.04 185.727 1011.36 187.094 1012.01C188.461 1012.66 189.522 1013.57 190.277 1014.75C191.033 1015.92 191.41 1017.26 191.41 1018.77C191.41 1020.08 191.176 1021.32 190.707 1022.48C190.251 1023.63 189.535 1024.8 188.559 1026.02C187.595 1027.23 185.889 1028.95 183.441 1031.19L179.77 1034.65V1034.92H192.211V1040ZM57.9922 1080.39C54.8932 1080.39 52.4909 1079.44 50.7852 1077.54C49.0924 1075.62 48.2461 1072.92 48.2461 1069.43C48.2461 1065.85 49.1055 1063.09 50.8242 1061.13C52.556 1059.18 55.0169 1058.2 58.207 1058.2C59.2357 1058.2 60.2643 1058.31 61.293 1058.54C62.3216 1058.76 63.1289 1059.02 63.7148 1059.32L62.7188 1062.07C62.0026 1061.78 61.2214 1061.55 60.375 1061.37C59.5286 1061.17 58.7799 1061.07 58.1289 1061.07C53.7799 1061.07 51.6055 1063.85 51.6055 1069.39C51.6055 1072.02 52.1328 1074.04 53.1875 1075.45C54.2552 1076.86 55.8307 1077.56 57.9141 1077.56C59.6979 1077.56 61.5273 1077.17 63.4023 1076.41V1079.28C61.9701 1080.02 60.1667 1080.39 57.9922 1080.39ZM82.9336 1061.37H75.9805V1080H72.7383V1061.37H65.8633V1058.59H82.9336V1061.37ZM100.336 1080L99.6914 1076.95H99.5352C98.4674 1078.29 97.3997 1079.21 96.332 1079.69C95.2773 1080.16 93.9557 1080.39 92.3672 1080.39C90.2448 1080.39 88.5781 1079.84 87.3672 1078.75C86.1693 1077.66 85.5703 1076.1 85.5703 1074.08C85.5703 1069.76 89.0273 1067.49 95.9414 1067.29L99.5742 1067.17V1065.84C99.5742 1064.16 99.2096 1062.92 98.4805 1062.13C97.7643 1061.32 96.612 1060.92 95.0234 1060.92C93.2396 1060.92 91.2214 1061.46 88.9688 1062.56L87.9727 1060.08C89.0273 1059.51 90.1797 1059.06 91.4297 1058.73C92.6927 1058.4 93.9557 1058.24 95.2188 1058.24C97.7708 1058.24 99.6589 1058.81 100.883 1059.94C102.12 1061.07 102.738 1062.89 102.738 1065.39V1080H100.336ZM93.0117 1077.71C95.0299 1077.71 96.612 1077.16 97.7578 1076.05C98.9167 1074.95 99.4961 1073.4 99.4961 1071.41V1069.47L96.2539 1069.61C93.6758 1069.7 91.8138 1070.1 90.668 1070.82C89.5352 1071.52 88.9688 1072.62 88.9688 1074.12C88.9688 1075.29 89.3203 1076.18 90.0234 1076.8C90.7396 1077.41 91.7357 1077.71 93.0117 1077.71ZM119.398 1080.39C118.005 1080.39 116.729 1080.14 115.57 1079.63C114.424 1079.11 113.461 1078.31 112.68 1077.25H112.445C112.602 1078.5 112.68 1079.68 112.68 1080.8V1089.61H109.438V1058.59H112.074L112.523 1061.52H112.68C113.513 1060.35 114.483 1059.51 115.59 1058.98C116.697 1058.46 117.966 1058.2 119.398 1058.2C122.237 1058.2 124.424 1059.17 125.961 1061.11C127.51 1063.05 128.285 1065.77 128.285 1069.28C128.285 1072.79 127.497 1075.53 125.922 1077.48C124.359 1079.42 122.185 1080.39 119.398 1080.39ZM118.93 1060.96C116.742 1060.96 115.16 1061.56 114.184 1062.77C113.207 1063.98 112.706 1065.91 112.68 1068.55V1069.28C112.68 1072.29 113.181 1074.44 114.184 1075.74C115.186 1077.03 116.794 1077.68 119.008 1077.68C120.857 1077.68 122.302 1076.93 123.344 1075.43C124.398 1073.93 124.926 1071.87 124.926 1069.24C124.926 1066.57 124.398 1064.52 123.344 1063.11C122.302 1061.67 120.831 1060.96 118.93 1060.96ZM149.926 1077.21H159.418V1058.59H162.699V1080H133.969V1058.59H137.211V1077.21H146.684V1058.59H149.926V1077.21ZM178.637 1080.39C175.473 1080.39 172.973 1079.43 171.137 1077.5C169.314 1075.57 168.402 1072.9 168.402 1069.47C168.402 1066.02 169.249 1063.28 170.941 1061.25C172.647 1059.22 174.932 1058.2 177.797 1058.2C180.479 1058.2 182.602 1059.09 184.164 1060.86C185.727 1062.62 186.508 1064.94 186.508 1067.83V1069.88H171.762C171.827 1072.4 172.458 1074.3 173.656 1075.61C174.867 1076.91 176.566 1077.56 178.754 1077.56C181.059 1077.56 183.337 1077.08 185.59 1076.11V1079C184.444 1079.5 183.357 1079.85 182.328 1080.06C181.312 1080.28 180.082 1080.39 178.637 1080.39ZM177.758 1060.92C176.039 1060.92 174.665 1061.48 173.637 1062.6C172.621 1063.72 172.022 1065.27 171.84 1067.25H183.031C183.031 1065.2 182.576 1063.64 181.664 1062.56C180.753 1061.46 179.451 1060.92 177.758 1060.92ZM212.973 1080H209.809V1059.65C209.809 1057.96 209.861 1056.35 209.965 1054.84C209.691 1055.12 209.385 1055.4 209.047 1055.7C208.708 1056 207.159 1057.27 204.398 1059.51L202.68 1057.29L210.238 1051.45H212.973V1080ZM243.969 1073.44H239.73V1080H236.625V1073.44H222.738V1070.61L236.293 1051.29H239.73V1070.49H243.969V1073.44ZM236.625 1070.49V1061C236.625 1059.13 236.69 1057.03 236.82 1054.69H236.664C236.039 1055.94 235.453 1056.97 234.906 1057.79L225.98 1070.49H236.625ZM274.574 1080H271.293V1061.37H264.867C264.516 1066 264.027 1069.68 263.402 1072.4C262.777 1075.12 261.964 1077.12 260.961 1078.38C259.971 1079.64 258.708 1080.27 257.172 1080.27C256.469 1080.27 255.909 1080.2 255.492 1080.04V1077.64C255.779 1077.71 256.104 1077.75 256.469 1077.75C257.966 1077.75 259.158 1076.17 260.043 1073.01C260.928 1069.84 261.599 1065.04 262.055 1058.59H274.574V1080ZM290.512 1080.39C287.348 1080.39 284.848 1079.43 283.012 1077.5C281.189 1075.57 280.277 1072.9 280.277 1069.47C280.277 1066.02 281.124 1063.28 282.816 1061.25C284.522 1059.22 286.807 1058.2 289.672 1058.2C292.354 1058.2 294.477 1059.09 296.039 1060.86C297.602 1062.62 298.383 1064.94 298.383 1067.83V1069.88H283.637C283.702 1072.4 284.333 1074.3 285.531 1075.61C286.742 1076.91 288.441 1077.56 290.629 1077.56C292.934 1077.56 295.212 1077.08 297.465 1076.11V1079C296.319 1079.5 295.232 1079.85 294.203 1080.06C293.188 1080.28 291.957 1080.39 290.512 1080.39ZM289.633 1060.92C287.914 1060.92 286.54 1061.48 285.512 1062.6C284.496 1063.72 283.897 1065.27 283.715 1067.25H294.906C294.906 1065.2 294.451 1063.64 293.539 1062.56C292.628 1061.46 291.326 1060.92 289.633 1060.92ZM318.363 1061.37H311.41V1080H308.168V1061.37H301.293V1058.59H318.363V1061.37Z" fill="white"/>
<path d="M669.523 1040H663.488V1023.48L663.547 1020.76L663.645 1017.79C662.642 1018.8 661.945 1019.45 661.555 1019.77L658.273 1022.4L655.363 1018.77L664.562 1011.45H669.523V1040ZM692.375 1040H686.34V1023.48L686.398 1020.76L686.496 1017.79C685.493 1018.8 684.797 1019.45 684.406 1019.77L681.125 1022.4L678.215 1018.77L687.414 1011.45H692.375V1040ZM719.152 1017.83C719.152 1019.62 718.612 1021.13 717.531 1022.38C716.451 1023.63 714.934 1024.49 712.98 1024.96V1025.08C715.285 1025.36 717.03 1026.07 718.215 1027.19C719.4 1028.29 719.992 1029.79 719.992 1031.68C719.992 1034.43 718.996 1036.57 717.004 1038.11C715.012 1039.63 712.167 1040.39 708.469 1040.39C705.37 1040.39 702.622 1039.88 700.227 1038.85V1033.71C701.333 1034.27 702.551 1034.73 703.879 1035.08C705.207 1035.43 706.522 1035.61 707.824 1035.61C709.816 1035.61 711.288 1035.27 712.238 1034.59C713.189 1033.91 713.664 1032.83 713.664 1031.33C713.664 1029.99 713.117 1029.04 712.023 1028.48C710.93 1027.92 709.185 1027.64 706.789 1027.64H704.621V1023.01H706.828C709.042 1023.01 710.656 1022.72 711.672 1022.15C712.701 1021.56 713.215 1020.57 713.215 1019.16C713.215 1017 711.861 1015.92 709.152 1015.92C708.215 1015.92 707.258 1016.07 706.281 1016.39C705.318 1016.7 704.243 1017.24 703.059 1018.01L700.266 1013.85C702.87 1011.97 705.975 1011.04 709.582 1011.04C712.538 1011.04 714.868 1011.63 716.574 1012.83C718.293 1014.03 719.152 1015.7 719.152 1017.83ZM743.391 1011.07C746.125 1011.07 748.326 1011.7 749.992 1012.95C751.672 1014.19 752.512 1015.86 752.512 1017.97C752.512 1019.43 752.108 1020.73 751.301 1021.88C750.493 1023.01 749.191 1024.02 747.395 1024.92C749.53 1026.07 751.06 1027.27 751.984 1028.52C752.922 1029.75 753.391 1031.11 753.391 1032.6C753.391 1034.94 752.473 1036.83 750.637 1038.26C748.801 1039.68 746.385 1040.39 743.391 1040.39C740.266 1040.39 737.811 1039.73 736.027 1038.4C734.243 1037.07 733.352 1035.19 733.352 1032.75C733.352 1031.13 733.781 1029.68 734.641 1028.42C735.513 1027.15 736.906 1026.04 738.82 1025.08C737.193 1024.05 736.021 1022.95 735.305 1021.78C734.589 1020.61 734.23 1019.32 734.23 1017.93C734.23 1015.89 735.077 1014.23 736.77 1012.97C738.462 1011.71 740.669 1011.07 743.391 1011.07ZM738.938 1032.4C738.938 1033.52 739.328 1034.39 740.109 1035.02C740.891 1035.64 741.958 1035.96 743.312 1035.96C744.81 1035.96 745.93 1035.64 746.672 1035C747.414 1034.35 747.785 1033.5 747.785 1032.44C747.785 1031.57 747.414 1030.76 746.672 1030C745.943 1029.23 744.751 1028.42 743.098 1027.56C740.324 1028.83 738.938 1030.45 738.938 1032.4ZM743.352 1015.49C742.323 1015.49 741.49 1015.76 740.852 1016.29C740.227 1016.81 739.914 1017.51 739.914 1018.4C739.914 1019.18 740.161 1019.88 740.656 1020.51C741.164 1021.12 742.076 1021.75 743.391 1022.4C744.667 1021.8 745.559 1021.19 746.066 1020.57C746.574 1019.94 746.828 1019.22 746.828 1018.4C746.828 1017.5 746.503 1016.79 745.852 1016.27C745.201 1015.75 744.367 1015.49 743.352 1015.49ZM777.004 1034.08H773.566V1040H767.668V1034.08H755.48V1029.88L768 1011.45H773.566V1029.39H777.004V1034.08ZM767.668 1029.39V1024.55C767.668 1023.74 767.701 1022.57 767.766 1021.04C767.831 1019.5 767.883 1018.61 767.922 1018.36H767.766C767.284 1019.43 766.704 1020.47 766.027 1021.48L760.793 1029.39H767.668ZM789.641 1021.76C792.401 1021.76 794.595 1022.53 796.223 1024.08C797.863 1025.63 798.684 1027.75 798.684 1030.45C798.684 1033.64 797.701 1036.09 795.734 1037.81C793.768 1039.53 790.956 1040.39 787.297 1040.39C784.12 1040.39 781.555 1039.88 779.602 1038.85V1033.63C780.63 1034.18 781.828 1034.63 783.195 1034.98C784.562 1035.32 785.858 1035.49 787.082 1035.49C790.767 1035.49 792.609 1033.98 792.609 1030.96C792.609 1028.08 790.702 1026.64 786.887 1026.64C786.197 1026.64 785.435 1026.71 784.602 1026.86C783.768 1026.99 783.091 1027.13 782.57 1027.29L780.168 1026L781.242 1011.45H796.73V1016.56H786.535L786.008 1022.17L786.691 1022.03C787.486 1021.85 788.469 1021.76 789.641 1021.76ZM664.992 1080.39C661.893 1080.39 659.491 1079.44 657.785 1077.54C656.092 1075.62 655.246 1072.92 655.246 1069.43C655.246 1065.85 656.105 1063.09 657.824 1061.13C659.556 1059.18 662.017 1058.2 665.207 1058.2C666.236 1058.2 667.264 1058.31 668.293 1058.54C669.322 1058.76 670.129 1059.02 670.715 1059.32L669.719 1062.07C669.003 1061.78 668.221 1061.55 667.375 1061.37C666.529 1061.17 665.78 1061.07 665.129 1061.07C660.78 1061.07 658.605 1063.85 658.605 1069.39C658.605 1072.02 659.133 1074.04 660.188 1075.45C661.255 1076.86 662.831 1077.56 664.914 1077.56C666.698 1077.56 668.527 1077.17 670.402 1076.41V1079.28C668.97 1080.02 667.167 1080.39 664.992 1080.39ZM689.934 1061.37H682.98V1080H679.738V1061.37H672.863V1058.59H689.934V1061.37ZM707.336 1080L706.691 1076.95H706.535C705.467 1078.29 704.4 1079.21 703.332 1079.69C702.277 1080.16 700.956 1080.39 699.367 1080.39C697.245 1080.39 695.578 1079.84 694.367 1078.75C693.169 1077.66 692.57 1076.1 692.57 1074.08C692.57 1069.76 696.027 1067.49 702.941 1067.29L706.574 1067.17V1065.84C706.574 1064.16 706.21 1062.92 705.48 1062.13C704.764 1061.32 703.612 1060.92 702.023 1060.92C700.24 1060.92 698.221 1061.46 695.969 1062.56L694.973 1060.08C696.027 1059.51 697.18 1059.06 698.43 1058.73C699.693 1058.4 700.956 1058.24 702.219 1058.24C704.771 1058.24 706.659 1058.81 707.883 1059.94C709.12 1061.07 709.738 1062.89 709.738 1065.39V1080H707.336ZM700.012 1077.71C702.03 1077.71 703.612 1077.16 704.758 1076.05C705.917 1074.95 706.496 1073.4 706.496 1071.41V1069.47L703.254 1069.61C700.676 1069.7 698.814 1070.1 697.668 1070.82C696.535 1071.52 695.969 1072.62 695.969 1074.12C695.969 1075.29 696.32 1076.18 697.023 1076.8C697.74 1077.41 698.736 1077.71 700.012 1077.71ZM726.398 1080.39C725.005 1080.39 723.729 1080.14 722.57 1079.63C721.424 1079.11 720.461 1078.31 719.68 1077.25H719.445C719.602 1078.5 719.68 1079.68 719.68 1080.8V1089.61H716.438V1058.59H719.074L719.523 1061.52H719.68C720.513 1060.35 721.483 1059.51 722.59 1058.98C723.697 1058.46 724.966 1058.2 726.398 1058.2C729.237 1058.2 731.424 1059.17 732.961 1061.11C734.51 1063.05 735.285 1065.77 735.285 1069.28C735.285 1072.79 734.497 1075.53 732.922 1077.48C731.359 1079.42 729.185 1080.39 726.398 1080.39ZM725.93 1060.96C723.742 1060.96 722.16 1061.56 721.184 1062.77C720.207 1063.98 719.706 1065.91 719.68 1068.55V1069.28C719.68 1072.29 720.181 1074.44 721.184 1075.74C722.186 1077.03 723.794 1077.68 726.008 1077.68C727.857 1077.68 729.302 1076.93 730.344 1075.43C731.398 1073.93 731.926 1071.87 731.926 1069.24C731.926 1066.57 731.398 1064.52 730.344 1063.11C729.302 1061.67 727.831 1060.96 725.93 1060.96ZM756.926 1077.21H766.418V1058.59H769.699V1080H740.969V1058.59H744.211V1077.21H753.684V1058.59H756.926V1077.21ZM785.637 1080.39C782.473 1080.39 779.973 1079.43 778.137 1077.5C776.314 1075.57 775.402 1072.9 775.402 1069.47C775.402 1066.02 776.249 1063.28 777.941 1061.25C779.647 1059.22 781.932 1058.2 784.797 1058.2C787.479 1058.2 789.602 1059.09 791.164 1060.86C792.727 1062.62 793.508 1064.94 793.508 1067.83V1069.88H778.762C778.827 1072.4 779.458 1074.3 780.656 1075.61C781.867 1076.91 783.566 1077.56 785.754 1077.56C788.059 1077.56 790.337 1077.08 792.59 1076.11V1079C791.444 1079.5 790.357 1079.85 789.328 1080.06C788.312 1080.28 787.082 1080.39 785.637 1080.39ZM784.758 1060.92C783.039 1060.92 781.665 1061.48 780.637 1062.6C779.621 1063.72 779.022 1065.27 778.84 1067.25H790.031C790.031 1065.2 789.576 1063.64 788.664 1062.56C787.753 1061.46 786.451 1060.92 784.758 1060.92ZM819.973 1080H816.809V1059.65C816.809 1057.96 816.861 1056.35 816.965 1054.84C816.691 1055.12 816.385 1055.4 816.047 1055.7C815.708 1056 814.159 1057.27 811.398 1059.51L809.68 1057.29L817.238 1051.45H819.973V1080ZM850.969 1073.44H846.73V1080H843.625V1073.44H829.738V1070.61L843.293 1051.29H846.73V1070.49H850.969V1073.44ZM843.625 1070.49V1061C843.625 1059.13 843.69 1057.03 843.82 1054.69H843.664C843.039 1055.94 842.453 1056.97 841.906 1057.79L832.98 1070.49H843.625ZM881.574 1080H878.293V1061.37H871.867C871.516 1066 871.027 1069.68 870.402 1072.4C869.777 1075.12 868.964 1077.12 867.961 1078.38C866.971 1079.64 865.708 1080.27 864.172 1080.27C863.469 1080.27 862.909 1080.2 862.492 1080.04V1077.64C862.779 1077.71 863.104 1077.75 863.469 1077.75C864.966 1077.75 866.158 1076.17 867.043 1073.01C867.928 1069.84 868.599 1065.04 869.055 1058.59H881.574V1080ZM897.512 1080.39C894.348 1080.39 891.848 1079.43 890.012 1077.5C888.189 1075.57 887.277 1072.9 887.277 1069.47C887.277 1066.02 888.124 1063.28 889.816 1061.25C891.522 1059.22 893.807 1058.2 896.672 1058.2C899.354 1058.2 901.477 1059.09 903.039 1060.86C904.602 1062.62 905.383 1064.94 905.383 1067.83V1069.88H890.637C890.702 1072.4 891.333 1074.3 892.531 1075.61C893.742 1076.91 895.441 1077.56 897.629 1077.56C899.934 1077.56 902.212 1077.08 904.465 1076.11V1079C903.319 1079.5 902.232 1079.85 901.203 1080.06C900.188 1080.28 898.957 1080.39 897.512 1080.39ZM896.633 1060.92C894.914 1060.92 893.54 1061.48 892.512 1062.6C891.496 1063.72 890.897 1065.27 890.715 1067.25H901.906C901.906 1065.2 901.451 1063.64 900.539 1062.56C899.628 1061.46 898.326 1060.92 896.633 1060.92ZM925.363 1061.37H918.41V1080H915.168V1061.37H908.293V1058.59H925.363V1061.37Z" fill="white"/>
<path d="M701.697 1267H700.057V1257.68H696.844C696.668 1260 696.424 1261.84 696.111 1263.2C695.799 1264.56 695.392 1265.56 694.891 1266.19C694.396 1266.82 693.764 1267.14 692.996 1267.14C692.645 1267.14 692.365 1267.1 692.156 1267.02V1265.82C692.299 1265.86 692.462 1265.88 692.645 1265.88C693.393 1265.88 693.989 1265.09 694.432 1263.5C694.874 1261.92 695.21 1259.52 695.438 1256.3H701.697V1267ZM706.668 1256.3V1263.08L706.6 1264.86L706.57 1265.42L712.361 1256.3H714.383V1267H712.869V1260.46L712.898 1259.17L712.947 1257.9L707.166 1267H705.145V1256.3H706.668ZM719.246 1256.3V1260.2C719.246 1261.45 719.959 1262.08 721.385 1262.08C721.977 1262.08 722.544 1261.99 723.084 1261.8C723.624 1261.62 724.236 1261.31 724.92 1260.88V1256.3H726.541V1267H724.92V1262.16C724.236 1262.62 723.602 1262.96 723.016 1263.15C722.436 1263.34 721.779 1263.44 721.043 1263.44C719.975 1263.44 719.139 1263.16 718.533 1262.6C717.928 1262.04 717.625 1261.28 717.625 1260.32V1256.3H719.246ZM731.609 1256.3V1260.78H737.605V1256.3H739.227V1267H737.605V1262.18H731.609V1267H729.988V1256.3H731.609ZM744.285 1260.72H747.205C748.566 1260.72 749.572 1260.97 750.223 1261.48C750.88 1261.98 751.209 1262.74 751.209 1263.74C751.209 1264.81 750.861 1265.63 750.164 1266.18C749.474 1266.73 748.455 1267 747.107 1267H742.664V1256.3H744.285V1260.72ZM754.627 1267H753.006V1256.3H754.627V1267ZM744.285 1262.12V1265.64H747.029C748.748 1265.64 749.607 1265.04 749.607 1263.84C749.607 1263.24 749.409 1262.8 749.012 1262.53C748.615 1262.25 747.938 1262.12 746.98 1262.12H744.285ZM762.596 1267.2C761.014 1267.2 759.764 1266.71 758.846 1265.75C757.934 1264.79 757.479 1263.45 757.479 1261.74C757.479 1260.01 757.902 1258.64 758.748 1257.62C759.601 1256.61 760.743 1256.1 762.176 1256.1C763.517 1256.1 764.578 1256.54 765.359 1257.43C766.141 1258.31 766.531 1259.47 766.531 1260.92V1261.94H759.158C759.191 1263.2 759.507 1264.15 760.105 1264.8C760.711 1265.45 761.561 1265.78 762.654 1265.78C763.807 1265.78 764.946 1265.54 766.072 1265.06V1266.5C765.499 1266.75 764.956 1266.93 764.441 1267.03C763.934 1267.14 763.318 1267.2 762.596 1267.2ZM762.156 1257.46C761.297 1257.46 760.61 1257.74 760.096 1258.3C759.588 1258.86 759.288 1259.63 759.197 1260.62H764.793C764.793 1259.6 764.565 1258.82 764.109 1258.28C763.654 1257.73 763.003 1257.46 762.156 1257.46ZM695.34 1287H693.719V1276.3H702.703V1287H701.062V1277.7H695.34V1287ZM711.121 1287.2C710.424 1287.2 709.786 1287.07 709.207 1286.81C708.634 1286.55 708.152 1286.16 707.762 1285.62H707.645C707.723 1286.25 707.762 1286.84 707.762 1287.4V1291.8H706.141V1276.3H707.459L707.684 1277.76H707.762C708.178 1277.18 708.663 1276.75 709.217 1276.49C709.77 1276.23 710.405 1276.1 711.121 1276.1C712.54 1276.1 713.634 1276.59 714.402 1277.56C715.177 1278.53 715.564 1279.89 715.564 1281.64C715.564 1283.4 715.171 1284.76 714.383 1285.74C713.602 1286.71 712.514 1287.2 711.121 1287.2ZM710.887 1277.48C709.793 1277.48 709.002 1277.78 708.514 1278.39C708.025 1278.99 707.775 1279.96 707.762 1281.28V1281.64C707.762 1283.14 708.012 1284.22 708.514 1284.87C709.015 1285.52 709.819 1285.84 710.926 1285.84C711.85 1285.84 712.573 1285.46 713.094 1284.71C713.621 1283.97 713.885 1282.93 713.885 1281.62C713.885 1280.28 713.621 1279.26 713.094 1278.55C712.573 1277.84 711.837 1277.48 710.887 1277.48ZM719.93 1276.3V1283.08L719.861 1284.86L719.832 1285.42L725.623 1276.3H727.645V1287H726.131V1280.46L726.16 1279.17L726.209 1277.9L720.428 1287H718.406V1276.3H719.93ZM732.508 1276.3V1280.2C732.508 1281.45 733.221 1282.08 734.646 1282.08C735.239 1282.08 735.805 1281.99 736.346 1281.8C736.886 1281.62 737.498 1281.31 738.182 1280.88V1276.3H739.803V1287H738.182V1282.16C737.498 1282.62 736.863 1282.96 736.277 1283.15C735.698 1283.34 735.04 1283.44 734.305 1283.44C733.237 1283.44 732.4 1283.16 731.795 1282.6C731.189 1282.04 730.887 1281.28 730.887 1280.32V1276.3H732.508ZM744.773 1276.3V1283.08L744.705 1284.86L744.676 1285.42L750.467 1276.3H752.488V1287H750.975V1280.46L751.004 1279.17L751.053 1277.9L745.271 1287H743.25V1276.3H744.773ZM757.547 1276.3V1280.78H763.543V1276.3H765.164V1287H763.543V1282.18H757.547V1287H755.926V1276.3H757.547ZM770.223 1280.72H773.143C774.503 1280.72 775.509 1280.97 776.16 1281.48C776.818 1281.98 777.146 1282.74 777.146 1283.74C777.146 1284.81 776.798 1285.63 776.102 1286.18C775.411 1286.73 774.393 1287 773.045 1287H768.602V1276.3H770.223V1280.72ZM780.564 1287H778.943V1276.3H780.564V1287ZM770.223 1282.12V1285.64H772.967C774.686 1285.64 775.545 1285.04 775.545 1283.84C775.545 1283.24 775.346 1282.8 774.949 1282.53C774.552 1282.25 773.875 1282.12 772.918 1282.12H770.223Z" fill="white"/>
<path d="M945.022 1265.69H947.021L949.717 1272.71C950.308 1274.31 950.675 1275.47 950.817 1276.18H950.907C951.005 1275.8 951.207 1275.15 951.514 1274.23C951.828 1273.3 952.846 1270.45 954.568 1265.69H956.567L951.278 1279.71C950.754 1281.09 950.14 1282.07 949.436 1282.65C948.74 1283.23 947.882 1283.53 946.864 1283.53C946.295 1283.53 945.734 1283.46 945.18 1283.33V1281.84C945.591 1281.93 946.052 1281.98 946.561 1281.98C947.841 1281.98 948.755 1281.26 949.301 1279.82L949.986 1278.07L945.022 1265.69ZM960.206 1265.69V1270.18C960.206 1271.62 961.026 1272.34 962.666 1272.34C963.347 1272.34 963.998 1272.24 964.62 1272.03C965.241 1271.82 965.945 1271.46 966.731 1270.96V1265.69H968.595V1278H966.731V1272.43C965.945 1272.97 965.215 1273.35 964.541 1273.58C963.875 1273.79 963.118 1273.9 962.272 1273.9C961.045 1273.9 960.083 1273.58 959.386 1272.94C958.69 1272.29 958.342 1271.42 958.342 1270.32V1265.69H960.206ZM977.759 1278.22C975.94 1278.22 974.502 1277.67 973.447 1276.56C972.399 1275.45 971.875 1273.92 971.875 1271.95C971.875 1269.96 972.361 1268.39 973.334 1267.22C974.315 1266.05 975.629 1265.47 977.276 1265.47C978.819 1265.47 980.039 1265.98 980.938 1266.99C981.836 1268 982.285 1269.34 982.285 1271V1272.18H973.806C973.844 1273.63 974.207 1274.72 974.896 1275.47C975.592 1276.22 976.569 1276.6 977.827 1276.6C979.152 1276.6 980.462 1276.32 981.757 1275.77V1277.43C981.098 1277.71 980.473 1277.91 979.882 1278.03C979.298 1278.16 978.59 1278.22 977.759 1278.22ZM977.254 1267.03C976.266 1267.03 975.476 1267.35 974.884 1267.99C974.3 1268.64 973.956 1269.53 973.851 1270.67H980.286C980.286 1269.49 980.024 1268.59 979.5 1267.97C978.976 1267.34 978.227 1267.03 977.254 1267.03ZM974.143 1262.36C974.143 1261.97 974.24 1261.69 974.435 1261.51C974.637 1261.34 974.877 1261.26 975.154 1261.26C975.438 1261.26 975.682 1261.34 975.884 1261.51C976.093 1261.69 976.198 1261.97 976.198 1262.36C976.198 1262.73 976.093 1263.01 975.884 1263.2C975.682 1263.38 975.438 1263.47 975.154 1263.47C974.877 1263.47 974.637 1263.38 974.435 1263.2C974.24 1263.01 974.143 1262.73 974.143 1262.36ZM978.422 1262.36C978.422 1261.97 978.519 1261.69 978.714 1261.51C978.916 1261.34 979.156 1261.26 979.433 1261.26C979.71 1261.26 979.949 1261.34 980.151 1261.51C980.361 1261.69 980.466 1261.97 980.466 1262.36C980.466 1262.73 980.361 1263.01 980.151 1263.2C979.949 1263.38 979.71 1263.47 979.433 1263.47C979.156 1263.47 978.916 1263.38 978.714 1263.2C978.519 1263.01 978.422 1262.73 978.422 1262.36ZM984.834 1270.62C984.834 1267.93 985.231 1265.83 986.025 1264.32C986.819 1262.81 988.076 1261.87 989.798 1261.49C991.94 1261.03 993.826 1260.66 995.458 1260.38L995.807 1262.02C993.209 1262.45 991.352 1262.8 990.236 1263.05C989.151 1263.3 988.335 1263.88 987.788 1264.8C987.249 1265.73 986.953 1266.98 986.901 1268.57H987.036C987.5 1267.94 988.099 1267.44 988.833 1267.08C989.566 1266.72 990.334 1266.54 991.135 1266.54C992.647 1266.54 993.826 1267.04 994.672 1268.02C995.518 1269 995.941 1270.36 995.941 1272.09C995.941 1274.02 995.451 1275.52 994.47 1276.61C993.489 1277.69 992.123 1278.22 990.371 1278.22C988.642 1278.22 987.286 1277.56 986.306 1276.24C985.325 1274.91 984.834 1273.04 984.834 1270.62ZM990.54 1276.66C992.823 1276.66 993.965 1275.21 993.965 1272.29C993.965 1269.52 992.928 1268.13 990.854 1268.13C990.285 1268.13 989.735 1268.25 989.203 1268.49C988.679 1268.72 988.196 1269.03 987.754 1269.42C987.32 1269.81 986.983 1270.21 986.744 1270.62C986.744 1272.59 987.054 1274.09 987.676 1275.12C988.297 1276.15 989.252 1276.66 990.54 1276.66ZM1006.77 1278L1006.4 1276.25H1006.31C1005.69 1277.02 1005.08 1277.54 1004.47 1277.82C1003.86 1278.09 1003.1 1278.22 1002.19 1278.22C1000.97 1278.22 1000.01 1277.91 999.311 1277.28C998.622 1276.65 998.277 1275.76 998.277 1274.6C998.277 1272.11 1000.27 1270.81 1004.24 1270.69L1006.33 1270.62V1269.86C1006.33 1268.89 1006.12 1268.18 1005.7 1267.72C1005.29 1267.26 1004.63 1267.03 1003.71 1267.03C1002.69 1267.03 1001.53 1267.34 1000.23 1267.97L999.659 1266.54C1000.27 1266.22 1000.93 1265.96 1001.65 1265.77C1002.37 1265.58 1003.1 1265.49 1003.83 1265.49C1005.29 1265.49 1006.38 1265.81 1007.08 1266.47C1007.79 1267.12 1008.15 1268.16 1008.15 1269.6V1278H1006.77ZM1002.56 1276.69C1003.72 1276.69 1004.63 1276.37 1005.29 1275.73C1005.95 1275.1 1006.28 1274.2 1006.28 1273.06V1271.95L1004.42 1272.03C1002.94 1272.08 1001.87 1272.31 1001.21 1272.72C1000.56 1273.13 1000.23 1273.76 1000.23 1274.62C1000.23 1275.29 1000.43 1275.81 1000.84 1276.16C1001.25 1276.51 1001.82 1276.69 1002.56 1276.69Z" fill="white"/>
<path d="M1170.7 1277.22C1169.9 1277.22 1169.17 1277.08 1168.5 1276.79C1167.84 1276.49 1167.29 1276.03 1166.84 1275.42H1166.71C1166.8 1276.14 1166.84 1276.82 1166.84 1277.46V1282.53H1164.98V1264.69H1166.49L1166.75 1266.38H1166.84C1167.32 1265.7 1167.88 1265.22 1168.51 1264.92C1169.15 1264.62 1169.88 1264.47 1170.7 1264.47C1172.34 1264.47 1173.59 1265.02 1174.48 1266.14C1175.37 1267.26 1175.81 1268.82 1175.81 1270.83C1175.81 1272.86 1175.36 1274.43 1174.46 1275.55C1173.56 1276.67 1172.31 1277.22 1170.7 1277.22ZM1170.43 1266.05C1169.18 1266.05 1168.27 1266.4 1167.71 1267.09C1167.14 1267.79 1166.86 1268.9 1166.84 1270.42V1270.83C1166.84 1272.56 1167.13 1273.8 1167.71 1274.55C1168.28 1275.29 1169.21 1275.66 1170.48 1275.66C1171.54 1275.66 1172.37 1275.23 1172.97 1274.37C1173.58 1273.51 1173.88 1272.32 1173.88 1270.81C1173.88 1269.28 1173.58 1268.1 1172.97 1267.29C1172.37 1266.46 1171.53 1266.05 1170.43 1266.05ZM1186.65 1277L1186.28 1275.25H1186.19C1185.58 1276.02 1184.96 1276.54 1184.35 1276.82C1183.74 1277.09 1182.98 1277.22 1182.07 1277.22C1180.85 1277.22 1179.89 1276.91 1179.19 1276.28C1178.51 1275.65 1178.16 1274.76 1178.16 1273.6C1178.16 1271.11 1180.15 1269.81 1184.12 1269.69L1186.21 1269.62V1268.86C1186.21 1267.89 1186 1267.18 1185.58 1266.72C1185.17 1266.26 1184.51 1266.03 1183.6 1266.03C1182.57 1266.03 1181.41 1266.34 1180.12 1266.97L1179.54 1265.54C1180.15 1265.22 1180.81 1264.96 1181.53 1264.77C1182.26 1264.58 1182.98 1264.49 1183.71 1264.49C1185.18 1264.49 1186.26 1264.81 1186.97 1265.47C1187.68 1266.12 1188.03 1267.16 1188.03 1268.6V1277H1186.65ZM1182.44 1275.69C1183.6 1275.69 1184.51 1275.37 1185.17 1274.73C1185.84 1274.1 1186.17 1273.2 1186.17 1272.06V1270.95L1184.3 1271.03C1182.82 1271.08 1181.75 1271.31 1181.09 1271.72C1180.44 1272.13 1180.12 1272.76 1180.12 1273.62C1180.12 1274.29 1180.32 1274.81 1180.72 1275.16C1181.13 1275.51 1181.71 1275.69 1182.44 1275.69ZM1191.24 1269.62C1191.24 1266.93 1191.64 1264.83 1192.44 1263.32C1193.23 1261.81 1194.49 1260.87 1196.21 1260.49C1198.35 1260.03 1200.24 1259.66 1201.87 1259.38L1202.22 1261.02C1199.62 1261.45 1197.76 1261.8 1196.65 1262.05C1195.56 1262.3 1194.74 1262.88 1194.2 1263.8C1193.66 1264.73 1193.36 1265.98 1193.31 1267.57H1193.45C1193.91 1266.94 1194.51 1266.44 1195.24 1266.08C1195.98 1265.72 1196.74 1265.54 1197.54 1265.54C1199.06 1265.54 1200.24 1266.04 1201.08 1267.02C1201.93 1268 1202.35 1269.36 1202.35 1271.09C1202.35 1273.02 1201.86 1274.52 1200.88 1275.61C1199.9 1276.69 1198.53 1277.22 1196.78 1277.22C1195.05 1277.22 1193.7 1276.56 1192.72 1275.24C1191.74 1273.91 1191.24 1272.04 1191.24 1269.62ZM1196.95 1275.66C1199.23 1275.66 1200.38 1274.21 1200.38 1271.29C1200.38 1268.52 1199.34 1267.13 1197.26 1267.13C1196.7 1267.13 1196.14 1267.25 1195.61 1267.49C1195.09 1267.72 1194.61 1268.03 1194.16 1268.42C1193.73 1268.81 1193.39 1269.21 1193.15 1269.62C1193.15 1271.59 1193.46 1273.09 1194.09 1274.12C1194.71 1275.15 1195.66 1275.66 1196.95 1275.66ZM1216.23 1270.83C1216.23 1272.84 1215.73 1274.41 1214.72 1275.54C1213.71 1276.66 1212.31 1277.22 1210.53 1277.22C1209.43 1277.22 1208.45 1276.97 1207.6 1276.45C1206.74 1275.93 1206.08 1275.19 1205.62 1274.23C1205.16 1273.26 1204.92 1272.13 1204.92 1270.83C1204.92 1268.83 1205.42 1267.27 1206.43 1266.15C1207.43 1265.03 1208.82 1264.47 1210.61 1264.47C1212.33 1264.47 1213.69 1265.04 1214.71 1266.19C1215.72 1267.33 1216.23 1268.88 1216.23 1270.83ZM1206.85 1270.83C1206.85 1272.41 1207.17 1273.6 1207.8 1274.43C1208.43 1275.25 1209.35 1275.66 1210.57 1275.66C1211.79 1275.66 1212.72 1275.26 1213.35 1274.44C1213.98 1273.62 1214.3 1272.41 1214.3 1270.83C1214.3 1269.27 1213.98 1268.08 1213.35 1267.27C1212.72 1266.46 1211.79 1266.05 1210.55 1266.05C1209.33 1266.05 1208.41 1266.45 1207.79 1267.25C1207.17 1268.05 1206.85 1269.25 1206.85 1270.83ZM1227.81 1266.29H1223.81V1277H1221.95V1266.29H1218V1264.69H1227.81V1266.29ZM1237.82 1277L1237.45 1275.25H1237.36C1236.74 1276.02 1236.13 1276.54 1235.52 1276.82C1234.91 1277.09 1234.15 1277.22 1233.24 1277.22C1232.01 1277.22 1231.06 1276.91 1230.36 1276.28C1229.67 1275.65 1229.33 1274.76 1229.33 1273.6C1229.33 1271.11 1231.31 1269.81 1235.29 1269.69L1237.38 1269.62V1268.86C1237.38 1267.89 1237.17 1267.18 1236.75 1266.72C1236.34 1266.26 1235.68 1266.03 1234.76 1266.03C1233.74 1266.03 1232.58 1266.34 1231.28 1266.97L1230.71 1265.54C1231.31 1265.22 1231.98 1264.96 1232.7 1264.77C1233.42 1264.58 1234.15 1264.49 1234.88 1264.49C1236.34 1264.49 1237.43 1264.81 1238.13 1265.47C1238.84 1266.12 1239.2 1267.16 1239.2 1268.6V1277H1237.82ZM1233.61 1275.69C1234.77 1275.69 1235.68 1275.37 1236.33 1274.73C1237 1274.1 1237.33 1273.2 1237.33 1272.06V1270.95L1235.47 1271.03C1233.99 1271.08 1232.92 1271.31 1232.26 1271.72C1231.61 1272.13 1231.28 1272.76 1231.28 1273.62C1231.28 1274.29 1231.48 1274.81 1231.89 1275.16C1232.3 1275.51 1232.87 1275.69 1233.61 1275.69Z" fill="white"/>
<rect x="616" y="1245" width="50" height="50" fill="#01CCF8"/>
<rect x="866" y="1245" width="50" height="50" fill="#FF4C00"/>
<rect x="1091" y="1245" width="50" height="50" fill="#01F859"/>
<defs>
<linearGradient id="paint0_linear" x1="1908" y1="187.977" x2="1" y2="187.998" gradientUnits="userSpaceOnUse">
<stop stop-color="#00CD77"/>
<stop offset="0.410127" stop-color="#6A7186"/>
</linearGradient>
</defs>
</svg>
