<svg width="64" height="86" viewBox="0 0 64 86" fill="none" xmlns="http://www.w3.org/2000/svg">
<path d="M62.6274 23.7523C62.5064 23.6012 62.3854 23.5105 62.2494 23.45C64.0486 20.8803 63.595 19.1269 63.2019 18.6734C63.081 18.5374 62.96 18.4618 62.8239 18.4164C63.2926 17.313 63.4438 16.4514 63.4438 15.9526C63.4438 14.5921 62.9449 14.0933 62.5366 14.0782C61.9318 14.0782 59.815 19.9734 55.5663 23.1477C51.3175 26.3069 48.5354 27.0324 48.5354 27.0324C46.7361 27.5615 41.8675 29.2847 39.161 32.7916C37.3012 35.331 35.0634 40.0925 34.3225 40.7727C33.5665 41.4378 32.614 41.4378 32.614 41.4378C32.614 41.4378 30.0436 38.3844 30.0436 35.3612C30.0436 28.5894 41.5499 19.5048 41.5499 16.1188C41.5499 14.5619 39.917 13.8212 39.917 13.8212C39.917 13.8212 35.4868 1.48675 34.5796 0.730957C36.1521 6.59588 37.1046 14.8189 37.1046 14.8189C37.1046 14.8189 37.8758 19.1269 34.761 22.5884C32.5988 25.8232 26.1879 28.2719 24.9178 35.7845C24.7213 36.9635 24.8422 39.7146 24.8422 39.7146C24.8422 39.7146 24.056 39.7297 23.5722 38.3239C23.0883 36.9182 22.2265 31.3858 21.9392 30.5846C21.6821 29.8289 20.3213 26.2313 15.5887 23.586L15.6039 23.5558C15.6039 23.5558 13.4719 22.7093 9.58607 18.6281C5.68508 14.5468 4.50571 8.00165 4.47547 7.79003C4.43011 7.5633 4.35451 7.15517 4.03699 7.15517C3.71947 7.15517 2.17722 9.22603 2.6157 11.5085C2.41914 11.4934 2.20746 11.5085 2.05626 11.5992C1.61778 11.9166 1.27001 12.0376 1.23977 14.4863C1.23977 15.1363 1.43633 15.9223 1.76898 16.7537C1.49681 16.7235 1.19441 16.799 0.982731 17.1316C0.423288 17.9932 0.695449 19.3385 1.10369 20.5629C1.22465 20.9105 1.46657 21.4547 1.87482 22.1047C1.01297 23.193 1.16417 24.1302 1.64802 25.279C1.90506 25.8988 2.28306 26.5336 3.08442 27.2289C2.94834 27.3045 2.82738 27.4406 2.72154 27.6522C2.34354 28.4533 2.64594 29.4207 3.16002 30.1161C3.31123 30.3277 3.46243 30.494 3.67411 30.6451C3.56827 30.8265 3.47755 31.0381 3.46243 31.28C3.43219 31.8544 3.85555 32.3834 4.12771 32.7613C4.32427 33.0485 4.55107 33.3206 5.8514 33.6985C5.60948 33.895 5.35244 34.2124 5.36756 34.6659C5.38268 35.331 5.73044 36.1926 7.45413 36.5403C7.36341 36.7368 7.30293 36.9937 7.36341 37.3112C7.43901 37.7344 7.77165 38.4146 8.87542 38.6111C9.2383 38.6414 9.63143 38.6414 10.0245 38.6263C9.78263 38.8379 9.4651 39.246 9.44998 39.896C9.43486 41.9215 10.7957 42.0727 11.5668 41.9971C11.4307 42.0878 11.34 42.1482 11.3249 42.1785C11.1283 42.4052 10.2362 43.6145 11.2342 44.7784C12.096 45.776 12.5345 45.64 12.8671 45.5493L12.7764 45.6249C12.7764 45.6249 11.9902 46.9702 13.0183 48.1794C13.8953 49.2224 14.4547 49.0561 14.8781 48.8899C14.8479 49.4038 14.9386 50.3712 15.8155 51.2177C16.9798 52.3363 17.4939 51.9433 17.8114 51.8375L17.7812 51.8979C17.7812 51.8979 17.4334 53.0769 19.2327 53.999C20.5935 54.6792 21.1076 54.1351 21.3041 53.742C21.6217 54.3316 22.2718 55.1176 23.4814 55.0722C24.7666 55.042 24.933 54.5432 25.0237 54.1351C25.1144 54.1955 25.2202 54.256 25.3261 54.3164C25.5529 54.6792 26.6869 56.6745 26.7474 60.4081C26.8079 62.0406 26.7776 63.0383 26.7171 63.6429H26.6869C26.6869 63.6429 26.6718 63.8545 26.6415 64.2475C26.6264 64.3684 26.5962 64.4138 26.5962 64.4138C26.5962 64.4138 26.5962 64.4289 26.6113 64.4591C26.3845 66.6056 25.5378 72.5914 22.6045 77.5343H23.5419C24.1618 77.5343 24.7515 77.5948 25.3261 77.7157L27.7604 78.6226C28.5467 79.061 29.2573 79.6052 29.8621 80.24L32.2208 85.2585C32.236 85.3794 32.2511 85.5154 32.2511 85.6364H32.2964C32.4325 83.7167 33.1885 81.9783 34.3679 80.5877L36.4696 78.7889C37.8002 77.9727 39.3575 77.5041 41.0359 77.5041H42.2606C40.4008 72.5612 36.5754 64.958 35.6531 63.1441L33.2944 58.4733C33.2944 58.4733 33.6875 54.9513 33.6875 54.9815C33.4002 54.9815 33.1885 54.8757 33.0222 54.7397C33.1885 54.8757 33.4002 54.9664 33.6875 54.9815C34.882 55.0571 35.4868 54.3769 35.6229 54.1351C35.6531 54.3618 35.7438 55.3141 36.9686 55.2839C38.1933 55.2536 39.0551 54.3013 39.1761 53.5153C39.1761 53.4851 39.1912 53.4548 39.1912 53.4246C39.3424 53.6816 39.6297 53.9385 40.2194 53.863C41.9884 53.6967 42.306 52.1549 42.3513 51.8526C42.3664 51.7316 42.3815 51.5503 42.3967 51.3689C42.563 51.5654 42.8654 51.8072 43.3341 51.7468C44.6193 51.5503 45.1183 50.3712 45.2241 49.6154C45.2695 49.2829 45.2393 48.9655 45.209 48.7085C45.3753 48.8143 45.5568 48.8899 45.7533 48.8596C47.1595 48.8143 47.5224 47.1516 47.5224 46.8039C47.5224 46.6074 47.3561 46.1388 47.2049 45.7458C47.5677 45.8969 48.233 45.9876 48.9739 45.1865C49.9567 44.1435 49.5787 43.3726 49.4426 43.0098C49.3973 42.904 49.3368 42.7982 49.2612 42.6773C50.5464 43.1912 52.6935 43.7807 53.0563 42.0727C53.1017 41.9064 53.0866 41.7552 53.0563 41.6192C53.8728 41.6948 54.901 41.6494 55.1278 40.032C55.158 39.7146 55.0673 39.4727 54.9312 39.2913C56.7759 39.0344 57.3656 37.674 57.4714 37.2809C57.5319 36.9937 57.5168 36.767 57.4714 36.5856C57.8041 36.4798 57.9099 36.3589 58.1367 36.1624C58.4845 35.8449 59.0288 34.9078 59.0288 34.1217C59.0288 33.8345 58.8776 33.638 58.6659 33.4869C59.1497 33.2148 59.4975 32.9427 59.7394 32.7462C60.4349 32.1416 61.448 30.9172 61.1153 29.2998C61.07 29.058 60.9944 28.8917 60.9188 28.7556C63.081 26.5336 63.1717 24.3721 62.6274 23.7523ZM26.6415 54.5885C26.3996 54.6188 26.1728 54.5885 25.9611 54.5432C26.1274 54.5734 26.3089 54.5885 26.5054 54.5885C27.3522 54.5734 27.836 54.0595 28.0628 53.5002C27.8814 53.9839 27.5034 54.5281 26.6415 54.5885Z" fill="white"/>
</svg>
