<svg width="68" height="62" viewBox="0 0 68 62" fill="none" xmlns="http://www.w3.org/2000/svg">
<path d="M66.1581 35.4638C67.4034 30.9794 69.4745 23.4828 65.9956 20.7949C62.395 17.9719 56.4255 21.0245 55.2749 21.6729L55.4644 22.024C51.9585 18.3906 49.0076 18.7823 47.5322 18.7823C44.8249 18.7823 36.2565 22.9425 31.627 23.1722C25.7658 24.0772 23.2752 21.5918 22.0434 20.025C18.9977 16.2024 21.8132 10.2322 21.8132 10.2322C21.8132 10.2322 21.3801 9.84044 21.1906 9.0165C21.3666 9.55679 21.6508 9.96201 21.8132 10.2322C23.6136 12.5959 27.9046 12.8256 28.1347 13.0417C28.9198 13.2713 29.4883 15.6351 30.3952 16.3105C31.5188 17.0939 31.8572 16.5401 31.979 16.3105C32.1008 16.0808 30.0568 14.2844 30.6254 13.9467C31.1939 13.717 32.2091 15.9728 32.9942 15.6351C33.671 15.4055 34.3478 13.8386 34.2395 13.5009C34.2395 13.0552 33.7929 12.4879 33.116 11.9206C31.8707 11.0156 29.8403 6.28802 28.3783 4.5996C28.2701 4.49154 29.732 3.14081 29.732 2.00619C27.9046 3.14081 27.2278 2.80313 27.2278 2.80313C27.2278 2.80313 28.6897 1.45239 28.4731 0.547404C28.4731 0.439345 25.1973 2.34388 20.9199 2.12776C17.9825 2.0197 15.5053 1.11471 14.4901 0.885087C13.3666 0.655462 9.98255 0.101662 7.95211 1.56045C7.6137 1.79008 7.50541 2.46544 7.50541 2.46544C7.50541 2.46544 7.05872 2.5735 6.8286 2.80313C6.59848 3.03275 6.59848 3.47849 6.59848 3.47849C6.59848 3.47849 6.24654 3.70812 6.13825 3.92423C6.02996 4.03229 6.13825 4.49154 6.13825 4.49154C6.13825 4.49154 5.67802 4.5996 5.56973 4.82923C5.46144 4.93728 5.33961 5.50459 5.23132 5.73422C5.12303 5.84228 4.6628 6.0719 4.55451 6.40958C4.44622 6.85532 4.6628 7.08495 4.6628 7.08495C4.6628 7.08495 3.98598 7.08495 3.87769 7.42263C3.7694 7.65226 3.87769 8.20606 3.87769 8.20606C3.87769 8.20606 3.43099 8.31412 3.30917 8.54374C3.20088 8.77336 3.07905 9.32716 3.07905 9.32716C3.07905 9.32716 2.74065 9.43522 2.51053 9.77291C2.28041 10.2186 2.51053 10.786 2.51053 10.786C2.51053 10.786 2.06383 11.0156 1.94201 11.2317C1.83372 11.799 2.17212 12.1367 2.17212 12.1367C2.17212 12.1367 1.6036 12.1367 1.49531 12.8121C1.38702 13.3794 1.72543 13.8251 1.72543 13.8251C1.72543 13.8251 1.04861 13.9332 0.940321 14.3924C0.940321 15.0678 1.38702 15.0678 1.38702 15.0678C1.38702 15.0678 0.832031 15.2974 0.832031 15.6351C0.940321 16.4185 1.27873 16.4185 1.27873 16.4185C1.27873 16.4185 0.832031 16.8643 0.832031 17.0939C0.940321 17.6612 1.40055 17.7692 1.40055 17.7692C1.40055 17.7692 0.953858 18.3366 0.953858 18.5527C1.06215 19.228 1.63067 19.3361 1.63067 19.3361C1.63067 19.3361 1.29226 20.0115 1.40055 20.3491C1.73896 20.7949 2.30748 20.6868 2.30748 20.6868C2.30748 20.6868 1.96908 21.2541 2.07737 21.4702C2.41577 21.916 2.86247 21.8079 2.86247 21.8079C2.86247 21.8079 2.63236 22.7129 2.75418 22.821C2.86247 23.1587 3.431 23.0506 3.431 23.0506C3.431 23.0506 3.09259 23.6179 3.20088 23.9556C3.43099 24.5229 3.7694 24.1852 3.7694 24.1852C3.7694 24.1852 3.66111 24.631 3.7694 24.8606C3.99952 25.3063 4.33793 25.1983 4.33793 25.1983C4.33793 25.1983 4.22964 25.9817 4.33793 26.4409C4.78462 27.0083 5.24486 26.6706 5.35315 27.0083C5.46144 27.5756 7.15347 28.359 7.38359 29.0344C6.92335 38.0302 7.83028 39.5025 7.60017 41.0694C7.15347 42.5282 6.47666 43.5412 6.24654 44.8919C5.90813 46.3507 7.03164 50.5245 4.89291 56.2651C4.32439 57.8455 1.17044 60.7631 1.40055 60.9927C2.86247 60.8846 5.23132 60.9927 5.56973 60.7631C6.01642 60.655 5.46144 59.4123 5.56973 59.1827C5.56973 58.845 5.79984 58.737 6.35483 58.2777C7.03164 57.832 7.60017 56.5893 7.81675 56.022C7.92504 55.4547 7.47834 53.4286 7.58663 51.9698C7.81675 50.511 9.17037 46.9045 9.61707 45.4458C10.0638 44.095 10.0638 42.6362 10.2939 41.1639C11.1602 38.8001 11.9047 37.3954 12.5274 36.5579C12.6357 36.693 12.7169 36.8281 12.771 37.0037C13.4478 37.571 14.3548 40.9478 14.5713 41.5016C14.9098 42.0689 15.1399 42.6227 15.2482 43.19C15.4783 43.7573 15.018 45.5538 15.2482 46.2292C15.4783 47.688 16.9402 49.1603 17.1703 52.5371C17.5087 55.0089 17.2786 55.8059 17.1703 56.6974C17.1703 57.3727 16.3852 58.3858 15.7084 59.2908C15.1399 60.1957 14.6932 60.8711 15.0316 61.2088C15.9385 61.3169 18.4156 61.2088 18.5239 60.6415C18.5239 60.4119 18.4156 60.0742 18.2938 59.8581C18.2938 59.75 18.2938 59.75 18.2938 59.75C18.5239 58.9666 19.6474 56.7109 19.6474 56.0355C19.4173 55.2521 18.7405 52.9963 18.5239 50.6326C18.1855 48.1607 18.9706 46.918 18.9706 45.7969C19.0789 44.7839 18.1855 44.2166 18.1855 42.9874C18.1178 42.1094 18.375 39.7457 18.5645 37.8952C20.4867 38.4625 23.2346 38.8677 27.1059 38.7056C29.9892 38.3949 34.6727 36.2067 37.1769 35.2342C37.5018 36.2608 37.8402 37.2468 38.1651 37.9222C39.4104 40.286 42.2259 42.4201 43.0111 44.3382C43.918 46.2562 39.3969 52.6722 37.5965 54.4686C36.3512 55.5898 34.9976 56.9405 33.9824 58.0751C33.6439 58.4128 33.3055 58.7505 33.0754 59.0881C32.2903 60.1012 31.7218 60.8846 31.9519 61.1142C32.2903 61.4519 36.0128 61.4519 35.9045 60.8846C35.9045 60.655 35.9045 60.3173 36.0128 59.8716C36.0128 59.6419 36.1211 59.4258 36.2429 59.1962C36.6896 58.7505 37.4883 58.5208 37.7048 58.4128C37.8131 58.3047 38.8283 56.8324 39.0585 56.4947C39.1667 56.1571 38.9502 56.1571 39.5052 55.2521C45.2581 47.1477 47.6269 46.918 47.7352 45.4593C47.8435 44.0005 46.72 44.4462 46.2733 42.6497C45.9078 41.218 46.3139 39.5701 46.9907 38.0437C50.0634 39.8132 54.0973 42.2715 54.3951 44.6758C54.5033 48.728 49.9958 54.8063 49.7656 55.144C49.5355 55.4817 49.319 56.9405 48.9805 57.3997C48.7504 57.8455 48.3037 58.0751 47.9653 58.3047C47.1802 58.872 45.8266 60.6685 46.0432 60.8981C46.2733 61.1278 50.1041 61.0062 50.5508 60.6685C50.659 60.5604 50.2123 58.1967 50.7809 57.6294C51.2276 57.062 52.0262 57.062 52.3646 56.7244C55.857 47.6069 59.3629 44.3382 59.0245 43.4467C58.9162 42.8794 54.9636 41.4206 54.7335 39.2864C54.1649 37.8276 57.6708 34.8965 57.549 27.0218C57.4136 25.9682 57.0888 24.8336 56.7639 23.9961L56.9534 24.2257C57.8062 23.4828 59.5524 22.4293 61.7859 23.699C63.7486 24.8201 62.0837 31.6007 61.0955 35.6529C60.4999 38.0572 60.175 39.4485 60.2833 40.0293C60.5134 41.7583 61.2038 42.9064 61.2309 42.9469L61.7588 42.6227C61.7588 42.6092 61.109 41.5286 60.8925 39.9213V39.9077C60.7977 39.4485 61.2309 37.6655 61.6911 35.788C62.8552 31.0199 64.466 24.4959 62.0972 23.1452C59.5388 21.6864 57.4813 22.9696 56.6285 23.6719C56.5744 23.5504 56.5202 23.4423 56.4796 23.3343C58.104 22.4563 60.4864 21.5783 62.6251 22.3617L62.6522 22.3752C63.1395 22.5103 63.505 22.7805 63.7757 23.2397C65.0075 25.3333 63.6268 30.5337 62.6116 34.3427C61.9754 36.7335 61.4745 38.6246 61.637 39.4755C62.0566 41.7583 62.395 41.9609 62.5303 42.0419C62.598 42.0824 62.6657 42.0959 62.7334 42.0959C62.774 42.0959 62.8011 42.0959 62.8417 42.0824L62.6386 41.4881C62.7469 41.4476 62.8417 41.4881 62.8688 41.5151C62.8552 41.5016 62.598 41.2315 62.2596 39.3675C62.1243 38.6516 62.6657 36.639 63.2207 34.5048C64.3171 30.3851 65.6708 25.2523 64.3171 22.9425C63.9787 22.3617 63.4779 21.97 62.8281 21.7944C60.4593 20.9435 57.8874 21.889 56.1548 22.8345L56.1683 22.848C56.1412 22.821 56.1142 22.794 56.0871 22.767C57.2647 22.0781 60.9331 20.2006 63.9517 21.6999C66.9296 23.1452 64.6014 32.1005 63.5997 35.9366C63.3425 36.9361 63.153 37.6655 63.0989 38.0302C62.7469 39.9348 64.0058 41.6772 64.0599 41.7583L64.5608 41.3936C64.5473 41.38 63.4102 39.7862 63.708 38.1383V38.1248C63.7486 37.8006 63.9381 37.0442 64.1953 36.0987C65.4 31.4522 67.6471 22.8075 64.2224 21.1461C60.8654 19.4712 56.8451 21.5918 55.6945 22.2807L55.7757 22.4023C55.7216 22.3347 55.6675 22.2807 55.6133 22.2267C56.818 21.5648 62.3544 18.7823 65.6031 21.3217C68.7435 23.753 66.7401 31.0064 65.5489 35.3423C65.021 37.2468 64.7503 38.2734 64.818 38.7866C65.0481 40.6507 65.9686 41.8258 66.0092 41.8663L66.4965 41.4746C66.4829 41.4611 65.6437 40.394 65.4271 38.7056C65.3865 38.2599 65.7384 36.9632 66.1581 35.4638ZM27.6068 6.09891C27.5797 6.11242 27.5662 6.13944 27.5662 6.17996C27.336 6.51764 27.336 6.96338 27.6745 7.19301C27.891 7.40912 28.2159 7.31457 28.5408 7.20651C28.7709 7.7333 28.9198 8.31412 28.9198 8.31412C28.9198 8.31412 27.5662 7.63875 27.2278 7.19301C26.7811 6.74727 26.4427 5.50459 26.4427 5.50459C26.4427 5.50459 27.0924 5.77474 27.6068 6.09891Z" fill="white"/>
</svg>
