<svg width="62" height="54" viewBox="0 0 62 54" fill="none" xmlns="http://www.w3.org/2000/svg">
<path d="M17.8555 0.890424C17.8469 0.847034 17.8469 0.803644 17.8296 0.760254C17.8382 0.803644 17.8469 0.847034 17.8555 0.890424Z" fill="white"/>
<path d="M24.8125 5.80301C24.8647 5.75931 24.8995 5.70688 24.9255 5.63696C24.8908 5.69814 24.8473 5.75058 24.8125 5.80301Z" fill="white"/>
<path d="M8.3078 6.57195C7.00353 5.89902 10.9337 3.15484 9.34252 1.7041C9.99466 3.38207 4.92539 5.48827 7.16874 7.6032C5.57753 7.75177 6.5253 5.26978 6.22966 4.61432C6.1601 5.70675 5.36015 5.99515 4.99495 6.94775C4.70801 7.82169 5.64709 7.97026 5.64709 7.97026H6.95136C6.96005 7.97026 7.36872 7.3148 8.3078 6.57195Z" fill="white"/>
<path d="M58.4781 22.4595C57.2434 21.0787 53.3306 17.7227 47.8961 22.7479C47.957 22.8353 48.0091 22.9052 48.0526 22.9576C46.6527 21.3845 44.4615 20.2397 41.8182 20.196C37.6967 20.1261 33.2882 22.1536 28.0625 21.201C28.3755 21.1224 29.558 20.7553 30.7319 19.2521C27.906 20.3446 27.3234 19.2521 25.5844 19.9775C25.8017 18.4481 28.3407 19.4706 29.7145 18.1597C26.8799 18.7977 26.8886 17.6353 24.3149 18.2558C24.2888 18.2121 24.254 18.1684 24.2279 18.1247C24.9148 17.4081 28.732 18.2034 29.2015 16.8488C28.5842 17.8189 24.9583 16.6216 23.4193 16.5604C23.4019 16.5167 23.3758 16.473 23.3584 16.4293C24.6453 15.6078 27.7407 17.0585 28.9928 15.3194C26.6886 16.7264 24.1149 13.7987 22.7063 14.8824C22.6976 14.8475 22.6889 14.8212 22.6802 14.7863C23.7497 13.2482 28.0103 15.2495 28.5668 13.8599C27.2451 14.7688 23.854 11.8586 22.0454 12.715C22.0367 12.6888 22.028 12.6626 22.0193 12.6277C23.2019 11.6314 26.6191 12.986 27.9842 11.8236C25.0539 12.4529 23.6019 10.1107 21.4802 10.9235C21.4628 10.871 21.4455 10.8186 21.4281 10.7662C22.3932 9.80482 25.5061 10.7225 27.2538 9.64752C25.3496 10.2855 23.3149 8.24047 20.8716 9.19307C20.8542 9.15811 20.8455 9.11441 20.8281 9.07945C21.9846 7.94333 25.4887 8.97458 26.3843 7.38401C25.1757 8.59879 21.8889 6.52755 20.1238 7.60249C20.1151 7.59375 20.1151 7.58501 20.1064 7.57627C21.5759 6.17797 23.6019 7.40149 24.8192 5.79344C23.9931 6.57124 20.376 4.77092 19.0717 6.28284C19.0804 6.29158 19.0804 6.29158 19.0891 6.30032C19.0804 6.29158 19.0804 6.29158 19.0717 6.28284C18.9847 6.20419 18.9065 6.12553 18.8108 6.04688C18.5761 5.79343 18.3239 5.58369 18.0544 5.4089C18.0022 5.37394 17.9413 5.33899 17.8718 5.29529C17.837 5.26907 17.8022 5.24285 17.7674 5.21663C18.2717 5.50503 18.7065 5.86335 19.0717 6.2741C19.9412 4.67479 23.2019 5.18168 23.1236 3.73093C22.6193 4.97193 18.7065 3.29396 17.6196 5.11176C17.55 4.01933 20.8107 3.51245 20.6629 1.76457C19.1065 3.04052 17.35 2.59481 16.3936 4.52622C16.3762 4.51748 16.3588 4.51748 16.3414 4.50874C16.5675 3.47749 18.2456 2.90943 17.8631 0.873146C17.9761 1.97431 15.5067 3.3464 14.8719 4.32521C14.8458 4.32521 14.8111 4.32521 14.785 4.32521C14.8024 3.45127 16.9066 1.55482 15.5936 0.375C16.4631 1.68591 13.1329 3.87076 12.9851 4.52622C12.4808 4.37765 14.7937 2.12288 13.5677 0.52357C14.272 2.64725 11.2287 3.3027 10.7939 5.12924C9.85483 4.32521 13.1155 2.79582 11.5939 0.978019C12.0286 2.28019 7.59409 5.52251 8.31579 6.5625C8.67229 6.28284 8.68098 6.29158 8.32448 6.57124L8.31579 6.5625L8.30709 6.57124L8.31579 6.57998C7.37671 7.32283 6.95065 7.96955 6.95065 7.96955C6.95065 7.96955 4.41167 8.3366 4.41167 8.47643C4.41167 8.98332 6.22026 8.98332 6.22026 8.98332C6.22026 8.98332 4.76817 9.35038 4.19429 9.78735C4.41167 10.4428 6.00288 10.2243 6.00288 10.2243C6.00288 10.2243 5.63768 10.5914 5.56812 11.3867C5.49856 12.1907 5.49856 13.0646 5.4203 13.6414C5.35074 14.2969 5.35074 14.5154 4.98555 15.4592C4.69861 16.4031 3.75084 17.8626 4.33341 18.2296C4.55079 18.3957 4.74208 18.352 4.89859 18.2384C4.84642 18.5879 4.92468 19.0074 5.4203 19.322C6.5072 19.8289 6.57676 17.0673 7.22889 17.1372C7.88103 17.2858 6.79414 19.1036 7.01152 19.322C7.29845 19.5405 8.02885 19.5405 8.38535 18.6666C8.75054 17.7227 8.09841 17.2071 8.88967 15.6777C9.27225 14.8038 11.7938 13.9648 12.4982 12.2606L12.5155 12.3218C12.5155 12.3218 14.4024 14.795 13.5329 19.6804C12.3764 24.4171 11.5765 22.1536 11.2895 26.7418C11.2287 27.8342 11.3243 28.6645 11.3939 29.0752C10.3678 29.2151 5.68116 29.0665 3.8204 28.7781C2.88132 28.6295 1.71617 27.4672 0.629278 28.848C-0.0924193 30.089 0.629278 30.3075 1.71617 32.9992C2.7335 35.1841 3.38564 38.7498 3.95952 39.0469C4.89859 39.4839 4.97685 39.0469 5.33335 39.3353C5.76811 39.6237 5.48117 39.8422 6.13331 40.4976C6.78544 41.223 8.37665 41.3017 8.37665 41.3017L8.35057 41.2318C8.36796 41.2318 8.37665 41.2318 8.37665 41.2318L7.2202 37.8846C7.2202 37.8846 6.89848 38.0069 6.61154 38.0943C6.10722 38.2167 5.46378 38.2429 5.33335 37.5874C5.04641 36.5649 6.27243 36.6436 6.13331 36.4251C6.06374 36.1367 5.04641 36.2066 4.89859 36.1367C4.75078 35.9881 4.68122 35.8483 4.61166 35.7696C4.54209 35.691 2.53352 30.692 3.69866 30.5435C4.93338 30.325 11.446 34.3975 14.7067 33.0954C15.1589 34.4325 15.6545 35.9794 15.9414 37.2466C15.0719 40.6724 16.5936 41.6163 16.5936 41.6163C16.5936 41.6163 16.8805 44.5265 16.9588 45.7675C16.9588 47.8824 16.5936 49.4118 16.3066 50.1372C15.8719 50.7228 15.5067 50.5742 15.0024 51.0112C14.498 51.4481 13.1155 53.2659 13.1155 53.2659L16.9588 53.196C16.9588 53.196 17.0283 52.5406 17.1066 52.1036C17.1066 52.1036 17.0979 52.0948 17.0805 52.0861C17.1761 51.4306 17.3413 50.7228 17.6109 50.6441C17.9761 50.5742 17.8978 51.6666 18.263 51.588C18.55 51.518 18.1935 51.151 18.55 47.5853C18.55 45.3305 18.1848 41.5376 18.1848 41.5376C18.1848 41.5376 19.1239 40.2267 18.037 38.1118C18.6195 36.6523 18.6891 33.1565 18.6891 33.1565C21.8802 35.1229 32.384 32.5011 32.384 32.5011H32.4535C34.123 36.6523 35.4273 37.7447 35.6446 40.3666C35.7924 43.3554 29.9928 48.8176 29.845 49.5429C29.7754 50.1984 29.9145 50.0498 29.6276 50.4868C29.3407 50.9937 28.8276 50.9937 28.3929 51.4306C28.3059 51.518 28.1494 51.6928 27.9581 51.9113C27.4973 52.2347 26.5756 53.5456 26.5756 53.5456H30.358C30.358 53.5456 30.5058 50.9937 31.0797 51.0723C31.4449 51.1422 31.3666 51.8764 31.6623 51.9463C31.8796 51.9463 31.1579 50.7839 34.7056 46.3356C37.1663 42.7699 38.9836 41.459 38.9053 40.585C38.9053 39.9296 37.7489 39.6412 37.7489 37.7447C37.7489 35.9269 40.7226 34.9044 40.7226 34.9044C44.705 37.8146 48.1135 36.6523 49.5656 40.5151C50.1481 42.263 46.6701 47.3581 46.4527 49.1846L46.0875 50.6441C46.0875 50.6441 45.5136 50.8713 44.5398 52.0599C44.418 52.191 44.2528 52.4095 44.0702 52.6629C43.8181 53.0037 43.5485 53.397 43.2616 53.8515L47.1048 53.7815C47.1048 53.7815 47.0788 53.432 47.0788 53.0037C47.0874 52.8989 47.0961 52.794 47.1048 52.6891C47.0961 52.6804 47.0874 52.6804 47.0788 52.6716C47.0874 52.0861 47.1396 51.4569 47.3222 51.3083C47.6874 51.0898 48.0439 52.1822 48.0439 52.1822C48.0439 52.1822 47.6787 50.8014 48.9134 47.4455C50.0699 44.1682 53.261 38.9945 53.1132 38.0506C52.9654 37.1067 48.5482 36.0143 48.2613 34.6248C47.9744 33.3138 50.2177 28.9441 49.6351 26.0339C49.4612 25.1775 49.0786 24.321 48.5135 23.5432C53.6958 21.8914 53.9131 24.7317 53.1827 29.3112C52.461 33.5323 54.0523 37.1767 61.1562 35.9357C56.3739 30.7619 61.5214 25.9553 58.4781 22.4595ZM13.6198 30.1065C13.6198 30.1065 14.0807 31.2863 14.6024 32.8157L13.6198 30.1065ZM37.3924 31.6359C37.2271 31.4261 37.0619 31.1902 36.888 30.9455C37.175 31.3475 37.488 31.7582 37.8358 32.169C37.6184 31.933 37.4619 31.7407 37.3924 31.6359Z" fill="white"/>
</svg>
