<svg width="73" height="70" viewBox="0 0 73 70" fill="none" xmlns="http://www.w3.org/2000/svg">
<path d="M72.0341 35.4243C71.9652 35.2283 71.2537 35.2052 70.611 35.3666C69.9569 35.5165 66.6288 36.2775 63.5417 36.6696C60.4661 37.0731 54.6591 37.4882 54.6591 37.4882C54.6591 37.4882 47.257 38.2262 42.3567 38.0647C42.6436 37.9033 42.8386 37.6958 42.8157 37.4652C42.8042 37.1538 42.5517 36.9232 41.4156 36.7157C41.714 36.6696 42.0009 36.6004 42.2648 36.5081C42.5288 36.4159 42.8731 36.2429 43.16 36.0469C43.5043 35.7933 43.7453 35.5165 43.6649 35.2398C43.6305 34.9285 43.2633 34.8362 42.2419 34.6748C42.2534 34.6748 42.2648 34.6633 42.2763 34.6633C42.5517 34.571 43.0337 34.3058 43.4354 34.0176C43.8715 33.6832 44.2043 33.2912 44.0781 32.9453C44.0437 32.7608 43.86 32.7031 43.5272 32.657C44.7552 32.2419 46.293 31.6885 47.3603 31.1811C49.403 30.2126 51.0212 29.1864 51.4228 28.875C51.836 28.5637 52.1229 28.3216 52.0311 27.9411C51.9278 27.5606 51.0212 27.6298 50.6769 27.8027C50.5277 27.8719 50.0686 28.0795 49.5752 28.287C50.849 27.5375 51.7212 26.9034 51.9967 26.6843C52.3754 26.3614 52.6508 26.0962 52.5475 25.7503C52.4442 25.3929 51.6524 25.4621 51.3081 25.635C51.1818 25.6927 50.7687 25.9002 50.2982 26.1308C51.5376 25.3468 52.3409 24.7011 52.5819 24.482C52.7197 24.3551 52.8459 24.2283 52.9377 24.1015C54.0394 23.5941 55.4969 22.8331 56.9773 21.8531C59.9152 19.8929 60.994 18.7053 61.1317 18.5323C61.2579 18.3824 61.5334 18.0711 61.3268 17.7598C61.1202 17.4485 60.73 17.3332 60.2825 17.5061C60.1333 17.5522 59.8349 17.7137 59.4791 17.8981C59.548 17.852 59.6054 17.7944 59.6742 17.7482C61.0055 16.722 61.6596 15.9956 61.8203 15.742C61.935 15.5459 62.1875 15.2462 62.0039 14.9233C61.9465 14.8311 61.8662 14.7734 61.7744 14.7273C61.5793 14.635 61.3038 14.635 60.9481 14.7965C60.8218 14.8541 60.6153 14.9694 60.3628 15.1078L60.3743 15.0963C61.5678 14.1392 62.2908 13.3667 62.5088 12.9516C62.6236 12.7325 62.8302 12.4097 62.6925 12.0984C62.6351 12.0061 62.5433 11.9715 62.44 11.9369C62.2678 11.8678 61.9924 11.9023 61.6137 12.0984C61.5219 12.156 61.3727 12.2367 61.212 12.329C62.2105 11.4988 62.9335 10.7147 63.1974 10.1843C63.3236 9.93066 63.4958 9.60781 63.3695 9.28496C63.3236 9.19271 63.2204 9.13506 63.1056 9.13506C62.9908 9.06588 62.6925 9.16965 62.3023 9.41179C62.2105 9.46944 62.0957 9.53862 61.9695 9.61934C62.8416 8.86986 63.5991 8.06274 63.886 7.40551C64.0122 7.12878 64.1499 6.7944 64.0581 6.46002C64.0122 6.36777 63.9089 6.32165 63.7712 6.33318C63.6794 6.28706 63.3925 6.42543 62.9679 6.71369C62.9449 6.73675 62.9105 6.74828 62.8761 6.77134C63.5761 6.12564 64.2647 5.36463 64.5631 4.64975C64.7008 4.3269 64.7926 3.99252 64.7237 3.65814C64.6778 3.5659 64.5746 3.5313 64.4254 3.55436C64.368 3.5313 64.1155 3.69273 63.7368 3.95793C64.5975 3.10468 65.5386 1.94011 65.4123 0.85626C65.3664 0.752487 65.2402 0.729426 65.091 0.764017C65.0106 0.787078 62.5662 2.70112 60.1562 4.62669C58.5495 5.89503 56.9544 7.16337 56.0592 7.87825C55.933 7.72836 55.9215 7.77448 55.692 7.92437C55.5084 8.05121 51.4687 11.0145 49.8506 12.2021C38.822 17.9789 33.9905 18.1749 32.0281 21.5879C31.1559 23.4673 30.5936 29.9358 29.9968 31.6193C29.7443 32.3457 29.0672 33.3834 28.3557 34.375C27.8507 33.4526 27.3917 32.5071 27.2081 31.8383C26.749 30.201 26.29 23.9862 25.6358 22.1759C24.1669 18.8321 20.5748 18.4747 12.3579 12.5135C11.1414 11.3028 8.16909 8.37406 8.03137 8.24722C7.85923 8.0858 7.84775 8.03968 7.75594 8.18957C7.09033 7.47469 5.90828 6.20635 4.71475 4.92648C2.86709 3.05856 1.05385 1.13299 0.99647 1.10993C0.893184 1.07534 0.789899 1.07534 0.766946 1.19064C0.675137 2.21684 1.37518 3.35835 2.01785 4.20007C1.73095 3.92334 1.54733 3.77344 1.5129 3.78497C1.40961 3.76191 1.3178 3.78497 1.29485 3.87722C1.24895 4.20007 1.32928 4.52292 1.42109 4.82271C1.63914 5.52606 2.15556 6.27553 2.68347 6.93276C2.66052 6.9097 2.63757 6.88664 2.61461 6.87511C2.30476 6.58685 2.07523 6.43696 2.01785 6.48308C1.92604 6.47155 1.84571 6.50614 1.81128 6.59838C1.73095 6.9097 1.84571 7.23255 1.93752 7.49775C2.15557 8.13192 2.7179 8.92752 3.36056 9.66546C3.26876 9.58475 3.18842 9.52709 3.13104 9.46944C2.83266 9.21577 2.61461 9.112 2.53428 9.16965C2.44247 9.18118 2.37361 9.21577 2.33918 9.30802C2.24737 9.61934 2.37361 9.93066 2.4769 10.1728C2.67199 10.7032 3.21137 11.4873 3.9688 12.3174C3.83109 12.2137 3.71633 12.1214 3.64747 12.0638C3.37204 11.8562 3.16547 11.8101 3.03923 11.8678C2.9589 11.9023 2.89004 11.9369 2.85561 12.0177C2.75233 12.3174 2.90152 12.6288 3.0048 12.8478C3.16547 13.2399 3.70485 14.0124 4.58852 14.9579C4.59999 14.9694 4.61147 14.981 4.61147 14.981C4.41637 14.8311 4.25571 14.7158 4.15242 14.6581C3.88847 14.4852 3.6819 14.4736 3.54418 14.5659C3.47533 14.612 3.40647 14.6581 3.37204 14.7388C3.23433 15.0386 3.41795 15.3499 3.52123 15.5229C3.63599 15.7766 4.12947 16.4914 5.10495 17.5176C5.15085 17.5638 5.19675 17.6099 5.24266 17.6675C4.99018 17.483 4.76066 17.3216 4.65737 17.2755C4.32456 17.091 4.03766 17.1833 3.88847 17.483C3.73928 17.7713 3.93437 18.0826 4.03766 18.2325C4.12947 18.3824 4.94428 19.5585 7.12475 21.5533C8.22647 22.5449 9.30523 23.3174 10.1315 23.8478C10.2004 23.9631 10.2922 24.0784 10.3955 24.2052C10.5791 24.4243 11.1644 25.0585 12.071 25.8426C11.7267 25.612 11.4283 25.4044 11.3365 25.3468C11.084 25.1738 10.4988 25.0816 10.4184 25.4159C10.3381 25.7388 10.5447 26.0155 10.8316 26.3268C11.0381 26.5459 11.6923 27.1916 12.6563 27.9526C12.289 27.7335 11.9333 27.5145 11.8185 27.4338C11.5546 27.2608 10.8889 27.1686 10.8086 27.526C10.7398 27.8834 10.9578 28.1371 11.2562 28.4369C11.5546 28.7367 12.7596 29.7975 14.2744 30.7891C15.0663 31.308 16.2139 31.896 17.1205 32.3342C16.8795 32.3687 16.7418 32.4149 16.7188 32.5878C16.627 32.9107 16.868 33.2912 17.2123 33.6256C17.4992 33.9253 17.8665 34.179 18.0616 34.2943C18.073 34.2943 18.073 34.3058 18.0845 34.3058C17.3386 34.4212 17.0631 34.5019 17.0402 34.7901C17.0287 34.8824 17.0287 34.9631 17.0631 35.0553C14.4695 34.5365 11.5546 33.8908 11.0496 33.9253C10.2348 33.983 9.7528 34.1444 9.20194 34.7209C8.90356 35.0438 8.86913 35.2744 8.90356 35.4358H8.88061C8.59371 35.4589 6.64275 35.6318 6.16075 36.658C5.63285 37.7765 6.30995 39.0448 6.30995 39.0448C6.30995 39.0448 6.30995 38.9987 6.30995 38.918L7.37723 37.7765C7.48052 37.765 7.5838 37.7534 7.71004 37.7534C8.92652 37.765 9.20194 37.9148 9.71837 38.2608C9.83313 38.3415 9.97085 38.4337 10.1315 38.5375C10.9808 39.0909 12.8055 40.6475 13.3219 41.1318C13.3793 41.1895 13.4711 41.2702 13.5629 41.3624H13.5514C13.5514 41.3624 15.8237 43.7723 16.3631 43.5301C16.386 43.5186 16.409 43.5071 16.4319 43.4955C17.0631 44.1067 18.2911 45.2828 18.6813 45.1213C19.1403 44.9484 19.1748 44.7408 19.1748 44.6025C20.0355 45.4672 20.2765 46.528 20.9191 46.332C20.988 46.309 21.0568 46.2859 21.1028 46.2628C21.6536 46.7586 22.6635 47.6926 23.0308 47.6234C23.3291 47.5658 23.4209 47.4505 23.4668 47.3697C23.7308 47.6349 24.1095 47.9232 24.6718 48.1769C25.2457 48.5228 25.5555 48.6035 25.7162 48.5458C26.1293 48.9148 26.5654 49.2723 26.8179 49.3414C27.6786 49.5951 27.8737 49.4106 27.954 49.1915C28.3213 49.5029 28.6656 49.7796 28.9066 49.8488C29.1131 49.9064 29.2279 49.8949 29.3427 49.918C29.5033 49.9525 29.5951 49.8488 29.6869 49.8603C29.9279 49.8603 30.0886 49.8027 30.1345 49.7104C30.1575 49.6758 30.1689 49.6412 30.1689 49.5951C30.7887 49.9987 31.2248 50.1947 31.5346 50.2869C32.6019 51.9704 35.0463 57.6318 35.3218 57.6202C35.3332 57.6202 35.3447 57.6202 35.3562 57.6087C35.8037 58.6003 36.3776 59.9033 36.5267 60.1569C36.9399 60.8603 36.7218 61.1139 36.7218 61.1139C36.7218 61.1139 35.7693 61.2177 35.5398 61.3215C35.3103 61.4137 35.0807 61.6328 35.0807 61.6328C35.0807 61.6328 35.0348 61.6674 34.9775 61.7481C34.5414 61.7596 34.2659 61.7712 34.2659 61.7712C33.8528 61.7366 33.6118 61.7942 33.3593 61.8634C33.3364 61.8058 33.3019 61.7596 33.256 61.6905C33.1183 61.529 32.4183 60.9641 32.4183 60.9641C32.4183 60.9641 32.3035 60.8718 32.1314 60.7219C32.4871 60.4221 32.8658 60.0762 32.9462 59.9263C33.1183 59.615 33.497 58.4389 33.038 58.0469C32.5789 57.6664 32.2806 57.6894 32.0855 57.7817C31.8789 57.8854 31.81 58.2313 31.5805 58.3351C31.351 58.4274 30.9723 58.3812 30.9493 58.2314C30.8346 57.7125 31.2707 57.5626 31.3739 57.5049C31.4657 57.4358 32.074 56.7324 31.2821 55.9714C30.4903 55.1989 30.1689 56.3865 29.7328 56.2597C29.2853 56.1328 29.4804 55.614 29.4574 55.3488C29.423 55.0836 29.2049 54.7376 28.918 54.68C28.6197 54.6339 28.4819 54.8068 28.3901 55.0028C28.2868 55.1989 28.2868 55.6024 28.0114 55.5563C27.7475 55.5102 27.6327 55.4295 27.5179 55.268C27.4032 55.1066 27.1507 54.6454 26.8868 54.6108C26.6228 54.5762 26.5654 54.6915 26.4736 54.8645C26.4507 54.9221 26.4277 54.9798 26.4162 55.049C26.3933 55.0374 26.3818 55.0259 26.3818 55.0259C26.3818 55.0259 26.3933 55.0374 26.4162 55.0605C26.3818 55.2335 26.3933 55.4295 26.4851 55.6024C26.6572 55.9483 27.2999 56.1559 27.2769 56.4787C27.2425 56.8016 26.7031 56.4441 26.4162 56.7324C26.1638 56.9745 26.1752 57.1821 26.2785 57.4242C25.7965 57.3435 25.0506 57.9546 24.9014 57.7471C24.7178 57.4703 25.5326 56.9169 25.3834 56.202C25.2342 55.4756 25.2227 55.441 24.9014 55.3142C24.5915 55.1758 24.2587 55.3372 24.1325 55.4987C23.9948 55.6601 23.9144 56.3288 23.5587 56.0521C23.2144 55.7869 23.7078 55.4295 23.8915 55.2104C24.0751 54.9913 24.1095 54.484 23.7538 54.1265C23.4095 53.746 22.9848 54.0919 22.7783 54.1957C22.5717 54.311 22.411 54.9221 22.1127 54.6915C21.8258 54.4725 22.2618 54.0228 22.0897 53.6423C21.929 53.2618 21.5274 52.9966 21.1487 52.9966C20.7814 52.9966 20.5404 53.0312 20.3798 53.2848C20.2076 53.55 20.1961 53.8959 20.3224 54.1611C20.4601 54.4148 20.965 54.7261 20.9077 54.9913C20.8618 55.2565 20.483 55.1412 20.3224 55.049C20.1617 54.9567 20.0469 54.7838 19.8289 54.8875C19.4272 55.0374 19.5305 55.4179 19.6108 55.7754C19.6912 56.1213 19.8863 56.4211 20.1273 56.5364C20.3683 56.6402 20.8847 56.5018 21.0798 56.5364C21.2864 56.571 21.5044 56.6402 21.5044 56.8016C21.5044 56.9745 20.7814 56.7324 20.5519 56.8823C20.3109 57.0322 20.4945 57.724 20.6322 57.9316C20.7585 58.1622 21.0339 58.5427 21.3897 58.6003C21.7339 58.6464 21.711 58.3351 21.9749 58.2659C22.2389 58.1852 22.2963 58.2429 22.3766 58.3582C22.4684 58.462 22.4914 58.6003 22.3537 58.7387C22.2274 58.8886 21.7339 58.7617 21.6536 59.0615C21.5848 59.3498 21.9749 59.8687 22.2045 60.0762C22.4455 60.2838 22.7438 60.5951 23.2258 60.6297C23.7193 60.6643 24.0751 60.4682 24.4653 60.2261C24.7407 60.0532 25.2571 59.8917 25.544 59.7995L25.5555 59.811C25.7965 60.0186 26.7376 60.8718 26.9097 61.0909C26.9671 61.1601 27.013 61.2408 27.0589 61.3215C26.6572 61.2638 26.267 61.2292 25.9687 61.2292C25.5555 61.2292 25.085 61.2754 24.7407 61.3215C24.7178 61.1831 24.6259 61.0678 24.4882 60.9871C24.3046 60.8949 22.5602 60.7796 21.8717 60.549C21.2519 60.3414 20.4716 60.0647 19.7486 59.6842C19.8289 59.3498 19.8863 58.5542 19.8404 57.897C19.7945 57.1129 19.0715 56.6517 18.9223 56.5479C18.7616 56.4441 18.6009 56.4441 18.555 56.5479C18.4977 56.6517 18.7616 57.4473 18.0845 57.3781C17.6828 57.2859 17.7747 56.5594 17.5451 56.1328C17.3156 55.7062 16.5352 55.4295 16.2828 55.4295C16.0303 55.441 15.8926 55.5563 15.8696 55.7177C15.8581 55.8907 16.2942 56.4096 16.2828 56.6056C16.2828 56.9284 15.927 56.6632 15.7548 56.4672C15.5827 56.2597 15.422 55.6601 15.1007 55.4064C14.7794 55.1527 14.2859 55.3718 14.217 55.5332C14.0449 55.9368 14.7105 56.3519 14.481 56.6171C14.24 56.8823 13.8154 56.0867 13.5629 56.006C13.2989 55.9137 12.6678 56.0636 12.553 56.2827C12.4382 56.5018 12.4497 57.159 12.7825 57.3666C13.1038 57.5741 13.8498 57.3896 13.9072 57.5511C13.976 57.701 13.0809 57.8163 12.9776 58.093C12.8858 58.3812 13.1383 58.7272 13.3104 58.9001C13.494 59.0731 13.7809 59.246 14.0908 59.2114C14.4007 59.1768 14.699 58.681 14.8368 58.6119C14.9859 58.5427 15.0433 58.4735 15.1696 58.6119C15.2843 58.7502 15.2843 58.8309 15.2155 58.9462C15.1466 59.0615 14.6531 58.9693 14.5498 59.2345C14.4466 59.4997 14.722 59.788 15.1466 60.1108C15.5712 60.4337 16.1221 60.2492 16.3057 60.0301C16.4893 59.8225 16.3516 59.7418 16.4319 59.5919C16.5238 59.442 16.7188 59.3729 16.7992 59.419C16.8795 59.4536 17.0058 59.5573 16.9254 59.7995C16.868 60.0416 16.65 59.9494 16.5697 60.1108C16.4893 60.2607 16.4778 60.4221 16.6959 60.6643C16.9139 60.8949 17.6369 61.0563 18.0845 60.941C18.5436 60.8372 18.5321 60.6758 18.6583 60.4452C18.7731 60.2261 18.8075 60.2376 18.9911 60.1108C19.1059 60.0301 19.3354 60.0186 19.5076 59.9494C20.3453 60.3184 21.4126 60.8487 21.7339 60.9871C22.0668 61.137 23.7997 61.6674 24.2243 61.7596V61.8058C24.1554 61.8058 24.098 61.8058 24.1325 61.8058C24.1898 61.7942 22.3996 62.0594 21.4815 62.3592C21.4011 62.3823 21.2978 62.4169 21.1946 62.463C21.1142 62.3823 21.0109 62.2555 20.8388 62.0248C20.2765 61.2638 18.9911 61.333 18.9911 61.333C18.9911 61.333 18.2681 61.2984 18.1763 61.5406C18.073 61.8404 18.1075 61.8404 18.2108 61.9095C18.3026 61.9787 18.578 62.0594 18.6813 62.2324C18.796 62.3938 18.8993 62.5207 18.6813 62.6475C18.4632 62.7743 18.3255 62.636 18.1763 62.4976C18.0271 62.3477 17.5222 62.0364 17.0861 62.0018C16.65 61.9672 16.3057 62.1401 16.145 62.3823C15.9958 62.636 15.9958 62.7513 16.168 62.9127C16.3287 63.0856 16.4893 63.1202 16.4893 63.1202C16.4893 63.1202 16.9254 63.42 16.6729 63.6045C16.409 63.789 16.3401 63.4085 15.8008 63.3278C15.2614 63.2471 15.0778 63.2932 14.9859 63.5007C14.8941 63.6967 14.9171 63.8466 15.0433 63.985C15.1696 64.1234 15.5368 64.0542 15.4909 64.3194C15.4565 64.5846 14.9859 64.5961 14.9859 64.5961C14.9859 64.5961 14.3662 64.6884 14.1711 64.8267C13.9875 64.9536 13.9531 65.1957 14.0449 65.4494C14.0219 65.4609 14.0105 65.4609 14.0105 65.4609C14.0105 65.4609 14.0219 65.4609 14.0449 65.4494C14.0564 65.4609 14.0564 65.4839 14.0678 65.4955C14.1941 65.7722 14.3318 66.0144 14.5843 66.0951C14.8368 66.1873 15.0778 65.9452 15.1696 65.8068C15.2614 65.6684 15.5483 65.6223 15.6745 65.6454C15.8237 65.6569 15.9614 65.7837 15.9499 65.9567C15.9385 66.1181 15.7434 66.0259 15.7089 66.2795C15.686 66.5448 15.9614 66.8791 16.3516 66.8676C16.7303 66.8445 17.0172 66.3141 17.0172 66.1181C17.0172 65.9106 16.8795 65.9682 16.891 65.7376C16.9139 65.4955 17.3386 65.3571 17.4189 65.3456C17.5107 65.3341 17.7288 65.3802 17.7632 65.6339C17.7976 65.899 17.5107 66.0259 17.6025 66.3603C17.6943 66.6946 17.855 66.833 18.3255 66.637C18.819 66.441 19.2092 66.072 19.278 65.7376C19.3469 65.4032 19.1059 65.3571 19.1288 65.1496C19.1403 64.942 19.278 64.746 19.4731 64.746C19.6682 64.746 19.8289 64.9074 19.8289 65.115C19.8289 65.311 19.5649 65.6108 19.7371 65.7376C19.8978 65.8645 20.6781 65.7722 21.1831 65.2995C21.6995 64.8267 22.0208 63.7775 21.929 63.2586C21.8946 63.0049 21.7454 62.832 21.6077 62.7282C21.6536 62.7167 21.6995 62.7051 21.7454 62.6936C22.7898 62.4053 23.1799 62.3708 23.375 62.3708C23.5701 62.3477 24.2013 62.3823 24.3735 62.3131C24.4308 62.29 24.4768 62.2554 24.5112 62.2093C24.8325 62.2785 25.4178 62.1632 26.8753 62.29C27.8508 62.3708 28.8951 62.7051 29.6066 62.9703C29.3082 63.1087 28.459 63.5584 28.0344 63.9043C27.8393 63.7198 27.4491 63.3508 27.1048 63.2125C26.6113 63.0049 26.3244 62.9473 25.8654 63.0395C25.3948 63.1318 24.9473 63.6045 24.8899 63.8236C24.844 64.0427 24.8669 64.2041 25.2686 64.2041C25.6588 64.2041 25.9916 64.2963 25.9342 64.4923C25.8883 64.6999 25.4637 64.8152 25.0276 64.6653C24.5915 64.5154 24.0866 64.5615 23.7997 64.6653C23.5128 64.7575 23.3406 65.2072 23.3177 65.507C23.3062 65.8183 23.375 65.9682 23.7308 66.0835C24.0866 66.2104 24.4079 66.0259 24.4538 66.2334C24.5112 66.441 24.3161 66.6139 23.9833 66.6831C23.639 66.7638 23.5242 66.4756 23.2832 66.4525C23.0422 66.4294 22.5832 66.66 22.5602 66.9598C22.5488 67.2712 22.6406 67.3865 22.9734 67.4556C23.3062 67.5248 23.4668 67.2366 23.5242 67.6055C23.5701 67.963 22.9619 68.1475 22.7898 68.159C22.6291 68.1821 22.17 68.6548 22.5258 69.2429C22.8816 69.854 23.3636 69.4043 23.6505 69.4504C23.9374 69.4965 24.2931 69.093 24.603 69.093C24.9128 69.093 24.6259 69.877 24.9702 69.9577C25.303 70.05 25.6588 69.9577 25.8309 69.3812C26.0031 68.8047 25.5211 68.3665 25.8539 68.0783C26.1752 67.79 26.5425 68.7816 26.9212 68.8047C27.2884 68.8393 27.9311 68.0322 27.9311 67.6171C27.9311 67.202 27.5753 66.9829 27.5409 66.7523C27.5065 66.5102 27.5983 66.464 27.8163 66.4294C28.0229 66.3949 28.195 67.1443 28.4819 67.1559C28.7918 67.1789 28.9984 67.0867 29.3541 66.5332C29.7099 65.9682 29.7902 65.7146 29.641 65.2533C29.5263 64.8959 28.7 64.354 28.3442 64.1234C28.7688 63.7659 29.5607 63.4892 29.5607 63.4892L29.9394 63.397H30.4444C30.4444 63.397 30.4788 63.3739 30.5247 63.3162C30.5247 63.3162 31.5576 62.9934 32.9462 62.9934C32.9347 63.0856 32.8544 63.4431 32.6478 63.6852C32.1887 63.3508 31.4428 63.4546 30.869 63.9619C30.2493 64.5269 30.0886 65.3802 30.5362 65.8645C30.9723 66.3603 31.833 66.2911 32.4527 65.7146C33.0495 65.1726 33.2101 64.3886 32.8544 63.8812C33.2216 63.5353 33.4856 63.1087 33.5429 63.0049C33.7954 63.0165 34.0479 63.051 34.3118 63.0856L34.6791 63.0626C34.702 63.2471 34.7365 63.4546 34.8053 63.6737C35.2299 65.0804 36.9055 64.4001 36.9055 64.4001C36.9055 64.4001 35.8956 64.3424 35.666 63.6737C35.5513 63.3508 35.5283 63.1548 35.5398 63.0049L36.0792 62.9703C36.1021 63.2009 36.171 63.4777 36.389 63.7659C37.5137 65.1265 38.3285 64.2733 38.3285 64.2733C38.3285 64.2733 37.3186 64.7575 36.8825 63.4431C36.8251 63.2701 36.7907 63.0856 36.7677 62.9242L37.112 62.9011C37.1694 63.0856 37.2497 63.2701 37.376 63.4431C37.9039 64.1695 38.1564 64.2041 38.7646 64.1695C38.9253 64.1695 39.0515 64.1118 39.1663 64.0427C39.786 64.5731 40.75 64.1695 40.75 64.1695C40.75 64.1695 39.8778 64.1118 39.5679 63.5584C39.6138 63.4777 39.6368 63.397 39.6597 63.3508C39.7057 63.2009 39.6597 62.8666 39.6483 62.7167L39.9237 62.6936C39.9352 62.9473 40.0155 63.2355 40.2336 63.5353C41.3582 64.9536 42.1845 64.0427 42.1845 64.0427C42.1845 64.0427 41.2664 64.377 40.727 63.0972C40.6811 62.9357 40.6467 62.7858 40.6237 62.636L40.9795 62.6129C41.0254 62.8204 41.1057 63.0395 41.2205 63.224C41.6107 63.8351 42.0238 63.9504 42.6321 63.9274C43.2403 63.9043 43.4584 63.2817 43.5272 63.0856C43.5846 62.9242 43.5387 62.5322 43.5157 62.3823C44.1928 62.3016 44.9273 62.1863 45.4552 62.0479C46.7176 61.702 46.4536 61.5982 46.8783 61.4944C46.775 61.7135 46.7061 61.9557 46.6487 62.1286C46.6258 62.2093 46.5684 62.3246 46.4996 62.4861C46.2815 62.3362 45.9602 62.1632 45.6962 62.1747C45.2372 62.1978 45.0536 62.3131 44.9617 62.5322C44.8699 62.7513 45.2027 63.0856 45.0995 63.2009C44.9847 63.3047 44.6634 63.1202 44.3765 63.2932C44.101 63.4661 43.7567 63.7313 43.883 64.0888C44.0092 64.4578 44.4224 64.55 44.4338 64.7345C44.4453 64.919 44.2158 65.0919 43.8256 65.0689C43.4469 65.0458 43.1256 65.3571 43.1485 65.7376C43.1715 66.1066 43.1715 66.2565 43.5731 66.464C43.9863 66.6716 44.2043 66.3487 44.2732 66.6831C44.3535 67.006 43.7223 67.4672 43.6649 68.1821C43.6076 68.8969 44.0896 69.1737 44.4683 69.2313C44.8585 69.289 45.2601 69.1391 45.3634 68.6663C45.4552 68.1821 45.0421 68.1705 45.4208 67.9745C45.788 67.79 45.8454 68.3781 46.3733 68.3089C46.9127 68.2282 47.1881 67.8131 47.1307 67.5479C47.0963 67.3749 46.9242 67.2596 46.8668 67.2481C46.752 67.1443 46.5799 66.9368 46.7291 66.7754C46.9701 66.5217 47.1537 66.81 47.257 66.9137C47.3717 67.006 47.9456 67.2366 48.1062 66.6485C48.2669 66.0835 48.0833 65.8414 47.9226 65.5993C47.7505 65.3571 47.3029 65.3225 47.4062 65.0227C47.5209 64.7229 47.9915 64.9997 48.198 64.9305C48.4046 64.8498 48.7259 64.723 48.7259 64.0888C48.7259 63.4661 47.6242 62.7051 47.6242 62.7051L46.8897 62.7167C46.9471 62.636 47.0045 62.5552 47.0619 62.4745C47.4865 61.8865 47.7275 61.9326 47.8767 61.7366C47.9456 61.6328 47.98 61.5175 47.9685 61.4137C48.0833 61.2638 48.3013 61.0217 48.6227 60.8372C49.1391 60.5144 52.2836 59.6842 52.6737 59.5919C53.0525 59.4882 54.1427 59.0615 56.3117 58.658C57.7921 58.3928 58.2971 58.7848 58.6758 59.0039C58.9283 59.1768 59.1463 59.2345 59.2611 59.1423C59.2955 59.1192 59.3185 59.0846 59.3299 59.0385C59.4217 58.9462 59.3758 58.7733 59.2726 58.5773C59.1922 58.3697 59.0545 58.1391 58.8709 57.92C58.6528 57.6548 58.4118 57.4473 58.2053 57.332C58.1708 57.3089 58.1594 57.2859 58.1594 57.2859C58.1594 57.2859 58.1364 57.2859 58.102 57.2859C57.9757 57.2397 57.861 57.2282 57.7921 57.2743C57.115 57.2743 55.5313 57.3666 53.523 58.1045C51.5146 58.8425 49.644 59.5343 48.6227 59.9263L48.0374 59.3959C48.1407 58.9347 47.8882 58.3351 47.3603 57.897C46.6947 57.3435 45.8454 57.2513 45.4782 57.701C45.0995 58.1506 45.329 58.9693 45.9946 59.5228C46.6602 60.0762 47.498 60.18 47.8767 59.7188C47.8882 59.7072 47.8997 59.6842 47.9111 59.6611C48.0259 59.7764 48.1521 59.9148 48.2784 60.0416C48.0947 60.1108 47.957 60.1685 47.8882 60.203C47.4406 60.3991 46.534 60.6412 46.534 60.6412C46.534 60.6412 44.3535 61.0217 43.9633 61.1947C43.9404 61.2062 43.9174 61.2062 43.8945 61.2177C43.9059 61.1485 43.9289 60.8833 43.7797 60.6297C43.6076 60.3529 43.2288 60.1108 42.9764 60.0301C42.7239 59.9494 41.8632 60.0647 41.7828 60.0301C41.691 59.9955 41.5418 59.8917 41.3927 59.3037C41.2435 58.6926 40.8188 56.9399 40.8188 56.9399V56.9284C41.0484 57.0898 41.2664 57.2167 41.3927 57.1706C41.714 57.0437 41.4271 56.0982 41.4271 56.0982C41.4271 56.0982 42.4599 56.6402 42.896 56.5364C43.3321 56.4326 42.896 55.2219 42.896 55.2219C42.896 55.2219 43.1715 55.3603 43.4125 55.4295C43.6649 55.4987 44.1584 55.5332 44.2387 55.4641C44.3191 55.3949 44.2387 55.0028 44.1469 54.7722C44.0551 54.5532 43.7567 54.0228 43.7567 54.0228C43.7567 54.0228 44.4797 54.3456 44.5601 54.2534C44.6404 54.1727 44.6978 53.5846 44.6519 53.3194C44.6175 53.0542 44.1814 52.3393 44.1814 52.3393C44.1814 52.3393 45.0191 52.6276 45.1224 52.4777C45.2372 52.3278 45.1224 51.9934 44.9732 51.7052C44.824 51.4054 44.0437 50.2869 44.0437 50.2869C44.0437 50.2869 44.7552 50.4368 44.8699 50.3676C44.9962 50.2985 44.9388 49.7681 44.8126 49.5259C44.6748 49.2838 44.1469 48.4882 44.1469 48.4882L44.9158 48.8226C44.9158 48.8226 44.9503 48.5228 44.7667 47.9809C44.6634 47.6465 44.4224 46.9777 44.2043 46.332C47.5095 47.0238 50.6998 48.1769 51.0786 48.2115C53.2131 48.8226 57.379 50.3215 57.9184 50.4368C60.3743 51.3362 63.5646 53.354 65.1139 53.3771C65.3435 53.3886 65.6648 53.3425 65.7451 53.0427C65.8369 52.7429 64.9762 51.9819 64.5631 51.6821C64.3909 51.5668 64.1614 51.4169 63.9089 51.267C64.4598 51.4169 64.9418 51.4976 65.3205 51.4976C65.6533 51.4861 66.1009 51.4169 66.2042 51.1863C66.3075 50.9557 65.6533 50.3676 65.2516 50.0794C65.2402 50.0794 65.2402 50.0679 65.2287 50.0679C65.332 50.0794 65.4238 50.0794 65.5156 50.0794C65.9632 50.0333 66.537 49.941 66.6517 49.7335C66.7665 49.5375 66.3993 49.0417 66.032 48.7188C66.514 48.6381 66.9846 48.5343 67.0993 48.3614C67.2255 48.1769 67.0534 47.7157 66.7436 47.3467C67.2944 47.2544 67.8453 47.1391 67.9715 47.0123C68.1322 46.8394 68.0977 46.3551 67.7305 45.963C67.6157 45.8362 67.4092 45.7094 67.1911 45.6171C67.7535 45.5249 68.2469 45.4096 68.3617 45.3058C68.5453 45.1559 68.706 44.7178 68.3617 44.2911C68.2814 44.1989 68.1781 44.1182 68.0404 44.0375C68.3846 43.9683 68.6486 43.8991 68.7289 43.8299C68.9355 43.6916 69.3027 43.288 68.9699 42.8268C68.8781 42.7 68.7289 42.5962 68.5568 42.5155C68.706 42.4809 68.8207 42.4347 68.8666 42.4117C69.0732 42.2849 69.647 41.8928 69.3372 41.3509C69.3257 41.3278 69.3027 41.2932 69.2798 41.2702H69.2913C69.5323 41.1664 70.3012 40.7859 70.0028 40.1979C69.9569 40.0941 69.8766 40.0018 69.7733 39.9327C70.0602 39.8289 70.9783 39.4599 70.6914 38.7796C70.5996 38.549 70.3815 38.3645 70.152 38.2377C70.5651 38.1109 71.4029 37.7765 71.1734 37.1308C71.0701 36.8425 70.8061 36.658 70.5307 36.5197C71.8046 36.1968 72.0915 35.6088 72.0341 35.4243ZM51.1704 23.8363V23.8593C51.1359 23.8824 51.1015 23.8939 51.0556 23.917C51.1015 23.8939 51.1359 23.8593 51.1704 23.8363ZM11.4054 23.6518V23.6403C11.4283 23.6633 11.4513 23.6864 11.4742 23.7094C11.4513 23.6864 11.4283 23.6633 11.4054 23.6518ZM29.2623 61.1601C29.2738 61.4599 29.4918 61.6789 29.7443 61.8288C29.3771 61.7712 29.0558 61.702 28.7918 61.6328C28.6082 61.5867 28.3901 61.5406 28.1377 61.506C28.1032 61.4599 28.0688 61.4137 28.0229 61.3561C27.8393 61.1139 26.2097 59.9494 25.9228 59.6957L25.9113 59.6842C26.0719 59.615 26.3129 59.4766 26.4851 59.2691C26.7031 58.9924 26.8753 58.7502 26.749 58.1737C26.8294 58.2544 26.9212 58.3236 27.0245 58.3582C27.3458 58.462 28.3213 58.0815 28.3787 58.462C28.436 58.8425 27.7704 58.6695 27.5409 59.1077C27.2999 59.5458 28.1147 60.4106 28.6541 60.5144C29.1935 60.6181 29.4 59.6842 29.8361 60.0647C30.2493 60.4337 29.2279 60.5835 29.2623 61.1601ZM31.9707 62.0479C31.5002 62.0364 31.0526 62.0018 30.6395 61.9441C30.9952 61.7712 31.3969 61.333 31.3969 61.333C31.3969 61.333 31.592 61.1831 31.833 60.9756C31.9248 61.0678 31.9937 61.137 32.0166 61.1716C32.1428 61.3215 32.5675 61.9095 32.6937 62.0133L32.7052 62.0248C32.5101 62.0479 32.2806 62.0594 31.9707 62.0479ZM38.5351 63.616C38.1105 63.4315 37.9268 63.2471 37.858 62.8666L38.5925 62.8204C38.6154 62.9934 38.6498 63.1894 38.7072 63.397C38.7417 63.5007 38.7761 63.6045 38.822 63.6852C38.7417 63.6852 38.6384 63.6622 38.5351 63.616ZM38.8908 61.6213C38.6728 61.6328 38.4433 61.6443 38.2252 61.6443C38.3285 61.5636 38.4433 61.506 38.5695 61.4599C38.7302 61.4137 38.9023 61.4253 39.0515 61.4714C39.0056 61.506 38.9482 61.5521 38.8908 61.6213ZM39.4532 63.3278C39.4417 63.3393 39.4417 63.3624 39.4302 63.3739C39.3384 63.0856 39.3155 62.9012 39.3384 62.7628L39.4991 62.7513C39.5106 62.9011 39.522 63.1779 39.4532 63.3278ZM40.4401 60.2607C40.3713 60.3184 40.0844 60.572 39.786 60.8257C39.5909 60.6297 39.3155 60.4682 39.1089 60.4221C38.9367 60.376 38.5006 60.3991 38.2023 60.4221C38.0531 60.4221 37.8809 60.1339 37.8809 60.1339C37.8809 60.1339 37.6629 59.6957 37.5481 59.3498C37.4907 59.1538 37.2038 58.2775 36.9743 57.5511C37.0202 57.5626 37.0547 57.5626 37.0776 57.5626C37.3645 57.5165 36.9399 56.5364 36.9399 56.5364C36.9399 56.5364 38.2367 57.2859 38.3515 57.1936C38.4662 57.1014 38.1564 56.6056 38.1564 56.6056C38.1564 56.6056 38.5351 56.9976 38.8335 57.0437C39.0745 57.0783 39.1089 56.8592 39.1204 56.767C39.1318 56.7785 39.1318 56.8016 39.1433 56.8131L39.1318 56.7785L39.1204 56.767C39.1204 56.7439 39.1204 56.7209 39.1204 56.7209C39.1204 56.7209 39.281 57.0898 39.4532 57.2628C39.9007 58.3351 40.4516 59.7764 40.4516 59.7764C40.4516 59.7764 40.5893 60.1339 40.4401 60.2607ZM42.4026 61.137C42.7813 61.0217 43.1944 61.2523 43.3436 61.3446C42.8731 61.4137 42.2878 61.4714 41.9206 61.4829C42.0353 61.3215 42.196 61.2062 42.4026 61.137ZM43.3551 62.4399C43.3666 62.5898 43.3666 62.9012 43.2977 63.0626C43.2174 63.2932 42.8616 63.5238 42.3567 63.3047C41.9435 63.1202 41.7943 62.9703 41.7369 62.6014C41.9894 62.5783 42.6321 62.5322 43.3551 62.4399Z" fill="white"/>
</svg>
