<svg width="79" height="79" viewBox="0 0 79 79" fill="none" xmlns="http://www.w3.org/2000/svg">
<path d="M20.3666 5.35414L19.3057 5.96826L23.9975 14.0737L25.0585 13.4596L20.3666 5.35414Z" fill="white"/>
<path d="M25.3541 4.13404L24.2217 4.60327L27.4078 12.2922L28.5402 11.8229L25.3541 4.13404Z" fill="white"/>
<path d="M34.9205 1.73896L33.7051 1.89844L34.7879 10.1508L36.0033 9.99132L34.9205 1.73896Z" fill="white"/>
<path d="M29.7867 1.62564L28.6025 1.94238L31.0225 10.989L32.2066 10.6723L29.7867 1.62564Z" fill="white"/>
<path d="M39.843 0.461182H38.6172V9.81395H39.843V0.461182Z" fill="white"/>
<path d="M43.5535 1.74349L42.4707 9.99585L43.6861 10.1553L44.7689 1.90297L43.5535 1.74349Z" fill="white"/>
<path d="M12.2427 11.3852L11.376 12.252L17.998 18.874L18.8647 18.0072L12.2427 11.3852Z" fill="white"/>
<path d="M5.95286 19.3124L5.33887 20.3733L13.4443 25.0642L14.0583 24.0033L5.95286 19.3124Z" fill="white"/>
<path d="M9.65299 15.7923L8.9082 16.7659L15.5184 21.823L16.2632 20.8495L9.65299 15.7923Z" fill="white"/>
<path d="M1.9271 28.6113L1.61035 29.7954L10.657 32.2153L10.9737 31.0312L1.9271 28.6113Z" fill="white"/>
<path d="M16.7431 8.92709L15.7695 9.67188L20.8267 16.2821L21.8002 15.5373L16.7431 8.92709Z" fill="white"/>
<path d="M4.59033 24.2358L4.12109 25.3682L11.81 28.5543L12.2792 27.4219L4.59033 24.2358Z" fill="white"/>
<path d="M53.1099 4.14192L49.9238 11.8308L51.0562 12.3L54.2423 4.61115L53.1099 4.14192Z" fill="white"/>
<path d="M68.4856 42.479L68.3262 43.6943L76.5785 44.7772L76.738 43.5618L68.4856 42.479Z" fill="white"/>
<path d="M72.5195 19.3137L64.4141 24.0056L65.0282 25.0665L73.1336 20.3747L72.5195 19.3137Z" fill="white"/>
<path d="M73.8696 24.2373L66.1807 27.4233L66.6499 28.5557L74.3388 25.3696L73.8696 24.2373Z" fill="white"/>
<path d="M48.6826 1.6321L46.2627 10.6787L47.4468 10.9955L49.8667 1.94884L48.6826 1.6321Z" fill="white"/>
<path d="M76.5766 33.7187L68.3242 34.8015L68.4837 36.0169L76.736 34.934L76.5766 33.7187Z" fill="white"/>
<path d="M76.5427 28.6157L67.4961 31.0356L67.8128 32.2198L76.8595 29.7998L76.5427 28.6157Z" fill="white"/>
<path d="M58.1118 5.34623L53.4199 13.4517L54.4808 14.0658L59.1727 5.96035L58.1118 5.34623Z" fill="white"/>
<path d="M1.88311 33.7226L1.72363 34.938L9.97599 36.0208L10.1355 34.8055L1.88311 33.7226Z" fill="white"/>
<path d="M61.7163 8.91762L56.6592 15.5278L57.6327 16.2726L62.6898 9.66241L61.7163 8.91762Z" fill="white"/>
<path d="M68.8072 15.7722L62.1973 20.8501L62.944 21.8221L69.554 16.7442L68.8072 15.7722Z" fill="white"/>
<path d="M66.2333 11.3858L59.6113 18.0078L60.4781 18.8746L67.1001 12.2526L66.2333 11.3858Z" fill="white"/>
<path d="M62.9469 56.6786L62.2021 57.6521L68.8124 62.7092L69.5571 61.7357L62.9469 56.6786Z" fill="white"/>
<path d="M51.0504 66.1958L49.918 66.665L53.1041 74.3539L54.2364 73.8847L51.0504 66.1958Z" fill="white"/>
<path d="M54.4721 64.4279L53.4111 65.042L58.103 73.1474L59.1639 72.5333L54.4721 64.4279Z" fill="white"/>
<path d="M9.9799 42.4841L1.72754 43.5669L1.88701 44.7823L10.1394 43.6994L9.9799 42.4841Z" fill="white"/>
<path d="M57.6298 62.2125L56.6562 62.9573L61.7134 69.5675L62.6869 68.8227L57.6298 62.2125Z" fill="white"/>
<path d="M43.6851 68.3361L42.4697 68.4956L43.5526 76.748L44.7679 76.5885L43.6851 68.3361Z" fill="white"/>
<path d="M65.0163 53.422L64.4033 54.4834L72.5019 59.1607L73.1149 58.0993L65.0163 53.422Z" fill="white"/>
<path d="M78.0139 38.6323H68.6611V39.8581H78.0139V38.6323Z" fill="white"/>
<path d="M67.8021 46.2724L67.4854 47.4565L76.5319 49.8765L76.8487 48.6924L67.8021 46.2724Z" fill="white"/>
<path d="M60.4771 59.6201L59.6104 60.4868L66.2324 67.1088L67.0991 66.2421L60.4771 59.6201Z" fill="white"/>
<path d="M66.647 49.9465L66.1777 51.0789L73.8666 54.2649L74.3359 53.1326L66.647 49.9465Z" fill="white"/>
<path d="M39.843 68.6763H38.6172V78.029H39.843V68.6763Z" fill="white"/>
<path d="M47.4309 67.506L46.2471 67.824L48.6795 76.8806L49.8634 76.5626L47.4309 67.506Z" fill="white"/>
<path d="M13.4364 53.4299L5.33691 58.1072L5.94993 59.1687L14.0494 54.4914L13.4364 53.4299Z" fill="white"/>
<path d="M15.5203 56.6818L8.91504 61.7456L9.66081 62.7184L16.266 57.6546L15.5203 56.6818Z" fill="white"/>
<path d="M17.997 59.6197L11.375 66.2417L12.2418 67.1085L18.8638 60.4864L17.997 59.6197Z" fill="white"/>
<path d="M34.785 68.346L33.7021 76.5984L34.9175 76.7579L36.0004 68.5055L34.785 68.346Z" fill="white"/>
<path d="M9.79906 38.6323H0.446289V39.8581H9.79906V38.6323Z" fill="white"/>
<path d="M10.6589 46.2781L1.6123 48.698L1.92905 49.8821L10.9757 47.4622L10.6589 46.2781Z" fill="white"/>
<path d="M11.8129 49.9438L4.12402 53.1299L4.59326 54.2623L12.2821 51.0762L11.8129 49.9438Z" fill="white"/>
<path d="M20.8362 62.22L15.7725 68.8252L16.7452 69.571L21.809 62.9658L20.8362 62.22Z" fill="white"/>
<path d="M31.0205 67.5073L28.6006 76.554L29.7847 76.8707L32.2046 67.8241L31.0205 67.5073Z" fill="white"/>
<path d="M27.399 66.1976L24.2129 73.8865L25.3453 74.3557L28.5314 66.6668L27.399 66.1976Z" fill="white"/>
<path d="M23.9918 64.4263L19.3145 72.5249L20.3759 73.1379L25.0532 65.0394L23.9918 64.4263Z" fill="white"/>
<path d="M57.5186 59.8876L58.1805 52.3244L65.0204 49.0148L62.0908 42.0156L66.6017 35.9111L60.7547 31.0693L61.9192 23.5552L54.5031 22.0107L52.0516 14.8276L44.7459 16.8869L39.2298 11.665L33.7138 16.8869L26.4081 14.8276L23.9565 22.0107L16.5282 23.5797L17.6927 31.0938L11.8457 35.9357L16.3566 42.0401L13.4392 49.0271L20.2791 52.3367L20.9411 59.8998L28.5164 59.6424L32.6228 66.041L39.2176 62.2901L45.8123 66.041L49.9187 59.6424L57.5186 59.8876ZM39.2298 59.0663C28.2835 59.0663 19.4088 50.1916 19.4088 39.2453C19.4088 28.299 28.2835 19.4243 39.2298 19.4243C50.1761 19.4243 59.0508 28.299 59.0508 39.2453C59.0508 50.1916 50.1761 59.0663 39.2298 59.0663Z" fill="white"/>
</svg>
