<svg width="111" height="58" viewBox="0 0 111 58" fill="none" xmlns="http://www.w3.org/2000/svg">
<path d="M53.675 10.0527V0.647217H52.6055V11.5088L53.675 10.0527Z" fill="white"/>
<path d="M54.3691 28.6277C54.3691 28.6277 54.5276 26.1484 53.7155 24.5743C53.4185 23.925 50.606 21.9573 50.606 21.9573C50.606 21.9573 50.5466 24.5743 50.8635 25.1843C51.1804 25.7943 54.3691 28.6277 54.3691 28.6277Z" fill="white"/>
<path d="M54.3691 24.1806C54.3691 24.1806 54.5276 21.6816 53.7155 20.1272C53.4185 19.4778 50.606 17.4905 50.606 17.4905C50.606 17.4905 50.5466 20.1272 50.8635 20.7372C51.1804 21.3471 54.3691 24.1806 54.3691 24.1806Z" fill="white"/>
<path d="M53.7147 15.6607C53.5365 15.2868 52.5066 14.4407 51.6747 13.8307V0.647217H50.625V14.4604H50.6448C50.6646 15.2081 50.724 15.9952 50.8825 16.2903C51.1994 16.9003 54.408 19.7338 54.408 19.7338C54.408 19.7338 54.5268 17.2348 53.7147 15.6607Z" fill="white"/>
<path d="M56.646 10.0527V0.647217H57.7353V11.5088L56.646 10.0527Z" fill="white"/>
<path d="M55.9534 28.6277C55.9534 28.6277 55.795 26.1484 56.607 24.5743C56.9041 23.925 59.7166 21.9573 59.7166 21.9573C59.7166 21.9573 59.776 24.5743 59.4591 25.1843C59.162 25.7943 55.9534 28.6277 55.9534 28.6277Z" fill="white"/>
<path d="M55.9534 24.1806C55.9534 24.1806 55.795 21.6816 56.607 20.1272C56.9041 19.4778 59.7166 17.4905 59.7166 17.4905C59.7166 17.4905 59.776 20.1272 59.4591 20.7372C59.162 21.3471 55.9534 24.1806 55.9534 24.1806Z" fill="white"/>
<path d="M59.7158 0.647217H58.6661V13.8307C57.8144 14.4604 56.8043 15.2868 56.6261 15.6607C55.814 17.2348 55.9724 19.7141 55.9724 19.7141C55.9724 19.7141 59.181 16.8806 59.4979 16.2706C59.6564 15.9755 59.7158 15.1884 59.7356 14.4407H59.7554V0.647217H59.7158Z" fill="white"/>
<path d="M55.695 9.93469V0.647217H54.6453V9.93469C53.9719 10.5643 52.9023 11.7056 52.9023 12.5714C52.9023 14.5784 54.5463 15.4442 54.5463 15.4442H54.8433V51.748H55.4969V15.4442L55.794 15.4245C55.794 15.4245 57.4379 14.5784 57.4379 12.5714C57.4379 11.6859 56.3684 10.5447 55.695 9.93469Z" fill="white"/>
<path d="M37.0977 12.6108L34.6417 3.53979L33.6118 3.79559L36.4441 14.2834L37.0977 12.6108Z" fill="white"/>
<path d="M42.5838 30.3788C42.5838 30.3788 42.0886 27.9388 40.9002 26.6402C40.4447 26.0892 37.2163 24.8889 37.2163 24.8889C37.2163 24.8889 37.8501 27.4469 38.3056 27.9585C38.7612 28.4504 42.5838 30.3788 42.5838 30.3788Z" fill="white"/>
<path d="M41.4356 26.0698C41.4356 26.0698 40.9404 23.6495 39.7521 22.3312C39.2767 21.7802 36.0483 20.5996 36.0483 20.5996C36.0483 20.5996 36.7019 23.1576 37.1377 23.6692C37.613 24.1611 41.4356 26.0698 41.4356 26.0698Z" fill="white"/>
<path d="M40.2865 21.7606C40.2865 21.7606 39.7914 19.3403 38.5832 18.022C38.3257 17.6875 37.0978 17.1562 36.1471 16.7627L32.7206 4.03174L31.6709 4.30721L34.9983 16.684L35.0181 16.7036L35.2756 17.6481H35.2954C35.5133 18.3368 35.7708 19.0845 36.0084 19.36C36.4442 19.8716 40.2865 21.7606 40.2865 21.7606Z" fill="white"/>
<path d="M39.9493 11.8238L37.5132 2.77245L38.5431 2.47729L41.3754 12.9847L39.9493 11.8238Z" fill="white"/>
<path d="M44.1282 29.9657C44.1282 29.9657 43.3359 27.6045 43.7122 25.8729C43.8311 25.1645 46.0296 22.5278 46.0296 22.5278C46.0296 22.5278 46.7822 25.0661 46.6237 25.7352C46.4851 26.4042 44.1282 29.9657 44.1282 29.9657Z" fill="white"/>
<path d="M42.9797 25.6761C42.9797 25.6761 42.1875 23.3149 42.5638 21.5833C42.6826 20.8553 44.8811 18.2383 44.8811 18.2383C44.8811 18.2383 45.6139 20.7569 45.4753 21.4456C45.3366 22.0949 42.9797 25.6761 42.9797 25.6761Z" fill="white"/>
<path d="M44.0692 15.326L40.4843 1.98511L39.4346 2.24091L42.861 14.9915C42.2272 15.8179 41.4548 16.8805 41.3756 17.3134C40.9993 19.0449 41.7915 21.3865 41.7915 21.3865C41.7915 21.3865 44.1484 17.825 44.3069 17.1756C44.3663 16.8215 44.2277 16.0344 44.0692 15.326Z" fill="white"/>
<path d="M49.7141 52.4171L40.2468 17.3333L40.5439 17.2546C40.5439 17.2546 41.8907 16.0149 41.3757 14.0669C41.1381 13.2208 39.8308 12.3944 39.0188 11.9418L36.5827 3.00854L35.5527 3.28402L37.9691 12.237C37.4937 13.0241 36.7609 14.3818 36.9986 15.2475C37.5333 17.1759 39.3159 17.5891 39.3159 17.5891L39.613 17.5301L49.0605 52.5745L49.7141 52.4171Z" fill="white"/>
<path d="M21.8064 18.6514L17.0925 10.5249L16.1616 11.0365L21.6281 20.4617L21.8064 18.6514Z" fill="white"/>
<path d="M31.7703 34.393C31.7703 34.393 30.6612 32.1695 29.1559 31.2053C28.5617 30.7921 25.1353 30.4773 25.1353 30.4773C25.1353 30.4773 26.4028 32.7795 26.9772 33.1533C27.5714 33.5469 31.7703 34.393 31.7703 34.393Z" fill="white"/>
<path d="M29.5328 30.5365C29.5328 30.5365 28.4038 28.3131 26.8986 27.3489C26.3044 26.9357 22.8779 26.6208 22.8779 26.6208C22.8779 26.6208 24.1653 28.923 24.7199 29.2969C25.3339 29.6904 29.5328 30.5365 29.5328 30.5365Z" fill="white"/>
<path d="M24.6793 23.5118C24.3228 23.256 23.0155 23.0592 21.9658 22.9411L15.3308 11.5286L14.3999 12.0598L20.8369 23.1182C20.8567 23.1576 20.8567 23.1773 20.8765 23.1969L21.3518 24.0234H21.3716C21.7678 24.6333 22.2233 25.2827 22.5204 25.4794C23.075 25.8533 27.2937 26.7191 27.2937 26.7191C27.2937 26.7191 26.1647 24.4563 24.6793 23.5118Z" fill="white"/>
<path d="M24.3818 17.1758L19.668 9.04924L20.5989 8.49829L26.0455 17.9235L24.3818 17.1758Z" fill="white"/>
<path d="M33.1371 33.6057C33.1371 33.6057 31.7705 31.5396 31.6913 29.7884C31.6319 29.0604 33.0381 25.9514 33.0381 25.9514C33.0381 25.9514 34.4047 28.2143 34.4641 28.8833C34.4839 29.572 33.1371 33.6057 33.1371 33.6057Z" fill="white"/>
<path d="M30.8983 29.7493C30.8983 29.7493 29.5317 27.6832 29.4525 25.9123C29.3931 25.1842 30.8191 22.095 30.8191 22.095C30.8191 22.095 32.1659 24.3578 32.2253 25.0268C32.2452 25.6958 30.8983 29.7493 30.8983 29.7493Z" fill="white"/>
<path d="M29.2546 19.4779L28.7793 18.6318C28.7793 18.6121 28.7595 18.5925 28.7595 18.5728L22.3225 7.5144L21.3916 8.04568L28.0266 19.4582C27.6107 20.4027 27.1552 21.6621 27.175 22.0753C27.2542 23.8462 28.6406 25.9122 28.6406 25.9122C28.6406 25.9122 29.9874 21.8588 29.9478 21.1898C29.9478 20.8553 29.6111 20.1273 29.2546 19.4779Z" fill="white"/>
<path d="M44.3672 53.8534L26.0862 22.4098L26.3436 22.2524C26.3436 22.2524 27.334 20.7176 26.304 18.9664C25.8485 18.199 24.363 17.7267 23.4718 17.53L18.8371 9.52148L17.9062 10.0528L22.5805 18.0809C22.323 18.9467 21.9665 20.4815 22.422 21.2292C23.4321 22.9608 25.2543 22.9017 25.2543 22.9017L25.5118 22.7443L43.7928 54.1879L44.3672 53.8534Z" fill="white"/>
<path d="M9.01252 28.4507L2.31806 21.8196L1.56543 22.5673L9.2898 30.2609L9.01252 28.4507Z" fill="white"/>
<path d="M22.7178 41.1223C22.7178 41.1223 21.0541 39.2727 19.3706 38.7217C18.6774 38.4659 15.2905 39.0562 15.2905 39.0562C15.2905 39.0562 17.1325 40.9452 17.7861 41.1617C18.4199 41.3584 22.7178 41.1223 22.7178 41.1223Z" fill="white"/>
<path d="M19.5498 37.9741C19.5498 37.9741 17.8861 36.1245 16.2026 35.5736C15.5094 35.3178 12.1226 35.9081 12.1226 35.9081C12.1226 35.9081 13.9645 37.797 14.6181 38.0135C15.2519 38.2103 19.5498 37.9741 19.5498 37.9741Z" fill="white"/>
<path d="M13.0334 32.4254C12.6373 32.268 11.2905 32.4057 10.2804 32.5632L0.89228 23.2363L0.139648 23.984L9.25045 33.0551H9.27026L9.96347 33.7634L9.98328 33.7438C10.5378 34.2357 11.132 34.767 11.4489 34.8653C12.1025 35.0818 16.3806 34.826 16.3806 34.826C16.3806 34.826 14.7367 32.9764 13.0334 32.4254Z" fill="white"/>
<path d="M11.0931 26.3846L4.41846 19.7338L5.17109 18.9861L12.8955 26.6797L11.0931 26.3846Z" fill="white"/>
<path d="M23.8277 40.001C23.8277 40.001 21.9659 38.3678 21.4114 36.6953C21.1539 36.0066 21.7481 32.6418 21.7481 32.6418C21.7481 32.6418 23.6693 34.4718 23.8871 35.1211C24.0852 35.7508 23.8277 40.001 23.8277 40.001Z" fill="white"/>
<path d="M20.6781 36.8526C20.6781 36.8526 18.7965 35.2194 18.2419 33.5468C17.9845 32.8582 18.5786 29.4934 18.5786 29.4934C18.5786 29.4934 20.4998 31.3234 20.7177 31.9727C20.9158 32.6024 20.6781 36.8526 20.6781 36.8526Z" fill="white"/>
<path d="M17.5289 28.8245C17.41 28.49 16.8951 27.88 16.3801 27.3684L16.3999 27.3487L6.59589 17.5693L5.84326 18.3171L15.2115 27.6439C15.0729 28.6671 14.9343 29.9658 15.0729 30.379C15.6275 32.0515 17.509 33.6847 17.509 33.6847C17.509 33.6847 17.7467 29.4542 17.5289 28.8245Z" fill="white"/>
<path d="M39.9697 56.687L14.1227 31.0087L14.3406 30.7923C14.3406 30.7923 14.8952 29.0607 13.4493 27.6243C12.8155 26.9947 11.2706 26.9356 10.3398 26.975L3.74433 20.4226L2.9917 21.1703L9.58713 27.7227C9.56732 28.6475 9.64655 30.1823 10.2407 30.812C11.6866 32.2287 13.4493 31.6974 13.4493 31.6974L13.6672 31.481L39.4943 57.1396L39.9697 56.687Z" fill="white"/>
<path d="M73.2446 12.6108L75.7006 3.53979L76.7305 3.79559L73.8982 14.2834L73.2446 12.6108Z" fill="white"/>
<path d="M67.7383 30.3788C67.7383 30.3788 68.2334 27.9388 69.4218 26.6402C69.8773 26.0892 73.1057 24.8889 73.1057 24.8889C73.1057 24.8889 72.4719 27.4469 72.0164 27.9585C71.5807 28.4504 67.7383 30.3788 67.7383 30.3788Z" fill="white"/>
<path d="M68.9062 26.0698C68.9062 26.0698 69.4014 23.6495 70.5898 22.3312C71.0651 21.7802 74.2935 20.5996 74.2935 20.5996C74.2935 20.5996 73.6399 23.1576 73.2042 23.6692C72.7288 24.1611 68.9062 26.0698 68.9062 26.0698Z" fill="white"/>
<path d="M75.3231 16.7035L78.6703 4.32675L77.6206 4.05127L74.1942 16.7822C73.2435 17.1757 72.0155 17.7267 71.758 18.0415C70.5498 19.3599 70.0547 21.7801 70.0547 21.7801C70.0547 21.7801 73.8773 19.8715 74.3526 19.3599C74.5903 19.1041 74.8478 18.3367 75.0656 17.648H75.0854L75.3231 16.7035Z" fill="white"/>
<path d="M70.3919 11.8238L72.828 2.77245L71.7981 2.47729L68.9658 12.9847L70.3919 11.8238Z" fill="white"/>
<path d="M66.2123 29.9657C66.2123 29.9657 67.0045 27.6045 66.6282 25.8729C66.5094 25.1645 64.3109 22.5278 64.3109 22.5278C64.3109 22.5278 63.5583 25.0661 63.7167 25.7352C63.8554 26.4042 66.2123 29.9657 66.2123 29.9657Z" fill="white"/>
<path d="M67.3616 25.6761C67.3616 25.6761 68.1539 23.3149 67.7776 21.5833C67.6587 20.8553 65.4603 18.2383 65.4603 18.2383C65.4603 18.2383 64.7274 20.7569 64.8661 21.4456C65.0047 22.0949 67.3616 25.6761 67.3616 25.6761Z" fill="white"/>
<path d="M67.4606 14.9718L70.887 2.22123L69.8571 1.98511L66.2524 15.326L66.2722 15.3457C66.1138 16.0541 65.9553 16.8411 66.0147 17.1756C66.1732 17.825 68.5301 21.3865 68.5301 21.3865C68.5301 21.3865 69.3223 19.0449 68.946 17.3134C68.8668 16.8608 68.0944 15.7983 67.4606 14.9718Z" fill="white"/>
<path d="M74.7688 3.28402L73.7389 3.00854L71.3027 11.9615C70.4907 12.4141 69.1636 13.2208 68.9458 14.0866C68.411 16.0346 69.7776 17.2743 69.7776 17.2743L70.0747 17.353L60.6074 52.4368L61.261 52.5942L70.7283 17.5301L71.0254 17.5891C71.0254 17.5891 72.808 17.1759 73.3427 15.2475C73.5804 14.4014 72.8476 13.0241 72.3722 12.237L74.7688 3.28402Z" fill="white"/>
<path d="M88.5347 18.6514L93.2485 10.5249L94.1794 11.0365L88.7129 20.4617L88.5347 18.6514Z" fill="white"/>
<path d="M78.5713 34.393C78.5713 34.393 79.6804 32.1695 81.1857 31.2053C81.7799 30.7921 85.2063 30.4773 85.2063 30.4773C85.2063 30.4773 83.9189 32.7795 83.3644 33.1533C82.7702 33.5469 78.5713 34.393 78.5713 34.393Z" fill="white"/>
<path d="M80.8101 30.5365C80.8101 30.5365 81.939 28.3131 83.4443 27.3489C84.0385 26.9357 87.4649 26.6208 87.4649 26.6208C87.4649 26.6208 86.1775 28.923 85.6229 29.2969C85.009 29.6904 80.8101 30.5365 80.8101 30.5365Z" fill="white"/>
<path d="M95.9211 12.0401L94.9902 11.5088L88.3552 22.9214C87.3055 23.0591 85.9983 23.2559 85.6418 23.492C84.1563 24.4365 83.0273 26.6796 83.0273 26.6796C83.0273 26.6796 87.246 25.8335 87.8006 25.44C88.0977 25.2432 88.5532 24.5939 88.9494 23.9839H88.9692L95.9211 12.0401Z" fill="white"/>
<path d="M85.9599 17.1758L90.6737 9.04924L89.7429 8.49829L84.2764 17.9235L85.9599 17.1758Z" fill="white"/>
<path d="M77.2056 33.6057C77.2056 33.6057 78.5723 31.5396 78.6713 29.7884C78.7307 29.0604 77.3047 25.9514 77.3047 25.9514C77.3047 25.9514 75.9381 28.2143 75.8786 28.8833C75.8588 29.572 77.2056 33.6057 77.2056 33.6057Z" fill="white"/>
<path d="M79.4434 29.7493C79.4434 29.7493 80.81 27.6832 80.8893 25.9123C80.9487 25.1842 79.5227 22.095 79.5227 22.095C79.5227 22.095 78.1758 24.3578 78.1164 25.0268C78.0966 25.6958 79.4434 29.7493 79.4434 29.7493Z" fill="white"/>
<path d="M88.9305 8.04568L87.9996 7.5144L81.0476 19.4779H81.0674C80.7109 20.1273 80.3742 20.8553 80.3544 21.1898C80.295 21.8588 81.6616 25.9122 81.6616 25.9122C81.6616 25.9122 83.0481 23.8462 83.1273 22.0753C83.1669 21.6621 82.6915 20.4224 82.2756 19.4582L88.9305 8.04568Z" fill="white"/>
<path d="M92.4166 10.0528L91.4857 9.52148L86.8114 17.5496C85.9202 17.7661 84.4347 18.2186 83.9792 18.986C82.9492 20.7373 83.9396 22.2721 83.9396 22.2721L84.197 22.4295L65.916 53.8731L66.4904 54.2076L84.7714 22.764L85.0289 22.9214C85.0289 22.9214 86.8709 22.9804 87.8612 21.2489C88.3167 20.5012 87.9602 18.9664 87.7027 18.1006L92.4166 10.0528Z" fill="white"/>
<path d="M101.329 28.4507L108.024 21.8196L108.776 22.5673L101.052 30.2609L101.329 28.4507Z" fill="white"/>
<path d="M87.6226 41.1223C87.6226 41.1223 89.2863 39.2727 90.9698 38.7217C91.663 38.4659 95.0498 39.0562 95.0498 39.0562C95.0498 39.0562 93.2079 40.9452 92.5543 41.1617C91.9007 41.3584 87.6226 41.1223 87.6226 41.1223Z" fill="white"/>
<path d="M90.793 37.9741C90.793 37.9741 92.4567 36.1245 94.1402 35.5736C94.8136 35.3178 98.2203 35.9081 98.2203 35.9081C98.2203 35.9081 96.3783 37.797 95.7247 38.0135C95.0711 38.2103 90.793 37.9741 90.793 37.9741Z" fill="white"/>
<path d="M110.202 23.984L109.449 23.2363L100.081 32.5632C99.0508 32.4057 97.7238 32.2877 97.3277 32.4254C95.6442 32.9764 93.9805 34.826 93.9805 34.826C93.9805 34.826 98.2784 35.0818 98.9122 34.8653C99.2291 34.767 99.8431 34.2357 100.378 33.7438L100.398 33.7634L110.202 23.984Z" fill="white"/>
<path d="M99.2293 26.3846L105.924 19.7338L105.171 18.9861L97.4468 26.6797L99.2293 26.3846Z" fill="white"/>
<path d="M86.5142 40.001C86.5142 40.001 88.3759 38.3678 88.9305 36.6953C89.188 36.0066 88.5938 32.6418 88.5938 32.6418C88.5938 32.6418 86.6726 34.4718 86.4548 35.1211C86.2567 35.7508 86.5142 40.001 86.5142 40.001Z" fill="white"/>
<path d="M89.6822 36.8526C89.6822 36.8526 91.5439 35.2194 92.0985 33.5468C92.356 32.8582 91.7618 29.4934 91.7618 29.4934C91.7618 29.4934 89.8406 31.3234 89.6227 31.9727C89.4247 32.6024 89.6822 36.8526 89.6822 36.8526Z" fill="white"/>
<path d="M104.498 18.3171L103.745 17.5693L93.9216 27.3487L93.9414 27.3684C93.4264 27.8997 92.9114 28.5097 92.7926 28.8245C92.5747 29.4738 92.8322 33.7044 92.8322 33.7044C92.8322 33.7044 94.7138 32.0712 95.2684 30.3987C95.4268 29.9854 95.2684 28.6671 95.1297 27.6636L104.498 18.3171Z" fill="white"/>
<path d="M107.35 21.1703L106.597 20.4226L100.002 26.975C99.0711 26.9356 97.5262 27.0144 96.8924 27.6243C95.4466 29.0607 96.0011 30.7923 96.0011 30.7923L96.219 31.0087L70.3721 56.687L70.8474 57.1396L96.6745 31.481L96.8924 31.6974C96.8924 31.6974 98.6551 32.2287 100.101 30.812C100.715 30.1823 100.774 28.6475 100.755 27.7227L107.35 21.1703Z" fill="white"/>
</svg>
