<svg width="74" height="54" viewBox="0 0 74 54" fill="none" xmlns="http://www.w3.org/2000/svg">
<path d="M72.8331 37.5437V37.4535C72.5528 37.3634 70.3998 35.8527 70.0297 33.226C69.5588 30.4076 68.6281 27.0255 67.1367 24.5792C65.735 22.4147 63.9633 22.1328 63.0213 22.1328C62.9316 22.1328 62.8307 22.1328 62.741 22.1328C61.1823 22.2343 60.1731 22.6965 59.5788 23.0685C59.276 22.6627 58.8163 22.1667 58.1547 21.6594C57.0333 20.7237 55.2616 19.8781 52.7386 19.7767C52.5479 19.7767 52.4582 19.7767 52.3685 19.7767C49.9352 19.7767 48.2532 20.532 46.5712 21.1859C44.7994 21.9412 43.2071 22.5951 40.8747 22.5951C40.785 22.5951 40.6841 22.5951 40.5047 22.5951C38.0714 22.5049 36.58 22.0314 35.6492 21.4677C35.4474 21.3662 35.2792 21.2422 35.111 21.0957C35.1671 21.0957 35.2231 21.0957 35.2792 21.0957C35.5595 21.0957 35.7502 21.0957 35.9296 21.1859C36.0193 21.2761 36.2099 21.3775 36.4903 21.3775C36.58 21.3775 36.58 21.3775 36.6809 21.3775C38.1723 21.0957 38.6432 20.4418 38.6432 20.3404L38.8339 20.0585L38.4638 20.1487C38.4638 20.1487 38.2732 20.2389 37.9929 20.3404C37.8022 20.3404 37.5219 20.4305 37.3425 20.4305C37.3425 20.4305 37.3425 20.4305 37.2528 20.4305C37.0621 20.3404 36.6024 20.0585 36.1314 19.8669C35.8511 19.6752 35.6605 19.585 35.481 19.4948C35.2007 19.4047 35.0101 19.4047 34.8307 19.4047C34.6064 19.4385 34.3373 19.5061 34.0906 19.585C34.0233 19.4272 33.9672 19.2694 33.9224 19.1115C34.1242 19.0665 34.3597 19.0326 34.64 19.0326H34.7297C35.0998 19.0326 35.2904 19.1228 35.5708 19.3145C35.7614 19.4047 36.1314 19.5061 36.5015 19.5061C36.5912 19.5061 36.5912 19.5061 36.6921 19.5061C37.1631 19.5061 37.5331 19.2243 37.8134 19.0326C38.0938 18.841 38.1835 18.6606 38.2844 18.5591L38.0041 18.469V18.3788C38.0041 18.469 37.8134 18.5704 37.1631 18.6606C36.793 18.6606 36.5127 18.3788 36.1314 18.1871C35.7614 17.9053 35.3801 17.6234 34.9204 17.5333C34.9204 17.5333 34.8307 17.5333 34.7297 17.5333C34.3821 17.5333 34.0009 17.6122 33.7093 17.7024C33.7093 17.5784 33.6981 17.4543 33.6981 17.3416C33.6981 17.3191 33.6981 17.2965 33.6981 17.274C33.9784 17.1725 34.3261 17.0598 34.6288 17.0598C34.9092 17.0598 35.1895 17.15 35.3801 17.3416C35.6605 17.4318 35.9408 17.5333 36.4118 17.5333H36.5015C36.8715 17.5333 37.3425 17.3416 37.6228 17.1612C37.9031 16.9696 38.0938 16.7892 38.0938 16.7892L38.0041 16.5074C37.9144 16.5976 37.5331 16.699 37.1631 16.699C37.0734 16.699 36.8827 16.6088 36.793 16.5074C36.3221 16.2255 35.582 15.5717 34.741 15.5717C34.3261 15.5717 33.9672 15.6393 33.6757 15.7182C33.6645 15.6393 33.6532 15.5491 33.642 15.4364C33.9336 15.3575 34.2812 15.2898 34.5615 15.2898C34.9316 15.2898 35.1222 15.38 35.4025 15.4815C35.6829 15.5717 35.9632 15.6731 36.4342 15.6731H36.5239C37.2752 15.5829 37.7349 15.3913 38.0153 15.1996C38.2059 15.008 38.2956 14.8276 38.3853 14.7262L38.475 14.4443L38.105 14.5345C38.105 14.5345 38.105 14.5345 38.0153 14.6247C37.8247 14.6247 37.4546 14.8163 37.1743 14.8163H37.0846C36.8042 14.7262 36.3333 14.4443 35.8735 14.1625C35.3128 13.9708 34.8419 13.689 34.4718 13.689H34.3821C34.0569 13.7228 33.7542 13.8468 33.485 13.9821C33.4738 13.9145 33.4738 13.8468 33.4626 13.7792C33.7542 13.689 34.1466 13.5988 34.5728 13.5988C35.1334 13.5988 35.6044 13.689 36.0641 13.689C36.3445 13.689 36.6248 13.689 36.9052 13.5988C37.6565 13.4072 38.1162 12.8435 38.1162 12.8435L38.3965 12.37L37.9256 12.5616C37.9256 12.5616 37.9256 12.5616 37.8359 12.6518C37.7462 12.6518 37.3649 12.742 37.0846 12.742C36.9949 12.742 36.8042 12.742 36.5239 12.6518C36.2436 12.5616 35.7726 12.4602 35.4025 12.2798C35.0325 12.1896 34.6512 12.0882 34.3709 12.0882C34.0009 12.0882 33.6196 12.1783 33.2496 12.2798C33.2383 12.2798 33.2383 12.2798 33.2271 12.2911C33.2047 12.1896 33.1823 12.0882 33.1599 11.9867C33.4514 11.874 33.8214 11.7161 34.0906 11.7161H34.1803C34.3709 11.7161 34.4606 11.8063 34.6512 11.8063C34.8419 11.8965 35.1222 11.8965 35.4923 11.8965C35.582 11.8965 35.582 11.8965 35.6829 11.8965C36.5239 11.8965 36.9949 11.6147 37.2752 11.423C37.5555 11.1412 37.6452 10.9495 37.6452 10.8593L37.7349 10.5775L37.4546 10.6677C37.3649 10.7579 36.9836 10.8593 36.5239 10.8593C36.3333 10.8593 36.1539 10.8593 35.9632 10.7692C35.6829 10.679 35.2119 10.4873 34.8419 10.3971C34.4718 10.2055 34.0906 10.1153 33.7205 10.1153H33.6308C33.272 10.1604 32.9917 10.2618 32.7674 10.3746C32.7225 10.2168 32.6777 10.0477 32.6328 9.88982C32.8234 9.79963 33.0701 9.73199 33.3505 9.73199C33.4402 9.73199 33.5411 9.73199 33.6308 9.73199C33.8214 9.73199 33.9112 9.73199 34.0009 9.73199C34.0906 9.82218 34.2812 9.82218 34.4718 9.82218H34.5615C35.4923 9.73199 36.0529 9.34869 36.4342 8.97667C36.6585 8.7512 36.7818 8.55955 36.8491 8.43554C36.8827 8.42427 36.9052 8.41299 36.9052 8.41299L36.8827 8.3679C36.8939 8.33408 36.9052 8.31153 36.9052 8.31153L37.0958 7.93951L36.7257 8.13116C36.7257 8.13116 36.7257 8.13116 36.636 8.13116C36.3557 8.3228 35.8847 8.50318 35.5147 8.60464H35.425C35.2343 8.60464 34.8643 8.51445 34.4943 8.32281C34.1242 8.23262 33.6532 8.04097 33.2832 8.04097H33.1935C32.7898 8.08606 32.3861 8.1988 32.0834 8.30026C32.0273 8.17625 31.96 8.05224 31.9039 7.92823C32.0049 7.90569 32.1282 7.87186 32.2628 7.86059C32.3525 7.86059 32.4534 7.86059 32.4534 7.86059C32.7337 7.86059 33.0141 7.95078 33.2944 7.95078C33.5747 7.95078 33.9448 7.86059 34.4158 7.66894C34.9764 7.47729 35.3465 7.10527 35.5371 6.73324C35.8174 6.36122 35.9072 6.07938 35.9072 5.97792L36.0978 5.60589L35.7277 5.88773H35.5483C35.4586 5.97792 34.7073 6.36122 34.0569 6.4514C33.9672 6.54159 33.8663 6.54159 33.7766 6.54159C33.4963 6.54159 33.3056 6.4514 33.0253 6.34994C32.745 6.25975 32.4646 6.15829 32.0946 6.15829H32.0049C31.5675 6.15829 31.2087 6.32739 30.9396 6.4965C30.8835 6.41758 30.8162 6.33867 30.749 6.25975C30.8387 6.22593 30.9396 6.19211 31.0629 6.14702C31.433 5.95537 31.7133 5.95537 31.9937 5.95537C32.3637 5.86518 32.644 5.86518 33.115 5.76372C33.7654 5.48188 34.1466 5.10986 34.427 4.72656C34.7073 4.35453 34.7073 4.07269 34.7073 4.07269L34.8979 3.59921L34.5279 3.88104H34.427C34.3373 3.97123 34.1466 4.16288 33.8663 4.35453C33.4963 4.54618 33.2159 4.72656 32.8347 4.72656C32.745 4.72656 32.644 4.72656 32.5543 4.72656C31.9937 4.72656 31.7133 4.63637 31.3433 4.63637C31.1526 4.63637 30.8723 4.63637 30.592 4.72656C30.4013 4.72656 30.2219 4.72656 30.121 4.81674C30.0313 4.81674 29.8407 4.90693 29.8407 5.00839C29.751 5.05349 29.6613 5.09858 29.5603 5.14368C29.4033 5.03094 29.2464 4.91821 29.0894 4.81674C29.0669 4.80547 29.0557 4.7942 29.0333 4.78292C29.1679 4.70401 29.493 4.61382 29.7397 4.53491C30.1098 4.44472 30.491 4.34326 30.8611 4.34326C31.1414 4.25307 31.4218 4.15161 31.6124 3.97123C32.1731 3.31737 32.3637 2.47186 32.3637 2.47186L32.274 2.38167L32.1843 2.31403C32.1731 2.3253 32.1394 2.35912 32.1058 2.40421H32.0946V2.41549C31.9039 2.64096 31.489 3.0919 30.8835 3.24973C30.6929 3.24973 30.6032 3.24973 30.4126 3.24973C30.0425 3.24973 29.5715 3.15954 29.1006 3.15954C28.6296 3.15954 28.1699 3.24973 27.7886 3.53157C27.5195 3.76831 27.3513 3.98251 27.2616 4.17416C27.0149 4.11779 26.7458 4.07269 26.4766 4.0276C26.6448 3.76831 26.8915 3.56539 27.127 3.44138C27.598 3.15954 28.0577 3.06935 28.3381 2.8777C28.5287 2.8777 28.7081 2.68605 28.809 2.50568C29.123 2.03219 29.3697 1.43469 29.437 1.19795C29.4482 1.19795 29.4482 1.19795 29.4594 1.19795L29.4482 1.18668C29.4594 1.15286 29.4594 1.11904 29.4594 1.10776L29.65 0.634275L29.1791 1.0063C28.9884 1.19795 28.6184 1.47979 28.2484 1.66016C27.7774 1.942 27.3176 2.22384 27.0373 2.22384C26.5663 2.31403 26.0057 2.41549 25.6356 2.59586C25.1647 2.78751 24.7946 3.06935 24.604 3.44138C24.5255 3.63303 24.4806 3.79086 24.4582 3.92614C24.1667 3.94868 23.8639 3.98251 23.5723 4.0276C23.606 3.95996 23.6396 3.89232 23.6733 3.8134C24.0545 3.35119 24.8955 2.59586 25.4562 2.31403C25.7365 2.12238 25.8262 1.84054 25.9272 1.5587C26.0169 1.36705 26.1178 1.08522 26.1178 0.904839C26.1178 0.623001 26.0281 0.431352 26.0281 0.431352L25.9272 0.0593262L25.7365 0.431352C25.7365 0.52154 25.2656 1.46851 24.1442 2.12238C24.0545 2.21257 23.8639 2.31403 23.5836 2.40421C23.2135 2.4944 22.8323 2.68605 22.4622 2.8777C21.9912 3.15954 21.7109 3.53157 21.4306 4.09524C21.3745 4.25307 21.3521 4.42217 21.3409 4.56873C21.1166 4.63637 20.8923 4.71528 20.6793 4.7942C20.6793 4.78292 20.6793 4.76038 20.6793 4.7491C20.5896 4.65892 20.6793 4.55745 20.769 4.37708C21.0493 3.90359 21.6997 3.15954 22.0809 2.8777C22.2716 2.78751 22.3613 2.59586 22.451 2.31403C22.7313 1.75035 22.821 0.814651 22.821 0.814651V0.341164L22.5407 0.713189C22.5407 0.713189 22.451 0.803377 22.3501 0.995027C22.1594 1.18668 21.8791 1.5587 21.5988 1.93073C21.3184 2.21257 21.0381 2.4944 20.9484 2.68605C20.6681 2.8777 20.1074 3.15954 19.5467 3.62175C19.0757 3.99378 18.5151 4.55745 18.4254 5.22259C18.3581 5.49316 18.2908 5.70735 18.2572 5.88773C18.1114 5.9441 17.988 6.01174 17.8647 6.0681C17.8086 6.0681 17.7525 6.10192 17.7077 6.12447C17.7189 6.03428 17.7413 5.92155 17.775 5.78627C17.775 5.41424 17.9656 5.22259 18.0553 4.94075C18.3356 4.56873 18.7057 4.28689 19.087 3.90359C19.3673 3.53157 19.6476 2.96789 19.6476 2.21257H19.457H19.3673C19.3673 2.30275 19.2776 2.40422 19.1767 2.4944C19.087 2.77624 18.8066 2.96789 18.4254 3.14827C17.9544 3.52029 17.3937 3.90359 16.833 4.27562C16.6424 4.46727 16.3621 4.64764 16.1827 4.92948C16.093 5.12113 15.992 5.30151 15.992 5.58334C15.992 5.899 16.0369 6.16957 16.093 6.38376C16.0257 6.39504 15.9584 6.40631 15.9023 6.42886C15.4314 6.42886 15.151 6.42886 14.8707 6.51904C14.781 6.51904 14.5904 6.71069 14.3997 6.80088C13.9288 7.17291 13.2784 7.83804 13.2784 7.83804C13.2559 7.83804 13.2335 7.83804 13.1887 7.83804V7.95078C13.1887 8.04097 13.1887 8.04097 13.1887 8.14243C13.2784 8.14243 13.3793 8.23262 13.5587 8.33408C13.6484 8.33408 13.9288 8.42427 14.2091 8.42427C14.2427 8.42427 14.2764 8.42427 14.3212 8.42427C14.0745 8.55955 13.839 8.7061 13.6484 8.89775C13.5587 8.98794 13.4578 9.0894 13.3681 9.17959C13.2784 9.37124 13.1775 9.46143 13.1775 9.55162V9.6418C13.2672 9.73199 13.3681 9.83345 13.4578 9.92364C13.5475 9.92364 13.6484 9.92364 13.7381 9.92364C14.1082 9.92364 14.5791 9.83345 15.0501 9.6418C15.0725 9.63053 15.095 9.63053 15.1174 9.61926L14.2091 15.7408C14.2091 15.7408 14.0185 16.5863 13.839 17.4318C13.7493 17.9053 13.6484 18.3675 13.5587 18.6493C13.5587 18.841 13.5587 19.0214 13.469 19.1228C13.469 19.213 13.469 19.3145 13.469 19.3145C13.2784 19.5963 12.998 19.8781 12.998 20.3516C12.998 20.4418 12.998 20.4418 12.998 20.4418C12.998 20.6335 13.0877 20.7237 13.1887 20.9153C13.469 21.2873 13.94 21.5692 13.94 21.5692L14.2203 21.851C14.31 22.0427 14.5006 22.223 14.6913 22.223H14.781C14.9716 22.223 15.151 22.1328 15.3417 22.0314C15.5323 21.9299 15.622 21.7495 15.7117 21.5579C15.7117 21.4677 15.8014 21.3662 15.8014 21.2761C15.8911 20.9942 15.8911 20.8026 15.992 20.5207C16.0817 20.3291 16.0817 20.1487 16.1827 20.0472C16.1827 19.9571 16.2724 19.8556 16.3733 19.7654C16.3733 19.7654 16.463 19.6752 16.5639 19.6752V19.7654V19.8556C16.4742 19.9458 16.4742 20.0472 16.3733 20.1374C16.3733 20.2276 16.2836 20.4193 16.2836 20.6109C16.2836 20.8026 16.1939 21.0844 16.1939 21.2648C16.1939 21.4564 16.1939 21.5466 16.2836 21.7383C16.2836 21.8285 16.3733 21.9299 16.5639 22.0201C16.6536 22.1103 16.7545 22.1103 16.7545 22.1103C16.9452 22.1103 17.0349 22.0201 17.1246 22.0201C17.4049 21.8285 17.4946 21.4564 17.5956 21.3662C17.5956 21.2761 17.6853 21.1746 17.6853 21.0844C17.775 20.7124 17.9656 19.8669 18.2459 19.0214C18.4366 18.6493 18.5263 18.266 18.616 17.894C18.8066 17.6122 18.8963 17.4205 18.986 17.3303C19.2664 17.0485 19.5467 16.9583 19.9167 16.7667C20.2868 16.4848 20.7578 16.1128 21.3184 15.2673C21.8791 14.512 21.9688 13.6664 21.9688 12.9224C21.9688 12.5842 21.9352 12.2911 21.9015 12.0431C22.1707 12.494 22.5295 13.2719 22.5295 14.2414V14.3316C22.5295 15.1771 22.5295 15.6506 22.5295 15.9324C22.4398 16.2143 22.4398 16.4059 22.3389 16.6877C22.2491 17.1612 21.4978 19.6978 21.2175 20.3516C21.1278 20.6335 20.9372 21.107 20.7465 21.479C20.7241 21.5241 20.7129 21.5692 20.6905 21.6143C20.5896 21.6932 20.4774 21.7721 20.3765 21.851C18.7842 23.0685 17.1022 25.2331 17.1022 28.5249C17.1022 29.2126 17.1694 29.9567 17.3152 30.7458L17.2928 30.7796L17.3152 30.7909C17.147 30.8134 16.6873 30.8924 16.1714 30.9713C15.4201 31.1629 14.6801 31.3433 14.2988 31.535C13.9288 31.6251 12.9868 32.0986 12.1458 32.5721C11.6748 32.7638 11.3048 33.0456 10.9348 33.1358C10.8451 33.226 10.6544 33.3274 10.5647 33.3274C10.475 33.4176 10.3741 33.4176 10.3741 33.4176C10.1835 33.5078 10.004 33.6093 9.7237 33.6093C9.634 33.6093 9.53308 33.6093 9.35366 33.6093C8.98362 33.6093 8.23231 33.6995 7.3913 34.4548C6.64 35.1087 6.26996 36.1458 6.07933 36.9011C5.98962 37.2732 5.60836 38.1187 5.23832 38.9642C4.86827 39.8097 4.39731 40.565 4.11697 40.8469C3.83663 41.2189 3.36567 41.6924 2.99562 42.1659C2.80499 42.4477 2.62558 42.6394 2.43495 42.9212C2.24432 43.1128 2.15461 43.2932 2.15461 43.4849V43.5751C2.15461 43.7667 2.24432 43.9471 2.24432 44.0485C2.33403 44.1387 2.33403 44.2402 2.33403 44.3304C2.33403 44.4206 2.33403 44.4206 2.24432 44.522C2.15461 44.7137 1.96398 44.8941 1.77336 45.2774C1.58273 45.5592 1.30239 46.0327 1.21268 46.6865C1.12297 46.9458 1.12297 47.2164 1.04448 47.4757C1.03327 47.4982 1.03327 47.5321 1.03327 47.5321C0.842637 48.8511 0.75293 49.7868 0.75293 49.7868C0.75293 49.8769 0.842637 49.8769 0.842637 49.9784C0.932345 49.9784 0.932345 49.9784 1.03327 49.9784L4.48701 47.0698C4.57672 46.9796 4.57672 46.8782 4.48701 46.8782L4.20668 46.2243C4.18425 46.2018 4.17304 46.1905 4.16182 46.1792L4.11697 46.0327L4.10576 46.0439C4.08333 45.9425 4.02726 45.7847 4.02726 45.5705C4.02726 45.2886 4.11697 45.0068 4.3076 44.7249C4.49823 44.5333 4.58794 44.4431 4.67764 44.3529C4.76735 44.3529 4.76735 44.3529 4.76735 44.3529H4.85706H4.94677H5.03647L5.12618 44.4431C5.31681 44.5333 5.40652 44.7249 5.49623 44.8151C5.58593 44.8151 5.58593 44.9053 5.58593 44.9053C5.67564 44.9955 5.67564 44.9955 5.67564 44.9955L5.95598 45.3675L5.86627 44.15L5.95598 44.4318L6.23632 44.3416V43.5863L6.42694 43.8682H6.51665H6.70728V43.778V43.6878C6.70728 43.2143 6.79699 41.8051 7.73892 39.9337C8.86027 37.5888 10.262 36.8335 10.5423 36.6418C10.7329 36.5517 11.0133 36.36 11.5739 36.1684C12.2243 35.8865 13.0653 35.6949 14.1867 35.6949C14.2764 35.6949 14.2764 35.6949 14.3773 35.6949C17.1807 35.6949 18.4926 35.2214 18.5823 35.2214L18.5711 35.2101L18.6272 35.1988C18.5487 35.3792 18.4702 35.537 18.3917 35.6949C18.302 35.8865 18.2011 35.9767 18.1114 36.0669V36.1571V36.2473H18.0217V36.3375C18.0329 36.3487 18.0441 36.36 18.0553 36.3713C17.9544 36.5742 17.7974 36.8786 17.6516 37.183C17.461 37.555 17.2816 37.9383 17.091 38.0285C17.0012 38.3103 16.62 38.874 16.3397 39.4377C15.9696 39.9112 15.6893 40.4748 15.6893 40.4748C15.6893 40.4748 15.5996 40.565 15.5996 40.7567C15.5099 41.0385 15.4089 41.3204 15.4089 41.6022C15.4089 41.6924 15.4089 41.6924 15.4089 41.7938C15.4986 42.0757 15.6893 42.2673 15.9696 42.4477C16.3397 42.7295 16.7209 42.9212 17.1807 43.0114C17.5507 43.1016 17.932 43.1016 18.1114 43.1016C18.1114 43.1016 18.3917 43.1016 18.7618 43.1918C19.2327 43.1918 19.8831 43.2819 20.4438 43.3834C21.0045 43.4736 21.5651 43.5751 21.6548 43.5751C21.9352 43.6652 23.1462 44.0485 24.2676 44.4206C24.8282 44.5108 25.3889 44.7024 25.8599 44.7926C26.0505 44.8828 26.2299 44.9842 26.4206 44.9842C26.5103 44.9842 26.7009 45.0744 26.7009 45.0744C26.8915 45.0744 27.0709 44.9842 27.1719 44.8828C27.3625 44.7926 27.6428 44.6911 27.8222 44.5107C28.1026 44.4206 28.2932 44.3191 28.4726 44.3191C28.652 44.3191 28.8427 44.4093 28.9436 44.5107C29.1342 44.6009 29.3136 44.7024 29.594 44.7024H29.6837C29.8743 44.7024 30.1546 44.5108 30.3341 44.4206C30.6144 44.2289 30.8947 43.9471 31.1751 43.7667C31.5451 43.3947 32.0161 43.0114 32.2067 42.9212C32.3973 42.7295 32.8571 42.5492 33.1374 42.4477C33.3281 42.3575 33.4178 42.2561 33.6084 42.2561C33.6981 42.1659 33.799 42.1659 33.799 42.1659L33.8887 42.0757C33.8887 41.9855 33.799 41.884 33.799 41.884L30.0313 40.6439C30.0313 40.5538 29.9416 40.6439 29.8407 40.6439C29.8407 40.6439 29.751 40.8356 29.65 41.1174C29.5155 41.2527 29.3809 41.4331 29.28 41.5909L29.2688 41.5796L29.1791 41.7713C29.0894 41.7713 29.0894 41.8615 29.0894 41.8615L28.9997 41.9517C28.91 41.9517 28.7193 42.1433 28.5287 42.1433C28.439 42.1433 28.3381 42.0531 28.3381 42.0531C28.3381 41.9629 28.3381 41.8615 28.4278 41.7713C28.4278 41.5796 28.6184 41.3993 28.7081 41.2076C28.7081 41.1174 28.7978 41.016 28.7978 41.016C28.7978 40.9258 28.7978 40.9258 28.7978 40.9258L28.7081 40.8356L28.6184 40.7454L27.6877 41.3993L27.968 40.8356L27.8783 40.7454L27.7886 40.6552C27.7886 40.6552 27.7774 40.6665 27.755 40.689L27.6989 40.6439L27.6316 40.7792C27.5083 40.8807 27.3401 41.0047 27.1382 41.1062C27.0485 41.2978 26.8579 41.388 26.6673 41.4782C26.5775 41.5684 26.3869 41.6698 26.3869 41.76C26.2972 41.76 26.1963 41.8502 26.1066 41.8502C26.0169 41.8502 25.8262 41.9404 25.5459 41.9404C25.2656 41.9404 24.8955 41.8502 24.3349 41.7487C23.4938 41.6586 22.2828 41.5571 21.2512 41.2753C20.6905 41.1851 20.2195 41.0836 19.8495 40.9032C19.7598 40.813 19.5691 40.813 19.4794 40.7116C19.3897 40.6214 19.3897 40.6214 19.3897 40.5199C19.3897 40.5199 19.4794 40.4297 19.5803 40.3283C19.8607 39.8548 20.5111 39.2911 21.1727 38.6373C21.924 37.9834 22.664 37.4197 23.0453 36.9462C23.3481 36.6418 23.7293 36.2135 24.1218 35.7174C25.8038 36.3713 28.3493 37.1153 31.646 37.4084C31.9264 37.4986 32.117 37.4986 32.3973 37.4986C34.3597 37.4986 36.2323 37.0251 36.2323 37.0251C36.2323 37.0251 36.7033 36.8335 37.5443 36.6531C38.7554 36.2811 40.7177 35.7174 42.3998 35.3341C42.4558 35.3228 42.5007 35.3116 42.5567 35.3003C42.568 35.3116 42.5792 35.3228 42.5904 35.3341C42.781 35.5258 43.2408 36.0894 43.622 36.8335C44.093 37.4874 44.3733 38.4343 44.3733 39.1784C44.3733 39.2686 44.3733 39.37 44.3733 39.5504C44.2836 40.4861 43.9024 41.1512 43.5323 41.6135C43.3417 41.8051 43.1623 41.9855 42.9716 42.1771C42.8819 42.2673 42.6913 42.3688 42.6016 42.459C41.1999 44.0598 39.6076 45.3675 38.4863 46.3145C37.9256 46.788 37.3649 47.2502 36.9949 47.5321C36.8042 47.7237 36.7145 47.8139 36.6248 47.9041C36.4342 47.9943 36.4342 48.0957 36.3445 48.1859C36.2548 48.3776 36.2548 48.6594 36.1538 48.9412C36.1538 49.2231 36.1539 49.4147 35.9632 49.6966C35.8735 49.7868 35.7726 49.9784 35.5932 50.1701C35.3128 50.3617 34.9428 50.6435 34.6625 50.8239C34.4718 51.0156 34.3821 51.0156 34.2924 51.1058C34.2027 51.1959 34.2027 51.1959 34.2027 51.1959H34.113L34.0794 51.3312L32.8907 53.0786C32.801 53.1688 32.801 53.2703 32.8907 53.2703C32.8907 53.3605 32.8907 53.3605 32.9804 53.3605L36.9052 52.7066C36.9949 52.7066 37.0958 52.6164 37.0958 52.6164C37.0958 52.6164 37.0958 52.3346 37.1855 52.0527C37.1855 51.7709 37.2752 51.3989 37.2752 51.117C37.2752 51.0268 37.3649 50.8352 37.3649 50.745C37.3649 50.6548 37.3649 50.5533 37.3649 50.5533C37.4546 50.4632 37.4546 50.2715 37.5555 50.1813C37.6565 50.0911 37.7462 49.9897 37.9256 49.9897C37.9256 49.9897 38.0153 49.9897 38.0153 50.0799C38.105 50.1701 38.2059 50.4519 38.2956 50.6435C38.2956 50.6435 38.2956 50.7337 38.2956 50.8352C38.2956 50.9254 38.2956 50.9254 38.2956 50.9254H38.4863H38.6769V49.798L38.8675 50.4519L39.1478 50.3617C39.1478 50.3617 39.2376 49.9897 39.3385 49.6064C39.3385 49.2344 39.4282 48.7609 39.5291 48.5692C39.5291 48.3776 39.7197 48.1972 39.8991 48.0055C40.0898 47.9153 40.2692 47.7237 40.3701 47.6335C40.3701 47.6335 40.4598 47.5433 40.5607 47.5433C41.0317 47.0698 43.0838 45.6607 44.9564 44.4431C45.8871 43.7892 46.8291 43.1241 47.4795 42.6619C48.1298 42.1884 48.6008 41.9066 48.6008 41.9066C48.6008 41.9066 48.8811 41.7149 49.1615 41.5345C49.2512 41.4444 49.4418 41.3429 49.5315 41.2527C49.6212 41.1625 49.7221 41.1625 49.7221 41.0611C49.8119 40.9709 49.8119 40.9709 49.8119 40.8694L49.9016 40.7792C49.9016 40.689 49.8119 40.689 49.8119 40.5876C49.7221 40.3057 49.4418 39.8322 49.2512 39.2686C48.9708 38.7951 48.7802 38.1412 48.7802 37.5775V37.4874C48.8699 36.8335 49.0606 36.1684 49.3409 35.6047C49.4306 35.413 49.5315 35.2327 49.6212 35.041C49.6212 34.9508 49.7109 34.9508 49.7109 34.8606C50.4062 35.3567 51.1014 35.8302 51.763 36.2585C53.1647 37.0139 54.3757 37.7579 55.4074 38.3216C56.439 38.8853 57.1791 39.2573 57.4594 39.6406C57.8295 40.0126 58.1098 40.3959 58.2107 40.5763C58.3004 40.8581 58.3005 41.0498 58.3005 41.3316C58.3005 41.3316 58.3005 41.4218 58.3005 41.5233C58.3005 41.5233 58.3004 41.6135 58.2107 41.8051C58.121 42.459 57.8407 43.6878 57.6501 44.8151C57.4594 45.3788 57.3697 45.9425 57.28 46.416C57.1903 46.8895 57.0894 47.2615 57.0894 47.5433C57.0894 47.6335 57.0894 47.735 57.1791 47.8252L57.1903 47.8139C57.3025 48.3212 57.6501 48.5918 57.9192 48.7721C58.1098 48.9638 58.2892 49.054 58.3902 49.1442C58.4799 49.2343 58.5808 49.3358 58.5808 49.426C58.7714 49.7078 58.7714 50.0799 58.8611 50.3617C58.8611 50.7337 58.9508 51.0156 59.1415 51.2974C59.1415 51.3876 59.2312 51.4891 59.3321 51.4891C59.5227 51.7709 59.9825 52.0527 60.4534 52.3346C61.4851 52.8982 62.6064 53.4619 62.6064 53.4619C62.6961 53.4619 62.6961 53.4619 62.7971 53.4619C62.7971 53.4619 62.7971 53.3717 62.7971 53.2703L62.2364 48.9525C62.2364 48.8623 62.1467 48.8623 62.0457 48.8623C61.956 48.8623 61.956 48.8623 61.8551 48.8623C61.7654 48.8623 61.4851 48.8623 61.2047 48.7721C60.9244 48.7721 60.6441 48.6819 60.3637 48.5805C60.1731 48.3888 60.0834 48.2986 59.9937 48.0168C59.9937 47.9266 60.0834 47.9266 60.0834 47.8252C60.0834 47.735 60.274 47.735 60.3637 47.6335C60.4534 47.6335 60.6441 47.6335 60.8347 47.6335C61.0253 47.6335 61.115 47.6335 61.3057 47.6335H61.3954H61.4851L61.5748 47.4419L61.4851 47.3629V47.408H61.4739L60.9244 46.9346L61.4402 47.0135C61.5299 47.036 61.5748 47.036 61.5748 47.036V46.7542L61.5075 46.7429C61.4066 46.7204 61.216 46.664 61.0141 46.4723C60.8235 46.1905 60.5431 45.717 60.4534 44.7813V44.6911C60.4534 43.654 60.7338 42.4364 61.1038 41.3993C61.2944 40.9258 61.3842 40.4636 61.5748 40.0803C61.6645 39.7984 61.7654 39.5166 61.7654 39.4264C61.8551 39.2348 62.0457 38.7725 62.0457 38.3892C62.0457 38.1976 62.0457 38.1074 61.956 37.9158C61.8663 37.8256 61.7654 37.7241 61.586 37.6339C61.3954 37.6339 61.115 37.5437 60.8347 37.5437C60.745 37.5437 60.6441 37.5437 60.5544 37.5437C60.4646 37.5437 60.3637 37.5437 60.3637 37.5437C60.1731 37.4535 59.8928 37.4535 59.6124 37.2619C59.3321 36.9801 59.0518 36.5066 58.962 35.661C58.962 35.661 58.962 35.5709 58.962 35.4694C58.962 34.6239 59.433 33.4965 59.8928 32.0874C60.2628 30.7684 60.7338 29.1788 60.7338 27.4878C60.7338 27.3976 60.7338 27.2059 60.7338 27.0143C60.6441 25.8869 60.5431 25.2331 60.4534 24.8498C60.4198 24.7032 60.3862 24.5905 60.3525 24.4777C60.4198 24.4777 60.4759 24.4777 60.5544 24.4777C61.0253 24.4777 61.586 24.4777 62.0457 24.7596C62.6961 24.9512 63.1671 25.5149 63.5371 26.1688C63.9072 26.8226 64.1875 27.5779 64.1875 28.2318C64.1875 28.8857 64.3781 30.4865 64.6585 32.2677C64.9388 33.9588 65.4098 35.6498 65.8695 36.6869C66.3405 37.5325 66.8003 38.0059 67.2712 38.1863C67.7422 38.4682 68.2019 38.5583 68.6729 38.5583C68.8635 38.5583 69.1439 38.4682 69.3233 38.4682C69.7943 38.4682 70.6353 38.2765 71.3754 38.0961C72.2164 37.9045 72.8667 37.8143 72.8667 37.7241H73.1471L72.8331 37.5437Z" fill="white"/>
</svg>
