<svg width="46" height="63" viewBox="0 0 46 63" fill="none" xmlns="http://www.w3.org/2000/svg">
<path d="M0.393555 62.5687C0.393555 62.5687 2.86875 60.0949 2.96775 57.5221C2.96775 56.1863 0.59157 51.7458 0.59157 50.1008C0.492562 48.3444 2.24995 44.5347 2.24995 42.5681C2.24995 38.6471 1.53214 38.239 1.42076 37.4102C1.32175 36.6928 2.34896 37.0021 2.34896 37.0021C2.34896 37.0021 3.68556 37.4102 4.61376 39.5748C5.44295 41.6404 4.20535 45.7593 4.20535 46.0685C4.20535 49.1607 5.44295 51.3253 6.27214 51.3253C7.10132 51.3253 7.29934 49.0618 7.29934 48.8515C7.29934 48.6412 6.77955 47.7136 6.77955 46.4767C6.87856 45.2398 8.73495 44.0029 9.04435 44.0029C9.35375 44.0029 9.56414 44.4111 9.56414 44.4111C9.56414 44.4111 9.15573 44.9306 9.04435 45.549C8.94534 46.6869 10.381 50.7069 10.381 52.4509C10.381 56.4708 8.42555 57.8066 8.42555 58.8456C8.21516 61.6286 10.4923 62.5563 10.4923 62.5563H0.393555V62.5687Z" fill="white"/>
<path d="M22.5711 62.5687C22.5711 62.5687 20.0959 60.0702 19.9969 57.4604C19.9969 56.0998 22.3731 51.6222 22.3731 49.9524C22.3731 48.1837 20.7271 44.3246 20.7271 42.3455C20.6281 38.3875 21.4449 37.9669 21.5563 37.1382C21.5563 36.4084 20.6281 36.7177 20.6281 36.7177C20.6281 36.7177 19.1801 37.1382 18.3633 39.3275C17.4351 41.4179 18.6727 45.5862 18.6727 45.8954C18.6727 49.0248 17.5341 51.2141 16.7173 51.2141C15.8881 51.2141 15.5787 48.9258 15.5787 48.7155C15.6777 48.5053 16.1975 47.5652 16.0985 46.316C16.0985 45.0667 14.2421 43.8174 13.9327 43.8174C13.6233 43.8174 13.3139 44.238 13.3139 44.238C13.3139 44.238 13.7223 44.7575 13.9327 45.3883C14.0317 46.5386 12.5961 50.5956 12.5961 52.3767C12.4971 56.4461 14.4525 57.7943 14.4525 58.8457C14.7619 61.6658 12.4971 62.5935 12.4971 62.5935H22.5711V62.5687Z" fill="white"/>
<path d="M34.4272 21.3433C34.4272 15.9875 30.0957 11.7573 24.8359 11.7573C19.4771 11.7573 15.1455 15.9875 15.1455 21.3433V43.8176L16.3831 44.8442H16.9029C16.0737 38.3505 18.8583 36.9034 18.8583 36.9034V21.3433C18.8583 18.0407 21.5439 15.3691 24.8359 15.3691C28.0289 15.3691 30.7145 18.0531 30.7145 21.3433V61.5423L34.4272 59.3777V21.3433Z" fill="white"/>
<path d="M39.8979 21.3431C39.8979 12.9941 33.1901 6.19116 24.8363 6.19116C16.4826 6.19116 9.67578 12.9941 9.67578 21.3431V43.5082C9.67578 43.5082 11.2228 42.2714 13.2896 42.3703V21.3431C13.2896 15.0597 18.4503 9.90184 24.8363 9.90184C31.1233 9.90184 36.2841 15.0597 36.2841 21.3431V59.5879L39.8979 62.0617V21.3431Z" fill="white"/>
<path d="M45.467 21.3431C45.467 10.0008 36.185 0.724121 24.8363 0.724121C13.3885 0.724121 4.20557 10.0008 4.20557 21.3431V36.1859C4.20557 36.1859 6.27235 36.7054 6.89115 42.8898H7.81935V21.3431C7.81935 11.9551 15.4553 4.4348 24.8363 4.4348C34.1183 4.4348 41.7542 11.9551 41.7542 21.3431V62.0617L45.467 59.5879V21.3431Z" fill="white"/>
</svg>
