<svg width="81" height="49" viewBox="0 0 81 49" fill="none" xmlns="http://www.w3.org/2000/svg">
<path d="M67.4299 48.0579C66.9968 47.7472 66.581 47.2726 66.0526 46.8238C65.5762 46.4355 64.8919 46.168 64.5195 45.8055C63.8005 45.1065 64.147 43.8898 63.5753 42.9146C63.1335 42.8024 62.7697 42.6039 62.4233 42.4055C61.7476 39.4369 61.4618 36.0799 59.2963 34.5956C56.0134 34.4834 53.2502 34.0347 51.9596 32.1362C51.3359 31.2301 51.2579 30.0737 50.7209 29.0209C50.539 28.6671 49.7421 28.0543 49.8114 27.666C49.8287 27.597 50.1492 27.4675 50.2445 27.4675C50.6603 27.4848 51.154 28.2873 51.3705 28.5117C51.847 28.995 52.2887 29.4006 52.6785 29.7458C53.5794 30.5311 54.5062 31.4544 55.7362 31.7737C57.6938 32.2742 60.2491 32.1017 62.2673 32.5677C63.0123 34.5352 63.1595 36.8307 64.0864 38.5739C64.4328 39.2384 65.0825 39.6785 65.2471 40.3861C64.5455 41.8273 65.9227 42.5004 67.0574 42.7765C67.0834 44.7096 67.1441 46.5995 67.6465 48.0579C67.5685 48.0579 67.4992 48.0579 67.4299 48.0579ZM64.736 45.5294C65.1778 45.3654 65.4203 44.7355 65.6802 44.2954C65.966 43.838 66.3991 43.3202 66.3385 42.9923C65.8448 43.8811 65.1691 44.5801 64.736 45.5294Z" fill="white"/>
<path d="M0.541992 38.5824C0.541992 38.4357 0.541992 38.2977 0.541992 38.151C0.654598 36.8738 1.49481 36.2352 1.40819 34.9666C1.93657 34.5265 2.42164 34.0346 3.22721 33.8793C3.51306 33.3011 3.65165 32.5676 3.87686 31.929C5.462 31.3076 6.25024 31.0142 7.73144 30.1858C8.50236 29.7543 9.34258 29.3142 9.83631 28.9517C10.6679 28.3477 11.101 27.4761 12.0191 27.3639C12.3656 27.3207 12.7554 27.4416 13.1105 27.4329C15.6918 27.3553 18.3944 26.8634 21.1056 26.6304C21.6859 27.9593 22.2056 29.3487 22.6994 30.7553C22.3096 31.998 21.0709 31.8341 19.6503 31.5493C18.1518 31.2472 17.1124 30.9797 15.7958 30.6173C15.1721 30.436 14.4185 30.0995 13.9074 30.1081C13.4397 30.1168 12.842 30.4447 12.3136 30.6173C11.7593 30.7899 11.2569 30.9883 10.7805 31.1955C9.75835 31.6442 8.51102 32.0066 7.8094 32.4985C6.90856 33.1285 6.28489 34.3194 4.89897 33.8707C5.18482 34.8027 4.78637 35.9072 4.82968 36.6235C3.617 37.5037 2.21376 38.1768 0.541992 38.5824ZM15.0682 27.6573C14.2886 27.7091 13.3011 27.7263 12.816 28.0888C14.4878 27.8989 16.558 27.7177 17.9699 27.5106C16.9825 27.571 15.9603 27.5969 15.0682 27.6573ZM1.84995 35.9763C2.62953 35.9331 3.34848 35.821 4.17137 35.8296C3.60834 35.5448 2.64686 35.657 1.84995 35.6138C1.84995 35.7347 1.84995 35.8555 1.84995 35.9763Z" fill="white"/>
<path d="M75.2689 22.5227C75.6414 22.376 76.2304 22.4623 76.3603 22.0826C74.3248 20.5552 72.0466 20.0719 70.2623 18.251C68.5732 16.5251 67.6897 12.823 64.5973 12.7453C61.9208 12.6849 58.8198 14.0139 56.1692 13.8327C55.1991 13.7723 54.3242 13.4616 53.4147 13.3321C52.4359 13.1941 51.4744 13.0301 50.357 13.1164C47.4639 13.3494 45.7229 14.7906 43.3928 15.4291C42.3793 15.7053 41.0714 15.6621 39.8327 15.7139C38.5161 15.783 37.3294 15.9038 36.1254 15.6449C33.9772 15.1875 32.6346 13.7464 30.5297 12.9007C30.5297 12.9007 25.2806 4.56442 18.0045 4.2969C17.8486 4.30553 17.71 4.30553 17.5974 4.28827C16.3327 4.2969 15.0074 4.55579 13.6388 5.1426C13.3876 5.29794 13.1018 5.41012 12.8159 5.53094C12.5907 5.65175 12.3569 5.7812 12.1316 5.91927C11.9324 6.08323 11.7852 6.29898 11.7159 6.59238C11.5773 6.51472 11.56 6.30761 11.43 6.22994C11.5946 6.18679 11.7592 6.10912 11.9238 6.0142L12.149 5.70353C12.149 5.70353 14.9381 3.58063 19.0526 4.08978C19.3124 4.07253 19.529 4.07253 19.6416 4.14156C19.6069 4.1243 19.5117 4.1243 19.3817 4.14156C19.6329 4.18471 19.9015 4.22786 20.1613 4.2969C20.2046 4.28827 20.2912 4.27964 20.4298 4.28827C20.6117 4.30553 20.785 4.42634 20.9409 4.3573C20.8629 4.40045 20.759 4.41771 20.6377 4.41771C22.7772 5.02179 25.1939 6.37664 27.7059 9.04321C28.113 8.54269 29.8714 8.68076 30.3825 8.77569C29.3517 8.72391 28.5201 8.87924 27.7232 9.06046C28.702 10.1047 29.6982 11.3387 30.703 12.8144C31.777 12.2793 33.5614 12.4692 34.1591 11.4595C34.1678 11.1661 33.6567 11.3905 33.4315 11.3128C35.1466 10.8123 37.8578 10.5793 37.0609 8.05942C36.0647 7.90409 34.3497 8.05942 33.5701 7.47261C32.8078 6.90305 32.2535 5.38423 31.2487 4.79742C30.3651 4.27964 28.9879 4.07253 27.7665 3.77912C26.6491 3.52023 25.0207 3.32175 24.3537 2.69178C23.9899 2.35522 23.912 1.64759 23.5482 1.3887C23.0544 1.02626 21.8417 1.00037 21.5819 0.888184C20.9322 0.888184 20.2739 0.888184 19.6243 0.888184C15.3106 1.17296 12.2876 2.74356 10.252 5.29794C9.68897 5.27205 9.22988 5.33245 8.79678 5.44464C8.72749 6.29035 9.68897 6.4802 9.73228 6.97209C9.22988 6.95483 8.76213 6.96346 8.42432 7.11879C8.53692 7.83505 9.29052 7.90409 9.66298 8.35283C9.74094 9.05183 9.8189 9.74221 10.3213 10.0184C10.6071 9.56098 10.6504 8.85335 10.7544 8.21476C11.0056 8.62898 10.5638 9.31935 10.6071 10.096C10.6331 10.493 10.8064 12.2189 11.0489 12.5555C11.2914 12.9007 11.6726 12.8057 11.9844 13.0646C12.3569 13.8068 12.4435 14.5921 12.79 15.3774C13.1105 16.1195 13.5002 16.5424 13.1538 17.6211C13.3097 17.9145 13.8467 17.8541 14.0979 18.0526C14.4617 18.6394 14.661 18.7947 15.0421 18.6998C15.8823 18.5013 15.1893 17.0256 15.9862 17.0343C16.4453 17.0429 16.2721 17.7592 16.7052 17.7592C17.1469 17.7505 16.8871 17.4744 16.991 17.0343C17.0863 16.6632 17.3115 16.4216 17.2855 16.1627C17.2422 15.7053 16.454 15.4464 16.3414 14.8596C16.2028 14.1865 16.6099 13.7809 16.5579 13.056C16.3154 12.9352 16.1248 13.4875 15.6138 13.3408C16.2894 12.659 17.2509 11.9687 17.4328 10.8123C17.6753 9.27621 16.7918 8.4305 16.1248 7.48124C17.632 7.81779 18.2297 10.4844 17.2162 11.822C17.684 12.754 18.4289 13.4012 19.2431 13.9966C19.6589 16.4043 20.1267 18.7688 20.9929 20.7191C22.2055 19.4678 23.4789 18.2769 24.986 17.319C23.5568 18.9414 20.9149 19.8044 20.6377 22.3933C20.3086 25.2756 22.1363 27.8213 22.7339 30.2721C23.1237 30.1168 23.3229 29.7457 23.3922 29.2539C23.4529 28.8396 23.0977 28.1234 23.6088 27.9508C23.9899 27.8472 23.7127 28.4513 23.6781 28.6066C23.4789 29.6422 23.9639 30.0133 24.1891 30.6346C23.9206 30.7468 23.8167 30.1427 23.6001 29.9787C22.8119 30.9194 22.041 31.8427 21.2008 32.6539C20.3865 33.4479 19.425 34.3626 18.4462 34.8976C17.8312 35.2256 16.9477 35.3119 16.48 35.8383C16.1162 36.2525 15.8303 37.1068 15.8303 38.0129C15.8303 38.8241 16.2461 39.4368 16.48 40.4034C16.6879 41.2922 16.4973 42.2415 16.6272 43.0095C16.7572 43.743 17.3981 44.6405 17.9352 44.8908C18.7321 45.2532 19.6156 44.6923 20.5511 45.1756C21.1488 45.4862 21.2527 46.5994 22.1536 46.7634C22.604 46.8411 22.9332 46.6253 23.3143 46.6167C23.9639 46.5995 24.4317 46.8152 25.2026 46.9792C24.4144 45.4776 23.4875 44.1055 22.5867 42.7161C21.5819 42.509 21.5039 43.2253 20.5511 43.0786C20.196 42.345 19.581 41.879 18.8793 41.4907C19.2085 40.5501 18.6022 39.7216 18.7321 38.9622C18.7667 38.7292 19.5377 37.4779 19.7542 37.2967C20.04 37.0378 20.8023 36.8134 21.348 36.5804C22.8119 35.9332 24.8734 35.1911 25.9215 34.2677C27.2295 34.587 27.6106 33.258 28.1044 32.1707C28.4768 31.325 28.728 30.2894 29.4123 30.1427C29.3863 30.7468 28.702 31.3163 28.5375 32.024C36.9136 33.1286 44.285 29.9874 50.1058 27.4675C49.6294 26.8462 49.0057 26.1903 48.2955 25.7243C47.5765 25.2756 46.6237 25.0512 46.2599 24.4212C47.4812 25.0253 48.3907 25.3619 49.0924 25.9487C50.2444 26.9066 51.0673 28.3736 52.4359 29.4955C53.4667 30.3326 54.9825 31.4026 56.3598 31.7306C58.0315 32.1362 59.9805 31.8773 61.5916 32.1707C62.5271 32.3346 63.8004 32.7575 64.3461 33.258C64.7792 33.6463 65.1084 34.4575 65.5068 35.1393C66.1045 36.1317 66.5983 36.7185 66.7455 37.9698C67.1613 39.0917 68.322 38.4962 69.1449 39.2729C69.4047 39.5145 69.5087 40.0323 69.7339 40.3602C70.141 40.9557 70.9033 41.741 71.6222 41.7323C71.96 41.7237 72.1852 41.4303 72.4971 41.3613C73.3373 41.1973 74.1948 41.5856 75.3295 41.4389C74.472 40.0754 73.0774 38.617 71.9947 37.2363C71.5096 37.383 71.0592 37.5211 70.4615 37.383C70.3056 36.287 69.7512 35.588 68.7204 35.355C68.1054 33.1717 66.5723 31.9032 66.399 29.2797C65.5415 28.7188 64.2509 28.6239 62.9082 28.4168C61.8948 28.2614 59.9199 28.2528 59.3482 27.6142C58.5946 26.7771 59.2789 23.9552 59.2789 22.6263C59.2529 19.9683 58.4906 17.5003 57.3126 16.2576C59.4781 15.7743 61.0199 17.4657 62.1027 18.9414C62.9949 20.1323 63.6445 21.4872 64.4241 22.4882C66.0092 24.4989 68.5645 26.7513 71.6828 26.967C71.9167 26.9929 72.1246 26.9843 72.3412 26.967C74.9138 26.803 76.6635 25.5258 80.1803 26.035C80.1803 25.9832 80.1803 25.9314 80.1803 25.8883C78.855 24.4471 77.3738 23.1699 75.2689 22.5227ZM26.7618 7.82642C27.2208 7.42083 28.2343 7.4122 29.0139 7.54165C29.0918 7.53302 29.1351 7.5589 29.1611 7.61068C28.1823 7.47261 27.3334 7.81779 26.7618 7.82642ZM32.2708 7.47261C31.3613 7.47261 30.5037 6.6269 29.4383 6.38527C28.702 6.22131 27.8618 6.28172 27.1862 6.38527C26.5972 6.4802 25.9042 6.98935 25.3758 6.53198C27.6193 5.13397 30.573 6.43705 32.2708 7.47261ZM16.5146 2.62274C16.6445 2.59685 16.2721 3.5116 16.5146 3.85678C16.3847 3.84815 16.3587 3.94308 16.2288 3.92582C16.1422 3.50297 16.3154 2.96793 16.5146 2.62274ZM15.3539 2.83849C15.3626 2.88163 15.0594 3.83952 14.9208 4.2106C14.505 3.76186 15.1893 3.1923 15.3539 2.83849ZM14.1932 3.20093C14.2538 3.39941 13.9507 3.70145 13.8294 4.07253C13.7514 4.30553 13.968 4.78879 13.5436 4.72838C13.5089 3.96034 13.9333 3.66693 14.1932 3.20093ZM13.0325 3.84815C12.9632 4.13293 12.79 4.96138 12.4521 5.22027C12.3569 4.77153 12.8159 4.23649 13.0325 3.84815ZM12.6687 11.5285C12.5301 11.2869 12.4262 10.7691 12.738 10.6569C13.0931 10.6656 13.0238 11.0884 13.2404 11.2351C13.1884 11.3042 12.5647 11.0971 12.6687 11.5285ZM13.249 12.3915C12.8506 12.4605 12.9632 12.0032 12.7466 11.891C12.9026 11.7357 13.4136 11.9169 13.249 11.4509C13.3617 11.356 13.5262 12.2793 13.249 12.3915ZM16.7312 38.5048C16.376 37.7886 16.7312 36.5718 17.2855 36.2784C17.0257 36.4424 16.5406 37.4952 16.7312 38.5048ZM21.3827 43.5014C21.5212 44.14 21.6772 45.141 21.5299 45.8142C21.1921 45.3223 21.4779 44.2349 21.3827 43.5014ZM19.5723 35.0357C20.4385 34.0951 21.5039 33.3529 22.4741 32.5072C21.8331 33.1027 20.6897 34.4403 19.5723 35.0357ZM72.2199 41.042C71.7868 40.1186 71.7002 38.8587 71.5616 37.6419C71.7695 38.7292 72.2026 39.9978 72.2199 41.042ZM65.5328 29.6853C64.8572 29.7889 63.7138 29.1417 62.7004 29.0985C63.6185 29.0467 64.7533 29.366 65.5328 29.6853ZM53.1895 16.3698C55.7188 16.387 56.4464 19.5886 56.7496 21.5735C56.0046 19.3988 55.2251 17.2673 53.1895 16.3698ZM69.0236 18.1043C69.4134 18.3805 69.4134 18.5531 69.0236 18.1734C67.4298 16.6804 66.4164 14.6007 64.3028 13.6169C66.7455 13.9535 67.6983 16.4043 69.0236 18.1043ZM59.3655 14.851C60.4049 14.8769 61.1152 15.8693 61.7649 16.5165C61.2711 16.2231 60.2923 15.1875 59.3655 14.851ZM61.1758 14.5576C63.1941 15.1098 64.1123 17.3794 65.5328 18.7602C64.1123 17.6211 63.0728 15.4637 61.1758 14.5576ZM62.4925 13.9017C65.2037 14.7474 66.7542 17.3794 68.5905 19.3298C66.451 17.6211 64.9698 15.2652 62.4925 13.9017ZM66.3384 22.307C68.2094 24.0329 71.1631 25.3101 75.1996 25.1289C71.1545 26.0522 68.1314 24.3177 66.3384 22.307ZM75.2689 24.6111C73.4412 23.9811 70.9119 24.0329 69.7512 22.7298C70.9899 23.6964 73.4152 23.6877 75.0524 24.3954C75.0957 24.4212 75.4162 24.4817 75.2689 24.6111Z" fill="white"/>
</svg>
