<svg width="62" height="55" viewBox="0 0 62 55" fill="none" xmlns="http://www.w3.org/2000/svg">
<path d="M60.2205 23.4644C60.2205 23.4644 61.294 19.0827 55.4596 17.2366C54.9929 17.2366 51.9123 16.9679 48.8201 20.2512C47.8049 19.3515 46.8247 18.8491 46.5213 18.6972C43.8958 17.5287 38.9366 18.0195 38.5515 18.1129C30.8734 20.1577 29.5082 19.7721 29.2165 19.7721C25.5175 19.8656 22.7986 16.851 22.5069 16.2668C20.1731 12.6681 21.9235 8.08783 21.9235 8.08783C21.9235 8.08783 22.6002 9.747 23.2887 10.0391C25.4241 10.9154 25.8208 11.5931 25.8208 11.8852C25.6225 15.0984 26.2059 15.1919 26.4043 15.3905C26.7894 15.5891 27.0811 15.7761 27.1861 15.5891C27.3845 15.3905 26.8944 13.0537 27.1861 12.9602C27.4778 12.8667 27.5712 15.297 27.7695 15.3905C29.1348 15.9747 30.0099 14.6077 30.0099 14.3156C29.8116 11.6866 28.9364 10.4247 29.0414 9.1511C28.9481 8.07615 29.0414 6.52214 29.0414 5.84445C29.0414 5.76266 29.0064 5.6575 28.9597 5.55234C29.6365 5.36539 30.6401 4.72276 30.5 4.58255C30.5 4.51244 29.0298 4.37223 28.248 4.27876C29.5549 4.05675 30.3133 3.22717 30.3133 3.22717C30.3133 3.22717 28.8081 2.86496 27.2094 2.50274C26.871 2.04706 26.2292 1.32263 25.3541 0.890313C23.8955 0.212624 21.6551 0.598205 21.6551 0.598205C21.6551 0.598205 20.3948 0.796838 19.8114 0.796838C19.228 0.796838 17.2793 0.306098 16.4041 0.411257C15.739 0.574837 14.8055 1.22916 14.2454 1.48621L13.1952 1.57969C13.2652 1.60305 13.3235 1.61474 13.3936 1.62642C12.8568 1.64979 12.18 1.66148 11.3398 1.87179C10.453 2.1639 10.1263 2.74811 9.54285 3.32064C9.53118 3.33233 9.50784 3.33233 9.49618 3.33233H9.53118C9.40283 3.46086 9.25113 3.58938 9.0761 3.70623L8.87773 3.69454C8.91274 3.70623 8.94774 3.70623 8.99442 3.71791C8.95941 3.74128 8.9244 3.76465 8.87773 3.78802C7.71085 4.37223 8.58601 3.40243 4.7003 6.3235C4.7003 6.41698 5.66881 7.00119 5.57546 7.00119C5.48211 7.00119 4.7003 7.2933 4.40858 7.19983C4.12852 7.10635 4.84032 7.83078 5.77383 7.87751H5.66881C5.72715 7.87751 5.78549 7.87751 5.85551 7.87751C5.08537 8.15794 4.21021 8.06446 4.0235 8.06446C3.93015 8.06446 4.99202 8.64868 5.57546 8.64868C5.57546 8.68373 5.55212 8.7071 5.51711 8.73047L5.37709 8.76552C5.40042 8.7772 5.42376 8.7772 5.45877 8.78889C5.09703 8.9291 4.0235 8.87068 4.0235 8.87068C4.0235 9.36142 5.48211 9.45489 5.48211 9.54837C5.50544 9.58342 5.49377 9.61847 5.4471 9.64184H5.38875C5.40042 9.64184 5.41209 9.65353 5.42376 9.65353C5.05036 9.82879 3.41673 9.82879 3.8368 9.82879C3.63843 9.82879 4.80531 10.5065 5.00368 10.5065C5.09703 10.5065 4.22187 10.7986 3.8368 10.7051C3.93015 11.2893 5.58712 11.3828 5.58712 11.3828C5.58712 11.967 3.8368 11.4763 3.74345 11.4763C3.74345 12.2591 5.49377 12.2591 5.49377 12.2591C5.48211 12.2942 5.45877 12.3292 5.42376 12.3526H5.40042C5.40042 12.3526 5.41209 12.3526 5.41209 12.3643C5.16705 12.5512 4.45525 12.5512 4.03517 12.5512C4.21021 12.9018 5.03869 13.0186 5.24873 13.0303H5.20205C5.23706 13.0303 5.27207 13.0303 5.30707 13.0303C5.2954 13.077 4.67696 13.4159 4.12852 13.4159C5.00368 14.0001 5.78549 13.8014 5.78549 13.8014C5.69214 14.187 4.32689 14.2922 4.42024 14.2922C4.60694 14.9582 5.92552 14.596 6.06555 14.6778C6.03054 14.6778 6.0072 14.6778 5.9722 14.6778H6.06555C6.06555 14.8764 4.40858 15.1685 4.40858 15.1685C5.37709 15.7527 6.1589 15.262 6.1589 15.262C6.17057 15.3204 6.1589 15.3671 6.14723 15.4022C6.07721 15.4372 6.04221 15.4489 6.06555 15.4489H6.12389C5.91385 15.7644 5.01535 15.8462 4.60695 15.928C4.89867 16.5122 6.1589 16.3136 6.1589 16.3136C6.1589 16.3136 6.12389 16.3486 6.06555 16.407C5.89051 16.5706 5.47044 16.8978 4.89867 16.8978C5.28374 17.2834 6.1589 17.1899 6.1589 17.0964C6.1589 17.1198 6.1589 17.1432 6.14723 17.1548C6.06555 17.1665 5.9722 17.1782 5.86718 17.1899L6.12389 17.2016C5.91385 17.482 4.89867 17.482 4.89867 17.482C5.24873 17.926 6.57897 17.9611 6.59064 18.0428C6.54397 18.0545 6.50896 18.0545 6.46229 18.0662H6.55564C6.63732 18.3583 5.38875 18.4518 5.2954 18.4518C5.75049 19.0944 6.98738 18.8724 7.12741 18.7673C6.54397 19.6202 5.87884 19.4333 5.68048 19.4333C5.58712 20.0175 6.75401 20.111 6.75401 20.111C6.75401 20.146 6.74234 20.1811 6.73067 20.2044C6.70733 20.2044 6.68399 20.2044 6.66066 20.2044H6.73067C6.59064 20.4965 5.86718 20.4965 5.78549 20.4965C6.07721 20.9873 7.15075 20.9873 7.04573 21.0808C7.04573 21.0924 7.05739 21.1158 7.05739 21.1275C7.02239 21.1392 6.98738 21.1625 6.95238 21.1742H7.04573C6.94071 21.3845 6.25225 21.4663 6.07721 21.4663C6.50896 21.8169 7.17408 21.7701 7.38412 21.7584H7.4308C7.23243 22.0506 6.94071 22.144 6.36894 22.331C6.81235 22.775 7.34912 22.7282 7.50081 22.7166H7.53582C7.33745 23.1956 6.75401 23.0087 6.75401 23.0087C6.75401 23.0087 6.83569 23.3475 7.48914 23.476C7.4658 23.4877 7.45413 23.4877 7.4308 23.4994L7.6175 23.5111C7.59416 23.698 6.94071 23.885 7.03406 23.885C7.41913 23.9668 8.11926 23.8499 8.38764 23.8032L8.49266 23.8266C8.43431 24.1771 7.6175 24.1771 7.33745 24.1771C7.55915 24.3991 7.96756 24.4575 8.13093 24.4692C8.11926 24.4692 8.11926 24.4692 8.10759 24.4692L8.18927 24.4926C8.07258 24.6795 7.6175 24.8548 7.6175 24.8548C8.20094 24.8548 8.69103 24.9483 8.98275 25.0534C9.18112 25.1469 9.27447 25.5442 10.1496 25.7311C10.453 25.7662 10.6981 25.8012 10.8964 25.8363C10.558 27.1683 10.7447 27.9745 10.8964 28.5587C10.3713 28.6755 9.64787 28.8625 8.69103 29.1429C5.77383 30.0192 3.82513 31.7719 3.14834 32.064C2.47155 32.3561 0.324492 32.5197 0.126122 34.2723C-0.072248 35.5342 4.7003 39.9158 6.1589 41.6685C6.94071 42.4513 6.74234 42.9304 7.41913 43.2225C8.29429 43.2225 9.16945 43.129 9.16945 43.129C9.16945 43.129 9.95126 43.5146 10.9198 43.8067C11.5966 44.0053 12.4717 44.0988 13.6386 44.0988C13.9303 44.0988 11.3048 40.8856 11.3048 40.8856C11.3048 40.8856 10.9198 41.1777 10.2313 41.3764C9.74122 41.4698 9.06443 41.575 8.38764 41.2829C8.29429 41.1894 9.06443 40.6052 9.2628 40.3131C9.2628 40.2196 7.8042 40.3131 7.8042 40.3131C7.8042 40.3131 8.77271 39.7289 8.58601 39.8223C7.71085 39.9158 4.40858 38.2683 3.24169 35.4407C2.94997 33.5946 10.3363 33.6881 11.3165 33.1039C12.1333 33.0571 12.9035 32.73 13.4402 32.4379C13.5102 32.4963 13.5569 32.5197 13.5569 32.5197C13.5569 32.5197 14.7238 37.8711 14.7238 38.5604C14.6305 39.2381 13.942 40.3131 14.047 41.0959C14.2454 41.7736 15.4123 44.3091 14.8288 46.0618C14.4438 48.6907 13.8603 49.7657 13.7553 49.9526C13.6619 50.1513 14.047 50.5368 14.047 51.121C14.047 51.6118 13.5569 51.9039 12.8801 52.9672C12.6818 53.0606 12.2967 54.0421 11.9116 54.7198C12.005 55.0119 15.5056 54.8133 15.5056 54.8133L15.4123 53.5514C15.3189 52.7685 15.2139 51.8922 15.3189 51.7987C15.6106 51.7053 16.2874 52.2895 16.2874 52.2895L15.7973 50.7355L16.6725 51.2262C16.6725 51.2262 15.8907 48.7959 16.3808 46.9381C16.4741 42.1709 17.3493 41.8788 17.5477 40.7104C16.7658 39.4485 16.9642 38.6656 16.9642 38.3735C17.0576 38.0814 17.5477 34.1905 17.5477 34.1905C17.5477 34.1905 20.1731 35.2655 22.7053 35.0668C25.4241 35.0668 29.9049 33.1156 30.6751 32.9286C31.7719 32.4963 33.1372 32.2042 34.4558 32.0172C34.7241 33.0455 35.1676 34.5294 35.6343 35.3589C36.5095 36.726 38.3531 39.355 38.3531 40.6169C38.3531 41.8788 38.2598 42.8603 33.3939 49.1815C33.1955 49.7657 33.3005 50.3499 32.9038 50.9341C32.7054 51.3197 32.3204 51.0276 31.1535 52.3946C30.7684 52.8854 30.3717 53.4696 29.7882 54.2408C29.9866 54.4394 33.5806 54.5329 33.674 54.2408C33.7673 54.0421 33.7673 53.5631 33.7673 52.9789C33.7673 52.4881 33.7673 51.9039 34.059 51.6118C34.5491 50.9341 34.6425 51.9974 34.8408 52.3946C34.8408 52.6867 34.9342 50.4434 34.9342 50.4434C34.9342 50.5368 35.2259 51.5183 35.3193 51.7053C36.9762 46.2487 42.3205 40.8038 42.3205 40.8038C42.3205 40.8038 41.1537 39.4368 40.9553 37.8828C40.8736 37.2168 41.177 35.7095 41.5504 34.2022C41.9705 34.6112 42.3789 34.9734 42.7056 35.1603C43.5808 35.838 48.7384 38.467 49.2168 39.3433C50.8738 40.6052 46.2062 48.2 46.2062 48.4921C46.1129 48.7842 46.2062 49.567 46.2062 49.8591C46.1129 50.0578 45.2377 50.9341 44.4559 51.7053C44.3626 51.9039 43.1957 53.1658 42.9973 53.75C42.9973 54.0421 46.883 53.6565 47.0814 53.4579C46.9881 53.0723 47.0814 52.7802 46.9881 52.4881C47.0814 50.7355 47.7699 50.0578 47.7699 50.0578L48.26 50.4434V48.8894C48.26 48.8894 48.8434 50.1513 48.9367 49.9643C48.26 46.5525 53.8026 38.5721 53.6976 37.4037C53.6976 37.2051 50.8738 36.2353 50.4887 35.6511C49.1235 33.9919 49.9986 31.2694 50.2903 30.9773C52.0407 26.7009 51.1655 24.364 51.1655 23.8733L54.1527 27.5889C53.8026 29.3299 54.2811 31.5732 54.4678 31.9588C54.6661 32.2509 56.5098 35.5576 61.9591 34.2957C58.3768 31.0591 60.2205 23.4644 60.2205 23.4644Z" fill="white"/>
</svg>
