<svg width="60" height="65" viewBox="0 0 60 65" fill="none" xmlns="http://www.w3.org/2000/svg">
<path d="M58.4417 15.5452L58.0816 15.477L57.9359 15.8351C57.7901 16.1164 57.6529 16.4745 57.5758 16.8326C57.43 17.5402 57.3614 17.8301 57.0785 17.8301C57.0099 17.8301 56.9328 17.8301 56.9328 17.8301C56.5727 17.8301 56.144 17.6169 55.8611 17.1907C55.4324 16.6962 55.2181 15.9118 55.3638 15.4174C55.5096 14.9229 55.7925 14.2835 56.0754 13.6441C56.9328 11.794 58.073 9.52625 56.7184 7.24995C56.144 6.32919 54.7894 5.68978 53.4348 5.68978C52.2174 5.68978 51.2229 6.18426 50.6484 7.11354L50.2883 7.60802L50.8628 7.82115C51.2229 7.88936 51.5058 7.96609 51.7887 7.96609C52.003 7.96609 52.2174 7.96609 52.3631 7.89788C52.5089 7.89788 52.646 7.89788 52.7918 7.89788C52.9375 7.89788 53.0061 7.89788 53.1519 7.89788C53.7263 7.96609 54.2236 8.32416 54.5836 8.75043C55.0123 9.24491 55.1581 9.81612 55.0809 10.5237C55.0123 11.5212 54.0092 12.442 53.0833 12.442C52.9375 12.442 52.7232 12.442 52.586 12.3738C52.1574 12.2288 52.1574 11.8793 52.0888 11.0267C52.0888 10.4555 52.0202 9.81611 51.7287 9.32164L51.4458 8.82716L51.0171 9.25343C50.4427 9.82464 50.1597 10.4641 50.1597 11.1035C50.2283 12.1009 51.0857 12.8768 51.8744 13.5929C52.4489 14.0874 52.9461 14.5904 53.0147 14.9399C53.0147 15.2213 52.869 15.5111 52.586 15.8607C51.943 16.5683 50.657 17.0713 50.2283 17.0713H50.1597C49.6625 17.0713 49.1567 16.8582 48.8051 16.4319C48.4451 16.1505 48.3079 15.7243 48.3079 15.3662C48.3079 15.0081 48.4536 14.5137 48.668 13.9424C48.8823 13.303 49.1652 12.6636 49.0966 11.956C49.0966 11.1035 48.5222 10.1827 47.5963 9.33016C46.739 8.54582 45.6673 8.11954 44.7413 8.11954C43.7383 8.11954 42.9581 8.69075 42.5294 9.75644L42.3151 10.4641L43.0267 10.3191C43.5239 10.2509 43.8154 10.106 44.0297 9.96105C44.3127 9.89284 44.4584 9.81611 44.8185 9.74791C44.8185 9.74791 44.8185 9.74791 44.8871 9.74791C45.5987 9.74791 46.1731 10.1742 46.456 10.5323C47.0304 11.2399 47.3134 12.3056 47.1676 13.2348C46.8075 15.4344 44.527 16.4319 42.4522 16.4319C40.3775 16.4319 38.5942 15.4344 38.0198 14.0192C37.7368 13.3798 37.7368 12.3823 37.9512 11.8878C38.0969 11.5297 38.5256 11.1802 38.9543 10.8903C39.5973 10.4641 40.3089 9.96957 40.4546 9.18523C40.7375 7.8382 39.5973 5.98817 38.8085 5.5619C38.2341 5.20383 37.4539 4.99069 36.6652 4.99069C35.8078 4.99069 34.9505 5.20383 34.3075 5.6301C33.5187 6.05638 33.09 6.69579 33.09 7.48013C33.0215 8.40088 33.5873 8.82716 34.016 9.0403L34.659 9.25343V8.57992C34.5904 7.8723 34.7276 7.3011 35.0877 7.01976C35.2334 6.80662 35.5163 6.73842 35.7993 6.73842C36.4423 6.73842 37.0167 7.09649 37.4454 7.59096C37.874 8.16217 38.0198 8.80158 37.8054 9.5092C37.5911 10.3617 36.4508 11.5724 35.6621 11.9986C34.5904 12.5698 33.1586 12.8512 31.5897 12.8512C30.0893 12.8512 28.6576 12.5698 27.5173 11.9986C26.7286 11.5724 25.734 10.8647 25.5883 9.65413C25.5197 8.86979 25.734 8.09397 26.2313 7.52276C26.66 7.02828 27.1572 6.73842 27.6631 6.73842H27.7317C27.946 6.73842 28.1603 6.88335 28.3747 6.95155C28.6576 7.09649 29.0177 7.23289 29.4463 7.23289C29.6607 7.23289 29.875 7.23289 30.0893 7.16469L30.518 7.01976L30.3723 6.52528C29.875 5.39139 28.2975 4.96512 27.0886 4.96512C26.9429 4.96512 26.8057 4.96512 26.66 4.96512C25.734 5.03332 25.0139 5.60453 24.5166 6.67021C24.0879 7.45456 23.8736 8.52024 23.6593 9.5092C23.4449 10.788 23.162 12.2118 22.4418 12.4249C22.2275 12.4931 22.0132 12.5698 21.7988 12.5698C21.0872 12.5698 20.3671 12.1436 19.8012 11.7855C19.7326 11.7855 19.7326 11.7855 19.6555 11.7173C18.8667 11.291 18.0865 10.7965 17.5121 10.0804C16.8691 9.37279 16.6548 8.52024 16.8005 7.59096C16.8691 7.09649 17.5121 6.38035 18.0865 6.38035C18.0865 6.38035 18.0865 6.44855 18.1551 6.44855C18.3695 6.44855 18.4381 6.59348 18.5838 7.01976C18.7295 7.3011 18.7981 7.65917 19.1582 8.01724L19.5183 8.37531L19.8012 7.94903C20.2299 7.30962 20.2299 6.52528 19.8698 5.88587C19.4411 5.10152 18.7295 4.67525 17.8722 4.67525C17.5893 4.67525 17.2978 4.67525 17.0149 4.82018C16.3033 5.10152 16.0118 5.95407 15.8746 6.67021C15.6603 7.37783 15.4459 7.88083 15.163 7.94903C15.0944 7.94903 14.9487 8.01724 14.8801 8.01724C14.2371 8.01724 13.234 7.44603 12.2395 6.59348C11.3135 5.74093 10.5934 4.74345 10.379 4.03584C10.2333 3.60956 10.2333 3.32822 10.379 3.18329C10.5248 2.97015 10.8763 2.75702 11.948 2.75702C12.4452 2.75702 13.0882 2.82522 13.5169 2.90195L14.2285 2.97015L14.0142 2.26254C13.6455 1.18833 12.7882 0.480713 11.5707 0.480713C10.6448 0.480713 9.7103 0.906987 9.06729 1.5464C8.49287 2.11761 8.20995 2.82522 8.20995 3.53284C8.27854 4.45359 8.57003 5.23793 9.21304 6.02228C9.78746 6.66169 10.4991 7.23289 11.0735 7.72737C11.5707 8.15365 12.0766 8.57992 12.4281 8.93799L12.4967 9.00619C12.711 9.21933 12.9253 9.50067 12.7796 10.0037C12.711 10.2168 12.2052 10.2168 11.9908 10.2168C11.3478 10.2168 10.6362 10.0719 10.0618 10.0037C9.4188 9.85874 8.70721 9.64561 8.63005 9.29606C8.63005 9.15113 8.63005 9.08292 8.7758 8.93799C8.92154 8.65665 9.13588 8.29858 8.92154 7.8041L8.85296 7.44603H8.49287C7.13827 7.59096 6.84677 8.29858 6.7096 8.72485C6.49526 9.72233 7.35261 11.0012 8.20995 11.4956C9.35022 12.0668 10.9277 12.0668 12.4967 12.135C13.354 12.135 14.0656 12.135 14.7086 12.28C15.2059 12.3482 15.926 12.638 16.4233 12.9876C16.9206 13.3457 17.2121 13.6952 17.2121 14.0533C17.2121 14.1215 17.0663 14.4113 16.1404 14.6927C15.566 14.8376 14.8544 14.974 13.9284 15.0508C13.354 15.119 12.711 15.1957 11.9994 15.1957C11.3564 15.1957 10.7134 15.1275 10.0704 15.1275H10.0018C9.35879 15.1275 8.64719 15.0593 8.00419 15.0593C7.21543 15.0593 6.57242 15.1275 5.92942 15.2042H5.64649H5.43216L5.07207 15.5623C5.07207 15.6305 4.92632 15.7072 4.85774 15.7754C4.57481 16.0568 4.21473 16.3466 4.14614 17.0542V17.4123L4.49765 17.5317C4.92632 17.5999 5.355 17.5999 5.78367 17.5999H5.85226H5.92084H5.98943C6.05802 17.5999 6.13518 17.5999 6.13518 17.5999C7.13827 17.5999 7.48978 17.6681 7.63553 17.8812C7.42119 17.8812 7.13827 17.813 6.84677 17.7363C6.56385 17.6681 6.20377 17.5914 5.92084 17.5914C5.34642 17.5914 4.99491 17.8045 4.70342 18.1626L4.42049 18.5888L4.91775 18.8702C5.41501 19.0833 5.98943 19.0833 6.4181 19.0833C6.48669 19.0833 6.63244 19.0833 6.77819 19.0833C6.92393 19.0833 7.06111 19.0833 7.20686 19.0833C7.42119 19.0833 7.70412 19.0833 7.99561 19.1515C8.42428 19.2964 8.85296 19.7227 9.35021 20.149C9.63314 20.4303 9.92463 20.7202 10.2076 20.9333C10.4905 21.0783 10.782 21.2914 11.1335 21.5045C10.9192 21.5728 10.7048 21.6495 10.4219 21.7859C9.35021 22.144 7.91845 22.6384 7.84986 24.0622L7.78128 24.4203L7.99561 24.4885C7.92703 24.4885 7.92703 24.4885 7.92703 24.4885C7.49835 24.9147 7.35261 25.4859 7.49835 26.1936V26.2618L7.35261 26.33L7.28402 26.5431C7.13827 26.9694 7.13827 27.677 7.28402 28.1033V28.1715H7.21543L7.14684 28.3164C6.86392 28.8109 6.78676 29.527 7.07826 30.1664V30.3114C7.00967 30.3796 6.86392 30.5927 6.79533 30.7376C6.64958 31.0957 6.72675 31.522 7.00967 32.0165V32.0847C6.86392 32.2296 6.64958 32.5109 6.64958 32.7241C6.581 33.1504 6.71817 33.5766 7.14684 34.0029C6.93251 34.216 6.86392 34.4292 6.78676 34.7105C6.71817 35.0686 6.85535 35.4949 7.21543 35.8444V35.9126L7.14684 35.9808L7.07826 36.194C7.04396 36.6629 7.13827 37.0039 7.30117 37.2596H7.224C6.15233 36.8334 5.72365 36.194 4.86631 35.4096C4.36905 34.8384 3.36596 33.5596 2.36287 33.7045C1.65127 33.8494 1.43694 34.9833 1.29119 36.1172C0.785357 40.1924 1.3512 45.6658 0.210938 48.6497C0.210938 48.8628 0.210938 49.076 0.210938 49.3573C0.845371 50.3633 1.57411 51.2926 2.36287 52.1622C2.66294 52.5117 2.97158 52.8272 3.29737 53.1426C3.55458 53.3984 3.81178 53.6541 4.06898 53.9014C4.42907 52.6908 4.71199 50.1331 3.85465 49.3573C3.42597 48.8628 2.63722 49.076 2.42288 48.6497C1.92562 47.584 2.85155 46.8764 3.77748 46.5865C3.63174 46.1602 3.28023 45.6658 3.13448 45.2395C2.70581 43.8925 2.13139 38.206 3.99182 38.206C4.78058 38.1378 5.20925 39.6979 5.49217 40.4823C6.28093 42.1874 7.06111 43.1848 8.27854 44.1056H8.31283C8.08992 44.1994 7.87559 44.3358 7.70412 44.5319C7.27544 44.9581 7.1297 45.4526 7.20686 45.9556C7.27544 46.9531 8.34712 47.6607 9.06729 48.087C9.21304 48.1552 9.28163 48.3001 9.42738 48.3683C10.9963 49.579 12.4281 50.9942 13.9284 52.5629C14.4257 53.0574 15.0001 53.6286 15.4974 54.1998C15.7803 54.4129 15.9946 54.771 16.2861 55.0523C16.8605 55.7599 17.5035 56.4761 18.1466 56.7574C18.8582 56.9705 19.5783 57.0388 20.2899 57.0388C20.9329 57.0388 21.5073 57.107 22.0046 57.3201L22.1418 57.3712L22.1503 57.3883H22.1846L22.7248 57.6014V57.5929C23.0677 57.7549 23.3249 57.8743 23.5821 58.0277L24.3709 58.454L24.3023 57.6014C24.1565 56.604 24.0194 55.0438 22.8705 54.6175C22.4418 54.5493 22.0132 54.4726 21.7303 54.4726C21.6617 54.4726 21.5845 54.4726 21.5845 54.4726H20.9415L20.9672 54.5408C20.5385 54.5323 20.007 54.5067 19.5869 54.4044C18.7981 54.2594 18.661 54.0463 18.5838 53.9781C18.5152 53.765 18.6524 53.4836 18.7981 53.3387L19.0811 52.8442L18.5838 52.6311C17.152 52.0599 15.9432 51.2841 15.0087 50.2866C14.0056 49.2209 13.294 48.0103 13.0111 46.7314C13.1568 46.5865 13.3712 46.5183 13.7998 46.5183C14.2971 46.5183 14.9401 46.6632 15.5831 46.7997C15.7974 46.8679 16.0118 46.9446 16.1575 46.9446C17.0835 47.1577 18.1551 47.3709 19.1582 47.5158C19.5869 47.584 20.0842 47.6607 20.59 47.6607C22.2361 47.6607 24.0879 47.2344 24.9453 46.3137H25.3054C25.8798 46.3819 26.3085 46.3819 26.8057 46.3819C29.1634 46.3819 30.8095 45.7425 32.2327 45.0349C32.6614 44.8217 33.1586 44.5404 33.5873 44.2505C34.1103 43.9777 34.6075 43.7134 35.1048 43.4747C35.2763 45.069 35.9021 45.7681 36.8795 46.7314C36.9481 46.7997 37.0253 46.8764 37.0938 47.0128C37.2396 47.081 37.3768 47.2259 37.5225 47.3709C37.7368 47.584 38.0969 47.9421 38.3799 48.2234C38.6628 48.6497 38.6628 48.8628 38.6628 48.931C38.6628 48.931 38.5942 49.076 38.0884 49.5022C37.8054 49.7154 37.4454 49.9967 36.9481 50.2866C36.4508 50.5764 35.8764 50.8578 35.3792 51.1391C35.0962 51.2841 34.8047 51.4205 34.5218 51.5654C34.2389 51.7103 33.9474 51.8467 33.5959 52.0599C31.6669 53.0574 29.3092 54.2594 28.4518 55.7514C28.3061 55.9645 28.2375 56.2459 28.1689 56.459C28.1689 56.5272 28.1689 56.6722 28.1003 56.6722C28.0317 56.7404 27.886 56.8853 27.7402 56.9535C27.483 57.1496 27.1058 57.3371 26.8829 57.789C26.7114 57.9425 26.5142 58.1044 26.317 58.3005C25.8884 58.8717 25.3911 59.5793 25.674 60.645L25.7426 61.0031H26.1713C27.0972 60.8582 27.9546 60.2188 28.7433 59.6561C28.8119 59.5879 28.8891 59.5111 29.0262 59.4429L29.172 59.3747V59.1616C29.2406 59.0167 29.2406 58.8803 29.2406 58.7353C29.3092 58.5222 29.3092 58.3773 29.3863 58.2408L29.412 58.1044C29.4892 57.8913 29.6178 57.5844 29.7464 57.3883C29.8922 57.1752 29.9607 57.107 30.0293 57.107C30.0293 57.107 30.0293 57.107 30.0293 57.1752C30.0979 57.3201 30.1751 57.6014 30.5266 57.8146L31.101 58.2408L31.2468 57.5332C31.6068 55.5468 32.8929 54.6942 34.3932 53.9099C37.0681 52.4094 40.2746 51.2329 42.8638 50.3292C42.7523 50.5082 42.6323 50.6617 42.538 50.7896C41.3977 52.2133 39.3229 53.4154 37.3939 54.5578C36.9652 54.771 36.6052 54.9841 36.2536 55.1973C33.1758 57.0132 30.8695 58.7694 29.0434 60.6621L29.0348 60.6706C28.589 61.0798 28.1518 61.5146 27.8088 62.0176L27.6802 62.1626H27.7145C27.3973 62.6656 27.1744 63.2368 27.1058 63.9359V64.3621L27.5345 64.4303C27.6031 64.4303 27.6802 64.4303 27.7488 64.4303C29.3949 64.4303 30.7495 63.5778 31.8898 62.9384L32.0355 62.8702L32.2499 62.7252V62.4439C32.2499 62.3757 32.2499 62.299 32.2499 62.1626C32.1813 62.0944 32.1813 61.9494 32.1813 61.8045V61.5914C32.2499 60.807 32.8243 60.0994 33.3987 60.0994C33.613 60.0994 33.7588 60.1676 33.9731 60.3807L34.3332 60.6621L34.6161 60.304C37.1196 57.3201 41.1148 55.1887 45.05 53.2705C45.1957 53.2023 45.2643 53.1256 45.4101 53.0574C46.8418 52.3497 48.0507 51.7103 48.4794 50.9942C48.908 49.9967 48.265 48.931 47.6906 48.1552C47.5449 47.8739 47.4077 47.6607 47.3305 47.5158C46.9704 46.4501 47.0476 45.3844 47.5448 44.2505C48.0421 43.2531 48.8309 42.3323 49.4739 41.4798C49.6882 41.3348 49.7568 41.1217 49.9025 40.9853C51.2571 39.3484 52.4746 37.6433 52.6203 35.2306C52.6889 34.6594 52.6203 34.2331 52.5517 33.8835C52.4832 33.5255 52.4832 33.3123 52.4832 33.031C52.5517 33.031 52.6289 33.031 52.6975 33.0992C53.1947 33.2441 53.7692 33.4573 54.2664 33.4573C54.9094 33.4573 55.3381 33.1759 55.5524 32.6047L55.6982 32.1102C56.1269 31.8971 56.3412 31.4708 56.4098 30.9764V30.4819H56.264C56.547 30.0556 56.6927 29.4844 56.547 28.7768L56.3326 27.9924L56.1869 28.2056C56.1869 27.5662 55.9039 26.995 55.3981 26.5687L54.9694 26.2873C54.7551 25.7161 54.3264 25.3666 53.6834 25.2899L53.3233 25.2217C52.8947 24.6505 52.3974 24.5822 51.9687 24.5822C51.9002 24.5822 51.9002 24.5822 51.823 24.5822H51.2229L51.3686 25.1535C51.5144 25.5797 51.7973 26.006 52.0802 26.4323C52.5089 27.0717 53.0061 27.7793 52.869 28.5636C52.8004 28.9899 52.3717 29.2713 51.7287 29.4844C50.8028 28.2738 49.8683 27.353 48.8737 26.7136C47.442 25.7929 45.9416 25.2899 44.1583 25.2899H44.0898C41.8007 25.2899 39.6573 26.2106 37.3768 27.2763C36.9481 27.4212 36.4508 27.6344 36.0222 27.8475C35.8764 27.9157 35.7392 27.9924 35.5935 28.0606C33.2358 29.0581 30.5952 30.192 27.946 30.4734C27.4487 30.5416 27.0201 30.5416 26.5914 30.5416C24.8767 30.5416 23.2306 30.1153 21.9446 29.3309C20.7272 28.6233 19.8012 27.5576 19.304 26.2021C18.5152 24.0707 19.021 21.4449 20.4442 20.4474C21.3016 21.155 22.8019 21.658 24.2337 21.658C25.9484 21.658 27.2344 21.0186 27.8088 19.9529L27.9546 19.7398L27.8088 19.5266C27.0972 18.1029 25.1682 17.3271 22.6648 17.3271C21.876 17.3271 21.0958 17.3953 20.3756 17.5402C19.5869 17.1139 19.5183 16.4745 19.5183 16.1164C19.5183 15.477 19.947 14.9058 20.4442 14.6245C21.3016 14.2664 22.8705 14.0533 24.731 14.0533C25.0139 14.0533 25.3054 14.0533 25.5883 14.0533C26.8057 14.0533 28.8033 14.4796 29.6607 15.0508C30.1579 15.3321 30.3723 15.7584 30.3037 15.9715C30.2351 16.1164 29.9436 16.2529 29.5921 16.2529C29.3778 16.2529 29.232 16.2529 29.0177 16.1846L28.4432 16.1164L28.5118 16.6877C28.5118 17.3271 28.7948 17.6084 29.0091 17.8215C29.292 18.0347 29.6521 18.1796 30.0808 18.1796C30.5094 18.1796 31.0067 18.0347 31.4354 17.7533C31.864 17.3953 32.147 16.969 32.147 16.5427C32.2156 16.2614 32.0012 15.9715 31.864 15.7584C31.7183 15.5452 31.5811 15.3321 31.5811 15.119C31.6497 14.9058 31.7269 14.8376 31.9412 14.8376C32.3699 14.8376 33.0815 15.1957 33.5873 15.4088L33.6559 15.477C34.7276 15.9715 35.7993 16.6109 36.8709 17.1821C37.5139 17.5402 38.0884 17.8897 38.6542 18.1796C40.086 18.964 41.372 19.5266 42.658 19.9529C44.3041 20.5241 45.873 20.8737 47.2276 20.8737C48.728 20.8737 50.0826 20.5156 51.1543 19.808C51.5144 19.5266 51.8659 19.3135 52.2259 19.0236C52.6546 18.6656 53.1519 18.2393 53.4434 18.2393C53.512 18.2393 53.5891 18.2393 53.6577 18.1711C53.7263 18.1711 53.8035 18.1711 53.8035 18.1711C53.872 18.1711 53.872 18.1711 53.872 18.2393C53.872 18.3075 53.872 18.3842 53.8035 18.3842C54.0178 18.4524 54.2321 18.6656 54.4465 18.9554C54.9437 19.3817 55.5867 20.0211 56.5212 20.0893C56.5898 20.0893 56.667 20.0893 56.8042 20.0893C57.5158 20.0893 58.2359 19.808 58.8789 19.305C59.4534 18.8105 59.882 18.1711 59.9506 17.5999C60.0792 16.6109 59.5134 15.8948 58.4417 15.5452ZM12.7882 17.2503C13.1482 17.1821 13.4312 17.0372 13.9284 17.0372C13.4998 18.1029 15.7117 18.6741 15.4974 17.3185C16.209 17.4635 16.6376 17.8897 16.9977 18.4524C15.2144 19.0236 13.4312 18.4524 12.7882 17.2503ZM25.434 19.7312C25.434 21.2914 21.0015 20.0893 21.0015 19.0918C21.5759 17.8897 25.434 18.5974 25.434 19.7312Z" fill="white"/>
</svg>
