<svg width="79" height="63" viewBox="0 0 79 63" fill="none" xmlns="http://www.w3.org/2000/svg">
<path d="M59.4579 41.5349C67.4323 47.6736 78.0604 56.2419 78.0604 56.2419C78.0604 56.2419 65.4419 31.4934 52.5113 18.2855C39.5676 5.10354 31.229 5.9048 31.229 5.9048C31.229 5.9048 29.0305 5.78848 27.5735 7.11961C25.7653 8.96767 29.1086 12.7155 26.8711 14.1371C26.0905 14.5506 25.245 14.6799 24.3734 14.6023C22.7083 13.0644 21.6416 11.5265 21.6416 9.91109C21.6416 7.48146 23.0205 7.73993 23.3977 6.39589C25.8564 6.5122 26.2206 7.89502 26.2206 7.89502V7.72701C26.2206 7.80455 26.2206 7.85625 26.2206 7.89502C26.2727 7.80455 27.7817 4.85799 24.1783 3.13916C24.1002 2.71269 23.3847 1.13602 19.4951 0.993861C15.3063 0.851702 9.11415 7.75286 9.45238 12.4829C9.4784 13.6848 9.59548 14.8866 9.81662 16.0885C9.43937 16.4245 9.08813 16.6701 8.80194 16.8252C6.77258 17.8978 3.23421 15.9851 1.07476 18.9317C-1.08469 21.8783 -0.291158 26.0138 6.33028 29.697C10.0508 31.558 13.355 32.9408 16.2559 33.9488C16.5291 34.0651 16.6852 34.1427 16.6852 34.1427V34.1039C18.7016 34.7888 20.5358 35.2929 22.1749 35.6547C23.5668 36.792 25.0368 37.8388 26.5589 38.7564C26.1426 41.7288 25.9605 48.4232 31.6062 52.507C31.5542 52.7138 29.4858 60.274 27.7687 60.2999C26.0255 60.3128 25.7913 59.6925 24.4124 59.8863C24.2303 59.9122 24.0612 59.9509 23.9181 60.0155C23.4238 59.8088 22.7083 59.602 21.9928 59.6925C20.757 59.8605 20.7309 60.8168 21.5505 61.2174L20.3407 61.3337L20.848 60.6488C19.6642 61.1399 19.8203 62.135 19.8203 62.135C19.8203 62.135 20.4578 61.2045 22.331 61.3984C22.37 61.3984 22.3961 61.3984 22.4351 61.4113C21.8757 61.967 21.9798 62.639 21.9798 62.639C21.9798 62.639 22.6823 61.5922 24.8157 61.8119C24.8157 61.8119 25.8694 61.7085 27.6126 61.9412C28.0418 61.9928 28.4841 61.9153 28.9134 61.7602C28.9134 61.7731 28.9134 61.7861 28.9134 61.7861C28.9134 61.7861 28.9264 61.7731 28.9395 61.7473C29.3817 61.5793 29.811 61.3467 30.1623 61.1011C30.5005 61.0365 30.9038 60.9977 31.4111 61.0494C31.4371 61.0494 31.4762 61.0494 31.5022 61.0623C30.9428 61.6181 31.0469 62.2901 31.0469 62.2901C31.0469 62.2901 31.7623 61.2433 33.8828 61.463C33.8828 61.463 34.8454 62.0187 36.2894 61.9412C37.7334 61.8378 38.5399 61.2304 39.2424 60.7522C39.2424 60.7522 39.8278 61.631 40.6083 61.631C41.4018 61.631 42.4035 61.0236 43.6263 61.1528C43.8605 61.1787 44.0556 61.1787 44.2247 61.1528C44.2377 61.2174 44.3028 61.2691 44.4719 61.2821C45.5516 61.3337 45.4735 62.3676 45.4735 62.3676C45.4735 62.3676 46.3191 61.8895 46.0459 60.959C45.8768 60.3774 45.3565 60.3903 44.9922 60.4937C44.9272 60.2094 44.7451 59.7183 44.1597 59.4598C43.2881 59.0721 40.6733 60.3386 40.3611 59.8475C40.0879 59.4211 42.2734 54.368 42.6507 53.4892C42.8718 53.5538 43.0929 53.5796 43.3011 53.5926C45.6817 53.6701 47.4118 49.7155 48.1013 46.1874L53.0446 54.5231L53.0056 54.5101L55.9716 59.4469L57.2074 61.5276L58.7034 59.77L60.7588 60.6488L61.2531 59.3823L63.1134 59.9897V59.9768L63.1524 59.9897L63.4646 58.7878L66.1834 59.9639L66.5607 58.5423L69.2015 59.1238L69.1494 57.2499L69.0063 57.1078L72.3756 57.8056L72.4146 57.8444C72.4146 57.8444 72.4016 57.8315 72.3756 57.8056L72.8829 57.909C72.8569 57.9478 66.5997 48.9401 59.4579 41.5349ZM22.5652 61.7602L22.7993 61.4371C23.0855 61.4242 23.3197 61.3854 23.5148 61.3079C23.6189 61.4242 23.762 61.5405 23.9311 61.6181L22.5652 61.7602ZM30.4875 60.9073C30.5135 60.8943 30.5395 60.8685 30.5655 60.8556C30.5916 60.8685 30.6046 60.8814 30.6306 60.8943L30.4875 60.9073ZM31.6323 61.4113L31.8664 61.0882C32.1526 61.0753 32.3868 61.0365 32.5819 60.959C32.686 61.0753 32.8161 61.1787 32.9852 61.2562L31.6323 61.4113ZM36.8488 59.9639C35.1186 59.9768 34.8844 59.3435 33.4925 59.5374C33.2974 59.5632 33.1283 59.6149 32.9852 59.6666C32.6339 59.5245 32.1656 59.3694 31.6713 59.3435L34.1039 54.1095C34.1039 54.1095 34.234 53.7735 34.273 53.347C35.665 52.8818 37.278 51.2793 38.2927 50.1161C39.0602 51.0337 39.8538 51.822 40.6213 52.4165C40.244 53.7735 38.4098 59.9509 36.8488 59.9639Z" fill="white"/>
</svg>
