<svg width="39" height="62" viewBox="0 0 39 62" fill="none" xmlns="http://www.w3.org/2000/svg">
<path d="M24.3525 0.818115H14.7827L19.5676 6.39619L24.3525 0.818115Z" fill="white"/>
<path d="M37.6799 0.818115H28.246L19.5668 10.4392L10.8875 0.818115H1.45361L19.5668 20.0754L37.6799 0.818115Z" fill="white"/>
<path d="M29.001 24.8781L33.7859 29.6962L38.435 24.8781L29.001 15.2571L19.5671 24.8781L10.1332 15.2571L0.699219 24.8781L5.22751 29.6962L10.1332 24.8781L14.7822 29.6962L1.45393 43.2539L19.5671 61.6144L37.6802 43.2539L24.352 29.6962L29.001 24.8781ZM28.2463 43.2539L19.5671 51.9933L10.8879 43.2539L19.5671 34.5144L28.2463 43.2539Z" fill="white"/>
<path d="M19.5706 37.6639L14.0312 43.2417L19.5706 48.8195L25.11 43.2417L19.5706 37.6639Z" fill="white"/>
</svg>
