<svg width="48" height="62" viewBox="0 0 48 62" fill="none" xmlns="http://www.w3.org/2000/svg">
<path d="M47.6277 53.7474C47.5994 53.6167 47.5239 53.3088 47.4296 52.9355C47.4013 52.6742 47.3541 52.4036 47.2881 52.1143C47.1182 51.1998 46.7692 50.1453 46.3918 49.1747C46.2786 48.8574 46.1466 48.5495 46.005 48.2415C45.8918 47.9802 45.7881 47.7376 45.6843 47.5043C45.6466 47.4016 45.6088 47.3083 45.5711 47.2057C45.5522 47.1497 45.5239 47.103 45.505 47.047C45.4767 46.9724 45.4484 46.8884 45.4107 46.8137C44.4013 44.2101 42.6843 41.1399 41.09 38.5269C41.09 38.5176 41.09 38.5083 41.0805 38.4989H41.0617C40.9296 38.275 40.7881 38.051 40.656 37.8364C40.5051 37.5751 40.3636 37.3231 40.2126 37.0711C40.1843 36.9965 40.1654 36.9312 40.1277 36.8658H40.09C39.8919 36.5206 39.6937 36.1939 39.4956 35.858V35.8487C39.3636 35.6247 39.2315 35.41 39.1088 35.1954C39.0805 35.1114 39.0522 35.0368 39.0334 34.9994L39.0145 35.0274C38.9013 34.8035 38.7692 34.5888 38.6466 34.3835C38.5522 34.2342 38.4485 34.0849 38.3541 33.9356C38.09 33.497 37.8353 33.077 37.59 32.6851C37.5994 32.6758 37.6088 32.6758 37.6183 32.6664L37.5617 32.6478C36.1938 30.4361 35.2126 28.9336 35.0994 28.7843C34.9579 28.6444 34.3353 27.7485 33.4013 26.442C33.2126 26.1714 33.0145 25.8914 32.8258 25.6208C32.8258 25.6115 32.8258 25.6021 32.8258 25.5928L32.807 25.5835C31.7975 24.1743 30.7881 22.8399 29.873 21.7107C29.8636 21.6827 29.8541 21.6547 29.8447 21.6267L29.7975 21.6174C29.4862 21.2348 29.1938 20.8895 28.9108 20.5629C28.6655 20.2642 28.4202 19.9749 28.1655 19.6763C28.307 19.6577 28.1466 19.6017 28.0145 19.499C27.873 19.3404 27.7315 19.1817 27.5994 19.0138C26.9862 18.1925 25.1183 16.2981 24.3164 15.6262C24.1749 15.4956 24.024 15.3649 23.8825 15.2343C23.1089 14.3198 21.8353 13.3119 20.5712 12.3321C19.7221 11.5948 19.0995 11.0536 18.5995 10.615L18.8636 10.9976C17.8353 10.1764 17.0051 9.43914 16.7127 8.86055C16.6655 8.77657 16.6278 8.70191 16.59 8.61792C16.6372 8.67391 16.6749 8.72991 16.7127 8.7859C16.7127 8.74857 16.7315 8.72991 16.741 8.71124C17.2598 9.36448 17.7127 9.82175 18.6089 10.615L15.6372 6.2196C15.4768 5.65035 15.3448 5.06244 15.2221 4.43719C14.9863 4.12924 14.7504 3.89594 14.6749 3.50399C14.5146 3.42934 14.3636 3.42934 14.2033 3.34535C14.2787 2.87875 13.7316 2.87875 13.807 2.48681C13.5712 2.41215 13.3353 2.32816 13.175 2.25351C12.9391 1.71225 12.3919 1.55361 11.7599 1.32031V1.08701C10.9768 0.853711 10.4202 0.545755 9.63723 0.461768V0.321788C8.53346 0.163144 7.75044 0.0884882 6.64667 0.163144V0.321788C6.17497 0.321788 5.86365 0.480432 5.46743 0.480432V0.639075C5.23158 0.713731 5.15611 0.713731 4.99573 0.713731C4.92026 0.788387 4.83535 0.947031 4.83535 1.10567L4.70328 1.02169C4.62781 1.09634 4.62781 1.18033 4.62781 1.25499C3.92026 1.48829 3.60894 2.11353 3.52404 2.81343C3.55234 2.79476 3.59007 2.78543 3.62781 2.7761C3.60894 2.79476 3.60894 2.8041 3.60894 2.81343C1.79763 2.96274 0.533479 4.44652 0.458008 5.76233V5.83699C0.458008 6.38758 0.618385 6.85418 0.929705 7.16213C3.52404 4.36254 5.64667 6.38758 6.11837 9.10318C6.32592 10.4937 6.21271 11.9961 6.05233 13.5172C5.95799 14.1705 5.83535 14.7677 5.72214 15.2436C5.88252 15.5516 5.79761 16.1022 5.56177 16.3355L5.72214 16.1768C5.72214 16.3915 5.75045 16.5874 5.77875 16.7927C5.76931 17.11 5.76931 17.4273 5.76931 17.7353C5.76931 17.7073 5.76931 17.6793 5.77875 17.6606C5.77875 17.6979 5.77875 17.7446 5.77875 17.7819C5.77875 17.7913 5.77875 17.8006 5.76931 17.8099C5.76931 17.7913 5.76931 17.7633 5.76931 17.7446C5.76931 17.7819 5.75988 17.8099 5.75988 17.8473C5.75045 17.8846 5.73158 17.9312 5.72214 17.9779C5.68441 18.1179 5.69384 18.2579 5.72214 18.3978C5.72214 18.4165 5.72214 18.4258 5.72214 18.4445C5.73158 18.4538 5.74101 18.4632 5.74101 18.4725C5.75988 18.5472 5.78818 18.6311 5.81648 18.7058C5.82592 18.8458 5.83535 18.9951 5.85422 19.1444C5.81648 19.2844 5.81648 19.359 5.88252 19.4524C5.86365 19.5083 5.83535 19.555 5.79761 19.611C5.88252 19.8536 5.94856 20.1056 6.00516 20.3669C6.0429 20.5909 6.08063 20.8148 6.1278 21.0388C6.16554 21.3281 6.18441 21.5987 6.18441 21.86C6.25988 21.9347 6.34478 22.0187 6.34478 22.168C6.42025 22.3919 6.51459 22.6252 6.61837 22.8679C6.73157 23.1945 6.85422 23.5304 6.99573 23.8571C7.06176 24.0717 7.10893 24.2863 7.13723 24.501C7.20327 24.5196 7.29761 24.6036 7.39195 24.7063C7.85421 25.6208 8.43912 26.526 9.1844 27.3752C9.25043 27.4592 9.30704 27.5432 9.37308 27.6272C10.0523 28.579 10.7787 29.4749 11.6938 30.1748C11.9863 30.4268 12.1655 30.5574 12.2504 30.6414C12.3542 30.8374 12.4674 31.0613 12.59 31.3133C12.6655 31.5653 12.7221 31.8079 12.807 32.0412C13.024 32.6291 13.2127 33.0211 13.4014 33.357C13.4014 33.357 13.4014 33.3663 13.4108 33.385C13.4108 33.413 13.4297 33.441 13.4485 33.469C13.7976 34.1222 16.0334 37.6311 16.6655 38.8162C17.3731 40.216 17.3731 41.2239 17.0617 43.1743C17.5334 43.1743 17.5334 43.3329 18.0051 43.1743C18.0429 43.0996 18.0806 43.0249 18.1089 42.9503L18.8636 42.885C18.8636 42.9596 18.873 43.0623 18.873 43.1929C18.873 43.2769 18.8353 43.9301 18.7504 44.7794C18.741 44.7607 18.7221 44.742 18.7127 44.7234L18.7221 44.658C18.7221 44.658 18.6466 44.6021 18.5146 44.5181C18.3919 44.4247 18.2504 44.3501 18.0995 44.2848C17.7032 44.0888 17.2032 43.9115 16.8353 44.0328C16.7032 44.0795 16.6089 44.1448 16.5334 44.2381C15.7127 43.7342 13.7504 44.4341 14.7882 45.7499C15.024 45.3673 15.3353 44.7514 16.3353 45.1993C16.3448 45.3019 16.3636 45.3673 16.3636 45.3673C16.7693 45.302 17.741 45.5726 18.1655 45.5073C18.1183 45.5353 18.0617 45.5632 17.9957 45.5912C17.9014 45.6006 17.807 45.6006 17.7032 45.6006C17.4202 45.7872 17.0617 45.8712 16.6938 45.9179C16.6372 45.9179 16.5806 45.9179 16.524 45.9085C15.6749 45.8339 14.741 45.9085 14.7127 46.2818C14.6372 46.3938 14.6089 46.5431 14.7127 46.6831C14.7127 46.7297 14.7127 46.7857 14.7127 46.8324C14.6844 46.9537 14.6466 47.0657 14.6183 47.187C14.5806 46.991 14.5429 46.7857 14.6372 46.6084C13.7693 45.6006 11.3353 46.8417 12.675 48.6335C12.675 48.0269 13.5617 46.9817 14.5523 47.5696C14.5523 47.6163 14.5523 47.6629 14.5617 47.7003C14.5712 47.7283 14.5995 47.7469 14.6561 47.7563C14.7316 47.8496 15.0995 47.7656 15.59 47.5976C16.6089 47.327 18.0712 46.7951 18.4674 46.6458C18.3353 47.1777 18.2127 47.6723 18.1089 48.1202C18.0334 48.3349 17.9485 48.5215 17.8542 48.6895C17.7032 48.8294 17.4863 49.0627 17.3353 49.2214C17.307 49.2307 17.2693 49.2494 17.241 49.2494C15.7504 49.5573 14.4108 49.0907 12.8353 49.5573C12.7316 49.6413 12.6183 49.744 12.5051 49.8653C12.4674 49.884 12.4297 49.9213 12.4014 49.9866C12.3448 50.0613 12.2787 50.1359 12.2316 50.2106C12.3259 50.0613 12.4202 49.9213 12.524 49.7906C11.6561 48.6241 8.59006 49.716 10.0901 51.8903C10.2504 51.2651 10.7221 50.0986 11.9014 50.7985C11.9863 50.6399 12.09 50.4532 12.2033 50.2666C12.0334 50.5372 11.9485 50.8452 12.0617 51.1064C12.2221 51.573 13.4768 51.881 13.6372 50.7985C13.741 50.8265 13.8448 50.8358 13.9485 50.8545C14.1749 50.9198 14.4202 50.9291 14.6749 50.9105C15.5995 50.9105 16.2976 50.6865 16.5334 50.7985C16.5429 50.8078 16.5523 50.8172 16.5523 50.8265C16.5334 50.8545 16.4297 50.9011 16.2882 50.9665C16.1844 50.9571 16.1089 50.9478 16.1844 51.0131C16.1561 51.0225 16.1278 51.0411 16.09 51.0505C15.741 51.1064 15.5334 51.2278 15.4014 51.3771C15.2032 51.4984 15.0712 51.6197 15.1183 51.741C15.2693 52.189 14.2033 51.7877 13.8353 52.6182C13.7221 52.7675 13.6372 52.9542 13.5712 53.2061C13.5523 53.2341 13.524 53.2621 13.5051 53.2901C13.3259 53.3088 12.6844 53.4208 12.1467 53.5794C11.6938 53.6261 11.1938 53.7754 11.1938 54.2327C11.2033 54.3446 11.2221 54.466 11.2599 54.6059C10.4957 54.9512 9.241 56.491 11.2787 57.4989C11.2787 56.6217 11.3542 56.0804 11.675 55.5951C12.0334 56.1271 12.5712 56.3324 13.241 55.3245C13.2787 55.2778 13.307 55.2219 13.3353 55.1752C13.8919 54.4753 14.3919 54.186 15.0051 53.9434C15.2127 53.906 15.3542 53.8967 15.4391 53.7567C15.6655 53.3834 16.7693 52.0676 17.1278 52.2543C17.1844 52.4036 17.1278 52.7209 17.0523 53.0288C16.8353 53.5981 16.458 54.2793 16.458 54.382C16.4297 54.4566 16.3636 54.6153 16.3165 54.8112C15.7599 55.3058 15.307 56.603 16.8448 57.4895C16.7976 56.659 16.7504 56.1644 16.9108 55.7258C17.0995 55.7724 17.3353 55.7911 17.6278 55.7818C17.6466 55.7538 17.6655 55.7258 17.6844 55.6978C17.7881 55.5951 17.9674 55.4552 17.8636 55.3992C18.1278 54.8859 18.2032 54.354 18.3259 53.9154C18.373 53.7287 18.4202 53.5514 18.4674 53.3928C18.6655 52.9728 18.8447 52.7395 18.873 52.3196C18.9297 52.2356 18.9768 52.1703 19.0334 52.133C19.5051 51.8997 20.1372 51.1251 20.2881 51.0411C20.2976 51.0318 20.3164 51.0131 20.3353 51.0038C20.4485 51.0318 20.4768 51.0225 20.8447 50.9851C20.9202 51.0038 20.9957 51.0225 21.0806 51.0411C21.3919 51.1158 22.8919 52.3663 23.4391 51.3491C23.524 51.2091 23.59 51.0878 23.6466 50.9851C23.6372 51.0785 23.6183 51.1811 23.5995 51.2744C24.9391 51.3491 24.7032 52.6742 24.4674 53.2155C26.9013 52.2823 25.0994 49.6413 23.7598 50.1079C23.7504 50.1453 23.7504 50.1826 23.741 50.2199C23.7221 49.9866 23.6278 49.8 23.4013 49.6973C23.241 49.548 23.0428 49.5107 22.8542 49.632C22.8164 49.632 22.7787 49.6413 22.741 49.6413C22.741 49.6693 22.741 49.6973 22.741 49.716C22.6749 49.7813 22.6089 49.8186 22.5429 49.8373C22.5051 49.6973 22.5051 49.772 22.5051 49.716C22.3164 49.7533 22.1372 49.772 21.9957 49.772C21.8919 49.744 21.7787 49.7253 21.6466 49.716H21.6372C21.0995 49.716 21.2315 49.4267 20.1655 49.1934C20.1466 49.0907 20.1372 48.9601 20.1372 48.8014C20.241 48.2789 20.3259 47.7843 20.3919 47.3083C20.4296 47.3083 20.5806 47.327 20.7976 47.355C21.5051 47.467 22.2787 47.7096 22.9013 47.9149C23.1089 48.0456 23.5051 48.1575 23.873 48.1762C24.3259 48.2602 24.6655 48.2602 24.5523 48.0829C24.6089 47.9802 24.6466 47.8776 24.6844 47.7749C25.6466 47.8869 25.4202 48.9414 25.2598 49.4827C27.0711 48.6241 25.7315 46.4498 24.7127 46.8417C24.7127 46.9257 24.7127 47.0097 24.7127 47.0937C24.6844 46.9724 24.6277 46.8604 24.5617 46.7671C24.5145 46.6644 24.4674 46.5804 24.4013 46.5244C24.3164 46.4405 24.1655 46.3938 23.9957 46.3751C23.6466 46.2725 23.1749 46.3005 22.5711 46.5058C22.5145 46.4964 22.4296 46.4684 22.3447 46.4498C21.9768 46.3005 21.5051 46.1418 21.0712 46.0485C20.8164 45.9645 20.6372 45.8992 20.6372 45.8992L20.6278 45.9832C20.5995 45.9832 20.5712 45.9832 20.5523 45.9832C20.59 45.3393 20.5712 44.6954 20.4863 44.0421C20.4863 43.9301 20.4957 43.8182 20.5146 43.6968C20.5429 43.5755 20.5712 43.4542 20.59 43.3142C20.5617 43.6035 20.5617 43.8555 20.5617 44.1914C20.5617 44.2008 20.5712 44.2008 20.5712 44.2101C20.6089 45.162 20.8164 45.8152 20.873 45.5912C20.8825 45.5632 20.8919 45.5353 20.9013 45.4979C20.9674 45.4233 21.0429 45.1153 21.1089 45.05C21.1089 44.966 21.1183 44.882 21.1372 44.7887C21.1844 44.6487 21.2315 44.4994 21.2787 44.3501C21.2881 44.4621 21.307 44.5647 21.3447 44.6674C21.3447 44.7047 21.3447 44.7514 21.3447 44.7887C21.3164 44.8727 21.307 44.9473 21.3447 45.0593C21.3447 45.0593 21.3542 45.0593 21.3636 45.0593C21.4202 45.7592 21.5806 46.2258 21.741 45.9085C21.9674 45.5259 22.1466 44.4434 22.1749 43.7622C22.1844 43.8648 22.2032 43.9861 22.2221 44.1075C22.1749 44.77 22.2127 45.3113 22.5995 45.9832C22.6278 46.0392 22.6561 46.0765 22.6844 46.0672C22.7787 46.0392 22.8164 45.8432 22.8447 45.5912C22.9579 45.246 22.9202 44.8447 22.9202 44.5087C22.9202 44.5087 23.3164 45.6006 23.3919 45.9085C23.4674 45.9085 23.5523 45.9085 23.6183 45.9085C23.6938 46.0205 23.7693 46.1232 23.8636 46.2165C24.2315 44.7327 24.09 43.9768 23.9391 43.6222C23.9202 43.5382 23.8919 43.4729 23.8636 43.4169L24.0994 43.6502C24.4108 43.8835 24.5711 44.2754 24.9674 44.3501C24.9768 44.3501 24.9768 44.3408 24.9862 44.3408C25.09 44.3594 25.1938 44.3221 25.2881 44.1914C25.4674 43.9395 25.4485 43.6222 25.3636 43.2676C25.307 42.9596 25.1844 42.6423 25.09 42.3437L25.2315 42.3344C25.156 42.2411 25.0806 42.1477 25.0051 42.0451C24.9957 42.0078 24.9862 41.9704 24.9768 41.9331C25.024 41.9984 25.1466 42.1477 25.307 42.325L25.2315 42.3344C25.6089 42.801 25.9674 43.1836 26.2693 43.3702C26.2976 43.3982 26.307 43.4169 26.307 43.4169C26.6655 43.6502 26.7976 43.5755 26.8825 43.3516C26.9957 43.2023 27.0617 42.9316 27.09 42.5117C27.09 42.5024 27.0994 42.493 27.0994 42.4837C27.1372 42.4837 27.1183 42.4184 27.0994 42.3624C27.0994 42.325 27.0994 42.2877 27.0994 42.2504V42.2411C27.0994 42.2224 27.0994 42.1944 27.0994 42.1757H27.09C27.09 42.1571 27.09 42.1384 27.09 42.1197C27.1277 42.1944 27.1655 42.2691 27.2126 42.353L27.1843 42.3344C27.1843 42.3344 27.3636 43.1929 27.873 44.0701C28.0145 44.3408 28.1749 44.6021 28.2881 44.826C28.524 44.9007 28.8353 46.0672 30.7221 45.9179C31.1938 45.8525 31.5994 45.7872 31.7126 45.7219C37.373 59.4026 43.9296 66.1123 43.9296 59.2719L40.8447 53.0475C40.9673 52.9169 41.0617 52.7675 40.9579 52.5342C40.9768 52.4876 40.9862 52.4502 40.9956 52.4036C41.0617 52.2449 41.0994 52.133 41.1088 52.0396L41.3069 52.0583C41.5711 52.1236 42.0051 52.1516 42.3541 52.1516L42.9202 52.1983L42.8069 52.0396C42.8164 52.0396 42.8258 52.0396 42.8447 52.0396C42.6843 51.8063 42.6088 51.573 42.4485 51.2651C42.4107 51.3024 42.3918 51.3211 42.3635 51.3304C41.5522 49.772 40.5805 48.1389 39.7692 46.6738C39.7126 46.4871 39.7032 46.3098 39.7126 46.1512C39.8069 46.2445 39.8919 46.3471 39.9862 46.4405C40.0239 46.5244 40.0522 46.5898 40.09 46.5898C41.0994 47.6909 43.4013 50.1079 45.222 51.7037C45.373 51.8437 45.5239 51.9743 45.6654 52.0956C45.7503 52.1983 45.8918 52.2916 45.8352 52.3476C46.5239 52.8889 46.9956 53.3555 47.6277 53.7474ZM30.2692 42.2691L30.156 41.9891C30.156 41.9704 30.156 41.9611 30.1655 41.9424C30.2032 42.0544 30.2504 42.1571 30.2881 42.2691C30.2787 42.2691 30.2692 42.2691 30.2692 42.2691ZM30.1466 42.0171L30.2504 42.2691C30.2032 42.2691 30.1655 42.2691 30.1183 42.2597C30.1277 42.1944 30.1372 42.1104 30.1466 42.0171ZM18.8542 42.0078C18.8825 42.0078 18.9485 42.0358 19.024 42.0917C19.0146 42.1197 19.0051 42.1384 18.9957 42.1664C18.9391 42.2597 18.8825 42.3437 18.807 42.4184C18.8919 42.2504 18.9391 42.0824 18.8542 42.0078ZM21.4485 42.6517V42.6237C21.4579 42.633 21.4579 42.633 21.4674 42.6423L21.4485 42.6517Z" fill="white"/>
</svg>
