<svg width="51" height="65" viewBox="0 0 51 65" fill="none" xmlns="http://www.w3.org/2000/svg">
<path d="M6.29805 17.1968C3.71931 20.9419 7.78628 23.984 9.41563 27.4606C9.7492 28.1764 10.968 30.9501 10.5318 31.5764C9.95447 32.42 4.45059 32.2666 2.76992 32.8929C2.14127 33.123 1.14057 34.2478 1.26886 35.4237C1.26886 35.4621 -0.591424 36.1651 0.550406 38.5297C1.10208 36.8042 2.64162 37.1109 2.73143 37.1493C5.20754 38.4019 8.06853 38.926 10.7627 39.6801C10.596 42.4026 8.8383 44.7673 7.33724 46.4289C5.18188 48.8319 5.23319 50.3018 7.96589 52.4747C8.74849 53.0883 9.78769 53.8168 11.0065 54.3537L11.045 54.3792C16.2025 57.6642 22.4376 60.31 29.6094 62.9558C30.687 63.3649 32.1881 64.1318 33.2914 64.2852C33.625 64.3235 34.2921 64.5664 34.305 63.7994C35.2415 63.8634 36.2936 64.5152 36.9992 64.5664H37.615C37.7946 63.3137 36.0113 62.8025 35.4468 61.8438C35.8702 60.4506 33.779 59.722 33.022 58.7251L32.9964 58.6867C33.8174 56.9867 30.8282 56.207 29.8146 55.1461C31.444 53.8168 26.5431 51.989 26.0556 51.2605C27.454 49.9567 23.7078 48.7296 22.9636 47.9244C24.0926 47.6304 24.7341 46.3394 23.6308 45.5342C24.5673 45.1891 25.1318 44.0898 24.1183 43.3485C24.8624 42.9267 24.8111 42.1086 24.1055 41.6485C24.6443 41.2778 24.593 40.6004 24.1183 40.2169C26.2352 39.744 28.3905 39.0793 30.5074 38.7726C30.5203 38.7726 39.0904 39.3094 43.2728 39.9741L43.3242 39.9869C45.2486 40.4981 50.5215 42.3771 49.0205 38.5681L49.0076 38.5425C50.188 38.1846 50.5857 36.817 49.6235 35.9989C50.9192 35.1937 50.637 34.2989 49.6363 33.3786C50.56 32.5862 50.1238 31.3591 49.1488 30.7839C49.8159 29.902 49.2257 28.6366 48.1224 28.611C48.5971 25.2494 44.1966 28.2148 42.6057 28.6749L42.5544 28.6877C38.5002 29.9148 34.305 31.0907 30.1739 32.0238L23.4512 31.0012C24.0542 30.3877 23.8361 29.5569 23.2202 29.0456C24.0413 28.4065 23.7719 27.3456 22.9893 26.8088C23.8617 25.8629 23.3742 24.4953 22.181 24.0351C23.1946 22.9103 22.4761 21.4404 21.2317 20.9675C22.0527 19.8682 25.3628 18.066 23.618 16.8134C24.3492 16.0081 25.7733 14.8322 26.5816 13.7585C27.005 13.1961 27.6721 12.3781 26.6457 11.9051C27.5181 10.6269 30.1995 9.31041 29.0962 7.63599C29.5452 6.40893 31.5723 5.22022 30.764 3.90369C31.29 2.70219 32.9707 1.43679 32.4447 0.772133C31.9572 0.158604 30.1739 1.65408 29.4169 1.83303C29.4169 0.452586 27.8645 1.60295 27.1846 1.97363C21.8218 4.84954 15.638 8.53072 11.122 12.3781C11.1091 12.3908 6.91387 16.3149 6.29805 17.1968Z" fill="#FEFEFE"/>
</svg>
