<svg width="94" height="61" viewBox="0 0 94 61" fill="none" xmlns="http://www.w3.org/2000/svg">
<path d="M23.0376 14.168C23.0376 14.6178 23.3788 14.9586 23.8291 14.9586C24.2795 14.9586 24.6207 14.6178 24.6207 14.168C24.6207 13.7181 24.2795 13.2546 23.8291 13.2546C23.3788 13.2683 23.0376 13.7181 23.0376 14.168Z" fill="white"/>
<path d="M76.9438 27.3499C72.0581 27.4589 63.4059 30.5261 63.4059 30.5261C63.4059 30.5261 62.0412 29.5037 60.4445 29.1629C56.8007 28.4813 48.5033 30.1853 47.4798 30.2943C46.3471 30.4034 44.6412 30.7442 42.4714 30.5261C37.6949 30.2943 28.7151 26.7773 27.1184 19.7297C29.0563 19.0481 30.8714 16.09 30.8714 16.09L26.8455 15.8719L29.2883 13.2682L26.5453 12.941C26.4907 12.6275 26.4088 12.3549 26.3269 12.1231C25.9857 10.9917 24.389 8.82421 23.9387 7.46103C23.5975 6.09785 23.4883 0.876861 23.1472 0.536066C22.6968 0.19527 19.517 0.999548 19.517 0.999548L20.4314 1.91288L19.981 2.70352L20.6634 3.61686L19.981 4.7483L20.6634 5.77068L19.981 6.90212L20.7726 7.81546L19.8582 9.17864L20.8817 10.6509L18.3843 10.8826L19.0667 9.51943L18.4935 8.38799L19.6262 7.7064L18.4935 6.68402L19.285 5.77068L18.4935 4.85735L19.285 3.60322L18.4935 2.58084L19.0667 1.32671C19.0667 1.32671 17.2516 1.21766 16.7876 1.55845C15.9961 2.24004 16.8968 11.7823 16.6785 13.5953C16.3373 15.4084 15.7641 17.235 15.5458 18.7073C15.3274 20.1795 15.3138 25.864 15.3138 25.864C15.3138 25.864 15.5458 31.3167 12.2432 39.046C8.59941 47.6749 6.334 50.0605 4.62812 51.6554C3.03142 53.2503 -0.380339 53.4684 0.534012 55.0633C1.10719 56.0857 3.49542 55.9767 5.54247 54.7225C7.58953 53.4684 14.7542 44.8395 15.3274 44.1579C15.7778 43.4763 16.5829 42.4539 17.8248 43.0264C18.5072 43.3672 19.0803 44.0488 18.8483 46.3253C16.0098 58.0214 9.18623 57.9124 8.72223 58.1441C8.27188 58.3759 7.93071 58.8257 8.27188 59.3983C8.50388 60.0798 9.40458 61.1022 14.3039 58.7167C19.1895 56.3311 23.1744 50.0877 23.6248 49.2834C24.198 48.6019 24.8803 47.0069 26.245 46.5571C27.6097 46.1072 28.6333 47.5795 29.998 47.5795C31.813 47.5795 32.045 45.8755 33.9829 45.9845C35.2384 45.9845 35.3476 47.116 37.0535 47.116C38.8685 47.0069 39.1005 45.7528 40.6972 45.7528C42.1711 45.6437 42.0619 47.0069 44.109 47.0069C46.2652 46.8979 45.7057 45.412 48.3123 45.412C50.8097 45.412 49.909 46.3253 52.1744 47.116C52.7476 47.3477 62.3005 50.0741 64.1156 51.4373C64.9071 52.0098 66.613 53.2503 66.2718 55.186C66.0398 55.7586 65.1391 56.5492 65.0163 56.89C65.0163 57.3399 65.1254 57.6806 65.4666 57.9124C65.8078 58.2532 66.5993 58.0214 66.8313 57.8033C67.1725 57.6943 68.196 57.0127 68.428 55.4178C68.5372 49.5152 61.4953 43.0401 61.4953 43.0401C61.4953 43.0401 70.3659 45.3166 73.2045 50.3058C73.5457 51.0965 73.7777 51.56 73.5457 52.5823C73.2045 53.7138 71.4986 55.5405 72.6313 56.0994C74.4464 56.89 74.9104 55.186 75.0195 54.6271C75.1287 54.2863 76.1522 48.8336 74.228 46.1072C72.5221 44.2942 71.0482 44.0625 69.5607 42.2494C68.0868 40.4364 67.4045 36.6876 66.5993 35.3245C65.917 34.0703 64.3203 32.9389 64.3203 32.9389C64.3203 32.9389 68.1824 35.2154 72.0581 35.897C78.7725 36.9194 81.9522 36.2378 86.8379 34.7656C90.4816 33.7432 93.6614 31.3576 93.6614 31.3576C93.6614 31.3576 88.6529 26.4365 76.9438 27.3499ZM24.0615 17.0169C22.9288 16.1036 22.5876 13.0364 23.4883 11.5642C24.9759 12.5866 24.9759 15.422 24.0615 17.0169ZM26.7909 17.126L28.2648 17.0169L27.0093 18.6119L26.7909 17.126Z" fill="white"/>
</svg>
