<svg width="56" height="61" viewBox="0 0 56 61" fill="none" xmlns="http://www.w3.org/2000/svg">
<path d="M53.7301 28.3264C53.7145 28.2872 53.7068 28.248 53.6912 28.2088C54.064 27.9107 54.165 27.5891 53.7223 27.4401C53.334 27.3774 53.1398 27.1813 53.5903 26.9852C54.6232 26.1224 54.499 24.8595 53.8233 24.3968C54.7786 23.9654 54.7242 22.3574 53.2019 21.7613C52.7515 21.6279 52.8757 21.4318 53.2641 21.2357C53.6213 20.9847 53.4893 20.7337 53.1087 20.5612C54.7242 20.2004 54.8252 18.8199 54.4912 17.9728C54.2582 17.1492 53.2874 16.004 51.6331 16.8903C51.9515 16.4197 51.9748 16.0118 51.4544 16.0824C51.0661 16.1452 50.8098 16.0197 51.1282 15.6903C52.1224 13.949 50.4991 12.3332 49.2875 13.6352C49.6059 12.6861 48.8759 12.0743 48.0526 12.2233C48.8137 11.3998 47.9594 9.88592 46.3362 10.0663C45.8158 10.1997 45.8857 9.93299 46.0799 9.61139C46.3051 9.21921 46.0721 9.06234 45.6527 9.10155C46.8643 8.01912 46.2973 6.77982 45.6294 6.21508V6.15233C45.0391 5.55621 43.579 5.01499 42.5926 6.67001C42.6625 6.0582 42.5072 5.65033 42.0645 5.95623C41.7383 6.21508 41.4819 6.28567 41.614 5.76014C41.614 3.77569 39.4626 3.17172 38.9966 4.84243C38.7248 3.46978 36.8297 3.76784 36.6277 5.5013C36.6277 5.95623 36.4336 5.83074 36.1773 5.56405C35.5482 5.04637 35.4783 6.35626 35.9132 7.39163C35.8977 7.5485 35.8355 7.61125 35.7579 7.58772C35.7889 7.22691 35.7035 6.89748 35.5326 6.64648C35.6647 6.40332 35.6181 6.21508 35.2763 6.21508C34.888 6.21508 34.6938 6.15233 35.02 5.82289C36.0064 4.42671 34.8802 2.9521 33.7463 3.67372C34.4065 2.16773 32.4104 1.17943 31.1367 2.62266C30.8804 3.0776 30.7483 2.88151 30.6862 2.42657C30.5464 1.90889 30.1581 2.12067 29.8163 2.63835C30.2124 0.740179 28.7911 0.144058 27.9057 0.206808C27.0591 0.151902 25.7854 0.685273 25.964 2.36382C25.6767 2.05792 25.3971 2.00301 25.3116 2.42657C25.2495 2.81876 25.0553 3.0776 24.7912 2.62266C23.502 1.10883 21.4671 2.13636 22.2438 3.67372C21.071 2.73248 19.8128 4.29337 20.8457 5.68955C21.172 6.01898 20.9778 6.14448 20.5894 6.08173C20.5506 6.08173 20.5118 6.08958 20.4807 6.09742C20.4652 5.61896 20.2865 5.33658 19.937 5.6268C19.6807 5.95623 19.4866 6.01898 19.4866 5.56405C19.339 3.83844 17.4362 3.49331 17.1333 4.85812C16.6595 3.24232 14.5159 3.86197 14.5702 5.82289C14.6324 6.34842 14.3761 6.27783 14.0499 6.01898C13.6072 5.70524 13.4518 6.1288 13.5373 6.74845C12.5587 5.0699 11.1451 5.61896 10.4927 6.27783C9.82476 6.84257 9.25003 8.08187 10.5082 9.1643C10.0888 9.13293 9.84806 9.28196 10.0422 9.67414C10.2985 10.0036 10.2985 10.3252 9.84806 10.1291C8.36462 9.97221 7.54135 11.1488 7.91415 12.0037C7.19184 11.9645 6.57827 12.5292 6.81904 13.3685C5.63073 12.1214 4.00749 13.745 4.99386 15.4236C5.32006 15.8785 5.12589 15.9491 4.66766 15.8785C4.12399 15.8079 4.18612 16.2236 4.54339 16.7099C2.90461 15.7844 1.91824 16.9374 1.6231 17.7688C1.3435 18.616 1.45223 19.9886 3.05218 20.3573C2.66384 20.5298 2.52404 20.7887 2.92014 21.0397C3.24635 21.2357 3.44051 21.4318 2.92014 21.5652C1.45223 22.1535 1.37457 23.73 2.29881 24.185C1.67747 24.687 1.5998 25.8635 2.59394 26.6636C3.04441 26.9224 2.85024 27.1185 2.46191 27.1891C2.02697 27.3068 2.1124 27.5891 2.45414 27.8715C2.43084 27.9107 2.40754 27.9578 2.39201 28.0049C0.691093 27.8637 0.209556 29.2206 0.326057 30.1305C0.326057 30.9698 0.900795 32.2012 2.53957 31.9502C2.24444 32.2483 2.2056 32.5307 2.65608 32.6169C3.10655 32.6797 3.30071 32.813 2.85024 33.1425C1.46 34.4994 2.53181 36.476 4.00749 35.6289C3.12208 36.8604 4.74532 38.0762 6.0812 36.931C6.4074 36.6015 6.46954 36.7976 6.46954 37.1898C6.51614 37.8016 7.10641 37.4487 7.57241 36.7976C7.63455 37.2996 8.35685 36.8839 8.87722 36.178C8.73742 37.1663 9.04033 38.1781 9.50633 37.6448C9.7005 37.3153 9.89466 37.1898 9.9568 37.6448C10.2597 38.7586 11.215 39.1429 11.8363 38.8527C12.7761 39.3155 13.9567 38.5468 13.0635 36.4682C12.8693 36.076 13.1256 36.0133 13.3198 36.1388C14.3528 36.9859 14.0965 34.7661 13.0635 34.0445C12.6752 33.8484 12.613 33.4562 13.0635 33.4562C14.0343 34.0445 13.5839 32.9307 12.8693 31.6914C12.7684 31.5424 12.714 31.2521 12.6596 30.9462C17.3352 30.8286 20.372 32.1228 22.3836 34.4367C23.8049 36.5309 22.7719 49.5358 20.8302 54.5008C20.504 56.4618 18.3682 58.6815 16.6207 60.2503C18.6245 60.1169 21.2186 59.0737 22.4457 57.5677C22.5078 58.9404 22.1195 59.9208 21.537 60.9641C24.0612 59.9208 26.4533 58.2815 28.0067 56.3912C29.6222 58.2893 31.9522 59.9208 34.4764 60.9641C33.8939 59.9208 33.5676 58.9404 33.6376 57.5677C34.8647 59.1365 37.4588 60.1169 39.4626 60.2503C37.7151 58.6815 35.5171 56.4618 35.253 54.5008C33.3113 49.5358 32.2085 36.5231 33.6376 34.4367C35.6491 32.1228 38.6782 30.8286 43.3848 30.9462C43.3304 31.3306 43.2605 31.66 43.1518 31.8875C42.5072 33.064 41.9868 34.2406 43.0198 33.6523C43.4081 33.5896 43.346 33.9818 43.0198 34.2406C41.9169 34.9622 41.6606 37.182 42.6936 36.3349C42.9499 36.1388 43.144 36.2015 42.9499 36.6643C42.1188 38.7037 43.245 39.4488 44.1615 39.0409C44.7673 39.4566 45.8624 39.1037 46.1808 37.9036C46.1808 37.5114 46.4371 37.5742 46.6313 37.9036C47.0895 38.4683 47.3847 37.4957 47.2759 36.5153C47.7963 37.1271 48.4409 37.4643 48.4487 36.931C48.9225 37.6997 49.6292 38.186 49.6758 37.5114C49.6758 37.1192 49.738 36.9231 50.0642 37.2526C51.3845 38.335 52.9922 37.1506 52.169 35.9584C53.6291 36.7427 54.6854 34.7426 53.3029 33.3935C52.8524 33.1346 53.1087 33.0013 53.4971 32.9385C53.9553 32.8523 53.9087 32.5464 53.5825 32.2248C55.2446 32.5228 55.8271 31.2365 55.8271 30.3893C55.9048 29.5265 55.4621 28.1539 53.7301 28.3264ZM40.5033 22.5927C40.5033 22.6006 40.4956 22.6006 40.4878 22.5927H40.5033ZM46.4604 12.7489C46.4527 12.741 46.4449 12.7332 46.4449 12.7253C46.476 12.7253 46.4993 12.7253 46.5303 12.7253C46.507 12.7332 46.4837 12.741 46.4604 12.7489ZM38.8568 6.1288C38.8801 6.05036 38.9034 5.97977 38.9189 5.90133C38.9267 5.95623 38.9345 6.01898 38.9422 6.07389C38.9189 6.08958 38.8879 6.11311 38.8568 6.1288ZM14.6867 25.6831C15.4013 26.6008 15.3314 25.3537 15.0751 24.0516C15.044 23.8948 15.044 23.7222 15.0673 23.5418C16.6129 24.4203 17.7934 25.1811 17.7313 25.5498C17.6847 26.0047 15.8673 26.0282 14.3372 26.1067C14.1974 25.8165 14.3062 25.5106 14.6867 25.6831ZM19.1293 17.5257L19.6652 18.8826L18.1818 18.0904C18.5468 17.9806 18.873 17.761 19.1293 17.5257ZM19.6108 16.8511C19.6807 16.6315 19.6264 16.4668 19.3778 16.4433L19.1215 15.9962C19.6807 15.5099 19.9681 15.0471 20.0613 14.647L19.805 17.1806L19.6108 16.8511ZM23.6185 13.4548C23.735 13.2116 23.9291 13.094 24.0612 13.1489C24.0223 13.447 23.9602 13.6744 23.8748 13.7842C23.7583 13.7999 23.6185 13.7529 23.4631 13.6587C23.5253 13.5881 23.5719 13.5254 23.6185 13.4548ZM25.8864 13.2587C25.8941 13.2587 25.8941 13.2509 25.9019 13.2509C25.8087 14.1921 25.7388 14.8274 25.4359 14.9608C25.1097 14.9608 25.0475 14.898 24.9155 14.5686L24.7757 13.8627C25.0942 13.7215 25.4825 13.5097 25.8864 13.2587ZM31.2221 14.4196L31.191 14.5608C30.9969 14.8902 30.9969 14.9529 30.6707 14.9529C30.3911 14.851 30.2823 14.4196 30.2124 13.7686C30.593 14.0588 30.9425 14.2941 31.2221 14.4196ZM36.8607 16.1295L36.5811 16.608C36.4569 16.655 36.4103 16.757 36.418 16.8825L36.2394 17.1806L36.0142 14.9529C36.1229 15.3059 36.387 15.7059 36.8607 16.1295ZM36.8607 17.6433C37.0782 17.863 37.35 18.0669 37.6452 18.2081L36.3714 18.8905L36.8607 17.6433ZM40.9538 23.5653C40.9926 23.8085 41.0082 24.0203 40.9693 24.1771C40.8062 25.0086 40.7208 25.8086 40.8606 26.0675C39.5791 26.0047 38.3597 25.9184 38.3131 25.5498C38.251 25.1811 39.4238 24.4281 40.9538 23.5653ZM41.3499 25.8792C41.6606 25.7459 41.7849 25.8871 41.7538 26.1145C41.5518 26.1067 41.3499 26.0988 41.148 26.0832C41.2101 26.0361 41.2722 25.9655 41.3499 25.8792ZM51.3379 35.1897C51.3535 35.2132 51.3768 35.2367 51.3923 35.2603C51.3457 35.2367 51.3069 35.2132 51.2603 35.1818C51.2836 35.1897 51.3146 35.1897 51.3379 35.1897ZM48.7516 14.4902C48.6739 14.6706 48.604 14.8667 48.5419 15.0863C48.5186 15.1647 48.5031 15.2275 48.4798 15.2824C48.1536 15.3451 48.0293 15.149 48.3477 14.8902C48.4953 14.7569 48.6351 14.6235 48.7516 14.4902ZM23.7505 31.2992C23.533 32.3424 19.1293 30.2011 14.7023 28.4363C14.9508 27.9656 14.9586 26.8754 14.4304 26.2636C14.4227 26.2557 14.4227 26.2557 14.4149 26.2479C16.108 26.3106 18.073 26.3969 18.6322 26.3969C20.1856 26.5302 23.8126 30.5148 23.7505 31.2992ZM24.9155 27.5735C24.6592 28.5539 22.8418 25.4792 20.1933 24.7654C19.1681 24.6164 17.576 22.7888 16.0226 21.1495C16.1236 20.9612 16.209 20.7416 16.2634 20.4984C16.3799 20.3651 16.5119 20.2474 16.6362 20.1847C17.8012 19.4003 18.7099 18.616 17.607 18.6787C17.5138 18.6316 17.4595 18.5846 17.4284 18.5297C17.4517 18.4512 17.475 18.3728 17.4983 18.2865C17.5216 18.2708 17.5527 18.2473 17.5837 18.2316L20.3254 20.1768C20.7059 22.8672 25.4281 26.2714 24.9155 27.5735ZM26.2048 24.1771C25.5602 25.2909 21.6069 21.2357 20.8302 19.0787L20.4108 14.4431C20.4186 14.4431 20.4341 14.4353 20.4419 14.4353C20.7525 14.3725 21.0555 14.3019 21.3273 14.2235C21.4205 14.5686 22.2904 14.4823 22.9738 14.0588C24.566 15.8863 27.0824 17.361 26.7873 19.4003C27.0514 20.4514 26.7252 23.1967 26.2048 24.1771ZM27.1756 16.7256C26.7252 16.7256 26.399 16.2707 26.399 15.8785C26.2669 15.1961 26.2514 14.2156 26.197 13.1332C26.4223 13.0548 26.6863 12.9999 26.9815 12.9999L27.595 13.1567L27.6339 13.3293H27.797C27.6339 15.0549 27.4164 16.7256 27.1756 16.7256ZM28.2785 13.4391L28.3484 13.4548L28.4105 13.2822L28.9309 13.196C29.3037 13.2509 29.6377 13.3921 29.8474 13.5176C29.793 14.4431 29.7853 15.2745 29.7076 15.8785C29.6455 16.2707 29.3814 16.7256 28.9309 16.7256C28.6901 16.7256 28.4571 15.1255 28.2785 13.4391ZM29.8319 24.1771C29.3115 23.1967 28.993 20.4514 29.2493 19.4082C29.0241 17.5727 31.0512 16.2001 32.6201 14.6078C33.4356 15.3687 34.8414 15.6197 34.2977 14.6314C34.1657 14.4353 34.2356 14.1764 34.6239 14.4353C34.9812 14.6549 35.2996 14.7961 35.587 14.8745L35.2064 19.0787C34.4298 21.2357 30.4765 25.2909 29.8319 24.1771ZM31.1289 27.5735C30.6085 26.2636 35.4006 22.93 35.7268 20.1847L38.2976 18.365C38.4141 18.3806 38.5151 18.4199 38.585 18.4669C38.6083 18.5689 38.6316 18.6709 38.6549 18.7571C38.6238 18.7964 38.5772 18.8356 38.5073 18.8748C37.3423 18.812 38.251 19.5964 39.416 20.3102C39.548 20.4122 39.6801 20.5298 39.8043 20.671C39.8509 20.8593 39.9208 21.0318 39.9907 21.1887C38.4374 22.8123 36.8685 24.6007 35.8511 24.7497C33.2647 25.487 31.3852 28.5539 31.1289 27.5735ZM32.2939 31.2992C32.2939 30.5148 35.8511 26.5302 37.4044 26.3969C38.0258 26.3969 39.9985 26.3106 41.7227 26.2479C41.6994 26.3185 41.6606 26.3891 41.614 26.4596C41.1247 27.0244 41.0936 27.9892 41.2955 28.4833C36.8918 30.2403 32.5502 32.3346 32.2939 31.2992Z" fill="white"/>
</svg>
