<svg width="116" height="46" viewBox="0 0 116 46" fill="none" xmlns="http://www.w3.org/2000/svg">
<path d="M114.732 9.95826C113.963 9.97368 112.933 11.0072 111.949 10.9763C111.826 10.9763 111.718 10.9455 111.595 10.9146C113.041 9.17157 114.87 7.79872 115.946 5.68545C115.823 5.63917 115.777 5.56205 115.808 5.39237C113.84 4.89876 113.24 7.75244 111.457 7.42851C112.518 5.29982 114.716 4.29717 114.793 1.18126C114.624 1.10414 114.47 1.01159 114.363 0.888184C112.087 1.21211 111.718 2.81635 110.304 4.23547C108.813 5.73173 107.491 7.22798 105.999 8.49285C105.661 8.78593 105.308 9.06359 104.954 9.32582C102.402 11.1769 99.9421 12.8891 97.0518 14.2002C94.3306 15.4342 91.2097 16.3135 87.2587 16.6066C87.2126 16.6374 87.1664 16.6528 87.1203 16.6837C86.8743 16.7917 86.6437 16.9305 86.3977 17.0385C83.7842 17.3624 80.94 17.748 78.1266 18.2108C73.699 18.9512 68.9638 19.0283 64.9359 20.2624C63.8443 21.4192 62.0456 22.5607 60.293 22.2985C59.14 22.1134 56.7878 20.3241 54.7892 19.6762C53.221 19.1672 52.3909 18.9821 50.7612 18.8278C50.6536 18.8124 50.546 18.8124 50.423 18.7969C49.4083 19.2906 48.3783 19.7687 46.7948 19.6762C45.8724 20.1544 44.9807 21.9283 45.7801 23.1777C45.8877 23.1315 46.0107 23.0852 46.1183 23.0543C47.8863 22.5299 50.2693 23.8564 50.6997 25.6458C48.4398 25.6149 47.6557 25.0133 46.5027 23.9181H46.4873C40.553 23.8873 34.9877 25.0905 29.0841 25.075C18.2763 24.9979 8.75995 21.265 0.642578 18.1954C0.965428 20.4937 3.53286 20.5246 4.5629 22.1288C4.51678 22.1288 4.45529 22.1288 4.39379 22.1288C4.28617 22.1288 4.16318 22.1288 4.05557 22.1134C3.77884 22.1134 3.51748 22.1288 3.39449 22.2676C4.00944 24.5043 6.89972 24.4889 8.32949 25.908C8.31411 26.2782 7.71453 26.0623 7.89902 26.6484C9.05206 28.1601 10.9738 28.9005 12.6957 29.8569C12.5419 30.0574 12.2959 30.1345 12.2652 30.443C13.6642 31.5691 15.7243 32.0164 17.769 32.4946C18.7529 34.0217 21.182 34.0988 23.1345 34.6696C23.1345 35.0244 22.8731 35.1015 22.9807 35.5488C23.7494 36.3355 25.0562 36.5206 26.4398 36.5206C27.5006 36.5206 28.6076 36.4281 29.53 36.4281C29.6683 36.4281 29.8067 36.4281 29.9451 36.4435C29.9451 36.4743 29.9297 36.4898 29.9297 36.5206C29.8067 36.8445 29.3455 36.8445 29.3609 37.3227C30.4832 37.7546 31.9437 38.0323 33.4349 38.0477C34.3266 38.0477 35.2183 37.9706 36.0331 37.7701C36.2945 38.5259 36.8633 38.7419 37.5551 38.7419C38.4775 38.7419 39.6152 38.3562 40.6145 38.3408C40.7375 38.3408 40.8451 38.3408 40.9681 38.3562C41.168 38.5567 41.0603 39.0504 41.2602 39.2355C41.3832 39.2817 41.4908 39.3126 41.6138 39.3434C41.9059 39.4206 42.1826 39.4514 42.4747 39.4514C43.8891 39.4514 45.2574 38.711 46.5027 38.6647C46.5949 38.6647 46.6872 38.6647 46.7794 38.6647C47.3636 38.6647 47.9171 38.7419 48.4552 38.7419C49.1931 38.7419 49.8695 38.5876 50.4538 37.9243C50.4845 37.878 50.5152 37.8472 50.5614 37.8009C50.5767 37.878 50.6075 37.9397 50.6229 38.0014C50.915 38.7419 51.3608 38.9578 51.8835 38.9578C52.6368 38.9578 53.5593 38.5105 54.4509 38.5105C54.5586 38.5105 54.6508 38.5105 54.7584 38.5259C54.7584 38.5259 54.7584 38.5259 54.7738 38.5259C55.5117 38.094 56.0652 37.1376 57.0952 36.9217C58.8325 36.5669 62.4453 37.8009 63.4754 38.819C64.1365 39.4823 64.0288 40.6392 64.9205 40.8705L65.0281 40.9014C65.1357 42.7062 66.504 43.863 67.6878 44.804C68.1029 44.7886 67.8723 44.1253 68.4257 44.2178C68.9638 44.696 69.0714 45.6061 69.7171 45.9609H69.7325C70.2091 45.9763 70.3628 45.6524 70.8087 45.6215C70.8394 45.6215 70.8856 45.6215 70.9163 45.6215C70.9624 45.6215 70.9932 45.6215 71.0393 45.637C71.0854 45.637 71.1315 45.6524 71.1777 45.6678C71.439 45.4364 71.3775 44.8965 71.6081 44.6497C72.6535 44.6806 72.7612 45.6678 73.8373 45.6678C73.9142 45.6678 73.9911 45.6678 74.0679 45.6524C74.4215 45.3747 74.6829 45.0045 74.8674 44.5572C74.9596 44.3567 75.0365 44.1407 75.0826 43.9093C75.7591 44.5572 76.6046 45.3439 77.6193 45.2822C77.9575 45.2668 78.3265 45.1588 78.7108 44.912C78.9722 44.079 78.5263 43.462 78.5571 43.0455V43.0301C79.2335 43.1843 80.0791 43.6779 80.817 43.6008C81.1091 43.57 81.3705 43.4466 81.6011 43.1843C81.5089 42.6445 81.3244 42.2125 81.309 41.5801C82.8156 42.012 83.6151 41.4259 83.3537 39.6828C83.6304 39.6828 83.9379 39.6828 84.23 39.6828C84.2608 39.6519 84.2915 39.6211 84.3069 39.5902C84.6912 39.0812 84.9372 38.2945 84.6605 37.5078C83.6919 37.1068 82.7695 36.6903 82.4774 35.6105C80.4788 35.0552 78.8646 34.0988 77.2503 33.1425C77.3118 32.7877 76.989 32.8185 77.112 32.4021C78.4648 32.4483 79.4641 32.8494 80.7402 32.9882C80.7709 32.8185 80.7709 32.6643 80.7555 32.5409C80.7555 32.5255 80.7555 32.5255 80.7555 32.51C80.7555 32.4638 80.7402 32.4175 80.7402 32.3558C80.7402 32.3404 80.7402 32.3095 80.7248 32.2941C80.7248 32.2632 80.7094 32.217 80.7094 32.1861C80.6633 31.9393 80.5864 31.7079 80.6018 31.384C80.7094 31.384 80.8017 31.3686 80.9093 31.3686C82.1238 31.3686 83.1846 31.8005 84.2762 31.785C84.5529 31.785 84.8296 31.7542 85.1063 31.6771C85.2447 30.9984 84.5221 31.1835 84.6759 30.5047C84.7989 30.4585 84.9372 30.443 85.0448 30.443C85.7828 30.4276 86.3824 30.9984 87.3355 30.9984C87.4124 30.9984 87.5047 30.9984 87.5815 30.9829C87.6584 30.9675 87.7506 30.9675 87.8429 30.9367C87.8583 30.9058 87.8736 30.875 87.889 30.8441C88.0735 30.4122 87.5661 30.4585 87.7045 29.7643C87.9351 29.7335 88.1657 29.7181 88.3656 29.7181C89.8261 29.7026 90.6717 30.2888 92.0399 30.3505C92.5011 29.8106 91.5172 29.7952 91.7478 29.0393C93.3621 29.0856 96.0525 29.6564 96.5445 28.1601C96.3446 27.7745 95.868 27.6665 95.8065 27.142C97.8666 26.6793 101.249 27.5585 102.048 25.8309C101.464 25.6921 101.157 25.2756 100.742 24.9516C103.14 24.2884 105.707 23.8256 107.414 22.4682C107.429 22.4219 107.429 22.391 107.429 22.3602C107.429 21.8666 106.553 22.2368 106.691 21.6044C107.383 20.9565 108.966 21.1724 109.612 20.4629C109.658 20.4166 109.689 20.3703 109.735 20.3086C109.843 19.7687 109.12 20.0464 109.013 19.7225C109.689 18.8124 111.334 18.8895 111.949 17.9023C111.995 17.8406 112.026 17.7635 112.057 17.6863C111.964 17.4549 111.703 17.3932 111.38 17.3778C111.119 17.3778 110.811 17.4087 110.535 17.4087C110.258 17.4087 110.027 17.3778 109.889 17.239C110.611 15.681 112.795 15.5885 113.517 14.0305C113.333 13.9843 113.425 13.8609 113.517 13.7375C113.363 13.3981 112.718 13.5523 112.487 13.3055C113.21 12.0869 114.809 11.7476 115.101 10.0971C114.962 9.97368 114.855 9.95826 114.732 9.95826Z" fill="white"/>
</svg>
