<svg width="70" height="67" viewBox="0 0 70 67" fill="none" xmlns="http://www.w3.org/2000/svg">
<path d="M36.9125 59.1001C35.9492 58.2228 34.9205 58.902 34.3127 56.8644C33.8264 55.2324 33.471 52.6382 33.3868 51.3553C32.9941 45.365 32.6574 41.5445 33.125 35.0921C33.2092 33.9223 34.0508 32.9412 35.0795 32.1771L35.6967 32.0734C36.6226 32.7526 37.9318 34.4129 38.7829 34.5355C38.8109 34.5355 38.8296 34.5355 38.8577 34.5449C38.9605 34.677 39.7087 34.5355 39.7087 34.3374C40.5597 33.9506 41.4855 33.1771 42.1495 33.262C42.1963 33.2714 42.2337 33.2809 42.2804 33.2903C42.3179 33.479 42.8883 34.0355 43.1034 34.0072C43.6271 34.6581 44.1695 35.4977 44.8803 35.46C45.0767 35.4505 45.245 35.3939 45.3946 35.3185C45.591 35.4317 45.8154 35.46 46.0773 35.2053C46.3485 34.9411 46.3485 34.677 46.255 34.46C46.3766 34.2997 46.4981 34.1487 46.6291 34.0355C46.8535 33.9789 47.0686 33.894 47.2837 33.9506C47.7513 34.0733 48.2843 34.3468 48.3498 34.2997C49.0138 34.6298 49.7432 34.9883 50.2763 34.8468C51.1834 34.5921 51.6042 33.4978 52.2121 33.196C52.7171 32.9412 53.5775 33.0827 54.0731 32.3186C54.1854 32.2432 54.2695 32.1205 54.3256 31.9224C54.3443 31.8375 54.3443 31.7621 54.335 31.7055C54.5501 30.8376 53.9235 30.7055 53.4092 30.498C53.3904 30.4791 53.3624 30.4603 53.3343 30.4414C53.2782 30.4131 53.2221 30.3942 53.1567 30.3848C53.0164 30.2999 52.8948 30.2056 52.8293 30.0546C52.5301 29.3471 53.007 28.4887 52.661 27.7057C52.3243 26.9133 51.2208 26.8661 51.1086 26.2813C51.0151 25.8096 51.5481 25.3096 51.7258 24.621C51.7726 24.555 51.8006 24.4701 51.8193 24.3568C51.8661 24.0927 51.81 23.904 51.6978 23.772C51.3611 22.9324 50.0144 22.2438 49.8741 21.5646C49.7526 20.9514 50.3885 20.3665 50.3417 19.2439C50.5194 19.1402 50.3792 18.244 50.1173 18.1968C49.4814 16.5837 47.5455 16.7158 47.3304 16.0649C47.1154 15.3857 48.6958 14.7159 48.1721 13.2066C47.6484 11.6878 43.3559 11.6689 42.7761 11.0935C42.2337 10.5463 42.7387 9.66904 42.2804 8.90493C42.2711 8.82003 42.2243 8.72569 42.1215 8.62193C41.9344 8.44269 41.7474 8.41439 41.5791 8.44269C40.2979 8.07479 37.6419 8.23516 37.193 7.86725C36.6413 7.41445 37.2304 5.57494 36.4636 4.9712C35.6874 4.37689 33.3775 5.2825 32.807 5.04667C32.5358 4.93347 32.3207 4.35803 32.0963 3.75429C32.1056 3.70712 32.115 3.66939 32.115 3.62222C32.1056 3.48072 32.0308 3.40525 31.9373 3.32979C31.8251 3.03735 31.7035 2.76378 31.5726 2.53738C31.5913 2.33928 31.5726 2.16004 31.2359 2.07514C31.1424 2.05628 31.0582 2.04684 30.9928 2.05628C30.3381 1.90534 29.59 2.56568 28.8044 2.33928C28.0656 2.10344 27.4204 1.1035 26.5974 0.914835C26.5506 0.877102 26.4945 0.848801 26.4104 0.829935C26.2046 0.792201 26.055 0.848801 25.9428 0.943135C24.9889 1.26387 24.5493 2.63172 23.8105 2.91472C23.0998 3.18829 21.669 2.50908 20.6216 2.87698C20.528 2.82038 20.4065 2.80152 20.2101 2.90528C19.9015 3.07509 19.8267 3.29205 19.836 3.50902C19.2375 4.4052 19.172 5.91454 18.826 6.14094C18.3865 6.43338 16.114 6.26358 15.4313 6.84845C14.7486 7.42389 15.0853 9.22567 14.2342 9.86714C13.3739 10.5086 12.0366 9.9426 11.1388 10.3671C10.746 10.5558 10.4842 11.3765 10.241 12.2915C10.241 12.2915 10.241 12.2915 10.241 12.301C10.2129 12.367 10.2036 12.4236 10.1942 12.4708C9.89499 13.6216 9.61443 14.8763 9.13749 15.2064C8.77276 15.4611 8.28647 15.4423 7.80017 15.3668C7.78147 15.3574 7.76276 15.3385 7.74406 15.3291C7.64119 15.2725 7.55702 15.2819 7.4635 15.3102C7.13619 15.2536 6.82758 15.197 6.55637 15.2064C6.4161 15.1027 6.26647 15.0366 6.01397 15.2725C5.78952 15.4894 5.75212 15.697 5.78952 15.8762C5.56508 16.6686 5.74276 17.9421 5.43415 18.4232C5.35934 18.5364 5.24712 18.6308 5.12554 18.7157C5.09749 18.7157 5.06943 18.7157 5.03202 18.7157C4.9385 18.7345 4.88239 18.7911 4.83563 18.8666C4.31193 19.1119 3.6573 19.2817 3.54508 19.725C3.37674 20.3854 4.47091 21.8853 4.24647 22.64C4.02202 23.4041 2.22647 24.4229 2.15165 24.9606C1.98332 26.1586 3.14295 27.7717 2.85304 28.6868C2.56313 29.6018 0.767578 30.0924 0.767578 31.1017C0.767578 32.1111 2.38545 32.7526 2.55378 33.5356C2.72212 34.3091 2.1423 36.0165 2.35739 36.658C2.57249 37.2995 3.60119 38.6485 4.47091 38.6202C4.83563 38.6107 5.6586 38.0259 6.54702 37.3561C6.61249 37.3278 6.65924 37.2901 6.6873 37.2523C7.00526 37.007 7.33258 36.7618 7.64119 36.5259C7.89369 36.4882 8.13684 36.3939 8.33323 36.0354C8.34258 36.026 8.34258 36.0165 8.35193 36.0071C8.53897 35.8656 8.71665 35.743 8.87563 35.6392C8.88498 35.6581 8.90369 35.6769 8.92239 35.6958C9.28712 35.9977 9.63313 35.5637 9.85758 35.4128C10.8769 35.8373 13.2897 37.7429 14.1314 37.724C14.7954 37.7146 15.5622 37.1674 16.2636 36.9127C16.3852 36.9127 16.4974 36.8844 16.5909 36.8184C16.7686 36.7806 16.9369 36.7806 17.0959 36.8089C17.975 37.007 19.1533 38.8937 19.6957 38.9692C20.2007 39.0447 22.866 37.7523 23.4458 36.9787C23.717 38.2428 24.035 39.5258 24.222 40.7615L24.2314 41.3087C24.2594 44.9122 24.1846 48.8082 23.6796 52.2137C23.4178 53.9211 23.0624 57.9115 21.3604 58.9586C20.6496 59.4019 19.9295 59.1001 19.3404 59.4491C18.6951 59.817 18.6296 60.3547 18.2181 61.0622C17.8815 61.6565 17.3671 61.6754 16.8528 61.7131C17.0959 62.1471 17.5542 62.4206 17.9937 62.1848C18.5267 61.9018 18.6483 61.1849 19.0504 60.817C20.2101 59.7416 21.1827 61.8358 23.5674 58.685C23.7357 59.3076 23.4271 60.1 23.1653 60.5245C22.4078 61.7414 20.9769 61.2792 20.5561 61.5433C20.0979 61.8263 19.9856 62.5621 19.4339 62.864L18.9943 63.0998C19.4619 63.9677 20.0979 62.9395 20.6122 62.581C21.1359 62.2037 21.5942 62.298 22.1646 62.3169C23.6983 62.3923 24.4745 61.0811 25.4191 59.9868C25.6342 60.6094 25.4752 61.5716 24.9515 62.0716C24.568 62.4301 24.2688 62.2886 23.9695 62.5338C23.5206 62.93 23.5767 63.9866 22.5106 64.8733C23.2494 65.5148 23.5861 63.6092 25.0169 63.3168C26.6254 62.9866 26.8218 61.8263 27.5232 60.6189C28.5893 62.5055 25.9521 62.7697 26.3262 64.5526C26.7096 64.2885 26.6909 63.8451 27.0837 63.5809C27.4297 63.3451 27.8318 63.3168 28.0563 63.0527C28.4584 62.581 28.608 61.7886 28.9354 61.0811C29.113 61.4867 29.2627 61.7603 29.3842 62.1093C29.7303 63.147 28.6174 63.081 30.1043 64.7884C30.4317 64.1375 30.0669 63.6941 29.8892 62.798C29.8144 62.4206 30.1324 60.8736 30.2072 60.4302L30.6093 61.5622C31.105 62.3263 31.8999 61.949 32.5732 62.4018C33.3962 62.9489 33.5178 64.6847 34.4249 64.0526C33.658 63.7696 33.976 63.2036 33.7422 62.6093C33.4804 61.9678 33.0221 61.9867 32.5171 61.7603C30.946 61.0528 31.6006 58.5152 31.9747 59.6755C32.2927 60.6755 32.5171 60.9679 33.6861 61.2037C34.2192 61.3075 34.7522 61.2792 35.2853 61.5622C35.8277 61.8546 36.0615 62.581 36.7722 62.4772C36.155 61.8924 36.342 61.2226 35.5565 60.7981C34.6867 60.3453 33.1811 60.6377 33.2653 59.1378C34.2192 60.1378 35.5284 59.4208 36.5665 60.2321C37.0154 60.5811 37.2398 61.4301 37.7635 61.6848C38.3059 61.9678 38.8483 61.6471 39.2317 61.0905C38.8483 61.0151 38.5304 61.0151 38.2124 60.7604C37.6139 60.2981 37.4549 59.6 36.9125 59.1001Z" fill="white"/>
<path d="M68.9708 48.1296C67.5961 46.5448 64.5942 48.5353 64.5942 48.5353C64.5942 48.5353 63.9956 47.0259 61.4706 46.7807C58.9456 46.5354 56.8695 47.941 55.8502 47.8561C55.1114 47.7806 55.0085 47.4787 54.9243 47.2146C54.8495 46.9505 54.7093 45.8939 56.2617 45.2241C57.8234 44.5544 59.3758 44.6864 60.2923 43.0639C59.273 43.4224 58.1788 43.0639 58.1788 43.0639C58.1788 43.0639 61.2275 43.0733 62.0505 40.9603C60.9376 41.5546 59.3291 41.5074 59.3291 41.5074C59.3291 41.5074 62.7612 41.1395 62.9202 38.4698C61.3304 39.715 59.8995 39.6301 59.8995 39.6301C59.8995 39.6301 63.7338 38.5453 63.4065 36.3002C61.826 37.6491 60.6196 37.5265 60.6196 37.5265C60.6196 37.5265 63.7525 36.8945 63.4065 33.6965C61.8354 35.753 59.647 36.036 59.2636 36.1775C58.8708 36.3096 53.6151 37.6397 52.8015 38.6302C51.9879 39.6207 51.9317 41.6112 52.0253 42.7809C52.1094 43.9412 52.7173 47.5353 51.062 47.6014C50.4074 47.6108 50.1175 47.2901 49.9959 46.7618C50.3326 46.7524 51.0153 46.6958 51.3332 46.2713C50.9685 46.1958 50.2578 45.6298 49.9024 45.3373C49.9024 45.2902 49.9024 45.2524 49.9024 45.2053C50.2017 45.2336 50.7815 45.2053 51.4455 44.677C51.0153 44.677 50.2578 44.2148 49.893 43.9789C49.893 43.9318 49.893 43.8846 49.8837 43.8469C50.2578 43.8469 51.0527 43.8186 51.3893 43.5356C50.5196 43.2243 50.6973 42.4319 49.5844 42.2149C49.5844 42.2055 49.5844 42.2055 49.5751 42.196C50.0427 42.2243 49.9585 42.2338 50.8189 41.8942C50.0988 41.5451 50.0333 40.781 49.0794 40.847C49.0701 40.8282 49.0607 40.8093 49.0514 40.7905C49.388 40.7244 49.9305 40.6301 50.5477 40.3848C49.6312 40.281 49.4442 39.3377 48.35 39.5452C48.3313 39.5169 48.3032 39.4792 48.2845 39.4509C48.8924 39.149 49.7715 39.0358 49.6592 38.9226C48.6867 38.4698 47.9105 38.4604 47.4335 38.5264C47.4242 38.517 47.4242 38.517 47.4148 38.5076C47.6767 38.4227 48.004 38.3 48.2752 38.1491C47.1623 37.951 46.9098 37.3567 46.0214 37.734C45.9559 37.7152 45.8904 37.6963 45.825 37.6774C46.2271 37.3756 46.9192 37.0831 46.5825 37.1303C46.171 37.1869 44.6934 36.6209 44.0107 37.5359C43.992 37.5359 43.9733 37.5359 43.9546 37.5359C44.1978 37.1303 44.7776 36.5926 44.7776 36.5926C44.7776 36.5926 43.0288 36.536 42.3929 37.8095C42.3742 37.8189 42.3554 37.8189 42.3461 37.8284C42.5051 37.385 43.0755 36.5737 43.0755 36.5737C43.0755 36.5737 41.972 36.6775 41.2706 38.3095C41.2332 38.3283 41.2052 38.3472 41.1678 38.3755C41.28 37.8095 41.7756 36.9228 41.7756 36.9228C40.5131 37.6774 40.3354 38.0642 40.1391 39.2811C39.6995 39.7622 38.6241 40.432 38.6521 40.5074C38.7643 40.7905 39.8024 40.4791 39.8024 40.4791C39.8024 40.4791 39.7837 40.6206 39.765 40.8188C39.3909 40.9603 39.1197 41.1489 38.7737 41.4131C38.7737 41.4131 39.3067 41.63 39.6902 41.5829C39.6808 41.6772 39.6808 41.7527 39.6902 41.7998C39.7182 42.064 39.8772 42.3375 39.924 42.4979C40.0923 43.0922 40.2887 46.5637 40.5131 46.941C40.6815 47.2523 41.2239 47.3844 41.4109 47.3844C41.8224 47.3561 41.5699 45.9694 41.785 45.9883C42.0001 46.0071 41.4764 47.0542 41.9533 47.0637C42.5238 47.0731 42.1684 44.894 42.3929 43.7903C42.477 43.328 43.7582 42.1583 43.2626 41.1018C46.1149 42.0262 42.8698 48.3749 42.9072 50.1861C42.9259 50.9314 42.9072 52.1954 43.1971 52.5256C41.9066 52.5822 37.9975 50.6672 37.5767 50.6861C37.1184 50.705 36.7256 50.9785 36.6508 51.2521C36.5667 51.5728 37.24 56.148 37.3242 56.6103C37.3616 56.8744 37.24 57.1102 37.3803 57.431C37.6047 57.9309 37.7263 57.5064 38.3061 58.5158C38.5025 58.846 39.5686 59.3459 39.8772 59.5063C39.419 57.2612 39.5312 57.5725 38.9794 57.497C38.9701 57.497 38.9701 57.497 38.9607 57.4876V57.4593C38.9607 57.4593 38.9607 57.4687 38.9607 57.4781C38.8298 57.4215 38.4464 57.1197 38.437 56.9876C38.4183 56.8367 38.6428 56.7706 38.6428 56.6857C38.6428 56.6103 38.2687 56.3367 38.2032 56.1386C38.1471 55.9311 37.6702 53.7048 37.6608 53.601C37.4831 52.3464 38.3061 52.2803 39.2506 52.8935C39.5031 53.0633 42.0188 55.1764 43.1597 55.3745C43.5244 55.4311 43.8611 55.4028 44.151 55.3273C44.338 55.865 44.5531 56.6197 44.6186 57.4404C44.6747 58.0536 44.5718 59.1195 44.5718 59.1195C44.5718 59.1195 44.3287 59.6007 44.3567 59.9214C44.3848 60.2327 44.5157 60.5817 44.5157 60.827C44.5157 61.0628 44.6747 62.4118 44.6467 62.9495C44.6186 63.4872 44.4409 64.0721 44.4316 64.1758C44.4222 64.2702 44.5064 64.7041 44.4877 64.9683C44.469 65.2418 43.8985 66.8361 43.8985 66.8361L45.2452 66.5719C44.7776 63.8645 45.348 65.1947 45.507 65.0343C45.5912 64.94 45.4135 64.8268 45.3855 64.6098L45.2639 60.8553C45.4042 60.2138 45.5725 60.7044 45.666 59.0724L46.7882 55.516C47.4896 55.7896 48.4435 56.0348 49.6592 56.0443C52.549 56.0631 54.0172 55.167 54.6064 54.9217C55.1301 54.6859 55.607 54.5066 56.0466 54.3651C56.084 54.5821 56.112 54.7802 56.1401 54.9123C56.4206 56.5065 58.0479 57.563 58.263 59.9874C58.3471 60.9119 57.2249 63.8362 56.5983 65.3739C56.3645 65.9588 56.1962 66.3455 56.1962 66.3455L57.7112 65.9399C57.7112 65.9399 57.6364 64.8362 57.8889 64.657C57.9918 64.5815 58.1788 64.9871 58.2068 64.9777C58.2349 64.9683 58.2162 63.8928 58.2349 63.7136C58.2443 63.5344 58.983 60.8364 59.1046 60.4874C59.2262 60.1384 60.0398 58.6479 60.0024 58.346C59.965 58.0441 59.3665 57.8649 59.1794 57.2517C58.9924 56.582 59.2355 55.733 59.4787 55.1198C60.5074 56.6669 61.667 56.6952 62.1253 57.8649C62.6677 59.2988 62.1253 60.2987 62.1253 60.2987L60.2081 66.0814L61.6857 65.855C61.6857 65.855 61.321 64.4305 61.6203 64.2702C61.7418 64.1947 61.9008 64.8268 62.172 64.6758C62.3217 64.5909 62.1346 63.8079 62.2001 63.3268C62.2749 62.8457 62.7612 61.7892 62.9295 60.9874C63.3036 58.7611 64.1733 58.3271 64.1453 57.6008C64.0798 57.1574 62.9389 56.582 63.3878 54.733C63.5374 54.0632 64.5755 52.6199 64.7812 51.9313C65.4452 50.3654 64.6596 48.922 64.6596 48.922C64.6596 48.922 65.5293 48.6296 66.2214 49.0069C67.353 49.6201 66.9976 51.4879 66.9134 51.9596C66.8386 52.4313 65.8567 55.016 65.9595 56.1763C66.0624 57.6668 67.4932 57.9875 67.4932 57.9875C67.4932 57.9875 66.53 57.0631 66.8573 55.9405C67.0256 57.7989 68.2788 57.7517 68.2788 57.7517C68.2788 57.7517 67.1659 56.8461 67.7831 55.3556C67.8112 56.997 68.709 57.3461 68.709 57.3461C68.709 57.3461 67.8299 56.1858 68.391 54.8934C68.5968 56.4405 69.0831 56.7612 69.0831 56.7612C69.0831 56.7612 68.5874 54.799 69.1485 53.6293C69.719 52.4784 70.3456 49.705 68.9708 48.1296Z" fill="white"/>
</svg>
