<svg width="84" height="64" viewBox="0 0 84 64" fill="none" xmlns="http://www.w3.org/2000/svg">
<path d="M75.1641 29.5147C76.6164 29.794 77.8432 29.4787 78.9256 29.1993C79.6292 29.0191 80.2336 28.866 80.7478 28.92C82.0016 29.0552 82.5429 29.4967 82.5519 29.4967C82.7233 29.6499 82.9849 29.6319 83.1382 29.4607C83.2915 29.2895 83.2735 29.0281 83.1021 28.875C83.03 28.8119 82.3534 28.2623 80.847 28.1001C80.1795 28.028 79.4759 28.2082 78.7272 28.4064C77.7259 28.6677 76.5984 28.9561 75.3175 28.7128H75.2904C74.686 28.6317 73.5855 28.1271 72.4219 27.5955C70.5366 26.7305 68.3897 25.7573 66.9374 25.8564C65.6926 25.9375 64.096 26.6584 62.5535 27.4423C62.5805 27.4243 62.6166 27.4063 62.6437 27.3882C64.0509 26.4962 65.5032 25.5861 67.2982 25.4149C68.9761 25.2978 70.3742 26.1358 71.7273 26.9467C72.8639 27.6225 73.9373 28.2713 75.128 28.3433C76.6615 28.4875 77.78 28.091 78.6731 27.7667C79.1963 27.5774 79.6563 27.4153 80.0171 27.4423H80.0442C81.3341 27.4423 82.4436 28.1271 82.4526 28.1271C82.6511 28.2442 82.9037 28.1902 83.0209 27.9919C83.1382 27.7937 83.0841 27.5414 82.8856 27.4243C82.8315 27.3882 81.5686 26.6133 80.0442 26.6133C79.512 26.5773 78.9888 26.7665 78.3844 26.9828C77.5184 27.2891 76.5442 27.6405 75.1821 27.5144H75.1641C74.1719 27.4513 73.1796 26.8656 72.1332 26.2349C70.7351 25.3969 69.1565 24.4508 67.2171 24.586H67.208C65.2145 24.7752 63.672 25.7483 62.1836 26.6854C61.1824 27.3161 60.2442 27.9108 59.243 28.2082C58.4492 28.4154 57.7817 28.5416 57.2404 28.6227C56.2031 27.6676 54.9131 26.9918 53.1091 26.5773C50.1774 25.9015 45.144 27.0278 44.3862 26.9557C43.5924 26.8836 39.0822 26.4692 36.1235 24.1895C36.8451 24.0093 37.3773 24.1444 37.8645 24.2616C38.1351 24.3246 38.4057 24.3967 38.6763 24.3967C38.8928 24.3967 39.1093 24.3517 39.3258 24.2345C39.5242 24.1264 39.6054 23.8741 39.4881 23.6759C39.3799 23.4777 39.1273 23.3966 38.9289 23.5137C38.7304 23.6218 38.4959 23.5678 38.0719 23.4596C37.4675 23.3065 36.6467 23.0992 35.5191 23.5047C35.483 23.4326 35.447 23.3695 35.4199 23.2974C35.8168 23.0271 36.6377 23.1713 37.3142 23.2884C38.0449 23.4146 38.6853 23.5227 39.0822 23.2254C39.2626 23.0902 39.3077 22.8289 39.1634 22.6487C39.0281 22.4685 38.7665 22.4324 38.5861 22.5676C38.4508 22.6487 37.8284 22.5406 37.4585 22.4775C36.7098 22.3513 35.889 22.2072 35.2485 22.4685C35.2395 22.3694 35.2395 22.2612 35.2305 22.1441C35.483 21.9909 36.3761 22.1441 36.9083 22.2342C37.3683 22.3153 37.8013 22.3874 38.1621 22.3874C38.4688 22.3874 38.7304 22.3333 38.9289 22.1891C39.1093 22.054 39.1544 21.7927 39.0101 21.6125C38.8747 21.4323 38.6131 21.3872 38.4327 21.5314C38.2613 21.6305 37.4766 21.4953 37.0526 21.4233C36.3761 21.3061 35.7266 21.198 35.2305 21.2881C35.2305 21.216 35.2395 21.1529 35.2395 21.0718C36.5565 20.6033 37.2511 20.8736 37.7562 21.0809C37.9907 21.171 38.2253 21.2701 38.4778 21.2701C38.6041 21.2701 38.7304 21.243 38.8567 21.189C39.0642 21.0989 39.1634 20.8466 39.0642 20.6393C38.974 20.4321 38.7214 20.333 38.5139 20.4321C38.4418 20.4681 38.2614 20.3961 38.0629 20.315C37.8194 20.2158 37.5036 20.0897 37.0977 20.0356C37.2601 20.0537 37.4224 20.0717 37.5848 20.0897C38.1982 20.1618 38.6853 20.2249 39.0191 20.0537C39.2265 19.9545 39.3077 19.7022 39.2085 19.495C39.1093 19.2878 38.8567 19.2067 38.6492 19.3058C38.5229 19.3598 38.0358 19.2968 37.684 19.2607C37.0255 19.1796 36.2047 19.0805 35.4379 19.2427C35.4379 19.2337 35.4379 19.2157 35.447 19.2067C35.8709 19.1886 36.349 19.0805 36.8542 18.9634C37.6389 18.7832 38.532 18.5759 38.9198 18.8282C39.1093 18.9544 39.3709 18.9003 39.4972 18.7111C39.6234 18.5219 39.5693 18.2606 39.3799 18.1344C38.7034 17.6839 37.666 17.9182 36.6737 18.1524C36.2949 18.2425 35.898 18.3326 35.5732 18.3687C35.6003 18.1524 35.6364 17.9362 35.6635 17.7199C36.3941 17.7109 37.0616 17.5577 37.6389 17.4226C38.3155 17.2694 38.9108 17.1342 39.2356 17.3325C39.434 17.4496 39.6866 17.3955 39.8039 17.1973C39.9211 16.9991 39.867 16.7468 39.6685 16.6297C39.0461 16.2512 38.3065 16.4224 37.4495 16.6206C36.9353 16.7378 36.3761 16.8639 35.7807 16.891C35.7897 16.7918 35.8078 16.6927 35.8168 16.5936C36.3039 16.5305 36.8271 16.4044 37.3413 16.2782C38.108 16.098 39.1544 15.8457 39.425 16.044C39.6144 16.1791 39.867 16.1341 40.0023 15.9539C40.1376 15.7646 40.0925 15.5123 39.9121 15.3772C39.3258 14.9537 38.3155 15.197 37.1428 15.4763C36.7369 15.5754 36.3039 15.6745 35.916 15.7466C35.9341 15.5664 35.9521 15.3862 35.9701 15.206C36.3851 15.206 36.8542 15.1609 37.3593 15.1249C38.1802 15.0528 39.416 14.9537 39.6866 15.197C39.7678 15.2691 39.867 15.3051 39.9662 15.3051C40.0835 15.3051 40.1917 15.26 40.2729 15.1699C40.4263 14.9987 40.4082 14.7374 40.2459 14.5843C39.7046 14.0977 38.532 14.1968 37.2871 14.3049C36.8812 14.341 36.4212 14.377 36.0423 14.386C36.0513 14.2959 36.0513 14.2058 36.0604 14.1157C36.5294 14.1427 37.0887 14.0977 37.6931 14.0436C38.568 13.9715 39.7588 13.8724 40.0654 14.1518C40.1466 14.2238 40.2459 14.2599 40.3451 14.2599C40.4623 14.2599 40.5706 14.2148 40.6518 14.1247C40.8051 13.9535 40.7961 13.6922 40.6247 13.539C40.0474 13.0164 38.8657 13.1155 37.6209 13.2147C37.1157 13.2597 36.5294 13.3048 36.0964 13.2867C36.0964 13.1966 36.1055 13.1155 36.1055 13.0254C36.5204 13.0344 37.0075 13.0254 37.5848 13.0074C38.4147 12.9804 39.9662 12.9263 40.2098 13.1606C40.291 13.2417 40.3992 13.2777 40.5074 13.2777C40.6157 13.2777 40.7239 13.2417 40.8051 13.1606C40.9675 12.9984 40.9675 12.7371 40.8051 12.5749C40.3541 12.1244 39.2807 12.1244 37.5668 12.1784C37.1338 12.1965 36.5745 12.2145 36.1145 12.1965C36.1145 12.1244 36.1145 12.0433 36.1055 11.9712C36.5835 11.9712 37.1067 11.9532 37.648 11.9262C38.5139 11.8901 39.9752 11.827 40.2098 12.0343C40.291 12.1154 40.3992 12.1514 40.4984 12.1514C40.6067 12.1514 40.7149 12.1154 40.7961 12.0343C40.9585 11.8721 40.9585 11.6108 40.7961 11.4486C40.3541 11.0071 39.2987 11.0251 37.6119 11.0972C37.1248 11.1152 36.5655 11.1422 36.0604 11.1422C36.0423 10.98 36.0243 10.8088 36.0062 10.6467C36.4031 10.6557 36.8451 10.6376 37.3142 10.6196C38.3516 10.5836 39.7678 10.5295 40.1376 10.8989C40.2188 10.98 40.327 11.0161 40.4353 11.0161C40.5435 11.0161 40.6518 10.98 40.733 10.8989C40.8953 10.7368 40.8953 10.4755 40.733 10.3133C40.1105 9.69154 38.7485 9.73659 37.2962 9.79065C36.8181 9.80867 36.3039 9.8267 35.8799 9.80867C35.8799 9.79065 35.8709 9.77263 35.8709 9.7456C36.3219 9.76362 36.8361 9.7456 37.3864 9.72758C38.4418 9.69154 39.7588 9.64648 40.2008 9.96185C40.3902 10.097 40.6428 10.052 40.7781 9.86274C40.9134 9.67352 40.8683 9.42122 40.6788 9.28606C40.5977 9.232 40.5075 9.17794 40.4082 9.13288C40.5345 9.11486 40.6428 9.05179 40.7149 8.93465C40.8322 8.73642 40.769 8.48413 40.5796 8.36699C39.4881 7.70021 37.9366 7.8624 36.5835 7.99756C36.5745 7.99756 36.5655 7.99756 36.5565 7.99756C37.5938 7.74526 38.7845 7.51099 39.3077 7.8624C39.4972 7.98855 39.7588 7.93448 39.885 7.74526C40.0113 7.55604 39.9572 7.29473 39.7678 7.16859C39.6325 7.07848 39.4791 7.0064 39.3167 6.96134C39.3528 6.93431 39.3889 6.90728 39.416 6.87124C39.5603 6.69103 39.5332 6.42972 39.3528 6.28555C39.2536 6.20446 38.9469 5.96118 36.8542 5.9792C35.9611 5.98821 35.041 6.04227 34.2472 6.14139C34.1841 6.06029 34.121 5.9792 34.0578 5.90711C35.2215 5.70888 36.8451 5.54669 38.2704 5.81701C38.4959 5.86206 38.7124 5.71789 38.7575 5.49263C38.8026 5.26736 38.6583 5.05111 38.4327 5.00606C37.9456 4.91595 37.4495 4.86189 36.9534 4.84387C37.1789 4.77178 37.3864 4.67267 37.5668 4.5285C37.7472 4.38433 37.7652 4.12303 37.6209 3.94282C37.4766 3.7626 37.215 3.74458 37.0346 3.88875C36.4392 4.37532 34.7794 4.05094 33.4444 3.78964C32.5694 3.61844 31.8207 3.47427 31.2705 3.5013C30.8736 3.23999 30.4947 3.02374 30.179 2.85254C30.9909 2.5642 31.956 2.87957 33.0475 3.23098C33.8864 3.5013 34.7524 3.78063 35.6003 3.78063C35.8168 3.78063 36.0423 3.7626 36.2588 3.71755C36.4843 3.6725 36.6286 3.45625 36.5835 3.23098C36.5384 3.00572 36.3219 2.86155 36.0964 2.9066C35.6454 2.99671 35.1583 2.94265 34.6532 2.83452C35.023 2.87957 35.3928 2.86155 35.7807 2.7354C35.9972 2.66332 36.1145 2.42905 36.0423 2.21279C35.9701 1.99654 35.7356 1.8794 35.5191 1.95149C34.7975 2.19477 34.0668 1.87039 33.2099 1.50096C31.9019 0.933297 30.3053 0.239485 28.4651 1.77128C27.6803 1.06845 26.4896 0.122348 26.1469 0.275527C25.759 0.66298 26.0567 1.28471 26.3273 1.80732C26.0747 1.65414 25.8402 1.55502 25.768 1.55502C25.6146 1.48294 24.2616 0.879233 23.9639 1.25768C23.7474 1.50997 24.2435 2.3029 24.7036 2.93364C24.4871 2.96067 24.2616 2.99671 24.0361 3.05978C23.3595 4.03292 21.2578 5.3845 20.8067 5.76294C18.5516 7.41187 15.1689 8.91663 14.8713 9.21398C14.2669 9.96185 14.5736 10.7908 14.5736 10.7908C14.5736 10.7908 15.0697 10.8359 15.5027 10.6557C15.0427 10.8899 14.5014 10.944 14.5014 10.944C14.5014 10.944 14.3481 11.8451 14.5014 12.0703C14.5736 12.2235 14.7991 12.3677 15.1058 12.4488C15.5568 12.6019 18.4885 10.7998 18.6418 11.3945C18.7952 11.9171 15.187 12.674 16.1612 13.6472C17.0632 14.6203 22.0245 11.6919 22.0245 11.6919L22.1147 11.6739C23.2603 12.2055 24.9111 12.4758 26.4536 12.2866H26.4626C26.4626 12.2866 23.0077 15.2871 21.5735 17.765C20.1482 20.2429 19.9949 21.3692 19.6972 22.2702C19.589 22.5225 19.3093 23.1803 18.9575 23.9913C17.1534 25.1446 16.4228 27.0909 16.1883 28.7759C15.3584 28.4064 13.8429 27.7667 13.1574 27.6045C12.1832 27.3792 11.1278 27.0819 10.4512 27.0008C9.70253 26.8476 8.87265 25.7213 7.51958 26.0276C6.09435 26.325 4.20907 31.506 3.61372 32.5603C3.00934 33.5334 0.456551 37.444 0.456551 38.1919C0.384387 38.8677 1.06092 39.165 1.13309 39.9219C1.13309 40.5977 0.682063 41.6519 0.682063 42.0213C0.682063 45.7787 1.3586 46.2293 1.3586 46.2293C1.3586 46.2293 3.46037 44.4272 3.68588 43.2287C3.61372 42.4809 2.856 41.0482 2.856 41.0482C2.856 41.0482 2.47714 40.4445 2.78383 39.9219C3.16269 39.4714 3.83923 40.4445 3.83923 40.4445C3.83923 40.4445 3.54155 38.7145 3.61372 38.5703C3.68588 38.4171 4.36242 39.5434 4.36242 39.5434L4.20907 37.8134C4.20907 37.8134 6.84305 30.0824 8.04277 29.4787C8.65616 29.1092 10.7128 30.7401 11.4525 31.3529C10.7579 31.2988 9.28759 29.9652 7.88942 31.5781C6.83402 32.7044 8.34044 34.6597 8.63812 34.9571C8.86363 35.2544 11.9486 41.0392 12.2463 41.4897C12.9228 42.3908 12.7695 44.6434 14.0504 45.3913C14.7991 45.8418 15.4756 45.3192 16.3777 45.5445C17.2797 45.8418 17.4331 46.4455 17.8029 46.6708C19.0026 47.3466 20.6624 47.3466 20.6624 47.3466C20.6624 47.3466 20.4369 44.4902 19.0117 43.0666C18.1096 42.616 16.1522 43.8955 15.4756 42.7692C15.178 42.3908 17.0542 42.0934 17.0542 42.0934C17.0542 42.0934 15.4756 42.0213 15.4035 41.715C15.178 41.1113 16.6844 41.3365 16.6844 41.3365C16.6844 41.3365 15.178 40.7328 14.5014 40.1381C13.8249 39.6155 11.7231 36.606 12.3185 35.4797C12.8417 34.4255 20.8158 39.6876 22.241 39.0839C22.8454 38.7685 23.3776 38.291 23.8376 37.7503C25.2899 38.8136 29.0695 41.3636 32.6145 42.0123C39.6144 43.0666 41.4817 41.9493 44.296 41.1113C44.4223 41.5528 44.5937 42.0123 44.7922 42.4629C46.5963 46.3644 50.2766 47.716 50.2766 49.446C50.1233 52.3024 42.6814 56.5824 42.3837 57.0329C42.086 57.4834 42.2304 57.8619 41.9327 58.3845C41.5538 58.835 38.8477 62.1419 38.8477 63.115C38.7755 63.7908 42.9069 62.8176 43.2046 62.3671C43.4301 61.9887 43.1324 60.4929 43.2046 59.8171C43.2046 59.1414 43.6556 58.5376 43.9533 58.4656C44.2509 58.5376 44.8553 59.8171 44.8553 59.8171C44.8553 59.8171 45.0087 57.943 45.0808 57.8619C45.3063 57.7898 45.604 59.0603 45.604 59.0603C45.604 59.0603 46.3527 56.7355 46.5782 56.6544C47.1014 56.276 48.3823 54.4018 51.5395 52.9781C54.6245 51.5545 55.8964 51.104 56.0497 50.1218C56.2031 49.2928 54.6245 49.2928 53.948 47.6439C53.1993 45.995 53.4969 44.7876 53.6503 44.265C53.6954 44.0938 53.7585 43.8685 53.8217 43.5892C58.0703 45.0849 60.1721 43.8595 62.5896 45.3102C65.1424 46.887 66.1256 54.546 66.7209 55.375C67.3975 56.2039 69.2737 56.5734 69.4271 56.8797C70.9335 59.8802 72.9631 59.5829 72.9631 59.5829C72.9631 59.5829 72.6654 55.3029 71.9889 54.9244C70.9335 55.2218 68.9039 54.7712 68.9039 54.0955C68.8317 53.4197 69.8781 53.3476 69.8781 53.3476C69.8781 53.3476 68.9761 52.7439 68.9761 52.6718C68.9761 52.5186 69.6526 52.5186 69.6526 52.5186C69.6526 52.5186 68.2995 51.8428 67.5508 50.6444C66.1978 48.3918 66.4954 40.8049 65.6746 41.1113C64.2493 41.4897 62.9684 40.9581 62.1385 40.2823C61.7597 39.8318 61.3087 39.8318 60.7855 38.1018C60.3254 36.6691 60.7223 34.5065 59.6128 31.9566C60.0729 31.7043 60.596 31.497 61.1463 31.3258C63.7893 30.7852 66.1797 30.9834 67.0096 31.3529L67.0276 31.3619C67.4606 31.5241 68.2364 32.2539 68.9941 32.9567C70.1668 34.056 71.4928 35.2905 72.6384 35.5788H72.6564C73.8201 35.8221 74.8394 35.6058 75.8226 35.3986C76.4631 35.2634 77.0764 35.1373 77.6989 35.1373C79.079 35.1373 79.8006 35.759 79.8277 35.786C79.9089 35.8581 80.0081 35.8942 80.1073 35.8942C80.2246 35.8942 80.3328 35.8491 80.414 35.759C80.5674 35.5878 80.5583 35.3265 80.387 35.1733C80.3509 35.1373 79.4308 34.3173 77.7259 34.3173C78.1228 34.2633 78.5107 34.2272 78.8805 34.2452C79.8006 34.3083 80.6937 34.921 80.7027 34.921C80.8921 35.0472 81.1447 35.0021 81.28 34.8129C81.4063 34.6237 81.3612 34.3624 81.1717 34.2362C81.1266 34.2092 80.0893 33.4974 78.9256 33.4163C78.3393 33.3892 77.771 33.4703 77.1757 33.5604C76.2466 33.6956 75.2904 33.8398 74.1087 33.5785C73.2247 33.3802 72.1603 32.6324 71.141 31.9025C70.0856 31.1546 69.0121 30.3887 67.9567 30.0824C68.1372 30.0914 68.3176 30.1004 68.4799 30.1184H68.489C70.0585 30.2716 71.0417 31.0285 71.9889 31.7583C72.8549 32.4251 73.7479 33.1189 75.0108 33.2721C76.3819 33.4433 77.0404 33.2451 77.6267 33.0649C78.0958 32.9207 78.5107 32.8036 79.2955 32.8937C80.9372 33.0919 81.4424 33.5875 81.4424 33.5875L81.4333 33.5785L82.0557 33.0288C81.9926 32.9567 81.3702 32.299 79.3857 32.0647C78.4205 31.9476 77.8883 32.1098 77.3741 32.2629C76.8239 32.4341 76.2917 32.5873 75.101 32.4431C74.0636 32.317 73.3329 31.7493 72.485 31.1006C72.0971 30.8032 71.6822 30.4788 71.2222 30.1995C71.2943 30.2446 71.3755 30.2896 71.4477 30.3347C72.494 30.9474 73.5765 31.5871 75.0649 31.8394H75.0739C76.2285 32.0106 77.1035 31.7583 77.8793 31.5331C78.5287 31.3439 79.097 31.1817 79.7194 31.3078H79.7375C81.5235 31.5691 82.0287 32.1278 82.0377 32.1368L82.0287 32.1278L82.6872 31.6232C82.624 31.5421 82.0016 30.8122 79.8728 30.4969C79.061 30.3347 78.3483 30.5419 77.6538 30.7401C76.9231 30.9474 76.1744 31.1636 75.2002 31.0195C73.8652 30.7942 72.8549 30.1905 71.8716 29.6138C70.6629 28.902 69.4 28.1631 67.623 28.1631C66.6849 28.1631 65.7467 28.3884 64.8176 28.6948C65.7918 28.2623 66.6849 27.9289 67.5779 27.8658C69.2467 27.7486 70.7892 28.6227 72.2775 29.4697C73.4412 30.1274 74.5327 30.7582 75.579 30.7942C76.8058 30.8393 77.5094 30.587 78.1318 30.3617C78.664 30.1725 79.1151 30.0103 79.8548 30.0463C81.4514 30.1094 82.2813 30.8212 82.2993 30.8393C82.4707 30.9924 82.7323 30.9834 82.8856 30.8122C83.039 30.641 83.03 30.3797 82.8586 30.2265C82.8135 30.1905 81.8212 29.2985 79.8908 29.2174C78.9888 29.1813 78.4115 29.3886 77.8522 29.5868C77.2749 29.794 76.6705 30.0103 75.6061 29.9743C74.7672 29.9472 73.7569 29.3705 72.6835 28.7578C72.2144 28.4875 71.7183 28.2082 71.2041 27.9559C71.4928 28.082 71.7814 28.2172 72.052 28.3433C73.342 28.911 74.4425 29.4156 75.1641 29.5147ZM16.0439 10.1421C16.1071 10.0069 16.1432 9.84472 16.1432 9.65549C16.1612 9.84472 16.1161 10.0069 16.0439 10.1421ZM23.4407 6.35764C23.2874 6.20446 23.8917 5.00606 24.3428 4.93397C24.7938 4.7808 25.317 5.31242 25.9935 5.53768C25.317 6.42972 23.585 6.5829 23.4407 6.35764ZM36.358 19.9455C36.4302 19.9455 36.5114 19.9455 36.5926 19.9545C36.2317 19.9545 35.8168 20.0086 35.3387 20.1438C35.3387 20.1257 35.3387 20.1167 35.3477 20.0987C35.6454 19.9906 35.9972 19.9455 36.358 19.9455ZM36.6467 8.78147C37.8193 8.66434 39.1363 8.52918 40.0023 8.96168C39.5783 8.85356 39.0642 8.82653 38.5049 8.82653C38.1351 8.82653 37.7472 8.83554 37.3503 8.85356C36.8271 8.87158 36.2317 8.8896 35.7627 8.86257C36.0423 8.84455 36.34 8.81752 36.6467 8.78147ZM38.2614 6.82619C37.4856 6.86223 36.6196 7.08749 35.8078 7.29473C35.5913 7.3488 35.3387 7.41187 35.0952 7.47495C34.9959 7.27671 34.8877 7.07848 34.7704 6.88926C36.0874 6.76311 37.4856 6.7541 38.2614 6.82619ZM33.255 4.57355C33.8774 4.6997 34.5088 4.81684 35.0952 4.88892C34.4367 4.952 33.8413 5.06012 33.3632 5.15023C33.1016 4.89793 32.84 4.65465 32.5694 4.4384C32.7949 4.48345 33.0295 4.5285 33.255 4.57355ZM32.84 2.21279C33.0205 2.29389 33.2009 2.37498 33.3903 2.44707C33.3452 2.42905 33.3001 2.42003 33.264 2.40201C31.938 1.96951 30.4496 1.49195 29.2319 2.36597C29.1326 2.32092 29.0785 2.3029 29.0785 2.3029C29.0785 2.3029 29.0695 2.29389 29.0605 2.28488C30.4496 1.16757 31.5682 1.65414 32.84 2.21279ZM70.6629 32.5783C71.8085 33.3892 72.8819 34.1551 73.9373 34.3894C74.677 34.5516 75.3445 34.5786 75.9579 34.5426C75.8587 34.5606 75.7595 34.5786 75.6693 34.6057C74.7221 34.8039 73.8381 34.9931 72.8458 34.7859C71.9167 34.5516 70.6719 33.3892 69.5804 32.362C68.9761 31.7944 68.4348 31.2898 67.9567 30.9474C68.8047 31.2628 69.7518 31.9295 70.6629 32.5783ZM67.641 28.9921C68.958 28.9921 69.9413 29.4516 70.9245 30.0103C70.275 29.6589 69.5263 29.3796 68.5882 29.2895C67.5779 29.1723 66.2789 29.2985 64.9529 29.5237C65.864 29.2174 66.757 28.9921 67.641 28.9921ZM59.3783 29.0101C59.2249 29.0732 59.0896 29.1273 58.9724 29.1543C58.6115 29.2354 58.2868 29.3075 57.9981 29.3615C57.9891 29.3525 57.9801 29.3345 57.9621 29.3255C58.377 29.2444 58.8461 29.1453 59.3783 29.0101ZM67.5328 27.0458C66.1887 27.1449 64.8717 27.7577 63.4826 28.4154C62.0303 29.0912 60.4337 29.8391 58.5574 30.1094L58.5484 30.1004C58.7378 30.0644 58.9363 30.0193 59.1528 29.9652L59.1708 29.9562C59.8022 29.776 60.7223 29.2985 61.7958 28.7398C63.4916 27.8568 65.6024 26.7575 66.9735 26.6674C67.0276 26.6674 67.0727 26.6584 67.1269 26.6584C67.8665 26.6584 68.8768 26.9828 69.9142 27.3972C69.1655 27.1359 68.3717 26.9828 67.5328 27.0458Z" fill="white"/>
<path d="M23.8906 5.82608C23.8906 5.52873 24.1161 5.30347 24.3416 5.30347C24.6393 5.30347 24.8648 5.52873 24.8648 5.82608C24.8648 6.05134 24.6393 6.2766 24.3416 6.2766C24.1161 6.2766 23.8906 6.05134 23.8906 5.82608Z" fill="white"/>
</svg>
