<svg width="72" height="78" viewBox="0 0 72 78" fill="none" xmlns="http://www.w3.org/2000/svg">
<path d="M35.9461 0.680664C35.9461 0.680664 32.6719 0.999496 32.4561 4.08579C32.1388 7.27411 35.0958 47.447 35.0958 47.447C35.0958 47.447 28.5347 20.0274 14.7906 16.5202C10.9834 16.2014 10.3489 19.3897 10.3489 19.3897C10.3489 19.3897 9.81588 22.2592 13.3058 22.5781C27.2656 24.1722 35.6161 52.1274 35.0958 57.1139C33.6237 53.5048 22.8366 28.1002 7.49348 27.9982C0.412064 28.317 0.830857 32.143 0.830857 32.143C0.932383 35.867 5.37413 35.4334 5.37413 35.4334C34.3597 38.5197 35.0958 72.099 35.0958 72.099V77.2004H36.7836V72.099C36.7836 72.099 37.5197 38.5197 66.5053 35.4334C66.5053 35.4334 70.947 35.8542 71.0486 32.143C71.0486 32.143 71.4674 28.317 64.3859 27.9982C49.0556 27.9982 38.2685 53.5048 36.7836 57.1139C36.2633 52.1147 44.6138 24.1722 58.5736 22.5781C62.0635 22.2592 61.5305 19.3897 61.5305 19.3897C61.5305 19.3897 60.896 16.2014 57.0888 16.5202C43.3447 19.9254 36.7836 47.447 36.7836 47.447C36.7836 47.447 39.7406 7.17208 39.4233 4.08579C39.2203 0.999496 35.9461 0.680664 35.9461 0.680664Z" fill="white"/>
</svg>
