<svg width="54" height="66" viewBox="0 0 54 66" fill="none" xmlns="http://www.w3.org/2000/svg">
<path d="M53.6203 27.531C53.5716 27.4181 53.4336 27.3697 53.3201 27.4181L48.4842 29.6204H48.4761H48.3057C48.1515 29.5801 48.0136 29.5397 47.8838 29.4994L53.0361 27.0954C53.1497 27.0389 53.1983 26.9098 53.1415 26.7969C53.0848 26.684 52.9549 26.6356 52.8413 26.692L47.2752 29.2897C47.0967 29.2171 46.9507 29.1444 46.8289 29.0799L52.6953 26.3613C52.8089 26.3048 52.8576 26.1757 52.8089 26.0628C52.7602 25.9498 52.6223 25.9014 52.5087 25.9498L47.2103 28.4023C47.3888 28.2006 47.5349 27.9908 47.6728 27.765L52.3626 25.611C52.4762 25.5626 52.5249 25.4255 52.4762 25.3125C52.4275 25.1996 52.2896 25.1512 52.176 25.1996L48.0298 27.1034C48.0866 26.9824 48.1434 26.8614 48.2002 26.7485C48.2408 26.6678 48.2813 26.5871 48.3138 26.5065L52.0299 24.8124C52.1435 24.764 52.1922 24.6268 52.1435 24.5139C52.0949 24.4009 51.9569 24.3525 51.8433 24.4009L48.6627 25.853C48.8655 25.5223 49.1008 25.2561 49.4092 25.1028C49.4254 25.0947 49.4497 25.0866 49.466 25.0786L51.6324 24.0702C51.7135 24.0298 51.7622 23.9492 51.7622 23.8685C51.7622 23.8362 51.7541 23.804 51.7378 23.7717C51.681 23.6588 51.5512 23.6104 51.4376 23.6668L49.2631 24.6591C49.2469 24.6672 49.2225 24.6752 49.2063 24.6833C48.8736 24.8204 48.5166 24.8285 48.1191 24.764L51.2835 23.3199C51.3971 23.2715 51.4457 23.1344 51.3971 23.0214C51.3484 22.9085 51.2104 22.8601 51.0968 22.9085L47.3888 24.5946C47.3077 24.5703 47.2265 24.5542 47.1454 24.53C47.048 24.5058 46.9588 24.4816 46.8614 24.4574L50.9508 22.5778C51.0644 22.5293 51.1131 22.3922 51.0644 22.2793C51.0157 22.1663 50.8778 22.1179 50.7642 22.1663L46.1393 24.288C45.8796 24.2396 45.6119 24.2073 45.336 24.2073L50.5451 21.771C50.6587 21.7146 50.7074 21.5855 50.6506 21.4725C50.5938 21.3596 50.464 21.3112 50.3504 21.3677L44.4759 24.1186C44.5084 23.9895 44.5489 23.8282 44.6057 23.6507L50.2043 21.045C50.3179 20.9885 50.3666 20.8594 50.3098 20.7465C50.253 20.6336 50.1232 20.5852 50.0096 20.6416L44.8248 23.0618C44.8897 22.9085 44.9546 22.7391 45.0439 22.5616L45.0682 22.5051L49.8635 20.3109C49.9771 20.2625 50.0258 20.1253 49.9771 20.0124C49.9285 19.8994 49.7905 19.851 49.6769 19.8994L44.841 22.1099C44.8248 22.1179 44.8086 22.1179 44.7924 22.126C44.7924 22.126 44.7761 22.1341 44.7437 22.1502L43.0479 22.9246C42.9424 22.973 42.8937 23.0941 42.9262 23.207C42.3744 23.562 42.0986 23.7878 41.9769 23.9492C41.2141 24.046 38.5528 25.5061 38.1714 26.0547C38.1228 26.0628 38.0741 26.087 38.0092 26.1192C37.5548 26.3451 36.7028 27.0873 36.1105 27.6601C35.3559 28.3861 35.0395 28.7814 34.9178 29.0154C34.7312 29.0638 34.3417 29.2413 33.4978 29.8786C32.9623 30.2819 32.224 30.895 31.9156 31.2903C31.8751 31.3387 31.8345 31.3952 31.802 31.4517C31.6235 31.5323 31.2746 31.8228 30.4146 32.815C29.8385 33.4765 29.2949 34.1542 29.2949 34.1622C29.2786 34.1864 29.2624 34.2026 29.2543 34.2268C29.2543 34.2268 29.2462 34.2591 29.2299 34.2994C29.0839 34.4123 28.9054 34.6221 28.6052 34.9609C28.4348 35.1545 28.1914 35.4369 28.0129 35.6143C28.1427 34.6059 29.2705 33.0409 30.1062 31.8631C30.9014 30.7498 31.3152 30.1609 31.3152 29.7898C31.3152 29.572 31.3314 29.2816 31.3396 28.9831C31.3882 27.9263 31.3963 27.3455 31.2503 27.0712C31.3639 26.7969 31.4531 26.2403 31.4531 25.0947C31.4531 24.6107 31.4288 24.167 31.3801 23.8524C31.3558 23.6588 31.3152 23.4651 31.2503 23.328C31.3233 23.1586 31.3801 22.8762 31.4288 22.4567C31.4856 21.9243 31.5181 21.2144 31.5181 20.5045C31.5181 19.8994 31.4937 19.3428 31.4531 18.9475C31.4207 18.6652 31.3801 18.4473 31.3152 18.2941C31.3882 18.1327 31.4207 17.8907 31.4531 17.6568C31.4937 17.2615 31.5181 16.7129 31.5181 16.1159C31.5181 15.4141 31.4856 14.7122 31.4288 14.1959C31.3801 13.7684 31.3314 13.486 31.2503 13.3166C31.3396 13.0988 31.4288 12.518 31.3963 10.719C31.3801 9.58957 31.3152 8.49243 31.3152 8.40369V1.07061C31.3152 0.9496 31.2097 0.844727 31.088 0.844727C30.9663 0.844727 30.8608 0.9496 30.8608 1.07061V8.36335L30.8203 8.49243C30.7148 8.6215 30.6093 8.73444 30.5038 8.84738V1.07061C30.5038 0.9496 30.3983 0.844727 30.2766 0.844727C30.1549 0.844727 30.0494 0.9496 30.0494 1.07061V9.27495C29.8872 9.41209 29.7492 9.52503 29.6275 9.6057V1.07061C29.6275 0.9496 29.522 0.844727 29.4003 0.844727C29.2786 0.844727 29.1731 0.9496 29.1731 1.07061V8.83125C29.0677 8.6215 28.946 8.41982 28.8161 8.22621V1.07061C28.8161 0.9496 28.7107 0.844727 28.5889 0.844727C28.4672 0.844727 28.3618 0.9496 28.3618 1.07061V7.62924C28.2887 7.53243 28.2076 7.44369 28.1346 7.35495C28.0697 7.27428 28.0047 7.20168 27.9398 7.12101V1.07061C27.9398 0.9496 27.8344 0.844727 27.7126 0.844727C27.5909 0.844727 27.4855 0.9496 27.4855 1.07061V6.51597C27.2745 6.18521 27.1285 5.85445 27.1285 5.50757V1.07061C27.1285 0.9496 27.023 0.844727 26.9013 0.844727C26.7796 0.844727 26.6741 0.9496 26.6741 1.07061V5.50757C26.6741 5.89479 26.4956 6.25781 26.2521 6.62084V1.07061C26.2521 0.9496 26.1467 0.844727 26.025 0.844727C25.9033 0.844727 25.7978 0.9496 25.7978 1.07061V7.20168C25.7572 7.25008 25.7166 7.30655 25.668 7.35495C25.5949 7.44369 25.5138 7.5405 25.4408 7.62924V1.07061C25.4408 0.9496 25.3353 0.844727 25.2136 0.844727C25.0919 0.844727 24.9864 0.9496 24.9864 1.07061V8.22621C24.8566 8.41982 24.7349 8.6215 24.6294 8.83125V1.07061C24.6294 0.9496 24.5239 0.844727 24.4022 0.844727C24.2805 0.844727 24.175 0.9496 24.175 1.07061V9.61377C24.0533 9.5331 23.9072 9.42016 23.7531 9.28301V1.07061C23.7531 0.9496 23.6476 0.844727 23.5259 0.844727C23.4042 0.844727 23.2987 0.9496 23.2987 1.07061V8.83932C23.2013 8.73444 23.0959 8.61344 22.9823 8.48436L22.9417 8.35529V1.07061C22.9417 0.9496 22.8362 0.844727 22.7145 0.844727C22.5928 0.844727 22.4873 0.9496 22.4873 1.07061V8.39562C22.4792 8.48436 22.4224 9.5815 22.4062 10.7109C22.3737 12.5099 22.463 13.0907 22.5522 13.3085C22.4711 13.478 22.4143 13.7603 22.3737 14.1879C22.3169 14.7122 22.2845 15.4141 22.2845 16.1079C22.2845 16.7048 22.3088 17.2534 22.3494 17.6487C22.3737 17.8907 22.4062 18.1247 22.4873 18.286C22.4224 18.4393 22.3818 18.6571 22.3494 18.9394C22.3088 19.3347 22.2845 19.8914 22.2845 20.4964C22.2845 21.2063 22.3169 21.9162 22.3737 22.4487C22.4224 22.8682 22.4711 23.1505 22.5522 23.3199C22.4792 23.4571 22.4467 23.6426 22.4224 23.8443C22.3737 24.167 22.3494 24.6026 22.3494 25.0867C22.3494 26.2403 22.4467 26.7969 22.5522 27.0631C22.4062 27.3374 22.4143 27.9182 22.463 28.975C22.4792 29.2735 22.4873 29.5639 22.4873 29.7818C22.4873 30.1528 22.9011 30.7498 23.6963 31.855C24.532 33.0248 25.6598 34.5898 25.7897 35.5982C25.5868 35.3965 25.3109 35.0658 25.1406 34.856C24.8484 34.5011 24.6862 34.3075 24.5563 34.2268C24.5482 34.2106 24.5482 34.2106 24.5482 34.2026C24.5401 34.1784 24.5239 34.1542 24.5077 34.138C24.4996 34.13 23.9559 33.4523 23.388 32.7908C22.5279 31.7986 22.179 31.5081 22.0005 31.4275C21.8869 31.2177 21.5786 30.8789 20.8402 30.2739C20.2317 29.7737 19.4284 29.1929 19.0146 29.0315C18.9659 29.0154 18.9253 28.9992 18.8847 28.9912C18.763 28.7572 18.4466 28.3619 17.692 27.6359C17.0997 27.0631 16.2477 26.3209 15.7934 26.095C15.7366 26.0628 15.6798 26.0466 15.6311 26.0305C15.2578 25.4819 12.5965 24.0218 11.8257 23.925C11.704 23.7636 11.4281 23.5377 10.8763 23.1828C10.9169 23.0779 10.8682 22.9488 10.7546 22.9004L9.05884 22.126C9.0345 22.1099 9.01016 22.1018 9.01016 22.1018C8.99393 22.0937 8.9777 22.0857 8.96148 22.0857L4.14994 19.8914C4.03635 19.843 3.89841 19.8914 3.84973 20.0043C3.80105 20.1173 3.84973 20.2544 3.96333 20.3028L8.75863 22.4971L8.78297 22.5536C8.86411 22.731 8.93713 22.9004 9.00204 23.0537L3.81728 20.6336C3.70368 20.5771 3.56575 20.6255 3.51706 20.7384C3.46026 20.8514 3.50895 20.9885 3.62254 21.0369L9.22112 23.6426C9.27792 23.8201 9.31849 23.9814 9.35094 24.1105L3.47649 21.3596C3.3629 21.3031 3.22496 21.3515 3.17628 21.4645C3.11948 21.5774 3.16816 21.7146 3.28176 21.763L8.49087 24.1993C8.22311 24.1993 7.95535 24.2315 7.6876 24.2799L3.06268 22.1583C2.94909 22.1099 2.81115 22.1583 2.76247 22.2712C2.71379 22.3841 2.76247 22.5213 2.87607 22.5697L6.96546 24.4493C6.86809 24.4735 6.77073 24.4977 6.68147 24.5219C6.60034 24.5461 6.5192 24.5623 6.43806 24.5865L2.73002 22.9004C2.61642 22.852 2.47849 22.9004 2.4298 23.0134C2.38112 23.1263 2.4298 23.2635 2.5434 23.3119L5.70781 24.7559C5.31023 24.8204 4.9451 24.8204 4.62055 24.6752C4.60432 24.6672 4.57998 24.6591 4.56375 24.651L2.39735 23.6426C2.28375 23.5862 2.14582 23.6346 2.09713 23.7475C2.08091 23.7798 2.07279 23.812 2.07279 23.8443C2.07279 23.933 2.12147 24.0137 2.20261 24.046L4.36902 25.0544C4.38525 25.0624 4.40959 25.0705 4.42582 25.0786C4.73414 25.2238 4.96133 25.4819 5.15607 25.8046L2.05656 24.3767C1.94297 24.3203 1.80503 24.3767 1.75635 24.4897C1.69955 24.6026 1.75635 24.7398 1.86994 24.7882L5.51308 26.4661C5.55365 26.5468 5.59422 26.6356 5.63478 26.7243C5.69158 26.8453 5.74838 26.9582 5.80518 27.0792L1.65898 25.1754C1.54539 25.127 1.40745 25.1754 1.35877 25.2883C1.31009 25.4013 1.35877 25.5384 1.47236 25.5868L6.16219 27.7408C6.30012 27.9666 6.44617 28.1764 6.62468 28.3781L1.31009 25.9418C1.19649 25.8853 1.05856 25.9418 1.00987 26.0547C0.953076 26.1677 1.00987 26.3048 1.12347 26.3532L6.9898 29.0718C6.86809 29.1364 6.72204 29.209 6.54354 29.2816L0.969304 26.684C0.85571 26.6275 0.717774 26.6759 0.66909 26.7888C0.612293 26.9018 0.660977 27.0389 0.774571 27.0873L5.935 29.4994C5.80518 29.5397 5.66724 29.5801 5.51308 29.6204H5.34268H5.33457L0.498699 27.4181C0.385105 27.3697 0.247169 27.4181 0.198485 27.531C0.149802 27.6439 0.198485 27.7811 0.31208 27.8295L5.42382 30.1528C5.70781 30.3223 6.26767 30.6449 6.84375 30.9596C8.07706 31.6291 8.5639 31.7905 8.7992 31.7986C8.93713 31.968 9.22112 32.1938 9.81343 32.5327C10.422 32.8796 11.1766 33.2345 11.7202 33.4362C11.923 33.5088 12.1259 33.5814 12.3044 33.5975C12.3368 33.6863 12.3855 33.7831 12.4667 33.888C13.0184 34.6382 14.8603 35.8241 15.5418 35.7515C15.5581 35.7515 15.5662 35.7515 15.5824 35.7434C15.7203 35.9451 16.0043 36.2436 16.5561 36.7115C17.0591 37.139 17.8299 37.7199 18.333 37.978C18.3898 38.0022 18.4953 38.0587 18.6089 38.0829C18.9578 38.7444 21.1242 40.1804 21.8139 40.4627C21.8382 40.4708 21.8544 40.4789 21.8788 40.4869C23.1283 41.3178 26.3414 43.7703 26.3414 47.1101C26.3414 48.538 25.4326 48.6993 24.743 48.6993C24.386 48.6993 23.818 48.2476 23.818 47.7151C23.818 47.7071 23.818 47.699 23.818 47.6909C23.8018 47.5457 23.8261 47.4408 23.8829 47.3763C23.9722 47.2795 24.1344 47.2714 24.1912 47.2714C24.2318 47.2795 24.3454 47.3924 24.4103 47.457C24.5888 47.6345 24.8079 47.8603 25.1 47.8119C25.2947 47.8039 25.4732 47.7232 25.5949 47.578C25.7572 47.3844 25.8221 47.1101 25.7734 46.8116C25.7734 46.8035 25.7734 46.7955 25.7653 46.7793C25.4976 45.9081 24.7592 45.8193 24.4022 45.779C24.3454 45.7709 24.2886 45.7629 24.2561 45.7548C24.2399 45.7467 24.2237 45.7467 24.1993 45.7467C23.6314 45.7467 22.0816 46.2469 22.0816 47.8523C22.0492 48.7558 22.9904 49.5141 23.8991 50.2563C24.7592 50.9501 25.6517 51.6761 25.5949 52.4102C25.4326 53.7252 24.9215 53.7655 24.3778 53.8059C24.3048 53.8139 24.2399 53.8139 24.175 53.822C23.9559 53.8462 23.6882 53.7494 23.4529 53.5639C23.2013 53.3622 23.0309 53.0798 23.0066 52.8136C23.0066 52.8055 23.0066 52.7975 22.9985 52.7894C22.966 52.6603 22.9579 52.4828 23.0472 52.3618C23.104 52.2892 23.1932 52.257 23.2419 52.257C23.5097 52.2812 23.5827 52.4183 23.6801 52.6039C23.7774 52.7813 23.9154 53.0395 24.2805 52.9991C24.5401 52.9911 24.743 52.8297 24.8322 52.5555C24.8971 52.3699 24.8971 52.1682 24.8971 52.0956C24.8971 51.9827 24.8484 50.9985 23.25 50.9985C21.9031 50.9985 21.3027 52.0876 21.1972 53.0153V53.0233C21.1242 54.2818 22.0735 54.8546 22.9904 55.4112C23.891 55.9517 24.743 56.468 24.7105 57.5975C24.6943 58.1057 24.4671 58.5413 24.0371 58.8882C23.0391 59.6869 21.0187 59.9369 18.763 59.5336C13.9272 58.6785 11.0224 56.4116 9.43208 54.6529C7.32247 52.3296 6.57599 49.8933 6.57599 48.3928C6.57599 47.2311 6.85998 46.3598 7.41172 45.8113C7.87421 45.3514 8.5071 45.1256 9.30226 45.1256H9.3266C9.57002 45.1256 10.3571 45.2385 10.8277 45.7225C11.0873 45.9968 11.2171 46.3437 11.1928 46.7713C11.136 48.1024 10.5275 48.1024 10.2029 48.1024C10.1948 48.1024 10.1948 48.1024 10.1867 48.1024C10.0406 48.1104 9.92703 48.0782 9.84589 48.0056C9.62681 47.7958 9.62681 47.2876 9.62681 47.0133C9.62681 46.8439 9.62681 46.7551 9.58624 46.6825C9.48076 46.4809 9.0913 46.4082 8.7992 46.4809C8.58012 46.5293 8.06895 46.739 8.06895 47.5941C8.06895 48.4331 8.41784 49.2721 8.98582 49.7965C9.46454 50.2321 10.0731 50.4338 10.7384 50.3773C11.8581 50.3208 12.7831 49.9175 13.4079 49.2237C14.0976 48.4573 14.3004 47.4973 14.2598 46.8519C14.2598 46.0614 13.8217 44.4076 12.6614 43.2701C11.8094 42.4392 10.7465 42.0358 9.50511 42.06C6.02425 42.06 3.87407 45.1498 3.80105 48.1346C3.80105 49.5141 4.98567 53.9188 8.51521 58.025C10.4869 60.3242 12.8724 62.1554 15.5986 63.4623C18.8929 65.0354 22.6902 65.8341 26.885 65.8341C31.0799 65.8341 34.8772 65.0354 38.1714 63.4623C40.8977 62.1554 43.2832 60.3322 45.2549 58.025C48.7763 53.9107 49.969 49.5061 49.969 48.1266C49.896 45.1417 47.7458 42.06 44.2731 42.06C43.0235 42.0358 41.9606 42.4392 41.1087 43.2701C39.9484 44.3995 39.5102 46.0614 39.5102 46.8519C39.4697 47.4973 39.6806 48.4573 40.3622 49.2237C40.9951 49.9255 41.9201 50.3208 43.0317 50.3773C43.7051 50.4338 44.3218 50.2321 44.7924 49.7965C45.3603 49.2802 45.7092 48.4331 45.7092 47.5941C45.7092 46.7471 45.1981 46.5373 44.9871 46.4809C44.695 46.4163 44.3055 46.4809 44.2001 46.6825C44.1595 46.7551 44.1595 46.8439 44.1595 47.0133C44.1595 47.2876 44.1595 47.8039 43.9404 48.0056C43.8593 48.0782 43.7538 48.1104 43.5996 48.1024C43.5915 48.1024 43.5915 48.1024 43.5834 48.1024C43.2588 48.1024 42.6503 48.1024 42.5935 46.7713C42.5773 46.3437 42.699 45.9968 42.9586 45.7225C43.4292 45.2304 44.2244 45.1256 44.4597 45.1256H44.484H44.4922C45.2792 45.1256 45.9121 45.3595 46.3665 45.8113C46.9263 46.3598 47.2022 47.2311 47.2022 48.3928C47.2022 49.8933 46.4476 52.3296 44.3461 54.6529C42.7558 56.4035 39.851 58.6785 35.0151 59.5336C32.7595 59.9369 30.7391 59.6869 29.7411 58.8882C29.3111 58.5413 29.0839 58.1057 29.0677 57.5975C29.0352 56.468 29.8872 55.9517 30.7878 55.4112C31.7047 54.8546 32.6621 54.2818 32.581 53.0233V53.0153C32.4755 52.0876 31.8751 50.9985 30.5282 50.9985C28.9297 50.9985 28.881 51.9827 28.881 52.0956C28.881 52.8862 29.303 52.9911 29.4977 52.9911C29.8628 53.0314 30.0008 52.7733 30.0981 52.5958C30.1955 52.4102 30.2685 52.2812 30.5363 52.2489C30.585 52.2489 30.6661 52.2812 30.731 52.3538C30.8284 52.4748 30.8122 52.6523 30.7797 52.7813C30.7797 52.7894 30.7797 52.7975 30.7716 52.8055C30.7472 53.0718 30.5768 53.3541 30.3253 53.5558C30.0981 53.7413 29.8304 53.8381 29.6032 53.8139C29.5383 53.8059 29.4652 53.7978 29.4003 53.7978C28.8567 53.7575 28.3455 53.7171 28.1833 52.4022C28.1265 51.6681 29.019 50.9501 29.8791 50.2482C30.7878 49.5141 31.729 48.7477 31.6966 47.8442C31.6966 46.2388 30.1387 45.7387 29.5788 45.7387C29.5626 45.7387 29.5383 45.7387 29.522 45.7467C29.4896 45.7548 29.4328 45.7629 29.376 45.7709C29.019 45.8113 28.2806 45.9081 28.0129 46.7713C28.0129 46.7793 28.0047 46.7874 28.0047 46.8035C27.9561 47.094 28.021 47.3763 28.1833 47.5699C28.3131 47.7151 28.4835 47.8039 28.6782 47.8119C28.9703 47.8603 29.1894 47.6345 29.3679 47.457C29.4328 47.3924 29.5383 47.2876 29.5788 47.2714C29.6438 47.2714 29.8141 47.2795 29.8953 47.3763C29.9521 47.4408 29.9764 47.5457 29.9602 47.6909C29.9602 47.699 29.9602 47.7071 29.9602 47.7151C29.9602 48.2476 29.3922 48.6993 29.0352 48.6993C28.3455 48.6993 27.4368 48.538 27.4368 47.1101C27.4368 45.3837 28.1751 43.7541 29.6275 42.2778C30.5444 41.3501 31.5181 40.7209 32.0617 40.4143C32.1428 40.374 32.2321 40.3256 32.3376 40.2691C32.3538 40.261 32.3619 40.261 32.3781 40.253C32.3944 40.2449 32.4106 40.2368 32.4268 40.2207C33.3356 39.7044 34.8853 38.6234 35.1774 38.0748C35.291 38.0506 35.3965 37.9942 35.4614 37.97C35.8833 37.7602 36.5811 37.2681 37.2383 36.7034C37.7901 36.2355 38.0741 35.937 38.212 35.7353C38.4149 35.7676 38.6988 35.7031 39.0559 35.5417C39.7861 35.219 41.2304 34.2833 41.4819 33.5895C41.6523 33.5733 41.8633 33.5007 42.0742 33.4281C42.626 33.2265 43.3724 32.8715 43.981 32.5246C44.5652 32.1858 44.8573 31.9599 44.9952 31.7905C45.2305 31.7824 45.7092 31.6211 46.9507 30.9515C47.5267 30.6369 48.0866 30.3142 48.3706 30.1448L53.4823 27.8214C53.6203 27.7811 53.6689 27.6439 53.6203 27.531Z" fill="white"/>
</svg>
