<svg width="46" height="56" viewBox="0 0 46 56" fill="none" xmlns="http://www.w3.org/2000/svg">
<path d="M27.1639 10.39C28.3292 9.03425 30.0772 6.69667 31.4289 6.11227C36.2765 3.9617 39.1897 9.80565 37.6515 12.7276L37.0689 13.499L40.9609 17.7768C42.5224 16.0236 42.8953 15.4392 43.4779 13.1016L43.6644 10.1797C43.4779 6.67329 40.9376 2.76953 37.6515 1.22673C34.1557 -0.52646 29.8907 0.0579357 26.9775 2.79291L23.0854 6.29928V6.48628C21.3375 4.54609 18.6108 1.62411 16.2802 0.852713C12.0152 -0.713466 6.9579 0.852713 4.44088 4.75647C3.46204 5.92526 2.69295 8.26284 2.50651 9.82902C2.11031 13.125 3.06584 15.2756 5.20997 17.8002L9.10202 13.5224C8.51938 12.751 8.51938 12.938 8.33294 11.7692C7.3541 7.46807 12.0152 3.77469 15.6975 6.69667C16.6764 7.28106 19.007 10.39 19.1934 10.39L0.548828 31.0543L23.0854 55.7859L45.6221 31.0543L27.1639 10.39ZM7.93674 30.6569L23.0854 14.2938L38.2342 30.8439L23.0854 47.6043L7.93674 30.6569Z" fill="white"/>
</svg>
