<svg width="57" height="78" viewBox="0 0 57 78" fill="none" xmlns="http://www.w3.org/2000/svg">
<path d="M27.2598 33.91V37.6731C27.2598 38.1335 27.6281 38.5851 27.9175 38.9393C28.1017 39.1695 28.2859 39.3908 28.2859 39.5148H28.435C28.435 39.3908 28.6279 39.1695 28.8209 38.9393C29.1366 38.5762 29.5313 38.1247 29.5313 37.6642V33.9011H29.3822V37.1684C29.2682 36.9559 29.0928 36.7434 28.9261 36.5574H28.9437V33.9011H28.7946V36.4158C28.777 36.3981 28.7595 36.3804 28.742 36.3626C28.6016 36.2121 28.435 36.0262 28.4262 35.973V33.91H28.2771V35.973C28.2771 36.0262 28.1105 36.2121 27.9877 36.3715C27.9614 36.3981 27.9439 36.4246 27.9175 36.4512V33.91H27.7684V36.6283C27.6369 36.7965 27.5053 36.9736 27.4089 37.1595V33.91H27.2598Z" fill="white"/>
<path d="M56.2101 57.0996C56.1838 57.1261 53.807 60.0658 49.571 63.0851C45.6682 65.8654 39.3448 69.2921 31.3813 69.8322L39.1518 61.9164L40.2394 60.6679C40.292 60.7033 40.3534 60.721 40.406 60.721C40.4148 60.721 40.4323 60.721 40.4411 60.721C40.4937 60.7122 40.5639 60.6768 40.6165 60.5794C40.634 60.5616 40.6428 60.5439 40.6516 60.5174C40.6954 60.6679 40.7744 60.7919 40.8621 60.8804C41.0112 61.0309 41.2129 61.1018 41.4409 61.1018C41.9233 61.1018 42.5196 60.8007 42.9406 60.3668C43.2125 60.0924 43.7826 59.5168 44.4228 58.9413C44.4403 58.9236 44.4579 58.9059 44.4754 58.8882L44.3877 58.7908C44.5719 58.6757 44.7561 58.5428 44.9139 58.3746C45.1507 58.1798 45.4489 57.8699 45.7997 57.498C45.9839 57.3032 46.1856 57.0907 46.4049 56.8694C46.4224 56.8517 46.4487 56.8339 46.4663 56.8074L46.4137 56.7543C46.6242 56.6303 46.8171 56.4709 46.975 56.2938C47.0539 56.2141 47.1591 56.1079 47.2819 55.9928C47.5889 55.7006 48.0186 55.2933 48.4396 54.8151L48.3694 54.7443C48.5799 54.6203 48.7729 54.4698 48.9483 54.3016C49.2289 54.0182 49.7902 53.4516 50.4305 52.876C50.448 52.8583 50.4655 52.8406 50.4831 52.8229L50.4042 52.7432C50.6234 52.6281 50.8251 52.4776 50.9918 52.3093C51.2724 52.026 51.8688 51.4239 52.4564 50.7598L52.3599 50.6713C52.6055 50.5473 52.8335 50.3702 53.0353 50.1754L54.3333 48.865C54.4297 48.8207 54.5087 48.7587 54.5701 48.6968L56.6925 46.4832L56.5872 46.3769L54.2456 48.741C53.8772 48.9181 53.2633 49.0067 52.6757 49.0863C52.1319 49.1572 51.6145 49.2369 51.2636 49.3697C51.4303 49.0155 51.518 48.4665 51.6057 47.891C51.6934 47.2978 51.7899 46.6779 51.9828 46.3415C53.044 45.279 54.2719 44.0659 54.2894 44.0482L54.1842 43.9419L51.9916 46.0847C51.9477 46.129 51.9039 46.191 51.86 46.2529C51.29 46.8285 50.7813 47.3509 50.5269 47.6342C50.22 47.9441 49.9832 48.3337 49.8692 48.7145C49.7376 49.1483 49.7902 49.5025 50.0183 49.7327C50.1674 49.8832 50.3428 49.9718 50.5182 49.9718C50.5269 49.9718 50.5357 49.9718 50.5445 49.9718C50.6146 49.9718 50.6936 49.9541 50.7637 49.9187C50.641 50.2994 50.8514 50.5739 50.9742 50.6978C51.1233 50.8484 51.325 50.9192 51.5531 50.9192C51.7899 50.9192 52.0442 50.8484 52.2985 50.7244C51.974 50.9723 51.2724 51.0874 50.5883 51.2025C50.4568 51.2291 50.3165 51.2468 50.1937 51.2734C50.2726 51.2114 50.3515 51.1494 50.4305 51.0697C50.7901 50.7067 50.7462 50.4322 50.7199 50.2551C50.7023 50.1666 50.7023 50.1312 50.7199 50.1135L50.6146 50.0072C50.5971 50.0249 50.5533 50.0249 50.4743 50.0072C50.2989 49.9806 50.027 49.9364 49.6674 50.2994C49.5797 50.3879 49.5096 50.4765 49.4394 50.5827C49.4657 50.4411 49.4833 50.2905 49.5008 50.1312C49.6061 49.3874 49.7113 48.6259 49.992 48.3426L49.8867 48.2363L48.4221 49.715C48.2467 49.8921 48.0976 50.0869 47.9835 50.2994L47.9134 50.2286C47.2556 50.8926 46.7382 51.4151 46.4487 51.7781C46.2909 51.9375 46.1506 52.1234 46.0365 52.3093L45.9401 52.2208L44.379 53.7792C44.2035 53.9563 44.0545 54.1599 43.9404 54.3636L43.9229 54.3459L43.8703 54.2927L42.4056 55.7714C42.239 55.9396 42.0899 56.1433 41.9671 56.3558L41.897 56.285C41.8794 56.3027 41.8619 56.3204 41.8443 56.3381C41.4409 56.7897 41.0375 57.1704 40.748 57.4537C40.6253 57.5689 40.52 57.6751 40.4411 57.7548C39.8096 58.3923 39.4588 59.4548 39.9324 59.9241C40.0113 60.0038 40.1254 60.0747 40.2481 60.1101C40.2131 60.1278 40.1867 60.1543 40.1517 60.1898C40.0552 60.2872 40.0552 60.4642 40.1341 60.5705L38.8449 61.5888L30.6008 69.9119L30.0395 69.965L36.0296 59.5434L36.6874 57.985C36.7225 57.9939 36.7575 58.0027 36.7926 58.0027C36.9066 58.0027 36.9943 57.9496 37.047 57.8433C37.0557 57.8168 37.0733 57.7902 37.0821 57.7725C37.1434 57.8788 37.2224 57.9673 37.3101 58.0204L37.3188 58.0293C37.4329 58.0913 37.5556 58.1178 37.6872 58.1178C38.266 58.1178 38.9414 57.5866 39.2395 56.9756C39.3009 56.8694 39.3799 56.7454 39.4676 56.6037C39.6956 56.2318 40.0201 55.7183 40.3358 55.1339L40.2657 55.0985C40.4323 54.9302 40.5814 54.7443 40.6954 54.5495L40.7042 54.5407C40.7831 54.3282 40.9673 54.0271 41.1953 53.6375C41.362 53.363 41.5461 53.0443 41.7303 52.7078L41.6426 52.6547C41.8092 52.4953 41.9671 52.3093 42.0987 52.1145C42.1864 51.964 42.3092 51.7427 42.4407 51.4859C42.6161 51.1583 42.8354 50.751 43.0722 50.3437C43.0897 50.3171 43.1073 50.2905 43.116 50.264L43.0283 50.2109C43.2125 50.0338 43.3704 49.8213 43.4756 49.5999C43.537 49.4937 43.6159 49.3697 43.7036 49.2192C43.9317 48.8473 44.2562 48.3337 44.5719 47.7493L44.4667 47.6874C44.6421 47.5103 44.8087 47.3066 44.9403 47.0853C45.142 46.7488 45.4665 46.1644 45.9664 45.2347L45.8699 45.1816C46.0716 45.0045 46.2558 44.792 46.4049 44.5706C46.9837 43.5523 48.9395 40.0283 48.9658 39.9929L48.8343 39.922L47.2995 42.6492C47.1328 42.9591 46.4575 43.2513 45.7997 43.5346C45.2648 43.7649 44.7561 43.9862 44.4579 44.2341C44.5105 43.8711 44.4491 43.3576 44.3877 42.8263C44.3088 42.1445 44.2299 41.445 44.379 41.0554C45.1157 39.7715 45.9488 38.3194 45.9664 38.2928L45.905 38.2574L45.8436 38.222L44.3088 40.8783C44.2825 40.9137 44.2649 40.958 44.2474 41.0023C43.8352 41.7195 43.4668 42.3924 43.2827 42.7289C43.1336 42.9768 43.0283 43.2602 42.9669 43.5435L42.9055 43.5081L42.8441 43.4727C42.4144 44.1987 41.9671 44.9425 41.818 45.3232C41.6952 45.5092 41.5988 45.7305 41.5374 45.9607L41.4584 45.9076C41.0901 46.492 40.7919 47.0056 40.5814 47.3774C40.4937 47.528 40.4235 47.6519 40.3621 47.7493C40.2306 47.9707 40.1341 48.2098 40.0727 48.4577L39.9938 48.4134C39.7395 48.8473 39.5027 49.29 39.3097 49.6353C39.1782 49.8832 39.0554 50.1046 38.9677 50.2551C38.8449 50.4588 38.7572 50.6801 38.6958 50.9015L38.5993 50.8484C38.5905 50.8661 38.5818 50.8838 38.573 50.8926C38.266 51.4593 37.9591 51.9463 37.7311 52.3093C37.6434 52.4599 37.5644 52.5838 37.4943 52.6901C37.389 52.9026 37.3101 53.1417 37.2575 53.3807L37.2048 53.3453L36.1085 55.1959C35.6963 55.9485 35.6174 56.9845 36.2138 57.3652C36.3278 57.4183 36.433 57.4537 36.5471 57.4537C36.5208 57.4803 36.5032 57.5069 36.4857 57.5423C36.3892 57.6485 36.4681 57.8168 36.5558 57.923L35.6086 59.2512L29.487 69.9827H29.1888L32.3812 57.8965L32.6706 56.285C32.6881 56.285 32.6969 56.2938 32.7144 56.2938C32.7671 56.2938 32.8109 56.285 32.8548 56.2584C32.9249 56.2141 32.96 56.1433 32.9688 56.0636C32.9863 56.0282 32.9951 55.9839 32.9951 55.9396C33.0828 56.0193 33.1968 56.0813 33.3108 56.1167C33.3722 56.1344 33.4248 56.1344 33.4862 56.1344C34.0738 56.1344 34.6527 55.4172 34.8632 54.6646C35.0123 54.2219 35.2315 53.3984 35.4508 52.5927L35.3806 52.575L35.3368 52.5661C35.4508 52.3713 35.5385 52.1588 35.5999 51.9375C35.749 51.4947 35.9682 50.6624 36.1875 49.8655L36.0472 49.8301C35.9419 50.2109 35.3543 50.6713 34.793 51.114C34.6527 51.2203 34.5211 51.3265 34.3983 51.4328C34.4422 51.3354 34.486 51.2291 34.5123 51.114C34.5737 50.8307 34.5387 50.6359 34.4773 50.4853C34.565 50.565 34.6702 50.627 34.793 50.6536C34.8456 50.6624 34.8982 50.6713 34.9509 50.6713C35.5297 50.6713 36.1349 49.9009 36.3453 49.1306C36.4769 48.803 36.6698 48.1035 36.933 47.0587L36.8189 47.0233C36.933 46.8285 37.0207 46.616 37.0821 46.3946C37.1698 46.129 37.4066 45.3941 37.6697 44.3227L37.5644 44.2961C37.6872 44.0748 37.7749 43.8357 37.8188 43.5878C37.9503 43.2513 38.1433 42.5607 38.4064 41.5158L38.2836 41.4804C38.4327 41.2414 38.5555 40.9757 38.6256 40.7012C38.915 39.6033 39.9324 35.7251 39.9412 35.6808L39.8008 35.6454L38.994 38.5939C38.8887 38.9923 38.2924 39.4793 37.7223 39.9575C37.3013 40.3028 36.8979 40.6393 36.6698 40.9492C36.626 40.5684 36.433 40.0549 36.2226 39.5325C35.9945 38.9569 35.7577 38.3637 35.749 37.9564C36.1349 36.4954 36.5646 34.8308 36.5734 34.8042L36.433 34.7688L35.6262 37.7173C35.6086 37.7881 35.5999 37.859 35.5999 37.9387C35.3982 38.7001 35.214 39.4085 35.1175 39.7804C35.0386 40.0637 35.0123 40.3559 35.021 40.6215L34.8982 40.5861C34.8982 40.595 34.8895 40.6038 34.8895 40.6127C34.8105 40.9226 34.7316 41.2236 34.6614 41.4804C34.5387 41.9586 34.4246 42.3659 34.3808 42.6492C34.3106 42.906 34.2756 43.1716 34.2843 43.4195L34.1615 43.3841C33.9423 44.181 33.723 45.0045 33.5827 45.3675V45.3852C33.5388 45.6331 33.5213 45.8899 33.5301 46.1378L33.4336 46.1113C33.4336 46.1201 33.4248 46.129 33.4248 46.1378C33.1617 47.1915 32.9337 47.9087 32.846 48.1743C32.7846 48.3957 32.7583 48.6259 32.7583 48.8561L32.6969 48.8384C32.6969 48.8473 32.6881 48.8561 32.6881 48.865C32.4338 49.8744 32.2408 50.5827 32.1093 50.9015C32.0479 51.1229 32.0216 51.3531 32.0216 51.5833L31.9602 51.5656C31.9602 51.5744 31.9514 51.5833 31.9514 51.5921C31.6971 52.6015 31.5041 53.3099 31.3726 53.6198V53.6375C31.2147 54.5318 31.4077 55.5589 32.083 55.7183C32.1619 55.7537 32.2496 55.7803 32.3285 55.7803C32.3549 55.7803 32.3899 55.7803 32.4162 55.7714C32.4075 55.798 32.3987 55.8245 32.3987 55.8511C32.3549 55.9485 32.3636 56.0459 32.4075 56.1256C32.4426 56.1787 32.4864 56.2141 32.539 56.2318L31.9602 57.7725L28.6889 69.965H28.6012V57.3386L28.4521 55.6475C28.6099 55.6209 28.7415 55.5235 28.7415 55.3553C28.7415 55.3287 28.7415 55.311 28.7327 55.2933C28.8292 55.3376 28.9344 55.3641 29.0397 55.3641C29.7676 55.2844 30.2061 54.3281 30.2061 53.4427V51.3796H30.1009C30.171 51.1406 30.2061 50.8838 30.2061 50.6447V48.502H30.0833C30.1535 48.2629 30.1886 48.015 30.1886 47.767V45.7128H30.1184H30.0833C30.1535 45.4738 30.1886 45.217 30.1886 44.9779V42.8351H30.1184H30.0833C30.1535 42.5961 30.1886 42.3393 30.1886 42.1002V39.9575H30.1184H30.0483C30.1447 39.6741 30.1974 39.3731 30.1974 39.072V33.9099H30.0483V37.009C30.0483 37.3897 29.6097 37.9829 29.1888 38.5496C28.8467 39.01 28.5135 39.4616 28.3731 39.8335C28.2328 39.4616 27.8995 39.01 27.5575 38.5496C27.1365 37.9829 26.698 37.3897 26.698 37.009V33.9099H26.5489V39.072C26.5489 39.3731 26.6015 39.6741 26.698 39.9575H26.6278H26.5577V42.1002C26.5577 42.3482 26.5928 42.5961 26.6629 42.8351H26.6278H26.5577V44.9779C26.5577 45.2258 26.5928 45.4738 26.6629 45.7128H26.6278H26.5577V47.7759C26.5577 48.0238 26.5928 48.2806 26.6629 48.5108H26.5577V50.6536C26.5577 50.9015 26.5928 51.1494 26.6629 51.3885H26.5577V53.4516C26.5577 54.3282 26.9962 55.2933 27.7241 55.373C27.8645 55.373 27.996 55.3464 28.0925 55.2844C28.0837 55.311 28.0837 55.3376 28.0837 55.3641C28.0837 55.5235 28.1626 55.6297 28.303 55.6563L28.1539 57.3564V69.903H27.9171L24.637 57.7017L24.0757 56.1433C24.1985 56.0725 24.2774 55.9751 24.2774 55.8157V55.8068L24.2686 55.7891C24.2511 55.7449 24.2248 55.7094 24.1897 55.6829C24.2511 55.7006 24.3037 55.7006 24.3651 55.7006C24.4353 55.7006 24.5054 55.6917 24.5756 55.674C24.7685 55.6209 24.9352 55.4881 25.0667 55.2667C25.3123 54.8417 25.3737 54.1688 25.2158 53.5844C25.1281 53.3188 24.9001 52.6015 24.637 51.5479C24.637 51.539 24.637 51.5302 24.6282 51.5213L24.5668 51.539C24.5668 51.3088 24.5405 51.0786 24.4791 50.8572C24.4177 50.6801 24.3563 50.4411 24.2862 50.1666C24.1897 49.7858 24.0669 49.3077 23.8915 48.7853L23.8301 48.803C23.8301 48.5728 23.8038 48.3426 23.7424 48.1212C23.6898 47.953 23.6284 47.7316 23.567 47.466C23.4618 47.0587 23.339 46.554 23.1548 46.0493L23.0934 46.067C23.1022 45.8191 23.0759 45.5534 23.0057 45.3055C22.9355 45.1373 22.8741 44.8717 22.7864 44.544C22.69 44.1722 22.576 43.7206 22.4181 43.2424L22.3567 43.2602C22.3567 43.0299 22.3304 42.7997 22.269 42.5784C22.1199 42.1356 21.9006 41.3122 21.6814 40.5153L21.5586 40.5507C21.5761 40.2674 21.5411 39.9752 21.4621 39.7007C21.3656 39.3288 21.1815 38.6116 20.9798 37.8324C20.9798 37.7616 20.971 37.6907 20.9534 37.6288L20.1466 34.6006L20.0063 34.636C20.015 34.6625 20.4535 36.3626 20.8307 37.8501C20.8307 38.2574 20.5939 38.8595 20.3571 39.4439C20.1466 39.9752 19.9449 40.4799 19.9098 40.8606C19.6817 40.5596 19.2783 40.2231 18.8573 39.8689C18.2873 39.3908 17.6909 38.9038 17.5856 38.5053L16.7788 35.5568L16.6384 35.5922C16.6472 35.6277 17.6646 39.5147 17.954 40.6127C18.0329 40.896 18.1469 41.1617 18.296 41.383L18.1733 41.4184C18.182 41.445 18.1908 41.4627 18.1996 41.4893C18.3574 41.9851 18.4714 42.4278 18.5679 42.7997C18.6381 43.0742 18.6995 43.3133 18.7609 43.4904C18.9626 44.2518 19.5414 44.9691 20.1378 44.9691C20.1992 44.9691 20.2518 44.9602 20.3132 44.9513C20.4535 44.9248 20.5588 44.8805 20.6465 44.8097C20.5763 44.9602 20.5237 45.1727 20.5851 45.4915C20.6114 45.5889 20.6553 45.6863 20.6991 45.7837C20.5851 45.6951 20.4711 45.6066 20.3571 45.518C19.8133 45.093 19.2432 44.6591 19.0854 44.2873C19.0766 44.2518 19.0678 44.2253 19.0503 44.1899L18.91 44.2341C18.9187 44.2696 18.9275 44.2961 18.945 44.3315C19.0941 44.7565 19.1994 45.1727 19.2871 45.518C19.366 45.8102 19.4274 46.067 19.4888 46.2264C19.559 46.4743 19.6642 46.7222 19.7958 46.9347L19.7081 46.9524C19.7168 46.979 19.7168 47.0056 19.7256 47.0321C19.7958 47.3243 19.8659 47.6077 19.9185 47.8556C20.0326 48.3337 20.1203 48.741 20.2167 49.0244C20.2781 49.2457 20.3746 49.4671 20.4886 49.6707L20.4272 49.6796C20.436 49.7062 20.436 49.7327 20.4448 49.7593C20.5149 50.0515 20.5851 50.3437 20.6377 50.6005C20.7517 51.114 20.8482 51.5213 20.9359 51.7515C21.1464 52.5396 21.7428 53.301 22.383 53.301C22.4444 53.301 22.497 53.2922 22.5584 53.2833C22.6286 53.2656 22.6987 53.2391 22.7601 53.2036C22.725 53.3365 22.7163 53.5135 22.7601 53.7438V53.7526C22.7864 53.8412 22.8303 53.9297 22.8741 54.0182C22.7426 53.912 22.611 53.8057 22.4795 53.6995C21.9445 53.2745 21.3832 52.8406 21.2429 52.4953C21.2341 52.4776 21.2341 52.4599 21.2253 52.4422L21.085 52.4864C21.0938 52.5041 21.1025 52.5307 21.1025 52.5484C21.2516 52.9823 21.3656 53.4161 21.4621 53.7703C21.5411 54.0625 21.6024 54.3193 21.6638 54.4787C21.8743 55.2667 22.4707 56.0282 23.1109 56.0282C23.1723 56.0282 23.225 56.0193 23.2863 56.0105C23.3828 55.9839 23.4793 55.9396 23.5582 55.86V55.8777L23.567 55.8954C23.6372 56.037 23.7161 56.1344 23.8652 56.1522L24.1458 57.7991L27.3382 69.8765H27.1891L21.1025 59.1715L20.129 57.8345C20.1729 57.7902 20.208 57.7371 20.2167 57.6751C20.2255 57.5954 20.208 57.5157 20.1641 57.4183L20.1466 57.4006C20.1466 57.4006 20.1378 57.4006 20.1378 57.3918C20.2518 57.3918 20.3746 57.3564 20.4886 57.2944L20.4974 57.2855C21.0587 56.8782 20.9622 55.8068 20.5237 55.0542C20.436 54.8328 20.2518 54.5229 20.0238 54.1334C19.8659 53.8677 19.6905 53.5667 19.5239 53.2479C19.5151 53.2302 19.5063 53.2125 19.4976 53.2036L19.4011 53.2568C19.3397 53.0354 19.252 52.8141 19.1292 52.6104C18.9363 52.2828 18.6118 51.6984 18.1294 50.813C18.1206 50.7952 18.1119 50.7775 18.1031 50.7598L18.0242 50.8041C17.9628 50.5827 17.8663 50.3614 17.7435 50.1666L16.6735 48.3691C16.6648 48.3514 16.656 48.3337 16.6472 48.3249L16.5946 48.3603C16.542 48.1212 16.463 47.8821 16.3578 47.6696C16.2964 47.5634 16.2175 47.4394 16.121 47.2889C15.893 46.9259 15.586 46.43 15.2878 45.8722C15.2791 45.8545 15.2703 45.8368 15.2615 45.8279L15.1826 45.8722C15.1212 45.6243 15.0247 45.3852 14.8932 45.1638C14.7002 44.8362 14.3669 44.2341 13.8758 43.3221L13.7442 43.393C13.9109 43.7294 13.8319 44.4466 13.753 45.1461C13.7355 45.3321 13.7092 45.5092 13.7004 45.6863C13.6653 45.6066 13.6302 45.5357 13.5864 45.4649C13.3671 45.0753 13.1479 44.9691 12.9725 44.9248C13.0952 44.9248 13.218 44.8894 13.3496 44.8274C13.5601 44.6946 13.7092 44.4644 13.7706 44.1722C13.867 43.7029 13.7442 43.1008 13.4461 42.6581C13.2443 42.295 12.8672 41.6309 12.4638 40.9137C12.455 40.8783 12.4375 40.8429 12.4199 40.8163L10.8764 38.0803L10.7448 38.1512C10.7536 38.1777 11.578 39.6476 12.3147 40.9669C12.4287 41.3033 12.3585 41.9408 12.2884 42.5607C12.2182 43.1539 12.1568 43.756 12.2358 44.1722C11.9288 43.9331 11.4552 43.7206 10.9553 43.4992C10.3151 43.207 9.64851 42.9148 9.39417 42.5784C8.63992 41.2945 7.82428 39.8689 7.80674 39.8424L7.67519 39.922L9.20999 42.5784C9.22753 42.6049 9.24507 42.6315 9.26262 42.6581C9.69236 43.393 10.0958 44.0748 10.3063 44.4201C10.4291 44.6769 10.622 44.9159 10.8413 45.1107L10.7448 45.1638C10.7536 45.1727 10.7623 45.1904 10.7623 45.1993C11.2447 46.0936 11.5692 46.6868 11.7709 47.0056C11.9025 47.2269 12.0603 47.4306 12.2445 47.6077L12.1393 47.6696C12.3936 48.1035 12.6304 48.5374 12.8146 48.8916C12.9461 49.1483 13.0689 49.3608 13.1566 49.5202C13.2794 49.7239 13.4285 49.9098 13.5864 50.0692L13.5162 50.1046C13.8319 50.689 14.1477 51.2025 14.3845 51.5744C14.4722 51.725 14.5511 51.8489 14.6125 51.9463C14.7265 52.1677 14.8844 52.3802 15.0686 52.5661L14.9809 52.6104C14.9984 52.637 15.0072 52.6635 15.0247 52.6901C15.2615 53.0974 15.4808 53.5047 15.6562 53.8323C15.7877 54.0891 15.9105 54.3016 15.9982 54.461C16.121 54.6646 16.2613 54.8594 16.4192 55.0099L16.3578 55.0454C16.8577 55.9662 17.1822 56.5595 17.3839 56.8959C17.7523 57.5246 18.3837 58.0381 18.945 58.0381C19.0678 58.0381 19.1906 58.0116 19.3046 57.9496C19.4099 57.8965 19.4976 57.8256 19.559 57.7371C19.559 57.7459 19.5677 57.7548 19.5677 57.7637C19.6116 57.8522 19.6905 57.9053 19.7958 57.923C19.8133 57.923 19.8396 57.9319 19.8572 57.9319C19.901 57.9319 19.9361 57.923 19.9712 57.9142L20.6728 59.3929L26.6717 69.903H26.1016L17.9365 61.5799L16.6735 60.5174C16.6998 60.4554 16.7086 60.3846 16.7086 60.3491C16.7086 60.3049 16.6998 60.1809 16.6297 60.1101L16.6121 60.0924C16.5771 60.0747 16.5507 60.0658 16.5157 60.0569C16.6648 60.0038 16.7788 59.9153 16.8489 59.8444C17.3138 59.3752 16.963 58.3746 16.3403 57.7459C16.0684 57.4715 15.4983 56.8959 14.9282 56.2496C14.9107 56.2318 14.8932 56.2141 14.8756 56.1964L14.7791 56.285C14.6651 56.0902 14.5248 55.9131 14.3669 55.7537C14.0951 55.4792 13.525 54.9037 12.9549 54.2573C12.9374 54.2396 12.9198 54.2219 12.9023 54.2042L12.8234 54.2839C12.7093 54.0625 12.5603 53.8589 12.3936 53.6906C12.1042 53.3984 11.5166 52.8052 10.8588 52.212L10.7887 52.2828C10.6659 52.0703 10.5168 51.8755 10.3501 51.6984L8.88549 50.2197L8.83287 50.2728C8.71009 50.0426 8.55222 49.8213 8.36804 49.6353C8.08739 49.352 7.49101 48.7499 6.83324 48.1566L6.74554 48.254C6.62275 48.0061 6.44734 47.7759 6.2544 47.5722L2.59718 43.88L2.49193 43.9862L4.68451 46.1998C4.95639 46.4743 5.07041 47.2004 5.17565 47.891C5.26335 48.4577 5.34229 48.9978 5.50892 49.3608C5.14057 49.1926 4.58804 49.1129 4.01797 49.0244C3.30757 48.9181 2.57964 48.803 2.30776 48.5285L0.194111 46.3946L0.0888672 46.5009L3.74609 50.1931C3.93903 50.3879 4.1846 50.5562 4.43017 50.6801L4.32493 50.7864L5.78957 52.2562C5.95621 52.4245 6.15792 52.5838 6.36841 52.6989L6.29825 52.7698C6.69291 53.1682 7.06127 53.5135 7.35946 53.788C7.5524 53.9651 7.71904 54.1245 7.83305 54.2396C7.99969 54.4255 8.19264 54.5849 8.39435 54.7089L8.34173 54.7532C8.92934 55.4172 9.52573 56.0193 9.80638 56.3027C9.98178 56.4798 10.1835 56.6303 10.3852 56.7454L10.3151 56.8162C10.3326 56.8339 10.3501 56.8517 10.3677 56.8694C10.815 57.2767 11.1921 57.684 11.4727 57.985C11.5867 58.109 11.692 58.2152 11.7709 58.2949C11.9376 58.4632 12.1393 58.6137 12.3585 58.7376L12.3322 58.7642L12.2796 58.8173C12.9374 59.4814 13.4548 60.0038 13.8144 60.296C14.1214 60.6059 14.5073 60.845 14.8844 60.9601C15.0335 61.0044 15.1826 61.0309 15.3141 61.0309C15.5509 61.0309 15.7526 60.9601 15.893 60.8096C15.9807 60.721 16.0421 60.6236 16.0771 60.5262C16.0947 60.5528 16.1298 60.5794 16.1561 60.5971C16.2087 60.6413 16.2789 60.6679 16.3578 60.6679C16.4192 60.6679 16.4806 60.6502 16.5507 60.6325L17.612 61.9252L25.3912 69.8499L25.3561 69.8411H25.3474C17.4015 69.3098 11.0605 65.8743 7.14897 63.0851C2.90414 60.0658 0.501072 57.1261 0.483531 57.0996L0.360747 56.9491L0.281814 59.3309L0.325666 59.3574C1.23778 59.8533 1.3781 60.234 1.55351 60.7122C1.69383 61.0841 1.8517 61.5002 2.35161 62.0669C3.16725 63.0232 3.82502 63.2003 4.46525 63.3773C4.92131 63.5013 5.40368 63.6341 5.94744 64.0591C6.49997 64.5461 6.65783 64.856 6.82447 65.1925C6.98233 65.5113 7.15774 65.8743 7.7015 66.4144C8.29788 66.9722 8.88549 67.0342 9.51695 67.0873C10.0783 67.1405 10.6483 67.1936 11.2886 67.6009C11.7271 67.8931 11.92 68.2118 12.1305 68.5483C12.4287 69.0265 12.7357 69.5311 13.7881 69.9739C14.4722 70.2838 14.9721 70.2306 15.4983 70.1775C16.1298 70.1155 16.7875 70.0447 17.8838 70.5583C18.3574 70.7531 18.5416 71.0098 18.7521 71.3109C19.0941 71.7979 19.4888 72.3468 21.1113 72.8427C21.7252 72.9932 22.155 72.8604 22.6987 72.6922C23.2162 72.5328 23.8564 72.3291 24.8475 72.3291C26.3296 72.4531 27.0488 72.9578 27.0488 73.8787C27.119 75.3131 26.2595 76.9246 26.2507 76.9334L26.1893 77.0485H30.478H30.6008L30.5394 76.9334C30.5306 76.9157 29.6711 75.3131 29.6711 73.8787C29.7325 73.1969 30.0395 72.4797 31.8637 72.3203C32.8635 72.3203 33.5038 72.5239 34.0212 72.6833C34.565 72.8515 35.0035 72.9932 35.6086 72.8338C37.2224 72.338 37.617 71.789 37.9591 71.302C38.1696 71.001 38.3625 70.7442 38.8361 70.5406C39.9324 70.027 40.634 70.0978 41.2567 70.1598C41.7829 70.2129 42.2828 70.2661 42.9319 69.9562C44.0632 69.4957 44.3702 68.9822 44.6684 68.4863C44.8613 68.1676 45.0367 67.8665 45.4226 67.592C46.0979 67.1847 46.6855 67.1316 47.2556 67.0785C47.8871 67.0165 48.4922 66.9634 49.0886 66.4055C49.6324 65.8566 49.7902 65.4935 49.9306 65.1748C50.0797 64.8472 50.2112 64.5284 50.7637 64.0503C51.3075 63.6253 51.7811 63.4924 52.2459 63.3596C52.8862 63.1825 53.5439 62.9966 54.3596 62.0492C54.8595 61.4736 55.0349 61.0575 55.184 60.6856C55.3769 60.2075 55.526 59.8267 56.3943 59.3309L56.4294 59.3043L56.3504 56.9225L56.2101 57.0996ZM48.6852 52.0437C48.6852 52.0526 48.6764 52.0526 48.6764 52.0614L48.6676 52.0526C48.6676 52.0526 48.6764 52.0526 48.6852 52.0437ZM48.6852 52.5396C48.7203 52.637 48.7817 52.7166 48.843 52.7786C49.0272 52.938 49.264 53.0088 49.5184 53.0088C49.7552 53.0088 50.0095 52.9469 50.2551 52.8406C49.9043 53.062 49.2377 53.1505 48.5799 53.2391C48.4045 53.2656 48.2379 53.2833 48.0713 53.3099C48.1765 53.2391 48.273 53.1594 48.3607 53.062C48.5624 52.8583 48.6501 52.6812 48.6852 52.5396ZM47.5012 52.0526C47.5713 51.6098 47.6327 51.1583 47.7468 50.813C47.6415 51.2203 47.6854 51.6187 47.9572 51.8932C48.0186 51.9552 48.0976 52.0083 48.1765 52.0437C48.0099 52.0703 47.8169 52.15 47.5977 52.3802C47.5363 52.4422 47.4749 52.513 47.4223 52.575C47.4486 52.4067 47.4749 52.2297 47.5012 52.0526ZM46.6592 54.0625C46.6592 54.0714 46.6592 54.0714 46.6505 54.0802L46.6417 54.0714C46.6505 54.0625 46.6505 54.0625 46.6592 54.0625ZM46.3874 55.1339C46.5891 54.9303 46.668 54.7443 46.6855 54.5849C46.7382 54.7 46.8083 54.7886 46.861 54.8417C47.01 54.9922 47.2118 55.0631 47.4398 55.0631C47.51 55.0631 47.5889 55.0542 47.6678 55.0454C47.3609 55.125 46.9925 55.1782 46.6329 55.2402C46.4838 55.2667 46.3435 55.2844 46.2032 55.311C46.2646 55.249 46.326 55.1959 46.3874 55.1339ZM45.4928 54.1688C45.6068 53.487 45.7208 52.7875 45.9576 52.4245C45.6682 52.9646 45.5893 53.5578 45.9138 53.8854C45.9839 53.9563 46.0541 54.0094 46.133 54.0448C45.9927 54.0802 45.8173 54.1688 45.6243 54.3636C45.5454 54.4433 45.484 54.5229 45.4138 54.6115C45.4402 54.4698 45.4665 54.3193 45.4928 54.1688ZM44.6596 56.099C44.6596 56.1079 44.6508 56.1079 44.6508 56.1167L44.6421 56.1079L44.6333 56.099C44.6508 56.1079 44.6596 56.1079 44.6596 56.099ZM44.6596 56.5949C44.6947 56.6923 44.7561 56.772 44.8175 56.8339C45.0016 56.9933 45.2297 57.0642 45.4752 57.0642C45.598 57.0642 45.7296 57.0464 45.8524 57.011C45.4665 57.1438 44.9578 57.2235 44.493 57.2944C44.3439 57.3209 44.186 57.3386 44.0457 57.3652C44.1422 57.2944 44.2386 57.2147 44.3351 57.1261C44.5456 56.9225 44.6245 56.7454 44.6596 56.5949ZM43.4844 56.1876C43.5458 55.7183 43.6159 55.2402 43.7299 54.8771C43.6949 55.0188 43.6773 55.1516 43.6861 55.2756C43.6949 55.5146 43.7826 55.7183 43.9492 55.8688C44.0106 55.9485 44.072 56.0105 44.1509 56.0548C44.0018 56.0725 43.8352 56.1522 43.6598 56.3558C43.5721 56.4444 43.5019 56.5329 43.4318 56.6391C43.4405 56.4975 43.4581 56.347 43.4844 56.1876ZM42.6863 58.6048C42.7214 58.6845 42.774 58.7553 42.8441 58.8173C42.9845 58.9856 43.195 59.083 43.4318 59.0918C43.4493 59.0918 43.4581 59.0918 43.4756 59.0918C43.7387 59.0918 44.0457 58.9944 44.3351 58.835C44.0194 59.0918 43.2914 59.1892 42.5898 59.2866C42.4144 59.3132 42.2478 59.3309 42.0811 59.3574C42.1864 59.2866 42.2828 59.2069 42.3706 59.1095C42.5635 58.9236 42.6512 58.7465 42.6863 58.6048ZM41.5111 58.1001C41.5725 57.6928 41.6338 57.2767 41.7303 56.9491C41.6426 57.3209 41.6777 57.684 41.897 57.9407C41.9408 57.985 42.0197 58.0559 42.1425 58.1001C41.9847 58.1355 41.8092 58.2241 41.6075 58.4189C41.5461 58.472 41.4847 58.534 41.4321 58.596C41.4584 58.4366 41.4847 58.2684 41.5111 58.1001ZM40.6603 60.0835C40.6428 60.1278 40.634 60.1721 40.634 60.2252C40.634 60.2163 40.6253 60.2163 40.6253 60.2075C40.6077 60.1721 40.5814 60.1455 40.5551 60.1189C40.5902 60.1101 40.6253 60.1012 40.6603 60.0835ZM44.4754 45.5623C44.5894 45.6243 44.721 45.6508 44.8438 45.6508C45.1332 45.6508 45.4402 45.5092 45.7296 45.2967C45.4489 45.5977 44.8438 45.8722 44.2649 46.1378C44.1334 46.1998 44.0106 46.2529 43.8878 46.3149C43.9492 46.2352 44.0106 46.1467 44.0632 46.0493C44.2474 45.6685 44.186 45.4295 44.1334 45.2524C44.1071 45.155 44.0983 45.1019 44.1158 45.0576C44.1422 45.2878 44.2912 45.4649 44.4754 45.5623ZM42.9494 43.5523C42.888 43.8534 42.888 44.1456 42.9494 44.3847C43.0108 44.6149 43.1336 44.792 43.3002 44.8894C43.423 44.9513 43.5545 44.9868 43.6949 44.9868C43.8352 44.9868 43.9843 44.9425 44.1071 44.8539C44.0983 44.9071 44.0983 44.9513 44.1071 44.9956L44.0018 44.9248C43.9667 44.9779 43.9054 44.9956 43.8001 45.0222C43.6159 45.0665 43.3704 45.1196 43.1248 45.518C43.0634 45.6331 43.0108 45.7482 42.9669 45.8722C42.9494 45.7217 42.9319 45.5712 42.9143 45.4118C42.8354 44.6857 42.7477 43.9242 42.9494 43.5523ZM42.6161 47.4394C42.6161 47.4571 42.6161 47.4748 42.6073 47.4926H42.5986L42.5723 47.4748C42.5898 47.4571 42.6073 47.4483 42.6161 47.4394ZM42.5986 48.5551C42.7477 48.316 42.7828 48.1124 42.774 47.953C42.8354 48.0327 42.9231 48.0947 43.0108 48.1389C43.1248 48.2009 43.2476 48.2275 43.3704 48.2275C43.6949 48.2275 44.0457 48.0504 44.3526 47.7759C44.0808 48.0858 43.4668 48.3691 42.8705 48.6436C42.7038 48.7233 42.546 48.7941 42.3881 48.865C42.467 48.7676 42.5372 48.6702 42.5986 48.5551ZM41.4497 46.4123C41.4234 46.8462 41.5374 47.2535 41.8268 47.466L41.8356 47.4748C41.932 47.5191 42.0197 47.5545 42.1074 47.5634C41.9583 47.6342 41.8005 47.767 41.6602 48.0327C41.6251 48.0947 41.59 48.1566 41.5637 48.2275C41.5549 48.1212 41.5374 48.0061 41.5286 47.891C41.4672 47.3597 41.4146 46.8196 41.4497 46.4123ZM41.2304 49.9452C41.2304 49.9629 41.2216 49.9806 41.2216 49.9984L41.2129 49.9895L41.1953 49.9718C41.2041 49.9629 41.2216 49.9541 41.2304 49.9452ZM41.2041 51.0609C41.3357 50.813 41.3707 50.627 41.362 50.4765C41.4146 50.5473 41.476 50.6093 41.5374 50.6447L41.5461 50.6536C41.6602 50.7156 41.7829 50.7421 41.9145 50.7421C42.2215 50.7421 42.5547 50.5916 42.8441 50.3614C42.5635 50.6447 41.9759 50.8926 41.4058 51.1317C41.283 51.1848 41.169 51.2291 41.0462 51.2822C41.1076 51.2114 41.1602 51.1317 41.2041 51.0609ZM39.9938 48.8473C39.9587 49.3254 40.0903 49.7681 40.4499 49.9895C40.5288 50.0338 40.6077 50.0515 40.6866 50.0692C40.5551 50.1312 40.4148 50.2463 40.2744 50.4765C40.2131 50.5916 40.1604 50.7067 40.1166 50.8307C40.099 50.6801 40.0815 50.5296 40.064 50.3702C40.0026 49.8124 39.9412 49.2457 39.9938 48.8473ZM39.8008 52.389C39.8008 52.4067 39.8008 52.4245 39.8008 52.4422L39.757 52.4245H39.7482C39.7658 52.4156 39.7833 52.3979 39.8008 52.389ZM39.7482 53.5047C39.9149 53.2391 39.9412 53.0354 39.9236 52.876C39.985 52.9646 40.0727 53.0443 40.1692 53.0885C40.2832 53.1505 40.4148 53.1771 40.5376 53.1771C40.8182 53.1771 41.1164 53.0531 41.3883 52.8495C41.0813 53.1151 40.5463 53.3542 40.0289 53.5932C39.8622 53.6729 39.7044 53.7438 39.5465 53.8146C39.6167 53.7083 39.6868 53.6109 39.7482 53.5047ZM38.6256 51.1937C38.5905 51.4505 38.5993 51.6984 38.6519 51.902C38.7221 52.15 38.8624 52.3271 39.0554 52.4245C39.1343 52.4776 39.2395 52.513 39.3448 52.5219C39.2045 52.575 39.0378 52.6989 38.88 52.9823C38.8186 53.0797 38.766 53.1948 38.7221 53.3099C38.7046 53.1594 38.687 53 38.6695 52.8406C38.6081 52.2297 38.5467 51.601 38.6256 51.1937ZM38.3537 55.9396C38.4853 55.7271 38.5292 55.5501 38.5292 55.4084C38.5905 55.4792 38.6695 55.5501 38.766 55.5943C38.8712 55.6563 38.9852 55.6829 39.108 55.6829C39.2395 55.6829 39.3799 55.6475 39.5202 55.5943C39.2571 55.7449 38.9414 55.8865 38.6344 56.0193C38.4678 56.099 38.3099 56.1699 38.152 56.2407C38.2222 56.1433 38.2924 56.0459 38.3537 55.9396ZM37.1961 54.0537C37.2224 54.4255 37.3364 54.7443 37.5907 54.9214L37.5995 54.9302C37.6784 54.9745 37.7661 55.0011 37.8451 55.0099C37.7135 55.0808 37.5644 55.1959 37.4241 55.4084L37.4153 55.4172C37.3802 55.4969 37.3539 55.5766 37.3276 55.6563C37.3189 55.5412 37.3013 55.4172 37.2925 55.3021C37.2399 54.8683 37.1873 54.4255 37.1961 54.0537ZM36.9856 57.3298C36.9856 57.3564 36.9768 57.3829 36.9768 57.4095C36.9593 57.4006 36.9505 57.3918 36.933 57.3829C36.9242 57.3829 36.9242 57.3829 36.9154 57.3741C36.9417 57.3564 36.968 57.3386 36.9856 57.3298ZM32.7671 55.6032L32.7495 55.5943H32.732C32.7495 55.5766 32.7671 55.5589 32.7758 55.5412C32.7758 55.5678 32.7846 55.5943 32.7934 55.6209C32.7846 55.6209 32.7846 55.612 32.7671 55.6032ZM35.2315 52.7078C35.0386 53.062 34.5299 53.4516 34.0388 53.8412C33.8984 53.9474 33.7669 54.0537 33.6441 54.1599C33.6879 54.0625 33.723 53.9563 33.7581 53.85C33.837 53.6021 33.837 53.4161 33.7932 53.2745C33.8633 53.3276 33.951 53.363 34.0388 53.3896C34.1001 53.4073 34.1528 53.4073 34.2142 53.4073C34.5913 53.4073 34.9596 53.1151 35.2315 52.7078ZM34.9333 47.3332C34.9509 47.3155 34.9596 47.2978 34.9772 47.2801C34.9772 47.2978 34.9859 47.3155 34.9859 47.3332H34.9333ZM35.5034 48.3426C35.3631 48.4577 35.2315 48.5639 35.1087 48.6702C35.1526 48.5816 35.1877 48.4842 35.2227 48.3869V48.378C35.2929 48.0415 35.2491 47.829 35.1877 47.6785C35.2754 47.7582 35.3806 47.8113 35.4946 47.8379C35.556 47.8556 35.6086 47.8556 35.67 47.8556C36.0472 47.8556 36.4243 47.5634 36.6962 47.1472C36.512 47.528 36.0033 47.9441 35.5034 48.3426ZM36.2313 45.58C36.091 45.6863 35.9594 45.7925 35.8367 45.8988C35.8805 45.8014 35.9244 45.6951 35.9507 45.58C36.0121 45.3144 35.9858 45.1196 35.9419 44.9779C36.0208 45.0487 36.1173 45.093 36.2226 45.1196C36.284 45.1284 36.3366 45.1373 36.398 45.1373C36.5821 45.1373 36.7663 45.0753 36.9417 44.9602C37.0294 44.8982 37.1171 44.8274 37.1961 44.7477C36.9505 45.0133 36.5909 45.2967 36.2313 45.58ZM36.6786 42.8529C36.8014 42.4278 36.7225 42.2065 36.626 42.056C36.7137 42.1445 36.8277 42.2065 36.9593 42.2419C37.0207 42.2508 37.0733 42.2596 37.1347 42.2596C37.5293 42.2596 37.9152 41.9674 38.1959 41.5513C38.0468 41.9231 37.4943 42.3747 36.968 42.8086C36.8277 42.9237 36.6962 43.0299 36.5734 43.1362C36.6085 43.0476 36.6523 42.9503 36.6786 42.8529ZM34.9859 40.7278C35.0123 41.02 35.0824 41.2768 35.1964 41.4804C35.328 41.6929 35.4946 41.8257 35.7139 41.8789C35.7577 41.8877 35.8279 41.9054 35.9156 41.9054C36.0735 41.9054 36.2752 41.8612 36.433 41.6664C36.4418 41.7549 36.4681 41.8257 36.512 41.9054C36.4857 41.87 36.4681 41.8346 36.4681 41.808H36.398H36.3278C36.3278 41.8435 36.3103 41.8523 36.2226 41.8966C36.0735 41.9763 35.8191 42.1002 35.6788 42.5961C35.6437 42.6935 35.6262 42.7909 35.6174 42.8883C35.5736 42.7643 35.5209 42.6315 35.4683 42.5075C35.1964 41.8346 34.9333 41.144 34.9859 40.7278ZM34.2492 43.5612C34.2668 43.8711 34.3369 44.1544 34.4685 44.3581C34.6001 44.5706 34.7667 44.7034 34.9859 44.7565C35.0298 44.7654 35.1 44.7831 35.1877 44.7831C35.2227 44.7831 35.2491 44.7831 35.2841 44.7743C35.1614 44.8717 35.021 45.031 34.9246 45.3232C34.8895 45.4295 34.8719 45.5357 34.8632 45.642C34.8193 45.518 34.7667 45.3941 34.7141 45.2701C34.4685 44.6326 34.2142 43.9774 34.2492 43.5612ZM34.258 47.5545C34.3106 47.5722 34.3633 47.5722 34.4246 47.5722C34.451 47.5722 34.4773 47.5722 34.5123 47.5634C34.4071 47.6519 34.2931 47.8025 34.2142 48.0415C34.1791 48.1566 34.1615 48.2806 34.144 48.3957C34.1001 48.2717 34.0475 48.1478 34.0037 48.0238C33.7756 47.4394 33.5476 46.8462 33.5301 46.4212C33.6002 46.9701 33.8283 47.4129 34.258 47.5545ZM32.9688 49.8567C33.1091 50.0869 33.302 50.2374 33.5213 50.2905C33.5652 50.2994 33.6353 50.3171 33.723 50.3171C33.723 50.3171 33.723 50.3171 33.7318 50.3171C33.6265 50.4234 33.5213 50.5827 33.4687 50.8661C33.4424 50.9635 33.4161 51.0609 33.4073 51.1583C33.3634 51.0343 33.3108 50.9104 33.2582 50.7775C33.1179 50.4057 32.9688 50.0249 32.8811 49.6884C32.9074 49.7416 32.9337 49.8036 32.9688 49.8567ZM32.1531 52.4067C32.1794 52.4687 32.2058 52.5307 32.2408 52.5838C32.3812 52.814 32.5653 52.9646 32.7934 53.0177C32.8723 53.0531 32.96 53.0797 33.0389 53.0797C33.0477 53.0797 33.0565 53.0797 33.0565 53.0797C32.9425 53.1859 32.8284 53.3365 32.7407 53.5932C32.7057 53.6906 32.6881 53.788 32.6794 53.8854C32.6355 53.7615 32.5829 53.6287 32.5303 53.5047C32.3899 53.124 32.2408 52.7432 32.1531 52.4067ZM27.8732 50.565C27.7855 50.4411 27.689 50.3171 27.6013 50.1931C27.2505 49.7239 26.8909 49.2369 26.7418 48.8384C26.9436 49.29 27.2681 49.6176 27.689 49.6265C27.7329 49.6353 27.7855 49.6442 27.8294 49.6442C27.882 49.6442 27.9346 49.6353 27.9872 49.6265C27.9083 49.7593 27.8469 49.9364 27.8469 50.2197C27.8381 50.3348 27.8557 50.4499 27.8732 50.565ZM27.8732 47.7139C27.768 47.5634 27.654 47.4129 27.5312 47.2535C27.1979 46.8019 26.8559 46.3415 26.7243 45.9785C26.926 46.4566 27.2681 46.8196 27.689 46.8196C27.7855 46.8196 27.8732 46.8019 27.9522 46.7753C27.882 46.8993 27.8294 47.0764 27.8294 47.3332C27.8381 47.466 27.8557 47.59 27.8732 47.7139ZM27.8732 53.3984C27.768 53.2479 27.654 53.0974 27.5312 52.938C27.1979 52.4864 26.8559 52.026 26.7243 51.663C26.926 52.1411 27.2681 52.5041 27.689 52.5041C27.8031 52.5041 27.8995 52.4864 27.9872 52.4599C27.8995 52.575 27.8294 52.7521 27.8294 53.0177C27.8381 53.1417 27.8557 53.2745 27.8732 53.3984ZM27.8381 44.5352C27.8381 44.6414 27.8469 44.7565 27.8732 44.8717C27.7767 44.7388 27.6715 44.5972 27.5663 44.4466C27.2067 43.9597 26.8471 43.4549 26.7155 43.0831C26.9173 43.5701 27.2681 43.9508 27.689 43.9508C27.8118 43.9508 27.9171 43.9331 28.0135 43.8888C27.9258 44.0128 27.8381 44.2076 27.8381 44.5352ZM28.1802 40.834C28.0486 40.958 27.8469 41.144 27.8469 41.6575C27.8469 41.7638 27.8557 41.8789 27.882 41.994C27.7855 41.8612 27.6803 41.7195 27.575 41.569C27.1365 40.9757 26.6892 40.3648 26.6805 39.9752C26.8646 40.5153 27.2154 40.9403 27.6978 40.9934C27.9522 40.9934 28.1451 40.9049 28.2679 40.7366C28.2503 40.7632 28.224 40.7898 28.1802 40.834ZM20.1641 41.7283L20.094 41.7638C20.094 41.7815 20.0589 41.8257 20.0326 41.8612C19.9273 42.0028 19.7607 42.2419 19.8659 42.7112C19.8922 42.8086 19.9361 42.906 19.9799 43.0034C19.8659 42.9148 19.7519 42.8263 19.6379 42.7377C19.0766 42.3039 18.4978 41.8612 18.3487 41.4804C18.5153 41.7195 18.717 41.9143 18.9275 42.0294C19.0678 42.1091 19.2169 42.1445 19.3572 42.1445C19.4362 42.1445 19.5239 42.1356 19.594 42.1091C19.7431 42.0737 19.9361 41.9851 20.0501 41.7903C20.0852 41.7283 20.1027 41.6664 20.1203 41.5955C20.1553 41.6398 20.1904 41.6752 20.2255 41.7018L20.1641 41.7283ZM20.2343 41.6929C20.2518 41.7106 20.2694 41.7195 20.2869 41.7283C20.2606 41.7195 20.243 41.7106 20.2343 41.6929ZM22.2164 44.0659C22.1287 44.3758 22.0059 44.73 21.8743 45.0842C21.8129 45.2524 21.7515 45.4118 21.6989 45.5712C21.6814 45.4649 21.6638 45.3586 21.6288 45.2524C21.5674 44.9691 21.4709 44.8008 21.3656 44.7034C21.392 44.7034 21.4183 44.7034 21.4446 44.7034C21.5323 44.7034 21.6112 44.6857 21.6638 44.6769C21.9182 44.5795 22.1024 44.3492 22.2164 44.0659ZM21.6288 47.2623L21.6112 47.2712C21.62 47.2535 21.62 47.2269 21.6288 47.2092C21.6375 47.2269 21.6463 47.2358 21.6551 47.2535L21.6288 47.2623ZM20.4185 41.7903C20.4974 41.8169 20.5676 41.8257 20.6377 41.8257C20.7254 41.8257 20.8043 41.808 20.8482 41.7992C21.3043 41.6487 21.5323 41.1705 21.5674 40.6304C21.6288 41.0288 21.3832 41.6752 21.1464 42.3039C21.085 42.4633 21.0236 42.6226 20.971 42.782C20.9534 42.6669 20.9359 42.5607 20.9008 42.4455C20.8043 42.0205 20.5851 41.87 20.4185 41.7903ZM20.9096 44.4555H20.9008H20.8921C20.8921 44.4466 20.8921 44.4378 20.9008 44.4289C20.9008 44.4378 20.9096 44.4466 20.9096 44.4555ZM19.9887 47.2092C20.2606 47.5545 20.6026 47.7936 20.9622 47.7936C21.0236 47.7936 21.0762 47.7847 21.1376 47.7759C21.2078 47.7582 21.2867 47.7228 21.3569 47.6785C21.313 47.8202 21.2867 47.9973 21.3481 48.2452C21.3744 48.3426 21.4183 48.44 21.4534 48.5285C21.3569 48.4488 21.2604 48.378 21.1639 48.2983C20.6816 47.9264 20.1992 47.5545 19.9887 47.2092ZM21.8831 51.0697C21.506 50.7598 21.1201 50.4411 20.8657 50.1489C21.1025 50.3791 21.3832 50.5296 21.6726 50.5296C21.734 50.5296 21.7954 50.5208 21.8656 50.5119C21.9533 50.4942 22.0234 50.4588 22.0936 50.4234C22.041 50.565 22.0147 50.7598 22.0673 51.0432V51.052C22.0936 51.1406 22.1287 51.2203 22.1725 51.3088C22.076 51.2291 21.9883 51.1494 21.8831 51.0697ZM22.383 49.9806V49.9718L22.3918 49.9806H22.383ZM22.611 47.8467C22.5496 48.0061 22.4882 48.1655 22.4356 48.3249C22.4181 48.2098 22.4005 48.1035 22.3655 47.9884C22.3041 47.7228 22.2076 47.5722 22.0936 47.466C22.1111 47.466 22.1199 47.466 22.1374 47.466C22.2251 47.466 22.3128 47.4483 22.3918 47.404C22.5847 47.3509 22.7514 47.2181 22.8741 46.9967C22.918 46.9259 22.9531 46.855 22.9794 46.7665C22.8917 47.103 22.7514 47.4748 22.611 47.8467ZM23.1636 51.1052C23.146 50.9989 23.1285 50.8926 23.0934 50.7864C23.032 50.503 22.9355 50.3348 22.8215 50.2374C22.8478 50.2374 22.8829 50.2463 22.9092 50.2463C22.9882 50.2463 23.0583 50.2374 23.1197 50.2197C23.3828 50.1223 23.567 49.8921 23.681 49.6088C23.5933 49.9187 23.4705 50.2728 23.339 50.6182C23.2776 50.7775 23.2162 50.9458 23.1636 51.1052ZM23.8213 55.5235H23.8126C23.8213 55.5058 23.8213 55.4792 23.8301 55.4615C23.8476 55.4881 23.874 55.5058 23.8915 55.5324C23.8652 55.5235 23.8476 55.5235 23.8213 55.5235ZM23.8915 53.8323C23.874 53.7261 23.8564 53.6198 23.8213 53.5135C23.7599 53.2302 23.6635 53.062 23.5582 52.9646C23.5845 52.9646 23.6108 52.9734 23.6372 52.9734C23.7249 52.9734 23.795 52.9557 23.8389 52.9469C24.0318 52.8937 24.1985 52.7609 24.33 52.5396C24.3476 52.5041 24.3651 52.4687 24.3826 52.4333C24.2949 52.7255 24.1809 53.0354 24.0669 53.3453C24.0055 53.5047 23.9441 53.6729 23.8915 53.8323ZM17.647 52.3448C17.8575 52.212 18.0066 51.9817 18.068 51.6895C18.1031 51.5479 18.1119 51.3885 18.0943 51.2291C18.1469 51.6276 18.0856 52.1854 18.0242 52.7255C18.0066 52.8937 17.9891 53.062 17.9715 53.2213C17.9277 53.1151 17.8751 53.0088 17.8224 52.9114C17.6733 52.637 17.5243 52.5041 17.3839 52.4333C17.4716 52.4156 17.5593 52.389 17.647 52.3448ZM16.9016 52.3359L16.884 52.3536L16.8752 52.3625C16.8752 52.3448 16.8752 52.3271 16.8752 52.3093C16.8752 52.3182 16.884 52.3271 16.9016 52.3359ZM16.2613 49.8301C16.5069 49.6884 16.6297 49.3785 16.656 49.0244C16.6648 49.3785 16.6121 49.8213 16.5683 50.2551C16.5507 50.3702 16.542 50.4942 16.5332 50.6093C16.5069 50.5385 16.4718 50.4676 16.4367 50.3968C16.2876 50.1489 16.121 50.0338 15.9719 49.9718C16.0684 49.9541 16.1649 49.9098 16.2613 49.8301ZM14.7967 47.404C15.1475 47.1826 15.2791 46.7488 15.244 46.2706C15.2966 46.6779 15.2352 47.2358 15.1738 47.7848C15.1563 47.953 15.1387 48.1212 15.1212 48.2806C15.0773 48.1743 15.0247 48.0681 14.9721 47.9707C14.823 47.7051 14.6739 47.5722 14.5423 47.5014C14.6388 47.4837 14.7265 47.4483 14.7967 47.404ZM14.1126 47.404L14.0687 47.4306C14.0687 47.4129 14.0687 47.3952 14.0687 47.3686C14.0775 47.3863 14.0951 47.3952 14.1126 47.404ZM12.5953 44.8008C12.6216 44.8185 12.6567 44.8451 12.683 44.8539L12.6392 44.8982L12.5953 44.9425C12.6041 44.8982 12.6041 44.8451 12.5953 44.8008ZM12.5778 45.0665C12.5866 45.031 12.5953 45.0045 12.5953 44.9691C12.6041 44.9956 12.5866 45.031 12.5603 45.1107C12.5603 45.1196 12.5515 45.1284 12.5515 45.1284C12.5603 45.1107 12.569 45.093 12.5778 45.0665ZM10.9553 45.2081C11.0254 45.2612 11.0956 45.3144 11.1658 45.3498C11.4026 45.4915 11.6394 45.5712 11.8586 45.5712C11.9902 45.5712 12.1217 45.5446 12.2358 45.4826C12.3848 45.4118 12.4901 45.2878 12.5515 45.1373C12.4901 45.3232 12.4112 45.5889 12.648 45.9696C12.7093 46.0759 12.7795 46.1732 12.8497 46.2706C12.7181 46.2087 12.5866 46.1467 12.455 46.0847C11.8411 45.8102 11.2184 45.5269 10.9553 45.2081ZM12.3498 47.7051C12.6567 47.9795 13.0075 48.1566 13.332 48.1566C13.4548 48.1566 13.5776 48.1301 13.6916 48.0681C13.7881 48.0238 13.867 47.953 13.9284 47.8644C13.9197 48.015 13.9547 48.2186 14.1038 48.4754C14.1477 48.5551 14.1915 48.6348 14.2529 48.7145C14.1126 48.6525 13.9723 48.5905 13.8319 48.5285C13.2356 48.2717 12.6216 48.015 12.3498 47.7051ZM14.2442 50.5208C14.3231 50.5562 14.4108 50.5827 14.4897 50.6005C14.5599 50.6182 14.6213 50.6182 14.6827 50.6182C14.8318 50.6182 14.9721 50.5739 15.0861 50.4942C15.1826 50.4499 15.2615 50.3879 15.3229 50.3171C15.3141 50.4676 15.3404 50.6624 15.4983 50.9104C15.5597 51.0255 15.6299 51.1229 15.7088 51.2203C15.5509 51.1494 15.3931 51.0697 15.2264 50.9989C14.8756 50.8484 14.5336 50.689 14.2442 50.5208ZM16.6823 53.487C16.121 53.2479 15.5422 53 15.2527 52.7255C15.3229 52.7786 15.4018 52.8318 15.472 52.8849C15.7088 53.0266 15.9456 53.1062 16.1649 53.1062C16.2964 53.1062 16.428 53.0797 16.542 53.0177L16.5507 53.0088C16.6209 52.9646 16.6735 52.9026 16.7262 52.8406C16.7174 52.9911 16.7525 53.1859 16.884 53.425C16.9279 53.4958 16.9805 53.5667 17.0331 53.6375C16.9191 53.5844 16.8051 53.5313 16.6823 53.487ZM18.068 55.9485C17.7523 55.8068 17.4365 55.6563 17.1647 55.5058C17.1997 55.5146 17.2348 55.5323 17.2699 55.5412C17.3488 55.5589 17.4278 55.5678 17.5067 55.5678C17.6646 55.5678 17.8049 55.5235 17.9277 55.4438C17.9978 55.4084 18.0768 55.3553 18.1469 55.2756C18.1382 55.4261 18.1557 55.6209 18.2697 55.8511C18.3223 55.9396 18.375 56.0282 18.4451 56.1079C18.3223 56.0636 18.1996 56.0016 18.068 55.9485ZM19.4186 55.1959C19.4011 55.3553 19.3836 55.5146 19.366 55.6652C19.3222 55.5501 19.2695 55.4438 19.2082 55.3376C19.0766 55.1073 18.9538 54.9745 18.831 54.8948C18.91 54.8683 18.9801 54.824 19.0415 54.7709C19.2345 54.6735 19.366 54.4875 19.4362 54.2485C19.4976 54.0448 19.5063 53.7969 19.4625 53.549C19.5502 53.9651 19.48 54.5938 19.4186 55.1959ZM19.7607 57.3121C19.7431 57.3209 19.7344 57.3298 19.7256 57.3386C19.7256 57.3121 19.7256 57.2855 19.7168 57.259C19.7344 57.2767 19.7607 57.2855 19.7782 57.3032C19.7695 57.3032 19.7695 57.3032 19.7607 57.3121ZM14.0863 58.047C14.0775 58.047 14.0775 58.047 14.0863 58.047C14.0775 58.047 14.0863 58.047 14.0863 58.047ZM12.8409 55.8688C13.1479 55.5058 13.1216 54.9745 12.9198 54.4787C13.1216 54.8328 13.2093 55.4792 13.297 56.1167C13.3233 56.3027 13.3496 56.4798 13.3759 56.648C13.3057 56.5417 13.218 56.4444 13.1303 56.3558C12.9198 56.1433 12.7444 56.0636 12.6041 56.0282C12.6918 56.0016 12.7707 55.9397 12.8409 55.8688ZM12.1305 56.037L12.1217 56.0459C12.1217 56.0371 12.1217 56.037 12.113 56.0282C12.1217 56.037 12.1305 56.037 12.1305 56.037ZM10.8676 53.8057C11.0868 53.5755 11.1219 53.2302 11.0254 52.8583C11.1395 53.2125 11.2096 53.6729 11.2886 54.1245C11.3149 54.2573 11.3324 54.399 11.3587 54.5229C11.2973 54.4433 11.2359 54.3636 11.157 54.2839C10.9641 54.0891 10.7974 54.0094 10.6571 53.9828C10.736 53.9474 10.8062 53.8854 10.8676 53.8057ZM10.1572 54.0448L10.1309 54.0714C10.1309 54.0625 10.1221 54.0448 10.1221 54.036C10.1396 54.036 10.1484 54.036 10.1572 54.0448ZM8.81533 51.8224C8.98197 51.6807 9.07844 51.4682 9.08721 51.2114C9.08721 51.114 9.07844 51.0078 9.0609 50.8926C9.15737 51.2203 9.21876 51.6276 9.28016 52.0349C9.30647 52.1942 9.32401 52.3448 9.35032 52.4953C9.2977 52.4245 9.24507 52.3625 9.18368 52.3005C8.96442 52.0791 8.76271 51.9994 8.60484 51.964C8.68377 51.9286 8.75394 51.8843 8.81533 51.8224ZM8.1137 51.9817L8.09616 51.9994C8.09616 51.9906 8.08739 51.9817 8.08739 51.9729C8.09616 51.9729 8.10493 51.9729 8.1137 51.9817ZM6.27194 49.9452C6.28948 49.9452 6.29825 49.9452 6.31579 49.9452C6.4912 49.9364 6.65783 49.839 6.78062 49.6707C7.07881 49.3608 7.03496 48.8384 6.79816 48.3337C7.04373 48.6613 7.16651 49.3697 7.27175 50.0692C7.29807 50.202 7.31561 50.3437 7.34192 50.4765C7.28052 50.3879 7.21036 50.3083 7.1402 50.2374C6.78939 49.9364 6.53505 49.9541 6.35964 49.9629C6.27194 49.9718 6.22809 49.9718 6.20178 49.9452C6.21932 49.9452 6.24563 49.9452 6.27194 49.9452ZM6.21055 51.176C5.48261 51.0786 4.73713 50.9723 4.44771 50.689C4.70205 50.8041 4.96516 50.8749 5.20196 50.8749C5.44753 50.8749 5.66679 50.8041 5.83342 50.6359C6.0176 50.4499 6.14038 50.1843 6.04391 49.901C6.09653 49.9187 6.14915 49.9364 6.19301 49.9452L6.14038 49.9984L6.08776 50.0515C6.1053 50.0692 6.1053 50.1135 6.08776 50.1931C6.06145 50.3702 6.0176 50.6447 6.37718 51.0077C6.46489 51.0963 6.55259 51.1671 6.65783 51.238C6.50874 51.2114 6.35964 51.1937 6.21055 51.176ZM8.12247 53.1682C7.71904 53.1062 7.31561 53.0443 6.98233 52.9557C7.09635 52.9823 7.21036 53 7.32438 53C7.56117 53 7.77166 52.938 7.94707 52.7875C8.01723 52.7167 8.06985 52.6281 8.10493 52.5307C8.14002 52.6901 8.21895 52.876 8.42944 53.0797C8.49083 53.1417 8.55222 53.1948 8.62238 53.2479C8.45575 53.2125 8.28911 53.1859 8.12247 53.1682ZM10.3063 55.2313C9.84146 55.1605 9.34155 55.0808 8.96442 54.9568C9.06967 54.9834 9.16614 55.0011 9.26262 55.0011C9.27139 55.0011 9.28893 55.0011 9.2977 55.0011C9.55204 55.0011 9.76252 54.9214 9.91162 54.7709C9.98178 54.7 10.0432 54.6115 10.087 54.5141C10.1046 54.6646 10.1747 54.8506 10.3852 55.0631C10.4641 55.1428 10.5606 55.2224 10.6571 55.2933C10.5431 55.2756 10.4291 55.249 10.3063 55.2313ZM12.2007 57.2235C11.7008 57.1527 11.1921 57.0819 10.8325 56.9579C10.85 56.9668 10.8764 56.9756 10.8939 56.9756C11.0254 57.011 11.157 57.0287 11.2798 57.0287C11.5517 57.0287 11.7885 56.9402 11.9639 56.7631C12.0253 56.7011 12.0779 56.6303 12.113 56.5417C12.1393 56.71 12.2182 56.9048 12.4462 57.135C12.4989 57.1881 12.5603 57.2412 12.6304 57.2944C12.4813 57.2678 12.341 57.2412 12.2007 57.2235ZM14.0951 59.2158C13.6127 59.1449 13.1216 59.0653 12.7795 58.9413C12.8234 58.959 12.8584 58.9679 12.9023 58.9767C13.0602 59.021 13.218 59.0475 13.3496 59.0475C13.5951 59.0475 13.7969 58.9767 13.946 58.8262C13.9898 58.7819 14.06 58.7022 14.1038 58.5783C14.1389 58.7376 14.2266 58.9147 14.4196 59.1184C14.481 59.1804 14.5511 59.2423 14.6125 59.2955C14.4459 59.2689 14.2705 59.2423 14.0951 59.2158ZM15.1036 58.348C14.9195 58.1621 14.7616 58.0824 14.63 58.0381C14.7265 57.9939 14.8055 57.9407 14.8844 57.8611C15.2177 57.5246 15.13 56.9136 14.823 56.3647C15.0773 56.6834 15.1738 57.4183 15.2703 58.1267C15.2966 58.3038 15.3141 58.472 15.3404 58.6402C15.2703 58.5428 15.1913 58.4454 15.1036 58.348ZM16.1736 60.1101C16.1561 60.1189 16.1298 60.1366 16.1122 60.1543C16.1035 60.1278 16.0947 60.0924 16.0771 60.0658C16.1122 60.0747 16.1561 60.0835 16.1912 60.0924C16.1912 60.1012 16.1824 60.1101 16.1736 60.1101ZM29.1712 52.938C29.0572 53.0974 28.9432 53.2479 28.8292 53.3984C28.8467 53.2745 28.8643 53.1417 28.8643 53.0177C28.8643 52.7344 28.7853 52.5661 28.6976 52.4422C28.8204 52.4953 28.9432 52.5041 29.0046 52.5041C29.4256 52.5041 29.7676 52.1411 29.9693 51.663C29.8465 52.026 29.5045 52.4864 29.1712 52.938ZM28.7152 49.6088C28.7766 49.6265 28.838 49.6353 28.8993 49.6353C28.9432 49.6353 28.9783 49.6265 29.0221 49.6176C29.4431 49.6088 29.7676 49.2811 29.9693 48.8296C29.829 49.228 29.4694 49.715 29.1098 50.1843C29.0134 50.3083 28.9257 50.4322 28.838 50.5562C28.8555 50.4411 28.8643 50.326 28.8643 50.202C28.8643 49.9187 28.8029 49.7327 28.7152 49.6088ZM29.1712 47.2535C29.0572 47.4129 28.9432 47.5634 28.8292 47.7139C28.8467 47.59 28.8643 47.4571 28.8643 47.3332C28.8643 47.0675 28.8116 46.8905 28.7415 46.7665C28.8292 46.8019 28.9169 46.8196 29.0134 46.8196C29.4343 46.8196 29.7764 46.4566 29.9781 45.9785C29.8465 46.3415 29.5045 46.8019 29.1712 47.2535ZM29.1361 44.4466C29.0309 44.5883 28.9257 44.73 28.8292 44.8717C28.8467 44.7565 28.8643 44.6414 28.8643 44.5352C28.8643 44.1899 28.7678 43.9862 28.6625 43.8623C28.7678 43.9242 28.8906 43.9508 29.0046 43.9508C29.4343 43.9508 29.7764 43.5789 29.9781 43.0831C29.8641 43.4549 29.4957 43.9597 29.1361 44.4466ZM28.3556 40.5684C28.4871 40.8429 28.7503 40.9934 29.0134 40.9934C29.487 40.9403 29.8378 40.5153 30.0219 39.9752C30.0132 40.3648 29.5659 40.9757 29.1274 41.569C29.0221 41.7106 28.9257 41.8435 28.8292 41.9851C28.8467 41.8789 28.8555 41.7638 28.8555 41.6575C28.8555 41.144 28.6538 40.958 28.5222 40.834C28.4521 40.7721 28.417 40.7366 28.417 40.6924H28.3468H28.2854C28.3205 40.657 28.338 40.6127 28.3556 40.5684ZM28.338 46.4477C28.3468 46.43 28.3556 46.4123 28.3644 46.3946C28.3731 46.4123 28.3819 46.43 28.3907 46.4477H28.338ZM28.3644 52.1323H28.3468C28.3468 52.1234 28.3556 52.1234 28.3556 52.1145C28.3644 52.1234 28.3644 52.1234 28.3644 52.1323ZM28.3556 43.5701H28.338C28.3468 43.5523 28.3556 43.5346 28.3644 43.5169C28.3731 43.5346 28.3819 43.5523 28.3907 43.5701H28.3556ZM28.3556 55.0099C28.3468 55.0099 28.3468 55.0099 28.338 55.0099C28.3468 54.9922 28.3556 54.9745 28.3644 54.9568C28.3731 54.9745 28.3819 54.9922 28.3907 55.0099C28.3731 55.0099 28.3644 55.0099 28.3556 55.0099Z" fill="white"/>
<path d="M36.7579 40.7191C36.8105 40.5508 37.0648 40.3737 37.3367 40.1878C37.7226 39.9222 38.1611 39.6123 38.2927 39.1607L39.2399 35.5481L39.0996 35.5127L38.2751 38.656C38.2225 38.4258 38.1173 38.1867 38.0208 37.9653L38.0822 37.9831L38.74 35.3976L38.5996 35.3622L37.9682 37.8414C37.9506 37.806 37.9331 37.7706 37.9156 37.7351C37.8191 37.5403 37.7051 37.3013 37.7226 37.2481L37.6524 37.2216L37.7226 37.2393L38.2313 35.247L38.091 35.2116L37.5823 37.2039C37.5647 37.257 37.3543 37.3987 37.1964 37.5049C37.1438 37.5403 37.0911 37.5758 37.0385 37.6112L37.7314 35.1054L37.5911 35.0611L36.8631 37.7174L36.8807 37.7263C36.714 37.8502 36.5474 37.9831 36.4071 38.1247L37.2227 34.9549L37.0824 34.9194L36.1352 38.6117C36.0124 39.0013 36.2317 39.4795 36.4246 39.8956C36.5737 40.2055 36.7053 40.5066 36.6526 40.6748L36.7579 40.7191Z" fill="white"/>
<path d="M44.5097 41.8346C44.2905 42.1887 44.387 42.72 44.4747 43.1893C44.5361 43.5169 44.5887 43.8356 44.5097 43.9685L44.6413 44.0482C44.7202 43.9153 45.0009 43.8091 45.2903 43.7028C45.7376 43.5346 46.2463 43.3487 46.4655 42.9414L48.3687 39.6918L48.2371 39.6121L46.6059 42.3924C46.6146 42.171 46.5883 41.9408 46.5532 41.7194L46.6059 41.7549L47.9214 39.3907L47.7898 39.3199L46.5269 41.5866C46.5181 41.5335 46.5094 41.4804 46.5006 41.4361C46.4655 41.2413 46.4217 41.0022 46.448 40.958L46.3954 40.9048L46.4568 40.9403L47.4829 39.0985L47.3513 39.0277L46.334 40.8606C46.2901 40.896 46.1147 40.958 45.9481 41.0111C45.8867 41.0288 45.8165 41.0554 45.7464 41.0819L46.9742 38.886L46.8426 38.8152L45.5359 41.1616C45.3166 41.2413 45.0798 41.3476 44.8869 41.4715L46.5357 38.5938L46.4041 38.5142L44.5097 41.8346Z" fill="white"/>
<path d="M51.9822 47.1385C51.6752 47.413 51.6138 47.9443 51.57 48.4047C51.5349 48.7235 51.5086 49.0245 51.4033 49.1308L51.4559 49.1839L51.5086 49.237C51.6138 49.1308 51.912 49.1131 52.2277 49.0954C52.7013 49.0688 53.2363 49.0334 53.552 48.7235L56.2533 46.0672L56.1481 45.9609L53.8152 48.2542C53.8941 48.0151 53.9204 47.7495 53.9467 47.4927L53.9993 47.537L55.8236 45.6156L55.7183 45.5093L53.9643 47.3599C53.9643 47.3333 53.9643 47.3156 53.973 47.2891C53.9906 47.0588 54.0081 46.7755 54.0695 46.7312L54.0256 46.6692L54.0783 46.7224L55.464 45.2437L55.3587 45.1374L53.9818 46.6073C53.9204 46.6427 53.7011 46.6604 53.4907 46.6781C53.4293 46.687 53.3679 46.687 53.3065 46.6958L55.1044 44.8807L54.9991 44.7744L53.096 46.6958L53.1223 46.7224C52.9118 46.7489 52.6926 46.7844 52.4996 46.8463L54.7448 44.5176L54.6396 44.4114L52.026 47.1208C51.9909 47.1208 51.9822 47.1297 51.9822 47.1385Z" fill="white"/>
<path d="M20.4621 38.5319C20.4621 38.523 20.4533 38.5142 20.4533 38.5053L19.5061 34.8396L19.3658 34.875L20.1639 37.9918C20.0323 37.8412 19.8657 37.6996 19.6991 37.5756L19.7254 37.5667L18.9974 34.9813L18.8571 35.0255L19.55 37.4605C19.4886 37.4162 19.4272 37.372 19.3658 37.3365C19.2079 37.2303 19.015 37.0975 18.9974 37.0443L18.4888 35.1318L18.3484 35.1672L18.8571 37.0886L18.9273 37.0709L18.8571 37.0975C18.8746 37.1594 18.7519 37.4074 18.6642 37.611C18.6554 37.6199 18.6554 37.6376 18.6466 37.6464L17.9801 35.2823L17.8398 35.3266L18.5589 37.8589C18.4537 38.0892 18.3572 38.3371 18.3046 38.5761L17.4802 35.362L17.3398 35.3974L18.287 39.0897C18.4274 39.559 18.9097 39.8777 19.3044 40.1345C19.55 40.2939 19.778 40.4444 19.8218 40.5684L19.892 40.5418L19.9622 40.5153C19.9095 40.3824 20.0411 40.1168 20.1814 39.8246C20.3568 39.4173 20.5849 38.9392 20.4621 38.5319Z" fill="white"/>
<path d="M10.1649 42.8706C10.4017 43.3044 10.9718 43.4904 11.419 43.6497C11.6822 43.7383 11.919 43.818 11.9979 43.9154L12.0593 43.8711L12.1207 43.8268C12.0417 43.7294 12.1031 43.4195 12.1558 43.1273C12.2435 42.6581 12.3399 42.1268 12.1207 41.7726C12.1031 41.7372 12.0856 41.7018 12.0681 41.6664L10.2964 38.4434L10.1649 38.5142L11.7085 41.3122C11.5331 41.1971 11.3313 41.1085 11.1384 41.0377L11.1735 41.02L9.78777 38.7356L9.66499 38.8152L10.9805 40.9846C10.9279 40.9669 10.8841 40.9492 10.8402 40.9314C10.6385 40.8606 10.4192 40.7809 10.3754 40.7278L9.35803 38.9569L9.22647 39.0366L10.2526 40.8075L10.314 40.7721L10.2526 40.8163C10.2877 40.8783 10.2263 41.1528 10.1824 41.3742C10.1737 41.4096 10.1649 41.445 10.1561 41.4804L8.91951 39.258L8.78796 39.3288L10.1035 41.6929L10.1123 41.6841C10.0684 41.9054 10.0333 42.1268 10.0421 42.3393L8.40206 39.4793L8.27051 39.5502L10.1649 42.8706Z" fill="white"/>
<path d="M3.2286 48.7144C3.23737 48.7144 3.23737 48.7233 3.2286 48.7144C3.52679 48.9801 4.03547 49.0243 4.48275 49.0598C4.79849 49.0863 5.11422 49.1129 5.20192 49.2191L5.26331 49.1749L5.3247 49.1306C5.25454 49.0332 5.237 48.7676 5.21069 48.4842C5.17561 47.9972 5.13176 47.3951 4.80726 47.0587L2.17616 44.4023L2.07092 44.5086L4.33366 46.793C4.13194 46.731 3.91268 46.6956 3.7022 46.6779L1.81658 44.7742L1.71134 44.8805L3.47417 46.6602C3.44786 46.6602 3.43032 46.6602 3.40401 46.6514C3.17598 46.6336 2.89533 46.6159 2.85148 46.554L2.79008 46.5982L2.84271 46.5451L1.457 45.1461L1.35175 45.2524L2.72869 46.6425C2.76377 46.7045 2.78131 46.9258 2.79885 47.1472C2.79885 47.1826 2.80762 47.218 2.80762 47.2535L1.00971 45.5091L0.904467 45.6154L2.8164 47.4837C2.84271 47.7316 2.87779 47.9884 2.95672 48.2186L0.632587 45.881L0.527344 45.9873L3.2286 48.7144Z" fill="white"/>
<path d="M20.6906 16.8564C18.077 18.822 16.5861 21.2127 16.5861 21.2127C16.5861 21.2127 19.3838 21.0888 22.3833 19.7872C20.7958 22.6648 20.3924 25.4894 20.3924 25.4894C20.3924 25.4894 22.9095 24.2144 25.1108 21.7883C24.8214 25.0555 25.5757 27.7827 25.5757 27.7827C25.5757 27.7827 27.3473 25.6045 28.3822 22.4966C29.4258 25.6134 31.2062 27.7827 31.2062 27.7827C31.2062 27.7827 31.9605 25.0644 31.6623 21.7971C33.8812 24.2321 36.3982 25.4983 36.3982 25.4983C36.3982 25.4983 35.9948 22.6648 34.3898 19.7872C37.3893 21.0976 40.2045 21.2216 40.2045 21.2216C40.2045 21.2216 38.7136 18.8309 36.1 16.8652C39.3538 16.8121 41.9586 15.7673 41.9586 15.7673C41.9586 15.7673 39.5819 14.1912 36.3895 13.4828C39.3801 12.1016 41.3622 10.0739 41.3622 10.0739C41.3622 10.0739 38.5908 9.59576 35.3984 10.2421C37.5471 7.77175 38.5119 5.12429 38.5119 5.12429C38.5119 5.12429 35.7843 5.82379 33.1181 7.72748C34.1004 4.57532 33.9075 1.73305 33.9075 1.73305C33.9075 1.73305 31.7061 3.52164 30.0398 6.38161C29.6714 3.08778 28.3559 0.55542 28.3559 0.55542C28.3559 0.55542 27.0754 3.07007 26.707 6.33734C25.0582 3.50393 22.8744 1.73305 22.8744 1.73305C22.8744 1.73305 22.6815 4.59302 23.6637 7.75404C20.9976 5.82379 18.27 5.12429 18.27 5.12429C18.27 5.12429 19.2347 7.7629 21.3659 10.2333C18.1735 9.5869 15.4196 10.065 15.4196 10.065C15.4196 10.065 17.4017 12.0927 20.3836 13.4651C17.1825 14.1735 14.832 15.7407 14.832 15.7407C14.832 15.7407 17.4368 16.8032 20.6906 16.8564ZM28.3559 8.6749C31.5746 8.6749 34.2057 11.2604 34.2057 14.5011C34.2057 17.7507 31.5746 20.3273 28.3559 20.3273C25.2161 20.3273 22.585 17.7418 22.585 14.5011C22.5762 11.2515 25.2073 8.6749 28.3559 8.6749Z" fill="white"/>
</svg>
