<svg width="76" height="60" viewBox="0 0 76 60" fill="none" xmlns="http://www.w3.org/2000/svg">
<path d="M75.5051 30.8153C75.5051 27.1633 68.4367 24.0052 57.7194 22.2056C63.7831 12.2375 66.2157 4.12179 63.3072 1.70472C60.0814 -1.08283 50.6862 4.21 40.5506 14.1958C40.3391 14.3899 40.1452 14.584 39.9337 14.7957C39.8103 14.8133 39.8103 14.9368 39.6693 14.9368C39.7221 14.9368 39.7574 14.9368 39.7927 14.9192C39.6869 15.025 39.5811 15.1309 39.4754 15.2367C39.5459 15.1662 39.5988 15.0603 39.6693 14.9368C39.5459 15.0603 39.4401 15.1662 39.3167 15.2897C38.594 14.5663 37.8713 13.8606 37.1662 13.1725C36.7255 12.7667 36.2849 12.361 35.8618 11.9552C36.0381 11.62 36.1438 11.2318 36.1438 10.8084C36.1438 9.48519 35.1215 8.46191 33.7994 8.46191C33.2706 8.46191 32.7771 8.62069 32.354 8.90298C31.2435 7.98555 30.1506 7.1387 29.1106 6.38006C24.6157 3.08086 20.7378 1.1578 18.0584 0.999013C18.0232 0.999013 17.9879 0.999013 17.9703 0.999013H17.9527C16.9127 0.946085 16.0666 1.17544 15.4496 1.70472C12.5412 4.10414 14.9208 12.0787 20.8612 21.9234C18.4639 22.2586 16.2429 22.6467 14.1981 23.1231C6.05439 24.9403 0.889648 27.6925 0.889648 30.8153C0.889648 33.7793 5.61371 36.461 13.1052 38.3135C13.1581 38.7546 13.352 39.1603 13.6693 39.4956C14.4096 40.5188 16.0137 40.6776 17.0537 39.7955C17.23 39.6544 17.371 39.4603 17.4944 39.2662C18.3757 39.425 19.2923 39.5838 20.2266 39.7249C16.1018 46.7467 13.8808 52.6924 14.2157 56.2386C14.2157 56.2562 14.2157 56.2738 14.2157 56.2915C14.2334 56.4326 14.251 56.5738 14.2686 56.6973C14.2686 56.7326 14.2862 56.7678 14.2862 56.8031C14.3039 56.9266 14.3391 57.0325 14.3568 57.1383C14.3744 57.1913 14.3744 57.2266 14.392 57.2618C14.4273 57.3677 14.4449 57.4559 14.4801 57.5441C14.4978 57.5971 14.5154 57.6323 14.533 57.6853C14.5683 57.7735 14.6035 57.8617 14.6564 57.9323C14.674 57.9676 14.7093 58.0205 14.7269 58.0558C14.7798 58.144 14.8151 58.2146 14.8679 58.2851C14.8856 58.3204 14.9208 58.3557 14.9384 58.391C14.9913 58.4615 15.0618 58.5498 15.1147 58.6203C15.1323 58.638 15.15 58.6556 15.1676 58.6733C15.2381 58.7615 15.3262 58.832 15.4144 58.9026C18.0937 61.2138 24.651 58.1263 32.4774 51.5985C32.7771 51.7573 33.112 51.8455 33.4822 51.8455C34.8042 51.8455 35.9852 50.6634 35.9852 49.3402C35.9852 49.0932 35.9499 48.8639 35.8618 48.6345C37.0076 47.5936 38.1533 46.4821 39.3344 45.3177C49.9635 55.9386 59.8699 61.849 63.3072 58.9026C65.8808 56.7678 64.3648 50.3459 59.8347 42.142C59.3411 41.2422 58.8123 40.3071 58.2482 39.3721C68.6306 37.5549 75.5051 34.3968 75.5051 30.8153ZM57.3316 37.8548C56.2035 36.0552 54.9696 34.1851 53.6299 32.2797C53.2069 31.6445 52.7486 31.027 52.2903 30.3919C52.2903 30.3566 52.2903 30.3213 52.2903 30.286C53.912 28.0807 55.3926 25.893 56.7323 23.7935C58.5303 24.1111 60.2048 24.4639 61.7208 24.8697C67.5201 26.4223 71.0984 28.5218 71.0984 30.8153C71.0984 33.6734 65.6869 36.2669 57.3316 37.8548ZM24.6862 35.6671C24.7391 35.5612 24.792 35.473 24.8625 35.3848C25.3032 36.6551 25.9201 37.8548 26.6781 38.931C25.3913 38.8075 24.1398 38.6487 22.9235 38.4899C23.47 37.5725 24.0693 36.6198 24.6862 35.6671ZM24.6862 23.0172C25.3208 22.9466 25.9554 22.8937 26.6076 22.8231C26.0083 23.67 25.5147 24.5874 25.1093 25.5754C24.5628 24.7638 24.0517 23.9523 23.5581 23.1583C23.9283 23.1231 24.2984 23.0701 24.6862 23.0172ZM51.2679 23.0172C52.5547 23.1583 53.7886 23.3171 54.9696 23.5112C54.053 24.9579 53.0659 26.4399 52.0082 27.9572C51.6204 26.087 50.8625 24.3757 49.8225 22.8761C50.316 22.929 50.792 22.9643 51.2679 23.0172ZM52.1492 32.8619C52.3431 33.1618 52.5547 33.4617 52.7486 33.744C53.7886 35.2437 54.7404 36.7256 55.6218 38.1547C53.7709 38.4546 51.8143 38.7193 49.7343 38.931C50.9682 37.1667 51.832 35.1025 52.1492 32.8619ZM55.9567 21.9234C54.2821 21.6764 52.5194 21.447 50.6862 21.2706C49.9282 21.2176 49.1526 21.1647 48.3594 21.1118C46.4381 19.1358 43.935 17.742 41.1323 17.1598C40.9032 16.9304 40.6916 16.7011 40.4625 16.4717C40.6916 16.26 40.9032 16.0307 41.1323 15.8189L41.1499 15.8366C43.6001 13.4548 45.9798 11.3906 48.2008 9.6969C48.2713 9.64398 48.3594 9.57341 48.4299 9.52048C48.5181 9.44991 48.6238 9.37933 48.712 9.30876C51.0916 7.52684 53.2598 6.18599 55.1282 5.37442C55.2869 5.30385 55.4455 5.23328 55.6042 5.18035C55.657 5.16271 55.7099 5.14507 55.7628 5.10978C55.8686 5.0745 55.9567 5.03921 56.0625 5.00392C57.9309 4.3335 59.4116 4.29821 60.3811 4.98628C60.434 5.02157 60.4869 5.05685 60.5397 5.10978C62.937 7.0152 60.9099 13.6489 55.9567 21.9234ZM39.4049 15.3073C39.3872 15.325 39.3872 15.325 39.3696 15.3426C39.3872 15.325 39.3872 15.3073 39.4049 15.3073ZM18.2171 5.09214C18.9574 4.47464 20.0327 4.35114 21.39 4.63343C23.9106 5.18035 27.4008 7.20927 31.3493 10.3673C31.314 10.5261 31.2964 10.6673 31.2964 10.8437C31.2964 12.1669 32.4774 13.1902 33.7994 13.1902C34.0638 13.1902 34.3106 13.1549 34.5398 13.0667C35.5093 13.9312 36.4788 14.8486 37.4659 15.8366L37.5716 15.7484C37.8008 15.9777 38.0476 16.2071 38.2767 16.4364C38.1357 16.5776 37.9947 16.7187 37.8537 16.8599C36.1791 16.8952 34.575 17.2304 33.0944 17.7949L33.2177 17.742C33.112 17.742 32.9005 17.8302 32.7594 17.9361C30.9438 18.6771 29.3222 19.8062 27.9825 21.2C27.1716 21.2706 26.3608 21.3411 25.5852 21.4294C25.5323 21.4294 25.4794 21.447 25.4266 21.447V21.4294C24.4923 21.5176 23.5757 21.6058 22.6767 21.7116C17.794 13.5254 15.8374 6.99756 18.2171 5.09214ZM17.7764 37.5901C17.7235 37.202 17.5825 36.8315 17.3357 36.5492C16.4544 35.5259 14.9913 35.3672 13.9513 36.2493C13.8279 36.3375 13.7222 36.4434 13.6164 36.5492C8.45167 35.0143 5.29642 33.003 5.29642 30.8153C5.29642 27.7278 11.9066 24.8873 21.7778 23.4053C22.6239 24.7462 23.5228 26.1223 24.4923 27.5161C24.2456 28.5747 24.1045 29.6685 24.1045 30.8153C24.1045 31.6798 24.1927 32.5267 24.3337 33.3559C24.1574 33.6029 23.9988 33.8499 23.8225 34.0969L23.8049 34.0616C22.853 35.473 21.954 36.8668 21.1079 38.2253C19.9622 38.0312 18.834 37.8195 17.7764 37.5901ZM18.2171 55.6563C15.9784 53.6627 17.6354 47.6465 22.0422 39.9543C23.9459 40.2013 25.9378 40.413 28.0001 40.5718C30.415 43.0947 33.7642 44.7355 37.4835 44.9119C36.5845 45.7764 35.7032 46.588 34.8218 47.3819C34.4164 47.1349 33.9581 46.9937 33.4645 46.9937C32.1425 46.9937 31.1201 48.017 31.1201 49.3402C31.1201 49.6931 31.1906 50.0283 31.314 50.3282C25.2327 55.1623 20.2442 57.3501 18.2171 55.6563ZM40.9737 44.6473C43.8645 44.065 46.4204 42.6183 48.377 40.5718C51.2326 40.3424 53.9648 40.0425 56.5031 39.6543C56.7852 40.1307 57.0496 40.6071 57.314 41.0658C61.2625 48.2287 62.6726 53.7686 60.5221 55.674C57.8252 57.9146 49.8401 53.2569 40.9737 44.6473Z" fill="white"/>
<path d="M52.7494 26.0333C52.7142 25.9275 52.6789 25.804 52.6084 25.6628L52.7494 26.0333Z" fill="white"/>
<path d="M52.7476 26.0334C52.7828 26.1393 52.8181 26.2452 52.8886 26.4039L52.7476 26.0334Z" fill="white"/>
</svg>
