<svg width="70" height="67" viewBox="0 0 70 67" fill="none" xmlns="http://www.w3.org/2000/svg">
<path d="M14.0409 50.8868C14.0409 50.8868 13.1891 48.7406 12.1704 47.7935C10.9849 46.6986 9.27246 46.1599 9.27246 46.1599C9.27246 46.1599 9.43931 47.4546 10.9234 49.0186C12.3987 50.5914 14.0409 50.8868 14.0409 50.8868Z" fill="white"/>
<path d="M18.1067 53.6674C17.1144 54.6406 16.4997 55.692 16.4997 55.692C16.4997 55.692 18.0277 55.8223 20.188 54.545C22.3483 53.2764 23.1035 51.5038 23.1035 51.5038C23.1035 51.5038 20.4339 51.9296 19.0903 52.8419C18.9937 52.9114 18.8971 52.9723 18.8093 53.0505C19.7313 52.1381 20.0826 51.304 20.0826 51.304C20.0826 51.304 17.5359 51.7123 16.2538 52.5813C14.7785 53.5892 13.7861 55.2923 13.7861 55.2923C13.7861 55.2923 15.2439 55.4226 17.3076 54.2061C17.6062 54.0323 17.8608 53.8499 18.1067 53.6674Z" fill="white"/>
<path d="M52.9962 52.5813C51.7141 51.7123 49.1674 51.304 49.1674 51.304C49.1674 51.304 49.5187 52.1207 50.4232 53.0331C50.3354 52.9723 50.2563 52.9028 50.1685 52.8506C48.8249 51.9383 46.1465 51.5125 46.1465 51.5125C46.1465 51.5125 46.9017 53.2851 49.062 54.5537C51.2223 55.831 52.7503 55.7007 52.7503 55.7007C52.7503 55.7007 52.1444 54.6493 51.1608 53.6848C51.3979 53.8673 51.6526 54.041 51.9336 54.2061C53.9973 55.4226 55.4551 55.2923 55.4551 55.2923C55.4551 55.2923 54.4715 53.5892 52.9962 52.5813Z" fill="white"/>
<path d="M55.21 50.8869C55.21 50.8869 56.8609 50.5915 58.3363 49.0274C59.8116 47.4634 59.9872 46.1687 59.9872 46.1687C59.9872 46.1687 58.2836 46.7074 57.098 47.8023C56.0706 48.7407 55.21 50.8869 55.21 50.8869Z" fill="white"/>
<path d="M60.1723 49.2185C58.6531 49.4009 56.5103 50.7304 56.5103 50.7304C56.5103 50.7304 56.6421 50.7912 56.8704 50.8694L55.2458 50.8868C55.2106 50.8781 55.1931 50.8781 55.1931 50.8781C55.1931 50.8781 55.1931 50.8781 55.1931 50.8868L52.7693 50.9215C53.4104 50.6956 54.4818 50.183 55.4741 49.1316C57.0285 47.4893 57.2129 46.1164 57.2129 46.1164C57.2129 46.1164 55.4126 46.6725 54.1568 47.8369C53.2523 48.671 52.4795 50.4002 52.2512 50.9302L50.1875 50.9563C50.8549 50.6695 51.7682 50.1482 52.6288 49.2358C54.2622 47.5067 54.4554 46.0643 54.4554 46.0643C54.4554 46.0643 52.5674 46.6552 51.2501 47.8716C50.3719 48.6797 49.6079 50.2785 49.3093 50.965L47.5618 50.991C48.2204 50.6696 49.0196 50.1482 49.7748 49.3488C51.496 47.5328 51.6892 46.0209 51.6892 46.0209C51.6892 46.0209 49.7045 46.6465 48.3258 47.9151C47.4652 48.7058 46.71 50.2264 46.3587 51.0084L45.4454 51.0171C38.9908 40.1035 39.8866 31.2319 41.9415 27.652C44.1896 23.7592 49.8714 25.0887 50.3544 28.3645C50.9076 34.8727 45.3576 33.1001 44.9097 31.9097C44.0052 28.1907 47.5881 30.3195 47.6408 29.833C47.9921 28.4166 43.2061 26.8265 43.0304 31.2493C42.8548 35.6634 47.3949 36.4106 48.7473 36.3324C71.6763 33.856 69.3492 0.837248 68.9803 0.750356C68.6115 0.663465 61.4896 16.5038 40.8087 19.2496C40.8087 19.2496 38.4113 15.4176 37.6121 9.90872C37.2082 8.84865 37.0238 6.36355 33.8536 5.26872C30.2267 4.2434 29.2959 6.98917 29.2959 6.98917C29.2959 6.98917 27.4605 7.91891 27.5483 8.31861C27.6449 8.71831 29.3837 8.27516 29.6559 8.67486C29.9194 9.07457 31.2191 9.61329 31.1751 10.1781C30.5429 16.9469 28.444 19.2496 28.444 19.2496C7.76315 16.5038 0.641191 0.663465 0.281141 0.750356C-0.0964717 0.837248 -2.42362 33.856 20.4878 36.3324C21.8402 36.4106 26.3803 35.6634 26.2047 31.2493C26.0291 26.8265 21.243 28.4079 21.6031 29.833C21.647 30.3195 25.2299 28.1994 24.3254 31.9097C23.8776 33.1088 18.3275 34.8814 18.8808 28.3645C19.3638 25.0887 25.0455 23.7679 27.2936 27.652C29.3486 31.2319 30.2443 40.1035 23.7897 51.0171L22.8764 51.0084C22.5252 50.2264 21.7699 48.7058 20.9093 47.9151C19.5306 46.6465 17.546 46.0209 17.546 46.0209C17.546 46.0209 17.7479 47.5241 19.4604 49.3488C20.2244 50.1569 21.0235 50.6696 21.6821 50.991L19.9346 50.965C19.636 50.2785 18.872 48.6797 17.9938 47.8716C16.6853 46.6552 14.7885 46.0643 14.7885 46.0643C14.7885 46.0643 14.9817 47.5067 16.6151 49.2358C17.4757 50.1482 18.3802 50.6695 19.0476 50.9563L16.9839 50.9302C16.7556 50.4002 15.974 48.671 15.0783 47.8282C13.8225 46.6725 12.0223 46.1077 12.0223 46.1077C12.0223 46.1077 12.2067 47.4806 13.761 49.1229C14.7622 50.183 15.8335 50.6869 16.4746 50.9215L14.0508 50.8868C14.0508 50.8781 14.0596 50.8781 14.0596 50.8781C14.0596 50.8781 14.0421 50.8781 13.9981 50.8868L12.3735 50.8694C12.6106 50.7912 12.7424 50.7304 12.7424 50.7304C12.7424 50.7304 10.5996 49.4009 9.0804 49.2185C7.33284 49.0099 5.48869 49.6355 5.48869 49.6355C5.48869 49.6355 6.48102 50.6609 8.79939 51.0953C10.4328 51.3994 11.7325 51.0953 12.3472 50.8868L13.6908 50.9563C12.997 51.0953 11.469 51.4516 10.5996 52.0511C9.26481 52.9635 8.37786 54.5015 8.37786 54.5015C8.37786 54.5015 9.69512 54.6144 11.5568 53.5196C13.1551 52.5725 13.8576 51.3125 14.0245 50.9737L16.9312 51.1214C16.3868 51.217 14.4811 51.608 13.4361 52.3118C12.031 53.2676 11.0914 54.8925 11.0914 54.8925C11.0914 54.8925 12.4789 55.0141 14.446 53.8672C16.2463 52.8071 16.9664 51.3647 17.0717 51.1301L20.0136 51.2865C20.0663 51.2952 20.0926 51.3039 20.0926 51.3039C20.0926 51.3039 20.0926 51.2952 20.0839 51.2952L22.7798 51.4342C22.9818 51.495 23.1048 51.5124 23.1048 51.5124C23.1048 51.5124 23.096 51.4863 23.0784 51.4429L23.5439 51.469C21.6382 54.6057 19.1267 57.9076 15.8599 61.3051C15.131 61.6613 22.0246 65.9103 34.6439 66.7966L35.1533 66.7619C47.4652 65.7974 54.1568 61.6526 53.4367 61.3051C50.1699 57.9163 47.6584 54.6057 45.7528 51.469L46.2182 51.4429C46.2006 51.4863 46.1918 51.5124 46.1918 51.5124C46.1918 51.5124 46.3148 51.4863 46.5255 51.4255L49.2127 51.2865C49.2127 51.2952 49.204 51.3039 49.204 51.3039C49.204 51.3039 49.2391 51.2952 49.3006 51.2865L52.2161 51.1301C52.3127 51.3473 53.0416 52.7984 54.8418 53.8672C56.8001 55.0228 58.1964 54.8925 58.1964 54.8925C58.1964 54.8925 57.248 53.2676 55.8429 52.3118C54.7891 51.5993 52.8396 51.2083 52.3215 51.1214L55.2458 50.965C55.4038 51.2865 56.1064 52.5638 57.7222 53.5109C59.5839 54.6057 60.9012 54.4928 60.9012 54.4928C60.9012 54.4928 60.0054 52.9548 58.6794 52.0424C57.7925 51.4429 56.2381 51.0779 55.5619 50.9476L56.9143 50.8781C57.529 51.0779 58.8375 51.3994 60.4884 51.0866C62.798 50.6609 63.7991 49.6269 63.7991 49.6269C63.7991 49.6269 61.9286 49.0099 60.1723 49.2185Z" fill="white"/>
</svg>
