<svg width="53" height="71" viewBox="0 0 53 71" fill="none" xmlns="http://www.w3.org/2000/svg">
<path d="M52.1917 18.0391C52.0641 17.9114 51.9364 17.8426 51.8186 17.7935C53.1635 15.573 52.6825 14.168 52.3586 13.7848C52.2604 13.6865 52.1622 13.6374 52.0542 13.6079C52.388 12.6647 52.4665 11.918 52.4371 11.4955C52.3586 10.4344 51.8677 10.0218 51.534 10.0218C51.0431 10.0218 49.5706 15.1014 46.2134 17.9605C42.8561 20.8295 40.6474 21.5663 40.6474 21.5663V21.5958C39.1749 22.1264 35.2188 23.7967 33.118 26.8916C31.7241 29.1023 30.1731 33.1994 29.5154 33.7692C28.946 34.4275 28.2097 34.4275 28.2097 34.4275C28.2097 34.4275 25.8341 32.0498 25.6771 29.5149C25.3531 23.944 34.3451 15.6811 34.1881 12.8907C34.1095 11.584 32.7156 11.0927 32.7156 11.0927C32.7156 11.0927 28.2981 1.00223 27.5619 0.432373C27.5913 0.510975 27.6208 0.599401 27.6502 0.678003V0.687828C29.2405 5.50217 30.4283 12.0556 30.4283 12.0556C30.4283 12.0556 31.3314 15.573 28.9558 18.609C27.3164 21.4779 22.0842 23.8458 21.5148 30.1536C21.348 31.1361 21.5934 33.4253 21.5934 33.4253C21.5934 33.4253 20.9357 33.5039 20.5332 32.3642C20.0424 31.2147 18.9822 26.7147 18.7367 26.0564C18.4226 25.4276 17.1366 22.4801 13.0039 20.5052L13.0137 20.4954C13.0137 20.4954 12.9548 20.4757 12.8468 20.4364C12.7683 20.407 12.6995 20.3677 12.621 20.3382C11.924 20.0041 10.2847 19.0904 7.77162 16.8208C4.25728 13.6276 2.94186 8.22374 2.94186 8.05671C2.86333 7.88969 2.77498 7.56546 2.52956 7.56546C2.21543 7.56546 1.07671 9.36346 1.55772 11.2401C1.40066 11.2302 1.24359 11.2499 1.13561 11.3285C0.723312 11.6527 0.477897 11.7412 0.566247 13.7848C0.605513 14.335 0.831295 14.9736 1.16506 15.6516C0.909827 15.6319 0.654596 15.7007 0.477897 15.9955C0.0656009 16.7324 0.399365 17.8819 0.801845 18.8644C0.919644 19.1395 1.15524 19.5817 1.50864 20.0926C0.831295 21.0456 1.00799 21.812 1.53809 22.7159C1.77369 23.2268 2.12708 23.7475 2.83388 24.2781C2.71608 24.3567 2.6081 24.4844 2.51975 24.6809C2.27433 25.3392 2.59828 26.1547 3.01058 26.646C3.15783 26.813 3.29526 26.9604 3.49159 27.0881C3.41306 27.2355 3.34434 27.432 3.34434 27.6285C3.34434 28.1197 3.75664 28.5324 4.00205 28.8566C4.17875 29.0335 4.36527 29.2595 5.50399 29.4953C5.30766 29.6819 5.10151 29.9669 5.15059 30.3304C5.21931 30.8904 5.52362 31.6175 6.97648 31.7747C6.91758 31.9516 6.88813 32.1775 6.95684 32.4526C7.03538 32.7769 7.36914 33.3566 8.26245 33.4352C8.55695 33.4352 8.87108 33.4155 9.18521 33.386C8.99869 33.5924 8.78273 33.9559 8.83181 34.4963C8.90053 36.1371 10.0098 36.196 10.6675 36.1174C10.5595 36.2059 10.4908 36.2648 10.4712 36.2943C10.3926 36.4613 9.73494 37.5224 10.5497 38.4264C11.4332 39.3106 11.8455 39.0159 12.0909 38.9274L11.9437 39.0846C11.9437 39.0846 11.3743 40.2342 12.2676 41.2167C13.0235 41.9732 13.4947 41.8652 13.8186 41.708C13.8481 42.1304 14.0052 42.8968 14.7218 43.506C15.7721 44.4099 16.2041 44.066 16.4593 43.9383L16.4397 43.9972C16.4397 43.9972 16.1943 44.9798 17.7453 45.638C18.9429 46.1391 19.3159 45.6773 19.4632 45.3531C19.7479 45.8444 20.327 46.4732 21.348 46.3749C22.3885 46.2472 22.4965 45.8051 22.5848 45.4612C22.791 45.5791 23.0953 45.697 23.4782 45.7166L23.5567 46.9448C23.5567 46.9448 23.7236 51.1205 23.5567 52.27C23.4193 53.2231 22.4376 56.8289 22.1137 58.0276C22.0646 58.0865 22.0253 58.1553 22.0057 58.2536C19.6301 64.2273 17.2643 65.2098 16.6065 65.7011C15.9488 66.2709 15.9488 66.6836 16.0372 67.0078C16.2826 67.8233 17.1857 67.5777 17.6766 67.4991C17.9318 67.4598 18.9134 67.0275 19.8362 66.5657C19.3748 67.0962 18.9527 67.6366 18.9036 68.0788C18.8251 68.8156 18.9036 68.737 19.2276 68.9827C20.4546 69.7982 22.418 67.5089 22.418 67.5089L22.5947 67.3124C22.2903 67.8626 22.0548 68.3244 22.0057 68.8156C22.0057 69.5525 22.0057 69.7982 23.5567 69.5525C24.2537 69.3167 25.0881 68.5111 25.7654 67.7349C25.3335 68.57 25.1175 68.8844 25.1175 69.7196C24.8721 70.6235 25.7752 71.0263 27.0808 70.2108C27.66 69.7392 28.2097 68.737 28.6515 67.7349C28.5631 68.344 28.5533 69.022 28.7987 69.8866C29.2896 71.2818 30.0258 70.5449 30.3498 70.0536C30.7032 69.582 31.0566 68.1672 31.3511 66.9489C31.41 68.0689 31.459 68.8746 31.6554 69.5624C33.2064 72.2643 33.7856 69.2381 33.7856 68.9925C33.8445 68.8353 33.8641 68.4914 33.8641 68.0296C34.1684 68.8549 34.5218 69.4739 34.9341 69.8866C35.5918 70.6235 35.9943 69.641 36.1612 69.1497C36.2005 68.7076 36.1808 68.0395 36.1416 67.3124C36.4262 67.951 36.7011 68.3637 37.2312 69.2283C37.9674 70.2894 39.1945 69.641 38.8706 67.8331C38.7822 67.4696 38.6644 66.9783 38.527 66.4281C38.8607 67.0275 39.2927 67.6268 39.8522 68.3244C40.667 69.2283 41.8941 68.6486 41.3247 66.772C41.2953 66.3987 41.0891 65.7305 40.8241 64.9936C41.2069 65.4653 41.6192 65.9467 42.061 66.4478C44.839 68.8255 44.1028 65.7109 43.612 65.0526C43.1997 64.4827 37.8889 56.4556 37.3981 56.2099C37.3392 56.1805 37.2803 56.1805 37.2116 56.1805L29.8688 47.0332C29.8688 46.3749 29.8688 45.7854 29.8688 45.7265C30.8504 45.6479 31.3412 45.0682 31.4198 44.911C31.4198 45.078 31.5867 45.8935 32.5683 45.7265C33.6187 45.6479 34.2666 44.8422 34.3647 44.1937C34.5218 44.3706 34.7672 44.4983 35.1893 44.4197C36.6618 44.1741 36.9072 42.8673 36.9072 42.6217C36.9072 42.5333 36.9072 42.3761 36.9072 42.209C37.0741 42.3564 37.3097 42.5136 37.722 42.4547C38.7037 42.209 39.116 41.2265 39.116 40.5682C39.1552 40.2735 39.1258 40.0082 39.0767 39.8117C39.2141 39.8903 39.3712 39.9394 39.5185 39.91C40.667 39.8314 40.9124 38.4362 40.9124 38.1119C40.8633 37.9351 40.7063 37.5617 40.559 37.2572C40.8731 37.3751 41.4229 37.3947 41.9726 36.7168C42.7874 35.7343 42.3849 35.1644 42.2966 34.8303C42.2573 34.7517 42.1984 34.6731 42.1297 34.5847C43.2193 34.9384 45.0059 35.2528 45.2415 33.8478C45.2612 33.6906 45.2415 33.5629 45.1924 33.4548C45.8992 33.4745 46.7238 33.386 46.7925 32.0498C46.822 31.7845 46.7337 31.588 46.606 31.4407C48.1374 31.1262 48.5203 29.9865 48.5988 29.5935C48.6184 29.3577 48.5988 29.171 48.5497 29.0335C48.854 28.9254 48.9424 28.8173 49.0896 28.611C49.335 28.3654 49.7473 27.5499 49.7473 26.8916C49.7179 26.6656 49.5706 26.4986 49.3841 26.3905C49.767 26.1351 50.0418 25.9091 50.2382 25.742C50.8075 25.1722 51.5438 24.1012 51.2198 22.7945C51.1511 22.5685 51.0726 22.4113 50.9842 22.2934C52.6825 20.3382 52.6138 18.5205 52.1917 18.0391ZM25.1175 44.1446C25.1175 44.125 25.1175 44.0955 25.1077 44.0758C25.1077 44.0464 25.1077 44.0071 25.1077 43.9678V43.9972C25.1077 43.9874 25.1175 44.0464 25.1175 44.1446ZM23.488 45.7166C23.5861 45.7265 23.6941 45.7265 23.8021 45.7166C24.5187 45.6577 24.9016 45.1959 25.0488 44.7145C24.9408 45.1468 24.6561 45.6282 23.9592 45.7166C23.8217 45.7854 23.5567 45.7265 23.488 45.7166Z" fill="white"/>
</svg>
