<svg width="43" height="76" viewBox="0 0 43 76" fill="none" xmlns="http://www.w3.org/2000/svg">
<path d="M35.4797 72.929L26.5535 35.4229C27.0064 35.2599 27.3424 34.8303 27.3424 34.3267C27.3424 33.8971 27.1232 33.5416 26.7872 33.3343L31.5645 24.2688H32.0758C32.6455 24.2688 33.1277 23.78 33.1277 23.1874C33.1277 22.6097 32.6455 22.1209 32.0758 22.1209H27.7807C28.3066 21.6173 28.8764 20.9211 29.3146 19.9879C30.4249 17.6178 29.8113 12.3741 30.235 9.67813C30.6587 6.98219 31.7836 5.23427 31.7836 5.23427C31.7836 5.23427 28.5696 6.74518 24.3183 12.8036C27.9706 7.44139 26.4804 0.316406 26.4804 0.316406C26.4804 0.316406 26.4804 0.790417 26.2905 1.60512L24.6104 5.48609C22.9742 8.09315 21.8347 7.67839 20.5052 9.30781C19.7602 10.241 19.1758 11.2927 18.8106 12.0482C20.1838 8.41903 19.5264 3.69374 19.5264 3.69374C19.5264 3.69374 19.541 3.79743 19.5118 4.01962C19.5118 3.91593 19.5264 3.81224 19.5264 3.69374L19.4095 4.58251C19.1904 5.47128 18.5476 7.01182 16.7507 9.05599C13.785 12.4333 11.5644 13.3665 11.5644 17.1142C11.5644 19.5731 12.923 21.2618 13.8434 22.1209H11.0969C10.5125 22.1209 10.045 22.6097 10.045 23.1874C10.045 23.78 10.5125 24.2688 11.0969 24.2688H11.6082L16.3708 33.3343C16.0348 33.5416 15.8157 33.912 15.8157 34.3415C15.8157 34.8452 16.1371 35.2747 16.6046 35.4377L7.6637 72.929H0.607422V75.7879H42.536V72.929H35.4797ZM31.097 64.2042H14.9245L29.2124 56.3386L31.097 64.2042ZM18.8836 35.4821H24.2598L25.9253 42.459H17.2328L18.8836 35.4821ZM26.4658 44.7698L28.1459 51.8503L19.1758 44.7698H26.4658ZM16.4877 45.5697L25.8668 52.9613H14.7346L16.4877 45.5697ZM14.1794 55.2721H26.3489L12.3533 62.96L14.1794 55.2721ZM9.97196 72.929L11.5059 66.515H31.6375L33.1569 72.929H9.97196Z" fill="white"/>
</svg>
