<svg width="64" height="59" viewBox="0 0 64 59" fill="none" xmlns="http://www.w3.org/2000/svg">
<path d="M62.5836 42.9495C62.5836 42.9495 61.0753 41.1512 60.4805 39.5019C59.875 37.8526 59.7263 36.2033 60.0237 32.6067C60.3212 29.0101 60.4805 24.7218 59.1421 21.6892C58.2499 20.0612 53.8524 16.5178 49.901 16.3901C45.939 16.2518 41.4883 17.4861 39.9906 16.9434C38.4929 16.4007 35.9224 14.0066 35.147 13.4852C34.3716 12.9744 32.2897 11.1123 29.6767 10.8463C27.0743 10.5696 24.7587 11.623 24.2807 11.772C24.1214 11.8146 23.4947 11.8997 22.7086 11.9955C22.9636 11.5592 23.1548 11.1442 23.2397 10.8356C28.5189 8.73938 36.6341 4.82356 36.3048 0.7375C36.1667 -0.358502 33.7768 2.8763 33.1926 2.84438C32.6084 2.80181 32.9483 0.833267 32.5765 0.854548C32.2047 0.87583 31.0257 3.88717 30.6327 3.90846C29.7829 3.92974 30.7389 0.74814 30.1547 0.790704C29.5705 0.822626 29.2306 4.52562 28.3914 4.65331C27.8072 4.73844 27.8178 4.06807 27.4779 4.14255C27.138 4.21704 27.138 4.90869 26.7025 4.95125C25.3854 4.98318 26.352 0.556606 25.5235 0.577888C24.695 0.599169 24.217 5.66419 23.4309 6.01533C22.6555 6.36648 22.868 5.32368 22.0713 5.61098C21.2641 5.90893 21.7739 7.04749 20.6055 7.27095C19.4477 7.46248 15.7619 0.226741 14.8696 0.950315C13.9986 1.67389 18.6298 6.93044 17.6951 7.79235C16.7603 8.65425 15.5919 5.85572 15.167 5.84508C14.7528 5.84508 14.7953 6.66442 14.1367 6.69634C14.0092 6.62186 13.8711 6.55801 13.7331 6.50481C13.0214 5.86636 12.0017 3.89782 11.3856 4.45114C11.0351 4.77036 11.8317 6.03662 12.7027 7.37736C12.6709 7.50504 12.5859 7.62209 12.3947 7.70722C10.8757 8.26054 9.42052 5.10022 8.95315 5.43009C8.48578 5.74931 9.62234 7.57953 9.19746 7.88811C8.77258 8.1967 8.36894 8.21798 7.60416 7.88811C6.15956 7.1007 5.44789 4.56819 4.9699 4.81292C4.49191 5.05766 5.37354 6.70698 5.08674 6.90916C4.81057 7.11134 4.152 6.08982 3.86521 6.23879C3.56779 6.37712 3.91832 7.05813 3.55717 7.22838C3.1854 7.37736 1.3478 5.12151 0.976026 5.61098C0.243107 6.58994 4.47066 9.60128 6.372 10.4632C7.58291 11.0059 9.89851 11.7826 11.4281 12.2721C10.7376 12.719 9.87726 13.283 9.26119 13.6661C8.44329 14.1768 5.39478 15.5601 4.41756 16.3901C3.44033 17.2201 2.59057 19.1567 2.36751 19.7739C2.13382 20.391 1.67708 21.6679 2.6543 22.3809C3.64215 23.1044 4.3432 22.466 4.64062 22.7214C4.93803 22.9661 4.55564 23.2641 5.19296 23.413C5.81966 23.562 6.5632 22.0084 7.4342 21.8701C8.29459 21.7318 8.65573 21.7211 8.97439 21.9872C9.29305 22.2532 9.79229 24.2749 10.3659 24.6686C10.9501 25.073 12.2991 25.1156 12.862 25.2645C13.425 25.4029 14.9652 26.2435 15.4326 26.1477C15.8999 26.0519 15.6238 25.5625 16.0593 25.3709C16.4948 25.1794 18.6935 25.7008 19.4371 26.3605C20.1806 27.0203 21.9651 30.3295 22.1882 31.1063C22.4112 31.8831 22.3794 31.9895 23.8027 33.3728C23.9833 33.5431 24.2063 33.7133 24.4613 33.8729C23.9727 35.2669 22.6449 39.0869 22.4006 40.0872C22.0926 41.3321 21.7845 41.8535 21.9332 42.3324C22.0819 42.8218 23.1866 43.9391 23.8771 45.0245C24.5675 46.1098 25.2367 48.504 25.6191 49.5043C26.0015 50.4939 26.182 52.0048 26.9256 53.1221L26.8937 53.1541C26.8937 53.1541 26.9043 53.1434 26.9362 53.1328C26.9468 53.1541 26.9574 53.1753 26.9681 53.186C26.9681 53.186 27.2124 55.08 27.6479 55.1758C28.8907 55.1758 29.528 52.058 29.1456 51.675C28.5295 51.0791 27.9665 50.1214 27.9665 50.1214L28.6782 50.1001C28.6782 50.1001 28.3383 49.6213 27.7966 49.0041C26.9574 48.0465 27.5841 48.2912 26.7025 46.578L25.2154 43.3964C25.2154 43.3964 25.0561 43.0666 25.2898 42.2153C25.5235 41.3641 25.0667 40.7469 25.0667 40.7469C25.0667 40.7469 25.6297 39.1508 27.4036 36.8311C27.7966 36.3203 28.094 35.8734 28.3171 35.4903C29.273 35.8628 30.0378 36.2033 30.1972 36.5651C30.6433 37.5227 32.1516 43.8008 32.2684 44.7265C32.3747 45.6523 33.097 46.4929 33.1395 47.3016C33.1713 48.1103 33.4581 51.3132 33.1819 52.7071C32.9058 54.1011 32.9376 55.4525 32.534 56.0058C32.534 56.0058 32.4065 56.1228 32.2366 56.3037C32.1941 56.3144 32.1729 56.3144 32.1729 56.3144L32.2047 56.325C31.8011 56.7613 31.1638 57.5168 31.3443 57.8679C31.6418 58.2616 34.4672 58.2191 34.9664 57.9531C35.1576 57.7828 35.0833 56.3144 35.1576 55.9207C35.232 55.5269 35.3063 54.9843 35.3063 54.9843L35.6675 55.761C35.6675 55.761 35.8268 55.0268 35.9118 54.4416C36.018 53.6648 35.6887 52.8242 35.6887 52.8242C35.6887 52.8242 35.2745 49.749 35.1789 48.2699C35.0195 45.7481 35.0408 39.9914 35.0408 39.4061C35.0408 38.8103 35.317 37.1716 35.4338 36.6076C35.54 36.0543 35.3488 33.8197 35.3488 33.8197C35.3488 33.8197 35.8056 34.5965 35.6569 35.3733C36.496 35.9266 37.7494 35.1818 38.2274 35.1818C38.7054 35.1818 40.5324 34.671 41.2228 34.7136C41.5946 34.7348 43.156 34.3624 44.6112 33.99C45.939 35.0647 48.467 37.5227 48.7538 40.6937C49.2955 45.0032 44.5369 52.4198 43.0816 53.9734C43.0285 53.984 42.1469 55.0694 42.1469 55.0694C42.1469 55.0694 39.9163 56.5697 40.8298 56.9741C41.7539 57.3784 44.7705 57.2188 45.0042 56.9847C45.2485 56.7506 44.983 54.9843 45.4079 54.7183C45.5247 54.6118 46.5019 54.7502 46.7038 54.5161C47.3092 51.5579 52.0891 41.662 52.1953 41.2151C52.3015 40.7682 51.7067 40.3851 51.558 39.8956C51.473 39.587 51.9192 37.5866 52.2697 36.1394C53.0345 36.7566 53.5974 37.1503 54.2348 37.6611C55.5944 38.7677 59.4608 42.6303 60.1937 45.1947C60.9266 47.7592 61.394 51.5047 61.394 51.5047C61.394 51.5047 60.2574 54.3777 60.2468 54.5161C60.2468 54.6544 60.0981 54.8247 60.0981 54.8247C60.0981 54.8247 59.7582 55.1332 59.3333 55.5908C59.3227 55.5908 59.3121 55.5908 59.3121 55.5908H59.3333C58.7066 56.2718 57.9206 57.2614 57.8675 57.985C57.8887 58.2191 59.2271 58.3468 62.18 57.3678C62.5199 57.2082 62.7005 55.793 62.743 55.5802C62.7961 55.3673 62.6261 54.9949 62.5943 54.7502C62.5518 54.5054 62.5943 53.601 62.5943 53.601C62.5943 53.601 63.2635 54.2926 63.7202 52.6433C64.1451 50.994 62.5836 42.9495 62.5836 42.9495Z" fill="white"/>
</svg>
