<svg width="32" height="67" viewBox="0 0 32 67" fill="none" xmlns="http://www.w3.org/2000/svg">
<path d="M18.3865 0.259033H16.9155V1.64582C17.423 1.69718 17.9085 1.78523 18.3865 1.91731V0.259033Z" fill="white"/>
<path d="M15.202 0.259033H13.731V1.91731C14.209 1.78523 14.6945 1.69718 15.202 1.64582V0.259033Z" fill="white"/>
<path d="M21.6375 0.259033H20.1665V2.62905C20.6887 2.90787 21.1815 3.2454 21.6375 3.61961V0.259033Z" fill="white"/>
<path d="M11.9505 0.259033H10.4795V3.61961C10.9355 3.2454 11.4283 2.90787 11.9505 2.62905V0.259033Z" fill="white"/>
<path d="M29.7866 0.259277V12.0433C29.3306 12.4689 28.7643 12.9825 28.0729 13.5548V0.259277H26.6019V14.7215C26.0282 15.1691 25.4324 15.5947 24.822 15.9982V0.259277H23.351V5.54962C24.2483 6.91439 24.7631 8.54332 24.7631 10.2896C24.7631 12.058 24.2483 13.7016 23.351 15.0737V16.9374C22.7699 17.297 22.1962 17.6492 21.6373 18.0014V17.0108C21.1813 17.3924 20.6885 17.7225 20.1663 18.0087V18.9699C19.5043 19.4322 18.9012 19.9091 18.3864 20.4154V18.7131C17.9083 18.8452 17.4228 18.9332 16.9153 18.9846V22.4406C16.2681 23.7173 16.0989 24.8913 16.0548 25.5883C16.018 24.8913 15.8415 23.7173 15.1943 22.4406V18.9846C14.6868 18.9332 14.2014 18.8452 13.7233 18.7131V20.4154C13.2084 19.9091 12.6053 19.4322 11.9434 18.9699V18.0087C11.4212 17.7299 10.9284 17.3924 10.4724 17.0108V18.0014C9.91339 17.6492 9.33969 17.297 8.75865 16.9374V15.0737C7.86869 13.7016 7.34649 12.058 7.34649 10.2896C7.34649 8.54332 7.86134 6.91439 8.75865 5.54962V0.259277H7.28765V15.9982C6.67718 15.5947 6.08143 15.1764 5.50774 14.7215V0.259277H4.03674V13.5548C3.34537 12.9825 2.77903 12.4762 2.32302 12.0433V0.259277H0.859375V10.5318V10.9574H0.86673C0.88144 12.0653 0.9697 15.0297 1.411 16.4605C2.02147 18.2362 2.20534 20.6209 5.39741 23.1229C2.20534 20.6209 0.859375 18.9699 0.859375 18.9699C0.859375 18.9699 0.859375 23.189 1.411 24.8986C2.02147 26.6743 2.20534 29.1177 5.39741 31.5611C2.20534 29.1177 0.859375 27.4667 0.859375 27.4667C0.859375 27.4667 0.859375 31.6271 1.411 33.3954C2.02147 35.1051 2.20534 37.5558 5.39741 39.9992C2.20534 37.5558 0.859375 35.9049 0.859375 35.9049C0.859375 35.9049 0.859375 40.0652 1.411 41.8336C2.02147 43.5432 2.20534 45.9939 5.39741 48.4373C2.20534 45.9939 0.859375 44.343 0.859375 44.343C0.859375 44.343 0.859375 48.5034 1.411 50.2717C2.02147 52.0474 2.20534 54.4321 5.39741 56.8755C8.52329 59.3189 12.5097 60.9698 14.4073 63.4205C14.4735 63.5232 14.5397 63.6186 14.6059 63.714C14.4441 63.9635 14.3411 64.2643 14.3411 64.5872C14.3411 65.5631 15.1354 66.2968 16.0548 66.2968C16.9742 66.2968 17.7685 65.5631 17.7685 64.5872C17.7685 64.2717 17.6729 63.9782 17.5111 63.7287C17.5773 63.626 17.6435 63.5306 17.7023 63.4279C19.5999 60.9845 23.5863 59.3335 26.7122 56.8828C29.8969 54.4394 30.0808 52.0547 30.6986 50.279C31.2503 48.5034 31.2503 44.3503 31.2503 44.3503C31.2503 44.3503 29.9043 46.0013 26.7122 48.4447C29.8969 46.0013 30.0808 43.5506 30.6986 41.8409C31.2503 40.0652 31.2503 35.9122 31.2503 35.9122C31.2503 35.9122 29.9043 37.5632 26.7122 40.0065C29.8969 37.5632 30.0808 35.1124 30.6986 33.4028C31.2503 31.6271 31.2503 27.4741 31.2503 27.4741C31.2503 27.4741 29.9043 29.125 26.7122 31.5684C29.8969 29.125 30.0808 26.6743 30.6986 24.906C31.2503 23.1963 31.2503 18.9773 31.2503 18.9773C31.2503 18.9773 29.9043 20.6282 26.7122 23.1376C29.8969 20.6282 30.0808 18.2435 30.6986 16.4752C31.1399 15.0517 31.2282 12.0873 31.2429 10.972H31.2503V10.5318V0.259277H29.7866Z" fill="white"/>
<path d="M9.62666 6.92174C9.62666 6.92174 9.38395 7.28861 10.4872 7.78023C10.4872 7.78023 10.4284 8.38924 11.5904 8.63871C11.5904 8.63871 11.7743 9.31376 12.8776 9.4972C12.8776 9.4972 13.6131 10.2897 15.0252 10.231C15.0252 10.231 14.3486 16.71 13.5542 18.1775C14.7825 18.603 16.0696 18.5443 16.0696 18.5443C16.0696 18.5443 17.3568 18.603 18.5851 18.1775C17.7907 16.71 17.1141 10.231 17.1141 10.231C18.5262 10.2897 19.2617 9.4972 19.2617 9.4972C20.365 9.31376 20.5488 8.63871 20.5488 8.63871C21.7109 8.39658 21.6521 7.78023 21.6521 7.78023C22.7553 7.28861 22.5126 6.92174 22.5126 6.92174C22.5126 6.92174 23.0054 6.61356 23.1231 6.24669C23.2408 5.87981 22.8804 6.00455 22.8804 6.00455C22.8804 6.00455 19.7545 7.71419 16.8125 7.78023L16.6728 6.07059V5.94585C16.9155 5.76241 17.0405 5.52027 17.0405 5.1534C17.0405 4.71315 16.761 4.34627 16.3638 4.22154L16.0549 2.95215L15.9961 3.07689L15.7387 4.22154C15.3489 4.35361 15.0767 4.71315 15.0767 5.14606C15.0767 5.51294 15.2018 5.75508 15.4445 5.93851C15.5033 5.93851 15.4445 6.06325 15.4445 6.06325L15.3194 7.77289C12.3774 7.71419 9.25156 5.99721 9.25156 5.99721C9.25156 5.99721 8.88381 5.87248 9.00884 6.23935C9.13388 6.6209 9.62666 6.92174 9.62666 6.92174ZM16.0623 5.45424C15.8784 5.45424 15.7534 5.3295 15.7534 5.14606C15.7534 5.02132 15.8784 4.90392 16.0623 4.90392C16.2462 4.90392 16.3712 5.02866 16.3712 5.14606C16.3638 5.33684 16.2462 5.45424 16.0623 5.45424Z" fill="white"/>
</svg>
