<svg width="69" height="70" viewBox="0 0 69 70" fill="none" xmlns="http://www.w3.org/2000/svg">
<path d="M62.0781 14.3374C58.1596 16.2408 55.0757 16.8014 54.9482 16.778C55.7366 16.5561 56.4669 16.3343 57.1741 16.1007C57.1973 16.089 57.2321 16.0774 57.2553 16.0774C57.3596 16.0423 57.464 16.0073 57.5683 15.9723C57.6263 15.9489 57.6842 15.9372 57.7422 15.9139C57.8118 15.8905 57.8813 15.8672 57.9509 15.8438C58.0436 15.8088 58.1364 15.7737 58.2291 15.7504C58.2639 15.7387 58.2987 15.727 58.3335 15.7153C65.4634 13.0879 67.7241 9.73646 68.5588 7.80966C68.3733 7.62282 62.6462 11.4881 57.6726 14.0571C58.5306 13.5784 59.3885 13.0412 60.2348 12.469C60.2464 12.4573 60.258 12.4456 60.2811 12.434C60.3507 12.3873 60.4319 12.3289 60.5014 12.2822C60.5594 12.2354 60.6289 12.2004 60.6869 12.1537C60.7101 12.1303 60.7449 12.1187 60.7681 12.0953C64.8721 9.21097 68.3965 5.61429 67.7356 4.65673C67.3415 4.29473 55.9916 14.1973 54.3222 14.4075C55.6322 13.8119 58.0204 11.9669 60.2695 9.88826C60.2811 9.87659 60.2927 9.86491 60.3159 9.85323C60.3855 9.79484 60.4434 9.73646 60.513 9.66639C60.5478 9.63136 60.5826 9.59633 60.6289 9.56129C60.6753 9.52626 60.7101 9.47955 60.7565 9.44452C60.8144 9.38613 60.8724 9.32774 60.942 9.26936C60.9651 9.246 60.9767 9.23432 60.9999 9.21097C63.8171 6.49011 66.2285 3.57072 65.5909 2.65988C65.5677 2.63652 65.5561 2.61317 65.5213 2.58981C65.3474 2.438 58.5653 9.39781 54.1367 13.0062C54.1483 13.0062 54.1483 12.9945 54.1599 12.9945C54.1715 12.9828 54.1831 12.9711 54.2062 12.9595C54.2294 12.9361 54.2642 12.9127 54.299 12.8777L54.3106 12.866C54.8671 12.3756 55.609 11.6516 56.4322 10.7758C56.4901 10.7174 56.5481 10.6473 56.6061 10.5889C56.6176 10.5772 56.6408 10.5539 56.6524 10.5422C56.6988 10.4955 56.7336 10.4488 56.78 10.4021C56.8147 10.367 56.8379 10.332 56.8727 10.297C56.8959 10.2619 56.9307 10.2386 56.9539 10.2036C57.0002 10.1568 57.0466 10.0985 57.093 10.0517C57.1046 10.0401 57.1162 10.0284 57.1278 10.005C59.9217 6.9105 63.1563 2.61317 62.5534 0.791472C62.194 0.511211 59.8058 4.96035 55.5858 10.1335C56.5829 8.60374 57.4176 6.79372 58.0089 5.14719C58.0204 5.12383 58.032 5.0888 58.032 5.06545C58.0436 5.01874 58.0668 4.97203 58.0784 4.92532C58.1016 4.86693 58.1132 4.80854 58.1364 4.75015C58.1364 4.73847 58.148 4.71512 58.148 4.70344C58.8204 2.74162 59.1218 1.09509 58.9131 0.534566C58.6465 0.441146 58.2175 1.51548 58.2175 1.51548C58.1364 1.69064 58.0436 1.8658 57.9625 2.04097C57.9277 2.11103 57.8929 2.1811 57.8697 2.23949C57.8234 2.34458 57.7654 2.44968 57.719 2.55478C57.6842 2.62484 57.6495 2.70659 57.6031 2.77665C57.5567 2.87007 57.5103 2.96349 57.464 3.05691C57.4292 3.13865 57.3828 3.2204 57.348 3.29046C57.3017 3.3722 57.2669 3.45395 57.2205 3.53569C57.1857 3.61743 57.1394 3.69918 57.1046 3.78092C57.0698 3.85098 57.035 3.92105 57.0002 3.97944C56.9191 4.1546 56.8263 4.31808 56.7452 4.49325C56.722 4.55164 56.6872 4.61002 56.664 4.65673C56.6176 4.75015 56.5713 4.84357 56.5249 4.93699C56.5017 4.99538 56.4669 5.04209 56.4438 5.10048C56.3974 5.1939 56.351 5.28732 56.3046 5.38074C56.2814 5.42745 56.2583 5.47416 56.2351 5.52087C56.1887 5.61429 56.1307 5.70771 56.0844 5.80113C56.0728 5.83616 56.0496 5.85952 56.038 5.89455C55.8641 6.22152 55.7018 6.53681 55.5395 6.85211C55.5279 6.87546 55.5047 6.91049 55.4931 6.93385C55.4467 7.02727 55.4004 7.10901 55.354 7.20243C55.3308 7.23747 55.3192 7.2725 55.296 7.30753C55.2496 7.38927 55.2033 7.47102 55.1569 7.56444C55.1337 7.59947 55.1221 7.6345 55.0989 7.66953C55.0526 7.75128 55.0062 7.83302 54.9598 7.91476C54.9482 7.93812 54.9366 7.96147 54.925 7.98483C54.8207 8.15999 54.7279 8.34683 54.6236 8.51032C54.612 8.52199 54.612 8.53367 54.6004 8.54535C54.5656 8.61541 54.5193 8.6738 54.4845 8.74387C54.4613 8.79058 54.4381 8.83729 54.4033 8.87232C54.3685 8.93071 54.3338 8.98909 54.299 9.04748C54.2758 9.09419 54.241 9.1409 54.2178 9.19929C54.1831 9.25768 54.1483 9.30439 54.1251 9.36278C54.0903 9.42116 54.0555 9.46787 54.0323 9.52626C54.0092 9.57297 53.9744 9.61968 53.9512 9.66639C53.9048 9.74813 53.8468 9.84155 53.8005 9.9233C53.7889 9.94665 53.7773 9.97001 53.7657 9.98168C53.7077 10.0751 53.6614 10.1568 53.6034 10.2503C53.5918 10.2736 53.5686 10.3087 53.557 10.332C53.5106 10.4021 53.4643 10.4721 53.4295 10.5422C53.4179 10.5656 53.3947 10.5889 53.3831 10.6239C53.3367 10.694 53.2904 10.7641 53.244 10.8341C53.2324 10.8575 53.2208 10.8692 53.2092 10.8925C53.1512 10.986 53.0933 11.0677 53.0469 11.1494C52.931 11.3363 52.815 11.5114 52.6991 11.6866C52.6991 11.6866 52.6991 11.6983 52.6875 11.6983C52.6295 11.78 52.5832 11.8618 52.5252 11.9318C52.5136 11.9435 52.5136 11.9552 52.502 11.9552C52.4788 11.9902 52.4556 12.0136 52.4325 12.0486C52.4209 12.0603 52.4325 12.0486 52.3861 12.1187C50.2645 15.1899 48.6994 16.3226 46.4619 18.4479C42.6129 22.103 40.2363 27.1827 35.6453 30.6859C35.5874 30.7326 35.4946 30.8144 35.4019 30.8961C35.4598 30.8144 35.4946 30.6976 35.4482 30.5925C35.4135 30.4991 35.3323 30.429 35.1816 30.3473C35.1468 30.3239 35.0888 30.3123 35.0309 30.2889L34.8802 30.2305L34.5903 30.1254L34.3121 30.0203C34.2193 29.9853 34.115 29.9503 34.0223 29.9152C33.9527 29.8919 33.8831 29.8568 33.8136 29.8335C33.4542 29.6933 33.0948 29.5415 32.7818 29.4014C32.747 29.3897 32.7122 29.3664 32.6774 29.3547C32.6658 29.343 32.6427 29.3313 32.6195 29.3313C32.6079 29.3197 32.5963 29.3197 32.5847 29.308C32.5731 29.2963 32.5499 29.2963 32.5267 29.2846C32.4688 29.2496 32.4108 29.2146 32.3412 29.1679C32.3296 29.1562 32.318 29.1562 32.3064 29.1445C32.2833 29.1328 32.2717 29.1211 32.2485 29.1095C32.1325 29.0394 32.005 28.9577 31.8775 28.8642L31.75 28.7825C31.6572 28.7241 31.5645 28.6657 31.4833 28.6073C31.4138 28.5723 31.3558 28.5373 31.2978 28.5022C31.2399 28.4672 31.1703 28.4322 31.1123 28.3855C31.0776 28.3621 31.0312 28.3388 30.9964 28.3154C30.95 28.292 30.9037 28.257 30.8573 28.2337C30.7993 28.1986 30.7529 28.1753 30.695 28.1402C30.5559 28.0585 30.4051 27.9884 30.266 27.9184C30.2081 27.8833 30.1385 27.8483 30.0689 27.8249C30.0573 27.8133 30.0342 27.8133 30.0226 27.8016C29.8718 27.7315 29.7211 27.6731 29.5588 27.6264C29.5356 27.6147 29.5125 27.6031 29.4777 27.6031C29.3849 27.568 29.2806 27.5447 29.1878 27.5213C29.0835 27.498 28.9908 27.4746 28.898 27.4629C28.8169 27.4513 28.7241 27.4396 28.643 27.4396C28.6314 27.4396 28.6198 27.4396 28.6082 27.4396H28.5618H28.2952C28.214 27.4396 28.1444 27.4396 28.0749 27.4396C27.9705 27.4396 27.8778 27.4396 27.7966 27.4513C27.7619 27.4513 27.7271 27.4513 27.6923 27.4513C27.6112 27.4629 27.53 27.4629 27.4604 27.4746C27.1822 27.5096 26.9851 27.5914 26.7417 27.7899C26.7185 27.8249 26.7069 27.8717 26.7069 27.9067V27.9184C26.7069 27.9534 26.6953 27.9767 26.7069 28.0118C26.6373 28.0585 26.4518 28.1636 26.162 28.2453C25.791 28.3388 24.3302 27.9768 24.2491 29.7401C25.0142 29.3197 26.9735 30.2422 27.4025 30.359C27.4373 30.3239 27.4488 30.2889 27.4604 30.2305H27.472C27.472 30.2889 27.4604 30.3473 27.4488 30.4057C27.472 30.4174 27.4952 30.429 27.5184 30.4407C27.5532 30.4641 27.5764 30.4874 27.6112 30.5225C27.6691 30.5808 27.7271 30.6509 27.7851 30.7326C28.0401 31.083 28.3299 31.6669 28.6198 32.3091C28.6546 32.3909 28.6893 32.4726 28.7357 32.566C28.7589 32.6244 28.7937 32.6945 28.8169 32.7529C28.84 32.8112 28.8632 32.858 28.8864 32.9163C28.9096 32.9747 28.9328 33.0331 28.956 33.0915C29.0371 33.2783 29.1067 33.4535 29.1763 33.6287C29.211 33.7104 29.2342 33.7805 29.269 33.8622C29.327 34.0024 29.3733 34.1308 29.4313 34.2593C29.5009 34.4344 29.5588 34.5862 29.6168 34.738C29.7095 35.0066 29.7907 35.1935 29.8255 35.3102L29.8718 35.4387C29.8718 35.4387 29.953 35.6255 30.0689 35.7423C30.1733 35.8474 30.3008 35.9058 30.4515 35.754C30.324 35.9408 30.2892 35.9875 30.2892 35.9875C30.2892 35.9875 29.1763 38.7668 18.4292 47.0578C16.4236 49.767 14.0817 51.9157 11.7863 53.6323C11.624 53.7491 11.4616 53.8658 11.2993 53.9826C11.253 54.0176 11.2066 54.0527 11.1602 54.076C11.1023 54.1227 11.0443 54.1578 10.9863 54.2045C10.882 54.2745 10.7776 54.3446 10.6849 54.4147C10.6617 54.4263 10.6385 54.438 10.6153 54.4614C10.511 54.5314 10.4183 54.6015 10.3139 54.6599C10.2907 54.6716 10.2675 54.6833 10.2559 54.7066C5.43312 57.953 1.08562 59.3309 0.505958 59.9265C0.505958 59.9265 0.505958 59.9265 0.494365 59.9381C0.482771 59.9498 0.471178 59.9615 0.459585 59.9732C0.459585 59.9848 0.447991 59.9848 0.447991 59.9965C0.447991 59.9965 0.447991 60.0082 0.436398 60.0082C0.436398 60.0199 0.436398 60.0199 0.424805 60.0316V60.0432C0.424805 60.0549 0.424805 60.0666 0.424805 60.0783C0.668264 60.4052 3.53182 60.2651 7.34602 58.1748C7.34602 58.1748 8.11118 58.2099 12.25 54.4614C7.41558 59.8914 0.390025 63.056 0.714638 63.6866C0.992878 64.2471 6.70839 62.1569 11.2646 56.972C4.92301 64.8427 2.02468 66.0688 2.59276 66.7228C3.07968 67.0965 9.40963 63.78 13.931 55.4773C13.8383 57.9062 4.14626 68.3576 4.63318 68.8831C4.89983 69.1517 9.03864 67.0264 12.5862 60.9891C12.2732 61.5963 11.9138 62.262 11.508 63.021C9.74584 67.0147 7.45036 69.1284 7.85613 69.6538C8.21552 70.3311 14.0586 64.9011 15.9599 58.023C15.6932 59.1441 15.4498 59.7046 14.244 62.8809C13.6528 67.1549 12.0529 68.1591 12.2268 68.3109C12.3891 68.4627 16.3308 68.4043 17.8843 56.5283C17.4554 61.3745 15.5657 67.4118 15.67 67.5519C15.7744 67.692 19.1364 67.0498 19.7393 56.5049C19.6581 62.9626 18.1742 65.7652 18.9162 65.8586C20.516 65.7652 21.9652 59.6112 21.3739 56.5049C22.1043 59.9498 21.0261 62.9977 21.4667 63.2779C21.9072 63.5582 24.0056 60.5804 23.0782 56.178C24.1911 59.5294 22.9622 61.2343 23.6346 61.4796C24.3071 61.7248 25.5128 58.4551 25.049 55.4306C25.7678 57.0421 25.165 59.6929 25.5012 59.7863C26.6373 59.6812 26.9851 55.7926 26.7532 54.3913C27.472 54.9518 26.788 58.1164 27.4025 58.3266C28.0169 58.5368 28.7705 55.6758 28.4111 53.2703C28.8053 53.2469 28.84 56.7735 29.3154 56.8319C29.9878 56.9253 30.1385 54.1344 29.8487 52.2894C30.324 52.8499 30.3472 55.886 30.7993 55.886C30.7993 55.886 32.0514 55.6525 31.2515 51.2968C32.4456 52.955 31.5877 55.127 32.2717 55.127C33.373 55.0803 33.06 51.939 32.6079 50.6195C33.6629 51.6471 33.1644 54.3913 33.7904 54.1811C34.0686 54.0293 34.7526 53.5739 34.0223 49.9422C35.0773 51.3552 34.544 53.352 35.228 53.6089C35.2396 53.6089 35.2512 53.6206 35.2743 53.6206C35.7033 53.6907 35.8656 52.1843 35.7265 50.818C35.9236 51.4836 36.1554 52.1609 36.3641 52.4879C36.4221 52.6163 36.4916 52.6864 36.596 52.6747C37.593 52.5813 36.3525 48.5759 36.3525 48.5759C36.3525 48.5759 37.5698 51.8806 37.9988 51.6821C38.8103 51.0749 37.4307 47.8519 37.4307 47.8519C37.4307 47.8519 38.8799 50.8063 39.1813 50.6779C39.9001 50.2925 38.4973 47.1863 38.4973 47.1863C38.4973 47.1863 39.9349 49.6736 40.1551 49.4868C40.8855 49.1481 39.6566 46.4506 39.6566 46.4506C39.6566 46.4506 40.642 48.2373 40.8507 48.0971C40.9667 48.0154 40.8855 47.3848 40.7928 46.836C41.2565 49.1131 42.7057 55.6408 43.9809 55.6758C44.3635 55.5707 44.5838 53.5272 44.2476 52.7915C44.0969 52.5696 43.6795 51.5303 43.2274 50.3392C44.2708 52.9199 45.6156 55.7459 46.5662 55.8393C46.8909 55.816 46.6938 53.6206 46.3228 52.8265C47.401 54.5081 48.398 55.7576 48.8849 55.5357C49.2791 55.3839 48.4675 52.7798 47.9922 52.1376C47.9111 52.0325 47.7256 51.7755 47.4821 51.4252C49.024 53.4104 50.4964 55.0569 50.9485 54.765C51.3543 54.4964 50.1834 52.2543 49.7312 51.6121C49.6269 51.4719 49.2675 51.0515 48.769 50.491C50.5891 52.3477 52.2933 53.8658 52.6643 53.5038C52.9889 53.1652 51.6905 51.0048 50.9369 50.3275C50.7051 50.1173 49.9747 49.4751 49.082 48.6927C51.3543 50.5961 53.6498 52.301 53.986 51.8223C54.2526 51.4603 52.4093 49.2766 51.7832 48.7978C51.6673 48.716 51.3775 48.5058 50.9717 48.2139C52.8846 49.4167 54.5656 50.3042 54.8902 49.9188C55.1453 49.4634 52.7919 47.3848 52.2933 46.9878C52.247 46.9411 52.131 46.871 51.9687 46.7776C53.7309 47.595 55.1801 48.0854 55.296 47.6067C55.4351 47.1396 53.1049 45.3529 52.3977 44.9792C52.2817 44.9208 52.0267 44.8157 51.6789 44.6756C53.4875 45.2128 54.9946 45.493 55.1453 44.9792C54.6352 43.3561 49.6733 42.0482 47.0763 41.476C47.343 41.4993 47.5401 41.476 47.5865 41.3709C47.6908 41.0789 45.8243 39.9579 45.8243 39.9579C45.8243 39.9579 48.5603 41.4643 48.9892 40.6002C49.0588 40.3666 46.5778 38.9186 46.5778 38.9186C46.5778 38.9186 49.8587 40.5184 50.1486 39.5609C50.2877 39.0704 47.2155 38.1245 47.1459 37.7859C47.2155 37.6224 50.9137 39.6543 51.1804 38.3464C51.2615 37.7158 47.656 36.9918 47.8995 36.6765C48.0618 36.4897 51.876 38.1245 52.1078 36.9101C52.2006 36.4663 48.4212 36.2328 48.4791 35.6139C48.4907 35.5671 50.1486 36.0926 51.4586 36.1861H51.4702C51.5166 36.1861 51.563 36.1861 51.5977 36.1977C51.6209 36.1977 51.6441 36.1977 51.6673 36.1977C51.7021 36.1977 51.7253 36.1977 51.76 36.1977C51.7948 36.1977 51.8296 36.1977 51.8644 36.1977C51.8876 36.1977 51.9108 36.1977 51.9339 36.1977C51.9687 36.1977 52.0151 36.1977 52.0499 36.1977C52.0731 36.1977 52.0847 36.1977 52.1078 36.1977C52.1426 36.1977 52.189 36.1861 52.2238 36.1861C52.2354 36.1861 52.2586 36.1861 52.2702 36.1744C52.3049 36.1744 52.3397 36.1627 52.3861 36.151C52.3977 36.151 52.4093 36.151 52.4325 36.1393C52.4672 36.1277 52.502 36.1277 52.5368 36.116C52.5484 36.116 52.56 36.1043 52.5716 36.1043C52.6064 36.0926 52.6295 36.081 52.6643 36.0693C52.6759 36.0693 52.6875 36.0576 52.6991 36.0576C52.7223 36.0459 52.7455 36.0342 52.7687 36.0226C52.7803 36.0109 52.7919 36.0109 52.8034 35.9992C52.8266 35.9875 52.8498 35.9642 52.8614 35.9525C52.873 35.9408 52.8846 35.9408 52.8962 35.9291C52.9078 35.9175 52.931 35.8941 52.9426 35.8708C52.9542 35.8591 52.9658 35.8474 52.9658 35.8357C52.9773 35.8124 52.9889 35.789 53.0005 35.7657C53.0005 35.754 53.0121 35.7423 53.0121 35.7306C53.0237 35.6956 53.0353 35.6606 53.0469 35.6139C53.0817 34.9949 49.6385 35.1117 49.2443 34.3176H49.2559C49.2675 34.3176 49.2675 34.3176 49.2791 34.3293C49.5921 34.376 51.3775 34.7264 52.5484 34.6329H52.56C52.6064 34.6329 52.6643 34.6213 52.7107 34.6213C52.7223 34.6213 52.7339 34.6213 52.7339 34.6213C52.7803 34.6213 52.815 34.6096 52.8614 34.5979C52.873 34.5979 52.8846 34.5979 52.8962 34.5862C52.931 34.5746 52.9658 34.5746 53.0005 34.5629C53.0121 34.5629 53.0353 34.5512 53.0469 34.5512C53.0701 34.5395 53.1049 34.5395 53.1281 34.5278C53.1397 34.5278 53.1628 34.5162 53.1744 34.5162C53.1976 34.5045 53.2208 34.4928 53.244 34.4928C53.2556 34.4811 53.2788 34.4811 53.2904 34.4695C53.3136 34.4578 53.3251 34.4461 53.3367 34.4461C53.3483 34.4344 53.3715 34.4227 53.3831 34.4111C53.3947 34.3994 53.4063 34.3877 53.4179 34.376C53.4295 34.3644 53.4527 34.3527 53.4643 34.341C53.4759 34.3293 53.4759 34.3176 53.4875 34.306C53.499 34.2943 53.5106 34.2709 53.5222 34.2593C53.5338 34.2476 53.5338 34.2359 53.5338 34.2242C53.5454 34.2126 53.557 34.1892 53.557 34.1775C53.5686 34.1425 53.5686 34.1191 53.5802 34.0841C53.6034 33.6404 49.9399 33.6987 49.8587 32.9981C49.8587 32.9981 49.8819 33.0098 49.9051 33.0098C49.9167 33.0098 49.9167 33.0214 49.9283 33.0214C50.0442 33.0565 50.2761 33.1032 50.5659 33.1616C51.505 33.3367 53.1165 33.5353 53.9628 33.1733C53.9744 33.1733 53.9744 33.1732 53.986 33.1616C54.0207 33.1499 54.0555 33.1265 54.0903 33.1149C54.1019 33.1032 54.1135 33.1032 54.1251 33.0915C54.1483 33.0798 54.1715 33.0565 54.2062 33.0448C54.2178 33.0331 54.2294 33.0214 54.2526 33.0098C54.2758 32.9981 54.2874 32.9747 54.3106 32.9631C54.3222 32.9514 54.3454 32.928 54.357 32.9163C54.3685 32.9047 54.3801 32.893 54.3917 32.8696C54.4033 32.8463 54.4149 32.8229 54.4381 32.7996C54.4497 32.7879 54.4497 32.7762 54.4613 32.7645C54.4729 32.7412 54.4845 32.7062 54.4961 32.6711C54.4961 32.6594 54.5077 32.6478 54.5077 32.6478C54.5193 32.6011 54.5309 32.566 54.5309 32.5193C54.4613 32.0522 51.192 32.3675 50.5312 31.5734C50.5427 31.5851 50.5659 31.5851 50.6007 31.5968C50.9717 31.7252 52.6527 32.0522 53.9164 31.8654H53.928C53.986 31.8537 54.0323 31.842 54.0903 31.842C54.1019 31.842 54.1019 31.842 54.1135 31.842C54.1599 31.8303 54.2178 31.8187 54.2642 31.807C54.2758 31.807 54.2758 31.807 54.2874 31.807C54.3338 31.7953 54.3801 31.7836 54.4265 31.7719C54.4381 31.7719 54.4381 31.7719 54.4497 31.7603C54.4961 31.7486 54.5424 31.7252 54.5772 31.7136C54.5888 31.7136 54.5888 31.7019 54.6004 31.7019C54.6468 31.6902 54.6816 31.6668 54.7163 31.6435C54.7279 31.6435 54.7279 31.6318 54.7395 31.6318C54.7743 31.6085 54.8091 31.5968 54.8439 31.5734C54.8555 31.5734 54.8555 31.5618 54.8671 31.5618C54.9018 31.5384 54.9366 31.515 54.9598 31.4917C54.9714 31.48 54.9714 31.48 54.983 31.4683C55.0178 31.445 55.041 31.4216 55.0641 31.3983C55.0757 31.3866 55.0757 31.3866 55.0873 31.3749C55.1105 31.3516 55.1337 31.3165 55.1569 31.2932C55.1685 31.2815 55.1685 31.2698 55.1801 31.2581C55.2033 31.2348 55.2149 31.1997 55.238 31.1764C55.2612 31.1414 55.2844 31.0947 55.296 31.0479C55.296 30.6509 53.1628 30.8961 51.6673 30.2422C51.7021 30.2539 51.7369 30.2655 51.7716 30.2655H51.7832C51.818 30.2772 51.8412 30.2772 51.876 30.2889C51.8992 30.2889 51.9339 30.3006 51.9687 30.3006C51.9803 30.3006 51.9919 30.3006 52.0035 30.3123C52.2238 30.3473 52.4904 30.3823 52.7919 30.394H52.8034C52.8498 30.394 52.9078 30.394 52.9542 30.4057C52.9658 30.4057 52.9889 30.4057 53.0005 30.4057C53.0469 30.4057 53.0817 30.4057 53.1281 30.4057C53.1512 30.4057 53.186 30.4057 53.2092 30.4057C53.244 30.4057 53.2672 30.4057 53.302 30.4057C53.3483 30.4057 53.3831 30.4057 53.4295 30.4057C53.4527 30.4057 53.4643 30.4057 53.4875 30.4057C53.5454 30.4057 53.6034 30.4057 53.6498 30.4057C53.6614 30.4057 53.6614 30.4057 53.6729 30.4057C54.8323 30.3823 56.038 30.1721 56.1655 29.5532C56.2003 29.1679 55.3192 28.9343 52.4788 28.7008C52.8266 28.6891 54.4613 28.8526 55.8061 28.6307H55.8177C55.8757 28.619 55.9336 28.6073 55.9916 28.5957C56.0032 28.5957 56.0148 28.5957 56.0148 28.5957C56.0728 28.584 56.1191 28.5723 56.1771 28.5606C56.1887 28.5606 56.2003 28.5489 56.2119 28.5489C56.2583 28.5373 56.3046 28.5256 56.351 28.5139C56.3626 28.5139 56.3858 28.5022 56.3974 28.5022C56.4438 28.4906 56.4785 28.4789 56.5249 28.4672C56.5481 28.4555 56.5597 28.4555 56.5829 28.4439C56.6177 28.4322 56.664 28.4205 56.6988 28.3971C56.722 28.3855 56.7336 28.3855 56.7568 28.3738C56.7916 28.3621 56.8263 28.3504 56.8611 28.3271C56.8843 28.3154 56.8959 28.3037 56.9191 28.292C56.9539 28.2804 56.977 28.257 57.0118 28.2453C57.035 28.2337 57.0466 28.222 57.0698 28.2103C57.093 28.1986 57.1278 28.1753 57.1509 28.1636C57.1741 28.1519 57.1857 28.1402 57.2089 28.1169C57.2321 28.1052 57.2553 28.0818 57.2785 28.0702C57.3017 28.0585 57.3133 28.0351 57.3364 28.0235C57.3596 28.0118 57.3712 27.9884 57.3944 27.9767C57.4176 27.9534 57.4292 27.93 57.4524 27.9184C57.464 27.9067 57.4756 27.8833 57.4872 27.8717C57.5103 27.8483 57.5219 27.8133 57.5335 27.7899C57.5451 27.7782 57.5567 27.7666 57.5567 27.7432C57.5799 27.6965 57.6031 27.6498 57.6147 27.6031C57.464 27.1126 55.5627 27.3462 54.3801 27.2177C54.3917 27.2177 54.4033 27.2177 54.4149 27.2177C54.4497 27.2177 54.4729 27.2177 54.5077 27.2294C54.5424 27.2294 54.5772 27.2294 54.6236 27.2411C54.6352 27.2411 54.6584 27.2411 54.67 27.2411C55.3772 27.2761 56.3162 27.2177 57.1625 26.9958C57.2205 26.9842 57.2785 26.9608 57.3364 26.9491C57.348 26.9491 57.3712 26.9375 57.3828 26.9375C57.4292 26.9258 57.4756 26.9024 57.5219 26.8907C57.5451 26.8791 57.5799 26.8674 57.6031 26.8674C57.6379 26.8557 57.6842 26.844 57.719 26.8207C57.7538 26.809 57.7886 26.7973 57.8234 26.7856C57.8581 26.774 57.8813 26.7623 57.9161 26.7506C57.9509 26.7389 57.9973 26.7156 58.032 26.6922C58.0552 26.6805 58.0784 26.6689 58.1016 26.6572C58.148 26.6338 58.1828 26.6105 58.2291 26.5871C58.2523 26.5754 58.2639 26.5638 58.2871 26.5521C58.3335 26.5287 58.3682 26.4937 58.4146 26.4704C58.4262 26.4587 58.4494 26.447 58.461 26.4353C58.5074 26.4003 58.5421 26.3769 58.5885 26.3419C58.6001 26.3302 58.6117 26.3302 58.6233 26.3185C58.6697 26.2835 58.7044 26.2485 58.7508 26.2134C58.7624 26.2018 58.7624 26.2018 58.774 26.1901C58.8204 26.1551 58.8552 26.1083 58.8899 26.0616C58.8899 26.05 58.9015 26.05 58.9015 26.0383C58.9363 25.9916 58.9711 25.9449 59.0059 25.8981L59.0175 25.8865C59.0522 25.8281 59.087 25.7814 59.1218 25.723C59.0754 25.2325 56.8843 26.1667 54.5656 25.3026C54.5888 25.3026 54.6004 25.3026 54.6236 25.3026C54.8207 25.2909 55.0989 25.2909 55.4235 25.2909C57.0582 25.3143 59.9102 25.3727 60.6637 24.0181C60.6753 24.0064 60.6753 23.983 60.6869 23.9714C60.7101 23.9363 60.7333 23.8896 60.7449 23.8546C60.7681 23.7962 60.7912 23.7378 60.8028 23.6677C60.7912 23.3174 58.6117 24.2166 55.238 23.3408C55.238 23.3291 55.2612 23.3291 55.3076 23.3291C55.3192 23.3291 55.3424 23.3291 55.3656 23.3291C56.1539 23.4108 60.3159 24.3684 62.5071 21.5775C62.3795 21.1804 59.4116 22.173 55.5163 21.5424C55.5395 21.5424 55.5627 21.5541 55.5858 21.5541C56.1075 21.6125 56.9191 21.6359 57.8349 21.5891C57.8465 21.5891 57.8697 21.5891 57.8813 21.5891C57.9161 21.5891 57.9509 21.5891 57.9857 21.5891C58.0204 21.5891 58.0552 21.5891 58.1016 21.5891C58.1132 21.5891 58.1364 21.5891 58.148 21.5891C61.0463 21.4257 64.8721 20.69 64.9764 18.915C63.0403 19.3821 61.0695 19.5105 61.0695 19.5105L59.9913 19.5806C61.6607 19.1485 66.3445 17.7589 66.5647 15.7037C66.5647 15.5052 64.3852 16.7313 61.8694 16.9415C58.1248 17.864 55.8293 18.1209 55.4699 18.1676C55.4815 18.1676 55.4815 18.1676 55.4931 18.1676C56.0728 18.0859 59.5624 17.5604 62.5998 16.3926H62.6114C62.6926 16.3576 62.7737 16.3226 62.8549 16.2992C62.8665 16.2992 62.8665 16.2875 62.878 16.2875C62.9592 16.2525 63.0288 16.2292 63.1099 16.1941C63.1215 16.1941 63.1331 16.1824 63.1447 16.1824C63.2143 16.1474 63.2954 16.1241 63.365 16.089C63.3766 16.089 63.3882 16.0774 63.3997 16.0774C63.4693 16.0423 63.5389 16.019 63.62 15.9839C63.6316 15.9723 63.6432 15.9723 63.6664 15.9606C63.736 15.9255 63.8055 15.8905 63.8751 15.8555C63.8867 15.8438 63.8983 15.8438 63.9099 15.8321C63.9794 15.7971 64.0606 15.7621 64.1301 15.727C64.1417 15.727 64.1533 15.7153 64.1533 15.7153C64.3968 15.5869 64.6402 15.4584 64.8605 15.33C64.9301 15.2833 64.9996 15.2482 65.0808 15.2015C65.0924 15.1899 65.1156 15.1782 65.1272 15.1665C65.1851 15.1315 65.2431 15.0964 65.2895 15.0614C65.3126 15.0497 65.3242 15.0381 65.3474 15.0147C65.3938 14.9797 65.4402 14.9446 65.4865 14.9096C65.5097 14.8979 65.5329 14.8746 65.5561 14.8629C65.6025 14.8279 65.6488 14.7928 65.6836 14.7695C65.7068 14.7578 65.73 14.7344 65.7532 14.7111C65.788 14.6761 65.8343 14.6527 65.8691 14.6177C65.8923 14.5943 65.9155 14.5826 65.9387 14.5593C65.9735 14.5242 66.0198 14.4892 66.0546 14.4659C66.0778 14.4425 66.101 14.4308 66.1126 14.4075C66.1474 14.3724 66.1821 14.3374 66.2169 14.314C66.2401 14.2907 66.2517 14.279 66.2749 14.2557C66.3097 14.2206 66.3445 14.1856 66.3792 14.1506C66.4024 14.1272 66.414 14.1155 66.4372 14.0922C66.472 14.0571 66.4952 14.0221 66.5299 13.9871C66.5415 13.9637 66.5647 13.952 66.5763 13.9287C66.6111 13.8937 66.6343 13.8586 66.6575 13.8236C66.6691 13.8002 66.6923 13.7769 66.7038 13.7652C66.727 13.7302 66.7618 13.6951 66.785 13.6484C66.7966 13.6251 66.8082 13.6017 66.8314 13.59C66.8546 13.555 66.8777 13.5083 66.9009 13.4733C66.9125 13.4499 66.9241 13.4266 66.9357 13.4149C66.9589 13.3798 66.9821 13.3331 67.0053 13.2981C67.0169 13.2747 67.0285 13.2631 67.0401 13.2397C67.0632 13.193 67.0748 13.158 67.098 13.1113C67.1096 13.0879 67.1212 13.0762 67.1212 13.0529C67.1444 13.0062 67.156 12.9595 67.1676 12.9244C67.1792 12.9011 67.1792 12.8894 67.1908 12.866C67.2024 12.8193 67.214 12.7726 67.2255 12.7259C67.2255 12.7025 67.2371 12.6909 67.2371 12.6675C67.2487 12.6208 67.2603 12.5624 67.2719 12.5157C67.2719 12.504 67.2719 12.4924 67.2835 12.469C67.2951 12.3989 67.3067 12.3405 67.3067 12.2705C67.1212 11.9435 65.6604 14.0571 62.0781 14.3374ZM14.4643 57.2173C14.6498 56.7852 14.8237 56.3531 14.986 55.8977C14.8353 56.3181 14.673 56.7502 14.4643 57.2173ZM54.241 27.2644H54.2526C54.2526 27.2644 54.2526 27.2644 54.2642 27.2644C54.2642 27.2644 54.2526 27.2644 54.241 27.2644Z" fill="white"/>
</svg>
