<svg width="80" height="80" viewBox="0 0 80 80" fill="none" xmlns="http://www.w3.org/2000/svg">
<path d="M78.7218 67.5902C78.7411 67.4742 78.7796 67.1162 78.7121 66.6422C78.5868 66.2552 78.3072 66.1101 78.1819 66.0618C78.2494 65.9457 78.3651 65.6845 78.2301 65.4233C77.8156 64.5913 77.3047 64.7461 77.054 64.8332C76.8226 64.8332 76.5527 64.8719 76.2153 64.9299C76.2153 64.9203 76.2153 64.9106 76.2057 64.8912C75.9839 63.9142 75.0006 62.0471 73.6703 61.931C73.651 61.931 73.6317 61.931 73.6221 61.9214C73.3714 61.8343 73.1208 61.9214 72.8702 62.0084L72.8027 62.0278L72.8123 62.0374C72.7641 62.0471 72.7255 62.0665 72.6774 62.0761C72.3399 62.1826 72.0218 62.289 71.694 62.1632C71.5302 62.0955 71.4241 61.9987 71.3952 61.8923C71.3663 61.7762 71.4145 61.6698 71.453 61.6215C71.4916 61.6118 71.5205 61.6118 71.5205 61.6118C71.5302 61.6118 71.5398 61.6021 71.5398 61.6021L72.1953 61.5247V61.486C72.1953 61.4764 72.2725 60.6347 71.2795 60.3832C70.8843 60.2865 70.7107 60.3155 70.5372 60.3542C70.2769 60.4026 70.007 60.4509 68.9562 60.064C68.0115 59.6577 66.8739 57.9261 65.8713 56.3879C65.0808 55.1787 64.3964 54.1436 63.9047 53.8534C63.3938 53.6018 63.0275 53.9017 62.6322 54.2306C62.1309 54.6466 61.5622 55.1303 60.5307 54.5015C59.4895 53.892 59.2581 52.2088 59.0075 50.4191C58.805 48.9197 58.5833 47.3719 57.8989 46.211C57.5036 45.5822 57.0602 44.8954 56.5492 44.2182C56.5396 44.2085 56.5396 44.1988 56.5299 44.1988L56.5203 44.1795C55.8551 43.2992 55.1032 42.4382 54.2549 41.7513C54.4959 41.5966 54.7754 41.4515 54.8815 41.4515C54.9779 41.4515 55.19 41.5869 55.4117 41.732C55.7105 41.9255 56.0479 42.1383 56.3179 42.177C56.3661 42.1867 56.4239 42.1867 56.4818 42.1867C56.7228 42.1867 57.0602 42.119 57.3879 42.0512C57.6675 41.9932 57.9278 41.9352 58.0917 41.9352H58.1013C58.2556 41.8965 58.4098 41.9545 58.5833 42.0319C58.7665 42.0996 58.9689 42.177 59.2099 42.177C59.7305 42.177 60.6945 41.7223 61.0705 41.5288C61.0801 41.5288 61.0994 41.5192 61.1187 41.5192C61.1765 41.5288 61.244 41.5288 61.3019 41.5288V41.4611C61.9863 41.287 63.3745 40.9678 63.8758 41.0452C64.059 41.0452 64.2518 41.0839 64.4542 41.1225C64.5603 41.1419 64.6663 41.1612 64.782 41.1806C64.7916 41.1903 64.8013 41.1903 64.8109 41.1999L64.8206 41.1903C65.0423 41.2193 65.2833 41.2386 65.5629 41.2096C65.9195 41.1709 66.4883 40.8517 67.0378 40.5518C67.6259 40.2229 68.2428 39.8843 68.5224 39.923C68.7441 39.9617 69.0526 40.0487 69.39 40.1358C69.7949 40.2422 70.2191 40.3583 70.5372 40.4067C71.1831 40.4067 72.1279 39.9423 72.1664 39.9133L72.3014 39.8456L72.1471 39.8262C72.1279 39.8262 70.0648 39.4973 69.6792 39.1878C69.6696 39.1781 69.6696 39.1781 69.66 39.1781C69.6985 39.091 70.2866 38.9846 70.5758 38.9362C71.0289 38.8492 71.0964 38.8395 71.0964 38.7718C71.0964 38.7234 71.0385 38.7041 71.0289 38.7041C70.9035 38.6751 70.3733 38.4235 69.8142 38.1623C68.9369 37.756 67.944 37.2917 67.6451 37.2433C67.3945 37.2433 67.1342 37.2917 66.8739 37.3401C66.5462 37.3981 66.228 37.4562 65.9677 37.4078C65.7749 37.3401 65.6111 37.1853 65.4375 37.0208C65.2062 36.7887 64.9362 36.5371 64.5121 36.4404C64.1265 36.3437 63.7119 36.4404 63.3745 36.5275C63.1432 36.5855 62.9503 36.6339 62.825 36.6048H62.8154C62.719 36.6048 62.5069 36.4404 62.3045 36.2759C62.0538 36.0728 61.7646 35.8503 61.5429 35.8019C61.0801 35.7245 60.2704 36.0728 60.1643 36.1212C60.039 36.1115 59.0171 36.0534 58.5544 36.2082C58.2652 36.305 57.9278 36.7209 57.6289 37.0982C57.4265 37.3497 57.2337 37.5916 57.0987 37.6593H57.0891H57.0409V37.669C56.9445 37.6786 56.8288 37.6786 56.6842 37.669C56.3082 37.6496 55.7973 37.6303 55.3924 37.9108C53.9946 39.1878 53.1655 39.3426 52.6739 39.4393C52.5389 39.4683 52.4425 39.4877 52.3461 39.5167C52.0569 39.6618 51.8062 40.0487 51.6327 40.3486C51.6134 40.3583 51.5845 40.3777 51.5749 40.3873C51.4688 40.3583 51.3628 40.339 51.2471 40.3196C49.7336 40.0778 46.8801 40.4937 44.2097 41.0258L43.8145 40.1939C43.8048 40.1745 43.2457 38.1623 42.7637 37.282C42.6576 37.0402 42.5709 36.8177 42.4938 36.5952C42.3684 36.2566 42.2528 35.947 42.0696 35.6665C42.6191 35.6375 43.1107 35.502 43.1397 35.4924L43.1879 35.4827L43.1782 35.4343C43.1589 35.3569 42.6866 33.4802 42.1274 32.6773C41.6743 32.0968 40.1801 30.5684 39.6113 29.9879L39.6595 29.9782L39.5535 29.9202C39.4764 29.8428 39.4282 29.7944 39.4089 29.7751C39.3896 29.7171 39.3028 29.4172 39.2546 29.0496C39.2546 29.0012 39.245 28.9528 39.245 28.9141V28.8561H39.2354C39.2257 28.711 39.2257 28.5755 39.245 28.4304C39.3028 27.9661 40.1223 26.5344 40.6139 25.6831C40.7971 25.3638 40.9417 25.1123 41.0092 24.9865C41.0863 24.8704 41.173 24.6866 41.2694 24.4641C41.3948 24.6189 41.5105 24.735 41.5876 24.764C41.7129 24.8318 41.9153 24.8801 42.1467 24.9382C42.5227 25.0252 42.9468 25.1316 43.1782 25.3251C43.4867 25.6347 44.2194 26.2151 44.4796 26.3022C44.6821 26.3796 45.0099 26.4279 45.2894 26.4279C45.5112 26.4279 45.6943 26.3989 45.7811 26.3505C45.8293 26.3215 45.8389 26.2828 45.8389 26.2635C45.8389 26.0894 45.5883 25.8475 45.3473 25.6057C45.2123 25.4799 45.087 25.3541 45.0291 25.2671L45.0195 25.2574C44.9038 25.18 44.7399 24.8511 44.605 24.5609C44.47 24.2803 44.3447 24.0095 44.2194 23.8934C44.094 23.7676 43.9109 23.6032 43.7374 23.4484C43.5638 23.2936 43.3807 23.1292 43.2457 23.0034C43.1397 22.9357 42.8697 22.5777 42.6191 22.2101C43.4481 21.9393 45.4726 21.5233 46.6005 21.3201H46.6198L46.668 21.3298C46.668 21.3298 46.7355 21.3395 46.8511 21.3395C47.2657 21.3395 48.2875 21.2427 48.8081 20.3431C48.8852 20.2076 48.9431 20.0529 48.9816 19.8884C49.4058 19.8207 50.0131 19.6756 50.8711 19.395C51.4013 19.2016 52.4907 18.5147 53.6475 17.7892C54.197 17.4409 54.7658 17.083 55.2767 16.7734C55.3249 16.9572 55.3924 17.112 55.4792 17.2087C55.6045 17.3635 55.7491 17.5957 55.8937 17.8279C56.2022 18.3309 56.5299 18.863 56.877 18.921C57.3397 18.921 61.0223 18.6792 61.379 18.6018C61.5236 18.5921 61.6778 18.2535 62.0056 17.499C62.1791 17.0927 62.4201 16.5412 62.5069 16.5122C62.6419 16.4832 62.9214 16.5606 63.1914 16.638C63.3263 16.6767 63.4613 16.7154 63.5962 16.7444C63.8083 16.7928 64.0011 16.8121 64.1265 16.7541C64.5024 16.5993 66.4112 15.7964 66.604 15.7093L67.809 16.0285L67.8283 16.0189C67.8476 16.0285 67.8669 16.0285 67.8765 16.0285C67.944 16.0285 68.0115 15.9898 68.05 15.8931L70.3733 14.6548L71.5687 14.8193L73.5835 14.3356L73.5642 14.2389C73.4196 14.2485 70.0166 14.4807 69.6889 14.6452C69.5539 14.7032 69.3418 14.8096 69.0912 14.9354C68.6092 15.1772 68.0018 15.4771 67.6933 15.5352C67.4909 15.5352 67.2306 15.4288 66.98 15.3223C66.6522 15.1869 66.3052 15.0418 66.0738 15.1385C65.9388 15.1676 65.7267 15.3127 65.4664 15.4965C65.0712 15.7673 64.5796 16.0962 64.1457 16.193C63.7119 16.2897 63.2396 16.1156 62.9021 15.9898C62.6611 15.9028 62.4876 15.8351 62.3719 15.8737L62.3623 15.8834C62.1309 16.0382 61.9092 16.5122 61.6778 17.0056C61.514 17.3635 61.3211 17.7602 61.1476 17.973C61.0512 17.9827 60.9548 18.0407 60.897 18.1278C60.1065 18.0891 59.2967 18.2052 58.6315 18.2922C58.0338 18.3696 57.5229 18.447 57.253 18.3696C57.2337 18.3696 57.2144 18.3599 57.1951 18.3503C57.1566 18.2245 57.0698 18.1278 56.9252 18.1278C56.8963 18.1278 56.8674 18.1374 56.8384 18.1471C56.395 17.7892 55.8841 17.112 55.7684 16.6283C55.7587 16.5896 55.7394 16.5606 55.7298 16.5219C56.26 16.222 56.7131 15.9802 57.0216 15.8834C57.3012 15.7867 57.7735 15.6416 58.2652 15.4868C60.039 14.9451 60.6656 14.7226 60.6656 14.5484V14.5291C60.6078 14.355 60.0583 14.4033 59.6052 14.471C60.2222 14.2195 61.0609 13.8422 61.0609 13.6488V13.6391L61.0512 13.6294C60.9934 13.523 60.6656 13.6004 59.6437 13.9293C59.3642 14.0164 59.0557 14.1131 58.8918 14.1518C59.0461 14.0551 59.3642 13.8906 59.6341 13.7552C60.5306 13.3005 60.9452 13.0683 60.8873 12.9039C60.7813 12.7007 60.3186 12.9135 59.5763 13.2812C59.3256 13.4069 59.0075 13.5617 58.834 13.6197C60.0968 12.9135 60.5596 12.5556 60.4921 12.3428C60.4824 12.3138 60.4632 12.2944 60.4439 12.2847C60.3475 12.246 60.174 12.3331 59.7691 12.5266C59.1617 12.8265 58.2459 13.2618 57.465 13.2038C57.5229 13.1457 57.6289 13.049 57.7253 12.9619C58.1591 12.575 58.5062 12.2364 58.5158 12.0332C58.5158 11.9945 58.5062 11.9558 58.4773 11.9268C58.3327 11.7817 58.0724 11.9752 57.8699 12.13C57.8025 12.1783 57.7446 12.2267 57.7061 12.246L57.6964 12.2557C57.6675 12.2847 57.5229 12.3331 57.3976 12.3815C57.1662 12.4685 56.9156 12.5556 56.8095 12.662C56.6167 12.8555 56.2889 13.4166 56.0287 13.8713C55.9612 13.997 55.8937 14.1034 55.8359 14.1905C55.0261 14.7806 53.7536 14.9741 52.6353 15.1385C52.1244 15.2159 51.6423 15.2836 51.276 15.3901C50.206 15.6996 48.2297 16.9669 48.0658 17.083C48.0465 17.083 48.0369 17.083 48.0273 17.083C47.9212 16.9766 47.8152 16.8992 47.7091 16.8508C47.2368 16.5896 46.5909 16.7734 46.1474 17.0346C46.0703 17.083 45.8196 17.2378 45.7907 17.3538C45.7136 17.3345 45.6461 17.3055 45.5786 17.2861C45.328 17.1894 45.0966 17.1023 44.47 17.2474C44.0651 17.2474 42.4359 17.6924 42.301 17.7311C41.9346 17.7311 41.5297 17.6441 41.067 17.5473C40.8356 17.499 40.5946 17.4506 40.3343 17.4022C40.2861 16.2994 40.1319 13.1457 39.862 12.5943C39.5438 12.0042 39.0715 11.5399 38.6762 11.2109C38.7148 10.6595 38.7437 9.12139 38.0014 8.70541L37.9532 8.67639L37.9339 8.73443C37.9146 8.79248 37.8857 8.85052 37.8664 8.90856L37.4808 9.4116C36.9699 9.8566 36.3047 9.91464 36.2951 9.91464L36.1408 9.92432L36.1698 9.94367C35.5624 9.80823 34.849 9.78888 34.1068 10.0017C34.0875 10.0114 34.0489 10.0211 34.0007 10.0404C33.6055 10.1758 32.3908 10.5821 32.3137 11.8204C32.3137 11.8978 32.3137 11.9752 32.3233 12.0429C32.3233 12.0526 32.3233 12.0526 32.3233 12.0622C32.3619 12.5943 32.5161 12.9813 32.68 13.2328L32.6896 13.2425C32.6993 13.2618 32.7089 13.2715 32.7186 13.2908C32.8439 13.465 32.9596 13.5714 33.0367 13.5907V13.8422C33.0367 13.8616 32.9981 13.9003 32.9692 13.9293C32.921 13.9777 32.8728 14.026 32.8728 14.0841V15.5255C32.8728 15.5545 32.7957 16.2607 32.8728 16.5122C32.9403 16.725 33.1331 16.7347 33.2391 16.7057C33.2873 16.7541 33.3645 16.8024 33.4609 16.8605C33.5476 16.8992 33.6537 16.9282 33.7693 16.9282L33.8368 17.5667H33.8079C33.2584 17.586 31.7931 17.6344 31.581 17.5667C31.4846 17.499 31.2243 17.2184 30.9448 16.9185C30.5302 16.4735 30.0193 15.9124 29.7397 15.719C29.4023 15.4481 28.5829 15.0224 28.3033 14.8773C28.3419 14.8483 28.3708 14.8386 28.3708 14.829L28.4094 14.8096L28.3997 14.7709C28.3804 14.7032 27.8117 13.2038 26.9055 13.2908C26.8766 13.2908 26.7994 13.3392 26.703 13.4263C26.6356 13.0973 26.356 11.6753 26.0764 10.8337C25.98 10.5338 25.7583 9.99204 25.5173 9.37291C24.9871 7.95085 24.2448 6.09347 24.2448 5.5614C24.2833 5.3776 24.5051 4.98097 24.7172 4.60369C24.9678 4.14902 25.2088 3.7137 25.2088 3.54924C25.2474 3.37511 25.1992 3.23968 25.1317 3.05587C25.0353 2.79468 24.8907 2.40772 24.8907 1.60479V1.58544L24.881 1.57577C24.7846 1.47903 24.7075 1.48871 24.6593 1.50805C24.3315 1.64349 24.3123 3.06555 24.3123 3.37511C24.3026 3.38478 24.293 3.41381 24.2641 3.41381C24.2159 3.41381 24.0423 3.34609 23.676 2.39805C23.3964 1.65316 23.3868 1.07273 23.3868 0.72447C23.3868 0.443928 23.3772 0.279472 23.2326 0.279472C23.1651 0.279472 23.0976 0.308494 23.059 0.356863C22.8855 0.560014 22.9916 1.14045 23.0783 1.65316C23.1169 1.88533 23.1747 2.1949 23.1554 2.27229C22.8952 1.95305 22.8952 1.35327 22.9048 0.869578C22.9048 0.492297 22.9048 0.221429 22.7988 0.12469C22.7602 0.0956687 22.7216 0.0859948 22.6831 0.0956687C22.6445 0.0956687 22.6059 0.115016 22.577 0.144038C22.4131 0.318168 22.4131 0.966317 22.4517 1.73055C22.3746 1.01469 22.3071 0.511645 22.1818 0.434254C22.1625 0.42458 22.1336 0.414906 22.1143 0.42458C22.0854 0.42458 22.0565 0.443928 22.0372 0.463276C21.9118 0.608384 21.9601 1.15979 22.0372 1.99175C22.0757 2.35935 22.1239 2.81403 22.095 2.92044C21.7962 2.85272 21.748 2.34001 21.6998 1.83696C21.6612 1.42099 21.6226 1.03403 21.4202 0.908274C21.372 0.888926 21.3334 0.888926 21.2949 0.927621C21.0539 1.15012 21.2949 3.0462 21.4298 3.38478C21.5166 3.64598 21.7094 3.94587 21.8926 4.21674C22.0468 4.45858 22.2011 4.69076 22.2396 4.83586C22.3071 5.08738 22.3264 5.71619 22.336 6.50944C22.3842 9.20845 22.4806 14.1034 24.881 16.0092C24.7846 16.3187 24.7461 16.638 24.8136 16.9282C25.2185 18.0697 25.8643 18.2438 25.8933 18.2438L25.9415 18.2535L25.9511 18.2052C25.9511 18.2052 25.9704 18.1374 25.9993 18.0213C26.4235 18.6115 26.9151 19.1145 27.1561 19.3563C27.3586 19.5595 27.7538 19.8497 28.2069 20.1883C28.9589 20.7494 29.894 21.4362 30.0386 21.8425C30.1446 22.1231 30.1735 22.4423 30.2025 22.8196C30.241 23.313 30.2892 23.8644 30.5206 24.5028C30.6459 24.9672 30.8483 25.4992 31.0797 26.0603C31.5135 27.1535 31.9859 28.3627 32.063 29.5913C32.063 29.601 32.063 29.601 32.063 29.6106C32.0823 29.8912 32.0727 30.1717 32.0437 30.4523C31.957 30.491 31.8799 30.5393 31.8124 30.578C31.5906 30.8005 30.8869 31.2068 29.9807 31.5357L29.9518 31.5454C29.6626 31.4874 29.4023 31.4003 29.1902 31.3229C29.036 31.2649 28.901 31.2262 28.7853 31.2068C28.554 31.2068 28.072 31.2552 27.6092 31.3132C27.8213 31.2262 28.0238 31.1198 28.1684 30.965C28.554 30.578 29.9904 29.8235 30.2025 29.7654L30.2796 29.8525V29.7171V29.6784L30.2603 29.6687C29.9904 29.3785 28.8817 29.5623 27.6671 29.7944C27.3971 29.8428 27.1658 29.8912 27.0212 29.9105C26.5488 29.9105 25.5077 29.9976 24.9871 30.046C25.4884 29.8331 26.5006 29.3978 26.7994 29.2817C27.1272 29.1173 27.9852 28.1015 28.0238 28.0628L28.3033 27.7339L27.9659 27.9951C27.9563 27.9951 27.3297 28.4691 26.9441 28.5465C26.7898 28.5755 26.5102 28.5272 26.1921 28.4691C25.739 28.3917 25.1702 28.2853 24.6882 28.3821C24.1773 28.4885 23.4639 28.7497 23.0108 28.9335C23.3772 28.6819 23.9941 28.295 24.7172 27.908C25.7583 27.4147 26.1343 27.4824 26.1921 27.5017C26.2018 27.5017 26.2018 27.5114 26.2114 27.5114L26.25 27.4243C26.25 27.4243 26.2403 27.4243 26.2307 27.4147C26.221 27.4147 26.221 27.4147 26.2114 27.405C26.1921 27.3953 26.1728 27.3953 26.1439 27.3857C26.1246 27.376 26.0957 27.3663 26.0668 27.3566C26.0572 27.347 26.0379 27.347 26.0186 27.3373C25.98 27.3276 25.9415 27.3083 25.8933 27.2986C25.8258 27.2792 25.7487 27.2502 25.6715 27.2309C25.6137 27.2115 25.5462 27.1922 25.4787 27.1728H25.4691C24.91 27.0084 24.1869 26.8439 23.811 26.9407C23.3097 26.9987 23.0012 27.2696 22.7698 27.4727C22.6734 27.5598 22.577 27.6372 22.5192 27.6662C21.9986 27.7726 21.5166 27.7339 21.237 27.7049C21.4491 27.6468 21.748 27.5695 21.9022 27.5211H21.9118L21.9215 27.5114C22.0468 27.3857 23.1169 26.8342 23.5121 26.6311L23.6375 26.5634L23.5025 26.5343C23.4928 26.5343 23.4639 26.5247 23.4157 26.515C23.1747 26.4666 22.5288 26.3409 21.9793 26.2732C21.9215 26.2635 21.8636 26.2538 21.8154 26.2538C21.6226 26.2345 21.4588 26.2151 21.3334 26.2151C21.2852 26.2054 21.2274 26.2054 21.1792 26.2151C20.7936 26.2635 20.2923 26.6117 19.8681 26.9116C19.8392 26.931 19.8103 26.9503 19.7814 26.9697C19.5789 27.1051 19.415 27.2212 19.2993 27.2696C19.1451 27.3179 18.9041 27.3566 18.6534 27.3953C18.1329 27.4727 17.5448 27.5695 17.2653 27.8403C16.9857 28.1209 16.3976 28.8658 16.0602 29.2914C15.3854 29.4268 14.1322 30.1524 12.8211 30.9263C11.5775 31.6518 10.2954 32.3967 9.37954 32.7256L9.33134 32.745C9.2253 32.7837 9.12889 32.8127 9.03249 32.8417C8.91681 32.8707 8.80113 32.8901 8.70472 32.8998H8.68544L8.6758 32.9094C8.65652 32.9191 8.63724 32.9385 8.61796 32.9578C8.5794 32.9868 8.52156 33.0062 8.46372 33.0352C8.36731 33.0836 8.26127 33.1416 8.14559 33.2093C8.07811 33.248 8.00098 33.277 7.92386 33.3157C7.36473 33.5866 6.73811 33.8865 6.58387 34.2057C6.38142 34.5056 6.36214 34.6894 6.34286 34.8732C6.33322 34.9893 6.31394 35.1054 6.2561 35.2602C6.21754 35.3376 6.15006 35.4246 6.08258 35.5214C5.91869 35.7439 5.73553 36.0051 5.79337 36.2179C5.82229 36.3243 5.89941 36.4017 6.03438 36.4597C6.33322 36.6048 6.89236 36.4501 7.49005 36.2759C8.04919 36.1115 8.6276 35.947 8.86861 36.0921C8.92645 36.1308 8.96501 36.1889 8.98429 36.2663C9.07105 36.7596 8.27091 36.9047 7.62502 37.0305C7.15264 37.1176 6.76703 37.1853 6.73811 37.3788C6.70919 37.5432 6.77667 37.7464 6.9502 37.9302C7.18156 38.1914 7.6443 38.4526 8.24199 38.4042C8.6276 38.3655 9.13853 38.0559 9.67839 37.727C9.98687 37.5335 10.3243 37.3401 10.6521 37.1756C10.7292 37.2627 10.7967 37.3497 10.8449 37.4078C10.9027 37.5239 10.9509 37.6786 10.9991 37.8431C11.0859 38.1333 11.1726 38.4429 11.3461 38.5493C11.6643 38.7911 12.7054 39.1201 13.2164 39.2071C13.467 39.2458 13.7755 39.478 14.0647 39.7005C14.3346 39.9036 14.5853 40.0874 14.807 40.1648H14.8166C15.6746 40.2229 16.3398 39.894 16.8796 39.6328C17.1496 39.4973 17.3809 39.3909 17.5545 39.3619C17.7858 39.3619 18.0172 39.4006 18.2582 39.449C18.4221 39.478 18.586 39.507 18.7595 39.5264C19.6175 41.732 20.5429 44.6729 20.7165 45.5145C20.3791 45.9982 20.0898 46.9559 19.9163 48.0587C19.5886 48.3102 19.3475 48.8229 19.3475 49.3937C19.3475 49.8774 19.5211 50.3321 19.7814 50.6126C19.8199 51.3285 19.9356 52.0056 20.1477 52.5571C20.3212 53.0891 20.5237 53.5728 20.7454 54.0081C19.3572 54.3757 17.4581 54.9465 16.9471 55.4108C16.7158 55.6237 16.5615 55.7785 16.4458 55.9042C16.1277 56.2331 16.0699 56.2912 15.2022 56.533C14.8456 56.6394 14.5563 56.7071 14.3057 56.7652C13.7562 56.9006 13.3899 56.9877 12.9464 57.2586C12.4933 57.4617 12.0113 57.8487 11.4425 58.3033C11.0955 58.5742 10.7099 58.8934 10.2857 59.1933C9.55306 59.7157 8.32875 59.9382 7.33581 60.1123C6.8056 60.2091 6.34286 60.2865 6.03438 60.4026C5.28244 60.7025 4.87755 61.486 4.81007 61.6215C4.63654 61.6795 3.60504 62.0374 2.60245 62.5115C2.57353 62.5115 2.55425 62.5018 2.52533 62.5018H2.50605L2.48677 62.5115C1.90835 62.8017 1.28174 63.1886 0.896129 63.5756C0.693684 63.7691 0.558721 63.9722 0.5298 64.156C0.52016 64.2141 0.539441 64.2721 0.578002 64.3205C0.587642 64.3398 0.606922 64.3495 0.626203 64.3689C0.93469 64.6204 2.07224 64.6978 3.0459 64.6978C3.81712 64.6978 4.50158 64.6494 4.60762 64.6204C4.61726 64.6204 4.6269 64.6107 4.63654 64.6107C4.81007 64.5236 4.99323 64.2044 5.18604 63.8078C5.42704 63.3434 5.63913 62.8404 5.67769 62.7533C5.87049 62.376 6.60315 62.2503 6.84416 62.2212L6.61279 62.8404L6.67063 62.8501C6.72847 62.8597 8.06847 63.1693 8.63724 62.6856C8.88789 62.5115 9.05177 62.2406 9.23494 61.9697C9.4663 61.6021 9.70731 61.2248 10.1604 61.0023C10.6713 60.7411 11.8282 60.6541 12.7536 60.5767C13.2742 60.538 13.7176 60.4993 14.0069 60.4413C14.3635 60.3639 14.6142 60.0446 14.8938 59.7157C15.2022 59.3384 15.5204 58.9515 16.0217 58.8257C16.4555 58.6806 17.4291 58.6903 18.3546 58.729C18.104 59.0385 17.8533 59.3481 17.4966 59.6287C17.0724 60.0543 15.53 60.8669 14.5081 61.399C13.9779 61.6795 13.5923 61.8827 13.4766 61.9601C13.332 62.1052 13.1874 62.2986 13.0332 62.5308C12.9175 62.6856 12.8018 62.8501 12.6765 63.0145C12.5126 63.179 12.2234 63.2564 11.8571 63.3628C11.539 63.4498 11.1726 63.5466 10.7677 63.7304C10.1893 64.0206 9.36026 64.9299 9.09033 65.5104C9.02285 65.6458 8.98429 65.7619 8.99393 65.8489C8.99393 65.9263 9.03249 65.9747 9.07105 65.9941L9.08069 66.0037C9.10961 66.0134 9.15781 66.0231 9.21566 66.0327C9.38918 66.0618 9.66875 66.0811 10.0062 66.0811C11.0569 66.0811 12.6572 65.936 13.2646 65.5878C13.3031 65.5684 13.3417 65.5394 13.3802 65.5104C13.4959 65.4523 13.573 65.3846 13.6405 65.3169C13.7755 65.1911 13.843 65.0654 13.8719 64.9493C13.8719 64.9396 13.8815 64.9299 13.8815 64.9299L13.9105 64.8719H13.8815C13.8912 64.7751 13.8719 64.6881 13.8623 64.601C13.843 64.4849 13.8333 64.3785 13.8815 64.2818C13.9297 64.1367 14.4503 63.9045 14.8166 63.7787C14.7588 64.0593 14.6913 64.4656 14.7684 64.543C14.8745 64.6494 15.5204 64.3785 15.8385 64.2334C15.8578 64.2334 15.8674 64.2237 15.8771 64.2141C15.9542 64.185 16.0024 64.156 16.0217 64.1463C16.0313 64.1463 16.0409 64.1367 16.0506 64.1367C16.1952 64.069 16.3591 63.7691 16.6386 63.266C16.9471 62.7146 17.3135 62.0374 17.7087 61.6892C17.7665 61.6408 17.8244 61.6021 17.8822 61.5634C18.5088 61.1668 19.3475 60.9249 20.3308 60.6444C20.7261 60.5283 21.1406 60.4122 21.5744 60.2768C22.2011 60.035 22.6252 59.5706 22.9626 59.1933C23.194 58.9418 23.3964 58.7193 23.5796 58.6613C23.8013 58.5645 24.8232 58.3517 26.0089 58.1099C26.1825 58.0712 26.356 58.0421 26.5392 58.0034C27.2333 57.8583 27.9274 57.7132 28.5443 57.5778C28.6311 57.5875 28.7179 57.5971 28.8046 57.6165C27.1272 57.81 25.633 58.1969 24.8425 58.9708C24.4376 59.3675 24.2255 59.8512 24.2255 60.4026C24.2255 62.2116 25.7005 63.5949 26.7802 64.3689C25.7101 64.3689 24.7846 64.3785 24.2544 64.3882C24.052 64.3882 23.9267 64.3882 23.8688 64.3882C22.1721 64.3882 21.0731 64.6784 20.6972 65.2201C20.2055 66.0424 20.4465 66.5358 20.4562 66.5551L20.5333 66.7002L20.5526 66.5358C20.5526 66.5261 20.5622 66.4487 20.6104 66.352L22.3457 66.0231C23.1651 66.323 24.0134 66.9421 24.6593 67.4161C24.8039 67.5225 24.9389 67.6193 25.0642 67.7063C26.221 68.4415 27.32 68.8769 28.5347 69.08C28.5636 69.08 28.66 69.0994 28.8143 69.1284C27.3779 69.6218 25.7583 70.6085 25.7583 72.582C25.7583 75.4454 27.6574 77.5253 31.4171 78.7539C34.5888 79.789 37.8761 79.8083 38.0207 79.8083H44.1326C44.2386 79.7987 44.3736 79.7987 44.5375 79.789C45.0291 79.7696 45.7425 79.7406 46.5427 79.7116C49.9842 79.5858 51.3242 79.5278 51.8352 79.4601C51.8448 79.4601 51.8544 79.4601 51.8737 79.4601C51.9219 79.4504 51.9508 79.4504 51.9894 79.4407C52.1147 79.4117 52.1436 79.3924 52.1436 79.3633C52.1436 79.0441 51.2953 78.5894 49.7625 78.5894C49.5215 78.5991 49.1841 78.6088 48.7599 78.6281C48.0947 77.8252 46.7162 77.8059 45.6847 77.8639L45.6172 77.7962C45.1159 77.2931 43.9591 76.4709 41.8864 76.6547C41.8768 76.6547 41.8671 76.6547 41.8575 76.6547C41.7611 76.1032 41.0959 75.726 39.862 75.5325C39.862 75.3971 39.8041 75.0101 39.2064 74.4103C39.0426 74.2459 38.7051 74.1395 38.281 74.0621C38.3099 74.0427 38.3388 74.0234 38.3677 74.004C38.5027 73.8686 38.5605 73.6171 38.5027 73.3946C38.4063 72.8528 38.2521 72.6593 37.2205 72.5529C37.7315 72.5239 37.9821 72.4562 38.0978 72.3304C38.2135 72.2047 38.2039 72.0402 38.1846 71.8661C38.1749 71.8274 38.1749 71.7984 38.1653 71.7597C38.1557 71.721 38.146 71.692 38.1364 71.6533C38.1267 71.6339 38.1267 71.6146 38.1171 71.6049C38.0303 71.4114 37.8086 71.2373 37.1916 71.1115C37.6833 71.0922 38.011 71.0341 38.2231 70.8987C38.2713 70.8697 38.3099 70.831 38.3485 70.7923C38.522 70.5988 38.5605 70.2989 38.522 69.8539C38.6087 69.8443 38.7051 69.8443 38.7919 69.8346C40.6525 69.6508 41.9732 69.2058 43.0336 68.8575C43.8241 68.5963 44.5086 68.3738 45.2219 68.3061C46.3595 68.132 57.0409 68.2481 64.1168 68.3255C66.9992 68.3545 69.4961 68.3835 70.6047 68.3835C72.6292 68.3448 74.8753 68.4125 76.5142 68.4609C78.6447 68.5286 79.1074 68.5286 79.1652 68.4319C79.2616 67.8514 78.8567 67.6483 78.7218 67.5902ZM71.1735 63.8755C71.5494 64.0399 71.6266 64.2237 71.7133 64.4366C71.7808 64.6107 71.8676 64.8042 72.1279 64.9977L72.1375 65.0073C72.2146 65.0363 72.3014 65.075 72.3881 65.1041C71.1156 65.1331 69.5539 65.1718 67.8283 65.2008C67.8572 65.1911 67.8861 65.1814 67.9151 65.1621H67.9247L67.9343 65.1524C68.0115 65.046 68.0115 64.9009 67.9536 64.7171C67.9343 64.6687 67.9151 64.6107 67.8958 64.5527C67.5295 63.7304 66.2666 62.4534 65.7171 62.2019C65.6978 62.1922 65.6785 62.1826 65.6592 62.1826C65.5436 62.1245 65.3604 62.1052 65.158 62.1245C64.9555 62.1342 64.7434 62.1632 64.5121 62.2019C63.9337 62.289 63.336 62.376 62.9407 62.1148C62.9021 62.0761 62.9021 62.0568 62.9021 62.0568C62.9407 61.9891 63.3745 61.9794 63.8662 62.0374L63.9915 62.0568L63.9047 61.9601C63.8662 61.9214 62.9986 60.9733 62.584 60.9733C62.4009 60.9733 62.3237 61.0314 62.2466 61.0991C62.1406 61.1765 62.0345 61.2635 61.6296 61.2152C60.9741 61.1668 59.7691 59.5706 58.9014 58.2937C60.5017 58.255 63.548 58.284 64.2711 58.4097C64.7724 58.5355 66.0352 59.8512 67.2692 61.1281C68.3778 62.2793 69.4286 63.3724 69.8913 63.5659C70.4119 63.7787 70.5276 63.7691 70.6336 63.7594C70.7204 63.74 70.8071 63.7304 71.1735 63.8755ZM39.4667 57.2682C42.3684 56.8232 44.2483 55.8268 45.3666 55.2367C45.675 55.0723 45.916 54.9465 46.1185 54.8594C46.1281 55.6333 46.2631 56.7942 46.8415 57.8487C44.2676 57.7422 40.6332 57.5971 38.1653 57.5294C38.5991 57.452 39.0329 57.3746 39.4667 57.2682ZM11.5004 36.8757C16.735 37.8141 17.0821 37.1369 17.2171 36.8757C17.2267 36.8564 17.2363 36.837 17.2363 36.837C17.2556 36.837 17.3135 36.8757 17.4195 36.9434C17.6412 37.0789 17.969 37.7077 18.345 38.5783C18.0076 38.617 17.728 38.6073 17.5255 38.6073C17.3424 38.6073 17.2074 38.5977 17.1207 38.6267C16.976 38.6557 16.8025 38.7621 16.6097 38.8879C16.2627 39.1104 15.8289 39.3812 15.3758 39.2748C14.9034 39.1781 14.6335 38.9749 14.3828 38.7911C14.2093 38.6654 14.0551 38.5396 13.8526 38.4719C13.573 38.3945 13.2164 38.3752 12.8789 38.3461C12.5415 38.3268 12.2138 38.3074 12.021 38.2301C11.9053 38.143 11.7318 37.8624 11.539 37.5722C11.404 37.3691 11.269 37.1563 11.1341 36.9725C11.2497 36.9241 11.3751 36.8951 11.5004 36.8757ZM36.4975 64.4075C37.1049 64.1754 37.5772 63.8948 37.7218 63.5175C37.7411 63.4498 37.7604 63.3821 37.7604 63.3144C37.77 63.1112 37.6929 62.8791 37.529 62.6469C38.0882 62.5018 38.2906 62.1245 38.4545 61.3022C39.2739 61.1668 39.592 60.8185 40.1994 60.1801C40.7007 60.1317 41.1056 60.0543 41.3273 59.9285C41.9828 59.5996 42.513 59.145 42.8794 58.7773C43.7759 58.8064 44.6146 58.8354 45.3183 58.8547C45.7136 58.8644 46.0703 58.8838 46.3691 58.8934C46.7933 58.9031 47.1693 58.8934 47.5067 58.8644C47.5742 59.0482 47.6706 59.2224 47.8055 59.3675C48.008 59.59 48.2875 59.6964 48.625 59.6964C48.6539 59.6964 48.6828 59.6964 48.7117 59.6964C48.9624 59.648 49.0395 59.3191 49.1262 58.9708C49.1552 58.8354 49.1937 58.6903 49.2419 58.5645C50.0613 59.3288 51.1025 59.9576 52.3943 60.2575C54.5537 60.7121 55.6045 60.6251 56.4432 60.567C56.9638 60.5283 57.4168 60.4896 58.0145 60.5864C59.2389 60.7895 60.1354 61.9601 60.8584 62.8984C61.2633 63.4208 61.6104 63.8755 61.9285 64.0496C62.3045 64.2818 62.6804 64.2044 63.0757 64.127C63.3938 64.0593 63.7312 63.9916 64.1168 64.0593C64.3964 64.1077 64.7242 64.3108 65.1001 64.5527C65.5146 64.8138 65.9774 65.1041 66.498 65.2492C57.9953 65.4136 46.533 65.5974 45.2509 65.5007C43.024 65.3459 38.7919 64.6204 37.8568 64.4559C37.5869 64.4075 37.0856 64.4075 36.4975 64.4075Z" fill="white"/>
</svg>
