<svg width="42" height="65" viewBox="0 0 42 65" fill="none" xmlns="http://www.w3.org/2000/svg">
<path d="M41.2723 61.9803C41.2723 61.9803 40.3901 55.5872 39.1465 52.0391C37.8178 48.395 36.9356 44.0478 36.3084 40.4996C35.5963 36.8556 34.714 32.9558 33.8318 28.5979C33.0346 24.1547 29.5801 16.3446 29.5801 16.3446C29.5801 16.3446 27.3692 11.8162 23.9146 12.1678C21.2573 12.4342 20.4601 14.0324 20.4601 14.0324L20.5451 14.4799C20.5451 14.4799 18.3342 12.0825 17.6221 10.1327C17.0694 8.29999 17.7284 6.53125 18.5043 5.42312V5.41246C18.5894 5.2846 18.6744 5.17805 18.7701 5.0715C18.9295 4.87971 19.1102 4.74119 19.3228 4.62399H22.012C22.1289 4.67726 22.2352 4.74119 22.3202 4.80512C22.5009 4.98626 22.4053 3.20686 21.7037 2.40773C21.2573 1.96022 20.3751 1.78974 19.8436 1.69384C19.6629 1.69384 19.5779 1.69384 19.5779 1.69384C19.5779 1.69384 19.1314 0.809471 18.7807 0.628334C18.3342 0.361958 17.8028 0.0955807 15.5068 0.447198C13.1153 0.894711 11.4358 3.19621 11.4358 3.19621L9.30995 6.92548L10.0221 6.65911L9.30995 7.72462L10.0221 7.63937L8.24702 11.3687L9.04422 11.017L7.61989 14.3095C6.69514 14.0324 5.31333 13.9259 3.63389 14.8422C0.53013 16.5257 -0.0863711 21.2353 0.710828 24.2506C0.774604 24.517 0.83838 24.7834 0.912785 25.0498H0.891527C0.891527 25.0498 0.902156 25.0604 0.923415 25.0711C2.10327 29.4929 4.66494 35.0123 5.50465 36.6851C5.69598 37.0687 6.00423 37.6867 6.39752 38.4539L6.38689 38.4645C6.38689 38.4645 6.39752 38.4752 6.40815 38.4965C7.8431 41.3201 10.2878 46.0509 11.2551 47.7877C11.7653 48.6934 12.1374 49.2688 12.4031 49.6204C11.8291 51.6661 11.0957 53.2431 10.8299 53.7972C10.5323 53.8504 10.2241 53.957 9.91582 54.1168C9.58631 54.1168 9.13988 54.0955 8.68282 54.0103C7.80059 53.8291 7.35416 53.1259 6.73766 53.1259C6.20619 53.0407 5.05822 53.2111 4.43109 53.925C4.34606 54.0103 4.25039 54.1914 4.16536 54.2766C3.63389 55.3421 4.25039 56.7593 4.25039 56.7593C4.25039 56.7593 4.78186 55.3421 5.75976 55.0758C5.75976 55.0758 5.75976 54.9905 5.84479 54.9905C6.82269 54.8094 7.35416 55.3422 7.97066 55.438C8.19387 55.47 8.50212 55.438 8.78911 55.3741C8.47023 56.2052 8.32142 57.3027 8.32142 57.3027C8.32142 57.3027 9.38436 55.7897 10.5323 55.6192C10.6174 55.6192 10.713 55.5339 10.7981 55.5339C11.4146 55.8003 12.5732 56.1519 13.3704 56.1519C13.753 56.1946 14.2207 56.0667 14.6246 55.9069C14.5715 56.5568 14.6034 57.1322 14.6034 57.1322C14.6034 57.1322 15.2199 56.2478 16.1127 55.8003C16.3785 55.7151 16.6442 55.6192 16.9099 55.6192C17.6221 55.6192 18.1004 55.7897 18.3768 55.9388C18.3236 56.5568 18.5043 57.1215 18.5043 57.1215C18.5043 57.1215 19.7479 56.1413 20.0137 56.056C21.1616 56.056 22.0545 56.8552 23.1174 56.674C23.8402 56.5568 24.3186 55.7364 24.5205 55.2569H24.6162C24.6906 56.2265 25.7323 56.5888 26.1362 56.5888C26.4869 56.5036 27.7306 55.8749 28.3471 55.8749C28.3471 55.8749 28.3471 55.8749 28.4321 55.8749C29.0486 56.056 29.6757 56.8552 29.6757 56.8552C29.6757 56.8552 30.0052 56.1093 29.9308 55.438C30.4942 56.056 32.3118 58.0166 32.6838 58.0912C33.2153 58.1764 32.8645 57.4732 32.8645 57.4732C32.8645 57.4732 35.3412 60.1369 35.9683 60.1369C36.6805 60.0517 36.4147 59.2526 36.4147 59.2526C36.4147 59.2526 39.1571 63.3335 39.6035 63.2482C39.7842 63.163 39.6886 62.5343 39.6886 62.5343C39.6886 62.5343 40.6665 64.399 40.9322 64.2178C41.1979 64.0367 40.7515 61.6393 40.7515 61.6393L41.2723 61.9803Z" fill="white"/>
</svg>
