<svg width="75" height="67" viewBox="0 0 75 67" fill="none" xmlns="http://www.w3.org/2000/svg">
<path d="M64.6955 37.1355C64.3797 37.2412 63.1167 37.4525 61.9984 37.6242C62.0378 37.2676 61.8142 36.9902 61.2747 36.7657C60.9063 36.5808 60.1827 37.1355 59.6565 37.1355C59.4854 37.1355 60.0248 36.5808 59.8407 36.0393C59.5907 35.6695 58.8539 35.8016 58.2882 36.0393C58.3803 35.6959 58.3145 35.3129 57.854 35.3129C57.6698 35.3129 57.6698 35.3129 57.4856 35.4978C57.3014 35.128 57.1172 34.4016 56.5909 34.4016C56.0384 34.4016 56.2226 35.4978 56.0384 35.4978C55.67 35.128 55.3279 35.128 55.3279 35.8544C55.3279 35.9733 55.3674 36.1053 55.4332 36.2242C55.1306 36.6336 54.8806 37.1355 54.4201 37.4789C54.5122 37.7034 54.5911 37.9412 54.6832 38.2053C54.6569 38.2053 54.6306 38.2053 54.6043 38.2053C54.3806 38.2053 54.1438 38.2185 53.907 38.245C53.7754 38.1921 53.6438 38.1261 53.5123 38.0336C53.3807 38.0997 53.1834 38.2185 52.9992 38.3638H52.986C52.5255 37.545 51.4335 36.3695 51.1704 35.8544C51.0783 35.5903 50.723 34.8638 50.381 34.1374L51.1704 34.2431L51.894 33.8733L52.6176 33.3186H53.3412L53.8807 33.1469L53.7096 32.7771L53.3412 32.4072L54.0649 32.2355L54.4201 31.8657L54.7885 31.4959L54.4201 31.1261H53.5254L53.8938 30.9544L55.1569 30.5846L55.8805 30.3997L56.7751 30.228V30.0431L56.2357 29.8714L55.6831 30.0431H54.7885L54.9727 29.6865L54.4201 29.5016L54.9727 29.3299L55.5121 29.145C55.1437 28.9733 54.7885 28.7752 54.7885 28.7752L55.5121 28.4186L56.4067 28.0488L55.2753 27.7186C55.2884 27.7054 55.3147 27.6922 55.3279 27.679C55.6831 27.8507 56.2226 27.494 56.4067 27.3091C56.5909 27.1242 56.9462 26.7676 57.3014 26.5827C58.3934 26.2129 58.2092 26.5827 58.3934 27.3091C58.7618 27.8507 57.4988 29.845 57.1304 30.2016C56.5909 30.7431 58.025 31.6412 59.117 31.2978C60.0117 31.1129 61.2747 30.0167 61.2747 28.7488C61.2747 28.0356 60.9064 25.4997 60.3801 25.4997C61.4589 25.4997 60.5511 25.6714 61.2747 26.0412C61.8142 26.411 61.9984 26.7676 61.9984 27.4808C61.9984 27.111 62.5378 26.9393 62.5378 26.5827C62.5378 25.6846 62.9062 26.411 62.9062 27.1242C62.9062 27.8507 62.3667 29.6733 62.0115 29.845C61.4589 30.5714 60.9195 31.6544 61.2879 32.1959C61.8273 33.4638 64.8928 32.9091 65.2612 31.4695C65.2612 30.928 65.9717 30.0167 65.9717 29.3035V27.4808L66.1559 26.9393C66.3269 26.9393 66.1559 27.4808 66.1559 27.6657C66.3269 28.2073 66.8795 28.9337 66.5243 29.6601C66.1559 30.2016 66.1559 31.0997 66.1559 31.6412C66.1559 32.7374 67.9584 32.011 67.9584 32.011C68.5109 32.011 69.4056 31.2978 69.4056 30.928C69.4056 30.0167 70.1292 30.3733 70.1292 29.8318C70.6686 25.8431 67.2347 21.1412 63.2746 21.1412C62.5509 21.1412 61.2879 20.5997 60.9327 20.4148C60.5643 19.8733 59.1302 20.7846 59.1302 19.6884C59.1302 19.3318 56.9593 18.2488 56.6041 18.2488C56.3804 18.2488 56.1831 18.2224 56.0121 18.1828L56.6041 15.3563L56.2357 14.0884L56.0515 13.5469L55.5121 14.0884L55.1437 14.8148V13.9035L55.3279 12.0941C55.3279 12.0941 55.3279 11.196 55.3279 10.9979C55.1437 10.8262 54.9595 10.6413 54.9595 10.6413L54.5911 10.9979L54.2227 11.3677L54.0517 12.0941L53.6833 12.9922L53.4991 13.8903L53.1307 13.3488L53.4991 11.9092V10.6413L53.157 8.89788V8.52807H52.6176L52.0782 8.71297L51.7098 9.08278L51.1572 9.98089L50.9862 11.0639L50.6178 11.6186L50.2494 12.5167L49.71 12.8865V10.8922C49.71 10.8922 49.3416 9.62429 49.5389 9.45259C49.71 9.08278 49.5389 7.62996 49.5389 7.62996L49.1706 6.53373C49.1706 6.53373 49.3416 6.17713 48.9864 6.17713C48.6311 6.17713 48.0917 6.17713 48.0917 6.17713L47.5523 6.71864L46.9997 7.44505L46.6839 8.89788L46.4997 9.9941V10.8922L46.3287 9.45259L45.7761 8.35637L45.4077 7.08845L45.2367 6.53373H44.8683L44.3289 6.71864L43.6053 6.89034L43.0658 7.07524L42.5133 7.61675C42.5133 7.61675 42.3422 8.34316 42.3422 8.71297C42.3422 8.84505 42.3422 9.18844 42.3422 9.34693L41.8028 8.15826L41.0792 7.98656L40.5397 8.52807L40.6713 10.7337C39.6977 10.9186 38.9215 12.1998 39.0925 12.8865V13.0582C37.6584 13.2431 37.8295 14.1545 36.2112 14.1545C34.9481 14.1545 32.9615 14.8809 32.251 14.1545C31.6984 13.613 30.8038 13.0582 30.2643 12.5299C29.896 11.9884 28.4487 10.3639 28.0935 10.179C27.5541 9.6375 27.0146 8.91109 26.6594 8.36958C26.4752 7.82807 26.291 6.91675 26.12 6.54694C25.9358 6.00543 25.2122 5.10732 25.3964 4.92242C25.2122 4.73751 24.5017 3.46959 24.3043 3.46959C24.3043 3.09978 23.5807 2.57148 23.4097 2.57148C23.3702 2.53186 23.3044 2.47903 23.2387 2.43941C23.2387 2.4262 23.2387 2.39978 23.2387 2.38658C23.2387 2.02997 23.2387 2.02997 23.2387 1.67337L23.0676 1.47526V1.30356C22.8966 1.11866 22.344 0.748846 21.9756 0.577148H21.6204C21.4362 0.577148 21.0678 0.577148 20.8968 0.577148C20.8968 0.577148 20.3573 0.577148 20.1731 0.577148C19.9889 0.669601 19.8048 0.709224 19.6469 0.775261V0.748846H19.2785C18.1996 0.577148 17.4892 1.30356 17.4892 1.84507V2.09601C17.4234 2.12243 17.3576 2.16205 17.305 2.21488C17.1339 2.21488 16.7655 2.38658 16.5814 2.58469C16.4103 2.75639 16.0419 2.9545 16.0419 2.9545C15.8709 3.1262 15.6735 3.49601 15.6735 3.66771C15.5025 3.66771 15.5025 3.85261 15.5025 3.85261C15.6735 3.85261 16.0419 3.66771 16.3972 3.66771C16.5682 3.66771 17.2918 3.66771 17.2918 3.66771C17.476 3.85261 17.647 3.85261 17.8312 4.03752C17.8312 4.22242 17.8312 4.22242 17.8312 4.40733L17.6602 4.59223C17.5418 4.59223 16.9366 4.59223 16.9366 4.59223C16.7655 4.76393 16.5682 4.76393 16.5682 4.76393C16.3972 4.76393 16.1998 4.94883 16.0288 5.13374C15.8577 5.13374 15.6604 5.50355 15.6604 5.50355C15.8446 5.50355 16.0288 5.50355 16.384 5.50355H16.7524C16.9234 5.31864 16.9234 5.50355 16.9234 5.67525C16.9234 5.86015 16.7524 7.29977 16.555 7.29977C16.555 7.29977 16.555 7.66958 16.555 7.85448C16.555 7.85448 16.555 7.85449 16.555 8.02618C16.555 8.02618 16.7392 8.02618 16.7392 7.85448H16.9103V8.02618H17.0945V8.19788H17.6339V8.38278H17.8049C18.3575 8.38278 18.3575 8.7526 18.5285 8.7526C18.5285 8.92429 18.7127 8.92429 18.7127 9.12241C18.7127 9.12241 18.8838 9.83561 18.7127 9.83561C18.7127 9.83561 18.7127 9.83561 18.8838 9.83561V10.0205C18.3444 10.7469 18.8838 11.645 18.7127 12.5564C18.5285 13.6526 18.1602 14.3658 17.8049 15.8186C17.8049 16.1884 17.8049 17.0865 17.8049 17.628C17.8049 17.8129 17.6339 20.3488 17.8049 20.8903L18.3575 24.3242C18.5285 25.7771 19.9758 26.5035 20.5152 27.2167C21.7783 29.211 22.3177 31.2054 24.1202 32.8299C26.6462 34.8242 29.3434 37.3601 32.7773 38.0865C32.9746 38.1657 33.2114 38.1789 33.4614 38.1657L33.5009 38.2714L33.1325 39.5393L31.8695 40.8072H32.3826C31.8958 41.0185 31.5011 41.6657 31.5011 41.5336C31.1327 40.9921 30.6064 40.8072 30.238 41.5336C29.8696 41.9034 30.238 42.6298 30.0538 43.1581C30.0538 43.3298 29.6854 42.6166 29.3302 42.7883C28.7908 42.9732 28.975 44.4129 29.1592 44.9544C28.9881 45.1393 28.7908 44.7827 28.4356 44.9544C28.1856 45.0864 28.1987 45.5355 28.2251 45.8657C28.1198 45.9185 28.0014 45.9581 27.8961 46.011C27.4488 45.7468 26.9752 45.5223 26.6331 45.8657C26.4357 46.0506 26.5541 46.3412 26.6462 46.5525C26.5541 46.5921 26.4621 46.6317 26.3568 46.6846L25.5411 46.4072C25.1727 46.4072 24.6464 46.5789 24.6464 47.1336C24.6991 47.2525 24.7517 47.3185 24.8175 47.3846C23.3834 48.0449 22.1466 48.6525 21.2257 49.1279L18.1733 50.5411C18.4759 50.277 18.818 49.96 18.7127 49.4845C18.5285 49.3128 17.8049 49.6695 17.9891 49.3129L18.3575 48.7713C18.5285 48.4015 18.5285 47.86 17.9891 47.86C17.6207 47.86 17.6207 47.86 17.4497 48.0449C17.2655 47.6751 17.2655 46.9487 16.5419 46.9487C16.0025 47.1336 16.0025 48.0449 15.8314 48.0449C15.5814 47.9129 15.2394 47.8732 15.0552 48.111C14.6868 48.3091 14.5421 48.8902 14.3842 48.5864L14.2131 47.6883C14.0289 47.1468 13.4895 46.7902 12.9501 47.3185C12.7659 47.5034 12.9501 47.5034 12.7659 47.86C12.3975 47.6883 11.5029 47.1468 11.1476 47.6883C10.6082 48.2298 11.6871 48.9562 11.516 48.9562C10.9766 49.1412 10.6214 49.4978 11.345 50.0525C11.516 50.4223 12.2396 50.4223 12.7791 50.594C12.858 50.594 12.7527 50.6336 12.6212 50.6996C12.4107 50.6336 12.2133 50.594 12.0554 50.594C11.6607 50.594 11.3187 50.8185 11.2134 51.1091C11.0555 51.1751 10.9108 51.2411 10.7924 51.3204C10.6345 51.3996 10.5029 51.5053 10.3977 51.611C9.96352 51.5317 9.54251 51.5713 9.35831 52.0336C8.98992 52.5883 10.0819 52.9449 9.52935 52.9449L8.63469 53.1166C8.09527 53.1166 7.54268 53.6581 7.91107 54.2128C8.09527 54.5826 8.27946 54.3845 8.46365 54.5826C8.42418 54.6487 8.37156 54.7411 8.30577 54.8468C7.79266 54.4109 7.20061 53.9751 6.84538 53.8562C6.12176 53.4864 5.58233 53.8562 5.93756 54.5826C5.39814 54.2128 4.50348 53.3147 3.77986 53.6713C3.24044 53.8562 4.14825 54.7675 3.60882 54.5826L2.51682 54.2128C1.97739 54.0279 1.43796 54.0279 1.43796 54.7543C1.609 55.1242 1.7932 54.9392 1.97739 55.2958C1.609 55.4808 0.530151 55.6657 0.714345 56.3921C1.08273 57.1185 2.51682 56.9336 2.33262 57.1185C2.14843 57.66 2.50366 58.0166 3.22728 58.0166C3.7667 58.0166 4.12194 57.4751 4.66136 57.2902C4.84556 57.2902 4.49032 57.8449 4.84556 58.1883C4.9245 58.2411 5.00344 58.2675 5.09553 58.2675C5.17447 58.5845 5.46392 58.8487 5.92441 58.9015V58.9147C5.95072 58.9543 5.97703 58.994 6.00335 59.0336C5.52971 59.509 4.3456 59.8921 4.84556 60.8958C5.01659 61.2656 5.92441 60.8958 5.74021 61.2656L5.20079 62.1638C4.8324 62.7053 5.01659 63.4317 5.74021 63.4317C6.1086 63.6166 6.1086 63.4317 6.46383 63.26C6.46383 63.8015 6.83222 64.8845 7.54268 64.8845C8.4505 65.0562 8.4505 63.4317 8.63469 63.4317C9.35831 63.9732 9.89774 63.9732 9.89774 63.0619C9.89774 62.5204 9.35831 61.9788 9.17412 61.2524C9.17412 61.0675 9.89774 61.7939 10.2661 61.4241C10.4898 61.2656 10.4635 60.9222 10.3188 60.5524C10.5161 60.5656 10.7003 60.5392 10.8582 60.4468C10.7003 61.0279 10.5424 61.7279 11.1608 61.9788C11.5292 62.1505 11.8844 61.0675 12.0554 61.609V62.0713C11.6344 62.3222 11.2266 62.626 11.345 63.0487C11.345 63.6034 12.4238 63.2336 12.0554 63.4185L11.345 64.1449C10.9766 64.5147 10.9766 65.2279 11.516 65.2279C11.8844 65.4128 11.8844 65.2279 12.2396 65.2279C12.2396 65.5977 12.2396 66.509 12.9633 66.6807C13.6737 66.6807 14.0421 65.4128 14.0421 65.5845C14.5947 65.9543 15.1341 65.9543 15.3052 65.2147C15.4893 64.8581 15.1341 64.3166 15.1341 63.7751C15.1341 63.6034 15.5025 64.1449 16.0288 63.9468C16.0946 63.9071 16.1472 63.8411 16.1603 63.7355C16.1735 63.7487 16.1867 63.7619 16.1998 63.7751C16.5682 63.9468 16.7524 63.2336 16.9234 63.6034V64.3166C16.9234 64.5015 17.2918 64.8713 17.647 64.6864C17.8181 64.6864 17.8181 64.5147 18.0154 64.3166C18.1865 64.5015 18.7391 65.043 19.0943 64.8713C19.6469 64.5015 19.0943 63.7751 19.0943 63.6034C19.6337 63.6034 19.8179 63.4185 19.6469 62.9034C19.7784 62.7317 19.8048 62.4939 19.7784 62.2562C19.7916 62.2298 19.8048 62.1902 19.8179 62.1505C20.0021 62.5204 19.8179 63.4185 20.3705 63.6034C20.7257 63.7751 20.9099 63.0487 21.081 63.2336L21.2651 63.9468C21.4362 64.3166 21.8046 64.5015 22.1598 64.3166C22.3308 64.1449 22.1598 64.1449 22.3308 63.9468C22.515 63.9468 23.2387 64.3166 23.5939 63.9468C23.9623 63.5902 23.0545 63.0487 23.2387 63.0487C23.7781 62.877 23.9491 62.5072 23.4097 62.1505C23.2387 61.9789 22.6861 61.9788 22.3177 61.7807C22.1466 61.7807 22.6861 61.609 22.6861 61.4109C22.8703 61.0411 21.7914 60.8694 21.423 60.8694C21.252 60.6977 21.6072 60.4996 21.423 60.3279C21.423 59.9581 20.8836 59.9581 20.6994 59.9581C20.4626 59.9581 20.2652 59.9977 20.0942 60.0506C19.7916 59.826 19.3574 59.6279 19.0943 59.2449C19.239 59.2713 19.8442 59.2977 19.9889 58.8619C20.16 58.3204 18.7259 57.7789 18.1733 57.594C18.1733 57.4355 18.2654 57.3562 18.3838 57.277C18.7785 57.6864 19.3837 58.2675 19.9758 57.9638C20.6863 57.594 19.7916 56.3392 19.9758 56.3392C20.6863 56.3392 21.0546 56.1675 20.6862 55.243C20.5152 54.8864 19.7916 54.5298 19.4232 54.16C19.2522 53.9751 19.9758 54.16 20.1468 53.7902C20.331 53.2487 19.0548 52.3374 18.5285 52.1657C18.5285 51.7959 18.8969 51.9808 18.8969 51.6242C18.9496 51.4657 18.9101 51.3336 18.8312 51.2015C19.4627 50.8713 20.2258 50.5279 20.5152 50.5279C20.5547 50.5279 20.5942 50.5279 20.6468 50.5147C20.8573 50.8449 21.1599 51.0694 21.0546 51.0694C20.5152 51.2544 20.3442 51.6242 20.8836 52.1657C21.2257 52.3374 21.8835 52.3374 22.4098 52.4959C22.4098 52.5223 22.4098 52.5619 22.4229 52.6015C22.2519 52.6808 21.9625 52.8393 21.9625 53.0638C21.9625 53.4072 22.5545 53.526 23.0676 53.5789C23.015 53.6713 22.9624 53.7506 22.8966 53.843C22.7519 53.8694 22.594 53.8694 22.5019 53.9619C22.4887 53.9751 22.4887 54.0015 22.4756 54.0147C22.4229 54.0015 22.3703 53.9883 22.3045 53.9619C21.9361 54.1468 21.2257 54.6883 21.0415 55.0581C20.8704 55.4279 21.2257 55.7845 21.7651 55.7845C21.5941 56.1543 20.6731 56.4977 21.0415 57.0524C21.2257 57.4223 21.9361 56.8675 21.7651 57.2241L21.3967 57.7789C21.3967 58.1355 21.3967 58.677 21.9361 58.677C22.1203 58.677 22.1203 58.4921 22.3045 58.4921C22.4887 58.677 22.6729 59.3902 23.2123 59.3902C23.7518 59.3902 23.5676 58.3072 23.7518 58.4921C24.0807 58.6638 24.4228 58.5185 24.4622 58.0694C24.4622 58.0826 24.4754 58.0958 24.4754 58.1223V59.2185C24.4754 59.76 25.0148 60.4864 25.5542 60.3147C25.9226 60.1298 25.7384 59.9449 26.1068 59.76C26.2779 60.1298 27.0015 61.0279 27.7251 60.6713C28.4487 60.3015 27.7251 59.0468 27.7251 59.0468C28.6329 59.0468 29.0013 58.8619 28.6329 57.9506C28.2645 57.5807 27.5409 57.2241 27.1857 56.8543C27.0146 56.6826 27.9093 56.8543 28.0803 56.4845C28.2645 55.943 26.8173 55.0449 26.2779 55.0449C26.2779 54.5034 26.6462 54.6751 26.8173 54.3185C26.8173 54.1996 26.7778 54.094 26.7252 53.9883C26.7515 53.9751 26.791 53.9619 26.8173 53.9487C27.0015 53.2355 27.0015 52.1393 26.8173 51.7827C26.7252 51.4921 26.4621 51.2411 26.1858 51.2015C26.2647 50.8713 26.1858 50.5147 25.7516 50.5147C25.6069 50.5147 25.5806 50.6204 25.4095 50.66C25.3437 50.3695 25.2385 50.0921 25.0017 49.9204C24.8832 49.7355 24.7254 49.6034 24.5017 49.6034C24.1596 49.6827 23.9886 49.9336 23.8833 50.1581L23.5939 49.4053C23.5676 49.3525 23.5413 49.3129 23.5018 49.2732C23.7386 49.1544 24.0281 49.0223 24.3175 48.8902C24.528 49.5902 25.7516 49.2336 25.7516 49.4053C25.7516 50.1317 25.9226 50.5015 26.6462 50.3166C27.0146 50.3166 27.3699 49.7619 27.7251 49.4053C27.9093 49.4053 27.7251 49.96 28.0935 50.3166C28.4619 50.6732 29.1855 49.5902 29.3565 49.2204C29.7249 49.2204 29.7249 49.5902 30.0802 49.7619C30.1196 49.7751 30.1459 49.7883 30.1854 49.7883C30.4354 50.1978 30.8038 50.6072 31.1722 50.8449C31.7116 51.2147 32.2642 51.0166 32.0668 50.4751C32.6062 50.6468 32.9615 51.5713 33.6851 51.3732C34.2245 51.2015 33.6851 50.4751 34.0535 50.8317L34.9481 51.2015C35.3165 51.3732 35.8428 51.3732 35.8428 51.0166C36.027 50.6468 35.8428 50.6468 35.6718 50.4751C36.0401 50.4751 36.9348 50.3034 37.1058 49.7487C37.1058 49.2072 35.8428 49.2072 35.8428 49.0355C36.2112 48.6657 36.027 48.3091 35.3034 48.1242C34.935 48.1242 34.4087 48.3091 34.0403 48.494C33.8561 48.494 34.2114 48.1242 34.0403 47.7676C33.6719 47.411 32.5931 47.9525 32.422 48.1374C32.1326 48.1374 32.1984 47.8996 32.1326 47.7147C32.5931 47.3581 32.7247 46.7374 31.9747 46.5261C32.8562 46.2223 33.7377 45.8789 34.5798 45.6015C34.9087 45.4695 35.527 45.311 36.3296 45.1393C36.4743 45.311 36.6717 45.4298 36.5664 45.4298L35.6718 45.6015C35.3034 45.6015 34.9481 45.9713 35.3034 46.328C35.4744 46.6978 35.4744 46.4997 35.6718 46.6978C35.4876 47.0676 34.9481 47.5959 35.3034 47.9657C35.6718 48.5072 36.5664 47.7808 36.5664 47.9657C36.7375 48.5072 36.9348 48.8638 37.4611 48.5072C37.8295 48.3355 37.8295 47.7808 38.0137 47.4242C38.1847 47.2393 38.1847 47.7808 38.5531 47.9657C38.7767 47.9657 39.0004 47.6223 39.1451 47.2261C39.2899 47.7015 39.7372 47.8336 40.1845 47.2393C40.1845 47.7147 39.7503 48.7845 40.1714 49.26C40.145 49.3525 40.145 49.4581 40.1845 49.5902C40.1845 49.96 40.3555 49.96 40.5529 50.1317C40.1845 50.3166 39.4609 50.8581 39.6451 51.3996C39.7503 51.6242 39.9477 51.7562 40.1582 51.8355C39.9214 52.0468 39.8819 52.3506 40.1977 52.6676C39.6451 52.6676 38.5794 51.9411 37.8558 52.6676C37.4874 53.0374 38.5794 53.394 38.04 53.394H36.948C36.4085 53.394 35.6849 53.7638 36.0533 54.2921C36.2243 54.6619 36.4217 54.477 36.5927 54.6619C36.2243 55.0317 35.5007 55.56 35.6981 56.1147C36.2375 56.8279 37.5005 56.1147 37.5005 56.2864C37.5005 56.8279 37.8689 57.1845 38.7636 56.8279C39.132 56.6562 39.4872 56.1147 39.8556 55.7449C40.0266 55.7449 39.8556 56.2864 40.224 56.4581C40.7634 56.643 41.487 55.56 41.6581 55.0185C41.8686 55.0185 41.9607 55.1506 42.0659 55.243C41.7239 55.6921 41.4081 56.194 41.2897 56.643C41.1186 57.3694 41.6581 57.9109 42.5527 57.3694C42.3817 58.0826 41.2897 58.9939 42.0133 59.7204C42.5527 60.0902 43.2763 59.1789 43.1053 59.7204L42.9211 60.8166C42.9211 61.3581 43.2895 61.9128 44.0131 61.7147C44.3815 61.7147 44.1842 61.543 44.5525 61.3449C44.9209 61.7147 45.4472 62.6128 46.1708 62.243C46.9602 61.9392 46.6445 60.777 46.5524 60.6185C46.9734 60.6185 47.3155 60.5789 47.5128 60.4336C47.6444 60.526 47.8023 60.5921 47.9733 60.6185C48.3285 60.6185 48.1443 59.3373 48.5127 59.7072L49.2363 60.8034C49.6047 61.3449 50.131 61.5298 50.4994 60.9751C50.6704 60.6185 50.4994 60.4336 50.4994 60.077C50.8678 60.2619 51.9335 60.4468 52.1177 59.7072C52.486 58.994 51.0257 58.2675 51.0257 58.0826C51.5256 57.7524 51.723 57.0921 51.0125 56.7223C51.1441 56.4185 51.1441 55.9826 51.3809 56.1015L52.2755 56.8147C52.5387 56.9996 52.8544 57.0921 53.157 57.0392L52.815 57.726C52.6439 58.0826 52.6439 58.6241 53.1834 58.6241C53.5517 58.6241 53.3675 58.6241 53.7359 58.4392C53.7359 58.809 53.907 59.7072 54.6306 59.7072C55.17 59.7072 55.17 58.6241 55.3542 58.6241C55.7094 58.994 56.2489 58.7958 56.2489 58.2543C56.2489 57.8845 55.8805 57.3562 55.6963 56.9864C55.6963 56.8015 56.0647 57.3562 56.4199 56.9864C56.6436 56.8675 56.4462 56.3921 56.1699 56.0091C56.5515 56.4185 57.1962 57.1317 57.683 56.8015C58.0513 56.6298 57.5119 55.9034 57.8671 56.0883L58.7618 56.6298C59.1302 56.8015 59.6565 56.8015 59.6565 56.26C59.6565 55.8902 59.4854 55.8902 59.2881 55.7185C59.6565 55.5336 60.5511 55.5336 60.3801 54.9921C60.3801 54.2657 59.117 54.2657 59.117 54.2657C59.2881 53.7242 59.2881 53.3676 58.5776 53.1826C58.025 53.1826 57.6698 53.5392 57.3014 53.7242C57.1304 53.7242 57.4856 53.3543 57.1304 52.9977C57.0646 52.8789 56.9067 52.8789 56.7094 52.9449C56.512 52.76 56.341 52.6411 56.4067 52.6411C56.9462 52.4694 56.9462 52.0996 56.4067 51.5581C56.0384 51.3732 55.5121 51.3732 55.1437 51.1883C54.9727 51.1883 55.5121 51.0034 55.5121 50.6336C55.3411 50.277 54.078 50.0921 53.7096 50.277C53.5386 49.9468 53.8149 49.9204 53.7491 49.643C53.9596 49.7355 54.1833 49.7883 54.4201 49.7223C54.7885 49.5506 54.2491 48.8242 54.6043 49.0091L55.4989 49.3657C55.8673 49.5506 56.3936 49.5506 56.3936 49.0091C56.3936 48.8242 56.3936 48.8242 56.2226 48.6393C56.341 48.5864 56.4988 48.5204 56.6699 48.4544C56.7488 48.6921 56.8278 48.8902 56.933 48.9959C57.3014 49.7091 58.025 49.7091 58.2092 48.811C58.5776 49.3525 58.3803 50.8053 59.2881 50.8053C59.8407 50.8053 59.8407 49.7091 60.0117 50.0789L60.5511 50.8053C60.9195 51.3468 61.4458 51.5317 61.8142 50.977C61.9984 50.6072 61.8142 50.4355 61.8142 50.2638C62.3667 50.2638 63.2614 50.4355 63.6298 49.7091C63.9982 48.9959 62.7351 48.4412 62.7351 48.2695C63.2746 47.7147 63.4456 47.3713 62.7351 46.8166C62.3667 46.6449 61.6431 47.0015 61.1169 46.8166C60.9327 46.8166 61.6563 46.4468 61.4721 45.9185C61.4721 45.8921 61.4721 45.8657 61.4589 45.8525C62.1299 45.9053 62.893 45.8789 63.2746 45.7468C63.814 45.377 64.1692 44.6506 63.2746 44.294C63.814 44.1223 65.077 44.4789 65.2612 43.3959C65.3665 43.0921 65.0639 42.96 64.8402 42.8676L71.1949 43.3959C73.5368 43.5676 73.0105 43.0261 73.9052 41.7714C74.0762 41.5865 74.0762 40.5034 74.0762 40.3185C73.892 36.9374 66.6822 36.5808 64.6955 37.1355ZM52.4466 52.8657C52.3545 52.8657 52.4992 52.7204 52.6308 52.5223C52.6571 52.6015 52.6834 52.694 52.7097 52.7864C52.6308 52.8128 52.5387 52.8393 52.4466 52.8657ZM34.0666 42.7355C33.6982 42.3657 33.6982 42.5638 33.343 42.5638C33.343 42.4185 33.3693 42.1676 33.3693 41.8902C33.4088 41.9299 33.4614 41.9695 33.5272 42.0091C33.6982 42.194 34.2377 42.194 34.6061 42.3789C34.7903 42.3789 34.2771 42.5506 34.2508 42.894C34.1982 42.828 34.1324 42.7751 34.0666 42.7355ZM46.8944 44.1751C46.8813 44.1751 46.8681 44.1751 46.855 44.1751C46.7629 43.977 46.6445 43.8317 46.5261 43.7129C46.8418 43.7129 47.1313 43.6997 47.3286 43.6468C47.1313 43.8846 46.9865 44.1091 46.8944 44.1751ZM50.2757 46.8959C50.2757 46.8563 50.2889 46.843 50.3283 46.843C50.3283 46.8827 50.3152 46.9223 50.3152 46.9619C50.302 46.9355 50.2889 46.9091 50.2757 46.8959ZM48.4864 43.4091C48.4469 43.3695 48.4075 43.3431 48.3548 43.3034C48.5127 43.2902 48.6574 43.277 48.789 43.277C48.6838 43.3166 48.5785 43.3563 48.4864 43.4091ZM45.8156 43.6865C45.7366 43.7657 45.6709 43.8582 45.6051 43.9902C45.4209 44.5449 45.6051 45.2581 45.6051 45.8129C45.4209 45.9846 45.2367 45.2581 44.7104 45.2581C44.1973 45.4298 44.3289 46.6846 44.6315 47.3053C44.3552 47.1996 44.0131 47.1072 43.8158 46.8959C43.6316 46.8959 44.3552 46.8959 44.3552 46.3544C44.4473 46.0506 44.1052 45.8129 43.6974 45.6544C43.8026 45.6147 43.9079 45.5487 44 45.4563C44.421 44.8751 43.7237 44.2015 43.4079 43.9374C44.0657 43.8449 44.7236 43.7525 45.3288 43.6732C45.4735 43.6732 45.6446 43.6732 45.8156 43.6865ZM49.0127 49.2468C49.039 49.2204 49.0785 49.2072 49.1179 49.1808C49.1969 49.2204 49.2758 49.2468 49.3679 49.2468C49.3811 49.2468 49.3811 49.2468 49.3942 49.2468C49.4074 49.2732 49.4205 49.2864 49.4205 49.3129C49.3153 49.2732 49.1837 49.2468 49.0127 49.2468ZM51.2625 46.46C51.1967 46.3808 51.1046 46.2619 50.9862 46.2091C50.973 46.1695 50.9467 46.1298 50.9336 46.0902C51.3809 45.7336 51.4861 45.0997 50.8809 44.9148C50.8546 44.7298 50.6573 44.5053 50.6573 44.36C50.3152 44.0166 49.9731 43.8185 49.6837 43.6204C49.5784 43.4487 49.4337 43.3166 49.2232 43.2638C50.0652 43.2638 50.9072 43.2374 51.7493 43.1978C51.7493 43.2506 51.7624 43.2902 51.7756 43.3298L51.5519 43.4355C51.1835 43.4355 50.8415 43.977 51.1835 44.3336C51.3677 44.5185 51.5519 44.3336 51.7361 44.5185C51.5519 44.6902 51.1835 45.4166 51.5519 45.7864C51.5651 45.7997 51.5782 45.8129 51.6045 45.8261C51.5519 45.9846 51.5125 46.1431 51.4598 46.3015C51.3677 46.3676 51.3151 46.4204 51.2625 46.46ZM44.9604 40.5959C44.8157 40.5563 44.6973 40.4374 44.342 40.5563C44.1447 40.5563 44.0131 40.6619 43.9342 40.794C43.6579 40.8468 43.3948 40.8733 43.1316 40.9129C42.908 40.6091 42.6448 40.2921 42.5264 39.8299C42.0659 39.9487 41.3686 40.0676 40.7897 40.2393C40.816 39.8827 40.6055 39.6582 40.1845 39.6582C40.3556 39.2883 41.0792 38.9317 40.7239 38.3902V37.8751C40.8292 37.928 41.1844 38.0336 41.4476 38.0336L42.7106 38.5751L43.8026 38.7601C43.9736 38.7601 44.1578 37.6638 43.6184 37.1355C42.8948 36.4091 43.25 36.5808 43.4474 36.2242C43.9868 36.2242 43.9868 36.2242 44.342 36.0525C44.671 36.277 46.1708 37.1223 47.4339 37.8091C47.4207 37.8223 47.4076 37.8355 47.3944 37.8487C46.855 38.2185 47.026 38.7601 46.6839 39.3016C46.6839 39.4733 46.4997 38.7601 45.9603 38.7601C45.4209 38.7601 45.2499 40.1204 45.2367 40.5299C45.1446 40.5563 45.0525 40.5827 44.9604 40.5959ZM41.2634 49.0751V49.1147L41.1186 49.0883C41.2107 48.9827 41.2634 48.9298 41.2634 49.0751ZM49.3811 51.0562C49.2758 51.0562 49.4205 50.9242 49.4863 50.7393C49.5126 50.7261 49.5389 50.6996 49.5653 50.6864C49.7626 50.4883 49.881 50.2374 49.9073 50.0128C50.2889 50.0921 50.723 50.1185 51.1441 50.1053C51.1046 50.3034 51.0914 50.5544 51.1178 50.7921C51.0388 50.7525 50.9467 50.7128 50.8283 50.6864C50.2757 50.6864 49.9205 51.0562 49.3811 51.0562ZM51.2362 51.5317C51.2493 51.5845 51.2625 51.6374 51.2756 51.677C51.2098 51.6506 51.1704 51.6242 51.1704 51.5977C51.1967 51.5845 51.223 51.5581 51.2362 51.5317ZM35.856 38.7601L35.9612 37.8355C36.5138 38.0468 37.6716 38.311 37.6716 38.0336C37.6716 37.7431 37.6453 37.5318 37.619 37.3865C37.6453 37.3997 37.6584 37.4261 37.6847 37.4393C37.7505 37.7563 38.0531 38.0733 38.211 38.4034C38.211 38.4034 37.8426 38.2185 37.4874 38.4034C37.3295 38.5619 37.8689 39.2751 38.1189 39.5657L36.948 40.7412H37.7505C37.6847 40.7808 37.6321 40.8204 37.5663 40.86C37.3032 40.7412 37.0532 40.8468 36.948 41.2959C36.7638 40.9261 36.948 39.8431 36.2243 39.6714C35.856 39.6714 35.8559 40.5695 35.6849 40.2129L35.3165 39.4865C35.3034 39.4733 35.3034 39.46 35.2902 39.4468L35.856 38.7601ZM57.1304 43.6336C57.1698 43.594 57.2093 43.594 57.2356 43.6204C57.1698 43.7393 57.0777 43.8582 56.9856 43.9902C57.0383 43.8317 57.0909 43.7129 57.1304 43.6336ZM33.3562 40.7412C33.4877 40.8997 33.593 41.0317 33.5272 41.111C33.4483 41.1506 33.3693 41.2034 33.3035 41.2695C33.2509 41.0582 33.1457 40.86 32.9746 40.7544H33.3562V40.7412ZM15.9893 62.6128C15.9498 62.5336 15.9235 62.4543 15.884 62.3751C15.9367 62.3487 15.9893 62.309 16.0419 62.2562C16.0419 62.3619 16.0156 62.4807 15.9893 62.6128ZM8.56891 56.5902C8.64785 56.5902 8.72679 56.577 8.79257 56.5506C8.77942 56.6298 8.7531 56.7091 8.73995 56.7883C8.67416 56.7487 8.59522 56.7091 8.52944 56.6826C8.54259 56.6562 8.55575 56.6166 8.56891 56.5902ZM10.0425 57.1053C10.1214 57.1449 10.2135 57.1713 10.3056 57.1713C10.2003 57.409 10.1082 57.6732 10.0161 57.9374C9.91089 57.7789 9.80564 57.6336 9.73986 57.5675C9.83195 57.4751 9.91089 57.3562 9.91089 57.2241C9.95036 57.1845 9.98983 57.1449 10.0425 57.1053ZM14.9236 59.0468C15.0552 59.0204 15.1867 58.9675 15.3052 58.8355C15.3052 59.0468 15.1736 59.3373 15.0552 59.6543C14.8184 59.5487 14.5684 59.4694 14.4105 59.377C14.2789 59.2449 14.6605 59.2053 14.9236 59.0468ZM15.8709 55.7713C16.3577 55.9298 16.6866 55.7977 16.6077 55.3619C16.6998 55.2958 16.7524 55.2826 16.7524 55.4015V55.8638C16.4761 55.877 16.1867 55.9034 15.8709 55.9166C15.884 55.8506 15.884 55.7977 15.8709 55.7713ZM11.6213 56.643C11.6476 56.5902 11.6871 56.5374 11.7134 56.4845C11.7923 56.4053 11.8581 56.3128 11.8844 56.2072C11.937 56.2732 11.9897 56.3128 12.0686 56.3128C12.437 56.4317 12.8054 55.8242 13.0027 55.243C13.108 55.0845 13.1606 54.8468 13.1738 54.5959C13.2132 54.5826 13.2527 54.5562 13.3053 54.543C13.5158 54.6223 13.5685 54.8468 13.8184 54.8732L13.7 55.0581C13.529 55.4279 13.7 55.9562 14.0684 55.9562C14.4368 55.9562 14.4368 55.7845 14.621 55.7845C14.621 55.8902 14.7526 56.2204 14.9499 56.4449C14.5947 56.96 14.3052 57.6204 14.2658 58.043C13.9237 57.9374 13.5685 57.8845 13.3448 57.9638C13.3448 57.594 13.7132 57.4223 13.7132 57.0657C13.7132 56.7091 13.0027 56.5109 12.6343 56.5109C12.2791 56.4845 11.9502 56.5506 11.6213 56.643ZM34.3824 43.3563C34.3956 43.2638 34.3956 43.1846 34.3692 43.0921C34.4613 43.1449 34.6061 43.1846 34.7639 43.211C34.6324 43.2638 34.5008 43.3034 34.3824 43.3563ZM49.21 56.4053C49.2232 56.4317 49.2495 56.4713 49.2758 56.4977C49.2495 56.4977 49.2232 56.4845 49.21 56.4845C49.1574 56.4845 49.1706 56.4581 49.21 56.4053ZM52.6571 49.2468C52.6702 49.1808 52.6702 49.1015 52.6571 49.0091C52.6966 49.0091 52.7492 49.0091 52.8018 49.0091C52.9071 49.0883 53.0123 49.1808 53.1176 49.2732C52.9597 49.2468 52.7887 49.2468 52.6571 49.2468ZM56.2357 47.2525C56.4068 46.711 56.4067 46.3544 55.6831 46.3544C55.3147 46.3544 55.0253 46.5261 54.7095 46.6317C54.6174 46.5525 54.578 46.5261 54.4069 46.5261C54.4201 46.4468 54.4201 46.3544 54.3806 46.2751C54.4332 46.1695 54.4859 46.0506 54.5253 45.9449C54.6569 45.9581 54.8016 45.9185 54.9727 45.7997C55.1832 45.5883 55.3279 45.3242 55.4463 45.0732C55.5384 44.9808 55.6173 44.8619 55.6963 44.7166C55.7226 44.6638 55.7489 44.5846 55.7621 44.5185C55.841 44.5714 55.7621 45.0864 56.0647 45.0864C56.2357 45.1393 56.3936 45.0468 56.5252 44.8883C56.5252 45.0072 56.5383 45.1261 56.6041 45.2581C56.7751 45.628 57.4988 45.0864 57.3146 45.4431L57.1304 45.9185C56.9199 46.1166 56.6962 46.3147 56.4199 46.5261C56.4199 46.7242 56.4331 46.9883 56.4594 47.2657C56.2752 47.2525 56.1699 47.2525 56.2357 47.2525ZM59.9064 45.8921C59.8538 45.76 59.8012 45.628 59.7486 45.5091C59.8275 45.377 59.8407 45.2317 59.8407 45.0997C59.9196 45.1261 59.9985 45.1393 60.0775 45.1393C60.1959 45.1789 60.3406 45.2317 60.4722 45.2714C60.538 45.4166 60.6169 45.5751 60.6958 45.7204C60.4196 45.7468 60.1169 45.8261 59.9064 45.8921Z" fill="white"/>
</svg>
