<svg width="70" height="59" viewBox="0 0 70 59" fill="none" xmlns="http://www.w3.org/2000/svg">
<path d="M69.235 50.9291C69.235 50.9291 69.1559 50.9116 69.0152 50.8679V50.8505C69.0152 50.8592 69.0064 50.8592 69.0064 50.8679C68.4438 50.7195 66.8703 50.3265 64.6902 49.8113C64.488 48.9031 53.9129 38.0399 53.4822 36.7388C53.4734 36.7213 53.4646 36.6951 53.4558 36.6602C59.2137 38.9219 63.8375 40.2842 63.9606 40.1619C64.0485 40.0746 58.5368 33.6213 52.146 26.5917C52.1548 26.5742 52.1636 26.5655 52.1724 26.548L52.0933 26.5218C47.6716 21.6665 42.8367 16.558 39.1359 13.0825C38.9073 12.9079 38.5469 12.6546 38.0898 12.4101L38.1074 11.6329C38.1074 11.6329 38.6964 7.85176 37.8876 4.42863C37.0086 0.935637 34.7406 0.499014 34.0022 0.429154C33.3429 0.359294 31.5848 -0.155922 29.8266 2.0272C27.2598 2.53368 27.7784 4.93511 27.7784 4.93511C27.7784 4.93511 27.8136 4.84779 27.9103 4.72553C27.8927 4.79539 27.8663 4.85652 27.8487 4.93511L29.5277 4.28891C29.9233 4.3413 30.1958 4.49849 30.398 4.69934L30.4156 4.78666C30.4156 4.77793 30.4244 4.76046 30.4332 4.73427C30.8639 5.20582 30.8815 5.89569 30.9255 6.09653C31.0749 6.3847 31.1452 9.1529 30.7057 10.1746C28.2179 10.978 27.04 13.3794 26.8994 13.6676C23.4534 22.4001 32.7627 28.801 32.9825 29.0193C33.044 29.0804 33.422 29.3861 33.9143 29.7877C33.9582 30.3292 33.9758 30.9754 33.9319 31.7089C33.7824 34.1103 32.9825 37.5335 33.2726 38.2583C33.4132 38.5901 33.7912 38.9656 34.2659 39.3411L34.0813 39.9262C34.0813 39.9262 33.6418 43.0524 32.3232 43.8558C32.0858 44.013 31.8661 44.109 31.6551 44.1701C31.4617 44.109 31.2068 44.0741 30.8551 44.0741C30.6881 44.0741 30.5387 44.0915 30.4068 44.1265C30.064 44.0217 29.7563 43.9082 29.4662 43.9344C28.9915 43.9344 28.6311 44.24 28.4641 44.4059C28.1652 44.2662 27.7345 44.109 27.3389 44.1527C26.5038 44.2575 26.3719 45.0608 26.3719 45.5149C25.7214 45.5237 25.361 45.5411 25.361 45.5411L25.1588 45.742C25.2379 45.5935 25.3346 45.3927 25.2907 45.3927C24.3325 45.349 22.9172 45.0085 21.3876 44.5369C21.5019 44.2749 21.6601 43.8994 21.7041 43.716C21.7744 43.4977 21.8535 42.5546 21.0448 42.2577C20.2361 41.891 19.0669 41.9696 18.6274 41.6726C18.1879 41.4543 17.8186 41.0876 17.4582 40.9479C17.089 40.878 15.9902 41.236 15.6298 41.1662C15.1902 41.0963 14.6804 40.5811 14.1617 40.4414C13.5728 40.2929 12.8432 40.878 12.6937 41.0963C12.5443 41.3146 12.4739 42.118 12.8432 42.476C13.1332 42.7642 13.2124 42.3276 13.6519 42.7642C14.0211 43.131 13.6519 43.5676 14.1617 43.8558C14.4518 44.0042 14.821 43.7073 15.1902 43.9256C15.6298 44.2138 15.8495 45.0172 16.2891 45.3054C16.6583 45.5935 17.1681 45.2355 17.678 45.5237C18.267 45.742 18.1175 46.3969 18.9263 46.6851C19.6559 47.0519 20.3152 46.3183 20.5349 46.0302C20.6229 45.8468 20.8866 45.4101 21.0712 45.1045C22.2491 45.5586 23.3304 45.8992 24.1215 46.0302C24.2885 46.0913 24.4292 46.1087 24.561 46.1L18.0472 47.5583C18.0472 47.5583 17.9417 47.7679 17.7747 47.8814L17.9066 47.5583C17.9066 47.5583 16.1836 47.1741 13.9244 46.5279C14.0387 46.4231 14.1705 46.2485 14.2409 46.0302C14.3112 45.5935 14.531 44.7203 13.5816 44.2138C13.0717 43.847 12.0432 44.1439 11.3136 43.847C10.584 43.5589 10.7246 43.1921 10.0653 43.0436C9.40602 42.8952 9.03681 43.4104 8.37752 43.3318C7.78855 43.1834 7.34902 42.6769 7.05893 42.5284C6.76883 42.4586 5.52057 42.1617 5.23048 43.0349C4.94039 43.978 5.37992 44.4146 5.45024 44.4146C5.45024 44.4845 5.88977 44.5631 6.10954 44.7814C6.3293 44.9997 6.25898 45.5062 6.61939 45.8031C6.9886 46.0913 7.27869 45.6547 7.78855 46.0214C8.22808 46.3882 8.2984 47.1828 8.88737 47.4011C9.39723 47.6195 9.76644 47.3313 10.206 47.5496C10.6455 47.7679 10.3554 48.1347 11.4542 48.7896C12.3772 49.3398 13.3618 47.7155 13.6431 47.2003C14.9353 47.6719 16.0957 48.0299 16.8517 48.1259C14.3463 48.7722 12.1399 49.4882 10.2235 50.2217C9.92467 49.7589 9.38844 48.9468 9.17747 48.7983C8.9577 48.58 8.22808 47.995 7.48967 48.2919C6.83037 48.58 6.76004 49.3834 6.17107 49.82C5.51178 50.1868 4.9228 49.8899 4.41295 50.1868C3.82398 50.475 3.75365 51.5665 3.16468 51.8634C2.65483 52.2302 2.35594 51.8634 1.84609 52.1516C1.40656 52.5184 1.69665 53.0947 1.25712 53.5314C0.817585 53.8981 0.817585 53.6798 0.527495 53.8981C0.298939 54.0553 -0.210917 54.6404 0.228614 55.5835C0.59782 56.5266 1.98674 56.3083 2.27683 56.2384C2.56692 56.1686 3.37566 55.3652 3.96463 55.2167C4.5536 55.1469 5.06345 55.5835 5.94252 55.435C6.75125 55.2866 7.26111 54.4919 7.70064 54.3435C8.06985 54.195 9.01923 54.195 9.82797 53.9068C10.6367 53.6885 11.296 52.6668 11.0762 51.942C10.9883 51.4705 10.7246 51.1299 10.5224 50.9203C12.9223 50.1432 16.2188 49.1651 18.6889 48.6674C19.2515 48.5975 23.7611 47.5147 24.0864 47.4361C23.2249 47.9862 21.9151 48.8245 20.5086 49.7415C20.2888 49.5319 19.8756 49.2 19.4185 49.2524C18.8296 49.2524 18.9087 49.6891 18.2494 49.8375C17.6604 49.986 17.0011 49.6891 16.5616 49.986C16.1221 50.2043 16.3418 50.571 15.6825 50.9291C15.0232 51.2172 14.5837 50.9291 14.0738 51.2958C13.6343 51.6626 13.7837 52.2389 13.564 52.7542C13.3442 53.2606 12.1751 53.9156 12.2454 54.6491C12.2454 55.3739 13.0541 55.7407 13.2739 55.8105C13.4233 55.8804 14.0035 56.0987 14.5222 55.959C15.032 55.8891 15.1815 55.2342 15.9902 55.0159C16.7989 54.8674 16.7989 55.4525 17.8978 55.2342C18.9966 54.946 19.146 54.0728 19.5064 53.706C19.8756 53.2694 20.3152 53.5575 20.8954 52.7629C21.5547 51.7412 21.2646 50.5099 21.0448 50.2916C20.9921 50.213 20.9393 50.1519 20.8866 50.1082C25.5456 47.2789 27.0488 47.0169 27.0488 47.0169C27.0488 47.0169 28.3586 46.7113 31.954 46.7724C31.3826 47.209 30.4596 47.9513 29.4926 48.7983C29.0179 48.5451 28.2092 48.091 28.007 47.8902C27.7169 47.6719 27.1982 47.3837 26.4686 47.8902C25.739 48.3268 26.0994 49.2699 25.5896 49.855C25.0797 50.4401 24.4907 50.0034 24.0512 50.6584C23.6117 51.2434 23.9809 52.0381 23.6117 52.5533C23.2425 53.0598 22.5832 52.9201 22.4425 53.3567C22.2931 53.7235 22.6623 54.1601 22.3722 54.6666C22.1524 55.1032 21.7129 55.1731 21.6426 55.47C21.5722 55.7581 21.5722 56.2733 22.0118 56.7798C22.8908 57.5046 24.4292 56.71 24.7193 56.4131C25.0094 56.0463 25.3786 55.3914 25.5983 55.1032C25.8181 54.815 27.0664 54.7364 27.6466 54.3784C28.2355 54.0116 28.2355 53.4353 28.6751 52.9987C29.1849 52.4922 30.3629 52.4922 30.8727 51.322C31.3826 50.2305 30.3629 49.5755 30.3629 49.5755L29.9761 49.3398C31.7166 47.995 33.1055 47.0082 33.2198 46.9558C33.2638 46.9121 33.3077 46.8685 33.3429 46.8248C35.1274 46.8947 37.3602 47.0431 40.1117 47.3226C41.0698 47.4099 42.0192 47.5234 42.9686 47.6369C42.4412 48.0823 41.4302 48.9206 40.4193 49.7677C39.7073 49.1738 39.4875 48.9817 39.0832 48.8507C38.5733 48.6324 37.914 48.4141 37.3954 48.7809C36.8767 49.1477 37.0261 50.1606 36.5866 50.6758C36.1471 51.1823 35.4878 50.8941 35.0483 51.5491C34.6087 52.204 34.8988 53.0074 34.6087 53.3654C34.3186 53.8021 33.5802 53.8719 33.3605 54.1688C33.211 54.457 33.3605 55.3302 33.2901 55.6271C33.2198 55.8455 32.7803 55.8455 32.6308 56.2122C32.4111 56.5004 32.4111 57.1553 33 57.6705C34.0285 58.3255 34.7582 57.9587 35.5669 57.3824C36.446 56.7973 35.7867 56.579 36.5954 56.0725C37.325 55.4874 37.6942 55.8542 38.503 55.4176C39.3117 54.9809 39.0919 54.6142 39.6721 53.8894C40.2611 53.1646 41.4302 53.6711 41.7995 52.3612C42.1862 51.2172 41.7291 50.8505 40.9731 50.2479C42.2038 49.2874 43.1972 48.5626 43.4081 48.4316C43.7422 48.1696 44.0762 47.96 44.1905 47.8203C55.2579 49.2874 64.7166 52.3874 67.679 53.4178C67.6878 53.4528 67.6966 53.4702 67.6966 53.4702L67.7142 53.4266C68.3208 53.6361 68.646 53.7584 68.646 53.7584C68.646 53.7584 69.0152 52.955 68.9361 52.3001C68.9361 51.6539 69.235 50.9291 69.235 50.9291ZM24.8511 46.0389L24.8424 46.0476L24.8072 46.0564C24.8248 46.0564 24.8336 46.0476 24.8511 46.0389ZM32.0067 45.3927C32.0155 45.4014 32.0155 45.3927 32.0067 45.3927C32.1561 45.4014 32.4726 45.4538 32.8506 45.5237C32.4111 45.5149 31.9803 45.5062 31.5672 45.5062C31.7254 45.4189 31.8397 45.4014 31.9364 45.4014C31.9628 45.3927 31.9803 45.3927 32.0067 45.3927ZM35.6109 45.5673L36.4196 45.611L36.5427 45.349C36.569 45.4451 36.613 45.5411 36.7097 45.6285C36.3229 45.611 35.9361 45.6023 35.5669 45.5848C35.5757 45.5848 35.5933 45.5761 35.6109 45.5673ZM35.0219 42.1966L35.6636 40.3366C36.0856 40.6073 36.4811 40.8343 36.7624 40.9915C36.5515 41.6465 36.1471 42.7467 35.6109 43.4279C35.0483 44.1352 34.6966 44.3186 34.345 44.3623L34.0725 44.2313L35.0219 42.1966ZM27.8487 45.5062C28.13 45.384 28.4201 45.2966 28.4992 45.2617C28.6487 45.2617 30.4068 45.3316 30.4068 45.3316L30.8463 45.349C30.8288 45.3927 30.8024 45.4451 30.7936 45.5062C29.6684 45.4887 28.6751 45.4975 27.8487 45.5062ZM38.0722 45.6896C38.5821 45.6285 39.048 45.5411 39.048 45.5411L39.7073 45.6023V45.611L39.7161 45.6023L39.7864 45.611C39.7864 45.611 40.5951 45.2442 41.105 45.8293C40.9556 45.2442 40.6655 44.8862 40.2963 44.6679C39.4172 44.0828 37.9492 44.3797 37.6591 44.2313C37.3426 44.0392 37.3514 43.1572 38.3008 41.5591C39.8304 42.6507 41.6149 43.4803 41.9049 43.358C42.2741 43.1397 42.1247 41.9783 42.0544 41.5417C42.0544 41.4718 42.0544 41.3932 42.0544 41.3932C42.0544 41.3932 42.5642 41.9783 43.0038 41.6115C43.373 41.3233 42.9334 39.4983 42.9334 39.4983C42.9334 39.4983 43.3027 39.7166 43.8125 39.4983C44.4015 39.2101 43.8828 37.385 43.8828 37.385C43.8828 37.385 44.3927 37.6033 44.8322 37.1667C44.9289 37.0881 44.9992 36.9746 45.0432 36.8523L45.2014 37.0182C45.2014 37.0182 46.8892 38.5464 48.788 41.6028C49.3594 42.5022 51.3021 45.3839 52.5855 47.2789C50.6956 46.9471 48.788 46.6414 46.9508 46.4057C44.0235 46.0564 40.9468 45.8293 38.0722 45.6896Z" fill="white"/>
</svg>
