<svg width="62" height="66" viewBox="0 0 62 66" fill="none" xmlns="http://www.w3.org/2000/svg">
<path d="M36.2982 17.436C36.5901 16.9684 37.5681 16.477 38.8143 16.477H38.8222C39.1377 16.4612 39.8476 16.5246 40.7546 16.6117C43.5626 16.8733 48.2635 17.3171 50.7244 16.263C53.6585 15.1376 54.7075 13.497 55.725 11.904C56.3481 10.9291 56.987 9.9226 58.0755 9.02702L58.0834 9.01909C58.3831 8.73377 58.7538 8.4009 59.1482 8.04425C60.8834 6.48292 61.6958 5.6983 61.6958 5.30202V5.27032C61.68 5.15936 61.6169 5.00878 61.4119 4.89782C61.0096 4.6759 60.2209 4.73931 59.5031 5.0484C58.8011 5.34957 57.9966 6.05494 57.1447 6.79994C55.8118 7.965 54.3053 9.28063 53.4771 8.64659C52.8067 7.98877 53.9424 6.04702 54.6918 4.75516C55.023 4.19245 55.2833 3.74862 55.378 3.45537C55.6856 2.52016 55.654 2.07633 55.236 1.76723L55.2281 1.75931C55.0861 1.6642 54.8653 1.64043 54.6287 1.70383C54.4078 1.75931 53.9819 1.93367 53.6822 2.48846C53.4219 2.93229 53.201 3.50292 52.9644 4.11319C52.223 6.03117 51.45 8.01255 49.1942 7.41814C47.8297 6.9426 48.295 4.92159 48.6973 3.13835C48.9734 1.90989 49.1942 0.94298 48.8314 0.491224L48.7367 0.372342L48.6026 0.419895C47.6009 0.808246 47.246 1.86234 46.8674 2.97984C46.544 3.94675 46.2049 4.94537 45.4398 5.68245C43.6493 7.41021 42.7502 7.10904 42.1586 6.65728C41.9851 6.46707 42.1665 5.10388 42.2375 4.58872C42.2848 4.25585 42.3163 3.99431 42.3163 3.85957C42.3163 3.39197 42.0797 2.88473 41.5592 2.79755C41.4014 2.76585 41.1727 2.74207 40.9676 2.90058C40.7467 3.06702 40.6284 3.38404 40.589 3.90713C40.5574 4.09734 40.5417 4.27963 40.5259 4.46191C40.4707 5.11973 40.4076 5.7934 39.7608 6.99016C38.7354 8.39298 36.9765 9.15383 34.5472 9.27271C32.8908 9.1459 31.4474 8.96361 30.5167 8.0284C29.515 7.02186 29.1522 5.18314 29.3651 2.23484V2.21899C29.3651 1.44229 29.0181 0.879575 29.0023 0.855799L28.9077 0.697288L28.742 0.776543C28.7105 0.792395 27.9217 1.16489 27.7009 2.17936C27.6772 2.29824 27.6536 2.48053 27.6141 2.71037C27.3854 4.31925 26.8569 8.07595 24.1121 7.69553C22.0219 7.43399 22.4163 3.73277 22.5504 2.51223C22.5741 2.30617 22.5898 2.17144 22.5898 2.09218V2.0684C22.5188 1.49777 22.3138 1.20452 22.2901 1.17282L22.2191 1.07771L22.1008 1.09356C21.8484 1.12527 21.3988 1.2917 21.3278 1.72761C21.2332 2.29824 20.3261 7.27548 17.5497 6.96638C15.7593 6.76032 15.2624 4.46191 14.868 2.62319C14.6077 1.40266 14.3948 0.443671 13.8505 0.229682L13.7401 0.182129L13.6455 0.245533C13.0933 0.649735 13.0381 1.6325 12.975 2.77378C12.8962 4.27963 12.8015 5.99154 11.437 6.28479C10.2065 6.34819 9.48089 5.46053 8.56594 4.33511C7.9034 3.51878 7.1462 2.59149 6.05773 1.89404L6.04984 1.88612C5.16645 1.37096 4.86673 1.64835 4.78785 1.74346L4.77208 1.78309L4.76419 1.82271C4.7563 1.84649 4.61433 2.4409 5.04814 3.17005C5.21377 3.45537 5.5135 3.76447 5.83688 4.09734C6.29436 4.5808 6.82281 5.12766 7.00423 5.64282C7.06733 5.8251 7.15409 6.1025 7.24874 6.41952C7.651 7.72723 8.31354 9.91468 9.33102 11.3016C10.3327 12.7837 11.7998 13.7665 13.7086 14.2341C15.2308 14.6066 16.6033 14.5432 17.2579 14.5115C17.3683 14.5036 17.463 14.5036 17.5182 14.5036C17.7154 14.5194 18.2202 14.4956 18.9853 14.456C21.5881 14.3371 27.0147 14.0914 29.4913 14.9553C31.4948 15.6052 32.1179 16.6831 32.1731 17.222C32.2046 17.4756 32.2204 17.753 32.2283 17.9908C32.2362 18.07 32.2362 18.1493 32.2441 18.2286C32.1258 18.284 31.9759 18.3395 31.8024 18.3791C31.4317 18.4663 30.9821 18.4425 30.5009 18.4188C29.9409 18.395 29.3573 18.3633 28.8288 18.5139C28.2767 18.6724 27.9375 18.9022 27.622 19.1241C27.3854 19.2906 27.1567 19.4412 26.8412 19.5759C25.3031 20.1545 23.6231 20.1782 21.9983 20.202C20.9098 20.2179 19.8765 20.2337 18.9774 20.4239C16.8478 20.9549 13.1959 24.1014 13.0381 24.2361C12.9829 24.2837 12.9593 24.355 12.9671 24.4184L13.1486 25.9005C13.117 25.9242 13.0933 25.9559 13.0697 25.9797C11.6263 27.7154 12.9277 30.2595 12.9829 30.3705C13.0145 30.4259 13.0618 30.4656 13.1249 30.4814L13.7164 30.6162C13.7322 30.6162 13.748 30.6162 13.7638 30.6241C13.8032 30.8856 13.961 31.4404 14.5841 31.7891C15.1835 32.1141 15.3097 32.122 15.7277 32.019C15.8145 31.9952 15.9092 31.9714 16.0432 31.9476C16.0511 31.9476 16.059 31.9476 16.0669 31.9397C16.414 31.8208 16.7295 31.4483 17.0528 31.0441C17.3526 30.6716 17.6681 30.2912 17.9914 30.1485C17.9993 30.1485 17.9993 30.1406 18.0072 30.1406C18.654 29.7919 20.894 29.784 21.3357 29.998C22.1245 30.7826 22.3769 31.8208 22.6214 32.8195C22.9527 34.1747 23.2918 35.5775 25.0113 36.1006C26.0209 36.4176 26.9989 36.2274 28.0637 35.9183C27.48 41.5692 24.9245 44.2005 22.4557 46.7525C20.7521 48.512 19.1272 50.1843 18.3937 52.7205C13.4798 49.2729 10.1277 43.7171 9.71751 37.3291L9.63075 35.9817L0.907227 36.5444L1.00188 37.8918C1.49879 45.2863 4.74841 52.1577 10.1355 57.2459C15.5542 62.3579 22.6372 65.1715 30.075 65.1715C37.5129 65.1715 44.5958 62.342 50.0066 57.2063C55.3937 52.1023 58.6197 45.215 59.0851 37.8205L59.1718 36.481L50.4483 35.9104L50.3615 37.2577C50.1407 40.7608 49.0443 44.0103 47.2933 46.808C46.1496 44.9455 44.2251 40.4755 43.8228 31.1234C43.8228 31.1155 43.8228 31.1155 43.8228 31.1075C43.3417 27.2716 41.0938 23.6258 40.1946 22.4846C42.2454 21.9377 44.4302 20.9074 45.2663 18.0542L45.3136 17.8878L45.1558 17.8085C45.0927 17.7768 43.6178 17.0556 40.9518 17.5232C38.9011 17.8798 37.8047 18.8864 37.1185 19.5917C36.8977 19.4174 36.6847 19.2668 36.5033 19.14C36.2824 18.9894 36.0853 18.8467 35.8881 18.7041C35.8486 18.6724 35.8013 18.6407 35.7619 18.609C35.7776 18.5694 35.7934 18.5297 35.8171 18.4822C35.9591 18.1255 36.1168 17.7292 36.2982 17.436ZM14.8996 24.6403C14.9863 24.7909 15.0179 24.9177 14.9784 24.989C14.939 25.0683 14.8207 25.1079 14.7497 25.1079C14.726 25.1079 14.7024 25.1079 14.6866 25.1158C14.6708 25.1238 14.5762 25.1555 14.45 25.2109C14.6077 25.0366 14.7655 24.8464 14.8996 24.6403ZM16.4928 28.7457C16.5007 28.7457 16.5086 28.7378 16.5165 28.7299C16.6821 28.6189 16.9188 28.5317 17.1238 28.4683C16.9976 28.5951 16.7926 28.7457 16.4534 28.8884C16.2641 28.9597 16.0669 29.0548 15.8539 29.1579C16.1537 28.9518 16.3982 28.7933 16.4928 28.7457ZM52.9171 38.7715L56.2929 38.9934C54.7785 52.2608 43.5073 62.4768 30.075 62.4768C16.6664 62.4768 5.37152 52.2925 3.80192 39.0568L7.16986 38.8349C8.05326 46.0234 12.2336 52.1577 18.1098 55.7401C21.3436 57.7215 24.8693 58.5616 26.2023 58.7676C27.4643 58.9816 28.7578 59.0926 30.075 59.0926C35.9669 59.0926 41.567 56.8576 45.8499 52.8076C49.7858 49.0826 52.2624 44.1371 52.9171 38.7715Z" fill="white"/>
</svg>
