<svg width="73" height="64" viewBox="0 0 73 64" fill="none" xmlns="http://www.w3.org/2000/svg">
<path d="M26.49 43.4333C26.49 43.4333 26.9599 47.6324 22.1663 50.5873C22.1663 51.5204 18.1559 58.1456 18.1559 58.1456C18.1559 58.1456 18.8765 58.1456 19.4091 58.7055C19.9417 59.2654 21.1323 59.4209 21.1323 59.4209C21.1323 59.4209 22.4796 58.55 23.4195 60.2918C24.3594 62.0336 23.5135 63.0912 23.5135 63.0912C23.5135 63.0912 23.6702 60.043 21.7903 60.2918C21.6963 60.3851 22.3542 62.1581 20.3804 61.2249C18.4065 60.2918 17.2473 60.1363 17.2473 60.1363L16.37 60.043L15.0227 61.2249C15.0227 61.2249 13.9261 62.4069 15.0227 63.0912C14.6154 62.8424 13.8008 61.9092 14.5214 60.9139C14.7721 60.7584 15.9627 59.0476 15.9627 59.0476L14.6154 58.9543L11.4823 59.2031C11.4823 59.2031 10.1351 59.6697 11.4823 60.7584C11.3256 60.7584 9.35178 59.7319 10.887 58.3322C10.9183 58.1767 11.7956 57.5546 11.7956 57.5546C11.7956 57.5546 14.0828 58.5811 15.2421 57.7101C16.4013 56.8392 18.7825 54.4442 19.5658 49.9963C19.4091 49.9963 18.7198 42.6868 18.4065 40.5095C18.4065 40.6028 9.63376 37.399 8.22385 30.245C8.4745 30.245 2.3649 25.9838 3.4615 18.0522C3.52416 17.9588 2.14558 16.3414 2.14558 16.3414C2.14558 16.3414 1.58162 15.8127 0.986328 16.3414C1.20565 16.1859 1.92627 12.049 6.21865 14.6307C6.28131 14.5374 7.31524 13.1688 9.41444 14.413C11.5136 15.6571 12.8609 16.3725 12.8609 16.3725C12.8609 16.3725 10.511 10.836 6.75128 8.65866C2.99153 6.48136 5.74868 3.8375 5.74868 3.8375C5.74868 3.8375 6.06199 4.67731 6.75128 4.30406C7.44057 3.93081 9.94707 -0.454897 12.4536 0.198293C12.9549 0.571545 10.1037 3.68197 10.1037 3.68197C10.1037 3.68197 13.5502 0.882588 15.6807 1.03811C15.6807 1.10032 15.2734 2.59332 12.4536 4.36627C12.2343 4.27296 16.37 2.34449 17.8739 3.37093C17.7799 3.21541 18.1245 4.21075 14.3334 5.79707C14.3961 5.54823 18.4065 4.70842 19.5031 6.0148C19.5658 6.0148 19.4404 7.10345 16.9966 7.32118C17.1533 7.22787 21.3203 7.53891 21.383 9.80952C21.4456 9.80952 22.2603 11.6136 22.2603 11.6136L23.1062 6.7302C23.1062 6.7302 23.3255 6.20142 25.926 6.10811C28.5265 6.0148 40.1817 5.01946 44.8188 8.03658C44.4115 8.12989 40.9963 9.34296 40.9963 9.34296C40.9963 9.34296 51.085 14.0086 54.3121 18.612C57.132 20.105 72.2649 29.9029 72.2649 29.9029C72.2649 29.9029 71.8576 31.9247 64.1188 28.0989C64.3381 28.0055 68.7559 32.2357 68.7559 32.2357C68.7559 32.2357 67.1266 33.2 64.3695 31.5825C64.6201 31.8314 64.8394 32.2979 65.0588 33.4177C65.1214 33.511 59.9831 32.6712 58.2599 31.5825C58.3539 31.6758 60.2964 33.7909 60.2964 33.7909C60.2964 33.7909 54.8134 34.2575 52.7769 32.8578C50.7404 31.4581 46.0407 29.1875 46.0407 29.1875L47.0433 31.5825L43.5968 30.3073V32.0802L40.7144 30.3073C40.7144 30.3073 41.8736 32.5468 41.435 32.5779C40.965 32.6712 39.0225 31.3337 39.0225 31.3337C39.0225 31.3337 39.3985 32.8267 38.8658 33.1377C38.3332 33.4488 36.8293 31.8314 36.8293 31.8314C36.8293 31.8314 37.4559 33.8531 36.5786 33.8531C36.1713 33.6043 34.1035 31.5514 34.1035 31.5514L34.2601 34.2886L32.3803 32.6712L34.5734 36.497L41.3097 43.0289L63.1476 54.2887L60.2337 55.4706L52.5576 51.3338L58.4479 55.4395L54.4688 55.5017C54.4688 55.5017 47.4193 50.5873 47.6386 50.6184C47.8579 50.6806 53.1842 55.3773 53.1842 55.3773C53.1842 55.3773 41.9676 54.693 40.0877 52.7957C39.5238 52.3291 35.482 46.8858 35.482 46.8858C35.482 46.8858 34.3855 49.7785 33.0695 50.7117C32.8502 50.4628 30.6257 57.3058 30.6257 57.3058C30.6257 57.3058 31.4716 57.5546 31.879 58.0834C32.2549 58.0834 33.1949 57.679 33.6648 58.1456C33.4455 57.9901 35.1687 57.5235 36.61 58.8299C36.9546 59.3587 36.61 59.9808 36.61 59.9808L34.0095 58.7366C34.0095 58.7366 34.3855 59.8252 33.4455 59.763C32.5056 59.7008 29.7484 59.2343 29.3411 59.7008C28.9025 60.1674 28.1819 61.0072 28.1819 61.0072C28.1819 61.0072 27.6179 61.7226 28.4952 62.0958C28.7145 62.0958 28.8085 62.7179 28.8085 62.7179C28.8085 62.7179 27.2419 63.2467 27.1793 62.1581C27.1166 61.0694 28.1819 58.8921 28.1819 58.8921L26.5526 59.6075L25.6754 59.5453L24.7981 59.8563C24.7981 59.8563 24.1088 60.1052 24.5474 60.7273C24.9547 61.3493 23.6075 60.6651 23.9835 59.3276C24.3908 58.4878 24.2968 58.4566 24.9861 58.3944C25.6754 58.3322 27.0853 58.1767 27.8685 57.3991C28.6518 56.6215 29.8424 53.2933 29.8424 53.2933L30.7197 51.0227C30.7197 51.0227 29.3725 50.2451 29.6858 47.9745C29.9991 45.7039 27.1166 43.4022 27.1166 43.4022H26.49V43.4333Z" fill="white"/>
</svg>
