<svg width="46" height="64" viewBox="0 0 46 64" fill="none" xmlns="http://www.w3.org/2000/svg">
<path d="M17.8817 3.80071C17.8973 3.83222 17.9051 3.86373 17.9051 3.89525C17.9051 4.02918 17.7723 4.15523 17.6472 4.15523C17.4518 4.15523 17.319 4.0213 17.319 3.89525C17.319 3.8401 17.3424 3.78495 17.3893 3.73768C17.2955 3.7298 17.2017 3.72192 17.1001 3.72192C17.0767 3.77707 17.061 3.83222 17.061 3.89525C17.061 4.15523 17.319 4.35219 17.6472 4.35219C17.9755 4.35219 18.1709 4.15523 18.1709 3.89525C18.1709 3.87161 18.1709 3.85586 18.1631 3.83222C18.0614 3.82434 17.9755 3.80859 17.8817 3.80071Z" fill="white"/>
<path d="M45.0652 40.1352C44.3461 39.0165 42.9784 37.7717 41.7435 36.7869C40.4383 35.936 38.5547 34.4864 36.9915 34.0295C34.256 31.1381 34.256 31.406 29.8245 29.4994C28.066 29.2394 24.8772 27.5928 23.5094 25.9542C23.3609 25.7493 23.2359 25.5524 23.1108 25.3554C23.2671 25.5839 23.4391 25.8045 23.6345 26.0251C24.0252 25.0403 26.2371 26.7499 27.9956 26.0251C27.8237 25.8123 27.6752 25.5917 27.5345 25.3712C26.3074 23.3779 26.2684 20.9829 26.4872 18.4776C26.4872 18.4776 26.4872 18.4776 26.495 18.4776H26.4872C26.5575 17.6976 26.6513 16.9098 26.7451 16.1141C26.7451 16.1141 26.7451 16.1141 26.7529 16.1141H26.7451C26.7998 15.6729 26.8467 15.2396 26.8936 14.7984C26.9092 14.7984 26.9249 14.7984 26.9405 14.7984L26.8936 14.7669C26.9327 14.3809 26.9718 13.9948 27.003 13.6167C27.0656 12.7737 27.0968 11.9386 27.0656 11.1271H27.0734L27.0656 11.1192C27.0421 10.6544 27.003 10.1974 26.9249 9.74838C26.9327 9.74838 26.9327 9.74838 26.9405 9.74838L26.9249 9.7405C26.8624 9.3387 26.7764 8.95266 26.6591 8.56663C26.667 8.56663 26.6748 8.56663 26.6748 8.56663L26.6513 8.55875C26.3153 7.40063 25.7291 6.32129 24.7912 5.34438L24.8459 5.35226C24.8303 5.35226 24.8068 5.34438 24.7912 5.34438C24.3066 4.83228 23.7204 4.35958 23.0248 3.91052L22.4934 3.61114L22.8294 1.08219C22.4387 1.21612 22.0479 1.73609 21.8525 1.93305L22.2902 3.49296L21.8525 3.24874L21.7821 3.26449C21.618 2.5712 21.4461 1.85427 21.0709 0.625244C20.7583 1.03492 20.4691 1.38157 20.3284 1.85427C19.6797 1.46823 18.906 1.14522 17.8196 0.822203C17.757 1.27915 17.6867 1.74397 17.6867 2.13789C18.6011 2.20091 19.4452 2.39787 20.2268 2.59483C17.4913 1.94093 16.8426 2.20091 15.5374 2.53181C14.8183 2.53181 9.2848 3.25661 8.37036 3.45357C8.2375 3.5166 8.11245 3.65053 7.97958 3.71356C7.33087 3.91052 7.52627 4.36746 7.45592 4.76138C7.19801 5.1553 7.26053 5.54922 7.32306 5.74617C7.51845 5.74617 8.0421 5.8092 8.10463 5.8092C8.8862 5.74617 8.94873 5.67527 9.7303 5.61224C10.3165 5.61224 10.379 6.00616 9.98822 6.14009C9.01125 6.27402 8.55794 6.14009 8.03429 6.27402C7.97176 6.33705 8.03429 6.73097 8.29221 6.80187C8.87839 6.8649 9.01125 7.58971 10.0507 7.39275C11.0277 7.32972 11.4185 7.06186 11.8718 7.06186C13.6929 7.32185 14.8027 9.5593 16.6238 9.29143C17.1709 9.21265 17.5538 9.0866 17.8508 8.92903C17.6711 9.05508 17.4835 9.1575 17.2725 9.22841C17.3506 9.48051 17.4053 9.72474 17.4366 9.96897L15.6702 13.9554C13.857 16.0353 10.5275 19.0842 10.3712 21.4399C10.2618 21.5659 10.0429 21.8101 9.77719 22.1332L9.52709 22.0307C8.02647 21.5029 6.01002 19.6672 4.44687 18.6194C3.0166 17.5007 1.96929 17.7685 1.25806 19.3442C1.25806 19.3442 1.71137 23.4803 1.00014 27.8765C0.937616 28.4673 0.671882 29.6491 0.742223 30.106C0.804749 30.563 1.3284 31.2878 1.3284 31.2878L1.65666 30.8309C1.71919 30.9648 1.78953 31.1617 1.85205 31.2878C2.30537 32.0756 2.82902 32.8004 3.67312 33.3913L4.32182 30.106C3.73564 30.106 3.60278 29.5152 2.95407 29.3812C2.89155 29.3812 2.8212 29.3812 2.75868 29.3812C1.84424 29.3182 2.36789 27.4116 2.43042 26.5608L2.62581 24.1343C2.62581 23.1495 2.62581 21.9047 2.95407 21.1168C3.08694 20.7229 3.21199 20.392 3.67312 20.6599C4.82203 21.5423 6.42425 24.1815 7.83889 26.0093C7.83889 26.0644 7.83889 26.1196 7.84671 26.1747C7.90924 27.8843 8.56576 28.3413 9.27699 29.783C6.9948 32.0835 5.04087 33.5883 2.63363 34.8409C2.18032 35.2979 1.98492 36.0227 1.91458 36.5505C2.04745 39.5049 2.82902 38.4571 3.21981 44.8228C3.4152 45.4137 3.47772 46.7294 4.0639 47.5172L4.32182 46.8633L4.84548 47.5881L5.26752 45.8549L4.91582 47.4621C5.3066 48.116 5.75991 48.7068 6.54149 49.1717L7.12766 45.8864C6.54149 45.8234 6.40862 45.2955 5.82244 45.1616C5.62705 45.1616 5.49418 45.1616 5.43165 45.0986L5.42384 45.1458C5.36131 45.0119 5.29879 44.8228 5.23626 44.5786C4.12643 45.4294 4.2593 42.609 3.80598 39.9855V36.8499C3.86851 36.1251 4.84547 35.4712 5.69739 34.8803C8.17497 34.1555 10.7776 34.0925 12.7941 32.9107L14.4197 34.1555C16.4362 35.9281 18.7184 36.976 21.5164 37.8977C21.915 38.0474 22.3292 38.1814 22.7435 38.3232L22.6262 38.6225C21.5164 40.7261 21.5867 46.107 23.8611 49.5183C24.119 50.5661 24.9006 51.6218 24.7052 52.7327C24.6427 53.5205 23.4703 54.8992 22.2276 56.341L20.602 58.3106L18.648 59.3584C17.8665 59.7523 17.2803 60.3432 16.827 60.934C16.3033 61.6589 15.85 62.5097 15.3264 63.3606H19.8204C19.4921 62.5727 19.4296 61.9188 19.5625 61.2571C19.5625 61.194 19.625 61.194 19.625 61.1231C19.8829 60.3983 20.4066 60.2014 20.7348 60.3353C21.1256 60.4692 21.1256 60.4692 21.2585 60.4692L21.5867 60.6662L21.4539 60.2092V60.1462L21.7821 60.6032V60.5401L21.5867 60.0123C21.7196 59.5553 21.9775 59.2875 22.9545 57.9797C24.1269 56.404 26.5341 54.1035 28.363 52.9927C28.9491 52.4648 28.9491 51.677 27.7143 51.0861C27.5814 51.0231 27.5189 50.8891 27.4563 50.8261C26.8076 49.4474 27.1984 48.0687 28.1754 46.69L28.4177 46.5088C29.465 48.2105 30.7937 49.4632 32.5366 50.637C29.8011 52.7406 25.9557 56.0889 22.8998 61.7928H29.5431C32.2161 57.2627 33.8418 55.624 35.8582 53.4575C35.827 53.2763 35.7645 53.103 35.6628 52.9375C36.0458 53.5678 35.9598 54.1271 35.9208 54.5683C35.7254 55.884 35.3971 57.1918 34.7484 58.9014C33.5761 59.6262 32.0129 61.005 31.6847 61.4619C31.6847 61.5249 31.6221 61.5249 31.6221 61.5958C31.2313 62.1237 30.5123 63.5024 30.5123 63.5024H34.8109C35.0063 62.7776 34.8735 62.1867 34.8109 61.6667L34.7484 61.4698C34.6859 60.8789 34.9438 60.422 36.5069 60.225C36.6398 60.225 36.7023 60.225 37.0931 60.3589V60.2959C36.9603 60.162 36.7649 59.965 36.7649 59.839C36.7649 59.7759 37.0931 59.839 37.0228 59.7759C36.5695 59.382 36.6945 59.1851 36.6945 59.1851C36.757 58.5942 36.757 58.1372 37.1478 57.2785L38.3827 53.0793C38.5547 52.4018 38.5234 51.8976 38.3593 51.4879L38.711 51.3067C44.6118 48.9983 47.277 43.8065 45.0652 40.1352ZM18.945 3.82386L18.8981 3.85537C18.4057 4.20202 17.9212 4.37534 17.4522 4.37534C17.0458 4.37534 16.6472 4.24929 16.2486 3.9893L16.2095 3.96567L16.233 3.94991C16.2252 3.95779 16.2173 3.95779 16.2095 3.96567C17.1162 3.20934 17.718 3.25661 18.4448 3.57963C18.5933 3.64265 18.7418 3.71356 18.8981 3.80022L18.945 3.82386ZM36.7336 50.1565C35.2486 49.4159 34.2873 48.1317 34.4514 45.91C35.233 42.8926 37.4448 38.8195 37.1869 36.5899C37.3589 36.716 37.5308 36.8342 37.6949 36.9602L37.734 37.6929L37.6011 40.3637L36.2256 48.3129C36.0146 48.4311 35.7957 48.5493 35.5612 48.6674L35.1705 48.8644C35.5222 49.4001 36.1162 49.8492 36.7336 50.1565ZM37.5777 50.5031C37.8903 50.7001 38.1326 50.9916 38.2577 51.2043C38.0935 50.9443 37.8591 50.7237 37.5777 50.5031Z" fill="white"/>
</svg>
