<svg width="133" height="39" viewBox="0 0 133 39" fill="none" xmlns="http://www.w3.org/2000/svg">
<path d="M131.799 12.3859C131.185 11.4002 127.297 8.34014 126.434 7.72225C125.455 7.10435 118.147 2.82322 109.742 3.42641C101.221 4.0443 88.7969 16.0491 78.1999 15.8137C74.2973 15.5636 66.0243 9.92901 56.2751 9.92901C48.7183 9.92901 35.4465 15.8137 31.9093 15.4459C23.7532 14.5926 25.4488 7.97235 21.0638 4.0443C20.9322 3.95603 20.8153 3.72064 20.4937 3.47054L20.8153 3.5441C20.4499 2.69082 20.8153 1.58743 19.3537 0.969538C18.6228 0.719437 18.0089 0.969538 17.6435 1.08723C17.5266 1.33733 17.1612 2.30831 16.6642 2.55841H16.6934C16.5327 2.55841 16.3573 2.55841 16.1819 2.55841C15.3487 2.20533 15.1002 0.616455 13.7701 1.23435C12.3085 1.96994 12.9224 3.44112 12.9224 3.44112L13.0832 3.39698C12.9078 3.49996 12.8054 3.55881 12.8054 3.55881C12.557 3.67651 12.1916 3.80891 12.0746 4.0443C11.4607 4.52979 10.496 6.50117 9.99907 7.10435C9.38518 7.72225 8.53742 8.09004 8.42048 8.69322C8.172 9.17871 9.03438 10.2821 9.15131 10.4145C9.26824 10.4145 9.39979 10.5322 9.39979 10.6646C9.28286 10.7823 9.88214 11.1501 10.1306 11.2825C10.3791 11.4002 11.3438 11.2825 11.9577 11.4002C12.6885 11.5179 14.0332 11.6503 15.1295 12.5036C15.7434 12.9891 16.4742 13.2392 17.322 14.7103C18.1697 16.1815 18.3013 17.0348 18.3013 17.2849C18.1843 21.9485 15.6264 23.6551 14.8956 24.273C14.1648 24.8909 10.993 27.5832 4.29862 26.8476C3.45086 26.4798 2.9539 26.112 2.58848 25.9943C2.34 25.9943 1.24376 25.9943 1.12683 27.0977C1.00989 28.201 2.70541 28.6865 3.43624 28.9366C4.284 29.0543 7.20731 30.2901 11.5923 29.3044C13.9017 28.6865 15.2464 27.7156 15.9772 26.98C14.2671 29.069 10.1306 32.9824 3.07083 32.1291C2.34 31.7613 0.878346 31.1434 0.761413 32.2468C0.644481 33.3502 1.37531 34.0858 2.10614 34.4536C2.9539 34.7037 6.97344 36.1748 17.702 33.1001C28.5475 30.04 43.164 22.1839 55.8219 23.5374C68.3629 24.8909 72.7479 29.7899 78.1122 30.1577C78.9892 30.2019 79.7931 30.2166 80.5093 30.2166C81.2109 30.805 81.9709 31.4524 82.2633 31.7466C82.8772 32.3645 87.3791 36.5279 88.8407 37.3812C90.3024 38.2345 92.4949 38.6023 93.3426 38.6023C94.0734 38.4846 94.8043 37.6166 94.6873 37.3812C94.6873 37.0134 94.6873 36.6456 93.9565 36.3955C93.2257 36.1454 93.708 36.3955 92.8603 36.1454C92.0125 36.0277 91.5156 35.5275 89.2061 34.0563C87.7883 33.1001 86.2682 31.1875 85.3766 29.937C85.5812 29.9076 85.6689 29.8782 85.6689 29.8782C85.6689 29.8782 89.6885 30.4961 91.2671 31.2317C92.8457 31.9673 92.6118 32.5852 94.1904 33.3208C95.9005 34.174 97.8445 34.9096 99.3062 34.6742C100.885 34.5565 101.016 34.3064 101.25 32.953C101.499 31.7319 100.636 31.2317 99.9054 31.4818C99.1746 31.8496 96.0028 31.2317 94.5412 29.8929C93.1965 28.4217 91.2525 25.4794 89.5423 25.4794C87.7152 25.4794 85.7712 25.9649 83.3303 24.6261C80.8893 23.1549 77.2352 17.2702 77.2352 17.2702C77.2352 17.2702 80.407 21.0658 91.3694 21.1982C102.215 21.3159 108.792 13.1068 119.872 13.4746C122.43 13.2245 127.18 13.5922 129.255 14.3278C131.199 14.9457 131.813 15.6813 132.544 14.8133C133.26 13.8571 132.281 13.3716 131.799 12.3859Z" fill="white"/>
</svg>
