<svg width="113" height="59" viewBox="0 0 113 59" fill="none" xmlns="http://www.w3.org/2000/svg">
<path d="M110.11 16.6971C110.249 16.6426 110.415 16.5473 110.526 16.384C110.596 16.2751 110.637 16.1525 110.637 16.0164C110.637 15.9211 110.623 15.8258 110.596 15.7169C110.332 14.8865 108.488 13.743 106.74 12.7492L106.297 12.4906L105.617 12.2591C105.118 12.0958 104.133 11.7827 103.62 11.5649C104.022 11.6329 104.646 11.7827 105.048 11.878C106.047 12.123 106.102 12.123 106.172 12.0005C106.38 11.6193 106.019 11.2518 105.908 11.1292C105.326 10.5166 89.752 4.1184 82.3187 4.3226C80.2385 4.2273 77.7284 5.23469 74.8438 6.3782C71.1272 7.86205 66.9113 9.55009 62.4181 9.35951C62.2516 9.34589 62.0991 9.31867 61.9466 9.29144L61.794 9.11447C60.0882 8.25683 59.7138 6.11955 59.4503 4.71738C59.4503 4.71738 59.3255 4.06394 59.3116 4.03672C59.0065 2.94765 58.2299 1.51826 56.33 0.905664C56.33 0.905664 56.3023 0.89205 56.2745 0.878437C56.2468 0.837597 56.219 0.810371 56.219 0.810371C56.2468 0.837597 56.2468 0.851211 56.2607 0.864824C55.8169 0.565332 55.0125 0.279453 54.3469 0.211387C53.6812 0.14332 53.279 0.197773 52.8214 0.456426C52.7382 0.497265 52.5718 0.565332 52.5718 0.647011C52.5718 0.660625 52.5718 0.674238 52.5856 0.687851C52.5995 0.783144 52.7382 0.810371 52.8352 0.851211C52.9878 0.89205 53.1265 0.946504 53.2513 1.01457L53.9031 1.61355C54.0556 1.9675 54.1111 2.32144 54.0972 2.55287C54.0834 2.83875 54.0418 3.42412 54.0418 3.42412C54.0418 5.27553 53.5841 8.50187 51.0879 9.2506L50.7134 9.3459C50.6025 9.37312 50.4777 9.38673 50.3667 9.38673C45.8735 9.56371 41.6576 7.88927 37.941 6.40543C35.0564 5.26191 32.5463 4.25453 30.4661 4.34982C23.0189 4.13201 7.44513 10.5302 6.86267 11.1428C6.75173 11.2654 6.39116 11.6465 6.59918 12.0141C6.66852 12.1366 6.72399 12.123 7.72249 11.8916C8.1108 11.7963 8.73486 11.6465 9.1509 11.5785C8.62392 11.7963 7.65315 12.1094 7.1539 12.2727L6.47437 12.5042L6.03059 12.7628C4.26935 13.7566 2.4249 14.9001 2.16141 15.7305C2.1198 15.8394 2.1198 15.9347 2.1198 16.03C2.1198 16.1661 2.16141 16.2887 2.23075 16.3976C2.34169 16.5609 2.50811 16.6426 2.64679 16.7107C2.1198 17.1463 0.899414 18.2626 0.899414 18.8888C0.899414 19.0249 0.954886 19.1338 1.05196 19.2019C1.49574 19.5559 2.45264 19.2427 3.13217 18.9433C2.54971 19.5695 1.7315 20.536 1.7315 21.1622C1.7315 21.1758 1.7315 21.2031 1.7315 21.2031C1.74536 21.38 1.82857 21.5162 1.98112 21.6251C2.61905 22.0743 4.43577 21.1894 5.61455 20.5496C5.29558 20.9172 5.00436 21.3392 5.00436 21.6795C5.00436 21.6795 5.00436 21.6795 5.00436 21.6931C5.00436 21.8701 5.08756 22.0199 5.22624 22.1424C5.86417 22.6461 7.00135 22.1832 7.5006 21.911C7.48674 21.9926 7.47287 22.0743 7.47287 22.156C7.47287 22.333 7.5006 22.5235 7.58381 22.6733C7.68089 22.8503 7.83344 22.9592 8.02759 23.0136C8.63778 23.1906 10.1771 22.5235 10.7735 22.2513C10.7596 22.2921 10.7596 22.3193 10.7596 22.3738C10.7596 22.7686 10.8844 23.2451 11.4114 23.3676C12.2157 23.6126 13.5609 22.8094 14.1295 22.4283C14.1157 22.5916 14.1018 22.7822 14.1018 22.9864C14.1018 23.5037 14.1989 24.0891 14.6149 24.2933C15.2112 24.5792 15.9185 24.1163 16.2513 23.8576C16.3623 24.2388 16.6396 25.0284 17.1666 25.2054C18.0126 25.3823 19.4687 24.8242 19.7045 24.7425C19.9957 24.9195 20.9942 25.4912 21.3825 25.464C21.757 25.4232 22.7555 24.7561 23.0883 24.5383C23.324 24.7697 24.1423 25.5049 24.6138 25.5457C25.0159 25.5729 25.321 25.2598 25.4875 25.0692C25.7093 25.3279 26.1809 25.8588 26.6801 26.0766C27.2626 26.3489 27.9005 26.1719 28.0947 26.1855C28.2749 26.4578 28.6355 27.4652 29.2873 27.506C29.6617 27.5468 30.369 27.5605 30.5493 27.506C30.7296 27.6285 31.7558 28.2275 32.1303 28.2956C32.4631 28.3364 32.9207 28.1731 33.101 28.0914C33.3506 28.3364 33.628 28.772 33.9747 28.8129C34.2521 28.8537 35.1674 29.0443 35.3476 28.949C35.5418 29.1941 36.0549 29.7794 36.3323 29.8883C36.6235 29.9972 37.206 30.0653 37.4833 30.0517C37.6913 30.3103 38.4541 30.8276 38.7453 30.8821C39.0227 30.9366 40.0073 30.8957 40.2431 30.8821C40.354 30.9774 40.9503 31.3858 41.3802 31.4947C41.8379 31.6036 42.7393 31.413 42.9057 31.3858C43.1276 31.4811 44.3341 31.9575 44.6531 31.9984C44.9721 32.0392 45.8319 31.59 46.1508 31.413C46.3311 31.6036 46.7749 32.0528 47.4406 31.9984C48.0508 31.9439 48.342 31.5628 48.4807 31.3449C48.758 31.5764 49.4237 32.0665 49.9507 31.9984C50.4499 31.9439 50.866 31.4947 51.0601 31.2497C51.1572 31.3858 51.3098 31.5628 51.5317 31.6444C51.8229 31.7533 52.1557 31.6989 52.3499 31.6444C52.3637 31.6717 52.3776 31.7397 52.3915 31.8078C52.5301 32.3932 52.8075 33.9179 53.0571 35.3064L53.1958 36.0279C53.39 37.185 53.5841 38.5191 53.7921 40.003C54.0972 42.3581 54.3053 46.9321 54.4717 50.9345C54.5549 55.985 54.7213 58.272 54.9848 58.5034C55.2622 58.7485 55.9556 58.8846 56.6628 58.8846C56.6767 58.8846 56.6767 58.8846 56.6906 58.8846C56.9124 58.8846 57.1343 58.871 57.3424 58.8438C57.3562 58.8438 57.3562 58.8438 57.3701 58.8438C57.3978 58.8438 57.4117 58.8438 57.4394 58.8302C57.4672 58.8302 57.4949 58.8165 57.5088 58.8165H57.5226C57.8416 58.7485 58.119 58.6532 58.2854 58.5034C58.4102 58.3945 58.5211 57.7955 58.6182 56.8426C58.6598 56.4206 58.7014 55.9441 58.743 55.4132C58.7569 55.1137 58.7846 54.8006 58.7985 54.4739C58.8401 53.7932 58.8817 53.0445 58.9233 52.2413C58.9372 52.0507 58.9372 51.8602 58.9511 51.6696C58.9511 51.6423 58.9511 51.6287 58.9511 51.6151C58.9511 51.5879 58.9511 51.5743 58.9511 51.547C58.9788 50.88 59.0065 50.1721 59.0343 49.4506C59.0343 49.4098 59.0343 49.3962 59.0343 49.3553C59.062 48.6202 59.0897 47.8442 59.1175 47.0683C59.1175 47.0411 59.1175 47.0138 59.1175 46.9866C59.1313 46.6054 59.1452 46.2106 59.1591 45.8295C59.1591 45.8022 59.1591 45.775 59.1591 45.7614C59.1591 45.6661 59.1591 45.5572 59.1729 45.4619C59.1868 45.1897 59.1868 44.9174 59.2007 44.6451C59.2007 44.6043 59.2007 44.577 59.2007 44.5362C59.2145 44.155 59.2284 43.7739 59.2423 43.4063C59.2423 43.3519 59.2423 43.2974 59.2423 43.243C59.2562 42.9435 59.2561 42.644 59.2561 42.3581C59.2561 42.2764 59.2561 42.2083 59.2561 42.1267C59.2561 42.1131 59.2561 42.0994 59.27 42.0858C59.27 41.7183 59.2839 41.3643 59.2978 40.9968C59.2978 40.9287 59.2978 40.847 59.2978 40.7653C59.3116 40.4114 59.3255 40.0438 59.3255 39.7035L59.3394 39.5265C59.3532 38.8459 59.4364 37.9338 59.5335 36.9672L59.8525 35.3064C60.1298 33.7545 60.4488 32.0256 60.5597 31.6444C60.7539 31.6989 61.0867 31.7533 61.378 31.6444C61.5998 31.5492 61.7663 31.3858 61.8495 31.2497C62.0436 31.4947 62.4597 31.9439 62.9589 31.9984C63.4859 32.0528 64.1516 31.5628 64.4289 31.3449C64.5676 31.5764 64.8588 31.9439 65.469 31.9984C66.1347 32.0528 66.5923 31.6172 66.7588 31.413C67.0777 31.59 67.9237 32.0392 68.2565 31.9984C68.5755 31.9575 69.782 31.4811 70.0039 31.3858C70.1703 31.4266 71.0856 31.6172 71.5294 31.4947C71.9593 31.3858 72.5417 30.9774 72.6665 30.8821C72.9023 30.8957 73.8869 30.9366 74.1643 30.8821C74.4555 30.8276 75.2183 30.3103 75.4263 30.0517C75.6759 30.0789 76.2861 30.0108 76.5773 29.8883C76.8547 29.7794 77.3678 29.1804 77.562 28.949C77.7423 29.0443 78.6575 28.8537 78.9349 28.8129C79.2677 28.772 79.5451 28.3364 79.8086 28.0914C80.0027 28.1731 80.4465 28.3364 80.7794 28.2956C81.1677 28.2411 82.1939 27.6421 82.3742 27.506C82.5406 27.5605 83.2479 27.5468 83.6223 27.506C84.2741 27.4652 84.6347 26.4578 84.815 26.1855C85.0091 26.1583 85.647 26.3489 86.2295 26.0766C86.7287 25.8452 87.2003 25.3279 87.4222 25.0692C87.5747 25.2598 87.8798 25.5729 88.2958 25.5457C88.7674 25.5049 89.5856 24.7561 89.8213 24.5383C90.1542 24.7697 91.1665 25.4368 91.5271 25.464C91.9154 25.5049 92.9139 24.9195 93.2051 24.7425C93.4409 24.8378 94.897 25.3823 95.743 25.2054C96.27 25.0284 96.5473 24.2388 96.6583 23.8576C96.9772 24.1027 97.6984 24.5792 98.2947 24.2933C98.7107 24.0891 98.8078 23.5037 98.8078 22.9864C98.8078 22.7822 98.7939 22.5916 98.7801 22.4283C99.3487 22.8094 100.694 23.6262 101.512 23.3676C102.025 23.2451 102.15 22.7686 102.15 22.3738C102.15 22.3193 102.15 22.2785 102.136 22.2513C102.732 22.5235 104.272 23.177 104.882 23.0136C105.076 22.9592 105.229 22.8367 105.326 22.6733C105.423 22.5099 105.437 22.3193 105.437 22.156C105.437 22.0607 105.423 21.979 105.409 21.911C105.922 22.1696 107.045 22.6325 107.683 22.1424C107.822 22.0199 107.905 21.8701 107.905 21.6931C107.905 21.6795 107.905 21.6795 107.905 21.6795C107.905 21.3256 107.614 20.9036 107.295 20.5496C108.474 21.2031 110.291 22.0743 110.928 21.6251C111.081 21.5162 111.164 21.38 111.178 21.2031C111.178 21.1894 111.178 21.1622 111.178 21.1622C111.178 20.5224 110.36 19.5559 109.777 18.9433C110.457 19.2427 111.414 19.5559 111.858 19.2019C111.955 19.1202 112.01 19.0249 112.01 18.8888C111.844 18.2626 110.623 17.1463 110.11 16.6971Z" fill="#FEFEFE"/>
</svg>
