<svg width="39" height="71" viewBox="0 0 39 71" fill="none" xmlns="http://www.w3.org/2000/svg">
<path d="M38.1846 68.9676C35.5222 65.4763 32.7608 61.952 30.0902 58.543C26.5952 54.08 22.9766 49.4688 19.5228 44.8576C20.3801 44.7505 20.9076 44.3306 21.3528 43.8859L21.4022 43.8365L21.361 43.7789C21.2456 43.6307 21.023 43.5072 20.8335 43.4001C20.7675 43.3672 20.6933 43.326 20.6356 43.2931C21.5176 43.2684 22.2677 43.0296 22.9931 42.799C23.125 42.7578 23.2486 42.7167 23.3805 42.6755L23.4217 42.659L23.43 42.6179C23.5289 42.2803 23.2321 42.132 23.0508 42.0415C23.0261 42.025 22.9931 42.0085 22.9601 41.9921C24.3119 42.0332 25.062 41.4733 25.672 40.8639L25.6885 40.8475V40.8228C25.7379 40.5016 25.3917 40.4028 25.1445 40.3287C25.0538 40.304 24.8972 40.2546 24.8889 40.2217C24.8889 40.2217 24.8889 40.2134 24.8972 40.2052C26.1089 40.1887 26.8013 39.5959 27.3206 39.0112L27.3865 38.9371L27.2958 38.8877C27.098 38.7724 26.8755 38.6819 26.6611 38.5995C26.4221 38.5007 26.1748 38.4019 25.9687 38.2701C27.8728 38.089 29.2494 37.4632 30.0654 36.401L30.1231 36.3268L30.0407 36.2774C29.8594 36.1704 29.6038 36.1128 29.3648 36.0633C29.2164 36.0304 29.0598 35.9975 28.9279 35.9563C30.5765 35.4375 32.0107 34.3012 32.6125 33.0249L32.6537 32.9343L32.563 32.9096C32.3157 32.8437 32.0355 32.819 31.7552 32.8026C31.5821 32.7943 31.4255 32.7779 31.2854 32.7614C32.9834 31.9956 34.1539 30.851 34.9534 29.1795L35.0029 29.0724L34.8875 29.056C34.566 29.023 34.294 29.0724 34.0385 29.1218C33.8489 29.163 33.6593 29.1959 33.4533 29.1959C35.0441 27.9279 35.9673 26.3798 36.2641 24.4777L36.2805 24.3789H36.1816C35.8354 24.3789 35.5964 24.4777 35.3409 24.5847C36.4454 23.4319 37.5005 21.9992 37.5005 20.0723V20.0065L37.4345 19.99C37.0719 19.8994 36.7586 20.0723 36.4207 20.2535C36.2723 20.3358 36.1239 20.4099 35.9673 20.4676C36.8493 19.1501 37.4181 17.4785 37.6983 15.3458L37.7066 15.2635L37.6241 15.2553C37.2614 15.2141 36.9894 15.4117 36.7669 15.5682C36.635 15.6587 36.5361 15.7328 36.4454 15.7493C36.9977 14.8353 37.4922 13.3778 37.2779 11.8957L37.2697 11.8627L37.245 11.8463C36.9729 11.6157 36.7339 11.8545 36.569 12.0192C36.4207 12.1674 36.3465 12.2333 36.2723 12.2168C36.6844 11.344 36.8081 10.257 36.6597 8.81603L36.6515 8.73368L36.569 8.74192C36.0168 8.82426 35.6211 9.19481 35.2667 9.53241C35.0524 9.73827 34.8628 9.91943 34.6732 10.0018C35.2914 8.69251 35.8519 5.91755 34.8545 4.6577L34.8051 4.59183L34.7391 4.64123C34.3847 4.90473 34.0302 5.26704 33.6923 5.62112C33.2719 6.0493 32.8763 6.46102 32.4971 6.68334C32.6207 5.95872 32.7279 4.58359 32.3899 4.04836L32.3569 3.99072L32.291 4.01543C31.9036 4.17188 31.6563 4.46831 31.4255 4.76475C31.2854 4.93767 31.1535 5.10236 30.9886 5.24234C31.442 4.00719 31.7635 1.31458 30.7166 0.532316L30.6754 0.48291L30.626 0.557019C26.7353 6.64217 22.2595 11.7886 17.5198 17.2315L16.6955 18.1867C16.4483 18.4831 16.1185 18.8289 15.7806 19.1913C14.4205 20.6405 12.5576 22.6332 12.2856 24.4118C12.2197 25.087 12.3516 25.8446 12.4752 26.5857C12.6236 27.4338 12.772 28.3149 12.6318 29.0724C12.467 29.7806 12.0301 30.464 11.2882 31.1639C11.3047 30.3158 11.4284 29.3442 11.5603 28.3149C11.8735 25.8446 12.2279 23.0531 11.0657 21.3569C10.1425 20.0065 7.64491 19.3806 5.79851 20.5829L5.79027 20.5911L5.78202 20.5993C5.63365 20.7969 5.5265 20.9863 5.39461 21.2087C5.34515 21.291 5.2957 21.3816 5.238 21.4722C3.98508 21.9333 3.30093 23.3166 3.5647 24.8482L3.59767 25.0623L3.71307 24.8812C4.07576 24.2965 4.47141 23.9507 4.85883 23.8766C5.11435 23.8272 5.36988 23.8848 5.61717 24.0577C5.83972 26.5033 4.63627 28.4878 3.67186 30.077C3.51524 30.3405 3.35863 30.5875 3.2185 30.8346C3.11134 31.0569 2.99594 31.2792 2.88054 31.5015C2.08099 33.0496 1.2567 34.6635 1.00942 36.9609C0.391204 43.3919 3.72956 46.5374 7.43884 48.983C7.79328 49.1888 8.20542 49.3865 8.64229 49.5923C9.61495 50.0534 10.7195 50.564 11.3377 51.3709C13.5962 54.1212 11.6427 58.4113 10.3486 61.2439C10.2084 61.5568 10.0683 61.8532 9.9529 62.1249C9.7798 62.479 9.57373 62.9401 9.33469 63.4754C8.5681 65.2128 7.51302 67.6007 6.47442 68.2677C5.88094 68.6383 5.08138 68.5724 4.23237 68.4983C3.54821 68.4406 2.84757 68.383 2.17166 68.5312C1.3144 68.7206 1.00117 69.4617 0.63849 70.3263C0.605518 70.4004 0.572547 70.4827 0.539576 70.5651L0.473633 70.7133L0.630247 70.6721C2.21287 70.2851 3.98508 70.3592 5.86445 70.4333C6.96075 70.4745 8.09002 70.5239 9.19456 70.4663C10.5711 70.4169 11.9971 70.3345 13.3737 70.2522C15.7147 70.1204 18.1298 69.9805 20.4543 69.9805C20.5614 69.9805 20.6109 70.0546 20.6851 70.1781C20.7675 70.3181 20.8747 70.5075 21.1549 70.458L21.1797 70.4498L21.1961 70.4333C21.633 69.9969 21.7896 69.6264 21.6742 69.3217C21.3775 68.5312 19.358 68.4159 17.7341 68.3254C17.3055 68.3007 16.9346 68.276 16.6461 68.2513C16.6873 68.1113 16.7285 67.9631 16.7697 67.8231C17.5528 65.0316 18.3606 62.1414 22.1606 62.7754L22.2265 62.7837L22.2512 62.7178C22.3584 62.4131 22.4161 62.0426 22.4738 61.6885C22.548 61.1862 22.6304 60.6675 22.853 60.3051C23.3393 61.1368 24.2872 62.7096 25.5401 64.6611C25.7379 64.9575 25.9687 65.3775 26.216 65.8139C27.0568 67.329 28.1036 69.2147 29.373 69.3629C29.8594 69.4205 30.3457 69.2147 30.8073 68.7371C31.0546 69.19 31.5656 69.5193 32.1509 69.5934C32.7031 69.6593 33.206 69.4864 33.5274 69.1241C33.7912 69.3135 34.0715 69.5029 34.5331 69.577H34.5495L34.566 69.5687C34.7968 69.4946 34.9205 69.3464 35.0524 69.1982C35.1513 69.0829 35.2419 68.9759 35.3821 68.91C35.5881 69.4782 36.2723 69.7993 36.8658 69.824C37.517 69.8487 38.0115 69.5523 38.1929 69.0335L38.2094 68.9923L38.1846 68.9676ZM10.5794 66.1268C10.6535 66.0033 10.7195 65.8798 10.7854 65.7645C11.89 63.7553 13.1594 62.0014 16.3906 62.5696C16.0691 64.7517 15.3437 66.6373 14.165 68.3336C13.6375 68.4571 13.0769 68.4406 12.5494 68.4242C11.9889 68.4077 11.4613 68.3912 10.975 68.5312C10.6948 68.5971 10.464 68.7453 10.2661 68.8853C10.0188 69.05 9.80453 69.1982 9.549 69.157C9.34293 68.276 9.99412 67.1314 10.5794 66.1268Z" fill="white"/>
</svg>
