<svg width="91" height="69" viewBox="0 0 91 69" fill="none" xmlns="http://www.w3.org/2000/svg">
<path d="M88.8092 62.1652C88.4227 61.7794 87.3979 60.5633 86.7258 60.6472C86.1462 60.7226 85.9782 61.7123 85.3733 61.6787C84.5921 61.6452 84.6509 60.7142 84.7265 60.0852C82.1643 59.624 80.4422 58.5756 78.9889 56.9067C78.3925 56.2106 76.9896 53.5352 76.0319 53.401C75.2002 53.2836 74.2006 53.9629 73.1589 54.0384C72.4785 54.0971 71.8988 54.0552 71.4032 53.8874C69.261 53.1494 68.1942 51.405 67.4969 49.3418C66.8081 47.329 65.8924 45.4252 64.5399 43.7646C66.0772 43.1021 67.3037 42.624 69.093 42.7331C71.756 42.884 72.7977 44.3098 74.2846 45.6852C76.0655 47.329 77.46 48.3606 80.7446 48.1509C83.7268 47.958 86.373 46.6245 89.0444 45.9955C89.0108 45.6181 89.1536 45.4252 89.204 45.1233C87.5911 44.0917 86.037 42.2298 83.3824 42.0957C82.2987 42.037 81.2571 42.1795 80.1902 42.0957C76.5107 41.7937 74.881 38.6068 71.2604 38.7493C67.8498 38.8835 65.8168 41.3157 63.2798 42.7331C61.1293 40.5273 55.4337 40.3428 52.0315 41.106L52.3507 40.7454C52.2919 40.6783 52.2919 40.6364 52.3339 40.5944L51.141 41.5673L52.3171 40.5944C52.3591 40.5525 52.4515 40.5273 52.5607 40.5022C52.4599 40.5273 52.3759 40.5525 52.3339 40.5944L52.3507 40.7454C54.0056 40.4267 54.518 38.9842 55.5429 38.0365C55.1817 37.9526 54.9297 38.1874 54.7449 38.0365C54.7953 37.8687 55.1481 37.7346 54.8205 37.6339C54.7533 37.7765 54.6441 37.9442 54.5013 37.7933C54.6273 37.6758 54.5769 37.3823 54.5853 37.1475C54.1988 37.0804 54.3332 37.5417 53.9468 37.4662C53.7956 37.1307 54.5181 36.9881 54.1064 36.9043C53.9552 36.9378 54.0392 37.2146 53.7872 37.1391C53.72 36.8204 53.72 36.7365 53.7872 36.4262C53.5604 36.5101 53.4512 36.5101 53.2244 36.4262C53.2496 36.2836 53.6444 36.1075 53.384 35.9482C53.3588 36.0656 53.09 36.3256 52.9807 36.0991C53.048 35.8727 53.1404 35.6798 53.216 35.4617C53.0228 35.4869 52.9135 35.5875 52.6531 35.5456C52.8463 35.185 52.3087 35.1766 52.5019 34.5895C51.5107 35.2521 50.9058 36.292 50.0238 37.0552C50.1162 37.2984 49.8977 37.5165 49.9481 37.6758L49.2341 38.1287C49.2425 37.8939 49.2509 37.6591 49.1501 37.5249C48.7889 37.6255 48.6461 38.3468 48.352 38.2461C48.226 36.9378 48.0496 35.6798 47.7892 34.4973C48.1 34.0947 48.3688 33.0631 48.0244 32.5096C49.1501 30.6813 50.0826 28.6601 51.5359 27.1672C52.6951 29.1633 54.1904 31.26 57.1978 31.1509C57.1138 29.8594 55.9041 29.3394 55.1985 28.6014C54.4508 27.813 53.8712 26.9408 53.2832 25.9763C53.6108 25.9931 53.7788 25.8337 54.1568 25.9008C54.9465 26.5466 55.7781 27.6285 56.8702 28.3666C57.8951 29.0627 59.3232 29.9013 60.4657 29.96C60.9697 29.9852 61.4485 29.9852 61.5829 29.482C61.1293 28.853 60.1716 28.3666 59.2644 27.7292C58.3151 27.0666 56.7526 26.2531 57.349 25.0202C58.7771 24.2738 60.138 25.146 61.4149 25.1041C63.2042 25.037 64.6659 24.0138 66.6821 24.0725C66.9593 24.0809 66.7325 23.5861 67.0013 23.5861C68.6226 23.3177 70.4791 23.2926 71.7056 22.63C71.4704 22.0513 71.7476 22.1939 71.9408 21.7578C71.5964 21.4223 72.0836 21.4391 72.0248 20.961C71.7644 20.8436 71.6636 20.9359 71.378 20.961C71.378 20.6927 71.798 20.6004 71.5376 20.3237C70.4287 20.3991 69.6643 21.6236 68.589 21.1959C68.9418 20.7514 70.0255 21.0449 69.8659 20.0804C69.3366 20.0553 68.5302 20.3824 67.8665 20.483C67.1525 22.9823 64.0191 21.0533 61.1629 21.4391C60.1296 21.5733 59.7432 22.2358 58.5335 21.9926C58.3151 22.0178 58.6007 21.5481 58.2983 21.6739C56.7526 21.892 55.8369 20.7933 54.0728 21.1875C53.6276 17.5644 52.1659 14.9645 50.0826 12.9852C50.175 11.0731 50.2506 8.51511 48.4108 8.28028C48.1 9.60539 48.4108 11.2492 47.1256 11.5427C46.6803 11.6518 45.9243 11.3666 45.5294 11.6266C46.1007 9.26992 45.0506 6.48552 45.2102 4.05336C47.68 4.24625 48.9821 3.32371 51.1914 3.57531C52.5523 3.72628 53.7452 4.7243 54.7029 5.48749C55.9293 6.46874 57.2314 7.97836 59.172 7.72676C60.8941 7.49193 61.3393 4.53979 59.2476 5.09332C59.0796 5.41201 59.2308 5.70555 59.4072 5.89006C59.802 5.96554 59.5584 5.41201 59.97 5.48749C60.5077 6.51068 59.55 6.99711 58.6091 6.93001C57.181 6.8126 55.5345 4.85849 54.2996 3.9024C52.8799 2.79535 51.0402 1.67991 49.1081 1.747C48.1672 1.78055 47.596 2.25859 46.3107 2.22505C46.3359 1.85603 46.2435 1.59604 46.1511 1.35283C45.353 1.44508 44.6474 0.312869 44.0761 0.950262C43.0009 0.958648 42.3372 1.31928 41.9172 2.14118C40.4639 1.94828 39.5398 1.18509 38.3302 1.57927C35.3396 2.56052 33.4494 7.0055 29.6272 6.83776C28.8123 6.80421 27.6614 6.52745 27.9555 5.47911C28.3503 5.4204 28.3419 6.04941 28.7535 5.72232C28.6443 4.38883 27.3002 4.96751 27.2414 5.7978C27.1406 6.98872 28.3587 7.76869 29.392 7.86933C33.4914 8.27189 35.9108 3.23984 40.2455 3.40758C40.9259 3.43274 41.6484 3.64241 42.564 3.72628C43.4461 5.76426 41.7408 7.91126 41.6064 10.2512C41.5224 11.6182 42.2784 12.5659 41.8416 14C41.5476 14 41.2536 14 40.9679 14C41.2032 15.0065 41.2116 16.038 41.2872 17.1031C41.4048 18.9734 42.1776 20.7262 42.3204 22.3616C42.4044 23.2674 42.1524 24.1312 42.0852 25.0706C41.976 26.5382 42.1692 28.1317 42.0852 29.6078C41.976 31.4696 41.514 33.038 41.0519 34.4637C40.1783 34.9753 39.4978 35.6798 38.5822 36.1411C38.473 35.9482 38.347 35.7804 38.347 35.5037C38.1453 35.5708 37.9185 35.6127 37.6245 35.5792C37.6245 35.3108 37.6245 35.0508 37.6245 34.7824C37.3557 34.7824 37.0953 34.7824 36.8265 34.7824C36.8601 34.296 36.5744 34.1283 36.2636 33.9857C36.1712 33.6586 36.4316 33.6754 36.4232 33.4238C35.726 33.3567 35.4236 32.887 34.6675 32.8618C34.6087 32.627 34.8103 32.627 34.7515 32.3838C33.8275 32.2748 33.2226 31.8303 32.1221 31.9058C31.9625 31.5032 31.6853 31.218 31.6349 30.7065C31.4669 30.6981 31.1225 30.9245 31.0805 30.7819C30.9041 30.4884 31.1729 30.0607 30.9209 29.9852C30.6688 30.2955 30.0388 30.22 29.4844 30.22C29.4172 29.9349 29.6272 29.8007 29.4844 29.6665C28.9551 29.7084 28.5771 29.6162 28.1235 29.5826C27.9807 29.1885 27.3506 29.2975 27.3254 28.7859C27.0566 28.7859 26.7962 28.7859 26.5274 28.7859C26.4182 28.6517 26.5526 28.2827 26.2921 28.3078C25.7797 28.333 25.4185 28.2324 25.0153 28.1485C25.0405 27.7292 25.0069 27.3601 24.8556 27.1169C22.6127 27.1924 20.3445 26.966 18.866 27.9137C18.2024 27.3014 17.3287 26.9073 16.3123 26.6389C16.2115 27.0834 16.7491 27.3182 16.5559 27.5866C16.0267 27.3434 15.6486 26.9492 14.9598 26.8737C14.7834 27.4356 15.2706 27.9891 15.4386 28.4672C14.8758 28.4588 14.4137 28.9033 13.8425 29.0207C13.0445 29.1968 12.112 29.0543 11.2131 29.1801C10.3143 29.3059 9.17179 29.96 8.18052 30.2116C7.60088 30.3626 6.87004 30.3626 6.50881 30.6142C6.08878 30.891 6.06358 31.4529 5.78636 31.8974C5.50914 32.3251 4.8791 32.5515 5.14792 33.0967C5.42514 33.3986 6.08038 33.3315 6.26519 33.7341C7.11365 33.7592 8.12172 33.3651 8.73496 33.6502C8.04611 34.2373 6.23159 33.7005 5.61835 34.3715C6.14759 35.0172 6.95404 35.9062 7.93691 35.8895C8.60895 35.8727 8.97858 35.2688 9.69263 35.2437C11.7088 40.4351 15.657 44.0917 23.1671 43.5298C24.0576 45.2659 22.5875 46.6077 22.5287 48.5367C19.9749 47.8406 17.4295 48.436 15.027 48.6206C14.2457 48.6793 13.4729 48.5199 12.7168 48.6206C11.9692 48.7212 11.4147 49.4676 10.7175 50.1302C9.48261 51.3127 8.29813 51.992 6.88684 52.6797C6.13919 53.0404 5.15632 53.2249 4.65229 53.6358C4.29106 53.921 4.23226 54.4913 3.92984 54.8351C3.63582 55.1622 3.16539 55.2629 2.81256 55.548C1.67008 56.6131 0.86363 58.0137 0.258789 59.2969C1.82129 59.0033 3.3502 58.6763 4.64389 58.0976C5.18992 57.0744 5.18152 55.5061 6.47521 55.2293C6.71042 55.3383 6.64322 55.808 6.55921 56.0261C6.96244 55.8751 7.26486 55.959 7.67649 55.548C7.65129 55.7577 7.70169 55.8919 7.91171 55.8667C8.08812 55.6151 8.14692 55.1706 8.39894 54.8351C8.98698 54.03 11.5408 52.3107 12.5404 52.0423C12.9016 51.9501 13.3049 52.0507 13.6577 51.9669C14.1449 51.8494 14.565 51.3127 15.0942 51.254C16.6483 51.0611 18.6056 52.2017 19.7229 52.5288C18.5468 53.1913 16.7575 52.512 15.2538 53.0068C14.7582 53.1746 14.0945 53.9965 13.3385 54.5248C11.8096 55.5899 10.6419 56.2273 9.11299 57.1499C8.43254 57.5524 7.36567 58.0473 7.03805 58.5085C6.80283 58.844 6.86163 59.3556 6.63482 59.6994C6.3324 60.1775 5.67715 60.3201 5.27393 60.7394C4.38347 61.6871 3.99704 62.9367 3.3586 64.0019C5.05551 63.8341 6.62642 63.549 7.8277 62.8864C8.11332 62.14 7.55888 60.5549 8.30653 60.2614C8.65096 60.211 8.45774 60.6975 8.86937 60.5801C8.93657 60.3872 8.93657 60.1188 9.18859 60.0936C9.12979 60.3368 9.2642 60.3872 9.2642 60.5801C9.69263 60.6052 9.50781 60.0181 9.90264 60.0181C9.90264 60.2278 9.87744 60.471 9.98665 60.5801C11.1039 59.0872 12.8344 57.1834 14.8506 56.7557C15.3462 56.6467 15.867 56.7976 16.3627 56.6718C16.8667 56.546 17.3623 55.959 17.9588 55.8751C18.9332 55.7493 20.5126 56.2357 21.7894 56.437C24.8052 56.9067 29.476 57.5944 31.3661 55.7996C36.188 57.846 44.0677 58.3492 49.2341 56.2777C52.4095 59.2466 57.3238 61.729 63.3554 61.2175C67.6481 60.8568 70.3111 63.507 72.3693 65.3521C73.4445 66.3166 73.8646 67.3901 75.9647 67.1049C77.0988 68.7068 80.0642 68.4888 82.3491 68.9333C82.2987 68.2623 81.6519 67.7507 81.1479 67.1049C80.7782 66.6353 80.1986 65.5953 79.5517 65.5115C78.6781 65.4024 77.5608 66.8114 76.9224 65.5953C76.9224 65.1424 77.166 64.9328 77.0736 64.396C76.3427 63.7838 75.7883 64.1277 75.0826 63.9096C73.8898 63.549 72.5205 62.1484 71.4872 61.2007C71.0168 60.7646 70.4623 60.2865 69.8155 59.6827C69.303 59.2214 68.6142 58.2485 68.0598 58.2485C67.6985 58.2485 67.2365 58.7937 66.8585 58.8859C65.8252 59.1459 64.9432 58.7014 64.2291 58.0137C67.7405 57.9718 70.6639 56.7054 73.7974 57.1415C75.6287 57.3931 77.1492 58.8859 78.5101 59.9343C79.1317 60.4123 79.9466 60.9658 80.6606 61.5278C81.8115 62.4335 82.4919 63.3728 84.3317 63.1967C85.4237 64.5218 88.2379 64.1025 90.4053 63.9935C90.1701 63.2303 89.4644 62.8193 88.8092 62.1652ZM10.3059 35.1682C11.1039 35.0592 11.9692 35.0172 12.8596 35.0089C13.4729 36.552 16.6315 37.7597 18.7652 36.6023C20.8318 38.0197 22.1675 40.1583 22.9907 42.8169C15.867 43.1524 12.6496 39.5964 10.3059 35.1682ZM51.3174 40.259C51.309 40.259 51.309 40.259 51.3006 40.2673C51.3258 40.1667 51.3762 40.1164 51.4434 40.0996C51.3762 40.1164 51.3342 40.1667 51.3174 40.259ZM50.8806 39.219C51.9895 38.6906 52.5271 37.6087 53.384 36.8288C52.5355 37.6087 51.9979 38.699 50.8806 39.219ZM52.2583 40.259C52.0819 40.1332 51.6871 40.1667 51.4266 40.2254C51.6787 40.1667 52.0735 40.1332 52.2583 40.259ZM55.0557 38.2713C54.4844 39.0848 53.7872 39.7641 53.0564 40.4267C53.0396 40.4267 53.0312 40.4351 53.0144 40.4351C53.0228 40.4351 53.0396 40.4267 53.048 40.4267C53.7872 39.7641 54.4844 39.0848 55.0557 38.2713C54.8121 38.2461 54.6105 38.2797 54.4256 38.3636C54.6105 38.2797 54.8205 38.2378 55.0557 38.2713ZM54.4256 37.55C54.2576 38.8751 53.0984 39.2106 52.5103 40.0996C52.5691 40.0912 52.6195 40.0745 52.6699 40.0577C52.6111 40.0828 52.5523 40.0996 52.4935 40.108C53.09 39.2106 54.2492 38.8751 54.4256 37.55C54.2324 37.7178 54.0392 37.8771 53.846 38.0532C54.0392 37.8771 54.2324 37.7094 54.4256 37.55ZM53.9384 37.6339C53.4848 38.5229 52.4599 38.8584 52.1911 39.9403C52.1743 39.957 52.1575 39.9738 52.1407 39.9906C52.1575 39.9738 52.1743 39.9654 52.1827 39.9487C52.4515 38.8751 53.468 38.5313 53.9384 37.6339ZM53.6192 37.0049C53.6192 36.9965 53.6192 36.9965 53.6192 37.0049C53.3504 38.33 52.1239 38.7242 51.5611 39.7809C51.5611 39.7809 51.5526 39.7809 51.5526 39.7893C52.1071 38.7326 53.3336 38.3384 53.6192 37.0049ZM53.4596 36.7533C53.4596 36.7533 53.4596 36.7617 53.4596 36.7533C53.2328 36.703 53.0312 36.7365 52.8463 36.8288C53.0396 36.7365 53.2412 36.703 53.4596 36.7533ZM52.9135 36.1159C52.5943 37.3823 51.4014 37.7933 50.8386 38.8248H50.8302C51.393 37.8016 52.5775 37.3907 52.9051 36.1243C52.8967 36.1243 52.9051 36.1243 52.9135 36.1159ZM52.3423 35.0172C52.3423 35.0089 52.3507 35.0089 52.3423 35.0172C52.1659 36.3675 50.9562 36.703 50.3598 37.6339H50.3514C50.9478 36.703 52.1575 36.3675 52.3423 35.0172ZM49.2593 38.3132L49.2341 38.3384L49.2593 38.3132L49.9901 37.7513C49.9985 37.7597 50.0154 37.7765 50.0238 37.7849C50.0238 37.7849 50.0238 37.7849 50.0238 37.7933C50.0069 37.7849 49.9985 37.7681 49.9817 37.7597L49.2593 38.3132ZM50.427 39.0597V39.068C50.2926 38.959 50.553 38.5564 50.511 38.2713C50.4942 38.0868 50.1666 38.2378 50.0238 38.1874C51.183 37.852 51.9727 36.6107 52.8211 35.7217C52.6111 35.7133 52.4179 35.7721 52.2499 35.8727C52.4263 35.7721 52.6111 35.7133 52.8295 35.7133C51.9811 36.6107 51.1998 37.8436 50.0321 38.1874C50.175 38.2294 50.5026 38.0868 50.5194 38.2629C50.553 38.5565 50.3094 38.9422 50.427 39.0597ZM51.225 39.3867C51.1914 39.2106 50.8302 39.3532 50.6622 39.3113C50.6706 39.3113 50.6706 39.3029 50.679 39.3029C50.8386 39.3532 51.1914 39.2106 51.225 39.3867C51.3342 39.63 51.0066 39.8229 51.225 39.9403V39.9487C50.9814 39.8312 51.3258 39.63 51.225 39.3867Z" fill="white"/>
</svg>
