<svg width="49" height="74" viewBox="0 0 49 74" fill="none" xmlns="http://www.w3.org/2000/svg">
<path d="M46.9958 41.0391C46.6315 39.9741 45.1221 37.8857 43.6751 35.8704C42.3739 34.064 41.1455 32.3515 40.9374 31.6623C40.8541 31.0985 40.7708 30.3258 40.7708 29.2607C40.7708 28.039 40.6875 26.6189 40.5938 25.251C40.5522 24.7394 40.396 24.0293 40.2503 23.3924C40.1566 22.9851 40.0525 22.4944 40.0421 22.3273L40.0525 22.3169C40.1462 22.2229 40.1358 22.1289 39.709 21.2414C39.657 21.1369 39.6049 21.0221 39.5737 20.949C39.6049 20.855 39.5112 20.6879 39.1156 20.0405C38.9907 19.8421 38.8346 19.5707 38.7825 19.4558C38.8138 19.3409 38.6993 19.1321 38.0018 18.0984C37.8457 17.8582 37.6479 17.5763 37.575 17.451C37.5958 17.3465 37.4085 17.1377 36.3363 16.0622C36.305 15.9891 36.2009 15.8847 35.9823 15.655C35.7013 15.3521 35.1704 14.7987 35.1287 14.6108V14.6003C34.9101 14.0051 34.9413 13.2116 34.9726 12.5642C34.983 12.1987 35.0038 11.8959 34.9622 11.6662C34.8581 10.8621 34.6707 9.75529 34.0877 8.3352C33.0364 5.32794 31.3292 4.20022 31.0273 4.02271C30.944 3.83475 30.6005 3.04117 30.4443 2.44598C30.3298 1.64196 29.6636 0.48291 28.2167 0.48291C27.6649 0.48291 27.259 0.618655 26.9987 0.86926C26.676 1.19296 26.6864 1.63152 26.6864 1.87168V1.92389C26.6864 2.31024 26.7801 2.76968 26.8322 3.02029C26.7801 3.02029 26.7177 3.03073 26.6448 3.04117C26.5511 2.13273 26.0618 1.49577 25.5414 1.18252C24.9896 0.837934 24.3651 0.81705 23.907 1.11986C23.5843 1.33914 23.1055 1.90301 23.22 3.27089C22.7411 3.28133 22.0229 3.33354 21.315 3.62591C20.7841 3.78254 20.1699 4.39861 19.6182 4.94159C19.2226 5.32794 18.8583 5.69341 18.6189 5.79782C18.2441 5.96489 17.9318 5.97534 17.6404 5.99622C17.4842 6.00666 17.3281 6.0171 17.1719 6.04843H17.1511C16.9013 6.13196 16.5265 6.28859 16.1622 6.44522C15.7562 6.61229 15.3398 6.7898 15.1628 6.83157C15.1004 6.85245 15.0067 6.8629 14.9234 6.87334C14.5591 6.93599 14.0178 7.01952 14.0178 7.48941C14.0178 8.04283 14.3717 8.62757 14.6111 8.74243L14.6424 8.75287C14.6424 8.81553 14.6215 8.9095 14.6111 9.00348C14.5799 9.21232 14.5279 9.50469 14.5279 9.92236V9.93281C14.5799 10.9666 14.8089 11.5304 15.2149 11.6244C15.09 11.7393 14.9547 11.9272 14.9547 12.1883C14.9547 12.8043 15.2982 13.1176 15.9644 13.1176C18.2441 13.1176 19.7535 13.3264 20.1179 13.6919C21.4295 14.9658 22.2519 15.467 22.7411 15.7698C22.7724 15.7907 22.8036 15.8116 22.8244 15.822C22.8869 15.8638 22.9389 15.8951 23.0014 15.9369C23.1575 16.0413 23.2408 16.1248 23.2824 16.2397C23.5115 17.6494 22.8765 18.9546 22.5434 19.6542C22.3352 20.0928 22.2415 20.2703 22.3664 20.3956C22.408 20.4373 22.4705 20.5 22.7307 20.3956C21.5857 22.6406 21.5857 22.8285 21.6585 22.9121C21.6898 22.9538 21.7314 22.9851 21.7834 22.9956C21.8875 23.0165 22.0333 22.9538 22.1894 22.8598C21.8251 23.9771 21.6065 24.6663 21.492 25.084C20.3053 24.9169 18.8895 24.6141 17.8277 24.092C16.6618 23.5699 15.1108 22.5779 13.6118 21.6173C12.144 20.6775 10.7595 19.7899 9.92675 19.4767C9.40627 19.247 8.75045 19.1217 8.09464 19.059C8.01136 17.5136 7.96972 16.2397 8.02177 15.7072C8.02177 15.6758 8.03218 15.655 8.03218 15.6236C12.5188 15.9787 13.9761 16.5947 13.9865 16.6052L14.1011 16.6574L14.7569 15.5714L14.6528 15.4983C14.6007 15.4566 13.2995 14.6003 8.30283 13.765C8.42775 13.0863 8.54226 12.6999 8.55267 12.6999L8.60472 12.5224H7.36596V11.5513L5.33606 11.7601L5.34647 11.8646C5.34647 11.875 5.41934 12.5015 5.49221 13.3577C1.50528 12.8879 0.318567 13.0132 0.266518 13.0132L0.141602 13.0236V15.6654L0.308157 15.6341C0.328977 15.6341 1.88003 15.373 5.67958 15.4774C5.74204 16.2919 5.78368 17.0959 5.78368 17.6702C5.78368 17.9835 5.79409 18.4638 5.8045 19.0486C5.42975 19.0903 5.14868 19.1425 5.02377 19.1843L4.98213 19.1947C4.70107 19.247 4.10771 19.3618 3.74337 19.9152C3.41026 20.4164 3.33739 21.1683 3.54558 22.1394C4.02443 24.1129 4.68025 25.1153 5.50261 25.1153C5.61712 25.1153 5.75245 25.084 5.90859 25.0526C5.919 26.8591 5.89818 28.394 5.79409 28.8639L5.75245 29.0414L8.85455 28.843L8.84414 28.6969C8.84414 28.6551 8.72963 27.3394 8.5839 25.5434C9.0211 26.1386 9.56241 27.0053 9.99962 27.7153C10.9053 29.1667 11.051 29.3756 11.2176 29.3756C11.2904 29.3756 11.3633 29.3442 11.4049 29.2816C11.4674 29.1981 11.4986 29.0623 11.4986 28.9161C12.3834 30.2423 12.5292 30.2423 12.6021 30.2423C12.6645 30.2423 12.7166 30.2214 12.7582 30.1692C12.7998 30.1169 12.8207 30.0439 12.8415 29.9603C13.6014 31.2864 13.7471 31.2864 13.82 31.2864H13.8512L13.8825 31.276C13.9865 31.2238 14.0282 31.1194 14.0386 31.0045C14.8193 31.9025 14.8818 31.9025 14.9547 31.9025C15.0171 31.9025 15.0692 31.8712 15.1108 31.8294C15.1524 31.7772 15.1733 31.7146 15.1941 31.631C15.8707 32.623 16.3183 33.1242 16.5161 33.1242C16.5682 33.1242 16.6306 33.1033 16.6618 33.0511C16.7243 32.978 16.7555 32.8214 16.7659 32.6543C16.9221 32.8632 17.0886 33.0824 17.2448 33.26C14.1739 34.7323 12.0399 36.0062 10.7595 37.1339C9.43749 38.3034 9.26053 39.1178 9.26053 39.7652C9.26053 39.9845 9.26053 40.1829 9.26053 40.3813C8.25078 41.0078 7.61579 41.9685 7.61579 43.0753C7.61579 44.3701 8.50062 45.4769 9.83306 46.0721H8.29242V47.8055L4.47205 45.7171V52.9742L8.29242 50.9694V55.6682H15.9436V46.0721H14.3717C15.7354 45.4874 16.641 44.3805 16.641 43.0753C16.641 42.052 16.0789 41.1436 15.1733 40.5171C15.4647 40.2664 15.8915 40.0367 16.4641 39.807C17.2552 39.5042 18.8271 39.7861 19.764 39.9636C20.1179 40.0263 20.3677 40.0785 20.4926 40.0785H20.5239C20.8257 40.0158 21.4816 39.8383 21.8771 39.7235C21.7626 40.0054 21.8459 40.0889 21.8771 40.1203C21.95 40.1934 22.0229 40.2664 23.3033 39.6399C23.1471 40.0054 23.22 40.0785 23.2616 40.1203C23.3033 40.162 23.3553 40.2142 23.8446 40.0472C24.1152 42.3339 24.3755 42.3339 24.4796 42.3339C24.6253 42.3339 24.7606 42.24 24.8647 42.1251C24.8855 43.1693 25.0209 44.5163 25.5205 44.5163C25.6559 44.5163 25.7704 44.4223 25.8536 44.3075C25.8745 44.5998 25.9161 44.9757 25.9682 45.3516C26.1763 46.8344 26.4262 47.0432 26.6448 47.0432H26.676L26.7072 47.0328C26.7905 46.991 26.8738 46.8762 26.9363 46.7509C27.0195 47.0223 27.1445 47.2625 27.2277 47.3982C26.5303 47.9099 22.7515 50.771 21.6481 54.175C20.4198 57.9445 20.1699 60.9936 20.1699 61.4426C20.1699 62.8209 20.5655 63.8129 20.9611 64.7735C21.315 65.6507 21.6481 66.4756 21.6481 67.5406C21.6481 68.4177 21.4399 69.0651 21.0131 69.4724C20.6592 69.8065 20.1803 69.9631 19.5766 69.9318C19.5558 69.9318 19.5349 69.9318 19.5245 69.9318C18.5772 69.9318 16.9637 69.9423 16.641 70.0154C16.2142 70.0258 14.3509 70.4539 14.3509 72.3334C14.3509 73.6909 14.8089 73.8475 14.9026 73.8684H26.7281H26.7385C26.7593 73.8684 29.1223 73.6596 29.1223 71.6443C29.1223 70.9656 28.6226 69.9214 28.5081 69.6812C28.4249 69.3471 28.3416 68.8459 28.4249 67.9061C28.4873 65.0241 29.3305 64.0426 29.7469 63.7293C29.7261 63.8964 29.7365 64.0948 29.8198 64.1992C29.8718 64.2619 29.9447 64.2932 30.0175 64.2932C30.0696 64.2932 30.2257 64.2932 32.1203 62.7165C32.1307 62.9253 32.1619 63.1759 32.2869 63.3117C32.3493 63.3848 32.4326 63.4265 32.5263 63.4265C32.6512 63.4265 32.8074 63.3534 33.0051 63.2386C33.7546 65.8804 35.5659 66.9977 37.0545 67.927C38.8034 68.9816 38.8034 69.2949 38.8034 69.723C38.8034 70.1615 38.2308 70.4748 37.2835 70.5374C36.5861 70.5897 36.1072 70.4435 35.7117 70.3182C35.4931 70.2451 35.2953 70.1929 35.1183 70.1929C33.5985 70.1929 32.9843 71.0491 32.7345 71.7591C32.443 72.4692 32.3806 72.9913 32.5367 73.3254C32.6408 73.5447 32.8073 73.5969 32.8282 73.5969L32.849 73.6074H44.4975C44.8202 73.6074 46.0277 73.2106 46.0277 71.2893C46.0277 69.4515 45.4344 68.2089 44.8618 66.9977C44.4142 66.0683 43.9562 65.1077 43.7688 63.8651C43.3524 61.5574 43.4981 60.2104 43.571 59.8032C43.5918 59.7823 43.6231 59.7614 43.6439 59.7301L43.6543 59.7197C43.8521 59.4899 43.8625 59.302 43.8833 59.1036C43.9041 58.8112 43.9458 58.4249 44.612 57.5478C45.3615 56.5662 46.1734 55.3341 46.6107 54.6762C46.6835 54.5718 46.7356 54.4778 46.7876 54.4048L46.8397 54.3003C48.8071 50.7501 48.8592 46.2914 46.9958 41.0391ZM10.01 43.1275C10.5305 43.4199 11.0718 43.6078 11.6235 43.6809C11.7693 43.7436 11.8734 43.754 11.8838 43.754L11.8942 43.7018C11.9775 43.7018 12.0607 43.7123 12.144 43.7123C12.498 43.7123 12.8519 43.6705 13.2162 43.5765C13.2787 43.587 13.3411 43.587 13.3828 43.587C13.4348 43.587 13.4765 43.587 13.4765 43.587L13.4661 43.5034C13.4765 43.5034 13.4973 43.493 13.5077 43.493C14.7465 43.0127 14.8193 42.3966 14.7673 41.8745C15.0067 42.24 15.1316 42.6576 15.1316 43.1066C15.1316 44.5372 13.7784 45.6649 12.0607 45.6649C10.3952 45.6649 8.98988 44.4954 8.98988 43.1066C8.98988 42.6994 9.11479 42.3131 9.32299 41.9685C9.43749 42.501 9.63528 42.8874 10.01 43.1275Z" fill="white"/>
</svg>
