<svg width="94" height="55" viewBox="0 0 94 55" fill="none" xmlns="http://www.w3.org/2000/svg">
<path d="M39.6296 54.5882C39.6296 54.5882 44.1844 48.8676 44.1844 44.0425C44.1844 43.06 43.9962 38.5209 40.4578 38.5209C38.3623 38.5209 37.5467 39.2546 37.5467 40.0381C37.5467 41.5428 40.2696 39.8515 40.2696 41.8786C40.2696 43.9057 37.9232 44.2041 37.0699 44.2041C36.2167 44.2041 33.7197 43.5699 33.7197 39.665C33.7197 33.9817 42.4152 34.1309 42.4152 30.2633C42.4152 29.6291 42.0764 27.9005 40.4076 27.9005C38.7388 27.9005 38.4753 28.4228 38.4753 28.9327C38.4753 29.9649 40.4076 29.0819 40.4076 30.9224C40.4076 32.763 38.1114 32.5391 37.7726 32.5391C37.4338 32.5391 35.0498 32.2034 35.0498 28.7088C35.0498 24.0204 43.5319 24.3189 43.5319 21.185C43.5319 19.0087 41.8882 18.9714 41.1855 18.9714C40.4703 18.9714 39.5167 19.2326 39.5167 20.0782C39.5167 20.9239 40.1441 20.9985 40.1441 21.8068C40.1441 22.6152 39.065 23.3489 38.0612 23.3489C37.0574 23.3489 35.8654 22.6152 35.8654 20.215C35.8654 15.6759 43.0551 15.8251 43.0551 12.5047C43.0551 11.0621 42.0513 10.5398 41.5243 10.5398C40.9973 10.5398 39.9935 10.7014 39.9935 11.4352C39.9935 12.1689 41.5996 11.9823 41.5996 12.9026C41.5996 13.8229 40.8593 14.5566 39.4791 14.5566C38.1114 14.5566 37.0197 13.4622 37.0197 11.6466C37.0197 7.38101 43.946 7.55512 43.946 5.11765C43.946 3.97354 43.1304 3.42635 42.2395 3.42635C41.3361 3.42635 40.8216 3.71238 40.8216 4.19738C40.8216 4.68239 41.3486 4.79431 41.3486 5.54048C41.3486 6.2742 41.1228 7.04524 39.5292 7.04524C37.9357 7.04524 37.4965 5.82651 37.4965 4.8938C37.4965 3.9611 38.3623 0.0810547 41.6749 0.0810547C44.9749 0.0810547 46.6437 2.22005 46.6437 2.22005L46.7441 2.33198L46.8445 2.22005C46.8445 2.22005 48.5133 0.0810547 51.8259 0.0810547C55.1259 0.0810547 56.0042 3.9611 56.0042 4.90624C56.0042 5.85138 55.5776 7.05767 53.9715 7.05767C52.3654 7.05767 52.1521 6.28664 52.1521 5.55291C52.1521 4.80675 52.6791 4.70726 52.6791 4.20982C52.6791 3.73725 52.1521 3.43879 51.2612 3.43879C50.3578 3.43879 49.5422 3.98597 49.5422 5.13009C49.5422 7.56755 56.4685 7.39345 56.4685 11.659C56.4685 13.4747 55.3768 14.569 54.0091 14.569C52.6289 14.569 51.8886 13.8353 51.8886 12.9151C51.8886 11.9948 53.4947 12.1813 53.4947 11.4476C53.4947 10.7139 52.4909 10.5522 51.9639 10.5522C51.4369 10.5522 50.4331 11.0745 50.4331 12.5171C50.4331 15.85 57.6228 15.6883 57.6228 20.2274C57.6228 22.6276 56.4308 23.3613 55.427 23.3613C54.4232 23.3613 53.3441 22.6276 53.3441 21.8193C53.3441 21.0109 53.9715 20.9239 53.9715 20.0906C53.9715 19.245 53.0053 18.9838 52.3027 18.9838C51.5875 18.9838 49.9563 19.0211 49.9563 21.1975C49.9563 24.3438 58.4384 24.0329 58.4384 28.7213C58.4384 32.2282 56.0669 32.5516 55.7282 32.5516C55.3768 32.5516 53.0806 32.7754 53.0806 30.9349C53.0806 29.0943 55.0129 29.9649 55.0129 28.9451C55.0129 28.4228 54.7494 27.9129 53.0806 27.9129C51.4118 27.9129 51.073 29.6415 51.073 30.2758C51.073 34.1434 59.7685 33.9941 59.7685 39.6774C59.7685 43.5823 57.2841 44.2166 56.4183 44.2166C55.5525 44.2166 53.2186 43.9181 53.2186 41.891C53.2186 39.864 55.9415 41.5428 55.9415 40.0505C55.9415 39.267 55.1259 38.5333 53.0304 38.5333C49.492 38.5333 49.3163 43.0725 49.3163 44.0549C49.3163 48.8801 53.8586 54.6007 53.8586 54.6007H39.6296V54.5882Z" fill="white"/>
<path d="M87.4624 54.5882C87.4624 54.5882 82.9201 48.8676 82.9201 44.0425C82.9201 43.06 83.1084 38.5209 86.6468 38.5209C88.7297 38.5209 89.5453 39.2546 89.5453 40.0381C89.5453 41.5428 86.835 39.8515 86.835 41.8786C86.835 43.9057 89.1814 44.2041 90.0346 44.2041C90.8879 44.2041 93.3848 43.5699 93.3848 39.665C93.3848 33.9817 84.6768 34.1309 84.6768 30.2633C84.6768 29.6291 85.0156 27.9005 86.6844 27.9005C88.3658 27.9005 88.6293 28.4228 88.6293 28.9327C88.6293 29.9649 86.6844 29.0819 86.6844 30.9224C86.6844 32.763 88.9932 32.5391 89.332 32.5391C89.6707 32.5391 92.0548 32.2034 92.0548 28.7088C92.0548 24.0204 83.5726 24.3189 83.5726 21.185C83.5726 19.0087 85.2038 18.9714 85.919 18.9714C86.6217 18.9714 87.5878 19.2326 87.5878 20.0782C87.5878 20.9239 86.9479 20.9985 86.9479 21.8068C86.9479 22.6152 88.0396 23.3489 89.0434 23.3489C90.0472 23.3489 91.2392 22.6152 91.2392 20.215C91.2392 15.6759 84.0494 15.8251 84.0494 12.5047C84.0494 11.0621 85.0532 10.5398 85.5802 10.5398C86.1072 10.5398 87.111 10.7014 87.111 11.4352C87.111 12.1689 85.505 11.9823 85.505 12.9026C85.505 13.8229 86.2453 14.5566 87.6129 14.5566C88.9932 14.5566 90.0723 13.4622 90.0723 11.6466C90.0723 7.38101 83.146 7.55512 83.146 5.11765C83.146 3.97354 83.9741 3.42635 84.865 3.42635C85.7559 3.42635 86.2829 3.71238 86.2829 4.19738C86.2829 4.68239 85.7559 4.79431 85.7559 5.54048C85.7559 6.2742 85.9818 7.04524 87.5878 7.04524C89.1939 7.04524 89.6206 5.82651 89.6206 4.8938C89.6206 3.9611 88.7297 0.0810547 85.4297 0.0810547C82.1297 0.0810547 80.4608 2.22005 80.4608 2.22005L80.3605 2.33198L80.2601 2.22005C80.2601 2.22005 78.5912 0.0810547 75.2912 0.0810547C71.9912 0.0810547 71.1129 3.9611 71.1129 4.90624C71.1129 5.85138 71.5395 7.05767 73.1456 7.05767C74.7517 7.05767 74.9775 6.28664 74.9775 5.55291C74.9775 4.80675 74.4505 4.70726 74.4505 4.20982C74.4505 3.73725 74.9776 3.43879 75.8684 3.43879C76.7719 3.43879 77.5874 3.98597 77.5874 5.13009C77.5874 7.56755 70.6612 7.39345 70.6612 11.659C70.6612 13.4747 71.7403 14.569 73.1205 14.569C74.4882 14.569 75.2411 13.8353 75.2411 12.9151C75.2411 11.9948 73.635 12.1813 73.635 11.4476C73.635 10.7139 74.6388 10.5522 75.1658 10.5522C75.6802 10.5522 76.6966 11.0745 76.6966 12.5171C76.6966 15.85 69.5068 15.6883 69.5068 20.2274C69.5068 22.6276 70.6988 23.3613 71.7026 23.3613C72.7064 23.3613 73.7855 22.6276 73.7855 21.8193C73.7855 21.0109 73.1456 20.9239 73.1456 20.0906C73.1456 19.245 74.1243 18.9838 74.827 18.9838C75.5296 18.9838 77.1734 19.0211 77.1734 21.1975C77.1734 24.3438 68.6787 24.0329 68.6787 28.7213C68.6787 32.2282 71.0627 32.5516 71.4015 32.5516C71.7403 32.5516 74.049 32.7754 74.049 30.9349C74.049 29.0943 72.1167 29.9649 72.1167 28.9451C72.1167 28.4228 72.3802 27.9129 74.049 27.9129C75.7179 27.9129 76.0566 29.6415 76.0566 30.2758C76.0566 34.1434 67.3486 33.9941 67.3486 39.6774C67.3486 43.5823 69.8456 44.2166 70.7114 44.2166C71.5646 44.2166 73.911 43.9181 73.911 41.891C73.911 39.864 71.1882 41.5428 71.1882 40.0505C71.1882 39.267 72.0038 38.5333 74.0867 38.5333C77.6251 38.5333 77.8133 43.0725 77.8133 44.0549C77.8133 48.8801 73.2711 54.6007 73.2711 54.6007H87.4624V54.5882Z" fill="white"/>
<path d="M6.01522 54.5882C6.01522 54.5882 10.5574 48.8676 10.5574 44.0425C10.5574 43.06 10.3692 38.5209 6.83081 38.5209C4.74792 38.5209 3.93233 39.2546 3.93233 40.0381C3.93233 41.5428 6.6426 39.8515 6.6426 41.8786C6.6426 43.9057 4.29621 44.2041 3.44297 44.2041C2.58974 44.2041 0.0927734 43.5699 0.0927734 39.665C0.0927734 33.9817 8.80078 34.1309 8.80078 30.2633C8.80078 29.6291 8.462 27.9005 6.79317 27.9005C5.1118 27.9005 4.86085 28.4104 4.86085 28.9327C4.86085 29.9649 6.79317 29.0819 6.79317 30.9224C6.79317 32.763 4.48442 32.5391 4.14564 32.5391C3.80685 32.5391 1.42281 32.2034 1.42281 28.7088C1.42281 24.0204 9.90497 24.3189 9.90497 21.185C9.90497 19.0087 8.27378 18.9714 7.55857 18.9714C6.85591 18.9714 5.88975 19.2326 5.88975 20.0782C5.88975 20.9239 6.52967 20.9985 6.52967 21.8068C6.52967 22.6152 5.43803 23.3489 4.43423 23.3489C3.43042 23.3489 2.23841 22.6152 2.23841 20.215C2.23841 15.6759 9.42816 15.8251 9.42816 12.5047C9.42816 11.0621 8.42435 10.5398 7.89736 10.5398C7.37036 10.5398 6.36655 10.7014 6.36655 11.4352C6.36655 12.1689 7.97264 11.9823 7.97264 12.9026C7.97264 13.8229 7.23234 14.5566 5.86465 14.5566C4.48442 14.5566 3.40533 13.4622 3.40533 11.6466C3.40533 7.38101 10.3316 7.55512 10.3316 5.11765C10.3316 3.97354 9.50344 3.42635 8.61257 3.42635C7.72169 3.42635 7.19469 3.71238 7.19469 4.19738C7.19469 4.68239 7.72169 4.79431 7.72169 5.54048C7.72169 6.2742 7.49583 7.04524 5.88975 7.04524C4.28366 7.04524 3.85704 5.82651 3.85704 4.8938C3.85704 3.9611 4.74792 0.0810547 8.04793 0.0810547C11.3479 0.0810547 13.0168 2.22005 13.0168 2.22005L13.1171 2.33198L13.2175 2.22005C13.2175 2.22005 14.8863 0.0810547 18.1864 0.0810547C21.4864 0.0810547 22.3647 3.9611 22.3647 4.90624C22.3647 5.85138 21.9381 7.05767 20.332 7.05767C18.7259 7.05767 18.5 6.28664 18.5 5.55291C18.5 4.80675 19.027 4.70726 19.027 4.20982C19.027 3.73725 18.5 3.43879 17.6092 3.43879C16.7183 3.43879 15.9027 3.99841 15.9027 5.14252C15.9027 7.57999 22.829 7.40588 22.829 11.6714C22.829 13.4871 21.7499 14.5815 20.3696 14.5815C19.0019 14.5815 18.2491 13.8478 18.2491 12.9275C18.2491 12.0072 19.8552 12.1938 19.8552 11.46C19.8552 10.7263 18.8514 10.5646 18.3369 10.5646C17.8099 10.5646 16.8061 11.087 16.8061 12.5295C16.8061 15.8624 23.9833 15.7007 23.9833 20.2399C23.9833 22.64 22.7913 23.3738 21.7875 23.3738C20.7837 23.3738 19.7046 22.64 19.7046 21.8317C19.7046 21.0233 20.3445 20.9363 20.3445 20.1031C20.3445 19.2574 19.3658 18.9963 18.6757 18.9963C17.9605 18.9963 16.3168 19.0336 16.3168 21.2099C16.3168 24.3562 24.8115 24.0453 24.8115 28.7337C24.8115 32.2407 22.4274 32.564 22.0886 32.564C21.7499 32.564 19.4411 32.7878 19.4411 30.9473C19.4411 29.1068 21.3734 29.9773 21.3734 28.9575C21.3734 28.4352 21.1099 27.9254 19.4411 27.9254C17.7723 27.9254 17.4335 29.654 17.4335 30.2882C17.4335 34.1558 26.1415 34.0066 26.1415 39.6898C26.1415 43.5948 23.6445 44.229 22.7788 44.229C21.9255 44.229 19.5791 43.9305 19.5791 41.9035C19.5791 39.8764 22.302 41.5553 22.302 40.0629C22.302 39.2795 21.4864 38.5457 19.4035 38.5457C15.8651 38.5457 15.6768 43.0849 15.6768 44.0673C15.6768 48.8925 20.2191 54.6131 20.2191 54.6131H6.01522V54.5882Z" fill="white"/>
</svg>
