<svg width="51" height="71" viewBox="0 0 51 71" fill="none" xmlns="http://www.w3.org/2000/svg">
<path d="M50.2998 37.3815C50.3595 37.351 50.3894 37.351 50.3894 37.351L50.2998 37.3815C50.0906 35.2753 49.7321 33.0471 49.1346 30.7273C48.8657 30.1778 43.6073 36.771 32.7618 36.8931L30.7899 38.6635C36.6757 33.3523 38.0501 28.1327 38.1696 27.4307C38.7671 25.6603 37.4824 26.1487 37.4824 26.1487C37.4824 26.1487 39.4244 19.6471 38.9165 17.8767C38.4385 16.7778 38.08 17.5714 38.08 17.5714C38.08 17.5714 38.7373 12.5655 37.5123 12.5045C36.8251 12.5045 36.4367 12.9929 36.4367 12.9929C36.4367 12.9929 36.8251 7.68169 35.2117 7.3154C34.5843 7.28487 33.9569 8.5974 33.9569 8.5974C33.9569 8.5974 33.3295 3.92724 32.224 3.92724C31.5667 3.92724 31.0887 5.33134 30.999 5.63658C30.999 5.60606 30.999 5.54501 30.9692 5.51448V5.60606C30.9094 5.0261 30.3417 0.996939 29.057 1.08851C28.2205 1.14956 28.101 2.8589 28.101 2.8589C28.101 2.8589 27.4735 0.172792 26.0693 1.21061C25.651 1.76004 27.4138 22.8521 20.3329 31.2462C18.4506 31.2462 17.1061 25.5992 15.6421 23.3405C14.8952 21.9974 9.54715 19.5555 7.30636 22.73C5.63323 22.5163 2.88452 22.3027 1.21139 22.9437C1.062 23.0658 4.94605 25.6908 6.5893 28.438C7.03746 31.2157 8.11304 33.8407 8.23255 34.5122C8.41182 35.6722 8.71059 39.1824 12.3257 44.4631C12.8635 45.2567 13.5806 45.8977 14.3873 46.4471C10.2941 57.8936 -0.0733328 67.0508 0.195563 67.4781C1.54004 69.1569 3.75096 67.2339 3.75096 67.2339C3.75096 67.2339 3.72108 67.2645 3.69121 67.295L3.42231 67.6002C3.45219 67.6002 3.48206 67.5697 3.54182 67.5392C3.18329 68.0886 2.52599 69.2485 2.97415 69.6453C3.90035 70.4084 6.8582 68.6686 7.9039 67.997L7.87403 68.0275C7.87403 68.0275 7.87403 68.0275 7.9039 67.997C8.11304 67.8749 8.23255 67.7834 8.23255 67.7834C8.23255 67.7834 6.8582 69.6148 7.84415 70.0421C9.33801 70.6526 11.788 68.6075 12.5946 67.8749L12.5349 67.9665C12.5349 67.9665 12.6245 67.9055 12.7739 67.7834C12.5648 68.2107 12.1166 69.3401 13.0727 69.6453C14.8056 70.4695 17.6439 66.9592 17.6439 66.9592V66.9897C17.6738 67.2034 17.7933 68.1497 18.3311 68.1802C19.9743 68.2717 22.0956 64.9446 22.0956 64.9446C22.0956 64.9446 22.006 65.6467 22.6633 65.6467C24.3962 65.6467 27.5034 58.5041 27.5034 58.5041C27.5034 58.5041 27.1449 59.664 27.9516 59.4808C30.2222 58.9925 30.9094 53.5592 31.0588 49.2553C39.9025 48.9806 47.2822 56.8863 47.2822 56.8863C47.2822 56.8863 51.465 49.2553 50.2998 37.3815ZM11.6684 27.3086C10.7721 27.3086 10.0849 26.576 10.0849 25.6908C10.0849 24.7751 10.7721 24.0731 11.6684 24.0731C12.5349 24.0731 13.2519 24.7751 13.2519 25.6908C13.2519 26.576 12.5349 27.3086 11.6684 27.3086Z" fill="white"/>
</svg>
