<svg width="81" height="57" viewBox="0 0 81 57" fill="none" xmlns="http://www.w3.org/2000/svg">
<path d="M80.5509 38.2561C80.535 38.1774 80.4875 38.1302 80.4082 38.1145C80.2813 38.083 67.4035 35.2047 60.8854 32.3579C58.8554 31.4771 56.1117 29.8256 54.5734 28.7089C54.5734 28.7089 54.5575 28.7089 54.5575 28.6932C53.0033 27.7966 45.7239 21.5052 44.138 20.0582C43.567 19.5864 42.3459 18.6741 40.9344 17.6203C39.2692 16.3778 37.1916 14.8364 35.4788 13.468C35.4629 13.4365 35.4471 13.4051 35.4153 13.3736C34.3052 12.5086 33.2268 11.5963 32.529 10.9043C31.9739 10.3538 31.3871 9.48871 30.721 8.49781C28.5324 5.25775 25.5667 0.853781 19.445 0.743682C13.4026 0.633583 11.0237 4.2354 10.6114 4.92745C8.56555 4.73871 1.34957 5.93407 1.04824 5.99699C0.953086 6.01272 0.889648 6.09136 0.889648 6.20146C0.889648 6.31156 0.984804 6.37447 1.07996 6.35874C1.1434 6.35874 6.71001 6.18573 10.2942 8.49781C10.3101 8.51354 10.3259 8.545 10.3418 8.56073L10.8651 8.95394C11.4519 9.41006 11.9277 9.88192 12.2925 10.4167C12.7365 11.0773 13.0379 11.8322 13.1806 12.6501C13.1806 12.6659 13.1806 12.6816 13.1965 12.6816C13.3075 12.9647 13.5454 13.8455 13.8784 15.0566C14.7507 18.2809 16.3842 24.3049 18.2397 28.2528C18.541 28.9291 18.89 29.574 19.2706 30.1716C19.4133 30.4076 19.556 30.6278 19.6988 30.8165C20.571 31.9961 22.0142 33.7892 23.9491 35.5665C23.9808 35.5979 24.0284 35.6137 24.0759 35.6137C26.7562 37.9258 29.5315 39.1998 32.3069 39.4042C32.9413 40.0806 34.4479 41.7635 34.5907 42.3769C34.2735 44.0441 28.4848 52.742 27.7236 53.0723C27.454 53.1037 26.217 52.9464 25.0116 52.7892C22.3314 52.4274 20.3807 52.1915 19.8891 52.4431C19.0327 52.8678 18.7472 53.6857 18.7472 53.7329C18.7155 53.8115 18.7472 53.8902 18.8107 53.9373C18.8741 53.9845 18.9534 53.9845 19.0168 53.9373C19.0168 53.9373 19.7781 53.434 20.4124 53.1824C21.031 53.1037 24.2187 53.3239 26.1059 53.5441C25.8998 53.5441 25.6777 53.5441 25.4557 53.5441C23.727 53.5599 21.586 53.5756 20.7296 53.7329H20.7138C19.2864 54.1575 19.2547 55.7304 19.2547 55.7461C19.2547 55.8248 19.3182 55.9034 19.3975 55.9191C19.4767 55.9348 19.5719 55.9034 19.6036 55.8248C19.6036 55.8248 19.9842 55.0855 20.9675 54.5979C21.4592 54.3935 23.5367 54.3777 27.1685 54.5822C27.4223 54.5979 27.5491 54.5979 27.6126 54.5979C27.7077 54.6294 27.8663 54.6451 28.1042 54.6608C28.3897 54.6923 28.7703 54.7238 29.2144 54.8024C29.2619 54.8653 29.3412 54.881 29.4205 54.8496L29.4522 54.8339C30.7844 55.0855 32.0056 55.5574 33.0999 56.2651C33.1316 56.2809 33.1633 56.2966 33.195 56.2966C33.2268 56.2966 33.2585 56.2966 33.2743 56.2809L33.5439 56.155C33.5915 56.1236 33.6391 56.0764 33.6391 56.0135C33.6391 55.9506 33.6232 55.8877 33.5757 55.8562C33.5281 55.809 32.4655 54.881 31.6726 54.3305H39.5229C39.5388 54.3305 39.5546 54.3305 39.5705 54.3305C39.6815 54.2991 39.8084 54.2676 39.967 54.2204C40.3793 54.1103 41.2357 53.8902 41.426 53.9059C41.4419 53.9059 41.4577 53.9216 41.4577 53.9216C42.0763 54.1261 42.0128 54.708 41.997 54.7709C41.9811 54.8496 42.0287 54.944 42.108 54.9754C42.1873 55.0069 42.2824 54.9754 42.33 54.8968C42.3934 54.7867 42.7582 54.189 42.7582 53.8901C42.7582 53.8744 42.7741 53.843 42.7899 53.8115C42.8534 53.6542 42.9802 53.3554 42.7265 52.9936C42.7265 52.9779 42.7106 52.9779 42.7106 52.9622C42.3934 52.6476 41.8225 52.5218 41.3943 52.5218H38.381C39.0788 51.1062 42.3934 44.4373 42.7423 43.7453C42.9327 43.3835 43.5194 42.7859 44.0428 42.2668C44.8199 41.4961 45.1371 41.1501 45.1371 40.9142C45.1371 40.8984 45.1371 40.8827 45.1212 40.8513C45.0261 40.5681 44.7882 40.4109 44.582 40.2693C44.471 40.1907 44.3441 40.112 44.3124 40.0334C44.2966 40.0176 44.2966 40.0019 44.2807 39.9862C44.2331 39.939 44.0587 39.7031 43.8366 39.3885C45.9935 39.3256 47.5794 39.247 47.6111 39.247C47.7539 39.2312 47.96 39.184 48.2297 39.1369C49.9583 39.7975 51.7187 40.4266 53.4791 41.0085L53.5901 41.0715C53.6218 41.0872 53.6694 41.0872 53.7011 41.0872C56.302 41.9365 57.9673 42.3926 57.9831 42.3926C58.0624 42.4084 58.1417 42.3769 58.1893 42.314C58.2369 42.2511 58.221 42.1567 58.1734 42.0938C58.1576 42.0781 56.7144 40.3008 54.6685 37.8471C58.4906 38.2403 71.3525 40.8198 74.4927 41.8579C74.5402 41.8736 74.6037 41.8736 74.6354 41.8421L80.4558 38.4291C80.5192 38.3976 80.5668 38.3347 80.5509 38.2561ZM29.706 53.7801C29.5791 53.7643 29.484 53.7486 29.3888 53.7329C29.4364 53.6385 29.4998 53.5441 29.5791 53.4183C29.5791 53.434 29.595 53.4498 29.6108 53.4655C29.6584 53.5284 29.7536 53.5599 29.8329 53.5284C29.8329 53.5284 29.9439 53.4812 30.0866 53.434C29.9439 53.5127 29.817 53.6385 29.706 53.7801ZM35.4471 53.4969C35.3995 53.5284 35.2885 53.5598 35.1616 53.5598C35.0982 53.5598 34.7175 53.5284 34.2893 53.4969C32.6241 53.3554 31.4347 53.2767 30.8161 53.2767C30.8637 53.2767 30.9113 53.2767 30.9589 53.2767C31.6567 53.1352 35.0506 53.2925 35.4153 53.4812C35.4312 53.4812 35.4471 53.4969 35.4471 53.4969ZM31.7043 51.8612C30.943 51.9713 30.1342 52.6948 29.7853 53.0408C31.1651 50.713 34.6858 44.7362 35.0506 44.0127C35.225 43.8082 35.4788 43.5566 35.7325 43.2892C36.4462 42.5814 36.922 42.0781 36.922 41.6849C36.922 41.3074 36.1607 40.0806 35.8118 39.5143C37.1599 39.5301 38.7617 39.5143 40.6331 39.4672C41.9335 40.5524 42.5679 41.2287 42.6313 41.4018C42.441 41.9837 38.7458 48.2751 36.2559 52.4746C35.5898 52.3645 32.4497 51.7511 31.7043 51.8612Z" fill="white"/>
</svg>
