<svg width="75" height="57" viewBox="0 0 75 57" fill="none" xmlns="http://www.w3.org/2000/svg">
<path d="M21.5276 5.80502C22.2613 3.60626 20.2264 1.72998 20.0601 1.72998C19.8155 1.72998 18.5143 4.41736 18.1817 5.47276C17.9371 6.61612 19.5709 8.89306 19.5709 8.89306C19.5709 8.89306 20.8819 8.00378 21.5276 5.80502Z" fill="white"/>
<path d="M27.2408 9.14723C28.3855 7.19277 26.7516 4.91583 26.5853 4.82788C26.419 4.82788 24.5504 7.10482 24.0612 8.17C23.4938 9.14723 24.6287 11.7564 24.6287 11.7564C24.6287 11.7564 26.0962 11.1799 27.2408 9.14723Z" fill="white"/>
<path d="M73.7114 1.98433C73.4668 1.90615 67.5185 3.28404 62.3823 3.86061C61.0713 4.01696 50.5542 5.31668 44.7625 7.92587C38.9707 10.6133 39.8708 14.444 39.7925 15.4994C40.448 19.5744 42.8939 22.5061 42.8939 22.5061C42.8939 22.5061 41.1818 23.1609 38.8142 20.7178C36.5347 18.2747 36.4466 14.5319 33.7562 14.5319C31.6332 14.5319 29.9211 16.1639 29.9211 16.1639C29.9211 16.1639 29.657 16.3398 28.258 16.7307L28.0427 16.1639C27.6318 14.7762 25.9198 11.4439 18.0148 8.2679C17.3789 8.00405 16.0092 7.75975 14.5124 7.54476C14.9037 7.13432 15.6473 6.16686 16.0582 4.52512C16.6256 2.32636 14.4243 0.616211 14.2678 0.616211C14.1015 0.616211 12.9666 3.30359 12.722 4.44694C12.5362 5.32645 13.5536 6.83138 14.033 7.47635C11.4698 7.12455 8.72065 6.89001 8.72065 6.89001V7.04637C8.01625 6.88024 6.66615 6.70434 5.30627 7.27113C3.27133 8.092 0.65918 10.5351 0.65918 10.5351C0.65918 10.5351 3.67245 11.1019 5.8737 9.96828C7.20423 9.35263 8.12387 8.51221 8.65217 7.9161L8.64238 8.01383C8.64238 8.01383 10.6675 7.96496 13.3188 8.36563C12.6144 8.54153 11.685 8.89333 10.8436 9.56762C9.20982 10.8673 7.41947 13.5547 7.41947 13.5547C7.41947 13.5547 10.3545 12.9 12.1448 11.3559C13.4851 10.193 14.0721 9.079 14.2972 8.53176C15.5005 8.75652 16.7919 9.06923 18.054 9.51876C17.4083 9.59693 16.6452 9.77283 15.8918 10.1344C14.0134 11.0335 11.7339 13.3104 11.7339 13.3104C11.7339 13.3104 14.7472 13.3104 16.8702 12.167C18.1714 11.4146 18.954 10.5742 19.3551 10.0367C19.6976 10.193 20.04 10.3592 20.3726 10.5351C21.5368 11.1019 22.5445 11.7371 23.4152 12.4407C22.7304 12.2843 21.3901 12.0693 19.9715 12.4114C18.0148 12.9781 15.2461 14.7762 15.2461 14.7762C15.2461 14.7762 18.1811 15.343 20.5487 14.6101C22.3586 14.0335 23.3957 13.0856 23.7576 12.7241C25.1175 13.9261 26.0959 15.3626 26.7416 17.1216C26.6144 17.1509 26.4872 17.1802 26.3404 17.2193C26.5068 17.2877 26.6829 17.3561 26.8492 17.4343C27.4068 18.7242 27.6416 20.3367 27.8862 22.1054C27.6612 24.2749 27.1329 25.7212 26.5752 26.7961C26.3894 25.9948 25.91 24.3238 25.1175 23.8938C24.1392 23.327 21.2825 22.5061 21.1259 22.5941C21.0477 22.7602 20.9596 25.5257 23.0826 26.503C24.5403 27.2554 25.7437 27.3043 26.3111 27.275C25.9295 27.9395 25.548 28.4574 25.2838 28.946C24.5501 30.2458 21.7814 33.3436 21.7814 33.3436L22.3488 33.5879C22.3488 33.5879 25.1469 31.7898 27.5144 27.2652C28.0134 27.3238 29.4124 27.3825 31.2321 26.6691C31.7115 26.4541 32.1713 26.1805 32.592 25.8775C32.9442 27.8711 33.5019 30.0992 34.5682 31.4673C35.0183 32.0732 35.5955 32.5911 36.2118 33.0504C35.5759 33.881 34.8715 34.8387 34.1573 35.9528C31.7115 39.6955 33.5018 42.7152 34.4019 44.3374C38.237 48.8131 42.3949 49.546 46.7094 51.0998C51.1119 52.5656 64.7303 56.0641 65.2194 56.1521C65.6303 56.2302 65.7086 55.9859 65.2194 54.9305C64.7303 54.1194 63.7519 53.7872 63.7519 53.7872C63.7519 53.7872 64.1628 53.2986 63.1845 52.077C62.7736 51.5884 61.717 50.9337 61.717 50.9337C61.717 50.9337 62.2844 50.4451 60.8169 48.901C60.4941 48.5785 59.1831 47.6795 59.1831 47.6795C59.1831 47.6795 59.594 47.5134 58.9385 46.3798C58.2048 45.3244 51.1119 41.6598 51.1119 41.6598C51.1119 41.6598 51.2977 39.1288 50.5151 36.5C52.1489 36.3241 53.9882 36.5489 54.8589 36.6075C58.2048 36.93 62.9301 41.005 63.6639 41.4936C64.3194 41.9823 65.0531 42.9595 66.1097 41.8161C66.5989 41.2493 65.9434 40.0278 65.9434 40.0278C65.9434 40.0278 66.6771 39.9496 67 39.2949C67.3228 38.6401 66.5891 37.829 66.5891 37.829C66.5891 37.829 67.4892 37.7509 67.7337 36.8518C68.0566 35.9528 67.0783 35.4641 67.0783 35.4641C67.0783 35.4641 68.1349 34.8974 68.1349 34.1644C68.1349 33.3533 67.2348 32.6204 67.2348 32.6204C67.2348 32.6204 68.3794 32.21 68.2914 31.2328C68.2914 30.2555 67.1467 29.7669 67.1467 29.7669C67.1467 29.7669 68.1251 29.1122 68.0468 28.2229C67.9686 27.3238 66.9022 26.9232 66.9022 26.9232C66.9022 26.9232 67.6359 26.2684 67.3913 25.4573C67.225 24.5583 66.1684 24.4801 66.1684 24.4801C66.1684 24.4801 67.3131 23.4247 66.7359 22.5257C66.413 21.7927 65.3466 22.1152 65.102 22.2813C64.6911 22.5257 59.4766 25.2912 57.0308 25.946C54.5849 26.5127 52.3837 26.4346 52.3837 26.4346C52.3837 26.4346 53.362 25.6235 53.6849 25.2912C56.4536 22.5257 56.1307 17.2291 56.1307 17.2291C56.1307 17.2291 57.5982 16.8186 59.6331 15.7632C61.6681 14.6199 61.7561 13.8088 61.7561 13.8088C61.7561 13.8088 63.8791 12.9097 64.7694 12.5091C67.2152 11.61 66.6478 10.5546 66.6478 10.5546C66.6478 10.5546 69.1719 9.16695 69.5828 8.60016C70.884 7.13432 69.6611 7.37863 69.6611 7.37863C69.6611 7.37863 70.6394 6.89001 71.2949 6.32322C71.9504 5.75643 71.9504 4.93556 71.9504 4.93556C71.9504 4.93556 72.8504 4.12446 73.5842 3.39154C74.2788 2.55112 74.0342 2.06251 73.7114 1.98433ZM30.2538 24.6169C29.207 25.1153 28.4145 25.8775 27.9156 26.4443C27.9351 26.4053 27.9547 26.3662 27.9743 26.3271C29.7353 22.6625 29.3048 19.7894 28.8352 18.392C29.3928 18.6949 29.7646 18.9099 29.7646 18.9099C29.7646 18.9099 31.7995 20.6201 32.1322 22.7406C32.1811 23.0827 32.2398 23.4931 32.3083 23.9426C31.5843 24.1381 30.8506 24.3628 30.2538 24.6169ZM32.7779 18.2649C32.2887 18.2649 31.9659 17.8545 31.9659 17.3659C31.9659 16.8773 32.2887 16.5548 32.7779 16.5548C33.267 16.5548 33.6779 16.8773 33.6779 17.3659C33.6779 17.8545 33.267 18.2649 32.7779 18.2649Z" fill="white"/>
</svg>
