<svg width="87" height="51" viewBox="0 0 87 51" fill="none" xmlns="http://www.w3.org/2000/svg">
<path d="M86.0137 41.6686C85.4553 39.1089 83.4757 38.8188 81.9191 37.4024C79.2457 34.9792 80.0917 30.44 80.3624 27.3V26.7369C82.0544 26.8734 80.9208 25.7471 80.6501 25.0304C79.8041 23.4605 79.5164 21.9076 78.9581 20.4741C76.9784 16.7711 72.7484 14.0748 68.5184 12.6584C64.576 11.3786 59.6354 12.3683 55.4054 11.3786C54.5594 11.2421 53.0028 10.952 52.0214 10.8154C47.3684 9.82568 44.5428 8.39223 40.7358 6.12261C36.5058 3.56289 34.2554 4.55265 29.8731 5.40589C28.3165 5.69599 26.4891 5.11579 25.0848 5.26937C24.5433 2.12945 20.4487 -0.99341 18.1983 2.41955H18.063C16.6586 1.00317 13.2746 1.56631 13.9683 4.12603H13.833C12.8516 4.84275 11.0073 4.12603 9.73832 4.97927C9.17996 5.40589 9.17996 6.12261 8.89232 6.39565C8.04632 7.24889 4.37468 8.10213 3.10568 8.52875C2.12432 8.81885 -0.836681 8.81885 0.567679 10.5253C0.00931911 13.5117 4.79768 12.9485 6.35432 13.3752C10.449 14.7915 3.10568 14.655 1.83668 15.0816C2.68268 17.2147 9.73832 16.225 12.547 17.9315C13.393 18.3581 15.6434 21.6345 16.9124 21.4809C17.8938 21.4809 18.469 22.6243 19.5858 23.3239C20.5671 24.0407 21.7008 24.3137 22.1238 25.7471V25.8837C20.8548 28.1533 21.1424 33.1362 21.2778 36.6857C21.2778 38.3922 21.7008 42.2318 21.1424 43.3751C19.4504 46.498 15.7788 43.3751 13.2408 44.2283C11.5488 44.7915 10.5674 47.0782 12.1071 47.9314C12.5301 47.9314 13.0885 47.9314 13.5115 47.7949H13.6468C17.7415 47.3683 22.6652 50.0645 25.7785 46.3785C26.0661 47.5218 26.6245 46.9416 27.0475 46.8051C29.4501 45.5253 32.5465 39.2625 33.5278 36.5662V36.7028C34.6615 37.4195 38.4685 43.3922 37.7578 45.0986C36.9118 46.8051 32.9695 44.5355 31.2775 45.3887C30.1438 45.9519 29.5855 46.9587 29.5855 48.2386L29.7208 48.3751C29.1625 49.3648 30.2792 50.0816 30.9898 49.3648H31.1252C32.5296 49.6549 34.0862 50.2181 35.6428 50.2181C39.3145 50.2181 41.5648 50.0816 43.9675 47.5218C46.6409 44.5355 47.0638 41.6857 47.3515 37.7096C48.9081 37.8461 50.6001 38.1362 52.0045 37.283H52.1398C52.5628 38.4263 52.8505 38.9894 53.2735 39.7062C53.8318 40.6959 56.7929 42.556 56.2345 44.1089C55.6761 45.9519 51.8691 43.9724 50.4478 44.672C50.0248 44.9621 49.7372 45.5253 49.7372 46.242V46.3785C48.8912 47.0952 49.0266 48.9382 50.2956 48.2215H50.4309C54.2379 48.7846 58.1803 50.4911 61.9873 48.9382C65.5067 47.3683 64.9483 43.5287 66.7757 38.9894V39.126C68.0446 40.4058 69.6013 41.1225 71.4286 41.8222C73.8313 42.6754 78.0613 42.812 78.6197 44.0918C80.447 48.0679 72.1393 45.0816 73.1207 48.7846C72.41 49.928 73.679 50.201 74.3896 49.6379H74.525C78.1966 51.0543 79.7364 49.5014 81.716 47.2147C83.6111 45.0816 86.8597 44.9451 86.0137 41.6686ZM14.5605 7.11237C14.2052 7.16357 13.7991 7.12944 13.3761 7.11237C13.0208 7.09531 12.6655 7.07824 12.344 7.09531C12.4794 7.1977 12.564 7.36835 12.564 7.52193C12.564 7.94855 12.2763 8.08507 12.0056 8.08507C11.5826 8.08507 11.4472 7.94855 11.4472 7.52193C11.4472 7.45367 11.4642 7.36835 11.4811 7.30009C11.3288 7.38541 11.2273 7.50486 11.1427 7.65845C11.0919 7.76084 10.9904 7.8291 10.8889 7.8291C10.8381 7.8291 10.8043 7.81203 10.7535 7.79497C10.6182 7.72671 10.5505 7.53899 10.6182 7.40248C11.1088 6.42978 12.3271 6.48098 13.41 6.53217C13.816 6.54923 14.2052 6.5663 14.5098 6.53217C14.662 6.51511 14.8143 6.63456 14.8312 6.78814C14.8312 6.95879 14.7297 7.09531 14.5605 7.11237Z" fill="white"/>
</svg>
