<svg width="70" height="55" viewBox="0 0 70 55" fill="none" xmlns="http://www.w3.org/2000/svg">
<path d="M28.1572 2.10498C28.184 2.10498 28.2108 2.10498 28.2287 2.10498C28.2108 2.11393 28.184 2.11393 28.1572 2.10498Z" fill="white"/>
<path d="M69.978 38.7146C69.978 38.7146 66.6412 35.1507 64.7103 29.5821C63.7493 26.9091 62.4146 19.8525 58.0368 20.004C55.1627 20.102 53.3742 21.7681 52.4666 22.9442C51.2209 21.9463 49.6104 21.2603 47.5816 21.2603C44.9834 21.2603 40.8369 22.8908 38.3099 22.8908C36.3523 22.8908 34.893 22.6859 33.7808 22.3562C34.021 22.2938 34.2969 22.2047 34.5994 22.0711C32.6685 20.7346 34.0032 20.3604 31.3338 18.7299C34.1545 20.0664 32.891 19.0239 35.5604 19.8436C32.9622 18.3557 34.4481 16.5737 31.2626 15.6827C32.5973 15.9055 33.0422 16.5024 34.5282 16.351C32.7486 14.9432 32.6774 13.7493 30.5953 12.2703C32.5262 13.384 31.0402 12.8672 34.3058 13.7582C31.5652 11.308 32.8198 10.6398 29.8568 9.59732C30.8177 9.82006 30.2305 9.82006 33.2647 10.0428C30.3017 8.48359 31.4851 6.85309 27.3297 5.88192C28.6644 5.65917 27.9971 5.21368 30.5953 5.1424C28.3708 4.91966 27.4098 2.76348 24.7404 2.39818C25.9149 2.39818 25.5679 2.03287 28.1572 2.09524C27.6411 2.07742 26.2708 1.85468 25.7103 1.50719C25.3366 1.28445 24.4467 1.21317 23.3345 0.990424C22.596 0.838957 21.6261 0.767678 20.6651 0.838957C20.4515 0.847866 20.2558 0.892416 20.06 0.963694C19.366 0.803317 18.1914 0.732039 17.8533 0.616211C17.9334 0.785498 18.4673 1.27554 18.9122 1.67648C18.752 1.81904 18.6096 1.9705 18.4762 2.12197C18.4673 2.11306 18.4584 2.10415 18.4495 2.09524C18.0758 1.72103 16.5987 1.8725 16.2962 1.72103C16.5364 2.11306 17.355 2.62983 17.8889 2.94168C17.8266 3.0575 17.7821 3.15551 17.7732 3.20897C17.7732 3.21788 17.7732 3.21788 17.7732 3.22679C17.3105 3.48518 16.6254 3.70792 16.2873 4.18014C15.9135 4.62563 13.9115 7.52133 13.5467 7.96682C13.253 8.34103 11.9895 9.74878 11.7671 9.97153C11.4734 10.2656 11.1709 10.4883 10.8061 10.8625C10.5124 11.1565 10.3612 11.602 10.4324 11.8248C10.4324 12.0475 10.5836 12.199 10.6548 12.493C10.8061 12.787 10.726 13.1612 10.9484 13.384C11.0997 13.6067 11.2421 13.6067 11.4645 13.5355C11.6158 13.4642 11.9806 13.2414 12.2831 13.0187C12.6569 12.7247 13.2441 11.8337 13.4666 12.0564C13.7602 12.4306 12.7992 12.9474 12.5768 13.2414C12.2831 13.4642 12.2031 13.6157 12.2831 13.8384C12.3632 14.0611 12.5768 14.1324 13.1018 13.9097C13.5467 13.7582 13.6178 13.3929 14.0627 13.0187C14.3653 12.7692 16.3673 11.5486 17.6576 10.7734C18.405 11.21 19.1168 11.2724 19.7664 11.1031C19.7664 11.1209 19.7753 11.1476 19.7753 11.1654C19.7753 13.7671 18.2893 14.9521 17.5508 17.6964C16.8834 20.3693 17.0347 23.4877 17.0347 23.4877L17.0258 23.6036C16.2873 24.5035 15.522 25.9558 15.3174 28.2723C14.2852 28.1298 13.0751 27.9783 12.4433 27.9427C11.2599 27.7912 10.4413 27.8714 8.95528 27.6486C7.54939 27.4972 5.54734 26.0181 4.50627 27.1319C3.54528 28.2456 3.9101 29.288 3.99018 29.7335C4.14145 30.1077 5.2537 32.7005 5.54734 33.6717C5.84097 34.6428 6.43714 36.4159 6.81086 37.2356C6.91763 37.4494 7.14898 37.7078 7.44262 37.9662C7.12229 38.6612 6.86424 39.4809 6.1435 40.6481C4.3639 43.2497 2.80674 43.918 2.51311 44.6575C2.21947 45.3257 2.66438 45.7712 2.51311 46.4395C2.36184 47.179 1.55212 47.7046 1.47204 47.8472C1.32077 48.07 1.40086 48.2214 1.24959 48.6669C0.875872 49.3351 0.804688 51.0458 0.804688 51.0458C0.804688 51.0458 4.51517 48.7471 4.58635 48.4442C4.58635 48.1501 4.29271 47.7047 4.29271 47.7047C4.29271 47.7047 3.84781 47.2592 4.07026 46.8137C4.22153 46.3682 4.73762 46.1454 4.73762 46.1454C4.73762 46.1454 5.33378 46.5196 5.6986 45.994C5.99224 45.4772 6.96212 41.6905 8.96418 40.0511C9.46247 39.7304 9.63153 39.668 9.7739 39.6056C9.88958 39.6769 9.96966 39.7304 10.0052 39.7482C10.0764 39.8195 10.7705 40.158 11.4912 40.4699C11.4912 40.4788 11.4912 40.4877 11.4912 40.4877C11.6514 40.5411 11.8027 40.6035 11.9539 40.6659C12.1764 40.755 12.381 40.8352 12.5679 40.8975C12.9149 41.0223 13.1552 41.0846 13.1996 41.0134C13.2708 39.9531 12.3276 38.0731 12.2387 37.9038C13.6534 37.5029 16.2962 37.1287 17.8711 36.701C19.802 36.1041 21.2791 35.4358 21.2791 35.4358C21.2791 35.4358 24.0196 36.7723 28.8424 36.701C31.1203 36.6743 33.4693 36.3001 35.5693 35.81C35.596 35.9526 35.6316 36.1041 35.6672 36.2555C36.3345 38.3315 43.4529 38.8572 44.1203 40.2649C44.7876 41.8242 36.9307 45.5396 36.1121 46.7246C35.6672 47.3928 35.7383 47.8383 35.596 48.2838C35.4447 48.658 34.3325 49.4688 34.0388 50.0658C33.7452 50.6627 33.3715 52.7387 33.3715 52.7387L37.0019 50.5112C37.0019 50.5112 37.2955 49.9945 37.0731 49.6915C36.8506 49.3886 36.6282 49.0946 36.9218 48.6491C37.0731 48.3818 37.4557 48.4709 37.8116 48.6224C37.8116 48.6402 37.8116 48.6491 37.8116 48.6491V48.6224C38.1408 48.7738 38.4433 48.9787 38.4789 49.0144C38.6302 49.0144 38.995 48.9431 39.0751 48.2749C39.1463 47.6066 39.2264 46.3414 40.481 45.3792C41.6644 44.3367 45.9711 41.744 46.2647 41.5212C46.6384 41.2985 48.7829 40.0333 48.9341 39.4452C49.0854 38.8483 48.338 38.8483 47.8219 38.7057C47.377 38.5543 45.3037 37.8147 44.7787 36.4783C44.6542 36.1664 44.5919 35.712 44.5652 35.2131C46.0512 36.1664 48.5159 37.3514 52.4133 38.189C56.1949 39.0087 56.4886 40.9332 56.4886 40.9332C56.4886 40.9332 57.6008 42.6439 58.197 46.5018C58.7931 50.3598 58.1258 51.6963 58.1258 51.6963L57.0046 54.0841L60.9376 53.2644C60.9376 53.2644 60.9376 52.0794 60.7863 51.7052C60.7151 51.2597 60.1901 50.7429 60.1189 50.1459C59.9677 49.6292 60.1901 49.3262 60.4126 49.1035C60.4304 49.0768 60.4571 49.05 60.4838 49.0322C60.7418 48.8095 61.2223 48.7916 61.2223 48.5867C61.2935 48.2927 61.1511 47.9898 61.1511 47.9898C61.1511 47.9898 60.4838 46.5018 60.2613 45.9138C60.1101 45.3168 59.0779 42.1984 58.9978 39.5254C58.9978 36.8525 58.7042 36.4783 58.4016 36.407C58.0279 36.3357 57.8855 36.5585 57.2894 36.5585C56.6932 36.5585 54.8424 35.8189 54.7712 34.4023C54.8424 32.3976 55.8123 31.8808 55.8123 29.2791C55.7678 27.8625 55.0293 25.6172 53.4454 23.8619C53.6768 23.4165 53.9615 22.9977 54.2551 22.8195C55.0738 22.3027 56.4797 21.7771 57.6631 23.6392C58.9978 25.8667 59.5139 28.9851 59.8164 32.7718C60.1101 36.4872 61.8897 39.8284 61.8897 39.8284L62.1121 36.7099L64.4078 41.1648C64.4078 41.1648 63.9629 39.5343 63.8917 36.6386C64.9328 40.0511 67.0772 41.9845 67.0772 41.9845C67.0772 41.9845 66.4099 39.9798 65.5201 37.0841C67.0772 40.0511 68.928 40.6481 68.928 40.6481C68.928 40.6481 68.4119 39.6056 67.2997 37.0841C68.6433 38.4206 69.978 38.7146 69.978 38.7146ZM11.4823 38.189C11.6336 38.0999 11.8471 38.0197 12.1141 37.9395C11.9806 38.0018 11.7137 38.1177 11.4823 38.189ZM10.9573 35.3734C10.1832 35.8189 9.65823 35.7655 9.00867 36.1397C8.80402 35.8902 8.54597 35.516 8.21675 34.928C7.10449 32.9232 6.65959 31.2927 6.65959 31.2927C6.65959 31.2927 6.43714 30.2503 6.88204 29.7335C7.32694 29.2168 10.3701 30.9185 10.9573 31.2927C12.3009 32.2105 14.0094 32.7629 15.1839 33.0658C14.6856 33.2975 14.0983 33.5648 13.6979 33.743C12.8793 34.1884 11.6247 35.0794 10.9573 35.3734Z" fill="white"/>
</svg>
