<svg width="53" height="65" viewBox="0 0 53 65" fill="none" xmlns="http://www.w3.org/2000/svg">
<path d="M7.34214 61.0837C-1.74907 52.6825 -1.08107 44.0212 2.32405 35.7663C4.63759 30.2087 9.11802 25.61 12.0995 20.3287L12.2299 19.9225C13.9895 16.6725 15.6187 13.1462 15.6187 10.7087C16.026 6.64625 11.6759 6.11 11.6759 6.11C10.177 5.98 8.41744 6.11 7.47248 5.83375C7.34214 5.02125 8.56407 4.485 9.3787 4.20875C10.063 3.9325 11.4153 3.6725 12.0995 3.39625C12.9142 2.99 14.0058 0.6825 16.4496 0.6825C20.9301 0.8125 21.207 5.15125 21.207 5.15125C22.152 8.8075 17.4109 18.9637 17.4109 18.9637C17.2805 19.24 16.7266 20.4587 16.7266 20.4587C14.4131 26.9587 10.34 34.8075 12.2462 40.9012L12.3765 41.3075C18.2092 38.5938 13.3215 32.7762 18.0789 28.99C21.207 26.5525 30.4286 20.0525 33.1494 16.5262L33.4264 16.12C37.7765 11.115 41.9799 5.5575 45.5154 0C47.275 2.3075 46.0531 5.41125 46.1997 7.995L46.33 8.53125C47.552 7.995 49.1812 5.41125 49.1812 5.41125C49.8655 8.53125 47.8289 11.635 47.4216 14.755L49.1812 12.7237V14.2187C49.3116 17.0625 46.607 19.5 46.0531 22.2138L48.3666 19.9062V21.255C48.6436 23.8225 45.9227 25.7237 45.3851 28.0312L46.7373 26.9425V28.1612C47.0143 30.4688 44.2935 32.2238 43.3485 34.255L42.2569 35.3438L44.1631 34.6613L43.6255 35.75C43.0878 37.6512 40.644 38.5938 39.6827 40.3487L41.5889 39.5362L41.1816 40.625C40.9046 42.5262 37.7928 44.6875 37.7928 44.8175C37.9231 44.9475 39.0147 44.135 39.0147 44.135C46.884 39.5363 52.456 33.1663 52.8633 33.2962C53.401 33.4263 52.179 36.4162 52.179 36.4162C52.5863 36.6925 50.5498 40.6087 50.8268 41.015C51.1037 41.4212 48.9205 44.6712 49.0672 44.9475C49.1975 45.3537 47.3076 48.4738 45.939 50.0988C41.8659 56.0625 35.0719 61.75 24.3515 64.5938C23.9442 64.5938 22.3149 65 20.2784 65H19.4637C15.2114 64.74 11.0079 63.3912 7.34214 61.0837Z" fill="#FEFEFE"/>
</svg>
