<svg width="42" height="64" viewBox="0 0 42 64" fill="none" xmlns="http://www.w3.org/2000/svg">
<path d="M41.6519 52.4347C41.3023 51.0224 38.3932 50.2032 35.0087 50.4292C34.0297 50.5845 32.8129 51.1495 31.736 51.7427C32.757 47.8869 33.2745 43.1131 33.0227 38.9042C32.5612 32.4355 27.6662 22.5489 25.7921 22.1958C25.5963 22.1535 25.4145 22.1252 25.2326 22.097C25.3166 21.4897 25.3445 20.8541 25.3305 20.2044C25.0928 17.7328 21.946 12.0833 21.7222 11.2641C21.3726 10.3178 21.2607 8.32636 20.911 7.38007C20.6733 6.43378 19.8621 5.37451 19.4006 4.79543C19.3306 4.6542 19.1908 4.47059 18.981 4.24461C19.3446 3.97626 19.5264 3.5243 19.1628 2.78987C18.6314 1.88595 18.2258 2.0978 16.8971 2.35203C16.4216 1.98482 16.002 1.70234 15.7783 1.6176C15.1909 1.3775 11.8203 -0.613948 8.08609 1.15152C7.89029 1.27863 7.66651 1.43399 7.45673 1.63172C7.02317 1.67409 6.46374 1.80121 5.91829 2.14018C5.17705 2.29554 4.44979 2.64863 4.01623 3.38306C3.72253 4.1175 3.79246 4.97904 3.89036 5.52987C3.63861 5.84059 3.42883 6.08069 3.31694 6.20781C2.50577 7.02698 2.50577 7.26708 2.61765 7.50719C2.61765 7.53543 2.71555 7.6343 2.84143 7.74729C2.42185 8.36873 2.04424 9.25853 2.50577 10.106C2.75751 10.5438 3.17708 10.7415 3.62463 10.7839C3.91833 11.137 5.13509 12.6765 5.63858 12.7753C6.04417 12.9166 6.47773 12.733 6.86933 12.7471C6.81338 13.5804 6.71548 14.795 6.57563 15.3741C6.46374 16.4334 5.76445 17.4927 5.52669 18.5519C5.28893 19.4982 5.06516 20.9106 4.8274 21.8428C4.47776 22.902 4.24 22.902 3.89036 24.0743C3.30296 25.8398 3.42883 28.4244 2.95331 30.0769C2.36591 31.6022 1.44285 31.9553 1.09321 33.1417C0.81349 34.1021 0.519789 35.7829 1.33096 36.5455C1.51278 36.715 1.73655 36.8421 2.03025 36.8986C3.66659 37.1387 3.77847 35.4863 4.01623 34.7801C4.25399 34.0739 4.12812 33.7208 4.36587 33.1276C4.8274 31.4751 6.1141 29.9498 6.35185 29.3566C6.36584 29.3283 6.39381 29.286 6.43577 29.2153C6.63157 31.1079 7.00918 32.5627 6.93926 33.9468C6.82737 36.0653 6.12808 38.537 6.23997 41.0086C6.25395 41.6301 6.29591 42.2374 6.36584 42.8306C5.59662 43.1837 4.85538 43.6639 4.49175 44.3136C3.68057 46.0791 4.95328 51.3754 6.58961 54.2002C7.21897 55.0194 8.19797 56.7425 10.114 57.5475C8.91125 58.5644 7.40079 59.9627 7.76442 60.3158C8.00217 60.5559 8.3658 60.3864 8.71545 60.118C8.60356 60.3299 8.5616 60.5276 8.70146 60.6688C8.91125 60.9372 9.30285 60.7253 9.68047 60.4146C9.48466 60.7112 9.41474 61.0078 9.75039 61.1491C10.0721 61.2903 10.4357 61.0926 10.7434 60.8242C10.6315 61.0643 10.6035 61.2762 10.7993 61.3892C11.0511 61.5586 13.6664 59.2424 15.009 58.0136C15.2608 58.1266 15.5265 58.2396 15.8062 58.3384C16.6873 58.6209 17.6244 58.6633 18.3516 58.6209C18.3656 58.635 18.3936 58.6492 18.4076 58.6633C17.0649 59.9062 14.8972 62.0106 15.2188 62.3354C15.4706 62.5191 15.988 62.166 16.4216 61.7987C16.1139 62.1377 15.8622 62.5191 16.03 62.6885C16.2817 62.8157 16.8272 62.3919 17.2887 61.9824C17.023 62.3213 16.8552 62.7027 17.1908 62.9286C17.5684 63.2252 18.2817 62.5614 18.7293 62.053C18.3936 62.4908 18.03 63.084 18.2398 63.2817C18.953 63.6066 20.981 61.4033 22.1837 59.9768C23.89 60.2593 26.3375 60.2593 28.3794 58.5785C28.9529 58.1125 29.4983 57.378 30.0018 56.4459C31.5962 56.6012 33.9178 56.7283 35.8338 56.46C39.0925 55.8527 42.0016 53.8471 41.6519 52.4347Z" fill="white"/>
</svg>
