<svg width="86" height="61" viewBox="0 0 86 61" fill="none" xmlns="http://www.w3.org/2000/svg">
<path d="M85.2229 27.7154C85.4748 27.6357 87.4095 25.5545 83.6309 24.8973C81.7768 24.4791 72.7082 27.0582 72.7082 27.0582C72.7082 27.0582 72.3354 27.3669 71.6905 27.805C72.023 27.5561 72.3152 27.3071 72.5772 27.0681C73.9677 25.9031 74.7234 24.8973 74.7234 24.8973L74.5522 24.977C77.2224 23.3339 77.4541 21.9995 77.434 21.5215C77.434 21.5116 77.434 21.5116 77.434 21.5016C77.434 21.4917 77.434 21.4917 77.434 21.4817C77.4239 21.3821 77.4138 21.3224 77.4138 21.3224H77.3735C77.9479 20.8145 78.3408 20.3365 78.6028 19.9283C79.1872 19.0321 79.157 18.3947 79.1066 18.1956C79.5399 17.8271 79.8825 17.4786 80.1546 17.16C81.0614 16.1044 81.1219 15.2978 81.0111 14.7999C80.9405 14.4514 80.7793 14.2622 80.7793 14.2622C83.8022 11.3544 82.7139 9.86075 82.7139 9.86075C82.7139 9.86075 78.9353 16.7517 62.5614 20.0677C59.6493 20.8643 55.9715 24.1505 56.042 27.0681C55.8506 26.8192 55.7297 26.63 55.6793 26.5404C55.3468 26.1221 53.0796 19.7391 59.3773 18.2454C63.3272 17.3292 66.9345 18.6636 68.7784 16.5824C70.6224 14.5111 68.2746 12.1013 68.3552 11.932C68.587 10.4781 68.5769 8.85499 68.4459 7.31151C68.1739 3.4976 67.2468 0.500244 67.2468 0.500244C67.2468 0.500244 67.2468 0.589866 67.2468 0.759152V0.749194C67.2468 0.789026 67.2468 0.828858 67.2468 0.86869C67.2468 2.82045 67.1259 11.8225 64.8084 13.5253C59.0145 17.3392 50.1978 13.4456 47.0036 24.2301C44.676 32.7741 51.0442 36.5282 56.4955 36.9763C56.6063 38.0418 57.5031 39.1671 57.9162 39.416C59.6796 40.8301 61.3623 41.1587 61.3623 41.1587L61.1104 42.4034L53.0494 56.5139C53.0494 56.5139 52.9688 56.5139 52.6262 56.1853C52.0417 54.9405 50.359 55.6874 50.359 55.6874C50.359 55.6874 51.3666 55.6077 52.4549 56.7629C48.6763 55.2692 48.0011 57.679 48.0011 57.679C48.0011 57.679 50.2683 56.265 52.7874 57.43C49.432 57.1811 49.2607 59.093 49.2607 59.093C49.2607 59.093 50.3489 58.1769 51.3565 58.3462C52.2836 58.4258 52.7874 58.0176 53.3718 58.0176C53.8756 58.0176 54.3794 58.3462 54.712 58.2665C54.9639 58.2665 55.7196 57.7686 55.7196 57.7686C55.7196 57.7686 55.8002 57.7686 56.5559 57.6889C55.8808 56.8624 54.5407 57.44 54.5407 57.44C54.5407 57.44 53.9562 57.3603 54.2887 56.7728C60.7577 45.8987 63.0249 42.0848 63.8612 40.6707C64.365 39.3463 62.8536 40.4218 61.846 38.2609C61.4328 37.1158 61.5941 37.0958 61.5941 36.3789C61.9165 36.2992 62.2389 36.2195 62.5614 36.1399C63.0753 37.2552 64.2643 37.9821 64.5363 38.0916C66.2997 39.5853 70.7534 39.416 70.9146 40.7504C70.9146 41.1687 70.6627 41.4973 70.6627 41.4973C70.6627 41.4973 62.3498 57.679 61.4228 57.679C61.4228 57.679 61.2515 57.7587 60.9995 57.43C60.3244 56.1853 58.7324 56.8525 58.7324 56.8525C58.7324 56.8525 59.6594 56.8525 60.7476 57.9279C56.969 56.5139 56.2939 58.8441 56.2939 58.8441C56.2939 58.8441 58.5611 57.43 61.0802 58.5951C57.7248 58.3462 57.5535 60.2581 57.5535 60.2581C57.5535 60.2581 58.7324 59.342 59.6493 59.5113C60.657 59.6805 61.0802 59.1826 61.6646 59.1826C62.249 59.1826 62.7528 59.5113 63.0047 59.4316C63.3372 59.4316 64.0124 59.0134 64.0124 59.0134C64.0124 59.0134 64.093 59.0134 64.8487 58.8441C64.2643 58.0972 62.914 58.5951 62.914 58.5951C62.914 58.5951 62.3296 58.5155 62.5815 57.9279C69.0505 47.0538 73.081 40.9197 73.3329 39.675C73.0004 38.8484 72.8291 39.3463 71.2371 38.1016C70.5317 37.7132 69.121 36.3291 67.8615 35.0843C70.3503 34.696 72.7283 34.4968 75.0963 34.5366C79.8019 34.5366 82.4822 36.5282 82.4822 36.5282C82.4822 36.5282 84.4974 37.6037 83.7417 35.0345C84.7494 34.9549 85.1726 33.3715 84.4974 33.0429C85.1726 32.9633 86.0089 31.6289 84.9207 30.4738C85.3035 30.5435 86.8956 29.0498 85.2229 27.7154Z" fill="white"/>
<path d="M29.621 36.9863C35.0824 36.5382 41.4405 32.784 39.1129 24.2401C35.9288 13.4456 27.112 17.3492 21.3182 13.5253C19.0006 11.8225 18.8797 2.82045 18.8797 0.86869C18.8797 0.828858 18.8797 0.789026 18.8797 0.749194C18.8797 0.749194 18.8797 0.749194 18.8797 0.759152C18.8797 0.589866 18.8797 0.500244 18.8797 0.500244C18.8797 0.500244 17.9527 3.4976 17.7008 7.33142C17.5698 8.87491 17.5597 10.4981 17.7915 11.9519C17.8721 12.1212 15.5243 14.5211 17.3683 16.6023C19.2122 18.6736 22.8296 17.3492 26.7694 18.2653C33.0671 19.759 30.7999 26.152 30.4674 26.5603C30.417 26.6499 30.2961 26.8391 30.1047 27.0881C30.1752 24.1704 26.4974 20.8743 23.5853 20.0876C7.21137 16.7616 3.43277 9.88066 3.43277 9.88066C3.43277 9.88066 2.34453 11.3744 5.36741 14.2821C5.36741 14.2821 5.20619 14.4613 5.13566 14.8198C5.03489 15.3078 5.09535 16.1144 5.99214 17.1799C6.2642 17.4985 6.59672 17.847 7.04008 18.2155C6.98969 18.4147 6.95947 19.052 7.54389 19.9482C7.80587 20.3664 8.19885 20.8344 8.7732 21.3423H8.72281C8.72281 21.3423 8.70266 21.4021 8.70266 21.5016C8.70266 21.5016 8.70266 21.5116 8.70266 21.5215C8.70266 21.5315 8.70266 21.5315 8.70266 21.5415C8.68251 22.0194 8.91426 23.3538 11.5845 24.9969L11.4132 24.9172C11.4132 24.9172 12.1689 25.923 13.5494 27.0781C13.8113 27.3171 14.1136 27.566 14.4361 27.815C13.7912 27.3768 13.4184 27.0681 13.4184 27.0681C13.4184 27.0681 4.34971 24.499 2.50575 24.9073C-1.27286 25.5744 0.661788 27.6457 0.913695 27.7254C-0.769045 29.0498 0.833084 30.5435 1.1656 30.4638C0.0773632 31.6289 0.913695 32.9533 1.58881 33.033C0.913695 33.3616 1.3369 34.9449 2.34453 35.0246C1.58881 37.5937 3.60406 36.5183 3.60406 36.5183C3.60406 36.5183 6.37504 34.5267 10.99 34.5267C13.3579 34.4868 15.7359 34.686 18.2247 35.0744C16.9652 36.3191 15.5646 37.7033 14.8492 38.0916C13.2571 39.3364 13.0858 38.8385 12.7533 39.665C13.0052 40.9097 17.0357 47.0538 23.5047 57.918C23.7566 58.4955 23.1722 58.5852 23.1722 58.5852C23.1722 58.5852 21.8321 58.0873 21.2376 58.8341C21.9933 59.0034 22.0739 59.0034 22.0739 59.0034C22.0739 59.0034 22.749 59.4216 23.0815 59.4216C23.3334 59.5013 23.8372 59.1727 24.4217 59.1727C25.0061 59.1727 25.4293 59.6706 26.4369 59.5013C27.3639 59.332 28.5328 60.2481 28.5328 60.2481C28.5328 60.2481 28.3615 58.3362 25.0061 58.5852C27.5252 57.4201 29.7923 58.8341 29.7923 58.8341C29.7923 58.8341 29.1172 56.5139 25.3386 57.918C26.4268 56.8425 27.3539 56.8425 27.3539 56.8425C27.3539 56.8425 25.7618 56.1753 25.0867 57.4201C24.8348 57.7487 24.6635 57.669 24.6635 57.669C23.7365 57.669 15.4235 41.4873 15.4235 41.4873C15.4235 41.4873 15.1716 41.1587 15.1716 40.7405C15.3429 39.416 19.7866 39.5754 21.5499 38.0817C21.822 37.9721 23.011 37.2552 23.5249 36.1299C23.8473 36.2096 24.1597 36.2892 24.4922 36.3689C24.4922 37.0859 24.6534 37.1058 24.2403 38.251C23.2327 40.4118 21.7212 39.3264 22.225 40.6608C23.0614 42.0748 25.3285 45.8887 31.7975 56.7629C32.13 57.3404 31.5456 57.43 31.5456 57.43C31.5456 57.43 30.2055 56.8525 29.5303 57.679C30.2861 57.7586 30.3667 57.7586 30.3667 57.7586C30.3667 57.7586 31.1224 58.2565 31.3743 58.2565C31.7068 58.3362 32.2106 58.0076 32.7144 58.0076C33.2989 58.0076 33.8027 58.4258 34.7297 58.3362C35.7373 58.1669 36.8256 59.0831 36.8256 59.0831C36.8256 59.0831 36.6543 57.1711 33.2989 57.4201C35.8179 56.255 38.0851 57.669 38.0851 57.669C38.0851 57.669 37.4402 55.2692 33.6616 56.7629C34.7499 55.5978 35.7575 55.6874 35.7575 55.6874C35.7575 55.6874 34.0747 54.9405 33.4903 56.1853C33.1578 56.5139 33.0671 56.5139 33.0671 56.5139L25.0061 42.4034L24.7542 41.1587C24.7542 41.1587 26.4369 40.8301 28.2003 39.416C28.6134 39.1771 29.5203 38.0418 29.621 36.9863Z" fill="white"/>
</svg>
