<svg width="82" height="68" viewBox="0 0 82 68" fill="none" xmlns="http://www.w3.org/2000/svg">
<path d="M81.6588 8.6303C81.3853 4.21565 71.7765 2.32625 66.2155 2.78043C65.4315 2.83493 64.7021 2.9621 64.1187 3.10744C59.3781 4.39732 47.472 9.81117 45.6305 18.0591C43.789 26.3071 44.4818 32.2296 43.789 35.536C43.2602 37.9886 42.0569 39.7509 41.1635 40.7864C37.2616 36.4081 30.4243 35.6814 27.9446 34.882C25.155 33.9918 19.9221 31.0306 18.3176 27.7786C17.6248 26.5796 17.7159 23.5275 18.117 22.3466C18.4817 21.2747 22.2559 19.1492 23.6234 18.7676C23.3134 19.2763 22.9305 19.4035 22.9305 19.4035C22.9305 19.4035 23.2587 19.4217 23.6781 19.4035C23.2952 20.112 22.0736 22.4738 22.4018 23.4185L23.7328 19.4035C23.8604 19.4035 23.988 19.3853 24.1339 19.3672C23.8787 20.2574 23.2223 22.7463 23.6963 23.9453L24.2068 19.3672C24.3527 19.349 24.4986 19.3308 24.6444 19.2945C24.608 20.1847 24.5897 22.5464 25.5196 23.909L24.7174 19.2763C24.7903 19.2582 24.8815 19.24 24.9544 19.2037C25.7566 18.9311 25.8478 18.5678 25.8478 17.7139C25.8478 17.5323 25.7566 17.3688 25.6108 17.2053C26.5224 16.4422 28.3639 14.7345 28.6921 12.8996L25.5014 17.0781C25.3555 16.9509 25.1914 16.8237 25.0091 16.7147C25.9207 15.4249 27.744 12.7906 27.9264 12.1548L24.9726 16.6966C24.8268 16.6057 24.6991 16.5331 24.5533 16.4604C25.2826 15.1887 26.1578 12.6998 26.1031 12.1366L24.4621 16.4059C24.0974 16.2424 23.8239 16.1334 23.8239 16.1334C23.8239 16.1334 23.9698 16.4786 23.988 17.0599C23.2587 15.9517 19.4116 12.2819 19.4116 12.2819C19.4116 12.2819 20.1956 5.6872 19.1199 5.17851H19.1016L20.0497 0.509521C19.284 1.50872 19.1199 4.50632 19.0834 5.17851C18.9558 5.14218 18.8099 5.19668 18.6458 5.32385V0.673027C18.0441 2.67143 18.4635 4.77883 18.6093 5.36019C17.406 6.43206 15.5827 11.5007 15.1633 11.5007C14.6528 11.5007 12.3737 3.99764 11.8996 5.6872C10.4045 8.64847 10.915 13.1903 10.915 13.1903C10.915 13.1903 9.72991 14.2803 8.52654 15.77C4.69762 20.5117 4.86172 27.8149 4.86172 27.8149C4.86172 27.8149 4.51529 34.446 7.99778 39.9689C7.56019 43.4752 6.61208 50.1062 5.5728 51.6323C4.1324 53.7397 1.59803 54.9387 1.06927 56.1014C0.540519 57.2641 2.12678 57.6456 3.42132 56.9734C4.73409 56.2831 9.20115 51.9956 10.1857 50.6512C10.8056 49.8155 12.082 47.0904 12.9571 45.201L12.9754 45.2192C12.5925 48.2531 12.2278 51.5051 11.8449 52.2136C10.1857 56.1741 8.7271 57.9908 6.68501 58.9355C3.36662 60.7522 4.53353 62.787 6.79441 61.8241C8.30774 61.4971 11.7355 59.8984 15.6921 55.8289C17.4424 54.0303 18.2629 51.5414 18.6093 49.3432C18.8464 49.4522 19.0287 49.5249 19.1928 49.5975C19.5757 49.761 20.6514 50.3605 22.1465 50.9601C22.1283 52.1228 22.1465 53.7215 22.42 54.6662C22.9123 56.2649 25.4284 57.9908 25.9207 58.9355C26.3948 59.8984 20.5967 63.1685 20.3962 64.3857C20.1956 65.6029 21.089 65.7119 22.657 65.076C24.2068 64.422 27.6893 60.6796 30.2055 59.7712C30.8436 59.535 31.4453 59.3352 31.9923 59.1717C32.5028 59.8257 32.7763 60.2981 32.5758 60.7522C32.0652 61.8423 30.0049 62.133 29.3121 62.5326C28.6192 62.9323 25.2461 65.1124 25.7384 66.3841C26.1213 67.347 26.3766 67.4196 28.1269 66.9836C29.7132 66.5839 31.5729 65.0034 34.0709 63.9315C36.9881 62.6961 39.8689 61.6969 39.8142 61.1701C39.7048 60.1891 38.228 59.0082 38.228 58.118C38.228 57.2278 41.0541 56.4466 42.768 54.4664C43.6249 53.4853 44.3907 51.9956 44.5183 50.0335C46.8704 50.1062 49.9882 50.0154 51.8662 49.1797C55.1663 47.7445 60.3992 44.4562 61.8396 40.1324C63.28 35.8086 60.3992 29.0867 63.1341 24.5267C65.9055 19.9303 71.1384 17.2053 73.9462 16.4786C74.5297 16.3332 75.2043 16.1334 75.9154 15.8609C78.6686 14.789 81.914 12.6453 81.6588 8.6303Z" fill="white"/>
<path d="M21.254 0.945557L19.4307 5.26937C19.4307 5.26937 21.254 1.54508 21.254 0.945557Z" fill="white"/>
<path d="M14.233 0.636719L12.9385 6.0324C12.9385 6.01423 14.5065 3.45265 14.233 0.636719Z" fill="white"/>
<path d="M22.4391 1.69019L19.6495 5.48715C19.6313 5.48715 22.3297 2.2352 22.4391 1.69019Z" fill="white"/>
<path d="M11.7722 0.563965C11.6081 1.36333 11.8816 4.46993 12.1004 5.16029L11.7722 0.563965Z" fill="white"/>
<path d="M10.5319 1.27222C10.3131 1.96257 11.2794 5.17818 11.6623 5.70503L10.5319 1.27222Z" fill="white"/>
<path d="M13.0483 0.30957L12.5742 5.74159C12.5742 5.74159 13.1577 0.727418 13.0483 0.30957Z" fill="white"/>
</svg>
