<svg width="78" height="54" viewBox="0 0 78 54" fill="none" xmlns="http://www.w3.org/2000/svg">
<path d="M77.0358 25.4824C76.9743 25.368 76.8358 25.3222 76.7128 25.3603C76.7743 25.2764 76.782 25.1619 76.7282 25.0703C76.6589 24.9558 76.5128 24.9024 76.3897 24.9558C76.3282 24.9635 75.7821 25.0245 73.8667 24.0552C73.1052 23.6736 72.4284 22.9714 71.713 22.2311C71.2899 21.7961 70.8361 21.3229 70.3207 20.8726C70.6823 21.1702 71.0207 21.4679 71.3438 21.7655C72.1437 22.483 72.8976 23.1622 73.7744 23.5286C76.0436 24.475 76.6743 24.3223 76.8358 24.2079C76.9589 24.1239 76.9897 23.956 76.9128 23.8339C76.8358 23.7194 76.6897 23.6812 76.5666 23.7423C76.5051 23.7576 75.9667 23.8568 73.9821 23.0325C73.7283 22.9256 73.4821 22.7883 73.236 22.628C73.3668 22.689 73.4975 22.7501 73.636 22.8035C75.9359 23.6583 76.5589 23.4828 76.7205 23.3683C76.8435 23.2844 76.8666 23.1164 76.782 22.9943C76.7051 22.8875 76.5512 22.8493 76.4359 22.918C76.3743 22.9333 75.8436 23.0554 73.8283 22.3074C73.0283 22.0098 72.2822 21.3916 71.4899 20.7275C69.9823 19.4759 68.1055 17.9112 64.9364 17.8654C64.8979 17.8654 64.8595 17.8654 64.821 17.8654C62.8595 17.8654 61.0058 18.6668 59.4443 20.178C58.8597 20.7428 58.4213 21.3152 58.1213 21.7503C57.8136 21.651 57.5367 21.5595 57.2598 21.4679C54.5445 20.5673 53.3061 20.1551 46.0449 22.7119C43.5527 23.6125 41.8374 23.521 40.3682 22.8951C40.4144 22.9027 40.4528 22.9104 40.499 22.9256C40.6451 22.9562 40.7913 22.8722 40.822 22.7272C40.8528 22.5822 40.7682 22.4372 40.6221 22.4066C40.5759 22.399 40.5374 22.3914 40.4913 22.3761C40.5913 22.3608 40.6913 22.3227 40.7913 22.254C40.9144 22.17 40.9451 22.0021 40.8682 21.88C40.8528 21.8571 40.8297 21.8342 40.8144 21.819C40.8144 21.819 40.822 21.819 40.822 21.8113C40.9605 21.7503 41.0143 21.59 40.9528 21.4602C40.9067 21.361 40.8067 21.3076 40.7067 21.3076C40.822 21.3 40.9374 21.2771 41.0528 21.2465C41.199 21.2084 41.2836 21.0634 41.2451 20.9184C41.2066 20.7733 41.0605 20.6894 40.9144 20.7275C40.6682 20.7886 40.4605 20.7886 40.2298 20.7657C40.4605 20.7428 40.7374 20.697 41.0836 20.6054C41.2297 20.5673 41.3143 20.4223 41.2759 20.2772C41.2374 20.1322 41.0913 20.0483 40.9451 20.0864C39.9605 20.3459 39.6913 20.2238 39.4375 20.1017C39.3144 20.0406 39.1683 19.9796 38.976 19.9567C38.7529 19.9338 38.4068 19.9796 38.0606 20.0406C38.0452 19.9643 38.0299 19.8804 38.0145 19.804C38.2683 19.6972 38.576 19.6132 38.8991 19.6361C39.2375 19.659 39.499 19.7582 39.7529 19.8651C40.1759 20.033 40.6221 20.2086 41.2913 19.9491C41.4297 19.8956 41.4989 19.743 41.4451 19.6056C41.3913 19.4682 41.2374 19.3995 41.099 19.453C40.6221 19.6361 40.3451 19.5216 39.9529 19.369C39.6759 19.2545 39.3529 19.1324 38.9298 19.1019C38.5529 19.079 38.2068 19.1553 37.9068 19.2698C37.8914 19.1935 37.876 19.1171 37.8606 19.0332C38.1606 18.9645 38.4298 18.9263 38.6221 18.934C38.8529 18.9416 39.0375 19.0103 39.2606 19.0866C39.6759 19.2316 40.1375 19.3919 40.9759 19.2011C41.122 19.1706 41.2143 19.0256 41.1759 18.8805C41.1451 18.7355 40.999 18.6439 40.8528 18.6821C40.1682 18.8347 39.8144 18.7126 39.4375 18.5829C39.199 18.4989 38.9606 18.415 38.6452 18.3997C38.4068 18.3921 38.0914 18.4379 37.7683 18.5066C37.753 18.4073 37.7299 18.3081 37.7145 18.2013C37.9914 18.1555 38.2606 18.1249 38.4683 18.1326C38.6837 18.1402 38.8298 18.2089 39.0144 18.2929C39.276 18.415 39.599 18.56 40.1605 18.56C40.3221 18.56 40.5067 18.5447 40.7067 18.5218C40.8528 18.4989 40.9605 18.3692 40.9374 18.2242C40.9144 18.0792 40.7836 17.9723 40.6374 17.9952C39.8682 18.102 39.5529 17.957 39.2452 17.812C39.0298 17.7128 38.8144 17.6136 38.4914 17.5983C38.2452 17.5907 37.9376 17.6212 37.6222 17.6746C37.6145 17.6288 37.6068 17.5754 37.5991 17.5296C37.8991 17.4533 38.2145 17.3999 38.4837 17.4304C38.8375 17.4686 39.0606 17.5602 39.2913 17.6594C39.6375 17.8044 39.999 17.9647 40.7067 17.8654C40.8528 17.8426 40.9528 17.7128 40.9374 17.5602C40.922 17.4457 40.8374 17.3617 40.7374 17.3388C40.8067 17.3388 40.8759 17.3465 40.9528 17.3465C41.099 17.3465 41.222 17.2243 41.222 17.0793C41.222 16.9343 41.099 16.8122 40.9528 16.8122C40.4759 16.8122 40.1759 16.7282 39.8375 16.629C39.5144 16.5374 39.1452 16.4306 38.576 16.3848C38.4914 16.3772 38.4068 16.3772 38.3222 16.3772C38.6452 16.3161 38.9529 16.2627 39.1914 16.255C39.5836 16.2321 39.7144 16.3085 39.8682 16.4153C40.0682 16.5451 40.3221 16.7053 40.9528 16.6519C41.099 16.6367 41.2066 16.5069 41.199 16.3619C41.1836 16.2169 41.0528 16.11 40.9067 16.1177C40.4605 16.1558 40.3298 16.0719 40.1682 15.965C39.9759 15.8429 39.7298 15.6826 39.1606 15.7208C38.8144 15.7437 38.3606 15.82 37.9068 15.9192C38.3068 15.8047 38.7298 15.7131 39.0914 15.6979C39.6144 15.6826 39.9375 15.7666 40.2221 15.8353C40.4913 15.904 40.7451 15.9726 41.0759 15.9345C41.222 15.9192 41.3297 15.7895 41.3143 15.6445C41.299 15.4994 41.1682 15.3926 41.022 15.4079C40.7836 15.4308 40.6067 15.385 40.3605 15.3239C40.0528 15.2476 39.6759 15.1484 39.076 15.1636C38.9375 15.1713 38.7837 15.1865 38.6298 15.2094C38.8068 15.1636 38.9914 15.1331 39.1606 15.1178C39.8298 15.0568 40.0682 15.1178 40.2836 15.1713C40.5374 15.2323 40.7836 15.2934 41.4682 15.1713C41.6143 15.1484 41.7143 15.0033 41.6835 14.8583C41.6528 14.7133 41.5143 14.6141 41.3682 14.6446C40.799 14.7439 40.6221 14.7057 40.4067 14.6523C40.1682 14.5912 39.8682 14.5225 39.1067 14.5836C38.4529 14.637 37.753 14.8889 37.1684 15.156C37.153 15.0797 37.1376 14.9957 37.1222 14.9194C37.753 14.6599 38.5145 14.3851 39.0221 14.3546C39.3837 14.3393 39.6913 14.3546 39.999 14.3775C40.5836 14.4157 41.1374 14.4462 41.8758 14.1943C42.0143 14.1485 42.0912 13.9959 42.0374 13.8509C41.9912 13.7135 41.8374 13.6372 41.6912 13.6906C41.0605 13.9119 40.5836 13.8814 40.0298 13.8509C39.7144 13.828 39.3836 13.8127 38.9914 13.828C38.4375 13.8585 37.6606 14.1256 37.0068 14.3928C36.9761 14.2554 36.9453 14.118 36.9145 13.9806C37.4299 13.8051 38.0299 13.6448 38.4683 13.6601C38.7068 13.6677 38.9529 13.683 39.2221 13.6982C40.1298 13.7517 41.0759 13.8051 41.6912 13.5456C41.8297 13.4922 41.8912 13.3319 41.8374 13.1945C41.7835 13.0571 41.622 12.9961 41.4836 13.0495C40.9759 13.2632 40.0605 13.2098 39.2529 13.164C38.9837 13.1487 38.7221 13.1334 38.4837 13.1258C37.9837 13.1105 37.3453 13.2708 36.7915 13.454C36.7838 13.4235 36.7761 13.4006 36.7684 13.37C37.0222 13.309 37.3068 13.2403 37.6068 13.164C38.1529 13.0266 38.776 12.8663 38.9683 12.8892C39.1144 12.9045 39.2837 12.935 39.4529 12.9579C40.0144 13.0495 40.599 13.1411 41.0067 12.9197C41.1374 12.8434 41.1836 12.6831 41.1067 12.5534C41.0297 12.4236 40.8682 12.3779 40.7374 12.4542C40.499 12.5916 39.9913 12.5076 39.5375 12.4313C39.3606 12.4007 39.1837 12.3702 39.0144 12.355C38.7452 12.3321 38.2529 12.4465 37.4683 12.645C37.2453 12.6984 36.9453 12.7747 36.6376 12.8434C36.6299 12.8129 36.6222 12.7824 36.6145 12.7518C37.4299 12.5458 38.3606 12.3092 38.6606 12.2328C38.8529 12.1794 39.2375 12.2252 39.6144 12.2634C40.2221 12.3321 40.8528 12.4007 41.2759 12.187C41.4066 12.1184 41.4605 11.9581 41.3989 11.8283C41.3297 11.6986 41.1682 11.6452 41.0374 11.7062C40.7528 11.8436 40.1836 11.7825 39.6759 11.7291C39.2144 11.6757 38.8144 11.6375 38.5222 11.7138C38.2299 11.7902 37.2991 12.0268 36.4838 12.2328C37.2453 11.9657 38.1376 11.668 38.4914 11.5917C38.7991 11.523 39.176 11.5612 39.5452 11.5917C39.9682 11.6299 40.4144 11.668 40.7913 11.5612C40.9374 11.523 41.0143 11.3704 40.9759 11.233C40.9374 11.088 40.7836 11.0117 40.6451 11.0498C40.3605 11.1338 39.9836 11.0956 39.5913 11.0651C39.1837 11.0269 38.7683 10.9964 38.3837 11.0804C38.0068 11.1643 37.1145 11.462 36.3453 11.7291C36.3222 11.6604 36.3069 11.5841 36.2838 11.5154C36.7145 11.4543 37.2376 11.3628 37.453 11.2941C37.576 11.2559 37.7683 11.172 37.9837 11.088C38.3914 10.9201 39.0683 10.6377 39.3144 10.6377C39.4529 10.6377 39.6836 10.6682 39.9298 10.6911C40.5451 10.7674 40.9682 10.8056 41.2297 10.714C41.3682 10.6606 41.4451 10.5079 41.3913 10.3706C41.3374 10.2332 41.1836 10.1569 41.0451 10.2103C40.8913 10.2637 40.3451 10.2027 39.9913 10.1569C39.7298 10.1263 39.4836 10.0958 39.3144 10.0958C38.9837 10.0958 38.4452 10.3095 37.776 10.5919C37.5683 10.6759 37.3914 10.7522 37.2837 10.7827C37.1145 10.8361 36.6761 10.9125 36.2607 10.9735C37.0914 10.5232 38.2452 9.92789 38.6914 9.92789C39.0452 9.92789 39.2913 9.98132 39.5606 10.0347C39.9298 10.1111 40.3144 10.1874 40.9451 10.1111C41.0913 10.0958 41.199 9.95842 41.1836 9.81341C41.1682 9.6684 41.0297 9.56154 40.8836 9.57681C40.8144 9.58444 40.7451 9.59207 40.6759 9.59971C40.7067 9.59971 40.7297 9.59207 40.7605 9.59207C40.9067 9.57681 41.0143 9.43943 40.9913 9.29442C40.9759 9.1494 40.8374 9.04255 40.6913 9.06545C40.4144 9.10361 40.2221 9.11124 40.0759 9.11887C40.1529 9.06545 40.199 8.96623 40.1913 8.85938C40.1682 8.71436 40.0375 8.61514 39.8836 8.63041C39.5221 8.68383 39.2298 8.63041 38.9144 8.57698C38.4991 8.50829 38.076 8.4396 37.553 8.61514C37.5453 8.61514 37.5299 8.62278 37.5222 8.63041C36.9914 8.88227 36.2223 9.09598 35.5992 9.27152C35.5607 9.27915 35.5223 9.29442 35.4838 9.30205C35.4761 9.28678 35.4761 9.27915 35.4684 9.26389C36.2607 8.79832 37.2068 8.28696 37.6145 8.1801C37.9222 8.09615 38.0683 8.12668 38.2991 8.16484C38.6145 8.21827 38.9991 8.27932 39.8452 8.12668C39.9913 8.09615 40.0836 7.95877 40.0605 7.81376C40.0298 7.66874 39.8913 7.57716 39.7452 7.60005C38.9991 7.73743 38.676 7.68401 38.3914 7.63821C38.1376 7.59242 37.8914 7.55426 37.476 7.66874C37.0068 7.79086 36.03 8.32512 35.2454 8.77542C35.1992 8.6762 35.1531 8.57698 35.0992 8.47776C35.6377 8.09615 36.3838 7.65348 37.1299 7.5161C37.8299 7.38635 38.2529 7.40925 38.5991 7.43214C38.9683 7.45504 39.2837 7.47794 39.7221 7.2795C39.8606 7.21844 39.9144 7.05816 39.8529 6.92841C39.7913 6.79103 39.6298 6.73761 39.499 6.79867C39.1914 6.93605 38.9837 6.92841 38.6375 6.90552C38.2837 6.88262 37.8068 6.85209 37.0376 6.9971C36.2223 7.14975 35.43 7.60005 34.8608 8.00456C34.83 7.95114 34.8069 7.89771 34.7762 7.85192C35.4531 7.4932 36.2992 7.07343 36.8222 6.93605C37.2991 6.8063 37.6145 6.83683 37.9222 6.85972C38.2222 6.89025 38.5375 6.91315 38.9375 6.77577C39.076 6.72998 39.1529 6.57733 39.099 6.43232C39.0529 6.29494 38.8991 6.21861 38.7529 6.27204C38.5068 6.35599 38.3068 6.35599 38.0837 6.34073C38.376 6.3102 38.6683 6.25677 38.9529 6.12703C39.0914 6.06597 39.1529 5.91332 39.0914 5.77594C39.0452 5.66909 38.9298 5.60803 38.8221 5.61566C38.8991 5.55461 38.9375 5.45539 38.9144 5.34854C38.8837 5.20352 38.7375 5.11194 38.5914 5.1501C38.276 5.22642 37.976 5.20352 37.5991 5.18826C37.1068 5.15773 36.4992 5.1272 35.63 5.28748C34.9146 5.41723 34.1916 5.80647 33.6147 6.19572C33.5531 6.12703 33.4916 6.05834 33.4301 5.99728C33.93 5.65383 34.5377 5.26458 34.8685 5.14246C35.1454 5.04325 35.5992 5.02798 36.03 5.01272C36.5607 4.98982 37.1145 4.97455 37.5299 4.80664C37.6683 4.75322 37.7376 4.60057 37.6837 4.46319C37.6299 4.32581 37.476 4.25712 37.3376 4.31055C37.0068 4.4403 36.5069 4.45556 36.0146 4.47846C35.5146 4.49372 35.0454 4.51662 34.6915 4.63874C34.2685 4.79138 33.5531 5.25695 33.0378 5.61566C33.0224 5.6004 32.9993 5.58514 32.9839 5.56987C33.4993 5.11957 34.0839 4.68453 34.53 4.54715C35.0146 4.3945 35.4607 4.35634 35.8223 4.32581C36.2992 4.28002 36.6453 4.24949 36.8145 3.97473C36.8915 3.84498 36.853 3.6847 36.7222 3.60838C36.5915 3.53206 36.4299 3.57022 36.353 3.69233C36.2992 3.74576 35.9915 3.76866 35.7684 3.79155C35.3838 3.82972 34.9069 3.86788 34.3685 4.03579C33.807 4.21133 33.1147 4.73795 32.5609 5.22642C32.5455 5.21115 32.5301 5.20352 32.5147 5.18826C33.0147 4.66926 33.6147 4.11974 34.0377 3.98999C34.3762 3.89077 34.6992 3.83735 34.9838 3.78392C35.4761 3.69997 35.9069 3.63128 36.2069 3.34888C36.3146 3.24966 36.3222 3.08175 36.2223 2.9749C36.1223 2.86805 35.953 2.86042 35.8453 2.95964C35.6684 3.11991 35.3608 3.18097 34.9685 3.24966C35.13 3.19624 35.2915 3.11991 35.4684 3.01306C35.5915 2.92911 35.63 2.76883 35.5454 2.64671C35.4607 2.5246 35.2992 2.48644 35.1761 2.57039C35.0146 2.66961 34.8685 2.73067 34.7069 2.77646C34.7762 2.70777 34.8069 2.60855 34.7762 2.50933C34.7377 2.36432 34.5839 2.288 34.4454 2.32616C34.007 2.44828 33.7531 2.45591 33.4839 2.46354C33.0532 2.4788 32.6455 2.48644 31.684 2.952C31.5225 3.02833 31.3686 3.11228 31.2148 3.19624C31.2225 3.18861 31.2302 3.18097 31.2455 3.17334C31.284 3.13518 31.3302 3.09702 31.3763 3.05122C31.6917 2.74593 32.1763 2.288 33.0147 2.2651C33.1608 2.25747 33.2839 2.13535 33.2762 1.99034C33.2685 1.84533 33.1455 1.73084 32.9993 1.73084C32.584 1.74611 32.2378 1.84533 31.9455 1.98271C32.0609 1.86059 32.1609 1.76137 32.2455 1.74611C32.3917 1.72321 32.4916 1.58583 32.4686 1.44082C32.4455 1.2958 32.307 1.19658 32.1609 1.21948C31.884 1.26527 31.684 1.47135 31.4994 1.66978C31.3379 1.83769 31.1763 2.01324 30.9456 2.12772C30.684 2.25747 30.3764 2.33379 30.0764 2.41011C30.0379 2.41775 30.0071 2.42538 29.9687 2.44064C30.061 2.37195 30.1533 2.29563 30.2456 2.21168C30.5379 1.96744 30.8456 1.71558 31.1763 1.60873C31.3148 1.56293 31.3994 1.41029 31.3532 1.27291C31.3071 1.13553 31.1532 1.05157 31.0148 1.09737C30.5763 1.23475 30.2225 1.5324 29.8995 1.79953C29.6918 1.97508 29.4918 2.14299 29.3302 2.20404C28.8226 2.41011 28.5149 2.58566 27.9072 3.03596C27.5534 3.29546 27.3303 3.75339 27.1919 4.14264C27.0842 4.15027 26.9765 4.16553 26.8688 4.1808C26.9534 3.87551 27.0457 3.57785 27.1303 3.40994C27.2688 3.15044 27.7688 2.91384 28.1611 2.72304C28.4149 2.60092 28.6534 2.48644 28.8226 2.36432L28.8303 2.35669C29.4456 1.88349 29.8764 1.52477 29.8764 1.15079C29.8764 1.00578 29.7533 0.883662 29.6072 0.883662C29.461 0.883662 29.3379 0.998146 29.3379 1.15079C29.3072 1.3187 28.7149 1.77664 28.4995 1.94455L28.4918 1.95218C28.3687 2.04377 28.1534 2.15062 27.9303 2.25747C27.438 2.49407 26.8842 2.7612 26.6611 3.17334C26.5227 3.44047 26.3919 3.89077 26.2919 4.28765C26.1227 4.31818 25.9535 4.35634 25.7919 4.38687C26.0689 3.74576 26.4458 3.05122 26.8996 2.66961C27.3842 2.25747 27.7457 2.09719 28.0457 1.95981C28.3764 1.80717 28.6687 1.67742 28.8995 1.2958C28.9764 1.16606 28.938 1.00578 28.8072 0.929455C28.6764 0.853133 28.5149 0.891294 28.438 1.02104C28.2918 1.26527 28.1226 1.3416 27.8226 1.47898C27.5149 1.61636 27.0919 1.80717 26.5534 2.2651C25.9304 2.79173 25.4535 3.77629 25.1458 4.55478C25.0227 4.58531 24.9074 4.62347 24.7843 4.66163C25.0766 3.91367 25.4689 3.05122 25.8304 2.69251C26.1073 2.41775 26.415 2.22694 26.6765 2.05903C27.115 1.78427 27.5303 1.52477 27.5996 1.01341C27.6226 0.868397 27.5226 0.731016 27.3765 0.70812C27.2303 0.685223 27.0919 0.784442 27.0688 0.929455C27.0303 1.18132 26.7996 1.3416 26.3842 1.60109C26.0919 1.78427 25.7612 1.99034 25.4458 2.31089C24.9151 2.83752 24.4074 4.10448 24.1228 4.88297C23.8843 4.97455 23.6536 5.06614 23.4228 5.16536C23.7151 4.87534 24.0151 4.53952 24.1612 4.15027C24.1997 4.05105 24.2382 3.95183 24.2689 3.86024C24.5612 3.06649 24.7228 2.62382 25.7612 1.84533C25.8766 1.75374 25.8996 1.58583 25.815 1.47135C25.7227 1.35686 25.5535 1.33397 25.4381 1.41792C24.2689 2.29563 24.0689 2.84515 23.7613 3.67707C23.7305 3.76866 23.692 3.86024 23.6536 3.95946C23.5305 4.29528 23.2228 4.60057 22.9228 4.89823C22.669 5.1501 22.3844 5.43249 22.2459 5.74541C22.1613 5.79121 22.0844 5.837 22.0075 5.88279C22.0306 5.78357 22.0613 5.66909 22.1075 5.54697C22.2306 5.37906 22.4536 5.17299 22.669 4.96692C22.8921 4.75322 23.1074 4.55478 23.2536 4.36397C23.369 4.21133 23.4767 3.9442 23.6151 3.59311C23.8459 3.01306 24.1612 2.21931 24.5458 1.97508C24.6689 1.89875 24.7074 1.73084 24.6305 1.60873C24.5535 1.48661 24.3843 1.44845 24.2612 1.52477C23.7382 1.85296 23.392 2.70777 23.1228 3.39468C23.0151 3.66181 22.8998 3.9442 22.8305 4.03579C22.7152 4.18843 22.5075 4.37924 22.3075 4.57004C22.0536 4.80664 21.7998 5.05088 21.646 5.27221C21.6306 5.29511 21.6229 5.31037 21.6152 5.33327C21.4921 5.69962 21.4306 6.00491 21.4152 6.25677C21.3306 6.31783 21.2383 6.37126 21.1614 6.43232C21.1229 6.46285 21.0768 6.49337 21.0383 6.5239C21.2152 5.74541 21.8306 4.69979 22.2229 4.27239C22.5921 3.87551 22.8459 3.34125 23.0459 2.90621C23.1459 2.68488 23.2844 2.38722 23.3536 2.33379C23.4767 2.24984 23.5074 2.08193 23.4228 1.95981C23.3382 1.83769 23.169 1.80717 23.0459 1.89112C22.8613 2.01324 22.7305 2.29563 22.5536 2.67724C22.369 3.07412 22.1383 3.56259 21.8229 3.89841C21.746 3.98236 21.6614 4.08158 21.5767 4.19606C21.7306 3.89077 21.8383 3.53969 21.8613 3.05886C21.869 2.91384 21.7537 2.7841 21.6075 2.7841C21.4614 2.77646 21.3306 2.89095 21.3306 3.03596C21.2998 3.76866 21.0383 4.11211 20.6845 4.58531C20.5845 4.71506 20.4845 4.85244 20.3768 5.01272C19.7999 5.87516 19.5768 6.65365 19.723 7.32529C19.7307 7.36345 19.7384 7.40161 19.7537 7.43978C19.7076 7.48557 19.6538 7.53136 19.5999 7.57716C19.4845 7.08106 19.4153 6.40942 19.5922 5.74541C19.7845 5.03561 20.1153 4.71506 20.4306 4.40213C20.6999 4.13501 20.9768 3.86788 21.1075 3.40231C21.146 3.2573 21.0614 3.11228 20.9152 3.07412C20.7691 3.03596 20.6229 3.11991 20.5845 3.26493C20.4999 3.58548 20.2999 3.78392 20.0537 4.02052C19.7153 4.34871 19.2999 4.75322 19.0692 5.60803C18.823 6.53917 18.9846 7.44741 19.1538 8.01983C18.8384 8.34801 18.4769 8.77542 18.0692 9.32494C18.0231 9.386 18.0077 9.46233 18.0231 9.53102C18.0384 9.59971 18.0769 9.6684 18.1461 9.70656C18.3692 9.85157 18.7307 9.77525 19.4922 9.56918C18.9538 10.0118 18.4692 10.6148 18.4 10.7064C18.3307 10.7903 18.323 10.9125 18.3846 11.004C18.4307 11.088 18.523 11.1338 18.6153 11.1338C18.6307 11.1338 18.6384 11.1338 18.6538 11.1338C18.9922 11.088 19.3538 11.0422 19.6768 11.0193V11.0269C20.5229 13.2174 20.9229 15.7513 21.2152 17.6059C21.4921 19.3766 21.6306 20.1628 21.946 20.4223C21.9921 20.4604 22.0383 20.4986 22.0921 20.5291C22.0998 20.5367 22.1075 20.552 22.1152 20.5596C22.1998 20.6741 22.3229 20.7428 22.4613 20.7657C22.4844 20.7657 22.5075 20.7733 22.5305 20.7733C22.9921 20.9794 23.5074 21.0786 23.8228 21.0405C23.9843 21.0176 24.1074 20.9565 24.1766 20.8573C24.2151 20.8039 24.2382 20.7428 24.2535 20.6589C24.3228 20.7886 24.4228 20.8955 24.5458 20.9489C24.7612 21.0405 25.0074 20.9794 25.2612 20.7733C26.1688 20.0559 25.9765 18.4837 25.7689 16.8275C25.7227 16.4535 25.6766 16.0719 25.6381 15.6979C26.3381 15.4842 26.9688 14.8354 27.3457 13.9196C27.3842 13.8203 27.4226 13.7135 27.4611 13.6066C27.9534 15.7818 26.5534 20.0712 25.8227 21.8953C25.5381 22.0937 24.4766 22.8951 23.4997 24.2079C22.669 25.3298 22.1383 26.5281 21.9229 27.7645C19.7922 26.8563 17.3231 26.2762 16.1308 25.9938C15.8385 25.9251 15.6078 25.8717 15.5001 25.8412C15.2463 25.7648 15.0924 25.6733 14.9232 25.5588C14.6232 25.368 14.2924 25.1543 13.4617 25.0169C12.431 24.849 10.2695 26.5662 8.13887 28.3445C7.76197 28.6575 7.46198 28.9093 7.31583 29.0086C6.93893 29.2757 6.33895 29.5657 5.8159 29.8252C5.40053 30.0313 5.0467 30.2068 4.8544 30.3442C4.43904 30.6342 3.8006 31.7256 3.616 32.0538C3.39293 32.2141 2.4622 32.9086 1.8853 33.4582C1.72377 33.6108 1.57762 33.7635 1.47763 33.9085C0.600744 35.2059 0.493056 35.5876 0.600744 35.8318C0.654588 35.9463 0.754583 36.0226 0.877655 36.0379L0.908423 36.0455H0.939191C4.25443 35.7097 5.18516 34.5267 5.22362 34.4809L5.30054 34.3817L5.26977 34.2595C5.26977 34.2595 5.20054 33.9848 5.22362 33.6337V33.6261C5.23131 33.4505 5.26208 33.275 5.31592 33.1071C5.37746 32.9163 5.49284 32.7942 5.60052 32.7255L5.56206 33.0384C5.55437 33.13 5.59283 33.2216 5.66206 33.275C5.73129 33.336 5.83128 33.3513 5.91589 33.3208C6.01589 33.2826 6.93893 32.9621 7.27737 32.4965C8.79269 30.4129 11.231 28.0164 13.1771 28.0164C13.2002 28.0164 13.2156 28.0164 13.2386 28.0164C14.4617 28.3674 16.077 29.5886 17.4923 30.6724C17.6231 30.7716 17.7538 30.8708 17.8846 30.97C17.6692 30.97 17.5 30.97 17.4154 30.9548C17.2462 30.9319 16.9846 30.8708 16.6847 30.8021C15.7693 30.5961 14.6309 30.3366 14.0002 30.5045C13.231 30.7029 12.731 31.7027 12.4925 32.1836C12.4541 32.2599 12.4156 32.3286 12.4002 32.3591C12.3925 32.3667 12.3848 32.3896 12.3695 32.4125C11.9233 33.1987 11.208 34.1756 10.3388 35.1525C8.22349 37.5414 7.16199 39.106 6.65432 39.854C6.60817 39.9227 6.56971 39.9761 6.53894 40.0295C6.50048 40.083 6.46972 40.1364 6.43126 40.1898C6.42356 40.2051 6.40818 40.2203 6.40049 40.2356L6.33126 40.3425C5.80821 41.1438 5.47745 41.8079 5.29285 42.2276C4.91594 43.0519 4.96978 43.1817 5.00055 43.258C5.0467 43.3725 5.15439 43.4412 5.28515 43.4488C5.29284 43.4488 5.30054 43.4488 5.30823 43.4488C5.58514 43.4488 6.30819 43.174 7.47736 42.6321C9.25421 41.8079 9.33882 41.6476 9.36959 41.5942V41.5865C9.42343 41.4797 9.41574 41.3576 9.39266 41.1133C9.37728 40.9225 9.3619 40.6935 9.37728 40.4569C9.40805 40.0219 9.53112 39.7624 9.76188 39.6556C9.91572 39.5792 9.98495 39.6174 10.008 39.625C10.1926 39.7242 10.3234 40.1517 10.3542 40.4188C10.3619 40.5256 10.4388 40.6096 10.5388 40.6401C10.5772 40.6554 10.8926 40.747 11.2234 40.5485C11.531 40.3654 11.731 39.999 11.8233 39.4571C11.8541 39.2663 11.8849 39.0755 11.9156 38.8771C12.2387 36.8545 12.6002 34.5572 14.8693 34.1222C16.1231 33.8856 18.4538 34.3893 20.7076 34.8854C23.269 35.4425 25.492 35.931 26.4381 35.4578C26.5996 35.4044 26.7457 35.351 26.8765 35.2899C29.3687 36.6255 33.3685 37.862 39.1529 37.1369C39.1606 37.1369 39.1606 37.1369 39.1683 37.1369C41.5912 36.6942 43.3681 35.9768 44.9296 35.3281C45.568 36.1218 46.5833 37.1369 47.8756 37.6177C48.8063 37.9688 49.737 38.1825 50.7216 38.4039C52.0523 38.7092 53.5523 39.0526 55.3137 39.8082C57.6136 40.7928 60.1981 45.6087 61.3058 47.6694C61.7442 48.4785 61.898 48.7685 62.0057 48.8753C62.2211 49.0967 62.5365 49.2493 62.8288 49.3943C63.1134 49.5393 63.4134 49.6843 63.621 49.8828C63.9672 50.4094 64.3287 50.8826 64.6825 51.2948L64.7441 51.3634C65.8671 52.6228 66.8671 53.0883 67.3824 53.1112C67.3901 53.1112 67.3978 53.1112 67.4055 53.1112C67.5286 53.1112 67.6209 53.0807 67.6901 53.012C67.7978 52.9052 67.7978 52.7678 67.7363 52.4091C67.5978 51.6229 66.7978 48.3411 65.6517 47.8068C65.6287 47.7915 65.5979 47.7839 65.5748 47.7687C65.544 47.7 65.4825 47.6389 65.4056 47.616C65.2287 47.5626 65.0748 47.5473 64.9441 47.5397L64.7518 47.4786V47.5397C64.6441 47.5473 64.5595 47.5626 64.4825 47.5778C64.4133 47.5855 64.3287 47.6007 64.2979 47.5931C64.1903 47.5015 63.9749 47.242 63.7441 46.9444C63.9441 47.0131 64.1364 47.0741 64.2902 47.1046C64.4056 47.1275 64.521 47.0741 64.5749 46.9673C64.6056 46.9062 64.6133 46.8375 64.5979 46.7765C64.6441 46.7001 64.6595 46.6085 64.621 46.5246C64.5902 46.4559 64.5518 46.3109 64.5133 46.1659C64.3979 45.7537 64.2979 45.4179 64.1672 45.2347C63.9749 44.9752 63.5595 44.7234 63.1211 44.4562C62.8288 44.2807 62.5288 44.0975 62.398 43.9678C62.3826 43.9525 62.3749 43.9449 62.3596 43.9373C62.1288 43.7617 61.475 42.1818 60.9981 41.0294C59.9827 38.5794 59.4828 37.4727 59.052 37.2743C58.752 37.1064 58.652 37.0987 58.329 37.1293C58.1982 37.1445 58.029 37.1598 57.7521 37.1674C57.006 37.1674 56.4598 36.7629 56.0521 36.2363C57.0444 36.3508 57.9828 36.4195 58.8289 36.4805C60.7596 36.6179 62.4288 36.74 63.698 37.343C65.7363 38.3046 68.667 43.4488 69.0131 44.2425C69.1746 44.6089 69.2362 44.9447 69.2977 45.2653C69.3593 45.5858 69.4208 45.914 69.5746 46.2575C69.8208 46.7688 70.29 47.036 70.5746 47.1962C70.6207 47.2268 70.6823 47.2573 70.713 47.2802C70.8669 47.5931 71.4053 48.2113 72.0053 48.7837L72.1284 48.8982C72.8053 49.5241 73.6744 50.1728 74.3283 50.1728C74.5052 50.1728 74.6667 50.127 74.8052 50.0125C75.2744 49.6309 75.159 48.799 74.4513 47.3794C73.9975 46.4712 73.4668 45.6622 73.3975 45.5553C73.336 45.4484 73.0668 45.0592 72.2976 45.0363H72.2591L72.2207 45.0439C72.1745 45.0592 72.1207 45.0592 72.0668 45.0668H72.0591C71.5515 45.0897 71.1899 44.4868 71.0053 44.0975C71.1207 44.0899 71.2592 44.0823 71.3899 44.067C72.1361 44.0059 72.3514 43.9602 72.4053 43.7312C72.4284 43.6396 72.4053 43.5022 72.2668 43.4183C69.0516 41.1667 66.9209 33.6871 66.8978 33.6108C66.8747 33.5192 66.8055 33.4429 66.7132 33.42C66.6209 33.3971 66.5286 33.42 66.4594 33.4811C66.4132 33.5116 65.8517 33.8703 64.2287 33.6184C62.4826 33.336 62.398 30.6876 62.4134 29.8863C62.4288 29.2299 62.3134 27.6958 61.8134 26.1388C61.375 24.765 60.7442 23.6812 59.9366 22.8875C61.4365 22.2769 63.1595 21.6892 63.7133 21.7961C63.9826 21.8495 64.2595 21.964 64.5364 22.1242C64.9825 22.6051 65.4517 23.2767 65.9209 23.9407C66.844 25.2535 67.7901 26.6044 68.7977 26.8868C68.967 26.9326 69.1593 26.9707 69.3669 27.0089C70.9592 28.2759 73.1822 28.3598 73.2822 28.3598H73.2898C73.4283 28.3598 73.536 28.2606 73.5591 28.1308C73.6591 28.1156 73.7514 28.0469 73.7821 27.94C73.7975 27.8942 73.7975 27.8484 73.7898 27.8103C74.6898 27.9629 75.3282 27.9553 75.3821 27.9477C75.5282 27.94 75.6513 27.8179 75.6436 27.6729C75.6436 27.6271 75.6282 27.5813 75.6051 27.5432C75.8436 27.5508 75.9897 27.5508 76.0205 27.5508C76.1666 27.5508 76.2897 27.4287 76.282 27.276C76.282 27.2379 76.2743 27.1997 76.2589 27.1692C76.4051 27.1768 76.4897 27.1539 76.5359 27.131C76.6359 27.0852 76.6897 26.986 76.6897 26.8868C76.6897 26.8486 76.682 26.8105 76.6666 26.7723C76.6051 26.6502 76.4666 26.5891 76.3436 26.6273C76.3282 26.6273 76.2589 26.6349 76.1205 26.6044C76.3974 26.5968 76.5743 26.5891 76.6051 26.5815C76.7512 26.5662 76.8666 26.4365 76.8512 26.2915C76.8358 26.1465 76.7128 26.032 76.5589 26.0472C76.5436 26.0472 75.7205 26.1083 74.6667 25.9862C74.6283 25.9633 74.5821 25.9404 74.5436 25.9175C74.7975 25.9404 75.0205 25.9404 75.1975 25.8946C75.3282 25.8641 75.4205 25.7419 75.4051 25.6046C76.482 26.0167 76.8589 25.9404 76.9897 25.8641C77.0589 25.7725 77.1051 25.6122 77.0358 25.4824ZM39.6836 17.1327C39.9759 17.2167 40.2605 17.3007 40.6451 17.3236H40.6374C40.0759 17.3999 39.8298 17.293 39.5067 17.1556C39.3221 17.0793 39.1221 16.9877 38.8452 16.9343C39.1914 16.9877 39.4452 17.0641 39.6836 17.1327ZM38.6606 21.8571C38.6529 21.8495 38.6529 21.8495 38.6452 21.8419C38.6914 21.8342 38.7375 21.8266 38.7837 21.819C38.7375 21.8266 38.6991 21.8419 38.6606 21.8571ZM29.5149 4.08158C29.561 4.00526 29.6149 3.93657 29.6687 3.89077C29.7995 3.76866 30.1148 3.65417 30.3994 3.54732C30.5763 3.47863 30.7456 3.41757 30.8994 3.34888C30.4764 3.61601 30.1379 3.89077 29.8687 4.12737C29.7533 4.10448 29.6379 4.08921 29.5149 4.08158ZM39.1914 22.254C39.2529 22.2387 39.3144 22.2311 39.3683 22.2311C39.4913 22.2235 39.6375 22.2616 39.799 22.2998C39.8067 22.2998 39.8144 22.2998 39.8221 22.3074C39.6529 22.3151 39.499 22.338 39.376 22.3685C39.3144 22.3303 39.2529 22.2922 39.1914 22.254ZM39.5836 21.1778C39.9452 21.2618 40.299 21.3381 40.6836 21.3076C40.6528 21.3076 40.6297 21.3152 40.599 21.3305C40.3067 21.4679 40.0759 21.4068 39.7913 21.3305C39.6683 21.3 39.5375 21.2618 39.3913 21.2465C39.1529 21.216 38.7683 21.2771 38.4145 21.3534C38.3991 21.3076 38.3837 21.2542 38.3606 21.2007C38.6529 21.1168 38.9606 21.0557 39.1837 21.1015C39.3221 21.1168 39.4529 21.1473 39.5836 21.1778ZM38.9144 20.4833C38.9991 20.4909 39.0606 20.5138 39.1375 20.552C38.8452 20.5291 38.5145 20.5902 38.2145 20.6818C38.2068 20.6436 38.1991 20.6054 38.1837 20.5673C38.4837 20.4986 38.7606 20.468 38.9144 20.4833ZM37.9606 16.9114C37.8145 16.9343 37.6606 16.9648 37.5145 16.9954C37.5145 16.9877 37.5145 16.9801 37.5145 16.9725C37.653 16.9496 37.8068 16.9267 37.9606 16.9114ZM37.753 9.08834C37.976 9.01965 38.176 9.00439 38.376 9.01965C38.3222 9.02729 38.2683 9.02729 38.2145 9.03492C38.0452 9.05018 37.876 9.08071 37.7145 9.11124C37.7222 9.10361 37.7376 9.09598 37.753 9.08834ZM37.6222 9.6684C37.1299 9.8821 36.5607 10.1798 35.9684 10.4927C35.9453 10.4164 35.9146 10.34 35.8838 10.2637C36.3838 10.05 36.9914 9.81341 37.6222 9.6684ZM36.6915 6.37126C36.1146 6.53154 35.2223 6.97421 34.5146 7.34056C34.4916 7.30239 34.4685 7.26423 34.4454 7.22607C35.1146 6.84446 35.8992 6.42468 36.2453 6.3331C36.4684 6.27204 36.753 6.27967 37.053 6.2873C36.9376 6.31783 36.8222 6.34073 36.6915 6.37126ZM35.7377 5.76831C36.553 5.61566 37.0991 5.64619 37.5837 5.67672C37.9453 5.69962 38.2606 5.71488 38.5991 5.65383C38.1529 5.79884 37.6683 5.78357 37.2068 5.76831C36.8145 5.75305 36.4453 5.74541 36.1146 5.82937C35.6838 5.94385 34.8146 6.40942 34.1454 6.79867C34.0916 6.72234 34.03 6.64602 33.9762 6.57733C34.4916 6.21861 35.1223 5.88279 35.7377 5.76831ZM34.1147 3.37178C34.0377 3.39468 33.9608 3.40994 33.8762 3.43284C33.2993 3.60838 32.584 4.28002 32.0532 4.84481C31.9378 4.77612 31.8224 4.71506 31.7071 4.654C32.0994 4.21133 32.6147 3.7305 33.1378 3.57785C33.5301 3.471 33.8377 3.41757 34.1147 3.37178ZM31.9147 3.38704C32.7378 2.99017 33.0762 2.96727 33.4454 2.952C33.2993 2.98253 33.1455 3.0207 32.9762 3.07412C32.284 3.28019 31.6301 3.91367 31.184 4.4403C30.9763 4.36397 30.7686 4.29528 30.5533 4.24186C30.9071 3.95946 31.3686 3.65417 31.9147 3.38704ZM29.5379 3.09702C29.6918 3.01306 29.9379 2.952 30.2071 2.88331C30.4456 2.82226 30.7148 2.75357 30.9686 2.65435C30.9379 2.68488 30.9071 2.70777 30.884 2.7383C30.7686 2.83752 30.4764 2.952 30.2148 3.05122C29.8764 3.18097 29.5225 3.31072 29.3149 3.50153C29.161 3.64654 29.0226 3.85261 28.9226 4.05105C28.838 4.05105 28.7534 4.04342 28.6764 4.04342C28.7918 3.78392 29.038 3.45573 29.5379 3.09702ZM28.2226 3.42521C28.4303 3.26493 28.5995 3.15044 28.7534 3.05122C28.3688 3.41757 28.1841 3.75339 28.0918 4.04342C27.9842 4.04342 27.8842 4.05105 27.7765 4.05868C27.8918 3.79919 28.038 3.56259 28.2226 3.42521ZM20.8152 5.27985C20.9152 5.13483 21.0075 5.00508 21.1075 4.87534C21.1229 4.86007 21.1306 4.83717 21.146 4.82191C20.7614 5.48592 20.4306 6.30257 20.446 6.91315C20.3922 6.93605 20.323 6.98184 20.223 7.0429C20.1768 6.63839 20.2922 6.05834 20.8152 5.27985ZM75.5051 26.9631C75.3205 26.9555 75.0821 26.9326 74.8129 26.902C74.8282 26.8639 74.8359 26.8257 74.8282 26.7876C74.8282 26.7341 74.8052 26.6807 74.7744 26.6425C75.059 26.7876 75.3051 26.8944 75.5051 26.9631ZM64.8441 21.6739C64.6979 21.5213 64.5595 21.3916 64.4133 21.2771C65.2133 21.7045 66.1594 22.6661 67.1593 23.6736C67.2824 23.8033 67.4132 23.9255 67.5363 24.0552C67.567 24.101 67.5978 24.1468 67.6286 24.1926C67.7978 24.4445 67.967 24.6887 68.1285 24.9177C68.1055 24.8871 68.0824 24.8566 68.0516 24.8261C67.1132 23.7041 65.9979 22.3685 64.8441 21.6739ZM66.4748 23.8186C66.8824 24.2613 67.2747 24.7345 67.6363 25.1619C67.9132 25.4977 68.1901 25.8183 68.4439 26.1083C67.8055 25.6809 67.1363 24.7574 66.4748 23.8186ZM67.9516 23.7118C67.4055 22.918 66.8286 22.0785 66.1902 21.4373C67.1594 22.0861 67.7439 23.0401 68.2824 23.9102C68.3516 24.0247 68.4208 24.1392 68.4978 24.2536C68.3131 24.0705 68.1362 23.8949 67.9516 23.7118ZM69.0823 24.1697C69.2746 24.4292 69.4593 24.6811 69.6592 24.9177C69.4593 24.7192 69.2746 24.4597 69.0823 24.1697ZM70.5515 27.1081C70.6054 27.1081 70.6592 27.1157 70.713 27.1157C71.09 27.2837 71.4745 27.4287 71.8284 27.5661C71.4284 27.4592 70.9823 27.3142 70.5515 27.1081ZM70.9207 26.2151C70.9823 26.238 71.0438 26.2533 71.1053 26.2762C71.2976 26.3983 71.4899 26.5052 71.6899 26.6044C71.4284 26.4899 71.1746 26.3602 70.9207 26.2151ZM71.3361 25.7877C71.2361 25.719 71.1361 25.6504 71.0438 25.574C70.4054 25.0779 69.8746 24.3452 69.3054 23.5667C69.1593 23.3683 69.0208 23.1699 68.867 22.9714C68.99 23.1164 69.1054 23.2538 69.2285 23.3988C69.8669 24.1621 70.4746 24.8871 71.2053 25.3832C71.6438 25.6809 72.1207 25.9022 72.6053 26.0701C72.213 26.0014 71.7668 25.9099 71.3361 25.7877ZM71.513 24.9482C70.8438 24.4902 70.2669 23.8033 69.6516 23.063C69.3208 22.6738 68.9823 22.2616 68.6131 21.8724C69.1439 22.3303 69.5669 22.8112 69.9592 23.2538C70.2977 23.6354 70.6207 24.0018 70.9592 24.2918C71.513 24.765 72.1822 25.1543 72.8283 25.4366C72.9206 25.5206 73.0129 25.5969 73.1052 25.6733C72.5437 25.5053 71.9899 25.2764 71.513 24.9482ZM68.6747 21.2313C69.8362 21.9945 70.6515 22.9791 71.4053 23.8873C71.4745 23.9713 71.5438 24.0552 71.613 24.1392C71.5053 24.0628 71.3976 23.9789 71.2976 23.8873C70.9823 23.6202 70.6746 23.2691 70.3438 22.8951C69.8823 22.3685 69.3593 21.7808 68.6747 21.2313ZM74.5667 26.5433C74.559 26.5433 74.5513 26.5433 74.5436 26.5433C74.5359 26.5433 74.3898 26.551 74.1437 26.5662C74.1437 26.5586 74.1514 26.5433 74.1514 26.5357C74.1514 26.5052 74.1514 26.4746 74.1437 26.4517C74.2513 26.467 74.359 26.4823 74.459 26.4975C74.4975 26.5128 74.5283 26.5281 74.5667 26.5433ZM73.1206 24.9787C72.6745 24.5742 72.2591 24.0705 71.8284 23.5515C70.7977 22.3151 69.5669 20.8268 67.4363 19.9948C69.3516 20.6512 70.5515 21.8953 71.6284 23.0172C72.3745 23.7957 73.0822 24.5208 73.9283 24.9482C74.2667 25.1237 74.5744 25.2611 74.8436 25.3832C74.4436 25.3985 73.8052 25.2611 73.1206 24.9787Z" fill="white"/>
</svg>
