<svg width="68" height="63" viewBox="0 0 68 63" fill="none" xmlns="http://www.w3.org/2000/svg">
<path d="M67.7486 41.9888C67.2856 40.6466 64.6957 39.8296 63.9578 38.3561C63.2344 36.8825 66.9673 30.2735 62.236 27.7933C59.9499 26.2906 56.1302 31.3823 53.6126 31.1197C53.2798 31.0322 51.6015 25.2401 43.7738 26.6991C34.427 27.91 31.6056 25.2839 30.7809 23.2122C30.7519 23.1539 30.7375 23.0955 30.723 23.0517C30.723 23.0371 30.7085 23.0225 30.7085 23.008C30.6941 22.9788 30.6941 22.9496 30.6796 22.9204C30.6651 22.8912 30.6651 22.8621 30.6507 22.8183C30.4915 22.2785 30.4626 21.797 30.4626 21.4761L31.1281 18.7478C30.7954 20.0463 30.4915 20.9217 30.477 21.053C30.477 21.0676 30.477 21.0822 30.477 21.0967C30.477 21.0822 30.477 21.0676 30.477 21.053C30.4915 20.8925 30.8966 19.7691 31.2728 18.1497C31.2873 18.1059 31.2873 18.0621 31.3018 18.0184L31.2728 18.1497C31.3162 17.9746 31.3452 17.8141 31.3886 17.639C31.4754 17.2597 31.5477 16.8512 31.6201 16.4135C31.6345 16.2968 31.6635 16.1801 31.6779 16.0634L31.6635 16.1509C31.6635 16.1217 31.6779 16.0926 31.6779 16.0634C31.6779 16.0488 31.6779 16.0488 31.6779 16.0342V16.078C31.6924 15.9613 31.7069 15.8591 31.7214 15.7424C32.0686 13.1309 32.0252 10.0088 30.5928 7.47019C30.5928 7.4556 30.5783 7.4556 30.5783 7.44101C30.506 7.30971 30.4192 7.1784 30.3468 7.0471C30.3323 7.03251 30.3324 7.01792 30.3179 7.00333V7.01792C30.3179 7.01792 30.3179 7.01792 30.3179 7.00333C30.3179 7.00333 30.3179 6.98874 30.3034 6.98874L30.3179 7.00333C30.3034 6.98874 30.2889 6.95956 30.2745 6.94497C29.9562 6.46352 29.58 6.01125 29.1459 5.58815L29.0446 5.45685C28.1042 3.95414 26.7007 2.85993 25.0802 2.10128H25.0657C25.0657 2.10128 25.0657 2.10128 25.0512 2.10128H25.0657H25.0512C23.3439 1.31345 21.4051 0.890352 19.5097 0.759046C19.4952 0.759046 19.4952 0.759046 19.4808 0.759046H19.4952H19.4808C19.4663 0.759046 19.4663 0.759046 19.4518 0.759046H19.4808C19.4518 0.759046 19.4374 0.759046 19.4084 0.759046C18.7284 0.715278 18.0484 0.715278 17.3828 0.744457C17.3104 0.744457 17.2381 0.744457 17.1658 0.759046C17.1079 0.759046 17.05 0.759046 16.9921 0.773636C16.7751 0.788225 16.5436 0.802815 16.3266 0.817404H16.3844C16.37 0.817404 16.341 0.817404 16.3266 0.817404C16.2976 0.817404 16.2687 0.817404 16.2398 0.831994L16.3266 0.817404C16.2687 0.817404 16.2253 0.831994 16.1819 0.831994C15.6176 0.890352 15.0678 0.977888 14.5469 1.0946C14.489 1.10919 14.4312 1.12378 14.3733 1.13837C14.3299 1.12378 14.272 1.13837 14.2141 1.15296C13.7945 1.25509 13.3894 1.3718 13.0132 1.50311L13.0566 1.48852C13.0422 1.48852 13.0277 1.50311 13.0132 1.50311C13.0132 1.50311 13.0132 1.50311 12.9987 1.50311L13.0132 1.48852C12.174 1.7949 11.494 2.15963 11.031 2.59732C10.9876 2.64109 10.9442 2.68485 10.9008 2.72862C10.814 2.81616 10.7272 2.91829 10.6548 3.02041C10.6403 3.035 10.6259 3.04959 10.6259 3.06418C10.5535 3.15172 10.4812 3.23925 10.4233 3.32679C10.4088 3.35597 10.3944 3.37056 10.3654 3.39974C10.3076 3.48727 10.2497 3.57481 10.1918 3.66235C10.1773 3.69153 10.1484 3.72071 10.1339 3.76447C10.0761 3.85201 10.0326 3.92496 9.97477 4.01249C9.94584 4.07085 9.90243 4.12921 9.87349 4.18757C9.84456 4.24593 9.80115 4.30428 9.77221 4.36264C9.72881 4.43559 9.6854 4.50854 9.64199 4.59607C9.62752 4.63984 9.59859 4.66902 9.58412 4.71279C8.84621 6.14255 8.2964 7.84952 7.90574 9.2647C7.44274 10.9571 7.22571 12.2701 7.22571 12.2701L8.96196 11.1759L8.38321 13.058C8.38321 13.058 10.0182 12.2701 10.1484 12.2264C10.5825 13.6853 11.9136 15.6111 12.7238 16.7783L12.9987 17.1868C13.0277 17.2305 13.0711 17.2743 13.1 17.3181C13.2013 17.464 13.2737 17.5661 13.3171 17.6536C13.3605 17.7412 13.4183 17.8433 13.4473 17.9454L13.563 18.3247C13.7367 19.0542 13.7801 19.9442 13.9682 20.1922C14.1418 20.4402 14.518 20.98 15.2993 21.053L14.6482 21.7533C14.272 22.2347 13.7077 23.1247 13.4183 24.394C7.06655 22.1034 6.29971 18.5874 4.15833 18.4415C1.36585 18.2518 2.6391 23.2268 0.0925975 31.9075C-0.0954967 32.2723 1.49607 33.4394 1.49607 33.4394C1.49607 33.4394 1.19222 34.2272 1.19222 34.6649C1.19222 34.8546 1.66969 35.657 2.23398 36.4594C2.91401 37.4515 3.69532 38.4582 3.86895 38.4582C4.17279 38.4582 4.72261 34.7816 4.66473 34.5482C4.6358 34.4461 4.23067 34.2127 3.7532 33.9209C3.0587 33.454 2.20504 32.8267 2.27738 32.1555C2.39313 31.3094 3.18892 32.4036 3.18892 32.2139C2.6391 29.6462 3.49276 22.2931 4.82389 22.9058C6.7193 24.2918 7.77552 26.7429 8.91855 28.0851C8.77387 28.1143 8.62918 28.1434 8.51343 28.1726C7.60189 28.3623 5.64861 27.7349 4.80942 28.4206C3.18892 29.7045 3.84001 31.3677 4.07151 31.9659C4.33195 32.5786 8.74493 36.8096 9.10665 37.4807C9.48284 38.1664 10.0182 39.3919 10.5101 40.3548C10.9442 40.5445 12.5213 40.4715 12.5213 40.4715C12.5213 40.4715 13.2447 40.5882 13.6064 41.3907C13.8235 41.5074 14.6193 41.6241 15.3716 41.6387C16.0661 41.6533 16.7462 41.5657 16.8909 41.3323C17.1947 40.8363 15.0099 37.8454 14.7061 37.9038C14.518 37.9476 14.3733 38.2831 14.0984 38.5895C13.9248 38.7792 13.7222 38.9396 13.4183 38.998C13.1145 39.0709 12.8541 38.8813 12.637 38.6333C12.9409 38.5603 13.2013 38.3123 13.2158 38.2977L13.0132 38.0934C13.0132 38.0934 12.7094 38.3998 12.4489 38.3561C12.3477 38.2102 12.2753 38.0497 12.2174 37.933C12.5647 37.933 12.8685 37.7287 12.883 37.7141L12.7094 37.4807C12.7094 37.4807 12.2753 37.8017 11.9281 37.5682L11.8702 37.6558C11.711 37.6266 11.494 37.5245 11.2336 37.3056C11.3927 37.3348 11.5808 37.364 11.7689 37.364C12.0727 37.364 12.42 37.3056 12.7817 37.1305L12.6515 36.8679C11.8412 37.2473 11.1033 36.9992 10.814 36.8533C10.785 36.8242 10.7706 36.795 10.7416 36.7512C10.0761 35.4674 8.49896 31.7325 7.34146 31.4844C8.49896 30.1276 13.7222 33.6291 15.1835 33.0747C15.2703 33.0455 15.5018 33.0309 15.8057 32.9871C16.1385 33.454 16.5147 33.9355 16.9343 34.4315C20.5515 38.6624 24.95 39.7712 28.7118 39.8734C28.5961 41.0113 28.5093 43.0247 29.2617 44.3523C30.6651 46.8034 33.1393 48.7 32.9657 49.7942C32.7197 51.2677 25.4853 55.7321 24.8197 56.4762C24.1542 57.2056 24.2121 58.1977 24.0384 58.5625C23.9227 58.7959 22.6494 59.6275 21.7524 60.5612C21.2315 61.101 20.8408 61.67 20.8698 62.1806C20.9276 62.3703 24.8776 62.487 25.1091 62.4287C25.2538 62.0056 25.2972 61.6408 25.2683 61.349C25.2104 60.5028 24.6751 60.1235 24.8053 59.8026C24.8921 59.6129 25.4998 59.146 26.1943 58.6354C26.1943 58.9418 26.2522 59.4816 26.5705 59.8463L26.7875 59.6421C26.4113 59.2336 26.4837 58.4457 26.4837 58.4457H26.4547C26.5849 58.3436 26.7296 58.2561 26.8598 58.1539C26.8598 58.5333 26.9032 59.219 27.2794 59.4816L27.4386 59.2336C27.1347 59.0293 27.1347 58.2269 27.1492 57.9351C27.2794 57.8476 27.3952 57.76 27.5109 57.6725C27.4965 58.1394 27.5254 58.9272 27.8727 59.1023L28.0029 58.8397C27.8293 58.7521 27.7569 58.0518 27.8003 57.4391C27.9595 57.3223 28.1042 57.2056 28.2054 57.1181C28.0897 57.4974 28.0463 58.0518 28.3646 58.65L28.625 58.5187C28.1042 57.5412 28.6829 56.7534 28.7118 56.7242L28.6684 56.695C29.2906 56.0677 29.9562 55.2798 30.969 54.3607C31.6345 53.7333 36.7276 50.8009 37.1037 50.1881C37.4655 49.5754 36.1922 48.5979 35.7581 47.7371C35.4398 45.5487 36.9301 43.3311 38.0587 42.018C39.303 43.9876 40.9814 45.4757 41.401 45.7091C42.1968 46.1468 44.1356 46.8179 43.9619 49.4003C43.1083 53.4416 36.7276 57.2932 35.7581 57.9059C34.9913 58.3874 35.4543 58.6354 35.2083 59.1898C35.107 59.4232 34.5428 59.7734 33.9351 60.1819C33.0235 60.7071 32.2856 61.6992 32.4159 62.2536C32.6618 62.6913 36.7854 62.6913 36.7854 62.1369C36.7854 61.8597 36.6263 61.5825 36.5539 61.1448C36.4816 60.7363 36.4961 60.1673 36.7854 59.3357C36.8433 59.2044 37.0893 59.0731 37.4365 58.9564C37.3931 59.6858 37.3787 60.4737 37.5233 60.6342L37.7548 60.4445C37.6825 60.3132 37.697 59.5545 37.7404 58.8542C37.8706 58.8105 38.0153 58.7813 38.1455 58.7375C38.0442 59.4086 37.9719 60.2694 38.2178 60.4591L38.4059 60.2402C38.3191 60.1381 38.3481 59.4378 38.4638 58.6646C38.6374 58.6208 38.8255 58.577 38.9847 58.5479C38.8255 59.3357 38.7242 60.1673 38.9413 60.3278L39.1149 60.0943C39.1294 60.0943 39.1294 60.1089 39.1294 60.1089C39.057 59.9776 39.1438 59.2044 39.303 58.4749C39.5056 58.4311 39.6792 58.402 39.8094 58.3874C39.5634 59.4816 39.549 60.0943 39.766 60.2111L39.9107 59.9485C39.9252 59.9485 39.9252 59.963 39.9252 59.963C39.8383 59.8317 39.9686 59.0001 40.1422 58.2415C40.2869 57.9935 40.7065 57.264 41.1839 56.4324C41.7338 55.4841 48.7222 51.3553 49.1418 50.1881C49.5614 49.021 47.0583 48.3207 47.0583 46.497C47.174 45.5778 47.174 45.5778 48.2013 44.2794C49.243 42.9955 53.5113 41.0259 54.582 36.6929C54.8714 34.4461 54.3505 32.8558 54.3505 32.8558C54.3505 32.8558 55.0884 32.9434 55.4936 32.8558C55.508 32.8558 55.5225 32.8413 55.537 32.8413L58.7056 35.7154C57.9533 37.5391 57.1575 39.9755 58.532 41.2594C59.9499 42.6016 62.1781 41.6241 64.5076 41.9597C66.8226 42.2806 67.0541 44.5274 67.0541 44.5274C67.0541 44.5274 68.2116 43.3165 67.7486 41.9888ZM30.4626 21.3448C30.4626 21.2426 30.4626 21.1697 30.477 21.1113C30.4626 21.1697 30.4626 21.2426 30.4626 21.3448ZM16.4423 14.8379C17.2236 13.802 17.4407 12.5619 17.4551 11.5698L17.4841 11.6136C17.4841 11.6136 17.4841 11.4677 17.4551 11.2197C17.4262 10.3881 17.2815 9.8191 17.2815 9.8191C17.2815 9.8191 20.0885 9.86286 20.074 15.2026C19.9872 15.6111 19.6689 16.1363 19.2493 16.7053L18.4245 17.5953C18.3377 17.2889 18.193 16.9679 17.976 16.647L17.7011 16.2968C17.2815 15.7716 16.9198 15.4506 16.6738 15.2464C16.4134 15.0275 16.2976 14.9254 16.4423 14.8379Z" fill="white"/>
<path d="M31.2575 18.1641L31.1128 18.7622C31.1707 18.5726 31.2141 18.3683 31.2575 18.1641Z" fill="white"/>
</svg>
