<svg width="75" height="74" viewBox="0 0 75 74" fill="none" xmlns="http://www.w3.org/2000/svg">
<path d="M37.3407 25.5847C31.0356 25.5847 25.9092 30.7112 25.9092 37.0163C25.9092 43.3214 31.0356 48.4479 37.3407 48.4479C43.6459 48.4479 48.7723 43.3214 48.7723 37.0163C48.7723 30.7112 43.6459 25.5847 37.3407 25.5847Z" fill="white"/>
<path d="M58.3718 39.0897L74.0352 37.0164L58.3718 34.9431L73.3252 29.8592L57.5624 30.8817L71.2377 22.9719L55.9719 27.0475L67.8437 16.6241L53.6714 23.5967L63.2853 11.0859L50.746 20.6997L57.7186 6.52744L47.2953 18.3992L51.3709 3.13348L43.4753 16.8088L44.4977 1.04597L39.4139 15.9993L37.3406 0.335938L35.2673 15.9993L30.1834 1.04597L31.2059 16.8088L23.2961 3.13348L27.3717 18.3992L16.9484 6.52744L23.9209 20.6997L11.4101 11.0859L21.024 23.6251L6.85166 16.6525L18.7235 27.0759L3.4577 22.9861L17.133 30.8959L1.37019 29.8592L16.3235 34.9431L0.660156 37.0164L16.3235 39.0897L1.37019 44.1735L17.133 43.1511L3.4577 51.0609L18.7235 46.9853L6.85166 57.4086L21.024 50.436L11.4101 62.961L23.9493 53.3472L16.9768 67.5195L27.4001 55.6477L23.3103 70.9134L31.2201 57.2382L30.1976 73.0009L35.2815 58.0476L37.3548 73.711L39.4281 58.0476L44.5119 73.0009L43.4895 57.2382L51.3993 70.9134L47.3237 55.6477L57.747 67.5195L50.7744 53.3472L63.2853 62.961L53.6714 50.4218L67.8437 57.3944L55.9719 46.9711L71.2377 51.0609L57.5624 43.1511L73.3252 44.1735L58.3718 39.0897ZM37.3406 53.2762C28.3799 53.2762 21.0808 45.977 21.0808 37.0164C21.0808 28.0557 28.3799 20.7566 37.3406 20.7566C46.3012 20.7566 53.6004 28.0557 53.6004 37.0164C53.6004 45.977 46.3154 53.2762 37.3406 53.2762Z" fill="white"/>
</svg>
