<svg width="83" height="69" viewBox="0 0 83 69" fill="none" xmlns="http://www.w3.org/2000/svg">
<path d="M13.7551 26.1205C13.6734 26.1205 12.9892 24.9304 13.2445 24.3404C13.4998 23.8319 14.2657 23.4962 14.8581 22.896C15.4504 22.3061 16.4716 20.3531 16.9823 19.9259C17.3193 19.5902 17.9218 19.3359 17.9218 19.3359C17.9218 19.3359 17.4929 17.8101 18.8613 17.2201C20.3932 16.5386 20.3115 18.8273 21.4145 18.8273C21.9251 18.8273 22.354 17.5558 22.6093 17.3829C22.8646 17.21 23.457 17.0472 24.2229 17.3829C25.7548 18.2272 25.5812 20.6074 25.5812 20.6074C25.5812 20.6074 27.542 22.2145 28.7266 25.1033C30.0032 27.982 29.0636 31.4608 30.4321 33.8308C31.7904 36.2924 35.283 39.761 42.6871 39.761C48.4776 39.761 55.1157 35.265 59.8747 35.265C61.8355 35.265 63.5308 36.0279 63.5308 36.0279C63.5308 36.0279 68.3817 33.9122 68.3817 27.3005C68.1264 21.3703 63.7044 19.8445 59.8747 18.9087C56.045 18.0644 44.8113 17.6372 40.2157 15.9385C39.1127 15.6028 34.8541 13.8227 34.8541 8.64525C34.8541 3.46776 38.2651 0.772217 38.2651 0.772217C38.2651 0.772217 40.3893 4.15945 45.8427 4.84097C51.2962 5.52248 61.0798 7.12964 62.3563 7.38393C63.6329 7.63823 71.0369 8.82834 73.1611 11.5341C75.3773 14.1584 77.0725 18.6544 76.3066 22.5502C75.5406 26.446 74.8564 29.1619 72.048 32.9764C69.2395 36.7094 66.6047 37.3808 66.6047 37.3808C66.6047 37.3808 69.4132 39.3338 71.1186 41.1139C72.9058 42.8126 75.796 48.6614 76.3985 50.0143C77.001 51.3671 80.3099 55.2731 81.2494 57.4702C82.6077 60.8575 82.0971 62.9834 81.9337 63.5734C81.7601 64.082 81.086 66.1977 79.6359 66.1977C78.5329 66.1977 78.1857 65.862 78.1857 65.862C78.1857 65.862 78.2674 65.5264 78.3593 65.0178C78.5329 64.5905 79.7176 63.7463 79.7176 62.5562C79.7176 60.6032 78.441 58.4061 75.3773 55.6902C72.2318 52.9743 66.523 50.3499 66.523 50.3499C66.523 50.3499 68.0549 53.0658 68.3102 53.5744C68.6472 54.083 72.9875 60.1048 73.3348 62.902C73.5901 64.7635 73.8454 67.4794 72.6505 68.5779C71.8029 69.1679 70.945 68.8322 70.6897 68.5779C70.5161 68.405 70.6897 68.0693 70.7714 67.815C70.8531 67.5607 71.6191 66.7979 71.711 66.1163C71.7927 65.5264 71.282 63.4004 69.6685 61.9662C68.0549 60.4404 64.0516 59.0876 62.3461 58.0704C60.6406 57.1346 56.811 54.4288 55.8816 53.5744C54.8604 52.8115 53.5838 51.1128 51.7149 51.1128C48.9065 51.1128 47.8852 51.54 42.442 53.4015C40.9918 53.9915 37.5093 55.5172 33.5061 55.5172C29.5028 55.5172 25.9284 52.5471 25.9284 52.5471C25.9284 52.5471 23.0383 55.7003 18.0137 55.7003C12.6522 55.7003 10.6914 52.3945 7.71953 52.3945C5.93234 52.3945 4.57408 53.7473 3.37922 53.7473C3.04221 53.7473 2.53158 53.666 2.53158 52.8115C2.53158 52.3843 3.88984 50.3499 6.18765 50.1872C8.48546 50.1058 10.4463 50.9501 14.7866 50.6144C19.2086 50.3601 20.4034 47.8985 20.4034 47.8985C20.4034 47.8985 18.9533 48.58 16.9108 48.58C12.3151 48.58 7.71953 45.7014 5.2481 45.7014C3.79793 45.7014 2.26606 47.1458 1.41842 47.0542C0.826097 46.9729 0.570785 46.8813 0.478872 46.627C0.397172 46.4541 0.30526 46.1184 0.652485 45.5285C1.24481 44.4299 3.03199 42.7312 8.39355 42.7312C11.539 42.7312 15.0317 43.8298 17.0742 41.8869C19.1167 39.9441 19.372 38.0725 19.5456 37.0553C19.8009 36.0381 20.3115 31.5421 20.3115 31.2065C20.3115 30.8708 20.3115 29.8536 19.372 28.8364C18.3507 27.8192 16.9925 27.5649 16.3899 27.392C15.7976 27.3106 14.8581 27.3106 14.6027 27.1377C14.4291 27.0563 13.9185 26.5477 14.0104 26.4562C14.0104 26.2833 15.287 26.3748 15.287 26.3748C15.3789 26.2833 13.9287 26.2019 13.7551 26.1205Z" fill="white"/>
</svg>
