<svg width="41" height="75" viewBox="0 0 41 75" fill="none" xmlns="http://www.w3.org/2000/svg">
<path d="M34.5564 54.8568C30.9895 55.2236 29.3461 55.1014 27.1305 55.0769C23.8193 55.0524 21.3115 57.4371 20.995 57.9018C20.6785 58.3788 20.5932 58.7946 20.5932 58.7946L20.8002 62.1943L20.5932 62.8913L20.3741 62.2554L20.5932 58.7946C20.5932 58.7946 20.508 58.3788 20.1915 57.9018C19.875 57.4371 17.3551 55.0524 14.056 55.0769C11.8282 55.1014 10.1848 55.2236 6.63007 54.8568C3.07537 54.4899 0.932805 50.5521 0.823242 50.7478C4.00056 56.7278 6.16747 56.9602 7.79874 57.058C9.41784 57.1681 17.8055 56.2264 19.7411 58.6356C20.3498 59.6628 20.3863 61.4728 20.3863 62.231L20.3132 62.0231C20.3132 62.0231 20.0698 60.5556 18.5359 60.0052C18.4385 59.993 16.3325 59.2226 15.3951 60.7757C14.3847 62.4878 15.3221 64.102 16.2838 64.2855C18.9985 64.3588 17.7324 61.754 17.6959 62.1209C17.9759 63.0503 16.089 64.42 15.9673 62.1698C16.016 61.754 16.369 60.5189 17.8055 60.5923C18.2559 60.7023 19.5585 61.4116 19.8141 63.7474C19.875 65.4595 19.1202 71.2439 16.9655 74.1177C16.8681 74.1544 20.6054 74.1666 20.6054 74.1666C20.6054 74.1666 24.3184 74.1422 24.221 74.1177C22.0541 71.2439 21.3115 65.4595 21.3845 63.7474C21.6402 61.3994 22.9428 60.7023 23.3932 60.5923C24.8297 60.5189 25.1705 61.754 25.2192 62.1698C25.0975 64.4078 23.2106 63.0503 23.4906 62.1209C23.454 61.754 22.2002 64.3588 24.9027 64.2855C25.8644 64.102 26.814 62.4878 25.7914 60.7757C24.8418 59.2226 22.7601 60.0052 22.6506 60.0052C21.1167 60.5556 20.8732 62.0231 20.8732 62.0231L20.8367 62.1576C20.8245 61.3627 20.8854 59.6261 21.4819 58.6356C23.4175 56.2142 31.8052 57.1681 33.4243 57.058C35.0434 56.9602 37.2224 56.7278 40.3998 50.7478C40.2537 50.5521 38.1111 54.4899 34.5564 54.8568Z" fill="white"/>
<path d="M5.59479 51.6407C9.94078 52.6435 13.3981 52.4233 15.285 52.9003C17.1719 53.365 20.471 56.8503 20.471 56.8503H20.7388C20.7388 56.8503 24.0379 53.3772 25.9248 52.9003C27.8117 52.4233 31.269 52.6312 35.615 51.6407C39.961 50.6379 40.7523 46.5289 40.4845 46.8468C40.4723 46.8591 40.4358 46.908 40.3871 46.9691C40.3871 44.6945 40.3871 16.7019 40.3871 16.7019C40.3871 16.7019 38.5732 19.1478 35.1524 19.747C31.7194 20.334 29.4917 20.2728 27.1908 20.9088C26.5335 21.08 25.73 21.5202 24.9144 22.0461C25.2431 20.2973 24.7683 18.9766 24.3909 18.4018C24.7074 17.4968 24.6344 16.7631 24.6344 16.4696C24.6344 15.5157 24.4274 14.4273 24.1596 13.5713C24.7683 12.3361 24.7683 11.4312 24.7805 10.9542C24.8048 10.3428 24.5492 8.88748 24.5492 8.88748C24.5492 8.88748 23.9527 9.35219 23.3805 9.78021V0.779541H22.7718V9.93919H23.1735C23.0153 10.0615 22.8692 10.1715 22.7353 10.2572C22.6257 9.57232 22.2483 8.75296 21.8223 8.08036H22.0657V0.779541H21.4571V7.53005C21.1771 7.13871 20.9092 6.84521 20.7388 6.72292H20.9214V0.779541H20.3127V6.72292H20.5075C20.3371 6.84521 20.0693 7.15094 19.7649 7.56673V0.779541H19.1562V8.08036H19.4241C19.0102 8.76519 18.6206 9.57232 18.511 10.2694C18.3771 10.1838 18.231 10.0737 18.0606 9.95142H18.438V0.779541H17.8293V9.76798C17.2693 9.33996 16.685 8.88748 16.685 8.88748C16.685 8.88748 16.4415 10.3428 16.4659 10.9542C16.478 11.4434 16.4659 12.3483 17.0867 13.5835C16.8189 14.4395 16.6119 15.5279 16.6119 16.4818C16.6119 16.7753 16.5389 17.4968 16.8554 18.414C16.4902 19.001 16.0033 20.3218 16.3319 22.0828C15.5041 21.5447 14.6885 21.1167 14.0311 20.9332C11.7303 20.2973 9.49036 20.3584 6.08174 19.7714C2.64877 19.1722 0.834898 16.7264 0.834898 16.7264C0.834898 16.7264 0.834898 44.7067 0.834898 46.9936C0.786203 46.9324 0.749682 46.8835 0.737509 46.8713C0.688814 46.8102 0.67664 46.9202 0.725335 47.1526C0.920113 48.0698 2.1253 50.8458 5.59479 51.6407Z" fill="white"/>
<path d="M17.0262 0.779297H16.4175V8.83832H17.0262V0.779297Z" fill="white"/>
<path d="M24.7679 0.779297H24.1592V8.83832H24.7679V0.779297Z" fill="white"/>
</svg>
