<svg width="70" height="71" viewBox="0 0 70 71" fill="none" xmlns="http://www.w3.org/2000/svg">
<path d="M62.7233 26.4526C62.6831 26.1215 62.5422 24.2253 61.6971 22.7103C61.4455 22.2488 61.1236 21.7271 60.7211 21.1251C60.0873 20.182 59.4836 19.6302 58.9504 19.259C59.1818 19.0282 59.2422 18.7674 58.9504 18.4162L58.9806 18.3761C59.1617 18.045 59.0107 17.6437 58.6485 17.5233C58.6284 17.5233 58.6184 17.5132 58.6083 17.5132L58.6284 17.453C58.6888 17.2223 58.6083 16.9614 58.387 16.8611C58.3769 16.8611 58.3568 16.8511 58.3568 16.8511L58.2864 16.821C58.2763 16.3294 57.6424 16.2591 57.0388 16.3093C57.1092 15.9682 57.2098 15.6772 57.1293 15.1856C56.9683 14.2224 55.8516 12.4366 55.5497 12.0252C50.3984 4.9721 43.0639 0.557617 34.9345 0.557617C26.9761 0.557617 19.8025 4.78147 14.6714 11.5738C14.2387 12.1557 13.2326 13.7609 13.2326 13.7609C13.2326 13.7609 12.9107 14.2325 12.7497 15.1956C12.6591 15.6973 12.7698 15.9882 12.8503 16.3494C12.1963 16.2892 11.5926 16.2892 11.3814 16.4197C11.2506 16.4999 11.2204 16.6504 11.2204 16.7507L11.2304 16.7808C10.9487 16.9213 10.8582 17.2624 11.0192 17.5333L11.0091 17.5534C10.828 17.7741 10.8783 18.045 11.0192 18.2757L10.999 18.2958C10.6871 18.7072 10.8984 18.9279 11.2204 19.0683C10.6167 19.4396 9.90238 20.0014 9.13773 21.1251C8.7051 21.7672 8.37309 22.329 8.1115 22.8006C7.32673 24.2554 7.18587 26.0613 7.14563 26.3723C6.73312 29.7233 4.15747 32.3921 0.857422 32.974L4.10717 41.2712C7.08526 40.4685 9.31883 37.1477 9.31883 33.1746L9.29871 31.8503C9.55024 27.4057 10.7073 23.232 12.5585 19.56C14.7116 20.6836 16.261 23.4427 17.1866 25.4994L17.1967 25.5396C17.3174 26.0914 17.4382 26.7034 17.8205 27.1348L17.8507 27.1649C17.9714 27.807 18.1324 28.4993 18.555 29.011V29.0411C18.6556 29.5126 18.7059 30.0443 19.058 30.3855L19.0781 30.4156C19.1385 31.0376 19.3598 31.6797 19.7522 32.1513L19.7623 32.1814V32.1914C19.8629 32.693 19.9635 33.2749 20.376 33.6161L20.3961 33.6361C20.6175 34.2381 20.7483 35.121 21.4123 35.3718L21.4224 35.3919C21.6236 35.7932 22.026 36.0541 22.4587 36.1544L22.4687 36.1644C22.7504 36.4654 23.1529 36.7263 23.5755 36.7463L23.5956 36.7664C23.9075 37.0473 24.3803 37.1978 24.7929 37.1978H24.813C25.145 37.4286 25.6078 37.4386 26.0002 37.4185L26.0203 37.4888C26.6542 40.3181 24.8029 44.6121 25.2557 47.5217C25.3362 48.0434 25.7587 48.6554 25.1752 48.9664L25.1148 48.9965C24.813 49.127 24.481 49.3176 24.2999 49.5985L24.2495 49.6788C23.7465 49.8794 23.2736 50.3309 23.0221 50.8326L22.9718 50.8626C22.4889 51.1837 22.1065 51.7154 21.9556 52.2773L21.9355 52.3475C21.3721 52.8291 21.1306 53.6518 21.0501 54.3842L20.9998 54.4444C20.5269 55.0865 20.5873 56.0095 20.5471 56.8021V56.8623C20.1748 57.7553 20.366 58.8488 20.5169 59.802L20.4967 59.8622C20.3156 60.6447 20.537 61.5176 20.7483 62.3002L20.7785 62.4306C20.5068 63.3135 21.2614 64.9589 20.7684 65.9722C19.3397 68.8617 15.1543 66.2331 13.947 69.0824C13.8665 69.263 14.0274 69.7747 14.5305 69.7045L14.5406 69.7747C14.6009 70.1559 14.8826 70.3767 15.265 70.3064L15.3555 70.2864C15.4863 71.1693 16.7439 70.3666 17.1665 70.3165C18.8367 70.1258 20.6275 70.477 21.9456 70.477C23.8672 70.477 25.2355 70.176 25.7084 68.2898C26.0304 67.0156 26.141 65.0392 27.1975 63.7449C27.5798 63.2633 28.0124 62.862 28.4853 62.5209C30.0246 61.4273 31.9866 60.8454 33.8479 59.7919L33.9384 59.8321C34.3006 60.0127 34.7332 60.4942 35.0451 60.7651C36.8662 62.3403 39.8141 63.153 40.3071 65.9421C40.3675 66.2732 40.3977 66.5341 40.3574 66.7748C40.0656 68.7012 37.158 67.5173 36.0412 67.8785C35.7092 67.9888 33.4555 69.3633 34.3409 69.8249C34.361 69.8349 34.4717 69.8349 34.6628 69.855L34.6729 69.9151C34.7031 70.1961 34.9244 70.3666 35.2061 70.3365L35.2866 70.3165C35.3671 71.1994 36.3933 70.5974 37.0071 70.4971C38.8483 70.2061 41.112 71.0188 42.7419 70.8081C46.2734 70.3566 44.3114 65.5107 44.8447 62.9924C44.895 62.7516 44.9654 62.3403 44.8648 62.2099L44.8749 62.1497C45.1566 61.0461 45.4987 59.8622 45.2773 58.7485L45.2572 58.6683C45.3679 58.0261 45.5389 57.2837 45.3276 56.6617L45.3075 56.6115C45.3075 56.5914 45.4282 54.2839 44.9755 53.3107L44.9654 53.2505C44.8346 52.488 44.895 51.6151 44.4724 50.973L44.4322 50.9128C44.402 50.6018 44.3316 50.2306 44.2511 49.9296C43.7078 47.7524 42.1584 45.7358 41.7257 43.8998C41.3333 42.2343 41.7559 39.5756 43.2349 37.8399L43.2852 37.8299C43.7983 37.6995 44.3215 37.5189 44.7441 37.2179L44.8145 37.1778C45.4685 37.0975 46.0923 36.7263 46.5551 36.2748L46.5953 36.2547C47.2795 36.0039 47.8831 35.4621 48.2856 34.8501L48.3258 34.7999C49.171 34.2582 49.7344 33.295 50.1167 32.372L50.1871 32.2917C50.9115 31.5092 51.2737 30.3855 51.5655 29.3521L51.5856 29.2718C52.1792 28.5394 52.461 27.5562 52.793 26.6733L52.8533 26.6231C53.1652 26.3522 53.3363 25.8907 53.5878 25.4392C54.4531 23.844 56.0125 21.2756 57.1595 20.3927C57.2903 20.2924 57.4312 20.2021 57.5821 20.1218C59.2824 23.6634 60.3388 27.6465 60.5803 31.8804L60.5602 33.2047C60.5602 37.1778 62.7937 40.4986 65.7718 41.3013L69.0216 33.0041C65.7316 32.3921 63.166 29.7735 62.7233 26.4526ZM52.9741 18.1754C50.5292 20.2522 50.3582 23.2922 47.0481 24.7068C42.8425 26.5027 40.7397 24.6767 39.6632 20.4629C39.1501 18.4563 38.5263 15.8979 37.1982 14.1823C36.9668 13.8914 36.5845 13.6104 36.4839 13.2894C36.2827 12.5971 36.4436 11.955 36.2424 11.4132C35.6387 9.85813 34.0692 10.9016 33.7774 11.5838C33.7774 11.5035 33.7674 11.4433 33.7674 11.4433C33.6466 9.90829 31.5841 10.6808 31.7451 12.0052L31.6042 12.1256C31.393 12.1456 31.071 12.1356 30.8195 12.2058C29.5216 12.5269 28.596 14.092 26.9962 14.4632C26.1612 14.6438 23.3139 14.1723 24.1489 15.7775C24.0684 16.0986 23.9075 16.7708 24.0584 17.0718C24.4709 17.8744 26.3523 16.8009 27.1069 17.142C27.5697 17.3527 26.8654 17.6236 26.7246 17.6637C25.6984 17.9948 24.0584 17.4631 24.1691 18.3259C24.2797 19.1586 25.4468 18.9078 26.0203 18.978C27.127 19.1085 28.3746 19.5299 28.7167 21.0649C28.9481 22.0582 28.7469 23.2721 28.6463 23.6434C28.4853 24.2754 28.0124 25.3489 26.9459 25.5797C26.1813 25.7503 25.3261 25.3088 24.6419 24.7971C22.5593 23.2119 20.7885 20.4529 18.394 18.4563C17.2973 17.5333 16.1 16.9815 14.9128 16.6905C14.8223 16.6705 14.6009 16.6303 14.3293 16.5802C19.0077 9.52704 26.5032 4.96207 34.9445 4.96207C43.4361 4.96207 50.9618 9.57721 55.6403 16.7006C54.6442 17.0317 53.628 17.6136 52.9741 18.1754Z" fill="white"/>
</svg>
