<svg width="78" height="69" viewBox="0 0 78 69" fill="none" xmlns="http://www.w3.org/2000/svg">
<path d="M71.839 17.2718C71.8931 17.2445 71.9338 17.2173 71.9879 17.19L71.8525 17.2037C72.7191 16.5087 78.5959 11.7121 76.9981 9.77706C76.0502 9.06846 73.3014 10.9898 72.516 11.5622C72.5566 11.5213 72.5973 11.4804 72.6379 11.4395C73.7482 10.4857 77.2012 7.2561 76.8491 4.63976C76.646 4.01293 68.7787 10.7446 62.428 13.1838C56.0909 15.6093 51.4599 15.2687 48.4267 15.7456C46.0977 16.0999 43.9989 17.7624 42.5906 19.1523C42.6312 18.0213 42.726 16.3043 43.0104 15.3913C43.4437 13.9469 44.879 12.7341 44.7436 9.42276C44.6217 6.15233 41.3178 5.1167 41.0334 4.98043C40.3564 3.72676 38.3929 0.687988 38.3929 0.687988C38.3929 0.687988 37.9596 3.97204 37.8513 5.36198C37.8242 5.3756 37.7836 5.38923 37.77 5.40286C37.5398 5.58001 36.8222 7.56952 36.1181 9.32737C35.6983 10.3766 35.2379 11.2079 35.0754 11.862C34.6963 13.3473 34.4254 13.0066 34.0598 17.9259C32.8005 16.9175 31.2569 16.0045 29.6049 15.7456C26.5717 15.255 21.9407 15.6093 15.6036 13.1838C9.23935 10.7718 1.37208 4.04018 1.16897 4.66701C0.816903 7.28336 4.26983 10.5129 5.38019 11.4668C5.42081 11.5077 5.46143 11.5485 5.50206 11.5894C4.71668 11.0035 1.96788 9.09572 1.02002 9.80431C-0.577811 11.7393 5.29894 16.5359 6.16556 17.2173L6.03015 17.2037C6.07078 17.2309 6.12494 17.2582 6.1791 17.2854C5.56976 17.1219 2.04913 16.2225 1.85955 17.1764C1.20959 19.2477 6.59887 20.951 7.303 21.1691L7.09988 21.1554C7.16759 21.1691 7.24883 21.1827 7.31654 21.2099C6.86969 21.3053 4.35108 21.8913 4.35108 22.5862C4.41878 25.0118 10.6205 25.0527 10.6205 25.0527C10.6205 25.0527 6.57179 26.0474 6.7072 27.1648C6.91031 28.7047 11.5413 28.4185 11.5413 28.4185C11.5413 28.4185 11.5278 28.4321 11.4871 28.4458L11.4059 28.4594C11.4194 28.4594 11.433 28.4594 11.4465 28.4594C10.9861 28.691 8.96853 29.7676 9.46954 30.5034C10.0924 31.9615 15.1296 31.4845 15.1296 31.4845C15.1296 31.4845 13.3964 32.5202 13.5995 33.7057C14.087 35.2319 17.6483 34.5097 18.5149 34.3053L18.4742 34.3325C18.5284 34.3189 18.5961 34.3053 18.6503 34.2917C18.3118 34.4552 16.6462 35.3 17.9597 36.4174C19.2867 37.5621 23.5792 36.0768 24.2833 35.8315C24.3104 35.8315 24.3375 35.8179 24.3781 35.8042C24.2833 35.9405 23.5385 37.1533 24.3104 37.8619C25.5561 39.1837 28.6976 36.7717 29.0362 36.4992C29.0497 36.4992 29.0497 36.4992 29.0632 36.4856C29.0091 36.6491 28.6164 37.9164 29.9705 37.7801C31.1621 37.6711 33.6536 36.2539 34.4661 35.777C28.6435 56.8576 21.2501 61.6134 21.4532 62.2402C21.6564 62.8534 29.0362 68.8356 39.0023 68.8356C48.9684 68.8356 56.3482 62.867 56.5513 62.2402C56.7679 61.6134 49.3611 56.8576 43.5656 35.7906C44.378 36.2675 46.8695 37.6711 48.0611 37.7937C49.4152 37.9164 49.0225 36.6491 48.9684 36.4992C48.9819 36.4992 48.9819 36.4992 48.9955 36.5128C49.3475 36.7854 52.4755 39.1973 53.7212 37.8755C54.4931 37.1533 53.7483 35.9541 53.6535 35.8179C53.6806 35.8315 53.7212 35.8315 53.7483 35.8451C54.4524 36.104 58.7449 37.5757 60.0719 36.4311C61.3854 35.3 59.7199 34.4552 59.3813 34.3053C59.4355 34.3189 59.5032 34.3325 59.5574 34.3462L59.5167 34.3189C60.3834 34.5233 63.9582 35.2455 64.4321 33.7193C64.6352 32.5338 62.902 31.4982 62.902 31.4982C62.902 31.4982 67.9392 31.9751 68.5621 30.517C69.036 29.7812 67.0319 28.7047 66.5851 28.473C66.5986 28.473 66.6122 28.473 66.6257 28.473L66.5445 28.4594C66.5038 28.4458 66.4903 28.4321 66.4903 28.4321C66.4903 28.4321 71.1213 28.7183 71.3244 27.1785C71.4598 26.0611 67.4111 25.0663 67.4111 25.0663C67.4111 25.0663 73.5993 25.0254 73.667 22.5999C73.667 21.8913 71.1213 21.3053 70.7015 21.2099C70.7692 21.1963 70.8369 21.1827 70.9046 21.1691L70.7151 21.1827C71.4327 20.9647 76.7949 19.2477 76.1585 17.19C75.969 16.2089 72.4483 17.1083 71.839 17.2718Z" fill="white"/>
</svg>
