<svg width="64" height="65" viewBox="0 0 64 65" fill="none" xmlns="http://www.w3.org/2000/svg">
<path d="M0.761719 37.4085L8.84702 50.5114H22.15L27.5402 41.3523H15.6818L10.6366 32.732L15.6818 24.3057H27.5402L22.15 14.9526H8.84702L0.761719 28.2495V37.4085Z" fill="white"/>
<path d="M48.196 0.772217L32.7369 1.13858L26.0962 12.6251L31.3139 21.9566L37.4156 11.72L47.2905 11.5476L52.1417 20.3403L46.2124 30.5769L56.9928 30.4045L63.6551 18.918L56.1088 5.44873L48.196 0.772217Z" fill="white"/>
<path d="M56.1088 60.0367L63.6551 46.5675L56.9928 35.0809L46.2124 34.887L52.1417 45.3175L47.2905 53.9378H37.4156L31.3139 43.5073L26.0962 52.8603L32.7369 64.3469L48.196 64.7132L56.1088 60.0367Z" fill="white"/>
</svg>
