<svg width="65" height="57" viewBox="0 0 65 57" fill="none" xmlns="http://www.w3.org/2000/svg">
<path d="M4.8937 26.8195C2.67786 25.0218 1.22116 25.5354 0.369707 22.8748H0.195312L0.27738 27.0661C0.533842 35.7158 9.60234 31.2676 4.8937 26.8195Z" fill="white"/>
<path d="M6.52461 45.4749H6.35022C5.91936 46.0707 5.6629 46.3275 4.98584 46.5843V46.9233C5.58083 47.5191 5.58083 48.0328 5.67316 48.7211V56.5079H7.294V48.8032C7.294 47.9506 7.46839 47.5191 8.06338 46.9233V46.5843C7.294 46.2453 7.03753 46.0809 6.52461 45.4749Z" fill="white"/>
<path d="M4.29835 12.7766V1.13745L3.19043 1.39427V14.9236H3.2725C3.2725 14.9133 3.52896 13.6292 4.29835 12.7766Z" fill="white"/>
<path d="M7.97158 25.5354C7.54072 25.4532 7.02779 24.9395 6.68926 24.4259C6.6072 24.3437 6.4328 24.3437 6.35073 24.4259C6.0122 24.8574 5.58135 25.2785 4.98636 25.5354C4.90429 25.5354 4.90429 25.71 4.98636 25.7922L6.35073 26.9838C6.4328 27.066 6.6072 27.066 6.68926 26.9838L7.97158 25.7819C8.14597 25.6175 8.14597 25.5354 7.97158 25.5354Z" fill="white"/>
<path d="M4.8937 34.0104C2.67786 32.2949 1.22116 32.8085 0.369707 30.0657H0.195312L0.27738 34.3494C0.533842 42.9067 9.60234 38.4586 4.8937 34.0104Z" fill="white"/>
<path d="M4.8937 41.2016C2.67787 39.486 1.22116 39.9997 0.369707 37.2568H0.195312V41.5406C0.533842 50.0978 9.60234 45.7319 4.8937 41.2016Z" fill="white"/>
<path d="M8.14539 26.8195C3.447 31.2676 12.5052 35.726 12.7617 27.0763V22.885H12.5873C11.7359 25.5354 10.3715 25.0218 8.14539 26.8195Z" fill="white"/>
<path d="M8.14539 34.0104C3.447 38.4586 12.5052 42.917 12.7617 34.3494V30.0657H12.5873C11.7359 32.8085 10.3715 32.2949 8.14539 34.0104Z" fill="white"/>
<path d="M8.14539 41.2014C3.447 45.742 12.5052 50.108 12.7617 41.5404V37.3491H12.5873C11.7359 39.9995 10.3715 39.4859 8.14539 41.2014Z" fill="white"/>
<path d="M3.35489 19.1973C2.32904 18.6836 1.38526 17.7385 1.38526 16.1154L1.47759 1.81567L0.277344 2.16495V16.8859V20.4814C0.964662 29.6447 11.1411 23.3064 3.35489 19.1973Z" fill="white"/>
<path d="M9.68506 14.9131L9.76713 1.4763L8.65922 1.21948L8.57715 12.7764C9.34653 13.7215 9.603 15.0056 9.603 15.0056L9.68506 14.9131Z" fill="white"/>
<path d="M9.17151 14.8312C8.65859 13.3725 7.11982 11.4925 7.11982 10.2906V0.962891H5.83751V10.2906C5.75544 11.9137 4.21667 13.4546 3.61142 15.088C2.24704 21.2517 10.9667 20.6559 9.17151 14.8312Z" fill="white"/>
<path d="M7.97157 32.3772C7.54072 32.2025 7.02779 31.7813 6.6072 31.2677C6.6072 31.1855 6.4328 31.1855 6.35073 31.2677C6.0122 31.6991 5.58135 32.1203 4.98636 32.3772C4.90429 32.3772 4.90429 32.5518 4.98636 32.5518L6.35073 33.8359C6.4328 33.8359 6.6072 33.8359 6.68926 33.7537L7.97157 32.5518C8.14597 32.4696 8.0639 32.3772 7.97157 32.3772Z" fill="white"/>
<path d="M6.35073 38.6333C6.0122 39.0648 5.58135 39.486 4.98636 39.7428C4.90429 39.7428 4.90429 39.9174 4.98636 39.9174L6.35073 41.2015C6.4328 41.2015 6.52513 41.2015 6.6072 41.1193L7.97157 39.9174C8.14597 39.8352 8.05364 39.7428 7.97157 39.7428C7.54072 39.5681 7.02779 39.1469 6.6072 38.6333C6.6072 38.5409 6.35073 38.5409 6.35073 38.6333Z" fill="white"/>
<path d="M12.7617 2.16493L11.6538 1.82593V16.1257C11.6538 17.7488 10.8023 18.6939 9.68414 19.2075C1.9082 23.3167 12.0744 29.655 12.8437 20.4916L12.7617 16.8962V2.16493Z" fill="white"/>
<path d="M21.9948 26.8195C19.7687 25.0218 18.3222 25.5354 17.4605 22.885H17.2861L17.3682 27.0763C17.6349 35.7158 26.6932 31.2676 21.9948 26.8195Z" fill="white"/>
<path d="M23.6154 45.4749H23.441C23.0102 46.0707 22.7537 46.3275 22.0767 46.5843V46.9233C22.6717 47.5191 22.6717 48.0328 22.764 48.7211V56.5079H24.3848V48.7313C24.3848 47.9609 24.5592 47.5294 25.1542 46.9336V46.5946C24.3848 46.2453 24.1284 46.0809 23.6154 45.4749Z" fill="white"/>
<path d="M21.3994 12.7766V1.13745L20.2915 1.39427V14.9236H20.3736C20.3736 14.9133 20.63 13.6292 21.3994 12.7766Z" fill="white"/>
<path d="M25.0722 25.5354C24.6413 25.4532 24.1284 24.9395 23.7898 24.4259C23.7078 24.3437 23.5334 24.3437 23.4513 24.4259C23.1128 24.8574 22.6819 25.2785 22.0869 25.5354C22.0049 25.5354 22.0049 25.71 22.0869 25.7922L23.4513 26.9941C23.5334 27.0763 23.7078 26.9941 23.7898 26.9941L25.0722 25.7922C25.2465 25.6175 25.2465 25.5354 25.0722 25.5354Z" fill="white"/>
<path d="M21.9948 34.0107C19.7687 32.2951 18.3222 32.8087 17.4605 30.0762H17.2861L17.3682 34.3599C17.6349 42.9069 26.6932 38.4588 21.9948 34.0107Z" fill="white"/>
<path d="M21.9948 41.2016C19.7687 39.486 18.3222 39.9997 17.4605 37.2671H17.2861V41.5406C17.6349 50.0978 26.6932 45.7319 21.9948 41.2016Z" fill="white"/>
<path d="M25.2465 26.8195C20.5481 31.2676 29.6063 35.726 29.8628 27.0763V22.885H29.6884C28.8369 25.5354 27.4623 25.0218 25.2465 26.8195Z" fill="white"/>
<path d="M25.2465 34.0104C20.5481 38.4586 29.6063 42.917 29.8628 34.3494V30.0657H29.6884C28.8369 32.8085 27.4623 32.2949 25.2465 34.0104Z" fill="white"/>
<path d="M25.2465 41.2016C20.5481 45.7422 29.6063 50.1081 29.8628 41.5406V37.2568H29.6884C28.8369 39.9997 27.4623 39.486 25.2465 41.2016Z" fill="white"/>
<path d="M20.456 19.1973C19.4301 18.6836 18.4863 17.7385 18.4863 16.1154L18.5684 1.81567L17.3682 2.15468V16.8859V20.4814C18.0657 29.6447 28.2319 23.3064 20.456 19.1973Z" fill="white"/>
<path d="M26.7847 14.9131L26.8668 1.4763L25.7588 1.21948L25.6665 12.7764C26.4359 13.629 26.6924 15.0056 26.6924 15.0056L26.7847 14.9131Z" fill="white"/>
<path d="M26.2726 14.749C25.7597 13.3827 24.2209 11.4925 24.2209 10.3009V0.962891H22.9386V10.2906C22.8565 11.8315 21.3177 13.4546 20.7125 15.088C19.3481 21.2517 28.0678 20.6559 26.2726 14.749Z" fill="white"/>
<path d="M25.0722 32.3772C24.6413 32.2025 24.1284 31.6889 23.7078 31.2677C23.7078 31.1855 23.5334 31.1855 23.4513 31.2677C23.1128 31.6991 22.6819 32.1203 22.0869 32.3772C22.0049 32.3772 22.0049 32.5518 22.0869 32.5518L23.4513 33.8359C23.5334 33.8359 23.7078 33.8359 23.7898 33.7537L25.0722 32.5518C25.2465 32.4696 25.1542 32.3772 25.0722 32.3772Z" fill="white"/>
<path d="M23.4513 38.6333C23.1128 39.0648 22.6819 39.486 22.0869 39.7428C22.0049 39.7428 22.0049 39.9174 22.0869 39.9174L23.4513 41.2015C23.5334 41.2015 23.6257 41.2015 23.7078 41.1193L25.0722 39.9174C25.2465 39.8352 25.1542 39.7428 25.0722 39.7428C24.6413 39.5681 24.1284 39.0545 23.7078 38.6333C23.7078 38.5409 23.4513 38.5409 23.4513 38.6333Z" fill="white"/>
<path d="M29.8627 2.16493L28.7548 1.82593V16.1257C28.7548 17.7488 27.9034 18.6939 26.7852 19.2075C19.0093 23.3167 29.1754 29.655 29.9448 20.4916L29.8627 16.8962V2.16493Z" fill="white"/>
<path d="M39.0959 26.8195C36.8698 25.0218 35.5054 25.5354 34.5616 22.885H34.3872L34.4693 27.0763C34.736 35.7158 43.7943 31.2676 39.0959 26.8195Z" fill="white"/>
<path d="M40.7155 45.4749H40.5411C40.1103 46.0707 39.8538 46.3275 39.1768 46.5843V46.9233C39.7718 47.5191 39.7718 48.0328 39.8641 48.7211V56.5079H41.4849V48.7313C41.4849 47.9609 41.6593 47.5294 42.2543 46.9336L42.1722 46.5946C41.4849 46.2453 41.2285 46.0809 40.7155 45.4749Z" fill="white"/>
<path d="M38.4902 12.7766V1.13745L37.3823 1.39427V14.9236H37.4644C37.4644 14.9133 37.7209 13.6292 38.4902 12.7766Z" fill="white"/>
<path d="M42.1732 25.5354C41.7424 25.4532 41.2295 24.9395 40.8089 24.4259C40.8089 24.3437 40.6345 24.3437 40.5524 24.4259C40.2139 24.8574 39.783 25.2785 39.188 25.5354C39.1059 25.5354 39.1059 25.71 39.188 25.7922L40.5524 26.9941C40.6345 27.0763 40.8089 26.9941 40.8909 26.9941L42.1732 25.7922C42.3374 25.6175 42.3374 25.5354 42.1732 25.5354Z" fill="white"/>
<path d="M39.0959 34.0104C36.8698 32.2949 35.4131 32.8085 34.5616 30.0657H34.3872V34.3494C34.736 42.9067 43.7942 38.4586 39.0959 34.0104Z" fill="white"/>
<path d="M39.0959 41.2016C36.7877 39.486 35.4131 39.9997 34.5616 37.2568H34.3872V41.5406C34.736 50.0978 43.7942 45.7319 39.0959 41.2016Z" fill="white"/>
<path d="M42.3373 26.8195C37.6389 31.2676 46.6971 35.726 46.9536 27.0763V22.885H46.7792C45.9278 25.5354 44.5634 25.0218 42.3373 26.8195Z" fill="white"/>
<path d="M42.3373 34.0104C37.6389 38.4586 46.6971 42.917 46.9536 34.3494V30.0657H46.7792C45.9278 32.8085 44.5634 32.2949 42.3373 34.0104Z" fill="white"/>
<path d="M42.3373 41.2014C37.6389 45.742 46.6971 50.108 46.9536 41.5404V37.3491H46.7792C45.9278 39.9995 44.5634 39.4859 42.3373 41.2014Z" fill="white"/>
<path d="M37.5571 19.1973C36.5312 18.6836 35.5875 17.7385 35.5875 16.1154L35.6695 1.81567L34.4693 2.15468V16.8859L34.3872 20.4814C35.1566 29.6447 45.333 23.3064 37.5571 19.1973Z" fill="white"/>
<path d="M43.8755 15.0056L43.9678 1.4763L42.8599 1.21948L42.7676 12.7764C43.537 13.629 43.7934 15.0056 43.7934 15.0056H43.8755Z" fill="white"/>
<path d="M43.3634 14.8312C42.8505 13.3725 41.3117 11.4925 41.3117 10.2906V0.962891H40.0294V10.2906C39.9473 11.8315 38.4086 13.4546 37.8033 15.088C36.4389 21.2517 45.1587 20.6559 43.3634 14.8312Z" fill="white"/>
<path d="M42.1732 32.3772C41.7424 32.2025 41.2295 31.7813 40.8089 31.2677C40.8089 31.1855 40.5524 31.1855 40.5524 31.2677C40.2139 31.6991 39.783 32.1203 39.188 32.3772C39.1059 32.3772 39.1059 32.5518 39.188 32.5518L40.5524 33.8359C40.6345 33.8359 40.8089 33.8359 40.8089 33.7537L42.1732 32.5518C42.3374 32.4696 42.3374 32.3772 42.1732 32.3772Z" fill="white"/>
<path d="M40.5421 38.6333C40.2036 39.0648 39.7727 39.486 39.1777 39.7428C39.0033 39.7428 39.0957 39.9174 39.1777 39.9174L40.5421 41.2015C40.6242 41.2015 40.7986 41.2015 40.7986 41.1193L42.1629 39.9174C42.3373 39.8352 42.245 39.7428 42.1629 39.7428C41.65 39.5681 41.2192 39.1469 40.7986 38.6333C40.7986 38.5409 40.5421 38.5409 40.5421 38.6333Z" fill="white"/>
<path d="M46.9536 2.16495L45.8457 1.81567V16.1154C45.8457 17.7385 44.9942 18.6836 43.876 19.1973C36.1001 23.3064 46.2663 29.6447 47.0356 20.4814L46.9536 16.8859V2.16495Z" fill="white"/>
<path d="M56.1867 26.8195C53.9606 25.0218 52.5141 25.5354 51.6524 22.885H51.4883L51.5703 27.0763C51.8268 35.7158 60.8953 31.2676 56.1867 26.8195Z" fill="white"/>
<path d="M57.8166 45.4749H57.6423C57.2114 46.0707 56.9549 46.3275 56.1855 46.5843L56.2676 46.9233C56.8626 47.5191 56.8626 48.0328 56.9549 48.8032V56.5079H58.5758V48.8032C58.5758 47.9506 58.7502 47.5191 59.2631 46.9233V46.5843C58.586 46.3378 58.3296 46.0809 57.8166 45.4749Z" fill="white"/>
<path d="M55.5913 12.7766L55.5092 1.13745L54.4834 1.39427V14.9236H54.5655C54.5655 14.9133 54.8219 13.6292 55.5913 12.7766Z" fill="white"/>
<path d="M59.2631 25.5354C58.8322 25.4532 58.3193 24.9395 57.9808 24.4259C57.8987 24.3437 57.7243 24.3437 57.6422 24.4259C57.3037 24.8574 56.8729 25.2785 56.2779 25.5354C56.1958 25.6175 56.1958 25.71 56.2779 25.7922L57.6422 26.9941C57.7243 27.0763 57.8987 27.0763 57.9808 26.9941L59.2631 25.7922C59.4375 25.6175 59.3554 25.5354 59.2631 25.5354Z" fill="white"/>
<path d="M56.1867 34.0104C53.9708 32.2949 52.5141 32.8085 51.6627 30.0657H51.4883L51.5703 34.3494C51.8268 42.9067 60.8953 38.5407 56.1867 34.0104Z" fill="white"/>
<path d="M56.1867 41.2014C53.9708 39.4859 52.5141 39.9995 51.6627 37.3491H51.4883V41.5404C51.7447 50.0977 60.8953 45.7317 56.1867 41.2014Z" fill="white"/>
<path d="M59.4384 26.8195C54.74 31.2676 63.7982 35.726 64.0547 27.0763V22.885H63.8803C63.0288 25.6176 61.6644 25.1039 59.4384 26.8195Z" fill="white"/>
<path d="M59.4384 34.0104C54.74 38.4586 63.7982 42.917 64.0547 34.3494V30.0657H63.8803C63.0288 32.8085 61.6644 32.2949 59.4384 34.0104Z" fill="white"/>
<path d="M59.4382 41.2014C54.6475 45.742 63.7981 50.1901 64.0545 41.5404V37.3491H63.8801C63.0287 39.9995 61.6643 39.4859 59.4382 41.2014Z" fill="white"/>
<path d="M54.6479 19.1973C53.622 18.6836 52.6782 17.7385 52.6782 16.1154L52.7603 1.81567L51.5601 2.15468V16.8859V20.4814C52.2576 29.6447 62.4341 23.3064 54.6479 19.1973Z" fill="white"/>
<path d="M60.9766 15.0056L61.0586 1.4763L59.9507 1.21948L59.8687 12.7764C60.638 13.7215 60.8945 15.0056 60.8945 15.0056H60.9766Z" fill="white"/>
<path d="M60.4635 14.8312C59.9506 13.4649 58.4118 11.4925 58.4118 10.2906V1.04507L57.1295 0.962891V10.2906C57.0474 11.9137 55.5087 13.4546 54.9034 15.088C53.539 21.2517 62.2587 20.6559 60.4635 14.8312Z" fill="white"/>
<path d="M59.2631 32.3772C58.8322 32.295 58.3193 31.7813 57.8987 31.2677C57.8987 31.1855 57.7243 31.1855 57.6422 31.2677C57.3037 31.6992 56.8729 32.1203 56.2779 32.3772C56.1958 32.3772 56.1958 32.5518 56.2779 32.634L57.6422 33.8359C57.7243 33.9181 57.8987 33.8359 57.9808 33.8359L59.2631 32.634C59.4375 32.4696 59.3554 32.3772 59.2631 32.3772Z" fill="white"/>
<path d="M57.6422 38.6333C57.3037 39.0648 56.8729 39.486 56.2779 39.7428C56.1958 39.7428 56.1958 39.9174 56.2779 39.9996L57.6422 41.2015C57.7243 41.2015 57.8166 41.2015 57.8987 41.2015L59.2631 39.9996C59.4375 39.825 59.3451 39.7428 59.2631 39.7428C58.8322 39.6606 58.3193 39.1469 57.8987 38.6333C57.8987 38.5409 57.6422 38.5409 57.6422 38.6333Z" fill="white"/>
<path d="M64.1367 20.4814L64.0547 16.8859V2.16493L62.9467 1.82593V16.1257C62.9467 17.7488 62.0953 18.6939 60.9771 19.2075C53.2012 23.3064 63.3673 29.6447 64.1367 20.4814Z" fill="white"/>
</svg>
