<svg width="126" height="119" viewBox="0 0 126 119" fill="none" xmlns="http://www.w3.org/2000/svg">
<path d="M16.2512 54.5786V46.9475C16.2512 44.6619 16.9345 42.45 18.2826 40.5883L19.8523 38.3764C17.4885 37.4917 15.4202 35.9986 13.8505 34.137L12.2808 36.3489C10.0463 39.4824 8.90137 43.132 8.90137 46.9475V54.5786H16.2512Z" fill="#FF4D00"/>
<path d="M32.4835 24.6994C32.4835 28.7361 29.1779 32.0355 25.0967 32.0355C21.034 32.0355 17.71 28.7361 17.71 24.6994C17.71 20.6627 21.0155 17.3633 25.0967 17.3633C29.1779 17.3633 32.4835 20.6258 32.4835 24.6994Z" fill="#FF4D00"/>
<path d="M117.135 54.5786V46.9475C117.135 43.132 115.954 39.4455 113.756 36.3489L112.186 34.137C110.58 36.0355 108.511 37.4917 106.185 38.3764L107.754 40.5883C109.102 42.45 109.786 44.6619 109.786 46.9475V54.5786H117.135Z" fill="#FF4D00"/>
<path d="M108.272 24.6994C108.272 28.7361 104.966 32.0355 100.885 32.0355C96.8221 32.0355 93.498 28.7361 93.498 24.6994C93.498 20.6627 96.8036 17.3633 100.885 17.3633C104.966 17.3633 108.272 20.6258 108.272 24.6994Z" fill="#FF4D00"/>
<path d="M90.3225 49.694C89.2329 40.9017 81.6984 34.2476 72.7604 34.2476H53.2223C44.2659 34.2476 36.7498 40.8648 35.6603 49.694L35.0693 54.5786H90.9503L90.3225 49.694Z" fill="#FF4D00"/>
<path d="M76.7854 13.4557C76.7854 20.884 70.7098 26.9114 63.2307 26.9114C55.7516 26.9114 49.7129 20.884 49.7129 13.4557C49.7129 6.02742 55.7885 0 63.2307 0C70.7098 0 76.7854 6.02742 76.7854 13.4557Z" fill="#FF4D00"/>
<path d="M118.391 83.9045H7.64453V119H118.391V83.9045Z" fill="#FF4D00"/>
<path d="M123.544 61.9146H2.4561C1.10802 61.9146 0 63.0205 0 64.3476V74.1168C0 75.444 1.10802 76.5684 2.4561 76.5684H123.544C124.892 76.5684 126 75.4624 126 74.1168V64.3476C126 63.0205 124.892 61.9146 123.544 61.9146Z" fill="#FF4D00"/>
</svg>
