<svg width="125" height="153" viewBox="0 0 125 153" fill="none" xmlns="http://www.w3.org/2000/svg">
<path d="M27.1207 0C27.8973 0 28.0567 0.1594 28.0766 0.179325C28.0965 0.179325 28.4749 0.179325 28.674 0.378574C29.4307 1.29512 29.829 2.03235 30.0083 2.9489C30.2074 3.12822 30.2074 3.12822 30.4066 3.32747C30.5858 3.32747 30.7849 3.5068 30.9841 3.5068C31.3624 3.5068 31.94 3.5068 32.3183 3.68612C32.4976 3.88537 32.8959 4.06469 32.8959 4.24402C33.4734 4.78199 33.4734 4.98124 33.4734 5.16057C34.4293 5.16057 34.6284 4.98124 34.8076 4.98124C34.9869 4.98124 35.186 4.98124 35.3852 5.16057C35.5644 5.33989 35.5644 5.33989 35.7635 5.53914C37.1177 5.16057 37.2969 5.00117 37.2969 4.80192C38.452 4.42334 38.452 4.62259 38.6312 4.80192C38.8304 5.00117 39.2286 5.33989 39.4079 5.33989C40.5629 5.33989 40.7621 5.16057 40.9413 5.16057C42.4548 4.98124 42.8331 4.80192 42.8531 4.78199C43.4306 4.60267 43.6098 4.24402 44.0081 3.86544C44.2072 3.48687 44.5856 3.12822 44.964 2.9489C45.1631 2.74965 45.5415 2.74965 45.9398 2.74965C47.055 2.57032 48.0109 2.57032 49.1659 2.391H49.7435C50.1218 2.9489 50.1218 3.12822 50.1218 3.32747C50.1218 3.68612 50.1218 3.86544 49.9227 4.04477C49.9227 4.78199 50.1019 5.14064 50.1218 5.16057C50.1218 5.33989 50.321 5.53914 50.5002 5.69854C50.6993 5.89779 50.8985 6.07712 51.0777 6.25644C51.2769 6.43577 51.476 6.79442 51.6751 6.79442C51.8544 6.97374 52.0535 6.97374 52.4319 6.97374C53.0094 6.79442 53.2086 6.79442 53.4077 6.79442C53.7861 6.79442 53.9852 6.97374 54.1844 6.97374C55.3394 6.79442 55.6979 6.43577 56.0762 6.05719C56.4745 5.67862 56.8529 5.31997 57.2313 5.14064C57.4105 4.96132 57.6096 4.96132 57.8088 4.96132C58.1872 4.96132 58.3863 5.14064 58.5655 5.14064C59.143 5.14064 59.3422 4.96132 59.7405 4.96132C59.9197 4.96132 60.1189 4.96132 60.318 5.14064C60.4972 5.14064 60.6964 5.31997 60.8955 5.51922L60.6964 6.25644C62.0306 8.08954 62.409 9.00609 62.8073 9.74331C63.1857 9.74331 63.3848 9.92264 63.564 10.2813C63.7632 10.4805 63.9623 10.8193 63.9623 11.0185C64.3407 11.3971 64.739 11.5565 65.1174 11.9351C65.3165 12.3136 65.4958 12.473 65.6949 12.6723C65.894 12.8516 66.2724 12.8516 66.4715 13.0509C67.0491 13.2302 67.6266 13.2302 68.3833 13.2302C68.7617 12.6922 68.7617 12.3136 69.1401 12.1343C69.3392 11.9351 69.5384 11.7557 69.7176 11.7557C70.1159 11.7557 70.6934 11.7557 71.0519 11.5565C71.4502 11.5565 71.8285 11.3772 72.0277 11.0185C71.8285 10.102 71.8285 10.102 71.6294 9.90271C72.0277 8.24894 72.2069 7.87036 72.406 7.51171C72.8043 7.13314 72.9836 6.95382 73.1827 6.95382C73.3819 6.77449 73.5611 6.77449 73.7602 6.77449C74.1386 6.39592 74.1386 6.39592 74.3377 6.23652C75.1144 6.03727 75.3135 6.03727 75.4928 6.23652C75.4928 6.59517 75.4928 6.77449 75.4928 6.95382C75.6919 7.87036 75.6919 8.24894 75.6919 8.42826C75.6919 8.60759 75.6919 8.80684 75.6919 8.96624L76.6478 9.88279L77.0461 10.62C77.0461 11.158 77.0461 11.5366 77.0461 11.9151C77.2253 12.4531 77.4245 12.4531 77.6236 12.6524C78.5795 13.0309 78.9579 13.0309 79.157 13.0309C79.7346 12.8317 79.9337 12.6524 80.1328 12.473C80.5112 11.9351 80.9095 11.7557 81.2879 11.5565C81.6662 11.3772 82.2438 11.1779 82.8213 11.1779C83.4187 11.3772 83.9763 11.7358 84.5538 11.9151C85.1313 12.2937 85.5097 12.4531 86.0872 12.4531C86.4855 12.4531 86.6648 12.4531 87.0631 12.0945C87.6406 11.8952 87.8198 11.8952 88.0189 11.8952C88.2181 11.8952 88.5965 11.8952 88.7956 11.8952C88.9948 11.8952 89.174 12.0945 89.3731 12.0945C89.7515 12.0945 89.9506 12.0945 90.329 11.8952C90.5282 11.8952 90.9264 11.7159 91.1057 11.7159C91.3048 11.7159 91.504 11.7159 91.8823 11.8952C92.2607 12.0945 92.2607 12.4332 92.4599 12.6324C93.0374 12.8118 93.2365 12.8118 93.4357 12.6324C93.6149 12.4332 93.814 12.4332 94.1924 12.2539C94.9691 11.3373 94.9691 10.9587 95.3475 10.7794C95.5466 10.6001 95.7457 10.4208 96.1241 10.4208C96.7016 10.4208 96.9008 10.6001 97.2791 10.6001C97.6774 10.7794 98.0558 10.9787 98.255 11.1381C98.4342 11.3373 98.4342 11.5166 98.6333 11.5166C98.8325 11.8952 99.2108 12.0745 99.6091 12.0745C99.9875 12.2539 100.366 12.2539 100.764 12.4332C100.943 12.6324 101.143 12.6324 101.342 12.8118C101.919 13.011 102.497 13.1903 102.696 13.1903C103.074 13.1903 103.273 13.011 103.453 12.8118C103.851 12.6324 104.05 12.2738 104.608 11.8952C104.787 11.7159 104.986 11.3572 104.986 10.9787C105.185 10.6001 105.185 10.2414 105.564 10.0621C106.141 10.2414 106.32 10.4208 106.34 10.4407C107.296 10.62 107.495 10.7993 107.674 10.7993C108.63 11.1779 109.029 10.9986 109.387 10.9986C109.965 11.3772 109.965 11.7358 109.965 12.1144C109.965 12.473 109.765 13.0309 109.765 13.4095C109.387 13.9475 109.009 14.3261 108.431 14.7046C108.252 14.884 108.252 15.0832 108.053 15.2426C108.053 16.1592 108.252 16.1592 108.431 16.3584C108.63 17.0757 108.431 17.275 108.431 17.4543C108.252 17.6535 108.252 18.0122 108.252 18.1915C108.252 18.3907 108.252 18.5701 108.63 18.7295C108.63 19.108 108.63 19.4667 108.431 19.8453C108.252 20.2238 108.252 20.5825 107.854 20.7618C107.854 21.6784 107.854 21.8776 108.252 21.8776C108.63 21.8776 109.208 21.8776 109.785 22.0569C110.184 22.0569 110.562 22.2562 110.761 22.2562C110.761 22.9934 110.562 23.1727 110.562 23.3521C110.363 23.5513 110.363 23.7306 110.363 23.91C110.363 24.2885 110.562 24.6273 110.562 25.2051C110.94 25.9423 111.14 26.1216 111.339 26.1216L112.115 25.5837C113.071 25.5837 113.071 25.763 113.27 25.9622C113.45 26.1416 113.848 26.5002 114.027 26.5002C114.226 26.6795 114.425 26.6795 114.625 26.6795C114.804 26.6795 115.202 26.6795 115.58 26.301C116.158 26.301 116.357 26.301 116.536 26.5002V27.4168C116.158 27.9547 115.58 28.5326 114.824 28.8912C114.645 29.0905 114.645 29.0905 114.445 29.2698C114.047 30.007 113.868 30.007 113.669 30.2063C113.091 30.3856 112.713 30.3856 112.514 30.3856C112.315 30.3856 111.936 30.3856 111.936 30.5649C111.538 31.1228 111.359 31.1228 110.96 31.1228C110.582 31.1228 110.383 31.1228 110.004 30.9236C109.626 30.9236 109.427 30.7442 109.228 30.7442C108.451 30.7442 108.272 30.7442 108.073 30.9236C107.694 31.3021 107.694 31.6608 107.694 32.2187C107.874 32.9559 108.073 33.1552 108.272 33.1552C108.451 33.5138 108.849 33.6931 109.049 34.0717C109.228 34.251 109.228 34.4503 109.228 34.6097C107.694 35.9048 107.316 36.4627 106.938 37.18C106.161 37.18 105.962 37.0007 105.783 37.0007C105.583 36.8014 105.384 36.8014 105.205 36.8014L104.428 37.5386C103.453 37.0007 102.716 36.8014 101.74 36.8014C101.561 36.8014 101.362 36.8014 100.963 36.8014C100.784 37.0007 100.784 37.0007 100.585 37.18C100.963 37.9172 101.162 37.9172 101.362 38.0965C101.561 38.2958 101.561 38.4751 101.561 38.6544C101.561 39.033 101.561 39.1924 101.74 39.3917C101.74 39.571 101.939 39.7503 102.138 39.9296C102.317 40.4676 102.317 40.6669 102.138 40.8462C102.138 41.0454 101.939 41.2248 101.939 41.3842L104.229 44.5323C104.807 45.0703 104.807 45.4489 104.807 45.6282C104.229 46.3654 104.05 46.5647 103.851 46.744C103.652 46.9233 103.453 47.282 103.074 47.4812L101.74 48.9557C101.362 48.5771 101.362 48.5771 101.162 48.4177C100.963 48.4177 100.386 48.2384 100.007 48.2384C99.629 48.2384 99.0515 48.2384 98.474 48.0391C98.0956 47.8598 97.8965 47.6605 97.7173 47.5011C97.319 47.3019 96.9406 47.1226 96.7415 46.9432C96.5622 46.7639 96.3631 46.5846 96.1639 46.4053C95.9847 46.2259 95.9847 46.0267 95.7856 45.668C95.3873 44.9507 95.208 44.7515 95.0089 44.5722C95.0089 44.3729 95.0089 44.1936 95.0089 44.0342C95.0089 43.6556 95.0089 43.4763 95.0089 43.0977C95.0089 42.9184 94.8098 42.5597 94.6305 42.3804C93.8539 42.3804 93.0971 42.5597 92.5196 42.7391L91.7429 44.0541C91.9421 44.5921 92.1412 44.7714 92.1412 44.9707C92.1412 45.15 92.3205 45.5086 92.3205 45.688C92.3205 46.2459 92.1412 46.8038 91.7429 47.3417C91.5637 47.541 91.5637 47.7203 91.3646 48.079C91.3646 48.2782 91.1654 48.6169 91.1654 48.8162L90.787 49.5534C90.5879 49.7327 90.3888 49.7327 90.2095 49.9121C90.0104 50.1113 89.8112 50.2906 89.4329 50.2906C89.2337 50.2906 89.0545 50.1113 88.8553 49.9121C88.6562 49.7327 88.477 49.5534 88.2778 49.3741C88.0787 49.1948 87.7003 48.9955 87.7003 48.8361V47.9196C88.2778 47.1823 88.2778 46.8038 88.477 46.6244L88.6562 45.15C88.477 44.2334 88.477 44.0541 88.477 43.8549C88.477 43.4763 88.477 43.1176 88.477 42.7391C88.477 42.3804 88.6562 42.0218 88.8553 41.8225C89.0545 41.6432 89.0545 41.6432 89.4329 41.6432C89.4129 41.8424 89.5922 41.8424 89.9706 41.8424C90.7472 41.8424 91.1256 41.3045 91.1256 40.5473C90.5481 40.5473 90.3489 40.5473 90.1498 40.5473L89.393 39.4514L88.6164 39.0729C88.238 38.515 87.6406 38.1364 86.9037 38.1364C85.9279 38.6943 84.7928 38.515 83.8369 38.6943C83.6378 38.6943 83.2594 38.8736 83.0602 39.0729C82.8611 39.2522 82.4827 39.2522 82.0844 39.2522C81.5069 39.0729 81.5069 38.8736 81.3277 38.7142C81.1286 38.515 81.1286 38.3356 80.9294 38.3356C80.7502 38.1364 80.551 38.1364 80.3519 38.1364C79.9735 37.9571 79.396 37.9571 79.0176 37.7777C78.4401 37.7777 78.2609 37.7777 78.0617 37.7777C77.8626 37.9571 77.8626 38.3157 77.6834 38.6943C77.4842 39.0729 77.4842 39.6108 77.2851 39.9894C77.0859 40.1687 76.9067 40.368 76.7076 40.5274C76.5084 40.7266 76.5084 40.7266 76.3292 40.906C76.13 41.1052 76.13 41.2845 76.13 41.4439C76.3292 41.8225 76.5084 42.1812 76.5084 42.5597C76.5084 42.7391 76.5084 42.9383 76.3292 43.0977C76.13 43.297 75.9309 43.4763 75.7517 43.8349C75.3534 44.2135 75.1741 44.3729 74.7759 44.5722C74.5767 44.7515 74.3975 44.7515 73.9992 44.7515C73.82 44.9507 73.6208 45.3094 73.6208 45.4887C73.2425 45.668 73.2424 45.8673 73.2424 46.0267C73.4217 46.4053 73.6208 46.7639 73.6208 46.9432C73.82 47.3218 73.82 47.5011 73.9992 47.8797C74.3975 48.059 74.5767 48.059 74.7759 48.2583C74.975 48.4376 74.975 48.6169 74.975 48.7963C74.975 48.9756 74.975 49.3342 74.7759 49.7128C74.3975 49.8921 74.1983 50.2508 73.82 50.45C73.4217 50.6294 73.2424 50.988 73.2424 51.3666C73.2424 51.5459 73.0433 51.7452 73.0433 51.9046C73.4217 52.6418 73.6208 52.841 73.82 53.0204C73.9992 53.1997 74.1983 53.3989 74.3975 53.7576C74.5767 53.9369 74.7759 54.1362 74.975 54.4749C75.9309 55.0328 77.066 55.4113 78.0418 55.7899C78.241 55.7899 78.4202 55.7899 78.6193 55.9692C78.8185 56.1486 78.8185 56.1486 78.9977 56.3478C79.1969 56.5271 79.1969 56.8858 79.396 57.085C79.5752 57.2644 79.5752 57.2644 79.9735 57.2644C80.551 57.085 80.7502 57.085 80.9294 57.2644C81.1286 57.4636 81.1286 57.4636 81.3277 57.6429C81.5069 58.0215 81.5069 58.3802 81.5069 58.5595C81.5069 58.7587 81.7061 58.9381 81.7061 59.1174C81.9052 59.2967 82.0844 59.476 82.4827 59.6554C82.8611 59.8347 83.2594 59.8347 83.4386 60.0339C84.0162 60.5719 84.2153 60.9505 84.4144 61.5084C84.5937 62.0663 84.4144 62.4249 84.5937 63.1622C85.3703 63.1622 85.5695 63.1622 85.9478 63.3614C86.147 63.5407 86.5254 63.7201 86.7245 63.8994C86.9236 64.278 87.1029 64.6366 87.5012 65.0152C87.8795 65.1945 88.2778 65.3738 88.6562 65.3738C88.8553 65.3738 89.2337 65.3738 89.4329 65.1945C90.7671 64.0787 91.723 62.9828 92.8781 62.0663C94.2123 62.0663 94.4115 62.2456 94.5907 62.2456C94.989 62.0663 94.989 61.867 95.1682 61.7076C95.3674 61.5084 95.5665 61.3291 95.7656 61.3291C95.9449 61.3291 96.144 61.3291 96.3432 61.3291C97.2991 61.3291 98.0558 61.7076 98.8325 62.2456C99.5892 62.7836 100.167 63.1622 100.923 63.3614C102.457 62.2456 102.636 62.0663 102.636 61.887C102.835 61.7076 102.835 61.5084 103.034 61.5084C103.413 61.3291 103.612 61.1298 103.99 60.9704C104.966 60.4324 105.703 60.2332 106.3 60.0539C106.679 59.8546 106.878 59.8546 107.057 59.6753C107.455 59.476 107.635 59.2967 108.033 59.1373C108.411 58.9381 108.81 58.5794 108.989 58.4001C109.188 58.2008 109.387 58.2008 109.765 58.0215C109.965 58.0215 110.343 58.2008 110.721 58.4001C111.12 58.5794 111.498 58.7787 111.697 58.7787C112.275 58.7787 112.474 58.7787 112.653 58.7787C112.852 58.7787 113.051 58.7787 113.231 58.5794C113.231 58.5794 113.43 58.4001 113.629 58.2008C113.629 57.6629 114.007 57.105 114.206 56.7264C114.585 56.3478 114.983 55.9892 115.162 55.6106C115.361 55.4313 115.561 55.0726 115.74 54.8734C115.939 54.694 116.317 54.4948 116.516 54.3354C116.716 54.3354 116.915 54.1561 117.094 53.9568C117.293 53.7775 117.293 53.5782 117.293 53.4188C117.492 53.0403 117.492 52.5023 117.492 52.1237L118.448 51.3865C118.647 51.2072 118.827 51.0079 118.827 50.8485C119.026 50.6493 119.026 50.2906 119.225 50.1113C119.424 49.9121 119.424 49.9121 119.603 49.7327C121.137 50.6493 121.316 50.6493 121.515 50.6493C122.092 50.8485 122.292 51.0279 122.491 51.0279C122.67 51.0279 123.068 50.8485 123.447 50.8485C123.825 50.6493 124.024 50.6493 124.403 50.47C124.602 50.47 124.801 50.2707 125 50.2707C125 51.0079 125 51.0079 124.801 51.2072C124.403 53.0403 123.646 54.5147 123.646 55.9892C123.646 56.5271 123.447 56.9057 123.447 57.2843C123.248 57.6629 123.068 58.0215 122.869 58.4001C122.491 58.5794 122.491 58.7787 122.092 58.9381C121.893 59.1373 121.714 59.3166 121.316 59.476C121.137 60.7712 120.937 61.7076 120.36 62.4249C121.893 62.6242 121.893 62.9828 121.714 63.5407C121.714 63.9193 121.515 64.4573 121.515 64.8359C120.937 65.5731 120.738 65.9517 120.738 66.131C121.515 66.669 121.893 66.8682 122.272 67.2468C122.471 67.4261 122.65 67.7848 122.65 67.9641C122.849 68.9006 122.65 69.0799 122.471 69.2791C122.272 69.4585 122.073 69.6378 121.873 69.8171C121.495 70.7337 121.694 71.2915 121.694 71.6502C120.918 72.0288 120.34 71.8494 119.782 71.4709C119.205 71.2716 118.627 70.913 118.249 70.7337C117.871 70.5543 117.672 70.5543 117.492 70.5543C116.915 70.913 116.337 71.2716 115.959 71.4709C114.425 72.0089 114.246 72.9453 113.848 74.0412C113.669 74.5792 113.47 75.5156 113.091 76.2529C112.693 76.9901 112.315 77.7273 111.757 78.1059C111.558 78.2852 111.359 78.2852 111.179 78.2852C110.98 78.2852 110.781 78.2852 110.602 78.2852L109.626 78.6638C109.248 78.4845 109.049 78.4845 108.869 78.2852C108.67 78.2852 108.471 78.1059 108.272 78.1059C107.694 79.0224 107.894 79.401 107.894 79.7597C107.894 79.939 107.894 80.2976 107.694 80.477C107.515 81.0349 107.316 81.4134 107.316 81.9514C107.316 82.1307 107.316 82.33 107.316 82.4894C107.515 82.6886 107.515 82.868 107.515 83.0473C107.515 83.4059 107.316 83.7646 107.117 83.9638C106.938 84.3424 106.938 84.5018 106.938 84.6811C107.117 86.3349 107.117 86.7135 107.117 86.9127C107.117 87.2913 107.117 87.63 106.938 87.8293C106.738 88.0086 106.539 88.0086 106.36 88.2079C106.161 88.3872 105.962 88.3872 105.763 88.5864L105.185 89.1244V89.8616L105.583 90.2402C105.763 90.2402 106.161 90.2402 106.36 90.2402C106.539 90.2402 106.738 90.2402 106.938 90.4195C107.117 91.7146 107.117 92.4519 107.117 93.1891C107.117 94.1056 106.938 94.8429 106.539 95.5801C106.539 96.3173 106.738 96.6959 106.738 97.2339C106.938 97.6124 107.117 97.9711 107.117 98.3497C107.117 98.7282 107.117 98.8876 106.938 99.2662C106.938 99.4655 106.738 99.8042 106.738 100.183C106.938 100.561 106.938 101.119 106.938 101.478C107.117 101.119 107.117 100.94 107.316 100.94C108.093 101.318 108.272 101.478 108.471 101.856L109.447 102.414V103.331L109.825 104.626C109.825 105.005 109.825 105.164 109.626 105.543C109.626 105.921 109.447 106.28 109.447 106.459C109.049 106.838 109.049 106.838 108.869 106.997C108.272 107.196 108.093 106.997 107.894 106.818C106.738 107.196 106.738 107.356 106.938 107.555C106.938 108.093 106.738 108.292 106.738 108.651C106.539 108.85 106.36 109.029 106.161 109.388C105.583 109.767 105.384 109.926 105.384 110.305C105.384 112.337 105.384 112.895 105.583 113.453C105.583 114.19 105.763 114.927 105.763 115.664C105.763 116.043 105.763 116.581 105.583 116.96C105.185 117.338 105.006 117.517 105.006 117.876C105.006 118.075 105.006 118.255 105.185 118.434C105.763 118.613 105.962 118.613 106.161 118.613C106.738 118.992 106.738 119.151 106.938 119.53C107.117 119.729 107.117 120.088 107.117 120.466C107.117 120.646 107.117 120.825 106.938 121.004C106.539 121.004 106.36 121.004 106.36 121.184C106.161 121.562 106.161 121.921 105.962 122.299C106.539 123.216 106.539 123.415 106.738 123.595C106.738 123.973 106.738 124.133 106.938 124.332C107.694 124.87 107.694 125.428 107.694 125.806C107.694 126.006 107.694 126.185 107.694 126.364C108.272 126.723 108.471 126.723 108.67 126.723C108.869 126.723 109.049 126.723 109.248 126.723L108.471 128.755V129.492C108.093 129.871 107.694 129.871 107.316 129.871C106.938 129.871 106.539 129.871 106.161 129.871L105.006 128.954C104.229 129.333 104.229 129.492 104.229 129.871C104.03 130.409 104.03 130.967 104.03 131.345C103.652 131.724 103.453 132.282 103.074 132.641C103.253 133.019 103.253 133.378 103.453 133.577C103.652 133.756 103.652 133.956 103.851 134.115C104.03 134.115 104.229 134.294 104.428 134.494C104.608 134.673 104.807 134.872 104.807 135.231C104.807 135.41 104.807 135.609 104.807 135.769C104.428 136.685 104.229 136.685 104.03 136.885V138.538C104.229 138.897 104.428 139.256 104.428 139.634C104.428 140.192 104.229 140.551 104.229 140.929C104.229 141.129 104.229 141.308 104.428 141.487C103.453 143.141 103.094 143.141 102.895 143.141L101.939 144.058L100.027 144.436C99.8282 144.615 99.629 144.795 99.629 144.974C99.4498 145.153 99.2507 145.153 99.0515 145.153C98.8723 145.153 98.6732 144.974 98.474 144.974C98.2749 144.775 98.0956 144.596 98.0956 144.436L97.6973 144.058C97.6973 144.775 97.6973 144.974 97.5181 145.353C97.319 145.532 97.319 145.731 96.9406 145.891C96.3631 145.891 96.1639 146.07 95.7856 146.07C95.3873 146.269 95.1881 146.449 94.8098 146.449C94.6106 146.449 94.4314 146.269 94.2322 146.07C94.0331 145.891 94.0331 145.891 93.8539 145.711C92.8781 144.775 92.3205 144.974 91.7429 144.974C91.5438 144.974 91.3646 144.974 91.1654 144.974C90.1896 143.5 90.0104 143.5 89.8312 143.679C89.632 143.858 89.4528 143.858 89.2536 144.058L86.9635 144.775C86.386 143.48 86.1868 143.48 85.9877 143.48C85.211 144.038 85.4102 144.596 85.4102 144.954C85.211 145.133 85.211 145.333 85.0318 145.333C83.8767 147.365 83.6975 147.365 83.6975 147.544C83.4984 147.724 83.4984 147.724 83.3191 147.923C83.12 147.923 82.9209 148.102 82.7217 148.102C82.3433 147.724 82.1442 147.724 81.965 147.724C81.7658 147.724 81.5667 147.724 81.3874 147.923C81.1883 148.102 80.9892 148.302 80.8099 148.461C80.8099 148.84 80.4116 149.198 80.2324 149.577C79.8341 149.955 79.4557 150.115 79.0774 150.115C78.3206 150.493 78.1215 150.653 78.1215 150.852C78.1215 151.031 77.9223 151.231 77.7431 151.231C77.1457 151.609 76.9664 151.769 76.9664 152.147C76.7673 152.326 76.7673 152.526 76.5682 152.526L74.8555 151.41C74.6564 150.673 74.6564 150.314 74.6564 150.115C74.6564 149.935 74.6564 149.577 74.4771 149.378C73.3221 149.577 73.1429 149.378 72.7645 149.378C72.5654 148.461 72.5654 148.282 72.5654 147.903L71.9878 147.365V146.628L71.4103 146.429C70.6337 147.166 70.4345 146.987 70.2553 146.807C70.0561 146.628 69.857 146.628 69.6579 146.628L69.0803 147.006C68.9011 147.186 69.0803 147.385 69.2795 147.544C69.4786 147.544 69.6579 147.724 69.857 147.724C70.0561 147.923 70.4345 148.102 70.6337 148.282C70.8328 148.461 70.8328 148.66 70.8328 148.82C70.6337 149.358 70.6337 149.557 70.8328 149.935C70.8328 150.115 71.012 150.473 71.012 150.653C71.012 150.852 71.012 151.031 70.8328 151.211C70.6337 151.39 70.4345 151.589 70.2553 151.749C69.857 151.948 69.6579 151.948 69.2795 151.948C69.0803 151.948 68.702 152.127 68.5028 152.306C67.5469 151.948 67.5469 151.589 67.5469 151.39C67.7461 150.473 67.9253 150.095 67.9253 149.736C67.9253 149.358 67.7461 148.82 67.5469 148.262C67.3478 147.704 67.3478 147.345 67.3478 147.146L65.6351 147.684L64.6793 146.209C64.6793 146.01 64.6793 145.831 64.4801 145.671V144.197C65.0576 143.818 65.0576 143.818 65.2568 143.659L66.2127 142.922C66.2127 142.185 66.2127 141.806 66.2127 141.627C65.8343 141.089 65.6351 141.089 65.436 140.889C65.2568 140.71 65.2568 140.511 65.2568 140.172C65.8343 138.857 65.8343 138.698 65.8343 138.698C65.436 138.16 65.0576 138.16 64.6793 137.781C64.281 136.865 64.0818 136.865 63.7034 136.665C60.8358 135.37 61.015 135.191 61.2141 135.012C61.2141 134.633 61.2141 134.832 61.015 135.012L60.0591 135.928C60.0591 136.307 59.86 136.486 59.86 136.865C59.6807 137.044 59.4816 137.223 59.0833 137.403C58.7049 137.203 58.3266 137.203 57.9283 137.024C57.5499 136.845 57.5499 136.845 57.3508 136.645C57.1715 136.107 57.1715 135.908 57.1715 135.729C57.1715 135.191 57.1715 134.992 57.1715 134.613C58.5058 134.075 58.8842 133.896 59.0634 133.697L59.6608 132.78L60.8159 132.401L60.9951 131.286C60.9951 130.907 60.9951 130.748 60.9951 130.568C60.9951 130.01 60.8159 129.453 60.6167 128.915C60.4176 128.357 60.2383 127.799 60.2383 127.062C60.0392 126.683 59.8401 126.344 59.6608 125.966L59.8799 125.527C60.079 125.527 60.2782 125.348 60.2782 125.149C60.2782 124.969 60.4574 124.79 60.4574 124.611C61.2341 123.694 61.2341 123.515 61.2341 123.316C60.4574 122.778 60.2782 122.937 60.079 123.136C59.8799 123.316 59.7007 123.515 59.5015 123.515C59.1032 124.053 58.924 124.053 58.7248 124.232C57.769 124.053 57.0122 123.694 56.4347 123.515C56.2355 123.316 56.2355 123.136 56.2355 122.957L55.658 122.778C55.4589 122.957 55.2797 122.957 55.0805 123.156C54.8814 123.156 54.7021 123.336 54.503 123.336L54.3038 124.451C53.1488 124.83 52.9696 124.83 52.7704 124.83C51.9938 125.547 51.7946 125.926 51.6154 126.304C51.4163 125.766 51.4163 125.567 51.4163 125.189C50.4404 125.926 50.2612 126.504 50.2612 127.042C50.4404 128.337 50.0621 129.253 49.8629 129.991L48.907 130.17C48.21 130.708 48.0109 130.708 47.8317 130.509C47.6325 130.509 47.4334 130.329 47.2541 130.329C47.055 130.13 46.8559 130.13 46.6766 130.13C46.4775 130.13 46.0792 130.329 45.7008 130.329C45.1233 129.951 44.9242 129.951 44.7449 129.771C44.5458 129.592 44.1674 129.771 43.9683 129.592C43.7691 129.592 43.57 129.413 43.3908 129.413C43.3908 129.034 43.57 128.855 43.57 128.675C43.9683 123.515 43.9683 123.515 43.7691 123.316C43.1916 123.316 42.8132 123.515 42.4149 123.515C42.0366 123.136 42.0366 122.957 42.0366 122.578C42.0366 122.22 42.0366 121.861 42.0366 121.662C41.6582 121.124 41.4591 120.925 41.2599 120.925C40.6824 121.861 40.6824 122.24 40.304 122.578C40.1049 122.578 39.9057 122.578 39.7265 122.399C39.5274 122.399 39.3282 122.22 39.3282 122.021C39.3282 121.841 39.3282 121.642 39.3282 121.483C39.3282 121.283 39.3282 121.104 39.149 120.925C38.9498 120.745 38.9498 120.566 38.7507 120.387C38.5516 120.207 38.5515 119.849 38.5515 119.849C39.149 119.291 39.5274 119.291 39.7066 119.291C39.8858 119.49 39.8858 119.669 40.085 119.849C40.8616 119.47 40.8616 119.291 40.6625 119.111C40.4633 118.932 40.4633 118.932 40.2841 118.733C40.085 118.195 40.2841 117.996 40.2841 117.637L41.24 117.258C41.24 116.88 41.24 116.701 41.0409 116.701C40.4633 116.322 40.2841 116.322 40.085 116.322C39.3083 116.143 39.3083 116.143 39.1291 115.963C38.3524 115.764 38.1533 115.764 37.974 115.963C37.974 116.322 37.7948 116.501 37.7948 116.681C37.2173 116.88 37.0181 116.88 36.819 116.88C36.4406 116.681 36.2415 116.322 36.2415 116.143C36.2415 115.764 36.2415 115.405 36.2415 115.226C36.2415 115.027 36.2415 114.668 36.0622 114.489L35.2856 113.572C35.0864 113.373 35.0864 113.373 34.8873 113.194C34.8873 113.014 34.7081 112.815 34.7081 112.656C34.7081 112.277 34.7081 111.919 34.5089 111.719C34.5089 111.54 34.3098 111.181 33.9314 110.803C33.7323 110.424 33.553 110.066 33.3539 109.886L32.9556 108.591C32.7764 107.675 32.7764 107.475 32.7764 107.117C32.7764 106.937 32.7764 106.758 32.5772 106.579C32.5772 106.399 32.5772 106.2 32.5772 106.041C32.5772 105.662 32.5772 105.503 32.5772 105.124C32.5772 104.925 32.5772 104.746 32.5772 104.566C32.1989 104.387 31.8006 104.387 31.4222 104.028V103.411C31.223 103.211 31.223 103.032 31.223 102.853L29.5104 104.168C28.9329 104.168 28.7337 104.168 28.5545 103.969C27.5787 103.969 27.3995 104.168 27.2203 104.168C27.0211 104.168 26.822 104.168 26.6427 103.969C27.2203 103.052 27.2202 103.052 27.3995 102.853C26.822 102.494 26.6427 102.494 26.2444 102.315C25.8661 101.578 25.8661 101.398 26.0652 101.219V100.103C25.6669 100.103 25.4678 99.9038 25.2886 99.9038C24.8903 99.7245 24.711 99.5452 24.5119 99.5452C24.1335 99.5452 23.9344 99.5452 23.7352 99.3459C23.556 99.1666 23.3569 99.1666 23.1577 98.9673C22.7793 98.788 22.381 98.4294 22.2018 98.2301C21.8035 98.2301 21.6243 98.0508 21.4252 98.0508C20.8476 98.4294 20.8476 98.5888 20.6485 98.9673C19.8718 99.1666 19.4935 98.788 19.2943 98.5888C18.9159 98.4094 18.7168 98.0508 18.5376 97.8715C18.1393 97.4929 17.7609 97.3136 17.2033 96.7557C17.2033 96.2177 17.0042 95.8391 17.0042 95.4605C16.805 95.082 16.805 94.7233 16.4266 94.3447C15.8491 93.9662 15.4707 93.6075 15.0924 93.0496C14.714 92.5117 14.5149 91.9338 14.3157 91.3958C13.9373 90.4793 13.9373 90.3 13.9373 89.9214C13.9373 89.7222 13.9373 89.3635 13.7382 89.1842C12.9814 88.9849 12.5832 88.8056 12.2048 88.6462C11.8065 88.447 11.6273 88.0883 11.6273 87.7097L9.51634 86.6139C9.13797 85.3187 8.93882 84.2029 8.93882 82.9277C8.73968 82.5492 8.56045 82.1905 8.56045 81.8119C8.56045 81.4533 8.3613 81.0946 8.16216 80.8954C7.98293 80.7161 7.98293 80.3574 7.98293 80.1781C7.98293 79.9788 7.98293 79.7995 7.78379 79.6202C7.58464 79.2416 7.40541 79.0822 7.20627 78.7036C7.00712 78.3251 6.80798 77.7871 6.80798 77.2292C6.62875 76.8705 6.62875 76.5119 6.62875 76.1333C6.62875 75.7547 6.62875 75.3961 6.42961 75.0175C6.42961 74.6389 6.23046 74.4795 6.23046 74.101C6.23046 73.9216 6.23046 73.7224 6.23046 73.3637C6.23046 72.9852 6.23046 72.6265 5.85209 72.2679V69.857C5.65294 67.6453 5.65294 67.2866 5.65294 67.0874V65.7923C5.85209 65.6129 6.05123 65.6129 6.23046 65.6129C6.42961 64.4971 6.42961 64.1385 6.42961 63.9592C6.62875 62.1261 6.62875 61.9268 6.62875 61.7475C6.62875 61.5482 6.62875 61.3689 6.62875 61.1896L8.34139 59.8945C8.71976 59.5159 8.71976 59.3565 8.91891 59.1772C9.11805 58.7986 9.29728 58.2407 9.29728 58.0614C9.49642 57.8621 9.69557 57.6828 9.8748 57.6828C10.0739 57.5035 10.2731 57.3042 10.2731 57.1448V54.7339C10.2731 54.714 10.2731 54.3553 10.4722 54.1959C10.4722 53.8174 10.6515 53.638 10.6515 53.4587C10.2731 52.5422 9.8748 52.3429 9.69557 52.1636C9.11805 51.4264 8.91891 51.0478 8.91891 50.6891C8.71976 50.1512 8.34139 49.394 8.34139 49.2147C8.34139 49.0154 8.34139 48.8361 8.14225 48.6568C7.96302 48.4775 7.96302 48.2981 7.76387 48.1188C4.8962 46.6444 4.49791 46.465 4.11953 46.465C3.72125 46.465 3.54202 46.465 3.14373 46.465C2.9645 46.465 2.76535 46.465 2.56621 46.2857C1.61032 45.1699 1.61032 44.6319 1.61032 44.074C-0.102321 43.3368 -0.102321 43.1376 0.0769091 42.9582C0.276053 42.759 0.276053 42.5797 0.276053 42.4203C0.853571 42.221 1.05272 42.221 1.23194 42.221L4.49791 41.8424L4.8962 40.7466C6.23046 40.9259 6.80798 41.1251 7.18635 41.1251C7.76387 41.1251 8.54053 40.9259 8.89899 40.7466C9.09814 40.368 9.09814 40.0093 9.29728 39.6308C9.47651 39.2522 9.47651 39.0928 9.8748 38.7142H10.6515C11.229 37.2398 11.4082 36.8612 11.8065 36.8612C11.9857 36.6819 12.384 36.6819 12.5632 36.6819C12.7624 36.6819 12.7624 36.5025 12.9615 36.3033C13.7382 35.9247 13.9174 35.3867 13.9174 34.8288C13.9174 34.6296 13.9174 34.4503 13.7382 34.271C13.7382 34.0916 13.5391 34.0916 13.3399 33.8924C13.1607 33.5138 13.3399 33.3544 13.5391 33.3544C14.1166 32.8164 14.4949 32.4379 14.6941 32.2386C15.0725 31.86 15.4707 31.7006 15.8491 31.7006C16.0483 31.5213 16.2474 31.3221 16.4266 31.1627C16.6258 30.9634 16.8249 30.6048 17.0042 30.4254C17.2033 30.0469 17.2033 29.8875 17.4024 29.6882C17.5817 29.5089 17.7808 29.1502 17.98 28.951C18.3583 28.951 18.5575 28.951 18.7566 28.7717C18.9359 28.5923 19.135 28.5923 19.3341 28.3931C20.29 27.098 20.4892 26.7393 21.0468 26.1814C21.4252 25.2649 21.6243 25.0656 21.6243 24.8863C21.8234 24.3483 21.6243 24.1491 21.2459 24.1491C20.8476 24.3483 20.6684 24.687 20.2701 24.8863C19.6926 24.3483 19.6926 24.1491 19.8917 23.9697C19.8917 23.7705 20.071 23.5912 20.071 23.4118C19.1151 23.7904 18.9159 24.1491 18.7367 24.3483C18.5376 24.5276 18.5376 24.707 18.3384 24.8863L16.6258 23.9697C16.4266 23.7705 16.4266 23.4118 16.4266 23.2325C16.4266 22.8539 16.4266 22.4953 16.4266 22.316C16.2474 22.1167 16.0483 22.1167 15.8491 22.1167C15.6699 22.1167 15.2716 21.9374 15.0725 21.7381C14.8932 21.3795 14.8932 21.2002 14.8932 21.0208C14.8932 20.8216 14.8932 20.6423 14.6941 20.4629C14.6941 20.2836 14.4949 20.2836 14.3157 20.0844C13.7382 20.0844 13.5391 20.0844 13.1607 20.0844C12.5632 19.1678 12.5632 18.9885 12.5632 18.7892C13.5391 18.072 13.8975 18.0719 13.9174 18.0719C14.475 17.3148 14.475 17.1355 14.475 16.9562C14.475 16.5776 14.6742 16.2189 14.8733 16.2189C16.0284 16.4182 16.586 16.7768 17.1635 16.7768C17.741 16.5776 17.9401 16.5776 18.3185 16.3983C18.5177 16.0197 19.0952 15.4618 19.2943 15.1031C19.6727 13.9873 19.8718 13.4494 20.2502 12.8715C20.6485 12.3336 21.0269 11.5764 21.4052 11.3971C22.381 11.0185 22.381 10.8392 22.5603 10.8392C23.1577 10.4805 23.5361 10.4805 23.9145 10.4805C24.3127 9.92264 24.6911 9.36474 24.8903 8.82676C25.0695 8.62751 25.0695 8.44819 25.0695 8.26886C24.8903 7.73089 24.6911 7.73089 24.492 7.55156L23.5361 5.89779C23.5361 5.51922 23.5361 5.33989 23.5361 5.16057C24.492 4.78199 24.492 4.98124 24.6911 5.16057C25.4678 4.62259 25.4678 4.42334 25.4678 4.04477C25.8462 3.12822 26.2444 2.391 26.4237 1.47445C26.7423 1.09587 26.9215 0.537974 27.1207 0Z" fill="#01DE50"/>
</svg>
