<svg width="132" height="127" viewBox="0 0 132 127" fill="none" xmlns="http://www.w3.org/2000/svg">
<path d="M98.8665 66.6417C91.1029 66.6417 83.9879 69.3645 78.3035 73.8961L58.9613 54.6271C59.0376 54.551 59.0567 54.4939 59.1329 54.4177C62.8526 49.6005 65.2942 43.7931 66 37.5288H91.7896C93.6208 47.0109 101.823 54.1892 111.685 54.1892C122.863 54.1892 131.962 44.9546 131.962 33.6255C131.962 22.2964 122.844 13.0618 111.685 13.0618C101.823 13.0618 93.6017 20.24 91.7896 29.7222H66C64.1116 13.0046 50.0913 0 33.1335 0C14.8595 0 0 15.042 0 33.5874C0 44.4214 5.09306 54.2463 13.2 60.4154V55.5982C13.2 48.2105 17.1486 41.7367 23.0237 38.2142C21.3069 36.0246 20.2769 33.2256 20.2769 30.2363C20.2769 23.058 26.0567 17.2316 33.1335 17.2316C40.2104 17.2316 45.952 23.058 45.952 30.2363C45.952 33.2256 44.9601 36.0246 43.2434 38.2142C47.8214 40.9751 51.2168 45.4877 52.4948 50.8571C53.1815 53.7132 53.048 55.3888 53.048 60.3964L72.8098 79.4559C69.1283 84.197 66.6867 89.9853 65.9619 96.2496H40.1913C38.3601 86.7675 30.1578 79.5892 20.296 79.5892C9.11792 79.6082 0 88.8429 0 100.172C0 111.501 9.11792 120.736 20.2769 120.736C30.1387 120.736 38.3601 113.557 40.1723 104.075H65.9619C67.0301 113.31 71.7988 121.573 78.9139 127V122.183C78.9139 114.795 82.8624 108.321 88.7185 104.799C87.0399 102.609 86.0098 99.8102 86.0098 96.8208C86.0098 89.6426 91.7896 83.8162 98.8283 83.8162C105.905 83.8162 111.685 89.6616 111.685 96.8208C111.685 99.8102 110.655 102.609 108.976 104.799C114.851 108.321 118.8 114.795 118.8 122.183V127C126.907 120.793 132 110.968 132 100.172C132 81.7027 117.16 66.6417 98.8665 66.6417Z" fill="#FAFF00"/>
</svg>
