<svg width="526" height="435" viewBox="0 0 526 435" fill="none" xmlns="http://www.w3.org/2000/svg">
<g style="mix-blend-mode:multiply">
<path d="M291.5 24L298.5 19L324.5 0L479 63L441.5 93L526 128L390 240L376 233.5L142.5 420.5L145.5 434.5L120.5 405L108 411.5L100 401.5L91.5 380.5L100 376C100 376 73.5 337 64.5 317L51 322.5L37 291L51 286C51 286 33 245 28 227.5L18 230.5L8.5 209L6.5 199.5L20 196L18.5 188L10.5 189.5L0.5 168.5L0 158L113.5 141C181 191 275 141 295.5 122C337.9 79.2 311.5 53.1667 293 45.5C294.5 39 292.5 29.8333 291.5 24Z" fill="#00B907" fill-opacity="0.8"/>
</g>
</svg>
