<svg width="1335" height="525" viewBox="0 0 1335 525" fill="none" xmlns="http://www.w3.org/2000/svg">
<g style="mix-blend-mode:multiply">
<path d="M445.5 417.5L682.5 169.5L883 248L789 363.5L657.5 312L605 370.5L666 396.5L674 387L718.5 406L719 428.5L639.5 524.5L447.5 438L445.5 417.5Z" fill="#00B907" fill-opacity="0.8"/>
<path d="M682.5 169.5L247.5 0L0 212.5L451 412L445.5 417.5L682.5 169.5Z" fill="#00B907" fill-opacity="0.8"/>
<path d="M1334.5 85L1145.5 20L1096 82.5V88.5L1069.81 121.643L1066 120L1064 122L1258.5 193.5L1258 210.5L1300.5 149L1302.5 130L1334.5 85Z" fill="#00B907" fill-opacity="0.8"/>
</g>
</svg>
