<svg width="51" height="50" viewBox="0 0 51 50" fill="none" xmlns="http://www.w3.org/2000/svg">
<path d="M49.5352 47.0703H48.0703V45.6055C48.0703 44.7949 47.416 44.1406 46.6055 44.1406H5.39453C4.58398 44.1406 3.92969 44.7949 3.92969 45.6055V47.0703H2.46484C1.6543 47.0703 1 47.7246 1 48.5352C1 49.3457 1.6543 50 2.46484 50H49.5352C50.3457 50 51 49.3457 51 48.5352C51 47.7246 50.3457 47.0703 49.5352 47.0703Z" fill="white"/>
<path d="M26 8.88672C25.1895 8.88672 24.5352 9.54102 24.5352 10.3516C24.5352 11.1621 25.1895 11.8164 26 11.8164C26.8105 11.8164 27.4648 11.1621 27.4648 10.3516C27.4648 9.54102 26.8105 8.88672 26 8.88672Z" fill="white"/>
<path d="M50.9212 16.7773C51.1263 16.1816 50.9114 15.5176 50.4134 15.1465L26.8782 0.292969C26.3607 -0.0976562 25.638 -0.0976562 25.1204 0.292969L1.58526 15.1367C1.07745 15.5176 0.872372 16.1719 1.07745 16.7676C1.27276 17.3633 1.83917 17.7734 2.46417 17.7734H49.5345C50.1693 17.7734 50.7259 17.373 50.9212 16.7773ZM25.9993 14.8438C23.5775 14.8438 21.6048 12.7734 21.6048 10.3516C21.6048 7.92969 23.5775 5.95703 25.9993 5.95703C28.4212 5.95703 30.3939 7.92969 30.3939 10.3516C30.3939 12.7734 28.4212 14.8438 25.9993 14.8438Z" fill="white"/>
<path d="M12.8164 29.4922H6.85938V41.2109H12.8164V29.4922Z" fill="white"/>
<path d="M45.1406 29.4922H39.2812V41.2109H45.1406V29.4922Z" fill="white"/>
<path d="M28.9297 29.4922H23.0703V41.2109H28.9297V29.4922Z" fill="white"/>
<path d="M48.0703 25.0977V20.7031H3.92969V25.0977C3.92969 25.9082 4.58398 26.5625 5.39453 26.5625H46.6055C47.416 26.5625 48.0703 25.9082 48.0703 25.0977Z" fill="white"/>
</svg>
