<svg width="51" height="51" viewBox="0 0 51 51" fill="none" xmlns="http://www.w3.org/2000/svg">
<g clip-path="url(#clip0)">
<path d="M51 20.7055C51 20.2141 50.9867 19.7094 50.9469 19.2313C48.6891 19.2313 10.2797 19.2313 9.07109 19.2313L7.14531 12.9625C6.40156 10.5453 4.07734 8.85859 1.4875 8.85859C0.664062 8.85859 0 9.53594 0 10.3594C0 11.1828 0.664062 11.8469 1.4875 11.8469C2.74922 11.8469 3.93125 12.6836 4.28984 13.8391C6.76016 21.8742 6.52109 21.1039 6.56094 21.1969C6.61406 21.343 6.85312 22.0336 9.37656 29.0727C10.293 31.6359 13.175 33.3625 16.5617 33.3625H21.7148L20.3203 36.8555C15.9773 36.125 12.0727 39.4852 12.0727 43.8281C12.0727 47.7461 15.2469 51 19.1383 51C22.5648 51 25.3805 48.5031 26.0578 45.3156H31.357C31.6359 46.6438 32.2867 47.8656 33.2562 48.8617C36.032 51.7039 40.5078 51.7039 43.2836 48.8617C44.6117 47.507 45.3422 45.7141 45.3422 43.8281C45.3422 39.4852 41.4375 36.125 37.0945 36.8555L35.7 33.3625H40.8531C44.2266 33.3625 47.1086 31.6359 48.0383 29.0727C51.093 20.732 51 21.0906 51 20.7055ZM31.3438 42.3274H26.0312C25.6461 40.5211 24.557 38.9672 23.0695 37.9578L24.9023 33.3625H32.4461L34.2789 37.9578C32.8047 38.9672 31.7289 40.5211 31.3438 42.3274Z" fill="white"/>
<path d="M50.5484 16.2297C48.7023 7.23828 41.1984 0 31.875 0H29.4843C28.8335 0 28.2625 0.411719 28.0632 1.02266L23.0164 16.2297H50.5484Z" fill="white"/>
</g>
<defs>
<clipPath id="clip0">
<rect width="51" height="51" fill="white"/>
</clipPath>
</defs>
</svg>
