<svg width="68" height="68" viewBox="0 0 68 68" fill="none" xmlns="http://www.w3.org/2000/svg">
<path d="M66.3266 14.2109L23.8664 0.10625L23.5609 0H17.1727L1.23516 14.2109H0V24.8359H9.29688V14.2109H7.225L18.5938 4.06406V10.8906H11.9531V24.1719H29.2188V10.8906H22.5781V3.98438H22.9234L53.6961 14.2109H31.875V22.1797H68V14.2109H66.3266Z" fill="white"/>
<path d="M68 51H35.0625V58.9688H68V51Z" fill="white"/>
<path d="M46.9625 48.3438L51.5312 44.8641L56.1 48.3438H62.6875L55.1039 42.5797C56.4453 41.5172 57.3086 39.8836 57.3086 38.0508H53.3242C53.3242 39.0336 52.5141 39.8438 51.5312 39.8438C50.5484 39.8438 49.7383 39.0336 49.7383 38.0508C49.7383 37.068 50.5484 36.2578 51.5312 36.2578H53.5234V31.4766H53.6828L57.5078 27.6516V24.8359H45.5547V27.6516L49.3797 31.4766H49.5391V32.632C47.3344 33.4422 45.7539 35.5672 45.7539 38.0508C45.7539 39.8836 46.6172 41.5172 47.9586 42.5797L40.375 48.3438H46.9625Z" fill="white"/>
<path d="M15.9375 34.6375V28.1562H11.9531V68H29.2188V28.1562H22.4188L15.9375 34.6375ZM15.9375 41.4375H22.4188L15.9375 47.9187V41.4375ZM15.9375 54.7188H22.4188L15.9375 61.2V54.7188ZM25.2344 64.0156H18.7531L25.2344 57.5344V64.0156ZM25.2344 50.7344H18.7531L25.2344 44.2531V50.7344ZM25.2344 37.4531H18.7531L25.2344 30.9719V37.4531Z" fill="white"/>
</svg>
