<svg width="49" height="49" viewBox="0 0 49 49" fill="none" xmlns="http://www.w3.org/2000/svg">
<path d="M29.0937 0H5.61458C2.5138 0 0 2.5138 0 5.61458V37.2604C0 40.3612 2.5138 42.875 5.61458 42.875H20.6846L21.1312 40.3612C21.3354 39.2128 21.8714 38.1919 22.688 37.3625L34.7083 25.3549V5.61458C34.7083 2.5138 32.1945 0 29.0937 0ZM8.16667 8.16667H16.3333C17.4562 8.16667 18.375 9.08542 18.375 10.2083C18.375 11.3313 17.4562 12.25 16.3333 12.25H8.16667C7.04375 12.25 6.125 11.3313 6.125 10.2083C6.125 9.08542 7.04375 8.16667 8.16667 8.16667ZM18.375 28.5833H8.16667C7.04375 28.5833 6.125 27.6646 6.125 26.5417C6.125 25.4188 7.04375 24.5 8.16667 24.5H18.375C19.4979 24.5 20.4167 25.4188 20.4167 26.5417C20.4167 27.6646 19.4979 28.5833 18.375 28.5833ZM26.5417 20.4167H8.16667C7.04375 20.4167 6.125 19.4979 6.125 18.375C6.125 17.2521 7.04375 16.3333 8.16667 16.3333H26.5417C27.6646 16.3333 28.5833 17.2521 28.5833 18.375C28.5833 19.4979 27.6646 20.4167 26.5417 20.4167Z" fill="white"/>
<path d="M25.5719 49C25.1636 49 24.7808 48.8469 24.4873 48.5534C24.13 48.1961 23.9769 47.6985 24.0662 47.2008L25.1508 41.063C25.2019 40.7568 25.355 40.4633 25.5719 40.2464L40.7313 25.087C42.5943 23.224 44.419 23.7216 45.4271 24.7297L47.9537 27.2563C49.3446 28.6472 49.3446 30.9185 47.9537 32.3094L32.7943 47.4688C32.5774 47.6857 32.2839 47.8388 31.9776 47.8899L25.8399 48.9745C25.7506 48.9873 25.6612 49 25.5719 49ZM31.7097 46.3841H31.7352H31.7097Z" fill="white"/>
</svg>
