<svg width="54" height="55" viewBox="0 0 54 55" fill="none" xmlns="http://www.w3.org/2000/svg">
<path d="M40.0217 11.7514C41.3436 11.1603 42.6795 10.8647 44.0155 10.8647C45.7452 10.8647 47.5311 11.3855 49.2467 12.3987C53.9999 6.96638 53.9999 0 53.9999 0C53.9999 0 44.2545 5.5731 38.1233 7.19156C39.1217 8.48632 39.7967 10.0485 40.0217 11.7514Z" fill="white"/>
<path d="M4.73906 12.3987C6.46875 11.3855 8.24063 10.8647 9.98438 10.8647C11.3203 10.8647 12.6562 11.1603 13.9781 11.7514C14.2031 10.0485 14.8781 8.48632 15.8766 7.19156C9.74531 5.5731 0 0 0 0C0 0 0 6.96638 4.73906 12.3987Z" fill="white"/>
<path d="M44.0154 14.0312C43.0873 14.0312 42.2154 14.2564 41.3857 14.6083C42.8342 17.5496 43.6357 20.7302 43.7764 23.939C43.8607 23.939 43.9311 23.939 44.0154 23.939C48.3467 23.939 51.8482 18.9851 51.8482 18.9851C51.8482 18.9851 48.3467 14.0312 44.0154 14.0312Z" fill="white"/>
<path d="M12.6 14.6083C11.7843 14.2564 10.8984 14.0312 9.97026 14.0312C5.63901 14.0312 2.13745 18.9851 2.13745 18.9851C2.13745 18.9851 5.63901 23.939 9.97026 23.939C10.0546 23.939 10.125 23.939 10.2093 23.939C10.364 20.7302 11.1515 17.5496 12.6 14.6083Z" fill="white"/>
<path d="M37.1814 47.104L36.9564 45.9218C36.8298 45.2885 36.7454 44.6411 36.6892 44.0078L33.7501 35.9155C32.7657 33.1853 32.6673 30.2721 33.497 27.4855C34.3267 24.699 35.986 22.3065 38.3064 20.5614L39.8532 19.3933C39.4595 18 38.897 16.6349 38.1939 15.326L36.9282 12.9758C36.9282 9.51367 34.1157 6.69897 30.6564 6.69897H23.3439C19.8845 6.69897 17.072 9.51367 17.072 12.9758L15.8063 15.326C15.1032 16.6349 14.5548 17.9859 14.147 19.3933L15.6938 20.5614C18.0142 22.3065 19.6735 24.713 20.5032 27.4855C21.3329 30.2721 21.2485 33.1853 20.2501 35.9155L17.311 44.0078C17.2548 44.6552 17.1704 45.2885 17.0438 45.9218L16.8188 47.104C16.1298 50.6927 18.872 54.0141 22.5282 54.0141H31.486C35.1282 54 37.8704 50.6786 37.1814 47.104ZM25.2282 48.9617H22.0642V45.5981H25.2282V48.9617ZM31.936 48.9617H28.772V45.5981H31.936V48.9617Z" fill="white"/>
<path d="M17.4657 28.3722C16.8329 26.2471 15.5673 24.4034 13.7813 23.0665L13.4579 22.8272C13.0501 26.6271 13.7251 30.5113 15.4548 34.0156C15.511 34.1282 15.5673 34.2549 15.6235 34.3675C15.9892 35.1415 16.2985 35.9437 16.5517 36.76L17.2548 34.8178C18.0282 32.7349 18.0985 30.5113 17.4657 28.3722Z" fill="white"/>
<path d="M40.5422 22.8413L40.2188 23.0806C38.4469 24.4175 37.1672 26.2471 36.5344 28.3863C35.9016 30.5114 35.9719 32.749 36.7313 34.8319L37.4344 36.7741C37.6875 35.9578 37.9969 35.1697 38.3625 34.3816C38.4188 34.269 38.475 34.1423 38.5313 34.0297C40.275 30.5254 40.9359 26.6271 40.5422 22.8413Z" fill="white"/>
</svg>
