<svg width="57" height="50" viewBox="0 0 57 50" fill="none" xmlns="http://www.w3.org/2000/svg">
<g clip-path="url(#clip0)">
<path d="M56.0654 7.3616C55.4895 7.0491 54.7859 7.08035 54.2396 7.43898C54.1891 7.47321 48.9359 10.7991 39.1747 10.7068L39.188 25C39.188 27.5565 38.716 29.9985 37.8937 32.2738C38.3152 32.1964 38.7457 32.1429 39.188 32.1429C43.1231 32.1429 46.313 35.3408 46.313 39.2857H33.7003C31.7038 41.5164 29.2576 43.3274 26.4922 44.5655C29.783 47.9866 34.3074 50 39.188 50C49.0087 50 57.0005 41.9881 57.0005 32.1429V8.92857C57.0005 8.27381 56.6384 7.67262 56.0654 7.3616ZM42.7505 25C42.7505 23.0283 44.3462 21.4286 46.313 21.4286C48.2813 21.4286 49.8755 23.0283 49.8755 25H42.7505Z" fill="white"/>
<path d="M35.625 25.0021V1.78779C35.625 1.13154 35.2628 0.531837 34.6898 0.220825C34.1124 -0.0901867 33.4118 -0.0604248 32.8641 0.296718C32.8121 0.330944 27.7355 3.5735 17.8125 3.5735C7.94437 3.5735 2.87078 0.366659 2.76391 0.299694C2.21172 -0.0648891 1.51555 -0.0976271 0.941094 0.214873C0.362188 0.524397 0 1.12856 0 1.78779V25.0021C0 34.8473 7.99187 42.8592 17.8125 42.8592C27.6331 42.8592 35.625 34.8488 35.625 25.0021ZM10.6875 14.2878C12.6543 14.2878 14.25 15.8875 14.25 17.8592H7.125C7.125 15.8875 8.7207 14.2878 10.6875 14.2878ZM17.8125 32.1449C13.8774 32.1449 10.6875 28.947 10.6875 25.0021H24.9375C24.9375 28.947 21.7476 32.1449 17.8125 32.1449ZM21.375 17.8592C21.375 15.8875 22.9707 14.2878 24.9375 14.2878C26.9043 14.2878 28.5 15.8875 28.5 17.8592H21.375Z" fill="white"/>
</g>
<defs>
<clipPath id="clip0">
<rect width="57" height="50" fill="white"/>
</clipPath>
</defs>
</svg>
