<svg width="37" height="49" viewBox="0 0 37 49" fill="none" xmlns="http://www.w3.org/2000/svg">
<path d="M10.7917 12.25H26.2083C27.0562 12.25 27.75 11.5609 27.75 10.7188V4.59375C27.75 3.75156 27.0562 3.0625 26.2083 3.0625H22.8552C22.2289 1.28242 20.5138 0 18.5 0C16.4862 0 14.7711 1.28242 14.1352 3.0625H10.7917C9.94375 3.0625 9.25 3.75156 9.25 4.59375V10.7188C9.25 11.5609 9.94375 12.25 10.7917 12.25Z" fill="white"/>
<path d="M33.9167 6.125H30.8333V10.7188C30.8333 13.2549 28.7617 15.3125 26.2083 15.3125H10.7917C8.23828 15.3125 6.16667 13.2549 6.16667 10.7188V6.125H3.08333C1.3875 6.125 0 7.50312 0 9.1875V45.9375C0 47.6602 1.34896 49 3.08333 49H33.9167C35.651 49 37 47.6602 37 45.9375V9.1875C37 7.46484 35.651 6.125 33.9167 6.125ZM18.0471 33.2377L11.8805 39.3627C11.5818 39.6594 11.1867 39.8125 10.7917 39.8125C10.3966 39.8125 10.0016 39.6594 9.70286 39.3627L6.61953 36.3002C6.02213 35.7068 6.02213 34.7307 6.61953 34.1373C7.21693 33.5439 8.19974 33.5439 8.79714 34.1373L10.7917 36.1184L15.8695 31.0748C16.4669 30.4814 17.4497 30.4814 18.0471 31.0748C18.6445 31.6682 18.6542 32.6443 18.0471 33.2377ZM18.0471 20.9877L11.8805 27.1127C11.5818 27.4094 11.1867 27.5625 10.7917 27.5625C10.3966 27.5625 10.0016 27.4094 9.70286 27.1127L6.61953 24.0502C6.02213 23.4568 6.02213 22.4807 6.61953 21.8873C7.21693 21.2939 8.19974 21.2939 8.79714 21.8873L10.7917 23.8684L15.8695 18.8248C16.4669 18.2314 17.4497 18.2314 18.0471 18.8248C18.6445 19.4182 18.6542 20.3943 18.0471 20.9877ZM29.2917 36.75H23.125C22.2771 36.75 21.5833 36.0609 21.5833 35.2188C21.5833 34.3766 22.2771 33.6875 23.125 33.6875H29.2917C30.1396 33.6875 30.8333 34.3766 30.8333 35.2188C30.8333 36.0609 30.1396 36.75 29.2917 36.75ZM29.2917 24.5H23.125C22.2771 24.5 21.5833 23.8109 21.5833 22.9688C21.5833 22.1266 22.2771 21.4375 23.125 21.4375H29.2917C30.1396 21.4375 30.8333 22.1266 30.8333 22.9688C30.8333 23.8109 30.1396 24.5 29.2917 24.5Z" fill="white"/>
</svg>
