<svg width="50" height="52" viewBox="0 0 50 52" fill="none" xmlns="http://www.w3.org/2000/svg">
<path d="M49.5775 33.5717C49.5432 33.5261 49.5089 33.4805 49.4861 33.4349C48.7894 32.6594 47.6131 32.5568 46.7908 33.1954C44.5066 35.0542 41.1718 37.734 39.0133 39.4787C37.106 40.9954 34.7533 41.8735 32.3093 41.9647L26.4619 42.1585C25.3883 42.1928 24.3833 41.6454 23.8351 40.7217L23.1841 39.6156C23.0128 39.3305 22.8986 39.0112 22.8301 38.6805C22.5331 37.0954 23.5724 35.5559 25.1599 35.2594L31.2015 34.1191C32.1723 33.9252 32.8347 33.0129 32.7204 32.0322C32.6062 31.0971 31.8068 30.4015 30.8703 30.3901C30.836 30.3901 30.7903 30.3901 30.7789 30.3901C30.7332 30.3901 30.6761 30.3901 30.6305 30.3901L22.4989 30.0594C19.678 29.9568 17.2453 30.5042 14.3673 31.8954L9.47925 34.2559V47.2559L13.5793 46.5033C13.5907 46.4919 13.6021 46.4919 13.6136 46.4919C15.201 46.2638 16.2517 46.1612 17.9763 46.241L30.2536 46.8112C34.1024 46.9708 37.8826 45.705 40.8406 43.2419L49.3376 36.2059C50.1256 35.5445 50.2284 34.3585 49.5775 33.5717Z" fill="white"/>
<path d="M5.9502 32.1582H1.24486C0.559616 32.1582 0 32.717 0 33.4012V50.7573C0 51.4415 0.559616 52.0003 1.24486 52.0003H5.9502C6.63545 52.0003 7.19507 51.4415 7.19507 50.7573V33.4012C7.19507 32.717 6.63545 32.1582 5.9502 32.1582Z" fill="white"/>
<path d="M34.068 0C27.0785 0.0114035 21.4252 5.66754 21.4138 12.6351C21.4138 12.6465 21.4138 12.6465 21.4138 12.6465C21.4138 19.6254 27.0899 25.2816 34.0794 25.2816C41.0689 25.2816 46.7336 19.614 46.7336 12.6351C46.7336 5.65614 41.0575 0 34.068 0Z" fill="white"/>
</svg>
