<svg width="55" height="50" viewBox="0 0 55 50" fill="none" xmlns="http://www.w3.org/2000/svg">
<path d="M49.3109 20.024H10.1814V3.92491H12.2762C11.9421 4.58352 11.752 5.32781 11.752 6.11493V12.1592C11.752 14.845 13.9434 17.0297 16.6375 17.0297H17.9878C20.6819 17.0297 22.8733 14.845 22.8733 12.1592V6.116C22.8733 3.43014 20.6819 1.24548 17.9878 1.24548H17.6892C17.4002 0.517253 16.6891 0 15.8565 0H8.2124C7.12529 0 6.24336 0.879222 6.24336 1.96299V20.024H5.68799C2.55234 20.024 0 22.5674 0 25.6945V26.5512C0 29.6783 2.55234 32.2228 5.68906 32.2228H6.30459V37.058C6.30459 37.0623 6.30459 37.0666 6.30459 37.0708V39.2255C4.16904 40.0041 2.6415 42.0495 2.6415 44.4441C2.6415 47.5069 5.14121 49.9989 8.21348 49.9989C11.2857 49.9989 13.7854 47.5069 13.7854 44.4441C13.7854 42.0945 12.3138 40.0822 10.2416 39.2716V38.3185L24.1527 32.2217H30.8204L44.8067 38.3516V39.1709C42.7034 39.9655 41.2027 41.9949 41.2027 44.367C41.2027 47.4298 43.7024 49.9218 46.7747 49.9218C49.847 49.9218 52.3467 47.4298 52.3467 44.367C52.3467 41.9949 50.8471 39.9655 48.7427 39.1709V32.2217H49.3088C52.4455 32.2217 54.9978 29.6772 54.9978 26.5502V25.6934C55 22.5674 52.4477 20.024 49.3109 20.024ZM10.2416 34.0316V32.2228H14.3687L10.2416 34.0316ZM44.8067 34.0648L40.6044 32.2228H44.8067V34.0648Z" fill="white"/>
</svg>
