<svg width="51" height="52" viewBox="0 0 51 52" fill="none" xmlns="http://www.w3.org/2000/svg">
<path d="M45.3545 1.4877C45.3545 0.66415 44.6903 0 43.8668 0H25.6027C24.7791 0 24.115 0.66415 24.115 1.4877V4.47637H45.3678V1.4877H45.3545Z" fill="white"/>
<path d="M1.99907 49.6651C2.07877 50.4355 2.71635 51.0067 3.48676 51.0067H13.449C14.2194 51.0067 14.857 50.4223 14.9367 49.6651L16.1986 37.0596H0.737183L1.99907 49.6651Z" fill="white"/>
<path d="M15.4413 28.0935H1.49417C1.06911 28.0935 0.670621 28.2662 0.391678 28.585C0.112735 28.9038 -0.0333778 29.3156 0.0064712 29.7406L0.44481 34.0709H16.504L16.9423 29.7406C16.9821 29.3156 16.8493 28.9038 16.5571 28.585C16.2649 28.2662 15.8531 28.0935 15.4413 28.0935Z" fill="white"/>
<path d="M23.9291 7.46506L20.6748 14.1331H40.5993L43.8536 7.46506H23.9291Z" fill="white"/>
<path d="M50.8671 15.7005L47.1744 7.4783L43.0302 15.9794V51.0067H49.5123C50.3358 51.0067 50.9999 50.3425 50.9999 49.519V16.3115C50.9999 16.099 50.9601 15.8864 50.8671 15.7005Z" fill="white"/>
<path d="M20.117 49.519C20.117 50.3426 20.7812 51.0067 21.6047 51.0067H40.0282V17.1351H20.1038V49.519H20.117ZM25.8819 31.308L28.8307 26.7785C29.1096 26.3535 29.5745 26.1011 30.0793 26.1011C30.584 26.1011 31.0622 26.3535 31.3279 26.7785L34.2767 31.308C35.2995 32.8754 35.3659 34.7882 34.476 36.422C33.586 38.0691 31.9389 39.0387 30.0793 39.0387C28.2064 39.0387 26.5726 38.0558 25.6826 36.422C24.7927 34.7882 24.8591 32.8754 25.8819 31.308Z" fill="white"/>
</svg>
