<svg width="49" height="54" viewBox="0 0 49 54" fill="none" xmlns="http://www.w3.org/2000/svg">
<g clip-path="url(#clip0)">
<path d="M24.3168 11.25C27.2943 11.25 29.7059 8.73281 29.7059 5.625C29.7059 2.51719 27.2943 0 24.3168 0C21.3393 0 18.9277 2.51719 18.9277 5.625C18.9277 8.73281 21.3393 11.25 24.3168 11.25Z" fill="white"/>
<path d="M39.5961 13.5C42.5735 13.5 44.9851 10.9828 44.9851 7.875C44.9851 4.76719 42.5735 2.25 39.5961 2.25C36.6186 2.25 34.207 4.76719 34.207 7.875C34.207 10.9828 36.6186 13.5 39.5961 13.5Z" fill="white"/>
<path d="M9.4164 13.5C12.3939 13.5 14.8055 10.9828 14.8055 7.875C14.8055 4.76719 12.3939 2.25 9.4164 2.25C6.43895 2.25 4.02734 4.76719 4.02734 7.875C4.02734 10.9828 6.43895 13.5 9.4164 13.5Z" fill="white"/>
<path d="M48.9866 32.2031L47.599 20.6719C47.2621 17.8594 44.9583 15.75 42.2503 15.75H36.9286C36.3358 15.75 35.7296 15.8625 35.1368 16.0875C34.6113 16.2844 34.3149 16.875 34.4497 17.4375C34.5574 17.8594 34.6517 18.2813 34.7056 18.7172L36.1337 31.7813C36.3224 33.5109 35.8104 35.2406 34.7191 36.5063C34.4766 36.7875 34.1937 37.0406 33.803 37.3359C33.4931 37.5609 33.3314 37.9406 33.3584 38.3344L34.2071 50.7094C34.2476 51.3 34.7191 51.75 35.285 51.75H43.9074C44.4733 51.75 44.9448 51.3 44.9853 50.7094L45.9957 36C46.8445 35.9438 47.6394 35.5359 48.2052 34.8609C48.8115 34.1297 49.0944 33.1734 48.9866 32.2031Z" fill="white"/>
<path d="M15.1292 37.5471C14.6711 37.2377 14.267 36.8861 13.9302 36.5065C12.8389 35.2268 12.3269 33.5111 12.5155 31.7815L13.9436 18.7174C13.9975 18.2393 14.0918 17.7893 14.2131 17.3533C14.2939 17.058 14.2535 16.7486 14.1053 16.4955C13.9571 16.2283 13.7281 16.0455 13.4451 15.9752C12.9467 15.8346 12.5155 15.7783 12.0844 15.7783H6.74923C4.04123 15.7783 1.73741 17.9018 1.4006 20.7002L0.0263858 32.2033C-0.0813954 33.1596 0.20153 34.1299 0.807799 34.8611C1.37365 35.5361 2.16854 35.9299 3.01731 36.0002L4.02776 50.7096C4.06818 51.3002 4.53972 51.7502 5.10557 51.7502H13.7281C14.2939 51.7502 14.7655 51.3002 14.8059 50.7096L15.6412 38.5877C15.6547 38.1658 15.466 37.7721 15.1292 37.5471Z" fill="white"/>
<path d="M33.9909 32.0345L32.5628 18.9704C32.226 15.8626 29.8548 13.5142 27.0659 13.5142H21.5691C18.7803 13.5142 16.4091 15.8626 16.0723 18.9704L14.6442 32.0345C14.5229 33.1313 14.8462 34.2142 15.5333 35.0157C16.1261 35.7048 16.9076 36.0985 17.7429 36.1548L18.9285 52.9735C18.9689 53.5642 19.4404 54.0142 20.0063 54.0142H28.6288C29.1946 54.0142 29.6662 53.5642 29.7066 52.9735L30.8922 36.1548C31.7409 36.0985 32.5224 35.7048 33.1017 35.0157C33.7888 34.2142 34.1121 33.1313 33.9909 32.0345Z" fill="white"/>
</g>
<defs>
<clipPath id="clip0">
<rect width="49" height="54" fill="white"/>
</clipPath>
</defs>
</svg>
