<svg width="60" height="50" viewBox="0 0 60 50" fill="none" xmlns="http://www.w3.org/2000/svg">
<path d="M36.5148 5.1402H32.3436V0.734485C32.3436 0.220106 31.914 0 31.398 0H28.5804C28.0656 0 27.6564 0.220106 27.6564 0.734485V5.1402H23.4204C22.9044 5.1402 22.5 5.35791 22.5 5.87109V8.68582C22.5 9.2002 22.9056 9.81267 23.4204 9.81267H27.6564V13.7997C27.6564 14.3141 28.0656 14.9529 28.5804 14.9529H31.4304C31.9452 14.9529 32.3436 14.3141 32.3436 13.7997V9.81267H36.5148C37.0308 9.81267 37.5 9.2002 37.5 8.68582V5.88066C37.5 5.36748 37.0296 5.1402 36.5148 5.1402Z" fill="white"/>
<path d="M58.5948 47.1961H57.6564V8.65839C57.6564 7.00998 57.4188 7.00879 57.1596 7.00879H40.3116V8.6859C40.3116 10.7458 38.5812 12.6155 36.5136 12.6155H35.1552V13.7986C35.1552 15.8585 33.4956 17.7557 31.4292 17.7557H28.5792C26.5128 17.7557 24.8424 15.8585 24.8424 13.7986V12.6155H23.4192C21.3528 12.6155 19.686 10.7458 19.686 8.6859V7.00999H2.8392C2.5812 7.00999 2.3436 7.00999 2.3436 8.65959V47.1961H1.4052C0.6288 47.1961 0 47.8229 0 48.5981C0 49.3709 0.6288 50.0001 1.4052 50.0001H58.5948C59.3712 50.0001 60 49.3721 60 48.5981C60 47.8229 59.3712 47.1961 58.5948 47.1961ZM39.8436 20.781C39.8436 20.5226 40.0284 20.5609 40.2852 20.5609H50.562C50.8212 20.5609 51.0924 20.5226 51.0924 20.781V25.2333H39.8424V20.781H39.8436ZM39.8436 28.0373H51.0936V41.8239C51.0936 42.0822 50.8212 42.5225 50.5632 42.5225H40.2864C40.0284 42.5225 39.8448 42.081 39.8448 41.8239L39.8436 28.0373ZM24.3744 20.781C24.3744 20.5226 24.6072 20.5609 24.8664 20.5609H35.1432C35.4012 20.5609 35.6244 20.5226 35.6244 20.781V25.2333H24.3744V20.781ZM24.3744 28.0373H35.6244V41.8239C35.6244 42.0822 35.4012 42.5225 35.1432 42.5225H24.8664C24.6072 42.5225 24.3744 42.081 24.3744 41.8239V28.0373ZM8.9064 20.781C8.9064 20.5226 9.1884 20.5609 9.4476 20.5609H19.7244C19.9836 20.5609 20.1564 20.5226 20.1564 20.781V25.2333H8.9064V20.781ZM8.9064 28.0373H20.1564V41.8239C20.1564 42.0822 19.9824 42.5225 19.7244 42.5225H9.4476C9.1884 42.5225 8.9064 42.081 8.9064 41.8239V28.0373Z" fill="white"/>
</svg>
