<svg width="60" height="53" viewBox="0 0 60 53" fill="none" xmlns="http://www.w3.org/2000/svg">
<g clip-path="url(#clip0)">
<path d="M53.0526 10.6121H41.9803V3.89177C41.9803 1.74528 40.2632 0 38.1513 0H21.8487C19.7368 0 18.0197 1.74528 18.0197 3.89177V10.6322H6.94737C3.11842 10.6121 0 13.7817 0 17.6735V45.1766C0 49.0684 3.11842 52.238 6.94737 52.238H53.0526C56.8816 52.238 60 49.0684 60 45.1766V17.6735C60 13.7817 56.8816 10.6121 53.0526 10.6121ZM23.7632 5.83766H36.2368V10.5118H23.7632V5.83766ZM41.7237 33.1202C41.7039 33.3007 41.6053 33.4813 41.4474 33.5816C41.2895 33.6819 41.1118 33.722 40.9342 33.6819C40.5197 33.5816 40.0658 33.6217 39.6711 33.8022C38.6447 34.2636 38.1908 35.4873 38.6447 36.5104C38.8224 36.9116 39.0987 37.2326 39.4737 37.4533C39.6316 37.5536 39.75 37.7141 39.7895 37.8946C39.8289 38.0752 39.7895 38.2758 39.6908 38.4162C39 39.4192 38.1513 40.322 37.1645 41.0642C37.0066 41.1846 36.8289 41.2247 36.6513 41.1846C36.4737 41.1445 36.3158 41.0441 36.2171 40.8837C35.9803 40.5025 35.6447 40.2016 35.2303 40.0612C34.9934 39.9809 34.7566 39.9207 34.5 39.9207C33.6711 39.9207 32.9211 40.4423 32.6053 41.2448C32.4474 41.646 32.4276 42.0873 32.5461 42.5086C32.6053 42.6891 32.5658 42.8897 32.4671 43.0502C32.3684 43.2107 32.2105 43.311 32.0132 43.3511C31.3618 43.4715 30.6908 43.5317 30 43.5317C29.4671 43.5317 28.9145 43.4915 28.3618 43.4113C28.1842 43.3912 28.0066 43.2909 27.9079 43.1305C27.8092 42.97 27.7697 42.7694 27.8092 42.5888C27.9079 42.1475 27.8684 41.7062 27.6908 41.2849C27.375 40.5426 26.6447 40.0612 25.8355 40.0612C25.5592 40.0612 25.2829 40.1214 25.0263 40.2417C24.6316 40.4223 24.3158 40.7031 24.0987 41.0843C24 41.2448 23.8421 41.3651 23.6645 41.4052C23.4868 41.4454 23.2895 41.4052 23.1316 41.3049C22.1447 40.5827 21.2566 39.7201 20.5263 38.7372C20.4079 38.5767 20.3684 38.3961 20.4079 38.2156C20.4474 38.035 20.5461 37.8746 20.7039 37.7743C21.0789 37.5335 21.375 37.1925 21.5329 36.7712C21.7303 36.2496 21.7105 35.708 21.4934 35.2065C21.2763 34.705 20.8816 34.3238 20.3684 34.1232C19.9737 33.9627 19.5395 33.9427 19.1447 34.063C18.9671 34.1032 18.7697 34.0831 18.6118 33.9828C18.4539 33.8825 18.3553 33.722 18.3158 33.5214C18.1184 32.3178 18.0987 31.074 18.2763 29.8503C18.2961 29.6697 18.3947 29.4892 18.5526 29.3889C18.7105 29.2886 18.8882 29.2485 19.0658 29.2886C19.4803 29.3889 19.9342 29.3488 20.3289 29.1682C20.8224 28.9476 21.1974 28.5463 21.3947 28.0248C21.5921 27.5032 21.5724 26.9615 21.3553 26.46C21.1776 26.0789 20.9013 25.7579 20.5461 25.5372C20.3882 25.4369 20.2697 25.2765 20.2303 25.0959C20.1908 24.9154 20.2303 24.7148 20.3289 24.5743C21.0197 23.5713 21.8684 22.6886 22.8553 21.9464C22.9934 21.826 23.1908 21.7859 23.3684 21.826C23.5461 21.8661 23.7039 21.9664 23.8026 22.1269C24.0395 22.5081 24.375 22.7689 24.7697 22.9294C25.0066 23.0297 25.2434 23.0698 25.5 23.0698C26.3289 23.0698 27.0789 22.5482 27.3947 21.7458C27.5329 21.3646 27.5724 20.9433 27.4737 20.5221C27.4342 20.3415 27.4539 20.1409 27.5724 20.0005C27.6711 19.84 27.8289 19.7397 28.0066 19.6996C29.1908 19.499 30.4145 19.4789 31.5987 19.6394C31.7763 19.6595 31.9539 19.7598 32.0526 19.9203C32.1513 20.0807 32.1908 20.2613 32.1513 20.4418C32.0724 20.8631 32.1118 21.3044 32.2895 21.6856C32.625 22.4278 33.3355 22.9093 34.1447 22.9093C34.4211 22.9093 34.6974 22.8491 34.9539 22.7287C35.3289 22.5482 35.6447 22.2674 35.8618 21.9263C35.9605 21.7658 36.1184 21.6455 36.2961 21.6254C36.4737 21.5853 36.6711 21.6254 36.8092 21.7257C37.7961 22.4278 38.6645 23.2904 39.3947 24.2734C39.5132 24.4138 39.5526 24.6145 39.5132 24.795C39.4737 24.9755 39.375 25.136 39.2171 25.2363C38.8421 25.4771 38.5855 25.8181 38.4276 26.2193C38.0329 27.2825 38.5461 28.4661 39.5921 28.8673C39.9671 29.0278 40.4013 29.0479 40.8158 28.9476C40.9934 28.9074 41.1908 28.9275 41.3487 29.0278C41.5066 29.1281 41.6053 29.2886 41.6447 29.4691C41.8618 30.6728 41.8816 31.8965 41.7237 33.1202Z" fill="white"/>
<path d="M30.0002 26.3398C29.2896 26.3398 28.5989 26.5003 27.9278 26.7812C25.362 27.9447 24.2173 30.9939 25.3423 33.6018C26.1515 35.4675 27.987 36.6711 29.9804 36.6711C30.691 36.6711 31.3817 36.5307 32.0528 36.2298C34.6186 35.0662 35.7633 32.017 34.6383 29.4091C33.8291 27.5435 32.0133 26.3398 30.0002 26.3398Z" fill="white"/>
</g>
<defs>
<clipPath id="clip0">
<rect width="60" height="52.2581" fill="white"/>
</clipPath>
</defs>
</svg>
