<svg width="60" height="49" viewBox="0 0 60 49" fill="none" xmlns="http://www.w3.org/2000/svg">
<path d="M60 41.9297H0V48.9992H60V41.9297Z" fill="white"/>
<path d="M60 0H0V7.06957H60V0Z" fill="white"/>
<path d="M0 38.3958H60V10.6045H0V38.3958ZM54.3906 29.5824L56.5938 31.0591L53.9062 35.1124L51.2188 31.7347L54.3906 29.5824ZM47.3438 15.4432L49.9375 19.2608L47.375 21.3502L43.4688 18.6481L47.3438 15.4432ZM37.4688 30.0694L40.5781 31.6718L38.3594 34.6253L35.3125 32.2845L37.4688 30.0694ZM26.9688 21.3502L30.2656 23.314L27.9688 25.1521L24.0938 24.3666L26.9688 21.3502ZM13.3125 29.3939L11.2969 34.4368L6.70312 31.122L9.03125 27.6814L13.3125 29.3939ZM5.375 16.3701H7.34375L8.89062 20.4233H4.53125L5.375 16.3701Z" fill="white"/>
</svg>
