<svg width="61" height="49" viewBox="0 0 61 49" fill="none" xmlns="http://www.w3.org/2000/svg">
<path d="M47.6562 37.6924C45.1662 37.6924 43.0693 39.2707 42.283 41.4616H18.717C17.9307 39.2707 15.8338 37.6924 13.3437 37.6924C10.1865 37.6924 7.625 40.2248 7.625 43.3462C7.625 46.4676 10.1865 49.0001 13.3437 49.0001C15.8338 49.0001 17.9307 47.4217 18.717 45.2308H42.2949C43.0812 47.4217 45.1781 49.0001 47.6682 49.0001C50.8254 49.0001 53.3869 46.4676 53.3869 43.3462C53.3869 40.2248 50.8135 37.6924 47.6562 37.6924Z" fill="white"/>
<path d="M13.3438 33.9231C13.8799 33.9231 14.4041 33.6875 14.7615 33.2988C15.9768 31.956 26.6875 19.9651 26.6875 13.1923C26.6875 5.91298 20.7066 0 13.3438 0C5.98086 0 0 5.91298 0 13.1923C0 19.9651 10.7107 31.956 11.926 33.2988C12.2834 33.6875 12.8076 33.9231 13.3438 33.9231ZM7.625 13.1923C7.625 10.0709 10.1865 7.53846 13.3438 7.53846C16.501 7.53846 19.0625 10.0709 19.0625 13.1923C19.0625 16.3137 16.501 18.8462 13.3438 18.8462C10.1865 18.8462 7.625 16.3137 7.625 13.1923Z" fill="white"/>
<path d="M47.6562 33.9231C48.1924 33.9231 48.7166 33.6875 49.074 33.2988C50.2893 31.956 61 19.9651 61 13.1923C61 5.91298 55.0191 0 47.6562 0C40.2934 0 34.3125 5.91298 34.3125 13.1923C34.3125 19.9651 45.0232 31.956 46.2385 33.2988C46.5959 33.6875 47.1201 33.9231 47.6562 33.9231ZM41.9375 13.1923C41.9375 10.0709 44.499 7.53846 47.6562 7.53846C50.8135 7.53846 53.375 10.0709 53.375 13.1923C53.375 16.3137 50.8135 18.8462 47.6562 18.8462C44.499 18.8462 41.9375 16.3137 41.9375 13.1923Z" fill="white"/>
</svg>
