<svg width="60" height="53" viewBox="0 0 60 53" fill="none" xmlns="http://www.w3.org/2000/svg">
<g clip-path="url(#clip0)">
<path d="M59.4907 47.0264L33.2418 1.8653C31.7957 -0.616558 28.1936 -0.616558 26.7475 1.8653L0.507327 47.0264C-0.938773 49.5083 0.866661 52.6171 3.75886 52.6171H56.2479C59.1313 52.6171 60.928 49.5083 59.4907 47.0264ZM27.2646 17.7405C29.0525 17.7405 30.5073 19.1861 30.5073 20.9625C30.5073 22.739 29.0525 24.1846 27.2646 24.1846C25.4767 24.1846 24.0218 22.739 24.0218 20.9625C24.0218 19.1861 25.4767 17.7405 27.2646 17.7405ZM24.3724 35.6795L19.2803 44.7884C18.9911 45.1977 18.5178 45.4415 18.0095 45.4415C17.694 45.4415 17.3873 45.3457 17.1331 45.1628C16.7913 44.9277 16.5722 44.5794 16.4933 44.1788C16.4232 43.7782 16.5108 43.3689 16.7475 43.0293L21.5853 34.4255L21.708 33.8943C21.7168 33.8508 21.7518 33.816 21.7869 33.7985C21.8307 33.7811 21.8745 33.7811 21.9096 33.8072C21.9096 33.8072 22.4968 34.3123 22.602 34.3994C22.7071 34.4865 22.8298 34.5649 23.084 34.5126L23.3031 34.4778L24.3373 35.4967C24.3986 35.5489 24.4162 35.6186 24.3724 35.6795ZM29.9026 41.0003L29.0437 44.7448C28.8772 45.4415 28.2637 45.9292 27.545 45.9292C27.4311 45.9292 27.3084 45.9117 27.1944 45.8856C26.7913 45.7898 26.4495 45.546 26.2391 45.1977C26.02 44.8493 25.9499 44.44 26.0463 44.0395L27.2996 38.6142C27.3084 38.562 27.3522 38.5271 27.396 38.5097C27.4486 38.4923 27.5012 38.5097 27.5362 38.5445L29.8675 40.8609C29.9026 40.9045 29.9114 40.9567 29.9026 41.0003ZM36.1778 45.0757C35.9324 45.3196 35.4591 45.4415 34.7492 45.4415C33.9955 45.4415 33.2242 45.3022 33.0752 45.276C33.049 45.2673 33.0227 45.2586 33.0051 45.2412L30.6037 42.8551C30.5511 42.8029 30.5511 42.7158 30.6037 42.6549L31.7957 41.4705L23.3732 33.1019L23.2593 33.128C23.1629 33.1454 23.0752 33.1628 22.9876 33.1628C22.6721 33.1628 22.3741 33.0409 22.1462 32.8145L18.3338 29.0264C18.0796 28.7739 17.9482 28.4168 17.992 28.0598C18.0358 27.7027 18.2286 27.3805 18.5354 27.189L23.1629 24.2717C23.3557 24.1498 23.5748 24.0888 23.8027 24.0888C23.8903 24.0888 23.9692 24.0975 24.0481 24.1149H24.0568L29.1226 25.1948C29.4293 25.2557 29.701 25.4299 29.8851 25.6911L32.5932 29.6099C32.9263 30.0975 32.8561 30.7419 32.4267 31.1425L27.5187 35.7405L32.5406 40.7303L33.7326 39.546C33.7851 39.4937 33.8728 39.4937 33.9341 39.546L36.3355 41.9321C36.3531 41.9495 36.3706 41.9756 36.3706 42.0017C36.3881 42.1062 36.4933 42.6461 36.5284 43.2644C36.5809 44.1875 36.467 44.7884 36.1778 45.0757ZM30.9718 38.0133C30.9631 38.0743 30.9192 38.1091 30.8754 38.1265C30.8667 38.1265 30.8491 38.1353 30.8404 38.1353C30.8053 38.1353 30.7703 38.1178 30.744 38.0917L28.4828 35.845C28.4565 35.8189 28.439 35.784 28.439 35.7405C28.439 35.7056 28.4565 35.6708 28.4828 35.6447L28.9736 35.1832C29.0262 35.1309 29.105 35.1309 29.1576 35.1744L30.3233 36.1236C30.8842 36.5765 31.1296 37.3167 30.9718 38.0133ZM49.0437 45.3283C48.9999 45.398 48.9298 45.4415 48.8509 45.4415H37.4924C37.4398 45.4415 37.3873 45.4154 37.3522 45.3718C37.3171 45.3283 37.3084 45.276 37.3171 45.2238L37.8605 43.0293C37.8693 43.0032 37.8781 42.9771 37.8956 42.9596L38.7019 41.993L39.1401 40.5649C39.1489 40.5213 39.1839 40.4865 39.219 40.4691L40.7615 39.5808C40.8316 39.546 40.9105 39.5547 40.9718 39.607L42.1024 40.6694L42.8123 40.6955L43.8728 40.1382C43.9254 40.112 43.9867 40.112 44.0393 40.1382L45.24 40.7913C45.2838 40.8174 45.3189 40.8522 45.3277 40.9045L45.538 41.784L46.3268 41.9843C46.3794 42.0017 46.4232 42.0366 46.4407 42.0888L46.6773 42.6461L46.949 42.5242C47.0279 42.4894 47.1156 42.5068 47.1769 42.5504C47.1944 42.5678 47.212 42.5852 47.2295 42.6113L47.8167 43.813C47.878 43.7956 47.9394 43.8043 48.0007 43.8392L48.4915 44.144C48.5266 44.1614 48.5529 44.1962 48.5704 44.231L49.0437 45.1106C49.0875 45.1802 49.0875 45.2673 49.0437 45.3283Z" fill="white"/>
<path d="M28.9484 28.5108L28.6767 30.0696C28.6679 30.0957 28.6592 30.1305 28.6329 30.1479L25.951 32.6559C25.8984 32.7082 25.8108 32.7082 25.7582 32.6559L25.1798 32.0812C25.1535 32.0551 25.1359 32.0202 25.1359 31.9854C25.1359 31.4193 24.9168 30.8794 24.5137 30.4789L21.8932 27.8838L21.0693 28.3976L23.8301 31.1407C24.1281 31.4368 24.242 31.8461 24.1456 32.2553L24.1193 32.3686L25.8283 34.0667L25.9861 33.9186L25.9948 33.9099L30.0527 30.1131L28.9484 28.5108Z" fill="white"/>
</g>
<defs>
<clipPath id="clip0">
<rect width="60" height="52.6154" fill="white"/>
</clipPath>
</defs>
</svg>
