<svg width="55" height="55" viewBox="0 0 55 55" fill="none" xmlns="http://www.w3.org/2000/svg">
<g clip-path="url(#clip0)">
<path d="M10.043 54.4629C10.043 54.7594 10.2836 55 10.5801 55H20.278C20.5746 55 20.8152 54.7594 20.8152 54.4629C20.8152 51.9664 20.8152 50.4826 20.8166 49.5215H10.043V54.4629Z" fill="white"/>
<path d="M10.043 46.3003H20.8166V40.8218H10.043C10.043 43.1865 10.043 44.9482 10.043 46.3003Z" fill="white"/>
<path d="M20.8138 30.5665C20.7092 27.656 18.3485 25.3801 15.4291 25.3801C12.5326 25.3801 10.1733 27.6374 10.0487 30.5249C10.0458 31.2153 10.043 37.0017 10.043 37.5918H20.8138C20.8152 37.1364 20.8166 30.893 20.8138 30.5665Z" fill="white"/>
<path d="M29.6597 13.0697L17.7071 0.953906C16.4537 -0.317969 14.4038 -0.317969 13.1518 0.953906C13.1518 0.953906 13.1518 0.953906 13.1504 0.953906L1.19922 13.0697H29.6597Z" fill="white"/>
<path d="M52.3141 44.6103H48.2974L40.35 22.8867C39.9633 21.8311 38.9505 21.1236 37.8274 21.1236H30.8599V16.291C29.6265 16.291 1.72327 16.291 0 16.291C0 17.2793 0 52.4535 0 53.3888C0 54.2797 0.720537 55.0001 1.61154 55.0001C2.50254 55.0001 3.22308 54.2783 3.22308 53.3888V37.5935H6.82146C6.82146 37.4603 6.82289 30.5566 6.82862 30.4206C7.01341 25.7871 10.7909 22.1591 15.4307 22.1591C17.6796 22.1591 19.8083 23.0214 21.4241 24.5854C23.0357 26.148 23.9639 28.2406 24.0384 30.4793C24.0427 30.5509 24.0398 37.2512 24.0398 37.5935H27.6397V53.3816C27.6397 54.2711 28.3616 54.993 29.2512 54.993C30.1408 54.993 30.8627 54.2711 30.8627 53.3816V35.9836V35.9822V30.9333H33.0774L41.0333 53.2112C41.4144 54.2768 42.4314 54.993 43.5631 54.993H52.317C53.7981 54.993 55.0029 53.7884 55.0029 52.3074V47.2958C55 45.8148 53.7953 44.6103 52.3141 44.6103Z" fill="white"/>
</g>
<defs>
<clipPath id="clip0">
<rect width="55" height="55" fill="white"/>
</clipPath>
</defs>
</svg>
