<svg width="52" height="52" viewBox="0 0 52 52" fill="none" xmlns="http://www.w3.org/2000/svg">
<path d="M38.1604 33.5698C40.7198 30.076 42.25 25.7833 42.25 21.125C42.25 9.47917 32.7708 0 21.125 0C9.47917 0 0 9.47917 0 21.125C0 32.7708 9.47917 42.25 21.125 42.25C25.7833 42.25 30.076 40.7198 33.5698 38.1604L47.4094 52L52 47.4094L38.1604 33.5698ZM21.125 35.75C13.0542 35.75 6.5 29.1958 6.5 21.125C6.5 13.0542 13.0542 6.5 21.125 6.5C29.1958 6.5 35.75 13.0542 35.75 21.125C35.75 29.1958 29.1958 35.75 21.125 35.75Z" fill="white"/>
</svg>
