<svg width="41" height="55" viewBox="0 0 41 55" fill="none" xmlns="http://www.w3.org/2000/svg">
<g clip-path="url(#clip0)">
<path d="M35.7469 31.9529L36.8151 33.0343C33.1253 36.2369 28.4792 37.9829 23.5686 37.9829C12.3283 37.9829 3.18322 28.7245 3.18322 17.345C3.18322 12.3721 4.90782 7.66842 8.07124 3.93444L9.13798 5.01439C9.81282 4.20514 10.5641 3.44173 11.3903 2.73704L9.15354 0.474023C8.53246 -0.154753 7.52373 -0.154753 6.90265 0.474023C2.45179 4.98001 0 10.9713 0 17.345C0 23.7187 2.45038 29.71 6.90265 34.2174C10.9291 38.2937 16.158 40.7143 21.7789 41.1382V44.623C21.7789 44.6717 21.7817 44.7189 21.786 44.7662H15.4422C10.7452 44.7662 6.92387 48.6348 6.92387 53.39C6.92387 54.2795 7.63691 55.0014 8.51548 55.0014H38.2256C39.1041 55.0014 39.8172 54.2795 39.8172 53.39C39.8172 48.6348 35.9959 44.7662 31.2989 44.7662H24.9565C24.9607 44.7189 24.9636 44.6717 24.9636 44.623V41.164C30.7344 40.826 36.1133 38.3896 40.2345 34.2174C40.8556 33.5872 40.8556 32.5674 40.2345 31.9386L37.9992 29.6756C37.323 30.4863 36.5717 31.2482 35.7469 31.9529Z" fill="white"/>
<path d="M38.8333 21.0305L30.1919 16.0776C29.6076 15.7424 28.8918 15.8026 28.3697 16.2323L26.9465 17.401C26.5093 17.7605 25.9179 17.8594 25.3902 17.6617L23.4661 16.9413C22.2169 16.4729 21.2082 15.4918 20.696 14.2457C20.1839 12.9996 20.2079 11.5831 20.7611 10.357L22.9299 5.54881C23.1874 4.97733 23.1054 4.31847 22.7135 3.83149L20.9804 1.67017C18.3815 2.10558 15.8575 3.20702 13.6703 5.00597C8.07206 9.60936 6.42527 17.3394 9.1869 23.7246L14.0084 19.7614C15.0992 18.8648 16.4687 18.4523 17.8651 18.5984C20.7484 18.9006 22.8507 21.5217 22.5522 24.4422L22.4263 25.6711C22.3697 26.2282 22.5296 26.7754 22.879 27.2108L27.3454 32.7795C29.5581 32.2267 31.6421 31.1811 33.4643 29.6829C36.2542 27.3898 38.0623 24.3219 38.8333 21.0305Z" fill="white"/>
<path d="M19.3859 24.1083C19.5033 22.9568 18.6742 21.9227 17.5368 21.8038C16.9864 21.7465 16.446 21.9083 16.0159 22.2621L10.7812 26.5661C10.9737 26.8383 11.1731 27.1047 11.3811 27.3639C14.3946 31.1208 18.8893 33.2406 23.5722 33.2406H23.616L20.4087 29.2431C19.5245 28.1388 19.1156 26.7523 19.2614 25.3387L19.3859 24.1083Z" fill="white"/>
<path d="M25.827 6.88799L23.6582 11.6962C23.4686 12.1159 23.4601 12.5828 23.6356 13.0082C23.811 13.435 24.1435 13.7573 24.5707 13.9177L25.6431 14.3201L26.3618 13.73C27.2432 13.0053 28.31 12.6358 29.3866 12.6358C30.1973 12.6358 31.0136 12.8449 31.7592 13.2731L39.2645 17.5743C39.3168 13.8704 38.0888 10.2338 35.7559 7.32484C33.0395 3.9389 29.1461 1.87926 24.9527 1.5083L25.1862 1.79906C26.3449 3.24424 26.5896 5.19359 25.827 6.88799Z" fill="white"/>
</g>
<defs>
<clipPath id="clip0">
<rect width="40.7" height="55" fill="white"/>
</clipPath>
</defs>
</svg>
