<svg width="55" height="41" viewBox="0 0 55 41" fill="none" xmlns="http://www.w3.org/2000/svg">
<g clip-path="url(#clip0)">
<path d="M21.4355 20.5C21.4355 23.2392 23.2531 25.5619 25.7467 26.3266L25.7496 14.672C23.2531 15.4367 21.4355 17.7593 21.4355 20.5Z" fill="white"/>
<path d="M33.6336 20.5C33.6336 17.7323 31.7788 15.3925 29.2451 14.6506L29.2422 26.3494C31.7759 25.609 33.6336 23.2678 33.6336 20.5Z" fill="white"/>
<path d="M10.7164 20.5001C10.7164 14.4723 5.95977 9.53174 0 9.23071V31.7694C5.95977 31.467 10.7164 26.5278 10.7164 20.5001Z" fill="white"/>
<path d="M40.7874 20.5C40.7874 12.5505 47.1124 6.04913 55 5.74525V1.38531C55 0.620607 54.3784 0 53.6107 0H29.2488L29.246 11.0768C33.7219 11.8857 37.1293 15.8005 37.1293 20.4986C37.1293 25.1981 33.7204 29.1143 29.2417 29.9218L29.2402 40.9986H53.6107C54.3784 40.9986 55 40.378 55 39.6133V35.2533C47.1109 34.9494 40.7874 28.448 40.7874 20.5Z" fill="white"/>
<path d="M25.7454 29.9075C21.3068 29.0687 17.9395 25.1695 17.9395 20.5C17.9395 15.8276 21.3096 11.9285 25.7512 11.091V0H1.38932C0.621615 0 0 0.620607 0 1.38531V5.74525C7.88906 6.05056 14.2126 12.552 14.2126 20.5C14.2126 28.448 7.88906 34.9494 0 35.2547V39.6147C0 40.3794 0.621615 41 1.38932 41H25.7426L25.7454 29.9075Z" fill="white"/>
<path d="M54.9996 31.7694V9.23071C49.0398 9.53317 44.2832 14.4723 44.2832 20.5001C44.2832 26.5278 49.0398 31.467 54.9996 31.7694Z" fill="white"/>
</g>
<defs>
<clipPath id="clip0">
<rect width="55" height="41" fill="white"/>
</clipPath>
</defs>
</svg>
