<svg width="46" height="55" viewBox="0 0 46 55" fill="none" xmlns="http://www.w3.org/2000/svg">
<g clip-path="url(#clip0)">
<path d="M39.3766 21.5416C35.1105 17.2849 29.4165 14.8915 23.3456 14.8027C17.2121 14.711 11.3973 16.9941 6.97546 21.2251C2.55943 25.4532 0.0836086 31.1008 0.00209992 37.1307C-0.0415654 40.3677 0.595949 43.5015 1.89572 46.4463C3.15037 49.2866 4.95375 51.806 7.25637 53.9344C8.00014 54.6219 8.97096 55.0014 9.98982 55.0014H36.0071C37.026 55.0014 37.9953 54.6247 38.7362 53.9401C41.0039 51.8461 42.7898 49.3696 44.043 46.581C45.3413 43.6935 45.9992 40.6169 45.9992 37.4343C46.0006 31.4474 43.6485 25.8027 39.3766 21.5416ZM28.1008 40.7129H17.8991C16.9952 40.7129 16.2616 39.991 16.2616 39.1015C16.2616 38.2121 16.9952 37.4902 17.8991 37.4902H28.1008C29.0046 37.4902 29.7382 38.2121 29.7382 39.1015C29.7382 39.991 29.0046 40.7129 28.1008 40.7129ZM31.3757 34.7101H14.6256C13.7218 34.7101 12.9882 33.9897 12.9882 33.0988C12.9882 32.2093 13.7218 31.4875 14.6256 31.4875H31.3771C32.281 31.4875 33.0146 32.2093 33.0146 33.0988C33.0131 33.9883 32.2795 34.7101 31.3757 34.7101Z" fill="white"/>
<path d="M5.03354 18.5969C7.33179 16.4699 9.94735 14.7956 12.7667 13.6168L12.234 10.9642C12.0622 10.1077 12.4421 9.49609 12.6837 9.20677C12.9253 8.91745 13.4624 8.4319 14.3488 8.4319H31.6534C32.5398 8.4319 33.0769 8.91602 33.3185 9.20677C33.5601 9.49609 33.94 10.1077 33.7683 10.9642L33.237 13.6068C36.0651 14.7827 38.6821 16.4542 40.973 18.5711L42.1724 12.597C42.7953 9.4875 41.9817 6.30065 39.9367 3.85143C37.8917 1.40365 34.873 0 31.6519 0H14.3474C11.1278 0 8.10758 1.40365 6.06404 3.85143C4.01905 6.30208 3.20396 9.48893 3.82838 12.597L5.03354 18.5969Z" fill="white"/>
</g>
<defs>
<clipPath id="clip0">
<rect width="46" height="55" fill="white"/>
</clipPath>
</defs>
</svg>
