<svg width="50" height="50" viewBox="0 0 50 50" fill="none" xmlns="http://www.w3.org/2000/svg">
<path d="M25 41.1849H48.5417C49.349 41.1849 50 41.8359 50 42.6432V48.5286C50 49.3359 49.349 49.987 48.5417 49.987H25C24.1927 49.987 23.5417 49.3359 23.5417 48.5286V42.6432C23.5287 41.8359 24.1927 41.1849 25 41.1849Z" fill="white"/>
<path d="M1.28915 37.8776L16.9011 22.2656L23.1381 28.5026L7.52613 44.1016C6.66675 44.9609 5.53394 45.3906 4.41415 45.3906C3.28134 45.3906 2.16154 44.9609 1.30217 44.1016C-0.429601 42.3828 -0.429601 39.5964 1.28915 37.8776Z" fill="white"/>
<path d="M16.8882 18.0989L27.2788 7.70831L37.6824 18.112L27.2918 28.5026L16.8882 18.0989Z" fill="white"/>
<path d="M42.8774 19.1406L44.9608 21.224C45.5337 21.7969 45.5337 22.7214 44.9608 23.2943L32.4738 35.7813C32.1873 36.0677 31.8097 36.211 31.4321 36.211C31.0545 36.211 30.6769 36.0677 30.3905 35.7813L28.3071 33.6979C27.7342 33.125 27.7342 32.2005 28.3071 31.6276L40.7941 19.1406C41.38 18.5677 42.3045 18.5677 42.8774 19.1406Z" fill="white"/>
<path d="M13.776 17.0703C13.203 17.6432 12.2786 17.6432 11.7056 17.0703L9.62231 14.987C9.0494 14.4141 9.0494 13.4896 9.62231 12.9167L22.1093 0.429688C22.6822 -0.143229 23.6067 -0.143229 24.1796 0.429688L26.2629 2.51302C26.8359 3.08594 26.8359 4.01042 26.2629 4.58333L13.776 17.0703Z" fill="white"/>
</svg>
