<svg width="49" height="54" viewBox="0 0 49 54" fill="none" xmlns="http://www.w3.org/2000/svg">
<g clip-path="url(#clip0)">
<path d="M48.9492 49.3103C48.9152 49.0776 48.8642 48.8534 48.7877 48.6379C48.2522 46.5431 47.0198 42.7241 46.4588 41.0086C46.3993 40.7155 46.3058 40.4224 46.1783 40.1552V40.1465C45.8384 39.4052 45.2774 38.7845 44.5974 38.3707C44.5549 38.3448 44.4699 38.2931 44.3509 38.2327C44.2999 38.2155 44.2574 38.181 44.2064 38.1638C42.855 37.5172 38.6987 35.8362 38.6987 35.8362C36.6163 34.9224 34.4659 34.1465 32.2731 33.3534C31.8821 35.0086 28.1593 45.9914 27.5643 47.5172L27.0968 37.3103C27.2498 37.069 27.3603 36.7931 27.4878 36.5345L29.0347 33.4224C27.9383 34.3448 26.2979 34.931 24.4704 34.931C22.6855 34.931 21.0791 34.3707 19.9827 33.4827L21.5041 36.5345C21.6231 36.7931 21.7336 37.069 21.8951 37.3103L21.4276 47.5172C20.8326 45.9914 17.1013 35 16.7188 33.3448C14.526 34.1379 12.3756 34.9138 10.2932 35.8276C10.2932 35.8276 6.13689 37.5172 4.78545 38.1552C4.73446 38.1724 4.69196 38.1983 4.64096 38.2241C4.52197 38.2758 4.43697 38.3276 4.39447 38.3621C3.70601 38.7845 3.15354 39.4052 2.81355 40.1465V40.1552C2.69456 40.4224 2.59257 40.7155 2.53307 41.0086C1.9721 42.7155 0.748161 46.5345 0.204188 48.6379C0.127692 48.8534 0.0766949 49.0776 0.0426966 49.3103C0.00869835 49.5086 -0.00830078 49.7241 -0.00830078 49.931C-0.00830078 52.181 1.78511 54 4.00349 54H7.8283C13.3105 54 18.7927 54.0086 24.2665 54H44.9714C47.1898 54 48.9832 52.181 48.9832 49.931C49.0002 49.7241 48.9747 49.5086 48.9492 49.3103Z" fill="white"/>
<path d="M34.9675 14.4483C34.9675 13.7328 35.1035 11.1207 35.1035 10.5259C35.112 4.7069 30.4627 0 24.734 0H24.2581C18.5294 0 13.8716 4.71552 13.8716 10.5345C13.8716 11.1379 14.0076 13.7328 14.0076 14.4569C13.7526 14.4741 11.4322 13.9052 11.6787 16.7241C12.2057 22.7069 14.4581 21.5517 14.5261 21.5517C15.631 25.1552 17.3564 27.4655 19.0393 28.931C21.6742 31.2241 24.2241 31.4655 24.2666 31.4655C24.3431 31.4655 24.4111 31.4741 24.4875 31.4741C24.5555 31.4741 24.632 31.4741 24.7085 31.4655C24.751 31.4655 27.2839 31.2155 29.9018 28.9569C31.5932 27.4914 33.3271 25.181 34.4405 21.5517C34.5085 21.5517 36.7609 22.7069 37.2879 16.7241C37.5514 13.8966 35.2225 14.4655 34.9675 14.4483Z" fill="white"/>
</g>
<defs>
<clipPath id="clip0">
<rect width="49" height="54" fill="white"/>
</clipPath>
</defs>
</svg>
