<svg width="60" height="55" viewBox="0 0 60 55" fill="none" xmlns="http://www.w3.org/2000/svg">
<g clip-path="url(#clip0)">
<path d="M14.0237 10.4711L37.9428 4.23849L36.6795 1.79369C35.8541 0.201351 33.8328 -0.45006 32.1652 0.338067L10.7559 10.4711H14.0237Z" fill="white"/>
<path d="M45.3624 4.41553C45.0676 4.41553 44.7728 4.45574 44.4696 4.52812L38.852 5.99178L21.6875 10.4632H49.6577L48.605 6.77991C48.2091 5.35645 46.8447 4.41553 45.3624 4.41553Z" fill="white"/>
<path d="M53.178 12.7227H3.37732C2.31611 12.7227 1.3644 13.1891 0.741157 13.929C0.454801 14.2667 0.244245 14.6608 0.117911 15.0951C0.0421112 15.3685 0 15.65 0 15.9395V51.7832C0 53.5605 1.50758 55 3.36889 55H53.1696C55.0309 55 56.5385 53.5605 56.5385 51.7832V42.8082H36.5441C33.3857 42.8082 30.817 40.3553 30.817 37.3396V30.1821C30.817 28.7023 31.4402 27.3593 32.4424 26.3701C33.3352 25.4935 34.5227 24.9065 35.8619 24.7537C36.0809 24.7295 36.3167 24.7134 36.5441 24.7134H56.5385V15.9395C56.5469 14.1622 55.0309 12.7227 53.178 12.7227Z" fill="white"/>
<path d="M58.9057 27.7936C58.5688 27.4961 58.173 27.2709 57.7266 27.1261C57.3813 27.0136 57.0191 26.9492 56.6317 26.9492H36.5447C34.6834 26.9492 33.1758 28.3888 33.1758 30.1661V37.3235C33.1758 39.1009 34.6834 40.5404 36.5447 40.5404H56.6317C57.0191 40.5404 57.3813 40.4761 57.7266 40.3635C58.173 40.2187 58.5688 39.9935 58.9057 39.696C59.5795 39.1089 60.0006 38.2645 60.0006 37.3235V30.1661C60.0006 29.2332 59.5795 28.3807 58.9057 27.7936ZM43.5772 34.3882C43.5772 35.2728 42.8192 35.9966 41.8928 35.9966H40.7726C39.8462 35.9966 39.0882 35.2728 39.0882 34.3882V33.3186C39.0882 32.8039 39.3409 32.3455 39.7367 32.056C40.0231 31.8469 40.3852 31.7101 40.7726 31.7101H41.8928C42.8192 31.7101 43.5772 32.4339 43.5772 33.3186V34.3882Z" fill="white"/>
</g>
<defs>
<clipPath id="clip0">
<rect width="60" height="55" fill="white"/>
</clipPath>
</defs>
</svg>
