<svg width="55" height="55" viewBox="0 0 55 55" fill="none" xmlns="http://www.w3.org/2000/svg">
<path d="M55 9.16667V6.875C55 3.07799 51.922 0 48.125 0C44.328 0 41.25 3.07799 41.25 6.875V13.75H29.7917V6.875C29.7917 5.60885 30.8172 4.58333 32.0833 4.58333C33.3495 4.58333 34.375 5.60885 34.375 6.875V9.16667H38.9583V6.875C38.9583 3.07799 35.8803 0 32.0833 0C28.2863 0 25.2083 3.07799 25.2083 6.875V32.4271C24.157 32.1836 23.0814 32.0676 22.0014 32.0833C16.5014 32.0833 16.5014 34.375 11.0014 34.375C5.50143 34.375 5.5 32.0833 0 32.0833V41.25C5.5 41.25 5.5 43.5417 11 43.5417C16.5 43.5417 16.5 41.25 22 41.25C27.5 41.25 27.5 43.5417 33 43.5417C38.5 43.5417 38.5 41.25 44 41.25C49.5 41.25 49.5 43.5417 55 43.5417V34.375C50.1904 34.375 49.5859 32.6233 45.8333 32.1822V6.875C45.8333 5.60885 46.8589 4.58333 48.125 4.58333C49.3911 4.58333 50.4167 5.60885 50.4167 6.875V9.16667H55ZM41.25 18.3333V22.9167H29.7917V18.3333H41.25ZM29.7917 34.0313V27.5H41.25V32.3283C38.278 32.9184 37.3885 34.375 33 34.375C31.9201 34.3908 30.843 34.2747 29.7917 34.0313Z" fill="white"/>
<path d="M33 45.8334C27.5 45.8334 27.5 43.5417 22 43.5417C16.5 43.5417 16.5 45.8334 11 45.8334C5.5 45.8334 5.5 43.5417 0 43.5417V55.0001H55V45.8334C49.5 45.8334 49.5 43.5417 44 43.5417C38.5 43.5417 38.5 45.8334 33 45.8334Z" fill="white"/>
</svg>
