<svg width="50" height="51" viewBox="0 0 50 51" fill="none" xmlns="http://www.w3.org/2000/svg">
<path d="M44.9463 5.07117V0H39.8479V5.07117H27.5939V0H22.4955V5.07117H10.2415V0H5.18784V5.07117H0V10.1423V15.2135V50.0445H50V5.11566H44.9463V5.07117ZM5.14311 44.8843V15.169H44.8569V44.8843H5.14311Z" fill="white"/>
<path d="M12.9502 28.4766H14.3037C14.9482 28.4766 15.4258 28.3154 15.7363 27.9932C16.0469 27.6709 16.2021 27.2432 16.2021 26.71C16.2021 26.1943 16.0469 25.793 15.7363 25.5059C15.4316 25.2188 15.0098 25.0752 14.4707 25.0752C13.9844 25.0752 13.5771 25.21 13.249 25.4795C12.9209 25.7432 12.7568 26.0889 12.7568 26.5166H10.2168C10.2168 25.8486 10.3955 25.251 10.7529 24.7236C11.1162 24.1904 11.6201 23.7744 12.2646 23.4756C12.915 23.1768 13.6299 23.0273 14.4092 23.0273C15.7627 23.0273 16.8232 23.3525 17.5908 24.0029C18.3584 24.6475 18.7422 25.5381 18.7422 26.6748C18.7422 27.2607 18.5635 27.7998 18.2061 28.292C17.8486 28.7842 17.3799 29.1621 16.7998 29.4258C17.5205 29.6836 18.0566 30.0703 18.4082 30.5859C18.7656 31.1016 18.9443 31.7109 18.9443 32.4141C18.9443 33.5508 18.5283 34.4619 17.6963 35.1475C16.8701 35.833 15.7744 36.1758 14.4092 36.1758C13.1318 36.1758 12.0859 35.8389 11.2715 35.165C10.4629 34.4912 10.0586 33.6006 10.0586 32.4932H12.5986C12.5986 32.9736 12.7773 33.3662 13.1348 33.6709C13.498 33.9756 13.9434 34.1279 14.4707 34.1279C15.0742 34.1279 15.5459 33.9697 15.8857 33.6533C16.2314 33.3311 16.4043 32.9062 16.4043 32.3789C16.4043 31.1016 15.7012 30.4629 14.2949 30.4629H12.9502V28.4766Z" fill="white"/>
<path d="M27.5928 23.0713V25.1631H27.3467C26.1982 25.1807 25.2725 25.4795 24.5693 26.0596C23.8721 26.6396 23.4531 27.4453 23.3125 28.4766C23.9922 27.7852 24.8506 27.4395 25.8877 27.4395C27.001 27.4395 27.8857 27.8379 28.542 28.6348C29.1982 29.4316 29.5264 30.4805 29.5264 31.7812C29.5264 32.6133 29.3447 33.3662 28.9814 34.04C28.624 34.7139 28.1143 35.2383 27.4521 35.6133C26.7959 35.9883 26.0518 36.1758 25.2197 36.1758C23.8721 36.1758 22.7822 35.707 21.9502 34.7695C21.124 33.832 20.7109 32.5811 20.7109 31.0166V30.1025C20.7109 28.7139 20.9717 27.4893 21.4932 26.4287C22.0205 25.3623 22.7734 24.5391 23.752 23.959C24.7363 23.373 25.876 23.0771 27.1709 23.0713H27.5928ZM25.1143 29.4785C24.7041 29.4785 24.332 29.5869 23.998 29.8037C23.6641 30.0146 23.418 30.2959 23.2598 30.6475V31.4209C23.2598 32.2705 23.4268 32.9355 23.7607 33.416C24.0947 33.8906 24.5635 34.1279 25.167 34.1279C25.7119 34.1279 26.1514 33.9141 26.4854 33.4863C26.8252 33.0527 26.9951 32.4932 26.9951 31.8076C26.9951 31.1104 26.8252 30.5479 26.4854 30.1201C26.1455 29.6924 25.6885 29.4785 25.1143 29.4785Z" fill="white"/>
<path d="M31.416 29.707L32.1543 23.2031H39.3262V25.3213H34.2373L33.9209 28.0723C34.5244 27.75 35.166 27.5889 35.8457 27.5889C37.0645 27.5889 38.0195 27.9668 38.7109 28.7227C39.4023 29.4785 39.748 30.5361 39.748 31.8955C39.748 32.7217 39.5723 33.4629 39.2207 34.1191C38.875 34.7695 38.377 35.2764 37.7266 35.6396C37.0762 35.9971 36.3086 36.1758 35.4238 36.1758C34.6504 36.1758 33.9326 36.0205 33.2705 35.71C32.6084 35.3936 32.084 34.9512 31.6973 34.3828C31.3164 33.8145 31.1143 33.167 31.0908 32.4404H33.6045C33.6572 32.9736 33.8418 33.3896 34.1582 33.6885C34.4805 33.9814 34.8994 34.1279 35.415 34.1279C35.9893 34.1279 36.4316 33.9229 36.7422 33.5127C37.0527 33.0967 37.208 32.5107 37.208 31.7549C37.208 31.0283 37.0293 30.4717 36.6719 30.085C36.3145 29.6982 35.8076 29.5049 35.1514 29.5049C34.5479 29.5049 34.0586 29.6631 33.6836 29.9795L33.4375 30.208L31.416 29.707Z" fill="white"/>
</svg>
