<svg width="43" height="43" viewBox="0 0 43 43" fill="none" xmlns="http://www.w3.org/2000/svg">
<path d="M0 38.3865C0 40.9284 2.07161 43 4.61354 43H38.3753C40.9172 43 42.9888 40.9284 42.9888 38.3865V17.8047H0V38.3865ZM13.9414 34.7695L14.087 34.624H16.5729L16.7185 34.4784V32.6419L16.5729 32.4964H14.087L13.9414 32.3508V30.2232L14.087 30.0776H16.5729L16.7185 29.932V21.1753L16.8641 21.0297H23.7844C28.1628 21.0297 30.3911 23.4036 30.3911 26.8078C30.3911 30.3687 27.8492 32.4964 23.7844 32.4964H19.4844L19.3388 32.6419V34.4784L19.4844 34.624H24.8034L24.949 34.7695V36.8971L24.8034 37.0427H19.4844L19.3388 37.1883V39.0247L19.1932 39.1703H16.8753L16.7297 39.0247V37.1883L16.5841 37.0427H14.0982L13.9526 36.8971V34.7695H13.9414ZM31.5781 10.0781C32.9667 10.0781 34.0977 8.94713 34.0977 7.55859V2.51953C34.0977 1.13099 32.9667 0 31.5781 0C30.1896 0 29.0586 1.13099 29.0586 2.51953V7.55859C29.0586 8.94713 30.1896 10.0781 31.5781 10.0781ZM11.4219 10.0781C12.8104 10.0781 13.9414 8.94713 13.9414 7.55859V2.51953C13.9414 1.13099 12.8104 0 11.4219 0C10.0333 0 8.90234 1.13099 8.90234 2.51953V7.55859C8.90234 8.94713 10.0333 10.0781 11.4219 10.0781ZM38.3865 5.03906H36.6172V7.55859C36.6172 10.3357 34.3552 12.5977 31.5781 12.5977C28.801 12.5977 26.5391 10.3357 26.5391 7.55859V5.03906H16.4609V7.55859C16.4609 10.3357 14.199 12.5977 11.4219 12.5977C8.64479 12.5977 6.38281 10.3357 6.38281 7.55859V5.03906H4.61354C2.07161 5.03906 0 7.11068 0 9.6526V15.274H43V9.6526C43 7.11068 40.9284 5.03906 38.3865 5.03906ZM23.7844 30.0776C26.5167 30.0776 27.7708 28.913 27.7708 26.7854C27.7708 24.6578 26.3935 23.4932 23.7844 23.4932H19.4844L19.3388 23.6388V29.932L19.4844 30.0776H23.7844Z" fill="white"/>
</svg>
