<svg width="93" height="85" viewBox="0 0 93 85" fill="none" xmlns="http://www.w3.org/2000/svg">
<g clip-path="url(#clip0)">
<path d="M92.2901 17C91.5802 16.0556 90.3969 15.5833 89.2137 15.5833H16.5649L15.3817 3.54167C15.145 1.41667 13.4885 0 11.5954 0H3.78626C1.65649 0 0 1.65278 0 3.77778C0 5.90278 1.65649 7.55556 3.78626 7.55556H8.0458L12.3053 54.0694C12.3053 54.0694 12.3053 54.0694 12.3053 54.3056C12.3053 54.5417 12.3053 54.5417 12.3053 54.7778L12.542 56.4306C13.0153 60.4444 15.145 63.9861 17.9847 66.3472C16.3282 68.2361 15.6183 70.8333 15.6183 73.4306C15.6183 79.8056 20.8244 85 27.2137 85C33.6031 85 38.8092 79.8056 38.8092 73.4306C38.8092 72.0139 38.5725 70.8333 38.0992 69.4167H58.9237C58.4504 70.5972 58.2137 72.0139 58.2137 73.4306C58.2137 79.8056 63.4198 85 69.8092 85C76.1985 85 81.4046 79.8056 81.4046 73.4306C81.4046 67.0556 76.1985 61.8611 69.8092 61.8611H27.2137C24.374 61.8611 21.771 60.2083 20.5878 57.6111L81.6412 54.0694C83.2977 54.0694 84.7176 52.8889 85.1908 51.2361L93 20.3056C93.2366 19.125 93 17.9444 92.2901 17Z" fill="white" fill-opacity="0.22"/>
</g>
<defs>
<clipPath id="clip0">
<rect width="93" height="85" fill="white"/>
</clipPath>
</defs>
</svg>
