<svg width="100" height="77" viewBox="0 0 100 77" fill="none" xmlns="http://www.w3.org/2000/svg">
<g clip-path="url(#clip0)">
<path d="M15.2942 0C14.353 0 13.4118 0.473846 12.7059 0.947692C12.0001 1.65846 11.7648 2.60615 11.7648 3.55385V57.5723C11.7648 59.4677 13.4118 61.1262 15.2942 61.1262C23.5295 61.1262 37.6471 63.0215 47.2942 72.9723V16.5846C47.2942 15.8738 47.0589 15.1631 46.8236 14.6892C38.8236 1.89538 23.7648 0 15.2942 0Z" fill="white" fill-opacity="0.2"/>
<path d="M88.4705 57.8092V3.55385C88.4705 2.60615 87.9999 1.65846 87.5293 0.947692C86.5882 0.473846 85.647 0 84.7058 0C76.4705 0 61.1764 1.89539 53.1764 14.9262C52.9411 15.4 52.7058 16.1108 52.7058 16.8215V73.4462C62.3529 63.2585 76.2352 61.6 84.7058 61.6C86.8235 61.3631 88.4705 59.7046 88.4705 57.8092Z" fill="white" fill-opacity="0.2"/>
<path d="M96.4706 12.5566H93.8824V57.8089C93.8824 62.7843 89.8824 67.0489 84.7059 67.0489C77.6471 67.0489 65.8824 68.4705 57.6471 76.289C72 72.7351 87.0589 75.1043 95.5294 76.9997C96.4706 77.2366 97.6471 76.9997 98.5883 76.289C99.5294 75.5782 100 74.6305 100 73.4459V16.1105C100.235 13.9782 98.5883 12.5566 96.4706 12.5566Z" fill="white" fill-opacity="0.2"/>
<path d="M6.11765 57.8089V12.5566H3.52941C1.64706 12.5566 0 13.9782 0 16.1105V73.4459C0 74.6305 0.470588 75.5782 1.41176 76.289C2.35294 76.9997 3.29412 77.2366 4.47059 76.9997C13.1765 75.1043 28 72.7351 42.3529 76.289C34.1176 68.4705 22.3529 67.0489 15.2941 67.0489C10.3529 66.812 6.11765 62.7843 6.11765 57.8089Z" fill="white" fill-opacity="0.2"/>
</g>
<defs>
<clipPath id="clip0">
<rect width="100" height="77" fill="white"/>
</clipPath>
</defs>
</svg>
