<svg width="83" height="89" viewBox="0 0 83 89" fill="none" xmlns="http://www.w3.org/2000/svg">
<path d="M76.8244 10.7414H70.0313V6.13793C70.0313 2.76207 67.2522 0 63.8557 0H63.6086C60.2121 0 57.433 2.76207 57.433 6.13793V10.7414H25.567V6.13793C25.567 2.76207 22.7879 0 19.3914 0H19.1443C15.7478 0 12.9688 2.76207 12.9688 6.13793V10.7414H6.1756C2.77902 10.7414 0 13.5034 0 16.8793V82.6779C0 86.0538 2.77902 88.8158 6.1756 88.8158H76.8244C80.221 88.8158 83 86.0538 83 82.6779V16.8793C83 13.5034 80.221 10.7414 76.8244 10.7414ZM72.625 79.1179H10.375V29.2779H72.625V79.1179Z" fill="white" fill-opacity="0.22"/>
<path d="M18.8353 51.8346H29.5808C30.1366 51.8346 30.5689 51.4049 30.5689 50.8525V40.1725C30.5689 39.6201 30.1366 39.1904 29.5808 39.1904H18.8353C18.2795 39.1904 17.8472 39.6201 17.8472 40.1725V50.8525C17.8472 51.4049 18.2795 51.8346 18.8353 51.8346Z" fill="white" fill-opacity="0.22"/>
<path d="M36.1273 51.8346H46.8728C47.4286 51.8346 47.8609 51.4049 47.8609 50.8525V40.1725C47.8609 39.6201 47.4286 39.1904 46.8728 39.1904H36.1273C35.5715 39.1904 35.1392 39.6201 35.1392 40.1725V50.8525C35.1392 51.4049 35.5715 51.8346 36.1273 51.8346Z" fill="white" fill-opacity="0.22"/>
<path d="M53.4188 51.8346H64.1643C64.7201 51.8346 65.1524 51.4049 65.1524 50.8525V40.1725C65.1524 39.6201 64.7201 39.1904 64.1643 39.1904H53.4188C52.863 39.1904 52.4307 39.6201 52.4307 40.1725V50.8525C52.4307 51.4049 52.863 51.8346 53.4188 51.8346Z" fill="white" fill-opacity="0.22"/>
<path d="M18.8353 69.0211H29.5808C30.1366 69.0211 30.5689 68.5914 30.5689 68.039V57.359C30.5689 56.8066 30.1366 56.377 29.5808 56.377H18.8353C18.2795 56.377 17.8472 56.8066 17.8472 57.359V68.039C17.8472 68.5914 18.2795 69.0211 18.8353 69.0211Z" fill="white" fill-opacity="0.22"/>
<path d="M36.1273 69.0211H46.8728C47.4286 69.0211 47.8609 68.5914 47.8609 68.039V57.359C47.8609 56.8066 47.4286 56.377 46.8728 56.377H36.1273C35.5715 56.377 35.1392 56.8066 35.1392 57.359V68.039C35.1392 68.5914 35.5715 69.0211 36.1273 69.0211Z" fill="white" fill-opacity="0.22"/>
<path d="M53.4188 69.0211H64.1643C64.7201 69.0211 65.1524 68.5914 65.1524 68.039V57.359C65.1524 56.8066 64.7201 56.377 64.1643 56.377H53.4188C52.863 56.377 52.4307 56.8066 52.4307 57.359V68.039C52.4307 68.5914 52.863 69.0211 53.4188 69.0211Z" fill="white" fill-opacity="0.22"/>
</svg>
