<svg width="75" height="86" viewBox="0 0 75 86" fill="none" xmlns="http://www.w3.org/2000/svg">
<path d="M0 63.132C0 67.2582 3.2967 70.5592 7.41758 70.5592H67.5824C71.7033 70.5592 75 67.2582 75 63.132V60.6562H0V63.132Z" fill="white" fill-opacity="0.22"/>
<path d="M27.4038 10.9342C28.0219 7.63319 28.8461 4.12591 30.2884 1.03125C26.9917 2.0628 24.1071 3.9196 21.8406 6.18902C23.4889 8.04581 25.3433 9.6963 27.4038 10.9342Z" fill="white" fill-opacity="0.22"/>
<path d="M47.5962 10.9342C49.6566 9.6963 51.717 8.04581 53.1593 6.18902C50.6868 3.9196 47.8022 2.0628 44.7115 1.03125C46.1539 4.12591 46.978 7.63319 47.5962 10.9342Z" fill="white" fill-opacity="0.22"/>
<path d="M42.8572 12.9976C42.4451 10.3155 42.0331 7.8398 41.2089 5.7767C39.7666 1.65049 38.1182 0 37.5001 0C36.882 0 35.2336 1.65049 33.7913 5.7767C33.1732 7.8398 32.555 10.3155 32.1429 12.9976C35.6457 13.8228 39.3545 13.8228 42.8572 12.9976Z" fill="white" fill-opacity="0.22"/>
<path d="M48.2142 29.4994C51.3049 30.9436 54.1895 33.0067 56.456 35.6887C61.6071 28.0552 61.6071 17.946 56.456 10.3125C54.1895 12.7882 51.3049 15.0576 48.2142 16.5018C48.6263 20.4217 48.6263 24.9606 48.2142 29.4994Z" fill="white" fill-opacity="0.22"/>
<path d="M26.7856 29.4987C26.3735 25.3725 26.3735 20.8336 26.7856 16.2948C23.695 14.8506 20.8103 12.7875 18.5439 10.1055C13.3928 17.739 13.3928 27.8482 18.5439 35.4817C20.8103 33.006 23.695 30.9428 26.7856 29.4987Z" fill="white" fill-opacity="0.22"/>
<path d="M43.4752 27.6458C43.6813 24.3449 43.6813 21.0439 43.4752 17.9492C39.7664 18.7745 35.6455 18.9808 31.7307 17.9492C31.5247 21.2502 31.5247 24.5512 31.7307 27.6458C35.4395 26.8206 39.3543 26.8206 43.4752 27.6458Z" fill="white" fill-opacity="0.22"/>
<path d="M32.1429 32.801C32.555 35.483 33.1732 37.9588 33.7913 40.0219C35.2336 44.1481 36.882 45.7986 37.5001 45.7986C38.1182 45.7986 39.7666 44.1481 41.2089 40.0219C41.827 37.9588 42.4451 35.483 42.8572 32.801C39.3545 31.7695 35.6457 31.7695 32.1429 32.801Z" fill="white" fill-opacity="0.22"/>
<path d="M47.5962 34.6562C46.978 37.9572 46.1539 41.4645 44.7115 44.5592C48.0082 43.5276 50.8929 41.6708 53.1593 39.4014C51.717 37.5446 49.8626 35.8941 47.5962 34.6562Z" fill="white" fill-opacity="0.22"/>
<path d="M27.4038 34.6562C25.3433 35.8941 23.2829 37.5446 21.8406 39.4014C24.3131 41.6708 27.1977 43.5276 30.2884 44.5592C28.8461 41.4645 28.0219 37.9572 27.4038 34.6562Z" fill="white" fill-opacity="0.22"/>
<path d="M67.5824 9.90234H62.2253C64.2857 13.8222 65.3159 18.1548 65.3159 22.6936C65.3159 37.9606 52.7473 50.5455 37.5 50.5455C22.2527 50.5455 9.68407 38.1669 9.68407 22.8999C9.68407 18.1548 10.9203 13.8222 12.7747 10.1087H7.41758C3.2967 9.90234 0 13.2033 0 17.3295V55.7033H75V17.3295C75 13.2033 71.7033 9.90234 67.5824 9.90234Z" fill="white" fill-opacity="0.22"/>
<path d="M50.8928 80.0506H46.7719V75.5117H28.434V80.0506H24.3131C22.8708 80.0506 21.8406 81.0821 21.8406 82.5263C21.8406 83.9705 22.8708 85.002 24.3131 85.002H50.8928C52.3351 85.002 53.3653 83.9705 53.3653 82.5263C53.3653 81.2884 52.129 80.0506 50.8928 80.0506Z" fill="white" fill-opacity="0.22"/>
</svg>
