<svg width="77" height="85" viewBox="0 0 77 85" fill="none" xmlns="http://www.w3.org/2000/svg">
<path d="M37.8516 85H31.2109C27.8906 85 25.2344 82.3438 25.2344 79.0234V37.8516C25.2344 34.5313 27.8906 31.875 31.2109 31.875H37.8516C41.1719 31.875 43.8281 34.5313 43.8281 37.8516V79.0234C43.8281 82.3438 41.1719 85 37.8516 85Z" fill="white" fill-opacity="0.22"/>
<path d="M12.6172 85H5.97656C2.65625 85 0 82.3438 0 79.0234V51.1328C0 47.8125 2.65625 45.1562 5.97656 45.1562H12.6172C15.9375 45.1562 18.5938 47.8125 18.5938 51.1328V79.0234C18.5938 82.3438 15.9375 85 12.6172 85Z" fill="white" fill-opacity="0.22"/>
<path d="M63.0862 85H56.4455C53.1252 85 50.469 82.3437 50.469 79.0234V23.9062H46.9273C45.1565 23.9062 43.8284 23.0208 42.9429 21.4714C42.0575 19.9219 42.5002 18.151 43.607 16.8229L57.7737 0.885417C58.2164 0.221354 58.8804 0 59.7659 0C60.4299 0 61.3153 0.221354 61.758 0.885417L75.9247 16.8229C77.0315 18.151 77.2528 19.9219 76.5888 21.4714C75.9247 23.0208 74.3752 23.9062 72.6044 23.9062H69.0627V79.0234C69.0627 82.3437 66.4065 85 63.0862 85Z" fill="white" fill-opacity="0.22"/>
</svg>
