<svg width="77" height="79" viewBox="0 0 77 79" fill="none" xmlns="http://www.w3.org/2000/svg">
<path d="M77 76.6895L63.7323 1.41146C63.4954 0.705731 62.7846 0 62.0738 0H44.3046C43.8308 0 43.3569 0.235244 43.12 0.470488C42.8831 0.705731 42.6462 1.17622 42.6462 1.64671L43.12 19.7605H34.3538L34.8277 1.64671C34.8277 1.17622 34.5908 0.705731 34.3538 0.470488C33.88 0.235244 33.4062 0 32.9323 0H15.1631C14.2154 0 13.5046 0.705731 13.5046 1.41146L0 76.6895C0 77.16 0 77.6304 0.473846 78.1009C0.710769 78.5714 1.18462 78.8067 1.89538 78.8067H31.2738C32.2215 78.8067 32.9323 78.1009 32.9323 77.16L33.1692 58.8109H43.8308L44.3046 76.9247C44.3046 77.8657 45.0154 78.5714 45.9631 78.5714H75.3415C75.8154 78.5714 76.2892 78.3362 76.7631 77.8657C77 77.6304 77 77.16 77 76.6895ZM33.4062 52.9298L34.1169 25.8768H43.12L43.8308 52.9298H33.4062Z" fill="white" fill-opacity="0.22"/>
</svg>
