<svg width="84" height="95" viewBox="0 0 84 95" fill="none" xmlns="http://www.w3.org/2000/svg">
<g clip-path="url(#clip0)">
<path d="M38.5813 28.2822C38.5813 32.6334 35.1627 36.0176 30.7673 36.0176C26.372 36.0176 22.9534 32.6334 22.9534 28.2822C22.9534 23.9311 26.372 20.5469 30.7673 20.5469C35.1627 20.5469 38.5813 24.1728 38.5813 28.2822Z" fill="white" fill-opacity="0.22"/>
<path d="M52.7441 57.0485C52.7441 59.7075 50.5464 62.1248 47.6162 62.1248C44.9301 62.1248 42.4883 59.9492 42.4883 57.0485C42.4883 54.3894 44.686 52.2139 47.6162 52.2139C50.5464 52.2139 52.7441 54.3894 52.7441 57.0485Z" fill="white" fill-opacity="0.22"/>
<path d="M75.2092 40.8526C81.558 10.3946 56.4069 -3.62578 28.8139 0.725361C0.976645 5.07651 1.95339 21.7559 0.244086 29.733C-2.93033 49.5549 17.5813 71.7941 17.5813 71.7941L16.3604 95.0002H50.058L52.7441 84.364C52.7441 84.364 54.2092 86.7813 62.9999 87.5065C71.7906 88.2317 70.5697 77.8373 70.5697 77.8373C70.5697 77.8373 76.4301 75.42 76.4301 73.4862C76.4301 71.5523 73.0115 69.135 73.0115 69.135C73.0115 69.135 76.6743 69.8602 78.1394 68.1681C79.3604 66.7177 76.4301 61.1579 76.4301 61.1579C76.4301 61.1579 81.0697 61.1579 83.7557 58.0154C86.1976 54.8729 75.2092 46.4124 75.2092 40.8526ZM27.1046 44.962C27.1046 44.962 26.8604 43.0282 26.8604 41.8195C26.1278 41.5778 25.1511 41.336 24.4185 40.8526C23.4418 41.5778 21.7325 43.0282 21.7325 43.0282L21.2441 43.5116C20.9999 43.5116 18.0697 43.2699 18.0697 43.2699L12.9418 37.4684V34.0841C12.9418 34.0841 14.8952 32.392 15.872 31.6668C15.6278 30.9416 15.6278 29.9747 15.3836 29.2495C14.1627 28.7661 11.4766 27.5574 11.4766 27.5574L10.4999 24.6567L10.7441 24.1732L13.9185 17.163L17.3371 16.1961C17.3371 16.1961 19.5348 17.163 20.5115 17.6465C21.2441 17.163 21.9766 16.6796 22.7092 16.1961C22.7092 14.9874 22.465 12.3284 22.465 12.3284L24.9069 9.91111L32.7208 9.18592L35.1627 11.6032C35.1627 11.6032 35.4069 13.5371 35.4069 14.504C36.3836 14.7457 37.3604 15.2292 38.3371 15.4709C39.0697 14.7457 40.779 13.2953 40.779 13.2953H44.4418L49.5697 19.3386V22.9645C49.5697 22.9645 47.6162 24.6567 46.3953 25.6236C46.6394 26.3488 46.6394 27.074 46.6394 27.7992C47.8604 28.5243 50.5464 29.9747 50.5464 29.9747L51.5232 33.359L47.6162 39.8857L44.1976 40.8526C44.1976 40.8526 42.2441 39.6439 41.2673 39.1605C40.779 39.6439 40.0464 39.8857 39.558 40.3691C39.558 41.8195 39.8022 44.2368 39.8022 44.2368L37.3604 46.6541L29.5464 47.3793L27.1046 44.962ZM58.6046 64.5422L56.4069 65.0256C56.4069 65.0256 55.1859 64.3004 54.4534 63.817C53.965 64.0587 53.7208 64.3004 53.2325 64.5422C53.2325 65.5091 53.4766 67.2012 53.4766 67.2012L51.7673 68.8933L46.8836 69.3768L45.4185 67.6847C45.4185 67.6847 45.4185 66.476 45.1743 65.7508C44.6859 65.5091 44.1976 65.5091 43.7092 65.2673L41.9999 66.7177C41.9999 66.7177 41.7557 66.7177 41.7557 66.9595L39.8022 66.7177L36.3836 62.85V60.6745L38.3371 59.2241C38.0929 58.7406 38.0929 58.2572 38.0929 57.7737C37.3604 57.532 35.6511 56.5651 35.6511 56.5651L34.9185 54.6312V54.3895L36.872 49.7966L39.0697 49.3131C39.0697 49.3131 40.5348 50.0383 41.2673 50.2801C41.7557 50.0383 42.2441 49.5549 42.7325 49.3131C42.7325 48.588 42.4883 46.8958 42.4883 46.8958L44.1976 45.2037L49.0813 44.7203L50.7906 46.4124C50.7906 46.4124 50.7906 47.621 51.0348 48.3462C51.7673 48.588 52.2557 48.8297 52.9883 49.0714L54.6976 47.621H56.8952L60.0697 51.247V53.4226C60.0697 53.4226 58.8487 54.6312 58.1162 55.1147C58.1162 55.5981 58.3604 56.0816 58.3604 56.5651C59.0929 57.0485 60.8022 58.0154 60.8022 58.0154L61.2906 60.191L58.6046 64.5422Z" fill="white" fill-opacity="0.22"/>
</g>
<defs>
<clipPath id="clip0">
<rect width="84" height="95" fill="white"/>
</clipPath>
</defs>
</svg>
