<svg width="87" height="78" viewBox="0 0 87 78" fill="none" xmlns="http://www.w3.org/2000/svg">
<path d="M78.8921 66.9205C83.1384 65.3693 86.0437 61.3807 86.0437 56.9489C86.0437 51.8523 79.786 45.6477 77.7746 43.6534C76.4337 42.3239 74.1988 42.3239 72.8578 43.6534C70.8464 45.4261 64.5887 51.8523 64.5887 56.9489C64.5887 61.3807 67.494 65.5909 71.7404 66.9205V70.9091H68.1645V68.9148C63.6947 66.4773 61.0128 61.6023 61.0128 56.7273C61.0128 51.8523 64.8122 46.7557 68.1645 43.2102V3.54545C68.1645 1.55114 66.6001 0 64.5887 0H21.4551C19.4437 0 17.8792 1.55114 17.8792 3.54545V43.2102C21.2316 46.7557 25.0309 51.8523 25.0309 56.7273C25.0309 61.8239 22.349 66.4773 17.8792 68.9148V70.9091H14.3034V66.6989C18.5497 65.1477 21.4551 61.1591 21.4551 56.7273C21.4551 51.6307 15.1973 45.4261 13.1859 43.4318C11.845 42.1023 9.61008 42.1023 8.26914 43.4318C6.25773 45.2045 0 51.6307 0 56.7273C0 61.1591 2.90537 65.3693 7.15169 66.6989V70.9091H0V78H86.0437V70.9091H78.8921V66.9205ZM50.0618 10.6364H57.2135V21.2727H50.0618V10.6364ZM50.0618 28.3636H57.2135V39H50.0618V28.3636ZM50.0618 46.0909H57.2135V56.7273H50.0618V46.0909ZM39.3343 10.6364H46.486V21.2727H39.3343V10.6364ZM39.3343 28.3636H46.486V39H39.3343V28.3636ZM39.3343 46.0909H46.486V56.7273H39.3343V46.0909ZM28.6068 10.6364H35.7584V21.2727H28.6068V10.6364ZM28.6068 28.3636H35.7584V39H28.6068V28.3636ZM28.6068 46.0909H35.7584V56.7273H28.6068V46.0909ZM39.3343 70.9091V63.8182H46.486V70.9091H39.3343Z" fill="white" fill-opacity="0.22"/>
</svg>
