<svg width="85" height="85" viewBox="0 0 85 85" fill="none" xmlns="http://www.w3.org/2000/svg">
<path d="M77.6572 29.8948H7.56555V37.4801H77.6572V29.8948Z" fill="white" fill-opacity="0.22"/>
<path d="M85 77.4148H0V85.0001H85V77.4148Z" fill="white" fill-opacity="0.22"/>
<path d="M17.5786 42.3884H7.56555V60.0131H17.5786V42.3884Z" fill="white" fill-opacity="0.22"/>
<path d="M17.5786 64.9211H7.56555V72.5064H17.5786V64.9211Z" fill="white" fill-opacity="0.22"/>
<path d="M37.6048 64.9211H27.5917V72.5064H37.6048V64.9211Z" fill="white" fill-opacity="0.22"/>
<path d="M37.6048 42.3884H27.5917V60.0131H37.6048V42.3884Z" fill="white" fill-opacity="0.22"/>
<path d="M57.4085 64.9211H47.3954V72.5064H57.4085V64.9211Z" fill="white" fill-opacity="0.22"/>
<path d="M57.4085 42.3884H47.3954V60.0131H57.4085V42.3884Z" fill="white" fill-opacity="0.22"/>
<path d="M77.4346 64.9211H67.4215V72.5064H77.4346V64.9211Z" fill="white" fill-opacity="0.22"/>
<path d="M77.4346 42.3884H67.4215V60.0131H77.4346V42.3884Z" fill="white" fill-opacity="0.22"/>
<path d="M42.5 0L0 18.0709V24.7638H85V18.0709L42.5 0ZM44.9476 17.1785H40.0524V12.2703H44.9476V17.1785Z" fill="white" fill-opacity="0.22"/>
</svg>
