<svg width="98" height="85" viewBox="0 0 98 85" fill="none" xmlns="http://www.w3.org/2000/svg">
<g clip-path="url(#clip0)">
<path d="M97.7823 9.41986C97.5645 8.97131 97.129 8.74704 96.6934 8.74704C92.3378 10.0927 82.9734 10.0927 72.0845 8.07421C61.4134 6.05574 52.4845 2.9159 48.7823 0.224609C48.3467 0.224609 47.9112 0.224609 47.4756 0.448884C47.0401 0.673158 46.8223 1.12171 46.8223 1.57026L45.5156 17.4937C45.9512 17.4937 46.3867 17.2695 46.6045 17.2695C48.3467 17.2695 49.8712 17.718 51.3956 18.8394C52.9201 19.9608 53.7912 21.3064 54.4445 23.1006C55.5334 22.4278 57.0578 21.755 58.5823 21.755C61.6312 21.5307 64.2445 22.8763 64.2445 24.6705C64.2445 26.4647 61.849 28.0346 58.8001 28.0346C57.2756 28.0346 55.969 27.8104 55.0978 27.3618L57.2756 43.5096C59.6712 41.0426 63.1556 39.9212 66.6401 40.594C72.0845 41.4911 75.7867 46.4251 75.569 51.8077C75.569 51.8077 75.569 51.8077 75.569 52.032C75.569 52.032 75.569 52.032 75.3512 52.032L57.929 48.8922L59.2356 58.9845C59.4534 59.8816 59.4534 60.7787 59.4534 61.9001C60.5423 62.3486 61.6312 62.5729 62.9378 62.7972C74.6978 64.8156 86.0223 57.4146 89.0712 45.7523L98.0001 10.7655C98.2178 10.317 98.0001 9.86841 97.7823 9.41986ZM84.2801 30.7259C83.6267 32.2958 80.7956 32.7444 77.9645 31.623C75.1334 30.5017 73.3912 28.0346 74.0445 26.4647C74.6978 24.8948 77.529 24.4462 80.3601 25.5676C83.1912 26.689 84.9334 29.156 84.2801 30.7259Z" fill="white" fill-opacity="0.22"/>
<path d="M48.3467 25.5673C48.3467 25.1188 48.1289 24.6702 47.6933 24.446C47.4756 24.2217 47.04 24.2217 46.8222 24.2217C46.6044 24.2217 46.6044 24.2217 46.3867 24.2217C43.12 27.1372 34.8444 30.5014 24.6089 32.7441C17.8578 34.314 11.76 34.9868 7.18667 34.9868C4.79111 34.9868 2.83111 34.7626 1.30667 34.314C0.871111 34.314 0.435556 34.7626 0.217778 35.2111C0 35.6597 0 36.1082 0 36.5568L10.0178 69.5251C13.0667 78.9446 21.56 85.2243 30.9244 85.2243C32.4489 85.2243 33.9733 85 35.7156 84.7758C46.8222 82.3087 54.2267 71.5436 52.92 60.1056L48.3467 25.5673ZM13.5022 52.4802C13.5022 50.6861 15.8978 49.3404 18.7289 49.3404C21.56 49.3404 23.9556 50.6861 23.9556 52.4802C23.9556 54.2744 21.56 55.6201 18.7289 55.6201C15.8978 55.6201 13.5022 54.2744 13.5022 52.4802ZM33.32 74.4591C28.5289 75.5805 23.7378 72.8892 21.7778 68.4037C21.7778 68.1795 21.7778 67.9552 21.7778 67.9552C21.7778 67.7309 21.9956 67.7309 22.2133 67.7309L40.7244 63.4697C40.9422 63.4697 41.16 63.4697 41.16 63.694C41.3778 63.9182 41.3778 63.9182 41.3778 64.1425C41.5956 68.8523 38.3289 73.3378 33.32 74.4591ZM38.9822 50.9103C36.3689 52.0317 33.5378 51.8074 32.8844 50.4618C32.2311 48.8919 33.7556 46.6491 36.3689 45.3035C38.9822 43.9578 41.8133 44.4064 42.4667 45.752C43.3378 47.5462 41.8133 49.789 38.9822 50.9103Z" fill="white" fill-opacity="0.22"/>
</g>
<defs>
<clipPath id="clip0">
<rect width="98" height="85" fill="white"/>
</clipPath>
</defs>
</svg>
