<svg width="98" height="85" viewBox="0 0 98 85" fill="none" xmlns="http://www.w3.org/2000/svg">
<path d="M28.1875 49.197C31.0063 49.197 33.5688 48.9395 36.1313 48.6819V21.894C33.5688 21.6364 31.0063 21.3788 28.1875 21.3788C12.8125 21.3788 0 27.0455 0 34.0001V36.8334C0 43.5304 12.5563 49.197 28.1875 49.197Z" fill="white" fill-opacity="0.22"/>
<path d="M28.1875 63.3638C31.0062 63.3638 33.5687 63.1062 36.1312 62.8486V54.8638C33.5687 55.1214 31.0062 55.379 28.1875 55.379C14.6062 55.379 3.33118 51.0002 0.768673 45.3335C0.256173 46.1062 0.256173 47.1365 0.256173 47.9093V50.7426C-7.73966e-05 57.6971 12.5562 63.3638 28.1875 63.3638Z" fill="white" fill-opacity="0.22"/>
<path d="M35.875 69.5456V69.0304C33.3125 69.288 30.75 69.5456 27.9313 69.5456C14.35 69.5456 3.075 65.1668 0.512501 59.5001C0 60.2728 0 61.3032 0 62.0759V64.9092C0 71.6062 12.5563 77.2728 28.1875 77.2728C31.2625 77.2728 34.3375 77.0153 37.1563 76.5001C36.3875 75.2122 36.1313 73.6668 36.1313 72.1213L35.875 69.5456Z" fill="white" fill-opacity="0.22"/>
<path d="M68.6752 0C53.0439 0 40.4877 5.66667 40.4877 12.6212V15.4545C40.4877 22.4091 53.0439 28.0758 68.6752 28.0758C84.3065 28.0758 96.8627 22.4091 96.8627 15.4545V12.6212C96.6065 5.66667 84.0502 0 68.6752 0Z" fill="white" fill-opacity="0.22"/>
<path d="M68.6751 34C55.0938 34 43.8188 29.6213 41.2563 23.9546C40.7438 24.7273 40.7438 25.7576 40.7438 26.5303V29.3637C40.7438 36.3182 53.3 41.9849 68.9313 41.9849C84.5626 41.9849 97.1188 36.3182 97.1188 29.3637V26.5303C97.1188 25.7576 96.8626 24.7273 96.6063 23.9546C93.5313 29.8788 82.2563 34 68.6751 34Z" fill="white" fill-opacity="0.22"/>
<path d="M68.6751 48.1667C55.0938 48.1667 43.8188 43.7879 41.2563 38.1212C40.7438 38.8939 40.7438 39.9242 40.7438 40.697V43.5303C40.7438 50.4849 53.3 56.1515 68.9313 56.1515C84.5626 56.1515 97.1188 50.4849 97.1188 43.5303V40.697C97.1188 39.9242 96.8626 38.8939 96.6063 38.1212C93.5313 43.7879 82.2563 48.1667 68.6751 48.1667Z" fill="white" fill-opacity="0.22"/>
<path d="M68.6751 62.8485C55.0938 62.8485 43.8188 58.4697 41.2563 52.803C40.7438 53.5758 40.7438 54.6061 40.7438 55.3788V58.2121C40.7438 65.1667 53.3 70.8333 68.9313 70.8333C84.5626 70.8333 97.1188 65.1667 97.1188 58.2121V55.3788C97.1188 54.6061 96.8626 53.5758 96.6063 52.803C93.5313 58.7273 82.2563 62.8485 68.6751 62.8485Z" fill="white" fill-opacity="0.22"/>
<path d="M68.6751 77.0151C55.0938 77.0151 43.8188 72.6363 41.2563 66.9697C40.7438 67.7424 40.7438 68.7727 40.7438 69.5454V72.3788C40.7438 79.3333 53.3 85 68.9313 85C84.5626 85 97.1188 79.3333 97.1188 72.3788V69.5454C97.1188 68.7727 96.8626 67.7424 96.6063 66.9697C93.5313 72.6363 82.2563 77.0151 68.6751 77.0151Z" fill="white" fill-opacity="0.22"/>
</svg>
