<svg width="85" height="86" viewBox="0 0 85 86" fill="none" xmlns="http://www.w3.org/2000/svg">
<path d="M47.1974 63.7515L64.6447 46.3042C57.9342 42.2779 50.329 40.041 42.5 40.041C39.8158 40.041 36.9079 40.2647 34.2237 40.9357V53.6857C34.2237 55.6989 33.329 57.712 31.9869 59.2778L23.9343 67.1068C22.8159 68.2252 22.8159 70.0146 23.9343 71.1331L37.8027 85.0015H57.4868L47.1974 74.712C44.0658 71.5804 44.0658 66.6594 47.1974 63.7515Z" fill="white" fill-opacity="0.22"/>
<path d="M20.5789 63.7481L28.6315 55.6955C29.0789 55.2481 29.5263 54.3534 29.5263 53.6823V42.0508C13.8684 47.1955 0 61.9586 0 82.5375C0 83.8797 1.11842 84.9981 2.46052 84.9981H30.8684L20.5789 74.7086C17.4473 71.8007 17.4473 66.656 20.5789 63.7481Z" fill="white" fill-opacity="0.22"/>
<path d="M34.4473 26.3947H40.0394V35.1183C40.9341 35.1183 41.6052 35.1183 42.4999 35.1183C43.3946 35.1183 44.0657 35.1183 44.9604 35.1183V26.3947H50.5525C63.7499 26.3947 74.4867 15.6579 74.4867 2.46052C74.4867 1.11842 73.3683 0 72.0262 0H63.9735C54.5788 0 46.5262 5.36841 42.7236 13.1973C38.6973 5.36841 30.421 0 21.25 0H13.1973C11.8552 0 10.7368 1.11842 10.7368 2.46052C10.7368 15.6579 21.4736 26.3947 34.4473 26.3947Z" fill="white" fill-opacity="0.22"/>
<path d="M68.8946 49.2109L50.7762 67.1056C49.6578 68.2241 49.6578 70.0135 50.7762 71.1319L64.6446 85.0003H82.5393C83.8814 85.0003 84.9998 83.8819 84.9998 82.5398C84.9998 69.5662 78.9603 57.2636 68.8946 49.2109Z" fill="white" fill-opacity="0.22"/>
</svg>
