<svg width="101" height="85" viewBox="0 0 101 85" fill="none" xmlns="http://www.w3.org/2000/svg">
<path d="M14.6184 45.8174H22.3263C21.5289 47.9484 21.2632 50.3459 21.2632 52.7433V81.7788C21.2632 82.8443 21.2632 83.9098 21.7947 84.7089H8.77105C3.98684 84.7089 0 80.7132 0 76.1848V60.2019C0 52.2105 6.64474 45.8174 14.6184 45.8174Z" fill="white" fill-opacity="0.22"/>
<path d="M80.0028 81.7788V52.7433C80.0028 50.3459 79.4712 47.9484 78.6738 45.8174H86.3817C94.3554 45.8174 101 52.2105 101 60.2019V76.1848C101 80.9796 97.0133 84.7089 92.2291 84.7089H79.2054C79.737 83.9098 80.0028 82.8443 80.0028 81.7788Z" fill="white" fill-opacity="0.22"/>
<path d="M71.2314 84.7086H30.034C28.4393 84.7086 27.1104 83.3767 27.1104 81.7784V52.7429C27.1104 44.7515 33.7551 38.3584 41.7288 38.3584H59.5367C67.5104 38.3584 74.1551 44.7515 74.1551 52.7429V81.7784C74.1551 83.3767 72.8261 84.7086 71.2314 84.7086Z" fill="white" fill-opacity="0.22"/>
<path d="M41.9949 32.4984C36.6791 29.5682 32.958 23.9742 32.958 17.3147C32.958 7.72503 40.9317 0 50.5001 0C60.0685 0 68.0422 7.72503 68.0422 17.3147C68.0422 23.7079 64.3212 29.3019 59.0054 32.4984C56.3475 33.8303 53.4238 34.6295 50.5001 34.6295C47.5764 34.8958 44.387 34.0967 41.9949 32.4984Z" fill="white" fill-opacity="0.22"/>
<path d="M69.9024 35.4287C68.8392 33.5641 68.3076 31.433 68.3076 29.302C68.3076 22.1097 74.155 16.2493 81.3313 16.2493C88.5076 16.2493 94.355 22.1097 94.355 29.302C94.355 36.4942 88.5076 42.3546 81.3313 42.3546C79.4708 42.3546 77.6103 42.0882 76.2813 41.2891C73.3576 39.9572 71.2313 37.8262 69.9024 35.4287Z" fill="white" fill-opacity="0.22"/>
<path d="M24.9848 41.2891C23.3901 42.0882 21.5296 42.3546 19.9348 42.3546C12.7585 42.3546 6.91113 36.4942 6.91113 29.302C6.91113 22.1097 12.4927 16.2493 19.669 16.2493C26.8453 16.2493 32.6927 22.1097 32.6927 29.302C32.6927 31.433 32.1611 33.5641 31.098 35.4287C30.0348 37.8262 27.6427 39.9572 24.9848 41.2891Z" fill="white" fill-opacity="0.22"/>
</svg>
