<svg width="91" height="85" viewBox="0 0 91 85" fill="none" xmlns="http://www.w3.org/2000/svg">
<path d="M88.7264 17.4626L88.5126 17.2522C86.3746 15.1483 82.9538 15.1483 81.0296 17.2522L72.6915 25.2473C72.2639 25.6681 71.6225 25.6681 71.1949 25.2473L59.8636 14.9379C58.7946 13.8859 57.298 13.4651 55.8014 13.4651H38.9113C38.4837 13.4651 38.0561 13.6755 37.8423 13.8859L23.5178 27.1409C21.3799 29.2448 21.166 32.6112 23.304 34.5047C24.373 35.5567 25.6558 36.1879 27.1524 36.1879C28.649 36.1879 30.1456 35.5567 31.0008 34.5047L41.0493 23.9849H44.6839L20.9523 49.8637H6.41395C2.99318 49.8637 0.213799 52.3884 0 55.5444C0 57.2276 0.427597 58.9107 1.71039 59.9627C2.77938 61.2251 4.48977 61.8563 6.20016 61.8563H28.0076C28.4352 61.8563 28.8628 61.6459 29.0766 61.4355L40.1941 49.8637L49.6013 59.5419L46.8219 77.2152C46.1805 80.1608 47.4633 83.1063 50.2426 84.3687C51.0978 84.7895 51.953 84.9999 52.8082 84.9999C53.6634 84.9999 54.7324 84.7895 55.5876 84.3687C57.298 83.5271 58.367 82.0544 58.7946 80.1608L63.712 54.7028C63.712 54.282 63.712 53.6508 63.2844 53.4404L50.4564 40.8166L60.7188 30.7176L67.7741 37.6607C69.6983 39.5543 73.3329 39.5543 75.2571 37.6607L88.7264 24.6161C89.7954 23.5641 90.223 22.3017 90.223 21.0394C90.223 19.777 89.5816 18.5146 88.7264 17.4626Z" fill="white" fill-opacity="0.22"/>
<path d="M71.4087 18.0941C76.5399 18.0941 80.8159 14.0966 80.8159 9.04705C80.8159 3.99753 76.5399 0 71.4087 0C66.2776 0 62.0016 3.99753 62.0016 9.04705C62.2154 13.8862 66.2776 18.0941 71.4087 18.0941Z" fill="white" fill-opacity="0.22"/>
</svg>
