<svg width="82" height="82" viewBox="0 0 82 82" fill="none" xmlns="http://www.w3.org/2000/svg">
<g clip-path="url(#clip0)">
<path d="M80 17.1111L28.8889 0.222222L28.4444 0H20.6667L1.55556 17.1111H0V30H11.1111V17.1111H8.66667L22.4444 4.88889V13.1111H14.4444V29.1111H35.3333V13.1111H27.3333V4.88889H27.5556L64.6667 17.1111H38.4444V26.6667H82V17.1111H80Z" fill="white" fill-opacity="0.22"/>
<path d="M81.9999 61.5547H42.2222V71.1102H81.9999V61.5547Z" fill="white" fill-opacity="0.22"/>
<path d="M56.6666 58.2218L62.2222 53.9996L67.7777 58.2218H75.5555L66.4444 51.3329C68 49.9996 69.1111 47.9996 69.1111 45.7773H64.2222C64.2222 46.8885 63.3333 47.9996 62 47.9996C60.6666 47.9996 59.7777 47.1107 59.7777 45.7773C59.7777 44.6662 60.6666 43.5551 62 43.5551H64.4444V37.7773H64.6666L69.3333 33.1107V29.7773H54.8889V33.3329L59.5555 37.9996H59.7777V39.3329C57.1111 40.2218 55.1111 42.8885 55.1111 45.7773C55.1111 47.9996 56.2222 49.9996 57.7777 51.3329L48.6666 58.2218H56.6666Z" fill="white" fill-opacity="0.22"/>
<path d="M19.3333 41.7778V34H14.4445V82H35.3333V34H27.1111L19.3333 41.7778ZM19.3333 50H27.1111L19.3333 57.7778V50ZM19.3333 66H27.1111L19.3333 73.7778V66ZM30.4445 77.1111H22.6667L30.4445 69.3333V77.1111ZM30.4445 61.1111H22.6667L30.4445 53.3333V61.1111ZM30.4445 45.1111H22.6667L30.4445 37.3333V45.1111Z" fill="white" fill-opacity="0.22"/>
</g>
<defs>
<clipPath id="clip0">
<rect width="82" height="82" fill="white"/>
</clipPath>
</defs>
</svg>
