<svg width="85" height="85" viewBox="0 0 85 85" fill="none" xmlns="http://www.w3.org/2000/svg">
<path d="M63.2053 26.5898C63.2053 27.8975 62.1155 28.9873 60.8078 28.9873C59.5001 28.9873 58.4104 27.8975 58.4104 26.5898C58.4104 25.2821 59.5001 24.1924 60.8078 24.1924C62.1155 24.1924 63.2053 25.2821 63.2053 26.5898Z" fill="white" fill-opacity="0.22"/>
<path d="M69.0899 5.01269C69.0899 6.32038 68.0002 7.41012 66.6925 7.41012C65.3848 7.41012 64.295 6.32038 64.295 5.01269C64.295 3.70499 65.3848 2.61525 66.6925 2.61525C68.0002 2.3973 69.0899 3.70499 69.0899 5.01269Z" fill="white" fill-opacity="0.22"/>
<path d="M26.8078 26.5898C26.8078 27.8975 25.7181 28.9873 24.4104 28.9873C23.1027 28.9873 22.0129 27.8975 22.0129 26.5898C22.0129 25.2821 23.1027 24.1924 24.4104 24.1924C25.7181 24.1924 26.8078 25.2821 26.8078 26.5898Z" fill="white" fill-opacity="0.22"/>
<path d="M20.9231 5.01316C20.9231 6.32085 19.8334 7.4106 18.5257 7.4106C17.218 7.4106 15.9103 6.32085 15.9103 5.01316C15.9103 3.70547 17 2.61572 18.3077 2.61572C19.6154 2.61572 20.9231 3.70547 20.9231 5.01316Z" fill="white" fill-opacity="0.22"/>
<path d="M80.2051 6.97412C76.0641 6.97412 72.5769 10.0254 71.7051 13.9485L68.6538 31.3844C70.8333 31.8203 72.7949 32.91 74.3205 34.4357C78.6795 38.7947 78.6795 45.987 74.3205 50.3459L62.7692 61.8972C61.8974 62.769 60.1538 62.769 59.282 61.8972C58.4102 61.0254 58.4102 59.2818 59.282 58.41L70.8333 46.8588C73.2308 44.4613 73.2308 40.5382 70.8333 38.1408C69.9615 37.269 68.8718 36.8331 67.782 36.3972C65.8205 35.9613 63.641 36.3972 61.8974 38.1408L49.6923 50.3459C46.641 53.3972 45.1154 57.3203 45.1154 61.4613V82.6024C45.1154 83.9101 46.2051 84.9998 47.5128 84.9998H69.0897C70.3974 84.9998 71.4872 83.9101 71.4872 82.6024V64.7306L81.0769 55.1408C83.4744 52.7434 84.7821 49.6921 84.7821 46.4229V11.769C85 9.15361 82.8205 6.97412 80.2051 6.97412Z" fill="white" fill-opacity="0.22"/>
<path d="M35.3077 50.3459L23.1026 38.1408C21.5769 36.6152 19.3974 35.9613 17.218 36.3972C16.1282 36.6152 15.0385 37.269 14.1667 38.1408C11.7692 40.5382 11.7692 44.4613 14.1667 46.8588L25.718 58.41C26.5898 59.2818 26.5898 61.0254 25.718 61.8972C24.8462 62.769 23.1026 62.769 22.2308 61.8972L10.6795 50.3459C6.32052 45.987 6.32052 38.7947 10.6795 34.4357C12.2051 32.91 14.1667 31.8203 16.3462 31.3844L13.2949 13.9485C12.641 10.0254 9.15385 6.97412 4.79488 6.97412C2.17949 6.97412 0 9.15361 0 11.769V46.2049C0 49.4742 1.30769 52.7434 3.70513 54.9229L13.2949 64.5126V82.3844C13.2949 83.6921 14.3846 84.7819 15.6923 84.7819H37.2693C38.577 84.7819 39.6667 83.6921 39.6667 82.3844V61.2434C39.8846 57.3203 38.1411 53.3972 35.3077 50.3459Z" fill="white" fill-opacity="0.22"/>
<path d="M52.7437 36.6154C52.3078 36.6154 51.8719 36.6154 51.654 36.3975L42.5001 31.6026L33.3463 36.3975C32.4745 36.8334 31.3847 36.8334 30.7309 36.1795C29.8591 35.5257 29.6411 34.6539 29.6411 33.7821L31.3847 23.5385L23.9745 16.3462C23.3206 15.6923 23.1027 14.6026 23.3206 13.7308C23.5386 12.859 24.4104 12.2051 25.2822 11.9872L35.5258 10.4615L40.1027 1.30769C40.5386 0.435898 41.4104 0 42.2822 0C43.154 0 44.0258 0.435898 44.4617 1.30769L49.0386 10.4615L59.2822 11.9872C60.154 12.2051 61.0258 12.859 61.2437 13.7308C61.4617 14.6026 61.2437 15.6923 60.5899 16.3462L53.1796 23.5385L54.9232 33.7821C55.1412 34.6539 54.7053 35.7436 53.8335 36.1795C53.8335 36.3975 53.3976 36.6154 52.7437 36.6154Z" fill="white" fill-opacity="0.22"/>
<path d="M45.1153 41.6284C45.1153 42.9361 44.0256 44.0258 42.7179 44.0258C41.4102 44.0258 40.3204 42.9361 40.3204 41.6284C40.3204 40.3207 41.4102 39.231 42.7179 39.231C44.0256 39.231 45.1153 40.1028 45.1153 41.6284Z" fill="white" fill-opacity="0.22"/>
</svg>
