<svg width="92" height="85" viewBox="0 0 92 85" fill="none" xmlns="http://www.w3.org/2000/svg">
<path d="M24.7493 58.7203C23.5633 57.3293 21.1911 57.3293 19.8074 58.3228L16.4469 61.7009C15.6562 62.4958 15.2609 63.2907 15.2609 64.4829C15.2609 66.4701 17.04 68.2585 19.0167 68.2585C20.2028 68.2585 21.1911 67.6623 21.9819 66.8675L24.5516 64.2842C25.1447 63.6881 25.3423 63.0919 25.54 62.2971C25.9354 60.9061 25.7377 59.5151 24.7493 58.7203Z" fill="white" fill-opacity="0.22"/>
<path d="M15.6562 47.5921C14.2725 46.2011 11.7027 46.2011 10.3189 47.5921C9.92358 47.7908 7.74915 49.9766 7.35379 50.374C3.9933 54.1496 9.13288 59.1174 12.8887 55.7393C12.8887 55.7393 15.4585 53.156 15.6562 52.9573C17.0399 51.3676 17.0399 48.9831 15.6562 47.5921Z" fill="white" fill-opacity="0.22"/>
<path d="M32.4587 67.2646C31.4703 67.2646 30.482 67.6621 29.6913 68.4569L26.9238 71.2389C25.5401 72.6299 25.5401 75.2132 26.9238 76.6041C28.3075 77.9951 30.8773 77.9951 32.261 76.6041L35.0285 73.8222C37.5983 71.4376 35.8192 67.2646 32.4587 67.2646Z" fill="white" fill-opacity="0.22"/>
<path d="M57.959 25.1377C52.0287 28.9133 44.3193 28.1184 39.1797 22.9519L32.4587 16.3943L40.7611 8.0484C31.8657 -1.88724 16.2493 -2.68209 6.76085 7.05484C-2.7276 16.3943 -2.13457 32.0927 7.94691 41.0347C15.2609 37.0605 24.1563 42.6244 23.5633 50.9704C28.3075 51.5665 32.4587 55.9382 32.6564 60.7073C37.203 60.7073 41.5518 64.0854 42.7379 68.4571C46.4937 67.4635 50.6449 68.6558 53.2147 71.6365C56.9706 73.8224 60.9241 69.252 58.1566 65.8738L43.1332 50.7717C44.3193 49.5794 46.6914 47.1948 47.8775 46.0026L62.7032 60.906C66.459 64.2841 71.4009 59.3163 68.0404 55.5408L53.2147 40.6373C54.4008 39.445 56.7729 37.0605 57.959 35.8682C61.3194 39.2463 69.4242 47.3935 72.7847 50.7717C74.1684 52.1627 76.7382 52.1627 78.1219 50.7717C79.5057 49.3807 79.5057 46.7974 78.1219 45.4064L57.959 25.1377Z" fill="white" fill-opacity="0.22"/>
<path d="M84.2499 6.85559C75.1568 -2.2852 60.5288 -2.2852 51.4357 6.85559C49.459 8.64401 43.5287 14.6054 41.9473 16.3938L43.924 18.3809C47.2845 21.7591 52.6218 21.7591 55.7846 18.3809L58.1567 15.9964C59.3428 17.1887 82.4709 40.2394 83.0639 41.0342C93.1454 32.0921 93.7384 16.3938 84.2499 6.85559Z" fill="white" fill-opacity="0.22"/>
<path d="M47.8774 75.8098C46.4937 74.4189 43.9239 74.4189 42.5401 75.8098L39.7727 78.5918C38.3889 79.9828 38.3889 82.5661 39.7727 83.9571C41.1564 85.3481 43.7262 85.3481 45.1099 83.9571L47.8774 81.1751C49.4588 79.7841 49.4588 77.3995 47.8774 75.8098Z" fill="white" fill-opacity="0.22"/>
</svg>
