<svg width="83" height="89" viewBox="0 0 83 89" fill="none" xmlns="http://www.w3.org/2000/svg">
<g clip-path="url(#clip0)">
<path d="M59.7117 27.5739L52.3472 15.2543C51.9491 14.6676 51.352 14.2765 50.7549 14.081C50.1578 13.8854 49.3616 14.081 48.7645 14.2765L26.2729 27.3783L59.7117 27.5739Z" fill="white" fill-opacity="0.22"/>
<path d="M10.3501 30.8987C8.35969 30.8987 6.96641 29.3343 6.96641 27.5743C6.96641 25.8144 8.55873 24.25 10.3501 24.25H21.8944L33.4388 17.4058H10.3501C5.17505 17.4058 0.995201 21.1212 0.19904 25.8144C0.19904 26.0099 0 26.401 0 26.5966V78.4171C0 84.0881 4.57793 88.5857 10.3501 88.5857H69.067C72.8487 88.5857 76.0334 85.4569 76.0334 81.7415V74.8972H67.4746C58.9159 74.8972 51.9495 68.053 51.9495 59.6444C51.9495 51.2358 58.9159 44.3916 67.4746 44.3916H76.0334V37.5473C76.0334 33.8319 72.8487 30.7031 69.067 30.7031H10.3501V30.8987ZM65.6833 24.0544C65.6833 20.5345 63.0958 17.7969 59.7121 17.4058L65.6833 27.5743V24.0544Z" fill="white" fill-opacity="0.22"/>
<path d="M80.4127 49.4756H67.4751C61.7029 49.4756 57.125 53.9732 57.125 59.6441C57.125 65.3151 61.7029 69.8127 67.4751 69.8127H80.4127C81.806 69.8127 83.0002 68.6394 83.0002 67.2706V52.0177C83.0002 50.6489 81.806 49.4756 80.4127 49.4756ZM67.276 63.164C65.2856 63.164 63.8924 61.5996 63.8924 59.8397C63.8924 57.8842 65.4847 56.5154 67.276 56.5154C69.0674 56.5154 70.6597 58.0798 70.6597 59.8397C70.8588 61.5996 69.2665 63.164 67.276 63.164Z" fill="white" fill-opacity="0.22"/>
</g>
<defs>
<clipPath id="clip0">
<rect width="83" height="89" fill="white"/>
</clipPath>
</defs>
</svg>
