<svg width="406" height="48" viewBox="0 0 406 48" fill="none" xmlns="http://www.w3.org/2000/svg">
<path d="M20 45L5 24L20 3" stroke="white" stroke-width="7"/>
<line x1="65" y1="24" x2="8" y2="24" stroke="white" stroke-width="6"/>
<path d="M127.405 32H124.5V20.2422H111.34V32H108.435V7.01465H111.34V17.6445H124.5V7.01465H127.405V32ZM145.366 32L144.802 29.334H144.666C143.731 30.5075 142.797 31.305 141.863 31.7266C140.94 32.1367 139.784 32.3418 138.394 32.3418C136.536 32.3418 135.078 31.8633 134.019 30.9062C132.97 29.9492 132.446 28.5877 132.446 26.8218C132.446 23.0392 135.471 21.0568 141.521 20.8745L144.7 20.772V19.6099C144.7 18.1401 144.381 17.0578 143.743 16.3628C143.116 15.6564 142.108 15.3032 140.718 15.3032C139.157 15.3032 137.391 15.7817 135.42 16.7388L134.548 14.5684C135.471 14.0671 136.479 13.674 137.573 13.3892C138.678 13.1043 139.784 12.9619 140.889 12.9619C143.122 12.9619 144.774 13.4575 145.845 14.4487C146.927 15.4399 147.468 17.0293 147.468 19.2168V32H145.366ZM138.958 30.0005C140.723 30.0005 142.108 29.5163 143.11 28.5479C144.124 27.5794 144.631 26.2236 144.631 24.4805V22.7886L141.794 22.9082C139.539 22.988 137.909 23.3411 136.907 23.9678C135.916 24.583 135.42 25.5457 135.42 26.856C135.42 27.8813 135.728 28.6618 136.343 29.1973C136.969 29.7327 137.841 30.0005 138.958 30.0005ZM156.902 21.0454C160.445 21.0454 162.217 20.0656 162.217 18.106C162.217 16.2603 160.781 15.3374 157.91 15.3374C157.033 15.3374 156.235 15.4172 155.518 15.5767C154.8 15.7362 153.86 16.0552 152.698 16.5337L151.689 14.2266C153.626 13.3607 155.74 12.9277 158.03 12.9277C160.183 12.9277 161.881 13.3721 163.123 14.2607C164.364 15.138 164.985 16.34 164.985 17.8667C164.985 19.9631 163.818 21.3359 161.482 21.9854V22.1221C162.917 22.5436 163.966 23.1475 164.626 23.9336C165.287 24.7083 165.618 25.6825 165.618 26.856C165.618 28.5877 164.917 29.9378 163.516 30.9062C162.126 31.8633 160.2 32.3418 157.739 32.3418C155.039 32.3418 152.954 31.9373 151.484 31.1284V28.5308C153.569 29.5106 155.677 30.0005 157.808 30.0005C159.448 30.0005 160.684 29.7214 161.516 29.1631C162.359 28.5934 162.781 27.7788 162.781 26.7192C162.781 24.5431 161.009 23.4551 157.466 23.4551H154.868V21.0454H156.902ZM181.768 32L181.204 29.334H181.067C180.133 30.5075 179.198 31.305 178.264 31.7266C177.341 32.1367 176.185 32.3418 174.795 32.3418C172.938 32.3418 171.479 31.8633 170.42 30.9062C169.372 29.9492 168.848 28.5877 168.848 26.8218C168.848 23.0392 171.873 21.0568 177.922 20.8745L181.101 20.772V19.6099C181.101 18.1401 180.782 17.0578 180.144 16.3628C179.517 15.6564 178.509 15.3032 177.119 15.3032C175.558 15.3032 173.792 15.7817 171.821 16.7388L170.95 14.5684C171.873 14.0671 172.881 13.674 173.975 13.3892C175.08 13.1043 176.185 12.9619 177.29 12.9619C179.523 12.9619 181.175 13.4575 182.246 14.4487C183.328 15.4399 183.87 17.0293 183.87 19.2168V32H181.768ZM175.359 30.0005C177.125 30.0005 178.509 29.5163 179.512 28.5479C180.526 27.5794 181.033 26.2236 181.033 24.4805V22.7886L178.196 22.9082C175.94 22.988 174.311 23.3411 173.308 23.9678C172.317 24.583 171.821 25.5457 171.821 26.856C171.821 27.8813 172.129 28.6618 172.744 29.1973C173.371 29.7327 174.242 30.0005 175.359 30.0005ZM206.001 38.4771H203.25V32H190.159V38.4771H187.424V29.5562H188.894C190.421 27.4826 191.617 25.0501 192.483 22.2588C193.349 19.4674 193.799 16.471 193.833 13.2695H203.318V29.5562H206.001V38.4771ZM200.583 29.5562V15.5083H196.379C196.231 18.0376 195.741 20.6011 194.91 23.1987C194.089 25.785 193.064 27.9041 191.833 29.5562H200.583ZM229.773 13.2695H232.883L224.8 22.3101L233.55 32H230.234L221.689 22.5151V32H218.853V13.2695H221.689V22.3784L229.773 13.2695ZM262.397 38.4771H259.646V32H246.555V38.4771H243.821V29.5562H245.291C246.817 27.4826 248.014 25.0501 248.879 22.2588C249.745 19.4674 250.195 16.471 250.229 13.2695H259.714V29.5562H262.397V38.4771ZM256.98 29.5562V15.5083H252.776C252.628 18.0376 252.138 20.6011 251.306 23.1987C250.486 25.785 249.46 27.9041 248.23 29.5562H256.98ZM277.676 32L277.112 29.334H276.975C276.041 30.5075 275.107 31.305 274.172 31.7266C273.25 32.1367 272.093 32.3418 270.703 32.3418C268.846 32.3418 267.388 31.8633 266.328 30.9062C265.28 29.9492 264.756 28.5877 264.756 26.8218C264.756 23.0392 267.781 21.0568 273.831 20.8745L277.009 20.772V19.6099C277.009 18.1401 276.69 17.0578 276.052 16.3628C275.426 15.6564 274.417 15.3032 273.027 15.3032C271.466 15.3032 269.701 15.7817 267.729 16.7388L266.858 14.5684C267.781 14.0671 268.789 13.674 269.883 13.3892C270.988 13.1043 272.093 12.9619 273.198 12.9619C275.431 12.9619 277.083 13.4575 278.154 14.4487C279.237 15.4399 279.778 17.0293 279.778 19.2168V32H277.676ZM271.267 30.0005C273.033 30.0005 274.417 29.5163 275.42 28.5479C276.434 27.5794 276.941 26.2236 276.941 24.4805V22.7886L274.104 22.9082C271.848 22.988 270.219 23.3411 269.216 23.9678C268.225 24.583 267.729 25.5457 267.729 26.856C267.729 27.8813 268.037 28.6618 268.652 29.1973C269.279 29.7327 270.151 30.0005 271.267 30.0005ZM288.477 13.2695V21.1138H298.97V13.2695H301.807V32H298.97V23.5576H288.477V32H285.64V13.2695H288.477ZM310.659 13.2695V21.1138H321.152V13.2695H323.989V32H321.152V23.5576H310.659V32H307.822V13.2695H310.659ZM332.842 21.0112H337.952C340.333 21.0112 342.093 21.4556 343.232 22.3442C344.383 23.2215 344.958 24.5374 344.958 26.292C344.958 28.1719 344.349 29.596 343.13 30.5645C341.922 31.5215 340.139 32 337.781 32H330.005V13.2695H332.842V21.0112ZM350.94 32H348.103V13.2695H350.94V32ZM332.842 23.4551V29.6245H337.644C340.652 29.6245 342.156 28.5706 342.156 26.4629C342.156 25.4147 341.808 24.6514 341.113 24.1729C340.418 23.6943 339.233 23.4551 337.559 23.4551H332.842ZM366.697 29.2656L367.227 27.6763L367.961 25.6597L373.037 13.3037H376.643V32H374.131V16.5337L373.789 17.5249L372.798 20.1396L367.961 32H365.586L360.75 20.1055C360.146 18.5788 359.73 17.3882 359.502 16.5337V32H356.973V13.3037H360.442L365.347 25.1812C365.837 26.4344 366.287 27.7959 366.697 29.2656Z" fill="white"/>
<path d="M105 35.5034H379.685V37.2466H105V35.5034Z" fill="white"/>
</svg>
