<svg width="634" height="128" viewBox="0 0 634 128" fill="none" xmlns="http://www.w3.org/2000/svg">
<path d="M180.928 36.1592C178.581 36.1592 176.736 36.9909 175.391 38.6543C174.047 40.3177 173.375 42.6134 173.375 45.5415C173.375 48.6063 174.018 50.9248 175.306 52.4971C176.604 54.0693 178.479 54.8555 180.928 54.8555C181.988 54.8555 183.013 54.7529 184.004 54.5479C184.996 54.3314 186.027 54.0579 187.098 53.7275V57.231C185.138 57.9715 182.916 58.3418 180.433 58.3418C176.775 58.3418 173.967 57.2367 172.007 55.0264C170.048 52.8047 169.068 49.6317 169.068 45.5073C169.068 42.9097 169.541 40.6367 170.486 38.6885C171.443 36.7402 172.822 35.2477 174.622 34.2109C176.422 33.1742 178.536 32.6558 180.962 32.6558C183.514 32.6558 185.873 33.1912 188.038 34.2622L186.568 37.6631C185.725 37.2643 184.83 36.9168 183.885 36.6206C182.951 36.313 181.965 36.1592 180.928 36.1592ZM208.58 39.0986V58H204.546V42.2773H196.07V58H192.054V39.0986H208.58ZM218.184 39.0986V48.7886C218.184 49.9165 218.093 51.5742 217.911 53.7617L227.396 39.0986H232.3V58H228.438V48.481C228.438 47.9569 228.466 47.1081 228.523 45.9346C228.592 44.7611 228.649 43.9066 228.694 43.3711L219.244 58H214.339V39.0986H218.184ZM245.647 58.3418C242.788 58.3418 240.612 57.5101 239.119 55.8467C237.638 54.1719 236.897 51.7736 236.897 48.6519C236.897 45.4731 237.672 43.0293 239.222 41.3203C240.783 39.6113 243.033 38.7568 245.972 38.7568C247.966 38.7568 249.76 39.1271 251.355 39.8677L250.142 43.0977C248.444 42.4368 247.043 42.1064 245.938 42.1064C242.668 42.1064 241.033 44.2769 241.033 48.6177C241.033 50.7368 241.438 52.3319 242.247 53.4028C243.067 54.4624 244.263 54.9922 245.835 54.9922C247.624 54.9922 249.316 54.5479 250.911 53.6592V57.1626C250.193 57.5841 249.424 57.8861 248.604 58.0684C247.795 58.2507 246.81 58.3418 245.647 58.3418ZM272.12 48.5151C272.12 51.6027 271.328 54.0124 269.744 55.7441C268.16 57.4759 265.956 58.3418 263.13 58.3418C261.364 58.3418 259.804 57.943 258.448 57.1455C257.092 56.348 256.049 55.203 255.32 53.7104C254.591 52.2179 254.227 50.4862 254.227 48.5151C254.227 45.4504 255.013 43.0578 256.585 41.3374C258.157 39.617 260.373 38.7568 263.233 38.7568C265.967 38.7568 268.132 39.6398 269.727 41.4058C271.322 43.1603 272.12 45.5301 272.12 48.5151ZM258.362 48.5151C258.362 52.8787 259.974 55.0605 263.199 55.0605C266.389 55.0605 267.984 52.8787 267.984 48.5151C267.984 44.1971 266.377 42.0381 263.165 42.0381C261.478 42.0381 260.254 42.5964 259.49 43.7129C258.738 44.8294 258.362 46.4302 258.362 48.5151ZM288.475 39.0986H292.884L285.074 48.2075L293.55 58H288.936L280.767 48.4126V58H276.751V39.0986H280.767V48.2759L288.475 39.0986ZM322.535 48.5151C322.535 51.6027 321.743 54.0124 320.159 55.7441C318.576 57.4759 316.371 58.3418 313.545 58.3418C311.779 58.3418 310.219 57.943 308.863 57.1455C307.507 56.348 306.465 55.203 305.735 53.7104C305.006 52.2179 304.642 50.4862 304.642 48.5151C304.642 45.4504 305.428 43.0578 307 41.3374C308.572 39.617 310.788 38.7568 313.648 38.7568C316.382 38.7568 318.547 39.6398 320.142 41.4058C321.737 43.1603 322.535 45.5301 322.535 48.5151ZM308.777 48.5151C308.777 52.8787 310.389 55.0605 313.614 55.0605C316.804 55.0605 318.399 52.8787 318.399 48.5151C318.399 44.1971 316.792 42.0381 313.58 42.0381C311.893 42.0381 310.669 42.5964 309.905 43.7129C309.153 44.8294 308.777 46.4302 308.777 48.5151ZM326.072 46.6523C326.072 42.4368 326.784 39.1955 328.208 36.9282C329.644 34.661 331.923 33.2026 335.044 32.5532C337.403 32.0747 340.12 31.6076 343.196 31.1519L343.76 34.6895C340.023 35.2591 337.289 35.7035 335.557 36.0225C333.768 36.3529 332.475 37.0877 331.678 38.2271C330.892 39.3664 330.436 41.0811 330.311 43.3711H330.567C331.216 42.4255 332.065 41.6963 333.113 41.1836C334.161 40.6595 335.284 40.3975 336.48 40.3975C338.804 40.3975 340.616 41.1323 341.915 42.6021C343.213 44.0718 343.863 46.134 343.863 48.7886C343.863 51.8306 343.071 54.1833 341.487 55.8467C339.915 57.5101 337.733 58.3418 334.942 58.3418C332.173 58.3418 330.003 57.3164 328.431 55.2656C326.858 53.2148 326.072 50.3438 326.072 46.6523ZM335.215 55.0605C338.2 55.0605 339.693 53.1009 339.693 49.1816C339.693 45.3991 338.343 43.5078 335.643 43.5078C334.902 43.5078 334.184 43.6673 333.489 43.9863C332.794 44.3053 332.151 44.7269 331.558 45.251C330.977 45.7751 330.527 46.3162 330.208 46.8745C330.208 49.5633 330.635 51.6027 331.49 52.9927C332.344 54.3713 333.586 55.0605 335.215 55.0605ZM356.014 39.0986V46.6523H360.525C363.271 46.6523 365.305 47.1081 366.626 48.0195C367.959 48.931 368.626 50.2982 368.626 52.1211C368.626 54.0465 367.954 55.5106 366.609 56.5132C365.265 57.5044 363.265 58 360.611 58H351.998V42.2432H345.965V39.0986H356.014ZM364.593 52.2236C364.593 51.278 364.245 50.6172 363.55 50.2412C362.867 49.8652 361.824 49.6772 360.423 49.6772H356.014V55.0264H360.525C363.237 55.0264 364.593 54.0921 364.593 52.2236ZM381.324 58.3418C378.384 58.3418 376.083 57.4873 374.419 55.7783C372.767 54.0579 371.941 51.6938 371.941 48.686C371.941 45.5985 372.71 43.1717 374.249 41.4058C375.787 39.6398 377.9 38.7568 380.589 38.7568C383.084 38.7568 385.055 39.5145 386.502 41.0298C387.949 42.5451 388.672 44.63 388.672 47.2847V49.4551H376.077C376.134 51.2894 376.63 52.7021 377.564 53.6934C378.498 54.6732 379.814 55.1631 381.512 55.1631C382.628 55.1631 383.665 55.0605 384.622 54.8555C385.59 54.639 386.627 54.2858 387.732 53.7959V57.0601C386.753 57.5272 385.761 57.8576 384.759 58.0513C383.756 58.245 382.611 58.3418 381.324 58.3418ZM380.589 41.7988C379.313 41.7988 378.287 42.2033 377.513 43.0122C376.749 43.8211 376.294 45.0003 376.146 46.5498H384.725C384.702 44.9889 384.326 43.8097 383.597 43.0122C382.868 42.2033 381.865 41.7988 380.589 41.7988ZM404.959 39.0986H409.368L401.558 48.2075L410.035 58H405.42L397.251 48.4126V58H393.235V39.0986H397.251V48.2759L404.959 39.0986ZM427.364 39.0986V42.2432H421.211V58H417.178V42.2432H411.026V39.0986H427.364ZM447.769 48.5151C447.769 51.6027 446.977 54.0124 445.394 55.7441C443.81 57.4759 441.605 58.3418 438.78 58.3418C437.014 58.3418 435.453 57.943 434.097 57.1455C432.741 56.348 431.699 55.203 430.97 53.7104C430.241 52.2179 429.876 50.4862 429.876 48.5151C429.876 45.4504 430.662 43.0578 432.234 41.3374C433.807 39.617 436.023 38.7568 438.882 38.7568C441.617 38.7568 443.781 39.6398 445.376 41.4058C446.972 43.1603 447.769 45.5301 447.769 48.5151ZM434.012 48.5151C434.012 52.8787 435.624 55.0605 438.848 55.0605C442.038 55.0605 443.633 52.8787 443.633 48.5151C443.633 44.1971 442.027 42.0381 438.814 42.0381C437.128 42.0381 435.903 42.5964 435.14 43.7129C434.388 44.8294 434.012 46.4302 434.012 48.5151ZM468.807 43.9351C468.807 46.1681 467.502 47.5182 464.893 47.9854V48.1221C466.351 48.293 467.468 48.7544 468.243 49.5063C469.017 50.2583 469.405 51.2324 469.405 52.4287C469.405 54.2174 468.721 55.596 467.354 56.5645C465.998 57.5215 464.021 58 461.424 58H452.4V39.0986H461.39C466.334 39.0986 468.807 40.7108 468.807 43.9351ZM465.286 52.1895C465.286 51.278 464.933 50.6343 464.227 50.2583C463.52 49.8709 462.461 49.6772 461.048 49.6772H456.417V55.0264H461.15C463.908 55.0264 465.286 54.0807 465.286 52.1895ZM464.791 44.2769C464.791 43.5249 464.494 42.9837 463.902 42.6533C463.321 42.3115 462.449 42.1406 461.287 42.1406H456.417V46.6865H460.689C462.033 46.6865 463.053 46.5156 463.748 46.1738C464.443 45.8206 464.791 45.1883 464.791 44.2769ZM177.493 93.3418C174.633 93.3418 172.457 92.5101 170.965 90.8467C169.484 89.1719 168.743 86.7736 168.743 83.6519C168.743 80.4731 169.518 78.0293 171.067 76.3203C172.628 74.6113 174.878 73.7568 177.818 73.7568C179.812 73.7568 181.606 74.1271 183.201 74.8677L181.988 78.0977C180.29 77.4368 178.889 77.1064 177.784 77.1064C174.514 77.1064 172.879 79.2769 172.879 83.6177C172.879 85.7368 173.283 87.3319 174.092 88.4028C174.913 89.4624 176.109 89.9922 177.681 89.9922C179.47 89.9922 181.162 89.5479 182.757 88.6592V92.1626C182.039 92.5841 181.27 92.8861 180.45 93.0684C179.641 93.2507 178.655 93.3418 177.493 93.3418ZM201.402 74.0986V77.2432H195.25V93H191.216V77.2432H185.064V74.0986H201.402ZM214.629 93.3418C212.237 93.3418 210.38 92.4816 209.058 90.7612H208.819C208.978 92.3563 209.058 93.3247 209.058 93.6665V101.408H205.042V74.0986H208.289C208.38 74.4518 208.568 75.2949 208.853 76.6279H209.058C210.311 74.7139 212.191 73.7568 214.698 73.7568C217.056 73.7568 218.89 74.6113 220.201 76.3203C221.522 78.0293 222.183 80.4276 222.183 83.5151C222.183 86.6027 221.511 89.0124 220.167 90.7441C218.833 92.4759 216.988 93.3418 214.629 93.3418ZM213.655 77.0381C212.06 77.0381 210.892 77.5052 210.152 78.4395C209.423 79.3737 209.058 80.8662 209.058 82.917V83.5151C209.058 85.8166 209.423 87.4857 210.152 88.5225C210.881 89.5479 212.072 90.0605 213.724 90.0605C215.114 90.0605 216.185 89.4909 216.937 88.3516C217.688 87.2122 218.064 85.5887 218.064 83.481C218.064 81.3618 217.688 79.7611 216.937 78.6787C216.196 77.585 215.102 77.0381 213.655 77.0381ZM243.614 83.5151C243.614 86.6027 242.822 89.0124 241.238 90.7441C239.655 92.4759 237.45 93.3418 234.625 93.3418C232.859 93.3418 231.298 92.943 229.942 92.1455C228.586 91.348 227.544 90.203 226.814 88.7104C226.085 87.2179 225.721 85.4862 225.721 83.5151C225.721 80.4504 226.507 78.0578 228.079 76.3374C229.651 74.617 231.867 73.7568 234.727 73.7568C237.461 73.7568 239.626 74.6398 241.221 76.4058C242.816 78.1603 243.614 80.5301 243.614 83.5151ZM229.856 83.5151C229.856 87.8787 231.469 90.0605 234.693 90.0605C237.883 90.0605 239.478 87.8787 239.478 83.5151C239.478 79.1971 237.872 77.0381 234.659 77.0381C232.972 77.0381 231.748 77.5964 230.984 78.7129C230.232 79.8294 229.856 81.4302 229.856 83.5151ZM252.09 74.0986V83.7886C252.09 84.9165 251.999 86.5742 251.817 88.7617L261.302 74.0986H266.207V93H262.344V83.481C262.344 82.9569 262.373 82.1081 262.43 80.9346C262.498 79.7611 262.555 78.9066 262.601 78.3711L253.15 93H248.245V74.0986H252.09ZM286.133 74.0986V77.2432H279.981V93H275.948V77.2432H269.795V74.0986H286.133ZM298.028 93.3418C295.088 93.3418 292.787 92.4873 291.124 90.7783C289.472 89.0579 288.646 86.6938 288.646 83.686C288.646 80.5985 289.415 78.1717 290.953 76.4058C292.491 74.6398 294.604 73.7568 297.293 73.7568C299.788 73.7568 301.759 74.5145 303.206 76.0298C304.653 77.5451 305.376 79.63 305.376 82.2847V84.4551H292.781C292.838 86.2894 293.334 87.7021 294.268 88.6934C295.202 89.6732 296.518 90.1631 298.216 90.1631C299.332 90.1631 300.369 90.0605 301.326 89.8555C302.295 89.639 303.331 89.2858 304.437 88.7959V92.0601C303.457 92.5272 302.465 92.8576 301.463 93.0513C300.46 93.245 299.315 93.3418 298.028 93.3418ZM297.293 76.7988C296.017 76.7988 294.992 77.2033 294.217 78.0122C293.453 78.8211 292.998 80.0003 292.85 81.5498H301.429C301.406 79.9889 301.03 78.8097 300.301 78.0122C299.572 77.2033 298.569 76.7988 297.293 76.7988ZM325.474 93H321.424V77.2432H316.211C315.892 81.2992 315.459 84.4665 314.913 86.7451C314.377 89.0238 313.671 90.6872 312.793 91.7354C311.928 92.7835 310.8 93.3076 309.41 93.3076C308.532 93.3076 307.798 93.1823 307.205 92.9316V89.7871C307.627 89.9466 308.048 90.0264 308.47 90.0264C309.632 90.0264 310.543 88.7218 311.204 86.1128C311.876 83.4924 312.4 79.4876 312.776 74.0986H325.474V93ZM335.25 81.6523H339.983C345.258 81.6523 347.896 83.4753 347.896 87.1211C347.896 89.0465 347.224 90.5106 345.879 91.5132C344.535 92.5044 342.57 93 339.983 93H331.233V74.0986H335.25V81.6523ZM343.863 87.2236C343.863 86.278 343.504 85.6172 342.786 85.2412C342.068 84.8652 341.054 84.6772 339.744 84.6772H335.25V90.0264H339.812C341.134 90.0264 342.137 89.7871 342.82 89.3086C343.515 88.8301 343.863 88.1351 343.863 87.2236ZM359.979 93.3418C357.119 93.3418 354.943 92.5101 353.45 90.8467C351.969 89.1719 351.229 86.7736 351.229 83.6519C351.229 80.4731 352.003 78.0293 353.553 76.3203C355.114 74.6113 357.364 73.7568 360.303 73.7568C362.297 73.7568 364.091 74.1271 365.687 74.8677L364.473 78.0977C362.776 77.4368 361.374 77.1064 360.269 77.1064C356.999 77.1064 355.364 79.2769 355.364 83.6177C355.364 85.7368 355.769 87.3319 356.578 88.4028C357.398 89.4624 358.594 89.9922 360.167 89.9922C361.955 89.9922 363.647 89.5479 365.242 88.6592V92.1626C364.524 92.5841 363.755 92.8861 362.935 93.0684C362.126 93.2507 361.141 93.3418 359.979 93.3418ZM383.887 74.0986V77.2432H377.735V93H373.702V77.2432H367.549V74.0986H383.887ZM403.934 78.9351C403.934 81.1681 402.629 82.5182 400.02 82.9854V83.1221C401.478 83.293 402.595 83.7544 403.37 84.5063C404.144 85.2583 404.532 86.2324 404.532 87.4287C404.532 89.2174 403.848 90.596 402.481 91.5645C401.125 92.5215 399.148 93 396.551 93H387.527V74.0986H396.517C401.461 74.0986 403.934 75.7108 403.934 78.9351ZM400.413 87.1895C400.413 86.278 400.06 85.6343 399.354 85.2583C398.647 84.8709 397.588 84.6772 396.175 84.6772H391.543V90.0264H396.277C399.035 90.0264 400.413 89.0807 400.413 87.1895ZM399.917 79.2769C399.917 78.5249 399.621 77.9837 399.029 77.6533C398.448 77.3115 397.576 77.1406 396.414 77.1406H391.543V81.6865H395.816C397.16 81.6865 398.18 81.5156 398.875 81.1738C399.57 80.8206 399.917 80.1883 399.917 79.2769ZM420.511 93L419.708 90.3682H419.571C418.659 91.5189 417.742 92.305 416.819 92.7266C415.896 93.1367 414.712 93.3418 413.265 93.3418C411.408 93.3418 409.955 92.8405 408.907 91.8379C407.87 90.8353 407.352 89.4168 407.352 87.5825C407.352 85.6343 408.075 84.1646 409.522 83.1733C410.969 82.1821 413.174 81.641 416.136 81.5498L419.4 81.4473V80.439C419.4 79.2313 419.115 78.3312 418.545 77.7388C417.987 77.1349 417.116 76.833 415.931 76.833C414.962 76.833 414.034 76.9754 413.145 77.2603C412.256 77.5451 411.402 77.8812 410.582 78.2686L409.283 75.3975C410.308 74.862 411.43 74.4575 412.649 74.1841C413.868 73.8993 415.019 73.7568 416.102 73.7568C418.506 73.7568 420.317 74.2809 421.536 75.3291C422.767 76.3773 423.382 78.0236 423.382 80.2681V93H420.511ZM414.529 90.2656C415.988 90.2656 417.155 89.8612 418.033 89.0522C418.921 88.2319 419.366 87.0869 419.366 85.6172V83.9766L416.939 84.0791C415.048 84.1475 413.669 84.4665 412.803 85.0361C411.949 85.5944 411.521 86.4546 411.521 87.6167C411.521 88.4598 411.772 89.1149 412.273 89.582C412.775 90.0378 413.527 90.2656 414.529 90.2656Z" fill="white"/>
<path d="M110 95.4675L110 31.8052L55.0259 -2.40299e-06L-1.39025e-06 31.8052L-4.17302e-06 95.4675L55.0259 127.273L110 95.4675Z" fill="#2C3147"/>
<line x1="28" y1="47.5" x2="80" y2="47.5" stroke="#01F859" stroke-width="7"/>
<line x1="28" y1="64.5" x2="80" y2="64.5" stroke="#01F859" stroke-width="7"/>
<line x1="28" y1="81.5" x2="80" y2="81.5" stroke="#01F859" stroke-width="7"/>
</svg>
