<svg width="1990" height="1229" viewBox="0 0 1990 1229" fill="none" xmlns="http://www.w3.org/2000/svg">
<rect x="616" width="645" height="1229" fill="#C4C4C4" fill-opacity="0.05"/>
<path d="M27.9531 74H3.00195V68.751L11.9619 59.6934C14.6149 56.9753 16.3483 55.0954 17.1621 54.0537C17.9759 52.9958 18.5618 52.0192 18.9199 51.124C19.278 50.2288 19.457 49.3011 19.457 48.3408C19.457 46.9085 19.0583 45.8424 18.2607 45.1426C17.4795 44.4427 16.4297 44.0928 15.1113 44.0928C13.7279 44.0928 12.3851 44.4102 11.083 45.0449C9.78092 45.6797 8.42188 46.583 7.00586 47.7549L2.9043 42.8965C4.66211 41.3991 6.11882 40.3411 7.27441 39.7227C8.43001 39.1042 9.69141 38.6322 11.0586 38.3066C12.4258 37.9648 13.9557 37.7939 15.6484 37.7939C17.8783 37.7939 19.8477 38.2008 21.5566 39.0146C23.2656 39.8285 24.5921 40.9678 25.5361 42.4326C26.4801 43.8975 26.9521 45.5739 26.9521 47.4619C26.9521 49.1058 26.6592 50.652 26.0732 52.1006C25.5036 53.5329 24.6084 55.0059 23.3877 56.5195C22.1833 58.0332 20.0511 60.1898 16.9912 62.9893L12.4014 67.3105V67.6523H27.9531V74ZM56.3223 56.1533C56.3223 62.387 55.2969 67.0013 53.2461 69.9961C51.2116 72.9909 48.0703 74.4883 43.8223 74.4883C39.7044 74.4883 36.5957 72.9421 34.4961 69.8496C32.4128 66.7572 31.3711 62.1917 31.3711 56.1533C31.3711 49.8545 32.3883 45.2158 34.4229 42.2373C36.4574 39.2425 39.5905 37.7451 43.8223 37.7451C47.9401 37.7451 51.0488 39.3076 53.1484 42.4326C55.2643 45.5576 56.3223 50.1312 56.3223 56.1533ZM38.8662 56.1533C38.8662 60.5316 39.2406 63.6729 39.9893 65.5771C40.7542 67.4652 42.0319 68.4092 43.8223 68.4092C45.5801 68.4092 46.8496 67.4489 47.6309 65.5283C48.4121 63.6077 48.8027 60.4827 48.8027 56.1533C48.8027 51.7751 48.404 48.6338 47.6064 46.7295C46.8252 44.8089 45.5638 43.8486 43.8223 43.8486C42.0482 43.8486 40.7786 44.8089 40.0137 46.7295C39.2487 48.6338 38.8662 51.7751 38.8662 56.1533ZM78.7832 74H71.2393V53.3457L71.3125 49.9521L71.4346 46.2412C70.1813 47.4945 69.3105 48.3164 68.8223 48.707L64.7207 52.0029L61.083 47.4619L72.582 38.3066H78.7832V74ZM101 37.8428C104.418 37.8428 107.169 38.624 109.252 40.1865C111.352 41.7327 112.401 43.8242 112.401 46.4609C112.401 48.2839 111.897 49.9115 110.888 51.3438C109.879 52.7598 108.251 54.0293 106.005 55.1523C108.674 56.5846 110.587 58.082 111.742 59.6445C112.914 61.1908 113.5 62.8916 113.5 64.7471C113.5 67.6768 112.353 70.0368 110.058 71.8271C107.763 73.6012 104.743 74.4883 101 74.4883C97.0938 74.4883 94.0257 73.6582 91.7959 71.998C89.5661 70.3379 88.4512 67.986 88.4512 64.9424C88.4512 62.9079 88.9883 61.1012 90.0625 59.5225C91.153 57.9437 92.8945 56.5521 95.2871 55.3477C93.2526 54.0618 91.7878 52.6865 90.8926 51.2217C89.9974 49.7568 89.5498 48.1536 89.5498 46.4121C89.5498 43.8568 90.6077 41.7897 92.7236 40.2109C94.8395 38.6322 97.5983 37.8428 101 37.8428ZM95.4336 64.5029C95.4336 65.9027 95.9219 66.9932 96.8984 67.7744C97.875 68.5557 99.2096 68.9463 100.902 68.9463C102.774 68.9463 104.174 68.5475 105.102 67.75C106.029 66.9362 106.493 65.8701 106.493 64.5518C106.493 63.4613 106.029 62.444 105.102 61.5C104.19 60.5397 102.701 59.5225 100.634 58.4482C97.167 60.0433 95.4336 62.0615 95.4336 64.5029ZM100.951 43.3604C99.6654 43.3604 98.6237 43.694 97.8262 44.3613C97.0449 45.0124 96.6543 45.8913 96.6543 46.998C96.6543 47.9746 96.9635 48.8535 97.582 49.6348C98.2168 50.3997 99.3561 51.1891 101 52.0029C102.595 51.2542 103.71 50.4893 104.345 49.708C104.979 48.9268 105.297 48.0234 105.297 46.998C105.297 45.875 104.89 44.988 104.076 44.3369C103.262 43.6859 102.221 43.3604 100.951 43.3604Z" fill="white"/>
<path d="M672.953 74H648.002V68.751L656.962 59.6934C659.615 56.9753 661.348 55.0954 662.162 54.0537C662.976 52.9958 663.562 52.0192 663.92 51.124C664.278 50.2288 664.457 49.3011 664.457 48.3408C664.457 46.9085 664.058 45.8424 663.261 45.1426C662.479 44.4427 661.43 44.0928 660.111 44.0928C658.728 44.0928 657.385 44.4102 656.083 45.0449C654.781 45.6797 653.422 46.583 652.006 47.7549L647.904 42.8965C649.662 41.3991 651.119 40.3411 652.274 39.7227C653.43 39.1042 654.691 38.6322 656.059 38.3066C657.426 37.9648 658.956 37.7939 660.648 37.7939C662.878 37.7939 664.848 38.2008 666.557 39.0146C668.266 39.8285 669.592 40.9678 670.536 42.4326C671.48 43.8975 671.952 45.5739 671.952 47.4619C671.952 49.1058 671.659 50.652 671.073 52.1006C670.504 53.5329 669.608 55.0059 668.388 56.5195C667.183 58.0332 665.051 60.1898 661.991 62.9893L657.401 67.3105V67.6523H672.953V74ZM701.322 56.1533C701.322 62.387 700.297 67.0013 698.246 69.9961C696.212 72.9909 693.07 74.4883 688.822 74.4883C684.704 74.4883 681.596 72.9421 679.496 69.8496C677.413 66.7572 676.371 62.1917 676.371 56.1533C676.371 49.8545 677.388 45.2158 679.423 42.2373C681.457 39.2425 684.59 37.7451 688.822 37.7451C692.94 37.7451 696.049 39.3076 698.148 42.4326C700.264 45.5576 701.322 50.1312 701.322 56.1533ZM683.866 56.1533C683.866 60.5316 684.241 63.6729 684.989 65.5771C685.754 67.4652 687.032 68.4092 688.822 68.4092C690.58 68.4092 691.85 67.4489 692.631 65.5283C693.412 63.6077 693.803 60.4827 693.803 56.1533C693.803 51.7751 693.404 48.6338 692.606 46.7295C691.825 44.8089 690.564 43.8486 688.822 43.8486C687.048 43.8486 685.779 44.8089 685.014 46.7295C684.249 48.6338 683.866 51.7751 683.866 56.1533ZM723.783 74H716.239V53.3457L716.312 49.9521L716.435 46.2412C715.181 47.4945 714.311 48.3164 713.822 48.707L709.721 52.0029L706.083 47.4619L717.582 38.3066H723.783V74ZM758.5 53.541C758.5 60.5723 757.019 65.8213 754.057 69.2881C751.094 72.7549 746.61 74.4883 740.604 74.4883C738.489 74.4883 736.885 74.3743 735.795 74.1465V68.0918C737.162 68.4336 738.594 68.6045 740.092 68.6045C742.615 68.6045 744.69 68.2383 746.317 67.5059C747.945 66.7572 749.19 65.5934 750.053 64.0146C750.915 62.4196 751.412 60.2305 751.542 57.4473H751.249C750.305 58.9772 749.215 60.0514 747.978 60.6699C746.741 61.2884 745.194 61.5977 743.339 61.5977C740.23 61.5977 737.781 60.6048 735.99 58.6191C734.2 56.6172 733.305 53.8421 733.305 50.2939C733.305 46.4691 734.387 43.4499 736.552 41.2363C738.733 39.0065 741.695 37.8916 745.438 37.8916C748.075 37.8916 750.378 38.5101 752.348 39.7471C754.333 40.984 755.855 42.7826 756.913 45.1426C757.971 47.4863 758.5 50.2858 758.5 53.541ZM745.585 43.9463C744.022 43.9463 742.802 44.4834 741.923 45.5576C741.044 46.6318 740.604 48.1781 740.604 50.1963C740.604 51.9215 741.003 53.2887 741.801 54.2979C742.598 55.307 743.811 55.8115 745.438 55.8115C746.968 55.8115 748.279 55.3151 749.369 54.3223C750.46 53.3132 751.005 52.1576 751.005 50.8555C751.005 48.9186 750.492 47.2829 749.467 45.9482C748.458 44.6136 747.164 43.9463 745.585 43.9463Z" fill="white"/>
<path d="M1317.95 74H1293V68.751L1301.96 59.6934C1304.61 56.9753 1306.35 55.0954 1307.16 54.0537C1307.98 52.9958 1308.56 52.0192 1308.92 51.124C1309.28 50.2288 1309.46 49.3011 1309.46 48.3408C1309.46 46.9085 1309.06 45.8424 1308.26 45.1426C1307.48 44.4427 1306.43 44.0928 1305.11 44.0928C1303.73 44.0928 1302.39 44.4102 1301.08 45.0449C1299.78 45.6797 1298.42 46.583 1297.01 47.7549L1292.9 42.8965C1294.66 41.3991 1296.12 40.3411 1297.27 39.7227C1298.43 39.1042 1299.69 38.6322 1301.06 38.3066C1302.43 37.9648 1303.96 37.7939 1305.65 37.7939C1307.88 37.7939 1309.85 38.2008 1311.56 39.0146C1313.27 39.8285 1314.59 40.9678 1315.54 42.4326C1316.48 43.8975 1316.95 45.5739 1316.95 47.4619C1316.95 49.1058 1316.66 50.652 1316.07 52.1006C1315.5 53.5329 1314.61 55.0059 1313.39 56.5195C1312.18 58.0332 1310.05 60.1898 1306.99 62.9893L1302.4 67.3105V67.6523H1317.95V74ZM1346.32 56.1533C1346.32 62.387 1345.3 67.0013 1343.25 69.9961C1341.21 72.9909 1338.07 74.4883 1333.82 74.4883C1329.7 74.4883 1326.6 72.9421 1324.5 69.8496C1322.41 66.7572 1321.37 62.1917 1321.37 56.1533C1321.37 49.8545 1322.39 45.2158 1324.42 42.2373C1326.46 39.2425 1329.59 37.7451 1333.82 37.7451C1337.94 37.7451 1341.05 39.3076 1343.15 42.4326C1345.26 45.5576 1346.32 50.1312 1346.32 56.1533ZM1328.87 56.1533C1328.87 60.5316 1329.24 63.6729 1329.99 65.5771C1330.75 67.4652 1332.03 68.4092 1333.82 68.4092C1335.58 68.4092 1336.85 67.4489 1337.63 65.5283C1338.41 63.6077 1338.8 60.4827 1338.8 56.1533C1338.8 51.7751 1338.4 48.6338 1337.61 46.7295C1336.83 44.8089 1335.56 43.8486 1333.82 43.8486C1332.05 43.8486 1330.78 44.8089 1330.01 46.7295C1329.25 48.6338 1328.87 51.7751 1328.87 56.1533ZM1375.08 74H1350.13V68.751L1359.09 59.6934C1361.74 56.9753 1363.48 55.0954 1364.29 54.0537C1365.1 52.9958 1365.69 52.0192 1366.05 51.124C1366.41 50.2288 1366.59 49.3011 1366.59 48.3408C1366.59 46.9085 1366.19 45.8424 1365.39 45.1426C1364.61 44.4427 1363.56 44.0928 1362.24 44.0928C1360.86 44.0928 1359.51 44.4102 1358.21 45.0449C1356.91 45.6797 1355.55 46.583 1354.13 47.7549L1350.03 42.8965C1351.79 41.3991 1353.25 40.3411 1354.4 39.7227C1355.56 39.1042 1356.82 38.6322 1358.19 38.3066C1359.55 37.9648 1361.08 37.7939 1362.78 37.7939C1365.01 37.7939 1366.98 38.2008 1368.69 39.0146C1370.39 39.8285 1371.72 40.9678 1372.67 42.4326C1373.61 43.8975 1374.08 45.5739 1374.08 47.4619C1374.08 49.1058 1373.79 50.652 1373.2 52.1006C1372.63 53.5329 1371.74 55.0059 1370.52 56.5195C1369.31 58.0332 1367.18 60.1898 1364.12 62.9893L1359.53 67.3105V67.6523H1375.08V74ZM1403.45 56.1533C1403.45 62.387 1402.43 67.0013 1400.38 69.9961C1398.34 72.9909 1395.2 74.4883 1390.95 74.4883C1386.83 74.4883 1383.72 72.9421 1381.62 69.8496C1379.54 66.7572 1378.5 62.1917 1378.5 56.1533C1378.5 49.8545 1379.52 45.2158 1381.55 42.2373C1383.59 39.2425 1386.72 37.7451 1390.95 37.7451C1395.07 37.7451 1398.18 39.3076 1400.28 42.4326C1402.39 45.5576 1403.45 50.1312 1403.45 56.1533ZM1386 56.1533C1386 60.5316 1386.37 63.6729 1387.12 65.5771C1387.88 67.4652 1389.16 68.4092 1390.95 68.4092C1392.71 68.4092 1393.98 67.4489 1394.76 65.5283C1395.54 63.6077 1395.93 60.4827 1395.93 56.1533C1395.93 51.7751 1395.53 48.6338 1394.74 46.7295C1393.95 44.8089 1392.69 43.8486 1390.95 43.8486C1389.18 43.8486 1387.91 44.8089 1387.14 46.7295C1386.38 48.6338 1386 51.7751 1386 56.1533Z" fill="white"/>
<path d="M13.1924 299L42.6797 234.547H3.9541V220.582H60.2969V231.002L30.5947 299H13.1924ZM123.139 299H68.2461V287.452L87.958 267.525C93.7946 261.546 97.6081 257.41 99.3984 255.118C101.189 252.791 102.478 250.642 103.266 248.673C104.053 246.703 104.447 244.662 104.447 242.55C104.447 239.399 103.57 237.053 101.815 235.514C100.097 233.974 97.7871 233.204 94.8867 233.204C91.8431 233.204 88.889 233.902 86.0244 235.299C83.1598 236.695 80.1699 238.683 77.0547 241.261L68.0312 230.572C71.8984 227.278 75.1032 224.951 77.6455 223.59C80.1878 222.229 82.9629 221.191 85.9707 220.475C88.9785 219.723 92.3444 219.347 96.0684 219.347C100.974 219.347 105.307 220.242 109.066 222.032C112.826 223.823 115.744 226.329 117.821 229.552C119.898 232.774 120.937 236.463 120.937 240.616C120.937 244.233 120.292 247.634 119.003 250.821C117.75 253.972 115.78 257.213 113.095 260.543C110.445 263.873 105.754 268.618 99.0225 274.776L88.9248 284.283V285.035H123.139V299ZM151.337 287.452C149.475 294.685 146.324 303.261 141.884 313.18H130.067C132.395 303.655 134.203 294.667 135.492 286.217H150.531L151.337 287.452ZM217.455 259.737C217.455 273.451 215.199 283.603 210.688 290.191C206.212 296.78 199.301 300.074 189.955 300.074C180.896 300.074 174.057 296.673 169.438 289.869C164.854 283.066 162.562 273.022 162.562 259.737C162.562 245.88 164.8 235.675 169.276 229.122C173.752 222.534 180.645 219.239 189.955 219.239C199.014 219.239 205.854 222.677 210.473 229.552C215.128 236.427 217.455 246.489 217.455 259.737ZM179.052 259.737C179.052 269.369 179.875 276.28 181.522 280.47C183.205 284.623 186.016 286.7 189.955 286.7C193.822 286.7 196.615 284.588 198.334 280.362C200.053 276.137 200.912 269.262 200.912 259.737C200.912 250.105 200.035 243.194 198.28 239.005C196.562 234.78 193.786 232.667 189.955 232.667C186.052 232.667 183.259 234.78 181.576 239.005C179.893 243.194 179.052 250.105 179.052 259.737ZM225.297 265.646C225.297 250.105 228.573 238.539 235.126 230.948C241.715 223.357 251.562 219.562 264.667 219.562C269.143 219.562 272.652 219.83 275.194 220.367V233.634C272.007 232.918 268.856 232.56 265.741 232.56C260.048 232.56 255.393 233.419 251.776 235.138C248.196 236.856 245.51 239.399 243.72 242.765C241.929 246.131 240.873 250.911 240.551 257.105H241.249C244.794 251.018 250.469 247.975 258.275 247.975C265.294 247.975 270.79 250.177 274.765 254.581C278.739 258.985 280.727 265.073 280.727 272.843C280.727 281.222 278.363 287.864 273.637 292.77C268.91 297.639 262.357 300.074 253.979 300.074C248.178 300.074 243.111 298.731 238.778 296.046C234.481 293.36 231.151 289.439 228.788 284.283C226.461 279.127 225.297 272.914 225.297 265.646ZM253.656 286.808C257.201 286.808 259.923 285.626 261.82 283.263C263.718 280.864 264.667 277.462 264.667 273.058C264.667 269.226 263.772 266.218 261.981 264.034C260.227 261.814 257.559 260.704 253.979 260.704C250.613 260.704 247.73 261.796 245.331 263.98C242.968 266.165 241.786 268.707 241.786 271.607C241.786 275.868 242.896 279.467 245.116 282.403C247.372 285.34 250.219 286.808 253.656 286.808Z" fill="#01F859"/>
<path d="M657.509 189H655.32V174.551H667.449V189H665.234V176.449H657.509V189ZM682.861 189H680.646V176.423H676.309C676.071 179.552 675.742 182.035 675.32 183.872C674.898 185.708 674.349 187.053 673.672 187.906C673.004 188.758 672.151 189.185 671.114 189.185C670.64 189.185 670.262 189.132 669.98 189.026V187.405C670.174 187.458 670.394 187.484 670.64 187.484C671.65 187.484 672.455 186.416 673.052 184.28C673.65 182.145 674.103 178.901 674.41 174.551H682.861V189ZM696.4 189L695.965 186.943H695.86C695.139 187.849 694.418 188.464 693.698 188.789C692.986 189.105 692.094 189.264 691.021 189.264C689.589 189.264 688.464 188.895 687.646 188.156C686.838 187.418 686.434 186.368 686.434 185.005C686.434 182.087 688.767 180.558 693.434 180.417L695.886 180.338V179.442C695.886 178.308 695.64 177.473 695.148 176.937C694.665 176.392 693.887 176.12 692.814 176.12C691.61 176.12 690.248 176.489 688.728 177.227L688.055 175.553C688.767 175.166 689.545 174.863 690.389 174.643C691.241 174.423 692.094 174.313 692.946 174.313C694.669 174.313 695.943 174.696 696.77 175.46C697.604 176.225 698.022 177.451 698.022 179.139V189H696.4ZM691.457 187.458C692.819 187.458 693.887 187.084 694.66 186.337C695.442 185.59 695.833 184.544 695.833 183.199V181.894L693.645 181.986C691.905 182.048 690.648 182.32 689.875 182.804C689.11 183.278 688.728 184.021 688.728 185.032C688.728 185.823 688.965 186.425 689.439 186.838C689.923 187.251 690.595 187.458 691.457 187.458ZM704.732 174.551V180.602H712.827V174.551H715.016V189H712.827V182.487H704.732V189H702.544V174.551H704.732Z" fill="white"/>
<path d="M1295.51 189H1293.32V174.551H1305.45V189H1303.23V176.449H1295.51V189ZM1320.86 189H1318.65V176.423H1314.31C1314.07 179.552 1313.74 182.035 1313.32 183.872C1312.9 185.708 1312.35 187.053 1311.67 187.906C1311 188.758 1310.15 189.185 1309.11 189.185C1308.64 189.185 1308.26 189.132 1307.98 189.026V187.405C1308.17 187.458 1308.39 187.484 1308.64 187.484C1309.65 187.484 1310.45 186.416 1311.05 184.28C1311.65 182.145 1312.1 178.901 1312.41 174.551H1320.86V189ZM1334.4 189L1333.97 186.943H1333.86C1333.14 187.849 1332.42 188.464 1331.7 188.789C1330.99 189.105 1330.09 189.264 1329.02 189.264C1327.59 189.264 1326.46 188.895 1325.65 188.156C1324.84 187.418 1324.43 186.368 1324.43 185.005C1324.43 182.087 1326.77 180.558 1331.43 180.417L1333.89 180.338V179.442C1333.89 178.308 1333.64 177.473 1333.15 176.937C1332.66 176.392 1331.89 176.12 1330.81 176.12C1329.61 176.12 1328.25 176.489 1326.73 177.227L1326.06 175.553C1326.77 175.166 1327.54 174.863 1328.39 174.643C1329.24 174.423 1330.09 174.313 1330.95 174.313C1332.67 174.313 1333.94 174.696 1334.77 175.46C1335.6 176.225 1336.02 177.451 1336.02 179.139V189H1334.4ZM1329.46 187.458C1330.82 187.458 1331.89 187.084 1332.66 186.337C1333.44 185.59 1333.83 184.544 1333.83 183.199V181.894L1331.65 181.986C1329.9 182.048 1328.65 182.32 1327.87 182.804C1327.11 183.278 1326.73 184.021 1326.73 185.032C1326.73 185.823 1326.96 186.425 1327.44 186.838C1327.92 187.251 1328.6 187.458 1329.46 187.458ZM1342.73 174.551V180.602H1350.83V174.551H1353.02V189H1350.83V182.487H1342.73V189H1340.54V174.551H1342.73Z" fill="white"/>
<path d="M1308.8 368.762C1308.8 370.951 1308.17 372.695 1306.93 373.996C1305.69 375.288 1303.95 376.026 1301.72 376.211V382.486H1299.56V376.211C1297.38 376.044 1295.65 375.297 1294.39 373.97C1293.12 372.643 1292.49 370.907 1292.49 368.762C1292.49 366.574 1293.12 364.833 1294.38 363.542C1295.64 362.25 1297.39 361.516 1299.64 361.34V355.486H1301.72V361.34C1303.92 361.542 1305.66 362.302 1306.91 363.621C1308.17 364.939 1308.8 366.653 1308.8 368.762ZM1294.78 368.762C1294.78 370.45 1295.17 371.772 1295.94 372.73C1296.72 373.688 1297.95 374.247 1299.64 374.405V363.172C1298.01 363.322 1296.79 363.854 1295.98 364.768C1295.18 365.673 1294.78 367.004 1294.78 368.762ZM1306.53 368.762C1306.53 365.396 1304.93 363.542 1301.72 363.199V374.405C1303.39 374.238 1304.61 373.675 1305.37 372.717C1306.14 371.759 1306.53 370.441 1306.53 368.762ZM1321.51 376L1321.07 373.943H1320.97C1320.25 374.849 1319.52 375.464 1318.8 375.789C1318.09 376.105 1317.2 376.264 1316.13 376.264C1314.7 376.264 1313.57 375.895 1312.75 375.156C1311.94 374.418 1311.54 373.368 1311.54 372.005C1311.54 369.087 1313.87 367.558 1318.54 367.417L1320.99 367.338V366.442C1320.99 365.308 1320.75 364.473 1320.25 363.937C1319.77 363.392 1318.99 363.12 1317.92 363.12C1316.72 363.12 1315.35 363.489 1313.83 364.227L1313.16 362.553C1313.87 362.166 1314.65 361.863 1315.5 361.643C1316.35 361.423 1317.2 361.313 1318.05 361.313C1319.78 361.313 1321.05 361.696 1321.88 362.46C1322.71 363.225 1323.13 364.451 1323.13 366.139V376H1321.51ZM1316.56 374.458C1317.93 374.458 1318.99 374.084 1319.77 373.337C1320.55 372.59 1320.94 371.544 1320.94 370.199V368.894L1318.75 368.986C1317.01 369.048 1315.75 369.32 1314.98 369.804C1314.22 370.278 1313.83 371.021 1313.83 372.032C1313.83 372.823 1314.07 373.425 1314.55 373.838C1315.03 374.251 1315.7 374.458 1316.56 374.458ZM1336.07 361.551H1338.47L1332.24 368.525L1338.99 376H1336.43L1329.84 368.683V376H1327.65V361.551H1329.84V368.578L1336.07 361.551ZM1351.42 363.423H1346.73V376H1344.54V363.423H1339.9V361.551H1351.42V363.423Z" fill="white"/>
<path d="M670.798 368.762C670.798 370.951 670.174 372.695 668.926 373.996C667.687 375.288 665.951 376.026 663.718 376.211V382.486H661.556V376.211C659.376 376.044 657.654 375.297 656.388 373.97C655.123 372.643 654.49 370.907 654.49 368.762C654.49 366.574 655.118 364.833 656.375 363.542C657.641 362.25 659.394 361.516 661.635 361.34V355.486H663.718V361.34C665.924 361.542 667.656 362.302 668.913 363.621C670.169 364.939 670.798 366.653 670.798 368.762ZM656.784 368.762C656.784 370.45 657.17 371.772 657.944 372.73C658.717 373.688 659.948 374.247 661.635 374.405V363.172C660.009 363.322 658.792 363.854 657.983 364.768C657.184 365.673 656.784 367.004 656.784 368.762ZM668.53 368.762C668.53 365.396 666.926 363.542 663.718 363.199V374.405C665.388 374.238 666.605 373.675 667.37 372.717C668.144 371.759 668.53 370.441 668.53 368.762ZM683.507 376L683.072 373.943H682.966C682.246 374.849 681.525 375.464 680.804 375.789C680.092 376.105 679.2 376.264 678.128 376.264C676.695 376.264 675.57 375.895 674.753 375.156C673.944 374.418 673.54 373.368 673.54 372.005C673.54 369.087 675.874 367.558 680.541 367.417L682.993 367.338V366.442C682.993 365.308 682.747 364.473 682.254 363.937C681.771 363.392 680.993 363.12 679.921 363.12C678.717 363.12 677.354 363.489 675.834 364.227L675.162 362.553C675.874 362.166 676.651 361.863 677.495 361.643C678.348 361.423 679.2 361.313 680.053 361.313C681.775 361.313 683.05 361.696 683.876 362.46C684.711 363.225 685.128 364.451 685.128 366.139V376H683.507ZM678.563 374.458C679.925 374.458 680.993 374.084 681.767 373.337C682.549 372.59 682.94 371.544 682.94 370.199V368.894L680.751 368.986C679.011 369.048 677.754 369.32 676.981 369.804C676.216 370.278 675.834 371.021 675.834 372.032C675.834 372.823 676.071 373.425 676.546 373.838C677.029 374.251 677.702 374.458 678.563 374.458ZM698.075 361.551H700.474L694.238 368.525L700.988 376H698.431L691.839 368.683V376H689.65V361.551H691.839V368.578L698.075 361.551ZM713.42 363.423H708.727V376H706.539V363.423H701.898V361.551H713.42V363.423Z" fill="white"/>
<path d="M658.192 299L687.68 234.547H648.954V220.582H705.297V231.002L675.595 299H658.192ZM768.139 299H713.246V287.452L732.958 267.525C738.795 261.546 742.608 257.41 744.398 255.118C746.189 252.791 747.478 250.642 748.266 248.673C749.053 246.703 749.447 244.662 749.447 242.55C749.447 239.399 748.57 237.053 746.815 235.514C745.097 233.974 742.787 233.204 739.887 233.204C736.843 233.204 733.889 233.902 731.024 235.299C728.16 236.695 725.17 238.683 722.055 241.261L713.031 230.572C716.898 227.278 720.103 224.951 722.646 223.59C725.188 222.229 727.963 221.191 730.971 220.475C733.979 219.723 737.344 219.347 741.068 219.347C745.974 219.347 750.307 220.242 754.066 222.032C757.826 223.823 760.744 226.329 762.821 229.552C764.898 232.774 765.937 236.463 765.937 240.616C765.937 244.233 765.292 247.634 764.003 250.821C762.75 253.972 760.78 257.213 758.095 260.543C755.445 263.873 750.754 268.618 744.022 274.776L733.925 284.283V285.035H768.139V299ZM796.337 287.452C794.475 294.685 791.324 303.261 786.884 313.18H775.067C777.395 303.655 779.203 294.667 780.492 286.217H795.531L796.337 287.452ZM807.455 265.646C807.455 250.105 810.731 238.539 817.284 230.948C823.873 223.357 833.72 219.562 846.825 219.562C851.301 219.562 854.81 219.83 857.353 220.367V233.634C854.166 232.918 851.015 232.56 847.899 232.56C842.206 232.56 837.551 233.419 833.935 235.138C830.354 236.856 827.668 239.399 825.878 242.765C824.088 246.131 823.031 250.911 822.709 257.105H823.407C826.952 251.018 832.628 247.975 840.434 247.975C847.452 247.975 852.948 250.177 856.923 254.581C860.897 258.985 862.885 265.073 862.885 272.843C862.885 281.222 860.521 287.864 855.795 292.77C851.068 297.639 844.516 300.074 836.137 300.074C830.336 300.074 825.269 298.731 820.937 296.046C816.64 293.36 813.31 289.439 810.946 284.283C808.619 279.127 807.455 272.914 807.455 265.646ZM835.814 286.808C839.359 286.808 842.081 285.626 843.979 283.263C845.876 280.864 846.825 277.462 846.825 273.058C846.825 269.226 845.93 266.218 844.14 264.034C842.385 261.814 839.717 260.704 836.137 260.704C832.771 260.704 829.888 261.796 827.489 263.98C825.126 266.165 823.944 268.707 823.944 271.607C823.944 275.868 825.054 279.467 827.274 282.403C829.53 285.34 832.377 286.808 835.814 286.808ZM927.499 282.726H918.046V299H901.825V282.726H868.31V271.178L902.738 220.475H918.046V269.835H927.499V282.726ZM901.825 269.835V256.515C901.825 254.295 901.915 251.072 902.094 246.847C902.273 242.621 902.416 240.169 902.523 239.488H902.094C900.769 242.424 899.175 245.289 897.313 248.082L882.919 269.835H901.825Z" fill="#01F859"/>
<path d="M658.192 489L687.68 424.547H648.954V410.582H705.297V421.002L675.595 489H658.192ZM768.139 489H713.246V477.452L732.958 457.525C738.795 451.546 742.608 447.41 744.398 445.118C746.189 442.791 747.478 440.642 748.266 438.673C749.053 436.703 749.447 434.662 749.447 432.55C749.447 429.399 748.57 427.053 746.815 425.514C745.097 423.974 742.787 423.204 739.887 423.204C736.843 423.204 733.889 423.902 731.024 425.299C728.16 426.695 725.17 428.683 722.055 431.261L713.031 420.572C716.898 417.278 720.103 414.951 722.646 413.59C725.188 412.229 727.963 411.191 730.971 410.475C733.979 409.723 737.344 409.347 741.068 409.347C745.974 409.347 750.307 410.242 754.066 412.032C757.826 413.823 760.744 416.329 762.821 419.552C764.898 422.774 765.937 426.463 765.937 430.616C765.937 434.233 765.292 437.634 764.003 440.821C762.75 443.972 760.78 447.213 758.095 450.543C755.445 453.873 750.754 458.618 744.022 464.776L733.925 474.283V475.035H768.139V489ZM796.337 477.452C794.475 484.685 791.324 493.261 786.884 503.18H775.067C777.395 493.655 779.203 484.667 780.492 476.217H795.531L796.337 477.452ZM807.455 455.646C807.455 440.105 810.731 428.539 817.284 420.948C823.873 413.357 833.72 409.562 846.825 409.562C851.301 409.562 854.81 409.83 857.353 410.367V423.634C854.166 422.918 851.015 422.56 847.899 422.56C842.206 422.56 837.551 423.419 833.935 425.138C830.354 426.856 827.668 429.399 825.878 432.765C824.088 436.131 823.031 440.911 822.709 447.105H823.407C826.952 441.018 832.628 437.975 840.434 437.975C847.452 437.975 852.948 440.177 856.923 444.581C860.897 448.985 862.885 455.073 862.885 462.843C862.885 471.222 860.521 477.864 855.795 482.77C851.068 487.639 844.516 490.074 836.137 490.074C830.336 490.074 825.269 488.731 820.937 486.046C816.64 483.36 813.31 479.439 810.946 474.283C808.619 469.127 807.455 462.914 807.455 455.646ZM835.814 476.808C839.359 476.808 842.081 475.626 843.979 473.263C845.876 470.864 846.825 467.462 846.825 463.058C846.825 459.226 845.93 456.218 844.14 454.034C842.385 451.814 839.717 450.704 836.137 450.704C832.771 450.704 829.888 451.796 827.489 453.98C825.126 456.165 823.944 458.707 823.944 461.607C823.944 465.868 825.054 469.467 827.274 472.403C829.53 475.34 832.377 476.808 835.814 476.808ZM927.499 472.726H918.046V489H901.825V472.726H868.31V461.178L902.738 410.475H918.046V459.835H927.499V472.726ZM901.825 459.835V446.515C901.825 444.295 901.915 441.072 902.094 436.847C902.273 432.621 902.416 430.169 902.523 429.488H902.094C900.769 432.424 899.175 435.289 897.313 438.082L882.919 459.835H901.825Z" fill="#01F859"/>
<circle cx="1053.5" cy="450.5" r="38.5" fill="#212B4B"/>
<path d="M1035 448L1050.5 464.5H1052.5L1074 434" stroke="#01F859" stroke-width="7"/>
<path d="M1308.19 489L1337.68 424.547H1298.95V410.582H1355.3V421.002L1325.59 489H1308.19ZM1417.71 449.737C1417.71 463.451 1415.45 473.603 1410.94 480.191C1406.47 486.78 1399.55 490.074 1390.21 490.074C1381.15 490.074 1374.31 486.673 1369.69 479.869C1365.11 473.066 1362.82 463.022 1362.82 449.737C1362.82 435.88 1365.05 425.675 1369.53 419.122C1374.01 412.534 1380.9 409.239 1390.21 409.239C1399.27 409.239 1406.11 412.677 1410.73 419.552C1415.38 426.427 1417.71 436.489 1417.71 449.737ZM1379.31 449.737C1379.31 459.369 1380.13 466.28 1381.78 470.47C1383.46 474.623 1386.27 476.7 1390.21 476.7C1394.08 476.7 1396.87 474.588 1398.59 470.362C1400.31 466.137 1401.17 459.262 1401.17 449.737C1401.17 440.105 1400.29 433.194 1398.53 429.005C1396.82 424.78 1394.04 422.667 1390.21 422.667C1386.31 422.667 1383.51 424.78 1381.83 429.005C1380.15 433.194 1379.31 440.105 1379.31 449.737ZM1446.34 477.452C1444.47 484.685 1441.32 493.261 1436.88 503.18H1425.07C1427.39 493.655 1429.2 484.667 1430.49 476.217H1445.53L1446.34 477.452ZM1514.66 472.726H1505.2V489H1488.98V472.726H1455.47V461.178L1489.9 410.475H1505.2V459.835H1514.66V472.726ZM1488.98 459.835V446.515C1488.98 444.295 1489.07 441.072 1489.25 436.847C1489.43 432.621 1489.57 430.169 1489.68 429.488H1489.25C1487.93 432.424 1486.33 435.289 1484.47 438.082L1470.08 459.835H1488.98Z" fill="#FF0000"/>
<path d="M1303.19 299L1332.68 234.547H1293.95V220.582H1350.3V231.002L1320.59 299H1303.19ZM1412.71 259.737C1412.71 273.451 1410.45 283.603 1405.94 290.191C1401.47 296.78 1394.55 300.074 1385.21 300.074C1376.15 300.074 1369.31 296.673 1364.69 289.869C1360.11 283.066 1357.82 273.022 1357.82 259.737C1357.82 245.88 1360.05 235.675 1364.53 229.122C1369.01 222.534 1375.9 219.239 1385.21 219.239C1394.27 219.239 1401.11 222.677 1405.73 229.552C1410.38 236.427 1412.71 246.489 1412.71 259.737ZM1374.31 259.737C1374.31 269.369 1375.13 276.28 1376.78 280.47C1378.46 284.623 1381.27 286.7 1385.21 286.7C1389.08 286.7 1391.87 284.588 1393.59 280.362C1395.31 276.137 1396.17 269.262 1396.17 259.737C1396.17 250.105 1395.29 243.194 1393.53 239.005C1391.82 234.78 1389.04 232.667 1385.21 232.667C1381.31 232.667 1378.51 234.78 1376.83 239.005C1375.15 243.194 1374.31 250.105 1374.31 259.737ZM1441.34 287.452C1439.47 294.685 1436.32 303.261 1431.88 313.18H1420.07C1422.39 303.655 1424.2 294.667 1425.49 286.217H1440.53L1441.34 287.452ZM1480.06 219.454C1487.58 219.454 1493.63 221.173 1498.22 224.61C1502.84 228.012 1505.15 232.613 1505.15 238.414C1505.15 242.424 1504.04 246.005 1501.82 249.156C1499.6 252.271 1496.01 255.064 1491.07 257.535C1496.95 260.686 1501.15 263.98 1503.7 267.418C1506.27 270.82 1507.56 274.562 1507.56 278.644C1507.56 285.089 1505.04 290.281 1499.99 294.22C1494.94 298.123 1488.3 300.074 1480.06 300.074C1471.47 300.074 1464.72 298.248 1459.81 294.596C1454.91 290.943 1452.46 285.769 1452.46 279.073C1452.46 274.597 1453.64 270.623 1456 267.149C1458.4 263.676 1462.23 260.615 1467.49 257.965C1463.02 255.136 1459.8 252.11 1457.83 248.888C1455.86 245.665 1454.87 242.138 1454.87 238.307C1454.87 232.685 1457.2 228.137 1461.85 224.664C1466.51 221.191 1472.58 219.454 1480.06 219.454ZM1467.82 278.106C1467.82 281.186 1468.89 283.585 1471.04 285.304C1473.19 287.022 1476.12 287.882 1479.85 287.882C1483.97 287.882 1487.04 287.005 1489.09 285.25C1491.13 283.46 1492.15 281.114 1492.15 278.214C1492.15 275.815 1491.13 273.577 1489.09 271.5C1487.08 269.387 1483.8 267.149 1479.26 264.786C1471.63 268.295 1467.82 272.735 1467.82 278.106ZM1479.96 231.593C1477.13 231.593 1474.83 232.327 1473.08 233.795C1471.36 235.227 1470.5 237.161 1470.5 239.596C1470.5 241.744 1471.18 243.678 1472.54 245.396C1473.94 247.079 1476.45 248.816 1480.06 250.606C1483.57 248.959 1486.02 247.276 1487.42 245.558C1488.82 243.839 1489.52 241.852 1489.52 239.596C1489.52 237.125 1488.62 235.174 1486.83 233.741C1485.04 232.309 1482.75 231.593 1479.96 231.593Z" fill="#01F859"/>
<line x1="1" y1="106" x2="1906" y2="106" stroke="#6A7186" stroke-width="4"/>
<line x1="-3.49691e-06" y1="636" x2="1906" y2="636" stroke="url(#paint0_linear)" stroke-width="80"/>
<path d="M46.5625 648L36.875 622.688H36.7188C36.901 624.693 36.9922 627.076 36.9922 629.836V648H33.9258V619.445H38.9258L47.9688 643H48.125L57.2461 619.445H62.207V648H58.8867V629.602C58.8867 627.492 58.9779 625.201 59.1602 622.727H59.0039L49.2383 648H46.5625ZM66.1719 626.594H69.6484L74.3359 638.801C75.3646 641.587 76.0026 643.599 76.25 644.836H76.4062C76.5755 644.172 76.9271 643.039 77.4609 641.438C78.0078 639.823 79.7786 634.875 82.7734 626.594H86.25L77.0508 650.969C76.1393 653.378 75.0716 655.083 73.8477 656.086C72.6367 657.102 71.1458 657.609 69.375 657.609C68.3854 657.609 67.4089 657.499 66.4453 657.277V654.68C67.1615 654.836 67.9622 654.914 68.8477 654.914C71.0742 654.914 72.6628 653.664 73.6133 651.164L74.8047 648.117L66.1719 626.594ZM99.4922 626.633H102.48V637.004L111.328 626.633H114.883L105.938 637.004L115.645 648H111.895L102.48 637.16V648H99.4922V637.16L90.0977 648H86.3672L96.0547 637.004L87.1289 626.633H90.6836L99.4922 637.004V626.633ZM122.031 626.594V634.406C122.031 636.906 123.457 638.156 126.309 638.156C127.493 638.156 128.626 637.974 129.707 637.609C130.788 637.245 132.012 636.626 133.379 635.754V626.594H136.621V648H133.379V638.312C132.012 639.25 130.742 639.914 129.57 640.305C128.411 640.682 127.096 640.871 125.625 640.871C123.49 640.871 121.816 640.311 120.605 639.191C119.395 638.072 118.789 636.555 118.789 634.641V626.594H122.031ZM146.562 626.594V640.168L146.426 643.723L146.367 644.836L157.949 626.594H161.992V648H158.965V634.914L159.023 632.336L159.121 629.797L147.559 648H143.516V626.594H146.562ZM172.109 626.594V635.559H184.102V626.594H187.344V648H184.102V638.352H172.109V648H168.867V626.594H172.109ZM197.461 635.441H203.301C206.022 635.441 208.034 635.949 209.336 636.965C210.651 637.967 211.309 639.471 211.309 641.477C211.309 643.625 210.612 645.253 209.219 646.359C207.839 647.453 205.801 648 203.105 648H194.219V626.594H197.461V635.441ZM218.145 648H214.902V626.594H218.145V648ZM197.461 638.234V645.285H202.949C206.387 645.285 208.105 644.081 208.105 641.672C208.105 640.474 207.708 639.602 206.914 639.055C206.12 638.508 204.766 638.234 202.852 638.234H197.461Z" fill="white"/>
<path d="M4.86719 788.646C4.86719 773.105 8.14355 761.539 14.6963 753.948C21.2848 746.357 31.1318 742.562 44.2373 742.562C48.7132 742.562 52.2223 742.83 54.7646 743.367V756.634C51.5778 755.918 48.4268 755.56 45.3115 755.56C39.6182 755.56 34.9632 756.419 31.3467 758.138C27.766 759.856 25.0804 762.399 23.29 765.765C21.4997 769.131 20.4434 773.911 20.1211 780.105H20.8193C24.3643 774.018 30.0397 770.975 37.8457 770.975C44.8639 770.975 50.3604 773.177 54.335 777.581C58.3096 781.985 60.2969 788.073 60.2969 795.843C60.2969 804.222 57.9336 810.864 53.207 815.77C48.4805 820.639 41.9277 823.074 33.5488 823.074C27.748 823.074 22.6813 821.731 18.3486 819.046C14.0518 816.36 10.7217 812.439 8.3584 807.283C6.03092 802.127 4.86719 795.914 4.86719 788.646ZM33.2266 809.808C36.7715 809.808 39.4928 808.626 41.3906 806.263C43.2884 803.864 44.2373 800.462 44.2373 796.058C44.2373 792.226 43.3421 789.218 41.5518 787.034C39.7972 784.814 37.1296 783.704 33.5488 783.704C30.1829 783.704 27.3005 784.796 24.9014 786.98C22.5381 789.165 21.3564 791.707 21.3564 794.607C21.3564 798.868 22.4665 802.467 24.6865 805.403C26.9424 808.34 29.7891 809.808 33.2266 809.808ZM67.709 788.646C67.709 773.105 70.9854 761.539 77.5381 753.948C84.1266 746.357 93.9736 742.562 107.079 742.562C111.555 742.562 115.064 742.83 117.606 743.367V756.634C114.42 755.918 111.269 755.56 108.153 755.56C102.46 755.56 97.805 756.419 94.1885 758.138C90.6077 759.856 87.9222 762.399 86.1318 765.765C84.3415 769.131 83.2852 773.911 82.9629 780.105H83.6611C87.2061 774.018 92.8815 770.975 100.688 770.975C107.706 770.975 113.202 773.177 117.177 777.581C121.151 781.985 123.139 788.073 123.139 795.843C123.139 804.222 120.775 810.864 116.049 815.77C111.322 820.639 104.77 823.074 96.3906 823.074C90.5898 823.074 85.5231 821.731 81.1904 819.046C76.8936 816.36 73.5635 812.439 71.2002 807.283C68.8727 802.127 67.709 795.914 67.709 788.646ZM96.0684 809.808C99.6133 809.808 102.335 808.626 104.232 806.263C106.13 803.864 107.079 800.462 107.079 796.058C107.079 792.226 106.184 789.218 104.394 787.034C102.639 784.814 99.9714 783.704 96.3906 783.704C93.0247 783.704 90.1423 784.796 87.7432 786.98C85.3799 789.165 84.1982 791.707 84.1982 794.607C84.1982 798.868 85.3083 802.467 87.5283 805.403C89.7842 808.34 92.6309 809.808 96.0684 809.808ZM151.337 810.452C149.475 817.685 146.324 826.261 141.884 836.18H130.067C132.395 826.655 134.203 817.667 135.492 809.217H150.531L151.337 810.452ZM162.455 788.646C162.455 773.105 165.731 761.539 172.284 753.948C178.873 746.357 188.72 742.562 201.825 742.562C206.301 742.562 209.81 742.83 212.353 743.367V756.634C209.166 755.918 206.015 755.56 202.899 755.56C197.206 755.56 192.551 756.419 188.935 758.138C185.354 759.856 182.668 762.399 180.878 765.765C179.088 769.131 178.031 773.911 177.709 780.105H178.407C181.952 774.018 187.628 770.975 195.434 770.975C202.452 770.975 207.948 773.177 211.923 777.581C215.897 781.985 217.885 788.073 217.885 795.843C217.885 804.222 215.521 810.864 210.795 815.77C206.068 820.639 199.516 823.074 191.137 823.074C185.336 823.074 180.269 821.731 175.937 819.046C171.64 816.36 168.31 812.439 165.946 807.283C163.619 802.127 162.455 795.914 162.455 788.646ZM190.814 809.808C194.359 809.808 197.081 808.626 198.979 806.263C200.876 803.864 201.825 800.462 201.825 796.058C201.825 792.226 200.93 789.218 199.14 787.034C197.385 784.814 194.717 783.704 191.137 783.704C187.771 783.704 184.888 784.796 182.489 786.98C180.126 789.165 178.944 791.707 178.944 794.607C178.944 798.868 180.054 802.467 182.274 805.403C184.53 808.34 187.377 809.808 190.814 809.808ZM280.404 776.99C280.404 792.459 277.146 804.007 270.629 811.634C264.112 819.261 254.247 823.074 241.034 823.074C236.379 823.074 232.852 822.824 230.453 822.322V809.002C233.461 809.754 236.612 810.13 239.906 810.13C245.456 810.13 250.022 809.324 253.603 807.713C257.183 806.066 259.923 803.506 261.82 800.032C263.718 796.523 264.81 791.707 265.097 785.584H264.452C262.375 788.95 259.976 791.313 257.255 792.674C254.534 794.035 251.132 794.715 247.05 794.715C240.211 794.715 234.822 792.531 230.883 788.162C226.944 783.758 224.975 777.653 224.975 769.847C224.975 761.432 227.356 754.79 232.118 749.92C236.916 745.014 243.433 742.562 251.669 742.562C257.47 742.562 262.536 743.922 266.869 746.644C271.238 749.365 274.586 753.322 276.913 758.514C279.241 763.67 280.404 769.829 280.404 776.99ZM251.991 755.882C248.554 755.882 245.868 757.063 243.935 759.427C242.001 761.79 241.034 765.192 241.034 769.632C241.034 773.427 241.911 776.435 243.666 778.655C245.421 780.875 248.088 781.985 251.669 781.985C255.035 781.985 257.917 780.893 260.316 778.709C262.715 776.489 263.915 773.947 263.915 771.082C263.915 766.821 262.787 763.222 260.531 760.286C258.311 757.35 255.465 755.882 251.991 755.882Z" fill="#FF0000"/>
<path d="M649.867 788.646C649.867 773.105 653.144 761.539 659.696 753.948C666.285 746.357 676.132 742.562 689.237 742.562C693.713 742.562 697.222 742.83 699.765 743.367V756.634C696.578 755.918 693.427 755.56 690.312 755.56C684.618 755.56 679.963 756.419 676.347 758.138C672.766 759.856 670.08 762.399 668.29 765.765C666.5 769.131 665.443 773.911 665.121 780.105H665.819C669.364 774.018 675.04 770.975 682.846 770.975C689.864 770.975 695.36 773.177 699.335 777.581C703.31 781.985 705.297 788.073 705.297 795.843C705.297 804.222 702.934 810.864 698.207 815.77C693.48 820.639 686.928 823.074 678.549 823.074C672.748 823.074 667.681 821.731 663.349 819.046C659.052 816.36 655.722 812.439 653.358 807.283C651.031 802.127 649.867 795.914 649.867 788.646ZM678.227 809.808C681.771 809.808 684.493 808.626 686.391 806.263C688.288 803.864 689.237 800.462 689.237 796.058C689.237 792.226 688.342 789.218 686.552 787.034C684.797 784.814 682.13 783.704 678.549 783.704C675.183 783.704 672.3 784.796 669.901 786.98C667.538 789.165 666.356 791.707 666.356 794.607C666.356 798.868 667.466 802.467 669.687 805.403C671.942 808.34 674.789 809.808 678.227 809.808ZM721.034 822L750.521 757.547H711.796V743.582H768.139V754.002L738.437 822H721.034ZM796.337 810.452C794.475 817.685 791.324 826.261 786.884 836.18H775.067C777.395 826.655 779.203 817.667 780.492 809.217H795.531L796.337 810.452ZM862.885 822H807.992V810.452L827.704 790.525C833.541 784.546 837.354 780.41 839.145 778.118C840.935 775.791 842.224 773.642 843.012 771.673C843.799 769.703 844.193 767.662 844.193 765.55C844.193 762.399 843.316 760.053 841.562 758.514C839.843 756.974 837.533 756.204 834.633 756.204C831.589 756.204 828.635 756.902 825.771 758.299C822.906 759.695 819.916 761.683 816.801 764.261L807.777 753.572C811.645 750.278 814.849 747.951 817.392 746.59C819.934 745.229 822.709 744.191 825.717 743.475C828.725 742.723 832.09 742.347 835.814 742.347C840.72 742.347 845.053 743.242 848.812 745.032C852.572 746.823 855.491 749.329 857.567 752.552C859.644 755.774 860.683 759.463 860.683 763.616C860.683 767.233 860.038 770.634 858.749 773.821C857.496 776.972 855.526 780.213 852.841 783.543C850.191 786.873 845.5 791.618 838.769 797.776L828.671 807.283V808.035H862.885V822ZM870.297 788.646C870.297 773.105 873.573 761.539 880.126 753.948C886.715 746.357 896.562 742.562 909.667 742.562C914.143 742.562 917.652 742.83 920.194 743.367V756.634C917.007 755.918 913.856 755.56 910.741 755.56C905.048 755.56 900.393 756.419 896.776 758.138C893.196 759.856 890.51 762.399 888.72 765.765C886.929 769.131 885.873 773.911 885.551 780.105H886.249C889.794 774.018 895.469 770.975 903.275 770.975C910.294 770.975 915.79 773.177 919.765 777.581C923.739 781.985 925.727 788.073 925.727 795.843C925.727 804.222 923.363 810.864 918.637 815.77C913.91 820.639 907.357 823.074 898.979 823.074C893.178 823.074 888.111 821.731 883.778 819.046C879.481 816.36 876.151 812.439 873.788 807.283C871.461 802.127 870.297 795.914 870.297 788.646ZM898.656 809.808C902.201 809.808 904.923 808.626 906.82 806.263C908.718 803.864 909.667 800.462 909.667 796.058C909.667 792.226 908.772 789.218 906.981 787.034C905.227 784.814 902.559 783.704 898.979 783.704C895.613 783.704 892.73 784.796 890.331 786.98C887.968 789.165 886.786 791.707 886.786 794.607C886.786 798.868 887.896 802.467 890.116 805.403C892.372 808.34 895.219 809.808 898.656 809.808Z" fill="#FF0000"/>
<path d="M1294.28 799.227V785.799H1323.12V799.227H1294.28Z" fill="#FF0000"/>
<line x1="1" y1="968" x2="1906" y2="968" stroke="url(#paint1_linear)" stroke-width="80"/>
<path d="M42.6797 967.312L31.4492 953.445H35.1602L46.2734 967.273V953.445H49.4766V967.273L60.6094 953.445H64.3203L53.0703 967.273L64.6719 982H60.8438L49.4766 967.527V982H46.2734V967.527L34.9258 982H31.0391L42.6797 967.312ZM77.2695 982.391C74.1055 982.391 71.6055 981.427 69.7695 979.5C67.9466 977.573 67.0352 974.897 67.0352 971.473C67.0352 968.022 67.8815 965.281 69.5742 963.25C71.2799 961.219 73.5651 960.203 76.4297 960.203C79.112 960.203 81.2344 961.089 82.7969 962.859C84.3594 964.617 85.1406 966.941 85.1406 969.832V971.883H70.3945C70.4596 974.396 71.0911 976.303 72.2891 977.605C73.5 978.908 75.1992 979.559 77.3867 979.559C79.6914 979.559 81.9701 979.077 84.2227 978.113V981.004C83.0768 981.499 81.9896 981.85 80.9609 982.059C79.9453 982.28 78.7148 982.391 77.2695 982.391ZM76.3906 962.918C74.6719 962.918 73.2982 963.478 72.2695 964.598C71.2539 965.717 70.6549 967.267 70.4727 969.246H81.6641C81.6641 967.202 81.2083 965.639 80.2969 964.559C79.3854 963.465 78.0833 962.918 76.3906 962.918ZM93.9297 960.594V969.559H105.922V960.594H109.164V982H105.922V972.352H93.9297V982H90.6875V960.594H93.9297ZM131.996 979.207H141.488V960.633H144.73V979.207H147.797V989.363H144.516V982H116.039V960.633H119.281V979.207H128.754V960.633H131.996V979.207ZM154.984 960.594V974.168L154.848 977.723L154.789 978.836L166.371 960.594H170.414V982H167.387V968.914L167.445 966.336L167.543 963.797L155.98 982H151.938V960.594H154.984ZM180.531 960.594V969.559H192.523V960.594H195.766V982H192.523V972.352H180.531V982H177.289V960.594H180.531ZM205.883 969.441H211.723C214.444 969.441 216.456 969.949 217.758 970.965C219.073 971.967 219.73 973.471 219.73 975.477C219.73 977.625 219.034 979.253 217.641 980.359C216.26 981.453 214.223 982 211.527 982H202.641V960.594H205.883V969.441ZM226.566 982H223.324V960.594H226.566V982ZM205.883 972.234V979.285H211.371C214.809 979.285 216.527 978.081 216.527 975.672C216.527 974.474 216.13 973.602 215.336 973.055C214.542 972.508 213.188 972.234 211.273 972.234H205.883Z" fill="white"/>
<path d="M13.1924 1153L42.6797 1088.55H3.9541V1074.58H60.2969V1085L30.5947 1153H13.1924ZM76.0342 1153L105.521 1088.55H66.7959V1074.58H123.139V1085L93.4365 1153H76.0342ZM151.337 1141.45C149.475 1148.69 146.324 1157.26 141.884 1167.18H130.067C132.395 1157.65 134.203 1148.67 135.492 1140.22H150.531L151.337 1141.45ZM219.657 1136.73H210.204V1153H193.983V1136.73H160.468V1125.18L194.896 1074.47H210.204V1123.83H219.657V1136.73ZM193.983 1123.83V1110.51C193.983 1108.29 194.073 1105.07 194.252 1100.85C194.431 1096.62 194.574 1094.17 194.682 1093.49H194.252C192.927 1096.42 191.334 1099.29 189.472 1102.08L175.077 1123.83H193.983Z" fill="#FF0000"/>
<path d="M658.192 1153L687.68 1088.55H648.954V1074.58H705.297V1085L675.595 1153H658.192ZM721.034 1153L750.521 1088.55H711.796V1074.58H768.139V1085L738.437 1153H721.034ZM796.337 1141.45C794.475 1148.69 791.324 1157.26 786.884 1167.18H775.067C777.395 1157.65 779.203 1148.67 780.492 1140.22H795.531L796.337 1141.45ZM862.562 1107.99C862.562 1123.46 859.304 1135.01 852.787 1142.63C846.27 1150.26 836.405 1154.07 823.192 1154.07C818.537 1154.07 815.01 1153.82 812.611 1153.32V1140C815.619 1140.75 818.77 1141.13 822.064 1141.13C827.615 1141.13 832.18 1140.32 835.761 1138.71C839.341 1137.07 842.081 1134.51 843.979 1131.03C845.876 1127.52 846.968 1122.71 847.255 1116.58H846.61C844.534 1119.95 842.134 1122.31 839.413 1123.67C836.692 1125.03 833.29 1125.71 829.208 1125.71C822.369 1125.71 816.98 1123.53 813.041 1119.16C809.102 1114.76 807.133 1108.65 807.133 1100.85C807.133 1092.43 809.514 1085.79 814.276 1080.92C819.075 1076.01 825.591 1073.56 833.827 1073.56C839.628 1073.56 844.695 1074.92 849.027 1077.64C853.396 1080.36 856.744 1084.32 859.071 1089.51C861.399 1094.67 862.562 1100.83 862.562 1107.99ZM834.149 1086.88C830.712 1086.88 828.026 1088.06 826.093 1090.43C824.159 1092.79 823.192 1096.19 823.192 1100.63C823.192 1104.43 824.07 1107.44 825.824 1109.66C827.579 1111.88 830.246 1112.99 833.827 1112.99C837.193 1112.99 840.076 1111.89 842.475 1109.71C844.874 1107.49 846.073 1104.95 846.073 1102.08C846.073 1097.82 844.945 1094.22 842.689 1091.29C840.469 1088.35 837.623 1086.88 834.149 1086.88ZM870.297 1119.65C870.297 1104.11 873.573 1092.54 880.126 1084.95C886.715 1077.36 896.562 1073.56 909.667 1073.56C914.143 1073.56 917.652 1073.83 920.194 1074.37V1087.63C917.007 1086.92 913.856 1086.56 910.741 1086.56C905.048 1086.56 900.393 1087.42 896.776 1089.14C893.196 1090.86 890.51 1093.4 888.72 1096.76C886.929 1100.13 885.873 1104.91 885.551 1111.11H886.249C889.794 1105.02 895.469 1101.97 903.275 1101.97C910.294 1101.97 915.79 1104.18 919.765 1108.58C923.739 1112.99 925.727 1119.07 925.727 1126.84C925.727 1135.22 923.363 1141.86 918.637 1146.77C913.91 1151.64 907.357 1154.07 898.979 1154.07C893.178 1154.07 888.111 1152.73 883.778 1150.05C879.481 1147.36 876.151 1143.44 873.788 1138.28C871.461 1133.13 870.297 1126.91 870.297 1119.65ZM898.656 1140.81C902.201 1140.81 904.923 1139.63 906.82 1137.26C908.718 1134.86 909.667 1131.46 909.667 1127.06C909.667 1123.23 908.772 1120.22 906.981 1118.03C905.227 1115.81 902.559 1114.7 898.979 1114.7C895.613 1114.7 892.73 1115.8 890.331 1117.98C887.968 1120.16 886.786 1122.71 886.786 1125.61C886.786 1129.87 887.896 1133.47 890.116 1136.4C892.372 1139.34 895.219 1140.81 898.656 1140.81Z" fill="#FF0000"/>
<path d="M1294.28 1130.23V1116.8H1323.12V1130.23H1294.28Z" fill="#FF0000"/>
<g clip-path="url(#clip0)">
<path d="M1977.08 767.742C1976.28 765.557 1974.06 764.338 1971.84 764.338C1970.71 764.338 1970.63 764.38 1969.96 764.38H1950.11C1947.56 764.38 1945.72 765.599 1944.88 767.784L1935.29 797.072C1934.37 799.551 1935.63 802.282 1938.06 803.249C1940.48 804.173 1943.21 802.913 1944.13 800.434L1946.68 793.542C1946.68 793.542 1946.85 792.828 1946.85 795.895V836.571C1946.85 840.143 1949.7 843 1953.21 843C1956.73 843 1959.58 840.101 1959.58 836.571V809.972C1959.58 809.972 1959.53 809.72 1959.79 809.72H1962.17C1962.42 809.72 1962.38 809.972 1962.38 809.972V836.571C1962.38 840.143 1965.23 843 1968.75 843C1972.26 843 1975.11 840.101 1975.11 836.571V795.895C1975.11 792.828 1975.36 793.794 1975.36 793.794L1977.83 800.476C1978.75 802.955 1981.47 804.215 1983.9 803.291C1986.33 802.367 1987.59 799.593 1986.66 797.114L1977.08 767.742Z" fill="#2B3658"/>
<path d="M1974.77 747.572C1974.77 755.052 1968.66 761.145 1961.13 761.145C1953.59 761.145 1947.48 755.094 1947.48 747.572C1947.48 740.051 1953.59 734 1961.13 734C1968.66 734 1974.77 740.051 1974.77 747.572Z" fill="#2B3658"/>
</g>
<path d="M1976.16 1074.65C1976.16 1082.18 1969.97 1088.29 1962.33 1088.29C1954.69 1088.29 1948.5 1082.18 1948.5 1074.65C1948.5 1067.11 1954.69 1061 1962.33 1061C1969.97 1061 1976.16 1067.11 1976.16 1074.65Z" fill="#2B3658"/>
<path d="M1989.53 1122.98L1977.74 1094.64C1977.06 1093.22 1976.46 1091.29 1973.7 1091.29H1952.74C1949.98 1091.29 1948.54 1093.05 1947.73 1094.68L1935.51 1122.77C1934.32 1125.11 1935.3 1128 1937.67 1129.13C1940.05 1130.3 1942.89 1129.3 1944.08 1126.96L1945.02 1125.07C1945.02 1125.07 1945.31 1124.57 1945.19 1125.11C1944.51 1128.59 1942.68 1139.01 1942.68 1139.01C1942.21 1141.19 1943.7 1142.95 1945.95 1142.95H1951.3C1951.68 1142.95 1951.59 1143.24 1951.59 1143.24V1164.21C1951.59 1167.73 1953.8 1169.57 1956.56 1169.57C1959.27 1169.57 1961.52 1167.73 1961.52 1164.21V1143.15C1961.52 1143.15 1961.52 1142.95 1961.74 1142.95C1962.03 1142.95 1962.75 1142.95 1963.09 1142.95C1963.26 1142.95 1963.26 1143.15 1963.26 1143.15V1164.17C1963.26 1167.68 1965.47 1169.53 1968.23 1169.53C1970.95 1169.53 1973.19 1167.68 1973.19 1164.17V1143.28C1973.19 1143.28 1973.15 1142.95 1973.58 1142.95H1979.31C1981.55 1142.95 1983.04 1141.15 1982.66 1138.97C1982.66 1138.97 1980.79 1127.79 1980.32 1124.74C1980.2 1123.86 1981.64 1126.96 1981.64 1126.96C1982.79 1129.34 1984.95 1130.35 1987.33 1129.22C1989.62 1128.17 1990.68 1125.36 1989.53 1122.98Z" fill="#2B3658"/>
<circle cx="1621.5" cy="450.5" r="38.5" fill="#212B4B"/>
<line x1="1607.47" y1="437.525" x2="1636.47" y2="466.525" stroke="#FF0000" stroke-width="7"/>
<line x1="1636.47" y1="436.475" x2="1607.47" y2="465.475" stroke="#FF0000" stroke-width="7"/>
<defs>
<linearGradient id="paint0_linear" x1="1906" y1="675.976" x2="-1.8576e-08" y2="675.998" gradientUnits="userSpaceOnUse">
<stop stop-color="#00CD77"/>
<stop offset="0.410127" stop-color="#6A7186"/>
</linearGradient>
<linearGradient id="paint1_linear" x1="1906" y1="1007.98" x2="1" y2="1008" gradientUnits="userSpaceOnUse">
<stop stop-color="#00CD77"/>
<stop offset="0.410127" stop-color="#6A7186"/>
</linearGradient>
<clipPath id="clip0">
<rect width="52" height="109" fill="white" transform="translate(1935 734)"/>
</clipPath>
</defs>
</svg>
