<svg width="1989" height="977" viewBox="0 0 1989 977" fill="none" xmlns="http://www.w3.org/2000/svg">
<rect x="615" width="645" height="977" fill="#C4C4C4" fill-opacity="0.05"/>
<path d="M26.9531 74H2.00195V68.751L10.9619 59.6934C13.6149 56.9753 15.3483 55.0954 16.1621 54.0537C16.9759 52.9958 17.5618 52.0192 17.9199 51.124C18.278 50.2288 18.457 49.3011 18.457 48.3408C18.457 46.9085 18.0583 45.8424 17.2607 45.1426C16.4795 44.4427 15.4297 44.0928 14.1113 44.0928C12.7279 44.0928 11.3851 44.4102 10.083 45.0449C8.78092 45.6797 7.42188 46.583 6.00586 47.7549L1.9043 42.8965C3.66211 41.3991 5.11882 40.3411 6.27441 39.7227C7.43001 39.1042 8.69141 38.6322 10.0586 38.3066C11.4258 37.9648 12.9557 37.7939 14.6484 37.7939C16.8783 37.7939 18.8477 38.2008 20.5566 39.0146C22.2656 39.8285 23.5921 40.9678 24.5361 42.4326C25.4801 43.8975 25.9521 45.5739 25.9521 47.4619C25.9521 49.1058 25.6592 50.652 25.0732 52.1006C24.5036 53.5329 23.6084 55.0059 22.3877 56.5195C21.1833 58.0332 19.0511 60.1898 15.9912 62.9893L11.4014 67.3105V67.6523H26.9531V74ZM55.3223 56.1533C55.3223 62.387 54.2969 67.0013 52.2461 69.9961C50.2116 72.9909 47.0703 74.4883 42.8223 74.4883C38.7044 74.4883 35.5957 72.9421 33.4961 69.8496C31.4128 66.7572 30.3711 62.1917 30.3711 56.1533C30.3711 49.8545 31.3883 45.2158 33.4229 42.2373C35.4574 39.2425 38.5905 37.7451 42.8223 37.7451C46.9401 37.7451 50.0488 39.3076 52.1484 42.4326C54.2643 45.5576 55.3223 50.1312 55.3223 56.1533ZM37.8662 56.1533C37.8662 60.5316 38.2406 63.6729 38.9893 65.5771C39.7542 67.4652 41.0319 68.4092 42.8223 68.4092C44.5801 68.4092 45.8496 67.4489 46.6309 65.5283C47.4121 63.6077 47.8027 60.4827 47.8027 56.1533C47.8027 51.7751 47.404 48.6338 46.6064 46.7295C45.8252 44.8089 44.5638 43.8486 42.8223 43.8486C41.0482 43.8486 39.7786 44.8089 39.0137 46.7295C38.2487 48.6338 37.8662 51.7751 37.8662 56.1533ZM77.7832 74H70.2393V53.3457L70.3125 49.9521L70.4346 46.2412C69.1813 47.4945 68.3105 48.3164 67.8223 48.707L63.7207 52.0029L60.083 47.4619L71.582 38.3066H77.7832V74ZM100 37.8428C103.418 37.8428 106.169 38.624 108.252 40.1865C110.352 41.7327 111.401 43.8242 111.401 46.4609C111.401 48.2839 110.897 49.9115 109.888 51.3438C108.879 52.7598 107.251 54.0293 105.005 55.1523C107.674 56.5846 109.587 58.082 110.742 59.6445C111.914 61.1908 112.5 62.8916 112.5 64.7471C112.5 67.6768 111.353 70.0368 109.058 71.8271C106.763 73.6012 103.743 74.4883 100 74.4883C96.0938 74.4883 93.0257 73.6582 90.7959 71.998C88.5661 70.3379 87.4512 67.986 87.4512 64.9424C87.4512 62.9079 87.9883 61.1012 89.0625 59.5225C90.153 57.9437 91.8945 56.5521 94.2871 55.3477C92.2526 54.0618 90.7878 52.6865 89.8926 51.2217C88.9974 49.7568 88.5498 48.1536 88.5498 46.4121C88.5498 43.8568 89.6077 41.7897 91.7236 40.2109C93.8395 38.6322 96.5983 37.8428 100 37.8428ZM94.4336 64.5029C94.4336 65.9027 94.9219 66.9932 95.8984 67.7744C96.875 68.5557 98.2096 68.9463 99.9023 68.9463C101.774 68.9463 103.174 68.5475 104.102 67.75C105.029 66.9362 105.493 65.8701 105.493 64.5518C105.493 63.4613 105.029 62.444 104.102 61.5C103.19 60.5397 101.701 59.5225 99.6338 58.4482C96.167 60.0433 94.4336 62.0615 94.4336 64.5029ZM99.9512 43.3604C98.6654 43.3604 97.6237 43.694 96.8262 44.3613C96.0449 45.0124 95.6543 45.8913 95.6543 46.998C95.6543 47.9746 95.9635 48.8535 96.582 49.6348C97.2168 50.3997 98.3561 51.1891 100 52.0029C101.595 51.2542 102.71 50.4893 103.345 49.708C103.979 48.9268 104.297 48.0234 104.297 46.998C104.297 45.875 103.89 44.988 103.076 44.3369C102.262 43.6859 101.221 43.3604 99.9512 43.3604Z" fill="white"/>
<path d="M671.953 74H647.002V68.751L655.962 59.6934C658.615 56.9753 660.348 55.0954 661.162 54.0537C661.976 52.9958 662.562 52.0192 662.92 51.124C663.278 50.2288 663.457 49.3011 663.457 48.3408C663.457 46.9085 663.058 45.8424 662.261 45.1426C661.479 44.4427 660.43 44.0928 659.111 44.0928C657.728 44.0928 656.385 44.4102 655.083 45.0449C653.781 45.6797 652.422 46.583 651.006 47.7549L646.904 42.8965C648.662 41.3991 650.119 40.3411 651.274 39.7227C652.43 39.1042 653.691 38.6322 655.059 38.3066C656.426 37.9648 657.956 37.7939 659.648 37.7939C661.878 37.7939 663.848 38.2008 665.557 39.0146C667.266 39.8285 668.592 40.9678 669.536 42.4326C670.48 43.8975 670.952 45.5739 670.952 47.4619C670.952 49.1058 670.659 50.652 670.073 52.1006C669.504 53.5329 668.608 55.0059 667.388 56.5195C666.183 58.0332 664.051 60.1898 660.991 62.9893L656.401 67.3105V67.6523H671.953V74ZM700.322 56.1533C700.322 62.387 699.297 67.0013 697.246 69.9961C695.212 72.9909 692.07 74.4883 687.822 74.4883C683.704 74.4883 680.596 72.9421 678.496 69.8496C676.413 66.7572 675.371 62.1917 675.371 56.1533C675.371 49.8545 676.388 45.2158 678.423 42.2373C680.457 39.2425 683.59 37.7451 687.822 37.7451C691.94 37.7451 695.049 39.3076 697.148 42.4326C699.264 45.5576 700.322 50.1312 700.322 56.1533ZM682.866 56.1533C682.866 60.5316 683.241 63.6729 683.989 65.5771C684.754 67.4652 686.032 68.4092 687.822 68.4092C689.58 68.4092 690.85 67.4489 691.631 65.5283C692.412 63.6077 692.803 60.4827 692.803 56.1533C692.803 51.7751 692.404 48.6338 691.606 46.7295C690.825 44.8089 689.564 43.8486 687.822 43.8486C686.048 43.8486 684.779 44.8089 684.014 46.7295C683.249 48.6338 682.866 51.7751 682.866 56.1533ZM722.783 74H715.239V53.3457L715.312 49.9521L715.435 46.2412C714.181 47.4945 713.311 48.3164 712.822 48.707L708.721 52.0029L705.083 47.4619L716.582 38.3066H722.783V74ZM757.5 53.541C757.5 60.5723 756.019 65.8213 753.057 69.2881C750.094 72.7549 745.61 74.4883 739.604 74.4883C737.489 74.4883 735.885 74.3743 734.795 74.1465V68.0918C736.162 68.4336 737.594 68.6045 739.092 68.6045C741.615 68.6045 743.69 68.2383 745.317 67.5059C746.945 66.7572 748.19 65.5934 749.053 64.0146C749.915 62.4196 750.412 60.2305 750.542 57.4473H750.249C749.305 58.9772 748.215 60.0514 746.978 60.6699C745.741 61.2884 744.194 61.5977 742.339 61.5977C739.23 61.5977 736.781 60.6048 734.99 58.6191C733.2 56.6172 732.305 53.8421 732.305 50.2939C732.305 46.4691 733.387 43.4499 735.552 41.2363C737.733 39.0065 740.695 37.8916 744.438 37.8916C747.075 37.8916 749.378 38.5101 751.348 39.7471C753.333 40.984 754.855 42.7826 755.913 45.1426C756.971 47.4863 757.5 50.2858 757.5 53.541ZM744.585 43.9463C743.022 43.9463 741.802 44.4834 740.923 45.5576C740.044 46.6318 739.604 48.1781 739.604 50.1963C739.604 51.9215 740.003 53.2887 740.801 54.2979C741.598 55.307 742.811 55.8115 744.438 55.8115C745.968 55.8115 747.279 55.3151 748.369 54.3223C749.46 53.3132 750.005 52.1576 750.005 50.8555C750.005 48.9186 749.492 47.2829 748.467 45.9482C747.458 44.6136 746.164 43.9463 744.585 43.9463Z" fill="white"/>
<path d="M1316.95 74H1292V68.751L1300.96 59.6934C1303.61 56.9753 1305.35 55.0954 1306.16 54.0537C1306.98 52.9958 1307.56 52.0192 1307.92 51.124C1308.28 50.2288 1308.46 49.3011 1308.46 48.3408C1308.46 46.9085 1308.06 45.8424 1307.26 45.1426C1306.48 44.4427 1305.43 44.0928 1304.11 44.0928C1302.73 44.0928 1301.39 44.4102 1300.08 45.0449C1298.78 45.6797 1297.42 46.583 1296.01 47.7549L1291.9 42.8965C1293.66 41.3991 1295.12 40.3411 1296.27 39.7227C1297.43 39.1042 1298.69 38.6322 1300.06 38.3066C1301.43 37.9648 1302.96 37.7939 1304.65 37.7939C1306.88 37.7939 1308.85 38.2008 1310.56 39.0146C1312.27 39.8285 1313.59 40.9678 1314.54 42.4326C1315.48 43.8975 1315.95 45.5739 1315.95 47.4619C1315.95 49.1058 1315.66 50.652 1315.07 52.1006C1314.5 53.5329 1313.61 55.0059 1312.39 56.5195C1311.18 58.0332 1309.05 60.1898 1305.99 62.9893L1301.4 67.3105V67.6523H1316.95V74ZM1345.32 56.1533C1345.32 62.387 1344.3 67.0013 1342.25 69.9961C1340.21 72.9909 1337.07 74.4883 1332.82 74.4883C1328.7 74.4883 1325.6 72.9421 1323.5 69.8496C1321.41 66.7572 1320.37 62.1917 1320.37 56.1533C1320.37 49.8545 1321.39 45.2158 1323.42 42.2373C1325.46 39.2425 1328.59 37.7451 1332.82 37.7451C1336.94 37.7451 1340.05 39.3076 1342.15 42.4326C1344.26 45.5576 1345.32 50.1312 1345.32 56.1533ZM1327.87 56.1533C1327.87 60.5316 1328.24 63.6729 1328.99 65.5771C1329.75 67.4652 1331.03 68.4092 1332.82 68.4092C1334.58 68.4092 1335.85 67.4489 1336.63 65.5283C1337.41 63.6077 1337.8 60.4827 1337.8 56.1533C1337.8 51.7751 1337.4 48.6338 1336.61 46.7295C1335.83 44.8089 1334.56 43.8486 1332.82 43.8486C1331.05 43.8486 1329.78 44.8089 1329.01 46.7295C1328.25 48.6338 1327.87 51.7751 1327.87 56.1533ZM1374.08 74H1349.13V68.751L1358.09 59.6934C1360.74 56.9753 1362.48 55.0954 1363.29 54.0537C1364.1 52.9958 1364.69 52.0192 1365.05 51.124C1365.41 50.2288 1365.59 49.3011 1365.59 48.3408C1365.59 46.9085 1365.19 45.8424 1364.39 45.1426C1363.61 44.4427 1362.56 44.0928 1361.24 44.0928C1359.86 44.0928 1358.51 44.4102 1357.21 45.0449C1355.91 45.6797 1354.55 46.583 1353.13 47.7549L1349.03 42.8965C1350.79 41.3991 1352.25 40.3411 1353.4 39.7227C1354.56 39.1042 1355.82 38.6322 1357.19 38.3066C1358.55 37.9648 1360.08 37.7939 1361.78 37.7939C1364.01 37.7939 1365.98 38.2008 1367.69 39.0146C1369.39 39.8285 1370.72 40.9678 1371.67 42.4326C1372.61 43.8975 1373.08 45.5739 1373.08 47.4619C1373.08 49.1058 1372.79 50.652 1372.2 52.1006C1371.63 53.5329 1370.74 55.0059 1369.52 56.5195C1368.31 58.0332 1366.18 60.1898 1363.12 62.9893L1358.53 67.3105V67.6523H1374.08V74ZM1402.45 56.1533C1402.45 62.387 1401.43 67.0013 1399.38 69.9961C1397.34 72.9909 1394.2 74.4883 1389.95 74.4883C1385.83 74.4883 1382.72 72.9421 1380.62 69.8496C1378.54 66.7572 1377.5 62.1917 1377.5 56.1533C1377.5 49.8545 1378.52 45.2158 1380.55 42.2373C1382.59 39.2425 1385.72 37.7451 1389.95 37.7451C1394.07 37.7451 1397.18 39.3076 1399.28 42.4326C1401.39 45.5576 1402.45 50.1312 1402.45 56.1533ZM1385 56.1533C1385 60.5316 1385.37 63.6729 1386.12 65.5771C1386.88 67.4652 1388.16 68.4092 1389.95 68.4092C1391.71 68.4092 1392.98 67.4489 1393.76 65.5283C1394.54 63.6077 1394.93 60.4827 1394.93 56.1533C1394.93 51.7751 1394.53 48.6338 1393.74 46.7295C1392.95 44.8089 1391.69 43.8486 1389.95 43.8486C1388.18 43.8486 1386.91 44.8089 1386.14 46.7295C1385.38 48.6338 1385 51.7751 1385 56.1533Z" fill="white"/>
<line y1="385" x2="1907" y2="385" stroke="url(#paint0_linear)" stroke-width="80"/>
<path d="M68.8867 400H65.5664V388.203C63.6263 388.893 62.0117 389.368 60.7227 389.629C59.4336 389.876 58.099 390 56.7188 390C54.0234 390 51.9466 389.382 50.4883 388.145C49.043 386.908 48.3203 385.124 48.3203 382.793V371.445H51.6406V382.402C51.6406 383.978 52.0508 385.143 52.8711 385.898C53.7044 386.654 55.0521 387.031 56.9141 387.031C58.1771 387.031 59.3815 386.94 60.5273 386.758C61.6862 386.562 63.3659 386.107 65.5664 385.391V371.445H68.8867V400ZM79.2969 378.594V392.168L79.1602 395.723L79.1016 396.836L90.6836 378.594H94.7266V400H91.6992V386.914L91.7578 384.336L91.8555 381.797L80.293 400H76.25V378.594H79.2969ZM110.156 400.391C107.057 400.391 104.655 399.44 102.949 397.539C101.257 395.625 100.41 392.923 100.41 389.434C100.41 385.853 101.27 383.086 102.988 381.133C104.72 379.18 107.181 378.203 110.371 378.203C111.4 378.203 112.428 378.314 113.457 378.535C114.486 378.757 115.293 379.017 115.879 379.316L114.883 382.07C114.167 381.784 113.385 381.549 112.539 381.367C111.693 381.172 110.944 381.074 110.293 381.074C105.944 381.074 103.77 383.848 103.77 389.395C103.77 392.025 104.297 394.043 105.352 395.449C106.419 396.855 107.995 397.559 110.078 397.559C111.862 397.559 113.691 397.174 115.566 396.406V399.277C114.134 400.02 112.331 400.391 110.156 400.391ZM136.621 400H133.34V381.367H126.914C126.562 386.003 126.074 389.681 125.449 392.402C124.824 395.124 124.01 397.116 123.008 398.379C122.018 399.642 120.755 400.273 119.219 400.273C118.516 400.273 117.956 400.195 117.539 400.039V397.637C117.826 397.715 118.151 397.754 118.516 397.754C120.013 397.754 121.204 396.172 122.09 393.008C122.975 389.844 123.646 385.039 124.102 378.594H136.621V400ZM161.992 389.277C161.992 392.767 161.113 395.495 159.355 397.461C157.598 399.414 155.169 400.391 152.07 400.391C150.156 400.391 148.457 399.941 146.973 399.043C145.488 398.145 144.342 396.855 143.535 395.176C142.728 393.496 142.324 391.53 142.324 389.277C142.324 385.788 143.197 383.073 144.941 381.133C146.686 379.18 149.108 378.203 152.207 378.203C155.202 378.203 157.578 379.199 159.336 381.191C161.107 383.184 161.992 385.879 161.992 389.277ZM145.684 389.277C145.684 392.012 146.23 394.095 147.324 395.527C148.418 396.96 150.026 397.676 152.148 397.676C154.271 397.676 155.879 396.966 156.973 395.547C158.079 394.115 158.633 392.025 158.633 389.277C158.633 386.556 158.079 384.492 156.973 383.086C155.879 381.667 154.258 380.957 152.109 380.957C149.987 380.957 148.385 381.654 147.305 383.047C146.224 384.44 145.684 386.517 145.684 389.277ZM195.449 383.965C195.449 385.358 195.046 386.419 194.238 387.148C193.444 387.865 192.324 388.346 190.879 388.594V388.77C192.702 389.017 194.03 389.551 194.863 390.371C195.71 391.191 196.133 392.324 196.133 393.77C196.133 395.762 195.397 397.298 193.926 398.379C192.467 399.46 190.332 400 187.52 400H178.086V378.594H187.48C192.793 378.594 195.449 380.384 195.449 383.965ZM192.891 393.555C192.891 392.396 192.448 391.556 191.562 391.035C190.69 390.501 189.238 390.234 187.207 390.234H181.328V397.285H187.285C191.022 397.285 192.891 396.042 192.891 393.555ZM192.285 384.277C192.285 383.236 191.882 382.5 191.074 382.07C190.28 381.628 189.069 381.406 187.441 381.406H181.328V387.441H186.816C188.822 387.441 190.234 387.194 191.055 386.699C191.875 386.204 192.285 385.397 192.285 384.277ZM204.102 387.441H209.941C212.663 387.441 214.674 387.949 215.977 388.965C217.292 389.967 217.949 391.471 217.949 393.477C217.949 395.625 217.253 397.253 215.859 398.359C214.479 399.453 212.441 400 209.746 400H200.859V378.594H204.102V387.441ZM224.785 400H221.543V378.594H224.785V400ZM204.102 390.234V397.285H209.59C213.027 397.285 214.746 396.081 214.746 393.672C214.746 392.474 214.349 391.602 213.555 391.055C212.76 390.508 211.406 390.234 209.492 390.234H204.102ZM230.566 387.168C230.566 382.48 231.257 378.828 232.637 376.211C234.017 373.581 236.204 371.94 239.199 371.289C242.923 370.495 246.204 369.85 249.043 369.355L249.648 372.207C245.13 372.962 241.901 373.561 239.961 374.004C238.073 374.434 236.654 375.449 235.703 377.051C234.766 378.652 234.251 380.833 234.16 383.594H234.395C235.202 382.5 236.243 381.641 237.52 381.016C238.796 380.391 240.13 380.078 241.523 380.078C244.154 380.078 246.204 380.931 247.676 382.637C249.147 384.342 249.883 386.706 249.883 389.727C249.883 393.073 249.03 395.69 247.324 397.578C245.618 399.453 243.242 400.391 240.195 400.391C237.188 400.391 234.831 399.238 233.125 396.934C231.419 394.629 230.566 391.374 230.566 387.168ZM240.488 397.676C244.46 397.676 246.445 395.143 246.445 390.078C246.445 385.247 244.642 382.832 241.035 382.832C240.046 382.832 239.089 383.04 238.164 383.457C237.253 383.861 236.413 384.401 235.645 385.078C234.889 385.755 234.303 386.452 233.887 387.168C233.887 390.592 234.427 393.203 235.508 395C236.589 396.784 238.249 397.676 240.488 397.676ZM258.789 387.441H264.629C267.35 387.441 269.362 387.949 270.664 388.965C271.979 389.967 272.637 391.471 272.637 393.477C272.637 395.625 271.94 397.253 270.547 398.359C269.167 399.453 267.129 400 264.434 400H255.547V378.594H258.789V387.441ZM279.473 400H276.23V378.594H279.473V400ZM258.789 390.234V397.285H264.277C267.715 397.285 269.434 396.081 269.434 393.672C269.434 392.474 269.036 391.602 268.242 391.055C267.448 390.508 266.094 390.234 264.18 390.234H258.789ZM303.73 383.965C303.73 385.358 303.327 386.419 302.52 387.148C301.725 387.865 300.605 388.346 299.16 388.594V388.77C300.983 389.017 302.311 389.551 303.145 390.371C303.991 391.191 304.414 392.324 304.414 393.77C304.414 395.762 303.678 397.298 302.207 398.379C300.749 399.46 298.613 400 295.801 400H286.367V378.594H295.762C301.074 378.594 303.73 380.384 303.73 383.965ZM301.172 393.555C301.172 392.396 300.729 391.556 299.844 391.035C298.971 390.501 297.52 390.234 295.488 390.234H289.609V397.285H295.566C299.303 397.285 301.172 396.042 301.172 393.555ZM300.566 384.277C300.566 383.236 300.163 382.5 299.355 382.07C298.561 381.628 297.35 381.406 295.723 381.406H289.609V387.441H295.098C297.103 387.441 298.516 387.194 299.336 386.699C300.156 386.204 300.566 385.397 300.566 384.277ZM325.098 397.207H334.59V378.594H337.871V400H309.141V378.594H312.383V397.207H321.855V378.594H325.098V397.207ZM347.812 378.594V392.168L347.676 395.723L347.617 396.836L359.199 378.594H363.242V400H360.215V386.914L360.273 384.336L360.371 381.797L348.809 400H344.766V378.594H347.812ZM375.273 389.043L367.832 378.594H371.523L377.168 386.797L382.793 378.594H386.445L379.004 389.043L386.836 400H383.164L377.168 391.328L371.113 400H367.441L375.273 389.043Z" fill="white"/>
<path d="M45.4395 559H28.8428V513.561L29.0039 506.095L29.2725 497.931C26.5153 500.688 24.5996 502.496 23.5254 503.355L14.502 510.606L6.49902 500.616L31.7969 480.475H45.4395V559ZM95.8203 508.834C103.411 508.834 109.445 510.965 113.921 515.226C118.433 519.487 120.688 525.323 120.688 532.735C120.688 541.508 117.985 548.258 112.578 552.984C107.171 557.711 99.4368 560.074 89.375 560.074C80.638 560.074 73.584 558.66 68.2129 555.831V541.49C71.0417 542.994 74.3359 544.229 78.0957 545.196C81.8555 546.127 85.4183 546.593 88.7842 546.593C98.9176 546.593 103.984 542.439 103.984 534.132C103.984 526.218 98.7386 522.262 88.2471 522.262C86.3493 522.262 84.2546 522.459 81.9629 522.853C79.6712 523.211 77.8092 523.604 76.377 524.034L69.7705 520.489L72.7246 480.475H115.317V494.547H87.2803L85.8301 509.962L87.71 509.586C89.8942 509.085 92.5977 508.834 95.8203 508.834ZM181.919 498.038C181.919 502.944 180.433 507.115 177.461 510.553C174.489 513.99 170.317 516.354 164.946 517.643V517.965C171.284 518.753 176.082 520.686 179.341 523.766C182.599 526.809 184.229 530.927 184.229 536.119C184.229 543.674 181.489 549.565 176.011 553.79C170.532 557.979 162.708 560.074 152.539 560.074C144.017 560.074 136.462 558.66 129.873 555.831V541.705C132.917 543.245 136.265 544.498 139.917 545.465C143.569 546.432 147.186 546.915 150.767 546.915C156.245 546.915 160.291 545.984 162.905 544.122C165.519 542.26 166.826 539.27 166.826 535.152C166.826 531.464 165.322 528.85 162.314 527.311C159.307 525.771 154.508 525.001 147.92 525.001H141.958V512.271H148.027C154.115 512.271 158.555 511.484 161.348 509.908C164.176 508.297 165.591 505.558 165.591 501.69C165.591 495.746 161.867 492.774 154.419 492.774C151.841 492.774 149.209 493.204 146.523 494.063C143.874 494.923 140.92 496.409 137.661 498.521L129.98 487.081C137.142 481.925 145.682 479.347 155.601 479.347C163.729 479.347 170.138 480.994 174.829 484.288C179.556 487.582 181.919 492.166 181.919 498.038ZM273.335 498.038C273.335 502.944 271.849 507.115 268.877 510.553C265.905 513.99 261.733 516.354 256.362 517.643V517.965C262.7 518.753 267.498 520.686 270.757 523.766C274.015 526.809 275.645 530.927 275.645 536.119C275.645 543.674 272.905 549.565 267.427 553.79C261.948 557.979 254.124 560.074 243.955 560.074C235.433 560.074 227.878 558.66 221.289 555.831V541.705C224.333 543.245 227.681 544.498 231.333 545.465C234.985 546.432 238.602 546.915 242.183 546.915C247.661 546.915 251.707 545.984 254.321 544.122C256.935 542.26 258.242 539.27 258.242 535.152C258.242 531.464 256.738 528.85 253.73 527.311C250.723 525.771 245.924 525.001 239.336 525.001H233.374V512.271H239.443C245.531 512.271 249.971 511.484 252.764 509.908C255.592 508.297 257.007 505.558 257.007 501.69C257.007 495.746 253.283 492.774 245.835 492.774C243.257 492.774 240.625 493.204 237.939 494.063C235.29 494.923 232.336 496.409 229.077 498.521L221.396 487.081C228.558 481.925 237.098 479.347 247.017 479.347C255.145 479.347 261.554 480.994 266.245 484.288C270.972 487.582 273.335 492.166 273.335 498.038ZM338.809 519.737C338.809 533.451 336.553 543.603 332.041 550.191C327.565 556.78 320.654 560.074 311.309 560.074C302.249 560.074 295.41 556.673 290.791 549.869C286.208 543.066 283.916 533.022 283.916 519.737C283.916 505.88 286.154 495.675 290.63 489.122C295.106 482.534 301.999 479.239 311.309 479.239C320.368 479.239 327.207 482.677 331.826 489.552C336.481 496.427 338.809 506.489 338.809 519.737ZM300.405 519.737C300.405 529.369 301.229 536.28 302.876 540.47C304.559 544.623 307.37 546.7 311.309 546.7C315.176 546.7 317.969 544.588 319.688 540.362C321.406 536.137 322.266 529.262 322.266 519.737C322.266 510.105 321.388 503.194 319.634 499.005C317.915 494.78 315.14 492.667 311.309 492.667C307.406 492.667 304.613 494.78 302.93 499.005C301.247 503.194 300.405 510.105 300.405 519.737ZM402.08 559H347.188V547.452L366.899 527.525C372.736 521.546 376.549 517.41 378.34 515.118C380.13 512.791 381.419 510.642 382.207 508.673C382.995 506.703 383.389 504.662 383.389 502.55C383.389 499.399 382.511 497.053 380.757 495.514C379.038 493.974 376.729 493.204 373.828 493.204C370.785 493.204 367.83 493.902 364.966 495.299C362.101 496.695 359.111 498.683 355.996 501.261L346.973 490.572C350.84 487.278 354.045 484.951 356.587 483.59C359.129 482.229 361.904 481.191 364.912 480.475C367.92 479.723 371.286 479.347 375.01 479.347C379.915 479.347 384.248 480.242 388.008 482.032C391.768 483.823 394.686 486.329 396.763 489.552C398.84 492.774 399.878 496.463 399.878 500.616C399.878 504.233 399.233 507.634 397.944 510.821C396.691 513.972 394.722 517.213 392.036 520.543C389.386 523.873 384.696 528.618 377.964 534.776L367.866 544.283V545.035H402.08V559Z" fill="#FF0000"/>
<path d="M6.27637 223.227V209.799H35.1191V223.227H6.27637ZM98.498 166.454C106.018 166.454 112.069 168.173 116.652 171.61C121.271 175.012 123.581 179.613 123.581 185.414C123.581 189.424 122.471 193.005 120.251 196.156C118.031 199.271 114.45 202.064 109.509 204.535C115.381 207.686 119.589 210.98 122.131 214.418C124.709 217.82 125.998 221.562 125.998 225.644C125.998 232.089 123.474 237.281 118.425 241.22C113.376 245.123 106.734 247.074 98.498 247.074C89.9043 247.074 83.1546 245.248 78.249 241.596C73.3434 237.943 70.8906 232.769 70.8906 226.073C70.8906 221.597 72.0723 217.623 74.4355 214.149C76.8346 210.676 80.666 207.615 85.9297 204.965C81.4538 202.136 78.2311 199.11 76.2617 195.888C74.2923 192.665 73.3076 189.138 73.3076 185.307C73.3076 179.685 75.6351 175.137 80.29 171.664C84.945 168.191 91.0143 166.454 98.498 166.454ZM86.252 225.106C86.252 228.186 87.3262 230.585 89.4746 232.304C91.623 234.022 94.5592 234.882 98.2832 234.882C102.401 234.882 105.48 234.005 107.521 232.25C109.562 230.46 110.583 228.114 110.583 225.214C110.583 222.815 109.562 220.577 107.521 218.5C105.516 216.387 102.24 214.149 97.6924 211.786C90.0654 215.295 86.252 219.735 86.252 225.106ZM98.3906 178.593C95.5618 178.593 93.2702 179.327 91.5156 180.795C89.7969 182.227 88.9375 184.161 88.9375 186.596C88.9375 188.744 89.6178 190.678 90.9785 192.396C92.375 194.079 94.8815 195.816 98.498 197.606C102.007 195.959 104.46 194.276 105.856 192.558C107.253 190.839 107.951 188.852 107.951 186.596C107.951 184.125 107.056 182.174 105.266 180.741C103.475 179.309 101.184 178.593 98.3906 178.593ZM189.914 166.454C197.434 166.454 203.485 168.173 208.068 171.61C212.688 175.012 214.997 179.613 214.997 185.414C214.997 189.424 213.887 193.005 211.667 196.156C209.447 199.271 205.866 202.064 200.925 204.535C206.797 207.686 211.005 210.98 213.547 214.418C216.125 217.82 217.414 221.562 217.414 225.644C217.414 232.089 214.89 237.281 209.841 241.22C204.792 245.123 198.15 247.074 189.914 247.074C181.32 247.074 174.571 245.248 169.665 241.596C164.759 237.943 162.307 232.769 162.307 226.073C162.307 221.597 163.488 217.623 165.852 214.149C168.251 210.676 172.082 207.615 177.346 204.965C172.87 202.136 169.647 199.11 167.678 195.888C165.708 192.665 164.724 189.138 164.724 185.307C164.724 179.685 167.051 175.137 171.706 171.664C176.361 168.191 182.43 166.454 189.914 166.454ZM177.668 225.106C177.668 228.186 178.742 230.585 180.891 232.304C183.039 234.022 185.975 234.882 189.699 234.882C193.817 234.882 196.896 234.005 198.938 232.25C200.979 230.46 201.999 228.114 201.999 225.214C201.999 222.815 200.979 220.577 198.938 218.5C196.932 216.387 193.656 214.149 189.108 211.786C181.481 215.295 177.668 219.735 177.668 225.106ZM189.807 178.593C186.978 178.593 184.686 179.327 182.932 180.795C181.213 182.227 180.354 184.161 180.354 186.596C180.354 188.744 181.034 190.678 182.395 192.396C183.791 194.079 186.298 195.816 189.914 197.606C193.423 195.959 195.876 194.276 197.272 192.558C198.669 190.839 199.367 188.852 199.367 186.596C199.367 184.125 198.472 182.174 196.682 180.741C194.891 179.309 192.6 178.593 189.807 178.593ZM254.26 195.834C261.851 195.834 267.884 197.965 272.36 202.226C276.872 206.487 279.128 212.323 279.128 219.735C279.128 228.508 276.424 235.258 271.018 239.984C265.611 244.711 257.876 247.074 247.814 247.074C239.077 247.074 232.023 245.66 226.652 242.831V228.49C229.481 229.994 232.775 231.229 236.535 232.196C240.295 233.127 243.858 233.593 247.224 233.593C257.357 233.593 262.424 229.439 262.424 221.132C262.424 213.218 257.178 209.262 246.687 209.262C244.789 209.262 242.694 209.459 240.402 209.853C238.111 210.211 236.249 210.604 234.816 211.034L228.21 207.489L231.164 167.475H273.757V181.547H245.72L244.27 196.962L246.149 196.586C248.334 196.085 251.037 195.834 254.26 195.834ZM315.598 166.454C323.117 166.454 329.169 168.173 333.752 171.61C338.371 175.012 340.681 179.613 340.681 185.414C340.681 189.424 339.571 193.005 337.351 196.156C335.131 199.271 331.55 202.064 326.608 204.535C332.481 207.686 336.688 210.98 339.23 214.418C341.809 217.82 343.098 221.562 343.098 225.644C343.098 232.089 340.573 237.281 335.524 241.22C330.476 245.123 323.833 247.074 315.598 247.074C307.004 247.074 300.254 245.248 295.349 241.596C290.443 237.943 287.99 232.769 287.99 226.073C287.99 221.597 289.172 217.623 291.535 214.149C293.934 210.676 297.766 207.615 303.029 204.965C298.553 202.136 295.331 199.11 293.361 195.888C291.392 192.665 290.407 189.138 290.407 185.307C290.407 179.685 292.735 175.137 297.39 171.664C302.045 168.191 308.114 166.454 315.598 166.454ZM303.352 225.106C303.352 228.186 304.426 230.585 306.574 232.304C308.723 234.022 311.659 234.882 315.383 234.882C319.501 234.882 322.58 234.005 324.621 232.25C326.662 230.46 327.683 228.114 327.683 225.214C327.683 222.815 326.662 220.577 324.621 218.5C322.616 216.387 319.34 214.149 314.792 211.786C307.165 215.295 303.352 219.735 303.352 225.106ZM315.49 178.593C312.661 178.593 310.37 179.327 308.615 180.795C306.896 182.227 306.037 184.161 306.037 186.596C306.037 188.744 306.717 190.678 308.078 192.396C309.475 194.079 311.981 195.816 315.598 197.606C319.107 195.959 321.56 194.276 322.956 192.558C324.353 190.839 325.051 188.852 325.051 186.596C325.051 184.125 324.156 182.174 322.365 180.741C320.575 179.309 318.283 178.593 315.49 178.593Z" fill="#01F859"/>
<path d="M648.276 223.227V209.799H677.119V223.227H648.276ZM742.002 195.834C749.593 195.834 755.627 197.965 760.103 202.226C764.614 206.487 766.87 212.323 766.87 219.735C766.87 228.508 764.167 235.258 758.76 239.984C753.353 244.711 745.618 247.074 735.557 247.074C726.82 247.074 719.766 245.66 714.395 242.831V228.49C717.223 229.994 720.518 231.229 724.277 232.196C728.037 233.127 731.6 233.593 734.966 233.593C745.099 233.593 750.166 229.439 750.166 221.132C750.166 213.218 744.92 209.262 734.429 209.262C732.531 209.262 730.436 209.459 728.145 209.853C725.853 210.211 723.991 210.604 722.559 211.034L715.952 207.489L718.906 167.475H761.499V181.547H733.462L732.012 196.962L733.892 196.586C736.076 196.085 738.779 195.834 742.002 195.834ZM833.418 195.834C841.009 195.834 847.043 197.965 851.519 202.226C856.03 206.487 858.286 212.323 858.286 219.735C858.286 228.508 855.583 235.258 850.176 239.984C844.769 244.711 837.035 247.074 826.973 247.074C818.236 247.074 811.182 245.66 805.811 242.831V228.49C808.639 229.994 811.934 231.229 815.693 232.196C819.453 233.127 823.016 233.593 826.382 233.593C836.515 233.593 841.582 229.439 841.582 221.132C841.582 213.218 836.336 209.262 825.845 209.262C823.947 209.262 821.852 209.459 819.561 209.853C817.269 210.211 815.407 210.604 813.975 211.034L807.368 207.489L810.322 167.475H852.915V181.547H824.878L823.428 196.962L825.308 196.586C827.492 196.085 830.195 195.834 833.418 195.834ZM922.148 206.737C922.148 220.451 919.893 230.603 915.381 237.191C910.905 243.78 903.994 247.074 894.648 247.074C885.589 247.074 878.75 243.673 874.131 236.869C869.548 230.066 867.256 220.022 867.256 206.737C867.256 192.88 869.494 182.675 873.97 176.122C878.446 169.534 885.339 166.239 894.648 166.239C903.708 166.239 910.547 169.677 915.166 176.552C919.821 183.427 922.148 193.489 922.148 206.737ZM883.745 206.737C883.745 216.369 884.569 223.28 886.216 227.47C887.899 231.623 890.71 233.7 894.648 233.7C898.516 233.7 901.309 231.588 903.027 227.362C904.746 223.137 905.605 216.262 905.605 206.737C905.605 197.105 904.728 190.194 902.974 186.005C901.255 181.78 898.48 179.667 894.648 179.667C890.745 179.667 887.952 181.78 886.27 186.005C884.587 190.194 883.745 197.105 883.745 206.737ZM929.99 212.646C929.99 197.105 933.267 185.539 939.819 177.948C946.408 170.357 956.255 166.562 969.36 166.562C973.836 166.562 977.345 166.83 979.888 167.367V180.634C976.701 179.918 973.55 179.56 970.435 179.56C964.741 179.56 960.086 180.419 956.47 182.138C952.889 183.856 950.203 186.399 948.413 189.765C946.623 193.131 945.566 197.911 945.244 204.105H945.942C949.487 198.018 955.163 194.975 962.969 194.975C969.987 194.975 975.483 197.177 979.458 201.581C983.433 205.985 985.42 212.073 985.42 219.843C985.42 228.222 983.057 234.864 978.33 239.77C973.604 244.639 967.051 247.074 958.672 247.074C952.871 247.074 947.804 245.731 943.472 243.046C939.175 240.36 935.845 236.439 933.481 231.283C931.154 226.127 929.99 219.914 929.99 212.646ZM958.35 233.808C961.895 233.808 964.616 232.626 966.514 230.263C968.411 227.864 969.36 224.462 969.36 220.058C969.36 216.226 968.465 213.218 966.675 211.034C964.92 208.814 962.253 207.704 958.672 207.704C955.306 207.704 952.424 208.796 950.024 210.98C947.661 213.165 946.479 215.707 946.479 218.607C946.479 222.868 947.59 226.467 949.81 229.403C952.065 232.34 954.912 233.808 958.35 233.808Z" fill="#01F859"/>
<path d="M1293.28 223.227V209.799H1322.12V223.227H1293.28ZM1415.09 229.726H1405.64V246H1389.42V229.726H1355.9V218.178L1390.33 167.475H1405.64V216.835H1415.09V229.726ZM1389.42 216.835V203.515C1389.42 201.295 1389.51 198.072 1389.69 193.847C1389.87 189.621 1390.01 187.169 1390.12 186.488H1389.69C1388.36 189.424 1386.77 192.289 1384.91 195.082L1370.51 216.835H1389.42ZM1504.41 200.99C1504.41 216.459 1501.16 228.007 1494.64 235.634C1488.12 243.261 1478.26 247.074 1465.04 247.074C1460.39 247.074 1456.86 246.824 1454.46 246.322V233.002C1457.47 233.754 1460.62 234.13 1463.92 234.13C1469.47 234.13 1474.03 233.324 1477.61 231.713C1481.19 230.066 1483.93 227.506 1485.83 224.032C1487.73 220.523 1488.82 215.707 1489.11 209.584H1488.46C1486.39 212.95 1483.99 215.313 1481.26 216.674C1478.54 218.035 1475.14 218.715 1471.06 218.715C1464.22 218.715 1458.83 216.531 1454.89 212.162C1450.95 207.758 1448.98 201.653 1448.98 193.847C1448.98 185.432 1451.37 178.79 1456.13 173.92C1460.93 169.014 1467.44 166.562 1475.68 166.562C1481.48 166.562 1486.55 167.922 1490.88 170.644C1495.25 173.365 1498.6 177.322 1500.92 182.514C1503.25 187.67 1504.41 193.829 1504.41 200.99ZM1476 179.882C1472.56 179.882 1469.88 181.063 1467.94 183.427C1466.01 185.79 1465.04 189.192 1465.04 193.632C1465.04 197.427 1465.92 200.435 1467.68 202.655C1469.43 204.875 1472.1 205.985 1475.68 205.985C1479.04 205.985 1481.93 204.893 1484.33 202.709C1486.73 200.489 1487.92 197.947 1487.92 195.082C1487.92 190.821 1486.8 187.222 1484.54 184.286C1482.32 181.35 1479.47 179.882 1476 179.882ZM1541.26 195.834C1548.85 195.834 1554.88 197.965 1559.36 202.226C1563.87 206.487 1566.13 212.323 1566.13 219.735C1566.13 228.508 1563.42 235.258 1558.02 239.984C1552.61 244.711 1544.88 247.074 1534.81 247.074C1526.08 247.074 1519.02 245.66 1513.65 242.831V228.49C1516.48 229.994 1519.78 231.229 1523.54 232.196C1527.29 233.127 1530.86 233.593 1534.22 233.593C1544.36 233.593 1549.42 229.439 1549.42 221.132C1549.42 213.218 1544.18 209.262 1533.69 209.262C1531.79 209.262 1529.69 209.459 1527.4 209.853C1525.11 210.211 1523.25 210.604 1521.82 211.034L1515.21 207.489L1518.16 167.475H1560.76V181.547H1532.72L1531.27 196.962L1533.15 196.586C1535.33 196.085 1538.04 195.834 1541.26 195.834ZM1574.99 212.646C1574.99 197.105 1578.27 185.539 1584.82 177.948C1591.41 170.357 1601.25 166.562 1614.36 166.562C1618.84 166.562 1622.35 166.83 1624.89 167.367V180.634C1621.7 179.918 1618.55 179.56 1615.43 179.56C1609.74 179.56 1605.09 180.419 1601.47 182.138C1597.89 183.856 1595.2 186.399 1593.41 189.765C1591.62 193.131 1590.57 197.911 1590.24 204.105H1590.94C1594.49 198.018 1600.16 194.975 1607.97 194.975C1614.99 194.975 1620.48 197.177 1624.46 201.581C1628.43 205.985 1630.42 212.073 1630.42 219.843C1630.42 228.222 1628.06 234.864 1623.33 239.77C1618.6 244.639 1612.05 247.074 1603.67 247.074C1597.87 247.074 1592.8 245.731 1588.47 243.046C1584.17 240.36 1580.84 236.439 1578.48 231.283C1576.15 226.127 1574.99 219.914 1574.99 212.646ZM1603.35 233.808C1606.89 233.808 1609.62 232.626 1611.51 230.263C1613.41 227.864 1614.36 224.462 1614.36 220.058C1614.36 216.226 1613.47 213.218 1611.67 211.034C1609.92 208.814 1607.25 207.704 1603.67 207.704C1600.31 207.704 1597.42 208.796 1595.02 210.98C1592.66 213.165 1591.48 215.707 1591.48 218.607C1591.48 222.868 1592.59 226.467 1594.81 229.403C1597.07 232.34 1599.91 233.808 1603.35 233.808Z" fill="#01F859"/>
<path d="M691.439 559H674.843V513.561L675.004 506.095L675.272 497.931C672.515 500.688 670.6 502.496 669.525 503.355L660.502 510.606L652.499 500.616L677.797 480.475H691.439V559ZM769.911 542.726H760.458V559H744.237V542.726H710.722V531.178L745.15 480.475H760.458V529.835H769.911V542.726ZM744.237 529.835V516.515C744.237 514.295 744.327 511.072 744.506 506.847C744.685 502.621 744.828 500.169 744.936 499.488H744.506C743.181 502.424 741.588 505.289 739.726 508.082L725.331 529.835H744.237ZM832.753 542.726H823.3V559H807.079V542.726H773.563V531.178L807.992 480.475H823.3V529.835H832.753V542.726ZM807.079 529.835V516.515C807.079 514.295 807.169 511.072 807.348 506.847C807.527 502.621 807.67 500.169 807.777 499.488H807.348C806.023 502.424 804.429 505.289 802.567 508.082L788.173 529.835H807.079ZM875.292 559L904.779 494.547H866.054V480.582H922.396V491.002L892.694 559H875.292ZM958.92 508.834C966.511 508.834 972.545 510.965 977.021 515.226C981.532 519.487 983.788 525.323 983.788 532.735C983.788 541.508 981.085 548.258 975.678 552.984C970.271 557.711 962.536 560.074 952.475 560.074C943.738 560.074 936.684 558.66 931.312 555.831V541.49C934.141 542.994 937.436 544.229 941.195 545.196C944.955 546.127 948.518 546.593 951.884 546.593C962.017 546.593 967.084 542.439 967.084 534.132C967.084 526.218 961.838 522.262 951.347 522.262C949.449 522.262 947.354 522.459 945.062 522.853C942.771 523.211 940.909 523.604 939.477 524.034L932.87 520.489L935.824 480.475H978.417V494.547H950.38L948.93 509.962L950.81 509.586C952.994 509.085 955.697 508.834 958.92 508.834ZM1020.26 479.454C1027.78 479.454 1033.83 481.173 1038.41 484.61C1043.03 488.012 1045.34 492.613 1045.34 498.414C1045.34 502.424 1044.23 506.005 1042.01 509.156C1039.79 512.271 1036.21 515.064 1031.27 517.535C1037.14 520.686 1041.35 523.98 1043.89 527.418C1046.47 530.82 1047.76 534.562 1047.76 538.644C1047.76 545.089 1045.23 550.281 1040.18 554.22C1035.14 558.123 1028.49 560.074 1020.26 560.074C1011.66 560.074 1004.91 558.248 1000.01 554.596C995.103 550.943 992.65 545.769 992.65 539.073C992.65 534.597 993.832 530.623 996.195 527.149C998.594 523.676 1002.43 520.615 1007.69 517.965C1003.21 515.136 999.991 512.11 998.021 508.888C996.052 505.665 995.067 502.138 995.067 498.307C995.067 492.685 997.395 488.137 1002.05 484.664C1006.7 481.191 1012.77 479.454 1020.26 479.454ZM1008.01 538.106C1008.01 541.186 1009.09 543.585 1011.23 545.304C1013.38 547.022 1016.32 547.882 1020.04 547.882C1024.16 547.882 1027.24 547.005 1029.28 545.25C1031.32 543.46 1032.34 541.114 1032.34 538.214C1032.34 535.815 1031.32 533.577 1029.28 531.5C1027.28 529.387 1024 527.149 1019.45 524.786C1011.83 528.295 1008.01 532.735 1008.01 538.106ZM1020.15 491.593C1017.32 491.593 1015.03 492.327 1013.28 493.795C1011.56 495.227 1010.7 497.161 1010.7 499.596C1010.7 501.744 1011.38 503.678 1012.74 505.396C1014.13 507.079 1016.64 508.816 1020.26 510.606C1023.77 508.959 1026.22 507.276 1027.62 505.558C1029.01 503.839 1029.71 501.852 1029.71 499.596C1029.71 497.125 1028.82 495.174 1027.03 493.741C1025.24 492.309 1022.94 491.593 1020.15 491.593Z" fill="#FF0000"/>
<path d="M1337.44 559H1320.84V513.561L1321 506.095L1321.27 497.931C1318.52 500.688 1316.6 502.496 1315.53 503.355L1306.5 510.606L1298.5 500.616L1323.8 480.475H1337.44V559ZM1414.14 559H1359.25V547.452L1378.96 527.525C1384.79 521.546 1388.61 517.41 1390.4 515.118C1392.19 512.791 1393.48 510.642 1394.27 508.673C1395.05 506.703 1395.45 504.662 1395.45 502.55C1395.45 499.399 1394.57 497.053 1392.82 495.514C1391.1 493.974 1388.79 493.204 1385.89 493.204C1382.84 493.204 1379.89 493.902 1377.02 495.299C1374.16 496.695 1371.17 498.683 1368.05 501.261L1359.03 490.572C1362.9 487.278 1366.1 484.951 1368.65 483.59C1371.19 482.229 1373.96 481.191 1376.97 480.475C1379.98 479.723 1383.34 479.347 1387.07 479.347C1391.97 479.347 1396.31 480.242 1400.07 482.032C1403.83 483.823 1406.74 486.329 1408.82 489.552C1410.9 492.774 1411.94 496.463 1411.94 500.616C1411.94 504.233 1411.29 507.634 1410 510.821C1408.75 513.972 1406.78 517.213 1404.09 520.543C1401.44 523.873 1396.75 528.618 1390.02 534.776L1379.92 544.283V545.035H1414.14V559ZM1450.66 508.834C1458.25 508.834 1464.29 510.965 1468.76 515.226C1473.27 519.487 1475.53 525.323 1475.53 532.735C1475.53 541.508 1472.83 548.258 1467.42 552.984C1462.01 557.711 1454.28 560.074 1444.22 560.074C1435.48 560.074 1428.43 558.66 1423.05 555.831V541.49C1425.88 542.994 1429.18 544.229 1432.94 545.196C1436.7 546.127 1440.26 546.593 1443.63 546.593C1453.76 546.593 1458.83 542.439 1458.83 534.132C1458.83 526.218 1453.58 522.262 1443.09 522.262C1441.19 522.262 1439.1 522.459 1436.8 522.853C1434.51 523.211 1432.65 523.604 1431.22 524.034L1424.61 520.489L1427.57 480.475H1470.16V494.547H1442.12L1440.67 509.962L1442.55 509.586C1444.74 509.085 1447.44 508.834 1450.66 508.834ZM1554.54 559H1537.94V513.561L1538.1 506.095L1538.37 497.931C1535.61 500.688 1533.7 502.496 1532.62 503.355L1523.6 510.606L1515.6 500.616L1540.9 480.475H1554.54V559ZM1617.38 559H1600.78V513.561L1600.95 506.095L1601.21 497.931C1598.46 500.688 1596.54 502.496 1595.47 503.355L1586.44 510.606L1578.44 500.616L1603.74 480.475H1617.38V559ZM1666.26 479.454C1673.78 479.454 1679.83 481.173 1684.41 484.61C1689.03 488.012 1691.34 492.613 1691.34 498.414C1691.34 502.424 1690.23 506.005 1688.01 509.156C1685.79 512.271 1682.21 515.064 1677.27 517.535C1683.14 520.686 1687.35 523.98 1689.89 527.418C1692.47 530.82 1693.76 534.562 1693.76 538.644C1693.76 545.089 1691.23 550.281 1686.18 554.22C1681.14 558.123 1674.49 560.074 1666.26 560.074C1657.66 560.074 1650.91 558.248 1646.01 554.596C1641.1 550.943 1638.65 545.769 1638.65 539.073C1638.65 534.597 1639.83 530.623 1642.2 527.149C1644.59 523.676 1648.43 520.615 1653.69 517.965C1649.21 515.136 1645.99 512.11 1644.02 508.888C1642.05 505.665 1641.07 502.138 1641.07 498.307C1641.07 492.685 1643.39 488.137 1648.05 484.664C1652.7 481.191 1658.77 479.454 1666.26 479.454ZM1654.01 538.106C1654.01 541.186 1655.09 543.585 1657.23 545.304C1659.38 547.022 1662.32 547.882 1666.04 547.882C1670.16 547.882 1673.24 547.005 1675.28 545.25C1677.32 543.46 1678.34 541.114 1678.34 538.214C1678.34 535.815 1677.32 533.577 1675.28 531.5C1673.28 529.387 1670 527.149 1665.45 524.786C1657.83 528.295 1654.01 532.735 1654.01 538.106ZM1666.15 491.593C1663.32 491.593 1661.03 492.327 1659.28 493.795C1657.56 495.227 1656.7 497.161 1656.7 499.596C1656.7 501.744 1657.38 503.678 1658.74 505.396C1660.13 507.079 1662.64 508.816 1666.26 510.606C1669.77 508.959 1672.22 507.276 1673.62 505.558C1675.01 503.839 1675.71 501.852 1675.71 499.596C1675.71 497.125 1674.82 495.174 1673.03 493.741C1671.24 492.309 1668.94 491.593 1666.15 491.593Z" fill="#FF0000"/>
<line y1="695" x2="1905" y2="695" stroke="url(#paint1_linear)" stroke-width="80"/>
<path d="M68.8867 710H65.5664V698.203C63.6263 698.893 62.0117 699.368 60.7227 699.629C59.4336 699.876 58.099 700 56.7188 700C54.0234 700 51.9466 699.382 50.4883 698.145C49.043 696.908 48.3203 695.124 48.3203 692.793V681.445H51.6406V692.402C51.6406 693.978 52.0508 695.143 52.8711 695.898C53.7044 696.654 55.0521 697.031 56.9141 697.031C58.1771 697.031 59.3815 696.94 60.5273 696.758C61.6862 696.562 63.3659 696.107 65.5664 695.391V681.445H68.8867V710ZM79.2969 688.594V702.168L79.1602 705.723L79.1016 706.836L90.6836 688.594H94.7266V710H91.6992V696.914L91.7578 694.336L91.8555 691.797L80.293 710H76.25V688.594H79.2969ZM110.156 710.391C107.057 710.391 104.655 709.44 102.949 707.539C101.257 705.625 100.41 702.923 100.41 699.434C100.41 695.853 101.27 693.086 102.988 691.133C104.72 689.18 107.181 688.203 110.371 688.203C111.4 688.203 112.428 688.314 113.457 688.535C114.486 688.757 115.293 689.017 115.879 689.316L114.883 692.07C114.167 691.784 113.385 691.549 112.539 691.367C111.693 691.172 110.944 691.074 110.293 691.074C105.944 691.074 103.77 693.848 103.77 699.395C103.77 702.025 104.297 704.043 105.352 705.449C106.419 706.855 107.995 707.559 110.078 707.559C111.862 707.559 113.691 707.174 115.566 706.406V709.277C114.134 710.02 112.331 710.391 110.156 710.391ZM136.621 710H133.34V691.367H126.914C126.562 696.003 126.074 699.681 125.449 702.402C124.824 705.124 124.01 707.116 123.008 708.379C122.018 709.642 120.755 710.273 119.219 710.273C118.516 710.273 117.956 710.195 117.539 710.039V707.637C117.826 707.715 118.151 707.754 118.516 707.754C120.013 707.754 121.204 706.172 122.09 703.008C122.975 699.844 123.646 695.039 124.102 688.594H136.621V710ZM161.992 699.277C161.992 702.767 161.113 705.495 159.355 707.461C157.598 709.414 155.169 710.391 152.07 710.391C150.156 710.391 148.457 709.941 146.973 709.043C145.488 708.145 144.342 706.855 143.535 705.176C142.728 703.496 142.324 701.53 142.324 699.277C142.324 695.788 143.197 693.073 144.941 691.133C146.686 689.18 149.108 688.203 152.207 688.203C155.202 688.203 157.578 689.199 159.336 691.191C161.107 693.184 161.992 695.879 161.992 699.277ZM145.684 699.277C145.684 702.012 146.23 704.095 147.324 705.527C148.418 706.96 150.026 707.676 152.148 707.676C154.271 707.676 155.879 706.966 156.973 705.547C158.079 704.115 158.633 702.025 158.633 699.277C158.633 696.556 158.079 694.492 156.973 693.086C155.879 691.667 154.258 690.957 152.109 690.957C149.987 690.957 148.385 691.654 147.305 693.047C146.224 694.44 145.684 696.517 145.684 699.277ZM181.328 710H178.086V688.594H196.055V710H192.773V691.406H181.328V710ZM212.891 710.391C211.497 710.391 210.221 710.137 209.062 709.629C207.917 709.108 206.953 708.314 206.172 707.246H205.938C206.094 708.496 206.172 709.681 206.172 710.801V719.609H202.93V688.594H205.566L206.016 691.523H206.172C207.005 690.352 207.975 689.505 209.082 688.984C210.189 688.464 211.458 688.203 212.891 688.203C215.729 688.203 217.917 689.173 219.453 691.113C221.003 693.053 221.777 695.775 221.777 699.277C221.777 702.793 220.99 705.527 219.414 707.48C217.852 709.421 215.677 710.391 212.891 710.391ZM212.422 690.957C210.234 690.957 208.652 691.562 207.676 692.773C206.699 693.984 206.198 695.911 206.172 698.555V699.277C206.172 702.285 206.673 704.44 207.676 705.742C208.678 707.031 210.286 707.676 212.5 707.676C214.349 707.676 215.794 706.927 216.836 705.43C217.891 703.932 218.418 701.868 218.418 699.238C218.418 696.569 217.891 694.525 216.836 693.105C215.794 691.673 214.323 690.957 212.422 690.957ZM230.508 688.594V702.168L230.371 705.723L230.312 706.836L241.895 688.594H245.938V710H242.91V696.914L242.969 694.336L243.066 691.797L231.504 710H227.461V688.594H230.508ZM251.699 697.168C251.699 692.48 252.389 688.828 253.77 686.211C255.15 683.581 257.337 681.94 260.332 681.289C264.056 680.495 267.337 679.85 270.176 679.355L270.781 682.207C266.263 682.962 263.034 683.561 261.094 684.004C259.206 684.434 257.786 685.449 256.836 687.051C255.898 688.652 255.384 690.833 255.293 693.594H255.527C256.335 692.5 257.376 691.641 258.652 691.016C259.928 690.391 261.263 690.078 262.656 690.078C265.286 690.078 267.337 690.931 268.809 692.637C270.28 694.342 271.016 696.706 271.016 699.727C271.016 703.073 270.163 705.69 268.457 707.578C266.751 709.453 264.375 710.391 261.328 710.391C258.32 710.391 255.964 709.238 254.258 706.934C252.552 704.629 251.699 701.374 251.699 697.168ZM261.621 707.676C265.592 707.676 267.578 705.143 267.578 700.078C267.578 695.247 265.775 692.832 262.168 692.832C261.178 692.832 260.221 693.04 259.297 693.457C258.385 693.861 257.546 694.401 256.777 695.078C256.022 695.755 255.436 696.452 255.02 697.168C255.02 700.592 255.56 703.203 256.641 705C257.721 706.784 259.382 707.676 261.621 707.676ZM279.922 697.441H285.762C288.483 697.441 290.495 697.949 291.797 698.965C293.112 699.967 293.77 701.471 293.77 703.477C293.77 705.625 293.073 707.253 291.68 708.359C290.299 709.453 288.262 710 285.566 710H276.68V688.594H279.922V697.441ZM300.605 710H297.363V688.594H300.605V710ZM279.922 700.234V707.285H285.41C288.848 707.285 290.566 706.081 290.566 703.672C290.566 702.474 290.169 701.602 289.375 701.055C288.581 700.508 287.227 700.234 285.312 700.234H279.922ZM324.863 693.965C324.863 695.358 324.46 696.419 323.652 697.148C322.858 697.865 321.738 698.346 320.293 698.594V698.77C322.116 699.017 323.444 699.551 324.277 700.371C325.124 701.191 325.547 702.324 325.547 703.77C325.547 705.762 324.811 707.298 323.34 708.379C321.882 709.46 319.746 710 316.934 710H307.5V688.594H316.895C322.207 688.594 324.863 690.384 324.863 693.965ZM322.305 703.555C322.305 702.396 321.862 701.556 320.977 701.035C320.104 700.501 318.652 700.234 316.621 700.234H310.742V707.285H316.699C320.436 707.285 322.305 706.042 322.305 703.555ZM321.699 694.277C321.699 693.236 321.296 692.5 320.488 692.07C319.694 691.628 318.483 691.406 316.855 691.406H310.742V697.441H316.23C318.236 697.441 319.648 697.194 320.469 696.699C321.289 696.204 321.699 695.397 321.699 694.277ZM346.23 707.207H355.723V688.594H359.004V710H330.273V688.594H333.516V707.207H342.988V688.594H346.23V707.207ZM368.945 688.594V702.168L368.809 705.723L368.75 706.836L380.332 688.594H384.375V710H381.348V696.914L381.406 694.336L381.504 691.797L369.941 710H365.898V688.594H368.945ZM396.406 699.043L388.965 688.594H392.656L398.301 696.797L403.926 688.594H407.578L400.137 699.043L407.969 710H404.297L398.301 701.328L392.246 710H388.574L396.406 699.043Z" fill="white"/>
<path d="M45.4395 878H28.8428V832.561L29.0039 825.095L29.2725 816.931C26.5153 819.688 24.5996 821.496 23.5254 822.355L14.502 829.606L6.49902 819.616L31.7969 799.475H45.4395V878ZM123.911 861.726H114.458V878H98.2373V861.726H64.7217V850.178L99.1504 799.475H114.458V848.835H123.911V861.726ZM98.2373 848.835V835.515C98.2373 833.295 98.3268 830.072 98.5059 825.847C98.6849 821.621 98.8281 819.169 98.9355 818.488H98.5059C97.181 821.424 95.5876 824.289 93.7256 827.082L79.3311 848.835H98.2373ZM186.753 861.726H177.3V878H161.079V861.726H127.563V850.178L161.992 799.475H177.3V848.835H186.753V861.726ZM161.079 848.835V835.515C161.079 833.295 161.169 830.072 161.348 825.847C161.527 821.621 161.67 819.169 161.777 818.488H161.348C160.023 821.424 158.429 824.289 156.567 827.082L142.173 848.835H161.079ZM278.169 861.726H268.716V878H252.495V861.726H218.979V850.178L253.408 799.475H268.716V848.835H278.169V861.726ZM252.495 848.835V835.515C252.495 833.295 252.585 830.072 252.764 825.847C252.943 821.621 253.086 819.169 253.193 818.488H252.764C251.439 821.424 249.845 824.289 247.983 827.082L233.589 848.835H252.495ZM341.011 861.726H331.558V878H315.337V861.726H281.821V850.178L316.25 799.475H331.558V848.835H341.011V861.726ZM315.337 848.835V835.515C315.337 833.295 315.426 830.072 315.605 825.847C315.785 821.621 315.928 819.169 316.035 818.488H315.605C314.281 821.424 312.687 824.289 310.825 827.082L296.431 848.835H315.337ZM403.853 861.726H394.399V878H378.179V861.726H344.663V850.178L379.092 799.475H394.399V848.835H403.853V861.726ZM378.179 848.835V835.515C378.179 833.295 378.268 830.072 378.447 825.847C378.626 821.621 378.77 819.169 378.877 818.488H378.447C377.122 821.424 375.529 824.289 373.667 827.082L359.272 848.835H378.179Z" fill="#FF0000"/>
<path d="M691.439 878H674.843V832.561L675.004 825.095L675.272 816.931C672.515 819.688 670.6 821.496 669.525 822.355L660.502 829.606L652.499 819.616L677.797 799.475H691.439V878ZM765.077 817.038C765.077 821.944 763.591 826.115 760.619 829.553C757.647 832.99 753.476 835.354 748.104 836.643V836.965C754.442 837.753 759.241 839.686 762.499 842.766C765.757 845.809 767.387 849.927 767.387 855.119C767.387 862.674 764.647 868.565 759.169 872.79C753.69 876.979 745.867 879.074 735.697 879.074C727.175 879.074 719.62 877.66 713.031 874.831V860.705C716.075 862.245 719.423 863.498 723.075 864.465C726.728 865.432 730.344 865.915 733.925 865.915C739.403 865.915 743.45 864.984 746.063 863.122C748.677 861.26 749.984 858.27 749.984 854.152C749.984 850.464 748.48 847.85 745.473 846.311C742.465 844.771 737.667 844.001 731.078 844.001H725.116V831.271H731.186C737.273 831.271 741.713 830.484 744.506 828.908C747.335 827.297 748.749 824.558 748.749 820.69C748.749 814.746 745.025 811.774 737.577 811.774C734.999 811.774 732.367 812.204 729.682 813.063C727.032 813.923 724.078 815.409 720.819 817.521L713.139 806.081C720.3 800.925 728.84 798.347 738.759 798.347C746.887 798.347 753.297 799.994 757.987 803.288C762.714 806.582 765.077 811.166 765.077 817.038ZM830.658 832.99C830.658 848.459 827.4 860.007 820.883 867.634C814.366 875.261 804.501 879.074 791.288 879.074C786.633 879.074 783.106 878.824 780.707 878.322V865.002C783.715 865.754 786.866 866.13 790.16 866.13C795.71 866.13 800.276 865.324 803.856 863.713C807.437 862.066 810.176 859.506 812.074 856.032C813.972 852.523 815.064 847.707 815.351 841.584H814.706C812.629 844.95 810.23 847.313 807.509 848.674C804.787 850.035 801.386 850.715 797.304 850.715C790.465 850.715 785.076 848.531 781.137 844.162C777.198 839.758 775.229 833.653 775.229 825.847C775.229 817.432 777.61 810.79 782.372 805.92C787.17 801.014 793.687 798.562 801.923 798.562C807.724 798.562 812.79 799.922 817.123 802.644C821.492 805.365 824.84 809.322 827.167 814.514C829.494 819.67 830.658 825.829 830.658 832.99ZM802.245 811.882C798.808 811.882 796.122 813.063 794.188 815.427C792.255 817.79 791.288 821.192 791.288 825.632C791.288 829.427 792.165 832.435 793.92 834.655C795.674 836.875 798.342 837.985 801.923 837.985C805.289 837.985 808.171 836.893 810.57 834.709C812.969 832.489 814.169 829.947 814.169 827.082C814.169 822.821 813.041 819.222 810.785 816.286C808.565 813.35 805.718 811.882 802.245 811.882ZM922.396 878H867.504V866.452L887.216 846.525C893.052 840.546 896.866 836.41 898.656 834.118C900.447 831.791 901.736 829.642 902.523 827.673C903.311 825.703 903.705 823.662 903.705 821.55C903.705 818.399 902.828 816.053 901.073 814.514C899.354 812.974 897.045 812.204 894.145 812.204C891.101 812.204 888.147 812.902 885.282 814.299C882.418 815.695 879.428 817.683 876.312 820.261L867.289 809.572C871.156 806.278 874.361 803.951 876.903 802.59C879.446 801.229 882.221 800.191 885.229 799.475C888.236 798.723 891.602 798.347 895.326 798.347C900.232 798.347 904.564 799.242 908.324 801.032C912.084 802.823 915.002 805.329 917.079 808.552C919.156 811.774 920.194 815.463 920.194 819.616C920.194 823.233 919.55 826.634 918.261 829.821C917.007 832.972 915.038 836.213 912.353 839.543C909.703 842.873 905.012 847.618 898.28 853.776L888.183 863.283V864.035H922.396V878ZM958.92 827.834C966.511 827.834 972.545 829.965 977.021 834.226C981.532 838.487 983.788 844.323 983.788 851.735C983.788 860.508 981.085 867.258 975.678 871.984C970.271 876.711 962.536 879.074 952.475 879.074C943.738 879.074 936.684 877.66 931.312 874.831V860.49C934.141 861.994 937.436 863.229 941.195 864.196C944.955 865.127 948.518 865.593 951.884 865.593C962.017 865.593 967.084 861.439 967.084 853.132C967.084 845.218 961.838 841.262 951.347 841.262C949.449 841.262 947.354 841.459 945.062 841.853C942.771 842.211 940.909 842.604 939.477 843.034L932.87 839.489L935.824 799.475H978.417V813.547H950.38L948.93 828.962L950.81 828.586C952.994 828.085 955.697 827.834 958.92 827.834ZM1048.08 878H993.188V866.452L1012.9 846.525C1018.74 840.546 1022.55 836.41 1024.34 834.118C1026.13 831.791 1027.42 829.642 1028.21 827.673C1028.99 825.703 1029.39 823.662 1029.39 821.55C1029.39 818.399 1028.51 816.053 1026.76 814.514C1025.04 812.974 1022.73 812.204 1019.83 812.204C1016.78 812.204 1013.83 812.902 1010.97 814.299C1008.1 815.695 1005.11 817.683 1002 820.261L992.973 809.572C996.84 806.278 1000.04 803.951 1002.59 802.59C1005.13 801.229 1007.9 800.191 1010.91 799.475C1013.92 798.723 1017.29 798.347 1021.01 798.347C1025.92 798.347 1030.25 799.242 1034.01 801.032C1037.77 802.823 1040.69 805.329 1042.76 808.552C1044.84 811.774 1045.88 815.463 1045.88 819.616C1045.88 823.233 1045.23 826.634 1043.94 829.821C1042.69 832.972 1040.72 836.213 1038.04 839.543C1035.39 842.873 1030.7 847.618 1023.96 853.776L1013.87 863.283V864.035H1048.08V878Z" fill="#FF0000"/>
<path d="M1337.44 878H1320.84V832.561L1321 825.095L1321.27 816.931C1318.52 819.688 1316.6 821.496 1315.53 822.355L1306.5 829.606L1298.5 819.616L1323.8 799.475H1337.44V878ZM1414.14 878H1359.25V866.452L1378.96 846.525C1384.79 840.546 1388.61 836.41 1390.4 834.118C1392.19 831.791 1393.48 829.642 1394.27 827.673C1395.05 825.703 1395.45 823.662 1395.45 821.55C1395.45 818.399 1394.57 816.053 1392.82 814.514C1391.1 812.974 1388.79 812.204 1385.89 812.204C1382.84 812.204 1379.89 812.902 1377.02 814.299C1374.16 815.695 1371.17 817.683 1368.05 820.261L1359.03 809.572C1362.9 806.278 1366.1 803.951 1368.65 802.59C1371.19 801.229 1373.96 800.191 1376.97 799.475C1379.98 798.723 1383.34 798.347 1387.07 798.347C1391.97 798.347 1396.31 799.242 1400.07 801.032C1403.83 802.823 1406.74 805.329 1408.82 808.552C1410.9 811.774 1411.94 815.463 1411.94 819.616C1411.94 823.233 1411.29 826.634 1410 829.821C1408.75 832.972 1406.78 836.213 1404.09 839.543C1401.44 842.873 1396.75 847.618 1390.02 853.776L1379.92 863.283V864.035H1414.14V878ZM1476.55 838.737C1476.55 852.451 1474.29 862.603 1469.78 869.191C1465.31 875.78 1458.4 879.074 1449.05 879.074C1439.99 879.074 1433.15 875.673 1428.53 868.869C1423.95 862.066 1421.66 852.022 1421.66 838.737C1421.66 824.88 1423.9 814.675 1428.37 808.122C1432.85 801.534 1439.74 798.239 1449.05 798.239C1458.11 798.239 1464.95 801.677 1469.57 808.552C1474.22 815.427 1476.55 825.489 1476.55 838.737ZM1438.15 838.737C1438.15 848.369 1438.97 855.28 1440.62 859.47C1442.3 863.623 1445.11 865.7 1449.05 865.7C1452.92 865.7 1455.71 863.588 1457.43 859.362C1459.15 855.137 1460.01 848.262 1460.01 838.737C1460.01 829.105 1459.13 822.194 1457.38 818.005C1455.66 813.78 1452.88 811.667 1449.05 811.667C1445.15 811.667 1442.35 813.78 1440.67 818.005C1438.99 822.194 1438.15 829.105 1438.15 838.737ZM1554.54 878H1537.94V832.561L1538.1 825.095L1538.37 816.931C1535.61 819.688 1533.7 821.496 1532.62 822.355L1523.6 829.606L1515.6 819.616L1540.9 799.475H1554.54V878ZM1575.81 844.646C1575.81 829.105 1579.08 817.539 1585.64 809.948C1592.23 802.357 1602.07 798.562 1615.18 798.562C1619.65 798.562 1623.16 798.83 1625.71 799.367V812.634C1622.52 811.918 1619.37 811.56 1616.25 811.56C1610.56 811.56 1605.9 812.419 1602.29 814.138C1598.71 815.856 1596.02 818.399 1594.23 821.765C1592.44 825.131 1591.38 829.911 1591.06 836.105H1591.76C1595.31 830.018 1600.98 826.975 1608.79 826.975C1615.81 826.975 1621.3 829.177 1625.28 833.581C1629.25 837.985 1631.24 844.073 1631.24 851.843C1631.24 860.222 1628.88 866.864 1624.15 871.77C1619.42 876.639 1612.87 879.074 1604.49 879.074C1598.69 879.074 1593.62 877.731 1589.29 875.046C1584.99 872.36 1581.66 868.439 1579.3 863.283C1576.97 858.127 1575.81 851.914 1575.81 844.646ZM1604.17 865.808C1607.71 865.808 1610.43 864.626 1612.33 862.263C1614.23 859.864 1615.18 856.462 1615.18 852.058C1615.18 848.226 1614.28 845.218 1612.49 843.034C1610.74 840.814 1608.07 839.704 1604.49 839.704C1601.12 839.704 1598.24 840.796 1595.84 842.98C1593.48 845.165 1592.3 847.707 1592.3 850.607C1592.3 854.868 1593.41 858.467 1595.63 861.403C1597.88 864.34 1600.73 865.808 1604.17 865.808ZM1694.08 878H1639.19V866.452L1658.9 846.525C1664.74 840.546 1668.55 836.41 1670.34 834.118C1672.13 831.791 1673.42 829.642 1674.21 827.673C1674.99 825.703 1675.39 823.662 1675.39 821.55C1675.39 818.399 1674.51 816.053 1672.76 814.514C1671.04 812.974 1668.73 812.204 1665.83 812.204C1662.78 812.204 1659.83 812.902 1656.97 814.299C1654.1 815.695 1651.11 817.683 1648 820.261L1638.97 809.572C1642.84 806.278 1646.04 803.951 1648.59 802.59C1651.13 801.229 1653.9 800.191 1656.91 799.475C1659.92 798.723 1663.29 798.347 1667.01 798.347C1671.92 798.347 1676.25 799.242 1680.01 801.032C1683.77 802.823 1686.69 805.329 1688.76 808.552C1690.84 811.774 1691.88 815.463 1691.88 819.616C1691.88 823.233 1691.23 826.634 1689.94 829.821C1688.69 832.972 1686.72 836.213 1684.04 839.543C1681.39 842.873 1676.7 847.618 1669.96 853.776L1659.87 863.283V864.035H1694.08V878Z" fill="#FF0000"/>
<line x1="1961" y1="549" x2="1961" y2="485" stroke="#2B3658" stroke-width="10"/>
<line x1="1961" y1="805" x2="1961" y2="869" stroke="#2B3658" stroke-width="10"/>
<path d="M1936 497L1960.5 482H1962.03L1985 497" stroke="#2B3658" stroke-width="10"/>
<path d="M1986 857L1961.5 872L1959.97 872L1937 857" stroke="#2B3658" stroke-width="10"/>
<line y1="106" x2="1905" y2="106" stroke="#6A7186" stroke-width="4"/>
<defs>
<linearGradient id="paint0_linear" x1="1907" y1="424.977" x2="-1.81823e-08" y2="424.998" gradientUnits="userSpaceOnUse">
<stop stop-color="#F30101"/>
<stop offset="0.410127" stop-color="#6A7186"/>
</linearGradient>
<linearGradient id="paint1_linear" x1="1905" y1="734.977" x2="-1.86878e-08" y2="734.998" gradientUnits="userSpaceOnUse">
<stop stop-color="#00CD77"/>
<stop offset="0.410127" stop-color="#6A7186"/>
</linearGradient>
</defs>
</svg>
