<svg width="78" height="46" viewBox="0 0 78 46" fill="none" xmlns="http://www.w3.org/2000/svg">
<path d="M3.67335 0H52.4429C54.3186 0 56.7024 1.13208 57.8748 2.5283L65.2996 11.6226C66.2766 12.7925 68.2695 14.3396 69.6764 14.9811L74.8737 17.283C76.6323 18.0755 78 20.1509 78 22V35.283C78 37.2453 76.3587 38.8302 74.3267 38.8302H72.6854C71.4349 42.9811 67.488 46 62.7986 46C58.1092 46 54.1623 42.9811 52.9118 38.8302H30.9108C29.6603 42.9811 25.7134 46 21.024 46C16.3347 46 12.3878 42.9811 11.1373 38.8302H3.67335C1.64128 38.8302 0 37.2453 0 35.283V3.54717C0 1.58491 1.64128 0 3.67335 0ZM62.7986 41.0189C65.6122 41.0189 67.9178 38.7925 67.9178 36.0755C67.9178 33.3585 65.6122 31.1321 62.7986 31.1321C59.985 31.1321 57.6794 33.3585 57.6794 36.0755C57.6794 38.7925 59.9459 41.0189 62.7986 41.0189ZM41.5401 14.6792C41.5401 15.6604 42.3998 16.4906 43.4158 16.4528L59.985 16.2264C61.001 16.2264 61.3527 15.5472 60.7275 14.7547L53.9279 6.30189C53.3026 5.50943 51.9349 4.86792 50.9188 4.86792H43.4158C42.3998 4.86792 41.5401 5.69811 41.5401 6.67925V14.6792ZM36.1082 16.4906C37.1242 16.4906 37.984 15.6604 37.984 14.6792V6.71698C37.984 5.73585 37.1242 4.90566 36.1082 4.90566H25.0882C24.0721 4.90566 23.2124 5.73585 23.2124 6.71698V14.6792C23.2124 15.6604 24.0721 16.4906 25.0882 16.4906H36.1082ZM21.024 41.0189C23.8377 41.0189 26.1433 38.7925 26.1433 36.0755C26.1433 33.3585 23.8377 31.1321 21.024 31.1321C18.2104 31.1321 15.9048 33.3585 15.9048 36.0755C15.9048 38.7925 18.1713 41.0189 21.024 41.0189ZM5.23647 14.6792C5.23647 15.6604 6.09619 16.4906 7.11222 16.4906H18.1323C19.1483 16.4906 20.008 15.6604 20.008 14.6792V6.71698C20.008 5.73585 19.1483 4.90566 18.1323 4.90566H7.11222C6.09619 4.90566 5.23647 5.73585 5.23647 6.71698V14.6792Z" fill="white"/>
</svg>
