<svg width="65" height="40" viewBox="0 0 65 40" fill="none" xmlns="http://www.w3.org/2000/svg">
<path d="M14.3182 21.8939H16.972L16.5592 17.3763L14.3182 21.8939Z" fill="white"/>
<path d="M49.2302 21.8939H51.884L51.483 17.3763L49.2302 21.8939Z" fill="white"/>
<path d="M57.6638 0H7.32444C3.2789 0 0 3.27059 0 7.30588V32.7059C0 36.7294 3.2789 40 7.32444 40H57.6756C61.7211 40 65 36.7294 65 32.6941V7.30588C64.9882 3.27059 61.7093 0 57.6638 0ZM33.9095 27.0471H30.088L32.0931 16.7294H29.2978C28.2952 21.0941 27.3163 23.9059 25.6296 25.4706C24.2851 26.7176 22.622 27.0471 20.9 27.0471H17.4088L17.1847 24.4235H13.033L11.771 27.0471H7.99673L15.1325 14.1059H19.4847L21.1123 24.0118C23.5892 23.9882 24.6625 21.9176 26.184 14.1059H36.8109L34.0864 19.6941H35.3248L33.9095 27.0471ZM40.7149 21.5176L39.6416 27.0471H35.8438L37.2709 19.6941H38.5093L37.9432 14.1059H48.6645L47.2138 16.7294H41.6349L41.057 19.6824H43.6872L42.6846 21.5176H40.7149ZM52.3326 27.0471L52.1085 24.4235H47.9568L46.6948 27.0471H42.9087L50.0445 14.1059H54.3967L56.5315 27.0471H52.3326Z" fill="white"/>
</svg>
