<svg width="47" height="56" viewBox="0 0 47 56" fill="none" xmlns="http://www.w3.org/2000/svg">
<path d="M47 36.0946C47 33.4535 45.1195 31.2439 42.6279 30.7357V24.8287C42.6279 24.2905 42.3643 23.7868 41.9223 23.4802C41.4802 23.1736 40.916 23.1034 40.4127 23.2925L37.2835 24.4668C35.2286 22.329 32.7308 20.7188 29.9937 19.7304C32.6834 17.736 34.4302 14.5374 34.4302 10.9377C34.4302 4.90656 29.527 0 23.5 0C17.473 0 12.5698 4.90656 12.5698 10.9377C12.5698 14.5374 14.3166 17.736 17.0063 19.7304C14.2691 20.7189 11.7714 22.3291 9.71654 24.4668L6.58732 23.2925C6.08388 23.1034 5.51966 23.1736 5.07775 23.4802C4.63573 23.7868 4.37209 24.2905 4.37209 24.8287V30.7357C1.88055 31.2439 0 33.4534 0 36.0946C0 38.7357 1.88055 40.9452 4.37209 41.4534V47.7979C4.37209 48.4819 4.79608 49.0941 5.43593 49.3342L22.9243 55.8968C23.2931 56.0344 23.7068 56.0344 24.0756 55.8968L41.564 49.3342C42.2038 49.0941 42.6278 48.4819 42.6278 47.7979V41.4534C45.1195 40.9452 47 38.7356 47 36.0946ZM15.8488 10.9377C15.8488 6.71599 19.2811 3.28132 23.5 3.28132C27.7189 3.28132 31.1512 6.71599 31.1512 10.9377C31.1512 15.1595 27.7189 18.5942 23.5 18.5942C19.2811 18.5942 15.8488 15.1595 15.8488 10.9377ZM23.5 21.8755C27.3412 21.8755 31.0101 23.2647 33.8727 25.7467L23.5 29.6391L13.1273 25.7467C15.9901 23.2647 19.6589 21.8755 23.5 21.8755ZM3.27907 36.0946C3.27907 34.8883 4.25973 33.907 5.46512 33.907H6.55814V38.2821H5.46512C4.25973 38.2821 3.27907 37.3008 3.27907 36.0946ZM41.5349 38.2821H40.4419V33.907H41.5349C42.7403 33.907 43.7209 34.8883 43.7209 36.0946C43.7209 37.3008 42.7404 38.2821 41.5349 38.2821Z" fill="white"/>
</svg>
