<svg width="80" height="16" viewBox="0 0 80 16" fill="none" xmlns="http://www.w3.org/2000/svg">
<path d="M78.8204 8.70707C79.2109 8.31655 79.2109 7.68338 78.8204 7.29286L72.4564 0.928898C72.0659 0.538374 71.4327 0.538374 71.0422 0.928898C70.6517 1.31942 70.6517 1.95259 71.0422 2.34311L76.6991 7.99997L71.0422 13.6568C70.6517 14.0473 70.6517 14.6805 71.0422 15.071C71.4327 15.4616 72.0659 15.4616 72.4564 15.071L78.8204 8.70707ZM78.1133 6.99997C47.463 6.99997 34.9183 6.99997 31.4265 6.99997C30.99 6.99997 30.695 6.99997 30.5237 6.99997C30.4381 6.99997 30.3834 6.99997 30.3574 6.99998C30.3509 6.99998 30.3462 6.99998 30.3433 6.99998C30.3418 6.99998 30.3408 6.99998 30.3402 6.99998C30.3395 6.99998 29.3395 8.00002 30.3397 8.99998C30.3408 8.99998 30.3489 8.99998 30.3635 8.99998C30.4807 8.99998 31.0223 8.99998 31.8467 8.99998C33.4956 8.99998 36.2761 8.99998 39.0566 8.99999C41.8371 8.99999 44.6176 8.99999 46.2665 8.99999C47.091 8.99999 47.6325 8.99999 47.7497 9C47.7644 9 47.7724 9 47.7734 9C46.7738 8.00004 47.7735 7 47.773 7C47.7724 7 47.7714 7 47.7699 7C47.767 7 47.7623 7 47.7558 7C47.7299 7 47.6752 7 47.5896 7C47.4183 7 47.1233 7 46.6868 7C43.195 7 30.6503 7.00001 -8.55337e-09 7.00001L8.5533e-09 9.00001C30.6503 9.00001 43.195 9 46.6868 9C47.1233 9 47.4183 9 47.5896 9C47.6752 9 47.7299 9 47.7559 9C47.7624 9 47.7671 9 47.77 9C47.7715 9 47.7725 9 47.7731 9C47.7738 9 48.7738 7.99995 47.7736 7C47.7724 7 47.7643 7 47.7497 7C47.6325 6.99999 47.091 6.99999 46.2665 6.99999C44.6176 6.99999 41.8371 6.99999 39.0566 6.99999C36.2761 6.99998 33.4956 6.99998 31.8467 6.99998C31.0223 6.99998 30.4807 6.99998 30.3636 6.99998C30.3489 6.99998 30.3409 6.99998 30.3399 6.99998C31.3395 7.99993 30.3398 8.99998 30.3403 8.99998C30.3409 8.99998 30.3419 8.99998 30.3433 8.99998C30.3463 8.99998 30.3509 8.99998 30.3574 8.99998C30.3834 8.99997 30.4381 8.99997 30.5237 8.99997C30.695 8.99997 30.99 8.99997 31.4265 8.99997C34.9183 8.99997 47.463 8.99997 78.1133 8.99997L78.1133 6.99997Z" fill="#81B3D5"/>
</svg>
