<svg width="50" height="50" viewBox="0 0 50 50" fill="none" xmlns="http://www.w3.org/2000/svg">
<path d="M18.75 50H31.25C32.3546 49.9983 33.4134 49.5588 34.1945 48.7778C34.9755 47.9967 35.415 46.9379 35.4167 45.8333V35.4167H45.8333C46.9379 35.415 47.9967 34.9755 48.7778 34.1945C49.5588 33.4134 49.9983 32.3546 50 31.25V18.75C49.9989 17.6453 49.5596 16.5861 48.7784 15.8049C47.9972 15.0238 46.9381 14.5844 45.8333 14.5833H35.4167V4.16667C35.4156 3.06194 34.9762 2.00277 34.1951 1.22161C33.4139 0.440445 32.3547 0.00110308 31.25 0H18.75C17.6453 0.00110308 16.5861 0.440445 15.8049 1.22161C15.0238 2.00277 14.5844 3.06194 14.5833 4.16667V14.5833H4.16667C3.06194 14.5844 2.00277 15.0238 1.22161 15.8049C0.440445 16.5861 0.00110308 17.6453 0 18.75V31.25C0.00110308 32.3547 0.440445 33.4139 1.22161 34.1951C2.00277 34.9762 3.06194 35.4156 4.16667 35.4167H14.5833V45.8333C14.5844 46.9381 15.0238 47.9972 15.8049 48.7784C16.5861 49.5596 17.6453 49.9989 18.75 50Z" fill="white"/>
</svg>
