<svg width="50" height="50" viewBox="0 0 50 50" fill="none" xmlns="http://www.w3.org/2000/svg">
<path d="M11.8164 38.2812C18.2781 38.2812 23.5352 32.2697 23.5352 25C23.5352 19.2703 20.266 15.9458 20.0989 15.6502C20.1828 15.1855 20.6055 13.7707 20.6055 11.8164C20.6055 5.35469 16.663 0 11.8164 0C6.96983 0 2.92969 5.35469 2.92969 11.8164C2.92969 13.7684 3.35464 15.1997 3.43628 15.6502C3.27072 15.9431 0 19.1654 0 25C0 32.2697 5.35469 38.2812 11.8164 38.2812Z" fill="white"/>
<path d="M1.46484 50H48.5352C49.3446 50 50 49.3446 50 48.5352C50 47.7257 49.3446 47.0703 48.5352 47.0703H47.0703V44.1406H48.5352C49.3446 44.1406 50 43.4853 50 42.6758C50 41.8663 49.3446 41.2109 48.5352 41.2109H47.0703V36.8164C47.0703 36.0069 46.4149 35.3516 45.6055 35.3516H36.7188C35.9093 35.3516 35.2539 36.0069 35.2539 36.8164V41.2109H33.7891C32.9796 41.2109 32.3242 41.8663 32.3242 42.6758C32.3242 43.4853 32.9796 44.1406 33.7891 44.1406H35.2539V47.0703H29.3945V40.8863C28.4477 41.0984 27.4681 41.2109 26.4648 41.2109C25.4768 41.2109 24.4995 41.0866 23.5352 40.863V47.0703H14.7461V40.8863C13.7993 41.0984 12.8197 41.2109 11.8164 41.2109C10.8131 41.2109 9.83353 41.0984 8.88672 40.8863V47.0703H1.46484C0.655365 47.0703 0 47.7257 0 48.5352C0 49.3446 0.655365 50 1.46484 50ZM38.1836 44.1406H44.1406V47.0703H38.1836V44.1406Z" fill="white"/>
<path d="M23.2418 14.9536C25.8926 18.7157 26.4648 22.4365 26.4648 25C26.4648 29.7462 24.5785 34.1042 21.6 37.0556C23.0862 37.8242 24.7246 38.2812 26.4648 38.2812C32.9266 38.2812 38.1836 32.2697 38.1836 25C38.1836 19.1654 34.9129 15.9431 34.7473 15.6502C34.8289 15.1997 35.2539 13.7684 35.2539 11.8164C35.2539 5.35469 31.3114 0 26.4648 0C24.3687 0 22.4674 1.02386 20.9553 2.66304C22.5449 5.16357 23.5352 8.38203 23.5352 11.8164C23.5352 13.081 23.3894 14.1582 23.2418 14.9536Z" fill="white"/>
</svg>
