<svg width="49" height="50" viewBox="0 0 49 50" fill="none" xmlns="http://www.w3.org/2000/svg">
<path d="M45.6207 8.33333H32.1034V11.6667H45.6207V46.6667H32.1034V50H49V11.6667C49 10.7826 48.644 9.93477 48.0102 9.30964C47.3765 8.68452 46.5169 8.33333 45.6207 8.33333Z" fill="white"/>
<path d="M26.8317 0H3.58207C2.63205 0 1.72093 0.372261 1.04916 1.03489C0.377395 1.69752 0 2.59623 0 3.53333V50H30.4138V3.53333C30.4138 2.59623 30.0364 1.69752 29.3646 1.03489C28.6929 0.372261 27.7817 0 26.8317 0ZM27.0345 46.6667H21.9655V41.6667H8.44828V46.6667H3.37931V3.53333C3.37931 3.50707 3.38455 3.48106 3.39474 3.4568C3.40493 3.43253 3.41987 3.41048 3.4387 3.39191C3.45752 3.37334 3.47988 3.35861 3.50448 3.34856C3.52908 3.33851 3.55544 3.33333 3.58207 3.33333H26.8317C26.8583 3.33333 26.8847 3.33851 26.9093 3.34856C26.9339 3.35861 26.9563 3.37334 26.9751 3.39191C26.9939 3.41048 27.0089 3.43253 27.019 3.4568C27.0292 3.48106 27.0345 3.50707 27.0345 3.53333V46.6667Z" fill="white"/>
<path d="M6.75862 8.33333H10.1379V11.6667H6.75862V8.33333Z" fill="white"/>
<path d="M13.5172 8.33333H16.8966V11.6667H13.5172V8.33333Z" fill="white"/>
<path d="M20.2759 8.33333H23.6552V11.6667H20.2759V8.33333Z" fill="white"/>
<path d="M6.75862 16.6667H10.1379V20H6.75862V16.6667Z" fill="white"/>
<path d="M13.5172 16.6667H16.8966V20H13.5172V16.6667Z" fill="white"/>
<path d="M20.2759 16.6667H23.6552V20H20.2759V16.6667Z" fill="white"/>
<path d="M6.75862 25H10.1379V28.3333H6.75862V25Z" fill="white"/>
<path d="M13.5172 25H16.8966V28.3333H13.5172V25Z" fill="white"/>
<path d="M20.2759 25H23.6552V28.3333H20.2759V25Z" fill="white"/>
<path d="M6.75862 33.3333H10.1379V36.6667H6.75862V33.3333Z" fill="white"/>
<path d="M13.5172 33.3333H16.8966V36.6667H13.5172V33.3333Z" fill="white"/>
<path d="M20.2759 33.3333H23.6552V36.6667H20.2759V33.3333Z" fill="white"/>
<path d="M32.1034 16.6667H35.4828V20H32.1034V16.6667Z" fill="white"/>
<path d="M38.8621 16.6667H42.2414V20H38.8621V16.6667Z" fill="white"/>
<path d="M32.1034 25H35.4828V28.3333H32.1034V25Z" fill="white"/>
<path d="M38.8621 25H42.2414V28.3333H38.8621V25Z" fill="white"/>
<path d="M32.1034 33.3333H35.4828V36.6667H32.1034V33.3333Z" fill="white"/>
<path d="M38.8621 33.3333H42.2414V36.6667H38.8621V33.3333Z" fill="white"/>
</svg>
