<svg width="56" height="51" viewBox="0 0 56 51" fill="none" xmlns="http://www.w3.org/2000/svg">
<path d="M21.2255 36.7674H14.5203C14.1002 36.7675 13.6927 36.6243 13.3653 36.3615C13.038 36.0986 12.8105 35.732 12.7206 35.3225L11.9709 31.859C10.9707 31.4216 10.0224 30.8747 9.14325 30.2284L5.75933 31.3038C5.35879 31.4313 4.92661 31.4182 4.53456 31.2667C4.14251 31.1152 3.81418 30.8344 3.60409 30.471L0.244116 24.6783C0.0362273 24.3146 -0.0418089 23.8912 0.0227745 23.4774C0.0873579 23.0636 0.290737 22.684 0.599639 22.4006L3.22461 20.0107C3.10524 18.9281 3.10524 17.8357 3.22461 16.7531L0.599639 14.3687C0.290299 14.0852 0.0866438 13.7052 0.0220499 13.291C-0.0425441 12.8769 0.0357556 12.4531 0.244116 12.0891L3.59672 6.29275C3.80681 5.92933 4.13514 5.64857 4.52719 5.49708C4.91924 5.34559 5.35142 5.33249 5.75196 5.45996L9.13588 6.53541C9.58535 6.20451 10.0532 5.89566 10.5359 5.61623C11.0019 5.35518 11.4809 5.11803 11.9709 4.90662L12.7224 1.4468C12.8119 1.03721 13.039 0.670432 13.366 0.407289C13.6929 0.144146 14.1002 0.000441147 14.5203 0H21.2255C21.6456 0.000441147 22.0529 0.144146 22.3799 0.407289C22.7069 0.670432 22.9339 1.03721 23.0234 1.4468L23.7823 4.90845C24.2981 5.13641 24.8028 5.39195 25.291 5.67689C25.746 5.93978 26.1863 6.2284 26.6099 6.53909L29.9957 5.46364C30.396 5.33664 30.8277 5.34998 31.2194 5.50144C31.6111 5.6529 31.9391 5.9334 32.1491 6.29643L35.5017 12.0928C35.9291 12.841 35.7817 13.7878 35.1462 14.3706L32.5212 16.7604C32.6406 17.843 32.6406 18.9354 32.5212 20.018L35.1462 22.4079C35.7817 22.9925 35.9291 23.9374 35.5017 24.6857L32.1491 30.482C31.939 30.8455 31.6107 31.1262 31.2186 31.2777C30.8266 31.4292 30.3944 31.4423 29.9938 31.3148L26.6099 30.2394C25.7315 30.8853 24.7837 31.4316 23.7842 31.8682L23.0234 35.3225C22.9335 35.7317 22.7063 36.0981 22.3794 36.3609C22.0524 36.6237 21.6453 36.7671 21.2255 36.7674ZM17.8655 11.0302C15.9113 11.0302 14.0372 11.805 12.6553 13.184C11.2735 14.5631 10.4972 16.4335 10.4972 18.3837C10.4972 20.334 11.2735 22.2044 12.6553 23.5834C14.0372 24.9625 15.9113 25.7372 17.8655 25.7372C19.8197 25.7372 21.6939 24.9625 23.0758 23.5834C24.4576 22.2044 25.2339 20.334 25.2339 18.3837C25.2339 16.4335 24.4576 14.5631 23.0758 13.184C21.6939 11.805 19.8197 11.0302 17.8655 11.0302Z" fill="white"/>
<path d="M48.8556 49.8111L44.5299 50.9587C44.2588 51.0306 43.971 51.0081 43.714 50.8949C43.457 50.7817 43.2464 50.5846 43.117 50.3362L42.0297 48.2341C41.3083 48.1237 40.6011 47.9338 39.9213 47.668L37.9257 48.9397C37.6895 49.0903 37.4084 49.1559 37.1291 49.1254C36.8498 49.095 36.589 48.9704 36.3902 48.7723L33.213 45.617C33.0155 45.4183 32.8914 45.159 32.8609 44.8815C32.8305 44.604 32.8955 44.3247 33.0454 44.0894L34.3223 42.1011C34.0567 41.4244 33.8663 40.7209 33.7546 40.0033L31.6456 38.9171C31.3967 38.7875 31.1991 38.5776 31.0852 38.3219C30.9713 38.0663 30.948 37.78 31.019 37.51L32.1717 33.2035C32.2439 32.9335 32.4068 32.6965 32.6333 32.5318C32.8598 32.3672 33.1363 32.2848 33.417 32.2983L35.7874 32.4117C36.0197 32.1217 36.2678 31.8427 36.5304 31.5802C36.7856 31.3323 37.0532 31.0976 37.3325 30.8776L37.2144 28.521C37.2007 28.2419 37.2833 27.9668 37.4484 27.7414C37.6135 27.516 37.8512 27.3537 38.1221 27.2815L42.4478 26.134C42.7189 26.0623 43.0067 26.0852 43.2635 26.1987C43.5203 26.3122 43.7307 26.5095 43.8598 26.7579L44.9528 28.8573C45.3252 28.9158 45.6954 28.9939 46.06 29.0939C46.3993 29.1853 46.7336 29.2958 47.0611 29.4234L49.0579 28.1514C49.294 28.0011 49.5749 27.9358 49.854 27.9663C50.133 27.9968 50.3935 28.1213 50.5923 28.3191L53.7653 31.478C54.1714 31.8867 54.2414 32.5216 53.9329 33.0056L52.656 34.9939C52.9217 35.6707 53.112 36.3741 53.2237 37.0917L55.3337 38.1815C55.8455 38.4492 56.1053 39.0325 55.96 39.5874L54.8073 43.8939C54.7351 44.1639 54.5722 44.4009 54.3457 44.5656C54.1192 44.7302 53.8426 44.8126 53.562 44.7991L51.1915 44.6857C50.7374 45.252 50.2212 45.766 49.6524 46.2182L49.7636 48.5729C49.777 48.8518 49.6942 49.1266 49.5291 49.3518C49.364 49.577 49.1263 49.739 48.8556 49.8111ZM42.2025 33.8122C40.9418 34.1466 39.8678 34.9663 39.2166 36.0909C38.5655 37.2154 38.3907 38.5528 38.7306 39.8087C39.0704 41.0646 39.8972 42.1362 41.029 42.7878C42.1608 43.4393 43.5049 43.6175 44.7656 43.283C46.0264 42.9485 47.1004 42.1289 47.7515 41.0043C48.4027 39.8797 48.5775 38.5424 48.2376 37.2865C47.8977 36.0306 47.071 34.959 45.9392 34.3074C44.8074 33.6558 43.4633 33.4777 42.2025 33.8122Z" fill="white"/>
<path d="M40.6172 23.4435L38.4008 21.2381C38.2619 21.0999 38.1768 20.9166 38.1595 20.7184C38.1423 20.5203 38.1939 20.3192 38.306 20.1486L39.2568 18.7094C39.0775 18.2298 38.9533 17.7296 38.8864 17.2178L37.3957 16.4752C37.2192 16.3874 37.0808 16.2407 37.0037 16.0596C36.9265 15.8785 36.9151 15.6738 36.9715 15.4796L37.8655 12.3798C37.9227 12.1861 38.0434 12.0147 38.208 11.8934C38.3725 11.7722 38.5711 11.7083 38.7713 11.7124L40.4661 11.7528C40.8013 11.3407 41.1794 10.9645 41.5935 10.631L41.551 8.9466C41.5468 8.74722 41.611 8.54939 41.733 8.38553C41.855 8.22166 42.0275 8.10149 42.2223 8.04469L45.3365 7.15139C45.5318 7.09535 45.7375 7.10666 45.9195 7.18344C46.1015 7.26022 46.2489 7.39785 46.3372 7.57349L47.0835 9.05679C47.3466 9.09067 47.6082 9.13821 47.8644 9.20073C48.1088 9.26412 48.3492 9.33998 48.5843 9.42834L50.0301 8.48415C50.2015 8.37254 50.4034 8.32092 50.6026 8.33786C50.8018 8.35479 50.9861 8.43927 51.1251 8.57728L53.3415 10.7826C53.4802 10.9209 53.5651 11.1044 53.5822 11.3025C53.5992 11.5007 53.5473 11.7017 53.4351 11.8722L52.488 13.3138C52.5796 13.5619 52.658 13.8159 52.7207 14.0746C52.7802 14.3148 52.8258 14.559 52.8583 14.8053L54.3497 15.5486C54.526 15.6365 54.6641 15.7831 54.7411 15.964C54.8182 16.145 54.8295 16.3495 54.7733 16.5436L53.8755 19.6422C53.7578 20.0404 53.3815 20.318 52.9697 20.3096L51.275 20.2692C50.9397 20.6813 50.5617 21.0575 50.1476 21.391L50.1882 23.0773C50.1959 23.4876 49.9176 23.8615 49.5174 23.9786L46.4032 24.8719C46.208 24.9279 46.0023 24.9166 45.8203 24.8398C45.6383 24.763 45.4909 24.6254 45.4026 24.4498L44.6562 22.9665C44.1423 22.9 43.64 22.7764 43.1585 22.5979L41.7116 23.5372C41.5402 23.6486 41.3383 23.7 41.1393 23.683C40.9403 23.6659 40.7561 23.5814 40.6172 23.4435ZM48.4136 13.4758C47.7676 12.833 46.88 12.4834 45.946 12.5038C45.0119 12.5242 44.108 12.9129 43.4331 13.5845C42.7582 14.256 42.3675 15.1554 42.347 16.0848C42.3265 17.0142 42.6779 17.8974 43.3239 18.5401C43.9698 19.1828 44.8575 19.5325 45.7915 19.5121C46.7255 19.4917 47.6294 19.103 48.3043 18.4314C48.9793 17.7598 49.37 16.8604 49.3905 15.9311C49.4109 15.0017 49.0596 14.1185 48.4136 13.4758Z" fill="white"/>
</svg>
