<svg width="57" height="50" viewBox="0 0 57 50" fill="none" xmlns="http://www.w3.org/2000/svg">
<path d="M56.0648 7.36285C55.4889 7.05036 54.7853 7.08161 54.239 7.44023C54.1886 7.47446 48.9353 10.8003 39.174 10.708L39.1874 25.0007C39.1874 27.5572 38.7153 29.9991 37.893 32.2743C38.3145 32.1969 38.745 32.1434 39.1874 32.1434C43.1225 32.1434 46.3124 35.3412 46.3124 39.286H33.6996C31.7031 41.5166 29.2568 43.3276 26.4914 44.5656C29.7823 47.9867 34.3067 50 39.1874 50C49.0081 50 57 41.9883 57 32.1434V8.92977C57 8.27503 56.6378 7.67386 56.0648 7.36285ZM42.7499 25.0007C42.7499 23.0291 44.3456 21.4294 46.3124 21.4294C48.2807 21.4294 49.8749 23.0291 49.8749 25.0007H42.7499Z" fill="white"/>
<path d="M35.6253 24.9999V1.78627C35.6253 1.13004 35.2631 0.530357 34.6901 0.219354C34.1127 -0.0916488 33.412 -0.0618878 32.8643 0.295245C32.8124 0.32947 27.7358 3.57193 17.8126 3.57193C7.94443 3.57193 2.8708 0.365183 2.76393 0.298221C2.21174 -0.066352 1.51556 -0.0990891 0.941101 0.213402C0.36219 0.522917 0 1.12707 0 1.78627V24.9999C0 34.8448 7.99193 42.8565 17.8126 42.8565C27.6333 42.8565 35.6253 34.8463 35.6253 24.9999ZM10.6876 14.2859C12.6544 14.2859 14.2501 15.8856 14.2501 17.8572H7.12505C7.12505 15.8856 8.72077 14.2859 10.6876 14.2859ZM17.8126 32.1425C13.8775 32.1425 10.6876 28.9447 10.6876 24.9999H24.9377C24.9377 28.9447 21.7477 32.1425 17.8126 32.1425ZM21.3752 17.8572C21.3752 15.8856 22.9709 14.2859 24.9377 14.2859C26.9045 14.2859 28.5002 15.8856 28.5002 17.8572H21.3752Z" fill="white"/>
</svg>
