<svg width="49" height="54" viewBox="0 0 49 54" fill="none" xmlns="http://www.w3.org/2000/svg">
<path fill-rule="evenodd" clip-rule="evenodd" d="M24.5 4.90903C23.1469 4.90903 22.05 6.00796 22.05 7.36355C22.05 8.71914 23.1469 9.81806 24.5 9.81806C25.8531 9.81806 26.95 8.71914 26.95 7.36355C26.95 6.00796 25.8531 4.90903 24.5 4.90903ZM30.8687 11.0418C31.4929 9.95951 31.85 8.70331 31.85 7.36355C31.85 3.29677 28.5593 0 24.5 0C20.4407 0 17.15 3.29677 17.15 7.36355C17.15 8.70331 17.5071 9.95951 18.1313 11.0418C16.5475 11.6768 15.0803 12.5415 13.7707 13.595C12.5139 11.3416 10.1096 9.81806 7.35 9.81806C3.29071 9.81806 0 13.1148 0 17.1816C0 21.2484 3.29071 24.5452 7.35 24.5452C7.40815 24.5452 7.46614 24.5445 7.52397 24.5431C7.40932 25.3454 7.35 26.1656 7.35 26.9997C7.35 27.8337 7.40932 28.6539 7.52397 29.4562C7.46614 29.4549 7.40815 29.4542 7.35 29.4542C3.29071 29.4542 0 32.751 0 36.8177C0 40.8845 3.29071 44.1813 7.35 44.1813C10.1096 44.1813 12.5139 42.6577 13.7707 40.4044C14.447 40.9484 15.1654 41.4421 15.9201 41.8799L12.4252 50.6332C11.9227 51.8919 12.5338 53.3203 13.7901 53.8238C15.0464 54.3272 16.4722 53.715 16.9748 52.4564L20.4693 43.7041C21.762 44.016 23.1117 44.1813 24.5 44.1813C25.8883 44.1813 27.238 44.016 28.5307 43.7041L32.0252 52.4564C32.5278 53.715 33.9536 54.3272 35.2099 53.8238C36.4662 53.3203 37.0773 51.8919 36.5748 50.6332L33.0799 41.8799C33.8346 41.4421 34.553 40.9484 35.2293 40.4044C36.4861 42.6577 38.8904 44.1813 41.65 44.1813C45.7093 44.1813 49 40.8845 49 36.8177C49 32.751 45.7093 29.4542 41.65 29.4542C41.5919 29.4542 41.5339 29.4549 41.476 29.4562C41.5907 28.6539 41.65 27.8337 41.65 26.9997C41.65 26.1656 41.5907 25.3454 41.476 24.5431C41.5339 24.5445 41.5919 24.5452 41.65 24.5452C45.7093 24.5452 49 21.2484 49 17.1816C49 13.1148 45.7093 9.81806 41.65 9.81806C38.8904 9.81806 36.4861 11.3416 35.2293 13.595C33.9197 12.5415 32.4525 11.6768 30.8687 11.0418ZM31.2329 37.254C34.5566 35.0592 36.75 31.286 36.75 26.9997C36.75 20.2217 31.2655 14.7271 24.5 14.7271C17.7345 14.7271 12.25 20.2217 12.25 26.9997C12.25 31.286 14.4434 35.0592 17.7671 37.254L22.2252 26.0881C22.5973 25.1562 23.4982 24.5452 24.5 24.5452C25.5018 24.5452 26.4027 25.1562 26.7748 26.0881L31.2329 37.254ZM22.3164 39.0778C23.0249 39.2056 23.7547 39.2723 24.5 39.2723C25.2453 39.2723 25.9751 39.2056 26.6836 39.0778L24.5 33.6087L22.3164 39.0778ZM7.35 14.7271C5.9969 14.7271 4.9 15.826 4.9 17.1816C4.9 18.5372 5.9969 19.6361 7.35 19.6361C8.7031 19.6361 9.8 18.5372 9.8 17.1816C9.8 15.826 8.7031 14.7271 7.35 14.7271ZM41.65 14.7271C40.2969 14.7271 39.2 15.826 39.2 17.1816C39.2 18.5372 40.2969 19.6361 41.65 19.6361C43.0031 19.6361 44.1 18.5372 44.1 17.1816C44.1 15.826 43.0031 14.7271 41.65 14.7271ZM7.35 34.3632C5.9969 34.3632 4.9 35.4621 4.9 36.8177C4.9 38.1733 5.9969 39.2723 7.35 39.2723C8.7031 39.2723 9.8 38.1733 9.8 36.8177C9.8 35.4621 8.7031 34.3632 7.35 34.3632ZM41.65 34.3632C40.2969 34.3632 39.2 35.4621 39.2 36.8177C39.2 38.1733 40.2969 39.2723 41.65 39.2723C43.0031 39.2723 44.1 38.1733 44.1 36.8177C44.1 35.4621 43.0031 34.3632 41.65 34.3632Z" fill="white"/>
</svg>
