<svg width="54" height="50" viewBox="0 0 54 50" fill="none" xmlns="http://www.w3.org/2000/svg">
<path d="M12.6221 9.51701L34.1496 3.85043L33.0126 1.62767C32.2698 0.179957 30.4505 -0.412292 28.9497 0.304256L9.68104 9.51701H12.6221Z" fill="white"/>
<path d="M40.8263 4.01103C40.561 4.01103 40.2957 4.04759 40.0228 4.11339L19.5186 9.50943H44.6921L43.7446 6.16067C43.3883 4.8665 42.1604 4.01103 40.8263 4.01103Z" fill="white"/>
<path d="M47.8608 11.5624H3.03962C2.08453 11.5624 1.22798 11.9864 0.667049 12.6591C0.409326 12.9662 0.219823 13.3245 0.106121 13.7193C0.0379005 13.9679 0 14.2238 0 14.487V47.0753C0 48.6912 1.35684 50 3.03204 50H47.8532C49.5284 50 50.8852 48.6912 50.8852 47.0753V38.9155H32.8901C30.0475 38.9155 27.7356 36.6854 27.7356 33.9435V27.4361C27.7356 26.0907 28.2965 24.8697 29.1986 23.9703C30.002 23.1734 31.0708 22.6396 32.2761 22.5007C32.4732 22.4787 32.6854 22.4641 32.8901 22.4641H50.8852V14.487C50.8928 12.8712 49.5284 11.5624 47.8608 11.5624Z" fill="white"/>
<path d="M53.0146 25.2665C52.7114 24.996 52.3551 24.7913 51.9534 24.6597C51.6426 24.5573 51.3166 24.4988 50.968 24.4988H32.8894C31.2142 24.4988 29.8574 25.8076 29.8574 27.4235V33.9309C29.8574 35.5468 31.2142 36.8556 32.8894 36.8556H50.968C51.3166 36.8556 51.6426 36.7971 51.9534 36.6947C52.3551 36.5631 52.7114 36.3584 53.0146 36.0879C53.621 35.5541 54 34.7864 54 33.9309V27.4235C54 26.5753 53.621 25.8003 53.0146 25.2665ZM39.2188 31.2621C39.2188 32.0664 38.5366 32.7245 37.7028 32.7245H36.6946C35.8608 32.7245 35.1786 32.0664 35.1786 31.2621V30.2897C35.1786 29.8217 35.406 29.405 35.7623 29.1417C36.02 28.9516 36.3459 28.8273 36.6946 28.8273H37.7028C38.5366 28.8273 39.2188 29.4854 39.2188 30.2897V31.2621Z" fill="white"/>
</svg>
