<svg width="41" height="44" viewBox="0 0 41 44" fill="none" xmlns="http://www.w3.org/2000/svg">
<path d="M20.3419 9.1643C22.8331 9.1643 24.8508 7.11379 24.8508 4.58215C24.8508 2.05051 22.8331 0 20.3419 0C17.8508 0 15.8331 2.05051 15.8331 4.58215C15.8331 7.11379 17.8508 9.1643 20.3419 9.1643Z" fill="white"/>
<path d="M33.1244 10.9972C35.6155 10.9972 37.6332 8.94671 37.6332 6.41508C37.6332 3.88344 35.6155 1.83293 33.1244 1.83293C30.6333 1.83293 28.6156 3.88344 28.6156 6.41508C28.6156 8.94671 30.6333 10.9972 33.1244 10.9972Z" fill="white"/>
<path d="M7.87527 10.9972C10.3664 10.9972 12.3841 8.94671 12.3841 6.41508C12.3841 3.88344 10.3664 1.83293 7.87527 1.83293C5.38416 1.83293 3.36647 3.88344 3.36647 6.41508C3.36647 8.94671 5.38416 10.9972 7.87527 10.9972Z" fill="white"/>
<path d="M40.9812 26.2329L39.8202 16.8395C39.5384 14.5484 37.6109 12.8301 35.3452 12.8301H30.8927C30.3968 12.8301 29.8895 12.9217 29.3935 13.105C28.9539 13.2654 28.706 13.7465 28.8187 14.2047C28.9089 14.5484 28.9878 14.8921 29.0328 15.2472L30.2277 25.8892C30.3855 27.2982 29.9572 28.7072 29.0441 29.7382C28.8412 29.9673 28.6045 30.1735 28.2776 30.4141C28.0184 30.5974 27.8831 30.9067 27.9056 31.2274L28.6158 41.3081C28.6496 41.7893 29.0441 42.1558 29.5175 42.1558H36.7316C37.2051 42.1558 37.5996 41.7893 37.6334 41.3081L38.4788 29.3258C39.1889 29.28 39.854 28.9478 40.3274 28.3979C40.8347 27.8023 41.0714 27.0233 40.9812 26.2329Z" fill="white"/>
<path d="M12.6547 30.5859C12.2715 30.3339 11.9333 30.0475 11.6515 29.7382C10.7385 28.6958 10.3102 27.2982 10.468 25.8892L11.6628 15.2471C11.7079 14.8577 11.7868 14.4911 11.8882 14.136C11.9559 13.8954 11.9221 13.6434 11.7981 13.4372C11.6741 13.2195 11.4825 13.0706 11.2457 13.0133C10.8287 12.8988 10.468 12.853 10.1073 12.853H5.64355C3.37787 12.853 1.45035 14.5827 1.16855 16.8623L0.0188077 26.2328C-0.0713684 27.0118 0.165344 27.8022 0.672585 28.3979C1.14601 28.9478 1.81106 29.2685 2.5212 29.3258L3.3666 41.3081C3.40041 41.7892 3.79494 42.1558 4.26836 42.1558H11.4825C11.9559 42.1558 12.3504 41.7892 12.3842 41.3081L13.0831 31.4336C13.0944 31.0899 12.9365 30.7692 12.6547 30.5859Z" fill="white"/>
<path d="M28.4355 26.0953L27.2406 15.4532C26.9588 12.9216 24.975 11.0085 22.6416 11.0085H18.0427C15.7094 11.0085 13.7255 12.9216 13.4437 15.4532L12.2488 26.0953C12.1474 26.9888 12.4179 27.8708 12.9928 28.5238C13.4888 29.0851 14.1425 29.4059 14.8414 29.4517L15.8333 43.1523C15.8672 43.6334 16.2617 44 16.7351 44H23.9492C24.4226 44 24.8171 43.6334 24.851 43.1523L25.8429 29.4517C26.553 29.4059 27.2068 29.0851 27.6915 28.5238C28.2664 27.8708 28.5369 26.9888 28.4355 26.0953Z" fill="white"/>
</svg>
