<svg width="50" height="44" viewBox="0 0 50 44" fill="none" xmlns="http://www.w3.org/2000/svg">
<path d="M44.2105 8.93856H34.9836V3.27803C34.9836 1.47005 33.5526 0 31.7928 0H18.2072C16.4474 0 15.0164 1.47005 15.0164 3.27803V8.95545H5.78947C2.59868 8.93856 0 11.6083 0 14.8863V38.0522C0 41.3303 2.59868 44 5.78947 44H44.2105C47.4013 44 50 41.3303 50 38.0522V14.8863C50 11.6083 47.4013 8.93856 44.2105 8.93856ZM19.8026 4.91705H30.1974V8.85407H19.8026V4.91705ZM34.7697 27.8971C34.7533 28.0492 34.6711 28.2012 34.5395 28.2857C34.4079 28.3702 34.2599 28.404 34.1118 28.3702C33.7664 28.2857 33.3882 28.3195 33.0592 28.4716C32.2039 28.8602 31.8257 29.8909 32.2039 30.7527C32.352 31.0906 32.5822 31.361 32.8947 31.5469C33.0263 31.6313 33.125 31.7665 33.1579 31.9186C33.1908 32.0707 33.1579 32.2396 33.0757 32.3579C32.5 33.2028 31.7928 33.9631 30.9704 34.5883C30.8388 34.6897 30.6908 34.7235 30.5428 34.6897C30.3947 34.6559 30.2632 34.5714 30.1809 34.4363C29.9836 34.1152 29.7039 33.8618 29.3586 33.7435C29.1612 33.6759 28.9638 33.6252 28.75 33.6252C28.0592 33.6252 27.4342 34.0645 27.1711 34.7404C27.0395 35.0783 27.023 35.4501 27.1217 35.8049C27.1711 35.957 27.1382 36.126 27.0559 36.2611C26.9737 36.3963 26.8421 36.4808 26.6776 36.5146C26.1349 36.616 25.5757 36.6667 25 36.6667C24.5559 36.6667 24.0954 36.6329 23.6349 36.5653C23.4868 36.5484 23.3388 36.4639 23.2566 36.3287C23.1743 36.1936 23.1414 36.0246 23.1743 35.8725C23.2566 35.5008 23.2237 35.129 23.0757 34.7742C22.8125 34.149 22.2039 33.7435 21.5296 33.7435C21.2993 33.7435 21.0691 33.7942 20.8553 33.8955C20.5263 34.0476 20.2632 34.2842 20.0822 34.6052C20 34.7404 19.8684 34.8418 19.7204 34.8756C19.5724 34.9094 19.4079 34.8756 19.2763 34.7911C18.4539 34.1828 17.7138 33.4562 17.1053 32.6283C17.0066 32.4931 16.9737 32.341 17.0066 32.1889C17.0395 32.0369 17.1217 31.9017 17.2533 31.8172C17.5658 31.6144 17.8125 31.3272 17.9441 30.9724C18.1086 30.533 18.0921 30.0768 17.9112 29.6544C17.7303 29.232 17.4013 28.9109 16.9737 28.7419C16.6447 28.6068 16.2829 28.5899 15.9539 28.6912C15.8059 28.725 15.6414 28.7081 15.5099 28.6237C15.3783 28.5392 15.2961 28.404 15.2632 28.235C15.0987 27.2212 15.0822 26.1736 15.2303 25.1429C15.2467 24.9908 15.3289 24.8387 15.4605 24.7542C15.5921 24.6697 15.7401 24.6359 15.8882 24.6697C16.2336 24.7542 16.6118 24.7204 16.9408 24.5684C17.352 24.3825 17.6645 24.0445 17.8289 23.6052C17.9934 23.1659 17.977 22.7097 17.7961 22.2873C17.648 21.9662 17.4178 21.6959 17.1217 21.51C16.9901 21.4255 16.8914 21.2903 16.8586 21.1382C16.8257 20.9862 16.8586 20.8172 16.9408 20.6989C17.5164 19.8541 18.2237 19.1106 19.0461 18.4854C19.1612 18.384 19.3257 18.3502 19.4737 18.384C19.6217 18.4178 19.7533 18.5023 19.8355 18.6375C20.0329 18.9585 20.3125 19.1782 20.6414 19.3134C20.8388 19.3979 21.0362 19.4316 21.25 19.4316C21.9408 19.4316 22.5658 18.9923 22.8289 18.3164C22.9441 17.9954 22.977 17.6406 22.8947 17.2857C22.8618 17.1336 22.8783 16.9647 22.977 16.8464C23.0592 16.7112 23.1908 16.6267 23.3388 16.5929C24.3257 16.424 25.3454 16.4071 26.3322 16.5422C26.4803 16.5591 26.6283 16.6436 26.7105 16.7788C26.7928 16.914 26.8257 17.0661 26.7928 17.2181C26.727 17.573 26.7599 17.9447 26.9079 18.2657C27.1875 18.8909 27.7796 19.2965 28.4539 19.2965C28.6842 19.2965 28.9145 19.2458 29.1283 19.1444C29.4408 18.9923 29.7039 18.7558 29.8849 18.4685C29.9671 18.3333 30.0987 18.232 30.2467 18.2151C30.3947 18.1813 30.5592 18.2151 30.6743 18.2995C31.4967 18.8909 32.2204 19.6175 32.8289 20.4455C32.9276 20.5637 32.9605 20.7327 32.9276 20.8848C32.8947 21.0369 32.8125 21.172 32.6809 21.2565C32.3684 21.4593 32.1546 21.7465 32.023 22.0845C31.6941 22.98 32.1217 23.977 32.9934 24.3149C33.3059 24.4501 33.6678 24.467 34.0132 24.3825C34.1612 24.3487 34.3257 24.3656 34.4572 24.4501C34.5888 24.5346 34.6711 24.6697 34.7039 24.8218C34.8849 25.8356 34.9013 26.8664 34.7697 27.8971Z" fill="white"/>
<path d="M25 22.1861C24.4079 22.1861 23.8322 22.3212 23.273 22.5578C21.1349 23.5378 20.1809 26.1062 21.1184 28.3028C21.7928 29.8742 23.3224 30.8881 24.9836 30.8881C25.5757 30.8881 26.1513 30.7698 26.7105 30.5163C28.8487 29.5363 29.8026 26.9679 28.8651 24.7713C28.1908 23.1999 26.6776 22.1861 25 22.1861Z" fill="white"/>
</svg>
