<svg width="46" height="50" viewBox="0 0 46 50" fill="none" xmlns="http://www.w3.org/2000/svg">
<path d="M20.4699 0.816463C21.2095 0.285323 22.0939 0 23.0008 0C23.9077 0 24.7921 0.285323 25.5317 0.816463L44.7289 14.5995C47.1138 16.3125 45.9197 20.1168 42.9968 20.1234H3.01459C0.081857 20.1234 -1.11879 16.3158 1.27594 14.5995L20.4699 0.816463ZM23.0024 13.0692C23.7276 13.0692 24.4231 12.7777 24.9358 12.2588C25.4486 11.7399 25.7367 11.0361 25.7367 10.3023C25.7367 9.56846 25.4486 8.86468 24.9358 8.34579C24.4231 7.82689 23.7276 7.53538 23.0024 7.53538C22.2773 7.53538 21.5818 7.82689 21.069 8.34579C20.5562 8.86468 20.2682 9.56846 20.2682 10.3023C20.2682 11.0361 20.5562 11.7399 21.069 12.2588C21.5818 12.7777 22.2773 13.0692 23.0024 13.0692Z" fill="white"/>
<path d="M4.9599 23.443V36.7215H11.5208V23.443H4.9599Z" fill="white"/>
<path d="M0.0392101 47.2347C0.0392101 43.2612 3.22126 40.0411 7.14469 40.0411H38.8569C42.7836 40.0411 45.9656 43.2612 45.9656 47.2347V48.3402C45.9656 48.7804 45.7928 49.2026 45.4852 49.5139C45.1776 49.8251 44.7604 50 44.3254 50H1.67944C1.24442 50 0.827225 49.8251 0.519623 49.5139C0.21202 49.2026 0.0392101 48.7804 0.0392101 48.3402V47.2347Z" fill="white"/>
<path d="M41.045 23.443V36.7215H34.484V23.443H41.045Z" fill="white"/>
<path d="M31.2036 23.443V36.7215H24.6427V23.443H31.2036Z" fill="white"/>
<path d="M21.3622 23.443V36.7215H14.8013V23.443H21.3622Z" fill="white"/>
</svg>
