<svg width="58" height="54" viewBox="0 0 58 54" fill="none" xmlns="http://www.w3.org/2000/svg">
<path d="M55.1906 10.564L36.25 23.2113V12.5367C36.2512 12.1878 36.155 11.8458 35.9726 11.5503C35.7903 11.2548 35.5293 11.018 35.2199 10.8674C34.9105 10.7168 34.5654 10.6586 34.2248 10.6995C33.8842 10.7405 33.562 10.8789 33.2956 11.0987L21.8769 20.8146H14.5V2.4889L3.625 0V20.8146H0V52.1564C0 52.6453 0.190959 53.1143 0.530869 53.46C0.870779 53.8058 1.3318 54 1.8125 54H56.1875C56.6682 54 57.1292 53.8058 57.4691 53.46C57.809 53.1143 58 52.6453 58 52.1564V12.0942C57.9983 11.7622 57.9085 11.4368 57.7401 11.1524C57.5717 10.868 57.3309 10.6352 57.0431 10.4785C56.7554 10.3217 56.4314 10.2469 56.1053 10.262C55.7792 10.2771 55.4632 10.3814 55.1906 10.564ZM21.75 48.4691H7.25V44.7818H21.75V48.4691ZM21.75 41.0946H7.25V37.4073H21.75V41.0946ZM21.75 33.72H7.25V30.0328H21.75V33.72ZM36.25 48.4691H32.625V42.9382H36.25V48.4691ZM36.25 37.4073H32.625V31.8764H36.25V37.4073ZM43.5 48.4691H39.875V42.9382H43.5V48.4691ZM43.5 37.4073H39.875V31.8764H43.5V37.4073ZM50.75 48.4691H47.125V42.9382H50.75V48.4691ZM50.75 37.4073H47.125V31.8764H50.75V37.4073Z" fill="white"/>
</svg>
