<svg width="57" height="50" viewBox="0 0 57 50" fill="none" xmlns="http://www.w3.org/2000/svg">
<path d="M16.2228 16.4062L18.7277 0H5.7L0.2565 14.0625C0.0886666 14.5625 0 15.0813 0 15.625C0 19.075 3.64167 21.875 8.1415 21.875C12.2898 21.875 15.7193 19.4875 16.2228 16.4062ZM28.5 21.875C32.9967 21.875 36.6415 19.075 36.6415 15.625C36.6415 15.4969 36.632 15.3688 36.6257 15.2469L35.0138 0H21.9862L20.3712 15.2344C20.3648 15.3625 20.3585 15.4906 20.3585 15.625C20.3585 19.075 24.0033 21.875 28.5 21.875ZM44.3333 25.1437V37.5H12.6667V25.1625C11.2797 25.6562 9.75333 25.9375 8.1415 25.9375C7.524 25.9375 6.9255 25.8656 6.33333 25.7844V45.625C6.33333 48.0312 8.32516 50 10.7603 50H46.2333C48.6717 50 50.6667 48.0281 50.6667 45.625V25.7875C50.0681 25.8782 49.464 25.9293 48.8585 25.9406C47.3144 25.9391 45.7826 25.6693 44.3333 25.1437ZM56.7467 14.0625L51.2968 0H38.2723L40.774 16.3813C41.2617 19.475 44.6912 21.875 48.8585 21.875C53.3552 21.875 57 19.075 57 15.625C57 15.0813 56.9113 14.5625 56.7467 14.0625Z" fill="white"/>
</svg>
