<svg width="55" height="54" viewBox="0 0 55 54" fill="none" xmlns="http://www.w3.org/2000/svg">
<path d="M25.9638 50.1227C25.6724 48.7327 24.5205 46.9202 23.0238 46.8933C22.8997 46.8968 22.7755 46.9054 22.6488 46.9054C13.5065 46.9054 6.08681 38.2281 6.08681 27.5286C6.08681 20.6993 9.11038 14.703 13.6746 11.2555L14.7299 13.7123C15.4067 14.0405 16.424 14.0674 17.4655 13.734L25.3749 2.65777L11.5805 0C10.5786 0.453787 9.87253 1.14746 9.62768 1.82814L10.9304 4.86349C4.38061 9.50614 0 17.9142 0 27.5268C0 41.7718 9.6044 53.3884 21.6487 53.9989C23.4799 53.9998 26.4802 52.6072 25.9595 50.1218" fill="white"/>
<path d="M29.0328 3.87735C29.3276 5.26642 30.4726 7.07897 31.9727 7.10495C32.0977 7.10322 32.2202 7.09456 32.3478 7.09456C41.4926 7.09456 48.9097 15.7719 48.9097 26.4714C48.9097 33.3016 45.8827 39.297 41.3185 42.7454L40.2623 40.2885C39.5907 39.9603 38.5716 39.9352 37.5302 40.2669L29.6173 51.3431L43.4204 54C44.4214 53.5462 45.1249 52.8534 45.3723 52.1719L44.0705 49.1356C50.6194 44.4973 55 36.0849 55 26.4723C55 12.2274 45.3922 0.610776 33.3513 0.000242342C31.5192 -0.00148967 28.5163 1.39105 29.0405 3.87735" fill="white"/>
</svg>
