<svg width="54" height="54" viewBox="0 0 54 54" fill="none" xmlns="http://www.w3.org/2000/svg">
<path d="M29.7 16.2C31.8482 16.2 33.9085 17.0534 35.4276 18.5724C36.9466 20.0915 37.8 22.1517 37.8 24.3C37.8 25.0161 38.0845 25.7028 38.5908 26.2092C39.0972 26.7155 39.7839 27 40.5 27C41.2161 27 41.9028 26.7155 42.4092 26.2092C42.9155 25.7028 43.2 25.0161 43.2 24.3C43.2 20.7196 41.7777 17.2858 39.2459 14.7541C36.7142 12.2223 33.2804 10.8 29.7 10.8C28.9839 10.8 28.2972 11.0845 27.7908 11.5908C27.2845 12.0972 27 12.7839 27 13.5C27 14.2161 27.2845 14.9028 27.7908 15.4092C28.2972 15.9155 28.9839 16.2 29.7 16.2Z" fill="white"/>
<path d="M29.7 5.4C34.7126 5.4 39.5199 7.39124 43.0643 10.9357C46.6087 14.4801 48.6 19.2874 48.6 24.3C48.6 25.0161 48.8845 25.7028 49.3908 26.2092C49.8971 26.7155 50.5839 27 51.3 27C52.0161 27 52.7028 26.7155 53.2092 26.2092C53.7155 25.7028 54 25.0161 54 24.3C54 17.8552 51.4398 11.6744 46.8827 7.1173C42.3256 2.56017 36.1448 0 29.7 0C28.9839 0 28.2972 0.284463 27.7908 0.790812C27.2845 1.29716 27 1.98392 27 2.7C27 3.41608 27.2845 4.10284 27.7908 4.60919C28.2972 5.11554 28.9839 5.4 29.7 5.4ZM53.325 37.557C53.1765 37.1236 52.9201 36.735 52.58 36.428C52.2399 36.121 51.8273 35.9056 51.381 35.802L35.181 32.103C34.7413 32.0033 34.2836 32.0153 33.8497 32.1379C33.4158 32.2606 33.0195 32.4899 32.697 32.805C32.319 33.156 32.292 33.183 30.537 36.531C24.7136 33.8476 20.0475 29.1623 17.388 23.328C20.817 21.6 20.844 21.6 21.195 21.195C21.5101 20.8725 21.7394 20.4762 21.8621 20.0423C21.9847 19.6084 21.9967 19.1507 21.897 18.711L18.198 2.7C18.0944 2.25368 17.879 1.84105 17.572 1.50096C17.265 1.16087 16.8764 0.904506 16.443 0.756C15.8125 0.530791 15.1613 0.368011 14.499 0.27C13.8166 0.111767 13.1202 0.0213282 12.42 0C9.12601 0 5.96694 1.30853 3.63773 3.63773C1.30853 5.96694 0 9.12601 0 12.42C0.0142882 23.4433 4.39961 34.0111 12.1943 41.8057C19.9889 49.6004 30.5567 53.9857 41.58 54C43.211 54 44.8261 53.6787 46.3329 53.0546C47.8398 52.4304 49.209 51.5156 50.3623 50.3623C51.5156 49.209 52.4304 47.8398 53.0546 46.3329C53.6787 44.8261 54 43.211 54 41.58C54.0008 40.8928 53.9467 40.2066 53.838 39.528C53.7245 38.8574 53.5529 38.1979 53.325 37.557Z" fill="white"/>
</svg>
