<svg width="50" height="50" viewBox="0 0 50 50" fill="none" xmlns="http://www.w3.org/2000/svg">
<path d="M45.3097 12.5191H7.43704C6.98469 12.6066 6.51859 12.5931 6.07211 12.4794C5.62562 12.3657 5.20981 12.1548 4.85445 11.8616C4.49909 11.5685 4.21297 11.2004 4.01659 10.7838C3.8202 10.3671 3.71842 9.91225 3.71852 9.45168V9.39233L43.7473 7.83362V4.11646C43.8125 3.56185 43.7509 2.99967 43.5669 2.47238C43.383 1.94508 43.0816 1.46646 42.6856 1.07264C42.2895 0.678828 41.8091 0.380121 41.2806 0.19908C40.7522 0.0180383 40.1895 -0.0406048 39.635 0.027579L4.09349 5.80324C2.89398 6.24588 1.85876 7.04497 1.12697 8.09311C0.395189 9.14124 0.00191126 10.3882 0 11.6664V45.3145C0 46.5572 0.493829 47.7489 1.37285 48.6277C2.25187 49.5064 3.44408 50 4.68721 50H45.3097C46.5528 50 47.745 49.5064 48.624 48.6277C49.503 47.7489 49.9969 46.5572 49.9969 45.3145V17.1703L50 17.0422C50 15.8409 49.5226 14.6889 48.6729 13.8395C47.8232 12.9901 46.6707 12.5129 45.469 12.5129L45.3034 12.516L45.3097 12.5191ZM40.6225 34.3848C39.3789 34.3844 38.1865 33.8902 37.3075 33.0109C36.4284 32.1316 35.9348 30.9393 35.9353 29.6962C35.9357 28.4531 36.4301 27.2611 37.3097 26.3824C38.1893 25.5037 39.382 25.0103 40.6256 25.0107C41.2413 25.0109 41.851 25.1323 42.4198 25.368C42.9886 25.6038 43.5053 25.9492 43.9406 26.3846C44.3758 26.82 44.721 27.3368 44.9565 27.9055C45.1919 28.4742 45.313 29.0838 45.3128 29.6993C45.3126 30.3148 45.1911 30.9243 44.9553 31.4928C44.7195 32.0614 44.3739 32.578 43.9384 33.0131C43.5028 33.4482 42.9858 33.7933 42.4169 34.0286C41.8479 34.264 41.2382 34.385 40.6225 34.3848Z" fill="white"/>
</svg>
