<svg width="49" height="38" viewBox="0 0 49 38" fill="none" xmlns="http://www.w3.org/2000/svg">
<path d="M39.5581 8.86857H43.7231C45.3062 8.86857 46.5814 9.23888 47.5488 9.97951C48.5163 10.7201 49 11.9007 49 13.5212V19.94C49 20.3831 48.9969 20.7091 48.9906 20.918C48.9843 21.1269 48.9529 21.3833 48.8963 21.6872C48.8398 21.991 48.7581 22.2062 48.6513 22.3328C48.5446 22.4594 48.3875 22.5734 48.1802 22.6747C47.9729 22.7759 47.7122 22.8266 47.3981 22.8266H45.7396V36.8606C45.7396 37.1771 45.6485 37.4461 45.4663 37.6677C45.2842 37.8892 45.0674 38 44.8162 38H42.4981C42.3599 38 42.2531 37.9905 42.1777 37.9715C42.1023 37.9525 42.0395 37.9082 41.9892 37.8386C41.939 37.769 41.9044 37.7057 41.8856 37.6487C41.8667 37.5917 41.8353 37.4873 41.7913 37.3353C41.7474 37.1834 41.7003 37.0441 41.65 36.9175C41.6123 37.0062 41.5683 37.1233 41.5181 37.2689C41.4678 37.4145 41.4333 37.5126 41.4144 37.5632C41.3956 37.6139 41.3642 37.6772 41.3202 37.7531C41.2762 37.8291 41.2291 37.8797 41.1788 37.905C41.1286 37.9304 41.0658 37.9525 40.9904 37.9715C40.915 37.9905 40.8208 38 40.7077 38H38.5027C38.2263 38 37.997 37.8924 37.8148 37.6772C37.6326 37.4619 37.5415 37.1897 37.5415 36.8606V22.8266H35.8831C35.569 22.8266 35.3083 22.7759 35.101 22.6747C34.8937 22.5734 34.7366 22.4594 34.6298 22.3328C34.523 22.2062 34.4413 21.991 34.3848 21.6872C34.3283 21.3833 34.2969 21.1301 34.2906 20.9275C34.2843 20.725 34.2812 20.3958 34.2812 19.94V13.5212C34.2812 11.9007 34.7649 10.7201 35.7323 9.97951C36.6997 9.23888 37.975 8.86857 39.5581 8.86857ZM41.65 7.93803C40.6449 7.93803 39.7403 7.5424 38.9362 6.75112C38.1321 5.95985 37.73 5.02615 37.73 3.95003C37.73 2.88656 38.1321 1.96235 38.9362 1.17741C39.7403 0.39247 40.6449 0 41.65 0C42.6551 0 43.5629 0.39247 44.3733 1.17741C45.1837 1.96235 45.5888 2.88656 45.5888 3.95003C45.5888 5.02615 45.1837 5.95985 44.3733 6.75112C43.5629 7.5424 42.6551 7.93803 41.65 7.93803ZM22.4081 8.86857H26.5919C28.175 8.86857 29.4471 9.23888 30.4083 9.97951C31.3694 10.7201 31.85 11.9007 31.85 13.5212V20.6997L31.8217 21.2884L31.7275 21.8296L31.5579 22.2379L31.2846 22.5702L30.8606 22.7506L30.2669 22.8266H28.5896V36.8606C28.5896 37.1771 28.4985 37.4461 28.3163 37.6677C28.1342 37.8892 27.9174 38 27.6662 38H25.3669C25.2036 38 25.0748 37.9747 24.9806 37.924C24.8863 37.8734 24.8235 37.8259 24.7921 37.7816C24.7607 37.7373 24.7167 37.6107 24.6602 37.4018C24.6037 37.1929 24.5503 37.0315 24.5 36.9175C24.4623 37.0188 24.4152 37.1549 24.3587 37.3258C24.3021 37.4968 24.2613 37.6044 24.2362 37.6487C24.211 37.693 24.1702 37.7531 24.1137 37.8291C24.0571 37.905 23.988 37.9525 23.9063 37.9715C23.8247 37.9905 23.7147 38 23.5765 38H21.3527C21.0763 38 20.8501 37.8924 20.6742 37.6772C20.4983 37.4619 20.4104 37.1897 20.4104 36.8606V22.8266H18.7331C18.5069 22.8266 18.309 22.8013 18.1394 22.7506C17.9698 22.7 17.8285 22.6398 17.7154 22.5702C17.6023 22.5006 17.5112 22.3866 17.4421 22.2284C17.373 22.0701 17.3165 21.9372 17.2725 21.8296C17.2285 21.722 17.1971 21.5416 17.1783 21.2884C17.1594 21.0352 17.15 20.8389 17.15 20.6997V13.5212C17.15 11.9007 17.6306 10.7201 18.5917 9.97951C19.5529 9.23888 20.825 8.86857 22.4081 8.86857ZM24.5 7.93803C23.4949 7.93803 22.5903 7.5424 21.7862 6.75112C20.9821 5.95985 20.58 5.02615 20.58 3.95003C20.58 2.88656 20.9821 1.96235 21.7862 1.17741C22.5903 0.39247 23.4949 0 24.5 0C25.5051 0 26.4129 0.39247 27.2233 1.17741C28.0337 1.96235 28.4388 2.88656 28.4388 3.95003C28.4388 5.02615 28.0337 5.95985 27.2233 6.75112C26.4129 7.5424 25.5051 7.93803 24.5 7.93803ZM5.27692 8.86857H9.44192C11.025 8.86857 12.3003 9.23888 13.2677 9.97951C14.2351 10.7201 14.7188 11.9007 14.7188 13.5212V19.94C14.7188 20.3831 14.7157 20.7091 14.7094 20.918C14.7031 21.1269 14.6717 21.3833 14.6152 21.6872C14.5587 21.991 14.477 22.2062 14.3702 22.3328C14.2634 22.4594 14.1063 22.5734 13.899 22.6747C13.6917 22.7759 13.431 22.8266 13.1169 22.8266H11.4585V36.8606C11.4585 37.1771 11.3642 37.4461 11.1758 37.6677C10.9873 37.8892 10.7674 38 10.5162 38H8.21692C8.05359 38 7.92481 37.9747 7.83058 37.924C7.73635 37.8734 7.67353 37.8259 7.64212 37.7816C7.61071 37.7373 7.56673 37.6107 7.51019 37.4018C7.45365 37.1929 7.40026 37.0315 7.35 36.9175C7.31231 37.0188 7.26519 37.1549 7.20865 37.3258C7.15212 37.4968 7.11128 37.6044 7.08615 37.6487C7.06103 37.693 7.02019 37.7531 6.96365 37.8291C6.90712 37.905 6.83801 37.9525 6.75635 37.9715C6.67468 37.9905 6.56474 38 6.42654 38H4.22154C3.94513 38 3.71583 37.8924 3.53365 37.6772C3.35147 37.4619 3.26038 37.1897 3.26038 36.8606V22.8266H1.60192C1.28782 22.8266 1.02712 22.7696 0.819808 22.6557C0.6125 22.5417 0.455449 22.4151 0.348654 22.2759C0.241859 22.1366 0.160192 21.9087 0.103654 21.5922C0.0471154 21.2757 0.0157051 21.0098 0.00942308 20.7946C0.00314103 20.5794 0 20.2439 0 19.7881V13.3693C0 10.3688 1.75897 8.86857 5.27692 8.86857ZM7.35 7.93803C6.34487 7.93803 5.44026 7.5424 4.63615 6.75112C3.83205 5.95985 3.43 5.02615 3.43 3.95003C3.43 2.88656 3.83205 1.96235 4.63615 1.17741C5.44026 0.39247 6.34487 0 7.35 0C8.35513 0 9.26603 0.39247 10.0827 1.17741C10.8994 1.96235 11.3077 2.88656 11.3077 3.95003C11.3077 5.02615 10.8994 5.95985 10.0827 6.75112C9.26603 7.5424 8.35513 7.93803 7.35 7.93803Z" fill="white"/>
</svg>
