<svg width="45" height="40" viewBox="0 0 45 40" fill="none" xmlns="http://www.w3.org/2000/svg">
<path d="M42.1875 40H2.8125C2.05078 40 1.3916 39.7173 0.834961 39.1518C0.27832 38.5863 0 37.9167 0 37.1429V8.57143C0 7.76786 0.270996 7.09077 0.812988 6.54018C1.35498 5.98958 2.02148 5.71429 2.8125 5.71429H5.625V8.57143C5.625 10.506 6.14502 11.942 7.18506 12.8795C8.2251 13.817 9.58008 14.2857 11.25 14.2857C12.8906 14.2857 14.2383 13.7946 15.293 12.8125C16.3477 11.8304 16.875 10.4167 16.875 8.57143V5.71429H28.125V8.57143C28.125 10.506 28.645 11.942 29.6851 12.8795C30.7251 13.817 32.0801 14.2857 33.75 14.2857C35.4199 14.2857 36.7749 13.817 37.8149 12.8795C38.855 11.942 39.375 10.506 39.375 8.57143V5.71429H42.1875C42.9785 5.71429 43.645 5.98958 44.187 6.54018C44.729 7.09077 45 7.76786 45 8.57143V37.1429C45 37.9464 44.729 38.6235 44.187 39.1741C43.645 39.7247 42.9785 40 42.1875 40ZM16.875 31.6964V29.3304C18.75 28.2292 19.6875 25.7292 19.6875 21.8304C19.6875 20.2827 19.1602 19.1146 18.1055 18.3259C17.0508 17.5372 15.7031 17.1429 14.0625 17.1429C12.4219 17.1429 11.0742 17.5372 10.0195 18.3259C8.96484 19.1146 8.4375 20.2827 8.4375 21.8304C8.4375 25.5506 9.375 28.0208 11.25 29.2411V31.6964C9.60938 32.0238 8.26904 32.5744 7.229 33.3482C6.18896 34.122 5.6543 34.9851 5.625 35.9375C5.625 36.7411 8.4375 37.1429 14.0625 37.1429C19.6875 37.1429 22.5 36.7411 22.5 35.9375C22.4707 34.9851 21.936 34.122 20.896 33.3482C19.856 32.5744 18.5156 32.0238 16.875 31.6964ZM40.7812 20H29.5312C29.1504 20 28.8208 20.1414 28.5425 20.4241C28.2642 20.7068 28.125 21.0417 28.125 21.4286C28.125 21.8155 28.2642 22.1503 28.5425 22.433C28.8208 22.7158 29.1504 22.8571 29.5312 22.8571H40.7812C41.1621 22.8571 41.4917 22.7158 41.77 22.433C42.0483 22.1503 42.1875 21.8155 42.1875 21.4286C42.1875 21.0417 42.0483 20.7068 41.77 20.4241C41.4917 20.1414 41.1621 20 40.7812 20ZM28.125 27.1429C28.125 27.5298 28.2642 27.8646 28.5425 28.1473C28.8208 28.4301 29.1504 28.5714 29.5312 28.5714H35.1562C35.5371 28.5714 35.8667 28.4301 36.145 28.1473C36.4233 27.8646 36.5625 27.5298 36.5625 27.1429C36.5625 26.756 36.4233 26.4211 36.145 26.1384C35.8667 25.8557 35.5371 25.7143 35.1562 25.7143H29.5312C29.1504 25.7143 28.8208 25.8557 28.5425 26.1384C28.2642 26.4211 28.125 26.756 28.125 27.1429ZM40.7812 31.4286H29.5312C29.1504 31.4286 28.8208 31.5699 28.5425 31.8527C28.2642 32.1354 28.125 32.4702 28.125 32.8571C28.125 33.244 28.2642 33.5789 28.5425 33.8616C28.8208 34.1443 29.1504 34.2857 29.5312 34.2857H40.7812C41.1621 34.2857 41.4917 34.1443 41.77 33.8616C42.0483 33.5789 42.1875 33.244 42.1875 32.8571C42.1875 32.4702 42.0483 32.1354 41.77 31.8527C41.4917 31.5699 41.1621 31.4286 40.7812 31.4286ZM33.75 11.4286C32.9883 11.4286 32.3291 11.1458 31.7725 10.5804C31.2158 10.0149 30.9375 9.34524 30.9375 8.57143V2.85714C30.9375 2.05357 31.2085 1.37649 31.7505 0.825893C32.2925 0.275298 32.959 0 33.75 0C34.541 0 35.2075 0.275298 35.7495 0.825893C36.2915 1.37649 36.5625 2.05357 36.5625 2.85714V8.57143C36.5625 9.375 36.2915 10.0521 35.7495 10.6027C35.2075 11.1533 34.541 11.4286 33.75 11.4286ZM11.25 11.4286C10.4883 11.4286 9.8291 11.1458 9.27246 10.5804C8.71582 10.0149 8.4375 9.34524 8.4375 8.57143V2.85714C8.4375 2.05357 8.7085 1.37649 9.25049 0.825893C9.79248 0.275298 10.459 0 11.25 0C12.041 0 12.7075 0.275298 13.2495 0.825893C13.7915 1.37649 14.0625 2.05357 14.0625 2.85714V8.57143C14.0625 9.375 13.7915 10.0521 13.2495 10.6027C12.7075 11.1533 12.041 11.4286 11.25 11.4286Z" fill="white"/>
</svg>
