<svg width="38" height="50" viewBox="0 0 38 50" fill="none" xmlns="http://www.w3.org/2000/svg">
<path d="M33.3752 29.0465L34.3725 30.0296C30.9276 32.9411 26.5897 34.5283 22.0049 34.5283C11.5103 34.5283 2.97203 26.1115 2.97203 15.7663C2.97203 11.2453 4.5822 6.96921 7.53574 3.57461L8.5317 4.5564C9.16177 3.82071 9.86316 3.12669 10.6346 2.48605L8.54623 0.428719C7.96635 -0.142906 7.02455 -0.142906 6.44467 0.428719C2.28912 4.52515 0 9.97188 0 15.7663C0 21.5606 2.2878 27.0074 6.44467 31.1051C10.204 34.8109 15.086 37.0115 20.3339 37.3969V40.5649C20.3339 40.6092 20.3366 40.6522 20.3405 40.6951H14.4176C10.0322 40.6951 6.46449 44.2121 6.46449 48.5351C6.46449 49.3437 7.13022 50 7.9505 50H35.6894C36.5097 50 37.1754 49.3437 37.1754 48.5351C37.1754 44.2121 33.6077 40.6951 29.2223 40.6951H23.3007C23.3046 40.6522 23.3073 40.6092 23.3073 40.5649V37.4203C28.6952 37.113 33.7173 34.8981 37.5651 31.1051C38.145 30.5322 38.145 29.6051 37.5651 29.0334L35.4781 26.9761C34.8467 27.7131 34.1453 28.4058 33.3752 29.0465Z" fill="white"/>
<path d="M36.2561 19.1165L28.188 14.6138C27.6425 14.3091 26.9741 14.3638 26.4867 14.7544L25.1579 15.817C24.7497 16.1438 24.1976 16.2336 23.7049 16.0539L21.9085 15.399C20.7421 14.9732 19.8003 14.0812 19.3221 12.9484C18.844 11.8156 18.8664 10.5278 19.3829 9.41319L21.4078 5.04201C21.6483 4.52247 21.5716 3.9235 21.2057 3.48078L19.5876 1.5159C17.1612 1.91174 14.8047 2.91306 12.7626 4.54851C7.53575 8.73349 5.99822 15.761 8.57662 21.5658L13.0782 17.9628C14.0967 17.1477 15.3753 16.7727 16.679 16.9055C19.371 17.1803 21.3339 19.5631 21.0552 22.2181L20.9376 23.3353C20.8848 23.8419 21.034 24.3393 21.3603 24.7351L25.5304 29.7977C27.5963 29.2951 29.542 28.3445 31.2433 26.9825C33.8481 24.8979 35.5362 22.1087 36.2561 19.1165Z" fill="white"/>
<path d="M18.1004 21.9148C18.2101 20.8679 17.436 19.9278 16.374 19.8197C15.8602 19.7676 15.3556 19.9148 14.9541 20.2364L10.0667 24.1492C10.2464 24.3966 10.4326 24.6388 10.6268 24.8745C13.4403 28.29 17.6368 30.2171 22.009 30.2171H22.0499L19.0555 26.5829C18.2299 25.579 17.8482 24.3185 17.9842 23.0333L18.1004 21.9148Z" fill="white"/>
<path d="M24.1143 6.25957L22.0894 10.6308C21.9124 11.0123 21.9044 11.4368 22.0682 11.8235C22.232 12.2115 22.5424 12.5045 22.9413 12.6503L23.9426 13.0162L24.6136 12.4797C25.4365 11.8209 26.4325 11.4849 27.4377 11.4849C28.1946 11.4849 28.9567 11.675 29.6528 12.0644L36.6602 15.9746C36.7091 12.6074 35.5625 9.3013 33.3844 6.65672C30.8482 3.57853 27.2131 1.7061 23.298 1.36885L23.5159 1.63318C24.5977 2.94701 24.8263 4.71918 24.1143 6.25957Z" fill="white"/>
</svg>
