<svg width="50" height="50" viewBox="0 0 50 50" fill="none" xmlns="http://www.w3.org/2000/svg">
<path d="M50 8.33308V6.24981C50 2.79809 47.2018 0 43.75 0C40.2982 0 37.5 2.79809 37.5 6.24981V12.4996H27.0833V6.24981C27.0833 5.0988 28.0156 4.16654 29.1667 4.16654C30.3177 4.16654 31.25 5.0988 31.25 6.24981V8.33308H35.4167V6.24981C35.4167 2.79809 32.6185 0 29.1667 0C25.7148 0 22.9167 2.79809 22.9167 6.24981V29.4783C21.9609 29.2569 20.9831 29.1515 20.0013 29.1658C15.0013 29.1658 15.0013 31.2491 10.0013 31.2491C5.0013 31.2491 5 29.1658 0 29.1658V37.4989C5 37.4989 5 39.5821 10 39.5821C15 39.5821 15 37.4989 20 37.4989C25 37.4989 25 39.5821 30 39.5821C35 39.5821 35 37.4989 40 37.4989C45 37.4989 45 39.5821 50 39.5821V31.2491C45.6276 31.2491 45.0781 29.6567 41.6667 29.2556V6.24981C41.6667 5.0988 42.599 4.16654 43.75 4.16654C44.901 4.16654 45.8333 5.0988 45.8333 6.24981V8.33308H50ZM37.5 16.6662V20.8327H27.0833V16.6662H37.5ZM27.0833 30.9366V24.9992H37.5V29.3884C34.7982 29.9249 33.9896 31.2491 30 31.2491C29.0182 31.2634 28.0391 31.1579 27.0833 30.9366Z" fill="white"/>
<path d="M30 41.6669C25 41.6669 25 39.5836 20 39.5836C15 39.5836 15 41.6669 10 41.6669C5 41.6669 5 39.5836 0 39.5836V50H50V41.6669C45 41.6669 45 39.5836 40 39.5836C35 39.5836 35 41.6669 30 41.6669Z" fill="white"/>
</svg>
