<svg width="50" height="50" viewBox="0 0 50 50" fill="none" xmlns="http://www.w3.org/2000/svg">
<path d="M9.1294 49.5108C9.1294 49.7804 9.34817 49.9991 9.61772 49.9991H18.4335C18.7031 49.9991 18.9218 49.7804 18.9218 49.5108C18.9218 47.2413 18.9218 45.8924 18.9231 45.0187H9.1294V49.5108Z" fill="white"/>
<path d="M9.1294 42.0911H18.9231V37.1107H9.1294C9.1294 39.2604 9.1294 40.862 9.1294 42.0911Z" fill="white"/>
<path d="M18.9205 27.7878C18.8255 25.142 16.6795 23.073 14.0256 23.073C11.3926 23.073 9.2479 25.125 9.13461 27.75C9.132 28.3776 9.1294 33.638 9.1294 34.1744H18.9205C18.9218 33.7604 18.9231 28.0846 18.9205 27.7878Z" fill="white"/>
<path d="M26.9615 11.8814L16.0961 0.86718C14.9567 -0.28906 13.0933 -0.28906 11.9552 0.86718H11.9539L1.08973 11.8814H26.9615Z" fill="white"/>
<path d="M47.5558 40.5548H43.9045L36.6799 20.8062C36.3284 19.8466 35.4077 19.2034 34.3868 19.2034H28.053V14.8102C26.9318 14.8102 1.56653 14.8102 0 14.8102C0 15.7086 0 47.6849 0 48.5352C0 49.3451 0.654999 50 1.46496 50C2.27492 50 2.92992 49.3438 2.92992 48.5352V34.1759H6.201C6.201 34.0548 6.20231 27.7788 6.20752 27.6551C6.3755 23.4429 9.80936 20.1448 14.0271 20.1448C16.0716 20.1448 18.0066 20.9286 19.4755 22.3505C20.9404 23.7711 21.7843 25.6734 21.852 27.7085C21.8559 27.7736 21.8533 33.8647 21.8533 34.1759H25.1257V48.5287C25.1257 49.3372 25.782 49.9935 26.5906 49.9935C27.3993 49.9935 28.0556 49.3372 28.0556 48.5287V28.1213H30.0688L37.3011 48.3737C37.6475 49.3424 38.572 49.9935 39.6007 49.9935H47.5584C48.9049 49.9935 50 48.8984 50 47.5521V42.9962C49.9974 41.6498 48.9023 40.5548 47.5558 40.5548Z" fill="white"/>
</svg>
