<svg width="42" height="50" viewBox="0 0 42 50" fill="none" xmlns="http://www.w3.org/2000/svg">
<path d="M35.9532 19.5828C32.058 15.7131 26.8591 13.5374 21.3159 13.4567C15.7156 13.3733 10.4064 15.4488 6.36901 19.2951C2.33692 23.1387 0.0763396 28.2727 0.00191735 33.7543C-0.0379517 36.697 0.544137 39.5458 1.73091 42.2229C2.87648 44.8048 4.52307 47.0951 6.6255 49.03C7.3046 49.655 8.19102 50 9.1213 50H32.8766C33.8069 50 34.692 49.6576 35.3684 49.0352C37.439 47.1316 39.0696 44.8803 40.2139 42.3452C41.3993 39.7203 42 36.9235 42 34.0304C42.0013 28.5878 39.8537 23.4564 35.9532 19.5828ZM25.6577 37.0107H16.3429C15.5176 37.0107 14.8478 36.3545 14.8478 35.5459C14.8478 34.7374 15.5176 34.0811 16.3429 34.0811H25.6577C26.483 34.0811 27.1528 34.7374 27.1528 35.5459C27.1528 36.3545 26.483 37.0107 25.6577 37.0107ZM28.6478 31.5539H13.3541C12.5288 31.5539 11.859 30.8989 11.859 30.089C11.859 29.2805 12.5288 28.6242 13.3541 28.6242H28.6492C29.4745 28.6242 30.1443 29.2805 30.1443 30.089C30.1429 30.8976 29.4731 31.5539 28.6478 31.5539Z" fill="white"/>
<path d="M4.59615 16.9058C6.69459 14.9723 9.08275 13.4502 11.657 12.3786L11.1706 9.96719C11.0137 9.18857 11.3606 8.63259 11.5812 8.36958C11.8018 8.10656 12.2922 7.66517 13.1016 7.66517H28.9017C29.711 7.66517 30.2014 8.10526 30.422 8.36958C30.6426 8.63259 30.9895 9.18857 30.8327 9.96719L30.3476 12.3695C32.9298 13.4385 35.3193 14.9579 37.4111 16.8824L38.5061 11.4515C39.0749 8.62478 38.332 5.72772 36.4648 3.50121C34.5976 1.27601 31.8413 0 28.9003 0H13.1002C10.1605 0 7.40293 1.27601 5.53706 3.50121C3.66986 5.72902 2.92564 8.62608 3.49576 11.4515L4.59615 16.9058Z" fill="white"/>
</svg>
