<svg width="56" height="50" viewBox="0 0 56 50" fill="none" xmlns="http://www.w3.org/2000/svg">
<path d="M50.2095 20.0244H10.367V3.92499H12.4999C12.1597 4.58362 11.9661 5.32792 11.9661 6.11506V12.1594C11.9661 14.8454 14.1974 17.0301 16.9407 17.0301H18.3156C21.0588 17.0301 23.2901 14.8454 23.2901 12.1594V6.11613C23.2901 3.43022 21.0588 1.2455 18.3156 1.2455H18.0115C17.7173 0.517264 16.9932 0 16.1455 0H8.36204C7.25513 0 6.35712 0.879241 6.35712 1.96303V20.0244H5.79163C2.59885 20.0244 0 22.5679 0 25.695V26.5518C0 29.6789 2.59885 32.2235 5.79273 32.2235H6.41947V37.0588C6.41947 37.0631 6.41947 37.0673 6.41947 37.0716V39.2264C4.24501 40.0049 2.68964 42.0504 2.68964 44.445C2.68964 47.5079 5.23489 50 8.36314 50C11.4914 50 14.0366 47.5079 14.0366 44.445C14.0366 42.0954 12.5381 40.0831 10.4282 39.2724V38.3193L24.5928 32.2224H31.382L45.6232 38.3525V39.1717C43.4815 39.9664 41.9535 41.9958 41.9535 44.3679C41.9535 47.4308 44.4988 49.9229 47.627 49.9229C50.7553 49.9229 53.3005 47.4308 53.3005 44.3679C53.3005 41.9958 51.7736 39.9664 49.6308 39.1717V32.2224H50.2073C53.4011 32.2224 56 29.6779 56 26.5507V25.694C56.0022 22.5679 53.4033 20.0244 50.2095 20.0244ZM10.4282 34.0323V32.2235H14.6306L10.4282 34.0323ZM45.6232 34.0655L41.3443 32.2235H45.6232V34.0655Z" fill="white"/>
</svg>
