<svg width="61" height="44" viewBox="0 0 61 44" fill="none" xmlns="http://www.w3.org/2000/svg">
<path d="M23.7738 22C23.7738 24.9397 25.7896 27.4323 28.5553 28.2529L28.5584 15.7456C25.7896 16.5662 23.7738 19.0588 23.7738 22Z" fill="white"/>
<path d="M37.3019 22.0001C37.3019 19.0298 35.2447 16.5188 32.4346 15.7226L32.4314 28.2775C35.2416 27.4828 37.3019 24.9703 37.3019 22.0001Z" fill="white"/>
<path d="M11.8854 22C11.8854 15.5312 6.60989 10.2291 0 9.90607V34.094C6.60989 33.7694 11.8854 28.4688 11.8854 22Z" fill="white"/>
<path d="M45.2364 22C45.2364 13.4689 52.2514 6.49175 60.9994 6.16563V1.48667C60.9994 0.666017 60.31 0 59.4585 0H32.4392L32.436 11.8873C37.4002 12.7554 41.1793 16.9566 41.1793 21.9985C41.1793 27.0418 37.3986 31.2446 32.4312 32.1112L32.4297 43.9985H59.4585C60.31 43.9985 60.9994 43.3325 60.9994 42.5118V37.8328C52.2498 37.5067 45.2364 30.5296 45.2364 22Z" fill="white"/>
<path d="M28.5539 32.0959C23.631 31.1956 19.8964 27.0112 19.8964 22C19.8964 16.9857 23.6342 12.8013 28.5602 11.9026V0H1.54088C0.689424 0 0 0.666017 0 1.48667V6.16563C8.74965 6.49328 15.763 13.4704 15.763 22C15.763 30.5296 8.74965 37.5067 0 37.8344V42.5133C0 43.334 0.689424 44 1.54088 44H28.5507L28.5539 32.0959Z" fill="white"/>
<path d="M61 34.094V9.90607C54.3901 10.2307 49.1146 15.5312 49.1146 22C49.1146 28.4688 54.3901 33.7694 61 34.094Z" fill="white"/>
</svg>
