<svg width="82" height="79" viewBox="0 0 82 79" fill="none" xmlns="http://www.w3.org/2000/svg">
<path d="M54.4594 66.946H55.6258H57.0112L57.8494 66.6177L59.0157 67.1277H59.7449L60.255 68.0378L59.8906 68.9479L58.5419 69.6035L58.6514 70.5136H59.4167L59.6323 71.6425L60.0993 72.6831L61.1057 73.6884L61.7882 74.3698L62.0758 75.5905L63.0818 76.5957L62.0758 77.9594L61.1415 78.8923H59.5603L57.9434 79L57.1172 78.1748L56.542 77.0079H55.8056L55.0329 77.7802H53.7756L52.3742 76.3804L52.1047 75.5728L51.0444 74.5137V72.6831L50.1463 71.7855H48.4935L47.128 72.2886L46.6248 71.2118L45.2597 70.135L44.0377 69.4889L42.385 70.2788L40.8758 70.4942L39.6543 70.135L38.7919 68.4836L37.5699 67.4068L36.7076 68.8428H35.7736V67.6945L36.636 66.8331L36.0608 65.6125L35.3424 63.7457L35.0548 61.8075L33.9769 60.5153L32.2521 59.8693L31.7494 58.6495L30.815 57.7157L29.0903 58.0034H28.0839V56.6389L27.5811 55.2037L25.8202 54.8798L24.922 55.7775L23.2693 56.352L21.8317 55.5621H20.3226L19.6042 56.6389H18.0951H16.4419L16.0827 57.4288L15.1484 58.3618L15.0048 59.7254L13.2443 59.4032L12.2021 58.3618V56.9258L12.6695 55.5259L11.9145 54.7722H10.6929L10.6412 53.3336L9.76503 52.4579L9.56453 51.3828H8.53787L7.86221 50.7075L7.56168 49.2568L6.53503 48.8817L6.00941 49.4067L5.05779 48.5065L6.35996 47.2557L6.15947 45.2546L4.45672 43.6037L3.00449 43.6545V42.8038L2.05287 42.3033L0.450587 42.1031L0 40.4021L0.0996047 39.1513L0.625216 38.6263L0.0495885 37.1507L1.06114 36.6932L1.75363 36.6562L2.46465 35.9459L3.72198 35.2732L5.14359 34.3988L5.5446 33.6705H6.74717L6.89334 31.4135L6.30995 30.3574L6.56521 28.4644L6.30995 27.3355L7.80443 25.7336L8.49692 26.061L9.31703 25.4967L9.95475 24.8593V24.2955H10.7749L11.8869 23.1851L12.7613 22.9667L13.4538 22.2745L13.199 21.619V20.9273L12.0322 19.9805V18.6699L12.8467 17.8502L14.0441 17.5987L14.9263 16.717L16.3759 16.465L17.9515 15.9611L19.8112 15.741L20.7253 14.8279L21.1034 13.3169L21.9227 12.4981L22.9312 13.5056H24.3809L24.9483 12.0575H26.3979L28.0998 12.4352L30.3058 11.8684L31.125 11.05H32.3858L32.8899 12.2462L33.6781 13.0331H35.0328L35.5214 13.5211L36.6403 12.4034L38.3737 11.8055L39.0985 12.5296L39.9492 11.6169H41.9663L42.2185 8.21679L43.0693 7.24079L43.5423 6.76872V5.44643L44.5504 4.94292L42.9748 3.30576L43.7311 2.61317L45.0924 3.21746L47.6488 0.663742L48.4215 0L48.9605 0.179606L50.3261 1.7948L50.0743 2.5843L50.721 2.90734L50.8543 3.99834L49.9716 4.88003V6.3281L48.585 6.64252V7.58708L47.6398 8.53165V9.60198L48.3957 10.3575V11.4278L48.7109 12.5614L48.2698 13.5689L48.7738 14.0724L49.5935 13.0649L50.0976 11.6169L51.3583 11.302L52.6821 11.9317L53.5013 12.7501L54.6358 11.6798L55.2347 12.2776L55.5813 13.0649L56.6528 12.9392L57.3147 12.2776H58.4806L59.5784 11.8447V10.9833L58.851 10.2562L59.5245 8.93738L60.9798 9.74498L61.492 9.23329L62.0038 9.74498L62.7045 9.04506L63.6208 9.3681L63.9981 9.96033L63.8364 10.8756L64.5909 11.7909L65.5072 11.4678L67.0703 12.1678L68.0943 13.1907L69.2262 12.5985L70.5197 13.083L71.2476 12.356L71.975 12.5985L72.4872 13.1097L73.2146 12.8677L73.6458 11.9524H74.4004L76.0712 13.083L77.6882 13.9445L79.5207 14.6444L82 15.0213V16.1519L80.5448 16.9056V18.3593L79.7363 20.3514L78.281 21.6435L77.2031 23.2587L76.2329 24.2279H74.9933L73.8075 25.2508V27.0814L74.7238 28.535L74.2387 30.1502L73.5113 30.8768V31.3885L74.2926 32.1961L73.4035 33.0843L72.514 33.8109L71.2743 33.5417L69.9807 34.4031L70.0346 35.103L70.6008 35.6686L69.8191 36.449L69.2801 36.9874L68.4177 35.6953H67.4475L66.693 36.9336L66.3696 38.2796L65.1838 38.8718H63.7825L63.3513 38.4411L62.8662 39.4102V40.6485L62.3005 41.214L61.3588 42.2555L62.2819 43.5317L63.9502 44.7369H64.9794L65.8302 45.9769L66.7434 45.0651L67.0349 46.2664L66.7068 47.3582L65.8319 48.9609V49.834L64.2098 50.2169L63.2439 51.1817L61.7494 50.636V49.6522L60.9479 48.8515L59.7815 48.2688L58.688 47.9414L57.1207 49.1065L57.4122 50.4895L58.1046 51.1817L58.3232 53.1118L59.2348 54.568L61.0207 54.7493L61.7861 54.2398L63.5358 54.7864L64.0459 56.352V57.7351H63.2077L62.6972 57.0429L61.4946 57.1523V57.6618L60.3826 58.0439L58.9066 59.5187V60.3202L57.9589 61.5939V62.8322H57.1936L56.2096 64.6166L56.0272 65.6723L54.8971 66.1819L54.4594 66.946Z" fill="#C4C4C4" fill-opacity="0.2"/>
</svg>
