<svg width="50" height="48" viewBox="0 0 50 48" fill="none" xmlns="http://www.w3.org/2000/svg">
<path d="M33.8542 48C33.4635 48 33.0729 47.8957 32.7214 47.6609L23.8672 41.9217C22.9036 41.2957 22.6302 40.0043 23.2552 39.0391C23.8802 38.0739 25.1693 37.8 26.1328 38.4261L34.987 44.1652C35.9505 44.7913 36.224 46.0826 35.599 47.0478C35.2083 47.6609 34.5312 48 33.8542 48Z" fill="white"/>
<path d="M16.1458 48C15.4687 48 14.7917 47.6609 14.401 47.0478C13.776 46.0826 14.0495 44.7913 15.013 44.1652L23.8672 38.4261C24.8307 37.8 26.1198 38.0739 26.7448 39.0391C27.3698 40.0043 27.0964 41.2957 26.1328 41.9217L17.2786 47.6609C16.9271 47.8957 16.5365 48 16.1458 48Z" fill="white"/>
<path d="M22.9167 37.5652V45.913C22.9167 47.0609 23.8542 48 25 48C26.1458 48 27.0833 47.0609 27.0833 45.913V37.5652H22.9167Z" fill="white"/>
<path d="M45.3125 11.4783H4.6875C4.33594 11.4783 3.98437 11.4261 3.64583 11.3739V31.8261C3.64583 33.8348 5.28646 35.4783 7.29167 35.4783H42.7083C44.7135 35.4783 46.3542 33.8348 46.3542 31.8261V11.3739C46.0156 11.4261 45.6641 11.4783 45.3125 11.4783ZM37.5521 18.0261L29.5964 27.7174C28.9193 28.5391 27.7474 28.7217 26.849 28.1478L22.2786 25.1739L15.5078 31.7609C15.1042 32.1522 14.5833 32.3478 14.0495 32.3478C13.5026 32.3478 12.9688 32.1391 12.5521 31.7217C11.7448 30.9 11.7708 29.5696 12.5911 28.7739L20.5469 21.0261C21.237 20.3478 22.3177 20.2435 23.138 20.7652L27.5391 23.6217L34.3099 15.3783C35.0391 14.4913 36.3542 14.3609 37.2396 15.0913C38.151 15.8217 38.2812 17.1261 37.5521 18.0261Z" fill="white"/>
<path d="M45.3125 9.3913H4.6875C2.09635 9.3913 0 7.2913 0 4.69565C0 2.1 2.09635 0 4.6875 0H45.3125C47.9036 0 50 2.1 50 4.69565C50 7.2913 47.9036 9.3913 45.3125 9.3913Z" fill="white"/>
</svg>
