<svg width="53" height="48" viewBox="0 0 53 48" fill="none" xmlns="http://www.w3.org/2000/svg">
<path d="M15.4068 27.8417C16.8914 27.8417 18.343 27.7408 19.6956 27.5559V12.3405C18.3265 12.1555 16.8914 12.0546 15.4068 12.0546C6.9116 12.0546 0.0164955 15.249 0.0164955 19.1664V20.7131C0.0164955 24.6473 6.9116 27.8417 15.4068 27.8417Z" fill="white"/>
<path d="M15.4068 35.7772C16.8914 35.7772 18.343 35.6764 19.6956 35.4914V31.0361C18.3265 31.221 16.8914 31.3219 15.4068 31.3219C7.98381 31.3219 1.78151 28.9009 0.32991 25.656C0.115468 26.1268 0 26.6144 0 27.1187V28.6655C0.0164955 32.5996 6.9116 35.7772 15.4068 35.7772Z" fill="white"/>
<path d="M19.7121 39.3415V38.9884C18.343 39.1734 16.9079 39.2743 15.4233 39.2743C8.00031 39.2743 1.79801 36.8532 0.346405 33.6084C0.131964 34.0792 0.0164955 34.5667 0.0164955 35.0711V36.6179C0.0164955 40.552 6.9116 43.7296 15.4068 43.7296C17.1058 43.7296 18.7389 43.5951 20.2729 43.3597C19.8935 42.5695 19.6956 41.7289 19.6956 40.8715V39.3415H19.7121Z" fill="white"/>
<path d="M37.6097 0C29.098 0 22.2194 3.1944 22.2194 7.11173V8.65849C22.2194 12.5926 29.1145 15.7702 37.6097 15.7702C46.1214 15.7702 53 12.5758 53 8.65849V7.11173C53.0165 3.1944 46.1214 0 37.6097 0Z" fill="white"/>
<path d="M37.6097 19.2673C30.1867 19.2673 23.9844 16.8462 22.5328 13.6014C22.3184 14.0722 22.2029 14.5597 22.2029 15.0641V16.6109C22.2029 20.545 29.098 23.7226 37.5932 23.7226C46.1049 23.7226 52.9835 20.5282 52.9835 16.6109V15.0641C52.9835 14.5597 52.868 14.0722 52.6536 13.6014C51.235 16.8462 45.0326 19.2673 37.6097 19.2673Z" fill="white"/>
<path d="M37.6097 27.2196C30.1867 27.2196 23.9844 24.7986 22.5328 21.5538C22.3184 22.0245 22.2029 22.5121 22.2029 23.0165V24.5632C22.2029 28.4974 29.098 31.675 37.5932 31.675C46.1049 31.675 52.9835 28.4806 52.9835 24.5632V23.0165C52.9835 22.5121 52.868 22.0245 52.6536 21.5538C51.235 24.7818 45.0326 27.2196 37.6097 27.2196Z" fill="white"/>
<path d="M37.6097 35.5923C30.1867 35.5923 23.9844 33.1713 22.5328 29.9264C22.3184 30.3972 22.2029 30.8848 22.2029 31.3891V32.9359C22.2029 36.8701 29.098 40.0476 37.5932 40.0476C46.1049 40.0476 52.9835 36.8532 52.9835 32.9359V31.3891C52.9835 30.8848 52.868 30.3972 52.6536 29.9264C51.235 33.1545 45.0326 35.5923 37.6097 35.5923Z" fill="white"/>
<path d="M37.6097 43.5447C30.1867 43.5447 23.9844 41.1236 22.5328 37.8788C22.3184 38.3496 22.2029 38.8371 22.2029 39.3415V40.8883C22.2029 44.8224 29.098 48 37.5932 48C46.1049 48 52.9835 44.8056 52.9835 40.8883V39.3415C52.9835 38.8371 52.868 38.3496 52.6536 37.8788C51.235 41.1068 45.0326 43.5447 37.6097 43.5447Z" fill="white"/>
</svg>
