<svg width="50" height="50" viewBox="0 0 50 50" fill="none" xmlns="http://www.w3.org/2000/svg">
<path d="M25 7.20052C24.1406 7.20052 23.4375 6.4974 23.4375 5.63802V1.5625C23.4375 0.703125 24.1406 0 25 0C25.8594 0 26.5625 0.703125 26.5625 1.5625V5.63802C26.5625 6.4974 25.8594 7.20052 25 7.20052Z" fill="white"/>
<path d="M38.6849 12.8776C38.2812 12.8776 37.8906 12.7214 37.5781 12.4219C36.9661 11.8099 36.9661 10.8203 37.5781 10.2083L40.4557 7.33073C41.0677 6.71875 42.0573 6.71875 42.6693 7.33073C43.2812 7.94271 43.2812 8.93229 42.6693 9.54427L39.7917 12.4219C39.4922 12.7214 39.0885 12.8776 38.6849 12.8776Z" fill="white"/>
<path d="M48.4375 26.5625H44.362C43.5026 26.5625 42.7995 25.8594 42.7995 25C42.7995 24.1406 43.5026 23.4375 44.362 23.4375H48.4375C49.2969 23.4375 50 24.1406 50 25C50 25.8594 49.2969 26.5625 48.4375 26.5625Z" fill="white"/>
<path d="M41.5755 43.138C41.1719 43.138 40.7812 42.9818 40.4687 42.6823L37.5911 39.8047C36.9792 39.1927 36.9792 38.2031 37.5911 37.5911C38.2031 36.9792 39.1927 36.9792 39.8047 37.5911L42.6823 40.4687C43.2943 41.0807 43.2943 42.0703 42.6823 42.6823C42.3698 42.9818 41.9792 43.138 41.5755 43.138Z" fill="white"/>
<path d="M8.42448 43.138C8.02083 43.138 7.63021 42.9818 7.31771 42.6823C6.70573 42.0703 6.70573 41.0807 7.31771 40.4687L10.1953 37.5911C10.8073 36.9792 11.7969 36.9792 12.4089 37.5911C13.0208 38.2031 13.0208 39.1927 12.4089 39.8047L9.53125 42.6823C9.23177 42.9818 8.82812 43.138 8.42448 43.138Z" fill="white"/>
<path d="M5.63802 26.5625H1.5625C0.703125 26.5625 0 25.8594 0 25C0 24.1406 0.703125 23.4375 1.5625 23.4375H5.63802C6.4974 23.4375 7.20052 24.1406 7.20052 25C7.20052 25.8594 6.4974 26.5625 5.63802 26.5625Z" fill="white"/>
<path d="M11.3151 12.8776C10.9115 12.8776 10.5208 12.7214 10.2083 12.4219L7.31771 9.53125C6.70573 8.91927 6.70573 7.92969 7.31771 7.31771C7.92969 6.70573 8.91927 6.70573 9.53125 7.31771L12.4089 10.1953C13.0208 10.8073 13.0208 11.7969 12.4089 12.4089C12.1094 12.7214 11.7057 12.8776 11.3151 12.8776Z" fill="white"/>
<path d="M31.25 43.75V46.3542C31.25 48.3594 29.6094 50 27.6042 50H22.3958C20.651 50 18.75 48.6719 18.75 45.7552V43.75H31.25Z" fill="white"/>
<path d="M34.1927 13.6719C30.7812 10.8984 26.276 9.81771 21.875 10.7552C16.3542 11.901 11.875 16.4062 10.7292 21.9271C9.55729 27.5911 11.6927 33.2161 16.224 36.6536C17.4479 37.5651 18.3073 38.9844 18.5938 40.638V40.6641C18.6328 40.638 18.6979 40.638 18.737 40.638H31.237C31.276 40.638 31.3021 40.638 31.3411 40.6641V40.625C31.6276 39.0365 32.5651 37.5781 34.0104 36.4583C37.526 33.6719 39.5703 29.5052 39.5703 25C39.5833 20.5859 37.6302 16.4583 34.1927 13.6719ZM32.8125 26.0417C31.9531 26.0417 31.25 25.3385 31.25 24.4792C31.25 21.3151 28.6849 18.75 25.5208 18.75C24.6615 18.75 23.9583 18.0469 23.9583 17.1875C23.9583 16.3281 24.6615 15.625 25.5208 15.625C30.3906 15.625 34.375 19.6094 34.375 24.4792C34.375 25.3385 33.6719 26.0417 32.8125 26.0417Z" fill="white"/>
<path d="M18.6068 40.625H18.75C18.7109 40.625 18.6458 40.625 18.6068 40.651V40.625Z" fill="white"/>
<path d="M31.3542 40.625V40.651C31.3151 40.625 31.2891 40.625 31.25 40.625H31.3542Z" fill="white"/>
</svg>
