<svg width="52" height="50" viewBox="0 0 52 50" fill="none" xmlns="http://www.w3.org/2000/svg">
<path d="M27.0144 0.431875C27.1671 0.314942 27.3029 0.176947 27.4176 0.0219261H34.4455L34.5415 0.0191564C35.0395 -0.00638547 35.5385 -0.00638547 36.0365 0.0191564H36.1407C37.7024 0.0156685 39.2452 0.364891 40.6559 1.04126C43.2335 2.06191 45.4631 3.81485 47.0748 6.08806C48.295 7.80921 49.125 9.7804 49.5062 11.8618C49.8874 13.9432 49.8102 16.0838 49.2803 18.1317L40.2801 9.16544C39.8949 8.78183 39.3755 8.56687 38.8345 8.56714H25.8184C25.3702 8.56933 24.9345 8.71693 24.5757 8.98817L19.4077 12.9436C19.1301 13.1575 18.8134 13.314 18.4759 13.4042C18.1383 13.4943 17.7864 13.5163 17.4404 13.469C17.0944 13.4217 16.761 13.3059 16.4594 13.1283C16.1577 12.9507 15.8938 12.7147 15.6825 12.434C15.4723 12.1579 15.3184 11.8425 15.2295 11.5061C15.1406 11.1696 15.1187 10.8187 15.1648 10.4736C15.211 10.1285 15.3244 9.79611 15.4984 9.49551C15.6725 9.19491 15.9038 8.9321 16.179 8.72226L27.0144 0.431875Z" fill="white"/>
<path d="M13.4716 31.106L13.4359 31.142L10.7641 33.8233L10.7284 33.8565C10.2605 34.3058 9.63787 34.5536 8.99224 34.5474C8.34661 34.5411 7.72872 34.2815 7.26937 33.8233C7.03988 33.5936 6.85772 33.3203 6.73341 33.0191C6.6091 32.7179 6.54509 32.3948 6.54509 32.0686C6.54509 31.7423 6.6091 31.4192 6.73341 31.118C6.85772 30.8169 7.03988 30.5435 7.26937 30.3138L9.94117 27.6325C10.4065 27.1672 11.035 26.9061 11.6899 26.9061C12.3448 26.9061 12.9733 27.1672 13.4387 27.6325C13.8957 28.0906 14.1555 28.7122 14.1616 29.3624C14.1678 30.0127 13.9199 30.6392 13.4716 31.106Z" fill="white"/>
<path d="M12.6761 35.8093C12.2281 36.2766 11.9807 36.9032 11.9874 37.5535C11.994 38.2037 12.2543 38.8251 12.7117 39.2828C13.6773 40.2523 15.2409 40.2523 16.2092 39.2828L18.881 36.6043C19.1405 36.345 19.3392 36.0303 19.4626 35.6833C19.586 35.3363 19.631 34.9658 19.5942 34.599C19.5573 34.2322 19.4397 33.8784 19.2498 33.5635C19.06 33.2486 18.8027 32.9805 18.497 32.779C18.0283 32.4677 17.4691 32.3255 16.9103 32.3758C16.3515 32.4261 15.8259 32.6659 15.4192 33.056L15.3835 33.0948L12.7117 35.7733L12.6761 35.8093Z" fill="white"/>
<path d="M6.89356 23.2727C7.12305 23.5024 7.30521 23.7757 7.42952 24.0769C7.55384 24.3781 7.61784 24.7011 7.61784 25.0274C7.61784 25.3537 7.55384 25.6768 7.42952 25.9779C7.30521 26.2791 7.12305 26.5525 6.89356 26.7822L4.2245 29.4634C3.75902 29.9296 3.12998 30.1912 2.47439 30.1912C1.81879 30.1912 1.18975 29.9296 0.724277 29.4634C0.494787 29.2337 0.312628 28.9604 0.188315 28.6592C0.0640032 28.358 0 28.035 0 27.7087C0 27.3824 0.0640032 27.0593 0.188315 26.7582C0.312628 26.457 0.494787 26.1837 0.724277 25.954L3.39882 23.2727C3.86418 22.8073 4.49264 22.5463 5.14756 22.5463C5.80249 22.5463 6.4282 22.8073 6.89356 23.2727Z" fill="white"/>
<path d="M24.3234 38.5543C24.5529 38.784 24.735 39.0574 24.8593 39.3586C24.9836 39.6597 25.0476 39.9828 25.0476 40.3091C25.0476 40.6354 24.9836 40.9584 24.8593 41.2596C24.735 41.5608 24.5529 41.8341 24.3234 42.0638L21.6516 44.7451C21.1876 45.2131 20.5586 45.476 19.9028 45.476C19.247 45.476 18.618 45.2131 18.1541 44.7451C17.7897 44.3804 17.5481 43.9092 17.4635 43.3982C17.3788 42.8872 17.4553 42.3623 17.6823 41.8976L17.685 41.8921C17.8047 41.6488 17.9631 41.427 18.1541 41.2356L20.8259 38.5543C21.2913 38.089 21.9197 37.828 22.5746 37.828C23.2296 37.828 23.858 38.089 24.3234 38.5543Z" fill="white"/>
<path d="M6.46563 5.05488C8.28701 3.22767 10.4957 1.84215 12.9249 1.00291C15.3541 0.163665 17.9404 -0.107363 20.4885 0.210281L13.6938 5.4122C12.9863 5.95266 12.3917 6.6291 11.9442 7.40256C11.4967 8.17602 11.2052 9.03123 11.0864 9.91894C10.9676 10.8066 11.0238 11.7093 11.2519 12.575C11.48 13.4406 11.8755 14.2522 12.4155 14.9629C13.5057 16.3979 15.1138 17.3393 16.8888 17.5816C18.6638 17.8239 20.4617 17.3476 21.8902 16.2564L26.5096 12.7248H37.9896L47.6097 22.3087C47.6407 22.3474 47.6737 22.3843 47.7085 22.4195L50.8631 25.6049C51.5727 26.3315 51.9794 27.3052 51.9992 28.3254C52.0191 29.3457 51.6507 30.3348 50.97 31.0889C50.2892 31.8431 49.3479 32.3049 48.34 32.3792C47.3321 32.4535 46.3344 32.1346 45.5524 31.4883L45.2891 31.2223C45.238 31.1701 45.183 31.1219 45.1245 31.0783L42.1262 28.0536C41.9997 27.9213 41.8484 27.8158 41.681 27.7432C41.5137 27.6706 41.3337 27.6324 41.1516 27.6308C40.9695 27.6292 40.7889 27.6642 40.6203 27.7339C40.4518 27.8035 40.2986 27.9063 40.1698 28.0364C40.0411 28.1664 39.9392 28.3211 39.8703 28.4913C39.8013 28.6615 39.7666 28.8438 39.7682 29.0277C39.7698 29.2116 39.8076 29.3934 39.8795 29.5623C39.9514 29.7313 40.0559 29.8841 40.1868 30.0119L43.3414 33.1973C43.4567 33.3109 43.5719 33.4217 43.6926 33.5269L43.8133 33.6488C44.2987 34.1858 44.5604 34.891 44.544 35.6179C44.5276 36.3447 44.2343 37.0372 43.7252 37.5513C43.2161 38.0654 42.5303 38.3615 41.8105 38.3781C41.0906 38.3947 40.3922 38.1304 39.8604 37.6403L39.3941 37.1721C39.2006 36.9773 38.954 36.8453 38.6857 36.793C38.4175 36.7406 38.1399 36.7704 37.8885 36.8784C37.6371 36.9864 37.4234 37.1678 37.2747 37.3993C37.1261 37.6308 37.0493 37.9018 37.0542 38.1776C37.05 38.3649 37.0836 38.5512 37.153 38.725C37.2223 38.8988 37.3259 39.0565 37.4574 39.1886L38.0692 39.8063C38.3212 40.046 38.5231 40.3344 38.6628 40.6543C38.8025 40.9742 38.8771 41.3192 38.8824 41.6688C38.8876 42.0184 38.8232 42.3654 38.6931 42.6895C38.563 43.0135 38.3698 43.3078 38.125 43.555C37.8802 43.8023 37.5887 43.9973 37.2678 44.1287C36.9469 44.2601 36.6032 44.325 36.257 44.3198C35.9108 44.3145 35.5691 44.2391 35.2523 44.0981C34.9355 43.957 34.6499 43.7532 34.4126 43.4986H34.4071L34.3769 43.4626L33.8009 42.881C33.6743 42.7487 33.523 42.6432 33.3557 42.5706C33.1883 42.498 33.0083 42.4598 32.8262 42.4582C32.6441 42.4566 32.4635 42.4916 32.2949 42.5613C32.1264 42.6309 31.9732 42.7337 31.8445 42.8638C31.7157 42.9938 31.6138 43.1485 31.5449 43.3187C31.4759 43.4889 31.4412 43.6712 31.4428 43.8551C31.4444 44.039 31.4822 44.2208 31.5541 44.3897C31.626 44.5587 31.7305 44.7115 31.8615 44.8393L32.4595 45.4459C32.7057 45.6914 32.9016 45.9835 33.036 46.3055C33.1705 46.6275 33.2408 46.9731 33.2429 47.3225C33.2451 47.6719 33.1791 48.0184 33.0487 48.342C32.9182 48.6657 32.7259 48.9602 32.4828 49.2088C32.2396 49.4575 31.9504 49.6553 31.6315 49.791C31.3126 49.9268 30.9704 49.9978 30.6243 49.9999C30.2783 50.0021 29.9352 49.9355 29.6147 49.8038C29.2942 49.6721 29.0025 49.4779 28.7563 49.2324L24.8308 45.4653L26.2682 44.0194C26.7529 43.5342 27.1377 42.9569 27.4002 42.3208C27.6628 41.6847 27.7979 41.0024 27.7979 40.3132C27.7979 39.6241 27.6628 38.9418 27.4002 38.3057C27.1377 37.6695 26.7529 37.0922 26.2682 36.6071C25.7557 36.0921 25.1429 35.6901 24.4687 35.4265C23.7945 35.1628 23.0734 35.0433 22.3511 35.0753C22.3831 34.3485 22.2639 33.623 22.0012 32.9455C21.7385 32.268 21.3381 31.6537 20.8259 31.142C20.3131 30.6276 19.7002 30.2261 19.026 29.9629C18.3518 29.6997 17.6308 29.5806 16.9087 29.613C16.9401 28.8867 16.8207 28.1617 16.558 27.4848C16.2953 26.8079 15.8953 26.1939 15.3835 25.6825C14.7319 25.0288 13.9217 24.5594 13.034 24.3212C12.1463 24.083 11.2122 24.0844 10.3252 24.3252C10.1722 23.1864 9.65042 22.1307 8.84118 21.3226C7.93874 20.4194 6.74255 19.8773 5.47442 19.7968C4.2063 19.7163 2.95229 20.103 1.94497 20.885C1.29745 18.0766 1.37297 15.1475 2.16431 12.3769C2.95566 9.60633 4.43647 7.08376 6.46563 5.05488Z" fill="white"/>
</svg>
