<svg width="60" height="36" viewBox="0 0 60 36" fill="none" xmlns="http://www.w3.org/2000/svg">
<path fill-rule="evenodd" clip-rule="evenodd" d="M7.64844 0H53.3398C57.0117 0 59.9883 2.94336 60 6.57617V29.4238C60 33.0566 57.0234 36 53.3516 36H7.64844C3.97656 36 1 33.0566 1 29.4355V6.57617C1 2.94336 3.97656 0 7.64844 0ZM19.2266 25H15.3398L17.707 13.3145H14.2695L11.8828 25H8L11.0703 10H22.3047L19.2266 25ZM25.5938 10H29.1289L27.8281 16.2793L27.707 16.873L27.5469 17.5684L27.3477 18.375C27.2266 18.8496 27.0898 19.3691 26.9336 19.9316H27.0117L33.6094 10H38.4688L35.3984 25H31.8594L33.1211 18.7832C33.2109 18.3105 33.3164 17.8047 33.4414 17.2656C33.6094 16.5234 33.8086 15.7207 34.0352 14.8535H33.957L27.3789 25H22.5234L25.5938 10ZM46.0352 25H49.9219L53 10H41.7656L38.6953 25H42.5781L44.9648 13.3145H48.4023L46.0352 25Z" fill="white"/>
</svg>
