<svg width="51" height="51" viewBox="0 0 51 51" fill="none" xmlns="http://www.w3.org/2000/svg">
<path d="M8.05263 31.9304H0V51H8.05263V31.9304Z" fill="white"/>
<path d="M22.3684 19.9565H14.3158V51H22.3684V19.9565Z" fill="white"/>
<path d="M36.6842 26.6087H28.6316V51H36.6842V26.6087Z" fill="white"/>
<path d="M51 15.0783H42.9474V51H51V15.0783Z" fill="white"/>
<path d="M46.5263 0C44.2895 0 42.5 1.77391 42.5 3.9913C42.5 4.43478 42.5 5.32174 42.9474 5.76522L34.8947 11.9739C34.4474 11.9739 33.5526 11.5304 33.1053 11.5304C31.7632 11.5304 30.4211 12.4174 29.5263 13.3043L22.8158 10.6435V10.2C22.8158 7.98261 21.0263 6.2087 18.7895 6.2087C16.5526 6.2087 14.3158 7.98261 14.3158 10.2C14.3158 10.6435 14.3158 10.6435 14.3158 11.087L7.1579 15.5217C6.71053 14.6348 5.81579 14.1913 4.47368 14.1913C2.23684 14.1913 0.447368 15.9652 0.447368 18.1826C0.447368 20.4 2.23684 22.1739 4.47368 22.1739C6.71053 22.1739 8.5 20.4 8.5 18.1826C8.5 17.7391 8.5 17.7391 8.5 17.2957L15.6579 12.8609C16.5526 13.7478 17.4474 14.1913 18.3421 14.1913C19.6842 14.1913 20.5789 13.7478 21.4737 12.8609L28.6316 15.5217C28.6316 17.7391 30.4211 19.513 32.6579 19.513C34.8947 19.513 37.1316 17.7391 37.1316 15.5217C37.1316 15.0783 37.1316 14.1913 36.6842 13.7478L44.7368 7.53913C45.1842 7.98261 46.079 7.98261 46.9737 7.98261C49.2105 7.98261 51 6.2087 51 3.9913C51 1.77391 48.7632 0 46.5263 0Z" fill="white"/>
</svg>
