<svg width="48" height="46" viewBox="0 0 48 46" fill="none" xmlns="http://www.w3.org/2000/svg">
<path d="M11.0678 8.65001L30.4405 3.53864L29.2544 1.57273C28.8591 0 27.2776 -0.393182 25.6962 0.393182L8.69567 8.65001H11.0678Z" fill="white"/>
<path d="M36.3744 3.53984C35.979 3.53984 35.979 3.53984 35.5836 3.53984L31.2347 5.11257L17.397 9.04439H39.9326L39.1419 5.50575C38.7465 4.3262 37.5604 3.53984 36.3744 3.53984Z" fill="white"/>
<path d="M42.6989 10.6136H2.76752C1.9768 10.6136 1.18608 11.0068 0.790721 11.7932C0.395361 11.7932 0 12.1863 0 12.5795C0 12.9727 0 12.9727 0 13.3659V43.2477C0 44.8205 1.18608 46 2.76752 46H42.6989C44.2804 46 45.4665 44.8205 45.4665 43.2477V35.7773H29.2567C26.8845 35.7773 24.5124 33.8114 24.5124 31.0591V25.1614C24.5124 23.9818 24.9077 22.8023 25.6984 22.0159C26.8845 21.2295 27.6752 20.8364 28.8613 20.8364H45.4665V13.3659C45.4665 11.7932 44.2804 10.6136 42.6989 10.6136Z" fill="white"/>
<path d="M47.4409 23.1996C47.0455 22.8065 47.0455 22.8065 46.6502 22.8065C46.2548 22.8065 46.2548 22.8065 45.8594 22.8065H29.2543C27.6729 22.4133 26.4868 23.5928 26.4868 25.1655V31.0633C26.4868 32.636 27.6729 33.8156 29.2543 33.8156H45.4641C45.8594 33.8156 46.2548 33.8156 46.2548 33.8156C46.6502 33.8156 47.0455 33.4224 47.0455 33.4224C47.4409 33.0292 47.8362 32.2428 47.8362 31.4565V25.1655C48.2316 24.3792 47.8362 23.5928 47.4409 23.1996ZM34.7893 28.7042C34.7893 29.4905 33.9986 29.8837 33.6033 29.8837H32.8125C32.0218 29.8837 31.6265 29.0974 31.6265 28.7042V27.9178C31.2311 27.5246 31.6265 27.1315 32.0218 26.7383C32.4172 26.7383 32.4172 26.3451 32.8125 26.3451H33.6033C34.394 26.3451 34.7893 27.1315 34.7893 27.5246V28.7042Z" fill="white"/>
</svg>
