<svg width="50" height="50" viewBox="0 0 50 50" fill="none" xmlns="http://www.w3.org/2000/svg">
<path d="M49.1279 42.3977C49.7093 42.3977 50 41.8129 50 41.5205V38.8889C50 38.3041 49.7093 38.0117 49.1279 38.0117L27.907 33.0409C29.3605 31.2866 29.3605 28.9474 27.907 27.4854C27.3256 26.6082 26.4535 26.3158 25.8721 26.0234V25.1462L35.1744 15.7895C35.4651 15.4971 35.4651 14.9123 35.1744 14.3275L29.3605 8.47953V0.877193C29.3605 0.292398 29.0698 0 28.4884 0H21.5116C20.9302 0 20.6395 0.292398 20.6395 0.877193V8.77193L14.8256 14.6199C14.5349 14.9123 14.5349 15.4971 14.8256 15.7895L24.1279 25.1462V26.9006C24.1279 27.4854 24.4186 27.7778 25 27.7778C25 27.7778 25 27.7778 25.2907 27.7778C26.4535 27.7778 27.3256 28.655 27.3256 29.8246C27.0349 30.9942 26.1628 32.1637 25 32.1637C23.8372 32.1637 22.9651 31.2866 22.9651 30.117C22.9651 29.5322 22.6744 29.2398 22.093 29.2398C21.5116 29.2398 21.2209 29.5322 21.2209 30.117C21.2209 31.2866 21.5116 32.1637 22.3837 33.0409L1.16279 38.0117C0.290698 38.0117 0 38.3041 0 38.8889V41.5205C0 42.1053 0.290698 42.3977 0.872093 42.3977C1.74419 42.3977 2.32558 43.2749 2.32558 44.152C2.32558 45.0292 1.74419 45.614 0.872093 45.614C0.290698 45.614 0 46.1988 0 46.4912V49.1228C0 49.7076 0.290698 50 0.872093 50H48.8372C49.4186 50 49.7093 49.7076 49.7093 49.1228V46.4912C49.7093 45.9064 49.4186 45.614 48.8372 45.614C47.9651 45.614 47.3837 44.7368 47.3837 43.8596C47.6744 42.9825 48.2558 42.3977 49.1279 42.3977ZM22.3837 2.04678H27.6163V6.72515L25.5814 4.67836C25.2907 4.38596 24.7093 4.38596 24.4186 4.67836C24.4186 4.67836 24.4186 4.67836 24.1279 4.97076L22.3837 6.72515V2.04678ZM27.3256 9.35672L28.4884 10.5263L20.3488 18.4211L19.186 17.5439L27.3256 9.35672ZM25 23.3918L23.8372 22.2222L31.9767 14.0351L33.1395 15.2047L25 23.3918ZM41.8605 43.8596C41.8605 45.3216 40.6977 46.1988 39.5349 46.1988C38.0814 46.1988 37.2093 45.0292 37.2093 43.8596C37.2093 42.3977 38.3721 41.5205 39.5349 41.5205C40.6977 41.5205 41.8605 42.6901 41.8605 43.8596ZM32.2674 43.8596C32.2674 45.3216 31.1046 46.1988 29.9419 46.1988C28.7791 46.1988 27.3256 45.3216 27.3256 43.8596C27.3256 42.3977 28.4884 41.5205 29.6512 41.5205C30.814 41.5205 32.2674 42.6901 32.2674 43.8596ZM22.3837 43.8596C22.3837 45.3216 21.2209 46.1988 20.0581 46.1988C18.6047 46.1988 17.7326 45.0292 17.7326 43.8596C17.7326 42.3977 18.8953 41.5205 20.0581 41.5205C21.5116 41.5205 22.3837 42.6901 22.3837 43.8596ZM12.7907 43.8596C12.7907 45.3216 11.6279 46.1988 10.4651 46.1988C9.01163 46.1988 8.13953 45.0292 8.13953 43.8596C8.13953 42.3977 9.30233 41.5205 10.4651 41.5205C11.6279 41.5205 12.7907 42.6901 12.7907 43.8596ZM25 33.9181L40.9884 37.7193H9.01163L25 33.9181Z" fill="white"/>
</svg>
