<svg width="20" height="51" viewBox="0 0 20 51" fill="none" xmlns="http://www.w3.org/2000/svg">
<path d="M9.06174 13.0573C9.37424 13.0573 9.68674 13.3758 9.99924 13.3758C10.3117 13.3758 10.6242 13.0573 10.9367 13.0573C11.8742 11.7834 13.4367 9.55414 13.4367 6.6879C13.4367 4.14013 11.8742 1.59236 10.9367 0.318471C10.6242 0.318471 10.3117 0 9.99924 0C9.68674 0 9.37424 0.318471 9.06174 0.318471C8.12424 1.59236 6.56174 3.82166 6.56174 6.6879C6.56174 9.23567 8.12424 11.7834 9.06174 13.0573Z" fill="white"/>
<path d="M10 21.6551C10.3125 21.6551 14.6875 21.9735 17.5 19.1073C19.375 17.1965 20 14.3302 20 12.7379C20 12.4194 20 12.1009 19.6875 11.7825C19.375 11.464 19.0625 11.464 18.75 11.464C17.1875 11.464 14.375 12.1009 12.5 14.0118C10.625 15.9226 10 19.1073 10 20.6997C10 19.1073 9.375 15.9226 7.5 14.0118C5.625 12.1009 2.8125 11.464 1.25 11.464C0.9375 11.464 0.625 11.464 0.3125 11.7825C0 12.1009 0 12.4194 0 12.7379C0 14.3302 0.625 17.1965 2.5 19.1073C5.3125 21.6551 9.6875 21.6551 10 21.6551Z" fill="white"/>
<path d="M12.5 23.8835C10.625 25.7943 10 28.979 10 30.5714C10 28.979 9.375 25.7943 7.5 23.8835C5.625 21.9726 2.8125 21.3357 1.25 21.3357C0.9375 21.3357 0.625 21.3357 0.3125 21.6542C0 21.9726 0 22.2911 0 22.6096C0 24.2019 0.625 27.0682 2.5 28.979C5.3125 31.8452 9.6875 31.5268 10 31.5268C10.3125 31.5268 14.6875 31.8452 17.5 28.979C19.375 27.0682 20 24.2019 20 22.6096C20 22.2911 20 21.9726 19.6875 21.6542C19.375 21.3357 19.0625 21.3357 18.75 21.3357C17.1875 21.3357 14.375 21.9726 12.5 23.8835Z" fill="white"/>
<path d="M12.5 33.7599C10.3125 35.9892 10 38.8554 10 40.4478C10 38.8554 9.375 35.6707 7.5 33.7599C5.625 31.8491 2.8125 31.2121 1.25 31.2121C0.9375 31.2121 0.625 31.2121 0.3125 31.5306C0 31.8491 0 32.1675 0 32.486C0 34.0784 0.625 36.9446 2.5 38.8554C4.375 40.7663 7.1875 41.4032 8.75 41.4032V48.4096C8.75 49.365 9.375 50.0019 10 50.0019C10.9375 50.0019 11.25 49.365 11.25 48.4096V41.4032C12.8125 41.4032 15.625 40.7663 17.5 38.8554C19.375 36.9446 20 34.0784 20 32.486C20 32.1675 20 31.8491 19.6875 31.5306C19.375 31.2121 19.0625 31.2121 18.75 31.2121C17.1875 31.5306 14.375 31.8491 12.5 33.7599Z" fill="white"/>
</svg>
