<svg width="52" height="50" viewBox="0 0 52 50" fill="none" xmlns="http://www.w3.org/2000/svg">
<path d="M26.8222 20.8332C25.957 20.8332 25.5244 20.8332 24.6591 21.2499L15.1416 27.4999V22.9165C15.1416 22.0832 14.709 21.6665 14.2763 21.2499C13.8437 20.8332 12.5459 20.8332 11.6807 21.2499L0.865233 29.5832C0.432617 29.9999 0 30.8332 0 31.2499V47.9165C0 49.1665 0.865233 49.9998 2.16308 49.9998H28.1201V22.9165C28.1201 22.0832 27.6875 21.2499 26.8222 20.8332Z" fill="white"/>
<path d="M50.1836 31.25H30.2832V50H49.751C51.0488 50 51.9141 49.1667 51.9141 47.9167V33.3334C52.3467 32.5 51.0488 31.25 50.1836 31.25ZM38.9356 46.25H34.6094V42.0834H38.9356V46.25ZM38.9356 39.5834H34.6094V35.4167H38.9356V39.5834ZM48.0205 46.25H43.6944V42.0834H48.0205V46.25ZM48.0205 39.5834H43.6944V35.4167H48.0205V39.5834Z" fill="white"/>
<path d="M19.4678 4.16666C20.333 4.16666 20.7656 4.58332 21.6309 4.99999C22.4961 5.41666 23.7939 6.24999 25.957 6.24999C28.1201 6.24999 29.418 5.41666 30.2832 4.99999C31.1484 4.58332 31.5811 4.16666 32.4463 4.16666C33.7441 4.16666 33.7441 4.58332 34.6094 4.99999C35.4746 5.41666 36.7725 6.24999 38.9355 6.24999V2.08333C38.0703 2.08333 37.6377 1.66666 36.7725 1.25C36.3398 0.833332 35.042 0 32.4463 0C30.2832 0 28.9853 0.833332 28.1201 1.25C27.2549 1.66666 27.2549 2.08333 25.957 2.08333C24.6592 2.08333 24.6592 1.66666 24.2266 1.25C22.9287 0.833332 22.0635 0 19.4678 0C16.8721 0 16.0068 0.833332 15.1416 1.25C14.2764 1.66666 13.8438 2.08333 12.9785 2.08333V6.24999C15.1416 6.24999 16.4395 5.41666 17.3047 4.99999C18.1699 4.58332 18.6026 4.16666 19.4678 4.16666Z" fill="white"/>
<path d="M6.48925 12.4999C7.35448 12.4999 7.7871 12.9166 8.65233 13.3332C9.51756 13.7499 10.8154 14.5832 12.9785 14.5832C15.1416 14.5832 16.4394 13.7499 17.3047 13.3332C18.1699 12.9166 18.6025 12.4999 19.4677 12.4999C20.333 12.4999 20.7656 12.9166 21.6308 13.3332C22.4961 13.7499 23.7939 14.5832 25.957 14.5832V10.4166C25.0918 10.4166 24.6591 9.99992 23.7939 9.58325C22.9287 9.16659 22.0634 8.33325 19.4677 8.33325C16.872 8.33325 16.0068 9.16659 15.1416 9.58325C14.2763 10.4166 13.8437 10.4166 12.9785 10.4166C12.1133 10.4166 11.6806 9.99992 10.8154 9.58325C9.95018 9.16659 8.65233 8.33325 6.48925 8.33325C4.32617 8.33325 3.02832 9.16659 2.16308 9.58325C1.29785 10.4166 0.865233 10.4166 0 10.4166V14.5832C2.16308 14.5832 3.46093 13.7499 4.32617 13.3332C5.1914 12.9166 5.62402 12.4999 6.48925 12.4999Z" fill="white"/>
<path d="M36.7701 10.4178L35.4722 29.1678H46.7202L45.4224 10.0011C45.4224 8.75113 44.5572 7.9178 43.2593 7.9178H38.9331C38.0679 8.33447 37.2027 9.1678 36.7701 10.4178Z" fill="white"/>
</svg>
