<svg width="50" height="50" viewBox="0 0 50 50" fill="none" xmlns="http://www.w3.org/2000/svg">
<path d="M47.3684 47.0395V0H39.1447L28.2895 11.5132V47.3684H25.3289V14.1447L14.4737 25.6579V47.3684H6.90789V44.4079C9.21053 43.75 10.8553 41.7763 10.8553 39.1447C10.8553 36.1842 8.55263 33.5526 5.26316 33.5526C1.97368 33.5526 0 35.8553 0 38.8158C0 41.4474 1.64474 43.4211 3.94737 44.0789V47.0395H0V50H50V47.0395H47.3684ZM21.3816 41.7763H18.4211V37.5H21.3816V41.7763ZM21.3816 32.2368H18.4211V28.2895H21.3816V32.2368ZM36.5132 41.7763H33.5526V37.5H36.5132V41.7763ZM36.5132 32.2368H33.5526V28.2895H36.5132V32.2368ZM36.5132 23.0263H33.5526V18.75H36.5132V23.0263ZM42.1053 41.7763H39.1447V37.5H42.1053V41.7763ZM42.1053 32.2368H39.1447V28.2895H42.1053V32.2368ZM42.1053 23.0263H39.1447V18.75H42.1053V23.0263ZM42.1053 13.4868H39.1447V9.53947H42.1053V13.4868Z" fill="white"/>
</svg>
