<svg width="60" height="60" viewBox="0 0 60 60" fill="none" xmlns="http://www.w3.org/2000/svg">
<path d="M30.5 24.9999C30 24.9999 29 24.9999 28.5 25.4999L17.5 32.9999V27.4999C17.5 26.4999 17 25.9999 16.5 25.4999C15.5 24.9999 14.5 24.9999 13.5 25.4999L1 35.4999C0.500001 35.9999 0 36.9999 0 37.4999V57.4999C0 58.9999 1 59.9999 2.5 59.9999H32.5V27.4999C32.5 26.4999 32 25.4999 30.5 24.9999Z" fill="white"/>
<path d="M57.5 37.5H35V60H57.5C59 60 60 59 60 57.5V40C60 38.5 59 37.5 57.5 37.5ZM45 55H40V50H45V55ZM45 47.5H40V42.5H45V47.5ZM55 55H50V50H55V55ZM55 47.5H50V42.5H55V47.5Z" fill="white"/>
<path d="M22.5 5C23.5 5 24 5.5 25 6C26 6.5 27.5 7.5 30 7.5C32.5 7.5 34 6.5 35 6C36 5.5 36.5 5 37.5 5C38.5 5 39 5.5 40 6C41 6.5 42.5 7.5 45 7.5V2.5C44 2.5 43.5 2 42.5 1.5C41.5 1 40 0 37.5 0C35 0 33.5 1 32.5 1.5C31.5 2 31 2.5 30 2.5C29 2.5 28.5 2 27.5 1.5C26.5 1 25 0 22.5 0C20 0 18.5 1 17.5 1.5C16.5 2 16 2.5 15 2.5V7.5C17.5 7.5 19 6.5 20 6C21 5.5 21.5 5 22.5 5Z" fill="white"/>
<path d="M7.50001 14.9999C8.50001 14.9999 9.00001 15.4999 10 15.9999C11 16.4999 12.5 17.4999 15 17.4999C17.5 17.4999 19 16.4999 20 15.9999C21 15.4999 21.5 14.9999 22.5 14.9999C23.5 14.9999 24 15.4999 25 15.9999C26 16.4999 27.5 17.4999 30 17.4999V12.4999C29 12.4999 28.5 11.9999 27.5 11.4999C26.5 10.9999 25 9.99989 22.5 9.99989C20 9.99989 18.5 10.9999 17.5 11.4999C16.5 11.9999 16 12.4999 15 12.4999C14 12.4999 13.5 11.9999 12.5 11.4999C11.5 10.9999 10 9.99989 7.50001 9.99989C5 9.99989 3.5 10.9999 2.5 11.4999C1.5 11.9999 1 12.4999 0 12.4999V17.4999C2.5 17.4999 4 16.4999 5.00001 15.9999C6.00001 15.4999 6.50001 14.9999 7.50001 14.9999Z" fill="white"/>
<path d="M42.5007 12.4999L41.0007 34.9999H54.0007L52.5007 11.9999C52.5007 10.9999 51.5007 9.99989 50.0007 9.99989H45.0007C44.0007 9.99989 42.5007 10.9999 42.5007 12.4999Z" fill="white"/>
</svg>
