<svg width="61" height="60" viewBox="0 0 61 60" fill="none" xmlns="http://www.w3.org/2000/svg">
<path d="M14.8931 51.1061C22.8533 57.4288 35.059 58.4826 45.1419 52.1599C53.6328 46.891 61.593 33.7187 54.6941 18.4389C55.7555 17.912 56.8169 17.3851 57.8782 16.8582C62.1236 24.7616 63.185 38.9876 53.6328 49.5254C44.0805 60.5901 26.5681 64.2784 12.2398 53.7406C12.2398 54.2675 12.2398 55.3212 12.2398 55.8481C10.6477 55.8481 9.58635 55.8481 7.99431 56.375C7.99431 53.7406 7.46363 51.1061 7.46363 48.4717C7.46363 47.4179 7.99431 46.3641 9.05567 46.3641C11.7091 46.3641 14.3625 46.3641 17.0159 46.3641C17.0159 47.4179 17.0159 48.4717 17.0159 50.0523L16.4852 50.5792C15.9545 51.1061 15.4238 51.1061 14.8931 51.1061Z" fill="white"/>
<path d="M48.8562 6.32269C48.8562 5.26891 48.8562 4.74202 48.8562 4.21513C50.4482 4.21513 51.5096 4.21513 53.1016 3.68824C53.6323 6.32269 53.6323 8.95715 53.6323 11.5916C53.6323 12.6454 53.1016 13.6992 51.5096 13.6992C48.8562 13.6992 46.2028 13.6992 44.0801 13.6992C44.0801 12.1185 44.0801 11.0647 44.0801 9.48404C44.6107 9.48404 45.1414 9.48404 46.2028 9.48404C39.8346 4.21513 27.629 2.10756 17.0154 7.90337C7.46316 13.1723 0.0336432 26.8714 6.4018 41.6244C5.34044 42.1513 4.27908 42.6782 3.21772 43.2051C-1.02772 35.8286 -2.08908 22.1294 6.4018 11.5916C9.58588 7.37647 13.8313 4.21513 19.1381 2.10756C23.9142 0 29.221 -0.526891 34.5278 0.526891C39.8346 1.05378 44.6107 3.16135 48.8562 6.32269Z" fill="white"/>
<path d="M32.9338 48.4767C32.9338 43.2078 32.9338 37.412 32.9338 32.1431C32.9338 31.6162 32.9338 31.6162 33.4644 31.0893C38.7712 28.4549 44.078 25.2935 48.8541 22.6591C48.8541 22.6591 48.8541 22.6591 49.3848 22.6591V23.1859C49.3848 28.4549 49.3848 33.7238 49.3848 38.9927C49.3848 39.5196 49.3848 40.0465 48.8541 40.5734C43.5473 42.6809 38.7712 45.3154 33.9951 47.9498C33.4644 48.4767 33.4644 48.4767 32.9338 48.4767Z" fill="white"/>
<path d="M27.6296 48.4767C27.099 47.9498 26.0376 47.4229 24.9762 46.896C20.7308 45.3154 16.4854 43.2078 12.2399 41.1002C11.7092 41.1002 11.1786 40.5734 11.1786 40.0465C11.1786 34.2507 11.1786 28.9818 11.1786 23.1859C11.1786 23.1859 11.1786 23.1859 11.1786 22.6591C11.7092 22.6591 11.7092 23.1859 12.2399 23.1859C17.016 25.8204 21.7922 28.4549 26.5683 31.0893C27.099 31.0893 27.6296 32.1431 27.6296 32.1431C27.6296 37.412 27.6296 42.154 27.6296 47.4229C28.1603 47.9498 28.1603 47.9498 27.6296 48.4767Z" fill="white"/>
<path d="M46.2019 18.9717C45.1405 19.4986 44.0792 20.0255 43.0178 20.5524C39.303 22.66 35.0576 24.7675 31.3428 26.8751C30.8122 26.8751 30.2815 27.402 29.7508 26.8751C24.9747 24.2406 19.6679 21.6062 14.8918 18.4448C14.8918 18.4448 14.8918 18.4448 14.3611 17.918C14.8918 17.918 14.8918 17.3911 15.4224 17.3911C20.1986 15.8104 24.9747 13.7028 29.7508 11.5953C30.2815 11.5953 30.8122 11.0684 31.3428 11.5953C36.119 13.7028 40.8951 15.8104 45.6712 18.4448C45.6712 18.4448 46.2019 18.4448 46.2019 18.9717Z" fill="white"/>
</svg>
