<svg width="63" height="52" viewBox="0 0 63 52" fill="none" xmlns="http://www.w3.org/2000/svg">
<path d="M39.1604 11.8692C37.4577 11.8692 36.3226 10.7388 36.3226 9.04317V5.08679H26.1064V9.04317C26.1064 10.7388 24.9712 11.8692 23.2685 11.8692C21.5658 11.8692 20.4307 10.7388 20.4307 9.04317V5.08679C20.9982 2.26079 23.2685 0 26.1064 0H36.3226C39.1604 0 41.4307 2.26079 41.4307 5.08679V9.04317C41.4307 10.7388 40.2955 11.8692 39.1604 11.8692Z" fill="white"/>
<path d="M32.9189 34.4789C32.3514 34.4789 31.7838 35.044 31.2162 35.044C30.6486 35.044 30.0811 35.044 28.9459 34.4789L0 24.8705V44.6524C0 48.6088 3.40541 52 7.37838 52H55.6216C59.5946 52 63 48.6088 63 44.6524V24.8705L32.9189 34.4789Z" fill="white"/>
<path d="M62.4324 14.6969V20.3489L31.7838 31.0877H30.6486L0 20.9141V15.2621C0 11.3058 3.40541 7.91456 7.37838 7.91456H55.6216C59.027 7.91456 62.4324 10.7406 62.4324 14.6969Z" fill="white"/>
</svg>
