<svg width="28" height="70" viewBox="0 0 28 70" fill="none" xmlns="http://www.w3.org/2000/svg">
<path d="M12.686 18.2794C13.1235 18.2794 13.561 18.7253 13.9985 18.7253C14.436 18.7253 14.8735 18.2794 15.311 18.2794C16.6235 16.4961 18.811 13.3752 18.811 9.36264C18.811 5.79592 16.6235 2.2292 15.311 0.44584C14.8735 0.44584 14.436 0 13.9985 0C13.561 0 13.1235 0.44584 12.686 0.44584C11.3735 2.2292 9.18598 5.35008 9.18598 9.36264C9.18598 12.9294 11.3735 16.4961 12.686 18.2794Z" fill="white"/>
<path d="M14 30.3158C14.4375 30.3158 20.5625 30.7616 24.5 26.7491C27.125 24.074 28 20.0615 28 17.8323C28 17.3864 28 16.9406 27.5625 16.4948C27.125 16.0489 26.6875 16.0489 26.25 16.0489C24.0625 16.0489 20.125 16.9406 17.5 19.6156C14.875 22.2907 14 26.7491 14 28.9783C14 26.7491 13.125 22.2907 10.5 19.6156C7.875 16.9406 3.9375 16.0489 1.75 16.0489C1.3125 16.0489 0.875 16.0489 0.4375 16.4948C0 16.9406 0 17.3864 0 17.8323C0 20.0615 0.875 24.074 3.5 26.7491C7.4375 30.3158 13.5625 30.3158 14 30.3158Z" fill="white"/>
<path d="M17.5 33.435C14.875 36.1101 14 40.5685 14 42.7977C14 40.5685 13.125 36.1101 10.5 33.435C7.875 30.76 3.9375 29.8683 1.75 29.8683C1.3125 29.8683 0.875 29.8683 0.4375 30.3141C0 30.76 0 31.2058 0 31.6517C0 33.8809 0.875 37.8934 3.5 40.5685C7.4375 44.581 13.5625 44.1352 14 44.1352C14.4375 44.1352 20.5625 44.581 24.5 40.5685C27.125 37.8934 28 33.8809 28 31.6517C28 31.2058 28 30.76 27.5625 30.3141C27.125 29.8683 26.6875 29.8683 26.25 29.8683C24.0625 29.8683 20.125 30.76 17.5 33.435Z" fill="white"/>
<path d="M17.5 47.2622C14.4375 50.383 14 54.3956 14 56.6248C14 54.3956 13.125 49.9372 10.5 47.2622C7.875 44.5871 3.9375 43.6954 1.75 43.6954C1.3125 43.6954 0.875 43.6954 0.4375 44.1413C0 44.5871 0 45.033 0 45.4788C0 47.708 0.875 51.7206 3.5 54.3956C6.125 57.0706 10.0625 57.9623 12.25 57.9623V67.7708C12.25 69.1083 13.125 70 14 70C15.3125 70 15.75 69.1083 15.75 67.7708V57.9623C17.9375 57.9623 21.875 57.0706 24.5 54.3956C27.125 51.7206 28 47.708 28 45.4788C28 45.033 28 44.5871 27.5625 44.1413C27.125 43.6954 26.6875 43.6954 26.25 43.6954C24.0625 44.1413 20.125 44.5871 17.5 47.2622Z" fill="white"/>
</svg>
