<svg width="61" height="60" viewBox="0 0 61 60" fill="none" xmlns="http://www.w3.org/2000/svg">
<path d="M22.7445 41.5382C17.575 41.5382 13.4394 45.6408 13.4394 50.7691C13.4394 55.8974 17.575 60 22.7445 60H38.253C43.4225 60 47.558 55.8974 47.558 50.7691C47.558 45.6408 43.4225 41.5382 38.253 41.5382H22.7445Z" fill="white"/>
<path d="M58.9322 11.2822H48.5932V1.53848C48.5932 1.02566 47.5593 0 46.5254 0C45.4915 0 44.9746 1.02566 44.9746 1.53848V6.15393C41.3559 2.56414 36.1864 0 30.5 0C24.8136 0 19.6441 2.56414 16.0254 6.66676V1.53848C16.0254 1.02566 14.9915 0 14.4746 0C13.4407 0 12.4068 1.02566 12.4068 1.53848V11.2822H1.55085C1.0339 11.2822 0 12.3079 0 13.3335C0 20.0003 5.16949 25.6414 12.4068 26.1542C12.9237 30.2568 14.4746 35.3851 16.0254 40.0006C18.0932 38.9749 20.161 37.9493 22.7458 37.9493H38.2542C40.839 37.9493 42.9068 38.4621 44.9746 40.0006C46.5254 35.3851 48.0763 30.2568 48.5932 26.1542C55.3136 25.6414 61 20.0003 61 12.8207C61 12.3079 59.9661 11.2822 58.9322 11.2822Z" fill="white"/>
</svg>
