<svg width="65" height="60" viewBox="0 0 65 60" fill="none" xmlns="http://www.w3.org/2000/svg">
<path d="M48.5973 45.1482C44.345 45.1482 41.3076 48.1186 41.3076 52.2771C41.3076 56.4356 44.345 59.4059 48.5973 59.4059C52.8496 59.4059 55.887 56.4356 55.887 52.2771C56.4945 48.7126 52.8496 45.1482 48.5973 45.1482Z" fill="white"/>
<path d="M61.9626 10.0992H15.7944L15.1869 5.34664C14.5794 2.37629 12.1495 0 8.50467 0H2.42991C1.21495 0 0 1.18814 0 2.97036C0 4.75257 1.21495 5.94072 3.03738 5.94072H9.11215C9.71963 5.94072 9.71963 5.94072 9.71963 6.53479L13.972 36.2384C14.5794 39.8028 17.6168 42.7732 21.8692 42.7732H52.243C55.8879 42.7732 59.5327 40.3969 60.1402 36.8324L65 13.6636C65 11.8814 63.785 10.6933 61.9626 10.0992Z" fill="white"/>
<path d="M23.0824 45.1482C18.8301 45.1482 15.7927 48.7126 15.7927 52.8711C15.7927 57.0296 19.4375 60 23.0824 60C27.3347 60 30.3721 56.4356 30.3721 52.2771C30.3721 48.7126 26.7273 45.1482 23.0824 45.1482Z" fill="white"/>
</svg>
