<svg width="77" height="38" viewBox="0 0 77 38" fill="none" xmlns="http://www.w3.org/2000/svg">
<path d="M60.6404 9.80696H27.4337L29.4157 15.1118C29.8719 16.3554 30.1079 17.662 30.1079 19C30.1079 25.1392 25.1213 30.1292 18.9865 30.1292C12.8517 30.1292 7.86517 25.1392 7.86517 19C7.86517 12.8608 12.8517 7.87075 18.9865 7.87075H77L73.382 0H18.9865C8.51011 0 0 8.51616 0 19C0 29.4681 8.51011 38 18.9865 38C26.427 38 32.8921 33.6868 36.0067 27.4217H51.5326L47.6 19.551H37.973C37.973 19.3621 37.9888 19.1889 37.9888 19C37.9888 18.5592 37.973 18.1185 37.9416 17.6777H63.9596L60.6404 9.80696Z" fill="white"/>
</svg>
