<svg width="45" height="50" viewBox="0 0 45 50" fill="none" xmlns="http://www.w3.org/2000/svg">
<path d="M30.2329 13.1096C32.5823 13.1096 33.6581 12.1209 33.6581 10.3264C33.6581 8.51981 32.4711 7.54325 30.2329 7.54325H26.5357L26.4121 7.66532V12.9876L26.5357 13.1096H30.2329Z" fill="white"/>
<path d="M28.1929 26.3671C35.5626 26.3671 41.5474 20.4589 41.5474 13.1835C41.5474 5.90818 35.5626 0 28.1929 0C20.8232 0 14.8384 5.90818 14.8384 13.1835C14.8384 20.4589 20.8232 26.3671 28.1929 26.3671ZM21.7877 17.0898L21.9113 16.9677H24.0505L24.1742 16.8456V15.2831L24.0505 15.1611H21.9113L21.7877 15.039V13.2324L21.9113 13.1103H24.0505L24.1742 12.9882V5.57859L24.2978 5.45652H30.2331C33.9922 5.45652 35.8964 7.45846 35.8964 10.3515C35.8964 13.3666 33.7202 15.1611 30.2331 15.1611H26.5359L26.4123 15.2831V16.8456L26.5359 16.9677H31.0987L31.2224 17.0898V18.8964L31.0987 19.0185H26.5359L26.4123 19.1405V20.6908L26.2886 20.8129H24.2978L24.1742 20.6908V19.1405L24.0505 19.0185H21.9113L21.7877 18.8964V17.0898Z" fill="white"/>
<path d="M44.1564 31.7506C42.9941 30.6031 41.1022 30.6397 39.977 31.8116L35.612 36.438C32.768 39.4532 31.8159 41.211 29.2068 41.211H19.1415C18.313 41.211 17.6576 40.564 17.6576 39.7461C17.6576 38.9283 18.313 38.2813 19.1415 38.2813H26.709C28.3536 38.2813 29.6767 36.9629 29.6767 35.3516C29.6767 33.7281 28.3536 32.4219 26.709 32.4219H22.7027C22.5048 32.3365 22.3317 32.2633 22.1339 32.19C18.2141 28.3814 12.0191 28.2716 7.97561 31.775L3.8456 35.3516H1.48383C0.65536 35.3516 0 35.9986 0 36.8165V48.5352C0 49.3408 0.667725 50 1.48383 50H28.1928C31.4573 50 34.5362 48.4741 36.5023 45.8985L44.4285 35.4737C45.2817 34.3507 45.1704 32.7393 44.1564 31.7506Z" fill="white"/>
</svg>
