<svg width="62" height="48" viewBox="0 0 62 48" fill="none" xmlns="http://www.w3.org/2000/svg">
<path d="M46.6754 19.4782C45.2716 22.1449 42.4641 23.9999 39.3056 23.9999C36.1471 23.9999 33.3396 22.1449 31.9358 19.4782H0V48H47.1433C45.6225 46.1449 44.6867 43.826 44.6867 41.2753C44.6867 36.2898 48.3131 32.1159 52.9923 31.0724V19.5941L46.6754 19.4782ZM26.4377 42.6666C21.4075 42.6666 17.3132 38.6087 17.3132 33.6231C17.3132 28.6376 21.4075 24.5797 26.4377 24.5797C31.4679 24.5797 35.5622 28.6376 35.5622 33.6231C35.5622 38.6087 31.4679 42.6666 26.4377 42.6666Z" fill="white"/>
<path d="M55.2151 48C58.9623 48 62 44.9893 62 41.2754C62 37.5614 58.9623 34.5507 55.2151 34.5507C51.4679 34.5507 48.4302 37.5614 48.4302 41.2754C48.4302 44.9893 51.4679 48 55.2151 48Z" fill="white"/>
<path d="M39.3056 20.2899C41.8253 20.2899 43.8679 18.2655 43.8679 15.7682C43.8679 13.2709 41.8253 11.2464 39.3056 11.2464C36.7859 11.2464 34.7434 13.2709 34.7434 15.7682C34.7434 18.2655 36.7859 20.2899 39.3056 20.2899Z" fill="white"/>
<path d="M9.9434 0L7.01888 15.7681H31C31 11.2464 34.7433 7.53624 39.3056 7.53624C43.8679 7.53624 47.6112 11.2464 47.6112 15.7681H56.6188V30.8406C57.0867 30.9565 57.5546 30.9565 57.9056 31.0725L61.9999 9.27537L9.9434 0Z" fill="white"/>
</svg>
