<svg width="42" height="50" viewBox="0 0 42 50" fill="none" xmlns="http://www.w3.org/2000/svg">
<path d="M21 22.4609C27.1936 22.4609 32.2326 17.4229 32.2326 11.2305C32.2326 5.03807 27.1936 0 21 0C14.8064 0 9.76744 5.03807 9.76744 11.2305C9.76744 17.4229 14.8064 22.4609 21 22.4609Z" fill="white"/>
<path d="M26.3278 22.4609H25.3953V29.6402L27.3202 39.2635C27.4251 39.7881 27.2359 40.3282 26.8261 40.6723L21.9424 44.7739C21.67 45.0027 21.335 45.1172 21 45.1172C20.665 45.1172 20.33 45.0027 20.0576 44.7739L15.1739 40.6723C14.7641 40.3282 14.5749 39.7881 14.6794 39.2635L16.6047 29.6402V22.4609H15.6722C7.03065 22.4609 0 30.1273 0 39.5508V48.5352C0 49.3443 0.655868 50 1.46512 50H40.5349C41.3441 50 42 49.3443 42 48.5352V39.5508C42 30.1273 34.9693 22.4609 26.3278 22.4609Z" fill="white"/>
<path d="M17.7229 38.9874L21 41.7393L24.2771 38.9874L22.7291 31.25H19.2709L17.7229 38.9874Z" fill="white"/>
<path d="M19.5349 25.3906H22.4651V28.3203H19.5349V25.3906Z" fill="white"/>
</svg>
