<svg width="59" height="48" viewBox="0 0 59 48" fill="none" xmlns="http://www.w3.org/2000/svg">
<path d="M2.68182 42.6667V13.3333H0V8H8.04545V2.66667C8.04545 1.95942 8.328 1.28115 8.83094 0.781048C9.33388 0.280951 10.016 0 10.7273 0H48.2727C48.984 0 49.6661 0.280951 50.1691 0.781048C50.672 1.28115 50.9545 1.95942 50.9545 2.66667V8H59V13.3333H56.3182V42.6667H59V48H0V42.6667H2.68182ZM32.1818 42.6667V24H26.8182V42.6667H32.1818ZM18.7727 42.6667V24H13.4091V42.6667H18.7727ZM45.5909 42.6667V24H40.2273V42.6667H45.5909ZM13.4091 5.33333V8H45.5909V5.33333H13.4091Z" fill="white"/>
</svg>
