<svg width="32" height="37" viewBox="0 0 32 37" fill="none" xmlns="http://www.w3.org/2000/svg">
<g clip-path="url(#clip0)">
<path d="M29.3181 9.62037C28.0262 5.40729 24.6168 1.9819 20.4394 0.673887C16.0108 -0.706387 11.2951 0.0596289 7.69905 2.73346C4.13176 5.37838 2 9.62037 2 14.0792C2 17.1577 2.96898 20.0772 4.79211 22.527L16.0036 37.0018L27.2079 22.5342C29.9426 18.8631 30.7106 14.1514 29.3181 9.62037ZM16.0036 21.6743C11.8477 21.6743 8.46706 18.2706 8.46706 14.0864C8.46706 9.90221 11.8477 6.4985 16.0036 6.4985C20.1595 6.4985 23.5401 9.90221 23.5401 14.0864C23.5401 18.2706 20.1595 21.6743 16.0036 21.6743Z" fill="white"/>
</g>
<defs>
<clipPath id="clip0">
<rect width="32" height="37" fill="white"/>
</clipPath>
</defs>
</svg>
