<svg width="32" height="32" viewBox="0 0 32 32" fill="none" xmlns="http://www.w3.org/2000/svg">
<path d="M9.97447 13.4643C10.6987 16.5024 14.6085 20.2576 17.5054 20.9804C18.8068 21.2684 20.2553 20.5456 20.691 19.2468C21.2681 17.3664 23.735 16.7904 25.1835 18.236L29.2404 22.2849C30.2532 23.2957 30.2532 25.0293 29.2404 26.187L26.4905 28.9314C23.5936 31.8226 15.9155 28.6434 9.10877 21.8501C2.30205 15.0567 -0.742027 7.3938 2.00782 4.50254L4.75767 1.75811C5.77048 0.747298 7.50752 0.747298 8.66744 1.75811L12.7243 5.80699C14.1728 7.25262 13.5957 9.70906 11.7115 10.2907C10.4101 10.7199 9.54445 12.1655 9.97447 13.4643Z" fill="white"/>
</svg>
