<svg width="50" height="50" viewBox="0 0 50 50" fill="none" xmlns="http://www.w3.org/2000/svg">
<path d="M24.8113 10.4167C27.8491 10.4167 30.3096 8.08594 30.3096 5.20833C30.3096 2.33073 27.8491 0 24.8113 0C21.7748 0 19.313 2.33073 19.313 5.20833C19.313 8.08594 21.7776 10.4167 24.8113 10.4167Z" fill="white"/>
<path d="M40.3962 12.5C43.434 12.5 45.8945 10.1693 45.8945 7.29165C45.8945 4.41665 43.434 2.08331 40.3962 2.08331C37.3598 2.08331 34.8979 4.41534 34.8979 7.29165C34.8979 10.1693 37.3612 12.5 40.3962 12.5Z" fill="white"/>
<path d="M9.60546 12.5C12.6433 12.5 15.1037 10.1693 15.1037 7.29165C15.1037 4.41665 12.6433 2.08331 9.60546 2.08331C6.57041 2.08331 4.10718 4.41665 4.10718 7.29165C4.10718 10.1693 6.57041 12.5 9.60546 12.5Z" fill="white"/>
<path d="M49.974 29.8229L48.5651 19.1458C48.2215 16.5469 45.8778 14.5833 43.1108 14.5833H37.6813C37.0696 14.5833 36.4538 14.6862 35.849 14.8893C35.3074 15.0703 35.0063 15.6146 35.1534 16.1393C35.262 16.5247 35.3624 16.9166 35.4132 17.3229L36.8716 29.4232C37.0627 31.0247 36.5349 32.6211 35.4228 33.8021C35.1809 34.0599 34.884 34.3021 34.495 34.5664C34.183 34.7773 34.0084 35.1263 34.0373 35.487L34.9019 46.9479C34.9431 47.4948 35.4215 47.9166 35.9988 47.9166H44.796C45.372 47.9166 45.8517 47.4935 45.8929 46.9492L46.9197 33.3268C47.7857 33.2721 48.5981 32.8971 49.1754 32.276C49.8008 31.6041 50.0936 30.7122 49.974 29.8229Z" fill="white"/>
<path d="M15.4324 34.7708C14.9596 34.4896 14.5458 34.1641 14.2022 33.8047C13.0888 32.6237 12.561 31.0273 12.7534 29.4258L14.2118 17.3255C14.2654 16.888 14.3685 16.4674 14.4895 16.0573C14.5678 15.7878 14.528 15.5013 14.3809 15.2578C14.2366 15.0156 13.9919 14.8411 13.7087 14.7695C13.2001 14.6445 12.7603 14.5859 12.3204 14.5859H6.89087C4.12386 14.5859 1.77746 16.5456 1.43657 19.1484L0.0248869 29.8229C-0.0919516 30.7122 0.198083 31.6055 0.824887 32.2786C1.40358 32.8997 2.21458 33.2747 3.08193 33.3294L4.10874 46.9518C4.14997 47.4974 4.62695 47.918 5.20564 47.918H14.0029C14.5788 47.918 15.0586 47.4948 15.0998 46.9518L15.9465 35.7279C15.9795 35.3425 15.7788 34.9727 15.4324 34.7708Z" fill="white"/>
<path d="M34.685 29.6602L33.2266 17.5586C32.8788 14.6745 30.4692 12.5 27.6211 12.5H22.0059C19.1578 12.5 16.7454 14.6745 16.3991 17.5586L14.9406 29.6589C14.8183 30.6706 15.1468 31.6758 15.8451 32.4167C16.4458 33.0534 17.2417 33.4232 18.1035 33.4688L19.3173 49.0352C19.3599 49.5768 19.8382 50 20.4155 50H29.2128C29.7887 50 30.2657 49.5794 30.3097 49.0352L31.5235 33.4688C32.3881 33.4232 33.1812 33.0521 33.7819 32.4167C34.4774 31.6797 34.8059 30.6706 34.685 29.6602Z" fill="white"/>
</svg>
