<svg width="50" height="50" viewBox="0 0 50 50" fill="none" xmlns="http://www.w3.org/2000/svg">
<g clip-path="url(#clip0)">
<path d="M39.2344 48.793L42.0456 33.1055L46.1914 33.1055C47 33.1055 47.6562 32.4492 47.6562 31.6406L47.6562 22.8177L49.7435 19.7734C49.9102 19.5299 50 19.2409 50 18.9453L50 12.3047C50 11.5742 49.4609 10.9544 48.737 10.8542L46.4844 10.5417L46.4844 5.56641C46.4844 5.17839 46.3294 4.80599 46.0547 4.53125C45.7799 4.25651 45.4076 4.10286 45.0195 4.10286L40.3958 4.10286L37.1211 0.48177C36.8437 0.174479 36.4492 -5.92324e-07 36.0352 -6.10423e-07L28.6133 -9.34843e-07C28.2253 -9.51804e-07 27.8529 0.153645 27.5781 0.428384C27.3034 0.703124 27.1484 1.07552 27.1484 1.46484L27.1484 10.8711L20.2682 18.6445L11.8073 21.2617L5.92057 17.7826C5.55728 17.5677 5.11848 17.5208 4.71614 17.6523C4.31379 17.7852 3.98957 18.0846 3.82551 18.474L0.114573 27.263C0.0364482 27.4466 -0.00131346 27.6406 -0.00131347 27.832C-0.00131349 28.2435 0.173167 28.6484 0.496081 28.931L8.2591 35.7669C8.52603 36.0026 8.87108 36.1328 9.22655 36.1328L11.8151 36.1328L11.8151 41.4063C11.8151 42.1732 12.4075 42.8112 13.1719 42.8672L21.8594 43.5078L27.2266 49.5117C27.5039 49.8229 27.901 50 28.319 50L37.793 50C38.5026 50 39.1094 49.4922 39.2344 48.793Z" fill="white"/>
</g>
<defs>
<clipPath id="clip0">
<rect width="50" height="50" fill="white" transform="translate(50) rotate(90)"/>
</clipPath>
</defs>
</svg>
