<svg width="463" height="145" viewBox="0 0 463 145" fill="none" xmlns="http://www.w3.org/2000/svg">
<rect x="51" y="23" width="412" height="90" fill="white"/>
<path d="M126.516 43.0117H132.736C135.571 43.0117 137.626 43.4173 138.902 44.2285C140.188 45.0306 140.83 46.3112 140.83 48.0703C140.83 49.2643 140.548 50.2441 139.982 51.0098C139.426 51.7754 138.684 52.2357 137.754 52.3906V52.5273C139.021 52.8099 139.932 53.3385 140.488 54.1133C141.053 54.888 141.336 55.918 141.336 57.2031C141.336 59.026 140.675 60.4479 139.354 61.4688C138.041 62.4896 136.255 63 133.994 63H126.516V43.0117ZM130.754 50.9277H133.215C134.363 50.9277 135.193 50.75 135.703 50.3945C136.223 50.0391 136.482 49.4512 136.482 48.6309C136.482 47.8652 136.2 47.3184 135.635 46.9902C135.079 46.653 134.195 46.4844 132.982 46.4844H130.754V50.9277ZM130.754 54.291V59.5H133.516C134.682 59.5 135.544 59.2767 136.1 58.8301C136.656 58.3835 136.934 57.6999 136.934 56.7793C136.934 55.1204 135.749 54.291 133.379 54.291H130.754ZM148.322 55.3301C148.322 56.8431 148.568 57.987 149.061 58.7617C149.562 59.5365 150.373 59.9238 151.494 59.9238C152.606 59.9238 153.404 59.541 153.887 58.7754C154.379 58.0007 154.625 56.8522 154.625 55.3301C154.625 53.8171 154.379 52.6823 153.887 51.9258C153.395 51.1693 152.588 50.791 151.467 50.791C150.355 50.791 149.553 51.1693 149.061 51.9258C148.568 52.6732 148.322 53.8079 148.322 55.3301ZM158.891 55.3301C158.891 57.8184 158.234 59.7643 156.922 61.168C155.609 62.5716 153.782 63.2734 151.439 63.2734C149.972 63.2734 148.678 62.9544 147.557 62.3164C146.436 61.6693 145.574 60.7441 144.973 59.541C144.371 58.3379 144.07 56.9342 144.07 55.3301C144.07 52.8327 144.722 50.8913 146.025 49.5059C147.329 48.1204 149.161 47.4277 151.521 47.4277C152.989 47.4277 154.283 47.7467 155.404 48.3848C156.525 49.0228 157.387 49.9388 157.988 51.1328C158.59 52.3268 158.891 53.7259 158.891 55.3301ZM166.137 53.5938C167.714 53.5938 168.83 53.4661 169.486 53.2109C170.152 52.9557 170.484 52.5501 170.484 51.9941C170.484 51.502 170.243 51.1328 169.76 50.8867C169.277 50.6406 168.479 50.5176 167.367 50.5176C166.665 50.5176 165.868 50.6042 164.975 50.7773C164.09 50.9505 163.284 51.1875 162.555 51.4883L161.324 48.5762C162.409 48.166 163.462 47.8743 164.482 47.7012C165.503 47.5189 166.643 47.4277 167.9 47.4277C169.805 47.4277 171.332 47.7923 172.48 48.5215C173.629 49.2507 174.203 50.2396 174.203 51.4883C174.203 53.2109 173.187 54.332 171.154 54.8516V54.9883C172.403 55.2982 173.292 55.7402 173.82 56.3145C174.358 56.8796 174.627 57.6224 174.627 58.543C174.627 59.4727 174.326 60.2975 173.725 61.0176C173.123 61.7376 172.253 62.2936 171.113 62.6855C169.974 63.0775 168.634 63.2734 167.094 63.2734C164.542 63.2734 162.582 62.959 161.215 62.3301V58.8848C161.999 59.2493 162.855 59.5365 163.785 59.7461C164.724 59.9557 165.631 60.0605 166.506 60.0605C167.864 60.0605 168.88 59.9102 169.555 59.6094C170.229 59.2995 170.566 58.862 170.566 58.2969C170.566 57.6771 170.211 57.2214 169.5 56.9297C168.789 56.6289 167.695 56.4785 166.219 56.4785H164.605V53.5938H166.137ZM188.449 47.7148V50.8457H182.064V63H177.895V47.7148H188.449ZM194.615 55.3301C194.615 56.8431 194.861 57.987 195.354 58.7617C195.855 59.5365 196.666 59.9238 197.787 59.9238C198.899 59.9238 199.697 59.541 200.18 58.7754C200.672 58.0007 200.918 56.8522 200.918 55.3301C200.918 53.8171 200.672 52.6823 200.18 51.9258C199.688 51.1693 198.881 50.791 197.76 50.791C196.648 50.791 195.846 51.1693 195.354 51.9258C194.861 52.6732 194.615 53.8079 194.615 55.3301ZM205.184 55.3301C205.184 57.8184 204.527 59.7643 203.215 61.168C201.902 62.5716 200.075 63.2734 197.732 63.2734C196.265 63.2734 194.971 62.9544 193.85 62.3164C192.729 61.6693 191.867 60.7441 191.266 59.541C190.664 58.3379 190.363 56.9342 190.363 55.3301C190.363 52.8327 191.015 50.8913 192.318 49.5059C193.622 48.1204 195.454 47.4277 197.814 47.4277C199.282 47.4277 200.576 47.7467 201.697 48.3848C202.818 49.0228 203.68 49.9388 204.281 51.1328C204.883 52.3268 205.184 53.7259 205.184 55.3301ZM217.023 63.2734C215.228 63.2734 213.82 62.6217 212.799 61.3184H212.58C212.726 62.5944 212.799 63.3327 212.799 63.5332V69.7266H208.629V47.7148H212.02L212.607 49.6973H212.799C213.774 48.1842 215.219 47.4277 217.133 47.4277C218.938 47.4277 220.35 48.125 221.371 49.5195C222.392 50.9141 222.902 52.8509 222.902 55.3301C222.902 56.9616 222.661 58.3789 222.178 59.582C221.704 60.7852 221.025 61.7012 220.141 62.3301C219.257 62.959 218.217 63.2734 217.023 63.2734ZM215.793 50.7637C214.763 50.7637 214.011 51.0827 213.537 51.7207C213.063 52.3496 212.817 53.3932 212.799 54.8516V55.3027C212.799 56.9434 213.04 58.1191 213.523 58.8301C214.016 59.541 214.79 59.8965 215.848 59.8965C217.716 59.8965 218.65 58.3561 218.65 55.2754C218.65 53.7715 218.418 52.6458 217.953 51.8984C217.497 51.1419 216.777 50.7637 215.793 50.7637ZM236.055 63L235.248 60.9219H235.139C234.437 61.806 233.712 62.4212 232.965 62.7676C232.227 63.1048 231.26 63.2734 230.066 63.2734C228.599 63.2734 227.441 62.8542 226.594 62.0156C225.755 61.1771 225.336 59.9831 225.336 58.4336C225.336 56.8112 225.901 55.6172 227.031 54.8516C228.171 54.0768 229.884 53.6484 232.172 53.5664L234.824 53.4844V52.8145C234.824 51.265 234.031 50.4902 232.445 50.4902C231.224 50.4902 229.788 50.8594 228.139 51.5977L226.758 48.7812C228.517 47.8607 230.467 47.4004 232.609 47.4004C234.66 47.4004 236.232 47.847 237.326 48.7402C238.42 49.6335 238.967 50.9915 238.967 52.8145V63H236.055ZM234.824 55.918L233.211 55.9727C231.999 56.0091 231.096 56.2279 230.504 56.6289C229.911 57.0299 229.615 57.6406 229.615 58.4609C229.615 59.6367 230.29 60.2246 231.639 60.2246C232.605 60.2246 233.375 59.9466 233.949 59.3906C234.533 58.8346 234.824 58.0964 234.824 57.1758V55.918ZM247.443 47.7148V53.5938H253.268V47.7148H257.438V63H253.268V56.6973H247.443V63H243.273V47.7148H247.443ZM265.846 47.7148V53.7578C265.846 54.3958 265.741 55.9544 265.531 58.4336L272.586 47.7148H277.604V63H273.57V56.9023C273.57 55.8177 273.661 54.2865 273.844 52.3086L266.816 63H261.812V47.7148H265.846ZM288.322 50.3945C287.438 50.3945 286.745 50.6771 286.244 51.2422C285.743 51.7982 285.456 52.5911 285.383 53.6211H291.234C291.216 52.5911 290.947 51.7982 290.428 51.2422C289.908 50.6771 289.206 50.3945 288.322 50.3945ZM288.91 63.2734C286.449 63.2734 284.526 62.5944 283.141 61.2363C281.755 59.8783 281.062 57.9551 281.062 55.4668C281.062 52.9056 281.701 50.9277 282.977 49.5332C284.262 48.1296 286.035 47.4277 288.295 47.4277C290.455 47.4277 292.137 48.043 293.34 49.2734C294.543 50.5039 295.145 52.2038 295.145 54.373V56.3965H285.287C285.333 57.5814 285.684 58.5065 286.34 59.1719C286.996 59.8372 287.917 60.1699 289.102 60.1699C290.022 60.1699 290.893 60.0742 291.713 59.8828C292.533 59.6914 293.39 59.3861 294.283 58.9668V62.1934C293.554 62.5579 292.775 62.8268 291.945 63C291.116 63.1823 290.104 63.2734 288.91 63.2734ZM316.363 47.7148V50.8457H309.979V63H305.809V47.7148H316.363ZM328.914 63L328.107 60.9219H327.998C327.296 61.806 326.572 62.4212 325.824 62.7676C325.086 63.1048 324.12 63.2734 322.926 63.2734C321.458 63.2734 320.301 62.8542 319.453 62.0156C318.615 61.1771 318.195 59.9831 318.195 58.4336C318.195 56.8112 318.76 55.6172 319.891 54.8516C321.03 54.0768 322.743 53.6484 325.031 53.5664L327.684 53.4844V52.8145C327.684 51.265 326.891 50.4902 325.305 50.4902C324.083 50.4902 322.648 50.8594 320.998 51.5977L319.617 48.7812C321.376 47.8607 323.327 47.4004 325.469 47.4004C327.52 47.4004 329.092 47.847 330.186 48.7402C331.279 49.6335 331.826 50.9915 331.826 52.8145V63H328.914ZM327.684 55.918L326.07 55.9727C324.858 56.0091 323.956 56.2279 323.363 56.6289C322.771 57.0299 322.475 57.6406 322.475 58.4609C322.475 59.6367 323.149 60.2246 324.498 60.2246C325.464 60.2246 326.234 59.9466 326.809 59.3906C327.392 58.8346 327.684 58.0964 327.684 57.1758V55.918ZM339.934 53.5938C341.51 53.5938 342.627 53.4661 343.283 53.2109C343.949 52.9557 344.281 52.5501 344.281 51.9941C344.281 51.502 344.04 51.1328 343.557 50.8867C343.074 50.6406 342.276 50.5176 341.164 50.5176C340.462 50.5176 339.665 50.6042 338.771 50.7773C337.887 50.9505 337.081 51.1875 336.352 51.4883L335.121 48.5762C336.206 48.166 337.258 47.8743 338.279 47.7012C339.3 47.5189 340.439 47.4277 341.697 47.4277C343.602 47.4277 345.129 47.7923 346.277 48.5215C347.426 49.2507 348 50.2396 348 51.4883C348 53.2109 346.984 54.332 344.951 54.8516V54.9883C346.2 55.2982 347.089 55.7402 347.617 56.3145C348.155 56.8796 348.424 57.6224 348.424 58.543C348.424 59.4727 348.123 60.2975 347.521 61.0176C346.92 61.7376 346.049 62.2936 344.91 62.6855C343.771 63.0775 342.431 63.2734 340.891 63.2734C338.339 63.2734 336.379 62.959 335.012 62.3301V58.8848C335.796 59.2493 336.652 59.5365 337.582 59.7461C338.521 59.9557 339.428 60.0605 340.303 60.0605C341.661 60.0605 342.677 59.9102 343.352 59.6094C344.026 59.2995 344.363 58.862 344.363 58.2969C344.363 57.6771 344.008 57.2214 343.297 56.9297C342.586 56.6289 341.492 56.4785 340.016 56.4785H338.402V53.5938H339.934ZM355.014 55.3301C355.014 56.8431 355.26 57.987 355.752 58.7617C356.253 59.5365 357.064 59.9238 358.186 59.9238C359.298 59.9238 360.095 59.541 360.578 58.7754C361.07 58.0007 361.316 56.8522 361.316 55.3301C361.316 53.8171 361.07 52.6823 360.578 51.9258C360.086 51.1693 359.279 50.791 358.158 50.791C357.046 50.791 356.244 51.1693 355.752 51.9258C355.26 52.6732 355.014 53.8079 355.014 55.3301ZM365.582 55.3301C365.582 57.8184 364.926 59.7643 363.613 61.168C362.301 62.5716 360.473 63.2734 358.131 63.2734C356.663 63.2734 355.369 62.9544 354.248 62.3164C353.127 61.6693 352.266 60.7441 351.664 59.541C351.062 58.3379 350.762 56.9342 350.762 55.3301C350.762 52.8327 351.413 50.8913 352.717 49.5059C354.02 48.1204 355.852 47.4277 358.213 47.4277C359.68 47.4277 360.975 47.7467 362.096 48.3848C363.217 49.0228 364.078 49.9388 364.68 51.1328C365.281 52.3268 365.582 53.7259 365.582 55.3301ZM383.137 51.7207C383.137 52.541 382.877 53.2428 382.357 53.8262C381.847 54.4004 381.09 54.7695 380.088 54.9336V55.043C381.173 55.1706 382.029 55.5443 382.658 56.1641C383.296 56.7747 383.615 57.5312 383.615 58.4336C383.615 59.9193 383.032 61.054 381.865 61.8379C380.699 62.6126 379.031 63 376.861 63H369.027V47.7148H376.861C378.958 47.7148 380.525 48.0566 381.564 48.7402C382.613 49.4147 383.137 50.4082 383.137 51.7207ZM379.295 58.2148C379.295 57.6133 379.062 57.1803 378.598 56.916C378.133 56.6426 377.436 56.5059 376.506 56.5059H373.197V60.1152H376.588C377.472 60.1152 378.142 59.9512 378.598 59.623C379.062 59.2858 379.295 58.8164 379.295 58.2148ZM378.912 52.0488C378.912 51.1191 378.174 50.6543 376.697 50.6543H373.197V53.6758H376.219C377.103 53.6758 377.773 53.5482 378.229 53.293C378.684 53.0378 378.912 52.623 378.912 52.0488ZM390.26 55.3301C390.26 56.8431 390.506 57.987 390.998 58.7617C391.499 59.5365 392.311 59.9238 393.432 59.9238C394.544 59.9238 395.341 59.541 395.824 58.7754C396.316 58.0007 396.562 56.8522 396.562 55.3301C396.562 53.8171 396.316 52.6823 395.824 51.9258C395.332 51.1693 394.525 50.791 393.404 50.791C392.292 50.791 391.49 51.1693 390.998 51.9258C390.506 52.6732 390.26 53.8079 390.26 55.3301ZM400.828 55.3301C400.828 57.8184 400.172 59.7643 398.859 61.168C397.547 62.5716 395.719 63.2734 393.377 63.2734C391.91 63.2734 390.615 62.9544 389.494 62.3164C388.373 61.6693 387.512 60.7441 386.91 59.541C386.309 58.3379 386.008 56.9342 386.008 55.3301C386.008 52.8327 386.66 50.8913 387.963 49.5059C389.266 48.1204 391.098 47.4277 393.459 47.4277C394.926 47.4277 396.221 47.7467 397.342 48.3848C398.463 49.0228 399.324 49.9388 399.926 51.1328C400.527 52.3268 400.828 53.7259 400.828 55.3301ZM414.828 47.7148V50.8457H408.443V63H404.273V47.7148H414.828ZM420.994 55.3301C420.994 56.8431 421.24 57.987 421.732 58.7617C422.234 59.5365 423.045 59.9238 424.166 59.9238C425.278 59.9238 426.076 59.541 426.559 58.7754C427.051 58.0007 427.297 56.8522 427.297 55.3301C427.297 53.8171 427.051 52.6823 426.559 51.9258C426.066 51.1693 425.26 50.791 424.139 50.791C423.027 50.791 422.225 51.1693 421.732 51.9258C421.24 52.6732 420.994 53.8079 420.994 55.3301ZM431.562 55.3301C431.562 57.8184 430.906 59.7643 429.594 61.168C428.281 62.5716 426.454 63.2734 424.111 63.2734C422.644 63.2734 421.35 62.9544 420.229 62.3164C419.107 61.6693 418.246 60.7441 417.645 59.541C417.043 58.3379 416.742 56.9342 416.742 55.3301C416.742 52.8327 417.394 50.8913 418.697 49.5059C420.001 48.1204 421.833 47.4277 424.193 47.4277C425.661 47.4277 426.955 47.7467 428.076 48.3848C429.197 49.0228 430.059 49.9388 430.66 51.1328C431.262 52.3268 431.562 53.7259 431.562 55.3301ZM138.834 75.7148V78.8457H133.83V91H129.66V78.8457H124.643V75.7148H138.834ZM150.086 91.2734C148.29 91.2734 146.882 90.6217 145.861 89.3184H145.643C145.788 90.5944 145.861 91.3327 145.861 91.5332V97.7266H141.691V75.7148H145.082L145.67 77.6973H145.861C146.837 76.1842 148.281 75.4277 150.195 75.4277C152 75.4277 153.413 76.125 154.434 77.5195C155.454 78.9141 155.965 80.8509 155.965 83.3301C155.965 84.9616 155.723 86.3789 155.24 87.582C154.766 88.7852 154.087 89.7012 153.203 90.3301C152.319 90.959 151.28 91.2734 150.086 91.2734ZM148.855 78.7637C147.826 78.7637 147.074 79.0827 146.6 79.7207C146.126 80.3496 145.88 81.3932 145.861 82.8516V83.3027C145.861 84.9434 146.103 86.1191 146.586 86.8301C147.078 87.541 147.853 87.8965 148.91 87.8965C150.779 87.8965 151.713 86.3561 151.713 83.2754C151.713 81.7715 151.48 80.6458 151.016 79.8984C150.56 79.1419 149.84 78.7637 148.855 78.7637ZM157.223 75.7148H161.789L164.674 84.3145C164.92 85.0618 165.089 85.946 165.18 86.9668H165.262C165.362 86.028 165.558 85.1439 165.85 84.3145L168.68 75.7148H173.15L166.684 92.9551C166.091 94.5501 165.243 95.7441 164.141 96.5371C163.047 97.3301 161.766 97.7266 160.299 97.7266C159.579 97.7266 158.872 97.6491 158.18 97.4941V94.1855C158.681 94.304 159.228 94.3633 159.82 94.3633C160.559 94.3633 161.201 94.1354 161.748 93.6797C162.304 93.2331 162.737 92.554 163.047 91.6426L163.293 90.8906L157.223 75.7148ZM174.422 81.8398C174.422 78.3307 175.087 75.6693 176.418 73.8555C177.758 72.0326 179.845 70.8796 182.68 70.3965C184.056 70.1595 186.111 69.8587 188.846 69.4941L189.324 73.1309C188.139 73.2676 186.038 73.5592 183.021 74.0059C181.873 74.1882 181.016 74.4616 180.451 74.8262C179.886 75.1908 179.462 75.7103 179.18 76.3848C178.906 77.0592 178.738 77.957 178.674 79.0781H178.879C179.362 78.3307 180 77.7565 180.793 77.3555C181.586 76.9544 182.438 76.7539 183.35 76.7539C185.236 76.7539 186.704 77.3327 187.752 78.4902C188.8 79.6387 189.324 81.2884 189.324 83.4395C189.324 85.9186 188.659 87.8464 187.328 89.2227C186.007 90.5898 184.179 91.2734 181.846 91.2734C179.512 91.2734 177.689 90.4395 176.377 88.7715C175.074 87.0944 174.422 84.7839 174.422 81.8398ZM182.092 87.8965C184.07 87.8965 185.059 86.5339 185.059 83.8086C185.059 81.1562 184.165 79.8301 182.379 79.8301C181.887 79.8301 181.395 79.944 180.902 80.1719C180.419 80.3997 179.973 80.7005 179.562 81.0742C179.161 81.4388 178.865 81.8079 178.674 82.1816C178.674 84.0319 178.97 85.4492 179.562 86.4336C180.155 87.4089 180.998 87.8965 182.092 87.8965ZM196.092 83.3301C196.092 84.8431 196.338 85.987 196.83 86.7617C197.331 87.5365 198.143 87.9238 199.264 87.9238C200.376 87.9238 201.173 87.541 201.656 86.7754C202.148 86.0007 202.395 84.8522 202.395 83.3301C202.395 81.8171 202.148 80.6823 201.656 79.9258C201.164 79.1693 200.357 78.791 199.236 78.791C198.124 78.791 197.322 79.1693 196.83 79.9258C196.338 80.6732 196.092 81.8079 196.092 83.3301ZM206.66 83.3301C206.66 85.8184 206.004 87.7643 204.691 89.168C203.379 90.5716 201.551 91.2734 199.209 91.2734C197.742 91.2734 196.447 90.9544 195.326 90.3164C194.205 89.6693 193.344 88.7441 192.742 87.541C192.141 86.3379 191.84 84.9342 191.84 83.3301C191.84 80.8327 192.492 78.8913 193.795 77.5059C195.098 76.1204 196.93 75.4277 199.291 75.4277C200.758 75.4277 202.053 75.7467 203.174 76.3848C204.295 77.0228 205.156 77.9388 205.758 79.1328C206.359 80.3268 206.66 81.7259 206.66 83.3301ZM223.996 75.7148V91H219.812V78.8457H214.275V91H210.105V75.7148H223.996ZM236.766 91.2734C234.97 91.2734 233.562 90.6217 232.541 89.3184H232.322C232.468 90.5944 232.541 91.3327 232.541 91.5332V97.7266H228.371V75.7148H231.762L232.35 77.6973H232.541C233.516 76.1842 234.961 75.4277 236.875 75.4277C238.68 75.4277 240.092 76.125 241.113 77.5195C242.134 78.9141 242.645 80.8509 242.645 83.3301C242.645 84.9616 242.403 86.3789 241.92 87.582C241.446 88.7852 240.767 89.7012 239.883 90.3301C238.999 90.959 237.96 91.2734 236.766 91.2734ZM235.535 78.7637C234.505 78.7637 233.753 79.0827 233.279 79.7207C232.805 80.3496 232.559 81.3932 232.541 82.8516V83.3027C232.541 84.9434 232.783 86.1191 233.266 86.8301C233.758 87.541 234.533 87.8965 235.59 87.8965C237.458 87.8965 238.393 86.3561 238.393 83.2754C238.393 81.7715 238.16 80.6458 237.695 79.8984C237.24 79.1419 236.52 78.7637 235.535 78.7637ZM249.412 83.3301C249.412 84.8431 249.658 85.987 250.15 86.7617C250.652 87.5365 251.463 87.9238 252.584 87.9238C253.696 87.9238 254.493 87.541 254.977 86.7754C255.469 86.0007 255.715 84.8522 255.715 83.3301C255.715 81.8171 255.469 80.6823 254.977 79.9258C254.484 79.1693 253.678 78.791 252.557 78.791C251.445 78.791 250.643 79.1693 250.15 79.9258C249.658 80.6732 249.412 81.8079 249.412 83.3301ZM259.98 83.3301C259.98 85.8184 259.324 87.7643 258.012 89.168C256.699 90.5716 254.872 91.2734 252.529 91.2734C251.062 91.2734 249.768 90.9544 248.646 90.3164C247.525 89.6693 246.664 88.7441 246.062 87.541C245.461 86.3379 245.16 84.9342 245.16 83.3301C245.16 80.8327 245.812 78.8913 247.115 77.5059C248.419 76.1204 250.251 75.4277 252.611 75.4277C254.079 75.4277 255.373 75.7467 256.494 76.3848C257.615 77.0228 258.477 77.9388 259.078 79.1328C259.68 80.3268 259.98 81.7259 259.98 83.3301ZM277.535 79.7207C277.535 80.541 277.275 81.2428 276.756 81.8262C276.245 82.4004 275.489 82.7695 274.486 82.9336V83.043C275.571 83.1706 276.428 83.5443 277.057 84.1641C277.695 84.7747 278.014 85.5312 278.014 86.4336C278.014 87.9193 277.43 89.054 276.264 89.8379C275.097 90.6126 273.429 91 271.26 91H263.426V75.7148H271.26C273.356 75.7148 274.924 76.0566 275.963 76.7402C277.011 77.4147 277.535 78.4082 277.535 79.7207ZM273.693 86.2148C273.693 85.6133 273.461 85.1803 272.996 84.916C272.531 84.6426 271.834 84.5059 270.904 84.5059H267.596V88.1152H270.986C271.87 88.1152 272.54 87.9512 272.996 87.623C273.461 87.2858 273.693 86.8164 273.693 86.2148ZM273.311 80.0488C273.311 79.1191 272.572 78.6543 271.096 78.6543H267.596V81.6758H270.617C271.501 81.6758 272.171 81.5482 272.627 81.293C273.083 81.0378 273.311 80.623 273.311 80.0488ZM284.658 83.3301C284.658 84.8431 284.904 85.987 285.396 86.7617C285.898 87.5365 286.709 87.9238 287.83 87.9238C288.942 87.9238 289.74 87.541 290.223 86.7754C290.715 86.0007 290.961 84.8522 290.961 83.3301C290.961 81.8171 290.715 80.6823 290.223 79.9258C289.73 79.1693 288.924 78.791 287.803 78.791C286.691 78.791 285.889 79.1693 285.396 79.9258C284.904 80.6732 284.658 81.8079 284.658 83.3301ZM295.227 83.3301C295.227 85.8184 294.57 87.7643 293.258 89.168C291.945 90.5716 290.118 91.2734 287.775 91.2734C286.308 91.2734 285.014 90.9544 283.893 90.3164C282.771 89.6693 281.91 88.7441 281.309 87.541C280.707 86.3379 280.406 84.9342 280.406 83.3301C280.406 80.8327 281.058 78.8913 282.361 77.5059C283.665 76.1204 285.497 75.4277 287.857 75.4277C289.325 75.4277 290.619 75.7467 291.74 76.3848C292.861 77.0228 293.723 77.9388 294.324 79.1328C294.926 80.3268 295.227 81.7259 295.227 83.3301ZM308.242 87.9512V78.8457H305.111C304.883 80.541 304.569 82.1497 304.168 83.6719C303.776 85.194 303.229 86.6204 302.527 87.9512H308.242ZM314.654 96.4824H310.908V91H300.627V96.4824H296.881V87.9512H298.166C299.041 86.5931 299.775 84.8796 300.367 82.8105C300.96 80.7415 301.374 78.3763 301.611 75.7148H312.412V87.9512H314.654V96.4824ZM326.973 91L326.166 88.9219H326.057C325.355 89.806 324.63 90.4212 323.883 90.7676C323.145 91.1048 322.178 91.2734 320.984 91.2734C319.517 91.2734 318.359 90.8542 317.512 90.0156C316.673 89.1771 316.254 87.9831 316.254 86.4336C316.254 84.8112 316.819 83.6172 317.949 82.8516C319.089 82.0768 320.802 81.6484 323.09 81.5664L325.742 81.4844V80.8145C325.742 79.265 324.949 78.4902 323.363 78.4902C322.142 78.4902 320.706 78.8594 319.057 79.5977L317.676 76.7812C319.435 75.8607 321.385 75.4004 323.527 75.4004C325.578 75.4004 327.15 75.847 328.244 76.7402C329.338 77.6335 329.885 78.9915 329.885 80.8145V91H326.973ZM325.742 83.918L324.129 83.9727C322.917 84.0091 322.014 84.2279 321.422 84.6289C320.829 85.0299 320.533 85.6406 320.533 86.4609C320.533 87.6367 321.208 88.2246 322.557 88.2246C323.523 88.2246 324.293 87.9466 324.867 87.3906C325.451 86.8346 325.742 86.0964 325.742 85.1758V83.918Z" fill="#141B32"/>
<path fill-rule="evenodd" clip-rule="evenodd" d="M3.22083 53.1103C3.22083 25.9652 25.3353 3.8667 52.5 3.8667C79.6912 3.8667 101.806 25.9652 101.779 53.1103C101.779 86.8159 57.683 136.272 55.7959 138.37C54.0416 140.336 50.9583 140.336 49.204 138.37C47.3169 136.299 3.22083 86.8159 3.22083 53.1103Z" fill="#FF0000"/>
<g clip-path="url(#clip0)">
<path d="M75.0673 66.6953C76.3411 64.4724 76.3128 61.8386 75.0295 59.6998L57.9407 28.561C56.6574 26.4129 54.3739 25.1333 51.8544 25.1333C49.335 25.1333 47.0514 26.4129 45.7587 28.561C45.7493 28.5797 45.7398 28.5984 45.7304 28.6077L28.7076 59.6531C27.3866 61.8386 27.3583 64.4818 28.6322 66.6953C29.9155 68.9182 32.2179 70.2444 34.7939 70.2444H68.8111C71.3966 70.2444 73.7934 68.9182 75.0673 66.6953ZM49.0236 39.3858C49.0236 37.8354 50.288 36.5839 51.8544 36.5839C53.4208 36.5839 54.6853 37.8354 54.6853 39.3858V50.6029C54.6853 52.1533 53.4208 53.4048 51.8544 53.4048C50.288 53.4048 49.0236 52.1533 49.0236 50.6029V39.3858ZM51.8544 64.6312C49.5143 64.6312 47.6082 62.7446 47.6082 60.4283C47.6082 58.112 49.5143 56.2254 51.8544 56.2254C54.1946 56.2254 56.1007 58.112 56.1007 60.4283C56.1007 62.7446 54.1946 64.6312 51.8544 64.6312Z" fill="white"/>
</g>
<defs>
<clipPath id="clip0">
<rect width="48.3129" height="45.1111" fill="white" transform="translate(27.6993 25.1333)"/>
</clipPath>
</defs>
</svg>
