<svg width="1900" height="908" viewBox="0 0 1900 908" fill="none" xmlns="http://www.w3.org/2000/svg">
<path d="M56.543 700H52.3926V667.993H34.0576V700H29.9072V664.307H56.543V700ZM88.8672 686.597C88.8672 690.959 87.7686 694.368 85.5713 696.826C83.374 699.268 80.3385 700.488 76.4648 700.488C74.0723 700.488 71.9482 699.927 70.0928 698.804C68.2373 697.681 66.805 696.069 65.7959 693.97C64.7868 691.87 64.2822 689.412 64.2822 686.597C64.2822 682.235 65.3727 678.841 67.5537 676.416C69.7347 673.975 72.762 672.754 76.6357 672.754C80.3792 672.754 83.3496 673.999 85.5469 676.489C87.7604 678.979 88.8672 682.349 88.8672 686.597ZM68.4814 686.597C68.4814 690.015 69.165 692.619 70.5322 694.409C71.8994 696.2 73.9095 697.095 76.5625 697.095C79.2155 697.095 81.2256 696.208 82.5928 694.434C83.9762 692.643 84.668 690.031 84.668 686.597C84.668 683.195 83.9762 680.615 82.5928 678.857C81.2256 677.083 79.1992 676.196 76.5137 676.196C73.8607 676.196 71.8587 677.067 70.5078 678.809C69.1569 680.55 68.4814 683.146 68.4814 686.597ZM132.227 709.253H128.296V700H109.595V709.253H105.688V696.509H107.788C109.969 693.547 111.678 690.072 112.915 686.084C114.152 682.096 114.795 677.816 114.844 673.242H128.394V696.509H132.227V709.253ZM124.487 696.509V676.44H118.481C118.27 680.054 117.57 683.716 116.382 687.427C115.21 691.121 113.745 694.149 111.987 696.509H124.487ZM154.053 700L153.247 696.191H153.052C151.717 697.868 150.382 699.007 149.048 699.609C147.729 700.195 146.077 700.488 144.092 700.488C141.439 700.488 139.355 699.805 137.842 698.438C136.344 697.07 135.596 695.125 135.596 692.603C135.596 687.199 139.917 684.367 148.56 684.106L153.101 683.96V682.3C153.101 680.2 152.645 678.654 151.733 677.661C150.838 676.652 149.398 676.147 147.412 676.147C145.182 676.147 142.66 676.831 139.844 678.198L138.599 675.098C139.917 674.382 141.357 673.82 142.92 673.413C144.499 673.006 146.077 672.803 147.656 672.803C150.846 672.803 153.206 673.511 154.736 674.927C156.283 676.343 157.056 678.613 157.056 681.738V700H154.053ZM144.897 697.144C147.42 697.144 149.398 696.452 150.83 695.068C152.279 693.685 153.003 691.748 153.003 689.258V686.841L148.95 687.012C145.728 687.126 143.4 687.63 141.968 688.525C140.552 689.404 139.844 690.78 139.844 692.651C139.844 694.116 140.283 695.231 141.162 695.996C142.057 696.761 143.302 697.144 144.897 697.144ZM169.482 673.242V684.448H184.473V673.242H188.525V700H184.473V687.939H169.482V700H165.43V673.242H169.482ZM201.172 673.242V684.448H216.162V673.242H220.215V700H216.162V687.939H201.172V700H197.119V673.242H201.172ZM232.861 684.302H240.161C243.563 684.302 246.077 684.937 247.705 686.206C249.349 687.459 250.171 689.339 250.171 691.846C250.171 694.531 249.3 696.566 247.559 697.949C245.833 699.316 243.286 700 239.917 700H228.809V673.242H232.861V684.302ZM258.716 700H254.663V673.242H258.716V700ZM232.861 687.793V696.606H239.722C244.019 696.606 246.167 695.101 246.167 692.09C246.167 690.592 245.671 689.502 244.678 688.818C243.685 688.135 241.992 687.793 239.6 687.793H232.861ZM281.226 696.094L281.982 693.823L283.032 690.942L290.283 673.291H295.435V700H291.846V677.905L291.357 679.321L289.941 683.057L283.032 700H279.639L272.729 683.008C271.867 680.827 271.273 679.126 270.947 677.905V700H267.334V673.291H272.29L279.297 690.259C279.997 692.049 280.64 693.994 281.226 696.094ZM333.496 700L321.387 668.359H321.191C321.419 670.866 321.533 673.844 321.533 677.295V700H317.7V664.307H323.95L335.254 693.75H335.449L346.851 664.307H353.052V700H348.901V677.002C348.901 674.365 349.015 671.501 349.243 668.408H349.048L336.841 700H333.496ZM366.064 673.242V690.21L365.894 694.653L365.82 696.045L380.298 673.242H385.352V700H381.567V683.643L381.641 680.42L381.763 677.246L367.31 700H362.256V673.242H366.064ZM397.998 673.242V684.448H412.988V673.242H417.041V700H412.988V687.939H397.998V700H393.945V673.242H397.998ZM429.443 673.242V690.21L429.272 694.653L429.199 696.045L443.677 673.242H448.73V700H444.946V683.643L445.02 680.42L445.142 677.246L430.688 700H425.635V673.242H429.443ZM468.018 700.488C464.144 700.488 461.141 699.3 459.009 696.924C456.893 694.531 455.835 691.154 455.835 686.792C455.835 682.316 456.909 678.857 459.058 676.416C461.222 673.975 464.299 672.754 468.286 672.754C469.572 672.754 470.858 672.892 472.144 673.169C473.429 673.446 474.438 673.771 475.171 674.146L473.926 677.588C473.031 677.23 472.054 676.937 470.996 676.709C469.938 676.465 469.002 676.343 468.188 676.343C462.752 676.343 460.034 679.81 460.034 686.743C460.034 690.031 460.693 692.554 462.012 694.312C463.346 696.069 465.316 696.948 467.92 696.948C470.15 696.948 472.437 696.468 474.78 695.508V699.097C472.99 700.024 470.736 700.488 468.018 700.488ZM499.194 676.709H490.503V700H486.45V676.709H477.856V673.242H499.194V676.709ZM515.796 700.488C511.841 700.488 508.716 699.284 506.421 696.875C504.142 694.466 503.003 691.121 503.003 686.841C503.003 682.528 504.061 679.102 506.177 676.562C508.309 674.023 511.165 672.754 514.746 672.754C518.099 672.754 520.752 673.861 522.705 676.074C524.658 678.271 525.635 681.177 525.635 684.79V687.354H507.202C507.284 690.495 508.073 692.879 509.57 694.507C511.084 696.134 513.208 696.948 515.942 696.948C518.823 696.948 521.672 696.346 524.487 695.142V698.755C523.055 699.373 521.696 699.813 520.41 700.073C519.141 700.35 517.603 700.488 515.796 700.488ZM514.697 676.147C512.549 676.147 510.832 676.847 509.546 678.247C508.276 679.647 507.528 681.584 507.3 684.058H521.289C521.289 681.502 520.719 679.549 519.58 678.198C518.441 676.831 516.813 676.147 514.697 676.147ZM545.02 700.488C543.278 700.488 541.683 700.171 540.234 699.536C538.802 698.885 537.598 697.892 536.621 696.558H536.328C536.523 698.12 536.621 699.601 536.621 701.001V712.012H532.568V673.242H535.864L536.426 676.904H536.621C537.663 675.439 538.875 674.382 540.259 673.73C541.642 673.079 543.229 672.754 545.02 672.754C548.568 672.754 551.302 673.966 553.223 676.392C555.16 678.817 556.128 682.218 556.128 686.597C556.128 690.991 555.143 694.409 553.174 696.851C551.221 699.276 548.503 700.488 545.02 700.488ZM544.434 676.196C541.699 676.196 539.722 676.953 538.501 678.467C537.28 679.98 536.654 682.389 536.621 685.693V686.597C536.621 690.356 537.248 693.05 538.501 694.678C539.754 696.289 541.764 697.095 544.531 697.095C546.842 697.095 548.649 696.159 549.951 694.287C551.27 692.415 551.929 689.836 551.929 686.548C551.929 683.211 551.27 680.656 549.951 678.882C548.649 677.091 546.81 676.196 544.434 676.196ZM573.926 700.488C570.052 700.488 567.049 699.3 564.917 696.924C562.801 694.531 561.743 691.154 561.743 686.792C561.743 682.316 562.817 678.857 564.966 676.416C567.131 673.975 570.207 672.754 574.194 672.754C575.48 672.754 576.766 672.892 578.052 673.169C579.338 673.446 580.347 673.771 581.079 674.146L579.834 677.588C578.939 677.23 577.962 676.937 576.904 676.709C575.846 676.465 574.91 676.343 574.097 676.343C568.66 676.343 565.942 679.81 565.942 686.743C565.942 690.031 566.602 692.554 567.92 694.312C569.255 696.069 571.224 696.948 573.828 696.948C576.058 696.948 578.345 696.468 580.688 695.508V699.097C578.898 700.024 576.644 700.488 573.926 700.488ZM605.103 676.709H596.411V700H592.358V676.709H583.765V673.242H605.103V676.709ZM632.104 679.956C632.104 681.698 631.6 683.024 630.591 683.936C629.598 684.831 628.198 685.433 626.392 685.742V685.962C628.67 686.271 630.33 686.938 631.372 687.964C632.43 688.989 632.959 690.405 632.959 692.212C632.959 694.702 632.039 696.623 630.2 697.974C628.377 699.325 625.708 700 622.192 700H610.4V673.242H622.144C628.784 673.242 632.104 675.48 632.104 679.956ZM628.906 691.943C628.906 690.495 628.353 689.445 627.246 688.794C626.156 688.127 624.341 687.793 621.802 687.793H614.453V696.606H621.899C626.571 696.606 628.906 695.052 628.906 691.943ZM628.149 680.347C628.149 679.045 627.645 678.125 626.636 677.588C625.643 677.035 624.129 676.758 622.095 676.758H614.453V684.302H621.313C623.82 684.302 625.586 683.993 626.611 683.374C627.637 682.756 628.149 681.746 628.149 680.347ZM655.322 700L654.517 696.191H654.321C652.987 697.868 651.652 699.007 650.317 699.609C648.999 700.195 647.347 700.488 645.361 700.488C642.708 700.488 640.625 699.805 639.111 698.438C637.614 697.07 636.865 695.125 636.865 692.603C636.865 687.199 641.187 684.367 649.829 684.106L654.37 683.96V682.3C654.37 680.2 653.914 678.654 653.003 677.661C652.108 676.652 650.667 676.147 648.682 676.147C646.452 676.147 643.929 676.831 641.113 678.198L639.868 675.098C641.187 674.382 642.627 673.82 644.189 673.413C645.768 673.006 647.347 672.803 648.926 672.803C652.116 672.803 654.476 673.511 656.006 674.927C657.552 676.343 658.325 678.613 658.325 681.738V700H655.322ZM646.167 697.144C648.69 697.144 650.667 696.452 652.1 695.068C653.548 693.685 654.272 691.748 654.272 689.258V686.841L650.22 687.012C646.997 687.126 644.67 687.63 643.237 688.525C641.821 689.404 641.113 690.78 641.113 692.651C641.113 694.116 641.553 695.231 642.432 695.996C643.327 696.761 644.572 697.144 646.167 697.144ZM693.579 696.094L694.336 693.823L695.386 690.942L702.637 673.291H707.788V700H704.199V677.905L703.711 679.321L702.295 683.057L695.386 700H691.992L685.083 683.008C684.22 680.827 683.626 679.126 683.301 677.905V700H679.688V673.291H684.644L691.65 690.259C692.35 692.049 692.993 693.994 693.579 696.094ZM739.551 686.597C739.551 690.959 738.452 694.368 736.255 696.826C734.058 699.268 731.022 700.488 727.148 700.488C724.756 700.488 722.632 699.927 720.776 698.804C718.921 697.681 717.489 696.069 716.479 693.97C715.47 691.87 714.966 689.412 714.966 686.597C714.966 682.235 716.056 678.841 718.237 676.416C720.418 673.975 723.446 672.754 727.319 672.754C731.063 672.754 734.033 673.999 736.23 676.489C738.444 678.979 739.551 682.349 739.551 686.597ZM719.165 686.597C719.165 690.015 719.849 692.619 721.216 694.409C722.583 696.2 724.593 697.095 727.246 697.095C729.899 697.095 731.909 696.208 733.276 694.434C734.66 692.643 735.352 690.031 735.352 686.597C735.352 683.195 734.66 680.615 733.276 678.857C731.909 677.083 729.883 676.196 727.197 676.196C724.544 676.196 722.542 677.067 721.191 678.809C719.84 680.55 719.165 683.146 719.165 686.597ZM766.626 700H762.524V676.709H754.492C754.053 682.503 753.442 687.101 752.661 690.503C751.88 693.905 750.863 696.395 749.609 697.974C748.372 699.552 746.794 700.342 744.873 700.342C743.994 700.342 743.294 700.244 742.773 700.049V697.046C743.132 697.144 743.538 697.192 743.994 697.192C745.866 697.192 747.355 695.215 748.462 691.26C749.569 687.305 750.407 681.299 750.977 673.242H766.626V700ZM798.34 686.597C798.34 690.959 797.241 694.368 795.044 696.826C792.847 699.268 789.811 700.488 785.938 700.488C783.545 700.488 781.421 699.927 779.565 698.804C777.71 697.681 776.278 696.069 775.269 693.97C774.259 691.87 773.755 689.412 773.755 686.597C773.755 682.235 774.845 678.841 777.026 676.416C779.207 673.975 782.235 672.754 786.108 672.754C789.852 672.754 792.822 673.999 795.02 676.489C797.233 678.979 798.34 682.349 798.34 686.597ZM777.954 686.597C777.954 690.015 778.638 692.619 780.005 694.409C781.372 696.2 783.382 697.095 786.035 697.095C788.688 697.095 790.698 696.208 792.065 694.434C793.449 692.643 794.141 690.031 794.141 686.597C794.141 683.195 793.449 680.615 792.065 678.857C790.698 677.083 788.672 676.196 785.986 676.196C783.333 676.196 781.331 677.067 779.98 678.809C778.63 680.55 777.954 683.146 777.954 686.597ZM828.711 709.253H824.78V700H806.079V709.253H802.173V696.509H804.272C806.453 693.547 808.162 690.072 809.399 686.084C810.636 682.096 811.279 677.816 811.328 673.242H824.878V696.509H828.711V709.253ZM820.972 696.509V676.44H814.966C814.754 680.054 814.054 683.716 812.866 687.427C811.694 691.121 810.229 694.149 808.472 696.509H820.972ZM845.386 700.488C841.431 700.488 838.306 699.284 836.011 696.875C833.732 694.466 832.593 691.121 832.593 686.841C832.593 682.528 833.651 679.102 835.767 676.562C837.899 674.023 840.755 672.754 844.336 672.754C847.689 672.754 850.342 673.861 852.295 676.074C854.248 678.271 855.225 681.177 855.225 684.79V687.354H836.792C836.873 690.495 837.663 692.879 839.16 694.507C840.674 696.134 842.798 696.948 845.532 696.948C848.413 696.948 851.261 696.346 854.077 695.142V698.755C852.645 699.373 851.286 699.813 850 700.073C848.73 700.35 847.192 700.488 845.386 700.488ZM844.287 676.147C842.139 676.147 840.422 676.847 839.136 678.247C837.866 679.647 837.118 681.584 836.89 684.058H850.879C850.879 681.502 850.309 679.549 849.17 678.198C848.031 676.831 846.403 676.147 844.287 676.147ZM874.365 673.291H878.101V686.255L889.16 673.291H893.604L882.422 686.255L894.556 700H889.868L878.101 686.45V700H874.365V686.45L862.622 700H857.959L870.068 686.255L858.911 673.291H863.354L874.365 686.255V673.291ZM903.027 673.242V684.448H918.018V673.242H922.07V700H918.018V687.939H903.027V700H898.975V673.242H903.027ZM953.76 686.597C953.76 690.959 952.661 694.368 950.464 696.826C948.267 699.268 945.231 700.488 941.357 700.488C938.965 700.488 936.841 699.927 934.985 698.804C933.13 697.681 931.698 696.069 930.688 693.97C929.679 691.87 929.175 689.412 929.175 686.597C929.175 682.235 930.265 678.841 932.446 676.416C934.627 673.975 937.655 672.754 941.528 672.754C945.272 672.754 948.242 673.999 950.439 676.489C952.653 678.979 953.76 682.349 953.76 686.597ZM933.374 686.597C933.374 690.015 934.058 692.619 935.425 694.409C936.792 696.2 938.802 697.095 941.455 697.095C944.108 697.095 946.118 696.208 947.485 694.434C948.869 692.643 949.561 690.031 949.561 686.597C949.561 683.195 948.869 680.615 947.485 678.857C946.118 677.083 944.092 676.196 941.406 676.196C938.753 676.196 936.751 677.067 935.4 678.809C934.049 680.55 933.374 683.146 933.374 686.597ZM964.697 673.242V690.21L964.526 694.653L964.453 696.045L978.931 673.242H983.984V700H980.2V683.643L980.273 680.42L980.396 677.246L965.942 700H960.889V673.242H964.697ZM972.339 669.702C969.328 669.702 967.131 669.124 965.747 667.969C964.364 666.797 963.59 664.876 963.428 662.207H967.236C967.383 663.9 967.822 665.08 968.555 665.747C969.303 666.414 970.597 666.748 972.437 666.748C974.113 666.748 975.35 666.39 976.147 665.674C976.961 664.958 977.458 663.802 977.637 662.207H981.47C981.274 664.779 980.452 666.675 979.004 667.896C977.555 669.1 975.334 669.702 972.339 669.702ZM1009.62 700H1005.57V673.242H1028.03V700H1023.93V676.758H1009.62V700ZM1059.72 686.597C1059.72 690.959 1058.62 694.368 1056.42 696.826C1054.22 699.268 1051.19 700.488 1047.31 700.488C1044.92 700.488 1042.8 699.927 1040.94 698.804C1039.09 697.681 1037.65 696.069 1036.65 693.97C1035.64 691.87 1035.13 689.412 1035.13 686.597C1035.13 682.235 1036.22 678.841 1038.4 676.416C1040.58 673.975 1043.61 672.754 1047.49 672.754C1051.23 672.754 1054.2 673.999 1056.4 676.489C1058.61 678.979 1059.72 682.349 1059.72 686.597ZM1039.33 686.597C1039.33 690.015 1040.01 692.619 1041.38 694.409C1042.75 696.2 1044.76 697.095 1047.41 697.095C1050.07 697.095 1052.08 696.208 1053.44 694.434C1054.83 692.643 1055.52 690.031 1055.52 686.597C1055.52 683.195 1054.83 680.615 1053.44 678.857C1052.08 677.083 1050.05 676.196 1047.36 676.196C1044.71 676.196 1042.71 677.067 1041.36 678.809C1040.01 680.55 1039.33 683.146 1039.33 686.597ZM1086.79 700H1082.69V676.709H1074.66C1074.22 682.503 1073.61 687.101 1072.83 690.503C1072.05 693.905 1071.03 696.395 1069.78 697.974C1068.54 699.552 1066.96 700.342 1065.04 700.342C1064.16 700.342 1063.46 700.244 1062.94 700.049V697.046C1063.3 697.144 1063.7 697.192 1064.16 697.192C1066.03 697.192 1067.52 695.215 1068.63 691.26C1069.73 687.305 1070.57 681.299 1071.14 673.242H1086.79V700ZM1099.22 673.242V690.21L1099.05 694.653L1098.97 696.045L1113.45 673.242H1118.51V700H1114.72V683.643L1114.79 680.42L1114.92 677.246L1100.46 700H1095.41V673.242H1099.22ZM1145.14 676.709H1136.45V700H1132.4V676.709H1123.8V673.242H1145.14V676.709ZM1154.25 673.242V690.21L1154.08 694.653L1154 696.045L1168.48 673.242H1173.54V700H1169.75V683.643L1169.82 680.42L1169.95 677.246L1155.49 700H1150.44V673.242H1154.25ZM1197.73 673.242H1202.17L1190.62 686.157L1203.12 700H1198.39L1186.18 686.45V700H1182.13V673.242H1186.18V686.255L1197.73 673.242ZM1211.91 673.242V690.21L1211.74 694.653L1211.67 696.045L1226.15 673.242H1231.2V700H1227.42V683.643L1227.49 680.42L1227.61 677.246L1213.16 700H1208.11V673.242H1211.91ZM1256.59 673.242V690.21L1256.42 694.653L1256.35 696.045L1270.83 673.242H1275.88V700H1272.09V683.643L1272.17 680.42L1272.29 677.246L1257.84 700H1252.78V673.242H1256.59ZM1308.15 700.488C1304.28 700.488 1301.28 699.3 1299.15 696.924C1297.03 694.531 1295.97 691.154 1295.97 686.792C1295.97 682.316 1297.05 678.857 1299.19 676.416C1301.36 673.975 1304.44 672.754 1308.42 672.754C1309.71 672.754 1310.99 672.892 1312.28 673.169C1313.57 673.446 1314.58 673.771 1315.31 674.146L1314.06 677.588C1313.17 677.23 1312.19 676.937 1311.13 676.709C1310.07 676.465 1309.14 676.343 1308.33 676.343C1302.89 676.343 1300.17 679.81 1300.17 686.743C1300.17 690.031 1300.83 692.554 1302.15 694.312C1303.48 696.069 1305.45 696.948 1308.06 696.948C1310.29 696.948 1312.57 696.468 1314.92 695.508V699.097C1313.13 700.024 1310.87 700.488 1308.15 700.488ZM1325.34 700H1321.29V673.242H1343.75V700H1339.65V676.758H1325.34V700ZM1375.44 686.597C1375.44 690.959 1374.34 694.368 1372.14 696.826C1369.95 699.268 1366.91 700.488 1363.04 700.488C1360.64 700.488 1358.52 699.927 1356.67 698.804C1354.81 697.681 1353.38 696.069 1352.37 693.97C1351.36 691.87 1350.85 689.412 1350.85 686.597C1350.85 682.235 1351.94 678.841 1354.13 676.416C1356.31 673.975 1359.33 672.754 1363.21 672.754C1366.95 672.754 1369.92 673.999 1372.12 676.489C1374.33 678.979 1375.44 682.349 1375.44 686.597ZM1355.05 686.597C1355.05 690.015 1355.74 692.619 1357.1 694.409C1358.47 696.2 1360.48 697.095 1363.13 697.095C1365.79 697.095 1367.8 696.208 1369.17 694.434C1370.55 692.643 1371.24 690.031 1371.24 686.597C1371.24 683.195 1370.55 680.615 1369.17 678.857C1367.8 677.083 1365.77 676.196 1363.09 676.196C1360.43 676.196 1358.43 677.067 1357.08 678.809C1355.73 680.55 1355.05 683.146 1355.05 686.597ZM1395.02 700.488C1393.28 700.488 1391.68 700.171 1390.23 699.536C1388.8 698.885 1387.6 697.892 1386.62 696.558H1386.33C1386.52 698.12 1386.62 699.601 1386.62 701.001V712.012H1382.57V673.242H1385.86L1386.43 676.904H1386.62C1387.66 675.439 1388.88 674.382 1390.26 673.73C1391.64 673.079 1393.23 672.754 1395.02 672.754C1398.57 672.754 1401.3 673.966 1403.22 676.392C1405.16 678.817 1406.13 682.218 1406.13 686.597C1406.13 690.991 1405.14 694.409 1403.17 696.851C1401.22 699.276 1398.5 700.488 1395.02 700.488ZM1394.43 676.196C1391.7 676.196 1389.72 676.953 1388.5 678.467C1387.28 679.98 1386.65 682.389 1386.62 685.693V686.597C1386.62 690.356 1387.25 693.05 1388.5 694.678C1389.75 696.289 1391.76 697.095 1394.53 697.095C1396.84 697.095 1398.65 696.159 1399.95 694.287C1401.27 692.415 1401.93 689.836 1401.93 686.548C1401.93 683.211 1401.27 680.656 1399.95 678.882C1398.65 677.091 1396.81 676.196 1394.43 676.196ZM1431.27 676.709H1422.58V700H1418.53V676.709H1409.94V673.242H1431.27V676.709ZM1453.03 700L1452.22 696.191H1452.03C1450.69 697.868 1449.36 699.007 1448.02 699.609C1446.7 700.195 1445.05 700.488 1443.07 700.488C1440.41 700.488 1438.33 699.805 1436.82 698.438C1435.32 697.07 1434.57 695.125 1434.57 692.603C1434.57 687.199 1438.89 684.367 1447.53 684.106L1452.08 683.96V682.3C1452.08 680.2 1451.62 678.654 1450.71 677.661C1449.81 676.652 1448.37 676.147 1446.39 676.147C1444.16 676.147 1441.63 676.831 1438.82 678.198L1437.57 675.098C1438.89 674.382 1440.33 673.82 1441.89 673.413C1443.47 673.006 1445.05 672.803 1446.63 672.803C1449.82 672.803 1452.18 673.511 1453.71 674.927C1455.26 676.343 1456.03 678.613 1456.03 681.738V700H1453.03ZM1443.87 697.144C1446.39 697.144 1448.37 696.452 1449.8 695.068C1451.25 693.685 1451.98 691.748 1451.98 689.258V686.841L1447.92 687.012C1444.7 687.126 1442.37 687.63 1440.94 688.525C1439.53 689.404 1438.82 690.78 1438.82 692.651C1438.82 694.116 1439.26 695.231 1440.14 695.996C1441.03 696.761 1442.28 697.144 1443.87 697.144ZM1500.63 674.707C1500.63 678.32 1499.4 681.104 1496.92 683.057C1494.47 684.993 1490.94 685.962 1486.35 685.962H1482.15V700H1478V664.307H1487.26C1496.18 664.307 1500.63 667.773 1500.63 674.707ZM1482.15 682.397H1485.89C1489.57 682.397 1492.23 681.803 1493.87 680.615C1495.52 679.427 1496.34 677.523 1496.34 674.902C1496.34 672.542 1495.56 670.785 1494.02 669.629C1492.47 668.473 1490.06 667.896 1486.79 667.896H1482.15V682.397ZM1531.27 689.6C1531.27 693.148 1530.22 695.768 1528.1 697.461C1526 699.154 1522.83 700 1518.58 700H1508.13V664.307H1529.17V667.993H1512.28V679.541H1517.82C1520.96 679.541 1523.52 679.907 1525.49 680.64C1527.46 681.356 1528.91 682.422 1529.86 683.838C1530.8 685.254 1531.27 687.174 1531.27 689.6ZM1512.28 696.411H1518.12C1521.21 696.411 1523.45 695.882 1524.85 694.824C1526.27 693.766 1526.98 692.025 1526.98 689.6C1526.98 687.288 1526.26 685.645 1524.83 684.668C1523.4 683.691 1520.9 683.203 1517.33 683.203H1512.28V696.411ZM1556.27 684.351C1561.34 684.351 1563.87 682.951 1563.87 680.151C1563.87 677.515 1561.82 676.196 1557.71 676.196C1556.46 676.196 1555.32 676.31 1554.3 676.538C1553.27 676.766 1551.93 677.222 1550.27 677.905L1548.83 674.609C1551.6 673.372 1554.61 672.754 1557.89 672.754C1560.96 672.754 1563.39 673.389 1565.16 674.658C1566.94 675.911 1567.82 677.629 1567.82 679.81C1567.82 682.804 1566.15 684.766 1562.82 685.693V685.889C1564.87 686.491 1566.37 687.354 1567.31 688.477C1568.25 689.583 1568.73 690.975 1568.73 692.651C1568.73 695.125 1567.72 697.054 1565.72 698.438C1563.74 699.805 1560.99 700.488 1557.47 700.488C1553.61 700.488 1550.63 699.91 1548.54 698.755V695.044C1551.51 696.444 1554.52 697.144 1557.57 697.144C1559.91 697.144 1561.68 696.745 1562.87 695.947C1564.07 695.133 1564.67 693.97 1564.67 692.456C1564.67 689.347 1562.14 687.793 1557.08 687.793H1553.37V684.351H1556.27ZM1591.8 700L1590.99 696.191H1590.8C1589.46 697.868 1588.13 699.007 1586.79 699.609C1585.47 700.195 1583.82 700.488 1581.84 700.488C1579.18 700.488 1577.1 699.805 1575.59 698.438C1574.09 697.07 1573.34 695.125 1573.34 692.603C1573.34 687.199 1577.66 684.367 1586.3 684.106L1590.84 683.96V682.3C1590.84 680.2 1590.39 678.654 1589.48 677.661C1588.58 676.652 1587.14 676.147 1585.16 676.147C1582.93 676.147 1580.4 676.831 1577.59 678.198L1576.34 675.098C1577.66 674.382 1579.1 673.82 1580.66 673.413C1582.24 673.006 1583.82 672.803 1585.4 672.803C1588.59 672.803 1590.95 673.511 1592.48 674.927C1594.03 676.343 1594.8 678.613 1594.8 681.738V700H1591.8ZM1582.64 697.144C1585.16 697.144 1587.14 696.452 1588.57 695.068C1590.02 693.685 1590.75 691.748 1590.75 689.258V686.841L1586.69 687.012C1583.47 687.126 1581.14 687.63 1579.71 688.525C1578.3 689.404 1577.59 690.78 1577.59 692.651C1577.59 694.116 1578.03 695.231 1578.91 695.996C1579.8 696.761 1581.05 697.144 1582.64 697.144ZM1637.77 700H1614.31V696.509L1623.71 687.061C1626.57 684.163 1628.46 682.096 1629.37 680.859C1630.28 679.622 1630.97 678.418 1631.42 677.246C1631.88 676.074 1632.1 674.813 1632.1 673.462C1632.1 671.558 1631.53 670.052 1630.37 668.945C1629.22 667.822 1627.61 667.261 1625.56 667.261C1624.08 667.261 1622.67 667.505 1621.34 667.993C1620.02 668.481 1618.55 669.368 1616.92 670.654L1614.77 667.896C1618.06 665.161 1621.64 663.794 1625.51 663.794C1628.87 663.794 1631.49 664.657 1633.4 666.382C1635.3 668.091 1636.25 670.394 1636.25 673.291C1636.25 675.553 1635.62 677.791 1634.35 680.005C1633.08 682.218 1630.7 685.018 1627.22 688.403L1619.41 696.045V696.24H1637.77V700ZM1666.58 682.104C1666.58 688.273 1665.6 692.879 1663.65 695.923C1661.71 698.966 1658.74 700.488 1654.74 700.488C1650.9 700.488 1647.97 698.934 1645.97 695.825C1643.97 692.7 1642.97 688.127 1642.97 682.104C1642.97 675.887 1643.94 671.273 1645.87 668.262C1647.81 665.251 1650.76 663.745 1654.74 663.745C1658.61 663.745 1661.55 665.316 1663.55 668.457C1665.57 671.598 1666.58 676.147 1666.58 682.104ZM1647.07 682.104C1647.07 687.297 1647.68 691.081 1648.9 693.457C1650.12 695.817 1652.07 696.997 1654.74 696.997C1657.44 696.997 1659.39 695.801 1660.6 693.408C1661.82 690.999 1662.43 687.231 1662.43 682.104C1662.43 676.978 1661.82 673.226 1660.6 670.85C1659.39 668.457 1657.44 667.261 1654.74 667.261C1652.07 667.261 1650.12 668.441 1648.9 670.801C1647.68 673.145 1647.07 676.912 1647.07 682.104ZM1695 700H1671.53V696.509L1680.93 687.061C1683.8 684.163 1685.69 682.096 1686.6 680.859C1687.51 679.622 1688.19 678.418 1688.65 677.246C1689.1 676.074 1689.33 674.813 1689.33 673.462C1689.33 671.558 1688.75 670.052 1687.6 668.945C1686.44 667.822 1684.84 667.261 1682.79 667.261C1681.31 667.261 1679.9 667.505 1678.56 667.993C1677.25 668.481 1675.77 669.368 1674.15 670.654L1672 667.896C1675.28 665.161 1678.87 663.794 1682.74 663.794C1686.09 663.794 1688.72 664.657 1690.62 666.382C1692.53 668.091 1693.48 670.394 1693.48 673.291C1693.48 675.553 1692.85 677.791 1691.58 680.005C1690.31 682.218 1687.93 685.018 1684.45 688.403L1676.64 696.045V696.24H1695V700ZM1723.8 682.104C1723.8 688.273 1722.83 692.879 1720.87 695.923C1718.94 698.966 1715.97 700.488 1711.96 700.488C1708.12 700.488 1705.2 698.934 1703.2 695.825C1701.2 692.7 1700.2 688.127 1700.2 682.104C1700.2 675.887 1701.16 671.273 1703.1 668.262C1705.04 665.251 1707.99 663.745 1711.96 663.745C1715.84 663.745 1718.77 665.316 1720.78 668.457C1722.79 671.598 1723.8 676.147 1723.8 682.104ZM1704.3 682.104C1704.3 687.297 1704.91 691.081 1706.13 693.457C1707.35 695.817 1709.29 696.997 1711.96 696.997C1714.66 696.997 1716.62 695.801 1717.82 693.408C1719.04 690.999 1719.65 687.231 1719.65 682.104C1719.65 676.978 1719.04 673.226 1717.82 670.85C1716.62 668.457 1714.66 667.261 1711.96 667.261C1709.29 667.261 1707.35 668.441 1706.13 670.801C1704.91 673.145 1704.3 676.912 1704.3 682.104ZM1759.72 676.709H1747.66V700H1743.6V673.242H1759.72V676.709ZM1788.13 686.597C1788.13 690.959 1787.04 694.368 1784.84 696.826C1782.64 699.268 1779.61 700.488 1775.73 700.488C1773.34 700.488 1771.22 699.927 1769.36 698.804C1767.5 697.681 1766.07 696.069 1765.06 693.97C1764.05 691.87 1763.55 689.412 1763.55 686.597C1763.55 682.235 1764.64 678.841 1766.82 676.416C1769 673.975 1772.03 672.754 1775.9 672.754C1779.65 672.754 1782.62 673.999 1784.81 676.489C1787.03 678.979 1788.13 682.349 1788.13 686.597ZM1767.75 686.597C1767.75 690.015 1768.43 692.619 1769.8 694.409C1771.17 696.2 1773.18 697.095 1775.83 697.095C1778.48 697.095 1780.49 696.208 1781.86 694.434C1783.24 692.643 1783.94 690.031 1783.94 686.597C1783.94 683.195 1783.24 680.615 1781.86 678.857C1780.49 677.083 1778.47 676.196 1775.78 676.196C1773.13 676.196 1771.13 677.067 1769.78 678.809C1768.42 680.55 1767.75 683.146 1767.75 686.597ZM1818.51 709.253H1814.58V700H1795.87V709.253H1791.97V696.509H1794.07C1796.25 693.547 1797.96 690.072 1799.19 686.084C1800.43 682.096 1801.07 677.816 1801.12 673.242H1814.67V696.509H1818.51V709.253ZM1810.77 696.509V676.44H1804.76C1804.55 680.054 1803.85 683.716 1802.66 687.427C1801.49 691.121 1800.02 694.149 1798.27 696.509H1810.77ZM1823.29 697.412C1823.29 696.322 1823.54 695.5 1824.02 694.946C1824.53 694.377 1825.24 694.092 1826.17 694.092C1827.12 694.092 1827.85 694.377 1828.37 694.946C1828.91 695.5 1829.17 696.322 1829.17 697.412C1829.17 698.47 1828.91 699.284 1828.37 699.854C1827.83 700.423 1827.1 700.708 1826.17 700.708C1825.34 700.708 1824.65 700.456 1824.1 699.951C1823.56 699.43 1823.29 698.584 1823.29 697.412Z" fill="white"/>
<path d="M269.531 444H20.0195V391.51L109.619 300.934C136.149 273.753 153.483 254.954 161.621 244.537C169.759 233.958 175.618 224.192 179.199 215.24C182.78 206.288 184.57 197.011 184.57 187.408C184.57 173.085 180.583 162.424 172.607 155.426C164.795 148.427 154.297 144.928 141.113 144.928C127.279 144.928 113.851 148.102 100.83 154.449C87.8092 160.797 74.2188 169.83 60.0586 181.549L19.043 132.965C36.6211 117.991 51.1882 107.411 62.7441 101.227C74.3001 95.0417 86.9141 90.3216 100.586 87.0664C114.258 83.6484 129.557 81.9395 146.484 81.9395C168.783 81.9395 188.477 86.0085 205.566 94.1465C222.656 102.285 235.921 113.678 245.361 128.326C254.801 142.975 259.521 159.739 259.521 178.619C259.521 195.058 256.592 210.52 250.732 225.006C245.036 239.329 236.084 254.059 223.877 269.195C211.833 284.332 190.511 305.898 159.912 333.893L114.014 377.105V380.523H269.531V444ZM341.064 444L475.098 151.031H299.072V87.5547H555.176V134.918L420.166 444H341.064ZM683.35 391.51C674.886 424.387 660.563 463.368 640.381 508.453H586.67C597.249 465.159 605.469 424.306 611.328 385.895H679.688L683.35 391.51ZM993.896 370.025H950.928V444H877.197V370.025H724.854V317.535L881.348 87.0664H950.928V311.432H993.896V370.025ZM877.197 311.432V250.885C877.197 240.794 877.604 226.145 878.418 206.939C879.232 187.734 879.883 176.585 880.371 173.492H878.418C872.396 186.839 865.153 199.859 856.689 212.555L791.26 311.432H877.197ZM1151.86 215.973C1186.36 215.973 1213.79 225.657 1234.13 245.025C1254.64 264.394 1264.89 290.924 1264.89 324.615C1264.89 364.492 1252.6 395.172 1228.03 416.656C1203.45 438.141 1168.29 448.883 1122.56 448.883C1082.85 448.883 1050.78 442.454 1026.37 429.596V364.41C1039.23 371.246 1054.2 376.861 1071.29 381.256C1088.38 385.488 1104.57 387.604 1119.87 387.604C1165.93 387.604 1188.96 368.723 1188.96 330.963C1188.96 294.993 1165.12 277.008 1117.43 277.008C1108.81 277.008 1099.28 277.903 1088.87 279.693C1078.45 281.321 1069.99 283.111 1063.48 285.064L1033.45 268.951L1046.88 87.0664H1240.48V151.031H1113.04L1106.45 221.1L1114.99 219.391C1124.92 217.112 1137.21 215.973 1151.86 215.973ZM1364.5 194C1364.5 214.671 1366.29 230.133 1369.87 240.387C1373.62 250.478 1379.56 255.523 1387.7 255.523C1403.32 255.523 1411.13 235.016 1411.13 194C1411.13 153.31 1403.32 132.965 1387.7 132.965C1379.56 132.965 1373.62 138.01 1369.87 148.102C1366.29 158.03 1364.5 173.329 1364.5 194ZM1472.66 193.512C1472.66 230.947 1465.41 259.104 1450.93 277.984C1436.44 296.702 1415.2 306.061 1387.21 306.061C1360.35 306.061 1339.6 296.458 1324.95 277.252C1310.3 257.883 1302.98 229.97 1302.98 193.512C1302.98 119.13 1331.05 81.9395 1387.21 81.9395C1414.71 81.9395 1435.79 91.6237 1450.44 110.992C1465.25 130.198 1472.66 157.704 1472.66 193.512ZM1640.62 87.0664L1442.63 444H1384.03L1582.03 87.0664H1640.62ZM1614.5 336.578C1614.5 357.249 1616.29 372.711 1619.87 382.965C1623.62 393.056 1629.56 398.102 1637.7 398.102C1653.32 398.102 1661.13 377.594 1661.13 336.578C1661.13 295.888 1653.32 275.543 1637.7 275.543C1629.56 275.543 1623.62 280.589 1619.87 290.68C1616.29 300.608 1614.5 315.908 1614.5 336.578ZM1722.66 336.09C1722.66 373.362 1715.41 401.438 1700.93 420.318C1686.44 439.036 1665.2 448.395 1637.21 448.395C1610.35 448.395 1589.6 438.792 1574.95 419.586C1560.3 400.217 1552.98 372.385 1552.98 336.09C1552.98 261.708 1581.05 224.518 1637.21 224.518C1664.71 224.518 1685.79 234.202 1700.44 253.57C1715.25 272.776 1722.66 300.283 1722.66 336.09Z" fill="white"/>
</svg>
