<svg width="2201" height="1587" viewBox="0 0 2201 1587" fill="none" xmlns="http://www.w3.org/2000/svg">
<rect y="125" width="980" height="648" fill="#C4C4C4" fill-opacity="0.05"/>
<circle cx="995" cy="1194" r="300" stroke="#2A3254" stroke-width="184.709"/>
<path d="M995 894C829.315 894 695 1028.31 695 1194C695 1359.69 829.315 1494 995 1494C1004.58 1494 1014.05 1493.55 1023.39 1492.67" stroke="#00F957" stroke-width="184.709"/>
<path d="M865.927 1194.71C865.927 1182 868.607 1172.53 873.969 1166.32C879.359 1160.11 887.416 1157 898.139 1157C901.801 1157 904.672 1157.22 906.752 1157.66V1168.52C904.145 1167.93 901.566 1167.64 899.018 1167.64C894.359 1167.64 890.551 1168.34 887.592 1169.75C884.662 1171.16 882.465 1173.24 881 1175.99C879.535 1178.74 878.671 1182.65 878.407 1187.72H878.979C881.879 1182.74 886.522 1180.25 892.909 1180.25C898.651 1180.25 903.148 1182.05 906.4 1185.66C909.652 1189.26 911.278 1194.24 911.278 1200.6C911.278 1207.45 909.345 1212.89 905.478 1216.9C901.61 1220.89 896.249 1222.88 889.394 1222.88C884.647 1222.88 880.502 1221.78 876.957 1219.58C873.441 1217.39 870.717 1214.18 868.783 1209.96C866.879 1205.74 865.927 1200.66 865.927 1194.71ZM889.13 1212.02C892.03 1212.02 894.257 1211.06 895.81 1209.12C897.362 1207.16 898.139 1204.38 898.139 1200.77C898.139 1197.64 897.406 1195.18 895.941 1193.39C894.506 1191.58 892.323 1190.67 889.394 1190.67C886.64 1190.67 884.281 1191.56 882.318 1193.35C880.385 1195.13 879.418 1197.21 879.418 1199.59C879.418 1203.07 880.326 1206.02 882.143 1208.42C883.988 1210.82 886.317 1212.02 889.13 1212.02ZM924.154 1222L948.28 1169.27H916.596V1157.84H962.694V1166.37L938.393 1222H924.154ZM985.766 1212.55C984.242 1218.47 981.664 1225.49 978.031 1233.6H968.363C970.268 1225.81 971.747 1218.46 972.802 1211.54H985.106L985.766 1212.55ZM1017.45 1156.92C1023.6 1156.92 1028.55 1158.32 1032.3 1161.14C1036.08 1163.92 1037.97 1167.68 1037.97 1172.43C1037.97 1175.71 1037.06 1178.64 1035.25 1181.22C1033.43 1183.77 1030.5 1186.05 1026.46 1188.07C1031.26 1190.65 1034.71 1193.35 1036.79 1196.16C1038.9 1198.94 1039.95 1202 1039.95 1205.34C1039.95 1210.62 1037.88 1214.87 1033.75 1218.09C1029.62 1221.28 1024.19 1222.88 1017.45 1222.88C1010.42 1222.88 1004.9 1221.38 1000.88 1218.4C996.869 1215.41 994.862 1211.17 994.862 1205.7C994.862 1202.03 995.829 1198.78 997.763 1195.94C999.726 1193.1 1002.86 1190.59 1007.17 1188.43C1003.5 1186.11 1000.87 1183.64 999.257 1181C997.646 1178.36 996.84 1175.48 996.84 1172.34C996.84 1167.74 998.744 1164.02 1002.55 1161.18C1006.36 1158.34 1011.33 1156.92 1017.45 1156.92ZM1007.43 1204.91C1007.43 1207.42 1008.31 1209.39 1010.07 1210.79C1011.83 1212.2 1014.23 1212.9 1017.27 1212.9C1020.64 1212.9 1023.16 1212.19 1024.83 1210.75C1026.5 1209.29 1027.34 1207.37 1027.34 1204.99C1027.34 1203.03 1026.5 1201.2 1024.83 1199.5C1023.19 1197.77 1020.51 1195.94 1016.79 1194.01C1010.55 1196.88 1007.43 1200.51 1007.43 1204.91ZM1017.36 1166.85C1015.05 1166.85 1013.17 1167.45 1011.74 1168.65C1010.33 1169.82 1009.63 1171.4 1009.63 1173.4C1009.63 1175.15 1010.18 1176.74 1011.3 1178.14C1012.44 1179.52 1014.49 1180.94 1017.45 1182.41C1020.32 1181.06 1022.33 1179.68 1023.47 1178.27C1024.61 1176.87 1025.18 1175.24 1025.18 1173.4C1025.18 1171.38 1024.45 1169.78 1022.99 1168.61C1021.52 1167.43 1019.65 1166.85 1017.36 1166.85ZM1056.96 1177C1056.96 1180.72 1057.28 1183.5 1057.92 1185.35C1058.6 1187.17 1059.67 1188.07 1061.13 1188.07C1063.94 1188.07 1065.35 1184.38 1065.35 1177C1065.35 1169.68 1063.94 1166.01 1061.13 1166.01C1059.67 1166.01 1058.6 1166.92 1057.92 1168.74C1057.28 1170.53 1056.96 1173.28 1056.96 1177ZM1076.42 1176.91C1076.42 1183.65 1075.12 1188.72 1072.51 1192.12C1069.91 1195.49 1066.08 1197.17 1061.04 1197.17C1056.21 1197.17 1052.47 1195.44 1049.84 1191.99C1047.2 1188.5 1045.88 1183.47 1045.88 1176.91C1045.88 1163.52 1050.94 1156.83 1061.04 1156.83C1066 1156.83 1069.79 1158.57 1072.43 1162.06C1075.09 1165.52 1076.42 1170.47 1076.42 1176.91ZM1106.66 1157.75L1071.02 1222H1060.47L1096.11 1157.75H1106.66ZM1101.96 1202.66C1101.96 1206.38 1102.28 1209.17 1102.92 1211.01C1103.6 1212.83 1104.67 1213.74 1106.13 1213.74C1108.94 1213.74 1110.35 1210.05 1110.35 1202.66C1110.35 1195.34 1108.94 1191.68 1106.13 1191.68C1104.67 1191.68 1103.6 1192.59 1102.92 1194.4C1102.28 1196.19 1101.96 1198.94 1101.96 1202.66ZM1121.42 1202.58C1121.42 1209.29 1120.12 1214.34 1117.51 1217.74C1114.91 1221.11 1111.08 1222.79 1106.04 1222.79C1101.21 1222.79 1097.47 1221.06 1094.84 1217.61C1092.2 1214.12 1090.88 1209.11 1090.88 1202.58C1090.88 1189.19 1095.94 1182.49 1106.04 1182.49C1111 1182.49 1114.79 1184.24 1117.43 1187.72C1120.09 1191.18 1121.42 1196.13 1121.42 1202.58Z" fill="white"/>
<path d="M70.9531 199H46.002V193.751L54.9619 184.693C57.6149 181.975 59.3483 180.095 60.1621 179.054C60.9759 177.996 61.5618 177.019 61.9199 176.124C62.278 175.229 62.457 174.301 62.457 173.341C62.457 171.909 62.0583 170.842 61.2607 170.143C60.4795 169.443 59.4297 169.093 58.1113 169.093C56.7279 169.093 55.3851 169.41 54.083 170.045C52.7809 170.68 51.4219 171.583 50.0059 172.755L45.9043 167.896C47.6621 166.399 49.1188 165.341 50.2744 164.723C51.43 164.104 52.6914 163.632 54.0586 163.307C55.4258 162.965 56.9557 162.794 58.6484 162.794C60.8783 162.794 62.8477 163.201 64.5566 164.015C66.2656 164.828 67.5921 165.968 68.5361 167.433C69.4801 168.897 69.9521 170.574 69.9521 172.462C69.9521 174.106 69.6592 175.652 69.0732 177.101C68.5036 178.533 67.6084 180.006 66.3877 181.52C65.1833 183.033 63.0511 185.19 59.9912 187.989L55.4014 192.311V192.652H70.9531V199ZM99.3223 181.153C99.3223 187.387 98.2969 192.001 96.2461 194.996C94.2116 197.991 91.0703 199.488 86.8223 199.488C82.7044 199.488 79.5957 197.942 77.4961 194.85C75.4128 191.757 74.3711 187.192 74.3711 181.153C74.3711 174.854 75.3883 170.216 77.4229 167.237C79.4574 164.243 82.5905 162.745 86.8223 162.745C90.9401 162.745 94.0488 164.308 96.1484 167.433C98.2643 170.558 99.3223 175.131 99.3223 181.153ZM81.8662 181.153C81.8662 185.532 82.2406 188.673 82.9893 190.577C83.7542 192.465 85.0319 193.409 86.8223 193.409C88.5801 193.409 89.8496 192.449 90.6309 190.528C91.4121 188.608 91.8027 185.483 91.8027 181.153C91.8027 176.775 91.404 173.634 90.6064 171.729C89.8252 169.809 88.5638 168.849 86.8223 168.849C85.0482 168.849 83.7786 169.809 83.0137 171.729C82.2487 173.634 81.8662 176.775 81.8662 181.153ZM121.783 199H114.239V178.346L114.312 174.952L114.435 171.241C113.181 172.494 112.311 173.316 111.822 173.707L107.721 177.003L104.083 172.462L115.582 163.307H121.783V199ZM156.5 178.541C156.5 185.572 155.019 190.821 152.057 194.288C149.094 197.755 144.61 199.488 138.604 199.488C136.489 199.488 134.885 199.374 133.795 199.146V193.092C135.162 193.434 136.594 193.604 138.092 193.604C140.615 193.604 142.69 193.238 144.317 192.506C145.945 191.757 147.19 190.593 148.053 189.015C148.915 187.42 149.412 185.23 149.542 182.447H149.249C148.305 183.977 147.215 185.051 145.978 185.67C144.741 186.288 143.194 186.598 141.339 186.598C138.23 186.598 135.781 185.605 133.99 183.619C132.2 181.617 131.305 178.842 131.305 175.294C131.305 171.469 132.387 168.45 134.552 166.236C136.733 164.007 139.695 162.892 143.438 162.892C146.075 162.892 148.378 163.51 150.348 164.747C152.333 165.984 153.855 167.783 154.913 170.143C155.971 172.486 156.5 175.286 156.5 178.541ZM143.585 168.946C142.022 168.946 140.802 169.483 139.923 170.558C139.044 171.632 138.604 173.178 138.604 175.196C138.604 176.922 139.003 178.289 139.801 179.298C140.598 180.307 141.811 180.812 143.438 180.812C144.968 180.812 146.279 180.315 147.369 179.322C148.46 178.313 149.005 177.158 149.005 175.855C149.005 173.919 148.492 172.283 147.467 170.948C146.458 169.614 145.164 168.946 143.585 168.946Z" fill="white"/>
<path d="M1124.95 199H1100V193.751L1108.96 184.693C1111.61 181.975 1113.35 180.095 1114.16 179.054C1114.98 177.996 1115.56 177.019 1115.92 176.124C1116.28 175.229 1116.46 174.301 1116.46 173.341C1116.46 171.909 1116.06 170.842 1115.26 170.143C1114.48 169.443 1113.43 169.093 1112.11 169.093C1110.73 169.093 1109.39 169.41 1108.08 170.045C1106.78 170.68 1105.42 171.583 1104.01 172.755L1099.9 167.896C1101.66 166.399 1103.12 165.341 1104.27 164.723C1105.43 164.104 1106.69 163.632 1108.06 163.307C1109.43 162.965 1110.96 162.794 1112.65 162.794C1114.88 162.794 1116.85 163.201 1118.56 164.015C1120.27 164.828 1121.59 165.968 1122.54 167.433C1123.48 168.897 1123.95 170.574 1123.95 172.462C1123.95 174.106 1123.66 175.652 1123.07 177.101C1122.5 178.533 1121.61 180.006 1120.39 181.52C1119.18 183.033 1117.05 185.19 1113.99 187.989L1109.4 192.311V192.652H1124.95V199ZM1153.32 181.153C1153.32 187.387 1152.3 192.001 1150.25 194.996C1148.21 197.991 1145.07 199.488 1140.82 199.488C1136.7 199.488 1133.6 197.942 1131.5 194.85C1129.41 191.757 1128.37 187.192 1128.37 181.153C1128.37 174.854 1129.39 170.216 1131.42 167.237C1133.46 164.243 1136.59 162.745 1140.82 162.745C1144.94 162.745 1148.05 164.308 1150.15 167.433C1152.26 170.558 1153.32 175.131 1153.32 181.153ZM1135.87 181.153C1135.87 185.532 1136.24 188.673 1136.99 190.577C1137.75 192.465 1139.03 193.409 1140.82 193.409C1142.58 193.409 1143.85 192.449 1144.63 190.528C1145.41 188.608 1145.8 185.483 1145.8 181.153C1145.8 176.775 1145.4 173.634 1144.61 171.729C1143.83 169.809 1142.56 168.849 1140.82 168.849C1139.05 168.849 1137.78 169.809 1137.01 171.729C1136.25 173.634 1135.87 176.775 1135.87 181.153ZM1182.08 199H1157.13V193.751L1166.09 184.693C1168.74 181.975 1170.48 180.095 1171.29 179.054C1172.1 177.996 1172.69 177.019 1173.05 176.124C1173.41 175.229 1173.59 174.301 1173.59 173.341C1173.59 171.909 1173.19 170.842 1172.39 170.143C1171.61 169.443 1170.56 169.093 1169.24 169.093C1167.86 169.093 1166.51 169.41 1165.21 170.045C1163.91 170.68 1162.55 171.583 1161.13 172.755L1157.03 167.896C1158.79 166.399 1160.25 165.341 1161.4 164.723C1162.56 164.104 1163.82 163.632 1165.19 163.307C1166.55 162.965 1168.08 162.794 1169.78 162.794C1172.01 162.794 1173.98 163.201 1175.69 164.015C1177.39 164.828 1178.72 165.968 1179.67 167.433C1180.61 168.897 1181.08 170.574 1181.08 172.462C1181.08 174.106 1180.79 175.652 1180.2 177.101C1179.63 178.533 1178.74 180.006 1177.52 181.52C1176.31 183.033 1174.18 185.19 1171.12 187.989L1166.53 192.311V192.652H1182.08V199ZM1210.45 181.153C1210.45 187.387 1209.43 192.001 1207.38 194.996C1205.34 197.991 1202.2 199.488 1197.95 199.488C1193.83 199.488 1190.72 197.942 1188.62 194.85C1186.54 191.757 1185.5 187.192 1185.5 181.153C1185.5 174.854 1186.52 170.216 1188.55 167.237C1190.59 164.243 1193.72 162.745 1197.95 162.745C1202.07 162.745 1205.18 164.308 1207.28 167.433C1209.39 170.558 1210.45 175.131 1210.45 181.153ZM1193 181.153C1193 185.532 1193.37 188.673 1194.12 190.577C1194.88 192.465 1196.16 193.409 1197.95 193.409C1199.71 193.409 1200.98 192.449 1201.76 190.528C1202.54 188.608 1202.93 185.483 1202.93 181.153C1202.93 176.775 1202.53 173.634 1201.74 171.729C1200.95 169.809 1199.69 168.849 1197.95 168.849C1196.18 168.849 1194.91 169.809 1194.14 171.729C1193.38 173.634 1193 176.775 1193 181.153Z" fill="white"/>
<line x1="2.5397e-07" y1="231" x2="1974" y2="231" stroke="#6A7186" stroke-width="4"/>
<path d="M88.9707 387.592C99.3223 387.592 107.55 390.497 113.653 396.308C119.806 402.118 122.882 410.077 122.882 420.185C122.882 432.147 119.195 441.352 111.822 447.797C104.449 454.242 93.9023 457.465 80.1816 457.465C68.2676 457.465 58.6484 455.536 51.3242 451.679V432.123C55.1816 434.174 59.6738 435.858 64.8008 437.177C69.9277 438.446 74.7861 439.081 79.376 439.081C93.1943 439.081 100.104 433.417 100.104 422.089C100.104 411.298 92.9502 405.902 78.6436 405.902C76.0557 405.902 73.1992 406.171 70.0742 406.708C66.9492 407.196 64.4102 407.733 62.457 408.319L53.4482 403.485L57.4766 348.92H115.558V368.109H77.3252L75.3477 389.13L77.9111 388.617C80.8896 387.934 84.5762 387.592 88.9707 387.592ZM191.656 456H169.024V394.037L169.244 383.856L169.61 372.724C165.851 376.483 163.238 378.949 161.773 380.121L149.469 390.009L138.556 376.386L173.053 348.92H191.656V456ZM249.005 440.253C246.466 450.116 242.169 461.811 236.114 475.336H220.001C223.175 462.348 225.641 450.092 227.398 438.568H247.906L249.005 440.253ZM320.855 456H298.224V394.037L298.443 383.856L298.81 372.724C295.05 376.483 292.438 378.949 290.973 380.121L278.668 390.009L267.755 376.386L302.252 348.92H320.855V456Z" fill="white"/>
<path d="M1142.97 387.592C1153.32 387.592 1161.55 390.497 1167.65 396.308C1173.81 402.118 1176.88 410.077 1176.88 420.185C1176.88 432.147 1173.2 441.352 1165.82 447.797C1158.45 454.242 1147.9 457.465 1134.18 457.465C1122.27 457.465 1112.65 455.536 1105.32 451.679V432.123C1109.18 434.174 1113.67 435.858 1118.8 437.177C1123.93 438.446 1128.79 439.081 1133.38 439.081C1147.19 439.081 1154.1 433.417 1154.1 422.089C1154.1 411.298 1146.95 405.902 1132.64 405.902C1130.06 405.902 1127.2 406.171 1124.07 406.708C1120.95 407.196 1118.41 407.733 1116.46 408.319L1107.45 403.485L1111.48 348.92H1169.56V368.109H1131.33L1129.35 389.13L1131.91 388.617C1134.89 387.934 1138.58 387.592 1142.97 387.592ZM1264.55 456H1189.7V440.253L1216.58 413.08C1224.54 404.926 1229.74 399.286 1232.18 396.161C1234.62 392.987 1236.38 390.058 1237.45 387.372C1238.53 384.687 1239.06 381.903 1239.06 379.022C1239.06 374.726 1237.87 371.527 1235.48 369.428C1233.13 367.328 1229.98 366.278 1226.03 366.278C1221.88 366.278 1217.85 367.23 1213.94 369.135C1210.04 371.039 1205.96 373.749 1201.71 377.265L1189.41 362.689C1194.68 358.197 1199.05 355.023 1202.52 353.168C1205.98 351.312 1209.77 349.896 1213.87 348.92C1217.97 347.895 1222.56 347.382 1227.64 347.382C1234.33 347.382 1240.24 348.603 1245.36 351.044C1250.49 353.485 1254.47 356.903 1257.3 361.298C1260.13 365.692 1261.55 370.722 1261.55 376.386C1261.55 381.317 1260.67 385.956 1258.91 390.302C1257.2 394.599 1254.52 399.018 1250.86 403.559C1247.24 408.1 1240.85 414.569 1231.67 422.968L1217.9 435.932V436.957H1264.55V456ZM1303 440.253C1300.47 450.116 1296.17 461.811 1290.11 475.336H1274C1277.17 462.348 1279.64 450.092 1281.4 438.568H1301.91L1303 440.253ZM1393.75 456H1318.9V440.253L1345.78 413.08C1353.74 404.926 1358.94 399.286 1361.38 396.161C1363.82 392.987 1365.58 390.058 1366.65 387.372C1367.73 384.687 1368.26 381.903 1368.26 379.022C1368.26 374.726 1367.07 371.527 1364.67 369.428C1362.33 367.328 1359.18 366.278 1355.23 366.278C1351.08 366.278 1347.05 367.23 1343.14 369.135C1339.24 371.039 1335.16 373.749 1330.91 377.265L1318.61 362.689C1323.88 358.197 1328.25 355.023 1331.72 353.168C1335.18 351.312 1338.97 349.896 1343.07 348.92C1347.17 347.895 1351.76 347.382 1356.84 347.382C1363.53 347.382 1369.44 348.603 1374.56 351.044C1379.69 353.485 1383.67 356.903 1386.5 361.298C1389.33 365.692 1390.75 370.722 1390.75 376.386C1390.75 381.317 1389.87 385.956 1388.11 390.302C1386.4 394.599 1383.72 399.018 1380.06 403.559C1376.44 408.1 1370.05 414.569 1360.87 422.968L1347.1 435.932V436.957H1393.75V456ZM1441.51 347.528C1451.76 347.528 1460.01 349.872 1466.26 354.56C1472.56 359.198 1475.71 365.473 1475.71 373.383C1475.71 378.852 1474.2 383.734 1471.17 388.031C1468.14 392.279 1463.26 396.088 1456.52 399.457C1464.53 403.754 1470.27 408.246 1473.73 412.934C1477.25 417.572 1479.01 422.675 1479.01 428.241C1479.01 437.03 1475.56 444.11 1468.68 449.481C1461.79 454.804 1452.74 457.465 1441.51 457.465C1429.79 457.465 1420.58 454.975 1413.89 449.994C1407.2 445.014 1403.86 437.958 1403.86 428.827C1403.86 422.724 1405.47 417.304 1408.69 412.567C1411.96 407.831 1417.19 403.656 1424.37 400.043C1418.26 396.186 1413.87 392.06 1411.18 387.665C1408.5 383.271 1407.16 378.461 1407.16 373.236C1407.16 365.57 1410.33 359.369 1416.68 354.633C1423.02 349.896 1431.3 347.528 1441.51 347.528ZM1424.81 427.509C1424.81 431.708 1426.27 434.979 1429.2 437.323C1432.13 439.667 1436.13 440.839 1441.21 440.839C1446.83 440.839 1451.03 439.643 1453.81 437.25C1456.59 434.809 1457.99 431.61 1457.99 427.655C1457.99 424.384 1456.59 421.332 1453.81 418.5C1451.08 415.619 1446.61 412.567 1440.41 409.345C1430.01 414.13 1424.81 420.185 1424.81 427.509ZM1441.36 364.081C1437.5 364.081 1434.38 365.082 1431.98 367.084C1429.64 369.037 1428.47 371.674 1428.47 374.994C1428.47 377.924 1429.4 380.561 1431.25 382.904C1433.16 385.199 1436.57 387.567 1441.51 390.009C1446.29 387.763 1449.64 385.468 1451.54 383.124C1453.44 380.78 1454.4 378.07 1454.4 374.994C1454.4 371.625 1453.18 368.964 1450.73 367.011C1448.29 365.058 1445.17 364.081 1441.36 364.081Z" fill="white"/>
<path d="M88.9707 621.592C99.3223 621.592 107.55 624.497 113.653 630.308C119.806 636.118 122.882 644.077 122.882 654.185C122.882 666.147 119.195 675.352 111.822 681.797C104.449 688.242 93.9023 691.465 80.1816 691.465C68.2676 691.465 58.6484 689.536 51.3242 685.679V666.123C55.1816 668.174 59.6738 669.858 64.8008 671.177C69.9277 672.446 74.7861 673.081 79.376 673.081C93.1943 673.081 100.104 667.417 100.104 656.089C100.104 645.298 92.9502 639.902 78.6436 639.902C76.0557 639.902 73.1992 640.171 70.0742 640.708C66.9492 641.196 64.4102 641.733 62.457 642.319L53.4482 637.485L57.4766 582.92H115.558V602.109H77.3252L75.3477 623.13L77.9111 622.617C80.8896 621.934 84.5762 621.592 88.9707 621.592ZM191.656 690H169.024V628.037L169.244 617.856L169.61 606.724C165.851 610.483 163.238 612.949 161.773 614.121L149.469 624.009L138.556 610.386L173.053 582.92H191.656V690ZM249.005 674.253C246.466 684.116 242.169 695.811 236.114 709.336H220.001C223.175 696.348 225.641 684.092 227.398 672.568H247.906L249.005 674.253ZM320.855 690H298.224V628.037L298.443 617.856L298.81 606.724C295.05 610.483 292.438 612.949 290.973 614.121L278.668 624.009L267.755 610.386L302.252 582.92H320.855V690Z" fill="#01F859"/>
<path d="M1103.27 644.517C1103.27 623.325 1107.74 607.554 1116.68 597.202C1125.66 586.851 1139.09 581.675 1156.96 581.675C1163.06 581.675 1167.85 582.041 1171.32 582.773V600.864C1166.97 599.888 1162.67 599.399 1158.42 599.399C1150.66 599.399 1144.31 600.571 1139.38 602.915C1134.5 605.259 1130.84 608.726 1128.4 613.315C1125.95 617.905 1124.51 624.424 1124.07 632.871H1125.03C1129.86 624.57 1137.6 620.42 1148.24 620.42C1157.81 620.42 1165.31 623.423 1170.73 629.429C1176.15 635.435 1178.86 643.735 1178.86 654.331C1178.86 665.757 1175.64 674.814 1169.19 681.504C1162.75 688.145 1153.81 691.465 1142.38 691.465C1134.47 691.465 1127.57 689.634 1121.66 685.972C1115.8 682.31 1111.26 676.963 1108.03 669.932C1104.86 662.9 1103.27 654.429 1103.27 644.517ZM1141.95 673.374C1146.78 673.374 1150.49 671.763 1153.08 668.54C1155.67 665.269 1156.96 660.63 1156.96 654.624C1156.96 649.399 1155.74 645.298 1153.3 642.319C1150.91 639.292 1147.27 637.778 1142.38 637.778C1137.79 637.778 1133.86 639.268 1130.59 642.246C1127.37 645.225 1125.76 648.691 1125.76 652.646C1125.76 658.457 1127.27 663.364 1130.3 667.368C1133.38 671.372 1137.26 673.374 1141.95 673.374ZM1200.32 690L1240.53 602.109H1187.72V583.066H1264.55V597.275L1224.05 690H1200.32ZM1303 674.253C1300.47 684.116 1296.17 695.811 1290.11 709.336H1274C1277.17 696.348 1279.64 684.092 1281.4 672.568H1301.91L1303 674.253ZM1355.81 581.528C1366.07 581.528 1374.32 583.872 1380.57 588.56C1386.87 593.198 1390.02 599.473 1390.02 607.383C1390.02 612.852 1388.5 617.734 1385.48 622.031C1382.45 626.279 1377.57 630.088 1370.83 633.457C1378.83 637.754 1384.57 642.246 1388.04 646.934C1391.55 651.572 1393.31 656.675 1393.31 662.241C1393.31 671.03 1389.87 678.11 1382.99 683.481C1376.1 688.804 1367.04 691.465 1355.81 691.465C1344.09 691.465 1334.89 688.975 1328.2 683.994C1321.51 679.014 1318.17 671.958 1318.17 662.827C1318.17 656.724 1319.78 651.304 1323 646.567C1326.27 641.831 1331.5 637.656 1338.67 634.043C1332.57 630.186 1328.18 626.06 1325.49 621.665C1322.8 617.271 1321.46 612.461 1321.46 607.236C1321.46 599.57 1324.64 593.369 1330.98 588.633C1337.33 583.896 1345.61 581.528 1355.81 581.528ZM1339.11 661.509C1339.11 665.708 1340.58 668.979 1343.51 671.323C1346.44 673.667 1350.44 674.839 1355.52 674.839C1361.13 674.839 1365.33 673.643 1368.12 671.25C1370.9 668.809 1372.29 665.61 1372.29 661.655C1372.29 658.384 1370.9 655.332 1368.12 652.5C1365.38 649.619 1360.92 646.567 1354.71 643.345C1344.31 648.13 1339.11 654.185 1339.11 661.509ZM1355.67 598.081C1351.81 598.081 1348.68 599.082 1346.29 601.084C1343.95 603.037 1342.78 605.674 1342.78 608.994C1342.78 611.924 1343.7 614.561 1345.56 616.904C1347.46 619.199 1350.88 621.567 1355.81 624.009C1360.6 621.763 1363.94 619.468 1365.85 617.124C1367.75 614.78 1368.7 612.07 1368.7 608.994C1368.7 605.625 1367.48 602.964 1365.04 601.011C1362.6 599.058 1359.47 598.081 1355.67 598.081Z" fill="#01F859"/>
<path d="M33.0566 53.3018H29.1016V44H4.29688V53.3018H0.341797V40.2402H3.10059C5.6071 36.0247 7.7474 30.8978 9.52148 24.8594C11.3118 18.821 12.3047 13.3034 12.5 8.30664H28.54V40.2402H33.0566V53.3018ZM24.3896 40.2402V12.042H16.2598C15.9668 15.9808 14.9821 20.7171 13.3057 26.251C11.6292 31.7686 9.67611 36.4316 7.44629 40.2402H24.3896ZM61.5723 30.5967C61.5723 34.9587 60.4736 38.3685 58.2764 40.8262C56.0791 43.2676 53.0436 44.4883 49.1699 44.4883C46.7773 44.4883 44.6533 43.9268 42.7979 42.8037C40.9424 41.6807 39.5101 40.0693 38.501 37.9697C37.4919 35.8701 36.9873 33.4124 36.9873 30.5967C36.9873 26.2347 38.0778 22.8411 40.2588 20.416C42.4398 17.9746 45.4671 16.7539 49.3408 16.7539C53.0843 16.7539 56.0547 17.999 58.252 20.4893C60.4655 22.9795 61.5723 26.3486 61.5723 30.5967ZM41.1865 30.5967C41.1865 34.0146 41.8701 36.6188 43.2373 38.4092C44.6045 40.1995 46.6146 41.0947 49.2676 41.0947C51.9206 41.0947 53.9307 40.2077 55.2979 38.4336C56.6813 36.6432 57.373 34.0309 57.373 30.5967C57.373 27.195 56.6813 24.6152 55.2979 22.8574C53.9307 21.0833 51.9043 20.1963 49.2188 20.1963C46.5658 20.1963 44.5638 21.0671 43.2129 22.8086C41.862 24.5501 41.1865 27.1462 41.1865 30.5967ZM88.6475 44H84.5459V20.709H76.5137C76.0742 26.5033 75.4639 31.1012 74.6826 34.5029C73.9014 37.9046 72.8841 40.3949 71.6309 41.9736C70.3939 43.5524 68.8151 44.3418 66.8945 44.3418C66.0156 44.3418 65.3158 44.2441 64.7949 44.0488V41.0459C65.153 41.1436 65.5599 41.1924 66.0156 41.1924C67.8874 41.1924 69.3766 39.2148 70.4834 35.2598C71.5902 31.3047 72.4284 25.2988 72.998 17.2422H88.6475V44ZM98.6084 44H93.8721L101.562 32.6963C99.4954 32.2406 97.9085 31.3617 96.8018 30.0596C95.7113 28.7412 95.166 27.0892 95.166 25.1035C95.166 22.6621 95.988 20.7415 97.6318 19.3418C99.2757 17.9421 101.571 17.2422 104.517 17.2422H116.431V44H112.378V33.3066H105.615L98.6084 44ZM99.1211 25.1523C99.1211 28.2448 101.367 29.791 105.859 29.791H112.378V20.7578H105.029C101.09 20.7578 99.1211 22.2227 99.1211 25.1523ZM154.15 20.709H142.09V44H138.037V17.2422H154.15V20.709ZM182.568 30.5967C182.568 34.9587 181.47 38.3685 179.272 40.8262C177.075 43.2676 174.04 44.4883 170.166 44.4883C167.773 44.4883 165.649 43.9268 163.794 42.8037C161.938 41.6807 160.506 40.0693 159.497 37.9697C158.488 35.8701 157.983 33.4124 157.983 30.5967C157.983 26.2347 159.074 22.8411 161.255 20.416C163.436 17.9746 166.463 16.7539 170.337 16.7539C174.08 16.7539 177.051 17.999 179.248 20.4893C181.462 22.9795 182.568 26.3486 182.568 30.5967ZM162.183 30.5967C162.183 34.0146 162.866 36.6188 164.233 38.4092C165.601 40.1995 167.611 41.0947 170.264 41.0947C172.917 41.0947 174.927 40.2077 176.294 38.4336C177.677 36.6432 178.369 34.0309 178.369 30.5967C178.369 27.195 177.677 24.6152 176.294 22.8574C174.927 21.0833 172.9 20.1963 170.215 20.1963C167.562 20.1963 165.56 21.0671 164.209 22.8086C162.858 24.5501 162.183 27.1462 162.183 30.5967ZM202.148 44.4883C200.407 44.4883 198.812 44.1709 197.363 43.5361C195.931 42.8851 194.727 41.8923 193.75 40.5576H193.457C193.652 42.1201 193.75 43.6012 193.75 45.001V56.0117H189.697V17.2422H192.993L193.555 20.9043H193.75C194.792 19.4395 196.004 18.3815 197.388 17.7305C198.771 17.0794 200.358 16.7539 202.148 16.7539C205.697 16.7539 208.431 17.9665 210.352 20.3916C212.288 22.8167 213.257 26.2184 213.257 30.5967C213.257 34.9912 212.272 38.4092 210.303 40.8506C208.35 43.2757 205.632 44.4883 202.148 44.4883ZM201.562 20.1963C198.828 20.1963 196.851 20.9531 195.63 22.4668C194.409 23.9805 193.783 26.3893 193.75 29.6934V30.5967C193.75 34.3564 194.377 37.0501 195.63 38.6777C196.883 40.2891 198.893 41.0947 201.66 41.0947C203.971 41.0947 205.778 40.1589 207.08 38.2871C208.398 36.4154 209.058 33.8356 209.058 30.5479C209.058 27.2113 208.398 24.6559 207.08 22.8818C205.778 21.0915 203.939 20.1963 201.562 20.1963ZM243.457 30.5967C243.457 34.9587 242.358 38.3685 240.161 40.8262C237.964 43.2676 234.928 44.4883 231.055 44.4883C228.662 44.4883 226.538 43.9268 224.683 42.8037C222.827 41.6807 221.395 40.0693 220.386 37.9697C219.377 35.8701 218.872 33.4124 218.872 30.5967C218.872 26.2347 219.963 22.8411 222.144 20.416C224.325 17.9746 227.352 16.7539 231.226 16.7539C234.969 16.7539 237.939 17.999 240.137 20.4893C242.35 22.9795 243.457 26.3486 243.457 30.5967ZM223.071 30.5967C223.071 34.0146 223.755 36.6188 225.122 38.4092C226.489 40.1995 228.499 41.0947 231.152 41.0947C233.805 41.0947 235.815 40.2077 237.183 38.4336C238.566 36.6432 239.258 34.0309 239.258 30.5967C239.258 27.195 238.566 24.6152 237.183 22.8574C235.815 21.0833 233.789 20.1963 231.104 20.1963C228.451 20.1963 226.449 21.0671 225.098 22.8086C223.747 24.5501 223.071 27.1462 223.071 30.5967ZM273.828 53.2529H269.897V44H251.196V53.2529H247.29V40.5088H249.39C251.571 37.5465 253.28 34.0716 254.517 30.084C255.754 26.0964 256.396 21.8158 256.445 17.2422H269.995V40.5088H273.828V53.2529ZM266.089 40.5088V20.4404H260.083C259.871 24.0537 259.172 27.7158 257.983 31.4268C256.812 35.1214 255.347 38.1488 253.589 40.5088H266.089ZM302.295 30.5967C302.295 34.9587 301.196 38.3685 298.999 40.8262C296.802 43.2676 293.766 44.4883 289.893 44.4883C287.5 44.4883 285.376 43.9268 283.521 42.8037C281.665 41.6807 280.233 40.0693 279.224 37.9697C278.215 35.8701 277.71 33.4124 277.71 30.5967C277.71 26.2347 278.8 22.8411 280.981 20.416C283.162 17.9746 286.19 16.7539 290.063 16.7539C293.807 16.7539 296.777 17.999 298.975 20.4893C301.188 22.9795 302.295 26.3486 302.295 30.5967ZM281.909 30.5967C281.909 34.0146 282.593 36.6188 283.96 38.4092C285.327 40.1995 287.337 41.0947 289.99 41.0947C292.643 41.0947 294.653 40.2077 296.021 38.4336C297.404 36.6432 298.096 34.0309 298.096 30.5967C298.096 27.195 297.404 24.6152 296.021 22.8574C294.653 21.0833 292.627 20.1963 289.941 20.1963C287.288 20.1963 285.286 21.0671 283.936 22.8086C282.585 24.5501 281.909 27.1462 281.909 30.5967ZM331.128 23.9561C331.128 25.6976 330.623 27.0241 329.614 27.9355C328.621 28.8307 327.222 29.4329 325.415 29.7422V29.9619C327.694 30.2712 329.354 30.9385 330.396 31.9639C331.453 32.9893 331.982 34.4053 331.982 36.2119C331.982 38.7021 331.063 40.6227 329.224 41.9736C327.401 43.3245 324.731 44 321.216 44H309.424V17.2422H321.167C327.808 17.2422 331.128 19.4801 331.128 23.9561ZM327.93 35.9434C327.93 34.4948 327.376 33.445 326.27 32.7939C325.179 32.1266 323.364 31.793 320.825 31.793H313.477V40.6064H320.923C325.594 40.6064 327.93 39.0521 327.93 35.9434ZM327.173 24.3467C327.173 23.0446 326.668 22.125 325.659 21.5879C324.666 21.0345 323.153 20.7578 321.118 20.7578H313.477V28.3018H320.337C322.843 28.3018 324.609 27.9925 325.635 27.374C326.66 26.7555 327.173 25.7464 327.173 24.3467ZM374.121 18.707C374.121 22.3203 372.884 25.1035 370.41 27.0566C367.952 28.9935 364.429 29.9619 359.839 29.9619H355.64V44H351.489V8.30664H360.742C369.661 8.30664 374.121 11.7734 374.121 18.707ZM355.64 26.3975H359.375C363.053 26.3975 365.715 25.8034 367.358 24.6152C369.002 23.4271 369.824 21.5228 369.824 18.9023C369.824 16.5423 369.051 14.7845 367.505 13.6289C365.959 12.4733 363.55 11.8955 360.278 11.8955H355.64V26.3975ZM392.31 44.4883C388.354 44.4883 385.229 43.2839 382.935 40.875C380.656 38.4661 379.517 35.1214 379.517 30.8408C379.517 26.5277 380.575 23.1016 382.69 20.5625C384.823 18.0234 387.679 16.7539 391.26 16.7539C394.613 16.7539 397.266 17.8607 399.219 20.0742C401.172 22.2715 402.148 25.1768 402.148 28.79V31.3535H383.716C383.797 34.4948 384.587 36.8792 386.084 38.5068C387.598 40.1344 389.722 40.9482 392.456 40.9482C395.337 40.9482 398.185 40.346 401.001 39.1416V42.7549C399.569 43.3734 398.21 43.8128 396.924 44.0732C395.654 44.3499 394.116 44.4883 392.31 44.4883ZM391.211 20.1475C389.062 20.1475 387.345 20.8473 386.06 22.2471C384.79 23.6468 384.041 25.5837 383.813 28.0576H397.803C397.803 25.5023 397.233 23.5492 396.094 22.1982C394.954 20.8311 393.327 20.1475 391.211 20.1475ZM419.775 44.4883C415.902 44.4883 412.899 43.3001 410.767 40.9238C408.651 38.5312 407.593 35.154 407.593 30.792C407.593 26.3161 408.667 22.8574 410.815 20.416C412.98 17.9746 416.056 16.7539 420.044 16.7539C421.33 16.7539 422.616 16.8923 423.901 17.1689C425.187 17.4456 426.196 17.7712 426.929 18.1455L425.684 21.5879C424.788 21.2298 423.812 20.9368 422.754 20.709C421.696 20.4648 420.76 20.3428 419.946 20.3428C414.51 20.3428 411.792 23.8096 411.792 30.7432C411.792 34.0309 412.451 36.5537 413.77 38.3115C415.104 40.0693 417.074 40.9482 419.678 40.9482C421.908 40.9482 424.194 40.4681 426.538 39.5078V43.0967C424.748 44.0244 422.493 44.4883 419.775 44.4883ZM436.963 44H432.91V17.2422H455.371V44H451.27V20.7578H436.963V44ZM459.717 17.2422H464.062L469.922 32.501C471.208 35.984 472.005 38.4987 472.314 40.0449H472.51C472.721 39.2148 473.161 37.7988 473.828 35.7969C474.512 33.7786 476.725 27.5938 480.469 17.2422H484.814L473.315 47.7109C472.176 50.722 470.841 52.8542 469.312 54.1074C467.798 55.377 465.934 56.0117 463.721 56.0117C462.484 56.0117 461.263 55.8734 460.059 55.5967V52.3496C460.954 52.5449 461.955 52.6426 463.062 52.6426C465.845 52.6426 467.83 51.0801 469.019 47.9551L470.508 44.1465L459.717 17.2422ZM487.769 27.96C487.769 22.1006 488.631 17.5352 490.356 14.2637C492.082 10.9759 494.816 8.92513 498.56 8.11133C503.215 7.11849 507.316 6.31283 510.864 5.69434L511.621 9.25879C505.973 10.2028 501.937 10.9515 499.512 11.5049C497.152 12.042 495.378 13.3115 494.189 15.3135C493.018 17.3154 492.375 20.0417 492.261 23.4922H492.554C493.563 22.125 494.865 21.0508 496.46 20.2695C498.055 19.4883 499.723 19.0977 501.465 19.0977C504.753 19.0977 507.316 20.1637 509.155 22.2959C510.994 24.4281 511.914 27.3822 511.914 31.1582C511.914 35.3411 510.848 38.6126 508.716 40.9727C506.584 43.3164 503.613 44.4883 499.805 44.4883C496.045 44.4883 493.099 43.0479 490.967 40.167C488.835 37.2861 487.769 33.2171 487.769 27.96ZM500.171 41.0947C505.135 41.0947 507.617 37.929 507.617 31.5977C507.617 25.5592 505.363 22.54 500.854 22.54C499.618 22.54 498.421 22.8005 497.266 23.3213C496.126 23.8258 495.076 24.5013 494.116 25.3477C493.172 26.194 492.44 27.0648 491.919 27.96C491.919 32.2406 492.594 35.5039 493.945 37.75C495.296 39.9798 497.371 41.0947 500.171 41.0947ZM538.94 44H534.839V20.709H526.807C526.367 26.5033 525.757 31.1012 524.976 34.5029C524.194 37.9046 523.177 40.3949 521.924 41.9736C520.687 43.5524 519.108 44.3418 517.188 44.3418C516.309 44.3418 515.609 44.2441 515.088 44.0488V41.0459C515.446 41.1436 515.853 41.1924 516.309 41.1924C518.18 41.1924 519.67 39.2148 520.776 35.2598C521.883 31.3047 522.721 25.2988 523.291 17.2422H538.94V44ZM551.367 17.2422V34.21L551.196 38.6533L551.123 40.0449L565.601 17.2422H570.654V44H566.87V27.6426L566.943 24.4199L567.065 21.2461L552.612 44H547.559V17.2422H551.367ZM594.849 17.2422H599.292L587.744 30.1572L600.244 44H595.508L583.301 30.4502V44H579.248V17.2422H583.301V30.2549L594.849 17.2422ZM609.033 17.2422V34.21L608.862 38.6533L608.789 40.0449L623.267 17.2422H628.32V44H624.536V27.6426L624.609 24.4199L624.731 21.2461L610.278 44H605.225V17.2422H609.033ZM673.657 33.5996C673.657 37.1478 672.599 39.7682 670.483 41.4609C668.384 43.1536 665.21 44 660.962 44H650.513V8.30664H671.558V11.9932H654.663V23.541H660.205C663.346 23.541 665.902 23.9072 667.871 24.6396C669.84 25.3558 671.297 26.4219 672.241 27.8379C673.185 29.2539 673.657 31.1745 673.657 33.5996ZM654.663 40.4111H660.498C663.59 40.4111 665.837 39.8822 667.236 38.8242C668.652 37.7663 669.36 36.0247 669.36 33.5996C669.36 31.2884 668.644 29.6445 667.212 28.668C665.78 27.6914 663.281 27.2031 659.717 27.2031H654.663V40.4111ZM697.021 44L696.216 40.1914H696.021C694.686 41.8678 693.351 43.0072 692.017 43.6094C690.698 44.1953 689.046 44.4883 687.061 44.4883C684.408 44.4883 682.324 43.8047 680.811 42.4375C679.313 41.0703 678.564 39.1253 678.564 36.6025C678.564 31.1989 682.886 28.3669 691.528 28.1064L696.069 27.96V26.2998C696.069 24.2002 695.614 22.654 694.702 21.6611C693.807 20.652 692.367 20.1475 690.381 20.1475C688.151 20.1475 685.628 20.8311 682.812 22.1982L681.567 19.0977C682.886 18.3815 684.326 17.82 685.889 17.4131C687.467 17.0062 689.046 16.8027 690.625 16.8027C693.815 16.8027 696.175 17.5107 697.705 18.9268C699.251 20.3428 700.024 22.6133 700.024 25.7383V44H697.021ZM687.866 41.1436C690.389 41.1436 692.367 40.4518 693.799 39.0684C695.247 37.6849 695.972 35.748 695.972 33.2578V30.8408L691.919 31.0117C688.696 31.1257 686.369 31.6302 684.937 32.5254C683.521 33.4043 682.812 34.7796 682.812 36.6514C682.812 38.1162 683.252 39.2311 684.131 39.9961C685.026 40.7611 686.271 41.1436 687.866 41.1436ZM728.345 40.5088H740.21V17.2422H744.312V44H708.398V17.2422H712.451V40.5088H724.292V17.2422H728.345V40.5088ZM768.53 17.2422H772.974L761.426 30.1572L773.926 44H769.189L756.982 30.4502V44H752.93V17.2422H756.982V30.2549L768.53 17.2422ZM802.002 30.5967C802.002 34.9587 800.903 38.3685 798.706 40.8262C796.509 43.2676 793.473 44.4883 789.6 44.4883C787.207 44.4883 785.083 43.9268 783.228 42.8037C781.372 41.6807 779.94 40.0693 778.931 37.9697C777.922 35.8701 777.417 33.4124 777.417 30.5967C777.417 26.2347 778.507 22.8411 780.688 20.416C782.869 17.9746 785.897 16.7539 789.771 16.7539C793.514 16.7539 796.484 17.999 798.682 20.4893C800.895 22.9795 802.002 26.3486 802.002 30.5967ZM781.616 30.5967C781.616 34.0146 782.3 36.6188 783.667 38.4092C785.034 40.1995 787.044 41.0947 789.697 41.0947C792.35 41.0947 794.36 40.2077 795.728 38.4336C797.111 36.6432 797.803 34.0309 797.803 30.5967C797.803 27.195 797.111 24.6152 795.728 22.8574C794.36 21.0833 792.334 20.1963 789.648 20.1963C786.995 20.1963 784.993 21.0671 783.643 22.8086C782.292 24.5501 781.616 27.1462 781.616 30.5967ZM821.582 44.4883C819.84 44.4883 818.245 44.1709 816.797 43.5361C815.365 42.8851 814.16 41.8923 813.184 40.5576H812.891C813.086 42.1201 813.184 43.6012 813.184 45.001V56.0117H809.131V17.2422H812.427L812.988 20.9043H813.184C814.225 19.4395 815.438 18.3815 816.821 17.7305C818.205 17.0794 819.792 16.7539 821.582 16.7539C825.13 16.7539 827.865 17.9665 829.785 20.3916C831.722 22.8167 832.69 26.2184 832.69 30.5967C832.69 34.9912 831.706 38.4092 829.736 40.8506C827.783 43.2757 825.065 44.4883 821.582 44.4883ZM820.996 20.1963C818.262 20.1963 816.284 20.9531 815.063 22.4668C813.843 23.9805 813.216 26.3893 813.184 29.6934V30.5967C813.184 34.3564 813.81 37.0501 815.063 38.6777C816.317 40.2891 818.327 41.0947 821.094 41.0947C823.405 41.0947 825.212 40.1589 826.514 38.2871C827.832 36.4154 828.491 33.8356 828.491 30.5479C828.491 27.2113 827.832 24.6559 826.514 22.8818C825.212 21.0915 823.372 20.1963 820.996 20.1963ZM857.837 20.709H849.146V44H845.093V20.709H836.499V17.2422H857.837V20.709ZM886.23 30.5967C886.23 34.9587 885.132 38.3685 882.935 40.8262C880.737 43.2676 877.702 44.4883 873.828 44.4883C871.436 44.4883 869.312 43.9268 867.456 42.8037C865.601 41.6807 864.168 40.0693 863.159 37.9697C862.15 35.8701 861.646 33.4124 861.646 30.5967C861.646 26.2347 862.736 22.8411 864.917 20.416C867.098 17.9746 870.125 16.7539 873.999 16.7539C877.743 16.7539 880.713 17.999 882.91 20.4893C885.124 22.9795 886.23 26.3486 886.23 30.5967ZM865.845 30.5967C865.845 34.0146 866.528 36.6188 867.896 38.4092C869.263 40.1995 871.273 41.0947 873.926 41.0947C876.579 41.0947 878.589 40.2077 879.956 38.4336C881.34 36.6432 882.031 34.0309 882.031 30.5967C882.031 27.195 881.34 24.6152 879.956 22.8574C878.589 21.0833 876.562 20.1963 873.877 20.1963C871.224 20.1963 869.222 21.0671 867.871 22.8086C866.52 24.5501 865.845 27.1462 865.845 30.5967ZM904.053 44.4883C900.179 44.4883 897.176 43.3001 895.044 40.9238C892.928 38.5312 891.87 35.154 891.87 30.792C891.87 26.3161 892.944 22.8574 895.093 20.416C897.257 17.9746 900.334 16.7539 904.321 16.7539C905.607 16.7539 906.893 16.8923 908.179 17.1689C909.465 17.4456 910.474 17.7712 911.206 18.1455L909.961 21.5879C909.066 21.2298 908.089 20.9368 907.031 20.709C905.973 20.4648 905.037 20.3428 904.224 20.3428C898.787 20.3428 896.069 23.8096 896.069 30.7432C896.069 34.0309 896.729 36.5537 898.047 38.3115C899.382 40.0693 901.351 40.9482 903.955 40.9482C906.185 40.9482 908.472 40.4681 910.815 39.5078V43.0967C909.025 44.0244 906.771 44.4883 904.053 44.4883ZM935.229 20.709H926.538V44H922.485V20.709H913.892V17.2422H935.229V20.709ZM956.982 44L956.177 40.1914H955.981C954.647 41.8678 953.312 43.0072 951.978 43.6094C950.659 44.1953 949.007 44.4883 947.021 44.4883C944.368 44.4883 942.285 43.8047 940.771 42.4375C939.274 41.0703 938.525 39.1253 938.525 36.6025C938.525 31.1989 942.847 28.3669 951.489 28.1064L956.03 27.96V26.2998C956.03 24.2002 955.575 22.654 954.663 21.6611C953.768 20.652 952.327 20.1475 950.342 20.1475C948.112 20.1475 945.589 20.8311 942.773 22.1982L941.528 19.0977C942.847 18.3815 944.287 17.82 945.85 17.4131C947.428 17.0062 949.007 16.8027 950.586 16.8027C953.776 16.8027 956.136 17.5107 957.666 18.9268C959.212 20.3428 959.985 22.6133 959.985 25.7383V44H956.982ZM947.827 41.1436C950.35 41.1436 952.327 40.4518 953.76 39.0684C955.208 37.6849 955.933 35.748 955.933 33.2578V30.8408L951.88 31.0117C948.657 31.1257 946.33 31.6302 944.897 32.5254C943.481 33.4043 942.773 34.7796 942.773 36.6514C942.773 38.1162 943.213 39.2311 944.092 39.9961C944.987 40.7611 946.232 41.1436 947.827 41.1436ZM972.412 17.2422V28.4482H987.402V17.2422H991.455V44H987.402V31.9395H972.412V44H968.359V17.2422H972.412ZM1023.73 44.4883C1019.86 44.4883 1016.85 43.3001 1014.72 40.9238C1012.61 38.5312 1011.55 35.154 1011.55 30.792C1011.55 26.3161 1012.62 22.8574 1014.77 20.416C1016.94 17.9746 1020.01 16.7539 1024 16.7539C1025.28 16.7539 1026.57 16.8923 1027.86 17.1689C1029.14 17.4456 1030.15 17.7712 1030.88 18.1455L1029.64 21.5879C1028.74 21.2298 1027.77 20.9368 1026.71 20.709C1025.65 20.4648 1024.72 20.3428 1023.9 20.3428C1018.47 20.3428 1015.75 23.8096 1015.75 30.7432C1015.75 34.0309 1016.41 36.5537 1017.72 38.3115C1019.06 40.0693 1021.03 40.9482 1023.63 40.9482C1025.86 40.9482 1028.15 40.4681 1030.49 39.5078V43.0967C1028.7 44.0244 1026.45 44.4883 1023.73 44.4883ZM1048.46 27.96C1048.46 22.1006 1049.32 17.5352 1051.05 14.2637C1052.78 10.9759 1055.51 8.92513 1059.25 8.11133C1063.91 7.11849 1068.01 6.31283 1071.56 5.69434L1072.31 9.25879C1066.67 10.2028 1062.63 10.9515 1060.21 11.5049C1057.85 12.042 1056.07 13.3115 1054.88 15.3135C1053.71 17.3154 1053.07 20.0417 1052.95 23.4922H1053.25C1054.26 22.125 1055.56 21.0508 1057.15 20.2695C1058.75 19.4883 1060.42 19.0977 1062.16 19.0977C1065.45 19.0977 1068.01 20.1637 1069.85 22.2959C1071.69 24.4281 1072.61 27.3822 1072.61 31.1582C1072.61 35.3411 1071.54 38.6126 1069.41 40.9727C1067.28 43.3164 1064.31 44.4883 1060.5 44.4883C1056.74 44.4883 1053.79 43.0479 1051.66 40.167C1049.53 37.2861 1048.46 33.2171 1048.46 27.96ZM1060.86 41.0947C1065.83 41.0947 1068.31 37.929 1068.31 31.5977C1068.31 25.5592 1066.06 22.54 1061.55 22.54C1060.31 22.54 1059.11 22.8005 1057.96 23.3213C1056.82 23.8258 1055.77 24.5013 1054.81 25.3477C1053.87 26.194 1053.13 27.0648 1052.61 27.96C1052.61 32.2406 1053.29 35.5039 1054.64 37.75C1055.99 39.9798 1058.06 41.0947 1060.86 41.0947ZM1099.63 44H1095.53V20.709H1087.5C1087.06 26.5033 1086.45 31.1012 1085.67 34.5029C1084.89 37.9046 1083.87 40.3949 1082.62 41.9736C1081.38 43.5524 1079.8 44.3418 1077.88 44.3418C1077 44.3418 1076.3 44.2441 1075.78 44.0488V41.0459C1076.14 41.1436 1076.55 41.1924 1077 41.1924C1078.87 41.1924 1080.36 39.2148 1081.47 35.2598C1082.58 31.3047 1083.41 25.2988 1083.98 17.2422H1099.63V44ZM1124.71 44L1123.9 40.1914H1123.71C1122.37 41.8678 1121.04 43.0072 1119.7 43.6094C1118.38 44.1953 1116.73 44.4883 1114.75 44.4883C1112.09 44.4883 1110.01 43.8047 1108.5 42.4375C1107 41.0703 1106.25 39.1253 1106.25 36.6025C1106.25 31.1989 1110.57 28.3669 1119.21 28.1064L1123.75 27.96V26.2998C1123.75 24.2002 1123.3 22.654 1122.39 21.6611C1121.49 20.652 1120.05 20.1475 1118.07 20.1475C1115.84 20.1475 1113.31 20.8311 1110.5 22.1982L1109.25 19.0977C1110.57 18.3815 1112.01 17.82 1113.57 17.4131C1115.15 17.0062 1116.73 16.8027 1118.31 16.8027C1121.5 16.8027 1123.86 17.5107 1125.39 18.9268C1126.94 20.3428 1127.71 22.6133 1127.71 25.7383V44H1124.71ZM1115.55 41.1436C1118.07 41.1436 1120.05 40.4518 1121.48 39.0684C1122.93 37.6849 1123.66 35.748 1123.66 33.2578V30.8408L1119.6 31.0117C1116.38 31.1257 1114.05 31.6302 1112.62 32.5254C1111.21 33.4043 1110.5 34.7796 1110.5 36.6514C1110.5 38.1162 1110.94 39.2311 1111.82 39.9961C1112.71 40.7611 1113.96 41.1436 1115.55 41.1436ZM1152.2 20.709H1140.14V44H1136.08V17.2422H1152.2V20.709ZM1180.62 30.5967C1180.62 34.9587 1179.52 38.3685 1177.32 40.8262C1175.12 43.2676 1172.09 44.4883 1168.21 44.4883C1165.82 44.4883 1163.7 43.9268 1161.84 42.8037C1159.99 41.6807 1158.55 40.0693 1157.54 37.9697C1156.53 35.8701 1156.03 33.4124 1156.03 30.5967C1156.03 26.2347 1157.12 22.8411 1159.3 20.416C1161.48 17.9746 1164.51 16.7539 1168.38 16.7539C1172.13 16.7539 1175.1 17.999 1177.29 20.4893C1179.51 22.9795 1180.62 26.3486 1180.62 30.5967ZM1160.23 30.5967C1160.23 34.0146 1160.91 36.6188 1162.28 38.4092C1163.65 40.1995 1165.66 41.0947 1168.31 41.0947C1170.96 41.0947 1172.97 40.2077 1174.34 38.4336C1175.72 36.6432 1176.42 34.0309 1176.42 30.5967C1176.42 27.195 1175.72 24.6152 1174.34 22.8574C1172.97 21.0833 1170.95 20.1963 1168.26 20.1963C1165.61 20.1963 1163.61 21.0671 1162.26 22.8086C1160.9 24.5501 1160.23 27.1462 1160.23 30.5967ZM1191.8 44H1187.74V17.2422H1210.21V44H1206.1V20.7578H1191.8V44ZM1231.25 44.4883C1229.51 44.4883 1227.91 44.1709 1226.46 43.5361C1225.03 42.8851 1223.83 41.8923 1222.85 40.5576H1222.56C1222.75 42.1201 1222.85 43.6012 1222.85 45.001V56.0117H1218.8V17.2422H1222.09L1222.66 20.9043H1222.85C1223.89 19.4395 1225.11 18.3815 1226.49 17.7305C1227.87 17.0794 1229.46 16.7539 1231.25 16.7539C1234.8 16.7539 1237.53 17.9665 1239.45 20.3916C1241.39 22.8167 1242.36 26.2184 1242.36 30.5967C1242.36 34.9912 1241.37 38.4092 1239.4 40.8506C1237.45 43.2757 1234.73 44.4883 1231.25 44.4883ZM1230.66 20.1963C1227.93 20.1963 1225.95 20.9531 1224.73 22.4668C1223.51 23.9805 1222.88 26.3893 1222.85 29.6934V30.5967C1222.85 34.3564 1223.48 37.0501 1224.73 38.6777C1225.98 40.2891 1227.99 41.0947 1230.76 41.0947C1233.07 41.0947 1234.88 40.1589 1236.18 38.2871C1237.5 36.4154 1238.16 33.8356 1238.16 30.5479C1238.16 27.2113 1237.5 24.6559 1236.18 22.8818C1234.88 21.0915 1233.04 20.1963 1230.66 20.1963ZM1253.27 17.2422V34.21L1253.1 38.6533L1253.03 40.0449L1267.5 17.2422H1272.56V44H1268.77V27.6426L1268.85 24.4199L1268.97 21.2461L1254.52 44H1249.46V17.2422H1253.27ZM1282.5 44H1277.76L1285.45 32.6963C1283.38 32.2406 1281.8 31.3617 1280.69 30.0596C1279.6 28.7412 1279.05 27.0892 1279.05 25.1035C1279.05 22.6621 1279.87 20.7415 1281.52 19.3418C1283.16 17.9421 1285.46 17.2422 1288.4 17.2422H1300.32V44H1296.26V33.3066H1289.5L1282.5 44ZM1283.01 25.1523C1283.01 28.2448 1285.25 29.791 1289.75 29.791H1296.26V20.7578H1288.92C1284.98 20.7578 1283.01 22.2227 1283.01 25.1523ZM1326.98 20.709H1318.29V44H1314.23V20.709H1305.64V17.2422H1326.98V20.709ZM1336.33 17.2422V28.4482H1351.32V17.2422H1355.37V44H1351.32V31.9395H1336.33V44H1332.28V17.2422H1336.33ZM1387.06 30.5967C1387.06 34.9587 1385.96 38.3685 1383.76 40.8262C1381.57 43.2676 1378.53 44.4883 1374.66 44.4883C1372.27 44.4883 1370.14 43.9268 1368.29 42.8037C1366.43 41.6807 1365 40.0693 1363.99 37.9697C1362.98 35.8701 1362.48 33.4124 1362.48 30.5967C1362.48 26.2347 1363.57 22.8411 1365.75 20.416C1367.93 17.9746 1370.96 16.7539 1374.83 16.7539C1378.57 16.7539 1381.54 17.999 1383.74 20.4893C1385.95 22.9795 1387.06 26.3486 1387.06 30.5967ZM1366.67 30.5967C1366.67 34.0146 1367.36 36.6188 1368.73 38.4092C1370.09 40.1995 1372.1 41.0947 1374.76 41.0947C1377.41 41.0947 1379.42 40.2077 1380.79 38.4336C1382.17 36.6432 1382.86 34.0309 1382.86 30.5967C1382.86 27.195 1382.17 24.6152 1380.79 22.8574C1379.42 21.0833 1377.39 20.1963 1374.71 20.1963C1372.05 20.1963 1370.05 21.0671 1368.7 22.8086C1367.35 24.5501 1366.67 27.1462 1366.67 30.5967ZM1398 17.2422V34.21L1397.83 38.6533L1397.75 40.0449L1412.23 17.2422H1417.29V44H1413.5V27.6426L1413.57 24.4199L1413.7 21.2461L1399.24 44H1394.19V17.2422H1398ZM1405.64 13.7021C1402.63 13.7021 1400.43 13.1243 1399.05 11.9688C1397.66 10.7969 1396.89 8.8763 1396.73 6.20703H1400.54C1400.68 7.89974 1401.12 9.07975 1401.86 9.74707C1402.6 10.4144 1403.9 10.748 1405.74 10.748C1407.41 10.748 1408.65 10.39 1409.45 9.67383C1410.26 8.95768 1410.76 7.80208 1410.94 6.20703H1414.77C1414.58 8.77865 1413.75 10.6748 1412.3 11.8955C1410.86 13.0999 1408.63 13.7021 1405.64 13.7021ZM1454.98 20.709H1442.92V44H1438.87V17.2422H1454.98V20.709ZM1483.4 30.5967C1483.4 34.9587 1482.3 38.3685 1480.1 40.8262C1477.91 43.2676 1474.87 44.4883 1471 44.4883C1468.6 44.4883 1466.48 43.9268 1464.62 42.8037C1462.77 41.6807 1461.34 40.0693 1460.33 37.9697C1459.32 35.8701 1458.81 33.4124 1458.81 30.5967C1458.81 26.2347 1459.9 22.8411 1462.08 20.416C1464.27 17.9746 1467.29 16.7539 1471.17 16.7539C1474.91 16.7539 1477.88 17.999 1480.08 20.4893C1482.29 22.9795 1483.4 26.3486 1483.4 30.5967ZM1463.01 30.5967C1463.01 34.0146 1463.7 36.6188 1465.06 38.4092C1466.43 40.1995 1468.44 41.0947 1471.09 41.0947C1473.75 41.0947 1475.76 40.2077 1477.12 38.4336C1478.51 36.6432 1479.2 34.0309 1479.2 30.5967C1479.2 27.195 1478.51 24.6152 1477.12 22.8574C1475.76 21.0833 1473.73 20.1963 1471.04 20.1963C1468.39 20.1963 1466.39 21.0671 1465.04 22.8086C1463.69 24.5501 1463.01 27.1462 1463.01 30.5967ZM1502.98 44.4883C1501.24 44.4883 1499.64 44.1709 1498.19 43.5361C1496.76 42.8851 1495.56 41.8923 1494.58 40.5576H1494.29C1494.48 42.1201 1494.58 43.6012 1494.58 45.001V56.0117H1490.53V17.2422H1493.82L1494.38 20.9043H1494.58C1495.62 19.4395 1496.83 18.3815 1498.22 17.7305C1499.6 17.0794 1501.19 16.7539 1502.98 16.7539C1506.53 16.7539 1509.26 17.9665 1511.18 20.3916C1513.12 22.8167 1514.09 26.2184 1514.09 30.5967C1514.09 34.9912 1513.1 38.4092 1511.13 40.8506C1509.18 43.2757 1506.46 44.4883 1502.98 44.4883ZM1502.39 20.1963C1499.66 20.1963 1497.68 20.9531 1496.46 22.4668C1495.24 23.9805 1494.61 26.3893 1494.58 29.6934V30.5967C1494.58 34.3564 1495.21 37.0501 1496.46 38.6777C1497.71 40.2891 1499.72 41.0947 1502.49 41.0947C1504.8 41.0947 1506.61 40.1589 1507.91 38.2871C1509.23 36.4154 1509.89 33.8356 1509.89 30.5479C1509.89 27.2113 1509.23 24.6559 1507.91 22.8818C1506.61 21.0915 1504.77 20.1963 1502.39 20.1963ZM1544.29 30.5967C1544.29 34.9587 1543.19 38.3685 1540.99 40.8262C1538.79 43.2676 1535.76 44.4883 1531.88 44.4883C1529.49 44.4883 1527.37 43.9268 1525.51 42.8037C1523.66 41.6807 1522.22 40.0693 1521.22 37.9697C1520.21 35.8701 1519.7 33.4124 1519.7 30.5967C1519.7 26.2347 1520.79 22.8411 1522.97 20.416C1525.15 17.9746 1528.18 16.7539 1532.06 16.7539C1535.8 16.7539 1538.77 17.999 1540.97 20.4893C1543.18 22.9795 1544.29 26.3486 1544.29 30.5967ZM1523.9 30.5967C1523.9 34.0146 1524.58 36.6188 1525.95 38.4092C1527.32 40.1995 1529.33 41.0947 1531.98 41.0947C1534.64 41.0947 1536.65 40.2077 1538.01 38.4336C1539.4 36.6432 1540.09 34.0309 1540.09 30.5967C1540.09 27.195 1539.4 24.6152 1538.01 22.8574C1536.65 21.0833 1534.62 20.1963 1531.93 20.1963C1529.28 20.1963 1527.28 21.0671 1525.93 22.8086C1524.58 24.5501 1523.9 27.1462 1523.9 30.5967ZM1574.66 53.2529H1570.73V44H1552.03V53.2529H1548.12V40.5088H1550.22C1552.4 37.5465 1554.11 34.0716 1555.35 30.084C1556.58 26.0964 1557.23 21.8158 1557.28 17.2422H1570.83V40.5088H1574.66V53.2529ZM1566.92 40.5088V20.4404H1560.91C1560.7 24.0537 1560 27.7158 1558.81 31.4268C1557.64 35.1214 1556.18 38.1488 1554.42 40.5088H1566.92ZM1590.72 44.4883C1586.85 44.4883 1583.85 43.3001 1581.71 40.9238C1579.6 38.5312 1578.54 35.154 1578.54 30.792C1578.54 26.3161 1579.61 22.8574 1581.76 20.416C1583.93 17.9746 1587 16.7539 1590.99 16.7539C1592.28 16.7539 1593.56 16.8923 1594.85 17.1689C1596.13 17.4456 1597.14 17.7712 1597.88 18.1455L1596.63 21.5879C1595.74 21.2298 1594.76 20.9368 1593.7 20.709C1592.64 20.4648 1591.71 20.3428 1590.89 20.3428C1585.46 20.3428 1582.74 23.8096 1582.74 30.7432C1582.74 34.0309 1583.4 36.5537 1584.72 38.3115C1586.05 40.0693 1588.02 40.9482 1590.62 40.9482C1592.85 40.9482 1595.14 40.4681 1597.49 39.5078V43.0967C1595.69 44.0244 1593.44 44.4883 1590.72 44.4883ZM1619.46 17.2422H1623.9L1612.35 30.1572L1624.85 44H1620.12L1607.91 30.4502V44H1603.86V17.2422H1607.91V30.2549L1619.46 17.2422ZM1652.93 30.5967C1652.93 34.9587 1651.83 38.3685 1649.63 40.8262C1647.44 43.2676 1644.4 44.4883 1640.53 44.4883C1638.13 44.4883 1636.01 43.9268 1634.16 42.8037C1632.3 41.6807 1630.87 40.0693 1629.86 37.9697C1628.85 35.8701 1628.34 33.4124 1628.34 30.5967C1628.34 26.2347 1629.44 22.8411 1631.62 20.416C1633.8 17.9746 1636.82 16.7539 1640.7 16.7539C1644.44 16.7539 1647.41 17.999 1649.61 20.4893C1651.82 22.9795 1652.93 26.3486 1652.93 30.5967ZM1632.54 30.5967C1632.54 34.0146 1633.23 36.6188 1634.59 38.4092C1635.96 40.1995 1637.97 41.0947 1640.62 41.0947C1643.28 41.0947 1645.29 40.2077 1646.66 38.4336C1648.04 36.6432 1648.73 34.0309 1648.73 30.5967C1648.73 27.195 1648.04 24.6152 1646.66 22.8574C1645.29 21.0833 1643.26 20.1963 1640.58 20.1963C1637.92 20.1963 1635.92 21.0671 1634.57 22.8086C1633.22 24.5501 1632.54 27.1462 1632.54 30.5967ZM1663.87 17.2422V34.21L1663.7 38.6533L1663.62 40.0449L1678.1 17.2422H1683.15V44H1679.37V27.6426L1679.44 24.4199L1679.57 21.2461L1665.11 44H1660.06V17.2422H1663.87ZM1671.51 13.7021C1668.5 13.7021 1666.3 13.1243 1664.92 11.9688C1663.53 10.7969 1662.76 8.8763 1662.6 6.20703H1666.41C1666.55 7.89974 1666.99 9.07975 1667.72 9.74707C1668.47 10.4144 1669.77 10.748 1671.61 10.748C1673.28 10.748 1674.52 10.39 1675.32 9.67383C1676.13 8.95768 1676.63 7.80208 1676.81 6.20703H1680.64C1680.44 8.77865 1679.62 10.6748 1678.17 11.8955C1676.73 13.0999 1674.5 13.7021 1671.51 13.7021ZM1715.43 44.4883C1711.56 44.4883 1708.55 43.3001 1706.42 40.9238C1704.31 38.5312 1703.25 35.154 1703.25 30.792C1703.25 26.3161 1704.32 22.8574 1706.47 20.416C1708.63 17.9746 1711.71 16.7539 1715.7 16.7539C1716.98 16.7539 1718.27 16.8923 1719.56 17.1689C1720.84 17.4456 1721.85 17.7712 1722.58 18.1455L1721.34 21.5879C1720.44 21.2298 1719.47 20.9368 1718.41 20.709C1717.35 20.4648 1716.41 20.3428 1715.6 20.3428C1710.16 20.3428 1707.45 23.8096 1707.45 30.7432C1707.45 34.0309 1708.11 36.5537 1709.42 38.3115C1710.76 40.0693 1712.73 40.9482 1715.33 40.9482C1717.56 40.9482 1719.85 40.4681 1722.19 39.5078V43.0967C1720.4 44.0244 1718.15 44.4883 1715.43 44.4883ZM1741.02 44.4883C1739.27 44.4883 1737.68 44.1709 1736.23 43.5361C1734.8 42.8851 1733.59 41.8923 1732.62 40.5576H1732.32C1732.52 42.1201 1732.62 43.6012 1732.62 45.001V56.0117H1728.56V17.2422H1731.86L1732.42 20.9043H1732.62C1733.66 19.4395 1734.87 18.3815 1736.25 17.7305C1737.64 17.0794 1739.23 16.7539 1741.02 16.7539C1744.56 16.7539 1747.3 17.9665 1749.22 20.3916C1751.16 22.8167 1752.12 26.2184 1752.12 30.5967C1752.12 34.9912 1751.14 38.4092 1749.17 40.8506C1747.22 43.2757 1744.5 44.4883 1741.02 44.4883ZM1740.43 20.1963C1737.7 20.1963 1735.72 20.9531 1734.5 22.4668C1733.28 23.9805 1732.65 26.3893 1732.62 29.6934V30.5967C1732.62 34.3564 1733.24 37.0501 1734.5 38.6777C1735.75 40.2891 1737.76 41.0947 1740.53 41.0947C1742.84 41.0947 1744.65 40.1589 1745.95 38.2871C1747.27 36.4154 1747.92 33.8356 1747.92 30.5479C1747.92 27.2113 1747.27 24.6559 1745.95 22.8818C1744.65 21.0915 1742.81 20.1963 1740.43 20.1963ZM1770.53 44.4883C1766.58 44.4883 1763.45 43.2839 1761.16 40.875C1758.88 38.4661 1757.74 35.1214 1757.74 30.8408C1757.74 26.5277 1758.8 23.1016 1760.91 20.5625C1763.05 18.0234 1765.9 16.7539 1769.48 16.7539C1772.84 16.7539 1775.49 17.8607 1777.44 20.0742C1779.39 22.2715 1780.37 25.1768 1780.37 28.79V31.3535H1761.94C1762.02 34.4948 1762.81 36.8792 1764.31 38.5068C1765.82 40.1344 1767.94 40.9482 1770.68 40.9482C1773.56 40.9482 1776.41 40.346 1779.22 39.1416V42.7549C1777.79 43.3734 1776.43 43.8128 1775.15 44.0732C1773.88 44.3499 1772.34 44.4883 1770.53 44.4883ZM1769.43 20.1475C1767.29 20.1475 1765.57 20.8473 1764.28 22.2471C1763.01 23.6468 1762.26 25.5837 1762.04 28.0576H1776.03C1776.03 25.5023 1775.46 23.5492 1774.32 22.1982C1773.18 20.8311 1771.55 20.1475 1769.43 20.1475ZM1810.55 53.2529H1806.62V44H1787.92V53.2529H1784.01V40.5088H1786.11C1788.29 37.5465 1790 34.0716 1791.24 30.084C1792.47 26.0964 1793.12 21.8158 1793.16 17.2422H1806.71V40.5088H1810.55V53.2529ZM1802.81 40.5088V20.4404H1796.8C1796.59 24.0537 1795.89 27.7158 1794.7 31.4268C1793.53 35.1214 1792.07 38.1488 1790.31 40.5088H1802.81ZM1839.01 30.5967C1839.01 34.9587 1837.92 38.3685 1835.72 40.8262C1833.52 43.2676 1830.49 44.4883 1826.61 44.4883C1824.22 44.4883 1822.09 43.9268 1820.24 42.8037C1818.38 41.6807 1816.95 40.0693 1815.94 37.9697C1814.93 35.8701 1814.43 33.4124 1814.43 30.5967C1814.43 26.2347 1815.52 22.8411 1817.7 20.416C1819.88 17.9746 1822.91 16.7539 1826.78 16.7539C1830.53 16.7539 1833.5 17.999 1835.69 20.4893C1837.91 22.9795 1839.01 26.3486 1839.01 30.5967ZM1818.63 30.5967C1818.63 34.0146 1819.31 36.6188 1820.68 38.4092C1822.05 40.1995 1824.06 41.0947 1826.71 41.0947C1829.36 41.0947 1831.37 40.2077 1832.74 38.4336C1834.12 36.6432 1834.81 34.0309 1834.81 30.5967C1834.81 27.195 1834.12 24.6152 1832.74 22.8574C1831.37 21.0833 1829.35 20.1963 1826.66 20.1963C1824.01 20.1963 1822.01 21.0671 1820.65 22.8086C1819.3 24.5501 1818.63 27.1462 1818.63 30.5967ZM1849.95 17.2422V34.21L1849.78 38.6533L1849.71 40.0449L1864.18 17.2422H1869.24V44H1865.45V27.6426L1865.53 24.4199L1865.65 21.2461L1851.2 44H1846.14V17.2422H1849.95ZM1857.59 13.7021C1854.58 13.7021 1852.38 13.1243 1851 11.9688C1849.62 10.7969 1848.84 8.8763 1848.68 6.20703H1852.49C1852.64 7.89974 1853.08 9.07975 1853.81 9.74707C1854.56 10.4144 1855.85 10.748 1857.69 10.748C1859.37 10.748 1860.6 10.39 1861.4 9.67383C1862.22 8.95768 1862.71 7.80208 1862.89 6.20703H1866.72C1866.53 8.77865 1865.71 10.6748 1864.26 11.8955C1862.81 13.0999 1860.59 13.7021 1857.59 13.7021ZM1882.08 38.1895L1882.45 38.751C1882.02 40.3786 1881.41 42.2666 1880.62 44.415C1879.82 46.5798 1878.99 48.5898 1878.12 50.4453H1875.07C1875.51 48.7526 1875.99 46.6611 1876.51 44.1709C1877.05 41.6807 1877.43 39.6868 1877.64 38.1895H1882.08ZM1907.13 44H1903.08V17.2422H1925.54V44H1921.44V20.7578H1907.13V44ZM1946.58 44.4883C1944.84 44.4883 1943.25 44.1709 1941.8 43.5361C1940.36 42.8851 1939.16 41.8923 1938.18 40.5576H1937.89C1938.09 42.1201 1938.18 43.6012 1938.18 45.001V56.0117H1934.13V17.2422H1937.43L1937.99 20.9043H1938.18C1939.23 19.4395 1940.44 18.3815 1941.82 17.7305C1943.2 17.0794 1944.79 16.7539 1946.58 16.7539C1950.13 16.7539 1952.86 17.9665 1954.79 20.3916C1956.72 22.8167 1957.69 26.2184 1957.69 30.5967C1957.69 34.9912 1956.71 38.4092 1954.74 40.8506C1952.78 43.2757 1950.07 44.4883 1946.58 44.4883ZM1946 20.1963C1943.26 20.1963 1941.28 20.9531 1940.06 22.4668C1938.84 23.9805 1938.22 26.3893 1938.18 29.6934V30.5967C1938.18 34.3564 1938.81 37.0501 1940.06 38.6777C1941.32 40.2891 1943.33 41.0947 1946.09 41.0947C1948.4 41.0947 1950.21 40.1589 1951.51 38.2871C1952.83 36.4154 1953.49 33.8356 1953.49 30.5479C1953.49 27.2113 1952.83 24.6559 1951.51 22.8818C1950.21 21.0915 1948.37 20.1963 1946 20.1963ZM1987.89 30.5967C1987.89 34.9587 1986.79 38.3685 1984.59 40.8262C1982.4 43.2676 1979.36 44.4883 1975.49 44.4883C1973.1 44.4883 1970.97 43.9268 1969.12 42.8037C1967.26 41.6807 1965.83 40.0693 1964.82 37.9697C1963.81 35.8701 1963.31 33.4124 1963.31 30.5967C1963.31 26.2347 1964.4 22.8411 1966.58 20.416C1968.76 17.9746 1971.79 16.7539 1975.66 16.7539C1979.4 16.7539 1982.37 17.999 1984.57 20.4893C1986.78 22.9795 1987.89 26.3486 1987.89 30.5967ZM1967.5 30.5967C1967.5 34.0146 1968.19 36.6188 1969.56 38.4092C1970.92 40.1995 1972.93 41.0947 1975.59 41.0947C1978.24 41.0947 1980.25 40.2077 1981.62 38.4336C1983 36.6432 1983.69 34.0309 1983.69 30.5967C1983.69 27.195 1983 24.6152 1981.62 22.8574C1980.25 21.0833 1978.22 20.1963 1975.54 20.1963C1972.88 20.1963 1970.88 21.0671 1969.53 22.8086C1968.18 24.5501 1967.5 27.1462 1967.5 30.5967ZM2021.12 53.2529H2017.07V44H1995.02V17.2422H1999.07V40.5088H2013.28V17.2422H2017.33V40.5088H2021.12V53.2529ZM2037.62 44.4883C2033.67 44.4883 2030.54 43.2839 2028.25 40.875C2025.97 38.4661 2024.83 35.1214 2024.83 30.8408C2024.83 26.5277 2025.89 23.1016 2028 20.5625C2030.14 18.0234 2032.99 16.7539 2036.57 16.7539C2039.93 16.7539 2042.58 17.8607 2044.53 20.0742C2046.48 22.2715 2047.46 25.1768 2047.46 28.79V31.3535H2029.03C2029.11 34.4948 2029.9 36.8792 2031.4 38.5068C2032.91 40.1344 2035.03 40.9482 2037.77 40.9482C2040.65 40.9482 2043.5 40.346 2046.31 39.1416V42.7549C2044.88 43.3734 2043.52 43.8128 2042.24 44.0732C2040.97 44.3499 2039.43 44.4883 2037.62 44.4883ZM2036.52 20.1475C2034.38 20.1475 2032.66 20.8473 2031.37 22.2471C2030.1 23.6468 2029.35 25.5837 2029.13 28.0576H2043.12C2043.12 25.5023 2042.55 23.5492 2041.41 22.1982C2040.27 20.8311 2038.64 20.1475 2036.52 20.1475ZM2058.45 17.2422V28.4482H2073.44V17.2422H2077.49V44H2073.44V31.9395H2058.45V44H2054.39V17.2422H2058.45ZM2104.13 20.709H2095.43V44H2091.38V20.709H2082.79V17.2422H2104.13V20.709ZM2132.52 30.5967C2132.52 34.9587 2131.42 38.3685 2129.22 40.8262C2127.03 43.2676 2123.99 44.4883 2120.12 44.4883C2117.72 44.4883 2115.6 43.9268 2113.75 42.8037C2111.89 41.6807 2110.46 40.0693 2109.45 37.9697C2108.44 35.8701 2107.93 33.4124 2107.93 30.5967C2107.93 26.2347 2109.03 22.8411 2111.21 20.416C2113.39 17.9746 2116.41 16.7539 2120.29 16.7539C2124.03 16.7539 2127 17.999 2129.2 20.4893C2131.41 22.9795 2132.52 26.3486 2132.52 30.5967ZM2112.13 30.5967C2112.13 34.0146 2112.82 36.6188 2114.18 38.4092C2115.55 40.1995 2117.56 41.0947 2120.21 41.0947C2122.87 41.0947 2124.88 40.2077 2126.25 38.4336C2127.63 36.6432 2128.32 34.0309 2128.32 30.5967C2128.32 27.195 2127.63 24.6152 2126.25 22.8574C2124.88 21.0833 2122.85 20.1963 2120.17 20.1963C2117.51 20.1963 2115.51 21.0671 2114.16 22.8086C2112.81 24.5501 2112.13 27.1462 2112.13 30.5967ZM2161.35 23.9561C2161.35 25.6976 2160.85 27.0241 2159.84 27.9355C2158.85 28.8307 2157.45 29.4329 2155.64 29.7422V29.9619C2157.92 30.2712 2159.58 30.9385 2160.62 31.9639C2161.68 32.9893 2162.21 34.4053 2162.21 36.2119C2162.21 38.7021 2161.29 40.6227 2159.45 41.9736C2157.63 43.3245 2154.96 44 2151.44 44H2139.65V17.2422H2151.39C2158.03 17.2422 2161.35 19.4801 2161.35 23.9561ZM2158.15 35.9434C2158.15 34.4948 2157.6 33.445 2156.49 32.7939C2155.4 32.1266 2153.59 31.793 2151.05 31.793H2143.7V40.6064H2151.15C2155.82 40.6064 2158.15 39.0521 2158.15 35.9434ZM2157.4 24.3467C2157.4 23.0446 2156.89 22.125 2155.88 21.5879C2154.89 21.0345 2153.38 20.7578 2151.34 20.7578H2143.7V28.3018H2150.56C2153.07 28.3018 2154.83 27.9925 2155.86 27.374C2156.88 26.7555 2157.4 25.7464 2157.4 24.3467Z" fill="white"/>
<path d="M48.5088 309H46.3203V294.551H58.4492V309H56.2344V296.449H48.5088V309ZM73.8608 309H71.646V296.423H67.3086C67.0713 299.552 66.7417 302.035 66.3198 303.872C65.8979 305.708 65.3486 307.053 64.6719 307.906C64.0039 308.758 63.1514 309.185 62.1143 309.185C61.6396 309.185 61.2617 309.132 60.9805 309.026V307.405C61.1738 307.458 61.3936 307.484 61.6396 307.484C62.6504 307.484 63.4546 306.416 64.0522 304.28C64.6499 302.145 65.1025 298.901 65.4102 294.551H73.8608V309ZM87.4004 309L86.9653 306.943H86.8599C86.1392 307.849 85.4185 308.464 84.6978 308.789C83.9858 309.105 83.0938 309.264 82.0215 309.264C80.5889 309.264 79.4639 308.895 78.6465 308.156C77.8379 307.418 77.4336 306.368 77.4336 305.005C77.4336 302.087 79.7671 300.558 84.4341 300.417L86.8862 300.338V299.442C86.8862 298.308 86.6401 297.473 86.1479 296.937C85.6646 296.392 84.8867 296.12 83.8145 296.12C82.6104 296.12 81.248 296.489 79.7275 297.227L79.0552 295.553C79.7671 295.166 80.5449 294.863 81.3887 294.643C82.2412 294.423 83.0938 294.313 83.9463 294.313C85.6689 294.313 86.9434 294.696 87.7695 295.46C88.6045 296.225 89.022 297.451 89.022 299.139V309H87.4004ZM82.4565 307.458C83.8188 307.458 84.8867 307.084 85.6602 306.337C86.4424 305.59 86.8335 304.544 86.8335 303.199V301.894L84.645 301.986C82.9048 302.048 81.6479 302.32 80.8745 302.804C80.1099 303.278 79.7275 304.021 79.7275 305.032C79.7275 305.823 79.9648 306.425 80.4395 306.838C80.9229 307.251 81.5952 307.458 82.4565 307.458ZM95.7324 294.551V300.602H103.827V294.551H106.016V309H103.827V302.487H95.7324V309H93.5439V294.551H95.7324Z" fill="white"/>
<path d="M1102.51 309H1100.32V294.551H1112.45V309H1110.23V296.449H1102.51V309ZM1127.86 309H1125.65V296.423H1121.31C1121.07 299.552 1120.74 302.035 1120.32 303.872C1119.9 305.708 1119.35 307.053 1118.67 307.906C1118 308.758 1117.15 309.185 1116.11 309.185C1115.64 309.185 1115.26 309.132 1114.98 309.026V307.405C1115.17 307.458 1115.39 307.484 1115.64 307.484C1116.65 307.484 1117.45 306.416 1118.05 304.28C1118.65 302.145 1119.1 298.901 1119.41 294.551H1127.86V309ZM1141.4 309L1140.97 306.943H1140.86C1140.14 307.849 1139.42 308.464 1138.7 308.789C1137.99 309.105 1137.09 309.264 1136.02 309.264C1134.59 309.264 1133.46 308.895 1132.65 308.156C1131.84 307.418 1131.43 306.368 1131.43 305.005C1131.43 302.087 1133.77 300.558 1138.43 300.417L1140.89 300.338V299.442C1140.89 298.308 1140.64 297.473 1140.15 296.937C1139.66 296.392 1138.89 296.12 1137.81 296.12C1136.61 296.12 1135.25 296.489 1133.73 297.227L1133.06 295.553C1133.77 295.166 1134.54 294.863 1135.39 294.643C1136.24 294.423 1137.09 294.313 1137.95 294.313C1139.67 294.313 1140.94 294.696 1141.77 295.46C1142.6 296.225 1143.02 297.451 1143.02 299.139V309H1141.4ZM1136.46 307.458C1137.82 307.458 1138.89 307.084 1139.66 306.337C1140.44 305.59 1140.83 304.544 1140.83 303.199V301.894L1138.65 301.986C1136.9 302.048 1135.65 302.32 1134.87 302.804C1134.11 303.278 1133.73 304.021 1133.73 305.032C1133.73 305.823 1133.96 306.425 1134.44 306.838C1134.92 307.251 1135.6 307.458 1136.46 307.458ZM1149.73 294.551V300.602H1157.83V294.551H1160.02V309H1157.83V302.487H1149.73V309H1147.54V294.551H1149.73Z" fill="white"/>
<path d="M64.7979 530.762C64.7979 532.951 64.1738 534.695 62.9258 535.996C61.6865 537.288 59.9507 538.026 57.7183 538.211V544.486H55.5562V538.211C53.3765 538.044 51.6538 537.297 50.3882 535.97C49.1226 534.643 48.4897 532.907 48.4897 530.762C48.4897 528.574 49.1182 526.833 50.375 525.542C51.6406 524.25 53.394 523.516 55.6353 523.34V517.486H57.7183V523.34C59.9243 523.542 61.6558 524.302 62.9126 525.621C64.1694 526.939 64.7979 528.653 64.7979 530.762ZM50.7837 530.762C50.7837 532.45 51.1704 533.772 51.9438 534.73C52.7173 535.688 53.9478 536.247 55.6353 536.405V525.172C54.0093 525.322 52.792 525.854 51.9834 526.768C51.1836 527.673 50.7837 529.004 50.7837 530.762ZM62.5303 530.762C62.5303 527.396 60.9263 525.542 57.7183 525.199V536.405C59.3882 536.238 60.6055 535.675 61.3701 534.717C62.1436 533.759 62.5303 532.441 62.5303 530.762ZM77.5068 538L77.0718 535.943H76.9663C76.2456 536.849 75.5249 537.464 74.8042 537.789C74.0923 538.105 73.2002 538.264 72.1279 538.264C70.6953 538.264 69.5703 537.895 68.7529 537.156C67.9443 536.418 67.54 535.368 67.54 534.005C67.54 531.087 69.8735 529.558 74.5405 529.417L76.9927 529.338V528.442C76.9927 527.308 76.7466 526.473 76.2544 525.937C75.771 525.392 74.9932 525.12 73.9209 525.12C72.7168 525.12 71.3545 525.489 69.834 526.227L69.1616 524.553C69.8735 524.166 70.6514 523.863 71.4951 523.643C72.3477 523.423 73.2002 523.313 74.0527 523.313C75.7754 523.313 77.0498 523.696 77.876 524.46C78.7109 525.225 79.1284 526.451 79.1284 528.139V538H77.5068ZM72.563 536.458C73.9253 536.458 74.9932 536.084 75.7666 535.337C76.5488 534.59 76.9399 533.544 76.9399 532.199V530.894L74.7515 530.986C73.0112 531.048 71.7544 531.32 70.981 531.804C70.2163 532.278 69.834 533.021 69.834 534.032C69.834 534.823 70.0713 535.425 70.5459 535.838C71.0293 536.251 71.7017 536.458 72.563 536.458ZM92.0747 523.551H94.4741L88.2383 530.525L94.9883 538H92.4307L85.8389 530.683V538H83.6504V523.551H85.8389V530.578L92.0747 523.551ZM107.42 525.423H102.727V538H100.539V525.423H95.8979V523.551H107.42V525.423Z" fill="white"/>
<path d="M1115.8 532.762C1115.8 534.951 1115.17 536.695 1113.93 537.996C1112.69 539.288 1110.95 540.026 1108.72 540.211V546.486H1106.56V540.211C1104.38 540.044 1102.65 539.297 1101.39 537.97C1100.12 536.643 1099.49 534.907 1099.49 532.762C1099.49 530.574 1100.12 528.833 1101.38 527.542C1102.64 526.25 1104.39 525.516 1106.64 525.34V519.486H1108.72V525.34C1110.92 525.542 1112.66 526.302 1113.91 527.621C1115.17 528.939 1115.8 530.653 1115.8 532.762ZM1101.78 532.762C1101.78 534.45 1102.17 535.772 1102.94 536.73C1103.72 537.688 1104.95 538.247 1106.64 538.405V527.172C1105.01 527.322 1103.79 527.854 1102.98 528.768C1102.18 529.673 1101.78 531.004 1101.78 532.762ZM1113.53 532.762C1113.53 529.396 1111.93 527.542 1108.72 527.199V538.405C1110.39 538.238 1111.61 537.675 1112.37 536.717C1113.14 535.759 1113.53 534.441 1113.53 532.762ZM1128.51 540L1128.07 537.943H1127.97C1127.25 538.849 1126.52 539.464 1125.8 539.789C1125.09 540.105 1124.2 540.264 1123.13 540.264C1121.7 540.264 1120.57 539.895 1119.75 539.156C1118.94 538.418 1118.54 537.368 1118.54 536.005C1118.54 533.087 1120.87 531.558 1125.54 531.417L1127.99 531.338V530.442C1127.99 529.308 1127.75 528.473 1127.25 527.937C1126.77 527.392 1125.99 527.12 1124.92 527.12C1123.72 527.12 1122.35 527.489 1120.83 528.227L1120.16 526.553C1120.87 526.166 1121.65 525.863 1122.5 525.643C1123.35 525.423 1124.2 525.313 1125.05 525.313C1126.78 525.313 1128.05 525.696 1128.88 526.46C1129.71 527.225 1130.13 528.451 1130.13 530.139V540H1128.51ZM1123.56 538.458C1124.93 538.458 1125.99 538.084 1126.77 537.337C1127.55 536.59 1127.94 535.544 1127.94 534.199V532.894L1125.75 532.986C1124.01 533.048 1122.75 533.32 1121.98 533.804C1121.22 534.278 1120.83 535.021 1120.83 536.032C1120.83 536.823 1121.07 537.425 1121.55 537.838C1122.03 538.251 1122.7 538.458 1123.56 538.458ZM1143.07 525.551H1145.47L1139.24 532.525L1145.99 540H1143.43L1136.84 532.683V540H1134.65V525.551H1136.84V532.578L1143.07 525.551ZM1158.42 527.423H1153.73V540H1151.54V527.423H1146.9V525.551H1158.42V527.423Z" fill="white"/>
<circle cx="444.5" cy="646.5" r="38.5" fill="#212B4B"/>
<path d="M426 644L441.5 660.5H443.5L465 630" stroke="#01F859" stroke-width="7"/>
<circle cx="1519.5" cy="632.5" r="38.5" fill="#212B4B"/>
<path d="M1501 630L1516.5 646.5H1518.5L1540 616" stroke="#01F859" stroke-width="7"/>
</svg>
