<svg width="1974" height="1512" viewBox="0 0 1974 1512" fill="none" xmlns="http://www.w3.org/2000/svg">
<circle cx="995" cy="1119" r="300" stroke="#01F859" stroke-width="184.709"/>
<path d="M1295 1119C1295 978.133 1197.91 859.944 1067 827.695" stroke="url(#paint0_linear)" stroke-width="184.709"/>
<path d="M849.524 1148H835.945V1110.82L836.077 1104.71L836.297 1098.03C834.041 1100.29 832.474 1101.77 831.595 1102.47L824.212 1108.41L817.664 1100.23L838.362 1083.75H849.524V1148ZM911.927 1115.88C911.927 1127.1 910.081 1135.4 906.39 1140.79C902.728 1146.18 897.073 1148.88 889.427 1148.88C882.015 1148.88 876.419 1146.1 872.64 1140.53C868.89 1134.96 867.015 1126.75 867.015 1115.88C867.015 1104.54 868.846 1096.19 872.508 1090.83C876.17 1085.44 881.81 1082.74 889.427 1082.74C896.839 1082.74 902.435 1085.55 906.214 1091.18C910.022 1096.8 911.927 1105.04 911.927 1115.88ZM880.506 1115.88C880.506 1123.76 881.18 1129.41 882.527 1132.84C883.904 1136.24 886.204 1137.94 889.427 1137.94C892.591 1137.94 894.876 1136.21 896.282 1132.75C897.688 1129.29 898.392 1123.67 898.392 1115.88C898.392 1108 897.674 1102.34 896.238 1098.91C894.832 1095.46 892.562 1093.73 889.427 1093.73C886.233 1093.73 883.948 1095.46 882.571 1098.91C881.194 1102.34 880.506 1108 880.506 1115.88ZM942.161 1106.96C948.372 1106.96 953.309 1108.7 956.971 1112.18C960.662 1115.67 962.508 1120.45 962.508 1126.51C962.508 1133.69 960.296 1139.21 955.872 1143.08C951.448 1146.95 945.12 1148.88 936.888 1148.88C929.739 1148.88 923.968 1147.72 919.573 1145.41V1133.67C921.888 1134.9 924.583 1135.92 927.659 1136.71C930.735 1137.47 933.65 1137.85 936.404 1137.85C944.695 1137.85 948.841 1134.45 948.841 1127.65C948.841 1121.18 944.549 1117.94 935.965 1117.94C934.412 1117.94 932.698 1118.1 930.823 1118.42C928.948 1118.72 927.425 1119.04 926.253 1119.39L920.848 1116.49L923.265 1083.75H958.113V1095.27H935.174L933.987 1107.88L935.525 1107.57C937.312 1107.16 939.524 1106.96 942.161 1106.96ZM986.766 1138.55C985.242 1144.47 982.664 1151.49 979.031 1159.6H969.363C971.268 1151.81 972.747 1144.46 973.802 1137.54H986.106L986.766 1138.55ZM1040.95 1111.17C1040.95 1123.83 1038.28 1133.28 1032.95 1139.52C1027.62 1145.76 1019.55 1148.88 1008.74 1148.88C1004.93 1148.88 1002.04 1148.67 1000.08 1148.26V1137.37C1002.54 1137.98 1005.12 1138.29 1007.82 1138.29C1012.36 1138.29 1016.09 1137.63 1019.02 1136.31C1021.95 1134.96 1024.19 1132.87 1025.75 1130.03C1027.3 1127.16 1028.19 1123.21 1028.43 1118.21H1027.9C1026.2 1120.96 1024.24 1122.89 1022.01 1124.01C1019.78 1125.12 1017 1125.68 1013.66 1125.68C1008.06 1125.68 1003.66 1123.89 1000.43 1120.31C997.21 1116.71 995.599 1111.72 995.599 1105.33C995.599 1098.44 997.547 1093.01 1001.44 1089.03C1005.37 1085.01 1010.7 1083 1017.44 1083C1022.19 1083 1026.33 1084.12 1029.88 1086.34C1033.45 1088.57 1036.19 1091.81 1038.09 1096.06C1040 1100.28 1040.95 1105.31 1040.95 1111.17ZM1017.7 1093.9C1014.89 1093.9 1012.69 1094.87 1011.11 1096.8C1009.53 1098.74 1008.74 1101.52 1008.74 1105.15C1008.74 1108.26 1009.46 1110.72 1010.89 1112.54C1012.33 1114.35 1014.51 1115.26 1017.44 1115.26C1020.19 1115.26 1022.55 1114.37 1024.51 1112.58C1026.48 1110.76 1027.46 1108.68 1027.46 1106.34C1027.46 1102.85 1026.54 1099.91 1024.69 1097.51C1022.87 1095.1 1020.54 1093.9 1017.7 1093.9ZM1071.1 1106.96C1077.31 1106.96 1082.24 1108.7 1085.91 1112.18C1089.6 1115.67 1091.44 1120.45 1091.44 1126.51C1091.44 1133.69 1089.23 1139.21 1084.81 1143.08C1080.38 1146.95 1074.06 1148.88 1065.82 1148.88C1058.67 1148.88 1052.9 1147.72 1048.51 1145.41V1133.67C1050.82 1134.9 1053.52 1135.92 1056.59 1136.71C1059.67 1137.47 1062.59 1137.85 1065.34 1137.85C1073.63 1137.85 1077.78 1134.45 1077.78 1127.65C1077.78 1121.18 1073.48 1117.94 1064.9 1117.94C1063.35 1117.94 1061.63 1118.1 1059.76 1118.42C1057.88 1118.72 1056.36 1119.04 1055.19 1119.39L1049.78 1116.49L1052.2 1083.75H1087.05V1095.27H1064.11L1062.92 1107.88L1064.46 1107.57C1066.25 1107.16 1068.46 1106.96 1071.1 1106.96ZM1109.37 1103C1109.37 1106.72 1109.7 1109.5 1110.34 1111.35C1111.01 1113.17 1112.08 1114.07 1113.55 1114.07C1116.36 1114.07 1117.77 1110.38 1117.77 1103C1117.77 1095.68 1116.36 1092.01 1113.55 1092.01C1112.08 1092.01 1111.01 1092.92 1110.34 1094.74C1109.7 1096.53 1109.37 1099.28 1109.37 1103ZM1128.84 1102.91C1128.84 1109.65 1127.54 1114.72 1124.93 1118.12C1122.32 1121.49 1118.5 1123.17 1113.46 1123.17C1108.63 1123.17 1104.89 1121.44 1102.25 1117.99C1099.62 1114.5 1098.3 1109.47 1098.3 1102.91C1098.3 1089.52 1103.35 1082.83 1113.46 1082.83C1118.41 1082.83 1122.21 1084.57 1124.84 1088.06C1127.51 1091.52 1128.84 1096.47 1128.84 1102.91ZM1159.08 1083.75L1123.44 1148H1112.89L1148.53 1083.75H1159.08ZM1154.37 1128.66C1154.37 1132.38 1154.7 1135.17 1155.34 1137.01C1156.01 1138.83 1157.08 1139.74 1158.55 1139.74C1161.36 1139.74 1162.77 1136.05 1162.77 1128.66C1162.77 1121.34 1161.36 1117.68 1158.55 1117.68C1157.08 1117.68 1156.01 1118.59 1155.34 1120.4C1154.7 1122.19 1154.37 1124.94 1154.37 1128.66ZM1173.84 1128.58C1173.84 1135.29 1172.54 1140.34 1169.93 1143.74C1167.32 1147.11 1163.5 1148.79 1158.46 1148.79C1153.63 1148.79 1149.89 1147.06 1147.25 1143.61C1144.62 1140.12 1143.3 1135.11 1143.3 1128.58C1143.3 1115.19 1148.35 1108.49 1158.46 1108.49C1163.41 1108.49 1167.21 1110.24 1169.84 1113.72C1172.51 1117.18 1173.84 1122.13 1173.84 1128.58Z" fill="white"/>
<rect width="980" height="648" fill="#C4C4C4" fill-opacity="0.05"/>
<path d="M70.9531 74H46.002V68.751L54.9619 59.6934C57.6149 56.9753 59.3483 55.0954 60.1621 54.0537C60.9759 52.9958 61.5618 52.0192 61.9199 51.124C62.278 50.2288 62.457 49.3011 62.457 48.3408C62.457 46.9085 62.0583 45.8424 61.2607 45.1426C60.4795 44.4427 59.4297 44.0928 58.1113 44.0928C56.7279 44.0928 55.3851 44.4102 54.083 45.0449C52.7809 45.6797 51.4219 46.583 50.0059 47.7549L45.9043 42.8965C47.6621 41.3991 49.1188 40.3411 50.2744 39.7227C51.43 39.1042 52.6914 38.6322 54.0586 38.3066C55.4258 37.9648 56.9557 37.7939 58.6484 37.7939C60.8783 37.7939 62.8477 38.2008 64.5566 39.0146C66.2656 39.8285 67.5921 40.9678 68.5361 42.4326C69.4801 43.8975 69.9521 45.5739 69.9521 47.4619C69.9521 49.1058 69.6592 50.652 69.0732 52.1006C68.5036 53.5329 67.6084 55.0059 66.3877 56.5195C65.1833 58.0332 63.0511 60.1898 59.9912 62.9893L55.4014 67.3105V67.6523H70.9531V74ZM99.3223 56.1533C99.3223 62.387 98.2969 67.0013 96.2461 69.9961C94.2116 72.9909 91.0703 74.4883 86.8223 74.4883C82.7044 74.4883 79.5957 72.9421 77.4961 69.8496C75.4128 66.7572 74.3711 62.1917 74.3711 56.1533C74.3711 49.8545 75.3883 45.2158 77.4229 42.2373C79.4574 39.2425 82.5905 37.7451 86.8223 37.7451C90.9401 37.7451 94.0488 39.3076 96.1484 42.4326C98.2643 45.5576 99.3223 50.1312 99.3223 56.1533ZM81.8662 56.1533C81.8662 60.5316 82.2406 63.6729 82.9893 65.5771C83.7542 67.4652 85.0319 68.4092 86.8223 68.4092C88.5801 68.4092 89.8496 67.4489 90.6309 65.5283C91.4121 63.6077 91.8027 60.4827 91.8027 56.1533C91.8027 51.7751 91.404 48.6338 90.6064 46.7295C89.8252 44.8089 88.5638 43.8486 86.8223 43.8486C85.0482 43.8486 83.7786 44.8089 83.0137 46.7295C82.2487 48.6338 81.8662 51.7751 81.8662 56.1533ZM121.783 74H114.239V53.3457L114.312 49.9521L114.435 46.2412C113.181 47.4945 112.311 48.3164 111.822 48.707L107.721 52.0029L104.083 47.4619L115.582 38.3066H121.783V74ZM156.5 53.541C156.5 60.5723 155.019 65.8213 152.057 69.2881C149.094 72.7549 144.61 74.4883 138.604 74.4883C136.489 74.4883 134.885 74.3743 133.795 74.1465V68.0918C135.162 68.4336 136.594 68.6045 138.092 68.6045C140.615 68.6045 142.69 68.2383 144.317 67.5059C145.945 66.7572 147.19 65.5934 148.053 64.0146C148.915 62.4196 149.412 60.2305 149.542 57.4473H149.249C148.305 58.9772 147.215 60.0514 145.978 60.6699C144.741 61.2884 143.194 61.5977 141.339 61.5977C138.23 61.5977 135.781 60.6048 133.99 58.6191C132.2 56.6172 131.305 53.8421 131.305 50.2939C131.305 46.4691 132.387 43.4499 134.552 41.2363C136.733 39.0065 139.695 37.8916 143.438 37.8916C146.075 37.8916 148.378 38.5101 150.348 39.7471C152.333 40.984 153.855 42.7826 154.913 45.1426C155.971 47.4863 156.5 50.2858 156.5 53.541ZM143.585 43.9463C142.022 43.9463 140.802 44.4834 139.923 45.5576C139.044 46.6318 138.604 48.1781 138.604 50.1963C138.604 51.9215 139.003 53.2887 139.801 54.2979C140.598 55.307 141.811 55.8115 143.438 55.8115C144.968 55.8115 146.279 55.3151 147.369 54.3223C148.46 53.3132 149.005 52.1576 149.005 50.8555C149.005 48.9186 148.492 47.2829 147.467 45.9482C146.458 44.6136 145.164 43.9463 143.585 43.9463Z" fill="white"/>
<path d="M1124.95 74H1100V68.751L1108.96 59.6934C1111.61 56.9753 1113.35 55.0954 1114.16 54.0537C1114.98 52.9958 1115.56 52.0192 1115.92 51.124C1116.28 50.2288 1116.46 49.3011 1116.46 48.3408C1116.46 46.9085 1116.06 45.8424 1115.26 45.1426C1114.48 44.4427 1113.43 44.0928 1112.11 44.0928C1110.73 44.0928 1109.39 44.4102 1108.08 45.0449C1106.78 45.6797 1105.42 46.583 1104.01 47.7549L1099.9 42.8965C1101.66 41.3991 1103.12 40.3411 1104.27 39.7227C1105.43 39.1042 1106.69 38.6322 1108.06 38.3066C1109.43 37.9648 1110.96 37.7939 1112.65 37.7939C1114.88 37.7939 1116.85 38.2008 1118.56 39.0146C1120.27 39.8285 1121.59 40.9678 1122.54 42.4326C1123.48 43.8975 1123.95 45.5739 1123.95 47.4619C1123.95 49.1058 1123.66 50.652 1123.07 52.1006C1122.5 53.5329 1121.61 55.0059 1120.39 56.5195C1119.18 58.0332 1117.05 60.1898 1113.99 62.9893L1109.4 67.3105V67.6523H1124.95V74ZM1153.32 56.1533C1153.32 62.387 1152.3 67.0013 1150.25 69.9961C1148.21 72.9909 1145.07 74.4883 1140.82 74.4883C1136.7 74.4883 1133.6 72.9421 1131.5 69.8496C1129.41 66.7572 1128.37 62.1917 1128.37 56.1533C1128.37 49.8545 1129.39 45.2158 1131.42 42.2373C1133.46 39.2425 1136.59 37.7451 1140.82 37.7451C1144.94 37.7451 1148.05 39.3076 1150.15 42.4326C1152.26 45.5576 1153.32 50.1312 1153.32 56.1533ZM1135.87 56.1533C1135.87 60.5316 1136.24 63.6729 1136.99 65.5771C1137.75 67.4652 1139.03 68.4092 1140.82 68.4092C1142.58 68.4092 1143.85 67.4489 1144.63 65.5283C1145.41 63.6077 1145.8 60.4827 1145.8 56.1533C1145.8 51.7751 1145.4 48.6338 1144.61 46.7295C1143.83 44.8089 1142.56 43.8486 1140.82 43.8486C1139.05 43.8486 1137.78 44.8089 1137.01 46.7295C1136.25 48.6338 1135.87 51.7751 1135.87 56.1533ZM1182.08 74H1157.13V68.751L1166.09 59.6934C1168.74 56.9753 1170.48 55.0954 1171.29 54.0537C1172.1 52.9958 1172.69 52.0192 1173.05 51.124C1173.41 50.2288 1173.59 49.3011 1173.59 48.3408C1173.59 46.9085 1173.19 45.8424 1172.39 45.1426C1171.61 44.4427 1170.56 44.0928 1169.24 44.0928C1167.86 44.0928 1166.51 44.4102 1165.21 45.0449C1163.91 45.6797 1162.55 46.583 1161.13 47.7549L1157.03 42.8965C1158.79 41.3991 1160.25 40.3411 1161.4 39.7227C1162.56 39.1042 1163.82 38.6322 1165.19 38.3066C1166.55 37.9648 1168.08 37.7939 1169.78 37.7939C1172.01 37.7939 1173.98 38.2008 1175.69 39.0146C1177.39 39.8285 1178.72 40.9678 1179.67 42.4326C1180.61 43.8975 1181.08 45.5739 1181.08 47.4619C1181.08 49.1058 1180.79 50.652 1180.2 52.1006C1179.63 53.5329 1178.74 55.0059 1177.52 56.5195C1176.31 58.0332 1174.18 60.1898 1171.12 62.9893L1166.53 67.3105V67.6523H1182.08V74ZM1210.45 56.1533C1210.45 62.387 1209.43 67.0013 1207.38 69.9961C1205.34 72.9909 1202.2 74.4883 1197.95 74.4883C1193.83 74.4883 1190.72 72.9421 1188.62 69.8496C1186.54 66.7572 1185.5 62.1917 1185.5 56.1533C1185.5 49.8545 1186.52 45.2158 1188.55 42.2373C1190.59 39.2425 1193.72 37.7451 1197.95 37.7451C1202.07 37.7451 1205.18 39.3076 1207.28 42.4326C1209.39 45.5576 1210.45 50.1312 1210.45 56.1533ZM1193 56.1533C1193 60.5316 1193.37 63.6729 1194.12 65.5771C1194.88 67.4652 1196.16 68.4092 1197.95 68.4092C1199.71 68.4092 1200.98 67.4489 1201.76 65.5283C1202.54 63.6077 1202.93 60.4827 1202.93 56.1533C1202.93 51.7751 1202.53 48.6338 1201.74 46.7295C1200.95 44.8089 1199.69 43.8486 1197.95 43.8486C1196.18 43.8486 1194.91 44.8089 1194.14 46.7295C1193.38 48.6338 1193 51.7751 1193 56.1533Z" fill="white"/>
<line x1="2.5397e-07" y1="106" x2="1974" y2="106" stroke="#6A7186" stroke-width="4"/>
<path d="M105.963 331H83.3311V269.037L83.5508 258.856L83.917 247.724C80.1572 251.483 77.5449 253.949 76.0801 255.121L63.7754 265.009L52.8623 251.386L87.3594 223.92H105.963V331ZM209.967 277.46C209.967 296.161 206.891 310.004 200.738 318.988C194.635 327.973 185.211 332.465 172.467 332.465C160.113 332.465 150.787 327.826 144.488 318.549C138.238 309.271 135.113 295.575 135.113 277.46C135.113 258.563 138.165 244.647 144.269 235.712C150.372 226.728 159.771 222.235 172.467 222.235C184.82 222.235 194.146 226.923 200.445 236.298C206.793 245.673 209.967 259.394 209.967 277.46ZM157.599 277.46C157.599 290.595 158.722 300.019 160.968 305.731C163.263 311.396 167.096 314.228 172.467 314.228C177.74 314.228 181.549 311.347 183.893 305.585C186.236 299.823 187.408 290.448 187.408 277.46C187.408 264.325 186.212 254.901 183.819 249.188C181.476 243.427 177.691 240.546 172.467 240.546C167.145 240.546 163.336 243.427 161.041 249.188C158.746 254.901 157.599 264.325 157.599 277.46ZM295.66 277.46C295.66 296.161 292.584 310.004 286.432 318.988C280.328 327.973 270.904 332.465 258.16 332.465C245.807 332.465 236.48 327.826 230.182 318.549C223.932 309.271 220.807 295.575 220.807 277.46C220.807 258.563 223.858 244.647 229.962 235.712C236.065 226.728 245.465 222.235 258.16 222.235C270.514 222.235 279.84 226.923 286.139 236.298C292.486 245.673 295.66 259.394 295.66 277.46ZM243.292 277.46C243.292 290.595 244.415 300.019 246.661 305.731C248.956 311.396 252.789 314.228 258.16 314.228C263.434 314.228 267.242 311.347 269.586 305.585C271.93 299.823 273.102 290.448 273.102 277.46C273.102 264.325 271.905 254.901 269.513 249.188C267.169 243.427 263.385 240.546 258.16 240.546C252.838 240.546 249.029 243.427 246.734 249.188C244.439 254.901 243.292 264.325 243.292 277.46ZM324.151 256C324.151 262.201 324.688 266.84 325.763 269.916C326.886 272.943 328.668 274.457 331.109 274.457C335.797 274.457 338.141 268.305 338.141 256C338.141 243.793 335.797 237.689 331.109 237.689C328.668 237.689 326.886 239.203 325.763 242.23C324.688 245.209 324.151 249.799 324.151 256ZM356.598 255.854C356.598 267.084 354.425 275.531 350.079 281.195C345.733 286.811 339.361 289.618 330.963 289.618C322.906 289.618 316.681 286.737 312.286 280.976C307.892 275.165 305.694 266.791 305.694 255.854C305.694 233.539 314.117 222.382 330.963 222.382C339.215 222.382 345.538 225.287 349.933 231.098C354.376 236.859 356.598 245.111 356.598 255.854ZM406.988 223.92L347.589 331H330.011L389.41 223.92H406.988ZM399.151 298.773C399.151 304.975 399.688 309.613 400.763 312.689C401.886 315.717 403.668 317.23 406.109 317.23C410.797 317.23 413.141 311.078 413.141 298.773C413.141 286.566 410.797 280.463 406.109 280.463C403.668 280.463 401.886 281.977 400.763 285.004C399.688 287.982 399.151 292.572 399.151 298.773ZM431.598 298.627C431.598 309.809 429.425 318.231 425.079 323.896C420.733 329.511 414.361 332.318 405.963 332.318C397.906 332.318 391.681 329.438 387.286 323.676C382.892 317.865 380.694 309.516 380.694 298.627C380.694 276.312 389.117 265.155 405.963 265.155C414.215 265.155 420.538 268.061 424.933 273.871C429.376 279.633 431.598 287.885 431.598 298.627Z" fill="white"/>
<path d="M1159.96 331H1137.33V269.037L1137.55 258.856L1137.92 247.724C1134.16 251.483 1131.54 253.949 1130.08 255.121L1117.78 265.009L1106.86 251.386L1141.36 223.92H1159.96V331ZM1263.97 277.46C1263.97 296.161 1260.89 310.004 1254.74 318.988C1248.63 327.973 1239.21 332.465 1226.47 332.465C1214.11 332.465 1204.79 327.826 1198.49 318.549C1192.24 309.271 1189.11 295.575 1189.11 277.46C1189.11 258.563 1192.17 244.647 1198.27 235.712C1204.37 226.728 1213.77 222.235 1226.47 222.235C1238.82 222.235 1248.15 226.923 1254.45 236.298C1260.79 245.673 1263.97 259.394 1263.97 277.46ZM1211.6 277.46C1211.6 290.595 1212.72 300.019 1214.97 305.731C1217.26 311.396 1221.1 314.228 1226.47 314.228C1231.74 314.228 1235.55 311.347 1237.89 305.585C1240.24 299.823 1241.41 290.448 1241.41 277.46C1241.41 264.325 1240.21 254.901 1237.82 249.188C1235.48 243.427 1231.69 240.546 1226.47 240.546C1221.14 240.546 1217.34 243.427 1215.04 249.188C1212.75 254.901 1211.6 264.325 1211.6 277.46ZM1349.66 277.46C1349.66 296.161 1346.58 310.004 1340.43 318.988C1334.33 327.973 1324.9 332.465 1312.16 332.465C1299.81 332.465 1290.48 327.826 1284.18 318.549C1277.93 309.271 1274.81 295.575 1274.81 277.46C1274.81 258.563 1277.86 244.647 1283.96 235.712C1290.07 226.728 1299.46 222.235 1312.16 222.235C1324.51 222.235 1333.84 226.923 1340.14 236.298C1346.49 245.673 1349.66 259.394 1349.66 277.46ZM1297.29 277.46C1297.29 290.595 1298.42 300.019 1300.66 305.731C1302.96 311.396 1306.79 314.228 1312.16 314.228C1317.43 314.228 1321.24 311.347 1323.59 305.585C1325.93 299.823 1327.1 290.448 1327.1 277.46C1327.1 264.325 1325.91 254.901 1323.51 249.188C1321.17 243.427 1317.38 240.546 1312.16 240.546C1306.84 240.546 1303.03 243.427 1300.73 249.188C1298.44 254.901 1297.29 264.325 1297.29 277.46ZM1388.7 315.253C1386.16 325.116 1381.86 336.811 1375.81 350.336H1359.69C1362.87 337.348 1365.33 325.092 1367.09 313.568H1387.6L1388.7 315.253ZM1460.55 331H1437.92V269.037L1438.14 258.856L1438.5 247.724C1434.74 251.483 1432.13 253.949 1430.67 255.121L1418.36 265.009L1407.45 251.386L1441.95 223.92H1460.55V331Z" fill="white"/>
<path d="M105.963 565H83.3311V503.037L83.5508 492.856L83.917 481.724C80.1572 485.483 77.5449 487.949 76.0801 489.121L63.7754 499.009L52.8623 485.386L87.3594 457.92H105.963V565ZM209.967 511.46C209.967 530.161 206.891 544.004 200.738 552.988C194.635 561.973 185.211 566.465 172.467 566.465C160.113 566.465 150.787 561.826 144.488 552.549C138.238 543.271 135.113 529.575 135.113 511.46C135.113 492.563 138.165 478.647 144.269 469.712C150.372 460.728 159.771 456.235 172.467 456.235C184.82 456.235 194.146 460.923 200.445 470.298C206.793 479.673 209.967 493.394 209.967 511.46ZM157.599 511.46C157.599 524.595 158.722 534.019 160.968 539.731C163.263 545.396 167.096 548.228 172.467 548.228C177.74 548.228 181.549 545.347 183.893 539.585C186.236 533.823 187.408 524.448 187.408 511.46C187.408 498.325 186.212 488.901 183.819 483.188C181.476 477.427 177.691 474.546 172.467 474.546C167.145 474.546 163.336 477.427 161.041 483.188C158.746 488.901 157.599 498.325 157.599 511.46ZM258.307 456.528C268.561 456.528 276.812 458.872 283.062 463.56C289.361 468.198 292.511 474.473 292.511 482.383C292.511 487.852 290.997 492.734 287.97 497.031C284.942 501.279 280.06 505.088 273.321 508.457C281.329 512.754 287.066 517.246 290.533 521.934C294.049 526.572 295.807 531.675 295.807 537.241C295.807 546.03 292.364 553.11 285.479 558.481C278.595 563.804 269.537 566.465 258.307 566.465C246.588 566.465 237.384 563.975 230.694 558.994C224.005 554.014 220.66 546.958 220.66 537.827C220.66 531.724 222.271 526.304 225.494 521.567C228.766 516.831 233.99 512.656 241.168 509.043C235.064 505.186 230.67 501.06 227.984 496.665C225.299 492.271 223.956 487.461 223.956 482.236C223.956 474.57 227.13 468.369 233.478 463.633C239.825 458.896 248.102 456.528 258.307 456.528ZM241.607 536.509C241.607 540.708 243.072 543.979 246.002 546.323C248.932 548.667 252.936 549.839 258.014 549.839C263.629 549.839 267.828 548.643 270.611 546.25C273.395 543.809 274.786 540.61 274.786 536.655C274.786 533.384 273.395 530.332 270.611 527.5C267.877 524.619 263.409 521.567 257.208 518.345C246.808 523.13 241.607 529.185 241.607 536.509ZM258.16 473.081C254.303 473.081 251.178 474.082 248.785 476.084C246.441 478.037 245.27 480.674 245.27 483.994C245.27 486.924 246.197 489.561 248.053 491.904C249.957 494.199 253.375 496.567 258.307 499.009C263.092 496.763 266.437 494.468 268.341 492.124C270.245 489.78 271.197 487.07 271.197 483.994C271.197 480.625 269.977 477.964 267.535 476.011C265.094 474.058 261.969 473.081 258.16 473.081ZM334.698 549.253C332.159 559.116 327.862 570.811 321.808 584.336H305.694C308.868 571.348 311.334 559.092 313.092 547.568H333.6L334.698 549.253ZM421.271 481.87C421.271 488.56 419.244 494.248 415.191 498.936C411.139 503.623 405.45 506.846 398.126 508.604V509.043C406.769 510.117 413.312 512.754 417.755 516.953C422.198 521.104 424.42 526.719 424.42 533.799C424.42 544.102 420.685 552.134 413.214 557.896C405.743 563.608 395.074 566.465 381.207 566.465C369.586 566.465 359.283 564.536 350.299 560.679V541.416C354.449 543.516 359.015 545.225 363.995 546.543C368.976 547.861 373.907 548.521 378.79 548.521C386.261 548.521 391.778 547.251 395.343 544.712C398.907 542.173 400.689 538.096 400.689 532.48C400.689 527.451 398.639 523.887 394.537 521.787C390.436 519.688 383.893 518.638 374.908 518.638H366.778V501.279H375.055C383.355 501.279 389.41 500.205 393.219 498.057C397.076 495.859 399.005 492.124 399.005 486.851C399.005 478.745 393.927 474.692 383.771 474.692C380.255 474.692 376.666 475.278 373.004 476.45C369.391 477.622 365.362 479.648 360.919 482.529L350.445 466.929C360.211 459.897 371.856 456.382 385.382 456.382C396.466 456.382 405.206 458.628 411.603 463.12C418.048 467.612 421.271 473.862 421.271 481.87ZM473.199 456.528C483.453 456.528 491.705 458.872 497.955 463.56C504.254 468.198 507.403 474.473 507.403 482.383C507.403 487.852 505.89 492.734 502.862 497.031C499.835 501.279 494.952 505.088 488.214 508.457C496.222 512.754 501.959 517.246 505.426 521.934C508.941 526.572 510.699 531.675 510.699 537.241C510.699 546.03 507.257 553.11 500.372 558.481C493.487 563.804 484.43 566.465 473.199 566.465C461.48 566.465 452.276 563.975 445.587 558.994C438.897 554.014 435.553 546.958 435.553 537.827C435.553 531.724 437.164 526.304 440.387 521.567C443.658 516.831 448.883 512.656 456.061 509.043C449.957 505.186 445.562 501.06 442.877 496.665C440.191 492.271 438.849 487.461 438.849 482.236C438.849 474.57 442.022 468.369 448.37 463.633C454.718 458.896 462.994 456.528 473.199 456.528ZM456.5 536.509C456.5 540.708 457.965 543.979 460.895 546.323C463.824 548.667 467.828 549.839 472.906 549.839C478.521 549.839 482.721 548.643 485.504 546.25C488.287 543.809 489.679 540.61 489.679 536.655C489.679 533.384 488.287 530.332 485.504 527.5C482.77 524.619 478.302 521.567 472.101 518.345C461.7 523.13 456.5 529.185 456.5 536.509ZM473.053 473.081C469.195 473.081 466.07 474.082 463.678 476.084C461.334 478.037 460.162 480.674 460.162 483.994C460.162 486.924 461.09 489.561 462.945 491.904C464.85 494.199 468.268 496.567 473.199 499.009C477.984 496.763 481.329 494.468 483.233 492.124C485.138 489.78 486.09 487.07 486.09 483.994C486.09 480.625 484.869 477.964 482.428 476.011C479.986 474.058 476.861 473.081 473.053 473.081ZM539.044 490C539.044 496.201 539.581 500.84 540.655 503.916C541.778 506.943 543.561 508.457 546.002 508.457C550.689 508.457 553.033 502.305 553.033 490C553.033 477.793 550.689 471.689 546.002 471.689C543.561 471.689 541.778 473.203 540.655 476.23C539.581 479.209 539.044 483.799 539.044 490ZM571.49 489.854C571.49 501.084 569.317 509.531 564.972 515.195C560.626 520.811 554.254 523.618 545.855 523.618C537.799 523.618 531.573 520.737 527.179 514.976C522.784 509.165 520.587 500.791 520.587 489.854C520.587 467.539 529.01 456.382 545.855 456.382C554.107 456.382 560.431 459.287 564.825 465.098C569.269 470.859 571.49 479.111 571.49 489.854ZM621.881 457.92L562.481 565H544.903L604.303 457.92H621.881ZM614.044 532.773C614.044 538.975 614.581 543.613 615.655 546.689C616.778 549.717 618.561 551.23 621.002 551.23C625.689 551.23 628.033 545.078 628.033 532.773C628.033 520.566 625.689 514.463 621.002 514.463C618.561 514.463 616.778 515.977 615.655 519.004C614.581 521.982 614.044 526.572 614.044 532.773ZM646.49 532.627C646.49 543.809 644.317 552.231 639.972 557.896C635.626 563.511 629.254 566.318 620.855 566.318C612.799 566.318 606.573 563.438 602.179 557.676C597.784 551.865 595.587 543.516 595.587 532.627C595.587 510.312 604.01 499.155 620.855 499.155C629.107 499.155 635.431 502.061 639.825 507.871C644.269 513.633 646.49 521.885 646.49 532.627Z" fill="#01F859"/>
<path d="M1159.96 565H1137.33V503.037L1137.55 492.856L1137.92 481.724C1134.16 485.483 1131.54 487.949 1130.08 489.121L1117.78 499.009L1106.86 485.386L1141.36 457.92H1159.96V565ZM1263.97 511.46C1263.97 530.161 1260.89 544.004 1254.74 552.988C1248.63 561.973 1239.21 566.465 1226.47 566.465C1214.11 566.465 1204.79 561.826 1198.49 552.549C1192.24 543.271 1189.11 529.575 1189.11 511.46C1189.11 492.563 1192.17 478.647 1198.27 469.712C1204.37 460.728 1213.77 456.235 1226.47 456.235C1238.82 456.235 1248.15 460.923 1254.45 470.298C1260.79 479.673 1263.97 493.394 1263.97 511.46ZM1211.6 511.46C1211.6 524.595 1212.72 534.019 1214.97 539.731C1217.26 545.396 1221.1 548.228 1226.47 548.228C1231.74 548.228 1235.55 545.347 1237.89 539.585C1240.24 533.823 1241.41 524.448 1241.41 511.46C1241.41 498.325 1240.21 488.901 1237.82 483.188C1235.48 477.427 1231.69 474.546 1226.47 474.546C1221.14 474.546 1217.34 477.427 1215.04 483.188C1212.75 488.901 1211.6 498.325 1211.6 511.46ZM1314.36 496.592C1324.71 496.592 1332.94 499.497 1339.04 505.308C1345.19 511.118 1348.27 519.077 1348.27 529.185C1348.27 541.147 1344.58 550.352 1337.21 556.797C1329.84 563.242 1319.29 566.465 1305.57 566.465C1293.65 566.465 1284.04 564.536 1276.71 560.679V541.123C1280.57 543.174 1285.06 544.858 1290.19 546.177C1295.31 547.446 1300.17 548.081 1304.76 548.081C1318.58 548.081 1325.49 542.417 1325.49 531.089C1325.49 520.298 1318.34 514.902 1304.03 514.902C1301.44 514.902 1298.59 515.171 1295.46 515.708C1292.34 516.196 1289.8 516.733 1287.84 517.319L1278.83 512.485L1282.86 457.92H1340.94V477.109H1302.71L1300.73 498.13L1303.3 497.617C1306.28 496.934 1309.96 496.592 1314.36 496.592ZM1388.7 549.253C1386.16 559.116 1381.86 570.811 1375.81 584.336H1359.69C1362.87 571.348 1365.33 559.092 1367.09 547.568H1387.6L1388.7 549.253ZM1479.01 503.623C1479.01 524.717 1474.56 540.464 1465.68 550.864C1456.79 561.265 1443.34 566.465 1425.32 566.465C1418.97 566.465 1414.16 566.123 1410.89 565.439V547.275C1414.99 548.301 1419.29 548.813 1423.78 548.813C1431.35 548.813 1437.58 547.715 1442.46 545.518C1447.34 543.271 1451.08 539.78 1453.66 535.044C1456.25 530.259 1457.74 523.691 1458.13 515.342H1457.25C1454.42 519.932 1451.15 523.154 1447.44 525.01C1443.73 526.865 1439.09 527.793 1433.52 527.793C1424.2 527.793 1416.85 524.814 1411.48 518.857C1406.11 512.852 1403.42 504.526 1403.42 493.882C1403.42 482.407 1406.67 473.35 1413.16 466.709C1419.7 460.02 1428.59 456.675 1439.82 456.675C1447.73 456.675 1454.64 458.53 1460.55 462.241C1466.51 465.952 1471.07 471.348 1474.25 478.428C1477.42 485.459 1479.01 493.857 1479.01 503.623ZM1440.26 474.839C1435.57 474.839 1431.91 476.45 1429.27 479.673C1426.64 482.896 1425.32 487.534 1425.32 493.589C1425.32 498.765 1426.52 502.866 1428.91 505.894C1431.3 508.921 1434.94 510.435 1439.82 510.435C1444.41 510.435 1448.34 508.945 1451.61 505.967C1454.88 502.939 1456.52 499.473 1456.52 495.566C1456.52 489.756 1454.98 484.849 1451.91 480.845C1448.88 476.841 1445 474.839 1440.26 474.839ZM1529.25 496.592C1539.6 496.592 1547.83 499.497 1553.93 505.308C1560.08 511.118 1563.16 519.077 1563.16 529.185C1563.16 541.147 1559.47 550.352 1552.1 556.797C1544.73 563.242 1534.18 566.465 1520.46 566.465C1508.55 566.465 1498.93 564.536 1491.6 560.679V541.123C1495.46 543.174 1499.95 544.858 1505.08 546.177C1510.21 547.446 1515.07 548.081 1519.66 548.081C1533.47 548.081 1540.38 542.417 1540.38 531.089C1540.38 520.298 1533.23 514.902 1518.92 514.902C1516.33 514.902 1513.48 515.171 1510.35 515.708C1507.23 516.196 1504.69 516.733 1502.74 517.319L1493.73 512.485L1497.76 457.92H1555.84V477.109H1517.6L1515.63 498.13L1518.19 497.617C1521.17 496.934 1524.86 496.592 1529.25 496.592ZM1593.04 490C1593.04 496.201 1593.58 500.84 1594.66 503.916C1595.78 506.943 1597.56 508.457 1600 508.457C1604.69 508.457 1607.03 502.305 1607.03 490C1607.03 477.793 1604.69 471.689 1600 471.689C1597.56 471.689 1595.78 473.203 1594.66 476.23C1593.58 479.209 1593.04 483.799 1593.04 490ZM1625.49 489.854C1625.49 501.084 1623.32 509.531 1618.97 515.195C1614.63 520.811 1608.25 523.618 1599.86 523.618C1591.8 523.618 1585.57 520.737 1581.18 514.976C1576.78 509.165 1574.59 500.791 1574.59 489.854C1574.59 467.539 1583.01 456.382 1599.86 456.382C1608.11 456.382 1614.43 459.287 1618.83 465.098C1623.27 470.859 1625.49 479.111 1625.49 489.854ZM1675.88 457.92L1616.48 565H1598.9L1658.3 457.92H1675.88ZM1668.04 532.773C1668.04 538.975 1668.58 543.613 1669.66 546.689C1670.78 549.717 1672.56 551.23 1675 551.23C1679.69 551.23 1682.03 545.078 1682.03 532.773C1682.03 520.566 1679.69 514.463 1675 514.463C1672.56 514.463 1670.78 515.977 1669.66 519.004C1668.58 521.982 1668.04 526.572 1668.04 532.773ZM1700.49 532.627C1700.49 543.809 1698.32 552.231 1693.97 557.896C1689.63 563.511 1683.25 566.318 1674.86 566.318C1666.8 566.318 1660.57 563.438 1656.18 557.676C1651.78 551.865 1649.59 543.516 1649.59 532.627C1649.59 510.312 1658.01 499.155 1674.86 499.155C1683.11 499.155 1689.43 502.061 1693.83 507.871C1698.27 513.633 1700.49 521.885 1700.49 532.627Z" fill="#01F859"/>
<path d="M48.5088 184H46.3203V169.551H58.4492V184H56.2344V171.449H48.5088V184ZM73.8608 184H71.646V171.423H67.3086C67.0713 174.552 66.7417 177.035 66.3198 178.872C65.8979 180.708 65.3486 182.053 64.6719 182.906C64.0039 183.758 63.1514 184.185 62.1143 184.185C61.6396 184.185 61.2617 184.132 60.9805 184.026V182.405C61.1738 182.458 61.3936 182.484 61.6396 182.484C62.6504 182.484 63.4546 181.416 64.0522 179.28C64.6499 177.145 65.1025 173.901 65.4102 169.551H73.8608V184ZM87.4004 184L86.9653 181.943H86.8599C86.1392 182.849 85.4185 183.464 84.6978 183.789C83.9858 184.105 83.0938 184.264 82.0215 184.264C80.5889 184.264 79.4639 183.895 78.6465 183.156C77.8379 182.418 77.4336 181.368 77.4336 180.005C77.4336 177.087 79.7671 175.558 84.4341 175.417L86.8862 175.338V174.442C86.8862 173.308 86.6401 172.473 86.1479 171.937C85.6646 171.392 84.8867 171.12 83.8145 171.12C82.6104 171.12 81.248 171.489 79.7275 172.227L79.0552 170.553C79.7671 170.166 80.5449 169.863 81.3887 169.643C82.2412 169.423 83.0938 169.313 83.9463 169.313C85.6689 169.313 86.9434 169.696 87.7695 170.46C88.6045 171.225 89.022 172.451 89.022 174.139V184H87.4004ZM82.4565 182.458C83.8188 182.458 84.8867 182.084 85.6602 181.337C86.4424 180.59 86.8335 179.544 86.8335 178.199V176.894L84.645 176.986C82.9048 177.048 81.6479 177.32 80.8745 177.804C80.1099 178.278 79.7275 179.021 79.7275 180.032C79.7275 180.823 79.9648 181.425 80.4395 181.838C80.9229 182.251 81.5952 182.458 82.4565 182.458ZM95.7324 169.551V175.602H103.827V169.551H106.016V184H103.827V177.487H95.7324V184H93.5439V169.551H95.7324Z" fill="white"/>
<path d="M1102.51 184H1100.32V169.551H1112.45V184H1110.23V171.449H1102.51V184ZM1127.86 184H1125.65V171.423H1121.31C1121.07 174.552 1120.74 177.035 1120.32 178.872C1119.9 180.708 1119.35 182.053 1118.67 182.906C1118 183.758 1117.15 184.185 1116.11 184.185C1115.64 184.185 1115.26 184.132 1114.98 184.026V182.405C1115.17 182.458 1115.39 182.484 1115.64 182.484C1116.65 182.484 1117.45 181.416 1118.05 179.28C1118.65 177.145 1119.1 173.901 1119.41 169.551H1127.86V184ZM1141.4 184L1140.97 181.943H1140.86C1140.14 182.849 1139.42 183.464 1138.7 183.789C1137.99 184.105 1137.09 184.264 1136.02 184.264C1134.59 184.264 1133.46 183.895 1132.65 183.156C1131.84 182.418 1131.43 181.368 1131.43 180.005C1131.43 177.087 1133.77 175.558 1138.43 175.417L1140.89 175.338V174.442C1140.89 173.308 1140.64 172.473 1140.15 171.937C1139.66 171.392 1138.89 171.12 1137.81 171.12C1136.61 171.12 1135.25 171.489 1133.73 172.227L1133.06 170.553C1133.77 170.166 1134.54 169.863 1135.39 169.643C1136.24 169.423 1137.09 169.313 1137.95 169.313C1139.67 169.313 1140.94 169.696 1141.77 170.46C1142.6 171.225 1143.02 172.451 1143.02 174.139V184H1141.4ZM1136.46 182.458C1137.82 182.458 1138.89 182.084 1139.66 181.337C1140.44 180.59 1140.83 179.544 1140.83 178.199V176.894L1138.65 176.986C1136.9 177.048 1135.65 177.32 1134.87 177.804C1134.11 178.278 1133.73 179.021 1133.73 180.032C1133.73 180.823 1133.96 181.425 1134.44 181.838C1134.92 182.251 1135.6 182.458 1136.46 182.458ZM1149.73 169.551V175.602H1157.83V169.551H1160.02V184H1157.83V177.487H1149.73V184H1147.54V169.551H1149.73Z" fill="white"/>
<path d="M64.7979 405.762C64.7979 407.951 64.1738 409.695 62.9258 410.996C61.6865 412.288 59.9507 413.026 57.7183 413.211V419.486H55.5562V413.211C53.3765 413.044 51.6538 412.297 50.3882 410.97C49.1226 409.643 48.4897 407.907 48.4897 405.762C48.4897 403.574 49.1182 401.833 50.375 400.542C51.6406 399.25 53.394 398.516 55.6353 398.34V392.486H57.7183V398.34C59.9243 398.542 61.6558 399.302 62.9126 400.621C64.1694 401.939 64.7979 403.653 64.7979 405.762ZM50.7837 405.762C50.7837 407.45 51.1704 408.772 51.9438 409.73C52.7173 410.688 53.9478 411.247 55.6353 411.405V400.172C54.0093 400.322 52.792 400.854 51.9834 401.768C51.1836 402.673 50.7837 404.004 50.7837 405.762ZM62.5303 405.762C62.5303 402.396 60.9263 400.542 57.7183 400.199V411.405C59.3882 411.238 60.6055 410.675 61.3701 409.717C62.1436 408.759 62.5303 407.441 62.5303 405.762ZM77.5068 413L77.0718 410.943H76.9663C76.2456 411.849 75.5249 412.464 74.8042 412.789C74.0923 413.105 73.2002 413.264 72.1279 413.264C70.6953 413.264 69.5703 412.895 68.7529 412.156C67.9443 411.418 67.54 410.368 67.54 409.005C67.54 406.087 69.8735 404.558 74.5405 404.417L76.9927 404.338V403.442C76.9927 402.308 76.7466 401.473 76.2544 400.937C75.771 400.392 74.9932 400.12 73.9209 400.12C72.7168 400.12 71.3545 400.489 69.834 401.227L69.1616 399.553C69.8735 399.166 70.6514 398.863 71.4951 398.643C72.3477 398.423 73.2002 398.313 74.0527 398.313C75.7754 398.313 77.0498 398.696 77.876 399.46C78.7109 400.225 79.1284 401.451 79.1284 403.139V413H77.5068ZM72.563 411.458C73.9253 411.458 74.9932 411.084 75.7666 410.337C76.5488 409.59 76.9399 408.544 76.9399 407.199V405.894L74.7515 405.986C73.0112 406.048 71.7544 406.32 70.981 406.804C70.2163 407.278 69.834 408.021 69.834 409.032C69.834 409.823 70.0713 410.425 70.5459 410.838C71.0293 411.251 71.7017 411.458 72.563 411.458ZM92.0747 398.551H94.4741L88.2383 405.525L94.9883 413H92.4307L85.8389 405.683V413H83.6504V398.551H85.8389V405.578L92.0747 398.551ZM107.42 400.423H102.727V413H100.539V400.423H95.8979V398.551H107.42V400.423Z" fill="white"/>
<path d="M1115.8 407.762C1115.8 409.951 1115.17 411.695 1113.93 412.996C1112.69 414.288 1110.95 415.026 1108.72 415.211V421.486H1106.56V415.211C1104.38 415.044 1102.65 414.297 1101.39 412.97C1100.12 411.643 1099.49 409.907 1099.49 407.762C1099.49 405.574 1100.12 403.833 1101.38 402.542C1102.64 401.25 1104.39 400.516 1106.64 400.34V394.486H1108.72V400.34C1110.92 400.542 1112.66 401.302 1113.91 402.621C1115.17 403.939 1115.8 405.653 1115.8 407.762ZM1101.78 407.762C1101.78 409.45 1102.17 410.772 1102.94 411.73C1103.72 412.688 1104.95 413.247 1106.64 413.405V402.172C1105.01 402.322 1103.79 402.854 1102.98 403.768C1102.18 404.673 1101.78 406.004 1101.78 407.762ZM1113.53 407.762C1113.53 404.396 1111.93 402.542 1108.72 402.199V413.405C1110.39 413.238 1111.61 412.675 1112.37 411.717C1113.14 410.759 1113.53 409.441 1113.53 407.762ZM1128.51 415L1128.07 412.943H1127.97C1127.25 413.849 1126.52 414.464 1125.8 414.789C1125.09 415.105 1124.2 415.264 1123.13 415.264C1121.7 415.264 1120.57 414.895 1119.75 414.156C1118.94 413.418 1118.54 412.368 1118.54 411.005C1118.54 408.087 1120.87 406.558 1125.54 406.417L1127.99 406.338V405.442C1127.99 404.308 1127.75 403.473 1127.25 402.937C1126.77 402.392 1125.99 402.12 1124.92 402.12C1123.72 402.12 1122.35 402.489 1120.83 403.227L1120.16 401.553C1120.87 401.166 1121.65 400.863 1122.5 400.643C1123.35 400.423 1124.2 400.313 1125.05 400.313C1126.78 400.313 1128.05 400.696 1128.88 401.46C1129.71 402.225 1130.13 403.451 1130.13 405.139V415H1128.51ZM1123.56 413.458C1124.93 413.458 1125.99 413.084 1126.77 412.337C1127.55 411.59 1127.94 410.544 1127.94 409.199V407.894L1125.75 407.986C1124.01 408.048 1122.75 408.32 1121.98 408.804C1121.22 409.278 1120.83 410.021 1120.83 411.032C1120.83 411.823 1121.07 412.425 1121.55 412.838C1122.03 413.251 1122.7 413.458 1123.56 413.458ZM1143.07 400.551H1145.47L1139.24 407.525L1145.99 415H1143.43L1136.84 407.683V415H1134.65V400.551H1136.84V407.578L1143.07 400.551ZM1158.42 402.423H1153.73V415H1151.54V402.423H1146.9V400.551H1158.42V402.423Z" fill="white"/>
<circle cx="744.5" cy="521.5" r="38.5" fill="#212B4B"/>
<path d="M726 519L741.5 535.5H743.5L765 505" stroke="#01F859" stroke-width="7"/>
<circle cx="1781.5" cy="521.5" r="38.5" fill="#212B4B"/>
<path d="M1763 519L1778.5 535.5H1780.5L1802 505" stroke="#01F859" stroke-width="7"/>
<defs>
<linearGradient id="paint0_linear" x1="1226" y1="894" x2="1067" y2="828" gradientUnits="userSpaceOnUse">
<stop stop-color="#01F859"/>
<stop offset="1" stop-color="#00D84D"/>
</linearGradient>
</defs>
</svg>
