<svg width="1975" height="1151" viewBox="0 0 1975 1151" fill="none" xmlns="http://www.w3.org/2000/svg">
<rect x="616" width="645" height="1151" fill="#C4C4C4" fill-opacity="0.05"/>
<path d="M27.9531 74H3.00195V68.751L11.9619 59.6934C14.6149 56.9753 16.3483 55.0954 17.1621 54.0537C17.9759 52.9958 18.5618 52.0192 18.9199 51.124C19.278 50.2288 19.457 49.3011 19.457 48.3408C19.457 46.9085 19.0583 45.8424 18.2607 45.1426C17.4795 44.4427 16.4297 44.0928 15.1113 44.0928C13.7279 44.0928 12.3851 44.4102 11.083 45.0449C9.78092 45.6797 8.42188 46.583 7.00586 47.7549L2.9043 42.8965C4.66211 41.3991 6.11882 40.3411 7.27441 39.7227C8.43001 39.1042 9.69141 38.6322 11.0586 38.3066C12.4258 37.9648 13.9557 37.7939 15.6484 37.7939C17.8783 37.7939 19.8477 38.2008 21.5566 39.0146C23.2656 39.8285 24.5921 40.9678 25.5361 42.4326C26.4801 43.8975 26.9521 45.5739 26.9521 47.4619C26.9521 49.1058 26.6592 50.652 26.0732 52.1006C25.5036 53.5329 24.6084 55.0059 23.3877 56.5195C22.1833 58.0332 20.0511 60.1898 16.9912 62.9893L12.4014 67.3105V67.6523H27.9531V74ZM56.3223 56.1533C56.3223 62.387 55.2969 67.0013 53.2461 69.9961C51.2116 72.9909 48.0703 74.4883 43.8223 74.4883C39.7044 74.4883 36.5957 72.9421 34.4961 69.8496C32.4128 66.7572 31.3711 62.1917 31.3711 56.1533C31.3711 49.8545 32.3883 45.2158 34.4229 42.2373C36.4574 39.2425 39.5905 37.7451 43.8223 37.7451C47.9401 37.7451 51.0488 39.3076 53.1484 42.4326C55.2643 45.5576 56.3223 50.1312 56.3223 56.1533ZM38.8662 56.1533C38.8662 60.5316 39.2406 63.6729 39.9893 65.5771C40.7542 67.4652 42.0319 68.4092 43.8223 68.4092C45.5801 68.4092 46.8496 67.4489 47.6309 65.5283C48.4121 63.6077 48.8027 60.4827 48.8027 56.1533C48.8027 51.7751 48.404 48.6338 47.6064 46.7295C46.8252 44.8089 45.5638 43.8486 43.8223 43.8486C42.0482 43.8486 40.7786 44.8089 40.0137 46.7295C39.2487 48.6338 38.8662 51.7751 38.8662 56.1533ZM78.7832 74H71.2393V53.3457L71.3125 49.9521L71.4346 46.2412C70.1813 47.4945 69.3105 48.3164 68.8223 48.707L64.7207 52.0029L61.083 47.4619L72.582 38.3066H78.7832V74ZM101 37.8428C104.418 37.8428 107.169 38.624 109.252 40.1865C111.352 41.7327 112.401 43.8242 112.401 46.4609C112.401 48.2839 111.897 49.9115 110.888 51.3438C109.879 52.7598 108.251 54.0293 106.005 55.1523C108.674 56.5846 110.587 58.082 111.742 59.6445C112.914 61.1908 113.5 62.8916 113.5 64.7471C113.5 67.6768 112.353 70.0368 110.058 71.8271C107.763 73.6012 104.743 74.4883 101 74.4883C97.0938 74.4883 94.0257 73.6582 91.7959 71.998C89.5661 70.3379 88.4512 67.986 88.4512 64.9424C88.4512 62.9079 88.9883 61.1012 90.0625 59.5225C91.153 57.9437 92.8945 56.5521 95.2871 55.3477C93.2526 54.0618 91.7878 52.6865 90.8926 51.2217C89.9974 49.7568 89.5498 48.1536 89.5498 46.4121C89.5498 43.8568 90.6077 41.7897 92.7236 40.2109C94.8395 38.6322 97.5983 37.8428 101 37.8428ZM95.4336 64.5029C95.4336 65.9027 95.9219 66.9932 96.8984 67.7744C97.875 68.5557 99.2096 68.9463 100.902 68.9463C102.774 68.9463 104.174 68.5475 105.102 67.75C106.029 66.9362 106.493 65.8701 106.493 64.5518C106.493 63.4613 106.029 62.444 105.102 61.5C104.19 60.5397 102.701 59.5225 100.634 58.4482C97.167 60.0433 95.4336 62.0615 95.4336 64.5029ZM100.951 43.3604C99.6654 43.3604 98.6237 43.694 97.8262 44.3613C97.0449 45.0124 96.6543 45.8913 96.6543 46.998C96.6543 47.9746 96.9635 48.8535 97.582 49.6348C98.2168 50.3997 99.3561 51.1891 101 52.0029C102.595 51.2542 103.71 50.4893 104.345 49.708C104.979 48.9268 105.297 48.0234 105.297 46.998C105.297 45.875 104.89 44.988 104.076 44.3369C103.262 43.6859 102.221 43.3604 100.951 43.3604Z" fill="white"/>
<path d="M672.953 74H648.002V68.751L656.962 59.6934C659.615 56.9753 661.348 55.0954 662.162 54.0537C662.976 52.9958 663.562 52.0192 663.92 51.124C664.278 50.2288 664.457 49.3011 664.457 48.3408C664.457 46.9085 664.058 45.8424 663.261 45.1426C662.479 44.4427 661.43 44.0928 660.111 44.0928C658.728 44.0928 657.385 44.4102 656.083 45.0449C654.781 45.6797 653.422 46.583 652.006 47.7549L647.904 42.8965C649.662 41.3991 651.119 40.3411 652.274 39.7227C653.43 39.1042 654.691 38.6322 656.059 38.3066C657.426 37.9648 658.956 37.7939 660.648 37.7939C662.878 37.7939 664.848 38.2008 666.557 39.0146C668.266 39.8285 669.592 40.9678 670.536 42.4326C671.48 43.8975 671.952 45.5739 671.952 47.4619C671.952 49.1058 671.659 50.652 671.073 52.1006C670.504 53.5329 669.608 55.0059 668.388 56.5195C667.183 58.0332 665.051 60.1898 661.991 62.9893L657.401 67.3105V67.6523H672.953V74ZM701.322 56.1533C701.322 62.387 700.297 67.0013 698.246 69.9961C696.212 72.9909 693.07 74.4883 688.822 74.4883C684.704 74.4883 681.596 72.9421 679.496 69.8496C677.413 66.7572 676.371 62.1917 676.371 56.1533C676.371 49.8545 677.388 45.2158 679.423 42.2373C681.457 39.2425 684.59 37.7451 688.822 37.7451C692.94 37.7451 696.049 39.3076 698.148 42.4326C700.264 45.5576 701.322 50.1312 701.322 56.1533ZM683.866 56.1533C683.866 60.5316 684.241 63.6729 684.989 65.5771C685.754 67.4652 687.032 68.4092 688.822 68.4092C690.58 68.4092 691.85 67.4489 692.631 65.5283C693.412 63.6077 693.803 60.4827 693.803 56.1533C693.803 51.7751 693.404 48.6338 692.606 46.7295C691.825 44.8089 690.564 43.8486 688.822 43.8486C687.048 43.8486 685.779 44.8089 685.014 46.7295C684.249 48.6338 683.866 51.7751 683.866 56.1533ZM723.783 74H716.239V53.3457L716.312 49.9521L716.435 46.2412C715.181 47.4945 714.311 48.3164 713.822 48.707L709.721 52.0029L706.083 47.4619L717.582 38.3066H723.783V74ZM758.5 53.541C758.5 60.5723 757.019 65.8213 754.057 69.2881C751.094 72.7549 746.61 74.4883 740.604 74.4883C738.489 74.4883 736.885 74.3743 735.795 74.1465V68.0918C737.162 68.4336 738.594 68.6045 740.092 68.6045C742.615 68.6045 744.69 68.2383 746.317 67.5059C747.945 66.7572 749.19 65.5934 750.053 64.0146C750.915 62.4196 751.412 60.2305 751.542 57.4473H751.249C750.305 58.9772 749.215 60.0514 747.978 60.6699C746.741 61.2884 745.194 61.5977 743.339 61.5977C740.23 61.5977 737.781 60.6048 735.99 58.6191C734.2 56.6172 733.305 53.8421 733.305 50.2939C733.305 46.4691 734.387 43.4499 736.552 41.2363C738.733 39.0065 741.695 37.8916 745.438 37.8916C748.075 37.8916 750.378 38.5101 752.348 39.7471C754.333 40.984 755.855 42.7826 756.913 45.1426C757.971 47.4863 758.5 50.2858 758.5 53.541ZM745.585 43.9463C744.022 43.9463 742.802 44.4834 741.923 45.5576C741.044 46.6318 740.604 48.1781 740.604 50.1963C740.604 51.9215 741.003 53.2887 741.801 54.2979C742.598 55.307 743.811 55.8115 745.438 55.8115C746.968 55.8115 748.279 55.3151 749.369 54.3223C750.46 53.3132 751.005 52.1576 751.005 50.8555C751.005 48.9186 750.492 47.2829 749.467 45.9482C748.458 44.6136 747.164 43.9463 745.585 43.9463Z" fill="white"/>
<path d="M1317.95 74H1293V68.751L1301.96 59.6934C1304.61 56.9753 1306.35 55.0954 1307.16 54.0537C1307.98 52.9958 1308.56 52.0192 1308.92 51.124C1309.28 50.2288 1309.46 49.3011 1309.46 48.3408C1309.46 46.9085 1309.06 45.8424 1308.26 45.1426C1307.48 44.4427 1306.43 44.0928 1305.11 44.0928C1303.73 44.0928 1302.39 44.4102 1301.08 45.0449C1299.78 45.6797 1298.42 46.583 1297.01 47.7549L1292.9 42.8965C1294.66 41.3991 1296.12 40.3411 1297.27 39.7227C1298.43 39.1042 1299.69 38.6322 1301.06 38.3066C1302.43 37.9648 1303.96 37.7939 1305.65 37.7939C1307.88 37.7939 1309.85 38.2008 1311.56 39.0146C1313.27 39.8285 1314.59 40.9678 1315.54 42.4326C1316.48 43.8975 1316.95 45.5739 1316.95 47.4619C1316.95 49.1058 1316.66 50.652 1316.07 52.1006C1315.5 53.5329 1314.61 55.0059 1313.39 56.5195C1312.18 58.0332 1310.05 60.1898 1306.99 62.9893L1302.4 67.3105V67.6523H1317.95V74ZM1346.32 56.1533C1346.32 62.387 1345.3 67.0013 1343.25 69.9961C1341.21 72.9909 1338.07 74.4883 1333.82 74.4883C1329.7 74.4883 1326.6 72.9421 1324.5 69.8496C1322.41 66.7572 1321.37 62.1917 1321.37 56.1533C1321.37 49.8545 1322.39 45.2158 1324.42 42.2373C1326.46 39.2425 1329.59 37.7451 1333.82 37.7451C1337.94 37.7451 1341.05 39.3076 1343.15 42.4326C1345.26 45.5576 1346.32 50.1312 1346.32 56.1533ZM1328.87 56.1533C1328.87 60.5316 1329.24 63.6729 1329.99 65.5771C1330.75 67.4652 1332.03 68.4092 1333.82 68.4092C1335.58 68.4092 1336.85 67.4489 1337.63 65.5283C1338.41 63.6077 1338.8 60.4827 1338.8 56.1533C1338.8 51.7751 1338.4 48.6338 1337.61 46.7295C1336.83 44.8089 1335.56 43.8486 1333.82 43.8486C1332.05 43.8486 1330.78 44.8089 1330.01 46.7295C1329.25 48.6338 1328.87 51.7751 1328.87 56.1533ZM1375.08 74H1350.13V68.751L1359.09 59.6934C1361.74 56.9753 1363.48 55.0954 1364.29 54.0537C1365.1 52.9958 1365.69 52.0192 1366.05 51.124C1366.41 50.2288 1366.59 49.3011 1366.59 48.3408C1366.59 46.9085 1366.19 45.8424 1365.39 45.1426C1364.61 44.4427 1363.56 44.0928 1362.24 44.0928C1360.86 44.0928 1359.51 44.4102 1358.21 45.0449C1356.91 45.6797 1355.55 46.583 1354.13 47.7549L1350.03 42.8965C1351.79 41.3991 1353.25 40.3411 1354.4 39.7227C1355.56 39.1042 1356.82 38.6322 1358.19 38.3066C1359.55 37.9648 1361.08 37.7939 1362.78 37.7939C1365.01 37.7939 1366.98 38.2008 1368.69 39.0146C1370.39 39.8285 1371.72 40.9678 1372.67 42.4326C1373.61 43.8975 1374.08 45.5739 1374.08 47.4619C1374.08 49.1058 1373.79 50.652 1373.2 52.1006C1372.63 53.5329 1371.74 55.0059 1370.52 56.5195C1369.31 58.0332 1367.18 60.1898 1364.12 62.9893L1359.53 67.3105V67.6523H1375.08V74ZM1403.45 56.1533C1403.45 62.387 1402.43 67.0013 1400.38 69.9961C1398.34 72.9909 1395.2 74.4883 1390.95 74.4883C1386.83 74.4883 1383.72 72.9421 1381.62 69.8496C1379.54 66.7572 1378.5 62.1917 1378.5 56.1533C1378.5 49.8545 1379.52 45.2158 1381.55 42.2373C1383.59 39.2425 1386.72 37.7451 1390.95 37.7451C1395.07 37.7451 1398.18 39.3076 1400.28 42.4326C1402.39 45.5576 1403.45 50.1312 1403.45 56.1533ZM1386 56.1533C1386 60.5316 1386.37 63.6729 1387.12 65.5771C1387.88 67.4652 1389.16 68.4092 1390.95 68.4092C1392.71 68.4092 1393.98 67.4489 1394.76 65.5283C1395.54 63.6077 1395.93 60.4827 1395.93 56.1533C1395.93 51.7751 1395.53 48.6338 1394.74 46.7295C1393.95 44.8089 1392.69 43.8486 1390.95 43.8486C1389.18 43.8486 1387.91 44.8089 1387.14 46.7295C1386.38 48.6338 1386 51.7751 1386 56.1533Z" fill="white"/>
<path d="M62.0693 275.726H52.6162V292H36.3955V275.726H2.87988V264.178L37.3086 213.475H52.6162V262.835H62.0693V275.726ZM36.3955 262.835V249.515C36.3955 247.295 36.485 244.072 36.6641 239.847C36.8431 235.621 36.9863 233.169 37.0938 232.488H36.6641C35.3392 235.424 33.7458 238.289 31.8838 241.082L17.4893 262.835H36.3955ZM151.283 252.737C151.283 266.451 149.027 276.603 144.516 283.191C140.04 289.78 133.129 293.074 123.783 293.074C114.724 293.074 107.885 289.673 103.266 282.869C98.6823 276.066 96.3906 266.022 96.3906 252.737C96.3906 238.88 98.6286 228.675 103.104 222.122C107.58 215.534 114.473 212.239 123.783 212.239C132.842 212.239 139.682 215.677 144.301 222.552C148.956 229.427 151.283 239.489 151.283 252.737ZM112.88 252.737C112.88 262.369 113.703 269.28 115.351 273.47C117.034 277.623 119.844 279.7 123.783 279.7C127.65 279.7 130.443 277.588 132.162 273.362C133.881 269.137 134.74 262.262 134.74 252.737C134.74 243.105 133.863 236.194 132.108 232.005C130.39 227.78 127.615 225.667 123.783 225.667C119.88 225.667 117.087 227.78 115.404 232.005C113.721 236.194 112.88 243.105 112.88 252.737ZM188.236 241.834C195.827 241.834 201.861 243.965 206.337 248.226C210.849 252.487 213.104 258.323 213.104 265.735C213.104 274.508 210.401 281.258 204.994 285.984C199.587 290.711 191.853 293.074 181.791 293.074C173.054 293.074 166 291.66 160.629 288.831V274.49C163.458 275.994 166.752 277.229 170.512 278.196C174.271 279.127 177.834 279.593 181.2 279.593C191.334 279.593 196.4 275.439 196.4 267.132C196.4 259.218 191.155 255.262 180.663 255.262C178.765 255.262 176.671 255.459 174.379 255.853C172.087 256.211 170.225 256.604 168.793 257.034L162.187 253.489L165.141 213.475H207.733V227.547H179.696L178.246 242.962L180.126 242.586C182.31 242.085 185.014 241.834 188.236 241.834ZM263.539 292H246.942V246.561L247.104 239.095L247.372 230.931C244.615 233.688 242.699 235.496 241.625 236.355L232.602 243.606L224.599 233.616L249.896 213.475H263.539V292ZM368.383 252.737C368.383 266.451 366.127 276.603 361.615 283.191C357.139 289.78 350.229 293.074 340.883 293.074C331.824 293.074 324.984 289.673 320.365 282.869C315.782 276.066 313.49 266.022 313.49 252.737C313.49 238.88 315.728 228.675 320.204 222.122C324.68 215.534 331.573 212.239 340.883 212.239C349.942 212.239 356.781 215.677 361.4 222.552C366.055 229.427 368.383 239.489 368.383 252.737ZM329.979 252.737C329.979 262.369 330.803 269.28 332.45 273.47C334.133 277.623 336.944 279.7 340.883 279.7C344.75 279.7 347.543 277.588 349.262 273.362C350.98 269.137 351.84 262.262 351.84 252.737C351.84 243.105 350.963 236.194 349.208 232.005C347.489 227.78 344.714 225.667 340.883 225.667C336.98 225.667 334.187 227.78 332.504 232.005C330.821 236.194 329.979 243.105 329.979 252.737ZM431.225 252.737C431.225 266.451 428.969 276.603 424.457 283.191C419.981 289.78 413.07 293.074 403.725 293.074C394.665 293.074 387.826 289.673 383.207 282.869C378.624 276.066 376.332 266.022 376.332 252.737C376.332 238.88 378.57 228.675 383.046 222.122C387.522 215.534 394.415 212.239 403.725 212.239C412.784 212.239 419.623 215.677 424.242 222.552C428.897 229.427 431.225 239.489 431.225 252.737ZM392.821 252.737C392.821 262.369 393.645 269.28 395.292 273.47C396.975 277.623 399.786 279.7 403.725 279.7C407.592 279.7 410.385 277.588 412.104 273.362C413.822 269.137 414.682 262.262 414.682 252.737C414.682 243.105 413.804 236.194 412.05 232.005C410.331 227.78 407.556 225.667 403.725 225.667C399.822 225.667 397.029 227.78 395.346 232.005C393.663 236.194 392.821 243.105 392.821 252.737ZM468.178 241.834C475.769 241.834 481.802 243.965 486.278 248.226C490.79 252.487 493.046 258.323 493.046 265.735C493.046 274.508 490.342 281.258 484.936 285.984C479.529 290.711 471.794 293.074 461.732 293.074C452.995 293.074 445.941 291.66 440.57 288.831V274.49C443.399 275.994 446.693 277.229 450.453 278.196C454.213 279.127 457.776 279.593 461.142 279.593C471.275 279.593 476.342 275.439 476.342 267.132C476.342 259.218 471.096 255.262 460.604 255.262C458.707 255.262 456.612 255.459 454.32 255.853C452.029 256.211 450.167 256.604 448.734 257.034L442.128 253.489L445.082 213.475H487.675V227.547H459.638L458.188 242.962L460.067 242.586C462.252 242.085 464.955 241.834 468.178 241.834Z" fill="#01F859"/>
<path d="M707.069 275.726H697.616V292H681.396V275.726H647.88V264.178L682.309 213.475H697.616V262.835H707.069V275.726ZM681.396 262.835V249.515C681.396 247.295 681.485 244.072 681.664 239.847C681.843 235.621 681.986 233.169 682.094 232.488H681.664C680.339 235.424 678.746 238.289 676.884 241.082L662.489 262.835H681.396ZM796.283 252.737C796.283 266.451 794.027 276.603 789.516 283.191C785.04 289.78 778.129 293.074 768.783 293.074C759.724 293.074 752.885 289.673 748.266 282.869C743.682 276.066 741.391 266.022 741.391 252.737C741.391 238.88 743.629 228.675 748.104 222.122C752.58 215.534 759.473 212.239 768.783 212.239C777.842 212.239 784.682 215.677 789.301 222.552C793.956 229.427 796.283 239.489 796.283 252.737ZM757.88 252.737C757.88 262.369 758.703 269.28 760.351 273.47C762.034 277.623 764.844 279.7 768.783 279.7C772.65 279.7 775.443 277.588 777.162 273.362C778.881 269.137 779.74 262.262 779.74 252.737C779.74 243.105 778.863 236.194 777.108 232.005C775.39 227.78 772.615 225.667 768.783 225.667C764.88 225.667 762.087 227.78 760.404 232.005C758.721 236.194 757.88 243.105 757.88 252.737ZM856.493 231.038C856.493 235.944 855.007 240.115 852.035 243.553C849.063 246.99 844.892 249.354 839.521 250.643V250.965C845.858 251.753 850.657 253.686 853.915 256.766C857.174 259.809 858.803 263.927 858.803 269.119C858.803 276.674 856.063 282.565 850.585 286.79C845.106 290.979 837.283 293.074 827.113 293.074C818.591 293.074 811.036 291.66 804.447 288.831V274.705C807.491 276.245 810.839 277.498 814.491 278.465C818.144 279.432 821.76 279.915 825.341 279.915C830.819 279.915 834.866 278.984 837.479 277.122C840.093 275.26 841.4 272.27 841.4 268.152C841.4 264.464 839.896 261.85 836.889 260.311C833.881 258.771 829.083 258.001 822.494 258.001H816.532V245.271H822.602C828.689 245.271 833.129 244.484 835.922 242.908C838.751 241.297 840.165 238.558 840.165 234.69C840.165 228.746 836.441 225.774 828.993 225.774C826.415 225.774 823.783 226.204 821.098 227.063C818.448 227.923 815.494 229.409 812.235 231.521L804.555 220.081C811.716 214.925 820.256 212.347 830.175 212.347C838.303 212.347 844.713 213.994 849.403 217.288C854.13 220.582 856.493 225.166 856.493 231.038ZM894.574 212.454C902.094 212.454 908.145 214.173 912.729 217.61C917.348 221.012 919.657 225.613 919.657 231.414C919.657 235.424 918.547 239.005 916.327 242.156C914.107 245.271 910.526 248.064 905.585 250.535C911.457 253.686 915.665 256.98 918.207 260.418C920.785 263.82 922.074 267.562 922.074 271.644C922.074 278.089 919.55 283.281 914.501 287.22C909.452 291.123 902.81 293.074 894.574 293.074C885.98 293.074 879.231 291.248 874.325 287.596C869.42 283.943 866.967 278.769 866.967 272.073C866.967 267.597 868.148 263.623 870.512 260.149C872.911 256.676 876.742 253.615 882.006 250.965C877.53 248.136 874.307 245.11 872.338 241.888C870.368 238.665 869.384 235.138 869.384 231.307C869.384 225.685 871.711 221.137 876.366 217.664C881.021 214.191 887.09 212.454 894.574 212.454ZM882.328 271.106C882.328 274.186 883.402 276.585 885.551 278.304C887.699 280.022 890.635 280.882 894.359 280.882C898.477 280.882 901.557 280.005 903.598 278.25C905.639 276.46 906.659 274.114 906.659 271.214C906.659 268.815 905.639 266.577 903.598 264.5C901.592 262.387 898.316 260.149 893.769 257.786C886.142 261.295 882.328 265.735 882.328 271.106ZM894.467 224.593C891.638 224.593 889.346 225.327 887.592 226.795C885.873 228.227 885.014 230.161 885.014 232.596C885.014 234.744 885.694 236.678 887.055 238.396C888.451 240.079 890.958 241.816 894.574 243.606C898.083 241.959 900.536 240.276 901.933 238.558C903.329 236.839 904.027 234.852 904.027 232.596C904.027 230.125 903.132 228.174 901.342 226.741C899.551 225.309 897.26 224.593 894.467 224.593ZM999.955 292H983.358V246.561L983.52 239.095L983.788 230.931C981.031 233.688 979.115 235.496 978.041 236.355L969.018 243.606L961.015 233.616L986.312 213.475H999.955V292ZM1050.34 241.834C1057.93 241.834 1063.96 243.965 1068.44 248.226C1072.95 252.487 1075.2 258.323 1075.2 265.735C1075.2 274.508 1072.5 281.258 1067.09 285.984C1061.69 290.711 1053.95 293.074 1043.89 293.074C1035.15 293.074 1028.1 291.66 1022.73 288.831V274.49C1025.56 275.994 1028.85 277.229 1032.61 278.196C1036.37 279.127 1039.93 279.593 1043.3 279.593C1053.43 279.593 1058.5 275.439 1058.5 267.132C1058.5 259.218 1053.25 255.262 1042.76 255.262C1040.86 255.262 1038.77 255.459 1036.48 255.853C1034.19 256.211 1032.32 256.604 1030.89 257.034L1024.29 253.489L1027.24 213.475H1069.83V227.547H1041.8L1040.35 242.962L1042.23 242.586C1044.41 242.085 1047.11 241.834 1050.34 241.834ZM1125.64 292H1109.04V246.561L1109.2 239.095L1109.47 230.931C1106.71 233.688 1104.8 235.496 1103.72 236.355L1094.7 243.606L1086.7 233.616L1112 213.475H1125.64V292Z" fill="#01F859"/>
<path d="M1352.07 275.726H1342.62V292H1326.4V275.726H1292.88V264.178L1327.31 213.475H1342.62V262.835H1352.07V275.726ZM1326.4 262.835V249.515C1326.4 247.295 1326.49 244.072 1326.66 239.847C1326.84 235.621 1326.99 233.169 1327.09 232.488H1326.66C1325.34 235.424 1323.75 238.289 1321.88 241.082L1307.49 262.835H1326.4ZM1441.28 252.737C1441.28 266.451 1439.03 276.603 1434.52 283.191C1430.04 289.78 1423.13 293.074 1413.78 293.074C1404.72 293.074 1397.88 289.673 1393.27 282.869C1388.68 276.066 1386.39 266.022 1386.39 252.737C1386.39 238.88 1388.63 228.675 1393.1 222.122C1397.58 215.534 1404.47 212.239 1413.78 212.239C1422.84 212.239 1429.68 215.677 1434.3 222.552C1438.96 229.427 1441.28 239.489 1441.28 252.737ZM1402.88 252.737C1402.88 262.369 1403.7 269.28 1405.35 273.47C1407.03 277.623 1409.84 279.7 1413.78 279.7C1417.65 279.7 1420.44 277.588 1422.16 273.362C1423.88 269.137 1424.74 262.262 1424.74 252.737C1424.74 243.105 1423.86 236.194 1422.11 232.005C1420.39 227.78 1417.61 225.667 1413.78 225.667C1409.88 225.667 1407.09 227.78 1405.4 232.005C1403.72 236.194 1402.88 243.105 1402.88 252.737ZM1490.7 292H1474.1V246.561L1474.26 239.095L1474.53 230.931C1471.77 233.688 1469.86 235.496 1468.78 236.355L1459.76 243.606L1451.76 233.616L1477.05 213.475H1490.7V292ZM1564.33 231.038C1564.33 235.944 1562.85 240.115 1559.88 243.553C1556.9 246.99 1552.73 249.354 1547.36 250.643V250.965C1553.7 251.753 1558.5 253.686 1561.76 256.766C1565.02 259.809 1566.64 263.927 1566.64 269.119C1566.64 276.674 1563.91 282.565 1558.43 286.79C1552.95 290.979 1545.12 293.074 1534.96 293.074C1526.43 293.074 1518.88 291.66 1512.29 288.831V274.705C1515.33 276.245 1518.68 277.498 1522.33 278.465C1525.99 279.432 1529.6 279.915 1533.18 279.915C1538.66 279.915 1542.71 278.984 1545.32 277.122C1547.94 275.26 1549.24 272.27 1549.24 268.152C1549.24 264.464 1547.74 261.85 1544.73 260.311C1541.72 258.771 1536.92 258.001 1530.34 258.001H1524.37V245.271H1530.44C1536.53 245.271 1540.97 244.484 1543.76 242.908C1546.59 241.297 1548.01 238.558 1548.01 234.69C1548.01 228.746 1544.28 225.774 1536.83 225.774C1534.26 225.774 1531.62 226.204 1528.94 227.063C1526.29 227.923 1523.34 229.409 1520.08 231.521L1512.4 220.081C1519.56 214.925 1528.1 212.347 1538.02 212.347C1546.14 212.347 1552.55 213.994 1557.25 217.288C1561.97 220.582 1564.33 225.166 1564.33 231.038ZM1611.71 292L1641.2 227.547H1602.47V213.582H1658.81V224.002L1629.11 292H1611.71ZM1693.83 212.454C1701.35 212.454 1707.4 214.173 1711.99 217.61C1716.61 221.012 1718.92 225.613 1718.92 231.414C1718.92 235.424 1717.81 239.005 1715.58 242.156C1713.36 245.271 1709.78 248.064 1704.84 250.535C1710.72 253.686 1714.92 256.98 1717.46 260.418C1720.04 263.82 1721.33 267.562 1721.33 271.644C1721.33 278.089 1718.81 283.281 1713.76 287.22C1708.71 291.123 1702.07 293.074 1693.83 293.074C1685.24 293.074 1678.49 291.248 1673.58 287.596C1668.68 283.943 1666.22 278.769 1666.22 272.073C1666.22 267.597 1667.41 263.623 1669.77 260.149C1672.17 256.676 1676 253.615 1681.26 250.965C1676.79 248.136 1673.57 245.11 1671.6 241.888C1669.63 238.665 1668.64 235.138 1668.64 231.307C1668.64 225.685 1670.97 221.137 1675.62 217.664C1680.28 214.191 1686.35 212.454 1693.83 212.454ZM1681.59 271.106C1681.59 274.186 1682.66 276.585 1684.81 278.304C1686.96 280.022 1689.89 280.882 1693.62 280.882C1697.74 280.882 1700.81 280.005 1702.86 278.25C1704.9 276.46 1705.92 274.114 1705.92 271.214C1705.92 268.815 1704.9 266.577 1702.86 264.5C1700.85 262.387 1697.57 260.149 1693.03 257.786C1685.4 261.295 1681.59 265.735 1681.59 271.106ZM1693.72 224.593C1690.9 224.593 1688.6 225.327 1686.85 226.795C1685.13 228.227 1684.27 230.161 1684.27 232.596C1684.27 234.744 1684.95 236.678 1686.31 238.396C1687.71 240.079 1690.22 241.816 1693.83 243.606C1697.34 241.959 1699.79 240.276 1701.19 238.558C1702.59 236.839 1703.29 234.852 1703.29 232.596C1703.29 230.125 1702.39 228.174 1700.6 226.741C1698.81 225.309 1696.52 224.593 1693.72 224.593ZM1729.07 258.646C1729.07 243.105 1732.34 231.539 1738.9 223.948C1745.48 216.357 1755.33 212.562 1768.44 212.562C1772.91 212.562 1776.42 212.83 1778.96 213.367V226.634C1775.78 225.918 1772.63 225.56 1769.51 225.56C1763.82 225.56 1759.16 226.419 1755.55 228.138C1751.97 229.856 1749.28 232.399 1747.49 235.765C1745.7 239.131 1744.64 243.911 1744.32 250.105H1745.02C1748.56 244.018 1754.24 240.975 1762.04 240.975C1769.06 240.975 1774.56 243.177 1778.53 247.581C1782.51 251.985 1784.5 258.073 1784.5 265.843C1784.5 274.222 1782.13 280.864 1777.41 285.77C1772.68 290.639 1766.13 293.074 1757.75 293.074C1751.95 293.074 1746.88 291.731 1742.55 289.046C1738.25 286.36 1734.92 282.439 1732.56 277.283C1730.23 272.127 1729.07 265.914 1729.07 258.646ZM1757.43 279.808C1760.97 279.808 1763.69 278.626 1765.59 276.263C1767.49 273.864 1768.44 270.462 1768.44 266.058C1768.44 262.226 1767.54 259.218 1765.75 257.034C1764 254.814 1761.33 253.704 1757.75 253.704C1754.38 253.704 1751.5 254.796 1749.1 256.98C1746.74 259.165 1745.56 261.707 1745.56 264.607C1745.56 268.868 1746.67 272.467 1748.89 275.403C1751.14 278.34 1753.99 279.808 1757.43 279.808Z" fill="#01F859"/>
<line x1="1" y1="106" x2="1975" y2="106" stroke="#6A7186" stroke-width="4"/>
<line x1="-3.49691e-06" y1="476" x2="1975" y2="476" stroke="url(#paint0_linear)" stroke-width="80"/>
<path d="M46.5625 488L36.875 462.688H36.7188C36.901 464.693 36.9922 467.076 36.9922 469.836V488H33.9258V459.445H38.9258L47.9688 483H48.125L57.2461 459.445H62.207V488H58.8867V469.602C58.8867 467.492 58.9779 465.201 59.1602 462.727H59.0039L49.2383 488H46.5625ZM72.6172 466.594V480.168L72.4805 483.723L72.4219 484.836L84.0039 466.594H88.0469V488H85.0195V474.914L85.0781 472.336L85.1758 469.797L73.6133 488H69.5703V466.594H72.6172ZM107.812 469.367H98.1641V488H94.9219V466.594H107.812V469.367ZM122.031 488.391C120.638 488.391 119.362 488.137 118.203 487.629C117.057 487.108 116.094 486.314 115.312 485.246H115.078C115.234 486.496 115.312 487.681 115.312 488.801V497.609H112.07V466.594H114.707L115.156 469.523H115.312C116.146 468.352 117.116 467.505 118.223 466.984C119.329 466.464 120.599 466.203 122.031 466.203C124.87 466.203 127.057 467.173 128.594 469.113C130.143 471.053 130.918 473.775 130.918 477.277C130.918 480.793 130.13 483.527 128.555 485.48C126.992 487.421 124.818 488.391 122.031 488.391ZM121.562 468.957C119.375 468.957 117.793 469.562 116.816 470.773C115.84 471.984 115.339 473.911 115.312 476.555V477.277C115.312 480.285 115.814 482.44 116.816 483.742C117.819 485.031 119.427 485.676 121.641 485.676C123.49 485.676 124.935 484.927 125.977 483.43C127.031 481.932 127.559 479.868 127.559 477.238C127.559 474.569 127.031 472.525 125.977 471.105C124.935 469.673 123.464 468.957 121.562 468.957ZM149.766 488L149.121 484.953H148.965C147.897 486.294 146.829 487.206 145.762 487.688C144.707 488.156 143.385 488.391 141.797 488.391C139.674 488.391 138.008 487.844 136.797 486.75C135.599 485.656 135 484.1 135 482.082C135 477.759 138.457 475.493 145.371 475.285L149.004 475.168V473.84C149.004 472.16 148.639 470.923 147.91 470.129C147.194 469.322 146.042 468.918 144.453 468.918C142.669 468.918 140.651 469.465 138.398 470.559L137.402 468.078C138.457 467.505 139.609 467.056 140.859 466.73C142.122 466.405 143.385 466.242 144.648 466.242C147.201 466.242 149.089 466.809 150.312 467.941C151.549 469.074 152.168 470.891 152.168 473.391V488H149.766ZM142.441 485.715C144.46 485.715 146.042 485.161 147.188 484.055C148.346 482.948 148.926 481.398 148.926 479.406V477.473L145.684 477.609C143.105 477.701 141.243 478.104 140.098 478.82C138.965 479.523 138.398 480.624 138.398 482.121C138.398 483.293 138.75 484.185 139.453 484.797C140.169 485.409 141.165 485.715 142.441 485.715ZM179.746 495.402H176.504V488H158.867V466.594H162.109V485.207H173.477V466.594H176.719V485.207H179.746V495.402ZM186.953 466.594V480.168L186.816 483.723L186.758 484.836L198.34 466.594H202.383V488H199.355V474.914L199.414 472.336L199.512 469.797L187.949 488H183.906V466.594H186.953ZM227.734 477.277C227.734 480.767 226.855 483.495 225.098 485.461C223.34 487.414 220.911 488.391 217.812 488.391C215.898 488.391 214.199 487.941 212.715 487.043C211.23 486.145 210.085 484.855 209.277 483.176C208.47 481.496 208.066 479.53 208.066 477.277C208.066 473.788 208.939 471.073 210.684 469.133C212.428 467.18 214.85 466.203 217.949 466.203C220.944 466.203 223.32 467.199 225.078 469.191C226.849 471.184 227.734 473.879 227.734 477.277ZM211.426 477.277C211.426 480.012 211.973 482.095 213.066 483.527C214.16 484.96 215.768 485.676 217.891 485.676C220.013 485.676 221.621 484.966 222.715 483.547C223.822 482.115 224.375 480.025 224.375 477.277C224.375 474.556 223.822 472.492 222.715 471.086C221.621 469.667 220 468.957 217.852 468.957C215.729 468.957 214.128 469.654 213.047 471.047C211.966 472.44 211.426 474.517 211.426 477.277ZM236.68 466.594V475.559H248.672V466.594H251.914V488H248.672V478.352H236.68V488H233.438V466.594H236.68ZM262.031 466.594V475.559H274.023V466.594H277.266V488H274.023V478.352H262.031V488H258.789V466.594H262.031ZM287.383 475.441H293.223C295.944 475.441 297.956 475.949 299.258 476.965C300.573 477.967 301.23 479.471 301.23 481.477C301.23 483.625 300.534 485.253 299.141 486.359C297.76 487.453 295.723 488 293.027 488H284.141V466.594H287.383V475.441ZM308.066 488H304.824V466.594H308.066V488ZM287.383 478.234V485.285H292.871C296.309 485.285 298.027 484.081 298.027 481.672C298.027 480.474 297.63 479.602 296.836 479.055C296.042 478.508 294.688 478.234 292.773 478.234H287.383ZM318.008 466.594V480.168L317.871 483.723L317.812 484.836L329.395 466.594H333.438V488H330.41V474.914L330.469 472.336L330.566 469.797L319.004 488H314.961V466.594H318.008ZM324.121 463.762C321.712 463.762 319.954 463.299 318.848 462.375C317.741 461.438 317.122 459.901 316.992 457.766H320.039C320.156 459.12 320.508 460.064 321.094 460.598C321.693 461.132 322.728 461.398 324.199 461.398C325.54 461.398 326.53 461.112 327.168 460.539C327.819 459.966 328.216 459.042 328.359 457.766H331.426C331.27 459.823 330.612 461.34 329.453 462.316C328.294 463.28 326.517 463.762 324.121 463.762ZM353.945 488H350.703V466.594H368.672V488H365.391V469.406H353.945V488ZM385.508 488.391C384.115 488.391 382.839 488.137 381.68 487.629C380.534 487.108 379.57 486.314 378.789 485.246H378.555C378.711 486.496 378.789 487.681 378.789 488.801V497.609H375.547V466.594H378.184L378.633 469.523H378.789C379.622 468.352 380.592 467.505 381.699 466.984C382.806 466.464 384.076 466.203 385.508 466.203C388.346 466.203 390.534 467.173 392.07 469.113C393.62 471.053 394.395 473.775 394.395 477.277C394.395 480.793 393.607 483.527 392.031 485.48C390.469 487.421 388.294 488.391 385.508 488.391ZM385.039 468.957C382.852 468.957 381.27 469.562 380.293 470.773C379.316 471.984 378.815 473.911 378.789 476.555V477.277C378.789 480.285 379.29 482.44 380.293 483.742C381.296 485.031 382.904 485.676 385.117 485.676C386.966 485.676 388.411 484.927 389.453 483.43C390.508 481.932 391.035 479.868 391.035 477.238C391.035 474.569 390.508 472.525 389.453 471.105C388.411 469.673 386.94 468.957 385.039 468.957ZM403.125 466.594V480.168L402.988 483.723L402.93 484.836L414.512 466.594H418.555V488H415.527V474.914L415.586 472.336L415.684 469.797L404.121 488H400.078V466.594H403.125ZM435.391 488.391C433.997 488.391 432.721 488.137 431.562 487.629C430.417 487.108 429.453 486.314 428.672 485.246H428.438C428.594 486.496 428.672 487.681 428.672 488.801V497.609H425.43V466.594H428.066L428.516 469.523H428.672C429.505 468.352 430.475 467.505 431.582 466.984C432.689 466.464 433.958 466.203 435.391 466.203C438.229 466.203 440.417 467.173 441.953 469.113C443.503 471.053 444.277 473.775 444.277 477.277C444.277 480.793 443.49 483.527 441.914 485.48C440.352 487.421 438.177 488.391 435.391 488.391ZM434.922 468.957C432.734 468.957 431.152 469.562 430.176 470.773C429.199 471.984 428.698 473.911 428.672 476.555V477.277C428.672 480.285 429.173 482.44 430.176 483.742C431.178 485.031 432.786 485.676 435 485.676C436.849 485.676 438.294 484.927 439.336 483.43C440.391 481.932 440.918 479.868 440.918 477.238C440.918 474.569 440.391 472.525 439.336 471.105C438.294 469.673 436.823 468.957 434.922 468.957ZM468.438 477.277C468.438 480.767 467.559 483.495 465.801 485.461C464.043 487.414 461.615 488.391 458.516 488.391C456.602 488.391 454.902 487.941 453.418 487.043C451.934 486.145 450.788 484.855 449.98 483.176C449.173 481.496 448.77 479.53 448.77 477.277C448.77 473.788 449.642 471.073 451.387 469.133C453.132 467.18 455.553 466.203 458.652 466.203C461.647 466.203 464.023 467.199 465.781 469.191C467.552 471.184 468.438 473.879 468.438 477.277ZM452.129 477.277C452.129 480.012 452.676 482.095 453.77 483.527C454.863 484.96 456.471 485.676 458.594 485.676C460.716 485.676 462.324 484.966 463.418 483.547C464.525 482.115 465.078 480.025 465.078 477.277C465.078 474.556 464.525 472.492 463.418 471.086C462.324 469.667 460.703 468.957 458.555 468.957C456.432 468.957 454.831 469.654 453.75 471.047C452.669 472.44 452.129 474.517 452.129 477.277ZM482.695 488.391C479.596 488.391 477.194 487.44 475.488 485.539C473.796 483.625 472.949 480.923 472.949 477.434C472.949 473.853 473.809 471.086 475.527 469.133C477.259 467.18 479.72 466.203 482.91 466.203C483.939 466.203 484.967 466.314 485.996 466.535C487.025 466.757 487.832 467.017 488.418 467.316L487.422 470.07C486.706 469.784 485.924 469.549 485.078 469.367C484.232 469.172 483.483 469.074 482.832 469.074C478.483 469.074 476.309 471.848 476.309 477.395C476.309 480.025 476.836 482.043 477.891 483.449C478.958 484.855 480.534 485.559 482.617 485.559C484.401 485.559 486.23 485.174 488.105 484.406V487.277C486.673 488.02 484.87 488.391 482.695 488.391ZM507.637 469.367H500.684V488H497.441V469.367H490.566V466.594H507.637V469.367Z" fill="white"/>
<path d="M4.27637 639.227V625.799H33.1191V639.227H4.27637ZM96.498 582.454C104.018 582.454 110.069 584.173 114.652 587.61C119.271 591.012 121.581 595.613 121.581 601.414C121.581 605.424 120.471 609.005 118.251 612.156C116.031 615.271 112.45 618.064 107.509 620.535C113.381 623.686 117.589 626.98 120.131 630.418C122.709 633.82 123.998 637.562 123.998 641.644C123.998 648.089 121.474 653.281 116.425 657.22C111.376 661.123 104.734 663.074 96.498 663.074C87.9043 663.074 81.1546 661.248 76.249 657.596C71.3434 653.943 68.8906 648.769 68.8906 642.073C68.8906 637.597 70.0723 633.623 72.4355 630.149C74.8346 626.676 78.666 623.615 83.9297 620.965C79.4538 618.136 76.2311 615.11 74.2617 611.888C72.2923 608.665 71.3076 605.138 71.3076 601.307C71.3076 595.685 73.6351 591.137 78.29 587.664C82.945 584.191 89.0143 582.454 96.498 582.454ZM84.252 641.106C84.252 644.186 85.3262 646.585 87.4746 648.304C89.623 650.022 92.5592 650.882 96.2832 650.882C100.401 650.882 103.48 650.005 105.521 648.25C107.562 646.46 108.583 644.114 108.583 641.214C108.583 638.815 107.562 636.577 105.521 634.5C103.516 632.387 100.24 630.149 95.6924 627.786C88.0654 631.295 84.252 635.735 84.252 641.106ZM96.3906 594.593C93.5618 594.593 91.2702 595.327 89.5156 596.795C87.7969 598.227 86.9375 600.161 86.9375 602.596C86.9375 604.744 87.6178 606.678 88.9785 608.396C90.375 610.079 92.8815 611.816 96.498 613.606C100.007 611.959 102.46 610.276 103.856 608.558C105.253 606.839 105.951 604.852 105.951 602.596C105.951 600.125 105.056 598.174 103.266 596.741C101.475 595.309 99.1836 594.593 96.3906 594.593ZM187.914 582.454C195.434 582.454 201.485 584.173 206.068 587.61C210.688 591.012 212.997 595.613 212.997 601.414C212.997 605.424 211.887 609.005 209.667 612.156C207.447 615.271 203.866 618.064 198.925 620.535C204.797 623.686 209.005 626.98 211.547 630.418C214.125 633.82 215.414 637.562 215.414 641.644C215.414 648.089 212.89 653.281 207.841 657.22C202.792 661.123 196.15 663.074 187.914 663.074C179.32 663.074 172.571 661.248 167.665 657.596C162.759 653.943 160.307 648.769 160.307 642.073C160.307 637.597 161.488 633.623 163.852 630.149C166.251 626.676 170.082 623.615 175.346 620.965C170.87 618.136 167.647 615.11 165.678 611.888C163.708 608.665 162.724 605.138 162.724 601.307C162.724 595.685 165.051 591.137 169.706 587.664C174.361 584.191 180.43 582.454 187.914 582.454ZM175.668 641.106C175.668 644.186 176.742 646.585 178.891 648.304C181.039 650.022 183.975 650.882 187.699 650.882C191.817 650.882 194.896 650.005 196.938 648.25C198.979 646.46 199.999 644.114 199.999 641.214C199.999 638.815 198.979 636.577 196.938 634.5C194.932 632.387 191.656 630.149 187.108 627.786C179.481 631.295 175.668 635.735 175.668 641.106ZM187.807 594.593C184.978 594.593 182.686 595.327 180.932 596.795C179.213 598.227 178.354 600.161 178.354 602.596C178.354 604.744 179.034 606.678 180.395 608.396C181.791 610.079 184.298 611.816 187.914 613.606C191.423 611.959 193.876 610.276 195.272 608.558C196.669 606.839 197.367 604.852 197.367 602.596C197.367 600.125 196.472 598.174 194.682 596.741C192.891 595.309 190.6 594.593 187.807 594.593ZM252.26 611.834C259.851 611.834 265.884 613.965 270.36 618.226C274.872 622.487 277.128 628.323 277.128 635.735C277.128 644.508 274.424 651.258 269.018 655.984C263.611 660.711 255.876 663.074 245.814 663.074C237.077 663.074 230.023 661.66 224.652 658.831V644.49C227.481 645.994 230.775 647.229 234.535 648.196C238.295 649.127 241.858 649.593 245.224 649.593C255.357 649.593 260.424 645.439 260.424 637.132C260.424 629.218 255.178 625.262 244.687 625.262C242.789 625.262 240.694 625.459 238.402 625.853C236.111 626.211 234.249 626.604 232.816 627.034L226.21 623.489L229.164 583.475H271.757V597.547H243.72L242.27 612.962L244.149 612.586C246.334 612.085 249.037 611.834 252.26 611.834ZM313.598 582.454C321.117 582.454 327.169 584.173 331.752 587.61C336.371 591.012 338.681 595.613 338.681 601.414C338.681 605.424 337.571 609.005 335.351 612.156C333.131 615.271 329.55 618.064 324.608 620.535C330.481 623.686 334.688 626.98 337.23 630.418C339.809 633.82 341.098 637.562 341.098 641.644C341.098 648.089 338.573 653.281 333.524 657.22C328.476 661.123 321.833 663.074 313.598 663.074C305.004 663.074 298.254 661.248 293.349 657.596C288.443 653.943 285.99 648.769 285.99 642.073C285.99 637.597 287.172 633.623 289.535 630.149C291.934 626.676 295.766 623.615 301.029 620.965C296.553 618.136 293.331 615.11 291.361 611.888C289.392 608.665 288.407 605.138 288.407 601.307C288.407 595.685 290.735 591.137 295.39 587.664C300.045 584.191 306.114 582.454 313.598 582.454ZM301.352 641.106C301.352 644.186 302.426 646.585 304.574 648.304C306.723 650.022 309.659 650.882 313.383 650.882C317.501 650.882 320.58 650.005 322.621 648.25C324.662 646.46 325.683 644.114 325.683 641.214C325.683 638.815 324.662 636.577 322.621 634.5C320.616 632.387 317.34 630.149 312.792 627.786C305.165 631.295 301.352 635.735 301.352 641.106ZM313.49 594.593C310.661 594.593 308.37 595.327 306.615 596.795C304.896 598.227 304.037 600.161 304.037 602.596C304.037 604.744 304.717 606.678 306.078 608.396C307.475 610.079 309.981 611.816 313.598 613.606C317.107 611.959 319.56 610.276 320.956 608.558C322.353 606.839 323.051 604.852 323.051 602.596C323.051 600.125 322.156 598.174 320.365 596.741C318.575 595.309 316.283 594.593 313.49 594.593Z" fill="#FF0000"/>
<path d="M649.276 639.227V625.799H678.119V639.227H649.276ZM743.002 611.834C750.593 611.834 756.627 613.965 761.103 618.226C765.614 622.487 767.87 628.323 767.87 635.735C767.87 644.508 765.167 651.258 759.76 655.984C754.353 660.711 746.618 663.074 736.557 663.074C727.82 663.074 720.766 661.66 715.395 658.831V644.49C718.223 645.994 721.518 647.229 725.277 648.196C729.037 649.127 732.6 649.593 735.966 649.593C746.099 649.593 751.166 645.439 751.166 637.132C751.166 629.218 745.92 625.262 735.429 625.262C733.531 625.262 731.436 625.459 729.145 625.853C726.853 626.211 724.991 626.604 723.559 627.034L716.952 623.489L719.906 583.475H762.499V597.547H734.462L733.012 612.962L734.892 612.586C737.076 612.085 739.779 611.834 743.002 611.834ZM834.418 611.834C842.009 611.834 848.043 613.965 852.519 618.226C857.03 622.487 859.286 628.323 859.286 635.735C859.286 644.508 856.583 651.258 851.176 655.984C845.769 660.711 838.035 663.074 827.973 663.074C819.236 663.074 812.182 661.66 806.811 658.831V644.49C809.639 645.994 812.934 647.229 816.693 648.196C820.453 649.127 824.016 649.593 827.382 649.593C837.515 649.593 842.582 645.439 842.582 637.132C842.582 629.218 837.336 625.262 826.845 625.262C824.947 625.262 822.852 625.459 820.561 625.853C818.269 626.211 816.407 626.604 814.975 627.034L808.368 623.489L811.322 583.475H853.915V597.547H825.878L824.428 612.962L826.308 612.586C828.492 612.085 831.195 611.834 834.418 611.834ZM923.148 622.737C923.148 636.451 920.893 646.603 916.381 653.191C911.905 659.78 904.994 663.074 895.648 663.074C886.589 663.074 879.75 659.673 875.131 652.869C870.548 646.066 868.256 636.022 868.256 622.737C868.256 608.88 870.494 598.675 874.97 592.122C879.446 585.534 886.339 582.239 895.648 582.239C904.708 582.239 911.547 585.677 916.166 592.552C920.821 599.427 923.148 609.489 923.148 622.737ZM884.745 622.737C884.745 632.369 885.569 639.28 887.216 643.47C888.899 647.623 891.71 649.7 895.648 649.7C899.516 649.7 902.309 647.588 904.027 643.362C905.746 639.137 906.605 632.262 906.605 622.737C906.605 613.105 905.728 606.194 903.974 602.005C902.255 597.78 899.48 595.667 895.648 595.667C891.745 595.667 888.952 597.78 887.27 602.005C885.587 606.194 884.745 613.105 884.745 622.737ZM930.99 628.646C930.99 613.105 934.267 601.539 940.819 593.948C947.408 586.357 957.255 582.562 970.36 582.562C974.836 582.562 978.345 582.83 980.888 583.367V596.634C977.701 595.918 974.55 595.56 971.435 595.56C965.741 595.56 961.086 596.419 957.47 598.138C953.889 599.856 951.203 602.399 949.413 605.765C947.623 609.131 946.566 613.911 946.244 620.105H946.942C950.487 614.018 956.163 610.975 963.969 610.975C970.987 610.975 976.483 613.177 980.458 617.581C984.433 621.985 986.42 628.073 986.42 635.843C986.42 644.222 984.057 650.864 979.33 655.77C974.604 660.639 968.051 663.074 959.672 663.074C953.871 663.074 948.804 661.731 944.472 659.046C940.175 656.36 936.845 652.439 934.481 647.283C932.154 642.127 930.99 635.914 930.99 628.646ZM959.35 649.808C962.895 649.808 965.616 648.626 967.514 646.263C969.411 643.864 970.36 640.462 970.36 636.058C970.36 632.226 969.465 629.218 967.675 627.034C965.92 624.814 963.253 623.704 959.672 623.704C956.306 623.704 953.424 624.796 951.024 626.98C948.661 629.165 947.479 631.707 947.479 634.607C947.479 638.868 948.59 642.467 950.81 645.403C953.065 648.34 955.912 649.808 959.35 649.808Z" fill="#FF0000"/>
<path d="M1294.28 639.227V625.799H1323.12V639.227H1294.28ZM1416.09 645.726H1406.64V662H1390.42V645.726H1356.9V634.178L1391.33 583.475H1406.64V632.835H1416.09V645.726ZM1390.42 632.835V619.515C1390.42 617.295 1390.51 614.072 1390.69 609.847C1390.87 605.621 1391.01 603.169 1391.12 602.488H1390.69C1389.36 605.424 1387.77 608.289 1385.91 611.082L1371.51 632.835H1390.42ZM1505.41 616.99C1505.41 632.459 1502.16 644.007 1495.64 651.634C1489.12 659.261 1479.26 663.074 1466.04 663.074C1461.39 663.074 1457.86 662.824 1455.46 662.322V649.002C1458.47 649.754 1461.62 650.13 1464.92 650.13C1470.47 650.13 1475.03 649.324 1478.61 647.713C1482.19 646.066 1484.93 643.506 1486.83 640.032C1488.73 636.523 1489.82 631.707 1490.11 625.584H1489.46C1487.39 628.95 1484.99 631.313 1482.26 632.674C1479.54 634.035 1476.14 634.715 1472.06 634.715C1465.22 634.715 1459.83 632.531 1455.89 628.162C1451.95 623.758 1449.98 617.653 1449.98 609.847C1449.98 601.432 1452.37 594.79 1457.13 589.92C1461.93 585.014 1468.44 582.562 1476.68 582.562C1482.48 582.562 1487.55 583.922 1491.88 586.644C1496.25 589.365 1499.6 593.322 1501.92 598.514C1504.25 603.67 1505.41 609.829 1505.41 616.99ZM1477 595.882C1473.56 595.882 1470.88 597.063 1468.94 599.427C1467.01 601.79 1466.04 605.192 1466.04 609.632C1466.04 613.427 1466.92 616.435 1468.68 618.655C1470.43 620.875 1473.1 621.985 1476.68 621.985C1480.04 621.985 1482.93 620.893 1485.33 618.709C1487.73 616.489 1488.92 613.947 1488.92 611.082C1488.92 606.821 1487.8 603.222 1485.54 600.286C1483.32 597.35 1480.47 595.882 1477 595.882ZM1542.26 611.834C1549.85 611.834 1555.88 613.965 1560.36 618.226C1564.87 622.487 1567.13 628.323 1567.13 635.735C1567.13 644.508 1564.42 651.258 1559.02 655.984C1553.61 660.711 1545.88 663.074 1535.81 663.074C1527.08 663.074 1520.02 661.66 1514.65 658.831V644.49C1517.48 645.994 1520.78 647.229 1524.54 648.196C1528.29 649.127 1531.86 649.593 1535.22 649.593C1545.36 649.593 1550.42 645.439 1550.42 637.132C1550.42 629.218 1545.18 625.262 1534.69 625.262C1532.79 625.262 1530.69 625.459 1528.4 625.853C1526.11 626.211 1524.25 626.604 1522.82 627.034L1516.21 623.489L1519.16 583.475H1561.76V597.547H1533.72L1532.27 612.962L1534.15 612.586C1536.33 612.085 1539.04 611.834 1542.26 611.834ZM1575.99 628.646C1575.99 613.105 1579.27 601.539 1585.82 593.948C1592.41 586.357 1602.25 582.562 1615.36 582.562C1619.84 582.562 1623.35 582.83 1625.89 583.367V596.634C1622.7 595.918 1619.55 595.56 1616.43 595.56C1610.74 595.56 1606.09 596.419 1602.47 598.138C1598.89 599.856 1596.2 602.399 1594.41 605.765C1592.62 609.131 1591.57 613.911 1591.24 620.105H1591.94C1595.49 614.018 1601.16 610.975 1608.97 610.975C1615.99 610.975 1621.48 613.177 1625.46 617.581C1629.43 621.985 1631.42 628.073 1631.42 635.843C1631.42 644.222 1629.06 650.864 1624.33 655.77C1619.6 660.639 1613.05 663.074 1604.67 663.074C1598.87 663.074 1593.8 661.731 1589.47 659.046C1585.17 656.36 1581.84 652.439 1579.48 647.283C1577.15 642.127 1575.99 635.914 1575.99 628.646ZM1604.35 649.808C1607.89 649.808 1610.62 648.626 1612.51 646.263C1614.41 643.864 1615.36 640.462 1615.36 636.058C1615.36 632.226 1614.47 629.218 1612.67 627.034C1610.92 624.814 1608.25 623.704 1604.67 623.704C1601.31 623.704 1598.42 624.796 1596.02 626.98C1593.66 629.165 1592.48 631.707 1592.48 634.607C1592.48 638.868 1593.59 642.467 1595.81 645.403C1598.07 648.34 1600.91 649.808 1604.35 649.808Z" fill="#FF0000"/>
<line x1="1" y1="798" x2="1975" y2="798" stroke="url(#paint1_linear)" stroke-width="80"/>
<path d="M50.8438 812H34.9258V783.445H50.8438V786.395H38.2461V795.594H50.082V798.523H38.2461V809.031H50.8438V812ZM65.2578 812.391C62.1589 812.391 59.7565 811.44 58.0508 809.539C56.3581 807.625 55.5117 804.923 55.5117 801.434C55.5117 797.853 56.3711 795.086 58.0898 793.133C59.8216 791.18 62.2826 790.203 65.4727 790.203C66.5013 790.203 67.5299 790.314 68.5586 790.535C69.5872 790.757 70.3945 791.017 70.9805 791.316L69.9844 794.07C69.2682 793.784 68.487 793.549 67.6406 793.367C66.7943 793.172 66.0456 793.074 65.3945 793.074C61.0456 793.074 58.8711 795.848 58.8711 801.395C58.8711 804.025 59.3984 806.043 60.4531 807.449C61.5208 808.855 63.0964 809.559 65.1797 809.559C66.9635 809.559 68.793 809.174 70.668 808.406V811.277C69.2357 812.02 67.4323 812.391 65.2578 812.391ZM90.1992 793.367H83.2461V812H80.0039V793.367H73.1289V790.594H90.1992V793.367ZM103.48 812.391C100.316 812.391 97.8164 811.427 95.9805 809.5C94.1576 807.573 93.2461 804.897 93.2461 801.473C93.2461 798.022 94.0924 795.281 95.7852 793.25C97.4909 791.219 99.776 790.203 102.641 790.203C105.323 790.203 107.445 791.089 109.008 792.859C110.57 794.617 111.352 796.941 111.352 799.832V801.883H96.6055C96.6706 804.396 97.3021 806.303 98.5 807.605C99.7109 808.908 101.41 809.559 103.598 809.559C105.902 809.559 108.181 809.077 110.434 808.113V811.004C109.288 811.499 108.201 811.85 107.172 812.059C106.156 812.28 104.926 812.391 103.48 812.391ZM102.602 792.918C100.883 792.918 99.5091 793.478 98.4805 794.598C97.4648 795.717 96.8659 797.267 96.6836 799.246H107.875C107.875 797.202 107.419 795.639 106.508 794.559C105.596 793.465 104.294 792.918 102.602 792.918ZM125.453 812.391C122.354 812.391 119.952 811.44 118.246 809.539C116.553 807.625 115.707 804.923 115.707 801.434C115.707 797.853 116.566 795.086 118.285 793.133C120.017 791.18 122.478 790.203 125.668 790.203C126.697 790.203 127.725 790.314 128.754 790.535C129.783 790.757 130.59 791.017 131.176 791.316L130.18 794.07C129.464 793.784 128.682 793.549 127.836 793.367C126.99 793.172 126.241 793.074 125.59 793.074C121.241 793.074 119.066 795.848 119.066 801.395C119.066 804.025 119.594 806.043 120.648 807.449C121.716 808.855 123.292 809.559 125.375 809.559C127.159 809.559 128.988 809.174 130.863 808.406V811.277C129.431 812.02 127.628 812.391 125.453 812.391ZM150.395 793.367H143.441V812H140.199V793.367H133.324V790.594H150.395V793.367ZM171.996 795.965C171.996 797.358 171.592 798.419 170.785 799.148C169.991 799.865 168.871 800.346 167.426 800.594V800.77C169.249 801.017 170.577 801.551 171.41 802.371C172.257 803.191 172.68 804.324 172.68 805.77C172.68 807.762 171.944 809.298 170.473 810.379C169.014 811.46 166.879 812 164.066 812H154.633V790.594H164.027C169.34 790.594 171.996 792.384 171.996 795.965ZM169.438 805.555C169.438 804.396 168.995 803.556 168.109 803.035C167.237 802.501 165.785 802.234 163.754 802.234H157.875V809.285H163.832C167.569 809.285 169.438 808.042 169.438 805.555ZM168.832 796.277C168.832 795.236 168.428 794.5 167.621 794.07C166.827 793.628 165.616 793.406 163.988 793.406H157.875V799.441H163.363C165.368 799.441 166.781 799.194 167.602 798.699C168.422 798.204 168.832 797.397 168.832 796.277ZM186.449 812.391C183.285 812.391 180.785 811.427 178.949 809.5C177.126 807.573 176.215 804.897 176.215 801.473C176.215 798.022 177.061 795.281 178.754 793.25C180.46 791.219 182.745 790.203 185.609 790.203C188.292 790.203 190.414 791.089 191.977 792.859C193.539 794.617 194.32 796.941 194.32 799.832V801.883H179.574C179.639 804.396 180.271 806.303 181.469 807.605C182.68 808.908 184.379 809.559 186.566 809.559C188.871 809.559 191.15 809.077 193.402 808.113V811.004C192.257 811.499 191.169 811.85 190.141 812.059C189.125 812.28 187.895 812.391 186.449 812.391ZM185.57 792.918C183.852 792.918 182.478 793.478 181.449 794.598C180.434 795.717 179.835 797.267 179.652 799.246H190.844C190.844 797.202 190.388 795.639 189.477 794.559C188.565 793.465 187.263 792.918 185.57 792.918ZM203.109 790.594V799.559H215.102V790.594H218.344V812H215.102V802.352H203.109V812H199.867V790.594H203.109ZM228.461 790.594V799.559H240.453V790.594H243.695V812H240.453V802.352H228.461V812H225.219V790.594H228.461ZM253.812 799.441H259.652C262.374 799.441 264.385 799.949 265.688 800.965C267.003 801.967 267.66 803.471 267.66 805.477C267.66 807.625 266.964 809.253 265.57 810.359C264.19 811.453 262.152 812 259.457 812H250.57V790.594H253.812V799.441ZM274.496 812H271.254V790.594H274.496V812ZM253.812 802.234V809.285H259.301C262.738 809.285 264.457 808.081 264.457 805.672C264.457 804.474 264.06 803.602 263.266 803.055C262.471 802.508 261.117 802.234 259.203 802.234H253.812ZM284.438 790.594V804.168L284.301 807.723L284.242 808.836L295.824 790.594H299.867V812H296.84V798.914L296.898 796.336L296.996 793.797L285.434 812H281.391V790.594H284.438ZM290.551 787.762C288.142 787.762 286.384 787.299 285.277 786.375C284.171 785.438 283.552 783.901 283.422 781.766H286.469C286.586 783.12 286.938 784.064 287.523 784.598C288.122 785.132 289.158 785.398 290.629 785.398C291.97 785.398 292.96 785.112 293.598 784.539C294.249 783.966 294.646 783.042 294.789 781.766H297.855C297.699 783.823 297.042 785.34 295.883 786.316C294.724 787.28 292.947 787.762 290.551 787.762ZM320.375 812H317.133V790.594H335.102V812H331.82V793.406H320.375V812ZM351.938 812.391C350.544 812.391 349.268 812.137 348.109 811.629C346.964 811.108 346 810.314 345.219 809.246H344.984C345.141 810.496 345.219 811.681 345.219 812.801V821.609H341.977V790.594H344.613L345.062 793.523H345.219C346.052 792.352 347.022 791.505 348.129 790.984C349.236 790.464 350.505 790.203 351.938 790.203C354.776 790.203 356.964 791.173 358.5 793.113C360.049 795.053 360.824 797.775 360.824 801.277C360.824 804.793 360.036 807.527 358.461 809.48C356.898 811.421 354.724 812.391 351.938 812.391ZM351.469 792.957C349.281 792.957 347.699 793.562 346.723 794.773C345.746 795.984 345.245 797.911 345.219 800.555V801.277C345.219 804.285 345.72 806.44 346.723 807.742C347.725 809.031 349.333 809.676 351.547 809.676C353.396 809.676 354.841 808.927 355.883 807.43C356.938 805.932 357.465 803.868 357.465 801.238C357.465 798.569 356.938 796.525 355.883 795.105C354.841 793.673 353.37 792.957 351.469 792.957ZM369.555 790.594V804.168L369.418 807.723L369.359 808.836L380.941 790.594H384.984V812H381.957V798.914L382.016 796.336L382.113 793.797L370.551 812H366.508V790.594H369.555ZM401.82 812.391C400.427 812.391 399.151 812.137 397.992 811.629C396.846 811.108 395.883 810.314 395.102 809.246H394.867C395.023 810.496 395.102 811.681 395.102 812.801V821.609H391.859V790.594H394.496L394.945 793.523H395.102C395.935 792.352 396.905 791.505 398.012 790.984C399.118 790.464 400.388 790.203 401.82 790.203C404.659 790.203 406.846 791.173 408.383 793.113C409.932 795.053 410.707 797.775 410.707 801.277C410.707 804.793 409.919 807.527 408.344 809.48C406.781 811.421 404.607 812.391 401.82 812.391ZM401.352 792.957C399.164 792.957 397.582 793.562 396.605 794.773C395.629 795.984 395.128 797.911 395.102 800.555V801.277C395.102 804.285 395.603 806.44 396.605 807.742C397.608 809.031 399.216 809.676 401.43 809.676C403.279 809.676 404.724 808.927 405.766 807.43C406.82 805.932 407.348 803.868 407.348 801.238C407.348 798.569 406.82 796.525 405.766 795.105C404.724 793.673 403.253 792.957 401.352 792.957ZM434.867 801.277C434.867 804.767 433.988 807.495 432.23 809.461C430.473 811.414 428.044 812.391 424.945 812.391C423.031 812.391 421.332 811.941 419.848 811.043C418.363 810.145 417.217 808.855 416.41 807.176C415.603 805.496 415.199 803.53 415.199 801.277C415.199 797.788 416.072 795.073 417.816 793.133C419.561 791.18 421.983 790.203 425.082 790.203C428.077 790.203 430.453 791.199 432.211 793.191C433.982 795.184 434.867 797.879 434.867 801.277ZM418.559 801.277C418.559 804.012 419.105 806.095 420.199 807.527C421.293 808.96 422.901 809.676 425.023 809.676C427.146 809.676 428.754 808.966 429.848 807.547C430.954 806.115 431.508 804.025 431.508 801.277C431.508 798.556 430.954 796.492 429.848 795.086C428.754 793.667 427.133 792.957 424.984 792.957C422.862 792.957 421.26 793.654 420.18 795.047C419.099 796.44 418.559 798.517 418.559 801.277ZM449.125 812.391C446.026 812.391 443.624 811.44 441.918 809.539C440.225 807.625 439.379 804.923 439.379 801.434C439.379 797.853 440.238 795.086 441.957 793.133C443.689 791.18 446.15 790.203 449.34 790.203C450.368 790.203 451.397 790.314 452.426 790.535C453.454 790.757 454.262 791.017 454.848 791.316L453.852 794.07C453.135 793.784 452.354 793.549 451.508 793.367C450.661 793.172 449.913 793.074 449.262 793.074C444.913 793.074 442.738 795.848 442.738 801.395C442.738 804.025 443.266 806.043 444.32 807.449C445.388 808.855 446.964 809.559 449.047 809.559C450.831 809.559 452.66 809.174 454.535 808.406V811.277C453.103 812.02 451.299 812.391 449.125 812.391ZM474.066 793.367H467.113V812H463.871V793.367H456.996V790.594H474.066V793.367Z" fill="white"/>
<path d="M4.27637 960.227V946.799H33.1191V960.227H4.27637ZM121.259 922.038C121.259 926.944 119.773 931.115 116.801 934.553C113.829 937.99 109.657 940.354 104.286 941.643V941.965C110.624 942.753 115.422 944.686 118.681 947.766C121.939 950.809 123.568 954.927 123.568 960.119C123.568 967.674 120.829 973.565 115.351 977.79C109.872 981.979 102.048 984.074 91.8789 984.074C83.3568 984.074 75.8014 982.66 69.2129 979.831V965.705C72.2565 967.245 75.6045 968.498 79.2568 969.465C82.9092 970.432 86.5257 970.915 90.1064 970.915C95.585 970.915 99.6312 969.984 102.245 968.122C104.859 966.26 106.166 963.27 106.166 959.152C106.166 955.464 104.662 952.85 101.654 951.311C98.6465 949.771 93.8483 949.001 87.2598 949.001H81.2979V936.271H87.3672C93.4544 936.271 97.8945 935.484 100.688 933.908C103.516 932.297 104.931 929.558 104.931 925.69C104.931 919.746 101.207 916.774 93.7588 916.774C91.1807 916.774 88.5488 917.204 85.8633 918.063C83.2135 918.923 80.2594 920.409 77.001 922.521L69.3203 911.081C76.4818 905.925 85.0218 903.347 94.9404 903.347C103.069 903.347 109.478 904.994 114.169 908.288C118.896 911.582 121.259 916.166 121.259 922.038ZM217.509 966.726H208.056V983H191.835V966.726H158.319V955.178L192.748 904.475H208.056V953.835H217.509V966.726ZM191.835 953.835V940.515C191.835 938.295 191.924 935.072 192.104 930.847C192.283 926.621 192.426 924.169 192.533 923.488H192.104C190.779 926.424 189.185 929.289 187.323 932.082L172.929 953.835H191.835ZM275.517 922.038C275.517 926.944 274.031 931.115 271.059 934.553C268.087 937.99 263.915 940.354 258.544 941.643V941.965C264.882 942.753 269.68 944.686 272.938 947.766C276.197 950.809 277.826 954.927 277.826 960.119C277.826 967.674 275.087 973.565 269.608 977.79C264.13 981.979 256.306 984.074 246.137 984.074C237.615 984.074 230.059 982.66 223.471 979.831V965.705C226.514 967.245 229.862 968.498 233.515 969.465C237.167 970.432 240.784 970.915 244.364 970.915C249.843 970.915 253.889 969.984 256.503 968.122C259.117 966.26 260.424 963.27 260.424 959.152C260.424 955.464 258.92 952.85 255.912 951.311C252.904 949.771 248.106 949.001 241.518 949.001H235.556V936.271H241.625C247.712 936.271 252.152 935.484 254.945 933.908C257.774 932.297 259.188 929.558 259.188 925.69C259.188 919.746 255.465 916.774 248.017 916.774C245.438 916.774 242.807 917.204 240.121 918.063C237.471 918.923 234.517 920.409 231.259 922.521L223.578 911.081C230.74 905.925 239.28 903.347 249.198 903.347C257.326 903.347 263.736 904.994 268.427 908.288C273.153 911.582 275.517 916.166 275.517 922.038ZM340.99 943.737C340.99 957.451 338.734 967.603 334.223 974.191C329.747 980.78 322.836 984.074 313.49 984.074C304.431 984.074 297.592 980.673 292.973 973.869C288.389 967.066 286.098 957.022 286.098 943.737C286.098 929.88 288.336 919.675 292.812 913.122C297.287 906.534 304.18 903.239 313.49 903.239C322.549 903.239 329.389 906.677 334.008 913.552C338.663 920.427 340.99 930.489 340.99 943.737ZM302.587 943.737C302.587 953.369 303.41 960.28 305.058 964.47C306.741 968.623 309.551 970.7 313.49 970.7C317.357 970.7 320.15 968.588 321.869 964.362C323.588 960.137 324.447 953.262 324.447 943.737C324.447 934.105 323.57 927.194 321.815 923.005C320.097 918.78 317.322 916.667 313.49 916.667C309.587 916.667 306.794 918.78 305.111 923.005C303.428 927.194 302.587 934.105 302.587 943.737Z" fill="#FF0000"/>
<path d="M17.6797 1039.4H22.7188L13.793 1049.81L23.4805 1061H18.207L8.87109 1050.04V1061H4.28125V1039.4H8.87109V1049.89L17.6797 1039.4ZM36.1562 1044.77V1041.27H54.9648V1044.77H36.1562ZM36.1562 1052.56V1049.09H54.9648V1052.56H36.1562ZM68.8125 1052.23V1048.32H78.8516V1052.23H68.8125ZM111.801 1046.72C111.801 1051.68 111 1055.37 109.398 1057.78C107.81 1060.19 105.375 1061.39 102.094 1061.39C98.9167 1061.39 96.5078 1060.15 94.8672 1057.66C93.2266 1055.17 92.4062 1051.53 92.4062 1046.72C92.4062 1041.68 93.2005 1037.97 94.7891 1035.59C96.3906 1033.19 98.8255 1032 102.094 1032C105.284 1032 107.699 1033.25 109.34 1035.75C110.98 1038.25 111.801 1041.9 111.801 1046.72ZM97.0547 1046.72C97.0547 1050.62 97.4518 1053.4 98.2461 1055.06C99.0534 1056.73 100.336 1057.56 102.094 1057.56C103.852 1057.56 105.134 1056.72 105.941 1055.02C106.762 1053.33 107.172 1050.56 107.172 1046.72C107.172 1042.89 106.762 1040.13 105.941 1038.42C105.134 1036.7 103.852 1035.84 102.094 1035.84C100.336 1035.84 99.0534 1036.68 98.2461 1038.36C97.4518 1040.04 97.0547 1042.83 97.0547 1046.72ZM121.586 1056.8C120.961 1059.22 119.815 1062.34 118.148 1066.16H114.77C115.668 1062.64 116.339 1059.37 116.781 1056.35H121.293L121.586 1056.8ZM135.648 1032.07C138.357 1032.07 140.499 1032.7 142.074 1033.95C143.65 1035.19 144.438 1036.85 144.438 1038.93C144.438 1041.86 142.68 1044.19 139.164 1045.92C141.404 1047.04 142.992 1048.22 143.93 1049.46C144.88 1050.69 145.355 1052.07 145.355 1053.6C145.355 1055.95 144.49 1057.84 142.758 1059.26C141.026 1060.68 138.682 1061.39 135.727 1061.39C132.628 1061.39 130.225 1060.73 128.52 1059.4C126.814 1058.07 125.961 1056.19 125.961 1053.75C125.961 1052.17 126.404 1050.74 127.289 1049.48C128.188 1048.2 129.652 1047.07 131.684 1046.08C129.939 1045.04 128.695 1043.94 127.953 1042.78C127.211 1041.62 126.84 1040.32 126.84 1038.87C126.84 1036.8 127.654 1035.15 129.281 1033.93C130.909 1032.69 133.031 1032.07 135.648 1032.07ZM130.355 1053.6C130.355 1054.95 130.831 1056.01 131.781 1056.76C132.732 1057.5 134.021 1057.88 135.648 1057.88C137.328 1057.88 138.63 1057.49 139.555 1056.72C140.492 1055.94 140.961 1054.89 140.961 1053.56C140.961 1052.5 140.531 1051.54 139.672 1050.67C138.812 1049.8 137.51 1048.99 135.766 1048.25L135.199 1047.99C133.48 1048.75 132.243 1049.58 131.488 1050.49C130.733 1051.39 130.355 1052.43 130.355 1053.6ZM135.609 1035.61C134.307 1035.61 133.259 1035.93 132.465 1036.59C131.671 1037.22 131.273 1038.1 131.273 1039.2C131.273 1039.88 131.417 1040.49 131.703 1041.02C131.99 1041.55 132.406 1042.04 132.953 1042.48C133.5 1042.91 134.424 1043.43 135.727 1044.05C137.289 1043.36 138.389 1042.63 139.027 1041.88C139.678 1041.11 140.004 1040.22 140.004 1039.2C140.004 1038.1 139.6 1037.22 138.793 1036.59C137.999 1035.93 136.938 1035.61 135.609 1035.61Z" fill="white"/>
<path d="M649.276 960.227V946.799H678.119V960.227H649.276ZM722.216 983L751.703 918.547H712.978V904.582H769.32V915.002L739.618 983H722.216ZM857.675 922.038C857.675 926.944 856.189 931.115 853.217 934.553C850.245 937.99 846.073 940.354 840.702 941.643V941.965C847.04 942.753 851.838 944.686 855.097 947.766C858.355 950.809 859.984 954.927 859.984 960.119C859.984 967.674 857.245 973.565 851.767 977.79C846.288 981.979 838.464 984.074 828.295 984.074C819.773 984.074 812.217 982.66 805.629 979.831V965.705C808.673 967.245 812.021 968.498 815.673 969.465C819.325 970.432 822.942 970.915 826.522 970.915C832.001 970.915 836.047 969.984 838.661 968.122C841.275 966.26 842.582 963.27 842.582 959.152C842.582 955.464 841.078 952.85 838.07 951.311C835.062 949.771 830.264 949.001 823.676 949.001H817.714V936.271H823.783C829.87 936.271 834.311 935.484 837.104 933.908C839.932 932.297 841.347 929.558 841.347 925.69C841.347 919.746 837.623 916.774 830.175 916.774C827.597 916.774 824.965 917.204 822.279 918.063C819.63 918.923 816.675 920.409 813.417 922.521L805.736 911.081C812.898 905.925 821.438 903.347 831.356 903.347C839.485 903.347 845.894 904.994 850.585 908.288C855.312 911.582 857.675 916.166 857.675 922.038ZM925.351 966.726H915.897V983H899.677V966.726H866.161V955.178L900.59 904.475H915.897V953.835H925.351V966.726ZM899.677 953.835V940.515C899.677 938.295 899.766 935.072 899.945 930.847C900.124 926.621 900.268 924.169 900.375 923.488H899.945C898.62 926.424 897.027 929.289 895.165 932.082L880.771 953.835H899.677ZM958.598 903.454C966.117 903.454 972.169 905.173 976.752 908.61C981.371 912.012 983.681 916.613 983.681 922.414C983.681 926.424 982.571 930.005 980.351 933.156C978.131 936.271 974.55 939.064 969.608 941.535C975.481 944.686 979.688 947.98 982.23 951.418C984.809 954.82 986.098 958.562 986.098 962.644C986.098 969.089 983.573 974.281 978.524 978.22C973.476 982.123 966.833 984.074 958.598 984.074C950.004 984.074 943.254 982.248 938.349 978.596C933.443 974.943 930.99 969.769 930.99 963.073C930.99 958.597 932.172 954.623 934.535 951.149C936.934 947.676 940.766 944.615 946.029 941.965C941.553 939.136 938.331 936.11 936.361 932.888C934.392 929.665 933.407 926.138 933.407 922.307C933.407 916.685 935.735 912.137 940.39 908.664C945.045 905.191 951.114 903.454 958.598 903.454ZM946.352 962.106C946.352 965.186 947.426 967.585 949.574 969.304C951.723 971.022 954.659 971.882 958.383 971.882C962.501 971.882 965.58 971.005 967.621 969.25C969.662 967.46 970.683 965.114 970.683 962.214C970.683 959.815 969.662 957.577 967.621 955.5C965.616 953.387 962.34 951.149 957.792 948.786C950.165 952.295 946.352 956.735 946.352 962.106ZM958.49 915.593C955.661 915.593 953.37 916.327 951.615 917.795C949.896 919.227 949.037 921.161 949.037 923.596C949.037 925.744 949.717 927.678 951.078 929.396C952.475 931.079 954.981 932.816 958.598 934.606C962.107 932.959 964.56 931.276 965.956 929.558C967.353 927.839 968.051 925.852 968.051 923.596C968.051 921.125 967.156 919.174 965.365 917.741C963.575 916.309 961.283 915.593 958.49 915.593Z" fill="#FF0000"/>
<path d="M662.68 1039.4H667.719L658.793 1049.81L668.48 1061H663.207L653.871 1050.04V1061H649.281V1039.4H653.871V1049.89L662.68 1039.4ZM681.156 1044.77V1041.27H699.965V1044.77H681.156ZM681.156 1052.56V1049.09H699.965V1052.56H681.156ZM713.812 1052.23V1048.32H723.852V1052.23H713.812ZM750.922 1061H746.332V1042.56C746.332 1040.36 746.384 1038.62 746.488 1037.33C746.189 1037.64 745.818 1037.99 745.375 1038.36C744.945 1038.74 743.487 1039.94 741 1041.96L738.695 1039.05L747.094 1032.45H750.922V1061ZM766.586 1056.8C765.961 1059.22 764.815 1062.34 763.148 1066.16H759.77C760.668 1062.64 761.339 1059.37 761.781 1056.35H766.293L766.586 1056.8ZM780.648 1032.07C783.357 1032.07 785.499 1032.7 787.074 1033.95C788.65 1035.19 789.438 1036.85 789.438 1038.93C789.438 1041.86 787.68 1044.19 784.164 1045.92C786.404 1047.04 787.992 1048.22 788.93 1049.46C789.88 1050.69 790.355 1052.07 790.355 1053.6C790.355 1055.95 789.49 1057.84 787.758 1059.26C786.026 1060.68 783.682 1061.39 780.727 1061.39C777.628 1061.39 775.225 1060.73 773.52 1059.4C771.814 1058.07 770.961 1056.19 770.961 1053.75C770.961 1052.17 771.404 1050.74 772.289 1049.48C773.188 1048.2 774.652 1047.07 776.684 1046.08C774.939 1045.04 773.695 1043.94 772.953 1042.78C772.211 1041.62 771.84 1040.32 771.84 1038.87C771.84 1036.8 772.654 1035.15 774.281 1033.93C775.909 1032.69 778.031 1032.07 780.648 1032.07ZM775.355 1053.6C775.355 1054.95 775.831 1056.01 776.781 1056.76C777.732 1057.5 779.021 1057.88 780.648 1057.88C782.328 1057.88 783.63 1057.49 784.555 1056.72C785.492 1055.94 785.961 1054.89 785.961 1053.56C785.961 1052.5 785.531 1051.54 784.672 1050.67C783.812 1049.8 782.51 1048.99 780.766 1048.25L780.199 1047.99C778.48 1048.75 777.243 1049.58 776.488 1050.49C775.733 1051.39 775.355 1052.43 775.355 1053.6ZM780.609 1035.61C779.307 1035.61 778.259 1035.93 777.465 1036.59C776.671 1037.22 776.273 1038.1 776.273 1039.2C776.273 1039.88 776.417 1040.49 776.703 1041.02C776.99 1041.55 777.406 1042.04 777.953 1042.48C778.5 1042.91 779.424 1043.43 780.727 1044.05C782.289 1043.36 783.389 1042.63 784.027 1041.88C784.678 1041.11 785.004 1040.22 785.004 1039.2C785.004 1038.1 784.6 1037.22 783.793 1036.59C782.999 1035.93 781.938 1035.61 780.609 1035.61Z" fill="white"/>
<path d="M1294.28 960.227V946.799H1323.12V960.227H1294.28ZM1400.46 983H1383.87V937.561L1384.03 930.095L1384.3 921.931C1381.54 924.688 1379.62 926.496 1378.55 927.355L1369.53 934.606L1361.52 924.616L1386.82 904.475H1400.46V983ZM1449.34 903.454C1456.86 903.454 1462.91 905.173 1467.49 908.61C1472.11 912.012 1474.42 916.613 1474.42 922.414C1474.42 926.424 1473.31 930.005 1471.09 933.156C1468.87 936.271 1465.29 939.064 1460.35 941.535C1466.22 944.686 1470.43 947.98 1472.97 951.418C1475.55 954.82 1476.84 958.562 1476.84 962.644C1476.84 969.089 1474.32 974.281 1469.27 978.22C1464.22 982.123 1457.58 984.074 1449.34 984.074C1440.75 984.074 1434 982.248 1429.09 978.596C1424.19 974.943 1421.73 969.769 1421.73 963.073C1421.73 958.597 1422.91 954.623 1425.28 951.149C1427.68 947.676 1431.51 944.615 1436.77 941.965C1432.3 939.136 1429.07 936.11 1427.1 932.888C1425.13 929.665 1424.15 926.138 1424.15 922.307C1424.15 916.685 1426.48 912.137 1431.13 908.664C1435.79 905.191 1441.86 903.454 1449.34 903.454ZM1437.09 962.106C1437.09 965.186 1438.17 967.585 1440.32 969.304C1442.46 971.022 1445.4 971.882 1449.12 971.882C1453.24 971.882 1456.32 971.005 1458.36 969.25C1460.4 967.46 1461.42 965.114 1461.42 962.214C1461.42 959.815 1460.4 957.577 1458.36 955.5C1456.36 953.387 1453.08 951.149 1448.53 948.786C1440.91 952.295 1437.09 956.735 1437.09 962.106ZM1449.23 915.593C1446.4 915.593 1444.11 916.327 1442.36 917.795C1440.64 919.227 1439.78 921.161 1439.78 923.596C1439.78 925.744 1440.46 927.678 1441.82 929.396C1443.22 931.079 1445.72 932.816 1449.34 934.606C1452.85 932.959 1455.3 931.276 1456.7 929.558C1458.09 927.839 1458.79 925.852 1458.79 923.596C1458.79 921.125 1457.9 919.174 1456.11 917.741C1454.32 916.309 1452.03 915.593 1449.23 915.593ZM1513.15 949.646C1513.15 934.105 1516.42 922.539 1522.98 914.948C1529.57 907.357 1539.41 903.562 1552.52 903.562C1556.99 903.562 1560.5 903.83 1563.05 904.367V917.634C1559.86 916.918 1556.71 916.56 1553.59 916.56C1547.9 916.56 1543.24 917.419 1539.63 919.138C1536.05 920.856 1533.36 923.399 1531.57 926.765C1529.78 930.131 1528.72 934.911 1528.4 941.105H1529.1C1532.65 935.018 1538.32 931.975 1546.13 931.975C1553.15 931.975 1558.64 934.177 1562.62 938.581C1566.59 942.985 1568.58 949.073 1568.58 956.843C1568.58 965.222 1566.21 971.864 1561.49 976.77C1556.76 981.639 1550.21 984.074 1541.83 984.074C1536.03 984.074 1530.96 982.731 1526.63 980.046C1522.33 977.36 1519 973.439 1516.64 968.283C1514.31 963.127 1513.15 956.914 1513.15 949.646ZM1541.51 970.808C1545.05 970.808 1547.77 969.626 1549.67 967.263C1551.57 964.864 1552.52 961.462 1552.52 957.058C1552.52 953.226 1551.62 950.218 1549.83 948.034C1548.08 945.814 1545.41 944.704 1541.83 944.704C1538.46 944.704 1535.58 945.796 1533.18 947.98C1530.82 950.165 1529.64 952.707 1529.64 955.607C1529.64 959.868 1530.75 963.467 1532.97 966.403C1535.22 969.34 1538.07 970.808 1541.51 970.808ZM1575.99 949.646C1575.99 934.105 1579.27 922.539 1585.82 914.948C1592.41 907.357 1602.25 903.562 1615.36 903.562C1619.84 903.562 1623.35 903.83 1625.89 904.367V917.634C1622.7 916.918 1619.55 916.56 1616.43 916.56C1610.74 916.56 1606.09 917.419 1602.47 919.138C1598.89 920.856 1596.2 923.399 1594.41 926.765C1592.62 930.131 1591.57 934.911 1591.24 941.105H1591.94C1595.49 935.018 1601.16 931.975 1608.97 931.975C1615.99 931.975 1621.48 934.177 1625.46 938.581C1629.43 942.985 1631.42 949.073 1631.42 956.843C1631.42 965.222 1629.06 971.864 1624.33 976.77C1619.6 981.639 1613.05 984.074 1604.67 984.074C1598.87 984.074 1593.8 982.731 1589.47 980.046C1585.17 977.36 1581.84 973.439 1579.48 968.283C1577.15 963.127 1575.99 956.914 1575.99 949.646ZM1604.35 970.808C1607.89 970.808 1610.62 969.626 1612.51 967.263C1614.41 964.864 1615.36 961.462 1615.36 957.058C1615.36 953.226 1614.47 950.218 1612.67 948.034C1610.92 945.814 1608.25 944.704 1604.67 944.704C1601.31 944.704 1598.42 945.796 1596.02 947.98C1593.66 950.165 1592.48 952.707 1592.48 955.607C1592.48 959.868 1593.59 963.467 1595.81 966.403C1598.07 969.34 1600.91 970.808 1604.35 970.808ZM1696.03 966.726H1686.58V983H1670.36V966.726H1636.84V955.178L1671.27 904.475H1686.58V953.835H1696.03V966.726ZM1670.36 953.835V940.515C1670.36 938.295 1670.45 935.072 1670.63 930.847C1670.81 926.621 1670.95 924.169 1671.06 923.488H1670.63C1669.3 926.424 1667.71 929.289 1665.85 932.082L1651.45 953.835H1670.36Z" fill="#FF0000"/>
<path d="M1307.68 1039.4H1312.72L1303.79 1049.81L1313.48 1061H1308.21L1298.87 1050.04V1061H1294.28V1039.4H1298.87V1049.89L1307.68 1039.4ZM1326.16 1044.77V1041.27H1344.96V1044.77H1326.16ZM1326.16 1052.56V1049.09H1344.96V1052.56H1326.16ZM1358.81 1052.23V1048.32H1368.85V1052.23H1358.81ZM1402.82 1054.77H1398.97V1061H1394.5V1054.77H1381.45V1051.23L1394.5 1032.37H1398.97V1050.96H1402.82V1054.77ZM1394.5 1050.96V1043.79C1394.5 1041.24 1394.56 1039.15 1394.69 1037.52H1394.54C1394.17 1038.38 1393.6 1039.42 1392.82 1040.65L1385.73 1050.96H1394.5ZM1411.59 1056.8C1410.96 1059.22 1409.82 1062.34 1408.15 1066.16H1404.77C1405.67 1062.64 1406.34 1059.37 1406.78 1056.35H1411.29L1411.59 1056.8ZM1419.24 1061L1430.53 1036.53H1415.69V1032.48H1435.43V1035.69L1424.2 1061H1419.24Z" fill="white"/>
<defs>
<linearGradient id="paint0_linear" x1="1975" y1="515.976" x2="0" y2="516" gradientUnits="userSpaceOnUse">
<stop stop-color="#00CD77"/>
<stop offset="0.410127" stop-color="#6A7186"/>
</linearGradient>
<linearGradient id="paint1_linear" x1="1975" y1="837.977" x2="1" y2="838" gradientUnits="userSpaceOnUse">
<stop stop-color="#00CD77"/>
<stop offset="0.410127" stop-color="#6A7186"/>
</linearGradient>
</defs>
</svg>
