<svg width="582" height="222" viewBox="0 0 582 222" fill="none" xmlns="http://www.w3.org/2000/svg">
<path d="M0 221.551V82.4829H138.7L0 221.551Z" fill="#2790D4"/>
<path d="M0 221.551L138.7 82.4829V221.551H0Z" fill="#69D0A5"/>
<path d="M220.903 0H55.151L0 55.5374H165.304L220.903 0Z" fill="#2790D4"/>
<path d="M220.755 0.149902V166.163L165.305 221.401V55.5376L220.755 0.149902Z" fill="#69D0A5"/>
<path d="M311.028 45.6574H305.647L304.9 38.7713H277.848V0.299316H285.321V32.035H298.623V0.299316H306.096V32.035H311.028V45.6574Z" fill="white"/>
<path d="M326.721 14.5203C324.628 14.5203 322.835 15.1191 321.489 16.167C320.144 17.3646 319.397 19.3106 319.098 22.0052H332.699C332.699 19.1609 332.101 17.2149 331.055 16.167C330.158 14.9694 328.664 14.5203 326.721 14.5203ZM336.286 36.5257C335.24 37.4239 333.745 38.1724 332.101 38.6215C330.457 39.0706 328.664 39.37 326.87 39.37C324.778 39.37 322.984 39.0706 321.489 38.3221C319.995 37.5736 318.65 36.6754 317.753 35.4778C316.707 34.2803 315.959 32.6336 315.511 30.9869C315.063 29.1906 314.764 27.2445 314.764 24.9991C314.764 20.3585 315.81 16.7658 317.902 14.2209C319.995 11.8258 322.984 10.4785 326.87 10.4785C328.066 10.4785 329.411 10.6282 330.607 10.9276C331.802 11.227 332.998 11.6761 333.895 12.4246C334.941 13.1731 335.688 14.2209 336.286 15.7179C336.884 17.0652 337.183 19.0112 337.183 21.2567C337.183 22.4542 337.033 23.8015 336.884 25.2985H319.248C319.248 26.9451 319.397 28.2924 319.696 29.6397C319.995 30.8372 320.593 31.8851 321.19 32.7833C321.938 33.6815 322.835 34.2803 323.881 34.7294C324.927 35.1785 326.422 35.4778 327.916 35.4778C329.112 35.4778 330.457 35.3281 331.653 34.8791C332.848 34.43 333.895 33.9809 334.493 33.3821L336.286 36.5257Z" fill="white"/>
<path d="M360.948 26.6458H348.393V38.7712H344.059V11.2271H348.393V22.7537H360.948V11.2271H365.282V38.7712H360.948V26.6458Z" fill="white"/>
<path d="M391.289 15.1192H382.62V38.7712H378.286V15.1192H369.617V11.2271H391.289V15.1192Z" fill="white"/>
<path d="M406.683 14.5203C404.89 14.5203 403.395 14.9694 402.199 16.0173C401.153 16.9155 400.406 18.4124 399.957 20.5082V34.1306C400.555 34.5797 401.303 35.0288 402.199 35.3281C403.096 35.6275 404.142 35.7772 405.487 35.7772C408.028 35.7772 409.971 34.8791 411.466 32.933C412.96 30.9869 413.708 28.2924 413.708 24.55C413.708 23.053 413.558 21.7058 413.259 20.5082C412.96 19.3106 412.662 18.2627 412.064 17.3646C411.466 16.4664 410.719 15.8676 409.822 15.4185C409.075 14.67 408.028 14.5203 406.683 14.5203ZM395.623 11.227H398.612L399.36 14.5203H399.658C400.555 13.1731 401.601 12.2749 402.947 11.5264C404.292 10.7779 405.786 10.4785 407.58 10.4785C411.167 10.4785 414.007 11.5264 415.8 13.7718C417.594 15.8676 418.491 19.4603 418.491 24.4003C418.491 26.6457 418.192 28.7415 417.594 30.6876C416.996 32.4839 416.099 34.1306 415.053 35.3281C414.007 36.6754 412.662 37.5736 411.017 38.3221C409.523 39.0706 407.729 39.37 405.786 39.37C404.441 39.37 403.395 39.2203 402.498 39.0706C401.601 38.9209 400.854 38.6215 399.957 38.1724V49.5493H395.623V11.227Z" fill="white"/>
<path d="M290.701 66.7646L291.747 71.7046H292.046L292.942 66.4652L298.771 49.6992H306.543L296.231 76.3452C295.483 78.441 294.587 80.2373 293.839 81.7343C293.092 83.2313 292.345 84.5785 291.448 85.6264C290.551 86.6743 289.654 87.4228 288.608 87.8718C287.562 88.3209 286.366 88.6203 284.872 88.6203C283.676 88.6203 282.63 88.4706 281.882 88.3209C281.135 88.1712 280.388 87.8718 279.491 87.2731L281.434 81.1355C282.032 81.4349 282.63 81.7343 283.078 81.7343C283.526 81.884 284.124 81.884 284.722 81.884C286.516 81.884 287.711 80.5367 288.309 77.8422L273.961 49.6992H282.779L290.701 66.7646Z" fill="white"/>
<path d="M326.421 64.669H314.315V88.321H309.98V60.7769H330.905V88.321H326.421V64.669Z" fill="white"/>
<path d="M350.335 63.9204C348.542 63.9204 347.047 64.3695 345.852 65.4174C344.805 66.3156 344.058 67.8125 343.61 69.9083V83.5307C344.208 83.9798 344.955 84.4289 345.852 84.7282C346.748 85.0276 347.795 85.1773 349.14 85.1773C351.681 85.1773 353.624 84.2792 355.118 82.3331C356.613 80.3871 357.36 77.6925 357.36 73.9501C357.36 72.4531 357.211 71.1059 356.912 69.9083C356.613 68.7107 356.314 67.6628 355.716 66.7647C355.118 65.8665 354.371 65.2677 353.474 64.8186C352.876 64.2198 351.681 63.9204 350.335 63.9204ZM339.275 60.7768H342.265L343.012 64.0701H343.161C344.058 62.7229 345.104 61.8247 346.45 61.0762C347.795 60.3277 349.289 60.0283 351.083 60.0283C354.67 60.0283 357.51 61.0762 359.303 63.3216C361.097 65.4174 361.993 69.0101 361.993 73.9501C361.993 76.1956 361.695 78.2913 361.097 80.2374C360.499 82.0337 359.602 83.6804 358.556 84.8779C357.51 86.2252 356.164 87.1234 354.52 87.8719C353.026 88.6204 351.232 88.9198 349.289 88.9198C347.944 88.9198 346.898 88.7701 346.001 88.6204C345.254 88.4707 344.357 88.1713 343.46 87.7222V99.0991H339.275V60.7768Z" fill="white"/>
<path d="M376.341 84.8781C377.387 84.8781 378.284 84.7284 379.031 84.429C379.778 84.1296 380.526 83.8302 381.124 83.3811C381.721 82.932 382.17 82.4829 382.618 82.0338C383.066 81.5847 383.216 80.986 383.515 80.5369V75.8963C383.066 75.8963 382.469 75.8963 382.02 75.7466C381.422 75.7466 380.974 75.7466 380.526 75.7466C379.33 75.7466 378.284 75.7466 377.238 75.8963C376.191 76.046 375.145 76.1957 374.398 76.6448C373.65 76.9441 372.903 77.3932 372.455 78.1417C372.006 78.7405 371.707 79.489 371.707 80.3872C371.707 81.7344 372.156 82.7823 373.053 83.5308C373.8 84.429 374.996 84.8781 376.341 84.8781ZM368.569 62.8727C369.914 61.9745 371.558 61.3757 373.501 61.0763C375.295 60.6272 377.238 60.4775 379.33 60.4775C381.273 60.4775 382.768 60.7769 383.963 61.226C385.159 61.6751 386.056 62.4236 386.654 63.1721C387.251 63.9206 387.7 64.9684 387.849 65.8666C387.999 66.9145 388.148 67.8127 388.148 68.8605C388.148 71.106 388.148 73.2017 387.999 75.2975C387.849 77.3932 387.849 79.3393 387.849 81.2853C387.849 82.6326 387.849 83.9799 387.999 85.1775C388.148 86.375 388.298 87.5726 388.597 88.4708H385.308L384.113 84.5787H383.814C383.515 85.0278 383.066 85.6265 382.618 86.0756C382.17 86.5247 381.572 86.9738 380.825 87.4229C380.077 87.872 379.33 88.1714 378.433 88.3211C377.536 88.6205 376.49 88.7702 375.295 88.7702C374.099 88.7702 373.053 88.6205 372.006 88.1714C370.96 87.872 370.063 87.2732 369.466 86.6744C368.718 85.9259 368.12 85.1775 367.672 84.2793C367.224 83.3811 367.074 82.1835 367.074 80.986C367.074 79.3393 367.373 77.992 368.12 76.9442C368.718 75.8963 369.764 74.9981 370.96 74.3993C372.156 73.8005 373.65 73.3514 375.295 73.052C376.939 72.7526 378.732 72.603 380.825 72.603C381.273 72.603 381.871 72.603 382.319 72.603C382.768 72.603 383.365 72.6029 383.814 72.7526C383.963 71.7048 383.963 70.6569 383.963 69.7587C383.963 67.8127 383.515 66.3157 382.768 65.5672C382.02 64.8187 380.526 64.3696 378.433 64.3696C377.835 64.3696 377.088 64.3696 376.49 64.5193C375.743 64.669 374.996 64.8187 374.248 64.9684C373.501 65.1181 372.754 65.4175 372.156 65.5672C371.409 65.8666 370.811 66.0163 370.362 66.3157L368.569 62.8727Z" fill="white"/>
<path d="M400.704 84.5787C401.451 84.7284 402.049 84.7284 402.796 84.7284C403.543 84.7284 404.291 84.7284 405.187 84.7284C407.579 84.7284 409.522 84.429 410.717 83.6805C411.913 82.932 412.511 81.7344 412.511 80.0878C412.511 78.7405 412.063 77.6926 411.016 76.7945C409.97 76.046 408.177 75.5969 405.636 75.5969H400.853V84.5787H400.704ZM406.084 72.4533C406.682 72.4533 407.429 72.3036 408.027 72.1539C408.625 72.0042 409.223 71.7048 409.671 71.2557C410.12 70.8066 410.568 70.3575 410.867 69.9084C411.166 69.4593 411.315 68.8605 411.315 68.2618C411.315 66.7648 410.867 65.7169 409.97 65.2678C409.073 64.669 407.579 64.3696 405.337 64.3696C404.141 64.3696 403.244 64.3696 402.497 64.3696C401.75 64.3696 401.152 64.5193 400.554 64.5193V72.4533H406.084ZM396.22 60.9266C397.565 60.7769 398.91 60.7769 400.255 60.6272C401.6 60.4775 403.394 60.4775 405.486 60.4775C409.073 60.4775 411.764 61.0763 413.258 62.1242C414.902 63.1721 415.65 64.9684 415.65 67.2139C415.65 68.5611 415.201 69.7587 414.454 70.9563C413.707 72.1539 412.511 73.052 410.717 73.6508V73.8005C412.81 74.2496 414.454 74.9981 415.351 76.046C416.247 77.0938 416.696 78.5908 416.696 80.3872C416.696 83.2314 415.65 85.3272 413.557 86.6744C411.465 88.0217 408.476 88.6205 404.291 88.6205C402.796 88.6205 401.301 88.6205 399.956 88.4708C398.611 88.3211 397.266 88.3211 396.07 88.1714V60.9266H396.22Z" fill="white"/>
<path d="M438.369 64.669H430.448C430.298 66.1659 430.298 67.8126 430.149 69.609C429.999 71.4053 429.85 73.2017 429.701 74.998C429.551 76.7944 429.252 78.441 428.804 80.0877C428.505 81.7344 427.907 83.0816 427.459 84.4289C426.861 85.6265 426.263 86.6744 425.366 87.4228C424.619 88.1713 423.573 88.6204 422.377 88.6204C421.63 88.6204 421.032 88.6204 420.583 88.4707C420.135 88.321 419.687 88.321 419.238 88.0216L419.836 84.2792C420.284 84.4289 420.733 84.4289 421.331 84.4289C422.078 84.4289 422.676 84.1295 423.274 83.5307C423.872 82.9319 424.32 81.7344 424.768 79.938C425.217 78.1417 425.516 75.7465 425.815 72.7526C426.113 69.6089 426.263 65.7168 426.412 60.7769H442.704V88.321H438.369V64.669Z" fill="white"/>
<path d="M461.833 63.9204C459.74 63.9204 457.947 64.5192 456.602 65.5671C455.257 66.7647 454.509 68.7107 454.21 71.4053H467.811C467.811 68.561 467.213 66.615 466.167 65.5671C465.27 64.5192 463.776 63.9204 461.833 63.9204ZM471.249 86.0755C470.203 86.9737 468.708 87.7222 467.064 88.1713C465.42 88.6204 463.626 88.9198 461.833 88.9198C459.74 88.9198 457.947 88.6204 456.452 87.8719C454.958 87.1234 453.613 86.2252 452.716 85.0276C451.67 83.8301 450.922 82.1834 450.474 80.5367C450.025 78.7404 449.727 76.7943 449.727 74.5489C449.727 69.9083 450.773 66.3156 452.865 63.7707C454.958 61.3756 457.947 60.0283 461.833 60.0283C463.029 60.0283 464.374 60.178 465.569 60.4774C466.765 60.7768 467.961 61.2259 468.858 61.9744C469.904 62.7229 470.651 63.7707 471.249 65.2677C471.847 66.615 472.146 68.561 472.146 70.8065C472.146 72.004 471.996 73.3513 471.847 74.8483H454.36C454.36 76.4949 454.509 77.8422 454.808 79.1895C455.107 80.3871 455.705 81.4349 456.303 82.3331C457.05 83.2313 457.947 83.8301 458.993 84.2792C460.039 84.7282 461.534 85.0276 463.029 85.0276C464.224 85.0276 465.569 84.8779 466.765 84.4289C467.961 83.9798 469.007 83.5307 469.605 82.9319L471.249 86.0755Z" fill="white"/>
<path d="M495.911 76.1956H483.506V88.321H479.172V60.7769H483.506V72.3035H495.911V60.7769H500.395V88.321H495.911V76.1956Z" fill="white"/>
<path d="M525.952 72.0041L526.101 68.5611H525.952L523.71 72.1538L511.305 88.321H508.764V60.7769H513.248V77.5429L513.098 80.8362H513.248L515.489 77.3932L527.745 60.7769H530.286V88.321H525.952V72.0041Z" fill="white"/>
<path d="M552.557 64.5191C552.109 64.3694 551.511 64.2197 550.913 64.0701C550.315 63.9204 549.867 63.9204 549.418 63.9204C547.027 63.9204 545.234 64.3694 544.038 65.1179C542.842 66.0161 542.244 67.3634 542.244 69.1597C542.244 70.8064 542.842 72.1537 544.187 73.0518C545.532 73.95 547.177 74.3991 549.269 74.3991H549.418C549.568 74.3991 549.568 74.3991 549.867 74.3991C550.016 74.3991 550.465 74.3991 550.764 74.3991C551.212 74.3991 551.66 74.3991 552.408 74.2494V64.5191H552.557ZM552.557 76.944L548.372 77.5427L541.049 88.3209H535.668L542.244 78.89L544.486 76.7943C542.543 76.4949 540.899 75.7464 539.554 74.5488C538.209 73.3512 537.611 71.5549 537.611 69.4591C537.611 67.8125 537.91 66.4652 538.508 65.2676C539.106 64.0701 539.853 63.1719 540.899 62.4234C541.945 61.6749 543.291 61.0761 544.636 60.7767C546.13 60.4773 547.774 60.3276 549.568 60.3276C550.913 60.3276 552.258 60.4773 553.304 60.627C554.5 60.7767 555.696 61.0761 556.742 61.2258V88.3209H552.408V76.944H552.557Z" fill="white"/>
<path d="M289.057 105.237C288.31 105.237 287.563 105.237 286.965 105.386C286.367 105.386 285.769 105.536 285.321 105.536V117.961C285.47 117.961 285.62 118.11 285.919 118.11C286.217 118.11 286.516 118.11 286.815 118.26C287.114 118.26 287.413 118.26 287.712 118.26C288.011 118.26 288.31 118.26 288.459 118.26C289.506 118.26 290.402 118.11 291.449 117.961C292.345 117.811 293.242 117.512 293.989 116.913C294.737 116.464 295.335 115.715 295.783 114.817C296.231 113.919 296.53 112.721 296.53 111.374C296.53 110.177 296.381 109.129 295.932 108.38C295.484 107.632 294.886 107.033 294.139 106.434C293.392 105.985 292.644 105.686 291.748 105.386C290.851 105.386 289.954 105.237 289.057 105.237ZM277.848 99.6978C279.342 99.3984 281.136 99.2487 282.929 98.9493C284.723 98.7996 286.666 98.6499 288.459 98.6499C290.402 98.6499 292.345 98.7996 294.139 99.099C296.082 99.3984 297.726 99.9972 299.37 100.895C300.865 101.794 302.21 103.141 303.107 104.787C304.003 106.434 304.601 108.68 304.601 111.374C304.601 113.769 304.153 115.865 303.405 117.512C302.509 119.158 301.462 120.506 300.117 121.553C298.772 122.601 297.128 123.35 295.335 123.799C293.541 124.248 291.748 124.547 289.805 124.547C289.655 124.547 289.356 124.547 288.908 124.547C288.459 124.547 288.16 124.547 287.712 124.547C287.264 124.547 286.815 124.547 286.367 124.398C285.919 124.398 285.62 124.248 285.47 124.248V137.571H277.997V99.6978H277.848Z" fill="white"/>
<path d="M320.743 113.47C318.651 113.47 316.857 114.069 315.512 115.117C314.167 116.314 313.419 118.261 313.121 120.955H326.721C326.721 118.111 326.124 116.165 325.077 115.117C324.031 114.069 322.686 113.47 320.743 113.47ZM330.159 135.625C329.113 136.524 327.618 137.272 325.974 137.721C324.33 138.17 322.537 138.47 320.743 138.47C318.651 138.47 316.857 138.17 315.362 137.422C313.868 136.673 312.523 135.775 311.626 134.577C310.58 133.38 309.832 131.733 309.384 130.087C308.936 128.29 308.637 126.344 308.637 124.099C308.637 119.458 309.683 115.865 311.775 113.321C313.868 110.925 316.857 109.578 320.743 109.578C321.939 109.578 323.284 109.728 324.48 110.027C325.675 110.327 326.871 110.776 327.768 111.524C328.814 112.273 329.561 113.321 330.159 114.818C330.757 116.165 331.056 118.111 331.056 120.356C331.056 121.554 330.906 122.901 330.757 124.398H313.121C313.121 126.045 313.27 127.392 313.569 128.739C313.868 129.937 314.466 130.985 315.064 131.883C315.811 132.781 316.708 133.38 317.754 133.829C318.8 134.278 320.295 134.577 321.789 134.577C322.985 134.577 324.33 134.428 325.526 133.979C326.721 133.53 327.768 133.081 328.366 132.482L330.159 135.625Z" fill="white"/>
<path d="M356.762 135.925C355.716 136.673 354.371 137.272 352.876 137.721C351.382 138.17 349.738 138.32 348.093 138.32C346.001 138.32 344.208 138.02 342.713 137.272C341.218 136.523 340.023 135.625 339.126 134.428C338.229 133.23 337.482 131.584 337.033 129.787C336.585 127.991 336.436 126.045 336.436 123.949C336.436 119.308 337.482 115.716 339.574 113.321C341.667 110.776 344.506 109.578 348.392 109.578C350.186 109.578 351.681 109.728 352.876 110.027C354.072 110.327 355.268 110.626 356.164 111.225L354.969 114.967C354.072 114.518 353.175 114.069 352.129 113.77C351.083 113.47 350.036 113.321 348.841 113.321C343.61 113.321 341.069 116.913 341.069 123.949C341.069 125.296 341.218 126.644 341.517 127.991C341.816 129.188 342.265 130.386 342.862 131.284C343.46 132.182 344.357 133.08 345.403 133.679C346.449 134.278 347.795 134.577 349.289 134.577C350.634 134.577 351.83 134.428 352.876 133.979C353.922 133.53 354.819 133.08 355.417 132.631L356.762 135.925Z" fill="white"/>
<path d="M379.332 114.218H367.226V137.87H362.742V110.326H383.667V137.87H379.332V114.218Z" fill="white"/>
<path d="M400.256 128.14L401.75 133.38H402.049L403.245 127.991L408.625 110.177H412.96L404.889 134.877C404.291 136.673 403.693 138.469 403.095 140.116C402.498 141.763 401.75 143.26 401.152 144.607C400.554 145.954 399.658 147.002 398.612 147.751C397.715 148.499 396.669 148.948 395.473 148.948C394.128 148.948 393.081 148.798 392.185 148.349L392.932 144.607C393.38 144.757 393.829 144.906 394.277 144.906C395.323 144.906 396.22 144.308 397.266 143.26C398.163 142.212 399.06 140.266 399.658 137.721L388.598 110.326H393.679L400.256 128.14Z" fill="white"/>
<path d="M420.732 124.098C420.732 125.446 420.881 126.793 421.18 128.14C421.479 129.487 421.928 130.535 422.525 131.583C423.123 132.481 423.871 133.38 424.917 133.829C425.814 134.427 427.009 134.577 428.205 134.577C430.746 134.577 432.539 133.679 433.884 131.883C435.08 130.086 435.678 127.392 435.678 123.799C435.678 122.452 435.529 121.104 435.23 119.907C434.931 118.709 434.632 117.661 434.034 116.913C433.436 116.015 432.838 115.416 431.941 114.967C431.045 114.518 430.148 114.218 428.952 114.218C426.112 114.218 424.02 114.967 422.675 116.763C421.479 118.41 420.732 120.955 420.732 124.098ZM420.284 115.266C421.479 113.47 422.824 112.272 424.319 111.524C425.814 110.775 427.607 110.476 429.849 110.476C433.287 110.476 435.827 111.524 437.621 113.769C439.414 116.015 440.311 119.158 440.311 123.5C440.311 128.44 439.265 132.182 437.173 134.727C435.08 137.272 432.091 138.469 428.354 138.469C424.319 138.469 421.33 137.122 419.237 134.278C417.294 131.433 416.248 127.092 416.248 121.104C416.248 117.961 416.397 115.266 416.696 113.021C416.995 110.775 417.444 108.829 418.042 107.332C418.639 105.835 419.387 104.638 420.284 103.59C421.18 102.692 422.077 101.943 423.123 101.344C424.169 100.746 425.365 100.446 426.71 100.147C428.055 99.9972 429.401 99.6978 430.895 99.5481C432.838 99.3984 434.333 99.099 435.379 98.9493C436.425 98.6499 437.322 98.3505 437.92 97.6021L438.368 101.494C438.069 101.794 437.621 102.093 437.173 102.243C436.724 102.392 436.276 102.692 435.528 102.841C434.931 102.991 434.183 103.141 433.287 103.291C432.39 103.44 431.493 103.44 430.297 103.59C428.653 103.74 427.308 103.889 426.112 104.189C424.917 104.488 423.871 104.937 422.974 105.835C422.077 106.584 421.479 107.781 420.881 109.129C420.433 110.626 419.985 112.422 419.835 114.817L420.284 115.266Z" fill="white"/>
<path d="M461.983 114.218H454.061C453.912 115.715 453.912 117.362 453.762 119.158C453.613 120.955 453.463 122.751 453.314 124.547C453.164 126.344 452.865 127.99 452.417 129.637C452.118 131.284 451.52 132.631 451.072 133.978C450.474 135.176 449.876 136.224 448.979 136.972C448.083 137.721 447.186 138.17 445.99 138.17C445.243 138.17 444.645 138.17 444.197 138.02C443.748 137.87 443.3 137.87 442.852 137.571L443.449 133.829C443.898 133.978 444.346 133.978 444.944 133.978C445.691 133.978 446.289 133.679 446.887 133.08C447.485 132.481 447.933 131.284 448.382 129.487C448.83 127.691 449.129 125.296 449.428 122.302C449.727 119.158 449.876 115.266 450.026 110.326H466.317V137.87H461.983V114.218Z" fill="white"/>
<path d="M492.024 121.553L492.173 118.11H492.024L489.782 121.703L477.377 137.87H474.836V110.326H479.17V127.092L479.021 130.385H479.32L481.412 126.942L493.817 110.326H496.358V137.87H492.024V121.553Z" fill="white"/>
<path d="M511.754 125.446H509.213V137.87H504.879V110.326H509.213V122.751L511.605 122.003L520.423 110.326H525.206L516.686 121.404L514.295 123.2L517.135 125.446L526.401 137.87H520.871L511.754 125.446Z" fill="white"/>
<path d="M534.023 124.098C534.023 125.446 534.172 126.793 534.471 128.14C534.77 129.487 535.219 130.535 535.816 131.434C536.414 132.332 537.162 133.23 538.058 133.679C538.955 134.278 540.151 134.577 541.496 134.577C546.428 134.577 548.969 131.134 548.969 123.949C548.969 122.452 548.82 121.104 548.521 119.907C548.222 118.56 547.773 117.512 547.175 116.614C546.578 115.715 545.83 114.967 544.934 114.368C544.037 113.769 542.841 113.47 541.496 113.47C536.564 113.47 534.023 116.913 534.023 124.098ZM529.539 124.098C529.539 119.458 530.585 115.865 532.678 113.47C534.77 110.925 537.759 109.728 541.645 109.728C543.738 109.728 545.531 110.027 547.026 110.775C548.521 111.524 549.866 112.422 550.762 113.62C551.809 114.817 552.556 116.464 553.004 118.26C553.453 120.057 553.752 122.003 553.752 124.098C553.752 128.739 552.705 132.332 550.613 134.727C548.521 137.122 545.531 138.469 541.645 138.469C539.553 138.469 537.759 138.17 536.265 137.421C534.77 136.673 533.425 135.775 532.528 134.577C531.482 133.38 530.735 131.733 530.286 129.937C529.838 128.14 529.539 126.194 529.539 124.098Z" fill="white"/>
<path d="M566.754 99.249C567.053 100.896 567.8 102.093 568.697 102.842C569.594 103.441 570.64 103.89 571.835 103.89C573.031 103.89 574.077 103.59 574.974 102.842C575.871 102.093 576.469 101.045 576.768 99.3987L580.056 100.447C579.757 102.542 578.711 104.189 577.216 105.387C575.721 106.584 573.778 107.033 571.686 107.033C570.64 107.033 569.743 106.884 568.697 106.584C567.8 106.285 566.903 105.985 566.156 105.387C565.409 104.937 564.661 104.189 564.213 103.441C563.615 102.692 563.316 101.644 563.167 100.596L566.754 99.249ZM577.664 121.554L577.814 118.111H577.664L575.423 121.704L563.017 137.871H560.477V110.327H564.811V127.093L564.661 130.386H564.811L566.903 126.943L579.308 110.327H581.849V137.871H577.515V121.554H577.664Z" fill="white"/>
<path d="M118.073 130.835C117.924 130.984 117.924 130.984 117.774 131.134V131.284C117.476 132.631 116.878 133.829 116.878 135.026V135.176C116.878 135.475 116.728 135.775 116.728 136.074C116.579 136.373 116.429 136.673 116.28 136.972C115.981 137.122 115.981 137.272 115.682 137.421C115.533 137.571 115.383 137.721 115.084 137.87C115.084 137.87 115.084 137.87 115.084 138.02V138.17V138.319C114.935 138.918 114.785 139.667 114.337 140.265C114.337 140.265 114.486 140.265 114.636 140.265C114.636 140.265 114.785 140.265 114.935 140.265C115.084 140.265 115.234 140.265 115.234 140.265C115.383 140.265 115.533 140.265 115.533 140.415C115.533 140.415 115.533 140.715 115.383 141.164C115.383 141.463 115.234 141.912 115.234 142.212C115.234 142.361 115.234 142.361 115.084 142.361C114.785 142.81 114.636 143.11 114.636 143.259C114.636 143.409 114.636 143.409 114.636 143.409C114.636 143.409 114.785 143.559 114.935 143.559C115.234 143.709 115.533 143.858 115.831 144.158C115.981 144.307 116.13 144.607 116.13 144.756L116.28 145.056V145.205C116.28 145.505 116.13 145.655 115.981 145.804C115.831 145.954 115.682 146.104 115.533 146.253C115.383 146.253 115.383 146.403 115.234 146.403C115.234 146.553 115.234 146.553 115.234 146.702C115.234 147.002 115.383 147.451 115.383 147.75C115.383 147.9 115.383 148.05 115.383 148.05C115.234 148.05 115.234 148.05 115.084 148.05C114.785 148.05 114.337 147.9 113.888 147.601C113.44 147.451 112.992 147.152 112.693 147.002C112.394 146.852 112.244 146.852 112.095 146.852C111.945 146.852 111.945 146.852 111.796 147.002C111.647 147.152 111.198 147.451 110.899 147.601C110.75 147.601 110.6 147.75 110.6 147.75C110.6 147.75 110.6 147.75 110.451 147.75C110.451 147.601 110.451 147.601 110.451 147.451C110.451 147.451 110.451 147.451 110.451 147.301C110.301 147.301 110.301 147.301 110.301 147.301C110.152 147.301 110.152 147.301 110.152 147.301C109.704 148.05 109.554 148.798 109.255 149.696C109.106 150.145 108.956 150.894 108.657 151.493C108.358 152.092 108.06 152.69 107.611 152.99C107.462 153.139 107.312 153.139 107.163 153.139C107.013 153.139 106.864 153.139 106.714 153.139C106.565 153.139 106.565 153.139 106.415 153.289L105.967 153.439H105.818C105.668 153.289 105.519 153.289 105.369 153.139C105.22 153.139 105.07 152.99 104.921 152.99C104.771 152.99 104.771 152.99 104.622 153.139C104.622 153.289 104.472 153.289 104.472 153.439C104.472 153.738 104.622 154.038 104.622 154.337C104.622 154.487 104.622 154.786 104.472 154.936C104.323 155.385 104.174 155.684 104.174 156.133C104.174 156.283 104.174 156.433 104.174 156.582C104.323 156.732 104.323 156.882 104.323 157.032C104.323 157.331 104.174 157.63 104.024 157.78C103.875 158.079 103.875 158.229 103.875 158.379V158.528L104.024 158.678L103.875 158.828V158.978C103.875 159.127 103.875 159.127 103.875 159.277C103.875 159.427 103.875 159.427 103.875 159.427C104.024 159.726 104.024 160.025 104.024 160.175C104.024 160.475 104.024 160.774 103.875 160.924C103.725 161.073 103.576 161.073 103.426 161.223C103.277 161.373 103.127 161.373 102.978 161.522C102.828 161.522 102.828 161.672 102.828 161.672L102.529 161.971V162.57L102.828 162.87C102.978 162.87 103.277 162.87 103.426 162.87C103.576 162.87 103.725 162.87 103.875 163.019H104.024V163.169C104.024 163.319 104.024 163.468 104.024 163.468C104.024 164.067 104.024 164.666 104.024 165.265C104.024 166.013 103.875 166.612 103.576 167.211C103.576 167.81 103.725 168.109 103.725 168.558C103.875 168.858 104.024 169.157 104.024 169.456C104.024 169.756 104.024 169.905 103.875 170.205C103.875 170.354 103.725 170.654 103.725 170.953C103.875 171.253 103.875 171.702 103.875 172.001C103.875 172.001 103.875 172.001 104.024 172.001C104.024 171.702 104.024 171.552 104.174 171.552C104.174 171.552 104.174 171.402 104.323 171.402C104.323 171.402 104.323 171.402 104.472 171.402H104.622C104.622 171.402 104.622 171.402 104.622 171.552C104.622 171.552 104.622 171.702 104.771 171.702C104.771 171.851 104.921 172.001 105.07 172.301L105.818 172.75V173.498L106.117 174.546C106.117 174.845 106.117 174.995 105.967 175.294C105.967 175.594 105.818 175.893 105.818 176.043L105.668 176.193C105.519 176.342 105.519 176.342 105.369 176.492L105.22 176.642H105.07C104.921 176.642 104.771 176.492 104.622 176.342C104.472 176.193 104.472 176.193 104.472 176.043H104.323C104.323 176.043 104.323 176.043 104.174 176.043C104.024 176.043 103.875 176.043 103.875 176.193C103.875 176.342 103.725 176.342 103.725 176.492C103.725 176.642 103.725 176.791 103.875 176.941C103.875 177.39 103.725 177.54 103.725 177.839C103.576 177.989 103.426 178.139 103.277 178.438H103.127C103.127 178.438 103.127 178.438 102.978 178.438L102.828 178.588C102.828 178.738 102.679 178.887 102.679 179.187C102.679 179.336 102.679 179.336 102.679 179.486V179.636C102.679 179.785 102.679 179.935 102.529 179.935C102.529 180.085 102.529 180.085 102.529 180.085C102.529 180.085 102.529 180.234 102.679 180.384C102.679 180.833 102.679 181.282 102.828 181.731C102.828 182.33 102.978 182.929 102.978 183.528C102.978 183.827 102.978 184.276 102.828 184.576C102.529 184.875 102.38 185.025 102.38 185.324C102.38 185.474 102.38 185.624 102.529 185.773C102.529 185.773 102.529 185.923 102.679 185.923H102.828C102.978 185.923 103.127 185.923 103.277 185.923C103.426 185.923 103.576 185.923 103.576 186.073C103.725 186.222 103.725 186.372 103.875 186.671C104.024 186.821 104.024 187.121 104.024 187.42C104.024 187.57 104.024 187.719 103.875 187.869C103.576 187.869 103.426 187.869 103.426 188.019C103.277 188.019 103.277 188.168 103.277 188.168C103.277 188.318 103.277 188.617 103.127 188.917L103.277 189.216C103.426 189.216 103.426 189.366 103.426 189.366L103.576 189.516C103.576 189.665 103.576 189.815 103.725 189.965C103.725 190.264 103.725 190.414 103.875 190.564C103.875 190.564 103.875 190.564 104.024 190.564C104.024 190.564 104.174 190.564 104.323 190.713H104.472V190.863C104.472 191.013 104.472 191.462 104.472 191.761C104.472 191.911 104.472 192.061 104.472 192.21C104.472 192.36 104.622 192.51 104.622 192.51H104.771C104.921 192.51 105.07 192.51 105.22 192.51C105.369 192.51 105.519 192.51 105.668 192.51C105.818 192.51 105.818 192.659 105.818 192.659C105.818 192.809 105.818 192.809 105.818 192.809C105.818 192.959 105.818 193.108 105.818 193.108V193.258V193.408L105.07 194.156V194.755C104.771 195.054 104.472 195.054 104.174 195.054C103.875 195.054 103.576 195.054 103.277 195.054C103.127 195.054 103.127 195.054 102.978 195.054H102.828L102.38 194.306C102.231 194.306 102.231 194.306 102.231 194.306H102.081L101.932 194.456C101.782 194.605 101.782 194.755 101.782 195.054C101.633 195.504 101.633 195.953 101.633 196.252C101.334 196.551 101.184 197.001 100.885 197.3L100.736 197.45C100.736 197.45 100.736 197.45 100.885 197.45C101.035 197.599 101.035 197.899 101.184 198.048C101.334 198.198 101.334 198.348 101.483 198.497C101.633 198.497 101.782 198.647 101.932 198.797C102.081 198.947 102.231 199.096 102.231 199.396C102.231 199.545 102.231 199.695 102.231 199.845C102.231 199.994 102.231 199.994 102.231 200.144C102.231 200.294 102.081 200.294 102.081 200.444C101.932 200.593 101.782 200.593 101.633 200.743V202.09C101.782 202.39 101.932 202.689 101.932 202.988C101.932 203.437 101.782 203.737 101.782 204.036C101.782 204.186 101.782 204.336 101.932 204.485C101.932 204.635 101.782 204.785 101.782 204.785C101.782 204.934 101.782 204.934 101.782 204.934C101.782 204.934 101.782 205.084 101.782 205.234C101.782 205.384 101.633 205.533 101.633 205.533C101.483 205.683 101.483 205.683 101.334 205.683C101.184 205.833 100.885 205.833 100.736 205.833C100.586 205.833 100.586 205.982 100.437 205.982L99.9886 206.581L98.494 206.88C98.3446 207.03 98.1951 207.18 98.1951 207.33C98.0456 207.479 97.8962 207.479 97.7467 207.479C97.5973 207.479 97.4478 207.33 97.2983 207.33C97.1489 207.18 96.9994 207.03 96.9994 206.88L96.7005 206.581C96.7005 206.731 96.7005 206.731 96.7005 206.88C96.7005 207.18 96.7005 207.33 96.551 207.629C96.4016 207.779 96.4016 207.928 96.1027 208.078H95.9532C95.6543 208.078 95.5048 208.228 95.2059 208.228C94.907 208.377 94.7575 208.527 94.4586 208.527C94.3091 208.527 94.1597 208.377 94.0102 208.228C93.8607 208.078 93.8607 208.078 93.7113 207.928C93.7113 207.928 93.7113 207.928 93.7113 207.779V207.629C93.8607 207.479 93.8607 207.479 93.8607 207.479C93.8607 207.479 93.8607 207.33 93.7113 207.33L93.5618 207.18C93.4124 207.18 93.4124 207.18 93.2629 207.18C92.964 207.18 92.5156 207.33 92.0672 207.33C91.9178 207.33 91.7683 207.33 91.6188 207.33V207.18C91.6188 207.03 91.6188 207.03 91.6188 206.88V206.731C91.6188 206.731 91.6188 206.731 91.4694 206.581V206.431L91.3199 206.282C91.1704 206.132 91.021 206.132 91.021 206.132C90.8715 206.132 90.7221 206.132 90.5726 206.282C90.4231 206.431 90.2737 206.431 90.1242 206.581L88.3307 207.18V207.03C88.1812 206.88 88.1812 206.731 88.1812 206.731C88.1812 206.581 88.1812 206.581 88.1812 206.581V206.431L88.0318 206.282C87.8823 206.132 87.7328 206.132 87.5834 206.132C87.4339 206.132 87.4339 206.132 87.4339 206.132C87.4339 206.132 87.4339 206.132 87.2845 206.132C87.2845 206.132 87.135 206.282 86.9855 206.282C86.9855 206.581 87.135 207.03 87.135 207.33C86.9855 207.479 86.9855 207.629 86.8361 207.629C86.6866 207.779 86.6866 207.779 86.6866 207.928C86.6866 208.078 86.6866 208.078 86.8361 208.228V208.377C86.8361 208.527 86.8361 208.527 86.6866 208.677C86.5372 208.827 86.5372 208.827 86.5372 208.827C86.3877 208.827 86.2383 208.976 86.2383 208.976L86.0888 209.126C85.9393 209.276 85.7899 209.276 85.7899 209.425C85.6404 209.575 85.6404 209.575 85.4909 209.725C85.3415 209.725 85.192 209.874 85.0426 209.874C84.7436 209.575 84.5942 209.575 84.4447 209.575C84.2953 209.575 84.1458 209.575 83.9963 209.725C83.8469 209.874 83.6974 210.024 83.548 210.174C83.548 210.473 83.249 210.773 83.0996 211.072C82.8006 211.371 82.5017 211.521 82.2028 211.521C82.2028 211.521 82.2028 211.521 82.0533 211.521H81.9039H81.7544C81.7544 211.521 81.7544 211.521 81.605 211.671C81.605 211.82 81.4555 211.97 81.4555 212.12C81.4555 212.27 81.306 212.419 81.1566 212.419H81.0071L80.8577 212.569C80.7082 212.719 80.5587 212.868 80.5587 213.168C80.4093 213.317 80.4093 213.467 80.2598 213.467H80.1104L78.9147 212.569C78.9147 212.419 78.9147 212.27 78.9147 212.27C78.9147 212.27 78.9147 212.12 78.7652 212.12C78.7652 211.97 78.7652 211.671 78.7652 211.521C78.7652 211.371 78.7652 211.072 78.6157 210.922L78.4663 210.773C78.3168 210.922 78.3168 210.922 78.1674 210.922C78.0179 211.072 78.0179 211.072 77.8684 211.072C77.719 211.072 77.5695 210.922 77.2706 210.922C77.1211 210.773 77.1211 210.773 77.1211 210.623C77.1211 210.473 77.1211 210.473 77.1211 210.323C77.1211 210.174 77.1211 210.024 77.1211 209.725L76.6728 209.276V208.677L76.2244 208.527V208.677C76.2244 208.827 76.0749 208.827 76.0749 208.976C76.0749 208.976 75.9255 209.126 75.776 209.126C75.6265 209.126 75.4771 208.976 75.3276 208.827C75.1782 208.677 75.0287 208.677 74.8792 208.677L74.4309 208.976C74.4309 209.126 74.2814 209.126 74.2814 209.126C74.2814 209.126 74.4309 209.276 74.5803 209.425C74.7298 209.425 74.8792 209.575 75.0287 209.575C75.1782 209.725 75.4771 209.874 75.6265 210.024C75.776 210.174 75.776 210.324 75.776 210.473C75.776 210.623 75.776 210.623 75.6265 210.773C75.6265 210.922 75.6265 211.072 75.776 211.371C75.776 211.521 75.9255 211.82 75.9255 211.97C75.9255 212.12 75.9255 212.27 75.776 212.419C75.6265 212.569 75.4771 212.719 75.3276 212.868C75.0287 213.018 74.8792 213.018 74.5803 213.018C74.4309 213.018 74.1319 213.168 73.9825 213.317C73.9825 213.317 73.9825 213.317 73.833 213.467C73.833 213.467 73.6835 213.467 73.6835 213.617C73.5341 213.617 73.5341 213.617 73.3846 213.467C73.3846 213.317 73.2352 213.317 73.2352 213.168C73.2352 213.018 73.2352 212.719 73.2352 212.569C73.2352 212.419 73.2352 212.27 73.2352 212.27C73.3846 211.82 73.5341 211.521 73.5341 211.222C73.5341 210.922 73.3846 210.473 73.2352 210.024C73.0857 209.874 73.0857 209.725 73.0857 209.725C73.0857 209.575 73.0857 209.276 73.0857 209.126C73.0857 208.976 73.0857 208.976 73.0857 208.827L71.7406 209.575C71.5911 209.575 71.5911 209.425 71.5911 209.425V209.276C71.5911 209.126 71.5911 208.976 71.5911 208.976V208.827L70.9933 208.377C70.9933 208.228 70.9933 208.078 70.8438 207.928V206.731C70.9933 206.731 70.9933 206.581 71.1427 206.581C71.2922 206.431 71.2922 206.431 71.4416 206.282V206.132V205.982L72.1889 205.683C72.1889 205.683 72.1889 205.683 72.1889 205.533C72.1889 205.533 72.1889 205.384 72.1889 205.234C72.1889 205.084 72.1889 204.785 72.1889 204.635C72.1889 204.485 72.0395 204.336 72.0395 204.336C71.89 204.186 71.7406 204.186 71.5911 204.036C71.4416 203.887 71.4416 203.737 71.4416 203.437V203.288H71.5911C71.5911 203.288 71.5911 203.288 71.5911 203.138C71.5911 202.988 71.7406 202.839 71.7406 202.839V202.689C71.89 202.39 71.89 202.24 71.89 202.24C71.89 202.09 71.89 202.09 71.89 202.09L71.7406 201.94C71.5911 201.791 71.2922 201.791 70.9933 201.491V201.342C70.9933 201.192 70.9933 201.192 70.9933 201.042C70.9933 200.893 70.8438 200.893 70.8438 200.893C70.6943 200.743 70.5449 200.743 70.246 200.593H70.0965C69.947 200.593 69.947 200.593 69.7976 200.593C69.6481 200.593 69.6481 200.593 69.4986 200.593C69.3492 200.593 69.1997 200.593 69.1997 200.444C69.1997 200.294 69.0503 200.294 69.0503 200.144C69.0503 199.994 68.9008 199.994 68.9008 199.994C68.9008 199.994 68.9008 199.994 68.7513 199.994C68.7513 199.994 68.6019 199.994 68.6019 200.144C68.4524 200.144 68.4524 200.144 68.303 200.144C68.1535 200.144 68.1535 199.994 68.1535 199.994C68.1535 199.994 68.1535 199.845 68.004 199.845V199.695C68.004 199.545 68.1535 199.396 68.303 199.246C68.4524 199.096 68.4524 198.947 68.4524 198.947C68.303 198.947 68.303 199.096 68.1535 199.246C68.004 199.396 68.004 199.545 68.004 199.545L67.4062 199.994C67.4062 200.294 67.2567 200.444 67.2567 200.743C67.1073 200.893 66.9578 201.042 66.6589 201.192C66.36 201.042 66.0611 201.042 65.7621 200.893C65.4632 200.743 65.4632 200.743 65.3138 200.593C65.3138 200.444 65.1643 200.444 65.1643 200.294C65.1643 200.144 65.1643 199.994 65.1643 199.845C65.1643 199.695 65.1643 199.695 65.1643 199.545C65.1643 199.396 65.1643 199.246 65.1643 198.947L65.3138 198.797H65.4632C65.6127 198.797 65.6127 198.797 65.6127 198.797C65.6127 198.797 65.6127 198.797 65.7621 198.797C65.9116 198.797 65.9116 198.647 66.0611 198.647C66.2105 198.497 66.5094 198.348 66.6589 198.198C66.8084 198.048 66.8084 198.048 66.8084 198.048L67.1073 197.45L68.004 197.15L68.1535 196.252V196.102C68.1535 195.953 68.1535 195.803 68.1535 195.653C68.1535 195.204 68.004 194.755 67.8546 194.306C67.7051 193.857 67.5557 193.408 67.5557 192.809C67.4062 192.51 67.2567 192.21 67.1073 191.911L67.2567 191.462C67.4062 191.462 67.5557 191.312 67.5557 191.162C67.5557 191.013 67.7051 190.863 67.7051 190.713C67.8546 190.713 67.8546 190.564 68.004 190.564L68.1535 190.414C68.1535 190.414 68.1535 190.414 68.1535 190.264V190.114C68.303 189.965 68.303 189.815 68.303 189.665C68.303 189.516 68.303 189.516 68.1535 189.366C68.1535 189.366 68.004 189.216 67.8546 189.216C67.7051 189.216 67.5557 189.366 67.4062 189.516C67.2567 189.665 67.1073 189.815 66.9578 189.815C66.8084 189.965 66.8084 189.965 66.8084 189.965C66.6589 189.965 66.6589 190.114 66.6589 190.114C66.6589 190.264 66.5094 190.264 66.36 190.414C66.36 190.414 66.2105 190.564 66.0611 190.564C65.6127 190.264 65.0148 189.965 64.5664 189.815C64.417 189.665 64.417 189.516 64.417 189.366C64.417 189.216 64.417 189.067 64.417 189.067L63.9686 189.216C63.8191 189.366 63.6697 189.366 63.5202 189.516C63.3708 189.516 63.2213 189.665 63.0718 189.665L62.9224 190.564H62.7729V190.713C62.7729 190.713 62.7729 190.863 62.6235 190.863H62.474C62.3245 190.863 62.3245 190.863 62.1751 190.863C62.0256 190.863 61.8762 190.863 61.7267 190.863C61.5772 190.863 61.5772 190.863 61.4278 190.863C61.4278 190.863 61.4278 191.013 61.2783 191.013C61.1288 191.462 60.9794 191.761 60.8299 192.061H60.6805C60.6805 192.061 60.6805 192.061 60.6805 191.911V191.761C60.6805 191.611 60.6805 191.462 60.6805 191.162C60.6805 191.013 60.6805 191.013 60.6805 190.863C60.6805 190.863 60.6805 190.713 60.531 190.713H60.3815C60.2321 190.713 60.2321 190.713 60.0826 190.863C60.0826 190.863 60.0826 190.863 60.0826 191.013C60.0826 191.013 60.0826 191.013 60.0826 191.162C60.0826 191.312 60.0826 191.312 60.0826 191.462C59.9332 191.761 59.7837 192.21 59.7837 192.659C59.7837 192.809 59.7837 192.809 59.7837 192.809C59.7837 192.809 59.7837 192.959 59.9332 192.959V193.108C59.9332 193.707 59.6342 194.456 59.4848 195.054V195.204H58.7375C58.7375 195.354 58.588 195.354 58.588 195.504C58.4386 195.653 58.4386 195.653 58.2891 195.653C58.1396 195.653 57.9902 195.653 57.8407 195.504C57.6913 195.504 57.5418 195.354 57.3923 195.354C57.2429 195.204 57.0934 195.204 56.9439 195.204C56.7945 195.204 56.4956 195.354 56.1966 195.354C56.0472 195.354 56.0472 195.354 55.8977 195.354C55.7483 195.054 55.5988 195.054 55.4493 194.905C55.2999 194.755 55.001 194.905 54.8515 194.755C54.702 194.755 54.5526 194.605 54.4031 194.605V194.456C54.4031 194.306 54.5526 194.156 54.5526 194.007C54.5526 193.857 54.702 193.707 54.702 193.707V193.557C54.702 193.557 54.5526 193.557 54.5526 193.408L54.4031 193.258C54.4031 193.108 54.4031 193.108 54.4031 193.108C54.4031 193.108 54.4031 192.959 54.5526 192.959C54.5526 192.809 54.702 192.659 54.702 192.659C54.702 192.51 54.702 192.51 54.5526 192.36V192.21V192.061C54.702 191.911 54.702 191.911 54.8515 191.911C54.8515 191.911 54.8515 191.911 54.8515 191.761C54.8515 191.761 54.8515 191.761 54.8515 191.611C54.8515 191.611 54.8515 191.462 54.8515 191.312C54.702 191.312 54.702 191.312 54.702 191.162C54.5526 191.162 54.5526 191.013 54.4031 191.013V190.863V190.713H54.5526C54.702 190.713 54.702 190.564 54.8515 190.564C54.8515 190.564 55.001 190.564 55.001 190.414C55.001 190.414 55.001 190.414 55.001 190.264C55.001 190.264 55.001 190.114 55.001 189.965C54.8515 189.815 54.8515 189.815 54.702 189.665C54.5526 189.665 54.5526 189.665 54.4031 189.665C54.2537 189.665 53.9547 189.815 53.6558 189.815H53.5064V189.665C53.3569 189.516 53.3569 189.366 53.3569 189.067C53.3569 188.767 53.3569 188.468 53.3569 188.318C53.3569 188.168 53.3569 188.019 53.3569 188.019C53.058 187.869 52.9085 187.719 52.759 187.719C52.6096 187.719 52.6096 187.719 52.6096 187.869C52.6096 187.869 52.4601 188.019 52.4601 188.168C52.3107 188.468 52.3107 188.767 52.0117 189.067C51.8623 189.067 51.7128 189.067 51.5634 188.917C51.4139 188.917 51.2644 188.767 51.2644 188.617C51.2644 188.468 51.2644 188.318 51.2644 188.168C51.2644 188.019 51.2644 187.869 51.115 187.719C50.9655 187.57 50.9655 187.42 50.8161 187.27C50.6666 187.121 50.6666 186.821 50.6666 186.821C50.6666 186.671 50.6666 186.671 50.6666 186.671C50.6666 186.671 50.6666 186.522 50.8161 186.522C50.9655 186.372 51.115 186.372 51.115 186.372C51.115 186.372 51.4139 186.372 51.5634 186.372C51.7128 186.522 51.7128 186.671 51.8623 186.821C52.0117 186.971 52.0117 186.971 52.1612 186.971C52.1612 186.971 52.1612 186.971 52.3107 186.971L52.4601 186.821V186.671C52.4601 186.522 52.4601 186.372 52.3107 186.222C52.1612 186.073 52.1612 186.073 52.0117 185.923C52.0117 185.773 51.8623 185.773 51.8623 185.624C51.8623 185.474 52.0117 185.324 52.0117 185.025L52.759 184.725C52.759 184.426 52.7591 184.276 52.6096 184.276C52.6096 184.127 52.4601 184.127 52.4601 183.977C52.4601 183.977 52.4601 183.977 52.3107 183.977C52.1612 183.977 52.0117 183.977 51.8623 183.977C51.7128 183.977 51.7128 183.977 51.5634 183.977C51.2644 183.827 51.2644 183.827 51.115 183.677C50.9655 183.528 50.9655 183.528 50.8161 183.528H50.6666C50.5171 183.528 50.3677 183.528 50.2182 183.677V183.827C50.2182 183.977 50.0688 184.127 50.0688 184.276C50.0688 184.426 49.9193 184.426 49.7698 184.426C49.6204 184.426 49.4709 184.426 49.3215 184.426C49.172 184.426 49.172 184.426 49.0225 184.426C49.0225 184.276 48.8731 183.977 48.8731 183.827C48.8731 183.528 48.8731 183.228 48.8731 183.079C48.8731 182.929 48.8731 182.63 48.7236 182.48L48.1258 181.731C47.9763 181.582 47.9763 181.582 47.8268 181.432C47.8268 181.282 47.6774 181.133 47.6774 180.983C47.6774 180.684 47.6774 180.384 47.5279 180.234C47.5279 180.085 47.3785 179.785 47.0795 179.486C46.9301 179.187 46.7806 178.887 46.6312 178.738L46.3322 177.69C46.1828 177.54 46.1828 177.54 46.1828 177.39C46.1828 177.241 46.1828 177.091 46.1828 177.091C46.1828 176.941 46.1828 176.791 46.1828 176.492C46.1828 176.342 46.1828 176.193 46.0333 176.043C46.0333 175.893 46.0333 175.744 46.0333 175.594C46.0333 175.294 46.0333 175.145 46.0333 174.845C46.0333 174.696 46.0333 174.546 46.0333 174.396C45.7344 174.247 45.4355 174.247 45.1366 173.947V173.498C44.9871 173.348 44.9871 173.199 44.9871 173.049C44.9871 172.899 44.8376 172.899 44.8376 172.899H44.6882C44.5387 172.899 44.5387 173.049 44.3893 173.049L43.6419 174.097C43.4925 174.097 43.4925 174.097 43.343 174.097C43.1936 174.097 43.0441 174.097 42.8946 173.947C42.7452 173.947 42.5957 173.798 42.5957 173.798H42.4463L42.2968 173.947C42.1473 173.947 41.9979 174.097 41.8484 174.097C41.699 174.097 41.5495 174.097 41.4 173.947V173.798C41.4 173.648 41.4 173.648 41.5495 173.498L41.699 173.348C41.8484 173.199 41.8484 173.199 41.9979 173.049V172.899C41.9979 172.899 41.9979 172.899 41.9979 172.75C41.9979 172.75 41.9979 172.75 41.8484 172.75H41.699C41.5495 172.75 41.4 172.75 41.1011 172.6C40.9517 172.6 40.8022 172.45 40.8022 172.45C40.8022 172.45 40.8022 172.301 40.8022 172.151C40.8022 172.001 40.8022 171.851 40.9517 171.702V170.804H40.8022C40.6527 170.804 40.5033 170.654 40.3538 170.654C40.0549 170.504 39.9054 170.355 39.756 170.355H39.6065C39.457 170.355 39.3076 170.354 39.1581 170.205C39.0087 170.055 38.8592 170.055 38.7097 169.905C38.4108 169.756 38.1119 169.456 37.9624 169.307C37.6635 169.307 37.5141 169.157 37.3646 169.157C37.2151 169.157 37.2151 169.157 37.2151 169.157C37.2151 169.157 37.0657 169.157 37.0657 169.307C36.9162 169.456 36.9162 169.606 36.7668 169.905C36.7668 169.905 36.7668 169.905 36.6173 169.905V170.055H36.4678C36.1689 170.055 35.87 169.756 35.7205 169.606C35.4216 169.456 35.2721 169.157 35.1227 169.007C34.8238 168.708 34.5248 168.558 34.0765 168.109C34.0765 167.66 33.927 167.361 33.927 167.061C33.7775 166.762 33.7775 166.462 33.4786 166.163C33.0302 165.864 32.7313 165.564 32.4324 165.115C32.1335 164.666 31.984 164.217 31.8346 163.768C31.6851 163.618 31.6851 163.468 31.6851 163.468C31.6851 163.319 31.5356 163.319 31.5356 163.169C31.5356 163.019 31.5356 162.87 31.5356 162.57C31.5356 162.421 31.5356 162.121 31.3862 161.971C31.3862 161.822 31.2367 161.822 31.2367 161.822C31.2367 161.822 31.2367 161.822 31.0872 161.822C30.7883 161.822 30.4894 161.672 30.1905 161.522C29.8916 161.373 29.7421 161.073 29.7421 160.774L29.5926 160.624L29.4432 160.475L28.098 159.876C27.7991 158.828 27.6497 157.93 27.6497 156.882C27.5002 156.582 27.3507 156.283 27.3507 155.984C27.3507 155.684 27.2013 155.385 27.0518 155.235C26.9023 155.085 26.9023 154.786 26.9023 154.636C26.9023 154.487 26.9023 154.337 26.7529 154.187C26.6034 153.888 26.454 153.738 26.3045 153.439C26.155 153.139 26.0056 152.69 26.0056 152.241C25.8561 151.942 25.8561 151.642 25.8561 151.343C25.8561 151.044 25.8561 150.744 25.7067 150.445C25.7067 150.145 25.5572 149.996 25.5572 149.696C25.5572 149.547 25.5572 149.397 25.5572 149.098C25.5572 148.798 25.5572 148.499 25.2583 148.199V146.253C25.2583 146.104 25.2583 146.104 25.2583 145.954C25.2583 145.804 25.2583 145.655 25.2583 145.655C25.2583 145.505 25.2583 145.505 25.2583 145.355C25.2583 145.205 25.2583 145.205 25.1088 145.056C25.1088 145.056 25.1088 145.056 25.1088 144.906C25.1088 144.906 25.1088 144.756 25.1088 144.607C25.1088 144.457 25.1088 144.158 25.1088 144.008C25.1088 143.858 25.1088 143.858 25.1088 143.709L24.9594 143.559L24.8099 143.409L25.1088 142.96C25.2583 142.81 25.4077 142.81 25.5572 142.81C25.7067 142.81 25.7067 142.661 25.7067 142.661C25.7067 142.661 25.7067 142.511 25.7067 142.361C25.7067 142.212 25.7067 142.212 25.7067 142.062C25.7067 141.912 25.7067 141.613 25.7067 141.463V141.313V141.164H25.8561C25.8561 141.164 25.8561 141.164 25.8561 141.014C25.8561 140.864 25.8561 140.864 25.8561 140.715C25.8561 140.565 25.8561 140.565 25.8561 140.415V140.265V140.116C25.8561 139.966 25.8561 139.816 25.8561 139.667C25.8561 139.517 25.8561 139.367 25.8561 139.218C25.8561 139.068 25.8561 139.068 25.8561 138.918V138.769H26.0056C26.0056 138.769 26.0056 138.769 26.155 138.769C26.3045 138.769 26.3045 138.769 26.454 138.769H26.6034H26.7529C26.7529 138.769 26.7529 138.619 26.9023 138.619L27.2013 138.17L27.3507 138.02C27.5002 137.87 27.5002 137.721 27.6497 137.571C27.7991 137.272 27.9486 136.822 27.9486 136.673C28.098 136.523 28.2475 136.373 28.397 136.373C28.5464 136.224 28.6959 136.074 28.6959 135.924L28.8453 135.775C28.8453 135.625 28.8453 135.625 28.8453 135.475V135.326C28.8453 135.176 28.8453 135.176 28.8453 135.026C28.8453 134.876 28.8453 134.876 28.9948 134.876L28.6959 133.978C28.6959 133.978 28.6959 133.679 28.8453 133.529C28.8453 133.23 28.9948 133.08 28.9948 132.93C28.9948 132.93 28.9948 132.93 28.9948 132.781V132.631C28.9948 132.481 28.8453 132.481 28.8453 132.332C28.6959 132.182 28.397 132.032 28.2475 131.882L28.098 131.733C28.098 131.583 27.9486 131.583 27.9486 131.433C27.7991 131.284 27.6497 130.984 27.6497 130.685C27.5002 130.236 27.2013 129.637 27.2013 129.487C27.2013 129.338 27.2013 129.188 27.0518 129.038C26.9023 128.889 26.9023 128.739 26.7529 128.589C24.511 127.392 24.2121 127.242 23.9131 127.242C23.6142 127.242 23.4648 127.242 23.1658 127.242C23.0164 127.242 22.8669 127.242 22.7174 127.092C22.7174 127.092 22.7175 127.092 22.568 126.942C22.568 126.942 22.4185 126.942 22.4185 126.793L22.1196 126.942H21.9701V126.793C21.9701 126.643 21.9701 126.643 21.9701 126.493C21.9701 126.194 21.9701 125.745 21.9701 125.296C21.9701 125.146 21.9701 124.996 21.9701 124.996C21.9701 124.847 21.9701 124.847 21.8207 124.847H21.6712C21.5218 124.847 21.5218 124.847 21.3723 124.996C21.2228 124.996 21.0734 125.146 21.0734 125.146C20.9239 125.146 20.9239 125.146 20.7745 125.146C20.625 124.996 20.625 124.847 20.625 124.847C20.625 124.697 20.625 124.547 20.7745 124.398C20.9239 124.248 20.9239 124.098 20.9239 123.949C20.9239 123.949 21.0734 123.949 21.0734 123.799H21.2228C21.3723 123.799 21.5218 123.799 21.6712 123.799H21.8207C21.8207 123.649 21.9701 123.649 21.9701 123.499C21.9701 123.35 22.1196 123.35 22.2691 123.35H22.4185C22.568 123.35 22.568 123.35 22.7174 123.35C22.7174 123.35 22.7174 123.35 22.8669 123.35L24.0626 123.499L24.3615 122.601C24.3615 122.601 24.511 122.452 24.6604 122.452C24.8099 122.452 24.9594 122.452 24.9594 122.452C25.1088 122.452 25.1088 122.452 25.2583 122.601C25.4077 122.751 25.8561 122.901 26.155 122.901C26.6034 122.901 27.2013 122.751 27.5002 122.601H27.6497C27.6497 122.302 27.6497 122.003 27.7991 121.703C27.9486 121.404 27.9486 121.254 28.2475 120.955H28.8453V120.805C28.8453 120.655 28.8453 120.655 28.8453 120.506C28.8453 120.356 28.8453 120.206 28.8453 120.206V120.056H28.9948C28.9948 120.056 28.9948 120.056 29.1443 120.056C29.2937 119.757 29.4432 119.458 29.7421 119.458C29.8916 119.308 30.1905 119.308 30.3399 119.308C30.4894 119.308 30.4894 119.158 30.6389 119.009H30.7883C30.9378 119.009 30.9378 119.009 31.0872 119.009C31.2367 118.709 31.3862 118.26 31.3862 117.811C31.3862 117.661 31.3862 117.512 31.2367 117.362C31.2367 117.212 31.0872 117.212 30.9378 117.063H30.7883V116.913C30.7883 116.763 30.9378 116.613 31.0872 116.613C31.2367 116.613 31.2367 116.464 31.3862 116.464C31.5356 116.164 31.8346 115.865 31.984 115.715C32.2829 115.416 32.5819 115.266 32.8808 115.266C33.0302 115.116 33.1797 114.967 33.3292 114.817C33.4786 114.667 33.6281 114.368 33.7775 114.218C33.927 113.919 33.927 113.769 34.0765 113.619C34.2259 113.47 34.3754 113.17 34.5248 113.021H34.6743C34.8238 113.021 34.9732 113.021 35.1227 112.871C35.2721 112.721 35.4216 112.721 35.5711 112.572C35.5711 112.572 35.5711 112.572 35.5711 112.422C35.5711 112.272 35.5711 112.272 35.7205 112.123C35.7205 112.123 35.7205 111.973 35.87 111.973C36.3184 111.524 36.4678 111.224 36.9162 110.775C36.9162 110.626 36.9162 110.626 37.0657 110.476C37.0657 110.326 37.0657 110.176 37.2151 110.176C37.2151 110.027 37.3646 109.877 37.3646 109.727C37.3646 109.578 37.5141 109.428 37.5141 109.428C37.5141 109.428 37.5141 109.428 37.5141 109.278C37.5141 109.278 37.3646 109.129 37.0657 109.129C36.7668 109.278 36.6173 109.578 36.3184 109.727C36.1689 109.727 36.1689 109.727 36.0195 109.727C35.87 109.727 35.87 109.578 35.87 109.578V109.428C35.87 109.278 35.87 109.129 36.0195 108.979C36.0195 108.829 36.1689 108.68 36.1689 108.53C36.1689 108.38 36.1689 108.38 36.0195 108.23C35.87 108.081 35.87 108.081 35.87 108.081C35.87 108.081 35.7205 108.081 35.7205 108.23C35.7205 108.23 35.5711 108.38 35.5711 108.53C35.4216 108.829 35.2721 109.129 35.1227 109.278C34.9732 109.428 34.9732 109.578 34.8238 109.727C34.8238 109.727 34.6743 109.877 34.5248 109.877C34.3754 109.877 34.2259 109.877 34.2259 109.727C34.0765 109.727 34.0765 109.578 34.0765 109.428V109.278V109.129V108.979H33.4786C33.3292 108.829 33.3292 108.53 33.3292 108.38C33.3292 108.081 33.3292 107.781 33.3292 107.632V107.482C33.1797 107.482 33.0302 107.482 32.8808 107.482C32.7313 107.482 32.4324 107.332 32.2829 107.183C32.1335 106.883 32.1335 106.733 32.1335 106.584C32.1335 106.434 32.1335 106.284 31.984 106.135C31.984 105.985 31.8346 105.985 31.6851 105.835C31.2367 105.835 31.0872 105.835 30.7883 105.835C30.6389 105.835 30.6389 105.835 30.4894 105.835C30.3399 105.835 30.3399 105.686 30.3399 105.686V105.536C30.3399 105.386 30.3399 105.386 30.3399 105.236C30.3399 105.087 30.3399 104.937 30.3399 104.787C30.3399 104.787 30.3399 104.787 30.3399 104.638C30.3399 104.488 30.3399 104.488 30.3399 104.488C30.3399 104.488 30.3399 104.488 30.4894 104.338C30.4894 104.338 30.4894 104.338 30.6389 104.189C30.7883 104.189 30.7883 104.189 30.9378 104.189C31.0872 104.189 31.3862 104.189 31.3862 104.189H31.5356C31.5356 104.189 31.6851 104.189 31.6851 104.039C31.6851 104.039 31.8346 103.889 31.8346 103.74C31.8346 103.59 31.8346 103.44 31.8346 103.29C31.8346 103.141 31.8346 102.991 31.8346 102.991C31.8346 102.991 31.984 102.692 32.1335 102.692C32.2829 102.692 32.2829 102.692 32.4324 102.692H32.5819C33.0302 102.841 33.4786 103.141 33.927 103.141H34.0765C34.3754 102.991 34.5248 102.991 34.8238 102.841C34.9732 102.542 35.4216 102.093 35.5711 101.793C35.5711 101.644 35.7205 101.644 35.7205 101.494C35.7205 101.494 35.7205 101.494 35.7205 101.344C35.87 100.895 36.0195 100.446 36.3184 99.9971C36.6173 99.548 36.9162 98.9492 37.2151 98.7995H37.3646H37.5141H37.6635C37.6635 98.7995 37.813 98.7995 37.813 98.6498C37.9624 98.5001 37.9624 98.3504 38.1119 98.3504C38.2614 98.2007 38.2614 98.2007 38.4108 98.2007C38.5603 98.0511 38.8592 98.0511 39.1581 98.0511C39.457 97.602 39.756 97.1529 39.9054 96.7038C40.0549 96.5541 40.0549 96.4044 40.0549 96.2547C40.0549 96.105 40.0549 96.105 39.9054 95.9553C39.9054 95.8056 39.756 95.8056 39.6065 95.6559L38.8592 94.3086V94.1589C38.8592 94.0092 38.8592 93.8595 38.8592 93.7098C38.8592 93.5602 38.8592 93.4105 38.8592 93.4105C38.8592 93.2608 39.0087 93.2608 39.0087 93.2608C39.1581 93.1111 39.1581 93.1111 39.3076 93.1111H39.457V93.2608C39.6065 93.4105 39.6065 93.5602 39.756 93.7098C39.756 93.8595 39.756 93.8595 39.9054 93.8595C39.9054 93.8595 40.0549 93.8595 40.0549 94.0092L40.2044 93.8595C40.2044 93.7099 40.2044 93.7099 40.3538 93.5602C40.3538 93.2608 40.3538 93.1111 40.3538 92.8117C40.6527 92.0632 40.9517 91.4644 41.1011 90.7159C41.4 90.4165 41.5495 89.9674 41.699 89.5183V89.3687H41.8484C41.9979 89.3687 42.1473 89.3687 42.1473 89.3687C42.2968 89.5183 42.4463 89.668 42.4463 89.668C42.4463 89.668 42.7452 89.668 42.8946 89.8177C43.0441 89.8177 43.0441 89.9674 43.1936 89.9674C43.4925 90.5662 43.7914 91.165 43.9409 91.9135C44.0903 92.0632 44.0903 92.0632 44.2398 92.2129C44.3893 92.2129 44.5387 92.3626 44.6882 92.3626C44.9871 92.3626 45.4355 92.3626 45.7344 92.5123C45.8839 92.662 46.1828 92.8117 46.1828 92.9614C46.1828 92.9614 46.1828 92.9614 46.3322 93.1111L46.4817 93.2608C46.6312 93.4105 46.6312 93.5602 46.6312 93.7098C46.6312 93.8595 46.7806 93.8595 46.7806 93.8595C46.7806 93.8595 46.7806 93.8595 46.9301 93.8595C47.0795 93.8595 47.229 93.8595 47.229 93.7098C47.3785 93.7098 47.5279 93.5602 47.6774 93.5602C47.8268 93.5602 47.9763 93.5602 48.1258 93.7098C48.2752 93.8595 48.2752 93.8595 48.4247 94.0092C48.5742 94.0092 48.5742 94.0092 48.7236 94.0092C48.8731 94.0092 48.8731 94.0092 49.0225 94.0092C49.172 94.0092 49.172 94.0092 49.3215 94.0092C49.3215 94.0092 49.3215 93.8595 49.4709 93.8595C49.4709 93.7099 49.6204 93.5602 49.6204 93.4105C49.6204 93.2608 49.7698 93.2608 49.7698 93.1111C49.9193 92.9614 50.0688 92.9614 50.0688 92.9614C50.2182 92.9614 50.3677 92.9614 50.3677 93.1111C50.5171 93.1111 50.5171 93.2608 50.6666 93.4105C50.8161 93.5602 51.115 93.8595 51.2644 93.8595C51.4139 94.0092 51.5634 94.0092 51.5634 94.0092H51.7128C51.7128 94.0092 51.7128 94.0092 51.8623 94.0092C51.8623 94.0092 52.0117 94.0092 52.0117 93.8595C52.1612 93.8595 52.3107 93.7098 52.4601 93.7098C52.6096 93.7098 52.6096 93.7099 52.759 93.5602C52.759 93.5602 52.9085 93.5602 53.058 93.5602C53.2074 93.5602 53.3569 93.5602 53.3569 93.5602C53.6558 93.5602 53.9547 93.4105 53.9547 93.4105H54.1042C54.4031 93.2608 54.5526 92.9614 54.8515 92.662C55.001 92.3626 55.2999 92.0632 55.5988 91.9135C55.7483 91.7638 56.0472 91.7638 56.3461 91.7638C57.2429 91.6141 57.9902 91.6141 58.8869 91.4644H59.3353C59.4848 91.4644 59.4848 91.4644 59.4848 91.6141C59.4848 91.6141 59.4848 91.7638 59.6342 91.7638C59.6342 91.9135 59.6342 92.0632 59.6342 92.2129C59.6342 92.5123 59.6342 92.662 59.4848 92.8117C59.4848 92.8117 59.4848 92.8117 59.4848 92.9614C59.4848 92.9614 59.4848 93.1111 59.4848 93.2608C59.4848 93.4105 59.6342 93.7098 59.6342 93.7098C59.6342 93.8595 59.7837 94.0092 59.9332 94.1589C60.0826 94.3086 60.2321 94.4583 60.3815 94.608C60.531 94.7577 60.6805 95.0571 60.8299 95.0571C60.9794 95.2068 61.1288 95.2068 61.4278 95.2068C61.5772 95.2068 61.5772 95.2068 61.7267 95.2068C61.8762 95.0571 62.0256 95.0571 62.1751 95.0571C62.474 95.0571 62.6235 95.2068 62.7729 95.2068C62.7729 95.2068 62.7729 95.2068 62.9224 95.2068H63.0718C63.2213 95.2068 63.2213 95.2068 63.3708 95.2068C63.6697 95.0571 63.9686 94.7577 64.2675 94.4583C64.5664 94.1589 64.8654 93.8595 65.1643 93.7098C65.3137 93.5602 65.4632 93.5602 65.6127 93.5602C65.9116 93.5602 66.0611 93.7098 66.2105 93.7098C66.36 93.7098 66.36 93.7098 66.36 93.7098C66.6589 93.7098 66.8084 93.5602 67.1073 93.5602C67.2567 93.5602 67.4062 93.5602 67.5557 93.7098C67.7051 93.7098 67.8546 93.8595 68.004 94.0092L67.8546 94.608C67.8546 94.7577 67.7051 94.7577 67.7051 94.9074C67.7051 95.0571 67.7051 95.0571 67.8546 95.0571C67.8546 95.0571 68.004 95.2068 68.1535 95.2068C68.303 95.2068 68.303 95.3565 68.4524 95.3565V95.5062C68.9008 96.105 69.1997 96.8535 69.4986 97.4523C69.7976 97.4523 69.947 97.602 70.0965 97.9014C70.246 98.0511 70.3954 98.3505 70.3954 98.5001C70.6943 98.7995 70.9933 98.9492 71.2922 99.2486C71.4416 99.548 71.5911 99.6977 71.7406 99.8474C71.89 99.9971 72.1889 99.9971 72.3384 100.147C72.7868 100.297 73.2352 100.297 73.833 100.297C73.833 100.297 73.833 100.147 73.9825 99.9971C74.1319 99.8474 74.1319 99.548 74.4309 99.3983C74.5803 99.2486 74.7298 99.0989 74.8792 99.0989C75.1782 99.0989 75.6265 99.0989 75.9255 98.9492C76.2244 98.9492 76.5233 98.7995 76.6728 98.5001C76.8222 98.3505 76.8222 98.3504 76.8222 98.2007C76.8222 98.2007 76.8222 98.2007 76.8222 98.0511C76.8222 97.9014 76.8222 97.9014 76.6728 97.9014C76.5233 97.7517 76.5233 97.7517 76.3738 97.602C76.3738 97.602 76.2244 97.4523 76.2244 97.3026C76.2244 97.1529 76.2244 97.0032 76.3738 97.0032C76.3738 97.0032 76.3738 97.0032 76.3738 96.8535C76.3738 96.7038 76.5233 96.7038 76.5233 96.5541C76.6728 96.2547 76.8222 95.9553 76.9717 95.6559C76.9717 95.5062 77.1211 95.3565 77.1211 95.3565C77.2706 95.3565 77.4201 95.2068 77.5695 95.2068C77.719 95.0571 77.8685 95.0571 78.0179 95.0571C78.0179 95.0571 78.1674 95.0571 78.1674 94.9074C78.3168 94.7577 78.3168 94.7577 78.4663 94.608C78.6158 94.4583 78.6158 94.4583 78.7652 94.4583H78.9147C79.0641 94.4583 79.2136 94.4583 79.3631 94.608V94.7577C79.3631 94.9074 79.3631 95.0571 79.3631 95.2068C79.3631 95.3565 79.3631 95.5062 79.5125 95.5062C79.5125 95.6559 79.5125 95.8056 79.5125 95.8056C79.5125 95.9553 79.5125 96.2547 79.5125 96.4044C79.5125 96.5541 79.5125 96.7038 79.5125 96.8535C79.5125 97.0032 79.662 97.0032 79.662 97.1529L80.2598 97.602L80.5587 98.2007V98.3504C80.5587 98.6498 80.5587 98.9492 80.5587 99.2486C80.5587 99.3983 80.5587 99.548 80.7082 99.548C80.7082 99.6977 80.8577 99.6977 81.0071 99.8474C81.0071 99.8474 81.0071 99.8474 81.1566 99.8474C81.306 99.8474 81.306 99.9971 81.4555 99.9971C81.7544 100.147 82.0533 100.147 82.2028 100.147H82.3523C82.5017 99.9971 82.6512 99.9971 82.6512 99.9971C82.6512 99.9971 82.8007 99.8474 82.9501 99.6977C83.249 99.2486 83.548 99.0989 83.8469 98.9492C84.1458 98.7995 84.5942 98.6498 85.0426 98.6498C85.4909 98.7995 85.9393 99.0989 86.3877 99.2486C86.8361 99.548 87.135 99.6977 87.5834 99.6977C87.8823 99.6977 88.0318 99.6977 88.3307 99.3983C88.4802 99.3983 88.4802 99.2486 88.6296 99.2486C88.7791 99.2486 88.9285 99.2486 89.078 99.2486C89.2275 99.2486 89.5264 99.2486 89.6758 99.2486C89.8253 99.2486 89.9748 99.3983 90.1242 99.3983C90.1242 99.3983 90.1242 99.3983 90.2737 99.3983C90.4231 99.3983 90.5726 99.3983 90.8715 99.2486C91.021 99.2486 91.3199 99.0989 91.4694 99.0989C91.6188 99.0989 91.7683 99.0989 92.0672 99.2486C92.3661 99.3983 92.3661 99.6977 92.5156 99.8474C92.6651 99.8474 92.6651 99.9971 92.8145 99.9971C92.964 99.9971 93.1134 99.9971 93.2629 99.8474C93.4124 99.6977 93.5618 99.6977 93.8607 99.548C94.0102 99.548 94.0102 99.3983 94.1597 99.3983C94.1597 99.2486 94.3091 99.2486 94.3091 99.0989C94.4586 98.7995 94.4586 98.5001 94.7575 98.3504C94.907 98.2007 95.0564 98.0511 95.3553 98.0511H95.5048C95.8037 98.0511 95.9532 98.2007 96.2521 98.2007C96.551 98.3504 96.85 98.5001 96.9994 98.6498C97.1489 98.7995 97.1489 98.9492 97.2983 98.9492C97.4478 99.2486 97.7467 99.3983 98.0456 99.3983C98.3446 99.548 98.6435 99.548 98.9424 99.6977C99.0919 99.8474 99.2413 99.8474 99.3908 99.9971C99.8392 100.147 100.288 100.297 100.437 100.297C100.736 100.297 100.885 100.147 101.035 99.9971C101.334 99.8474 101.483 99.548 101.932 99.2486C102.081 99.0989 102.231 98.7995 102.231 98.5001C102.38 98.2008 102.38 97.9014 102.679 97.7517H102.828H102.978C103.127 97.9014 103.277 98.0511 103.277 98.0511C103.426 98.2007 103.426 98.2007 103.576 98.2007C103.725 98.2007 103.725 98.2007 103.875 98.2007C104.024 98.2007 104.174 98.3504 104.323 98.3504C104.472 98.5001 104.472 98.5001 104.622 98.5001C104.771 98.6498 104.921 98.6498 104.921 98.6498C105.07 98.6498 105.369 98.5001 105.668 98.5001H105.818C106.117 98.7995 106.117 99.0989 106.117 99.3983C106.117 99.6977 105.967 100.147 105.967 100.446C105.668 100.895 105.369 101.195 104.921 101.494C104.771 101.644 104.771 101.793 104.622 101.943C104.622 102.093 104.472 102.243 104.472 102.243C104.472 102.392 104.472 102.392 104.622 102.542C104.622 102.692 104.771 102.692 104.921 102.841C105.07 102.991 105.07 103.141 105.07 103.141C105.07 103.44 104.921 103.59 104.921 103.74C104.771 103.889 104.771 104.189 104.771 104.338C104.771 104.488 104.771 104.638 105.07 104.787C105.07 105.087 105.07 105.386 104.921 105.686C104.771 105.985 104.771 106.284 104.472 106.434C104.472 106.434 104.472 106.584 104.323 106.584L104.174 106.733C104.174 106.733 104.174 106.733 104.174 106.883C104.174 107.033 104.174 107.033 104.323 107.183C104.472 107.183 104.472 107.332 104.771 107.332C105.07 107.332 105.519 107.332 105.967 107.482C106.266 107.482 106.565 107.632 106.714 107.632C106.714 107.781 106.714 107.781 106.714 107.931C106.714 108.23 106.565 108.38 106.565 108.53C106.415 108.68 106.415 108.829 106.415 108.979C106.415 109.278 106.565 109.578 106.565 110.027C106.565 110.176 106.565 110.176 106.565 110.326L106.714 110.476C106.864 110.626 107.013 110.775 107.163 110.775H107.312L107.761 110.326C107.91 110.326 107.91 110.176 108.06 110.176C108.209 110.176 108.358 110.176 108.358 110.326C108.508 110.326 108.508 110.476 108.657 110.626C108.807 110.775 109.106 111.075 109.255 111.075C109.405 111.224 109.554 111.224 109.704 111.224C109.853 111.224 110.152 111.224 110.451 110.925C110.6 110.925 110.6 110.925 110.75 110.925C110.899 110.925 111.049 110.925 111.198 111.075V111.823C110.899 112.272 110.451 112.721 109.853 113.021C109.704 113.17 109.704 113.17 109.554 113.32C109.405 113.47 109.405 113.47 109.405 113.619L109.255 113.769C109.255 113.919 109.106 113.919 108.956 114.069C108.956 114.069 108.807 114.218 108.657 114.218C108.508 114.218 108.209 114.218 108.06 114.218C107.91 114.218 107.611 114.218 107.611 114.368C107.611 114.368 107.462 114.518 107.462 114.667C107.312 114.817 107.163 114.817 106.864 114.817C106.565 114.817 106.415 114.817 106.117 114.667C105.818 114.667 105.668 114.518 105.519 114.518H105.369C105.22 114.518 105.22 114.518 105.07 114.518C104.921 114.518 104.771 114.518 104.622 114.667C104.472 114.667 104.472 114.817 104.472 114.817C104.323 114.967 104.323 115.266 104.323 115.715C104.323 115.715 104.323 115.715 104.323 115.865C104.323 115.865 104.323 116.015 104.472 116.164C104.472 116.314 104.622 116.464 104.771 116.464C104.921 116.763 105.22 116.913 105.369 117.212C105.519 117.362 105.519 117.512 105.519 117.661C105.519 117.811 105.369 117.811 105.369 117.811C105.369 117.811 105.22 117.811 105.22 117.961C105.07 117.961 104.921 117.961 104.921 118.11L104.771 118.26C104.323 118.709 104.024 119.158 103.725 119.757C103.576 119.757 103.576 119.757 103.426 119.757C103.127 119.757 102.978 119.607 102.828 119.607C102.679 119.458 102.529 119.458 102.38 119.458H102.231L101.782 120.056H101.633H101.483C101.035 119.607 100.437 119.458 99.6897 119.458C99.5402 119.458 99.3908 119.458 99.0919 119.458C98.9424 119.607 98.9424 119.607 98.7929 119.757V119.907C98.7929 119.907 98.7929 119.907 98.7929 120.056L98.9424 120.206C99.0919 120.356 99.2413 120.356 99.3908 120.506C99.5403 120.655 99.5402 120.805 99.5402 120.955C99.5402 121.104 99.5402 121.104 99.5402 121.104C99.5402 121.254 99.5402 121.404 99.6897 121.553C99.6897 121.703 99.8392 121.853 99.9886 122.003C99.9886 122.152 100.138 122.152 100.138 122.302C100.138 122.452 100.138 122.601 99.9886 122.751C99.9886 122.901 99.8392 123.05 99.8392 123.2C99.8392 123.35 99.8392 123.35 99.8392 123.35L101.633 125.745C101.782 125.745 101.782 125.745 101.782 125.895C101.932 125.895 101.932 126.044 101.932 126.044C102.081 126.194 102.081 126.493 102.081 126.643C102.081 126.793 102.081 126.793 102.081 126.942C102.081 127.092 101.932 127.092 101.932 127.092C101.633 127.242 101.483 127.392 101.334 127.541C101.184 127.691 101.035 127.99 100.736 128.14L99.6897 129.338L99.5402 129.188C99.3908 129.038 99.3908 129.038 99.2413 128.889C99.0919 128.889 98.6435 128.739 98.3446 128.739C98.0456 128.739 97.5973 128.739 97.1489 128.589C96.85 128.439 96.7005 128.29 96.551 128.14C96.2521 127.99 95.9532 127.841 95.8037 127.691C95.6543 127.541 95.5048 127.392 95.3553 127.242C95.2059 127.092 95.2059 126.942 95.0564 126.643C95.0564 126.643 95.0564 126.643 95.0564 126.493V126.344L94.907 126.194C94.7575 126.044 94.608 125.895 94.4586 125.745C94.4586 125.595 94.4586 125.446 94.4586 125.296C94.4586 124.996 94.4586 124.847 94.4586 124.547C94.4586 124.398 94.3091 124.098 94.1597 123.949H94.0102C93.5618 123.949 92.964 124.098 92.5156 124.248C92.3661 124.248 92.3661 124.398 92.3661 124.398L91.9178 125.296C91.9178 125.446 91.9178 125.446 92.0672 125.595C92.0672 125.745 92.2167 125.895 92.2167 126.044C92.2167 126.194 92.3661 126.493 92.3661 126.643C92.3661 127.092 92.2167 127.541 91.9178 127.99C91.7683 128.14 91.7683 128.29 91.6188 128.589C91.6188 128.739 91.4694 129.038 91.4694 129.188L91.1704 129.787C91.021 129.936 90.8715 129.936 90.7221 130.086C90.5726 130.236 90.4231 130.386 90.1242 130.386C89.9748 130.386 89.8253 130.236 89.6758 130.086C89.6758 130.086 89.6758 130.086 89.5264 129.936C89.5264 129.936 89.3769 129.787 89.2275 129.637C89.078 129.487 88.7791 129.338 88.7791 129.188V128.439C88.7791 128.439 88.7791 128.439 88.9285 128.29C88.9285 128.14 89.078 128.14 89.078 127.99C89.2275 127.841 89.2275 127.541 89.3769 127.392V127.242L89.5264 126.194V126.044C89.5264 126.044 89.3769 126.044 89.3769 125.895V125.745V125.595C89.3769 125.446 89.3769 125.296 89.3769 125.146C89.3769 124.847 89.3769 124.547 89.3769 124.248C89.3769 123.949 89.5264 123.649 89.6758 123.499C89.8253 123.35 89.8253 123.35 90.1242 123.35C90.2737 123.499 90.4231 123.499 90.7221 123.499C91.3199 123.499 91.6188 123.05 91.6188 122.452C91.6188 122.452 91.6188 122.452 91.4694 122.452H91.3199C91.1704 122.452 91.021 122.452 90.8715 122.452C90.7221 122.452 90.7221 122.452 90.5726 122.452L90.2737 121.553L89.6758 121.254C89.3769 120.805 88.9285 120.506 88.3307 120.506C87.5834 120.955 86.6866 120.805 85.9393 120.955C85.7899 120.955 85.4909 121.104 85.3415 121.254C85.192 121.404 84.8931 121.404 84.5942 121.404C84.4447 121.404 84.4447 121.404 84.2953 121.254C84.1458 121.254 84.1458 121.104 83.9963 120.955C83.8469 120.805 83.8469 120.655 83.6974 120.655C83.548 120.506 83.3985 120.506 83.249 120.506C82.9501 120.356 82.5017 120.356 82.2028 120.206C82.0533 120.206 82.0533 120.206 81.9039 120.206C81.7544 120.206 81.605 120.206 81.4555 120.206C81.306 120.356 81.306 120.655 81.1566 120.955C81.0071 121.254 81.0071 121.703 80.8577 122.003C80.7082 122.152 80.5587 122.302 80.4093 122.452C80.2598 122.601 80.2598 122.601 80.1104 122.751C79.9609 122.901 79.9609 123.05 79.9609 123.2C80.1104 123.499 80.2598 123.799 80.2598 124.098C80.2598 124.248 80.2598 124.398 80.1104 124.547C79.9609 124.697 79.8114 124.847 79.662 125.146C79.3631 125.446 79.2136 125.595 78.9147 125.745C78.7652 125.895 78.6158 125.895 78.3168 125.895C78.3168 125.895 78.3168 125.895 78.1674 125.895C78.1674 126.044 78.0179 126.344 78.0179 126.493C77.719 126.643 77.719 126.793 77.719 126.942C77.8684 127.242 78.0179 127.541 78.0179 127.691C78.1674 127.99 78.1674 128.14 78.3168 128.439C78.6158 128.589 78.7652 128.589 78.9147 128.739C79.0641 128.889 79.0641 129.038 79.0641 129.188C79.0641 129.338 79.0641 129.637 78.9147 129.936C78.6157 130.086 78.4663 130.386 78.1674 130.535C77.8684 130.685 77.719 130.984 77.719 131.284C77.719 131.433 77.5695 131.583 77.5695 131.733C77.5695 131.882 77.4201 131.882 77.4201 132.032C77.4201 132.032 77.4201 132.032 77.5695 132.182C77.5695 132.182 77.719 132.182 77.719 132.332C77.8684 132.332 78.0179 132.481 78.1674 132.631C78.3168 132.781 78.4663 132.93 78.6157 133.23C78.7652 133.379 78.9147 133.529 79.0641 133.829C79.8114 134.278 80.7082 134.577 81.4555 134.876C81.605 134.876 81.7544 134.876 81.9039 135.026C82.0533 135.176 82.0533 135.176 82.2028 135.326C82.3523 135.475 82.3523 135.775 82.5017 135.924C82.6512 136.074 82.6512 136.074 82.9501 136.074H83.0996L83.249 135.924C83.3985 135.924 83.548 135.924 83.6974 136.074C83.8469 136.224 83.8469 136.224 83.9963 136.373C84.1458 136.673 84.1458 136.972 84.1458 137.122C84.1458 137.272 84.2953 137.421 84.2953 137.571C84.4447 137.721 84.5942 137.87 84.8931 138.02C85.192 138.17 85.4909 138.17 85.6404 138.319C86.0888 138.769 86.2382 139.068 86.3877 139.517C86.5372 139.966 86.3877 140.265 86.5372 140.864C86.6866 140.864 86.6866 140.864 86.8361 140.864C87.135 140.864 87.2845 140.864 87.5834 141.014C87.7328 141.164 88.0318 141.313 88.1812 141.463C88.3307 141.762 88.4802 142.062 88.7791 142.361C89.078 142.511 89.3769 142.661 89.6758 142.661C89.8253 142.661 90.1242 142.661 90.2737 142.511L90.4231 142.361C90.4231 142.361 90.4231 142.361 90.5726 142.361C91.3199 141.613 92.0672 140.715 92.964 139.966C92.964 139.966 93.1134 139.816 93.2629 139.816C93.4124 139.816 93.4124 139.816 93.5618 139.816C93.7113 139.816 93.7113 139.816 93.8607 139.966C94.0102 139.966 94.1597 140.116 94.3091 140.116C94.3091 140.116 94.3091 140.116 94.4586 140.116C94.608 139.966 94.608 139.816 94.7575 139.667C94.907 139.517 95.0564 139.367 95.2059 139.367C95.3554 139.367 95.5048 139.367 95.6543 139.367C96.4016 139.367 96.9994 139.667 97.5973 140.116C98.1951 140.565 98.6435 140.864 99.2413 141.014C99.3908 141.164 99.3908 141.164 99.5402 141.164C99.6897 141.164 99.8392 141.164 99.8392 141.014C99.9886 141.014 100.138 140.864 100.138 140.864C100.138 140.715 100.138 140.715 100.288 140.565C100.288 140.415 100.437 140.265 100.437 140.265C100.437 140.116 100.586 139.966 100.586 139.816C100.736 139.667 100.736 139.517 100.885 139.517C101.184 139.367 101.334 139.218 101.633 139.068H101.782H101.932C102.38 138.619 102.978 138.469 103.426 138.319C103.725 138.17 103.875 138.17 104.024 138.02C104.323 137.87 104.472 137.721 104.771 137.571C105.07 137.421 105.369 137.122 105.519 136.972C105.668 136.822 105.818 136.822 106.117 136.673C106.266 136.673 106.565 136.822 106.864 136.972C107.163 137.122 107.462 137.272 107.611 137.272H107.761C108.06 137.272 108.209 137.272 108.358 137.272C108.508 137.272 108.657 137.272 108.807 137.122C108.807 137.122 108.956 136.972 109.106 136.822C109.106 136.373 109.405 135.924 109.554 135.625C109.853 135.325 110.152 135.026 110.301 134.727C110.451 134.577 110.6 134.278 110.75 134.128C110.899 133.978 111.198 133.829 111.348 133.679C111.497 133.679 111.647 133.529 111.796 133.379C111.945 133.23 111.945 133.08 111.945 132.93C112.095 132.631 112.095 132.182 112.095 131.882V131.733L112.842 131.284C112.992 131.134 113.141 130.984 113.141 130.835C113.291 130.685 113.291 130.386 113.44 130.236C113.59 130.086 113.59 130.086 113.739 129.936H113.888C114.038 129.936 114.038 129.936 114.187 130.086L114.337 130.236C114.486 130.386 114.486 130.535 114.486 130.535C114.636 130.685 114.636 130.685 114.785 130.685C114.935 130.685 115.084 130.685 115.234 130.685C115.383 130.685 115.383 130.685 115.533 130.685C115.682 130.835 115.831 130.984 115.981 130.984C116.13 130.984 116.429 130.835 116.728 130.835C117.027 130.685 117.177 130.685 117.476 130.535C117.625 130.535 117.774 130.386 117.924 130.386C118.073 130.386 118.073 130.386 118.223 130.386C118.372 130.386 118.372 130.535 118.372 130.685V130.835C118.223 130.535 118.073 130.685 118.073 130.835Z" fill="white"/>
<path d="M284.872 214.365V199.096H288.908C291.15 199.096 292.345 200.144 292.345 203.587V209.725C292.345 213.168 291 214.216 288.908 214.216H284.872V214.365ZM288.758 221.251C295.633 221.251 299.221 217.06 299.221 209.276V204.036C299.221 196.252 295.783 192.061 288.758 192.061H284.723V179.785H297.128V172.899H277.848V221.102H288.758V221.251Z" fill="white"/>
<path d="M313.718 181.582L317.007 205.983H310.43L313.718 181.582ZM319.099 173.049H309.085L302.061 221.252H308.338L309.534 212.569H318.053L319.249 221.252H326.124L319.099 173.049Z" fill="white"/>
<path d="M361.844 221.252V173.049H354.969V214.366H348.991V173.049H342.115V214.366H336.286V173.049H329.262V221.252H361.844Z" fill="white"/>
<path d="M382.619 221.252H389.644L380.078 194.456L389.644 173.049H382.769L373.801 194.007V173.049H366.926V221.252H373.801V206.432L375.893 202.09L382.619 221.252Z" fill="white"/>
<path d="M392.184 209.725C392.184 217.509 395.92 221.85 402.646 221.85C409.372 221.85 413.108 217.509 413.108 209.725V184.576C413.108 176.791 409.372 172.45 402.646 172.45C395.92 172.45 392.184 176.791 392.184 184.576V209.725ZM399.059 184.127C399.059 180.684 400.404 179.336 402.646 179.336C404.888 179.336 406.233 180.684 406.233 184.127V210.174C406.233 213.617 404.888 214.964 402.646 214.964C400.404 214.964 399.059 213.617 399.059 210.174V184.127Z" fill="white"/>
<path d="M427.757 179.935C429.999 179.935 431.195 180.983 431.195 184.426V191.612C431.195 195.055 429.999 196.103 427.757 196.103H424.469V179.786H427.757V179.935ZM427.757 173.049H417.594V221.252H424.469V203.138H427.757C434.632 203.138 438.07 198.947 438.07 191.163V184.875C438.07 177.241 434.632 173.049 427.757 173.049Z" fill="white"/>
<path d="M439.266 179.935H446.44V221.252H453.315V179.935H460.489V173.049H439.266V179.935Z" fill="white"/>
<path d="M463.029 209.725C463.029 217.509 466.766 221.85 473.492 221.85C480.217 221.85 483.954 217.509 483.954 209.725V184.576C483.954 176.791 480.217 172.45 473.492 172.45C466.766 172.45 463.029 176.791 463.029 184.576V209.725ZM469.904 184.127C469.904 180.684 471.25 179.336 473.492 179.336C475.733 179.336 477.079 180.684 477.079 184.127V210.174C477.079 213.617 475.733 214.964 473.492 214.964C471.25 214.964 469.904 213.617 469.904 210.174V184.127Z" fill="white"/>
<path d="M501.741 203.288V210.174C501.741 213.617 500.396 214.815 498.154 214.815C495.912 214.815 494.567 213.617 494.567 210.174V184.127C494.567 180.684 495.912 179.336 498.154 179.336C500.396 179.336 501.741 180.684 501.741 184.127V189.366H508.317V184.726C508.317 176.941 504.879 172.6 498.004 172.6C491.129 172.6 487.691 176.941 487.691 184.726V209.875C487.691 217.659 491.129 222 498.004 222C504.879 222 508.317 217.659 508.317 209.875V203.438H501.741V203.288Z" fill="white"/>
<path d="M510.559 179.935H517.733V221.252H524.608V179.935H531.782V173.049H510.559V179.935Z" fill="white"/>
<path d="M544.634 181.582L547.923 205.983H541.346L544.634 181.582ZM550.015 173.049H540.001L532.977 221.252H539.254L540.45 212.569H548.969L550.164 221.252H557.04L550.015 173.049Z" fill="white"/>
<path d="M567.203 200.593H574.975V221.252H582V173.049H574.975V193.707H567.203V173.049H560.328V221.252H567.203V200.593Z" fill="white"/>
</svg>
