<svg width="1974" height="1374" viewBox="0 0 1974 1374" fill="none" xmlns="http://www.w3.org/2000/svg">
<path d="M24.3389 20.709H15.6475V44H11.5947V20.709H3.00098V17.2422H24.3389V20.709ZM33.6895 28.3018H40.9893C44.391 28.3018 46.9056 28.9365 48.5332 30.2061C50.1771 31.4593 50.999 33.3392 50.999 35.8457C50.999 38.5312 50.1283 40.5658 48.3867 41.9492C46.6615 43.3164 44.1143 44 40.7451 44H29.6367V17.2422H33.6895V28.3018ZM59.5439 44H55.4912V17.2422H59.5439V44ZM33.6895 31.793V40.6064H40.5498C44.8467 40.6064 46.9951 39.1009 46.9951 36.0898C46.9951 34.5924 46.4987 33.502 45.5059 32.8184C44.513 32.1348 42.8203 31.793 40.4277 31.793H33.6895ZM78.8555 44.4883C74.9818 44.4883 71.9788 43.3001 69.8467 40.9238C67.7308 38.5312 66.6729 35.154 66.6729 30.792C66.6729 26.3161 67.7471 22.8574 69.8955 20.416C72.0602 17.9746 75.1364 16.7539 79.124 16.7539C80.4098 16.7539 81.6956 16.8923 82.9814 17.1689C84.2673 17.4456 85.2764 17.7712 86.0088 18.1455L84.7637 21.5879C83.8685 21.2298 82.8919 20.9368 81.834 20.709C80.776 20.4648 79.8402 20.3428 79.0264 20.3428C73.5902 20.3428 70.8721 23.8096 70.8721 30.7432C70.8721 34.0309 71.5312 36.5537 72.8496 38.3115C74.1842 40.0693 76.1536 40.9482 78.7578 40.9482C80.9876 40.9482 83.2744 40.4681 85.6182 39.5078V43.0967C83.8278 44.0244 81.5736 44.4883 78.8555 44.4883ZM91.4043 41.4121C91.4043 40.3216 91.6484 39.4997 92.1367 38.9463C92.6413 38.3766 93.3574 38.0918 94.2852 38.0918C95.2292 38.0918 95.9616 38.3766 96.4824 38.9463C97.0195 39.4997 97.2881 40.3216 97.2881 41.4121C97.2881 42.4701 97.0195 43.2839 96.4824 43.8535C95.9453 44.4232 95.2129 44.708 94.2852 44.708C93.4551 44.708 92.7633 44.4557 92.21 43.9512C91.6729 43.4303 91.4043 42.584 91.4043 41.4121ZM108.885 17.2422V27.0078C108.885 30.1328 110.667 31.6953 114.231 31.6953C115.713 31.6953 117.129 31.4674 118.479 31.0117C119.83 30.556 121.36 29.7829 123.069 28.6924V17.2422H127.122V44H123.069V31.8906C121.36 33.0625 119.773 33.8926 118.309 34.3809C116.86 34.8529 115.216 35.0889 113.377 35.0889C110.708 35.0889 108.616 34.389 107.103 32.9893C105.589 31.5895 104.832 29.6934 104.832 27.3008V17.2422H108.885ZM147.044 44.4883C143.089 44.4883 139.964 43.2839 137.669 40.875C135.39 38.4661 134.251 35.1214 134.251 30.8408C134.251 26.5277 135.309 23.1016 137.425 20.5625C139.557 18.0234 142.413 16.7539 145.994 16.7539C149.347 16.7539 152 17.8607 153.953 20.0742C155.906 22.2715 156.883 25.1768 156.883 28.79V31.3535H138.45C138.532 34.4948 139.321 36.8792 140.818 38.5068C142.332 40.1344 144.456 40.9482 147.19 40.9482C150.071 40.9482 152.92 40.346 155.735 39.1416V42.7549C154.303 43.3734 152.944 43.8128 151.658 44.0732C150.389 44.3499 148.851 44.4883 147.044 44.4883ZM145.945 20.1475C143.797 20.1475 142.08 20.8473 140.794 22.2471C139.524 23.6468 138.776 25.5837 138.548 28.0576H152.537C152.537 25.5023 151.967 23.5492 150.828 22.1982C149.689 20.8311 148.061 20.1475 145.945 20.1475ZM183.763 44H179.661V20.709H171.629C171.189 26.5033 170.579 31.1012 169.798 34.5029C169.017 37.9046 167.999 40.3949 166.746 41.9736C165.509 43.5524 163.93 44.3418 162.01 44.3418C161.131 44.3418 160.431 44.2441 159.91 44.0488V41.0459C160.268 41.1436 160.675 41.1924 161.131 41.1924C163.003 41.1924 164.492 39.2148 165.599 35.2598C166.705 31.3047 167.544 25.2988 168.113 17.2422H183.763V44ZM191.795 41.4121C191.795 40.3216 192.039 39.4997 192.527 38.9463C193.032 38.3766 193.748 38.0918 194.676 38.0918C195.62 38.0918 196.352 38.3766 196.873 38.9463C197.41 39.4997 197.679 40.3216 197.679 41.4121C197.679 42.4701 197.41 43.2839 196.873 43.8535C196.336 44.4232 195.604 44.708 194.676 44.708C193.846 44.708 193.154 44.4557 192.601 43.9512C192.063 43.4303 191.795 42.584 191.795 41.4121Z" fill="white"/>
<rect x="615" y="120" width="645" height="1254" fill="#C4C4C4" fill-opacity="0.05"/>
<path d="M26.9531 194H2.00195V188.751L10.9619 179.693C13.6149 176.975 15.3483 175.095 16.1621 174.054C16.9759 172.996 17.5618 172.019 17.9199 171.124C18.278 170.229 18.457 169.301 18.457 168.341C18.457 166.909 18.0583 165.842 17.2607 165.143C16.4795 164.443 15.4297 164.093 14.1113 164.093C12.7279 164.093 11.3851 164.41 10.083 165.045C8.78092 165.68 7.42188 166.583 6.00586 167.755L1.9043 162.896C3.66211 161.399 5.11882 160.341 6.27441 159.723C7.43001 159.104 8.69141 158.632 10.0586 158.307C11.4258 157.965 12.9557 157.794 14.6484 157.794C16.8783 157.794 18.8477 158.201 20.5566 159.015C22.2656 159.828 23.5921 160.968 24.5361 162.433C25.4801 163.897 25.9521 165.574 25.9521 167.462C25.9521 169.106 25.6592 170.652 25.0732 172.101C24.5036 173.533 23.6084 175.006 22.3877 176.52C21.1833 178.033 19.0511 180.19 15.9912 182.989L11.4014 187.311V187.652H26.9531V194ZM55.3223 176.153C55.3223 182.387 54.2969 187.001 52.2461 189.996C50.2116 192.991 47.0703 194.488 42.8223 194.488C38.7044 194.488 35.5957 192.942 33.4961 189.85C31.4128 186.757 30.3711 182.192 30.3711 176.153C30.3711 169.854 31.3883 165.216 33.4229 162.237C35.4574 159.243 38.5905 157.745 42.8223 157.745C46.9401 157.745 50.0488 159.308 52.1484 162.433C54.2643 165.558 55.3223 170.131 55.3223 176.153ZM37.8662 176.153C37.8662 180.532 38.2406 183.673 38.9893 185.577C39.7542 187.465 41.0319 188.409 42.8223 188.409C44.5801 188.409 45.8496 187.449 46.6309 185.528C47.4121 183.608 47.8027 180.483 47.8027 176.153C47.8027 171.775 47.404 168.634 46.6064 166.729C45.8252 164.809 44.5638 163.849 42.8223 163.849C41.0482 163.849 39.7786 164.809 39.0137 166.729C38.2487 168.634 37.8662 171.775 37.8662 176.153ZM77.7832 194H70.2393V173.346L70.3125 169.952L70.4346 166.241C69.1813 167.494 68.3105 168.316 67.8223 168.707L63.7207 172.003L60.083 167.462L71.582 158.307H77.7832V194ZM100 157.843C103.418 157.843 106.169 158.624 108.252 160.187C110.352 161.733 111.401 163.824 111.401 166.461C111.401 168.284 110.897 169.911 109.888 171.344C108.879 172.76 107.251 174.029 105.005 175.152C107.674 176.585 109.587 178.082 110.742 179.645C111.914 181.191 112.5 182.892 112.5 184.747C112.5 187.677 111.353 190.037 109.058 191.827C106.763 193.601 103.743 194.488 100 194.488C96.0938 194.488 93.0257 193.658 90.7959 191.998C88.5661 190.338 87.4512 187.986 87.4512 184.942C87.4512 182.908 87.9883 181.101 89.0625 179.522C90.153 177.944 91.8945 176.552 94.2871 175.348C92.2526 174.062 90.7878 172.687 89.8926 171.222C88.9974 169.757 88.5498 168.154 88.5498 166.412C88.5498 163.857 89.6077 161.79 91.7236 160.211C93.8395 158.632 96.5983 157.843 100 157.843ZM94.4336 184.503C94.4336 185.903 94.9219 186.993 95.8984 187.774C96.875 188.556 98.2096 188.946 99.9023 188.946C101.774 188.946 103.174 188.548 104.102 187.75C105.029 186.936 105.493 185.87 105.493 184.552C105.493 183.461 105.029 182.444 104.102 181.5C103.19 180.54 101.701 179.522 99.6338 178.448C96.167 180.043 94.4336 182.062 94.4336 184.503ZM99.9512 163.36C98.6654 163.36 97.6237 163.694 96.8262 164.361C96.0449 165.012 95.6543 165.891 95.6543 166.998C95.6543 167.975 95.9635 168.854 96.582 169.635C97.2168 170.4 98.3561 171.189 100 172.003C101.595 171.254 102.71 170.489 103.345 169.708C103.979 168.927 104.297 168.023 104.297 166.998C104.297 165.875 103.89 164.988 103.076 164.337C102.262 163.686 101.221 163.36 99.9512 163.36Z" fill="white"/>
<path d="M671.953 194H647.002V188.751L655.962 179.693C658.615 176.975 660.348 175.095 661.162 174.054C661.976 172.996 662.562 172.019 662.92 171.124C663.278 170.229 663.457 169.301 663.457 168.341C663.457 166.909 663.058 165.842 662.261 165.143C661.479 164.443 660.43 164.093 659.111 164.093C657.728 164.093 656.385 164.41 655.083 165.045C653.781 165.68 652.422 166.583 651.006 167.755L646.904 162.896C648.662 161.399 650.119 160.341 651.274 159.723C652.43 159.104 653.691 158.632 655.059 158.307C656.426 157.965 657.956 157.794 659.648 157.794C661.878 157.794 663.848 158.201 665.557 159.015C667.266 159.828 668.592 160.968 669.536 162.433C670.48 163.897 670.952 165.574 670.952 167.462C670.952 169.106 670.659 170.652 670.073 172.101C669.504 173.533 668.608 175.006 667.388 176.52C666.183 178.033 664.051 180.19 660.991 182.989L656.401 187.311V187.652H671.953V194ZM700.322 176.153C700.322 182.387 699.297 187.001 697.246 189.996C695.212 192.991 692.07 194.488 687.822 194.488C683.704 194.488 680.596 192.942 678.496 189.85C676.413 186.757 675.371 182.192 675.371 176.153C675.371 169.854 676.388 165.216 678.423 162.237C680.457 159.243 683.59 157.745 687.822 157.745C691.94 157.745 695.049 159.308 697.148 162.433C699.264 165.558 700.322 170.131 700.322 176.153ZM682.866 176.153C682.866 180.532 683.241 183.673 683.989 185.577C684.754 187.465 686.032 188.409 687.822 188.409C689.58 188.409 690.85 187.449 691.631 185.528C692.412 183.608 692.803 180.483 692.803 176.153C692.803 171.775 692.404 168.634 691.606 166.729C690.825 164.809 689.564 163.849 687.822 163.849C686.048 163.849 684.779 164.809 684.014 166.729C683.249 168.634 682.866 171.775 682.866 176.153ZM722.783 194H715.239V173.346L715.312 169.952L715.435 166.241C714.181 167.494 713.311 168.316 712.822 168.707L708.721 172.003L705.083 167.462L716.582 158.307H722.783V194ZM757.5 173.541C757.5 180.572 756.019 185.821 753.057 189.288C750.094 192.755 745.61 194.488 739.604 194.488C737.489 194.488 735.885 194.374 734.795 194.146V188.092C736.162 188.434 737.594 188.604 739.092 188.604C741.615 188.604 743.69 188.238 745.317 187.506C746.945 186.757 748.19 185.593 749.053 184.015C749.915 182.42 750.412 180.23 750.542 177.447H750.249C749.305 178.977 748.215 180.051 746.978 180.67C745.741 181.288 744.194 181.598 742.339 181.598C739.23 181.598 736.781 180.605 734.99 178.619C733.2 176.617 732.305 173.842 732.305 170.294C732.305 166.469 733.387 163.45 735.552 161.236C737.733 159.007 740.695 157.892 744.438 157.892C747.075 157.892 749.378 158.51 751.348 159.747C753.333 160.984 754.855 162.783 755.913 165.143C756.971 167.486 757.5 170.286 757.5 173.541ZM744.585 163.946C743.022 163.946 741.802 164.483 740.923 165.558C740.044 166.632 739.604 168.178 739.604 170.196C739.604 171.922 740.003 173.289 740.801 174.298C741.598 175.307 742.811 175.812 744.438 175.812C745.968 175.812 747.279 175.315 748.369 174.322C749.46 173.313 750.005 172.158 750.005 170.855C750.005 168.919 749.492 167.283 748.467 165.948C747.458 164.614 746.164 163.946 744.585 163.946Z" fill="white"/>
<path d="M1316.95 194H1292V188.751L1300.96 179.693C1303.61 176.975 1305.35 175.095 1306.16 174.054C1306.98 172.996 1307.56 172.019 1307.92 171.124C1308.28 170.229 1308.46 169.301 1308.46 168.341C1308.46 166.909 1308.06 165.842 1307.26 165.143C1306.48 164.443 1305.43 164.093 1304.11 164.093C1302.73 164.093 1301.39 164.41 1300.08 165.045C1298.78 165.68 1297.42 166.583 1296.01 167.755L1291.9 162.896C1293.66 161.399 1295.12 160.341 1296.27 159.723C1297.43 159.104 1298.69 158.632 1300.06 158.307C1301.43 157.965 1302.96 157.794 1304.65 157.794C1306.88 157.794 1308.85 158.201 1310.56 159.015C1312.27 159.828 1313.59 160.968 1314.54 162.433C1315.48 163.897 1315.95 165.574 1315.95 167.462C1315.95 169.106 1315.66 170.652 1315.07 172.101C1314.5 173.533 1313.61 175.006 1312.39 176.52C1311.18 178.033 1309.05 180.19 1305.99 182.989L1301.4 187.311V187.652H1316.95V194ZM1345.32 176.153C1345.32 182.387 1344.3 187.001 1342.25 189.996C1340.21 192.991 1337.07 194.488 1332.82 194.488C1328.7 194.488 1325.6 192.942 1323.5 189.85C1321.41 186.757 1320.37 182.192 1320.37 176.153C1320.37 169.854 1321.39 165.216 1323.42 162.237C1325.46 159.243 1328.59 157.745 1332.82 157.745C1336.94 157.745 1340.05 159.308 1342.15 162.433C1344.26 165.558 1345.32 170.131 1345.32 176.153ZM1327.87 176.153C1327.87 180.532 1328.24 183.673 1328.99 185.577C1329.75 187.465 1331.03 188.409 1332.82 188.409C1334.58 188.409 1335.85 187.449 1336.63 185.528C1337.41 183.608 1337.8 180.483 1337.8 176.153C1337.8 171.775 1337.4 168.634 1336.61 166.729C1335.83 164.809 1334.56 163.849 1332.82 163.849C1331.05 163.849 1329.78 164.809 1329.01 166.729C1328.25 168.634 1327.87 171.775 1327.87 176.153ZM1374.08 194H1349.13V188.751L1358.09 179.693C1360.74 176.975 1362.48 175.095 1363.29 174.054C1364.1 172.996 1364.69 172.019 1365.05 171.124C1365.41 170.229 1365.59 169.301 1365.59 168.341C1365.59 166.909 1365.19 165.842 1364.39 165.143C1363.61 164.443 1362.56 164.093 1361.24 164.093C1359.86 164.093 1358.51 164.41 1357.21 165.045C1355.91 165.68 1354.55 166.583 1353.13 167.755L1349.03 162.896C1350.79 161.399 1352.25 160.341 1353.4 159.723C1354.56 159.104 1355.82 158.632 1357.19 158.307C1358.55 157.965 1360.08 157.794 1361.78 157.794C1364.01 157.794 1365.98 158.201 1367.69 159.015C1369.39 159.828 1370.72 160.968 1371.67 162.433C1372.61 163.897 1373.08 165.574 1373.08 167.462C1373.08 169.106 1372.79 170.652 1372.2 172.101C1371.63 173.533 1370.74 175.006 1369.52 176.52C1368.31 178.033 1366.18 180.19 1363.12 182.989L1358.53 187.311V187.652H1374.08V194ZM1402.45 176.153C1402.45 182.387 1401.43 187.001 1399.38 189.996C1397.34 192.991 1394.2 194.488 1389.95 194.488C1385.83 194.488 1382.72 192.942 1380.62 189.85C1378.54 186.757 1377.5 182.192 1377.5 176.153C1377.5 169.854 1378.52 165.216 1380.55 162.237C1382.59 159.243 1385.72 157.745 1389.95 157.745C1394.07 157.745 1397.18 159.308 1399.28 162.433C1401.39 165.558 1402.45 170.131 1402.45 176.153ZM1385 176.153C1385 180.532 1385.37 183.673 1386.12 185.577C1386.88 187.465 1388.16 188.409 1389.95 188.409C1391.71 188.409 1392.98 187.449 1393.76 185.528C1394.54 183.608 1394.93 180.483 1394.93 176.153C1394.93 171.775 1394.53 168.634 1393.74 166.729C1392.95 164.809 1391.69 163.849 1389.95 163.849C1388.18 163.849 1386.91 164.809 1386.14 166.729C1385.38 168.634 1385 171.775 1385 176.153Z" fill="white"/>
<line y1="226" x2="1974" y2="226" stroke="#6A7186" stroke-width="4"/>
<path d="M1294.51 309H1292.32V294.551H1304.45V309H1302.23V296.449H1294.51V309ZM1319.86 309H1317.65V296.423H1313.31C1313.07 299.552 1312.74 302.035 1312.32 303.872C1311.9 305.708 1311.35 307.053 1310.67 307.906C1310 308.758 1309.15 309.185 1308.11 309.185C1307.64 309.185 1307.26 309.132 1306.98 309.026V307.405C1307.17 307.458 1307.39 307.484 1307.64 307.484C1308.65 307.484 1309.45 306.416 1310.05 304.28C1310.65 302.145 1311.1 298.901 1311.41 294.551H1319.86V309ZM1333.4 309L1332.97 306.943H1332.86C1332.14 307.849 1331.42 308.464 1330.7 308.789C1329.99 309.105 1329.09 309.264 1328.02 309.264C1326.59 309.264 1325.46 308.895 1324.65 308.156C1323.84 307.418 1323.43 306.368 1323.43 305.005C1323.43 302.087 1325.77 300.558 1330.43 300.417L1332.89 300.338V299.442C1332.89 298.308 1332.64 297.473 1332.15 296.937C1331.66 296.392 1330.89 296.12 1329.81 296.12C1328.61 296.12 1327.25 296.489 1325.73 297.227L1325.06 295.553C1325.77 295.166 1326.54 294.863 1327.39 294.643C1328.24 294.423 1329.09 294.313 1329.95 294.313C1331.67 294.313 1332.94 294.696 1333.77 295.46C1334.6 296.225 1335.02 297.451 1335.02 299.139V309H1333.4ZM1328.46 307.458C1329.82 307.458 1330.89 307.084 1331.66 306.337C1332.44 305.59 1332.83 304.544 1332.83 303.199V301.894L1330.65 301.986C1328.9 302.048 1327.65 302.32 1326.87 302.804C1326.11 303.278 1325.73 304.021 1325.73 305.032C1325.73 305.823 1325.96 306.425 1326.44 306.838C1326.92 307.251 1327.6 307.458 1328.46 307.458ZM1341.73 294.551V300.602H1349.83V294.551H1352.02V309H1349.83V302.487H1341.73V309H1339.54V294.551H1341.73Z" fill="white"/>
<path d="M649.509 319H647.32V304.551H659.449V319H657.234V306.449H649.509V319ZM674.861 319H672.646V306.423H668.309C668.071 309.552 667.742 312.035 667.32 313.872C666.898 315.708 666.349 317.053 665.672 317.906C665.004 318.758 664.151 319.185 663.114 319.185C662.64 319.185 662.262 319.132 661.98 319.026V317.405C662.174 317.458 662.394 317.484 662.64 317.484C663.65 317.484 664.455 316.416 665.052 314.28C665.65 312.145 666.103 308.901 666.41 304.551H674.861V319ZM688.4 319L687.965 316.943H687.86C687.139 317.849 686.418 318.464 685.698 318.789C684.986 319.105 684.094 319.264 683.021 319.264C681.589 319.264 680.464 318.895 679.646 318.156C678.838 317.418 678.434 316.368 678.434 315.005C678.434 312.087 680.767 310.558 685.434 310.417L687.886 310.338V309.442C687.886 308.308 687.64 307.473 687.148 306.937C686.665 306.392 685.887 306.12 684.814 306.12C683.61 306.12 682.248 306.489 680.728 307.227L680.055 305.553C680.767 305.166 681.545 304.863 682.389 304.643C683.241 304.423 684.094 304.313 684.946 304.313C686.669 304.313 687.943 304.696 688.77 305.46C689.604 306.225 690.022 307.451 690.022 309.139V319H688.4ZM683.457 317.458C684.819 317.458 685.887 317.084 686.66 316.337C687.442 315.59 687.833 314.544 687.833 313.199V311.894L685.645 311.986C683.905 312.048 682.648 312.32 681.875 312.804C681.11 313.278 680.728 314.021 680.728 315.032C680.728 315.823 680.965 316.425 681.439 316.838C681.923 317.251 682.595 317.458 683.457 317.458ZM696.732 304.551V310.602H704.827V304.551H707.016V319H704.827V312.487H696.732V319H694.544V304.551H696.732Z" fill="white"/>
<path d="M1307.8 497.762C1307.8 499.951 1307.17 501.695 1305.93 502.996C1304.69 504.288 1302.95 505.026 1300.72 505.211V511.486H1298.56V505.211C1296.38 505.044 1294.65 504.297 1293.39 502.97C1292.12 501.643 1291.49 499.907 1291.49 497.762C1291.49 495.574 1292.12 493.833 1293.38 492.542C1294.64 491.25 1296.39 490.516 1298.64 490.34V484.486H1300.72V490.34C1302.92 490.542 1304.66 491.302 1305.91 492.621C1307.17 493.939 1307.8 495.653 1307.8 497.762ZM1293.78 497.762C1293.78 499.45 1294.17 500.772 1294.94 501.73C1295.72 502.688 1296.95 503.247 1298.64 503.405V492.172C1297.01 492.322 1295.79 492.854 1294.98 493.768C1294.18 494.673 1293.78 496.004 1293.78 497.762ZM1305.53 497.762C1305.53 494.396 1303.93 492.542 1300.72 492.199V503.405C1302.39 503.238 1303.61 502.675 1304.37 501.717C1305.14 500.759 1305.53 499.441 1305.53 497.762ZM1320.51 505L1320.07 502.943H1319.97C1319.25 503.849 1318.52 504.464 1317.8 504.789C1317.09 505.105 1316.2 505.264 1315.13 505.264C1313.7 505.264 1312.57 504.895 1311.75 504.156C1310.94 503.418 1310.54 502.368 1310.54 501.005C1310.54 498.087 1312.87 496.558 1317.54 496.417L1319.99 496.338V495.442C1319.99 494.308 1319.75 493.473 1319.25 492.937C1318.77 492.392 1317.99 492.12 1316.92 492.12C1315.72 492.12 1314.35 492.489 1312.83 493.227L1312.16 491.553C1312.87 491.166 1313.65 490.863 1314.5 490.643C1315.35 490.423 1316.2 490.313 1317.05 490.313C1318.78 490.313 1320.05 490.696 1320.88 491.46C1321.71 492.225 1322.13 493.451 1322.13 495.139V505H1320.51ZM1315.56 503.458C1316.93 503.458 1317.99 503.084 1318.77 502.337C1319.55 501.59 1319.94 500.544 1319.94 499.199V497.894L1317.75 497.986C1316.01 498.048 1314.75 498.32 1313.98 498.804C1313.22 499.278 1312.83 500.021 1312.83 501.032C1312.83 501.823 1313.07 502.425 1313.55 502.838C1314.03 503.251 1314.7 503.458 1315.56 503.458ZM1335.07 490.551H1337.47L1331.24 497.525L1337.99 505H1335.43L1328.84 497.683V505H1326.65V490.551H1328.84V497.578L1335.07 490.551ZM1350.42 492.423H1345.73V505H1343.54V492.423H1338.9V490.551H1350.42V492.423Z" fill="white"/>
<path d="M671.798 497.762C671.798 499.951 671.174 501.695 669.926 502.996C668.687 504.288 666.951 505.026 664.718 505.211V511.486H662.556V505.211C660.376 505.044 658.654 504.297 657.388 502.97C656.123 501.643 655.49 499.907 655.49 497.762C655.49 495.574 656.118 493.833 657.375 492.542C658.641 491.25 660.394 490.516 662.635 490.34V484.486H664.718V490.34C666.924 490.542 668.656 491.302 669.913 492.621C671.169 493.939 671.798 495.653 671.798 497.762ZM657.784 497.762C657.784 499.45 658.17 500.772 658.944 501.73C659.717 502.688 660.948 503.247 662.635 503.405V492.172C661.009 492.322 659.792 492.854 658.983 493.768C658.184 494.673 657.784 496.004 657.784 497.762ZM669.53 497.762C669.53 494.396 667.926 492.542 664.718 492.199V503.405C666.388 503.238 667.605 502.675 668.37 501.717C669.144 500.759 669.53 499.441 669.53 497.762ZM684.507 505L684.072 502.943H683.966C683.246 503.849 682.525 504.464 681.804 504.789C681.092 505.105 680.2 505.264 679.128 505.264C677.695 505.264 676.57 504.895 675.753 504.156C674.944 503.418 674.54 502.368 674.54 501.005C674.54 498.087 676.874 496.558 681.541 496.417L683.993 496.338V495.442C683.993 494.308 683.747 493.473 683.254 492.937C682.771 492.392 681.993 492.12 680.921 492.12C679.717 492.12 678.354 492.489 676.834 493.227L676.162 491.553C676.874 491.166 677.651 490.863 678.495 490.643C679.348 490.423 680.2 490.313 681.053 490.313C682.775 490.313 684.05 490.696 684.876 491.46C685.711 492.225 686.128 493.451 686.128 495.139V505H684.507ZM679.563 503.458C680.925 503.458 681.993 503.084 682.767 502.337C683.549 501.59 683.94 500.544 683.94 499.199V497.894L681.751 497.986C680.011 498.048 678.754 498.32 677.981 498.804C677.216 499.278 676.834 500.021 676.834 501.032C676.834 501.823 677.071 502.425 677.546 502.838C678.029 503.251 678.702 503.458 679.563 503.458ZM699.075 490.551H701.474L695.238 497.525L701.988 505H699.431L692.839 497.683V505H690.65V490.551H692.839V497.578L699.075 490.551ZM714.42 492.423H709.727V505H707.539V492.423H702.898V490.551H714.42V492.423Z" fill="white"/>
<path d="M703.975 376.99C703.975 392.459 700.716 404.007 694.199 411.634C687.682 419.261 677.817 423.074 664.604 423.074C659.95 423.074 656.423 422.824 654.023 422.322V409.002C657.031 409.754 660.182 410.13 663.477 410.13C669.027 410.13 673.592 409.324 677.173 407.713C680.754 406.066 683.493 403.506 685.391 400.032C687.288 396.523 688.381 391.707 688.667 385.584H688.022C685.946 388.95 683.547 391.313 680.825 392.674C678.104 394.035 674.702 394.715 670.62 394.715C663.781 394.715 658.392 392.531 654.453 388.162C650.514 383.758 648.545 377.653 648.545 369.847C648.545 361.432 650.926 354.79 655.688 349.92C660.487 345.014 667.004 342.562 675.239 342.562C681.04 342.562 686.107 343.922 690.439 346.644C694.808 349.365 698.156 353.322 700.483 358.514C702.811 363.67 703.975 369.829 703.975 376.99ZM675.562 355.882C672.124 355.882 669.438 357.063 667.505 359.427C665.571 361.79 664.604 365.192 664.604 369.632C664.604 373.427 665.482 376.435 667.236 378.655C668.991 380.875 671.659 381.985 675.239 381.985C678.605 381.985 681.488 380.893 683.887 378.709C686.286 376.489 687.485 373.947 687.485 371.082C687.485 366.821 686.357 363.222 684.102 360.286C681.882 357.35 679.035 355.882 675.562 355.882ZM740.82 371.834C748.411 371.834 754.445 373.965 758.921 378.226C763.433 382.487 765.688 388.323 765.688 395.735C765.688 404.508 762.985 411.258 757.578 415.984C752.171 420.711 744.437 423.074 734.375 423.074C725.638 423.074 718.584 421.66 713.213 418.831V404.49C716.042 405.994 719.336 407.229 723.096 408.196C726.855 409.127 730.418 409.593 733.784 409.593C743.918 409.593 748.984 405.439 748.984 397.132C748.984 389.218 743.739 385.262 733.247 385.262C731.349 385.262 729.255 385.459 726.963 385.853C724.671 386.211 722.809 386.604 721.377 387.034L714.771 383.489L717.725 343.475H760.317V357.547H732.28L730.83 372.962L732.71 372.586C734.894 372.085 737.598 371.834 740.82 371.834ZM795.337 410.452C793.475 417.685 790.324 426.261 785.884 436.18H774.067C776.395 426.655 778.203 417.667 779.492 409.217H794.531L795.337 410.452ZM861.885 422H806.992V410.452L826.704 390.525C832.541 384.546 836.354 380.41 838.145 378.118C839.935 375.791 841.224 373.642 842.012 371.673C842.799 369.703 843.193 367.662 843.193 365.55C843.193 362.399 842.316 360.053 840.562 358.514C838.843 356.974 836.533 356.204 833.633 356.204C830.589 356.204 827.635 356.902 824.771 358.299C821.906 359.695 818.916 361.683 815.801 364.261L806.777 353.572C810.645 350.278 813.849 347.951 816.392 346.59C818.934 345.229 821.709 344.191 824.717 343.475C827.725 342.723 831.09 342.347 834.814 342.347C839.72 342.347 844.053 343.242 847.812 345.032C851.572 346.823 854.491 349.329 856.567 352.552C858.644 355.774 859.683 359.463 859.683 363.616C859.683 367.233 859.038 370.634 857.749 373.821C856.496 376.972 854.526 380.213 851.841 383.543C849.191 386.873 844.5 391.618 837.769 397.776L827.671 407.283V408.035H861.885V422Z" fill="white"/>
<path d="M45.4395 422H28.8428V376.561L29.0039 369.095L29.2725 360.931C26.5153 363.688 24.5996 365.496 23.5254 366.355L14.502 373.606L6.49902 363.616L31.7969 343.475H45.4395V422ZM108.281 422H91.6846V376.561L91.8457 369.095L92.1143 360.931C89.3571 363.688 87.4414 365.496 86.3672 366.355L77.3438 373.606L69.3408 363.616L94.6387 343.475H108.281V422ZM184.551 382.737C184.551 396.451 182.295 406.603 177.783 413.191C173.307 419.78 166.396 423.074 157.051 423.074C147.992 423.074 141.152 419.673 136.533 412.869C131.95 406.066 129.658 396.022 129.658 382.737C129.658 368.88 131.896 358.675 136.372 352.122C140.848 345.534 147.741 342.239 157.051 342.239C166.11 342.239 172.949 345.677 177.568 352.552C182.223 359.427 184.551 369.489 184.551 382.737ZM146.147 382.737C146.147 392.369 146.971 399.28 148.618 403.47C150.301 407.623 153.112 409.7 157.051 409.7C160.918 409.7 163.711 407.588 165.43 403.362C167.148 399.137 168.008 392.262 168.008 382.737C168.008 373.105 167.131 366.194 165.376 362.005C163.657 357.78 160.882 355.667 157.051 355.667C153.148 355.667 150.355 357.78 148.672 362.005C146.989 366.194 146.147 373.105 146.147 382.737ZM213.179 410.452C211.317 417.685 208.166 426.261 203.726 436.18H191.909C194.237 426.655 196.045 417.667 197.334 409.217H212.373L213.179 410.452ZM232.622 422L262.109 357.547H223.384V343.582H279.727V354.002L250.024 422H232.622ZM344.341 405.726H334.888V422H318.667V405.726H285.151V394.178L319.58 343.475H334.888V392.835H344.341V405.726ZM318.667 392.835V379.515C318.667 377.295 318.757 374.072 318.936 369.847C319.115 365.621 319.258 363.169 319.365 362.488H318.936C317.611 365.424 316.017 368.289 314.155 371.082L299.761 392.835H318.667Z" fill="white"/>
<path d="M1335.44 618H1318.84V572.561L1319 565.095L1319.27 556.931C1316.52 559.688 1314.6 561.496 1313.53 562.355L1304.5 569.606L1296.5 559.616L1321.8 539.475H1335.44V618ZM1398.28 618H1381.68V572.561L1381.85 565.095L1382.11 556.931C1379.36 559.688 1377.44 561.496 1376.37 562.355L1367.34 569.606L1359.34 559.616L1384.64 539.475H1398.28V618ZM1474.98 618H1420.09V606.452L1439.8 586.525C1445.64 580.546 1449.45 576.41 1451.24 574.118C1453.03 571.791 1454.32 569.642 1455.11 567.673C1455.9 565.703 1456.29 563.662 1456.29 561.55C1456.29 558.399 1455.41 556.053 1453.66 554.514C1451.94 552.974 1449.63 552.204 1446.73 552.204C1443.68 552.204 1440.73 552.902 1437.87 554.299C1435 555.695 1432.01 557.683 1428.9 560.261L1419.87 549.572C1423.74 546.278 1426.94 543.951 1429.49 542.59C1432.03 541.229 1434.8 540.191 1437.81 539.475C1440.82 538.723 1444.19 538.347 1447.91 538.347C1452.82 538.347 1457.15 539.242 1460.91 541.032C1464.67 542.823 1467.59 545.329 1469.66 548.552C1471.74 551.774 1472.78 555.463 1472.78 559.616C1472.78 563.233 1472.13 566.634 1470.84 569.821C1469.59 572.972 1467.62 576.213 1464.94 579.543C1462.29 582.873 1457.6 587.618 1450.86 593.776L1440.77 603.283V604.035H1474.98V618ZM1503.18 606.452C1501.32 613.685 1498.17 622.261 1493.73 632.18H1481.91C1484.24 622.655 1486.04 613.667 1487.33 605.217H1502.37L1503.18 606.452ZM1569.73 618H1514.83V606.452L1534.55 586.525C1540.38 580.546 1544.2 576.41 1545.99 574.118C1547.78 571.791 1549.07 569.642 1549.85 567.673C1550.64 565.703 1551.04 563.662 1551.04 561.55C1551.04 558.399 1550.16 556.053 1548.4 554.514C1546.68 552.974 1544.38 552.204 1541.47 552.204C1538.43 552.204 1535.48 552.902 1532.61 554.299C1529.75 555.695 1526.76 557.683 1523.64 560.261L1514.62 549.572C1518.49 546.278 1521.69 543.951 1524.23 542.59C1526.78 541.229 1529.55 540.191 1532.56 539.475C1535.57 538.723 1538.93 538.347 1542.66 538.347C1547.56 538.347 1551.89 539.242 1555.65 541.032C1559.41 542.823 1562.33 545.329 1564.41 548.552C1566.49 551.774 1567.52 555.463 1567.52 559.616C1567.52 563.233 1566.88 566.634 1565.59 569.821C1564.34 572.972 1562.37 576.213 1559.68 579.543C1557.03 582.873 1552.34 587.618 1545.61 593.776L1535.51 603.283V604.035H1569.73V618ZM1606.25 567.834C1613.84 567.834 1619.87 569.965 1624.35 574.226C1628.86 578.487 1631.12 584.323 1631.12 591.735C1631.12 600.508 1628.41 607.258 1623.01 611.984C1617.6 616.711 1609.87 619.074 1599.8 619.074C1591.07 619.074 1584.01 617.66 1578.64 614.831V600.49C1581.47 601.994 1584.77 603.229 1588.53 604.196C1592.29 605.127 1595.85 605.593 1599.21 605.593C1609.35 605.593 1614.41 601.439 1614.41 593.132C1614.41 585.218 1609.17 581.262 1598.68 581.262C1596.78 581.262 1594.68 581.459 1592.39 581.853C1590.1 582.211 1588.24 582.604 1586.81 583.034L1580.2 579.489L1583.15 539.475H1625.75V553.547H1597.71L1596.26 568.962L1598.14 568.586C1600.32 568.085 1603.03 567.834 1606.25 567.834Z" fill="#01F859"/>
<path d="M699.439 619H682.843V573.561L683.004 566.095L683.272 557.931C680.515 560.688 678.6 562.496 677.525 563.355L668.502 570.606L660.499 560.616L685.797 540.475H699.439V619ZM762.281 619H745.685V573.561L745.846 566.095L746.114 557.931C743.357 560.688 741.441 562.496 740.367 563.355L731.344 570.606L723.341 560.616L748.639 540.475H762.281V619ZM835.919 558.038C835.919 562.944 834.433 567.115 831.461 570.553C828.489 573.99 824.317 576.354 818.946 577.643V577.965C825.284 578.753 830.082 580.686 833.341 583.766C836.599 586.809 838.229 590.927 838.229 596.119C838.229 603.674 835.489 609.565 830.011 613.79C824.532 617.979 816.708 620.074 806.539 620.074C798.017 620.074 790.462 618.66 783.873 615.831V601.705C786.917 603.245 790.265 604.498 793.917 605.465C797.569 606.432 801.186 606.915 804.767 606.915C810.245 606.915 814.291 605.984 816.905 604.122C819.519 602.26 820.826 599.27 820.826 595.152C820.826 591.464 819.322 588.85 816.314 587.311C813.307 585.771 808.508 585.001 801.92 585.001H795.958V572.271H802.027C808.115 572.271 812.555 571.484 815.348 569.908C818.176 568.297 819.591 565.558 819.591 561.69C819.591 555.746 815.867 552.774 808.419 552.774C805.841 552.774 803.209 553.204 800.523 554.063C797.874 554.923 794.92 556.409 791.661 558.521L783.98 547.081C791.142 541.925 799.682 539.347 809.601 539.347C817.729 539.347 824.138 540.994 828.829 544.288C833.556 547.582 835.919 552.166 835.919 558.038ZM867.179 607.452C865.317 614.685 862.166 623.261 857.726 633.18H845.909C848.237 623.655 850.045 614.667 851.334 606.217H866.373L867.179 607.452ZM933.297 579.737C933.297 593.451 931.041 603.603 926.529 610.191C922.053 616.78 915.143 620.074 905.797 620.074C896.738 620.074 889.898 616.673 885.279 609.869C880.696 603.066 878.404 593.022 878.404 579.737C878.404 565.88 880.642 555.675 885.118 549.122C889.594 542.534 896.487 539.239 905.797 539.239C914.856 539.239 921.695 542.677 926.314 549.552C930.969 556.427 933.297 566.489 933.297 579.737ZM894.894 579.737C894.894 589.369 895.717 596.28 897.364 600.47C899.047 604.623 901.858 606.7 905.797 606.7C909.664 606.7 912.457 604.588 914.176 600.362C915.895 596.137 916.754 589.262 916.754 579.737C916.754 570.105 915.877 563.194 914.122 559.005C912.403 554.78 909.628 552.667 905.797 552.667C901.894 552.667 899.101 554.78 897.418 559.005C895.735 563.194 894.894 570.105 894.894 579.737ZM998.341 602.726H988.888V619H972.667V602.726H939.151V591.178L973.58 540.475H988.888V589.835H998.341V602.726ZM972.667 589.835V576.515C972.667 574.295 972.757 571.072 972.936 566.847C973.115 562.621 973.258 560.169 973.365 559.488H972.936C971.611 562.424 970.017 565.289 968.155 568.082L953.761 589.835H972.667Z" fill="#01F859"/>
<path d="M1335.44 402H1318.84V356.561L1319 349.095L1319.27 340.931C1316.52 343.688 1314.6 345.496 1313.53 346.355L1304.5 353.606L1296.5 343.616L1321.8 323.475H1335.44V402ZM1411.71 362.737C1411.71 376.451 1409.45 386.603 1404.94 393.191C1400.47 399.78 1393.55 403.074 1384.21 403.074C1375.15 403.074 1368.31 399.673 1363.69 392.869C1359.11 386.066 1356.82 376.022 1356.82 362.737C1356.82 348.88 1359.05 338.675 1363.53 332.122C1368.01 325.534 1374.9 322.239 1384.21 322.239C1393.27 322.239 1400.11 325.677 1404.73 332.552C1409.38 339.427 1411.71 349.489 1411.71 362.737ZM1373.31 362.737C1373.31 372.369 1374.13 379.28 1375.78 383.47C1377.46 387.623 1380.27 389.7 1384.21 389.7C1388.08 389.7 1390.87 387.588 1392.59 383.362C1394.31 379.137 1395.17 372.262 1395.17 362.737C1395.17 353.105 1394.29 346.194 1392.53 342.005C1390.82 337.78 1388.04 335.667 1384.21 335.667C1380.31 335.667 1377.51 337.78 1375.83 342.005C1374.15 346.194 1373.31 353.105 1373.31 362.737ZM1427.88 402L1457.36 337.547H1418.64V323.582H1474.98V334.002L1445.28 402H1427.88ZM1503.18 390.452C1501.32 397.685 1498.17 406.261 1493.73 416.18H1481.91C1484.24 406.655 1486.04 397.667 1487.33 389.217H1502.37L1503.18 390.452ZM1522.62 402L1552.11 337.547H1513.38V323.582H1569.73V334.002L1540.02 402H1522.62ZM1585.46 402L1614.95 337.547H1576.23V323.582H1632.57V334.002L1602.87 402H1585.46Z" fill="white"/>
<rect y="981" width="300" height="259" fill="#01F859" fill-opacity="0.8"/>
<path d="M26.9531 1317H2.00195V1311.75L10.9619 1302.69C13.6149 1299.98 15.3483 1298.1 16.1621 1297.05C16.9759 1296 17.5618 1295.02 17.9199 1294.12C18.278 1293.23 18.457 1292.3 18.457 1291.34C18.457 1289.91 18.0583 1288.84 17.2607 1288.14C16.4795 1287.44 15.4297 1287.09 14.1113 1287.09C12.7279 1287.09 11.3851 1287.41 10.083 1288.04C8.78092 1288.68 7.42188 1289.58 6.00586 1290.75L1.9043 1285.9C3.66211 1284.4 5.11882 1283.34 6.27441 1282.72C7.43001 1282.1 8.69141 1281.63 10.0586 1281.31C11.4258 1280.96 12.9557 1280.79 14.6484 1280.79C16.8783 1280.79 18.8477 1281.2 20.5566 1282.01C22.2656 1282.83 23.5921 1283.97 24.5361 1285.43C25.4801 1286.9 25.9521 1288.57 25.9521 1290.46C25.9521 1292.11 25.6592 1293.65 25.0732 1295.1C24.5036 1296.53 23.6084 1298.01 22.3877 1299.52C21.1833 1301.03 19.0511 1303.19 15.9912 1305.99L11.4014 1310.31V1310.65H26.9531V1317ZM55.3223 1299.15C55.3223 1305.39 54.2969 1310 52.2461 1313C50.2116 1315.99 47.0703 1317.49 42.8223 1317.49C38.7044 1317.49 35.5957 1315.94 33.4961 1312.85C31.4128 1309.76 30.3711 1305.19 30.3711 1299.15C30.3711 1292.85 31.3883 1288.22 33.4229 1285.24C35.4574 1282.24 38.5905 1280.75 42.8223 1280.75C46.9401 1280.75 50.0488 1282.31 52.1484 1285.43C54.2643 1288.56 55.3223 1293.13 55.3223 1299.15ZM37.8662 1299.15C37.8662 1303.53 38.2406 1306.67 38.9893 1308.58C39.7542 1310.47 41.0319 1311.41 42.8223 1311.41C44.5801 1311.41 45.8496 1310.45 46.6309 1308.53C47.4121 1306.61 47.8027 1303.48 47.8027 1299.15C47.8027 1294.78 47.404 1291.63 46.6064 1289.73C45.8252 1287.81 44.5638 1286.85 42.8223 1286.85C41.0482 1286.85 39.7786 1287.81 39.0137 1289.73C38.2487 1291.63 37.8662 1294.78 37.8662 1299.15ZM77.7832 1317H70.2393V1296.35L70.3125 1292.95L70.4346 1289.24C69.1813 1290.49 68.3105 1291.32 67.8223 1291.71L63.7207 1295L60.083 1290.46L71.582 1281.31H77.7832V1317ZM100 1280.84C103.418 1280.84 106.169 1281.62 108.252 1283.19C110.352 1284.73 111.401 1286.82 111.401 1289.46C111.401 1291.28 110.897 1292.91 109.888 1294.34C108.879 1295.76 107.251 1297.03 105.005 1298.15C107.674 1299.58 109.587 1301.08 110.742 1302.64C111.914 1304.19 112.5 1305.89 112.5 1307.75C112.5 1310.68 111.353 1313.04 109.058 1314.83C106.763 1316.6 103.743 1317.49 100 1317.49C96.0938 1317.49 93.0257 1316.66 90.7959 1315C88.5661 1313.34 87.4512 1310.99 87.4512 1307.94C87.4512 1305.91 87.9883 1304.1 89.0625 1302.52C90.153 1300.94 91.8945 1299.55 94.2871 1298.35C92.2526 1297.06 90.7878 1295.69 89.8926 1294.22C88.9974 1292.76 88.5498 1291.15 88.5498 1289.41C88.5498 1286.86 89.6077 1284.79 91.7236 1283.21C93.8395 1281.63 96.5983 1280.84 100 1280.84ZM94.4336 1307.5C94.4336 1308.9 94.9219 1309.99 95.8984 1310.77C96.875 1311.56 98.2096 1311.95 99.9023 1311.95C101.774 1311.95 103.174 1311.55 104.102 1310.75C105.029 1309.94 105.493 1308.87 105.493 1307.55C105.493 1306.46 105.029 1305.44 104.102 1304.5C103.19 1303.54 101.701 1302.52 99.6338 1301.45C96.167 1303.04 94.4336 1305.06 94.4336 1307.5ZM99.9512 1286.36C98.6654 1286.36 97.6237 1286.69 96.8262 1287.36C96.0449 1288.01 95.6543 1288.89 95.6543 1290C95.6543 1290.97 95.9635 1291.85 96.582 1292.63C97.2168 1293.4 98.3561 1294.19 100 1295C101.595 1294.25 102.71 1293.49 103.345 1292.71C103.979 1291.93 104.297 1291.02 104.297 1290C104.297 1288.88 103.89 1287.99 103.076 1287.34C102.262 1286.69 101.221 1286.36 99.9512 1286.36Z" fill="white"/>
<path d="M671.953 1317H647.002V1311.75L655.962 1302.69C658.615 1299.98 660.348 1298.1 661.162 1297.05C661.976 1296 662.562 1295.02 662.92 1294.12C663.278 1293.23 663.457 1292.3 663.457 1291.34C663.457 1289.91 663.058 1288.84 662.261 1288.14C661.479 1287.44 660.43 1287.09 659.111 1287.09C657.728 1287.09 656.385 1287.41 655.083 1288.04C653.781 1288.68 652.422 1289.58 651.006 1290.75L646.904 1285.9C648.662 1284.4 650.119 1283.34 651.274 1282.72C652.43 1282.1 653.691 1281.63 655.059 1281.31C656.426 1280.96 657.956 1280.79 659.648 1280.79C661.878 1280.79 663.848 1281.2 665.557 1282.01C667.266 1282.83 668.592 1283.97 669.536 1285.43C670.48 1286.9 670.952 1288.57 670.952 1290.46C670.952 1292.11 670.659 1293.65 670.073 1295.1C669.504 1296.53 668.608 1298.01 667.388 1299.52C666.183 1301.03 664.051 1303.19 660.991 1305.99L656.401 1310.31V1310.65H671.953V1317ZM700.322 1299.15C700.322 1305.39 699.297 1310 697.246 1313C695.212 1315.99 692.07 1317.49 687.822 1317.49C683.704 1317.49 680.596 1315.94 678.496 1312.85C676.413 1309.76 675.371 1305.19 675.371 1299.15C675.371 1292.85 676.388 1288.22 678.423 1285.24C680.457 1282.24 683.59 1280.75 687.822 1280.75C691.94 1280.75 695.049 1282.31 697.148 1285.43C699.264 1288.56 700.322 1293.13 700.322 1299.15ZM682.866 1299.15C682.866 1303.53 683.241 1306.67 683.989 1308.58C684.754 1310.47 686.032 1311.41 687.822 1311.41C689.58 1311.41 690.85 1310.45 691.631 1308.53C692.412 1306.61 692.803 1303.48 692.803 1299.15C692.803 1294.78 692.404 1291.63 691.606 1289.73C690.825 1287.81 689.564 1286.85 687.822 1286.85C686.048 1286.85 684.779 1287.81 684.014 1289.73C683.249 1291.63 682.866 1294.78 682.866 1299.15ZM722.783 1317H715.239V1296.35L715.312 1292.95L715.435 1289.24C714.181 1290.49 713.311 1291.32 712.822 1291.71L708.721 1295L705.083 1290.46L716.582 1281.31H722.783V1317ZM757.5 1296.54C757.5 1303.57 756.019 1308.82 753.057 1312.29C750.094 1315.75 745.61 1317.49 739.604 1317.49C737.489 1317.49 735.885 1317.37 734.795 1317.15V1311.09C736.162 1311.43 737.594 1311.6 739.092 1311.6C741.615 1311.6 743.69 1311.24 745.317 1310.51C746.945 1309.76 748.19 1308.59 749.053 1307.01C749.915 1305.42 750.412 1303.23 750.542 1300.45H750.249C749.305 1301.98 748.215 1303.05 746.978 1303.67C745.741 1304.29 744.194 1304.6 742.339 1304.6C739.23 1304.6 736.781 1303.6 734.99 1301.62C733.2 1299.62 732.305 1296.84 732.305 1293.29C732.305 1289.47 733.387 1286.45 735.552 1284.24C737.733 1282.01 740.695 1280.89 744.438 1280.89C747.075 1280.89 749.378 1281.51 751.348 1282.75C753.333 1283.98 754.855 1285.78 755.913 1288.14C756.971 1290.49 757.5 1293.29 757.5 1296.54ZM744.585 1286.95C743.022 1286.95 741.802 1287.48 740.923 1288.56C740.044 1289.63 739.604 1291.18 739.604 1293.2C739.604 1294.92 740.003 1296.29 740.801 1297.3C741.598 1298.31 742.811 1298.81 744.438 1298.81C745.968 1298.81 747.279 1298.32 748.369 1297.32C749.46 1296.31 750.005 1295.16 750.005 1293.86C750.005 1291.92 749.492 1290.28 748.467 1288.95C747.458 1287.61 746.164 1286.95 744.585 1286.95Z" fill="white"/>
<path d="M1316.95 1317H1292V1311.75L1300.96 1302.69C1303.61 1299.98 1305.35 1298.1 1306.16 1297.05C1306.98 1296 1307.56 1295.02 1307.92 1294.12C1308.28 1293.23 1308.46 1292.3 1308.46 1291.34C1308.46 1289.91 1308.06 1288.84 1307.26 1288.14C1306.48 1287.44 1305.43 1287.09 1304.11 1287.09C1302.73 1287.09 1301.39 1287.41 1300.08 1288.04C1298.78 1288.68 1297.42 1289.58 1296.01 1290.75L1291.9 1285.9C1293.66 1284.4 1295.12 1283.34 1296.27 1282.72C1297.43 1282.1 1298.69 1281.63 1300.06 1281.31C1301.43 1280.96 1302.96 1280.79 1304.65 1280.79C1306.88 1280.79 1308.85 1281.2 1310.56 1282.01C1312.27 1282.83 1313.59 1283.97 1314.54 1285.43C1315.48 1286.9 1315.95 1288.57 1315.95 1290.46C1315.95 1292.11 1315.66 1293.65 1315.07 1295.1C1314.5 1296.53 1313.61 1298.01 1312.39 1299.52C1311.18 1301.03 1309.05 1303.19 1305.99 1305.99L1301.4 1310.31V1310.65H1316.95V1317ZM1345.32 1299.15C1345.32 1305.39 1344.3 1310 1342.25 1313C1340.21 1315.99 1337.07 1317.49 1332.82 1317.49C1328.7 1317.49 1325.6 1315.94 1323.5 1312.85C1321.41 1309.76 1320.37 1305.19 1320.37 1299.15C1320.37 1292.85 1321.39 1288.22 1323.42 1285.24C1325.46 1282.24 1328.59 1280.75 1332.82 1280.75C1336.94 1280.75 1340.05 1282.31 1342.15 1285.43C1344.26 1288.56 1345.32 1293.13 1345.32 1299.15ZM1327.87 1299.15C1327.87 1303.53 1328.24 1306.67 1328.99 1308.58C1329.75 1310.47 1331.03 1311.41 1332.82 1311.41C1334.58 1311.41 1335.85 1310.45 1336.63 1308.53C1337.41 1306.61 1337.8 1303.48 1337.8 1299.15C1337.8 1294.78 1337.4 1291.63 1336.61 1289.73C1335.83 1287.81 1334.56 1286.85 1332.82 1286.85C1331.05 1286.85 1329.78 1287.81 1329.01 1289.73C1328.25 1291.63 1327.87 1294.78 1327.87 1299.15ZM1374.08 1317H1349.13V1311.75L1358.09 1302.69C1360.74 1299.98 1362.48 1298.1 1363.29 1297.05C1364.1 1296 1364.69 1295.02 1365.05 1294.12C1365.41 1293.23 1365.59 1292.3 1365.59 1291.34C1365.59 1289.91 1365.19 1288.84 1364.39 1288.14C1363.61 1287.44 1362.56 1287.09 1361.24 1287.09C1359.86 1287.09 1358.51 1287.41 1357.21 1288.04C1355.91 1288.68 1354.55 1289.58 1353.13 1290.75L1349.03 1285.9C1350.79 1284.4 1352.25 1283.34 1353.4 1282.72C1354.56 1282.1 1355.82 1281.63 1357.19 1281.31C1358.55 1280.96 1360.08 1280.79 1361.78 1280.79C1364.01 1280.79 1365.98 1281.2 1367.69 1282.01C1369.39 1282.83 1370.72 1283.97 1371.67 1285.43C1372.61 1286.9 1373.08 1288.57 1373.08 1290.46C1373.08 1292.11 1372.79 1293.65 1372.2 1295.1C1371.63 1296.53 1370.74 1298.01 1369.52 1299.52C1368.31 1301.03 1366.18 1303.19 1363.12 1305.99L1358.53 1310.31V1310.65H1374.08V1317ZM1402.45 1299.15C1402.45 1305.39 1401.43 1310 1399.38 1313C1397.34 1315.99 1394.2 1317.49 1389.95 1317.49C1385.83 1317.49 1382.72 1315.94 1380.62 1312.85C1378.54 1309.76 1377.5 1305.19 1377.5 1299.15C1377.5 1292.85 1378.52 1288.22 1380.55 1285.24C1382.59 1282.24 1385.72 1280.75 1389.95 1280.75C1394.07 1280.75 1397.18 1282.31 1399.28 1285.43C1401.39 1288.56 1402.45 1293.13 1402.45 1299.15ZM1385 1299.15C1385 1303.53 1385.37 1306.67 1386.12 1308.58C1386.88 1310.47 1388.16 1311.41 1389.95 1311.41C1391.71 1311.41 1392.98 1310.45 1393.76 1308.53C1394.54 1306.61 1394.93 1303.48 1394.93 1299.15C1394.93 1294.78 1394.53 1291.63 1393.74 1289.73C1392.95 1287.81 1391.69 1286.85 1389.95 1286.85C1388.18 1286.85 1386.91 1287.81 1386.14 1289.73C1385.38 1291.63 1385 1294.78 1385 1299.15Z" fill="white"/>
<rect x="1290" y="708" width="300" height="532" fill="#01F859"/>
<rect x="644" y="974" width="300" height="266" fill="#01F859" fill-opacity="0.9"/>
<line y1="1241" x2="1905" y2="1241" stroke="#6A7186" stroke-width="4"/>
<circle cx="1090.5" cy="579.5" r="38.5" fill="#212B4B"/>
<path d="M1072 577L1087.5 593.5H1089.5L1111 563" stroke="#01F859" stroke-width="7"/>
<circle cx="1731.5" cy="580.5" r="38.5" fill="#212B4B"/>
<path d="M1713 578L1728.5 594.5H1730.5L1752 564" stroke="#01F859" stroke-width="7"/>
</svg>
