<svg width="2140" height="1533" viewBox="0 0 2140 1533" fill="none" xmlns="http://www.w3.org/2000/svg">
<path d="M31.9092 53H24.3408V39.2061C21.8343 40.0524 19.7428 40.6302 18.0664 40.9395C16.4062 41.2487 14.8193 41.4033 13.3057 41.4033C9.90397 41.4033 7.27539 40.5895 5.41992 38.9619C3.58073 37.318 2.66113 35.015 2.66113 32.0527V17.3066H10.2051V29.9043C10.2051 31.6296 10.6038 32.9316 11.4014 33.8105C12.1989 34.6732 13.5498 35.1045 15.4541 35.1045C16.7887 35.1045 18.1152 34.9743 19.4336 34.7139C20.7682 34.4372 22.404 33.9652 24.3408 33.2979V17.3066H31.9092V53ZM47.5342 25.7051V36.4961C47.5342 37.6354 47.347 40.4186 46.9727 44.8457L59.5703 25.7051H68.5303V53H61.3281V42.1113C61.3281 40.1745 61.4909 37.4401 61.8164 33.9082L49.2676 53H40.332V25.7051H47.5342ZM87.4512 53.4883C78.9551 53.4883 74.707 48.8252 74.707 39.499C74.707 34.8604 75.8626 31.3203 78.1738 28.8789C80.485 26.4212 83.7972 25.1924 88.1104 25.1924C91.2679 25.1924 94.0999 25.8109 96.6064 27.0479L94.4092 32.8096C93.2373 32.3376 92.1468 31.9551 91.1377 31.6621C90.1286 31.3529 89.1195 31.1982 88.1104 31.1982C84.2367 31.1982 82.2998 33.9489 82.2998 39.4502C82.2998 44.7887 84.2367 47.458 88.1104 47.458C89.5426 47.458 90.8691 47.2708 92.0898 46.8965C93.3105 46.5059 94.5312 45.9036 95.752 45.0898V51.4619C94.5475 52.2269 93.3268 52.7559 92.0898 53.0488C90.8691 53.3418 89.3229 53.4883 87.4512 53.4883ZM126.538 53H119.092V31.2959H112.231C111.711 37.3994 111.076 41.9567 110.327 44.9678C109.578 47.9626 108.577 50.1354 107.324 51.4863C106.087 52.821 104.46 53.4883 102.441 53.4883C100.716 53.4883 99.3001 53.2279 98.1934 52.707V46.75C98.9909 47.0755 99.7884 47.2383 100.586 47.2383C101.514 47.2383 102.287 46.571 102.905 45.2363C103.54 43.9017 104.102 41.68 104.59 38.5713C105.094 35.4463 105.526 31.1576 105.884 25.7051H126.538V53ZM145.679 30.4902C144.1 30.4902 142.863 30.9948 141.968 32.0039C141.073 32.9967 140.56 34.4128 140.43 36.252H150.879C150.846 34.4128 150.366 32.9967 149.438 32.0039C148.511 30.9948 147.257 30.4902 145.679 30.4902ZM146.729 53.4883C142.334 53.4883 138.9 52.2757 136.426 49.8506C133.952 47.4255 132.715 43.9912 132.715 39.5479C132.715 34.9743 133.854 31.4424 136.133 28.9521C138.428 26.4456 141.593 25.1924 145.63 25.1924C149.487 25.1924 152.49 26.291 154.639 28.4883C156.787 30.6855 157.861 33.721 157.861 37.5947V41.208H140.259C140.34 43.3239 140.967 44.9759 142.139 46.1641C143.311 47.3522 144.954 47.9463 147.07 47.9463C148.714 47.9463 150.269 47.7754 151.733 47.4336C153.198 47.0918 154.728 46.5465 156.323 45.7979V51.5596C155.021 52.2106 153.63 52.6908 152.148 53C150.667 53.3255 148.861 53.4883 146.729 53.4883ZM171.362 25.7051V36.2031H181.763V25.7051H189.209V53H181.763V41.7451H171.362V53H163.916V25.7051H171.362ZM204.468 25.7051V36.2031H214.868V25.7051H222.314V53H214.868V41.7451H204.468V53H197.021V25.7051H204.468ZM236.06 39.3037C236.06 42.0055 236.499 44.0482 237.378 45.4316C238.273 46.8151 239.722 47.5068 241.724 47.5068C243.709 47.5068 245.133 46.8232 245.996 45.4561C246.875 44.0726 247.314 42.0218 247.314 39.3037C247.314 36.6019 246.875 34.5755 245.996 33.2246C245.117 31.8737 243.677 31.1982 241.675 31.1982C239.689 31.1982 238.257 31.8737 237.378 33.2246C236.499 34.5592 236.06 36.5856 236.06 39.3037ZM254.932 39.3037C254.932 43.7471 253.76 47.222 251.416 49.7285C249.072 52.235 245.809 53.4883 241.626 53.4883C239.006 53.4883 236.694 52.9186 234.692 51.7793C232.69 50.6237 231.152 48.9717 230.078 46.8232C229.004 44.6748 228.467 42.1683 228.467 39.3037C228.467 34.8441 229.631 31.3773 231.958 28.9033C234.285 26.4294 237.557 25.1924 241.772 25.1924C244.393 25.1924 246.704 25.762 248.706 26.9014C250.708 28.0407 252.246 29.6764 253.32 31.8086C254.395 33.9408 254.932 36.4391 254.932 39.3037ZM272.168 53.4883C263.672 53.4883 259.424 48.8252 259.424 39.499C259.424 34.8604 260.579 31.3203 262.891 28.8789C265.202 26.4212 268.514 25.1924 272.827 25.1924C275.985 25.1924 278.817 25.8109 281.323 27.0479L279.126 32.8096C277.954 32.3376 276.864 31.9551 275.854 31.6621C274.845 31.3529 273.836 31.1982 272.827 31.1982C268.953 31.1982 267.017 33.9489 267.017 39.4502C267.017 44.7887 268.953 47.458 272.827 47.458C274.259 47.458 275.586 47.2708 276.807 46.8965C278.027 46.5059 279.248 45.9036 280.469 45.0898V51.4619C279.264 52.2269 278.044 52.7559 276.807 53.0488C275.586 53.3418 274.04 53.4883 272.168 53.4883ZM309.399 25.7051V31.2959H300.464V53H293.018V31.2959H284.058V25.7051H309.399ZM321.948 36.252H327.197C331.396 36.252 334.505 36.9193 336.523 38.2539C338.542 39.5885 339.551 41.6068 339.551 44.3086C339.551 50.1029 335.531 53 327.49 53H314.502V25.7051H321.948V36.252ZM332.104 44.4062C332.104 43.3483 331.681 42.5833 330.835 42.1113C329.989 41.6393 328.727 41.4033 327.051 41.4033H321.948V47.8486H327.148C330.452 47.8486 332.104 46.7012 332.104 44.4062ZM365.649 25.7051V36.2031H376.05V25.7051H383.496V53H376.05V41.7451H365.649V53H358.203V25.7051H365.649ZM408.643 53L407.202 49.2891H407.007C405.754 50.8678 404.46 51.9665 403.125 52.585C401.807 53.1872 400.081 53.4883 397.949 53.4883C395.329 53.4883 393.262 52.7396 391.748 51.2422C390.251 49.7448 389.502 47.6126 389.502 44.8457C389.502 41.9486 390.511 39.8164 392.529 38.4492C394.564 37.0658 397.624 36.3008 401.709 36.1543L406.445 36.0078V34.8115C406.445 32.0446 405.029 30.6611 402.197 30.6611C400.016 30.6611 397.453 31.3203 394.507 32.6387L392.041 27.6094C395.182 25.9655 398.665 25.1436 402.49 25.1436C406.152 25.1436 408.96 25.9411 410.913 27.5361C412.866 29.1312 413.843 31.5563 413.843 34.8115V53H408.643ZM406.445 40.3535L403.564 40.4512C401.4 40.5163 399.788 40.9069 398.73 41.623C397.673 42.3392 397.144 43.4297 397.144 44.8945C397.144 46.9941 398.348 48.0439 400.757 48.0439C402.482 48.0439 403.857 47.5475 404.883 46.5547C405.924 45.5618 406.445 44.2435 406.445 42.5996V40.3535ZM432.617 53.4883C424.121 53.4883 419.873 48.8252 419.873 39.499C419.873 34.8604 421.029 31.3203 423.34 28.8789C425.651 26.4212 428.963 25.1924 433.276 25.1924C436.434 25.1924 439.266 25.8109 441.772 27.0479L439.575 32.8096C438.403 32.3376 437.313 31.9551 436.304 31.6621C435.295 31.3529 434.285 31.1982 433.276 31.1982C429.403 31.1982 427.466 33.9489 427.466 39.4502C427.466 44.7887 429.403 47.458 433.276 47.458C434.709 47.458 436.035 47.2708 437.256 46.8965C438.477 46.5059 439.697 45.9036 440.918 45.0898V51.4619C439.714 52.2269 438.493 52.7559 437.256 53.0488C436.035 53.3418 434.489 53.4883 432.617 53.4883ZM458.569 30.4902C456.991 30.4902 455.754 30.9948 454.858 32.0039C453.963 32.9967 453.451 34.4128 453.32 36.252H463.77C463.737 34.4128 463.257 32.9967 462.329 32.0039C461.401 30.9948 460.148 30.4902 458.569 30.4902ZM459.619 53.4883C455.225 53.4883 451.79 52.2757 449.316 49.8506C446.842 47.4255 445.605 43.9912 445.605 39.5479C445.605 34.9743 446.745 31.4424 449.023 28.9521C451.318 26.4456 454.484 25.1924 458.521 25.1924C462.378 25.1924 465.381 26.291 467.529 28.4883C469.678 30.6855 470.752 33.721 470.752 37.5947V41.208H453.149C453.231 43.3239 453.857 44.9759 455.029 46.1641C456.201 47.3522 457.845 47.9463 459.961 47.9463C461.605 47.9463 463.159 47.7754 464.624 47.4336C466.089 47.0918 467.619 46.5465 469.214 45.7979V51.5596C467.912 52.2106 466.52 52.6908 465.039 53C463.558 53.3255 461.751 53.4883 459.619 53.4883ZM501.245 53H493.799V31.2959H486.938C486.418 37.3994 485.783 41.9567 485.034 44.9678C484.285 47.9626 483.285 50.1354 482.031 51.4863C480.794 52.821 479.167 53.4883 477.148 53.4883C475.423 53.4883 474.007 53.2279 472.9 52.707V46.75C473.698 47.0755 474.495 47.2383 475.293 47.2383C476.221 47.2383 476.994 46.571 477.612 45.2363C478.247 43.9017 478.809 41.68 479.297 38.5713C479.801 35.4463 480.233 31.1576 480.591 25.7051H501.245V53ZM520.386 30.4902C518.807 30.4902 517.57 30.9948 516.675 32.0039C515.78 32.9967 515.267 34.4128 515.137 36.252H525.586C525.553 34.4128 525.073 32.9967 524.146 32.0039C523.218 30.9948 521.965 30.4902 520.386 30.4902ZM521.436 53.4883C517.041 53.4883 513.607 52.2757 511.133 49.8506C508.659 47.4255 507.422 43.9912 507.422 39.5479C507.422 34.9743 508.561 31.4424 510.84 28.9521C513.135 26.4456 516.3 25.1924 520.337 25.1924C524.194 25.1924 527.197 26.291 529.346 28.4883C531.494 30.6855 532.568 33.721 532.568 37.5947V41.208H514.966C515.047 43.3239 515.674 44.9759 516.846 46.1641C518.018 47.3522 519.661 47.9463 521.777 47.9463C523.421 47.9463 524.976 47.7754 526.44 47.4336C527.905 47.0918 529.435 46.5465 531.03 45.7979V51.5596C529.728 52.2106 528.337 52.6908 526.855 53C525.374 53.3255 523.568 53.4883 521.436 53.4883ZM546.069 25.7051V36.2031H556.47V25.7051H563.916V53H556.47V41.7451H546.069V53H538.623V25.7051H546.069ZM578.931 25.7051V36.4961C578.931 37.6354 578.743 40.4186 578.369 44.8457L590.967 25.7051H599.927V53H592.725V42.1113C592.725 40.1745 592.887 37.4401 593.213 33.9082L580.664 53H571.729V25.7051H578.931ZM611.914 53H603.857L611.206 42.209C609.448 41.4766 608.114 40.4186 607.202 39.0352C606.307 37.6517 605.859 36.0241 605.859 34.1523C605.859 31.5156 606.844 29.4486 608.813 27.9512C610.799 26.4538 613.501 25.7051 616.919 25.7051H629.614V53H622.168V42.8438H618.066L611.914 53ZM613.159 34.2012C613.159 35.3405 613.607 36.2357 614.502 36.8867C615.397 37.5215 616.569 37.8389 618.018 37.8389H622.168V30.9541H617.065C615.845 30.9541 614.884 31.2552 614.185 31.8574C613.501 32.4434 613.159 33.2246 613.159 34.2012ZM675.586 32.8584C675.586 34.3232 675.122 35.5765 674.194 36.6182C673.283 37.6436 671.932 38.3027 670.142 38.5957V38.791C672.078 39.0189 673.608 39.6862 674.731 40.793C675.871 41.8835 676.44 43.2344 676.44 44.8457C676.44 47.4987 675.399 49.5251 673.315 50.9248C671.232 52.3083 668.254 53 664.38 53H650.391V25.7051H664.38C668.123 25.7051 670.923 26.3154 672.778 27.5361C674.65 28.7406 675.586 30.5146 675.586 32.8584ZM668.726 44.4551C668.726 43.3809 668.311 42.6077 667.48 42.1357C666.65 41.6475 665.405 41.4033 663.745 41.4033H657.837V47.8486H663.892C665.47 47.8486 666.667 47.5557 667.48 46.9697C668.311 46.3675 668.726 45.5293 668.726 44.4551ZM668.042 33.4443C668.042 31.7842 666.724 30.9541 664.087 30.9541H657.837V36.3496H663.232C664.811 36.3496 666.007 36.1217 666.821 35.666C667.635 35.2103 668.042 34.4697 668.042 33.4443ZM720.557 32.8584C720.557 34.3232 720.093 35.5765 719.165 36.6182C718.254 37.6436 716.903 38.3027 715.112 38.5957V38.791C717.049 39.0189 718.579 39.6862 719.702 40.793C720.841 41.8835 721.411 43.2344 721.411 44.8457C721.411 47.4987 720.369 49.5251 718.286 50.9248C716.203 52.3083 713.224 53 709.351 53H695.361V25.7051H709.351C713.094 25.7051 715.894 26.3154 717.749 27.5361C719.621 28.7406 720.557 30.5146 720.557 32.8584ZM713.696 44.4551C713.696 43.3809 713.281 42.6077 712.451 42.1357C711.621 41.6475 710.376 41.4033 708.716 41.4033H702.808V47.8486H708.862C710.441 47.8486 711.637 47.5557 712.451 46.9697C713.281 46.3675 713.696 45.5293 713.696 44.4551ZM713.013 33.4443C713.013 31.7842 711.694 30.9541 709.058 30.9541H702.808V36.3496H708.203C709.782 36.3496 710.978 36.1217 711.792 35.666C712.606 35.2103 713.013 34.4697 713.013 33.4443ZM733.276 39.3037C733.276 42.0055 733.716 44.0482 734.595 45.4316C735.49 46.8151 736.938 47.5068 738.94 47.5068C740.926 47.5068 742.35 46.8232 743.213 45.4561C744.092 44.0726 744.531 42.0218 744.531 39.3037C744.531 36.6019 744.092 34.5755 743.213 33.2246C742.334 31.8737 740.894 31.1982 738.892 31.1982C736.906 31.1982 735.474 31.8737 734.595 33.2246C733.716 34.5592 733.276 36.5856 733.276 39.3037ZM752.148 39.3037C752.148 43.7471 750.977 47.222 748.633 49.7285C746.289 52.235 743.026 53.4883 738.843 53.4883C736.222 53.4883 733.911 52.9186 731.909 51.7793C729.907 50.6237 728.369 48.9717 727.295 46.8232C726.221 44.6748 725.684 42.1683 725.684 39.3037C725.684 34.8441 726.847 31.3773 729.175 28.9033C731.502 26.4294 734.774 25.1924 738.989 25.1924C741.61 25.1924 743.921 25.762 745.923 26.9014C747.925 28.0407 749.463 29.6764 750.537 31.8086C751.611 33.9408 752.148 36.4391 752.148 39.3037ZM765.088 36.2031C767.904 36.2031 769.897 35.9753 771.069 35.5195C772.257 35.0638 772.852 34.3395 772.852 33.3467C772.852 32.4678 772.42 31.8086 771.558 31.3691C770.695 30.9297 769.271 30.71 767.285 30.71C766.032 30.71 764.608 30.8646 763.013 31.1738C761.434 31.4831 759.993 31.9062 758.691 32.4434L756.494 27.2432C758.431 26.5107 760.311 25.9899 762.134 25.6807C763.957 25.3551 765.991 25.1924 768.237 25.1924C771.639 25.1924 774.365 25.8434 776.416 27.1455C778.467 28.4476 779.492 30.2135 779.492 32.4434C779.492 35.5195 777.677 37.5215 774.048 38.4492V38.6934C776.278 39.2467 777.865 40.0361 778.809 41.0615C779.769 42.0706 780.249 43.3971 780.249 45.041C780.249 46.7012 779.712 48.1742 778.638 49.46C777.563 50.7458 776.009 51.7386 773.975 52.4385C771.94 53.1383 769.548 53.4883 766.797 53.4883C762.24 53.4883 758.74 52.9268 756.299 51.8037V45.6514C757.699 46.3024 759.229 46.8151 760.889 47.1895C762.565 47.5638 764.185 47.751 765.747 47.751C768.172 47.751 769.987 47.4824 771.191 46.9453C772.396 46.3919 772.998 45.6107 772.998 44.6016C772.998 43.4948 772.363 42.681 771.094 42.1602C769.824 41.623 767.871 41.3545 765.234 41.3545H762.354V36.2031H765.088ZM801.074 53.4883C797.868 53.4883 795.353 52.3245 793.53 49.9971H793.14C793.4 52.2757 793.53 53.5941 793.53 53.9521V65.0117H786.084V25.7051H792.139L793.188 29.2451H793.53C795.272 26.5433 797.852 25.1924 801.27 25.1924C804.492 25.1924 807.015 26.4375 808.838 28.9277C810.661 31.418 811.572 34.8766 811.572 39.3037C811.572 42.2171 811.141 44.748 810.278 46.8965C809.432 49.0449 808.219 50.6807 806.641 51.8037C805.062 52.9268 803.206 53.4883 801.074 53.4883ZM798.877 31.1494C797.038 31.1494 795.695 31.7191 794.849 32.8584C794.002 33.9814 793.563 35.8451 793.53 38.4492V39.2549C793.53 42.1846 793.962 44.2842 794.824 45.5537C795.703 46.8232 797.087 47.458 798.975 47.458C802.311 47.458 803.979 44.7074 803.979 39.2061C803.979 36.5205 803.564 34.5104 802.734 33.1758C801.921 31.8249 800.635 31.1494 798.877 31.1494ZM835.059 53L833.618 49.2891H833.423C832.17 50.8678 830.876 51.9665 829.541 52.585C828.223 53.1872 826.497 53.4883 824.365 53.4883C821.745 53.4883 819.678 52.7396 818.164 51.2422C816.667 49.7448 815.918 47.6126 815.918 44.8457C815.918 41.9486 816.927 39.8164 818.945 38.4492C820.98 37.0658 824.04 36.3008 828.125 36.1543L832.861 36.0078V34.8115C832.861 32.0446 831.445 30.6611 828.613 30.6611C826.432 30.6611 823.869 31.3203 820.923 32.6387L818.457 27.6094C821.598 25.9655 825.081 25.1436 828.906 25.1436C832.568 25.1436 835.376 25.9411 837.329 27.5361C839.282 29.1312 840.259 31.5563 840.259 34.8115V53H835.059ZM832.861 40.3535L829.98 40.4512C827.816 40.5163 826.204 40.9069 825.146 41.623C824.089 42.3392 823.56 43.4297 823.56 44.8945C823.56 46.9941 824.764 48.0439 827.173 48.0439C828.898 48.0439 830.273 47.5475 831.299 46.5547C832.34 45.5618 832.861 44.2435 832.861 42.5996V40.3535ZM859.033 53.4883C850.537 53.4883 846.289 48.8252 846.289 39.499C846.289 34.8604 847.445 31.3203 849.756 28.8789C852.067 26.4212 855.379 25.1924 859.692 25.1924C862.85 25.1924 865.682 25.8109 868.188 27.0479L865.991 32.8096C864.819 32.3376 863.729 31.9551 862.72 31.6621C861.711 31.3529 860.701 31.1982 859.692 31.1982C855.819 31.1982 853.882 33.9489 853.882 39.4502C853.882 44.7887 855.819 47.458 859.692 47.458C861.125 47.458 862.451 47.2708 863.672 46.8965C864.893 46.5059 866.113 45.9036 867.334 45.0898V51.4619C866.13 52.2269 864.909 52.7559 863.672 53.0488C862.451 53.3418 860.905 53.4883 859.033 53.4883ZM896.265 25.7051V31.2959H887.329V53H879.883V31.2959H870.923V25.7051H896.265ZM912.671 30.4902C911.092 30.4902 909.855 30.9948 908.96 32.0039C908.065 32.9967 907.552 34.4128 907.422 36.252H917.871C917.839 34.4128 917.358 32.9967 916.431 32.0039C915.503 30.9948 914.25 30.4902 912.671 30.4902ZM913.721 53.4883C909.326 53.4883 905.892 52.2757 903.418 49.8506C900.944 47.4255 899.707 43.9912 899.707 39.5479C899.707 34.9743 900.846 31.4424 903.125 28.9521C905.42 26.4456 908.586 25.1924 912.622 25.1924C916.479 25.1924 919.482 26.291 921.631 28.4883C923.779 30.6855 924.854 33.721 924.854 37.5947V41.208H907.251C907.332 43.3239 907.959 44.9759 909.131 46.1641C910.303 47.3522 911.947 47.9463 914.062 47.9463C915.706 47.9463 917.261 47.7754 918.726 47.4336C920.19 47.0918 921.72 46.5465 923.315 45.7979V51.5596C922.013 52.2106 920.622 52.6908 919.141 53C917.66 53.3255 915.853 53.4883 913.721 53.4883ZM965.552 25.29C965.552 27.5199 964.876 29.416 963.525 30.9785C962.174 32.541 960.278 33.6152 957.837 34.2012V34.3477C960.718 34.7057 962.899 35.5846 964.38 36.9844C965.861 38.3678 966.602 40.2396 966.602 42.5996C966.602 46.0339 965.356 48.7113 962.866 50.6318C960.376 52.5361 956.82 53.4883 952.197 53.4883C948.324 53.4883 944.889 52.8454 941.895 51.5596V45.1387C943.278 45.8385 944.8 46.4082 946.46 46.8477C948.12 47.2871 949.764 47.5068 951.392 47.5068C953.882 47.5068 955.721 47.0837 956.909 46.2373C958.097 45.391 958.691 44.0319 958.691 42.1602C958.691 40.4837 958.008 39.2956 956.641 38.5957C955.273 37.8958 953.092 37.5459 950.098 37.5459H947.388V31.7598H950.146C952.913 31.7598 954.932 31.4017 956.201 30.6855C957.487 29.9531 958.13 28.708 958.13 26.9502C958.13 24.2484 956.437 22.8975 953.052 22.8975C951.88 22.8975 950.684 23.0928 949.463 23.4834C948.258 23.874 946.916 24.5495 945.435 25.5098L941.943 20.3096C945.199 17.9658 949.08 16.7939 953.589 16.7939C957.284 16.7939 960.197 17.5426 962.329 19.04C964.478 20.5374 965.552 22.6208 965.552 25.29ZM970.557 42.3555V36.7402H991.553V42.3555H970.557ZM999.097 53L1012.5 23.7031H994.897V17.3555H1020.51V22.0918L1007.01 53H999.097ZM1048.93 32.541C1048.93 39.5723 1047.44 44.8213 1044.48 48.2881C1041.52 51.7549 1037.04 53.4883 1031.03 53.4883C1028.91 53.4883 1027.31 53.3743 1026.22 53.1465V47.0918C1027.59 47.4336 1029.02 47.6045 1030.52 47.6045C1033.04 47.6045 1035.12 47.2383 1036.74 46.5059C1038.37 45.7572 1039.62 44.5934 1040.48 43.0146C1041.34 41.4196 1041.84 39.2305 1041.97 36.4473H1041.67C1040.73 37.9772 1039.64 39.0514 1038.4 39.6699C1037.17 40.2884 1035.62 40.5977 1033.76 40.5977C1030.66 40.5977 1028.21 39.6048 1026.42 37.6191C1024.63 35.6172 1023.73 32.8421 1023.73 29.2939C1023.73 25.4691 1024.81 22.4499 1026.98 20.2363C1029.16 18.0065 1032.12 16.8916 1035.86 16.8916C1038.5 16.8916 1040.8 17.5101 1042.77 18.7471C1044.76 19.984 1046.28 21.7826 1047.34 24.1426C1048.4 26.4863 1048.93 29.2858 1048.93 32.541ZM1036.01 22.9463C1034.45 22.9463 1033.23 23.4834 1032.35 24.5576C1031.47 25.6318 1031.03 27.1781 1031.03 29.1963C1031.03 30.9215 1031.43 32.2887 1032.23 33.2979C1033.02 34.307 1034.24 34.8115 1035.86 34.8115C1037.39 34.8115 1038.7 34.3151 1039.79 33.3223C1040.89 32.3132 1041.43 31.1576 1041.43 29.8555C1041.43 27.9186 1040.92 26.2829 1039.89 24.9482C1038.88 23.6136 1037.59 22.9463 1036.01 22.9463ZM1092.02 53H1084.57V31.2959H1077.71C1077.19 37.3994 1076.55 41.9567 1075.81 44.9678C1075.06 47.9626 1074.06 50.1354 1072.8 51.4863C1071.57 52.821 1069.94 53.4883 1067.92 53.4883C1066.19 53.4883 1064.78 53.2279 1063.67 52.707V46.75C1064.47 47.0755 1065.27 47.2383 1066.06 47.2383C1066.99 47.2383 1067.77 46.571 1068.38 45.2363C1069.02 43.9017 1069.58 41.68 1070.07 38.5713C1070.57 35.4463 1071 31.1576 1071.36 25.7051H1092.02V53ZM1111.16 30.4902C1109.58 30.4902 1108.34 30.9948 1107.45 32.0039C1106.55 32.9967 1106.04 34.4128 1105.91 36.252H1116.36C1116.32 34.4128 1115.84 32.9967 1114.92 32.0039C1113.99 30.9948 1112.74 30.4902 1111.16 30.4902ZM1112.21 53.4883C1107.81 53.4883 1104.38 52.2757 1101.9 49.8506C1099.43 47.4255 1098.19 43.9912 1098.19 39.5479C1098.19 34.9743 1099.33 31.4424 1101.61 28.9521C1103.91 26.4456 1107.07 25.1924 1111.11 25.1924C1114.97 25.1924 1117.97 26.291 1120.12 28.4883C1122.27 30.6855 1123.34 33.721 1123.34 37.5947V41.208H1105.74C1105.82 43.3239 1106.45 44.9759 1107.62 46.1641C1108.79 47.3522 1110.43 47.9463 1112.55 47.9463C1114.19 47.9463 1115.75 47.7754 1117.21 47.4336C1118.68 47.0918 1120.21 46.5465 1121.8 45.7979V51.5596C1120.5 52.2106 1119.11 52.6908 1117.63 53C1116.15 53.3255 1114.34 53.4883 1112.21 53.4883ZM1151.98 25.7051V31.2959H1143.04V53H1135.6V31.2959H1126.64V25.7051H1151.98ZM1164.38 47.751C1163.53 51.0387 1162.1 54.9368 1160.08 59.4453H1154.71C1155.77 55.1159 1156.59 51.0306 1157.18 47.1895H1164.01L1164.38 47.751ZM10.6934 104.203C13.5091 104.203 15.5029 103.975 16.6748 103.52C17.863 103.064 18.457 102.34 18.457 101.347C18.457 100.468 18.0257 99.8086 17.1631 99.3691C16.3005 98.9297 14.8763 98.71 12.8906 98.71C11.6374 98.71 10.2132 98.8646 8.61816 99.1738C7.03939 99.4831 5.59896 99.9062 4.29688 100.443L2.09961 95.2432C4.03646 94.5107 5.91634 93.9899 7.73926 93.6807C9.56217 93.3551 11.5967 93.1924 13.8428 93.1924C17.2445 93.1924 19.9707 93.8434 22.0215 95.1455C24.0723 96.4476 25.0977 98.2135 25.0977 100.443C25.0977 103.52 23.2829 105.521 19.6533 106.449V106.693C21.8831 107.247 23.4701 108.036 24.4141 109.062C25.3743 110.071 25.8545 111.397 25.8545 113.041C25.8545 114.701 25.3174 116.174 24.2432 117.46C23.1689 118.746 21.6146 119.739 19.5801 120.438C17.5456 121.138 15.153 121.488 12.4023 121.488C7.84505 121.488 4.3457 120.927 1.9043 119.804V113.651C3.30404 114.302 4.83398 114.815 6.49414 115.189C8.17057 115.564 9.79004 115.751 11.3525 115.751C13.7777 115.751 15.5924 115.482 16.7969 114.945C18.0013 114.392 18.6035 113.611 18.6035 112.602C18.6035 111.495 17.9688 110.681 16.6992 110.16C15.4297 109.623 13.4766 109.354 10.8398 109.354H7.95898V104.203H10.6934ZM49.0234 121L47.583 117.289H47.3877C46.1344 118.868 44.8405 119.966 43.5059 120.585C42.1875 121.187 40.4622 121.488 38.3301 121.488C35.7096 121.488 33.6426 120.74 32.1289 119.242C30.6315 117.745 29.8828 115.613 29.8828 112.846C29.8828 109.949 30.8919 107.816 32.9102 106.449C34.9447 105.066 38.0046 104.301 42.0898 104.154L46.8262 104.008V102.812C46.8262 100.045 45.4102 98.6611 42.5781 98.6611C40.3971 98.6611 37.8337 99.3203 34.8877 100.639L32.4219 95.6094C35.5632 93.9655 39.0462 93.1436 42.8711 93.1436C46.5332 93.1436 49.3408 93.9411 51.2939 95.5361C53.2471 97.1312 54.2236 99.5563 54.2236 102.812V121H49.0234ZM46.8262 108.354L43.9453 108.451C41.7806 108.516 40.1693 108.907 39.1113 109.623C38.0534 110.339 37.5244 111.43 37.5244 112.895C37.5244 114.994 38.7288 116.044 41.1377 116.044C42.863 116.044 44.2383 115.548 45.2637 114.555C46.3053 113.562 46.8262 112.243 46.8262 110.6V108.354ZM69.3604 93.7051V104.203H79.7607V93.7051H87.207V121H79.7607V109.745H69.3604V121H61.9141V93.7051H69.3604ZM102.222 93.7051V104.496C102.222 105.635 102.035 108.419 101.66 112.846L114.258 93.7051H123.218V121H116.016V110.111C116.016 108.174 116.178 105.44 116.504 101.908L103.955 121H95.0195V93.7051H102.222ZM165.454 121H158.496V99.4912L158.105 101.005C157.227 104.439 156.437 107.035 155.737 108.793L150.903 121H145.605L140.698 108.695C139.998 106.905 139.25 104.39 138.452 101.151L137.988 99.4912V121H131.055V93.7051H141.309L145.996 105.351C146.484 106.604 146.932 108.044 147.339 109.672C147.762 111.299 148.047 112.691 148.193 113.847C148.73 111.405 149.146 109.656 149.438 108.598C149.748 107.523 150.081 106.539 150.439 105.644C150.798 104.748 152.417 100.769 155.298 93.7051H165.454V121ZM190.625 121L189.185 117.289H188.989C187.736 118.868 186.442 119.966 185.107 120.585C183.789 121.187 182.064 121.488 179.932 121.488C177.311 121.488 175.244 120.74 173.73 119.242C172.233 117.745 171.484 115.613 171.484 112.846C171.484 109.949 172.493 107.816 174.512 106.449C176.546 105.066 179.606 104.301 183.691 104.154L188.428 104.008V102.812C188.428 100.045 187.012 98.6611 184.18 98.6611C181.999 98.6611 179.435 99.3203 176.489 100.639L174.023 95.6094C177.165 93.9655 180.648 93.1436 184.473 93.1436C188.135 93.1436 190.942 93.9411 192.896 95.5361C194.849 97.1312 195.825 99.5563 195.825 102.812V121H190.625ZM188.428 108.354L185.547 108.451C183.382 108.516 181.771 108.907 180.713 109.623C179.655 110.339 179.126 111.43 179.126 112.895C179.126 114.994 180.33 116.044 182.739 116.044C184.465 116.044 185.84 115.548 186.865 114.555C187.907 113.562 188.428 112.243 188.428 110.6V108.354ZM241.211 107.304C241.211 111.78 240.08 115.263 237.817 117.753C235.555 120.243 232.422 121.488 228.418 121.488C224.821 121.488 221.94 120.479 219.775 118.461C217.627 116.443 216.325 113.537 215.869 109.745H210.962V121H203.516V93.7051H210.962V104.203H215.967C216.439 100.72 217.782 98.0182 219.995 96.0977C222.225 94.1608 225.081 93.1924 228.564 93.1924C232.422 93.1924 235.49 94.4619 237.769 97.001C240.063 99.5238 241.211 102.958 241.211 107.304ZM223.364 107.304C223.364 110.022 223.763 112.073 224.561 113.456C225.358 114.823 226.676 115.507 228.516 115.507C230.322 115.507 231.624 114.823 232.422 113.456C233.219 112.073 233.618 110.022 233.618 107.304C233.618 104.586 233.211 102.559 232.397 101.225C231.6 99.8737 230.29 99.1982 228.467 99.1982C226.66 99.1982 225.358 99.8737 224.561 101.225C223.763 102.576 223.364 104.602 223.364 107.304ZM288.013 115.556H292.017V130.79H285.303V121H247.363V93.7051H254.81V115.409H263.965V93.7051H271.411V115.409H280.566V93.7051H288.013V115.556ZM307.935 98.4902C306.356 98.4902 305.119 98.9948 304.224 100.004C303.328 100.997 302.816 102.413 302.686 104.252H313.135C313.102 102.413 312.622 100.997 311.694 100.004C310.767 98.9948 309.513 98.4902 307.935 98.4902ZM308.984 121.488C304.59 121.488 301.156 120.276 298.682 117.851C296.208 115.425 294.971 111.991 294.971 107.548C294.971 102.974 296.11 99.4424 298.389 96.9521C300.684 94.4456 303.849 93.1924 307.886 93.1924C311.743 93.1924 314.746 94.291 316.895 96.4883C319.043 98.6855 320.117 101.721 320.117 105.595V109.208H302.515C302.596 111.324 303.223 112.976 304.395 114.164C305.566 115.352 307.21 115.946 309.326 115.946C310.97 115.946 312.524 115.775 313.989 115.434C315.454 115.092 316.984 114.547 318.579 113.798V119.56C317.277 120.211 315.885 120.691 314.404 121C312.923 121.326 311.117 121.488 308.984 121.488ZM345.02 93.7051V99.2959H333.618V121H326.172V93.7051H345.02ZM356.03 107.304C356.03 110.006 356.47 112.048 357.349 113.432C358.244 114.815 359.692 115.507 361.694 115.507C363.68 115.507 365.104 114.823 365.967 113.456C366.846 112.073 367.285 110.022 367.285 107.304C367.285 104.602 366.846 102.576 365.967 101.225C365.088 99.8737 363.647 99.1982 361.646 99.1982C359.66 99.1982 358.228 99.8737 357.349 101.225C356.47 102.559 356.03 104.586 356.03 107.304ZM374.902 107.304C374.902 111.747 373.73 115.222 371.387 117.729C369.043 120.235 365.78 121.488 361.597 121.488C358.976 121.488 356.665 120.919 354.663 119.779C352.661 118.624 351.123 116.972 350.049 114.823C348.975 112.675 348.438 110.168 348.438 107.304C348.438 102.844 349.601 99.3773 351.929 96.9033C354.256 94.4294 357.528 93.1924 361.743 93.1924C364.364 93.1924 366.675 93.762 368.677 94.9014C370.679 96.0407 372.217 97.6764 373.291 99.8086C374.365 101.941 374.902 104.439 374.902 107.304ZM392.139 121.488C383.643 121.488 379.395 116.825 379.395 107.499C379.395 102.86 380.55 99.3203 382.861 96.8789C385.173 94.4212 388.485 93.1924 392.798 93.1924C395.955 93.1924 398.787 93.8109 401.294 95.0479L399.097 100.81C397.925 100.338 396.834 99.9551 395.825 99.6621C394.816 99.3529 393.807 99.1982 392.798 99.1982C388.924 99.1982 386.987 101.949 386.987 107.45C386.987 112.789 388.924 115.458 392.798 115.458C394.23 115.458 395.557 115.271 396.777 114.896C397.998 114.506 399.219 113.904 400.439 113.09V119.462C399.235 120.227 398.014 120.756 396.777 121.049C395.557 121.342 394.01 121.488 392.139 121.488ZM410.938 121H402.881L410.229 110.209C408.472 109.477 407.137 108.419 406.226 107.035C405.33 105.652 404.883 104.024 404.883 102.152C404.883 99.5156 405.868 97.4486 407.837 95.9512C409.823 94.4538 412.524 93.7051 415.942 93.7051H428.638V121H421.191V110.844H417.09L410.938 121ZM412.183 102.201C412.183 103.34 412.63 104.236 413.525 104.887C414.421 105.521 415.592 105.839 417.041 105.839H421.191V98.9541H416.089C414.868 98.9541 413.908 99.2552 413.208 99.8574C412.524 100.443 412.183 101.225 412.183 102.201ZM469.36 93.5586C473.918 93.9329 477.49 95.3408 480.078 97.7822C482.666 100.224 483.96 103.414 483.96 107.353C483.96 111.373 482.682 114.595 480.127 117.021C477.572 119.429 473.983 120.821 469.36 121.195V133.012H462.451V121.195C457.845 120.772 454.24 119.332 451.636 116.874C449.048 114.4 447.754 111.226 447.754 107.353C447.754 103.235 449.007 99.9876 451.514 97.6113C454.02 95.2188 457.666 93.8678 462.451 93.5586V83.0117H469.36V93.5586ZM455.42 107.353C455.42 109.647 456.047 111.519 457.3 112.968C458.553 114.4 460.27 115.263 462.451 115.556V99.1494C460.352 99.4261 458.651 100.313 457.349 101.811C456.063 103.308 455.42 105.155 455.42 107.353ZM476.318 107.353C476.318 105.204 475.708 103.397 474.487 101.933C473.267 100.451 471.558 99.5563 469.36 99.2471V115.556C471.525 115.263 473.226 114.392 474.463 112.943C475.7 111.495 476.318 109.631 476.318 107.353ZM497.339 93.7051V104.496C497.339 105.635 497.152 108.419 496.777 112.846L509.375 93.7051H518.335V121H511.133V110.111C511.133 108.174 511.296 105.44 511.621 101.908L499.072 121H490.137V93.7051H497.339ZM532.959 104.203C535.775 104.203 537.769 103.975 538.94 103.52C540.129 103.064 540.723 102.34 540.723 101.347C540.723 100.468 540.291 99.8086 539.429 99.3691C538.566 98.9297 537.142 98.71 535.156 98.71C533.903 98.71 532.479 98.8646 530.884 99.1738C529.305 99.4831 527.865 99.9062 526.562 100.443L524.365 95.2432C526.302 94.5107 528.182 93.9899 530.005 93.6807C531.828 93.3551 533.862 93.1924 536.108 93.1924C539.51 93.1924 542.236 93.8434 544.287 95.1455C546.338 96.4476 547.363 98.2135 547.363 100.443C547.363 103.52 545.549 105.521 541.919 106.449V106.693C544.149 107.247 545.736 108.036 546.68 109.062C547.64 110.071 548.12 111.397 548.12 113.041C548.12 114.701 547.583 116.174 546.509 117.46C545.435 118.746 543.88 119.739 541.846 120.438C539.811 121.138 537.419 121.488 534.668 121.488C530.111 121.488 526.611 120.927 524.17 119.804V113.651C525.57 114.302 527.1 114.815 528.76 115.189C530.436 115.564 532.056 115.751 533.618 115.751C536.043 115.751 537.858 115.482 539.062 114.945C540.267 114.392 540.869 113.611 540.869 112.602C540.869 111.495 540.234 110.681 538.965 110.16C537.695 109.623 535.742 109.354 533.105 109.354H530.225V104.203H532.959ZM561.157 93.7051V104.496C561.157 105.635 560.97 108.419 560.596 112.846L573.193 93.7051H582.153V121H574.951V110.111C574.951 108.174 575.114 105.44 575.439 101.908L562.891 121H553.955V93.7051H561.157ZM596.533 93.7051V103.69C596.533 106.067 597.632 107.255 599.829 107.255C601.261 107.255 602.588 107.092 603.809 106.767C605.046 106.441 606.291 106.018 607.544 105.497V93.7051H614.99V121H607.544V110.16C605.819 111.072 604.215 111.715 602.734 112.089C601.253 112.463 599.821 112.65 598.438 112.65C595.459 112.65 593.156 111.894 591.528 110.38C589.901 108.85 589.087 106.677 589.087 103.861V93.7051H596.533ZM634.106 98.4902C632.528 98.4902 631.291 98.9948 630.396 100.004C629.5 100.997 628.988 102.413 628.857 104.252H639.307C639.274 102.413 638.794 100.997 637.866 100.004C636.938 98.9948 635.685 98.4902 634.106 98.4902ZM635.156 121.488C630.762 121.488 627.327 120.276 624.854 117.851C622.38 115.425 621.143 111.991 621.143 107.548C621.143 102.974 622.282 99.4424 624.561 96.9521C626.855 94.4456 630.021 93.1924 634.058 93.1924C637.915 93.1924 640.918 94.291 643.066 96.4883C645.215 98.6855 646.289 101.721 646.289 105.595V109.208H628.687C628.768 111.324 629.395 112.976 630.566 114.164C631.738 115.352 633.382 115.946 635.498 115.946C637.142 115.946 638.696 115.775 640.161 115.434C641.626 115.092 643.156 114.547 644.751 113.798V119.56C643.449 120.211 642.057 120.691 640.576 121C639.095 121.326 637.288 121.488 635.156 121.488ZM663.428 121.488C654.932 121.488 650.684 116.825 650.684 107.499C650.684 102.86 651.839 99.3203 654.15 96.8789C656.462 94.4212 659.774 93.1924 664.087 93.1924C667.244 93.1924 670.076 93.8109 672.583 95.0479L670.386 100.81C669.214 100.338 668.123 99.9551 667.114 99.6621C666.105 99.3529 665.096 99.1982 664.087 99.1982C660.213 99.1982 658.276 101.949 658.276 107.45C658.276 112.789 660.213 115.458 664.087 115.458C665.519 115.458 666.846 115.271 668.066 114.896C669.287 114.506 670.508 113.904 671.729 113.09V119.462C670.524 120.227 669.303 120.756 668.066 121.049C666.846 121.342 665.299 121.488 663.428 121.488ZM695.972 93.7051H704.175L693.359 106.791L705.127 121H696.68L685.522 107.157V121H678.076V93.7051H685.522V106.962L695.972 93.7051ZM714.966 107.304C714.966 110.006 715.405 112.048 716.284 113.432C717.179 114.815 718.628 115.507 720.63 115.507C722.616 115.507 724.04 114.823 724.902 113.456C725.781 112.073 726.221 110.022 726.221 107.304C726.221 104.602 725.781 102.576 724.902 101.225C724.023 99.8737 722.583 99.1982 720.581 99.1982C718.595 99.1982 717.163 99.8737 716.284 101.225C715.405 102.559 714.966 104.586 714.966 107.304ZM733.838 107.304C733.838 111.747 732.666 115.222 730.322 117.729C727.979 120.235 724.715 121.488 720.532 121.488C717.912 121.488 715.601 120.919 713.599 119.779C711.597 118.624 710.059 116.972 708.984 114.823C707.91 112.675 707.373 110.168 707.373 107.304C707.373 102.844 708.537 99.3773 710.864 96.9033C713.192 94.4294 716.463 93.1924 720.679 93.1924C723.299 93.1924 725.61 93.762 727.612 94.9014C729.614 96.0407 731.152 97.6764 732.227 99.8086C733.301 101.941 733.838 104.439 733.838 107.304ZM747.192 93.7051V104.496C747.192 105.635 747.005 108.419 746.631 112.846L759.229 93.7051H768.188V121H760.986V110.111C760.986 108.174 761.149 105.44 761.475 101.908L748.926 121H739.99V93.7051H747.192ZM765.991 81.9619C765.682 85.0055 764.535 87.2272 762.549 88.627C760.563 90.0104 757.699 90.7021 753.955 90.7021C750.098 90.7021 747.241 90.0348 745.386 88.7002C743.547 87.3656 742.513 85.1195 742.285 81.9619H748.95C749.064 83.6383 749.479 84.8184 750.195 85.502C750.928 86.1693 752.23 86.5029 754.102 86.5029C755.745 86.5029 756.966 86.1367 757.764 85.4043C758.577 84.6556 759.074 83.5081 759.253 81.9619H765.991ZM806.909 93.7051H815.112L804.297 106.791L816.064 121H807.617L796.46 107.157V121H789.014V93.7051H796.46V106.962L806.909 93.7051ZM816.064 93.7051H824.219L829.37 109.062C829.81 110.396 830.111 111.975 830.273 113.798H830.42C830.599 112.121 830.949 110.543 831.47 109.062L836.523 93.7051H844.507L832.959 124.491C831.901 127.34 830.387 129.472 828.418 130.888C826.465 132.304 824.178 133.012 821.558 133.012C820.272 133.012 819.01 132.873 817.773 132.597V126.688C818.669 126.9 819.645 127.006 820.703 127.006C822.021 127.006 823.169 126.599 824.146 125.785C825.138 124.988 825.911 123.775 826.465 122.147L826.904 120.805L816.064 93.7051ZM872.876 121H865.43V99.2959H858.569C858.049 105.399 857.414 109.957 856.665 112.968C855.916 115.963 854.915 118.135 853.662 119.486C852.425 120.821 850.798 121.488 848.779 121.488C847.054 121.488 845.638 121.228 844.531 120.707V114.75C845.329 115.076 846.126 115.238 846.924 115.238C847.852 115.238 848.625 114.571 849.243 113.236C849.878 111.902 850.439 109.68 850.928 106.571C851.432 103.446 851.864 99.1576 852.222 93.7051H872.876V121ZM888.159 104.252H893.408C897.607 104.252 900.716 104.919 902.734 106.254C904.753 107.589 905.762 109.607 905.762 112.309C905.762 118.103 901.742 121 893.701 121H880.713V93.7051H888.159V104.252ZM898.315 112.406C898.315 111.348 897.892 110.583 897.046 110.111C896.2 109.639 894.938 109.403 893.262 109.403H888.159V115.849H893.359C896.663 115.849 898.315 114.701 898.315 112.406ZM934.009 93.7051V99.2959H925.073V121H917.627V99.2959H908.667V93.7051H934.009ZM935.205 93.7051H943.359L948.511 109.062C948.95 110.396 949.251 111.975 949.414 113.798H949.561C949.74 112.121 950.09 110.543 950.61 109.062L955.664 93.7051H963.647L952.1 124.491C951.042 127.34 949.528 129.472 947.559 130.888C945.605 132.304 943.319 133.012 940.698 133.012C939.412 133.012 938.151 132.873 936.914 132.597V126.688C937.809 126.9 938.786 127.006 939.844 127.006C941.162 127.006 942.31 126.599 943.286 125.785C944.279 124.988 945.052 123.775 945.605 122.147L946.045 120.805L935.205 93.7051ZM982.568 121.488C979.362 121.488 976.847 120.325 975.024 117.997H974.634C974.894 120.276 975.024 121.594 975.024 121.952V133.012H967.578V93.7051H973.633L974.683 97.2451H975.024C976.766 94.5433 979.346 93.1924 982.764 93.1924C985.986 93.1924 988.509 94.4375 990.332 96.9277C992.155 99.418 993.066 102.877 993.066 107.304C993.066 110.217 992.635 112.748 991.772 114.896C990.926 117.045 989.714 118.681 988.135 119.804C986.556 120.927 984.701 121.488 982.568 121.488ZM980.371 99.1494C978.532 99.1494 977.189 99.7191 976.343 100.858C975.496 101.981 975.057 103.845 975.024 106.449V107.255C975.024 110.185 975.456 112.284 976.318 113.554C977.197 114.823 978.581 115.458 980.469 115.458C983.805 115.458 985.474 112.707 985.474 107.206C985.474 104.521 985.059 102.51 984.229 101.176C983.415 99.8249 982.129 99.1494 980.371 99.1494ZM1005.15 107.304C1005.15 110.006 1005.59 112.048 1006.47 113.432C1007.36 114.815 1008.81 115.507 1010.82 115.507C1012.8 115.507 1014.23 114.823 1015.09 113.456C1015.97 112.073 1016.41 110.022 1016.41 107.304C1016.41 104.602 1015.97 102.576 1015.09 101.225C1014.21 99.8737 1012.77 99.1982 1010.77 99.1982C1008.78 99.1982 1007.35 99.8737 1006.47 101.225C1005.59 102.559 1005.15 104.586 1005.15 107.304ZM1024.02 107.304C1024.02 111.747 1022.85 115.222 1020.51 117.729C1018.16 120.235 1014.9 121.488 1010.72 121.488C1008.1 121.488 1005.79 120.919 1003.78 119.779C1001.78 118.624 1000.24 116.972 999.17 114.823C998.096 112.675 997.559 110.168 997.559 107.304C997.559 102.844 998.722 99.3773 1001.05 96.9033C1003.38 94.4294 1006.65 93.1924 1010.86 93.1924C1013.48 93.1924 1015.8 93.762 1017.8 94.9014C1019.8 96.0407 1021.34 97.6764 1022.41 99.8086C1023.49 101.941 1024.02 104.439 1024.02 107.304ZM1037.38 93.7051V104.496C1037.38 105.635 1037.19 108.419 1036.82 112.846L1049.41 93.7051H1058.37V121H1051.17V110.111C1051.17 108.174 1051.33 105.44 1051.66 101.908L1039.11 121H1030.18V93.7051H1037.38ZM1056.18 81.9619C1055.87 85.0055 1054.72 87.2272 1052.73 88.627C1050.75 90.0104 1047.88 90.7021 1044.14 90.7021C1040.28 90.7021 1037.43 90.0348 1035.57 88.7002C1033.73 87.3656 1032.7 85.1195 1032.47 81.9619H1039.14C1039.25 83.6383 1039.66 84.8184 1040.38 85.502C1041.11 86.1693 1042.42 86.5029 1044.29 86.5029C1045.93 86.5029 1047.15 86.1367 1047.95 85.4043C1048.76 84.6556 1049.26 83.5081 1049.44 81.9619H1056.18ZM1086.4 93.7051V104.496C1086.4 105.635 1086.21 108.419 1085.84 112.846L1098.44 93.7051H1107.4V121H1100.2V110.111C1100.2 108.174 1100.36 105.44 1100.68 101.908L1088.13 121H1079.2V93.7051H1086.4ZM1139.31 121.488C1130.81 121.488 1126.56 116.825 1126.56 107.499C1126.56 102.86 1127.72 99.3203 1130.03 96.8789C1132.34 94.4212 1135.65 93.1924 1139.97 93.1924C1143.12 93.1924 1145.96 93.8109 1148.46 95.0479L1146.26 100.81C1145.09 100.338 1144 99.9551 1142.99 99.6621C1141.98 99.3529 1140.97 99.1982 1139.97 99.1982C1136.09 99.1982 1134.16 101.949 1134.16 107.45C1134.16 112.789 1136.09 115.458 1139.97 115.458C1141.4 115.458 1142.72 115.271 1143.95 114.896C1145.17 114.506 1146.39 113.904 1147.61 113.09V119.462C1146.4 120.227 1145.18 120.756 1143.95 121.049C1142.72 121.342 1141.18 121.488 1139.31 121.488ZM1178.76 93.7051V121H1171.29V99.2959H1161.4V121H1153.96V93.7051H1178.76ZM1192.5 107.304C1192.5 110.006 1192.94 112.048 1193.82 113.432C1194.72 114.815 1196.17 115.507 1198.17 115.507C1200.15 115.507 1201.58 114.823 1202.44 113.456C1203.32 112.073 1203.76 110.022 1203.76 107.304C1203.76 104.602 1203.32 102.576 1202.44 101.225C1201.56 99.8737 1200.12 99.1982 1198.12 99.1982C1196.13 99.1982 1194.7 99.8737 1193.82 101.225C1192.94 102.559 1192.5 104.586 1192.5 107.304ZM1211.38 107.304C1211.38 111.747 1210.21 115.222 1207.86 117.729C1205.52 120.235 1202.25 121.488 1198.07 121.488C1195.45 121.488 1193.14 120.919 1191.14 119.779C1189.14 118.624 1187.6 116.972 1186.52 114.823C1185.45 112.675 1184.91 110.168 1184.91 107.304C1184.91 102.844 1186.08 99.3773 1188.4 96.9033C1190.73 94.4294 1194 93.1924 1198.22 93.1924C1200.84 93.1924 1203.15 93.762 1205.15 94.9014C1207.15 96.0407 1208.69 97.6764 1209.77 99.8086C1210.84 101.941 1211.38 104.439 1211.38 107.304ZM1232.52 121.488C1229.31 121.488 1226.8 120.325 1224.98 117.997H1224.58C1224.85 120.276 1224.98 121.594 1224.98 121.952V133.012H1217.53V93.7051H1223.58L1224.63 97.2451H1224.98C1226.72 94.5433 1229.3 93.1924 1232.71 93.1924C1235.94 93.1924 1238.46 94.4375 1240.28 96.9277C1242.11 99.418 1243.02 102.877 1243.02 107.304C1243.02 110.217 1242.59 112.748 1241.72 114.896C1240.88 117.045 1239.66 118.681 1238.09 119.804C1236.51 120.927 1234.65 121.488 1232.52 121.488ZM1230.32 99.1494C1228.48 99.1494 1227.14 99.7191 1226.29 100.858C1225.45 101.981 1225.01 103.845 1224.98 106.449V107.255C1224.98 110.185 1225.41 112.284 1226.27 113.554C1227.15 114.823 1228.53 115.458 1230.42 115.458C1233.76 115.458 1235.42 112.707 1235.42 107.206C1235.42 104.521 1235.01 102.51 1234.18 101.176C1233.37 99.8249 1232.08 99.1494 1230.32 99.1494ZM1271.75 93.7051V99.2959H1262.82V121H1255.37V99.2959H1246.41V93.7051H1271.75ZM1282.79 107.304C1282.79 110.006 1283.23 112.048 1284.11 113.432C1285 114.815 1286.45 115.507 1288.45 115.507C1290.44 115.507 1291.86 114.823 1292.72 113.456C1293.6 112.073 1294.04 110.022 1294.04 107.304C1294.04 104.602 1293.6 102.576 1292.72 101.225C1291.85 99.8737 1290.41 99.1982 1288.4 99.1982C1286.42 99.1982 1284.99 99.8737 1284.11 101.225C1283.23 102.559 1282.79 104.586 1282.79 107.304ZM1301.66 107.304C1301.66 111.747 1300.49 115.222 1298.14 117.729C1295.8 120.235 1292.54 121.488 1288.35 121.488C1285.73 121.488 1283.42 120.919 1281.42 119.779C1279.42 118.624 1277.88 116.972 1276.81 114.823C1275.73 112.675 1275.2 110.168 1275.2 107.304C1275.2 102.844 1276.36 99.3773 1278.69 96.9033C1281.01 94.4294 1284.29 93.1924 1288.5 93.1924C1291.12 93.1924 1293.43 93.762 1295.43 94.9014C1297.44 96.0407 1298.97 97.6764 1300.05 99.8086C1301.12 101.941 1301.66 104.439 1301.66 107.304ZM1342.21 121H1335.25V99.4912L1334.86 101.005C1333.98 104.439 1333.19 107.035 1332.5 108.793L1327.66 121H1322.36L1317.46 108.695C1316.76 106.905 1316.01 104.39 1315.21 101.151L1314.75 99.4912V121H1307.81V93.7051H1318.07L1322.75 105.351C1323.24 106.604 1323.69 108.044 1324.1 109.672C1324.52 111.299 1324.8 112.691 1324.95 113.847C1325.49 111.405 1325.9 109.656 1326.2 108.598C1326.51 107.523 1326.84 106.539 1327.2 105.644C1327.56 104.748 1329.17 100.769 1332.06 93.7051H1342.21V121ZM1357.35 115.751C1356.5 119.039 1355.07 122.937 1353.05 127.445H1347.68C1348.74 123.116 1349.56 119.031 1350.15 115.189H1356.98L1357.35 115.751ZM1384.08 93.7051V103.69C1384.08 106.067 1385.18 107.255 1387.38 107.255C1388.81 107.255 1390.14 107.092 1391.36 106.767C1392.59 106.441 1393.84 106.018 1395.09 105.497V93.7051H1402.54V121H1395.09V110.16C1393.37 111.072 1391.76 111.715 1390.28 112.089C1388.8 112.463 1387.37 112.65 1385.99 112.65C1383.01 112.65 1380.7 111.894 1379.08 110.38C1377.45 108.85 1376.64 106.677 1376.64 103.861V93.7051H1384.08ZM1421.66 98.4902C1420.08 98.4902 1418.84 98.9948 1417.94 100.004C1417.05 100.997 1416.54 102.413 1416.41 104.252H1426.86C1426.82 102.413 1426.34 100.997 1425.42 100.004C1424.49 98.9948 1423.23 98.4902 1421.66 98.4902ZM1422.71 121.488C1418.31 121.488 1414.88 120.276 1412.4 117.851C1409.93 115.425 1408.69 111.991 1408.69 107.548C1408.69 102.974 1409.83 99.4424 1412.11 96.9521C1414.4 94.4456 1417.57 93.1924 1421.61 93.1924C1425.46 93.1924 1428.47 94.291 1430.62 96.4883C1432.76 98.6855 1433.84 101.721 1433.84 105.595V109.208H1416.24C1416.32 111.324 1416.94 112.976 1418.12 114.164C1419.29 115.352 1420.93 115.946 1423.05 115.946C1424.69 115.946 1426.25 115.775 1427.71 115.434C1429.17 115.092 1430.7 114.547 1432.3 113.798V119.56C1431 120.211 1429.61 120.691 1428.12 121C1426.64 121.326 1424.84 121.488 1422.71 121.488ZM1464.33 121H1456.88V99.2959H1450.02C1449.5 105.399 1448.87 109.957 1448.12 112.968C1447.37 115.963 1446.37 118.135 1445.12 119.486C1443.88 120.821 1442.25 121.488 1440.23 121.488C1438.51 121.488 1437.09 121.228 1435.99 120.707V114.75C1436.78 115.076 1437.58 115.238 1438.38 115.238C1439.31 115.238 1440.08 114.571 1440.7 113.236C1441.33 111.902 1441.89 109.68 1442.38 106.571C1442.89 103.446 1443.32 99.1576 1443.68 93.7051H1464.33V121Z" fill="white"/>
<path d="M133.926 481H88.6621V357.074L89.1016 336.713L89.834 314.447C82.3145 321.967 77.0898 326.898 74.1602 329.242L49.5508 349.018L27.7246 321.771L96.7188 266.84H133.926V481ZM345.156 264.057C365.664 264.057 382.168 268.744 394.668 278.119C407.266 287.396 413.564 299.945 413.564 315.766C413.564 326.703 410.537 336.469 404.482 345.062C398.428 353.559 388.662 361.176 375.186 367.914C391.201 376.508 402.676 385.492 409.609 394.867C416.641 404.145 420.156 414.35 420.156 425.482C420.156 443.061 413.271 457.221 399.502 467.963C385.732 478.607 367.617 483.93 345.156 483.93C321.719 483.93 303.311 478.949 289.932 468.988C276.553 459.027 269.863 444.916 269.863 426.654C269.863 414.447 273.086 403.607 279.531 394.135C286.074 384.662 296.523 376.312 310.879 369.086C298.672 361.371 289.883 353.119 284.512 344.33C279.141 335.541 276.455 325.922 276.455 315.473C276.455 300.141 282.803 287.738 295.498 278.266C308.193 268.793 324.746 264.057 345.156 264.057ZM311.758 424.018C311.758 432.416 314.688 438.959 320.547 443.646C326.406 448.334 334.414 450.678 344.57 450.678C355.801 450.678 364.199 448.285 369.766 443.5C375.332 438.617 378.115 432.221 378.115 424.311C378.115 417.768 375.332 411.664 369.766 406C364.297 400.238 355.361 394.135 342.959 387.689C322.158 397.26 311.758 409.369 311.758 424.018ZM344.863 297.162C337.148 297.162 330.898 299.164 326.113 303.168C321.426 307.074 319.082 312.348 319.082 318.988C319.082 324.848 320.938 330.121 324.648 334.809C328.457 339.398 335.293 344.135 345.156 349.018C354.727 344.525 361.416 339.936 365.225 335.248C369.033 330.561 370.938 325.141 370.938 318.988C370.938 312.25 368.496 306.928 363.613 303.021C358.73 299.115 352.48 297.162 344.863 297.162ZM554.629 481H509.365V357.074L509.805 336.713L510.537 314.447C503.018 321.967 497.793 326.898 494.863 329.242L470.254 349.018L448.428 321.771L517.422 266.84H554.629V481ZM762.93 358.246C762.93 400.434 754.043 431.928 736.27 452.729C718.496 473.529 691.592 483.93 655.557 483.93C642.861 483.93 633.242 483.246 626.699 481.879V445.551C634.902 447.602 643.496 448.627 652.48 448.627C667.617 448.627 680.068 446.43 689.834 442.035C699.6 437.543 707.07 430.561 712.246 421.088C717.422 411.518 720.4 398.383 721.182 381.684H719.424C713.76 390.863 707.217 397.309 699.795 401.02C692.373 404.73 683.096 406.586 671.963 406.586C653.311 406.586 638.613 400.629 627.871 388.715C617.129 376.703 611.758 360.053 611.758 338.764C611.758 315.814 618.252 297.699 631.24 284.418C644.326 271.039 662.1 264.35 684.561 264.35C700.381 264.35 714.199 268.061 726.016 275.482C737.93 282.904 747.061 293.695 753.408 307.855C759.756 321.918 762.93 338.715 762.93 358.246ZM685.439 300.678C676.064 300.678 668.74 303.9 663.467 310.346C658.193 316.791 655.557 326.068 655.557 338.178C655.557 348.529 657.949 356.732 662.734 362.787C667.52 368.842 674.795 371.869 684.561 371.869C693.74 371.869 701.602 368.891 708.145 362.934C714.688 356.879 717.959 349.945 717.959 342.133C717.959 330.512 714.883 320.697 708.73 312.689C702.676 304.682 694.912 300.678 685.439 300.678ZM937.246 264.057C957.754 264.057 974.258 268.744 986.758 278.119C999.355 287.396 1005.65 299.945 1005.65 315.766C1005.65 326.703 1002.63 336.469 996.572 345.062C990.518 353.559 980.752 361.176 967.275 367.914C983.291 376.508 994.766 385.492 1001.7 394.867C1008.73 404.145 1012.25 414.35 1012.25 425.482C1012.25 443.061 1005.36 457.221 991.592 467.963C977.822 478.607 959.707 483.93 937.246 483.93C913.809 483.93 895.4 478.949 882.021 468.988C868.643 459.027 861.953 444.916 861.953 426.654C861.953 414.447 865.176 403.607 871.621 394.135C878.164 384.662 888.613 376.312 902.969 369.086C890.762 361.371 881.973 353.119 876.602 344.33C871.23 335.541 868.545 325.922 868.545 315.473C868.545 300.141 874.893 287.738 887.588 278.266C900.283 268.793 916.836 264.057 937.246 264.057ZM903.848 424.018C903.848 432.416 906.777 438.959 912.637 443.646C918.496 448.334 926.504 450.678 936.66 450.678C947.891 450.678 956.289 448.285 961.855 443.5C967.422 438.617 970.205 432.221 970.205 424.311C970.205 417.768 967.422 411.664 961.855 406C956.387 400.238 947.451 394.135 935.049 387.689C914.248 397.26 903.848 409.369 903.848 424.018ZM936.953 297.162C929.238 297.162 922.988 299.164 918.203 303.168C913.516 307.074 911.172 312.348 911.172 318.988C911.172 324.848 913.027 330.121 916.738 334.809C920.547 339.398 927.383 344.135 937.246 349.018C946.816 344.525 953.506 339.936 957.314 335.248C961.123 330.561 963.027 325.141 963.027 318.988C963.027 312.25 960.586 306.928 955.703 303.021C950.82 299.115 944.57 297.162 936.953 297.162ZM1108.63 264.057C1129.14 264.057 1145.64 268.744 1158.14 278.119C1170.74 287.396 1177.04 299.945 1177.04 315.766C1177.04 326.703 1174.01 336.469 1167.96 345.062C1161.9 353.559 1152.14 361.176 1138.66 367.914C1154.68 376.508 1166.15 385.492 1173.09 394.867C1180.12 404.145 1183.63 414.35 1183.63 425.482C1183.63 443.061 1176.75 457.221 1162.98 467.963C1149.21 478.607 1131.09 483.93 1108.63 483.93C1085.2 483.93 1066.79 478.949 1053.41 468.988C1040.03 459.027 1033.34 444.916 1033.34 426.654C1033.34 414.447 1036.56 403.607 1043.01 394.135C1049.55 384.662 1060 376.312 1074.36 369.086C1062.15 361.371 1053.36 353.119 1047.99 344.33C1042.62 335.541 1039.93 325.922 1039.93 315.473C1039.93 300.141 1046.28 287.738 1058.97 278.266C1071.67 268.793 1088.22 264.057 1108.63 264.057ZM1075.23 424.018C1075.23 432.416 1078.16 438.959 1084.02 443.646C1089.88 448.334 1097.89 450.678 1108.05 450.678C1119.28 450.678 1127.68 448.285 1133.24 443.5C1138.81 438.617 1141.59 432.221 1141.59 424.311C1141.59 417.768 1138.81 411.664 1133.24 406C1127.77 400.238 1118.84 394.135 1106.44 387.689C1085.63 397.26 1075.23 409.369 1075.23 424.018ZM1108.34 297.162C1100.62 297.162 1094.38 299.164 1089.59 303.168C1084.9 307.074 1082.56 312.348 1082.56 318.988C1082.56 324.848 1084.41 330.121 1088.12 334.809C1091.93 339.398 1098.77 344.135 1108.63 349.018C1118.2 344.525 1124.89 339.936 1128.7 335.248C1132.51 330.561 1134.41 325.141 1134.41 318.988C1134.41 312.25 1131.97 306.928 1127.09 303.021C1122.21 299.115 1115.96 297.162 1108.34 297.162ZM1347.55 314.74C1347.55 328.119 1343.5 339.496 1335.39 348.871C1327.29 358.246 1315.91 364.691 1301.26 368.207V369.086C1318.54 371.234 1331.63 376.508 1340.52 384.906C1349.4 393.207 1353.85 404.438 1353.85 418.598C1353.85 439.203 1346.38 455.268 1331.44 466.791C1316.49 478.217 1295.16 483.93 1267.42 483.93C1244.18 483.93 1223.57 480.072 1205.61 472.357V433.832C1213.91 438.031 1223.04 441.449 1233 444.086C1242.96 446.723 1252.82 448.041 1262.59 448.041C1277.53 448.041 1288.56 445.502 1295.69 440.424C1302.82 435.346 1306.39 427.191 1306.39 415.961C1306.39 405.902 1302.29 398.773 1294.08 394.574C1285.88 390.375 1272.79 388.275 1254.82 388.275H1238.56V353.559H1255.12C1271.72 353.559 1283.83 351.41 1291.45 347.113C1299.16 342.719 1303.02 335.248 1303.02 324.701C1303.02 308.49 1292.86 300.385 1272.55 300.385C1265.52 300.385 1258.34 301.557 1251.02 303.9C1243.79 306.244 1235.73 310.297 1226.85 316.059L1205.9 284.857C1225.43 270.795 1248.72 263.764 1275.77 263.764C1297.94 263.764 1315.42 268.256 1328.21 277.24C1341.1 286.225 1347.55 298.725 1347.55 314.74Z" fill="#01F859"/>
<circle cx="1015" cy="1140" r="300" stroke="#2A3254" stroke-width="184.709"/>
<path d="M1015 1440C849.315 1440 715 1305.69 715 1140C715 974.315 849.315 840 1015 840" stroke="#00F957" stroke-width="184.709"/>
<path d="M928.729 1156.68H920.994V1170H907.723V1156.68H880.301V1147.24L908.47 1105.75H920.994V1146.14H928.729V1156.68ZM907.723 1146.14V1135.24C907.723 1133.42 907.796 1130.79 907.942 1127.33C908.089 1123.87 908.206 1121.87 908.294 1121.31H907.942C906.858 1123.71 905.555 1126.05 904.031 1128.34L892.254 1146.14H907.723ZM955.931 1104.92C962.083 1104.92 967.034 1106.32 970.784 1109.14C974.563 1111.92 976.453 1115.68 976.453 1120.43C976.453 1123.71 975.545 1126.64 973.729 1129.22C971.912 1131.77 968.982 1134.05 964.939 1136.07C969.744 1138.65 973.187 1141.35 975.267 1144.16C977.376 1146.94 978.431 1150 978.431 1153.34C978.431 1158.62 976.365 1162.87 972.234 1166.09C968.104 1169.28 962.669 1170.88 955.931 1170.88C948.899 1170.88 943.377 1169.38 939.363 1166.4C935.35 1163.41 933.343 1159.17 933.343 1153.7C933.343 1150.03 934.31 1146.78 936.243 1143.94C938.206 1141.1 941.341 1138.59 945.647 1136.43C941.985 1134.11 939.349 1131.64 937.737 1129C936.126 1126.36 935.32 1123.48 935.32 1120.34C935.32 1115.74 937.225 1112.02 941.033 1109.18C944.842 1106.34 949.808 1104.92 955.931 1104.92ZM945.911 1152.91C945.911 1155.42 946.79 1157.39 948.548 1158.79C950.306 1160.2 952.708 1160.9 955.755 1160.9C959.124 1160.9 961.644 1160.19 963.313 1158.75C964.983 1157.29 965.818 1155.37 965.818 1152.99C965.818 1151.03 964.983 1149.2 963.313 1147.5C961.673 1145.77 958.992 1143.94 955.271 1142.01C949.031 1144.88 945.911 1148.51 945.911 1152.91ZM955.843 1114.85C953.528 1114.85 951.653 1115.45 950.218 1116.65C948.812 1117.82 948.108 1119.4 948.108 1121.4C948.108 1123.15 948.665 1124.74 949.778 1126.14C950.921 1127.52 952.972 1128.94 955.931 1130.41C958.802 1129.06 960.809 1127.68 961.951 1126.27C963.094 1124.87 963.665 1123.24 963.665 1121.4C963.665 1119.38 962.933 1117.78 961.468 1116.61C960.003 1115.43 958.128 1114.85 955.843 1114.85ZM1001.77 1160.55C1000.24 1166.47 997.664 1173.49 994.031 1181.6H984.363C986.268 1173.81 987.747 1166.46 988.802 1159.54H1001.11L1001.77 1160.55ZM1034.68 1128.96C1040.89 1128.96 1045.83 1130.7 1049.49 1134.18C1053.18 1137.67 1055.03 1142.45 1055.03 1148.51C1055.03 1155.69 1052.82 1161.21 1048.39 1165.08C1043.97 1168.95 1037.64 1170.88 1029.41 1170.88C1022.26 1170.88 1016.49 1169.72 1012.09 1167.41V1155.67C1014.41 1156.9 1017.1 1157.92 1020.18 1158.71C1023.25 1159.47 1026.17 1159.85 1028.92 1159.85C1037.21 1159.85 1041.36 1156.45 1041.36 1149.65C1041.36 1143.18 1037.07 1139.94 1028.48 1139.94C1026.93 1139.94 1025.22 1140.1 1023.34 1140.42C1021.47 1140.72 1019.94 1141.04 1018.77 1141.39L1013.37 1138.49L1015.78 1105.75H1050.63V1117.27H1027.69L1026.51 1129.88L1028.04 1129.57C1029.83 1129.16 1032.04 1128.96 1034.68 1128.96ZM1072.96 1125C1072.96 1128.72 1073.28 1131.5 1073.92 1133.35C1074.6 1135.17 1075.67 1136.07 1077.13 1136.07C1079.94 1136.07 1081.35 1132.38 1081.35 1125C1081.35 1117.68 1079.94 1114.01 1077.13 1114.01C1075.67 1114.01 1074.6 1114.92 1073.92 1116.74C1073.28 1118.53 1072.96 1121.28 1072.96 1125ZM1092.42 1124.91C1092.42 1131.65 1091.12 1136.72 1088.51 1140.12C1085.91 1143.49 1082.08 1145.17 1077.04 1145.17C1072.21 1145.17 1068.47 1143.44 1065.84 1139.99C1063.2 1136.5 1061.88 1131.47 1061.88 1124.91C1061.88 1111.52 1066.94 1104.83 1077.04 1104.83C1082 1104.83 1085.79 1106.57 1088.43 1110.06C1091.09 1113.52 1092.42 1118.47 1092.42 1124.91ZM1122.66 1105.75L1087.02 1170H1076.47L1112.11 1105.75H1122.66ZM1117.96 1150.66C1117.96 1154.38 1118.28 1157.17 1118.92 1159.01C1119.6 1160.83 1120.67 1161.74 1122.13 1161.74C1124.94 1161.74 1126.35 1158.05 1126.35 1150.66C1126.35 1143.34 1124.94 1139.68 1122.13 1139.68C1120.67 1139.68 1119.6 1140.59 1118.92 1142.4C1118.28 1144.19 1117.96 1146.94 1117.96 1150.66ZM1137.42 1150.58C1137.42 1157.29 1136.12 1162.34 1133.51 1165.74C1130.91 1169.11 1127.08 1170.79 1122.04 1170.79C1117.21 1170.79 1113.47 1169.06 1110.84 1165.61C1108.2 1162.12 1106.88 1157.11 1106.88 1150.58C1106.88 1137.19 1111.94 1130.49 1122.04 1130.49C1127 1130.49 1130.79 1132.24 1133.43 1135.72C1136.09 1139.18 1137.42 1144.13 1137.42 1150.58Z" fill="white"/>
</svg>
